<?xml version="1.0" encoding="utf-8"?>
<!-- Generator: Adobe Illustrator 21.1.0, SVG Export Plug-In . SVG Version: 6.00 Build 0)  -->
<svg version="1.1" id="Layer_1" xmlns="http://www.w3.org/2000/svg" xmlns:xlink="http://www.w3.org/1999/xlink" x="0px" y="0px"
	 viewBox="0 0 35 35" style="enable-background:new 0 0 35 35;" xml:space="preserve">
<style type="text/css">
	.st0{fill:#FFFFFF;}
	.st1{fill:#44B0D2;}
</style>
<rect class="st0" width="35" height="35"/>
<g>
	<path class="st1" d="M6.6,28.4c0.3-1,0.6-1.9,0.9-2.8c0.3-0.9,0.6-1.8,0.9-2.7c0-0.1,0-0.3,0-0.4C4.7,16,8.5,8,15.9,6.7
		c5.7-1,11,2.6,12.3,8.3c1.1,5.2-1.9,10.6-7,12.2c-2.9,1-5.8,0.8-8.5-0.6c-0.1-0.1-0.3-0.1-0.4,0c-1.8,0.6-3.6,1.1-5.4,1.7
		C6.8,28.3,6.7,28.4,6.6,28.4z M9.3,25.8c0.2,0,0.3-0.1,0.4-0.1c1-0.3,1.9-0.6,2.9-0.9c0.1,0,0.3,0,0.4,0c2.2,1.3,4.5,1.7,6.9,1.1
		c4.6-1.1,7.7-5.8,6.7-10.5c-1.1-4.9-5.9-8-10.8-6.9c-6.2,1.4-9,8.5-5.4,13.7c0.1,0.2,0.1,0.3,0.1,0.5C10,23.7,9.6,24.7,9.3,25.8z"
		/>
	<path class="st1" d="M14.4,12.4c0.5-0.1,0.7,0.2,0.9,0.6c0.2,0.6,0.5,1.2,0.7,1.7c0.1,0.2,0.1,0.4,0,0.6c-0.2,0.3-0.4,0.5-0.6,0.8
		c-0.2,0.2-0.2,0.4-0.1,0.6c0.9,1.4,2.1,2.5,3.6,3.1c0.2,0.1,0.4,0,0.5-0.1c0.3-0.3,0.5-0.6,0.8-1c0.2-0.2,0.3-0.3,0.6-0.2
		c0.7,0.3,1.5,0.7,2.2,1.1c0.1,0.1,0.2,0.3,0.2,0.4c0,1.2-0.7,1.8-1.9,2.2c-0.6,0.2-1.1,0-1.7-0.1c-2.4-0.6-4.3-2.1-5.7-4.1
		c-0.5-0.7-1-1.4-1.2-2.3c-0.3-1.1,0-2.1,0.8-3C13.7,12.4,14,12.3,14.4,12.4z"/>
</g>
</svg>
