<?xml version="1.0" encoding="utf-8"?>
<!-- Generator: Adobe Illustrator 21.1.0, SVG Export Plug-In . SVG Version: 6.00 Build 0)  -->
<svg version="1.1" id="Layer_1" xmlns="http://www.w3.org/2000/svg" xmlns:xlink="http://www.w3.org/1999/xlink" x="0px" y="0px"
	 viewBox="0 0 42 51" style="enable-background:new 0 0 42 51;" xml:space="preserve">
<style type="text/css">
	.st0{fill:#44B1D3;}
	.st1{fill:#05274F;}
</style>
<g>
	<path class="st0" d="M17.3,31.3c-1.2,0.2-1.2,0.2-1.2,1.3c0,1.9,0,3.9,0,5.8c0,0.7,0.1,0.7,0.7,0.7c0.4,0,0.8,0,1.3,0
		c0,0.3,0,0.5,0,0.8c-0.5,0-1,0-1.5,0c-0.4,0-0.6,0.1-0.6,0.5c0,0.4,0,0.9,0,1.3c0,0.4,0.2,0.5,0.5,0.5c0.5,0,1,0,1.5,0
		c0,0.8,0,1.6,0,2.4c-0.5,0-1,0-1.5,0c-0.4,0-0.6,0.2-0.6,0.6c0,0,0,0.1,0,0.1c0.2,1.3-0.3,2.2-1.3,3c-0.5,0.4-0.9,0.8-1.4,1.3
		c-0.8-0.8-1.6-1.7-2.4-2.5c-0.1-0.1-0.1-0.3-0.1-0.4c0-1.1,0-2.2,0-3.3c0-0.2,0.1-0.5,0.3-0.6c0.4-0.4,0.8-0.8,1.2-1.3
		c0.3-0.3,0.3-0.5,0-0.8c-0.5-0.4-0.9-0.9-1.4-1.4c0.5-0.5,1-1,1.4-1.4c0.3-0.3,0.3-0.6,0-0.8c0,0-0.1-0.1-0.1-0.1
		c-1.2-0.8-1.6-2-1.4-3.4c0.1-0.6,0-1.1,0-1.7c0-0.6-0.1-0.7-0.7-0.7c-0.2,0-0.3,0-0.6,0c0-0.6,0-1.1,0-1.6c0-0.5-0.1-0.7-0.5-1
		c-3-1.9-4.4-5.6-3.3-8.9c0,0,0-0.1,0.1-0.1c0.7,0.2,1.5,0.5,2.2,0.7c0.8,0.2,1.7,0.2,2.6,0.3c0.3,0,0.4,0.1,0.6,0.3
		c0.7,1,1.9,1.4,2.9,1c1.1-0.4,1.9-1.4,1.9-2.5c0-1.4-1.2-2.6-2.6-2.6c-1.3,0-2.6,1.2-2.7,2.5c0,0.1,0,0.3,0,0.5
		c-1.6,0.1-3.1-0.2-4.6-1c0.7-1.6,1.8-2.8,3.3-3.6c3.4-1.9,7.8-1,10.2,2c2.5,3.2,2.2,7.6-0.6,10.4c-0.4,0.4-0.8,0.8-1.3,1
		c-0.5,0.3-0.7,0.6-0.6,1.1C17.3,30.3,17.3,30.8,17.3,31.3z M7.6,21.6C7.1,21.6,7,21.9,7,22.2c0.1,2.2,1,3.9,2.8,5.2
		c0.2,0.2,0.5,0.2,0.6,0c0.1-0.1,0-0.4-0.2-0.6c-0.3-0.4-0.7-0.6-1.1-1c-0.9-1-1.3-2.2-1.4-3.6C7.8,22,7.7,21.8,7.6,21.6z"/>
	<g>
		<path class="st1" d="M18.6,29.4c2.9-2,4.5-5.8,3.7-9.1c-0.9-3.8-3.3-6.2-7-7c-3.6-0.8-6.7,0.5-9.1,3.6c-0.2,0.3-0.4,0.6-0.6,0.9
			c0,0.1-0.1,0.1-0.1,0.2C2.3,15.9,1,12.9,1.4,9.3c0.5-4.4,4-7.7,8.5-8c4-0.3,7.8,2.2,9.2,5.9c0.2,0.7,0.4,1.4,0.5,2.2l0,0
			c0,0.3,0.1,0.5,0.1,0.8c0,0,0,0.1,0,0.1c0,0.2,0.1,0.7,0.7,0.7c0.2,0,0.4-0.1,0.5-0.2c0.2-0.2,0.2-0.5,0.2-0.8l0-0.2
			c0-0.3,0-0.6-0.1-0.9c-0.4-3.3-2.5-6.3-5.6-7.8c-3.1-1.6-6.7-1.6-9.7,0C2.3,2.9,0.2,6.2,0,9.9c-0.2,3.7,1.6,7.2,4.7,9.2
			c0.2,0.1,0.2,0.2,0.2,0.4C4,23,4.8,26.1,7.4,28.7l0.1,0c1,0.5,1.3,1.3,1.2,2.7c0,0.4,0,0.6,0.1,0.8c0.2,0.2,0.4,0.2,0.8,0.2
			c0.1,0,0.2,0,0.3,0c0,0.2,0,0.5,0,0.7c0,0.9,0,1.7,0,2.5c0,0.3,0.2,0.7,0.4,0.9c0.3,0.3,0.6,0.6,0.9,0.9c0.1,0.1,0.1,0.1,0.2,0.2
			l-0.3,0.3c-0.3,0.3-0.6,0.6-0.9,0.8c-0.3,0.3-0.4,0.5-0.4,0.7c0,0.2,0.1,0.4,0.4,0.7c0.3,0.3,0.6,0.6,0.9,0.9l0.2,0.2l-0.2,0.2
			c-0.4,0.3-0.6,0.6-0.9,0.9c-0.2,0.2-0.4,0.6-0.4,0.9c0,1.2,0,2.4,0,3.9c0,0.3,0.1,0.6,0.3,0.8c0.5,0.6,1.1,1.2,1.6,1.7l0.1,0.1
			c0.3,0.3,0.7,0.7,1,1c0.2,0.2,0.4,0.3,0.6,0.3c0.2,0,0.4-0.1,0.6-0.3c0.1-0.1,0.2-0.2,0.3-0.4l0.1-0.1c0.4-0.5,0.9-1,1.4-1.4
			c0.8-0.6,1.6-1.6,1.3-3c0,0,0-0.1,0-0.1c0,0,0,0,0.1,0c0.2,0,0.4,0,0.6,0h0.2c0.1,0,0.2,0,0.3,0c0.3,0,0.5-0.1,0.6-0.2
			c0.1-0.1,0.2-0.3,0.2-0.6c0-1.1,0-2,0-2.9c0-0.3-0.1-0.5-0.2-0.6c-0.1-0.1-0.3-0.2-0.6-0.2c-0.2,0-0.5,0-0.7,0l-0.4,0V41l0.2,0
			c0.3,0,0.7,0,1,0c0,0,0,0,0,0c0.2,0,0.4-0.1,0.6-0.2c0.1-0.1,0.2-0.3,0.2-0.6l0-0.1c0-0.4,0-0.8,0-1.1c0-0.3-0.1-0.5-0.2-0.7
			c-0.2-0.2-0.4-0.2-0.7-0.2c-0.3,0-0.6,0-1,0l-0.2,0v-5.7c0.1,0,0.1,0,0.2,0c0.8,0,0.9-0.2,0.9-1l0-0.3c0-0.4,0-0.8,0-1.1
			C18.3,29.7,18.4,29.6,18.6,29.4z M17.7,28.4c-0.6,0.3-0.8,0.8-0.7,1.4c0,0.3,0,0.6,0,1v0c0,0.1,0,0.2,0,0.2
			c-1.1,0.2-1.2,0.4-1.2,1.6c0,1.9,0,3.9,0,5.8c0,0.8,0.2,1,1,1h1v0.3l-0.2,0c-0.3,0-0.7,0-1,0c-0.3,0-0.5,0.1-0.6,0.2
			c-0.1,0.1-0.2,0.3-0.2,0.6c0,0.4,0,0.9,0,1.3c0,0.2,0.1,0.4,0.2,0.6c0.1,0.1,0.3,0.2,0.6,0.2c0.3,0,0.7,0,1,0l0.2,0v1.9l-0.2,0
			c-0.3,0-0.7,0-1,0c-0.3,0-0.5,0.1-0.6,0.2c-0.1,0.1-0.2,0.4-0.2,0.6c0,0,0,0.1,0,0.1c0.2,1.1-0.2,2-1.2,2.8
			c-0.3,0.3-0.7,0.6-1,0.9l-0.1,0.1c-0.1,0.1-0.1,0.1-0.2,0.2L13.1,49c-0.6-0.7-1.3-1.3-1.9-2c0,0,0-0.1,0-0.3l0-0.4
			c0-0.9,0-1.9,0-2.9c0-0.1,0.1-0.3,0.2-0.5c0.3-0.3,0.7-0.7,1-1l0.2-0.2c0.2-0.2,0.3-0.4,0.3-0.6c0-0.2-0.1-0.4-0.3-0.6
			c-0.3-0.3-0.6-0.6-0.9-0.9l-0.3-0.3l0.3-0.3c0.3-0.3,0.6-0.6,0.9-0.9c0.2-0.2,0.3-0.4,0.3-0.6c0-0.2-0.1-0.4-0.3-0.6c0,0,0,0,0,0
			c0,0-0.1-0.1-0.1-0.1c-1.1-0.7-1.5-1.7-1.3-3.1c0.1-0.4,0-0.8,0-1.1c0-0.2,0-0.4,0-0.6c0-0.4,0-0.6-0.2-0.8
			c-0.2-0.2-0.4-0.2-0.7-0.2c-0.1,0-0.2,0-0.3,0l0-0.3c0-0.4,0-0.7,0-1.1c0-0.5-0.2-0.9-0.6-1.2c-2.9-1.8-4.2-5.3-3.2-8.6
			c0.1,0,0.3,0.1,0.5,0.2c0.5,0.2,1,0.3,1.5,0.4c0.8,0.2,1.5,0.2,2.3,0.3l0.3,0c0.2,0,0.3,0,0.4,0.2c0.8,1.1,2,1.5,3.2,1.1
			c1.2-0.4,2-1.6,2-2.7c0-1.5-1.4-2.9-2.9-2.9h0c-1.5,0-2.8,1.3-2.9,2.8c0,0.1,0,0.1,0,0.2c-1.4,0-2.7-0.2-4-0.8
			c0.7-1.4,1.7-2.5,3.1-3.2c3.3-1.8,7.6-1,9.8,1.9c2.4,3.1,2.2,7.3-0.6,10.1C18.6,27.8,18.2,28.2,17.7,28.4z M13.9,19.6
			c-0.2-0.6-0.8-0.5-1-0.4c-0.3,0.1-0.5,0.1-0.8,0.2l-0.1,0c0-0.7,0.4-1.3,1-1.5c0.8-0.3,1.7,0.1,2,0.8c0.3,0.7,0.1,1.6-0.6,2
			c-0.6,0.3-1.3,0.3-1.8-0.1c0.2-0.1,0.5-0.1,0.7-0.2c0.2-0.1,0.5-0.1,0.6-0.4C14,19.9,14,19.8,13.9,19.6z"/>
		<path class="st1" d="M41.9,35.5l-0.2-0.9c-0.2-0.9-0.4-1.7-0.6-2.6c-0.1-0.4-0.3-0.7-0.7-1c-3.4-2.1-6.7-4.1-10.1-6.2l-1.9-1.2
			c-0.1-0.1-0.3-0.2-0.4-0.3c0-0.1,0.1-0.2,0.1-0.2c0.2-0.3,0.3-0.5,0.2-0.7c-0.1-0.2-0.2-0.4-0.5-0.6c-0.2-0.1-0.3-0.2-0.5-0.3
			c-0.2-0.1-0.4-0.2-0.6-0.3c-0.4-0.2-0.6-0.4-0.6-0.8c0-0.4-0.1-0.8-0.1-1.1l0-0.1c-1-4.7-5.4-7.7-10.1-7c-0.2,0-0.8,0.1-0.7,0.8
			c0.1,0.6,0.6,0.6,0.9,0.6c0.2,0,0.3,0,0.5,0c0.6,0,1.2-0.1,1.8,0c3.8,0.6,6.5,3.7,6.5,7.5c0,0.4,0.2,0.7,0.5,0.9
			c0.3,0.2,0.6,0.4,1,0.6l0.1,0c0.1,0.1,0.2,0.1,0.2,0.2c0,0.1-0.1,0.1-0.1,0.2c-0.4,0.7-0.4,0.9,0.3,1.4c0.1,0.1,0.2,0.1,0.3,0.2
			l3.9,2.4c2.8,1.7,5.5,3.4,8.3,5.1l0,0c0.1,0,0.3,0.2,0.3,0.2c0.2,0.8,0.4,1.7,0.6,2.6l0.2,0.6l-0.6,0.1c-0.9,0.2-1.7,0.4-2.5,0.5
			c-0.1,0-0.2,0-0.4-0.1c-0.2-0.1-0.4-0.3-0.6-0.4c-0.3-0.2-0.7-0.4-1.1-0.6c-1.1-0.5-1.7-1.3-1.8-2.5c0-0.1,0-0.2,0-0.3
			c-0.1-0.3-0.2-0.5-0.3-0.6c-0.2-0.1-0.4-0.1-0.7-0.1c-0.4,0.1-0.9,0.2-1.3,0.3l-0.3,0.1l-0.1-0.5c-0.1-0.3-0.2-0.7-0.2-1
			c-0.1-0.4-0.2-0.6-0.4-0.7c-0.2-0.1-0.5-0.1-0.8,0c-0.2,0-0.3,0.1-0.5,0.1l-0.1,0c-0.3,0.1-0.6,0.2-0.9,0.2c-0.2,0-0.4,0-0.6-0.1
			c-0.6-0.4-1.3-0.8-1.8-1.1l-0.1-0.1c-0.2-0.1-0.4-0.2-0.5-0.3c-1-0.6-1.2-0.6-1.8,0.3l-0.5-0.3c-0.3-0.2-0.6-0.4-0.9-0.6
			c-0.2-0.1-0.7-0.4-1.1,0.1c-0.1,0.2-0.2,0.3-0.1,0.5c0.1,0.3,0.3,0.4,0.5,0.5l1.4,0.8c0.9,0.6,1.1,0.6,1.7-0.3l0,0
			c0.1,0,0.2,0.1,0.2,0.1c0.3,0.2,0.5,0.3,0.8,0.5l0,0c0.6,0.4,1.2,0.7,1.8,1.1c0.2,0.1,0.6,0.2,0.9,0.1c0.4-0.1,0.8-0.2,1.2-0.3
			c0.1,0,0.2,0,0.3-0.1l0.1,0.4c0.1,0.4,0.2,0.7,0.2,1c0.2,0.7,0.5,0.9,1.2,0.8l1.5-0.3l0.1,0.3c0.1,0.5,0.2,0.9,0.3,1.3
			c0.1,0.3,0.3,0.5,0.5,0.6c1.1,0.7,2.3,1.4,3.4,2.1c0.2,0.1,0.4,0.1,0.6,0.1c0.1,0,0.1,0,0.2,0c1.3-0.2,2.6-0.5,3.8-0.8
			c0.3-0.1,0.6-0.2,0.7-0.3C42,36.1,42,35.9,41.9,35.5z"/>
		<path class="st1" d="M27.8,26.6C27.8,26.6,27.8,26.7,27.8,26.6c2,1.2,3.9,2.4,5.8,3.6l0.6,0.4c0.7,0.5,1.4,0.9,2.1,1.3
			c0.1,0.1,0.3,0.1,0.5,0.1c0.1,0,0.2,0,0.2,0c0.2,0,0.3-0.2,0.3-0.3l0,0c0,0,0.1-0.1,0.1-0.1l0.1-0.2l-0.2-0.2
			c-0.1-0.1-0.1-0.1-0.2-0.2c-0.1-0.1-0.3-0.2-0.4-0.3c-1.4-0.9-2.8-1.7-4.2-2.6l-2.2-1.4c-0.1-0.1-0.3-0.2-0.4-0.3l-0.2-0.1
			c-0.5-0.3-1-0.6-1.5-0.9c-0.2-0.1-0.4-0.1-0.6,0c-0.1,0-0.1,0-0.2,0l-0.3,0l0.1,0.5c0,0.1,0.1,0.3,0.1,0.4
			C27.6,26.5,27.7,26.6,27.8,26.6l0.1-0.1L27.8,26.6L27.8,26.6z"/>
		<path class="st1" d="M10,26.1L10,26.1L10,26.1c-0.2-0.2-0.4-0.3-0.5-0.5c-0.8-0.9-1.3-2.1-1.3-3.4c0-0.2-0.1-0.4-0.2-0.5
			c0-0.1-0.1-0.1-0.1-0.2l-0.1-0.2l-0.2,0c-0.7,0.1-0.8,0.5-0.8,0.9c0.1,2.2,1.1,4,2.9,5.4c0.2,0.1,0.4,0.2,0.5,0.2c0,0,0.1,0,0.1,0
			c0.1,0,0.3-0.1,0.4-0.3c0.1-0.3,0-0.7-0.2-0.9C10.3,26.4,10.1,26.2,10,26.1z"/>
	</g>
</g>
</svg>
