<?xml version="1.0" encoding="utf-8"?>
<!-- Generator: Adobe Illustrator 21.1.0, SVG Export Plug-In . SVG Version: 6.00 Build 0)  -->
<svg version="1.1" id="Layer_1" xmlns="http://www.w3.org/2000/svg" xmlns:xlink="http://www.w3.org/1999/xlink" x="0px" y="0px"
	 viewBox="0 0 35 46" style="enable-background:new 0 0 35 46;" xml:space="preserve">
<style type="text/css">
	.st0{fill:#05274F;}
	.st1{fill:#44B1D3;}
</style>
<g>
	<g>
		<path class="st0" d="M35,4.6V1.2C35,0.2,34.8,0,33.8,0H1.2C0.2,0,0,0.2,0,1.2v5.2c0,12.8,0,25.6,0,38.5c0,0.5,0.2,0.8,0.5,1.1l0,0
			h34l0,0c0.3-0.3,0.5-0.6,0.5-1C35,31.5,35,18,35,4.6z M22.2,34.6v9.7h-9.4v-9.7H22.2z M22.2,23.1v9.7h-9.5v-9.7H22.2z M11.1,34.6
			v9.7H1.7v-9.7H11.1z M11.1,23.1v9.7H1.6v-9.7H11.1z M1.6,21.4V1.7h31.7v19.7H1.6z M23.9,44.3V23.2h9.4v21.2H23.9z"/>
		<path class="st0" d="M30.5,3.7c-8.7,0-17.3,0-26,0C3.7,3.7,3.4,4,3.4,4.8c0,4.6,0,9.1,0,13.7c0,0.9,0.3,1.2,1.1,1.2l16.6,0
			c1.2,0,2.5,0,3.7,0c1.8,0,3.7,0,5.5,0c0.9,0,1.1-0.3,1.1-1.2c0-4.6,0-9.1,0-13.7C31.6,4,31.3,3.7,30.5,3.7z M29.9,5.4V18H5.1V5.4
			H29.9z"/>
		<path class="st0" d="M25.9,33c0.9,0,1.8,0,2.6,0c0.9,0,1.9,0,2.8,0c0.3,0,0.5-0.1,0.7-0.3c0.1-0.2,0.2-0.4,0.2-0.6
			c0-0.5-0.4-0.8-0.9-0.8c-0.6,0-1.2,0-1.7,0l-1.7,0c-0.6,0-1.3,0-1.9,0c-0.5,0-0.9,0.3-0.9,0.8c0,0.2,0.1,0.4,0.2,0.6
			C25.4,32.9,25.6,33,25.9,33z"/>
		<path class="st0" d="M31.3,34.4c-2,0-3.8,0-5.4,0c-0.3,0-0.5,0.1-0.7,0.3C25.1,34.8,25,35,25,35.3c0,0.5,0.4,0.8,0.9,0.8
			c0.4,0,0.7,0,1.1,0c0.3,0,0.5,0,0.8,0l0.8,0l0.8,0c0.6,0,1.2,0,1.9,0c0.5,0,0.9-0.3,0.9-0.8c0-0.2-0.1-0.4-0.2-0.6
			C31.8,34.5,31.6,34.4,31.3,34.4z"/>
		<path class="st0" d="M14.9,28.9c0.9,0,1.7,0,2.6,0c0.9,0,1.7,0,2.6,0c0.3,0,0.6-0.1,0.8-0.3c0.1-0.1,0.2-0.3,0.2-0.6
			c0-0.5-0.4-0.8-0.9-0.8c-0.6,0-1.3,0-1.9,0h-1.4c-0.7,0-1.3,0-2,0c-0.6,0-1,0.3-1,0.8c0,0.2,0.1,0.4,0.2,0.6
			C14.3,28.8,14.6,28.9,14.9,28.9z"/>
		<path class="st0" d="M15.1,40.2c0.6,0,1.2,0,1.8,0l0.8,0l0.8,0c0.3,0,0.5,0,0.8,0c0.4,0,0.7,0,1.1,0c0.3,0,0.5-0.1,0.7-0.3
			c0.1-0.1,0.2-0.4,0.2-0.6c0-0.5-0.4-0.8-0.9-0.8c-1.8,0-3.6,0-5.3,0c-0.6,0-0.9,0.3-1,0.8c0,0.2,0.1,0.4,0.2,0.6
			C14.5,40.1,14.8,40.2,15.1,40.2z"/>
		<path class="st0" d="M17.7,37.8C17.7,37.8,17.7,37.8,17.7,37.8c0.5,0,0.9-0.4,0.9-0.9c0-0.5-0.4-0.9-0.9-0.9
			c-0.2,0-0.5,0.1-0.7,0.3c-0.2,0.2-0.3,0.4-0.3,0.6C16.8,37.3,17.2,37.8,17.7,37.8z"/>
		<path class="st0" d="M17.7,40.9C17.7,40.9,17.7,40.9,17.7,40.9c-0.2,0-0.5,0.1-0.7,0.3c-0.2,0.2-0.3,0.4-0.3,0.7
			c0,0.5,0.4,0.9,0.9,0.9c0,0,0,0,0,0c0.5,0,0.9-0.4,0.9-0.9C18.6,41.4,18.2,40.9,17.7,40.9z"/>
		<path class="st0" d="M3.8,40.7c-0.2,0.2-0.3,0.3-0.3,0.5c-0.1,0.4,0,0.7,0.3,0.9c0.4,0.2,0.7,0.2,1-0.1c0.3-0.3,0.6-0.7,1-1
			l0.4-0.4l0.3,0.4c0.3,0.3,0.6,0.7,0.9,1c0.2,0.3,0.5,0.4,0.7,0.4c0.2,0,0.4-0.1,0.5-0.2C8.9,41.8,9,41.6,9,41.4
			c0-0.2-0.1-0.5-0.4-0.7c-0.3-0.3-0.6-0.6-1-1l-0.3-0.3L7.7,39c0.3-0.3,0.6-0.6,0.9-1C8.9,37.8,9,37.5,9,37.3
			c0-0.2-0.1-0.4-0.2-0.6c-0.4-0.4-0.8-0.3-1.2,0.1c-0.3,0.3-0.6,0.6-0.9,1l-0.3,0.4l-0.4-0.4c-0.3-0.4-0.7-0.7-1-1
			c-0.2-0.2-0.5-0.3-0.8-0.3c-0.2,0-0.4,0.2-0.5,0.5c-0.2,0.4-0.1,0.7,0.2,1c0.3,0.3,0.6,0.6,1,1l0.4,0.4l-0.3,0.3
			C4.5,40,4.1,40.3,3.8,40.7z"/>
		<path class="st0" d="M3.6,28.9c0.4,0,0.8,0,1.2,0l0.5,0l0,0.5c0,0.5,0,0.9,0,1.3c0,0.4,0.1,0.6,0.3,0.8c0.1,0.1,0.3,0.2,0.5,0.2
			c0,0,0,0,0,0c0.5,0,0.8-0.4,0.8-1v-1.8h1.8c0.6,0,1-0.3,1-0.8c0-0.2-0.1-0.4-0.2-0.6c-0.2-0.2-0.4-0.3-0.8-0.3c-0.4,0-0.8,0-1.2,0
			H7l0-0.9c0-0.4,0-0.8,0-1.2c0-0.4-0.3-0.7-0.7-0.8c-0.4-0.1-0.7,0.1-0.9,0.5c-0.1,0.2-0.1,0.4-0.1,0.6c0,0.4,0,0.9,0,1.4l0,0.4
			H4.9c-0.4,0-0.8,0-1.2,0c-0.6,0-1,0.3-1,0.8C2.6,28.6,3,28.9,3.6,28.9z"/>
	</g>
	<path class="st1" d="M30,18.1c-8.4,0-16.7,0-25.1,0c0-4.3,0-8.6,0-12.9c8.4,0,16.7,0,25.1,0C30,9.5,30,13.8,30,18.1z"/>
</g>
</svg>
