<?xml version="1.0" encoding="utf-8"?>
<!-- Generator: Adobe Illustrator 21.1.0, SVG Export Plug-In . SVG Version: 6.00 Build 0)  -->
<svg version="1.1" id="Layer_1" xmlns="http://www.w3.org/2000/svg" xmlns:xlink="http://www.w3.org/1999/xlink" x="0px" y="0px"
	 viewBox="0 0 35 35" style="enable-background:new 0 0 35 35;" xml:space="preserve">
<style type="text/css">
	.st0{fill:#FFFFFF;}
	.st1{fill:#44B0D2;}
</style>
<rect class="st0" width="35" height="35"/>
<g>
	<path class="st1" d="M6.8,10.4c0-0.7,0.3-1.5,1-2.2c0.7-0.7,1.5-1.1,2.4-1.2c0.5-0.1,1,0,1.3,0.4c0.4,0.3,0.8,0.7,1.1,1.1
		c0.7,0.9,1.3,1.8,1.9,2.7c0.2,0.3,0.3,0.6,0.4,0.9c0.2,0.6,0.1,1.1-0.3,1.6c-0.2,0.2-0.5,0.4-0.8,0.6c-0.8,0.6-1.1,1.3-0.7,2.2
		c0.5,1.4,1.3,2.5,2.3,3.5c0.9,0.9,2,1.6,3.2,2.1c1,0.4,1.6,0.2,2.3-0.6c0.1-0.1,0.2-0.2,0.3-0.4c0.7-0.8,1.5-1,2.5-0.6
		c0.2,0.1,0.4,0.2,0.6,0.3c1.1,0.8,2.2,1.6,3.3,2.5c0.8,0.6,1,1.4,0.5,2.3c-0.7,1.6-1.9,2.6-3.7,3c-0.5,0.1-1-0.1-1.5-0.3
		C15.5,25,10.2,19.8,7.2,12.4C6.9,11.8,6.8,11.2,6.8,10.4z"/>
	<path class="st1" d="M28,16.3c0,0.4,0,0.7,0,1c0,0.4-0.2,0.5-0.6,0.5c-0.3,0-0.5-0.2-0.5-0.5c-0.1-0.7-0.1-1.4-0.3-2.1
		c-0.3-1.6-0.9-3.2-2-4.5c-1.2-1.3-2.7-2.1-4.4-2.5c-0.7-0.2-1.5-0.3-2.2-0.4c-0.6-0.1-0.8-0.3-0.6-0.8c0.1-0.3,0.3-0.4,0.6-0.4
		c1.9,0,3.7,0.5,5.4,1.6c2.4,1.6,3.9,3.8,4.5,6.6c0,0.2,0.1,0.3,0.1,0.5C27.9,15.6,28,16,28,16.3z"/>
	<path class="st1" d="M25.3,15.7c0,0.2,0,0.4,0,0.5c0,0.3-0.2,0.5-0.5,0.5c-0.3,0-0.5-0.1-0.6-0.5c-0.1-0.6-0.2-1.1-0.3-1.7
		c-0.1-0.4-0.2-0.7-0.3-1.1c-0.5-1.2-1.3-2-2.5-2.5c-0.8-0.3-1.6-0.5-2.4-0.7c-0.6-0.1-0.8-0.3-0.7-0.8c0.1-0.3,0.3-0.5,0.6-0.4
		c1.1,0.1,2.2,0.3,3.2,0.9c1.7,1,2.9,2.5,3.3,4.5C25.3,14.9,25.3,15.3,25.3,15.7C25.4,15.7,25.4,15.7,25.3,15.7z"/>
	<path class="st1" d="M22.9,15.1c0,0.2,0,0.3-0.1,0.5c-0.1,0.2-0.2,0.3-0.5,0.4c-0.2,0-0.4-0.1-0.5-0.3c-0.1-0.2-0.1-0.3-0.1-0.5
		c-0.2-1.2-0.9-2-2.1-2.2c-0.1,0-0.2,0-0.3-0.1c-0.3-0.1-0.5-0.2-0.5-0.5c0-0.3,0.2-0.6,0.5-0.6c0.3,0,0.6,0,0.9,0
		C21.6,12.2,22.8,13.7,22.9,15.1z"/>
</g>
</svg>
