<?xml version="1.0" encoding="utf-8"?>
<!-- Generator: Adobe Illustrator 21.1.0, SVG Export Plug-In . SVG Version: 6.00 Build 0)  -->
<svg version="1.1" id="Layer_1" xmlns="http://www.w3.org/2000/svg" xmlns:xlink="http://www.w3.org/1999/xlink" x="0px" y="0px"
	 viewBox="0 0 72 80" style="enable-background:new 0 0 72 80;" xml:space="preserve">
<style type="text/css">
	.st0{fill:#05274F;stroke:#05274F;stroke-miterlimit:10;}
	.st1{fill:#FFFFFF;}
	.st2{fill:#44B1D3;}
</style>
<g>
	<path class="st0" d="M0,80C0,56.4,0,32.8,0,9.3C0,3.9,3.8,0,9.1,0c18.2,0,36.4,0,54.6,0c4.5,0,8,3.1,8.3,8.1c0.1,1.3,0,2.5,0,3.9
		c-3.6,0-6.9,0-10.4,0c0,0.4,0,0.6,0,0.9c0,22.1,0,44.2,0,66.4c0,0.2,0,0.5,0.1,0.7C41.1,80,20.5,80,0,80z M1.7,78.1
		c19.4,0,38.6,0,57.9,0c0-22,0-44,0-66c-5,0-9.9,0-14.8,0c-4.9,0-9.8,0-14.7,0c-4.9,0-9.8,0.1-14.7,0c0.5-1.8,0.7-3.3,0.3-4.9
		c-1-3.4-4.3-5.6-7.6-5.1C4.2,2.5,1.7,5.4,1.7,9.3c0,22.6,0,45.3,0,67.9C1.7,77.5,1.7,77.8,1.7,78.1z M70,10.1
		c0.1-0.3,0.1-0.5,0.1-0.7c0.7-3.9-1.9-7.6-6.5-7.5c-16.1,0.1-32.3,0-48.4,0c-0.2,0-0.5,0-0.8,0c2.6,2.2,3.7,4.9,3.4,8.2
		C35.2,10.1,52.5,10.1,70,10.1z"/>
	<path class="st1" d="M1.7,78.1c0-0.3,0-0.5,0-0.8c0-22.6,0-45.3,0-67.9c0-3.9,2.5-6.9,6.4-7.4c3.4-0.5,6.6,1.8,7.6,5.1
		c0.5,1.6,0.2,3.1-0.3,4.9c5,0.1,9.8,0,14.7,0c4.9,0,9.8,0,14.7,0c4.9,0,9.8,0,14.8,0c0,22,0,44,0,66C40.4,78.1,21.1,78.1,1.7,78.1z
		 M30.7,49.3c0,8.5,0,16.9,0,25.3c8.4,0,16.7,0,25,0c0-8.5,0-16.9,0-25.3C47.3,49.3,39,49.3,30.7,49.3z M50.3,37.4
		c-14.3,0-28.6,0-42.8,0c0,0.6,0,1.2,0,1.8c14.3,0,28.5,0,42.8,0C50.3,38.6,50.3,38.1,50.3,37.4z M43.2,29.4c-12,0-23.8,0-35.7,0
		c0,0.6,0,1.2,0,1.8c11.9,0,23.8,0,35.7,0C43.2,30.6,43.2,30.1,43.2,29.4z M35.3,21.3c-9.3,0-18.6,0-27.8,0c0,0.6,0,1.2,0,1.8
		c9.3,0,18.5,0,27.8,0C35.3,22.5,35.3,21.9,35.3,21.3z"/>
	<path class="st1" d="M70,10.1c-17.4,0-34.8,0-52.2,0c0.3-3.3-0.8-6-3.4-8.2c0.4,0,0.6,0,0.8,0c16.1,0,32.3,0.1,48.4,0
		c4.5,0,7.1,3.6,6.5,7.5C70.1,9.6,70,9.8,70,10.1z"/>
	<path class="st0" d="M30.7,49.3c8.3,0,16.7,0,25,0c0,8.4,0,16.8,0,25.3c-8.3,0-16.6,0-25,0C30.7,66.2,30.7,57.7,30.7,49.3z
		 M32.5,51.2c0,7.2,0,14.4,0,21.5c7.1,0,14.2,0,21.3,0c0-7.2,0-14.4,0-21.5C46.7,51.2,39.6,51.2,32.5,51.2z"/>
	<path class="st0" d="M50.3,37.4c0,0.6,0,1.2,0,1.8c-14.3,0-28.5,0-42.8,0c0-0.6,0-1.1,0-1.8C21.7,37.4,36,37.4,50.3,37.4z"/>
	<path class="st0" d="M43.2,29.4c0,0.6,0,1.2,0,1.8c-11.9,0-23.8,0-35.7,0c0-0.6,0-1.2,0-1.8C19.4,29.4,31.2,29.4,43.2,29.4z"/>
	<path class="st0" d="M35.3,21.3c0,0.6,0,1.2,0,1.8c-9.3,0-18.5,0-27.8,0c0-0.6,0-1.1,0-1.8C16.7,21.3,26,21.3,35.3,21.3z"/>
	<path class="st2" d="M32.5,51.2c7.1,0,14.2,0,21.3,0c0,7.2,0,14.3,0,21.5c-7.1,0-14.2,0-21.3,0C32.5,65.5,32.5,58.4,32.5,51.2z
		 M37.1,62.3c-0.5,0.4-1,0.9-1.2,1.1c1.5,1.6,2.9,3.1,4.2,4.6c3.5-3.6,7-7,10.3-10.4c-0.3-0.3-0.7-0.7-1.1-1.1c-3,3-6.1,6-9.2,9.2
		C39.1,64.5,38.1,63.4,37.1,62.3z"/>
	<path class="st0" d="M37.1,62.3c1,1,2,2.1,3,3.3c3.1-3.1,6.2-6.2,9.2-9.2c0.4,0.4,0.8,0.8,1.1,1.1C47.1,61,43.6,64.4,40.1,68
		c-1.3-1.4-2.7-3-4.2-4.6C36.2,63.2,36.6,62.8,37.1,62.3z"/>
</g>
</svg>
