<?xml version="1.0" encoding="utf-8"?>
<!-- Generator: Adobe Illustrator 21.1.0, SVG Export Plug-In . SVG Version: 6.00 Build 0)  -->
<svg version="1.1" id="Layer_1" xmlns="http://www.w3.org/2000/svg" xmlns:xlink="http://www.w3.org/1999/xlink" x="0px" y="0px"
	 viewBox="0 0 70 65" style="enable-background:new 0 0 70 65;" xml:space="preserve">
<style type="text/css">
	.st0{fill:#05274F;}
	.st1{fill:#FFFFFF;}
	.st2{fill:#44B1D3;}
</style>
<g>
	<path class="st0" d="M20.6,7.8c0-1.3,0-2.5,0-3.7c0-2.5,2.3-4.5,4.8-4.1c1.6,0.2,3.3,2.2,3.3,3.9c0,1.3,0,2.5,0,3.9
		c3.6,0,7.1,0,10.6,0c0-1.2,0-2.3,0-3.5c0-2.6,2.1-4.6,4.7-4.3c1.5,0.2,3.4,1.7,3.4,3.9c0,1.3,0,2.5,0,3.9c0.4,0,0.6,0,0.9,0
		c5.8,0,11.6,0,17.4,0c2.5,0,4.2,1.8,4.2,4.3c0,16.2,0,32.4,0,48.7c0,2.4-1.8,4.2-4.1,4.2c-20.6,0-41.1,0-61.7,0
		C1.7,65,0,63.2,0,60.7c0-16.2,0-32.3,0-48.5c0-2.6,1.7-4.3,4.3-4.3c5.2,0,10.3,0,15.5,0C20,7.8,20.3,7.8,20.6,7.8z M20.7,10.4
		c-0.2,0-0.4,0-0.5,0c-5.4,0-10.8,0-16.2,0c-1.1,0-1.5,0.4-1.5,1.6c0,16.3,0,32.6,0,48.9c0,1.3,0.4,1.6,1.6,1.6c20.5,0,41,0,61.5,0
		c1.6,0,1.9-0.3,1.9-1.8c0-16.2,0-32.4,0-48.6c0-1.3-0.4-1.7-1.7-1.7c-5.8,0-11.7,0-17.5,0c-0.3,0-0.5,0-0.8,0c0,0.5,0,0.9,0,1.3
		c0,2.2-1.8,4.1-4,4.1c-2.2,0-4.1-1.8-4.1-4c0-0.5,0-0.9,0-1.4c-3.6,0-7.1,0-10.6,0c0,1.3,0.1,2.6-0.7,3.6c-0.8,1.1-1.9,1.7-3.2,1.7
		c-1,0-1.9-0.3-2.7-1C20.7,13.7,20.5,12.1,20.7,10.4z M26.2,7.9c0-1.3,0-2.6,0-4c0-0.9-0.5-1.4-1.4-1.4c-1.2,0-1.7,0.4-1.7,1.4
		c0,2.6,0,5.2,0,7.9c0,1.1,0.4,1.4,1.6,1.4c1.1,0,1.5-0.4,1.5-1.4C26.2,10.5,26.2,9.2,26.2,7.9z M45,8c0-1.3,0-2.6,0-4
		c0-1-0.5-1.4-1.4-1.4c-1.3,0-1.7,0.3-1.7,1.4c0,2.6,0,5.3,0,7.9c0,1,0.5,1.4,1.6,1.4c1.1,0,1.5-0.4,1.5-1.4C45,10.6,45,9.3,45,8z"
		/>
	<path class="st1" d="M20.7,10.4c-0.1,1.7,0,3.3,1.4,4.4c0.8,0.6,1.7,1,2.7,1c1.4,0,2.4-0.7,3.2-1.7c0.8-1.1,0.8-2.3,0.7-3.6
		c3.5,0,7,0,10.6,0c0,0.5,0,0.9,0,1.4c0,2.2,1.9,4,4.1,4c2.2,0,4-1.9,4-4.1c0-0.4,0-0.8,0-1.3c0.3,0,0.6,0,0.8,0
		c5.8,0,11.7,0,17.5,0c1.3,0,1.7,0.4,1.7,1.7c0,16.2,0,32.4,0,48.6c0,1.5-0.3,1.8-1.9,1.8c-20.5,0-41,0-61.5,0
		c-1.2,0-1.6-0.4-1.6-1.6c0-16.3,0-32.6,0-48.9c0-1.2,0.4-1.6,1.5-1.6c5.4,0,10.8,0,16.2,0C20.3,10.4,20.4,10.4,20.7,10.4z
		 M17.2,41.3C14,42.9,11,44.4,8,46c-1.5,0.8-2.3,2-2.3,3.7c0,0.6,0,1.3,0,1.9c0,2.2,1.8,4,4,4c7.5,0,15,0,22.5,0
		c2.3,0,4.1-1.8,4.1-4.1c0-0.6,0-1.1,0-1.7c0-1.8-0.8-3.1-2.4-3.9c-2.8-1.4-5.5-2.8-8.3-4.2c-0.2-0.1-0.4-0.3-0.7-0.4
		c0.2-0.2,0.4-0.3,0.5-0.4c5.1-3.8,5.4-11.4,0.7-15.6c-3.1-2.7-7.2-2.8-10.2,0c-3,2.7-4,6.2-3,10.1C13.5,37.9,14.9,39.9,17.2,41.3z
		 M40.7,24.8c0,0.9,0,1.6,0,2.4c7.5,0,15,0,22.4,0c0-0.8,0-1.6,0-2.4C55.6,24.8,48.1,24.8,40.7,24.8z M40.6,49.9c7.5,0,15,0,22.4,0
		c0-0.8,0-1.6,0-2.4c-7.5,0-15,0-22.4,0C40.6,48.3,40.6,49.1,40.6,49.9z M63.1,55c-7.5,0-15,0-22.4,0c0,0.8,0,1.6,0,2.4
		c7.5,0,15,0,22.4,0C63.1,56.6,63.1,55.8,63.1,55z M40.6,34.8c7.5,0,15,0,22.4,0c0-0.8,0-1.6,0-2.4c-7.5,0-15,0-22.4,0
		C40.6,33.2,40.6,34,40.6,34.8z M63.1,40c-7.5,0-15,0-22.4,0c0,0.8,0,1.6,0,2.4c7.5,0,14.9,0,22.4,0C63.1,41.5,63.1,40.8,63.1,40z"
		/>
	<path class="st1" d="M26.2,7.9c0,1.3,0,2.6,0,3.9c0,1-0.4,1.4-1.5,1.4c-1.1,0-1.6-0.4-1.6-1.4c0-2.6,0-5.2,0-7.9
		c0-1.1,0.4-1.4,1.7-1.4c0.9,0,1.4,0.4,1.4,1.4C26.2,5.3,26.2,6.6,26.2,7.9z"/>
	<path class="st1" d="M45,8c0,1.3,0,2.6,0,3.9c0,1-0.5,1.4-1.5,1.4c-1.1,0-1.6-0.4-1.6-1.4c0-2.6,0-5.3,0-7.9c0-1,0.5-1.4,1.7-1.4
		C44.5,2.6,45,3,45,4C45,5.3,45,6.7,45,8z"/>
	<path class="st0" d="M17.2,41.3c-2.2-1.5-3.7-3.4-4.3-5.9c-1-4,0.1-7.4,3-10.1c3-2.8,7.1-2.7,10.2,0c4.7,4.2,4.4,11.8-0.7,15.6
		c-0.2,0.1-0.3,0.2-0.5,0.4c0.3,0.2,0.5,0.3,0.7,0.4c2.8,1.4,5.5,2.8,8.3,4.2c1.6,0.8,2.4,2.1,2.4,3.9c0,0.6,0,1.1,0,1.7
		c-0.1,2.3-1.8,4.1-4.1,4.1c-7.5,0-15,0-22.5,0c-2.2,0-4-1.8-4-4c0-0.6,0-1.3,0-1.9C5.7,48,6.5,46.7,8,46C11,44.4,14,42.9,17.2,41.3
		z M20.9,53.1c3.7,0,7.5,0,11.2,0c1.3,0,1.6-0.3,1.6-1.7c0-0.5,0-0.9,0-1.4c0.1-1-0.3-1.6-1.2-2c-3.5-1.7-7-3.5-10.4-5.3
		c-0.7-0.4-1.4-0.4-2.1,0c-3.2,1.6-6.3,3.2-9.5,4.8c-2.9,1.5-2.4,0.7-2.4,3.9c0,1.4,0.3,1.7,1.7,1.7C13.5,53.1,17.2,53.1,20.9,53.1z
		 M27,32.5c-0.1-0.4-0.1-1.2-0.3-2c-0.6-2.6-2.6-4.4-4.9-4.7c-2.5-0.3-4.7,0.8-5.9,3.1c-1.3,2.7-1.3,5.4,0.1,8
		c2.2,3.9,7.5,4,9.8,0.1C26.6,35.7,26.9,34.3,27,32.5z"/>
	<path class="st0" d="M40.7,24.8c7.5,0,14.9,0,22.4,0c0,0.8,0,1.6,0,2.4c-7.5,0-14.9,0-22.4,0C40.7,26.5,40.7,25.7,40.7,24.8z"/>
	<path class="st0" d="M40.6,49.9c0-0.8,0-1.6,0-2.4c7.5,0,14.9,0,22.4,0c0,0.8,0,1.6,0,2.4C55.6,49.9,48.1,49.9,40.6,49.9z"/>
	<path class="st0" d="M63.1,55c0,0.8,0,1.6,0,2.4c-7.5,0-14.9,0-22.4,0c0-0.8,0-1.6,0-2.4C48.1,55,55.6,55,63.1,55z"/>
	<path class="st0" d="M40.6,34.8c0-0.8,0-1.6,0-2.4c7.5,0,14.9,0,22.4,0c0,0.8,0,1.6,0,2.4C55.6,34.8,48.1,34.8,40.6,34.8z"/>
	<path class="st0" d="M63.1,40c0,0.8,0,1.6,0,2.4c-7.5,0-14.9,0-22.4,0c0-0.8,0-1.6,0-2.4C48.1,40,55.6,40,63.1,40z"/>
	<path class="st2" d="M20.9,53.1c-3.7,0-7.4,0-11.1,0c-1.4,0-1.7-0.3-1.7-1.7c0-3.2-0.5-2.5,2.4-3.9c3.2-1.6,6.3-3.2,9.5-4.8
		c0.7-0.4,1.4-0.4,2.1,0c3.5,1.8,6.9,3.6,10.4,5.3c0.9,0.4,1.3,1,1.2,2c-0.1,0.5,0,0.9,0,1.4c0,1.3-0.3,1.7-1.6,1.7
		C28.4,53.1,24.7,53.1,20.9,53.1z"/>
	<path class="st2" d="M27,32.5c0,1.8-0.3,3.3-1.1,4.6c-2.3,3.9-7.7,3.8-9.8-0.1c-1.4-2.6-1.4-5.3-0.1-8c1.1-2.3,3.3-3.4,5.9-3.1
		c2.3,0.3,4.2,2.1,4.9,4.7C26.8,31.2,26.9,32,27,32.5z"/>
</g>
</svg>
