<?xml version="1.0" encoding="utf-8"?>
<!-- Generator: Adobe Illustrator 21.1.0, SVG Export Plug-In . SVG Version: 6.00 Build 0)  -->
<svg version="1.1" id="Layer_1" xmlns="http://www.w3.org/2000/svg" xmlns:xlink="http://www.w3.org/1999/xlink" x="0px" y="0px"
	 viewBox="0 0 47 42" style="enable-background:new 0 0 47 42;" xml:space="preserve">
<style type="text/css">
	.st0{fill:#05274F;}
	.st1{fill:#44B1D3;}
</style>
<g>
	<g>
		<g>
			<g>
				<path class="st0" d="M39.6,24.2c1.6-1.6,3.2-3.3,4.9-5c-0.4-0.4-0.7-0.7-1.1-1.1c-0.1,0.1-0.2,0.2-0.4,0.4
					c-3.8,3.9-7.7,7.9-11.5,11.8c-0.7,0.7-1.5,1.4-2.4,1.9c-0.4,0.2-0.4,0.4-0.4,0.8c0,2.8,0,5.6,0,8.5c0,0.2,0,0.4,0,0.6
					C19.1,42,9.6,42,0,42C0,28,0,14.1,0,0.1c0.2,0,0.3,0,0.5,0c6.6,0,13.1,0,19.7,0c0.4,0,0.6,0.1,0.9,0.4c2.4,2.5,4.9,5,7.3,7.5
					c0.2,0.2,0.3,0.5,0.3,0.8c0,5,0,10,0,15c0,0.2,0,0.4,0,0.6c4.2-4.3,8.3-8.6,12.5-12.8c0.3,0.2,0.4,0.4,0.6,0.6
					c0.7-0.7,1.4-1.5,2-2.2c1.1,1.2,2.2,2.3,3.2,3.4c-0.7,0.7-1.4,1.4-2.1,2.1c0.2,0.3,0.4,0.4,0.6,0.6c-0.3,0.4-0.7,0.7-1,1.1
					c0.7,0.7,1.4,1.4,2.1,2.1c-2.1,2.1-4,4.2-6,6.2C40.2,25,39.9,24.6,39.6,24.2z M1.5,1.6c0,13,0,26,0,38.9c8.6,0,17.1,0,25.6,0
					c0-2.4,0-4.8,0-7.1c-0.1,0-0.1,0-0.1,0c-0.5,0.3-1,0.6-1.6,0.9c-0.6,0.3-1.3,0.3-1.8-0.2c-0.5-0.5-0.6-1.3-0.2-1.9
					c0.8-1.5,1.6-2.9,2.4-4.4c0.3-0.5,0.7-1,1.1-1.5c0.1-0.2,0.3-0.5,0.3-0.7c0-5.2,0-10.5,0-15.7c0-0.4-0.1-0.5-0.5-0.5
					c-2.2,0-4.3,0-6.5,0c-0.2,0-0.4,0-0.6,0c0-2.6,0-5.2,0-7.8C13.5,1.6,7.5,1.6,1.5,1.6z M30,29.5c4.4-4.5,8.8-9.1,13.2-13.6
					c-0.7-0.7-1.4-1.4-2-2.1c-4.4,4.5-8.8,9.1-13.2,13.6C28.6,28.1,29.3,28.8,30,29.5z M25.8,7.8c-1.6-1.6-3.2-3.3-4.7-4.8
					c0,1.5,0,3.2,0,4.8C22.8,7.8,24.4,7.8,25.8,7.8z M26.9,28.8c-0.7,1.3-1.4,2.6-2.1,3.9c0,0,0.1,0.1,0.1,0.1
					c1.3-0.7,2.5-1.5,3.8-2.2C28.1,30,27.6,29.4,26.9,28.8z M44.9,13.2c-0.3-0.4-0.7-0.8-0.9-1.1c-0.4,0.3-0.7,0.7-1.1,1
					c0.4,0.4,0.7,0.7,1,1.1C44.2,13.8,44.6,13.5,44.9,13.2z"/>
			</g>
		</g>
		<g>
			<path class="st1" d="M11.8,35.8c0.5-0.2,0.9-0.4,1.3-0.6c1.8-1.1,3.5-1.1,5.3,0c0.2,0.1,0.3,0.2,0.5,0.3c0.8,0.5,1.6,0.4,2.4-0.2
				c0.3-0.2,0.6-0.5,0.9-0.8c0.3-0.3,0.7-0.3,1,0c0.3,0.3,0.3,0.7,0,1c-1.7,1.8-3.3,2.3-5.2,1.2c-0.2-0.1-0.4-0.2-0.6-0.3
				c-1.1-0.6-2.2-0.6-3.2,0c-0.6,0.3-1.2,0.6-1.8,0.8c-1.2,0.4-2-0.3-2-1.6c0-0.7,0.2-1.4,0.2-2.1c0-0.6-0.1-0.8-0.7-0.8
				c-0.6,0-0.8,0.1-0.8,0.8c0,0.6,0,1.2,0,1.9c0,1.3-0.8,2.1-2,1.9c-1-0.1-1.9-0.5-2.8-0.8c-0.4-0.1-0.5-0.6-0.3-1
				c0.2-0.4,0.5-0.5,1-0.4c0.6,0.2,1.2,0.5,1.9,0.6c0.7,0.2,0.9,0.1,0.9-0.8c0-0.7,0-1.3,0-2c0.1-1.2,0.9-1.8,2.1-1.9
				c1.3,0,2.1,0.6,2.2,1.8c0.1,0.7,0,1.3-0.1,2C11.9,35.2,11.8,35.4,11.8,35.8z"/>
		</g>
		<g>
			<path class="st0" d="M3,23.3c0-0.5,0-1,0-1.5c7.5,0,15,0,22.6,0c0,0.5,0,1,0,1.5C18.1,23.3,10.6,23.3,3,23.3z"/>
		</g>
		<g>
			<path class="st0" d="M25.6,17.2c0,0.5,0,1,0,1.5c-7.5,0-15,0-22.6,0c0-0.5,0-1,0-1.5C10.6,17.2,18.1,17.2,25.6,17.2z"/>
		</g>
		<g>
			<path class="st0" d="M25.6,12.5c0,0.5,0,1,0,1.5c-7.5,0-15,0-22.6,0c0-0.5,0-1,0-1.5C10.6,12.5,18.1,12.5,25.6,12.5z"/>
		</g>
		<g>
			<path class="st0" d="M18.1,26.5c0,0.5,0,1,0,1.5c-5,0-10,0-15,0c0-0.5,0-1,0-1.5C8.1,26.5,13,26.5,18.1,26.5z"/>
		</g>
	</g>
</g>
</svg>
