<?xml version="1.0" encoding="utf-8"?>
<!-- Generator: Adobe Illustrator 21.1.0, SVG Export Plug-In . SVG Version: 6.00 Build 0)  -->
<svg version="1.1" id="Layer_1" xmlns="http://www.w3.org/2000/svg" xmlns:xlink="http://www.w3.org/1999/xlink" x="0px" y="0px"
	 viewBox="0 0 47 47" style="enable-background:new 0 0 47 47;" xml:space="preserve">
<style type="text/css">
	.st0{fill:#05274F;}
	.st1{fill:#44B1D3;}
</style>
<g>
	<g>
		<g>
			<path class="st0" d="M1.4,46.9c-0.5,0-0.9-0.1-1.4-0.1c0.3-3.1,1-6,3-8.5c1-1.2,2.2-2,3.7-2.5c2.3-0.8,4.7-1.5,7.1-2.2
				c1.4-0.4,2.4-1.3,3.4-2.1c0.1-0.1,0.2-0.3,0.2-0.5c0-1.2,0-2.3,0-3.5c0-0.2-0.1-0.4-0.3-0.6c-2.4-2.3-3.9-5.1-4.5-8.4
				c0-0.2-0.1-0.4-0.2-0.5c-1-1-1.2-2.3-1.3-3.7c0-0.7,0-1.4,0.2-2.1c0.1-0.5,0.3-1,0.7-1.3c0.5-0.4,0.5-0.9,0.6-1.4
				c0.2-1.1,0.4-2.2,0.8-3.2c1.2-3.7,3.9-5.7,7.6-6.3c2-0.3,3.9-0.3,5.9,0.1c3.7,0.8,6,3,7.1,6.6c0.3,1.1,0.5,2.3,0.7,3.4
				c0,0.2,0.1,0.4,0.2,0.4c0.6,0.5,0.9,1.1,1.1,1.9c0.2,1.3,0.2,2.6-0.2,3.9c-0.1,0.4-0.3,0.8-0.5,1.1c-0.4,0.5-0.6,1-0.7,1.6
				c-0.7,3-2.1,5.6-4.3,7.7c-0.2,0.2-0.3,0.4-0.3,0.7c0,1.1,0,2.2,0,3.3c0,0.2,0.2,0.5,0.3,0.7c1.3,1.3,2.9,1.9,4.6,2.4
				c1.6,0.4,3.2,1,4.9,1.4c3.5,1,5.6,3.4,6.6,6.9c0.4,1.4,0.7,2.9,0.8,4.4c-0.5,0-1,0.1-1.4,0.1c-0.2-1.1-0.4-2.1-0.6-3.2
				c-0.1-0.6-0.3-1.1-0.5-1.6c-0.8-2.4-2.4-4.1-4.8-4.9c-2.3-0.7-4.5-1.4-6.8-2.1c-0.9-0.3-0.9-0.3-1.2,0.6
				c-1.4,3.6-2.8,7.3-4.2,10.9c-0.1,0.2-0.1,0.3-0.2,0.5c-0.5-0.1-0.9-0.1-1.5-0.2c-0.1-0.6-0.2-1.4-0.3-2.1
				c-0.4-2.2-0.7-4.4-1.1-6.6c-0.1-0.7,0.1-1.3,0.3-1.9c0.3-0.6,0.1-1-0.4-1.4c-0.3-0.2-0.5-0.5-0.8-1c-0.5,0.5-0.9,1-1.3,1.4
				c-0.1,0.1-0.1,0.2-0.1,0.4c0,0,0,0,0,0.1c0.7,1.3,0.5,2.7,0.2,4.1c-0.4,2.2-0.7,4.4-1.1,6.6c0,0.1-0.1,0.3-0.1,0.4
				c-0.5,0.1-0.9,0.1-1.5,0.2c-0.2-0.4-0.4-0.9-0.5-1.4c-1.3-3.4-2.7-6.9-4-10.3c-0.1-0.4-0.3-0.5-0.7-0.4c-2,0.6-4,1.3-6.1,1.8
				c-3.8,1-5.8,3.6-6.5,7.4C1.8,45,1.6,45.9,1.4,46.9z M12.5,14.1C12.5,14.1,12.5,14.1,12.5,14.1c0.1,0.2,0,0.5,0.1,0.7
				c0.1,0.9,0.2,1.9,1.2,2.4c0.1,0.1,0.1,0.3,0.2,0.4c0.3,2.5,1.3,4.9,2.9,6.9c3.7,4.6,9.8,4.6,13.5,0.1c1.6-2,2.6-4.3,2.9-6.9
				c0-0.2,0.2-0.4,0.3-0.5c0.2-0.3,0.6-0.6,0.7-1c0.4-1.1,0.5-2.3,0.2-3.4c-0.1-0.3-0.4-0.7-0.7-0.9c-0.4-0.2-0.5-0.5-0.6-0.9
				c-0.3-1.4-0.5-2.8-0.9-4.2c-0.9-2.8-2.9-4.5-5.8-5.1c-1.8-0.3-3.5-0.4-5.3-0.1c-3.4,0.5-5.6,2.5-6.6,5.8
				c-0.3,1.2-0.5,2.3-0.7,3.5c-0.1,0.4-0.1,0.7-0.6,0.9c-0.3,0.1-0.5,0.5-0.6,0.8C12.5,13.2,12.5,13.7,12.5,14.1z M22.1,33.5
				c-0.8-0.2-1.5-0.3-2.1-0.5c-1.3-0.5-2.3-0.3-3.2,0.8c-0.2,0.3-0.3,0.4-0.2,0.8c1.2,3,2.3,6,3.4,8.9c0,0.1,0.1,0.2,0.2,0.5
				c0.2-1.4,0.3-2.6,0.6-3.8c0.4-1.6,0.4-3.1-0.3-4.6c-0.1-0.3,0-0.5,0.2-0.7C21.1,34.4,21.6,34,22.1,33.5z M26.8,43.8
				c0,0,0.1,0,0.1,0c1.2-3.2,2.4-6.3,3.6-9.5c0-0.1,0-0.3-0.1-0.4c-0.5-0.4-1-0.9-1.6-1.3c-0.1,0-0.2-0.1-0.2,0
				c-1.2,0.3-2.4,0.5-3.7,0.8c0.4,0.4,0.8,0.8,1.2,1.2c0.4,0.3,0.5,0.6,0.3,1.1c-0.6,1.2-0.7,2.5-0.3,3.8c0.1,0.2,0.1,0.4,0.1,0.6
				C26.4,41.4,26.6,42.6,26.8,43.8z M28.3,28.3c-3.2,1.6-6.3,1.6-9.5,0c0,0.9,0,1.8,0,2.6c0,0.1,0.2,0.3,0.4,0.4
				c1.4,0.3,2.7,0.6,4.1,0.9c0.1,0,0.3,0,0.5,0c1.4-0.3,2.8-0.6,4.2-1c0.1,0,0.3-0.2,0.3-0.3C28.3,30.1,28.3,29.2,28.3,28.3z"/>
		</g>
	</g>
	<polygon class="st1" points="24.3,38 25.4,35.6 23.5,33.9 21.7,35.6 22.7,38 21.2,46.8 23.5,46.8 25.8,46.8 	"/>
</g>
</svg>
