<?xml version="1.0" encoding="utf-8"?>
<!-- Generator: Adobe Illustrator 21.1.0, SVG Export Plug-In . SVG Version: 6.00 Build 0)  -->
<svg version="1.1" id="Layer_1" xmlns="http://www.w3.org/2000/svg" xmlns:xlink="http://www.w3.org/1999/xlink" x="0px" y="0px"
	 viewBox="0 0 30 44" style="enable-background:new 0 0 30 44;" xml:space="preserve">
<style type="text/css">
	.st0{fill:#05274F;}
	.st1{fill:#44B1D3;}
</style>
<g>
	<path class="st0" d="M15,44c-4.2,0-8.3,0-12.5,0c-1.3,0-2.3-0.9-2.5-2.1c-0.1-1.2,0.7-2.3,2-2.5c0.4-0.1,0.5-0.2,0.5-0.6
		c0.1-1.9,0.4-3.8,1-5.7c0.8-2.5,2.4-4.6,4.4-6.4c0.6-0.5,1.3-1.1,1.8-1.7c1.8-1.9,1.8-4.2,0-6.1c-0.7-0.8-1.6-1.5-2.4-2.2
		c-2.5-2.2-3.9-5-4.5-8.3C2.7,7.4,2.6,6.3,2.5,5.2c0-0.3-0.1-0.5-0.5-0.5C0.7,4.4-0.1,3.3,0,2.2C0.1,0.9,1.1,0,2.5,0
		c8.3,0,16.7,0,25,0c1.4,0,2.4,0.9,2.5,2.2c0.1,1.2-0.7,2.2-2,2.5c-0.4,0.1-0.4,0.2-0.4,0.5c-0.1,2.1-0.4,4.1-1.1,6
		c-0.8,2.3-2.3,4.3-4.1,5.9c-0.8,0.7-1.6,1.4-2.3,2.2c-1.4,1.6-1.4,3.7,0,5.3c0.8,0.9,1.8,1.7,2.7,2.6c2.6,2.4,4,5.4,4.6,8.8
		c0.1,1,0.2,1.9,0.3,2.9c0,0.3,0.1,0.4,0.4,0.4c1.3,0.3,2.2,1.3,2.1,2.5c-0.1,1.3-1.2,2.1-2.5,2.1C23.3,44,19.1,44,15,44z M26.1,4.7
		c-7.4,0-14.8,0-22.2,0c0.2,1.5,0.5,2.9,0.7,4.4c0,0.2,0.1,0.4,0.4,0.4c0.7,0,1.3,0,2,0.1c3.2,0.1,6.3,0.6,9.3,1.7
		c2.4,0.9,4.8,1.4,7.4,1.4c0.3,0,0.5-0.1,0.7-0.4c0.8-1.5,1.2-3.1,1.5-4.7C25.9,6.6,26,5.7,26.1,4.7z M5.9,39.3c6.1,0,12.2,0,18.3,0
		c-0.1-0.1-0.1-0.2-0.2-0.3c-1.7-2.1-3.3-4.2-5-6.2c-0.9-1-2-1.8-3-2.6c-0.6-0.5-1.4-0.5-2,0c-0.5,0.4-1.1,0.7-1.5,1.1
		c-2.2,2-4,4.3-5.7,6.7C6.5,38.4,6.2,38.8,5.9,39.3z M23,14.2c-0.1-0.1-0.1-0.1-0.2-0.1c-0.1,0-0.3,0-0.4,0c-1.8-0.1-3.5-0.4-5.2-1
		c-2.8-1-5.7-1.8-8.8-2c-1.1-0.1-2.2-0.1-3.3-0.2c0,0.2,0.1,0.2,0.1,0.3c1,2.5,2.8,4.4,5.1,5.9c1,0.7,2.1,1.3,3.1,2
		c0.6,0.4,1.1,1,1.7,1.5c0.1-0.2,0.3-0.4,0.5-0.6c1-1.1,2.2-1.9,3.5-2.6c1.3-0.7,2.4-1.7,3.4-2.7C22.6,14.7,22.8,14.4,23,14.2z
		 M4.1,39.3c0.1-0.2,0.2-0.3,0.4-0.5c1.7-2.2,3.3-4.4,5-6.5c1.3-1.5,2.7-2.9,4.6-3.8c0.1,0,0.2-0.3,0.2-0.4c0-1.7,0-3.3,0-5
		c0-1.2-0.8-2-1.8-2.8c0,0.2,0,0.3,0,0.4c0.4,1.8,0.1,3.4-1.2,4.8c-0.7,0.8-1.6,1.6-2.4,2.4C5.3,30.9,4.1,34.8,4.1,39.3z M25.9,39
		c0,0,0.1,0,0.1,0c-0.1-1-0.2-2-0.4-3c-0.5-2.8-1.7-5.4-3.8-7.4c-1-0.9-1.9-1.7-2.8-2.7c-1.3-1.4-1.9-3-1.5-4.9
		c0-0.2,0.1-0.4,0.1-0.6c-1,0.7-1.8,1.5-1.8,2.7c0,1.6,0,3.3,0,4.9c0,0.2,0.2,0.4,0.3,0.5c0.7,0.4,1.4,0.8,2,1.3
		c2,1.6,3.6,3.5,5.1,5.5C24.1,36.5,25,37.8,25.9,39z M15,1.5L15,1.5c-4.1,0-8.3,0-12.4,0c-0.1,0-0.2,0-0.3,0
		C1.8,1.6,1.5,1.9,1.5,2.3c0,0.4,0.3,0.7,0.7,0.8c0.1,0,0.3,0,0.4,0c7.5,0,15.1,0,22.6,0c0.8,0,1.6,0,2.4,0c0.5,0,0.8-0.3,0.8-0.8
		c0-0.5-0.3-0.8-0.8-0.8c-0.1,0-0.2,0-0.3,0C23.2,1.5,19.1,1.5,15,1.5z M14.9,42.5c2.7,0,5.4,0,8.1,0c1.5,0,3,0,4.5,0
		c0.4,0,0.7-0.2,0.8-0.5c0-0.3,0-0.6-0.2-0.8c-0.1-0.2-0.5-0.2-0.8-0.2c-7.9,0-15.8,0-23.7,0c-0.4,0-0.9,0-1.3,0
		c-0.5,0-0.8,0.4-0.8,0.8c0,0.5,0.3,0.8,0.8,0.8c0.1,0,0.3,0,0.4,0C6.9,42.5,10.9,42.5,14.9,42.5z"/>
	<path class="st1" d="M5.9,39.3c0.3-0.5,0.6-0.9,0.9-1.3c1.7-2.4,3.5-4.7,5.7-6.7c0.5-0.4,1-0.8,1.5-1.1c0.7-0.4,1.4-0.5,2,0
		c1,0.8,2.1,1.6,3,2.6c1.7,2,3.3,4.1,5,6.2c0.1,0.1,0.1,0.2,0.2,0.3C18.1,39.3,12,39.3,5.9,39.3z M15.8,32.2c0-0.4-0.3-0.8-0.7-0.8
		c-0.4,0-0.8,0.4-0.8,0.8c0,0.4,0.4,0.7,0.8,0.7C15.4,33,15.8,32.6,15.8,32.2z M12.6,35.4c0-0.4-0.3-0.8-0.7-0.8
		c-0.4,0-0.8,0.4-0.8,0.8c0,0.4,0.4,0.7,0.8,0.8C12.2,36.1,12.6,35.8,12.6,35.4z M18.1,34.6c-0.4,0-0.8,0.4-0.8,0.8
		c0,0.4,0.4,0.8,0.7,0.8c0.4,0,0.8-0.4,0.8-0.8C18.9,35,18.5,34.6,18.1,34.6z M15.8,37c0-0.4-0.3-0.8-0.7-0.8
		c-0.4,0-0.8,0.3-0.8,0.7c0,0.4,0.3,0.8,0.8,0.8C15.4,37.7,15.7,37.4,15.8,37z"/>
	<path class="st1" d="M23,14.2c-0.2,0.2-0.4,0.5-0.6,0.7c-1,1-2.1,2-3.4,2.7c-1.3,0.7-2.5,1.5-3.5,2.6c-0.2,0.2-0.4,0.4-0.5,0.6
		c-0.6-0.5-1.1-1.1-1.7-1.5c-1-0.7-2-1.3-3.1-2c-2.2-1.5-4-3.4-5.1-5.9c0-0.1,0-0.1-0.1-0.3c1.1,0.1,2.2,0.1,3.3,0.2
		c3,0.2,5.9,1,8.8,2c1.7,0.6,3.4,0.9,5.2,1c0.1,0,0.3,0,0.4,0C22.9,14.1,22.9,14.1,23,14.2z M11,13.3c0-0.4-0.4-0.8-0.8-0.8
		c-0.4,0-0.8,0.4-0.8,0.8c0,0.4,0.4,0.7,0.8,0.7C10.7,14.1,11,13.7,11,13.3z M17.3,14.9c0-0.4-0.3-0.8-0.7-0.8
		c-0.4,0-0.8,0.4-0.8,0.8c0,0.4,0.4,0.7,0.8,0.8C17,15.7,17.3,15.3,17.3,14.9z M13.4,15.7c-0.4,0-0.8,0.3-0.8,0.7
		c0,0.4,0.3,0.8,0.7,0.8c0.4,0,0.8-0.3,0.8-0.8C14.2,16.1,13.8,15.7,13.4,15.7z"/>
	<path class="st0" d="M15.8,32.2c0,0.4-0.4,0.7-0.8,0.7c-0.4,0-0.8-0.4-0.8-0.7c0-0.4,0.4-0.8,0.8-0.8
		C15.4,31.5,15.8,31.8,15.8,32.2z"/>
	<path class="st0" d="M12.6,35.4c0,0.4-0.4,0.7-0.8,0.7c-0.4,0-0.8-0.4-0.8-0.8c0-0.4,0.4-0.8,0.8-0.8C12.3,34.6,12.6,35,12.6,35.4z
		"/>
	<path class="st0" d="M18.1,34.6c0.4,0,0.8,0.3,0.8,0.7c0,0.4-0.4,0.8-0.8,0.8c-0.4,0-0.7-0.4-0.7-0.8C17.4,35,17.7,34.6,18.1,34.6z
		"/>
	<path class="st0" d="M15.8,37c0,0.4-0.4,0.7-0.8,0.7c-0.4,0-0.8-0.4-0.8-0.8c0-0.4,0.4-0.7,0.8-0.7C15.4,36.2,15.8,36.6,15.8,37z"
		/>
	<path class="st0" d="M11,13.3c0,0.4-0.3,0.8-0.7,0.8c-0.4,0-0.8-0.3-0.8-0.7c0-0.4,0.4-0.8,0.8-0.8C10.7,12.6,11,13,11,13.3z"/>
	<path class="st0" d="M17.3,14.9c0,0.4-0.4,0.7-0.8,0.7c-0.4,0-0.8-0.4-0.8-0.8c0-0.4,0.4-0.8,0.8-0.8C17,14.2,17.4,14.6,17.3,14.9z
		"/>
	<path class="st0" d="M13.4,15.7c0.4,0,0.7,0.4,0.7,0.8c0,0.4-0.4,0.8-0.8,0.8c-0.4,0-0.7-0.4-0.7-0.8C12.7,16.1,13,15.7,13.4,15.7z
		"/>
</g>
</svg>
