<?xml version="1.0" encoding="utf-8"?>
<!-- Generator: Adobe Illustrator 21.1.0, SVG Export Plug-In . SVG Version: 6.00 Build 0)  -->
<svg version="1.1" id="Layer_1" xmlns="http://www.w3.org/2000/svg" xmlns:xlink="http://www.w3.org/1999/xlink" x="0px" y="0px"
	 viewBox="0 0 35 35" style="enable-background:new 0 0 35 35;" xml:space="preserve">
<style type="text/css">
	.st0{fill:#FFFFFF;}
	.st1{fill:#44B0D2;}
</style>
<rect class="st0" width="35" height="35"/>
<g>
	<g>
		<path class="st1" d="M18.2,22.6c-0.8,0.8-1.6,1.6-2.4,2.4c-0.3,0.3-0.6,0.4-1,0.4c-0.3,0-0.4-0.1-0.5-0.4
			c-0.6-1.9-1.2-3.8-1.9-5.7c-0.1-0.2-0.2-0.3-0.3-0.3c-1.4-0.4-2.9-0.9-4.3-1.4c-0.2-0.1-0.4-0.1-0.5-0.2c-0.4-0.2-0.4-0.6-0.1-0.9
			C7.3,16.2,7.7,16,8,15.9c1.8-0.7,3.7-1.4,5.5-2.1c4.4-1.7,8.8-3.4,13.2-5.1c0.9-0.3,1.5,0.1,1.4,1.1c-0.1,0.6-0.2,1.2-0.3,1.8
			c-1,4.6-2,9.2-2.9,13.9c-0.2,1.1-1,1.4-1.9,0.7c-1.5-1.1-3-2.2-4.5-3.3C18.4,22.7,18.3,22.6,18.2,22.6z M14.8,24
			C14.8,24,14.8,24,14.8,24c0.1,0,0.1-0.1,0.1-0.2c0.1-1,0.2-2.1,0.3-3.1c0-0.2,0.1-0.4,0.3-0.6c2-1.8,3.9-3.5,5.9-5.3
			c1-0.9,2-1.8,3-2.7c0.1-0.1,0.1-0.2,0.2-0.3c-0.1,0-0.2-0.1-0.3-0.1c-0.2,0-0.4,0.1-0.5,0.2c-3.3,2.1-6.5,4.1-9.8,6.2
			c-0.2,0.1-0.6,0.3-0.6,0.4c-0.1,0.2,0.1,0.5,0.2,0.8C13.8,20.9,14.3,22.5,14.8,24z"/>
	</g>
</g>
</svg>
