<?xml version="1.0" encoding="utf-8"?>
<!-- Generator: Adobe Illustrator 21.1.0, SVG Export Plug-In . SVG Version: 6.00 Build 0)  -->
<svg version="1.1" id="Layer_1" xmlns="http://www.w3.org/2000/svg" xmlns:xlink="http://www.w3.org/1999/xlink" x="0px" y="0px"
	 viewBox="0 0 49 48" style="enable-background:new 0 0 49 48;" xml:space="preserve">
<style type="text/css">
	.st0{fill:#05274F;}
	.st1{fill:#44B1D3;}
</style>
<g>
	<path class="st0" d="M11,41c-0.4,0-0.7,0-1-0.1c-0.9-0.2-1.7-1.1-1.7-2.1c0-2.9,0-5.8,0-8.7c0-1.1,0.9-2,1.9-2.1
		c0.4,0,0.5-0.3,0.6-0.5c1-2.9,2.1-5.8,3.1-8.7c0.3-0.9,1-1.4,1.6-2c0.1-0.1,0.3,0,0.4,0c5.5,0,11,0,16.5,0c1.1,0,2.1,0.7,2.4,1.7
		c1.1,2.9,2.2,5.9,3.2,8.9c0.1,0.4,0.3,0.6,0.8,0.7c0.9,0.1,1.8,1.1,1.8,2c0,3,0,5.9,0,8.9c0,1.1-1,2.1-2.1,2.1c-0.2,0-0.4,0-0.7,0
		c0,0.3,0,0.6,0,0.9c0,1.1,0,2.3,0,3.4c0,1.5-1.2,2.7-2.7,2.7c-0.7,0-1.4,0-2.1,0c-1.4,0-2.6-1.2-2.6-2.6c0-1.3,0-2.5,0-3.8
		c0-0.2,0-0.4,0-0.6c-4,0-8,0-12.1,0c0,0.2,0,0.4,0,0.6c0,1.2,0,2.5,0,3.7c0,1.5-1.2,2.7-2.6,2.7c-0.7,0-1.3,0-2,0
		c-1.6,0-2.7-1.1-2.7-2.7c0-1.4,0-2.7,0-4.1C11.1,41.1,11,41.1,11,41z M38.8,39.1c0-3.1,0-6.2,0-9.2c-9.5,0-19.1,0-28.6,0
		c0,3.1,0,6.1,0,9.2C19.7,39.1,29.2,39.1,38.8,39.1z M12.6,27.9c8,0,15.8,0,23.7,0c0-0.2-0.1-0.3-0.1-0.4c-1-2.8-2-5.6-3-8.3
		c-0.1-0.4-0.4-0.5-0.8-0.5c-5.3,0-10.6,0-15.9,0c-0.4,0-0.5,0.2-0.7,0.5c-0.6,1.8-1.3,3.6-1.9,5.4C13.4,25.6,13,26.7,12.6,27.9z
		 M12.9,41c0,1.5,0,3,0,4.5c0,0.4,0.2,0.6,0.6,0.6c0.8,0,1.6,0,2.4,0c0.4,0,0.6-0.2,0.6-0.6c0-0.8,0-1.5,0-2.3c0-0.7,0-1.4,0-2.2
		C15.4,41,14.2,41,12.9,41z M36.1,41c-1.3,0-2.4,0-3.7,0c0,1.5,0,3.1,0,4.6c0,0.4,0.2,0.5,0.6,0.5c0.8,0,1.6,0,2.4,0
		c0.5,0,0.7-0.2,0.7-0.7c0-0.8,0-1.6,0-2.4C36.1,42.4,36.1,41.7,36.1,41z"/>
	<path class="st0" d="M41.2,46.1c2,0,3.9,0,5.9,0c0-0.2,0-0.4,0-0.6c0-10.8,0-21.6,0-32.4c0-0.4-0.1-0.6-0.5-0.8
		C39.4,9,32.2,5.5,24.9,2.1c-0.3-0.2-0.6-0.2-0.9,0C16.8,5.5,9.6,8.9,2.3,12.4c-0.4,0.2-0.5,0.4-0.5,0.8c0,10.8,0,21.6,0,32.4
		c0,0.2,0,0.4,0,0.6c2,0,4,0,6,0c0,0.6,0,1.2,0,1.8c-0.2,0-0.3,0-0.5,0c-1.9,0-3.7,0-5.6,0c-1,0-1.7-0.7-1.7-1.8C0,35,0,23.8,0,12.6
		c0-0.8,0.4-1.3,1.1-1.7c7.5-3.6,15-7.1,22.5-10.7c0.6-0.3,1.2-0.3,1.8,0c7.5,3.6,15,7.1,22.6,10.7c0.7,0.3,1.1,0.9,1.1,1.7
		c0,11.2,0,22.4,0,33.5c0,1.1-0.7,1.8-1.8,1.8c-1.9,0-3.7,0-5.6,0c-0.1,0-0.3,0-0.5,0C41.2,47.4,41.2,46.8,41.2,46.1z"/>
	<path class="st1" d="M38.8,39.1c-9.6,0-19.1,0-28.6,0c0-3.1,0-6.1,0-9.2c9.5,0,19,0,28.6,0C38.8,32.9,38.8,36,38.8,39.1z
		 M36.5,34.5c0-0.8-0.8-1.6-1.6-1.6c-0.8,0-1.6,0.8-1.6,1.6c0,0.8,0.8,1.6,1.6,1.6C35.7,36.2,36.5,35.3,36.5,34.5z M15.8,34.5
		c0-0.8-0.8-1.6-1.6-1.6c-0.8,0-1.6,0.8-1.6,1.6c0,0.8,0.8,1.6,1.6,1.7C14.9,36.2,15.7,35.3,15.8,34.5z"/>
	<path class="st0" d="M36.5,34.5c0,0.8-0.9,1.6-1.6,1.6c-0.8,0-1.6-0.9-1.6-1.6c0-0.8,0.9-1.6,1.6-1.6
		C35.7,32.9,36.5,33.8,36.5,34.5z"/>
	<path class="st0" d="M15.8,34.5c0,0.8-0.9,1.6-1.6,1.6c-0.8,0-1.6-0.9-1.6-1.7c0-0.8,0.9-1.6,1.6-1.6
		C14.9,32.9,15.8,33.8,15.8,34.5z"/>
</g>
</svg>
