<?xml version="1.0" encoding="utf-8"?>
<!-- Generator: Adobe Illustrator 21.1.0, SVG Export Plug-In . SVG Version: 6.00 Build 0)  -->
<svg version="1.1" id="Layer_1" xmlns="http://www.w3.org/2000/svg" xmlns:xlink="http://www.w3.org/1999/xlink" x="0px" y="0px"
	 viewBox="0 0 51 51" style="enable-background:new 0 0 51 51;" xml:space="preserve">
<style type="text/css">
	.st0{fill:#05274F;}
	.st1{fill:#44B1D3;}
</style>
<g>
	<g>
		<path class="st0" d="M19.9,27.6c0,1.8,0,3.5,0,5.3c0,0.3,0.1,0.6,0.3,0.8c0.2,0.2,0.4,0.2,0.6,0.2c0,0,0,0,0,0
			c0.5,0,0.9-0.4,0.9-1c0-1.2,0-2.5,0-3.7c0-3.5,0-7.1,0-10.7c0-2.8-2.2-5.4-5.1-5.8c-0.3,0-0.5-0.1-0.8-0.1c0,0-0.1,0-0.2,0
			c0,0,0,0,0,0c1.9-1.8,2.8-4.3,2.2-6.9c-0.5-2.5-2.3-4.5-4.8-5.4c-0.3-0.1-0.6-0.2-0.9-0.3C12.1,0.1,12,0,11.9,0L9.9,0l0,0
			C9.7,0.1,9.5,0.1,9.2,0.2c-0.5,0.1-1,0.3-1.4,0.5c-2.2,1-3.7,3-4.1,5.4C3.3,8.5,4.2,10.9,6,12.6c0,0,0,0,0.1,0.1
			c-0.1,0-0.2,0-0.3,0c-0.4,0-0.7,0.1-1.1,0.2c-2.5,0.7-4.1,2.4-4.6,5c0,0,0,0.1,0,0.1c0,0,0,0,0,0.1l0,15.4l0,0
			c0.1,0,0.1,0.1,0.2,0.2c0.1,0.1,0.3,0.3,0.4,0.3C0.7,34,0.8,34,1,34c0.2,0,0.3,0,0.4-0.1c0.3-0.2,0.4-0.5,0.4-1c0-1.6,0-3.1,0-4.7
			c0-3.1,0-6.2,0-9.3c0-1.9,0.9-3.3,2.6-4c0.5-0.2,1.2-0.3,1.8-0.3c0.2,0,0.4,0,0.5,0c0.1,0,0.4,0.1,0.5,0.3
			c0.6,0.9,1.3,1.8,1.9,2.7c0.2,0.3,0.5,0.7,0.7,1c0.3,0.5,0.7,0.7,1,0.7c0,0,0,0,0,0c0.3,0,0.6-0.2,1-0.7l0.7-1.1
			c0.6-0.9,1.2-1.8,1.9-2.7c0.1-0.1,0.3-0.3,0.3-0.3c0.5,0,1,0,1.5,0c2.2,0.4,3.6,2.1,3.6,4.3C19.9,21.8,19.9,24.7,19.9,27.6z
			 M14.7,11.1c-2,2-5.2,2.1-7.3,0.3C5.3,9.7,4.8,6.6,6.3,4.4c3,1.3,6.1,1.3,9.1,0C16.8,6.2,16.5,9.3,14.7,11.1z M7.7,2.9
			c0.8-0.7,1.9-1.1,3.2-1.1c0,0,0,0,0.1,0c1.3,0,2.4,0.4,3.1,1.1C12,3.7,9.9,3.7,7.7,2.9z M12.4,14.6l-1.5,2.2l-1.5-2.2H12.4z"/>
		<path class="st0" d="M51,31.9C51,31.9,51,31.8,51,31.9c-0.1-0.1-0.1-0.2-0.1-0.2c-0.4-2.1-1.5-3.2-3.5-3.5
			c-0.9-0.2-1.7-0.3-2.6-0.5c-0.8-0.1-1.6-0.3-2.4-0.4c-0.2,0-0.5-0.1-0.7-0.1c-0.8-0.1-1.6-0.3-2.3-0.5C38,26.1,37,25,36.2,24
			c-1.2-1.5-2.4-2.9-3.6-4.4c-1-1.2-2.2-1.8-3.6-1.9c-1.2-0.1-2.4-0.1-3.6-0.1c-0.4,0-0.8,0-1.2,0c0,0,0,0,0,0
			c-0.4,0-0.6,0.1-0.8,0.3c-0.2,0.2-0.2,0.4-0.2,0.6c0,0.5,0.4,0.9,1.1,0.9c0.6,0,1.2,0,1.8,0c0.5,0,1,0,1.5,0c0.3,0,0.7,0,1.1,0
			c1.2,0.1,2.2,0.7,3.2,1.8c1,1.3,2.1,2.6,3.2,3.8c0.4,0.5,0.9,1.1,1.3,1.6l0.1,0.1h-2c-3.3,0-6.6,0-9.9,0c-0.2,0-0.5,0-0.7,0.1
			c-0.4,0.1-0.6,0.5-0.6,0.9c0,0.4,0.3,0.7,0.8,0.8c0.1,0,0.2,0,0.3,0l0.1,0l14.9,0c0.1,0,0.1,0,0.2,0c0.1,0,0.2,0,0.3,0l1.5,0.3
			c1.9,0.3,3.9,0.7,5.8,1c1.4,0.3,2.1,1.1,2.1,2.5c0,0.6,0,1.2,0,1.8c0,0.2,0,0.4,0,0.6c0,1.1-0.6,1.8-1.5,2
			C47.2,37,46.8,37,46.4,37c-0.2,0-0.3,0-0.5,0c-0.8-2.8-2.6-4.4-5-4.5c-1.2-0.1-2.3,0.2-3.2,0.8c-1.3,0.8-2.1,2-2.5,3.6H25l0-5.9
			l0-0.1c0-0.2,0-0.3,0-0.5c-0.1-0.5-0.4-0.8-0.8-0.8c-0.5,0-0.8,0.2-0.9,0.7c-0.1,0.2-0.1,0.4-0.1,0.6c0,1.2,0,2.4,0,3.6l0,2.1
			c0,0.1,0,0.2,0,0.3l0,0.1h-1.4c-0.7,0-1.3,0-2,0c-0.4,0-0.7,0.1-0.9,0.3c-0.2,0.2-0.2,0.4-0.2,0.6c0,0.5,0.4,0.9,1.1,0.9
			c0.1,0,0.2,0,0.3,0l15.2,0c1,3,2.8,4.5,5.3,4.5c0.1,0,0.1,0,0.2,0c2.6-0.1,4.4-1.6,5.3-4.5c0.1,0,0.1,0,0.2,0c0.2,0,0.4,0,0.6,0
			c0.1,0,0.3,0,0.4,0c0.5,0,0.9-0.1,1.4-0.2c1.3-0.4,2.1-1.4,2.6-2.9L51,31.9L51,31.9z M40.6,34.3C40.6,34.3,40.6,34.3,40.6,34.3
			c2,0,3.5,1.6,3.5,3.6c0,1.9-1.6,3.5-3.5,3.5c0,0,0,0,0,0c-1,0-1.8-0.4-2.5-1c-0.7-0.7-1-1.6-1-2.6c0-1,0.4-1.8,1-2.5
			C38.7,34.7,39.6,34.3,40.6,34.3z"/>
		<path class="st0" d="M16.4,19.8c-0.5,0-0.8,0.3-0.8,0.8c0,0.2,0,0.3,0,0.5l0,28.1h-3.7l0-17.6l0-0.1c0-0.2,0-0.3,0-0.5
			c-0.1-0.5-0.4-0.8-0.9-0.8c0,0,0,0,0,0c-0.5,0-0.8,0.3-0.9,0.8c0,0.2,0,0.5,0,0.7l0,17.4H6.2v-6.1c0-7.3,0-14.6,0-21.9l0-0.1
			c0-0.2,0-0.4,0-0.5c-0.1-0.5-0.4-0.7-0.9-0.7c0,0,0,0,0,0c-0.5,0-0.8,0.3-0.9,0.7c0,0.1,0,0.3,0,0.5c0,9.6,0,19.2,0,28.7
			c0,0.9,0.3,1.2,1.2,1.2h6.9H16c1.1,0,1.4-0.2,1.4-1.4V21l0-0.1c0-0.1,0-0.3,0-0.4C17.2,20.1,16.9,19.8,16.4,19.8z"/>
		<path class="st0" d="M27.7,31.4c0.3,0,0.6,0,0.9,0c0.2,0,0.4-0.1,0.6-0.3c0.2-0.2,0.2-0.4,0.2-0.7c-0.1-0.5-0.4-0.8-0.9-0.8
			c-0.2,0-0.4,0-0.6,0l-0.2,0c-0.1,0-0.2,0-0.3,0c-0.2,0-0.4,0-0.6,0c-0.5,0-0.9,0.4-0.9,0.9c0,0.5,0.3,0.9,0.8,0.9
			C27.1,31.3,27.4,31.4,27.7,31.4z"/>
	</g>
	<g>
		<path class="st1" d="M7.4,3c1.6-1.7,5.3-1.7,6.9,0C12,3.8,9.8,3.8,7.4,3z"/>
	</g>
	<g>
		<path class="st1" d="M12.6,14.4c-0.6,0.9-1.1,1.7-1.7,2.5c-0.6-0.9-1.1-1.7-1.7-2.5C10.3,14.4,11.4,14.4,12.6,14.4z"/>
	</g>
	<g>
		<path class="st1" d="M36.9,37.9c0-2,1.6-3.7,3.7-3.7c2,0,3.7,1.7,3.6,3.7c0,2-1.7,3.6-3.7,3.6C38.5,41.6,36.9,40,36.9,37.9z"/>
	</g>
</g>
</svg>
