<?xml version="1.0" encoding="utf-8"?>
<!-- Generator: Adobe Illustrator 21.1.0, SVG Export Plug-In . SVG Version: 6.00 Build 0)  -->
<svg version="1.1" id="Layer_1" xmlns="http://www.w3.org/2000/svg" xmlns:xlink="http://www.w3.org/1999/xlink" x="0px" y="0px"
	 viewBox="0 0 66 88" style="enable-background:new 0 0 66 88;" xml:space="preserve">
<style type="text/css">
	.st0{fill:#05274F;}
	.st1{fill:#FFFFFF;}
	.st2{fill:none;}
	.st3{fill:#44B1D3;}
</style>
<g>
	<path class="st0" d="M66,37.7c0,15.2,0,30.4,0,45.7c-0.6,1-1,2.2-1.8,3c-0.7,0.7-1.9,1.1-2.8,1.7c-18.9,0-37.8,0-56.7,0
		c-0.8-0.4-1.6-0.7-2.3-1.1C1.1,86,0.5,84.7,0,83.4c0-15.2,0-30.4,0-45.7c0.1-0.1,0.1-0.2,0.2-0.3c0.9-2.8,2.9-4.3,5.9-4.3
		c0.7,0,1.4,0,2.1,0c0-3.2,0-6.3,0-9.3c0.1-8.9,4.1-15.7,11.6-20.3c6-3.7,12.6-4,19.3-2.7c9.8,1.9,17.6,10.6,18.4,20.5
		c0.3,3.6,0.1,7.2,0.2,10.8c0,0.3,0,0.7,0,1.1c0.9,0,1.7,0,2.5,0c2.5,0,4.6,1.6,5.5,3.9C65.8,37.2,65.9,37.5,66,37.7z M3.1,37
		c1.5,1.5,3,3,4.5,4.4c0.5,0.5,0.7,0.9,0.7,1.6c0,10.4,0,20.9,0,31.3c0,1.5,0.4,3.2-0.1,4.5c-0.6,1.3-2,2.3-3.1,3.4
		c-0.6,0.6-1.3,1.2-1.9,1.8c0.8,1.1,1.7,1.3,2.8,1.3c12.6,0,25.3,0,37.9,0c5.5,0,11.1,0,16.6,0c1,0,1.9-0.2,2.6-1.2
		c-0.2-0.2-0.4-0.4-0.6-0.6c-1.3-1.3-2.6-2.6-3.9-3.9c-0.5-0.4-0.6-0.9-0.6-1.5c0-11.5,0-23.1,0-34.6c0-1,0.2-1.7,1-2.4
		c1.4-1.3,2.8-2.7,4.2-4.1c-0.7-1-1.6-1.2-2.6-1.2c-12,0-24.1,0-36.1,0c-6.2,0-12.4,0-18.6,0C4.7,35.8,3.8,36,3.1,37z M55,33
		c0-3.4,0.1-6.8,0-10.1c-0.4-8.2-4.2-14.3-11.6-18c-4.9-2.5-10.2-2.5-15.5-1.7C18.3,4.7,11.1,13.3,11,23c0,3.1,0,6.2,0,9.3
		c0,0.3,0,0.5,0,0.8C25.7,33,40.3,33,55,33z M5.6,45.4c-0.1-0.8,0.1-1.7-0.2-2.2c-0.6-1-1.6-1.8-2.4-2.6c-0.1,0.1-0.1,0.1-0.2,0.2
		c0,1.6,0,3.1,0,4.7C3.7,45.4,4.6,45.4,5.6,45.4z M63.2,40.5c-1.3,1.6-3.5,2.5-2.6,4.9c0.9,0,1.7,0,2.6,0
		C63.2,43.8,63.2,42.3,63.2,40.5z M5.4,75.7c-0.9,0-1.8,0-2.6,0c0,1.6,0,3.1,0,5c0.6-0.7,1-1.3,1.6-1.7C5.5,78.1,5.7,77,5.4,75.7z
		 M60.4,75.7c0.1,0.8-0.1,1.7,0.2,2.2c0.6,1,1.6,1.7,2.4,2.6c0.1,0,0.1-0.1,0.2-0.1c0-1.6,0-3.1,0-4.7
		C62.3,75.7,61.5,75.7,60.4,75.7z M2.8,48.2c0,0.9,0,1.8,0,2.7c0.9,0,1.8,0,2.7,0c0-0.9,0-1.8,0-2.7C4.6,48.2,3.7,48.2,2.8,48.2z
		 M63.2,48.2c-1,0-1.8,0-2.7,0c0,0.9,0,1.8,0,2.6c0.9,0,1.8,0,2.7,0C63.2,50,63.2,49.1,63.2,48.2z M5.5,53.7c-0.9,0-1.8,0-2.7,0
		c0,0.9,0,1.7,0,2.7c0.9,0,1.8,0,2.7,0C5.5,55.5,5.5,54.6,5.5,53.7z M60.5,56.4c1,0,1.8,0,2.7,0c0-0.9,0-1.8,0-2.7
		c-0.9,0-1.8,0-2.7,0C60.5,54.6,60.5,55.5,60.5,56.4z M2.8,59.2c0,0.9,0,1.8,0,2.7c0.9,0,1.8,0,2.7,0c0-0.9,0-1.8,0-2.7
		C4.6,59.2,3.7,59.2,2.8,59.2z M63.2,59.2c-1,0-1.8,0-2.7,0c0,0.9,0,1.8,0,2.7c0.9,0,1.8,0,2.7,0C63.2,61,63.2,60.1,63.2,59.2z
		 M5.5,64.7c-1,0-1.8,0-2.7,0c0,0.9,0,1.8,0,2.7c0.9,0,1.8,0,2.7,0C5.5,66.5,5.5,65.6,5.5,64.7z M60.5,64.7c0,1,0,1.8,0,2.7
		c0.9,0,1.8,0,2.7,0c0-0.9,0-1.8,0-2.7C62.3,64.7,61.4,64.7,60.5,64.7z M2.8,70.2c0,1,0,1.8,0,2.7c0.9,0,1.8,0,2.7,0
		c0-0.9,0-1.8,0-2.7C4.5,70.2,3.7,70.2,2.8,70.2z M63.2,72.9c0-1,0-1.8,0-2.7c-0.9,0-1.8,0-2.6,0c0,0.9,0,1.8,0,2.7
		C61.5,72.9,62.3,72.9,63.2,72.9z"/>
	<path class="st1" d="M3.1,37c0.7-1,1.6-1.2,2.6-1.2c6.2,0,12.4,0,18.6,0c12,0,24.1,0,36.1,0c1,0,1.9,0.2,2.6,1.2
		c-1.4,1.4-2.7,2.8-4.2,4.1c-0.7,0.7-1,1.4-1,2.4c0,11.5,0,23.1,0,34.6c0,0.6,0.2,1.1,0.6,1.5c1.3,1.3,2.6,2.6,3.9,3.9
		c0.2,0.2,0.4,0.4,0.6,0.6c-0.6,1-1.5,1.2-2.6,1.2c-5.5,0-11.1,0-16.6,0c-12.6,0-25.3,0-37.9,0c-1,0-2-0.2-2.8-1.3
		c0.6-0.6,1.3-1.2,1.9-1.8c1.1-1.1,2.6-2,3.1-3.4c0.5-1.3,0.1-3,0.1-4.5c0-10.4,0-20.9,0-31.3c0-0.6-0.2-1.1-0.7-1.6
		C6.1,40,4.6,38.5,3.1,37z M40.4,42.8c-7.3-3.1-16.3-1.4-22.1,5.6c-5.7,6.8-6,16.3-0.7,23.4c5.2,7.1,14.5,9.8,22.5,6.5
		c8.7-3.5,12.4-12,12.1-17.7c-0.9,0-1.7,0-2.6,0c-0.2,10.7-9.2,17.7-19.2,16.2C21.1,75.5,14.9,66.6,16.8,57
		c2-10.1,12.8-15.6,22.5-11.8C39.7,44.5,40,43.7,40.4,42.8z M32.9,58.6c-1.8-1.8-3.6-3.6-5.3-5.4c-2,2-4,4-5.9,5.9
		c3.8,3.8,7.6,7.6,11.3,11.3c6.1-6,12.2-12.1,18.1-18.1c-1.9-1.9-3.9-3.9-6-6C41.2,50.4,37.1,54.4,32.9,58.6z"/>
	<path class="st1" d="M5.6,45.4c-1,0-1.9,0-2.8,0c0-1.6,0-3.1,0-4.7c0.1-0.1,0.1-0.1,0.2-0.2c0.8,0.9,1.7,1.6,2.4,2.6
		C5.7,43.7,5.5,44.6,5.6,45.4z"/>
	<path class="st1" d="M63.2,40.5c0,1.8,0,3.3,0,4.9c-0.9,0-1.7,0-2.6,0C59.7,42.9,61.9,42.1,63.2,40.5z"/>
	<path class="st1" d="M5.4,75.7c0.3,1.3,0.1,2.4-1,3.3c-0.5,0.4-0.9,1-1.6,1.7c0-1.8,0-3.3,0-5C3.6,75.7,4.5,75.7,5.4,75.7z"/>
	<path class="st1" d="M60.4,75.7c1,0,1.9,0,2.8,0c0,1.6,0,3.1,0,4.7c-0.1,0-0.1,0.1-0.2,0.1c-0.8-0.9-1.8-1.6-2.4-2.6
		C60.3,77.4,60.5,76.5,60.4,75.7z"/>
	<path class="st1" d="M2.8,48.2c0.9,0,1.8,0,2.7,0c0,0.9,0,1.8,0,2.7c-0.9,0-1.7,0-2.7,0C2.8,50,2.8,49.1,2.8,48.2z"/>
	<path class="st1" d="M63.2,48.2c0,0.9,0,1.7,0,2.6c-0.9,0-1.7,0-2.7,0c0-0.8,0-1.7,0-2.6C61.4,48.2,62.3,48.2,63.2,48.2z"/>
	<path class="st1" d="M5.5,53.7c0,0.9,0,1.8,0,2.7c-0.9,0-1.8,0-2.7,0c0-0.9,0-1.8,0-2.7C3.7,53.7,4.6,53.7,5.5,53.7z"/>
	<path class="st1" d="M60.5,56.4c0-0.9,0-1.8,0-2.7c0.9,0,1.8,0,2.7,0c0,0.9,0,1.7,0,2.7C62.3,56.4,61.5,56.4,60.5,56.4z"/>
	<path class="st1" d="M2.8,59.2c0.9,0,1.8,0,2.7,0c0,0.9,0,1.8,0,2.7c-0.9,0-1.7,0-2.7,0C2.8,61,2.8,60.1,2.8,59.2z"/>
	<path class="st1" d="M63.2,59.2c0,0.9,0,1.8,0,2.7c-0.9,0-1.8,0-2.7,0c0-0.9,0-1.7,0-2.7C61.4,59.2,62.3,59.2,63.2,59.2z"/>
	<path class="st1" d="M5.5,64.7c0,0.9,0,1.8,0,2.7c-0.9,0-1.8,0-2.7,0c0-0.9,0-1.7,0-2.7C3.7,64.7,4.5,64.7,5.5,64.7z"/>
	<path class="st1" d="M60.5,64.7c0.9,0,1.7,0,2.7,0c0,0.9,0,1.8,0,2.7c-0.9,0-1.7,0-2.7,0C60.5,66.5,60.5,65.6,60.5,64.7z"/>
	<path class="st1" d="M2.8,70.2c0.9,0,1.7,0,2.7,0c0,0.9,0,1.8,0,2.7c-0.9,0-1.7,0-2.7,0C2.8,72,2.8,71.1,2.8,70.2z"/>
	<path class="st1" d="M63.2,72.9c-0.9,0-1.7,0-2.6,0c0-0.9,0-1.7,0-2.7c0.8,0,1.7,0,2.6,0C63.2,71,63.2,71.9,63.2,72.9z"/>
	<path class="st0" d="M40.4,42.8c-0.4,0.8-0.7,1.6-1,2.4c-9.8-3.8-20.5,1.7-22.5,11.8c-1.9,9.6,4.2,18.5,13.5,19.8
		c10,1.4,18.9-5.6,19.2-16.2c0.9,0,1.7,0,2.6,0c0.3,5.8-3.4,14.2-12.1,17.7c-8,3.3-17.3,0.6-22.5-6.5c-5.3-7.2-5-16.6,0.7-23.4
		C24,41.5,33.1,39.7,40.4,42.8z"/>
	<path class="st0" d="M32.9,58.6c4.2-4.2,8.3-8.3,12.3-12.3c2.1,2.1,4,4.1,6,6c-6,6-12.1,12.1-18.1,18.1c-3.7-3.7-7.6-7.6-11.3-11.3
		c1.9-1.9,3.9-3.9,5.9-5.9C29.3,55,31.1,56.8,32.9,58.6z M27.7,57.1c-0.8,0.8-1.5,1.4-2.1,1.9c2.5,2.5,5,5,7.4,7.4
		c4.7-4.7,9.5-9.5,14.2-14.2c-0.6-0.6-1.3-1.4-2-2.2c-4.1,4.1-8.2,8.2-12.3,12.3C31.1,60.6,29.4,58.8,27.7,57.1z"/>
	<g>
		<path class="st2" d="M49.5,24.9c0,0.4,0,0.9,0,1.5C49.5,25.9,49.5,25.4,49.5,24.9z"/>
		<path class="st2" d="M19.2,30.3C19.2,30.3,19.2,30.3,19.2,30.3c0-1.5,0-3,0-4.4C19.2,27.2,19.2,28.7,19.2,30.3z"/>
		<path class="st2" d="M46.8,24.1c0-0.1,0-0.3,0-0.4C46.7,23.8,46.7,23.9,46.8,24.1z"/>
		<path class="st2" d="M46.8,27c0,1.1,0,2.2,0,3.3c0,0,0,0,0,0C46.8,29.2,46.8,28,46.8,27z"/>
		<path class="st2" d="M19.2,23.1c0,0.3,0,0.7,0,1.2C19.2,23.9,19.2,23.5,19.2,23.1z"/>
		<path class="st2" d="M16.5,26.1c0-2.9,0.2-5.8,0.8-7.5C16.5,21.1,16.5,23.6,16.5,26.1z"/>
		<path class="st2" d="M16.5,30.3C16.5,30.3,16.5,30.3,16.5,30.3c0-0.2,0-0.3,0-0.5C16.5,29.9,16.5,30.1,16.5,30.3z"/>
		<path class="st3" d="M55,22.9c-0.4-8.2-4.2-14.3-11.6-18c-4.9-2.5-10.2-2.5-15.5-1.7C18.3,4.7,11.1,13.3,11,23c0,3.1,0,6.2,0,9.3
			c0,0.3,0,0.5,0,0.8c1.9,0,3.7,0,5.6,0c0-0.9,0-1.8,0-2.8c0,0,0,0,0,0c0-0.2,0-0.3,0-0.5c0-1.2,0-2.4,0-3.6c0-2.5,0-5,0.8-7.5
			c2.2-6.1,8-10.3,14.5-10.3c2.6,0,5.3,0,7.8,1c6,2.4,9.9,8,9.9,14.4c0,0.3,0,0.6,0,1.1c0,0.5,0,1,0,1.5c0,2,0,4.6,0,6.7
			c1.8,0,3.7,0,5.5,0C55,29.6,55.1,26.3,55,22.9z"/>
		<path class="st0" d="M16.5,35.8c1,0,1.8,0,2.8,0c0-0.6,0-1.6,0-2.8c-0.9,0-1.8,0-2.7,0C16.5,34.1,16.5,35.1,16.5,35.8z"/>
		<path class="st0" d="M19.2,25.8c0-0.5,0-1,0-1.6c0-0.5,0-0.9,0-1.2c0.1-5.4,3.7-10,8.8-11.5c2.2-0.7,4.5-0.5,6.8-0.5
			c5.1,0.1,9.6,3.4,11.2,8.2c0.4,1.4,0.6,2.9,0.7,4.4c0,0.1,0,0.2,0,0.4c0,1,0,1.9,0,2.9c0,1,0,2.2,0,3.3c0.9,0,1.8,0,2.7,0
			c0-1.3,0-2.6,0-3.9c0-0.5,0-1,0-1.5c0-0.4,0-0.7,0-1.1c0-6.4-3.9-12.1-9.9-14.4c-2.5-1-5.1-1-7.8-1c-6.5,0-12.3,4.2-14.5,10.3
			c-0.6,1.7-0.8,4.5-0.8,7.5c0,1.2,0,2.4,0,3.6c0,0.2,0,0.3,0,0.5c0.9,0,1.8,0,2.7,0C19.2,28.7,19.2,27.2,19.2,25.8z"/>
		<path class="st0" d="M46.8,35.8c0.9,0,1.8,0,2.7,0c0-0.6,0-1.6,0-2.8c-0.9,0-1.8,0-2.7,0C46.8,34.2,46.8,35.2,46.8,35.8z"/>
		<path class="st0" d="M46.8,24.1c0,0.7,0,1.7,0,2.9C46.8,26,46.8,25,46.8,24.1z"/>
		<path class="st0" d="M49.5,26.4c0,1.3,0,2.6,0,3.9c-0.9,0-1.8,0-2.7,0c0,1,0,1.9,0,2.8c0.9,0,1.8,0,2.7,0
			C49.5,31,49.5,28.4,49.5,26.4z"/>
		<path class="st0" d="M19.2,24.3c0,0.5,0,1,0,1.6C19.2,25.3,19.2,24.7,19.2,24.3z"/>
		<path class="st0" d="M16.5,26.1c0,1.2,0,2.5,0,3.6C16.6,28.6,16.5,27.3,16.5,26.1z"/>
		<path class="st0" d="M49.5,23.8c0,0.4,0,0.7,0,1.1C49.5,24.5,49.5,24.1,49.5,23.8z"/>
		<path class="st0" d="M16.5,30.3c0,1,0,1.9,0,2.8c0.9,0,1.8,0,2.7,0c0-0.9,0-1.8,0-2.8C18.3,30.3,17.5,30.3,16.5,30.3z"/>
	</g>
	<path class="st3" d="M27.7,57.1c1.7,1.7,3.4,3.5,5.2,5.3c4.2-4.2,8.2-8.2,12.3-12.3c0.8,0.8,1.5,1.6,2,2.2
		C42.5,57,37.7,61.8,33,66.5c-2.4-2.4-4.9-4.9-7.4-7.4C26.2,58.6,26.9,57.9,27.7,57.1z"/>
</g>
</svg>
