<?xml version="1.0" encoding="utf-8"?>
<!-- Generator: Adobe Illustrator 21.1.0, SVG Export Plug-In . SVG Version: 6.00 Build 0)  -->
<svg version="1.1" id="Layer_1" xmlns="http://www.w3.org/2000/svg" xmlns:xlink="http://www.w3.org/1999/xlink" x="0px" y="0px"
	 viewBox="0 0 48 49" style="enable-background:new 0 0 48 49;" xml:space="preserve">
<style type="text/css">
	.st0{fill:#05274F;}
	.st1{fill:#44B1D3;}
</style>
<g>
	<path class="st0" d="M14.5,49c-1-0.4-1.3-1.1-1.2-2.1c0.1-1.2,0-2.4,0-3.5c0-0.4-0.1-0.6-0.5-0.8c-3.3-1.9-5.9-4.4-7.6-7.9
		c-0.4-0.8-0.8-1-1.6-0.9c-0.4,0.1-0.8,0-1.2,0c-1.4,0-2.4-1-2.4-2.3c0-2,0-4,0-5.9c0-1.4,1-2.3,2.4-2.3c0.5,0,1,0,1.5,0
		c0.2,0,0.4-0.2,0.5-0.3c1-2.6,2.6-4.8,4.7-6.7c0.2-0.2,0.2-0.3,0.1-0.6c-0.3-0.7-0.7-1.5-1-2.2c-0.5-1.3,0-2.7,1.2-3.2
		c1.2-0.5,2.6,0,3.2,1.2c0.3,0.6,0.5,1.2,0.8,1.8c0.7-0.3,1.4-0.6,2-0.9c0.1-0.1,0.2-0.3,0.2-0.4c-0.2-1.8,0-3.6,0.6-5.3
		c1.6-4,5.7-6.6,10-6.5c4.9,0.1,9.2,3.9,10,8.7c0.2,1.1,0.2,2.1,0,3.2c-0.1,0.3,0,0.5,0.3,0.6c1.9,0.8,3.6,1.9,5.2,3.1
		c0.4,0.3,1,0.3,1.5,0.4c0.7,0.1,1.5,0.2,2.2,0.3c1,0.1,1.8,0.8,1.9,1.7c0.1,1-0.4,1.7-1.4,2.1c-0.1,0-0.1,0.1-0.2,0.1
		c0.4,0.8,0.8,1.5,1.1,2.3c2.1,5.3,1.3,10.3-2.1,14.9c-1.4,2-3.3,3.6-5.3,4.9C39.1,42.5,39,42.7,39,43c0,1.3,0,2.6,0,3.9
		c0,1-0.3,1.7-1.2,2.1c-2,0-3.9,0-5.9,0c-1-0.3-1.3-1-1.2-2c0-0.4,0-0.8,0-1.3c-3,0.5-6,0.6-9,0.2c0,0.4,0,0.8,0,1.1
		c0.1,1-0.3,1.7-1.2,2.1C18.4,49,16.4,49,14.5,49z M16,13.7c-3.3,1.5-6.2,3.5-8.3,6.6C4.5,25,4.1,30,6.9,35c1.9,3.4,4.9,5.8,8.4,7.4
		C21,45,26.9,45.3,33,43.6c4.2-1.2,7.8-3.4,10.5-6.8c3-3.8,4-8.1,2.5-12.8c-0.5-1.6-1.3-3-2.2-4.3c-0.2-0.3-0.3-0.6-0.1-0.9
		c0.2-0.3,0.5-0.4,0.8-0.4c0.3,0,0.7,0.1,1,0.1c0.2,0,0.5-0.1,0.5-0.3c0.1-0.3-0.1-0.4-0.4-0.5c-1-0.1-2.1-0.3-3.1-0.5
		c-0.6-0.1-1.1-0.3-1.6-0.7c-1.2-0.8-2.4-1.6-3.6-2.3c-0.4-0.2-0.8-0.4-1.2-0.6c-0.5,1-1,1.9-1.5,2.8c0.6,0.3,1.3,0.5,1.9,0.9
		c0.2,0.1,0.4,0.4,0.3,0.6c0,0.2-0.3,0.5-0.5,0.6c-0.2,0.1-0.6,0-0.8-0.1c-1.6-0.8-3.3-1.3-5-1.7c-2.4-0.5-4.8-0.6-7.1-0.3
		c-2.4,0.3-4.8,1-7,2.1c-0.1,0.1-0.4,0.1-0.5,0c-0.2-0.2-0.5-0.4-0.6-0.6c-0.1-0.3,0.2-0.6,0.5-0.7c0.7-0.3,1.3-0.6,2-0.9
		C17,15.6,16.5,14.7,16,13.7z M26,1.5c-0.5,0.1-1.1,0.1-1.6,0.2c-6.5,1.3-9.5,8.7-5.5,14c0.2,0.3,0.4,0.4,0.8,0.3
		c4.2-1.1,8.4-1.1,12.7,0.1c0.3,0.1,0.5,0,0.6-0.2c1.5-2,2.2-4.2,1.8-6.7C34.1,4.7,30.4,1.5,26,1.5z M4,24.8c-0.6,0-1.1,0-1.7,0
		c-0.5,0-0.8,0.4-0.8,0.9c0,2,0,3.9,0,5.9c0,0.4,0.2,0.8,0.7,0.8c0.6,0.1,1.3,0,2,0C3.5,29.9,3.4,27.4,4,24.8z M37.5,43.5
		c-0.1,0-0.1,0-0.1,0c-1.6,0.8-3.3,1.4-5,1.9c-0.1,0-0.2,0.1-0.2,0.2c0,0.6,0,1.3,0,1.9c1.8,0,3.6,0,5.3,0
		C37.5,46.1,37.5,44.8,37.5,43.5z M20.2,47.5c0-0.6,0-1.2,0-1.7c0-0.1-0.2-0.2-0.3-0.3c-1.5-0.5-3.1-1-4.6-1.5
		c-0.1,0-0.3-0.1-0.4-0.1c0,1.2,0,2.4,0,3.6C16.6,47.5,18.4,47.5,20.2,47.5z M10.6,15c0.5-0.4,1-0.7,1.5-1.1c0.1,0,0.1-0.2,0-0.3
		c-0.3-0.6-0.5-1.2-0.8-1.8c-0.2-0.4-0.8-0.5-1.2-0.4c-0.4,0.2-0.7,0.7-0.5,1.1C9.9,13.4,10.3,14.2,10.6,15z"/>
	<path class="st1" d="M26,1.5c4.4,0,8.1,3.3,8.8,7.6c0.4,2.5-0.3,4.7-1.8,6.7c-0.2,0.2-0.3,0.3-0.6,0.2c-4.2-1.2-8.4-1.2-12.7-0.1
		c-0.4,0.1-0.6,0-0.8-0.3c-3.9-5.3-1-12.7,5.5-14C24.9,1.5,25.4,1.5,26,1.5z"/>
	<path class="st0" d="M14.5,21.8c0,1.5-1.2,2.7-2.7,2.6c-1.5,0-2.6-1.2-2.6-2.7c0-1.5,1.2-2.6,2.7-2.6
		C13.3,19.2,14.5,20.4,14.5,21.8z M11.8,23c0.6,0,1.2-0.6,1.2-1.2c0-0.6-0.6-1.2-1.2-1.2c-0.6,0-1.2,0.6-1.2,1.2
		C10.6,22.5,11.2,23,11.8,23z"/>
</g>
</svg>
