<?xml version="1.0" encoding="utf-8"?>
<!-- Generator: Adobe Illustrator 23.0.3, SVG Export Plug-In . SVG Version: 6.00 Build 0)  -->
<svg version="1.1" id="Layer_1" xmlns="http://www.w3.org/2000/svg" xmlns:xlink="http://www.w3.org/1999/xlink" x="0px" y="0px"
	 viewBox="0 0 120 120" style="enable-background:new 0 0 120 120;" xml:space="preserve">
<style type="text/css">
	.st0{fill:#163344;}
</style>
<g>
	<g>
		<path class="st0" d="M53.5,94.2c-2.4-1.6-3.6-3.6-3-6.4c0.5-2.4,2.1-4,4.5-4.5c2.9-0.6,5,0.8,6.5,3.3c1.4-0.4,2.9-0.8,4.3-1.2
			c0-2,0-4,0-6.1c-0.5,0-0.9,0-1.4,0c-19.3,0-38.5,0-57.8,0c-4.3,0-6.6-2.3-6.6-6.6C0,54.2,0,35.6,0,17c0-0.5,0-0.9,0-1.5
			c5.2,0,10.2,0,15.4,0c0-0.4,0.1-0.8,0.1-1.1c0-2.9,0-5.7,0-8.6C15.5,2.6,18,0,21.3,0c15.5,0,31,0,46.6,0c3.2,0,5.7,2.6,5.7,5.8
			c0,3.2,0,6.4,0,9.6c5.2,0,10.2,0,15.4,0c0,10.3,0,20.6,0,30.9c0.5,0,0.8,0.1,1.2,0.1c4.7,0,9.4,0,14,0c0.8,0,1.3,0.2,1.9,0.8
			c4.4,4.4,8.8,8.8,13.2,13.3c0.4,0.4,0.7,0.9,0.7,1.4c0,19.1,0,38.3,0,57.4c0,0.2,0,0.3,0,0.6c-18,0-36,0-54.1,0
			c0-10.1,0-20.2,0-30.5c-1.3,0.4-2.5,0.6-3.6,1c-0.3,0.1-0.6,0.4-0.7,0.7c-0.7,1.7-1.9,2.7-3.5,3.4c-0.4,0.1-0.7,0.6-0.8,1
			c-1.3,6.1-2.6,12.1-3.9,18.2c-0.7,3.5-3.2,5.9-6.5,6.2c-3.3,0.3-6.1-1.5-7.5-4.7c-0.3-0.7-0.6-1.3-0.8-2c-0.6-1.6-1.2-2.9-3.4-3.3
			c-3.9-0.8-5.3-5.7-2.8-8.8c0.5-0.7,0.6-1.2,0.2-1.9c-0.7-1.5-1.3-2.9-1.9-4.4c-0.4-1-1-1.9-2.3-1.8c-1.4,0.1-1.6,1.2-1.8,2.3
			c-0.9,5.3-1.7,10.6-2.6,15.8c-0.5,3.1-2.8,5-6,5c-1.8,0-3.6,0-5.4,0c-0.7,0-1.1,0.2-1.5,0.9c-1.4,2.6-4.3,3.6-7,2.6
			c-2.7-1-4.3-3.9-3.7-6.6c0.6-2.9,3.2-4.8,6.1-4.6c2.1,0.1,3.7,1.2,4.7,3c0.4,0.7,0.7,0.9,1.5,0.9c1.7-0.1,3.3,0,5,0
			c1.9,0,2.5-0.5,2.8-2.4c0.9-5.3,1.7-10.6,2.6-15.8c0.5-2.8,2.4-4.6,5-5c2.6-0.3,4.9,1.1,6.1,3.7c0.8,1.7,1.5,3.5,2.3,5.2
			c0.2,0.4,0.7,0.7,1.1,0.8c2.3,0.3,3.9,1.4,4.9,3.5c0.9,2.1,0.7,4.1-0.8,5.9c-0.4,0.6-0.5,1-0.2,1.6c0.6,1.4,1.2,2.8,1.8,4.2
			c0.7,1.6,2,2.4,3.5,2.2c1.5-0.2,2.6-1.2,3-2.9C50.7,106.9,52.1,100.6,53.5,94.2z M69.7,84.4c2.3-0.6,4.4-1.3,6.6-1.8
			c0.8-0.2,1.2-0.5,1.5-1.3c0.9-2.7,3.7-4.3,6.4-3.8c2.8,0.6,4.8,3,4.8,5.8c0,2.4-1.6,4.5-3.8,5.4c-2.3,0.8-4.8,0.1-6.4-1.8
			c-0.3-0.3-0.8-0.7-1.1-0.6c-2.6,0.7-5.3,1.4-7.9,2.1c0,9.3,0,18.5,0,27.7c15.5,0,30.9,0,46.3,0c0-17.4,0-34.7,0-52.2
			c-4.5,0-9,0-13.5,0c0-4.6,0-9,0-13.4c-11,0-21.9,0-32.8,0C69.7,61.7,69.7,72.9,69.7,84.4z M85.1,46.4c0-2.6,0-5.1,0-7.9
			c-3.5,3.4-7.6,4.2-12,4c-3.6-0.1-7.3,0-10.9,0c-0.4,0-0.7,0-1.1,0c0.4,0.4,0.9,0.7,0.9,1c0.1,2.1,0,4.2,0,6.2
			c-0.3,0.1-0.5,0.3-0.7,0.3c-1.3,0.2-2,1-2.5,2.2c-0.5,1.2-0.9,2.3,0,3.5c0.2,0.3,0,1-0.2,1.3c-1.1,1.2-2.3,2.3-3.5,3.5
			c-0.4,0.5-0.8,0.5-1.4,0.2c-0.5-0.3-1.2-0.8-1.6-0.7c-1.1,0.3-2.2,0.7-3.2,1.3c-0.4,0.2-0.4,1.1-0.7,1.6c-0.2,0.3-0.6,0.8-0.9,0.9
			c-2,0.1-4,0-6,0c-0.1-0.3-0.2-0.4-0.3-0.6c-0.2-1.4-1-2-2.3-2.5c-1.3-0.5-2.3-0.7-3.5,0.1c-0.2,0.2-0.9,0-1.2-0.2
			c-1.2-1.1-2.2-2.2-3.4-3.3c-0.6-0.6-0.7-1.1-0.3-1.9c0.3-0.5,0.6-1.3,0.4-1.8c-0.6-1.8-1.1-3.7-3.6-3.6c0-2.3,0-4.5,0-6.7
			c0.3-0.2,0.6-0.3,1.1-0.6c-4.7,0-9.1-0.1-13.5,0c-4.1,0.1-7.6-1-10.6-3.8c0,0-0.1,0-0.3,0c0,0.3,0,0.6,0,0.9c0,11,0,22,0,33
			c0,2.1,0.6,2.7,2.8,2.7c19.3,0,38.5,0,57.8,0c0.4,0,0.9,0,1.4,0c0-9.8,0-19.4,0-29C72.3,46.4,78.7,46.4,85.1,46.4z M85,19.4
			c-27,0-54,0-81.1,0c0,3.1,0,6.2,0,9.3c0,5.8,4.2,10,10,10c5.2,0,10.4,0,15.6,0c0.4,0,0.9,0,1.4,0c-0.2-0.4-0.2-0.7-0.4-0.9
			c-0.7-0.9-0.5-1.6,0.4-2.3c1.1-0.9,2-1.9,3-3c0.5-0.6,1-0.7,1.7-0.2c0.9,0.6,1.7,0.5,2.8,0.1c1.7-0.6,2.7-1.5,2.9-3.3
			c2.3,0,4.5,0,6.7,0c0.1,0.2,0.3,0.4,0.3,0.7c0.2,1.4,1,2,2.3,2.4c1.2,0.5,2.3,0.8,3.5,0c0.2-0.2,0.9-0.1,1.2,0.2
			c0.8,0.6,1.4,1.4,2.2,2.1c0.6,0.6,1.5,1.1,1.7,1.8c0.2,0.7-0.3,1.5-0.5,2.4c0.1,0,0.3,0.1,0.4,0.1c5.7,0,11.5,0.1,17.2,0
			c4.4-0.1,8.5-3.3,9-7.7C85.3,27.2,85,23.4,85,19.4z M53.7,56.3c0.6-0.3,1-0.7,0.5-1.4c-0.6-0.8-0.3-1.5,0.1-2.3
			c0.7-1.2,1.2-2.5,1.6-3.9c0.2-0.8,0.5-1.4,1.4-1.6c0.3-0.1,0.6-0.5,0.9-0.8c-0.3-0.3-0.5-0.7-0.8-0.8c-0.9-0.2-1.1-0.7-1.4-1.6
			c-0.4-1.3-0.9-2.7-1.6-3.9c-0.4-0.8-0.8-1.4-0.2-2.3c0.2-0.2,0.2-0.9,0-1c-0.3-0.2-0.8-0.2-1.1-0.1c-0.8,0.5-1.4,0.3-2.2-0.1
			c-1.2-0.7-2.5-1.2-3.9-1.6c-0.9-0.2-1.4-0.5-1.7-1.4c-0.1-0.3-0.5-0.5-0.8-0.8c-0.3,0.3-0.7,0.6-0.8,0.9c-0.2,0.8-0.7,1.1-1.5,1.3
			c-1.4,0.4-2.8,1-4.1,1.7c-0.8,0.4-1.3,0.5-2.1,0.1c-0.3-0.2-0.8,0-1.1,0c0,0.4-0.1,0.9,0.1,1.1c0.5,0.8,0.3,1.3-0.1,2.1
			c-0.7,1.3-1.2,2.6-1.7,4c-0.2,0.8-0.5,1.4-1.4,1.6c-0.3,0.1-0.6,0.5-0.9,0.8c0.3,0.3,0.5,0.7,0.8,0.8c0.9,0.2,1.1,0.7,1.4,1.6
			c0.4,1.4,1,2.7,1.6,4c0.4,0.7,0.6,1.3,0.1,2.1c-0.2,0.3-0.1,0.8-0.1,1.2c0.4,0,0.9,0.1,1.2-0.1c0.7-0.4,1.3-0.2,2,0.1
			c1.3,0.7,2.6,1.3,4,1.7c0.9,0.2,1.4,0.5,1.7,1.4c0.1,0.3,0.5,0.7,0.8,0.7c0.2,0,0.6-0.4,0.7-0.7c0.2-0.9,0.7-1.2,1.6-1.4
			c1.1-0.2,2.2-0.6,3.1-1.2c1.1-0.6,2.1-1.5,3.3-0.4C53.5,56.3,53.5,56.3,53.7,56.3z M69.7,15.4c0-3.2,0-6.2,0-9.3
			c0-1.6-0.7-2.3-2.3-2.3c-2.7,0-5.4,0-8.1,0c-12.5,0-24.9,0-37.4,0c-1.9,0-2.5,0.6-2.5,2.5c0,1.8,0,3.5,0,5.3c0,1.2,0,2.5,0,3.7
			c1.4,0,2.6,0,3.9,0c0-2.6,0-5.1,0-7.6c14.3,0,28.4,0,42.6,0c0,2.6,0,5.1,0,7.6C67.1,15.4,68.3,15.4,69.7,15.4z M27.2,11.6
			c0,1.3,0,2.5,0,3.8c11.6,0,23.1,0,34.6,0c0-1.3,0-2.5,0-3.8C50.3,11.6,38.8,11.6,27.2,11.6z M106.5,53.5c0,2.1,0,4.3,0,6.5
			c2.2,0,4.4,0,6.5,0C110.9,57.8,108.7,55.6,106.5,53.5z M56.1,91c1,0,1.9-0.8,2-1.9c0-1-0.8-1.9-1.8-2c-1.1-0.1-2,0.8-2,1.9
			C54.2,90.1,55.1,90.9,56.1,91z M36.8,102.6c-1,0-1.9,0.9-1.9,1.9c0,1,0.9,1.9,1.9,1.9c1.1,0,2-0.9,2-2
			C38.7,103.4,37.8,102.6,36.8,102.6z M7.7,114.2c0-1-0.8-1.9-1.9-2c-1,0-1.9,0.8-2,1.8c-0.1,1.1,0.8,2,1.9,2
			C6.9,116.1,7.7,115.3,7.7,114.2z M85.2,83.2c0-1-0.9-1.9-2-1.9c-1,0-1.9,0.9-1.9,1.9c0,1.1,0.9,2,2,2
			C84.3,85.1,85.2,84.2,85.2,83.2z"/>
		<path class="st0" d="M81.3,96.7c0-1.3,0-2.4,0-3.7c10.3,0,20.5,0,30.9,0c0,1.2,0,2.4,0,3.7C101.9,96.7,91.7,96.7,81.3,96.7z"/>
		<path class="st0" d="M112.2,100.7c0,1.3,0,2.5,0,3.7c-10.3,0-20.6,0-30.9,0c0-1.2,0-2.4,0-3.7C91.6,100.7,101.9,100.7,112.2,100.7
			z"/>
		<path class="st0" d="M73.6,58c0-1.3,0-2.5,0-3.7c8.3,0,16.6,0,25,0c0,1.2,0,2.4,0,3.7C90.3,58,82,58,73.6,58z"/>
		<path class="st0" d="M98.7,62c0,1.3,0,2.5,0,3.7c-8.4,0-16.7,0-25.1,0c0-1.2,0-2.4,0-3.7C81.9,62,90.2,62,98.7,62z"/>
		<path class="st0" d="M91,77.3c0-1.2,0-2.4,0-3.7c7.1,0,14.1,0,21.2,0c0,1.2,0,2.4,0,3.7C105.2,77.3,98.2,77.3,91,77.3z"/>
		<path class="st0" d="M112.2,85.1c-7.1,0-14.1,0-21.1,0c0-1.2,0-2.5,0-3.8c7,0,14,0,21.1,0C112.2,82.6,112.2,83.8,112.2,85.1z"/>
		<path class="st0" d="M77.3,112.2c-1.3,0-2.5,0-3.7,0c0-1.2,0-2.4,0-3.7c1.2,0,2.4,0,3.7,0C77.3,109.7,77.3,110.9,77.3,112.2z"/>
		<path class="st0" d="M81.4,108.4c1.2,0,2.4,0,3.7,0c0,1.2,0,2.4,0,3.7c-1.2,0-2.4,0-3.7,0C81.4,110.9,81.4,109.7,81.4,108.4z"/>
		<path class="st0" d="M89.1,112.1c0-1.3,0-2.4,0-3.7c1.2,0,2.5,0,3.8,0c0,1.2,0,2.4,0,3.7C91.6,112.1,90.3,112.1,89.1,112.1z"/>
		<path class="st0" d="M11.6,23.3c0,1.3,0,2.5,0,3.7c-1.2,0-2.5,0-3.8,0c0-1.2,0-2.5,0-3.7C9.1,23.3,10.3,23.3,11.6,23.3z"/>
		<path class="st0" d="M15.5,27c0-1.3,0-2.4,0-3.7c1.2,0,2.5,0,3.8,0c0,1.2,0,2.4,0,3.7C18.1,27,16.8,27,15.5,27z"/>
		<path class="st0" d="M27,27.1c-1.3,0-2.4,0-3.7,0c0-1.2,0-2.5,0-3.8c1.2,0,2.4,0,3.7,0C27,24.5,27,25.8,27,27.1z"/>
		<path class="st0" d="M52.3,46.5c0,4.3-3.5,7.7-7.8,7.7c-4.2,0-7.7-3.5-7.7-7.7c0-4.3,3.5-7.8,7.8-7.7
			C48.8,38.7,52.3,42.2,52.3,46.5z M48.4,46.5c0-2.1-1.8-3.9-3.9-3.9c-2.1,0-3.8,1.8-3.8,3.9c0,2.1,1.7,3.8,3.8,3.9
			C46.6,50.4,48.4,48.6,48.4,46.5z"/>
	</g>
</g>
</svg>
