<?xml version="1.0" encoding="utf-8"?>
<!-- Generator: Adobe Illustrator 23.0.3, SVG Export Plug-In . SVG Version: 6.00 Build 0)  -->
<svg version="1.1" id="Layer_1" xmlns="http://www.w3.org/2000/svg" xmlns:xlink="http://www.w3.org/1999/xlink" x="0px" y="0px"
	 viewBox="0 0 120 120" style="enable-background:new 0 0 120 120;" xml:space="preserve">
<style type="text/css">
	.st0{fill:#163344;}
</style>
<g>
	<g>
		<path class="st0" d="M34.9,120c-5.3,0-10.4,0-15.5,0c0-7.7,0-15.4,0-23.1c-1.3,0-2.5,0-3.8,0c0-1.3,0-2.5,0-3.9c1.2,0,2.4,0,3.7,0
			c0-1.4,0-2.6,0-3.9c-1.2,0-2.4,0-3.7,0c0-1.3,0-2.5,0-3.9c1.2,0,2.4,0,3.8,0c0-1.6,0.1-3,0-4.5c0-0.3-0.5-0.7-0.9-0.9
			c-6.6-2.3-11.6-6.5-15.1-12.6C-3.1,55.8,0,40.7,10.6,32.8c9.3-7,21.3-7.7,30.9-1.5c8,5.1,12.2,12.5,12.7,22c0,0.3,0,0.5,0,1.1
			c4-2.8,7.9-5.5,11.7-8.1c3.9-2.7,7.7-5.4,11.7-8.1c1.9,1.9,3.7,3.8,5.7,5.8c9.3-6.9,18.5-13.6,27.8-20.4c0.8,1,1.5,2,2.3,3.1
			c-0.6,0.4-1.1,0.8-1.6,1.2c-3.3,2.5-6.7,4.9-10.1,7.4c-0.8,0.6-1.2,1.2-1.1,2.2c0.1,2.3,0,4.7,0,7c-1.3,0-2.5,0-3.8,0
			c0-1.7,0-3.5,0-5.6c-1.4,1-2.5,1.8-3.7,2.7c-0.2,0.1-0.3,0.5-0.3,0.7c0,5.4,0,10.9,0,16.3c0,0.1,0.1,0.1,0.2,0.3
			c1.1-0.8,2.3-1.5,3.3-2.4c0.3-0.2,0.4-0.8,0.4-1.2c0-2.3,0-4.6,0-7c1.3,0,2.5,0,3.8,0c0,1.6,0,3.3,0,5.1c0.5-0.3,0.8-0.4,1-0.6
			c2-1.4,4.1-2.9,6.1-4.3c0.5-0.4,0.8-0.7,0.7-1.4c-0.4-2.6,1.2-5.2,3.7-6.1c2.5-0.9,5.2-0.1,6.8,2c1.5,2.1,1.4,5-0.2,7.1
			c-1.7,2-4.5,2.7-6.9,1.5c-0.8-0.4-1.3-0.3-1.9,0.2c-9.2,6.6-18.5,13.1-27.7,19.6c-0.3,0.2-0.7,0.4-1.1,0.7
			c-1.9-1.9-3.8-3.9-5.7-5.8c-1.4,1-2.6,1.9-3.8,2.7c-5.6,4-11.1,8-16.7,11.9c-0.6,0.4-0.7,0.7-0.6,1.5c0.4,2.6-1.1,5.1-3.6,6.1
			c-2.5,1-5.2,0.2-6.8-1.9c-1.6-2.1-1.5-5,0.1-7.1c1.7-2.1,4.5-2.8,6.8-1.7c0.9,0.4,1.4,0.3,2.1-0.2c1.5-1.1,3.1-2.2,4.6-3.3
			c0.3-0.2,0.6-0.7,0.6-1c0-5.6,0-11.1,0-17c-1.5,1-2.9,1.9-4.2,2.9c-0.2,0.2-0.3,0.5-0.4,0.8C51,70,45,76.5,35.5,79.9
			c-0.2,0.1-0.4,0.2-0.7,0.3c0,1.6,0,3.2,0,4.9c1.2,0,2.4,0,3.7,0c0,1.3,0,2.5,0,3.9c-1.2,0-2.4,0-3.7,0c0,1.3,0,2.5,0,3.9
			c1.2,0,2.4,0,3.7,0c0,1.4,0,2.6,0,3.9c-1.2,0-2.4,0-3.7,0C34.9,104.6,34.9,112.2,34.9,120z M3.9,54.1c0,12.9,10.5,23.3,23.3,23.3
			c12.8,0,23.2-10.5,23.2-23.3C50.3,41.3,39.8,30.9,27,31C14.4,31,3.9,41.5,3.9,54.1z M73.5,45.7c-1.1,0.8-2.1,1.5-3,2.1
			c-0.6,0.4-0.8,0.8-0.8,1.6c0,5.1,0,10.2,0,15.2c0,0.3,0.1,0.6,0.1,1c1-0.7,1.9-1.4,2.8-2c0.8-0.5,1-1.1,1-2c-0.1-2.4,0-4.9,0-7.4
			c1.4,0,2.6,0,3.9,0c0,2.7,0,5.2,0,7.8c0,0.4-0.1,0.8,0.1,1c1.1,1.2,2.4,2.4,3.7,3.8c0-6.6,0-12.9,0-19.1c0-0.3-0.1-0.6-0.2-0.8
			c-1.1-1.2-2.3-2.3-3.4-3.5c-0.1,0-0.2,0.1-0.3,0.1c0,2.2,0,4.4,0,6.5c-1.3,0-2.5,0-3.8,0C73.5,48.8,73.5,47.3,73.5,45.7z
			 M30.9,116.1c0-6.5,0-12.9,0-19.2c-2.6,0-5.1,0-7.6,0c0,6.5,0,12.8,0,19.2C25.8,116.1,28.3,116.1,30.9,116.1z M61.9,71.2
			c1.1-0.8,2-1.5,3-2.1c0.7-0.4,0.9-0.9,0.9-1.7c0-5,0-10,0-15c0-0.4,0-0.7-0.1-1.3c-1.1,0.8-2.1,1.4-3,2.1
			c-0.4,0.3-0.8,0.9-0.8,1.4c-0.1,4.4,0,8.9,0,13.3C61.9,68.9,61.9,69.9,61.9,71.2z M89,44.6c-1.1,0.8-2.1,1.6-3,2.2
			c-0.6,0.4-0.9,0.9-0.9,1.7c0,5,0,9.9,0,14.9c0,0.3,0,0.7,0.1,1.2c1.2-0.9,2.3-1.6,3.4-2.4c0.2-0.2,0.4-0.6,0.4-0.9
			C89,55.8,89,50.3,89,44.6z M23.3,85.1c2.5,0,5,0,7.6,0c0-1.3,0-2.6,0-3.9c-2.6,0-5.1,0-7.6,0C23.3,82.4,23.3,83.7,23.3,85.1z
			 M23.3,89.1c0,1.4,0,2.6,0,3.8c2.6,0,5.1,0,7.6,0c0-1.3,0-2.5,0-3.8C28.3,89.1,25.9,89.1,23.3,89.1z M114.3,44.5
			c-1,0-1.9,0.8-2,1.8c0,1,0.8,2,1.8,2c1.1,0.1,2-0.8,2-1.9C116.1,45.4,115.3,44.5,114.3,44.5z M48.4,85.2c1,0,1.9-0.9,1.9-1.9
			c0-1-0.8-1.9-1.9-2c-1.1,0-2,0.9-2,2C46.5,84.3,47.4,85.2,48.4,85.2z"/>
		<path class="st0" d="M48.4,94.9c4,0,7.7,0,11.6,0c0,5.1,0,10.2,0,15.4c1.4,0,2.6,0,3.9,0c0-3.9,0-7.7,0-11.5c0-3.8,0-7.7,0-11.6
			c3.9,0,7.7,0,11.6,0c0,7.7,0,15.4,0,23.1c1.3,0,2.5,0,3.8,0c0-10.3,0-20.5,0-30.9c3.9,0,7.7,0,11.6,0c0,10.3,0,20.5,0,30.8
			c1.3,0,2.5,0,3.9,0c0-12.8,0-25.7,0-38.6c3.9,0,7.7,0,11.6,0c0,12.8,0,25.7,0,38.6c1.6,0,3.2,0,4.9,0c-0.8-0.8-1.5-1.6-2.3-2.4
			c0.9-0.9,1.8-1.7,2.7-2.6c2.3,2.3,4.6,4.7,6.8,6.9c-2.2,2.2-4.6,4.6-7,7c-0.7-0.7-1.5-1.6-2.5-2.7c0.7-0.6,1.5-1.2,2.4-1.8
			c-0.1-0.1-0.1-0.2-0.2-0.4c-24.1,0-48.2,0-72.4,0c0-1.3,0-2.5,0-3.9c3.1,0,6.3,0,9.6,0C48.4,105.2,48.4,100.1,48.4,94.9z
			 M102.5,110.3c0-11.6,0-23.2,0-34.7c-1.3,0-2.5,0-3.7,0c0,11.6,0,23.1,0,34.7C100,110.3,101.2,110.3,102.5,110.3z M87,110.3
			c0-9.1,0-18,0-27c-1.3,0-2.5,0-3.7,0c0,9,0,18,0,27C84.6,110.3,85.8,110.3,87,110.3z M67.8,91.1c0,6.5,0,12.9,0,19.2
			c1.3,0,2.5,0,3.8,0c0-3.3,0-6.5,0-9.6c0-3.2,0-6.3,0-9.6C70.3,91.1,69.1,91.1,67.8,91.1z M52.3,98.8c0,3.9,0,7.7,0,11.5
			c1.3,0,2.5,0,3.7,0c0-3.9,0-7.6,0-11.5C54.8,98.8,53.6,98.8,52.3,98.8z"/>
		<path class="st0" d="M63.3,34.8c-2.2,0-4.4,0-6.7,0c0-2.1-1.5-2.8-3.2-3.5c-1-0.4-1.7-0.2-2.4,0.3c-0.7,0.4-1.1,0.3-1.7-0.2
			c-1.1-1.2-2.2-2.3-3.3-3.3c-0.5-0.5-0.6-0.9-0.3-1.6c0.3-0.5,0.7-1.2,0.6-1.6c-0.3-1.1-0.8-2.2-1.4-3.2c-0.3-0.4-1.1-0.4-1.6-0.7
			c-0.3-0.2-0.7-0.5-0.8-0.8c-0.1-2,0-4,0-6c0.1-0.1,0.2-0.2,0.3-0.2c2.4-0.2,2.8-2.2,3.4-3.9c0.2-0.4-0.2-1.1-0.4-1.5
			c-0.6-0.8-0.4-1.4,0.3-2.1c1.1-1,2.2-2.2,3.3-3.2c0.3-0.2,1-0.4,1.2-0.2c1.2,0.9,2.3,0.4,3.6,0c1.4-0.5,2-1.3,2.2-2.6
			c0-0.2,0.1-0.3,0.2-0.5c2.2,0,4.3,0,6.5,0c0.1,0.1,0.2,0.2,0.2,0.3c0.2,2.5,2.3,2.7,3.9,3.4c0.4,0.2,1.1-0.2,1.6-0.5
			c0.7-0.4,1.2-0.4,1.8,0.3c1.1,1.2,2.3,2.3,3.4,3.5c0.2,0.3,0.4,0.9,0.2,1.2c-0.8,1.2-0.5,2.2,0,3.5c0.5,1.3,1.2,2.1,2.6,2.3
			c0.2,0,0.4,0.2,0.6,0.3c0,2,0,4,0,6c0,0.3-0.5,0.7-0.9,0.9c-0.5,0.3-1.3,0.3-1.6,0.7c-0.6,1-1,2.1-1.3,3.2
			c-0.1,0.5,0.4,1.1,0.7,1.6c0.3,0.6,0.2,0.9-0.2,1.4c-1.2,1.1-2.3,2.4-3.5,3.5c-0.3,0.3-1,0.4-1.3,0.2c-1.2-0.8-2.2-0.5-3.5,0
			c-1.3,0.5-2.1,1.1-2.2,2.4C63.5,34.4,63.4,34.6,63.3,34.8z M74,17.4c-0.6-0.4-0.9-0.7-1.2-0.7c-0.9-0.2-1.2-0.8-1.5-1.6
			c-0.4-1.3-0.9-2.7-1.6-3.9c-0.4-0.8-0.7-1.4-0.2-2.2c0.2-0.3,0-0.8,0-1.1c-0.4,0-0.9-0.1-1.2,0.1c-0.8,0.5-1.3,0.3-2.1-0.1
			c-1.2-0.7-2.5-1.3-3.9-1.6c-0.9-0.2-1.5-0.6-1.7-1.5c-0.1-0.3-0.5-0.7-0.8-0.7c-0.3,0-0.7,0.4-0.7,0.7c-0.2,1-0.8,1.3-1.7,1.5
			c-1.3,0.4-2.6,1-3.9,1.6c-0.8,0.4-1.3,0.6-2.1,0.1c-0.3-0.2-0.8,0-1.1,0c0,0.4-0.1,0.9,0,1.1c0.5,0.8,0.3,1.3-0.1,2.1
			c-0.7,1.3-1.2,2.6-1.7,4c-0.2,0.8-0.5,1.4-1.4,1.6c-0.3,0.1-0.6,0.5-0.8,0.8c0.3,0.3,0.5,0.7,0.8,0.8c0.9,0.2,1.1,0.8,1.4,1.6
			c0.4,1.4,1,2.7,1.7,4c0.4,0.7,0.6,1.3,0.1,2.1c-0.2,0.3,0,0.8,0,1.1c0.4,0,0.9,0.1,1.1,0c0.8-0.5,1.3-0.3,2.1,0.1
			c1.3,0.7,2.7,1.3,4.1,1.7c0.8,0.2,1.3,0.5,1.5,1.3c0.1,0.3,0.5,0.6,0.8,0.9c0.3-0.3,0.7-0.6,0.8-0.9c0.2-0.8,0.6-1,1.4-1.3
			c1.4-0.4,2.8-1,4.1-1.7c0.8-0.4,1.4-0.6,2.2-0.1c0.3,0.2,0.9,0.2,1,0c0.2-0.3,0.2-0.8,0.1-1.1c-0.5-0.8-0.3-1.4,0.1-2.2
			c0.7-1.2,1.2-2.5,1.6-3.9c0.2-0.9,0.5-1.4,1.4-1.7C73.1,18.1,73.4,17.8,74,17.4z"/>
		<path class="st0" d="M23.2,19.3c-1.3,0-2.5,0-3.7,0c0-1.2,0-2.5,0-3.8c1.2,0,2.4,0,3.7,0C23.2,16.8,23.2,17.9,23.2,19.3z"/>
		<path class="st0" d="M30.9,19.3c-1.3,0-2.4,0-3.7,0c0-1.2,0-2.5,0-3.8c1.2,0,2.4,0,3.7,0C30.9,16.8,30.9,18,30.9,19.3z"/>
		<path class="st0" d="M34.9,15.5c1.3,0,2.5,0,3.7,0c0,1.2,0,2.5,0,3.8c-1.2,0-2.4,0-3.7,0C34.9,18,34.9,16.8,34.9,15.5z"/>
		<path class="st0" d="M85.1,15.5c0,1.3,0,2.5,0,3.7c-1.3,0-2.5,0-3.8,0c0-1.2,0-2.4,0-3.7C82.6,15.5,83.8,15.5,85.1,15.5z"/>
		<path class="st0" d="M92.8,19.3c-1.3,0-2.5,0-3.7,0c0-1.2,0-2.4,0-3.7c1.2,0,2.4,0,3.7,0C92.8,16.7,92.8,18,92.8,19.3z"/>
		<path class="st0" d="M96.8,15.5c1.2,0,2.4,0,3.7,0c0,1.2,0,2.4,0,3.7c-1.2,0-2.4,0-3.7,0C96.8,18,96.8,16.8,96.8,15.5z"/>
		<path class="st0" d="M13,41c0.9,0.9,1.8,1.7,2.8,2.6c-3.1,3.6-4.6,7.7-4.1,12.4c0.4,3.8,2.1,7.1,5,9.7c5.1,4.7,13.9,6.1,21-0.1
			c0.4,0.5,0.9,0.9,1.3,1.4c0.4,0.4,0.8,0.9,1.2,1.3c-5.9,6.1-17.7,7.9-26.1,0.3C6.1,61.2,5.6,48.5,13,41z"/>
		<path class="st0" d="M40,62.9c4.3-6.9,3-14.6-1.8-19.5c-4.2-4.3-11.8-6.9-19.8-2.1c-0.7-1-1.4-2-2.1-3c6.4-4.7,17-4.9,24.3,2.1
			c6.6,6.4,7.8,17.6,2.5,24.7C42.1,64.3,41,63.6,40,62.9z"/>
		<path class="st0" d="M67.7,17.5c0,4.3-3.6,7.7-7.9,7.7c-4.3,0-7.7-3.6-7.6-7.9c0-4.2,3.6-7.6,7.8-7.6
			C64.3,9.7,67.8,13.2,67.7,17.5z M56.1,17.3c0,2.1,1.6,3.9,3.7,3.9c2.1,0.1,4-1.7,4-3.8c0-2.1-1.7-3.9-3.7-3.9
			C58,13.5,56.2,15.2,56.1,17.3z"/>
	</g>
</g>
</svg>
