<?xml version="1.0" encoding="utf-8"?>
<!-- Generator: Adobe Illustrator 23.0.3, SVG Export Plug-In . SVG Version: 6.00 Build 0)  -->
<svg version="1.1" id="Layer_1" xmlns="http://www.w3.org/2000/svg" xmlns:xlink="http://www.w3.org/1999/xlink" x="0px" y="0px"
	 viewBox="0 0 120 120" style="enable-background:new 0 0 120 120;" xml:space="preserve">
<style type="text/css">
	.st0{fill:#163344;}
</style>
<g>
	<g>
		<path class="st0" d="M0.1,73.7c1.3,0,2.5,0,3.8,0c0,7.1,0,14.2,0,21.2c0,7.1,0,14.1,0,21.3c1.3,0,2.5,0,3.8,0
			c0-10.2,0-20.5,0-30.8c3.9,0,7.7,0,11.6,0c0,10.2,0,20.5,0,30.8c1.4,0,2.6,0,3.9,0c0-7.7,0-15.3,0-23.1c3.9,0,7.7,0,11.6,0
			c0,7.6,0,15.3,0,23.1c1.3,0,2.5,0,3.8,0c0-5.1,0-10.2,0-15.3c3.9,0,7.7,0,11.6,0c0,5.1,0,10.2,0,15.3c1.3,0,2.5,0,3.9,0
			c0-2.5,0-5,0-7.6c3.9,0,7.7,0,11.6,0c0,2.5,0,5,0,7.7c1.4,0,2.6,0,3.9,0c0,1.3,0,2.5,0,3.8c-23.2,0-46.3,0-69.6,0
			C0.1,104.6,0.1,89.2,0.1,73.7z M15.4,116.2c0-9.1,0-18,0-27c-1.3,0-2.5,0-3.7,0c0,9,0,18,0,27C12.9,116.2,14.1,116.2,15.4,116.2z
			 M30.9,116.2c0-6.5,0-12.9,0-19.3c-1.3,0-2.5,0-3.7,0c0,6.4,0,12.8,0,19.3C28.4,116.2,29.6,116.2,30.9,116.2z M42.7,104.6
			c0,3.9,0,7.7,0,11.5c1.3,0,2.5,0,3.7,0c0-3.9,0-7.7,0-11.5C45.1,104.6,44,104.6,42.7,104.6z M61.9,112.4c-1.3,0-2.5,0-3.8,0
			c0,1.3,0,2.5,0,3.7c1.3,0,2.5,0,3.8,0C61.9,114.9,61.9,113.7,61.9,112.4z"/>
		<path class="st0" d="M81,48.2c1.2,0.2,2.4,0.4,3.6,0.5C82.3,68,64.5,85.9,41,85.2C18.5,84.5,0.2,65.6,0,42.9
			C-0.2,20.1,18.1,0.9,40.6,0c23.6-0.9,41.6,16.9,44,36.5c-1.2,0.2-2.4,0.4-3.7,0.5C78.9,25.3,73,16.1,63,9.8
			C55.2,4.9,46.7,3,37.5,4.2C18.3,6.8,3.8,23.3,3.9,42.9C4,62.2,18.4,78.5,37.8,81C59.1,83.8,78.3,68.2,81,48.2z"/>
		<path class="st0" d="M119.8,29.1c-1.2,1.8-2.3,3.5-3.4,5.1c-1.7,2.5-3.3,5-5.1,7.5c-0.5,0.7-0.5,1.1,0,1.8
			c2.6,3.8,5.1,7.6,7.7,11.5c0.2,0.3,0.4,0.7,0.7,1.1c-0.5,0-0.8,0.1-1.1,0.1c-7.3,0-14.5,0-21.8,0c-0.9,0-1.3-0.3-1.7-1.1
			c-1.6-3.2-3.2-6.4-4.8-9.6c-0.3-0.6-0.6-0.9-1.3-0.9c-14,0-27.9,0-41.9,0c-0.2,0-0.3,0-0.6,0.1c0,3.7,0,7.3,0,11.2
			c-7.1-4.4-14-8.8-21.1-13.2c7.1-4.4,14-8.7,21-13.1c0,3.8,0,7.4,0,11.1c0.5,0,0.9,0.1,1.3,0.1c13.7,0,27.4,0,41,0
			c0.9,0,1.3-0.3,1.6-1c1.6-3.3,3.2-6.5,4.9-9.7c0.2-0.4,0.7-0.8,1.1-0.8C104.1,29,111.8,29.1,119.8,29.1z M112.6,32.9
			c-4.8,0-9.4,0-13.9,0c-0.3,0-0.7,0.2-0.8,0.4c-1.2,2.4-2.4,4.8-3.7,7.4c4.4,0,8.6,0,12.8,0c0.2,0,0.5-0.2,0.7-0.4
			C109.3,37.9,110.8,35.5,112.6,32.9z M94.2,44.6c1.2,2.4,2.3,4.6,3.4,6.8c0.3,0.7,0.7,0.9,1.5,0.9c4.2,0,8.4,0,12.6,0
			c0.3,0,0.5,0,0.9-0.1c-1-1.5-1.9-2.9-2.8-4.3c-0.8-1.1-1.3-2.7-2.4-3.3c-1.1-0.6-2.7-0.2-4-0.2C100.3,44.5,97.3,44.6,94.2,44.6z
			 M42.5,36.5c-3.3,2.1-6.5,4.1-9.8,6.1c3.4,2.1,6.6,4.1,9.8,6.1C42.5,44.6,42.5,40.6,42.5,36.5z"/>
		<path class="st0" d="M71.2,48.1c1.2,0.2,2.3,0.4,3.5,0.6c-0.9,9.9-10.8,24.3-27.8,26.5c-18.5,2.4-34.7-10.8-37-28.5
			c-2.4-18.6,11.3-35.6,30.4-37c18.6-1.3,32.3,12.8,34.5,26.7c-1.2,0.2-2.4,0.5-3.6,0.7c-2-8.7-6.6-15.4-14.3-19.8
			c-6.2-3.6-12.9-4.6-20-3.3C23,16.9,13.2,29.3,13.6,43.7c0.3,13.8,11.1,25.7,24.9,27.7C52.5,73.5,67.7,64.6,71.2,48.1z"/>
		<path class="st0" d="M64.9,36.3c-1.1,0.3-2.3,0.7-3.6,1c-2.1-6.3-6.2-10.8-12.4-13c-4-1.4-8.2-1.4-12.2-0.1
			C28.2,27,22.8,35,23.3,43.8c0.5,8.6,6.9,15.9,15.5,17.7c5,1,9.6,0.2,13.9-2.5c4.3-2.6,7.1-6.4,8.6-11.2c1.3,0.4,2.5,0.7,3.6,1.1
			C62.2,59.1,52,66.9,40.4,65.7c-12.4-1.2-21.3-11.9-21-23.8c0.3-11.6,9.4-21.4,21.3-22.5C52.7,18.4,62.5,26.8,64.9,36.3z"/>
		<path class="st0" d="M83.3,81.3c0-1.3,0-2.5,0-3.7c12.2,0,24.4,0,36.6,0c0,1.2,0,2.4,0,3.7C107.8,81.3,95.6,81.3,83.3,81.3z"/>
		<path class="st0" d="M120,89.1c-12.3,0-24.4,0-36.6,0c0-1.2,0-2.5,0-3.8c12.2,0,24.4,0,36.6,0C120,86.5,120,87.8,120,89.1z"/>
		<path class="st0" d="M83.3,96.8c0-1.3,0-2.5,0-3.7c12.2,0,24.4,0,36.6,0c0,1.2,0,2.4,0,3.7C107.8,96.8,95.6,96.8,83.3,96.8z"/>
		<path class="st0" d="M83.3,104.5c0-1.3,0-2.5,0-3.7c12.2,0,24.4,0,36.6,0c0,1.2,0,2.4,0,3.7C107.8,104.5,95.6,104.5,83.3,104.5z"
			/>
		<path class="st0" d="M75.6,81.3c0-1.3,0-2.5,0-3.7c1.2,0,2.4,0,3.7,0c0,1.2,0,2.4,0,3.7C78.1,81.3,76.9,81.3,75.6,81.3z"/>
		<path class="st0" d="M75.6,85.3c1.3,0,2.4,0,3.7,0c0,1.2,0,2.5,0,3.7c-1.2,0-2.4,0-3.7,0C75.6,87.8,75.6,86.6,75.6,85.3z"/>
		<path class="st0" d="M79.3,96.8c-1.3,0-2.4,0-3.7,0c0-1.3,0-2.5,0-3.8c1.2,0,2.4,0,3.7,0C79.3,94.2,79.3,95.5,79.3,96.8z"/>
		<path class="st0" d="M79.3,104.5c-1.3,0-2.4,0-3.7,0c0-1.3,0-2.5,0-3.8c1.2,0,2.4,0,3.7,0C79.3,102,79.3,103.2,79.3,104.5z"/>
	</g>
</g>
</svg>
