<?xml version="1.0" encoding="utf-8"?>
<!-- Generator: Adobe Illustrator 23.0.3, SVG Export Plug-In . SVG Version: 6.00 Build 0)  -->
<svg version="1.1" id="Layer_1" xmlns="http://www.w3.org/2000/svg" xmlns:xlink="http://www.w3.org/1999/xlink" x="0px" y="0px"
	 viewBox="0 0 193 184" style="enable-background:new 0 0 193 184;" xml:space="preserve">
<style type="text/css">
	.st0{fill:#ECECEC;}
	.st1{opacity:0.3;}
	.st2{fill:#576672;}
	.st3{fill:#192E2D;}
	.st4{fill:#FFFFFF;}
	.st5{opacity:0.2;}
	.st6{fill:#4C5D6C;}
	.st7{fill:#265972;}
	.st8{fill:#E1EFFA;}
	.st9{fill:#45525B;}
	.st10{fill:#163344;}
	.st11{fill:#498FAA;}
	.st12{fill:#F8852B;}
	.st13{fill:#A3B1B2;}
	.st14{fill:#FCA330;}
	.st15{fill:none;}
	.st16{fill:#FCBB51;}
	.st17{fill:#FFD55C;}
</style>
<g>
	<g>
		<g>
			<g>
				<g>
					<g>
						<g>
							<path class="st0" d="M109.2,174.6c-4.6,0-3.8-4.7-3.8-4.7v-6.1V146L85,146.1L60.9,146v17.9v6.1c0,0,0.8,4.7-3.8,4.7H46.6v3.2
								h37.8h1.2h34v-3.2H109.2z"/>
						</g>
					</g>
				</g>
				<g class="st1">
					<g>
						<path class="st2" d="M108,174.5L108,174.5c-3.3-0.7-2.7-4.6-2.7-4.6v-6.1V146L85,146.1L69.2,146c-0.3,0.1-0.5,0.2-0.8,0.3
							l-7.5,4.6v7.5l16.3,16.2C77.3,174.5,100.9,174.5,108,174.5z"/>
					</g>
				</g>
			</g>
			<g>
				<g>
					<path class="st3" d="M161.6,47.9H4.7C2.1,47.9,0,50,0,52.6v102.2c0,2.6,2.1,4.7,4.7,4.7h156.9c2.6,0,4.7-2.1,4.7-4.7V52.6
						C166.3,50,164.2,47.9,161.6,47.9z M158.8,152H7.5V55.4h151.2V152z"/>
				</g>
			</g>
		</g>
		<g>
			<g>
				<g>
					<g>
						<g>
							<g>
								<rect x="7.5" y="55.5" class="st4" width="151.4" height="96.4"/>
							</g>
						</g>
					</g>
				</g>
			</g>
			<g class="st5">
				<g>
					<g>
						<polygon class="st6" points="158.9,151.8 158.9,55.4 148.6,55.4 34.9,121.7 14.4,116.7 7.5,123.6 7.5,151.8 						"/>
					</g>
				</g>
			</g>
			<g>
				<g>
					<g>
						<g>
							<g>
								<g>
									<path class="st7" d="M165.9,68.4C165.9,68.4,165.9,68.4,165.9,68.4c0.2-0.3,0.3-0.5,0.4-0.8c0,0,0-0.1,0.1-0.1
										c0.1-0.2,0.2-0.5,0.3-0.7c0-0.1,0-0.1,0.1-0.2c0.1-0.2,0.2-0.5,0.3-0.7c0-0.1,0-0.1,0.1-0.2c0.1-0.2,0.2-0.5,0.3-0.7
										c0-0.1,0-0.1,0.1-0.2c0.1-0.2,0.1-0.5,0.2-0.7c0-0.1,0-0.1,0.1-0.2c0.1-0.2,0.1-0.5,0.2-0.7c0-0.1,0-0.1,0-0.2
										c0.1-0.2,0.1-0.5,0.2-0.7c0,0,0-0.1,0-0.1c0.2-0.8,0.3-1.7,0.3-2.5c0,0,0-0.1,0-0.1c0-0.2,0-0.4,0-0.6c0-0.1,0-0.3,0-0.4
										c0-0.2,0-0.4,0-0.5c0-0.1,0-0.3,0-0.4c0-0.2,0-0.3,0-0.5c0-0.2,0-0.3,0-0.5c0-0.2,0-0.3,0-0.5c0-0.2,0-0.3,0-0.5
										c0-0.2,0-0.3-0.1-0.5c0-0.2-0.1-0.3-0.1-0.5c0-0.1-0.1-0.3-0.1-0.4c0-0.2-0.1-0.3-0.1-0.5c0-0.1-0.1-0.3-0.1-0.4
										c0-0.2-0.1-0.4-0.1-0.5c0-0.1-0.1-0.3-0.1-0.4c-0.1-0.2-0.1-0.4-0.2-0.5c0-0.1-0.1-0.3-0.1-0.4c-0.1-0.2-0.1-0.4-0.2-0.6
										c0-0.1-0.1-0.2-0.1-0.4c-0.1-0.2-0.2-0.4-0.3-0.6c0-0.1-0.1-0.2-0.1-0.3c-0.1-0.3-0.3-0.6-0.4-0.9c-0.2-0.3-0.4-0.7-0.6-1
										c-0.1-0.1-0.1-0.2-0.2-0.3c-0.1-0.2-0.3-0.4-0.4-0.6c-0.1-0.1-0.2-0.2-0.2-0.3c-0.1-0.2-0.3-0.4-0.4-0.6
										c-0.1-0.1-0.2-0.2-0.3-0.3c-0.2-0.2-0.3-0.4-0.5-0.6c-0.1-0.1-0.2-0.2-0.2-0.3c-0.2-0.2-0.4-0.4-0.5-0.6
										c-0.1-0.1-0.1-0.1-0.2-0.2c-0.2-0.2-0.4-0.4-0.7-0.7c0,0-0.1-0.1-0.1-0.1c-0.6-0.5-1.1-1-1.7-1.4c0,0,0,0,0,0l0,0
										c-6.1-4.5-14.5-5.4-21.7-1.6l-35.2,18.6l9.7,18.3l9.5,18l35.2-18.6c0.8-0.4,1.5-0.9,2.2-1.3l0,0c0,0,0,0,0,0
										C162.4,73.4,164.4,71.1,165.9,68.4z"/>
								</g>
							</g>
						</g>
					</g>
					<g>
						<g>
							<g>
								<g>
									<g>
										<path class="st0" d="M164.6,27.1l-2-1.1l5.5-9.8l2,1.1L164.6,27.1z"/>
									</g>
								</g>
							</g>
						</g>
					</g>
					<g>
						<g>
							<g>
								<g>
									<g>
										<path class="st0" d="M181.8,61.6l-0.1-2.2l11.2-0.6L193,61L181.8,61.6z"/>
									</g>
								</g>
							</g>
						</g>
					</g>
					<g>
						<g>
							<g>
								<g>
									<g>
										<path class="st0" d="M180.8,40.4l-1-2l10.1-5l1,2L180.8,40.4z"/>
									</g>
								</g>
							</g>
						</g>
					</g>
					<g>
						<g>
							<g>
								<g>
									<path class="st8" d="M69.5,67.2c0,0,0.9,1.6,4.1,0l0.7,1.2l-4,4L69.5,67.2z"/>
								</g>
							</g>
						</g>
					</g>
					<g>
						<g>
							<g>
								<g>
									<g>
										<g>
											<polygon class="st7" points="85.7,127 93.1,142.1 101.1,135 											"/>
										</g>
									</g>
								</g>
							</g>
						</g>
						<g>
							<g>
								<g>
									<g>
										<path class="st2" d="M75.8,152h26.2l-3.4-5.3l0,0l-15.7-25.6c-1.6-2.3-4.7-2.8-6.9-1.2l-10.4,7.3
											c-2.2,1.6-2.8,4.7-1.2,6.9L75.8,152z"/>
									</g>
								</g>
							</g>
						</g>
						<g>
							<g>
								<g>
									<g>
										<path class="st9" d="M82.8,121.1c-1.6-2.3-4.7-2.8-6.9-1.2l-10.4,7.3c-2.2,1.6-2.8,4.7-1.2,6.9l7.4,11.5l19.8-10.4
											L82.8,121.1z"/>
									</g>
								</g>
							</g>
						</g>
						<g>
							<g>
								<g>
									<g>
										<path class="st8" d="M121.1,3c0,0-5.9,22.7-20.4,39.3C81.3,64.7,70.9,68.6,70.9,68.6L35.8,118l0.8-0.1l-0.5,0.6l59.2-0.9
											l1.6,1.6c0,0,0.2-1.9,2.5-2.9c4.6-1.8,15.6-5.1,36.4-7.5c21.9-2.5,43.3,4.3,43.3,4.3l-29-55L121.1,3z"/>
									</g>
								</g>
							</g>
						</g>
						<g>
							<g>
								<g>
									<g>
										<g>
											<path class="st7" d="M83.4,93.5L69.5,67.2l-32.2,17c-7.8,4.1-13,11.2-14.9,19.2l19,34.7c7.4,2.5,15.8,2.1,23.2-1.8
												l32.2-17L83.4,93.5z"/>
										</g>
									</g>
								</g>
							</g>
						</g>
						<g>
							<g>
								<g>
									<g>
										<g>
											<path class="st10" d="M60.4,126.4l-0.7,0.4c-6,3.2-17.8,9.5-27.1,6.4c0,0,1.4-0.1,0.1,0.1c8.8,7,21.3,8.6,31.9,3l0.7-0.4
												l0,0l20-10.5v0l11.5-6.1l0,0l-4.9-9.5L60.4,126.4z"/>
										</g>
									</g>
								</g>
							</g>
						</g>
						<g>
							<g>
								<g>
									<g>
										<path class="st4" d="M82,76.4c-1.7,0.4-3.5-0.3-4.5-1.8c-1.3-1.9-0.7-4.6,1.2-5.8c3.5-2.3,12.8-8.3,24-22.1
											c11-13.5,14.9-23.7,15-23.8c1.4-3.8,5.3-14.6,5.9-18.7c0.4-2.3,2.5-3.9,4.8-3.5c2.3,0.4,3.9,2.5,3.5,4.8
											c-0.9,5.7-5.8,18.8-6.4,20.3c-0.2,0.5-4.3,11.4-16.3,26.2c-10.8,13.3-20,20-26,23.8C82.9,76.1,82.4,76.3,82,76.4z"/>
									</g>
								</g>
							</g>
						</g>
						<g>
							<g>
								<g>
									<g>
										<path class="st6" d="M123.3,2L121,3.1l58,110.1l2.1-1.3c2.8-1.5,6.7-8,5.2-10.9L133.9,1.5C132.4-1.4,126.1,0.5,123.3,2z"
											/>
									</g>
								</g>
							</g>
						</g>
						<g>
							<g>
								<g>
									<g>
										<polygon class="st6" points="43.2,138.5 23,101.5 14.4,116.7 16.2,120 19.9,118 22.3,122.4 18.6,124.4 19.8,126.6 
											23.4,124.7 25.8,129.1 22.2,131 23.4,133.2 26.8,131.4 29.2,135.8 25.8,137.7 27.4,140.6 										"/>
									</g>
								</g>
							</g>
						</g>
						<g>
							<g>
								<g>
									<path class="st11" d="M64.2,78.3c-0.8-1.7-2.9-2.3-4.6-1.5c-0.1,0-7,3.5-18.4,9.6c-6.8,3.7-10.5,8.7-12.2,13.8
										c-0.3,0.9-0.6,1.8-0.8,2.7c0,0,0,0,0,0c0.2,2,2.1,3.5,4.1,3.3c1-0.1,1.9-0.7,2.5-1.5c0.2-0.9,0.4-1.8,0.7-2.6
										c1.3-3.5,3.9-7.1,8.9-9.9c11.3-6.1,18.1-9.5,18.1-9.5C64.3,82,65,80,64.2,78.3z"/>
								</g>
							</g>
						</g>
					</g>
				</g>
			</g>
			<g>
				<g>
					<g>
						<g>
							<path class="st6" d="M46.9,37.8l-1.3-1.3c0.9-0.9,1.4-1.4,1.4-1.4l1.2,1.3C48.2,36.5,47.7,37,46.9,37.8z"/>
						</g>
					</g>
				</g>
				<g>
					<g>
						<g>
							<path class="st6" d="M18.6,100.9c-0.5-1.3-0.9-2.6-1.3-3.9l1.8-0.5c0.3,1.2,0.7,2.4,1.2,3.7L18.6,100.9z M16.6,93
								c-0.1-0.7-0.1-1.4-0.1-2.1c0-0.7,0-1.4,0.1-2.1l1.8,0.2c-0.1,0.6-0.1,1.3-0.1,1.9c0,0.6,0,1.2,0.1,1.9L16.6,93z M19.3,85.4
								l-1.7-0.6c0.5-1.3,1.1-2.5,1.9-3.7l1.5,1C20.3,83.2,19.7,84.3,19.3,85.4z M23.5,79.3l-1.3-1.3c0.9-0.9,2-1.8,3.2-2.6l1.1,1.5
								C25.3,77.6,24.3,78.4,23.5,79.3z M42.3,78.7l-0.2-1.8c1.1-0.1,2.1-0.7,2.8-1.6l1.4,1.1C45.3,77.6,43.9,78.4,42.3,78.7z
								 M38,77.8c-1.1-0.6-2.3-1.4-3.4-2.4l1.2-1.3c1,0.9,2,1.7,3,2.1L38,77.8z M29.7,74.7l-0.9-1.6c0.8-0.5,1.7-1,2.8-1.5
								c-0.6-1.1-1-2.2-1.3-3.3l1.8-0.4c0.3,1.2,0.8,2.3,1.4,3.4l-0.8,0.5l0.6,1.1C31.8,73.5,30.7,74.1,29.7,74.7z M45.7,72.3
								c-0.1-0.7-0.6-1.6-1.9-2.1l0.6-1.7c1.7,0.5,2.9,1.8,3.2,3.5L45.7,72.3z M36.6,71.2L36,69.5c1.4-0.6,2.8-1,4-1.2l0.3,1.8
								C39.2,70.3,38,70.7,36.6,71.2z M31.6,64.2l-1.8-0.1c0-1.3,0.2-2.7,0.6-4.1l1.8,0.4C31.8,61.7,31.6,63,31.6,64.2z M33.3,56.8
								l-1.7-0.7c0.5-1.2,1.1-2.4,1.7-3.7l1.6,0.9C34.3,54.5,33.7,55.6,33.3,56.8z M36.9,49.9l-1.5-1c0.7-1.1,1.5-2.2,2.3-3.3
								l1.5,1.1C38.3,47.8,37.6,48.9,36.9,49.9z M41.6,43.6l-1.4-1.2c0.8-1,1.7-2,2.6-3l1.3,1.2C43.3,41.6,42.4,42.6,41.6,43.6z"/>
						</g>
					</g>
				</g>
				<g>
					<g>
						<g>
							<path class="st6" d="M21.2,106.4c-0.3-0.6-0.6-1.2-0.9-1.8l1.6-0.8c0.3,0.6,0.6,1.1,0.9,1.7L21.2,106.4z"/>
						</g>
					</g>
				</g>
			</g>
			<g>
				<g>
					<g>
						<g>
							<g>
								<g>
									<path class="st0" d="M117.6,144.7c-1.3,10.6,2.3,21.3,9.9,29c6.6,6.6,15.4,10.3,24.8,10.4c9.4,0,18.2-3.6,24.8-10.2
										l0.1-0.1c0.4-0.4,0.9-0.9,1.3-1.3c0.1-0.1,0.2-0.2,0.3-0.3c0.3-0.4,0.6-0.7,0.9-1.1c0.1-0.1,0.1-0.2,0.2-0.3
										c0.3-0.4,0.6-0.8,0.9-1.2c0.1-0.1,0.1-0.1,0.2-0.2c0.3-0.4,0.6-0.8,0.9-1.3c0,0,0.1-0.1,0.1-0.1c0.3-0.5,0.6-0.9,0.9-1.4
										c0,0,0,0,0-0.1c0.3-0.5,0.6-1,0.8-1.5l0,0c0.5-1.1,1-2.1,1.4-3.2l0,0c0.8-2,1.3-4,1.7-6c0.2-1.1,0.4-2.2,0.5-3.3
										c0.1-1.1,0.2-2.3,0.2-3.4c0-1.1,0-2.3-0.2-3.4c0-0.2-0.1-0.5-0.1-0.7c-0.1-1.2-0.4-2.4-0.6-3.6c-0.1-0.5-0.2-1-0.3-1.4
										c0,0,0,0,0,0c-0.2-0.9-0.5-1.9-0.9-2.8c0,0,0,0,0,0c-0.7-1.8-1.5-3.6-2.4-5.3c0-0.1-0.1-0.1-0.1-0.2
										c-0.4-0.8-0.9-1.6-1.5-2.3c-0.1-0.1-0.2-0.2-0.2-0.4c-0.5-0.7-1.1-1.5-1.6-2.2c-0.1-0.1-0.2-0.2-0.3-0.3
										c-0.6-0.7-1.3-1.4-1.9-2.1c-6.9-6.9-15.9-10.4-24.9-10.3c-2.2,0-4.5,0.2-6.7,0.6c-6.6,1.3-12.9,4.5-18,9.5l-0.1,0.1
										c-1.6,1.6-3.1,3.4-4.3,5.3h-21.1L117.6,144.7z"/>
								</g>
							</g>
						</g>
					</g>
				</g>
				<g>
					<g>
						<g>
							<g>
								<g>
									<g>
										<path class="st2" d="M139.5,149.7c0-2.3-1.9-4.1-4.1-4.1c-2.3,0-4.1,1.9-4.1,4.1s1.9,4.1,4.1,4.1
											C137.6,153.9,139.5,152,139.5,149.7z"/>
									</g>
								</g>
							</g>
						</g>
					</g>
					<g>
						<g>
							<g>
								<g>
									<g>
										<path class="st2" d="M156.4,149.7c0-2.3-1.9-4.1-4.1-4.1c-2.3,0-4.1,1.9-4.1,4.1s1.9,4.1,4.1,4.1
											C154.5,153.9,156.4,152,156.4,149.7z"/>
									</g>
								</g>
							</g>
						</g>
					</g>
					<g>
						<g>
							<g>
								<g>
									<g>
										<path class="st2" d="M173.2,149.7c0-2.3-1.9-4.1-4.1-4.1c-2.3,0-4.1,1.9-4.1,4.1s1.9,4.1,4.1,4.1
											C171.4,153.9,173.2,152,173.2,149.7z"/>
									</g>
								</g>
							</g>
						</g>
					</g>
				</g>
			</g>
			<g>
				<g>
					<g>
						<polygon class="st8" points="58.8,2.6 74.5,10.1 103.5,0 						"/>
					</g>
				</g>
				<g>
					<g>
						<polygon class="st12" points="52.5,16.3 49.2,34.7 80.4,13.1 77.7,9.3 75.9,9.1 71.2,8.1 						"/>
					</g>
				</g>
				<g>
					<g>
						<g>
							<g>
								<polygon class="st13" points="75.3,9 71.6,18.9 103.5,0 								"/>
							</g>
						</g>
					</g>
					<g>
						<g>
							<g>
								<polygon class="st14" points="103.5,0 55.2,19.2 51.6,28.4 103.5,0 								"/>
							</g>
						</g>
					</g>
					<g>
						<g>
							<g>
								<polygon class="st15" points="75.3,9 76.9,10.6 103.5,0 								"/>
							</g>
						</g>
						<g>
							<g>
								<polygon class="st16" points="39.7,3.8 52.5,16.3 75.3,9 58.8,2.6 								"/>
							</g>
						</g>
					</g>
				</g>
				<g>
					<g>
						<polygon class="st14" points="103.5,0 51.6,28.4 49.2,34.7 						"/>
					</g>
				</g>
				<g>
					<g>
						<polygon class="st17" points="77.4,10.4 55.2,19.2 71.5,37.2 81,26.1 						"/>
					</g>
				</g>
				<g>
					<g>
						<polygon class="st0" points="103.5,0 76.9,10.6 81,26.1 						"/>
					</g>
				</g>
			</g>
		</g>
	</g>
</g>
</svg>
