<?xml version="1.0" encoding="utf-8"?>
<!-- Generator: Adobe Illustrator 23.0.3, SVG Export Plug-In . SVG Version: 6.00 Build 0)  -->
<svg version="1.1" id="Layer_1" xmlns="http://www.w3.org/2000/svg" xmlns:xlink="http://www.w3.org/1999/xlink" x="0px" y="0px"
	 viewBox="0 0 190 175" style="enable-background:new 0 0 190 175;" xml:space="preserve">
<style type="text/css">
	.st0{fill:#4C5D6C;}
	.st1{opacity:0.5;}
	.st2{fill:#576672;}
	.st3{opacity:0.4;}
	.st4{fill:#7B7877;}
	.st5{opacity:0.2;}
	.st6{fill:#E1EFFA;}
	.st7{fill:#45525B;}
	.st8{fill:#F3F6F8;}
	.st9{fill:#87A1B2;}
	.st10{fill:#94AEC4;}
	.st11{fill:#BCB9BF;}
	.st12{fill:#131A21;}
	.st13{fill:#586C7A;}
	.st14{fill:#FCB504;}
	.st15{fill:#FFFFFF;}
	.st16{fill:#265972;}
	.st17{fill:#FFD55C;}
	.st18{fill:#E7EDF2;}
	.st19{fill:#FF9B4A;}
	.st20{fill:#718595;}
</style>
<g>
	<g>
		<g>
			<g>
				<g>
					<g>
						<path class="st0" d="M171.8,170.9c-0.5,0-0.9-0.3-1.1-0.7l0,0c-0.3-0.6-7.5-15.6-25.7-15.6H97.6c-0.7,0-1.2-0.5-1.2-1.2
							c0-0.7,0.6-1.2,1.2-1.2H145c10.3,0,17.4,4.6,21.5,8.5c4.4,4.2,6.4,8.4,6.5,8.6c0.3,0.6,0,1.3-0.6,1.6
							C172.2,170.9,172,170.9,171.8,170.9z"/>
					</g>
				</g>
			</g>
		</g>
		<g>
			<g>
				<g>
					<g>
						<path class="st0" d="M96,170.9c-0.2,0-0.3,0-0.5-0.1c-0.6-0.3-0.9-1-0.6-1.6c0.1-0.2,2-4.3,6.5-8.6c4.1-3.9,11.1-8.5,21.5-8.5
							h47.8c0.7,0,1.2,0.5,1.2,1.2c0,0.7-0.6,1.2-1.2,1.2h-47.8c-18.2,0-25.4,15-25.7,15.6C96.9,170.6,96.4,170.9,96,170.9z"/>
					</g>
				</g>
			</g>
		</g>
		<g class="st1">
			<g>
				<g>
					<g>
						<path class="st2" d="M102.3,149.3l19.8-1.3c0,0,5.7,1.5,6,1.5c0.3,0,1.8,3.9,1.8,3.9l-1.8,8c0,0-2.5,7.4-2.4,7.6
							c0.1,0.2-7.9,2-7.9,2l-13.9-1c0,0-3.4-4.2-3.4-4.4c0-0.2,0.1-7.4,0.1-7.6c0-0.2,0.1-7,0.1-7L102.3,149.3z"/>
					</g>
				</g>
			</g>
		</g>
		<g class="st3">
			<g>
				<g>
					<g>
						<path class="st2" d="M165.8,149.3L146,148c0,0-5.7,1.5-6,1.5c-0.3,0-1.8,3.9-1.8,3.9l1.8,8c0,0,2.5,7.4,2.4,7.6
							c-0.1,0.2,7.9,2,7.9,2l13.9-1c0,0,3.4-4.2,3.4-4.4c0-0.2-0.1-7.4-0.1-7.6c0-0.2-0.1-7-0.1-7L165.8,149.3z"/>
					</g>
				</g>
			</g>
		</g>
		<g>
			<g>
				<g>
					<g>
						<g>
							<polygon class="st4" points="168,153.4 168,153.4 168.1,153.5 168,153.4 							"/>
						</g>
					</g>
				</g>
			</g>
		</g>
		<g class="st5">
			<g>
				<g>
					<path class="st6" d="M168.5,161.4l-0.2-8.3c0,0-2.4-3.9-2.7-3.9c-0.3,0-3-1.2-3-1.2l-15.5,1l19.3,19.2
						C166.9,166.3,168.5,161.4,168.5,161.4z"/>
				</g>
			</g>
		</g>
		<g class="st5">
			<g>
				<g>
					<path class="st6" d="M106.6,149l19.3,19.2c0.1-0.4,0.3-1,0.5-1.7l-17.7-17.7L106.6,149z"/>
				</g>
			</g>
			<g>
				<g>
					<path class="st6" d="M142.8,149l22.3,22.3c0.1-0.4,0.3-1,0.5-1.7l-20.8-20.7L142.8,149z"/>
				</g>
			</g>
			<g>
				<g>
					<path class="st6" d="M128,161.4l1.8-8c0,0-1.4-3.9-1.8-3.9c-0.3,0-6-1.5-6-1.5l-11.4,0.7l16.2,16.2
						C127.5,163.1,128,161.4,128,161.4z"/>
				</g>
			</g>
		</g>
		<g>
			<g>
				<g>
					<path class="st7" d="M161.6,146.8H145c-2.4,0-4.7,1-6.1,2.8c-1.3,1.5-1.8,3.4-1.5,5.3l0,0l0,0l0.7,3.4c0-0.1-0.1-0.1-0.1-0.2
						c-0.8-1-1.7-2.1-3.8-2.1c-1.9,0-2.8,0.9-3.6,1.9l0.6-3l0,0l0,0c0.3-1.9-0.2-3.8-1.5-5.3c-1.5-1.7-3.8-2.8-6.1-2.8h-16.6
						c-4.2,0-7.7,3.4-7.7,7.7V165c0,4.2,3.5,7.7,7.7,7.7h14.6c2.1,0,3.9-0.8,5.3-2.4c1.1-1.2,1.9-2.8,2.3-4.7l0-0.1l0,0l0.5-2.8
						c0.6-0.9,1.9-2.9,2.1-3.1c0.8-0.9,1.1-1.4,2.4-1.4c1.3,0,1.7,0.5,2.4,1.5c0.1,0.1,1.5,2,2.3,3.2l0.5,2.6l0,0l0,0.1
						c0.4,1.9,1.2,3.5,2.3,4.7c1.4,1.5,3.2,2.4,5.3,2.4h14.6c4.2,0,7.7-3.4,7.7-7.7v-10.5C169.3,150.2,165.8,146.8,161.6,146.8z
						 M128.5,154.5l-2,10.5c-0.6,2.7-2.3,5-5.1,5h-14.6c-2.8,0-5.1-2.3-5.1-5v-10.5c0-2.8,2.3-5,5.1-5h16.6
						C126.3,149.4,129,151.6,128.5,154.5z M166.6,165c0,2.8-2.3,5-5.1,5H147c-2.8,0-4.4-2.3-5.1-5l-2-10.5c-0.5-2.9,2.3-5,5.1-5
						h16.6c2.8,0,5.1,2.3,5.1,5V165z"/>
				</g>
			</g>
		</g>
	</g>
	<g>
		<g>
			<g>
				<g>
					<path class="st8" d="M0,164.3c0,1.6,0,3,0,3.9c0,3.7,3.3,6.8,7.3,6.8H10h37.6c4,0,7.3-3.3,7.3-7.3v-3.4H0z"/>
				</g>
			</g>
		</g>
		<g>
			<g>
				<path class="st9" d="M40.6,44.9c0-4-3.3-7.3-7.3-7.3H22.9c-4,0-7.3,3.3-7.3,7.3H40.6z"/>
			</g>
		</g>
		<g>
			<g>
				<path class="st9" d="M15.5,167.7v-15.4V57.3c0-4,3.3-7.3,7.3-7.3h10.4c4,0,7.3,3.3,7.3,7.3v13.3h33.8v97.2c0,4-3.3,7.3-7.3,7.3
					H63H8.2C12.2,175,15.5,171.7,15.5,167.7z"/>
			</g>
		</g>
		<g>
			<g>
				<g>
					<path class="st9" d="M72.7,44.8H15.6c0,6.3,0,13.4,0,20h57.2C72.7,58.1,72.7,51.1,72.7,44.8z"/>
				</g>
			</g>
		</g>
		<g>
			<g>
				<path class="st8" d="M89.2,64.3c0,18.4,0,8.5,0,14.3v1.2V94c0,4-3.3,7.3-7.3,7.3H44.4h-2.8c-4,0-7.3-3.1-7.3-6.8
					c0-3,0-11.5,0-14.7c0-0.8,0-1.2,0-1.2V45.2c0,0,0,0,0,0v-0.3c0-4-3.3-7.3-7.3-7.3h55c3.6,0,6.6,2.7,7.2,6.1h0.1v1.1L89.2,64.3z"
					/>
			</g>
		</g>
		<g>
			<g>
				<g>
					<path class="st8" d="M163.6,29.8c0-4-3.3-7.3-7.3-7.3h-3.9l-53.5,0c4,0,7.3,3.3,7.3,7.3v15.4v26.4l57.4,0V29.8z"/>
				</g>
			</g>
		</g>
		<g>
			<g>
				<g>
					<path class="st10" d="M52.9,94V78.6V7.3c0-4,3.3-7.3,7.3-7.3h10.4c4,0,7.3,3.3,7.3,7.3v13.3h33.8V94c0,4-3.3,7.3-7.3,7.3h-3.9
						H45.6C49.6,101.3,52.9,98,52.9,94z"/>
				</g>
			</g>
			<g>
				<g>
					<path class="st8" d="M128.2,71.9c0,18.4,0-67.9,0-62.1V11v59.4c0,4-3.3,7.3-7.3,7.3H81.1h-2.8c-4,0-7.3-3.1-7.3-6.8
						c0-3,0-56.7,0-59.9c0-0.8,0-1.2,0-1.2V7.6c0,0,0,0,0,0V7.3c0-4-3.3-7.3-7.3-7.3H121c3.6,0,6.6,2.7,7.2,6.1h0.1v1.1L128.2,71.9z
						"/>
				</g>
			</g>
			<g>
				<g>
					<path class="st9" d="M89.5,70.4V55V29.8c0-4,3.3-7.3,7.3-7.3l19.5,0c4,0,7.3,3.3,7.3,7.3V33h23.3v37.4c0,4-3.3,7.3-7.3,7.3
						h-3.9H82.2C86.2,77.7,89.5,74.4,89.5,70.4z"/>
				</g>
			</g>
			<g>
				<g>
					<g>
						<path class="st8" d="M163.6,29.8c0-4-3.3-7.3-7.3-7.3h-3.9l-53.5,0c4,0,7.3,3.3,7.3,7.3v15.4v26.4l57.4,0V29.8z"/>
					</g>
				</g>
			</g>
		</g>
		<g class="st1">
			<g>
				<g>
					<rect x="114.9" y="30.4" class="st11" width="40.4" height="2.5"/>
				</g>
			</g>
			<g>
				<g>
					<rect x="114.9" y="37.1" class="st11" width="40.4" height="2.5"/>
				</g>
			</g>
			<g>
				<g>
					<rect x="114.9" y="43.7" class="st11" width="40.4" height="2.5"/>
				</g>
			</g>
		</g>
		<g>
			<g>
				<g>
					<g>
						<g>
							<path class="st12" d="M100.9,135.8c0,0.6,0.5,1.2,1.2,1.2l65.5,0c0.6,0,1.2-0.2,1.2-1.3l0-82.4c0,1.7-0.5,1.2-1.2,1.2
								l-65.5,0c-0.6,0-1.2,0.5-1.2-1.2l0,80.2V135.8z"/>
						</g>
					</g>
				</g>
				<g>
					<g>
						<g>
							<path class="st13" d="M100.9,53.2l0,77.1v2.4c0,0.6,0.5,1.2,1.2,1.2l65.5,0c0.6,0,1.2-0.2,1.2-1.3l0-79.3L100.9,53.2z"/>
						</g>
					</g>
				</g>
				<g>
					<g>
						<g>
							<path class="st7" d="M102,51.3l65.5,0c0.6,0,1.2,0.5,1.2,1.2l0,28.9l-67.8,0l0-28.9C100.9,51.9,101.4,51.3,102,51.3z"/>
						</g>
					</g>
				</g>
				<g>
					<g>
						<g>
							<g>
								<g>
									<polygon class="st14" points="107,60.6 162.6,60.6 162.6,74.6 107,74.6 107,60.6 									"/>
								</g>
							</g>
						</g>
						<g>
							<g>
								<g>
									<path class="st13" d="M162.6,74.6l-55.5,0l0-14l55.5,0L162.6,74.6L162.6,74.6z M106.8,59.5c-0.5,0-0.8,0.4-0.8,0.8l0,14.6
										c0,0.5,0.4,0.7,0.9,0.7l56.1,0c0.5,0,0.8-0.4,0.8-0.8l0-14.5c0-0.5-0.4-0.8-0.8-0.8L106.8,59.5L106.8,59.5z"/>
								</g>
							</g>
						</g>
					</g>
				</g>
				<g>
					<g>
						<g>
							<rect x="105.5" y="51.4" class="st12" width="59.1" height="3.6"/>
						</g>
					</g>
				</g>
			</g>
			<g>
				<g>
					<g>
						<rect x="142.7" y="109" class="st15" width="7.6" height="7.6"/>
					</g>
				</g>
				<g>
					<g>
						<g>
							<rect x="142.7" y="86" class="st16" width="7.6" height="7.6"/>
						</g>
					</g>
				</g>
				<g>
					<g>
						<rect x="142.7" y="97.1" class="st15" width="7.6" height="7.6"/>
					</g>
				</g>
				<g>
					<g>
						<rect x="142.7" y="120.8" class="st15" width="7.6" height="7.6"/>
					</g>
				</g>
			</g>
			<g>
				<g>
					<g>
						<rect x="118.8" y="109" class="st15" width="7.6" height="7.6"/>
					</g>
				</g>
				<g>
					<g>
						<g>
							<rect x="118.8" y="86" class="st16" width="7.6" height="7.6"/>
						</g>
					</g>
				</g>
				<g>
					<g>
						<rect x="118.8" y="97.1" class="st15" width="7.6" height="7.6"/>
					</g>
				</g>
				<g>
					<g>
						<rect x="118.8" y="120.8" class="st15" width="7.6" height="7.6"/>
					</g>
				</g>
			</g>
			<g>
				<g>
					<g>
						<rect x="130.8" y="109" class="st15" width="7.6" height="7.6"/>
					</g>
				</g>
				<g>
					<g>
						<g>
							<rect x="130.8" y="86" class="st16" width="7.6" height="7.6"/>
						</g>
					</g>
				</g>
				<g>
					<g>
						<rect x="130.8" y="97.1" class="st15" width="7.6" height="7.6"/>
					</g>
				</g>
				<g>
					<g>
						<rect x="130.8" y="120.8" class="st15" width="7.6" height="7.6"/>
					</g>
				</g>
			</g>
			<g>
				<g>
					<g>
						<g>
							<rect x="106.9" y="86" class="st16" width="7.6" height="7.6"/>
						</g>
					</g>
				</g>
				<g>
					<g>
						<rect x="106.9" y="97.1" class="st15" width="7.6" height="7.6"/>
					</g>
				</g>
				<g>
					<g>
						<polygon class="st14" points="114.5,109 114.5,119.7 114.5,120.7 114.5,128.4 106.9,128.4 106.9,120.7 106.9,119.7 106.9,109 
													"/>
					</g>
				</g>
			</g>
			<g>
				<g>
					<g>
						<rect x="154.6" y="86" class="st17" width="7.6" height="7.6"/>
					</g>
				</g>
				<g>
					<g>
						<rect x="154.6" y="97.1" class="st15" width="7.6" height="7.6"/>
					</g>
				</g>
				<g>
					<g>
						<rect x="154.6" y="120.8" class="st15" width="7.6" height="7.6"/>
					</g>
				</g>
				<g>
					<g>
						<rect x="154.6" y="109" class="st15" width="7.6" height="7.6"/>
					</g>
				</g>
			</g>
		</g>
	</g>
	<g>
		<g>
			<g>
				<g>
					<g>
						<rect x="181.1" y="130.8" class="st7" width="4" height="5.8"/>
					</g>
				</g>
			</g>
			<g>
				<g>
					<g>
						<polygon class="st7" points="179.4,132.1 181.1,133.9 185,133.9 186.7,132.1 186.7,130.5 179.4,130.5 						"/>
					</g>
				</g>
			</g>
			<g>
				<g>
					<g>
						<rect x="179.4" y="102.6" class="st13" width="7.4" height="28.9"/>
					</g>
				</g>
			</g>
			<g>
				<g>
					<g>
						<rect x="179.4" y="102.6" class="st7" width="2" height="28.9"/>
					</g>
				</g>
			</g>
			<g>
				<g>
					<g>
						<rect x="182.7" y="137.3" class="st7" width="0.7" height="5.8"/>
					</g>
				</g>
			</g>
			<g>
				<g>
					<g>
						<rect x="182.7" y="136.2" class="st18" width="0.7" height="5.8"/>
					</g>
				</g>
			</g>
			<g>
				<g>
					<g>
						<rect x="182.1" y="133.4" class="st7" width="2" height="5.8"/>
					</g>
				</g>
			</g>
		</g>
		<g>
			<g>
				<g>
					<g>
						<g>
							<rect x="181.1" y="47.7" class="st13" width="3.8" height="8.7"/>
						</g>
					</g>
				</g>
				<g>
					<g>
						<g>
							<rect x="181.1" y="47.7" class="st7" width="1.1" height="8.6"/>
						</g>
					</g>
				</g>
			</g>
			<g>
				<g>
					<g>
						<g>
							<polygon class="st19" points="179.3,105.4 181,105.3 185.1,105.3 186.7,105.4 186.7,58.9 179.3,58.9 							"/>
						</g>
					</g>
				</g>
			</g>
			<g>
				<g>
					<g>
						<path class="st20" d="M186.7,60.6v41.2v1.5v2.1c0,0.3-0.5,0.5-1.1,0.5h0c-0.6,0-1.1-0.2-1.1-0.5v-2.1v-1.5V60.6
							c0-0.3,0.5-0.5,1.1-0.5h0C186.2,60.1,186.7,60.3,186.7,60.6z"/>
					</g>
				</g>
			</g>
			<g>
				<g>
					<g>
						<path class="st7" d="M181.5,60.6v41.2v1.5v2.1c0,0.3-0.5,0.5-1.1,0.5h0c-0.6,0-1.1-0.2-1.1-0.5v-2.1v-1.5V60.6
							c0-0.3,0.5-0.5,1.1-0.5h0C181,60.1,181.5,60.3,181.5,60.6z"/>
					</g>
				</g>
			</g>
			<g>
				<g>
					<g>
						<path class="st2" d="M184.5,60.6v41.2v1.5v2.1c0,0.3-0.5,0.5-1.1,0.5h-0.9c-0.6,0-1.1-0.2-1.1-0.5v-2.1v-1.5V60.6
							c0-0.3,0.5-0.5,1.1-0.5h0.9C184,60.1,184.5,60.3,184.5,60.6z"/>
					</g>
				</g>
			</g>
			<g>
				<g>
					<g>
						<rect x="179.3" y="55.4" class="st13" width="7.4" height="6.5"/>
					</g>
				</g>
			</g>
			<g>
				<g>
					<g>
						<rect x="179.3" y="55.4" class="st7" width="2.2" height="6.4"/>
					</g>
				</g>
			</g>
			<g>
				<g>
					<g>
						<g>
							<rect x="187.8" y="60.9" class="st7" width="2.2" height="30.8"/>
						</g>
					</g>
				</g>
				<g>
					<g>
						<g>
							<rect x="179.3" y="60.9" class="st7" width="9.4" height="3.6"/>
						</g>
					</g>
				</g>
			</g>
		</g>
	</g>
</g>
</svg>
