<?xml version="1.0" encoding="utf-8"?>
<!-- Generator: Adobe Illustrator 23.0.3, SVG Export Plug-In . SVG Version: 6.00 Build 0)  -->
<svg version="1.1" id="Layer_1" xmlns="http://www.w3.org/2000/svg" xmlns:xlink="http://www.w3.org/1999/xlink" x="0px" y="0px"
	 viewBox="0 0 203 166" style="enable-background:new 0 0 203 166;" xml:space="preserve">
<style type="text/css">
	.st0{fill:#45525B;}
	.st1{fill:#FCB504;}
	.st2{fill:#FFD55C;}
	.st3{fill:#576672;}
	.st4{fill:#F3F6F8;}
	.st5{fill:#E5E3EA;}
	.st6{opacity:0.8;}
</style>
<g>
	<g>
		<g>
			<g>
				<g>
					<g>
						<g>
							<g>
								<path class="st0" d="M195.5,20.6c-0.6,0-1,0.5-1,1l0,30c0,0.6,0.4,1,1,1l6.5,0c0.6,0,1-0.5,1-1l0-30c0-0.6-0.5-1-1-1
									L195.5,20.6z"/>
							</g>
						</g>
						<g>
							<g>
								<path class="st0" d="M191.8,18.9l0,10.2l0,25.3c0,0-1.6-1.1-4.1-1.1c-2.7,0-3.9,1.1-3.9,1.1l0-25.3l0-10.2
									c0,0,1.2,1.1,3.9,1.1C190.2,20,191.8,18.9,191.8,18.9z"/>
							</g>
						</g>
						<g>
							<g>
								<path class="st0" d="M192.6,17.3c-0.6,0-1,0.4-1,1l0,36.7c0,0.6,0.5,1,1,1l6.5,0c0.6,0,1-0.4,1-1l0-36.7c0-0.6-0.5-1-1-1
									L192.6,17.3z"/>
							</g>
						</g>
						<g>
							<g>
								<path class="st0" d="M139.3,18.9l0,10.2l0,25.3c0,0,1.6-1.1,4.1-1.1c2.7,0,3.9,1.1,3.9,1.1l0-25.3l0-10.2
									c0,0-1.2,1.1-3.9,1.1C140.9,20,139.3,18.9,139.3,18.9z"/>
							</g>
						</g>
						<g>
							<g>
								<polygon class="st1" points="177.1,54.9 173.6,54.9 155.7,54.9 154,54.9 154,18.3 155.7,18.3 173.6,18.3 177.1,18.3 
																	"/>
							</g>
						</g>
						<g>
							<g>
								<polygon class="st2" points="177.1,36.5 173.6,36.5 155.7,36.5 154,36.5 154,21.9 155.7,21.9 173.6,21.9 177.1,21.9 
																	"/>
							</g>
						</g>
						<g>
							<g>
								<path class="st0" d="M138.5,17.2c0.6,0,1,0.5,1,1l0,36.7c0,0.6-0.5,1-1,1l-6.5,0c-0.6,0-1-0.5-1-1l0-36.7c0-0.6,0.5-1,1-1
									L138.5,17.2z"/>
							</g>
						</g>
						<g>
							<g>
								<path class="st0" d="M135.6,20.6c0.6,0,1,0.5,1,1l0,30c0,0.6-0.5,1-1,1l-6.5,0c-0.6,0-1-0.5-1-1l0-30c0-0.6,0.5-1,1-1
									L135.6,20.6z"/>
							</g>
						</g>
						<g>
							<g>
								<path class="st3" d="M138.5,17.2c0.6,0,1,0.5,1,1l0,36.7c0,0.6-0.5,1-1,1l-1-0.1l0-38.7L138.5,17.2z"/>
							</g>
						</g>
						<g>
							<g>
								<path class="st3" d="M199.2,17.3c0.6,0,1,0.5,1,1l0,36.7c0,0.6-0.5,1-1,1l-1.1,0l0-38.7L199.2,17.3z"/>
							</g>
						</g>
						<g>
							<g>
								<rect x="146.6" y="14.8" class="st0" width="8.1" height="43.7"/>
							</g>
						</g>
						<g>
							<g>
								<rect x="176.4" y="14.8" class="st0" width="8.1" height="43.7"/>
							</g>
						</g>
						<g>
							<g>
								<polygon class="st3" points="154.7,14.8 154.7,58.5 153,58.4 153,14.8 								"/>
							</g>
						</g>
						<g>
							<g>
								<polygon class="st3" points="184.6,14.8 184.6,58.5 182.6,58.4 182.6,14.8 								"/>
							</g>
						</g>
					</g>
				</g>
				<g>
					<g>
						<g>
							<g>
								<g>
									<g>
										<rect x="2.9" y="136.6" class="st4" width="113.9" height="0.9"/>
									</g>
								</g>
								<g>
									<g>
										<rect x="2.9" y="138.7" class="st4" width="113.9" height="0.9"/>
									</g>
								</g>
								<g>
									<g>
										<rect x="2.9" y="140.8" class="st4" width="113.9" height="0.9"/>
									</g>
								</g>
								<g>
									<g>
										<rect x="2.9" y="142.8" class="st4" width="113.9" height="0.9"/>
									</g>
								</g>
								<g>
									<g>
										<rect x="2.9" y="144.9" class="st4" width="113.9" height="0.9"/>
									</g>
								</g>
								<g>
									<g>
										<rect x="2.9" y="147" class="st4" width="113.9" height="0.9"/>
									</g>
								</g>
								<g>
									<g>
										<rect x="2.9" y="149" class="st4" width="113.9" height="0.9"/>
									</g>
								</g>
								<g>
									<g>
										<rect x="2.9" y="151.1" class="st4" width="113.9" height="0.9"/>
									</g>
								</g>
								<g>
									<g>
										<rect x="2.9" y="153.2" class="st4" width="113.9" height="0.9"/>
									</g>
								</g>
								<g>
									<g>
										<rect x="2.9" y="155.2" class="st4" width="113.9" height="0.9"/>
									</g>
								</g>
								<g>
									<g>
										<rect x="4" y="157.3" class="st4" width="112.9" height="0.9"/>
									</g>
								</g>
								<g>
									<g>
										<rect x="9.3" y="161.4" class="st4" width="107.5" height="0.9"/>
									</g>
								</g>
								<g>
									<g>
										<rect x="6" y="159.4" class="st4" width="110.8" height="0.9"/>
									</g>
								</g>
							</g>
							<g>
								<g>
									<path class="st5" d="M116.7,135H16.5c-8,0-14.5,6.5-14.5,14.5l0,0c0,8,6.5,14.5,14.5,14.5h100.3V135z"/>
								</g>
							</g>
							<g>
								<g>
									<path class="st0" d="M117.4,2H16.5C8.5,2,2,8.5,2,16.5l0,0C2,24.5,8.5,31,16.5,31h100.9V2z"/>
								</g>
							</g>
							<g>
								<g>
									<path class="st0" d="M16.5,0C7.4,0,0,7.4,0,16.5v133h4c0-6.9,5.6-12.5,12.5-12.5h102.9V0H16.5z"/>
								</g>
							</g>
							<g class="st6">
								<g>
									<g>
										<g>
											<rect x="30.6" y="25.2" class="st4" width="70.9" height="8.8"/>
										</g>
									</g>
									<g>
										<g>
											<rect x="30.6" y="36.7" class="st4" width="70.9" height="3.4"/>
										</g>
									</g>
								</g>
								<g>
									<g>
										<g>
											<path class="st3" d="M107.9,128.6h-83c-3.4,0-6.1-2.7-6.1-6.1V14c0-3.4,2.7-6.1,6.1-6.1h83c3.4,0,6.1,2.7,6.1,6.1v108.5
												C114.1,125.9,111.3,128.6,107.9,128.6z M24.9,9.4c-2.5,0-4.6,2-4.6,4.6v108.5c0,2.5,2,4.6,4.6,4.6h83
												c2.5,0,4.6-2,4.6-4.6V14c0-2.5-2-4.6-4.6-4.6H24.9z"/>
										</g>
									</g>
								</g>
							</g>
							<g>
								<g>
									<g>
										<path class="st3" d="M4,149.5c0,6.9,5.6,12.5,12.5,12.5h102.4v4H16.5C7.4,166,0,158.6,0,149.5H4z"/>
									</g>
								</g>
							</g>
						</g>
						<g>
							<g>
								<path class="st3" d="M0,16.5v133h4c0-6,4.3-11.1,10-12.3V0.2C6.1,1.4,0,8.3,0,16.5z"/>
							</g>
						</g>
					</g>
					<g>
						<g>
							<g>
								<polygon class="st4" points="65.2,66.2 58.8,59.7 71.6,59.7 								"/>
							</g>
						</g>
						<g>
							<g>
								<rect x="59" y="67.3" class="st4" width="12.4" height="1.1"/>
							</g>
						</g>
						<g>
							<g>
								<rect x="59" y="72.5" class="st4" width="12.4" height="1.1"/>
							</g>
						</g>
						<g>
							<g>
								<rect x="59" y="102.9" class="st4" width="12.4" height="1.1"/>
							</g>
						</g>
						<g>
							<g>
								<g>
									<rect x="64.6" y="75" class="st4" width="1.1" height="26.7"/>
								</g>
							</g>
							<g>
								<g>
									<rect x="61.4" y="75" class="st4" width="1.1" height="26.7"/>
								</g>
							</g>
							<g>
								<g>
									<rect x="67.8" y="75" class="st4" width="1.1" height="26.7"/>
								</g>
							</g>
						</g>
						<g>
							<g>
								<g>
									<path class="st4" d="M62.6,70.6c0,0.5-0.4,0.9-0.9,0.9c-0.5,0-0.9-0.4-0.9-0.9c0-0.5,0.4-0.9,0.9-0.9
										C62.2,69.7,62.6,70.1,62.6,70.6z"/>
								</g>
							</g>
							<g>
								<g>
									<path class="st4" d="M66.1,70.6c0,0.5-0.4,0.9-0.9,0.9s-0.9-0.4-0.9-0.9c0-0.5,0.4-0.9,0.9-0.9S66.1,70.1,66.1,70.6z"/>
								</g>
							</g>
							<g>
								<g>
									<path class="st4" d="M69.5,70.6c0,0.5-0.4,0.9-0.9,0.9s-0.9-0.4-0.9-0.9c0-0.5,0.4-0.9,0.9-0.9S69.5,70.1,69.5,70.6z"/>
								</g>
							</g>
						</g>
						<g>
							<g>
								<rect x="47.3" y="62.8" class="st4" width="35.9" height="1"/>
							</g>
						</g>
						<g>
							<g>
								<g>
									<polygon class="st4" points="54.1,90.1 53.3,90.1 44.9,90.1 44.9,91.4 45.7,91.4 46.5,93.9 53.3,93.9 54.1,93.9 58.3,93.9 
										59,91.4 59.9,91.4 59.9,90.1 									"/>
								</g>
							</g>
							<g>
								<g>
									<polygon class="st4" points="47.2,90.6 46.2,90.4 52.4,65.5 58.5,90.3 57.6,90.5 52.4,69.7 									"/>
								</g>
							</g>
						</g>
						<g>
							<g>
								<g>
									<polygon class="st4" points="79.6,90.1 78.8,90.1 70.4,90.1 70.4,91.4 71.3,91.4 72,93.9 78.8,93.9 79.6,93.9 83.8,93.9 
										84.5,91.4 85.4,91.4 85.4,90.1 									"/>
								</g>
							</g>
							<g>
								<g>
									<polygon class="st4" points="72.7,90.6 71.7,90.4 77.9,65.5 84.1,90.3 83.1,90.5 77.9,69.7 									"/>
								</g>
							</g>
						</g>
					</g>
				</g>
			</g>
		</g>
		<g>
			<g>
				<g>
					<polygon class="st0" points="171.4,149.2 168.6,153 163,153 160.2,149.2 160.2,51.2 163,47.3 168.6,47.3 171.4,51.2 					"/>
				</g>
			</g>
		</g>
		<g>
			<g>
				<polygon class="st3" points="168.6,47.3 171.4,51.2 171.4,149.2 168.6,153 				"/>
			</g>
		</g>
		<g>
			<g>
				<polygon class="st0" points="171.4,149.2 168.6,153 163,153 160.2,149.2 160.2,146.8 163,142.9 168.6,142.9 171.4,146.8 				"/>
			</g>
		</g>
	</g>
</g>
</svg>
