<?xml version="1.0" encoding="utf-8"?>
<!-- Generator: Adobe Illustrator 21.1.0, SVG Export Plug-In . SVG Version: 6.00 Build 0)  -->
<svg version="1.1" id="Layer_1" xmlns="http://www.w3.org/2000/svg" xmlns:xlink="http://www.w3.org/1999/xlink" x="0px" y="0px"
	 viewBox="0 0 979 150" style="enable-background:new 0 0 979 150;" xml:space="preserve">
<style type="text/css">
	.st0{fill:#1E7E9C;}
</style>
<g>
	<g>
		<path class="st0" d="M266.4,150h57.2V15.2h-57.2V150z M313.1,29.5h5.8v17h-5.8V29.5z M313.1,70.5h5.8v17h-5.8V70.5z M313.1,91.1
			h5.8v17h-5.8V91.1z M313.1,111.6h5.8v17h-5.8V111.6z M302.6,29.5h5.8v17h-5.8V29.5z M302.6,50h5.8v17h-5.8V50z M302.6,70.5h5.8v17
			h-5.8V70.5z M302.6,91.1h5.8v17h-5.8V91.1z M292.1,29.5h5.8v17h-5.8V29.5z M292.1,70.5h5.8v17h-5.8V70.5z M292.1,91.1h5.8v17h-5.8
			V91.1z M292.1,111.6h5.8v17h-5.8V111.6z M281.6,29.5h5.8v17h-5.8V29.5z M281.6,50h5.8v17h-5.8V50z M281.6,70.5h5.8v17h-5.8V70.5z
			 M281.6,111.6h5.8v17h-5.8V111.6z M271,50h5.8v17H271V50z M271,70.5h5.8v17H271V70.5z M271,91.1h5.8v17H271V91.1z M271,111.6h5.8
			v17H271V111.6z"/>
		<path class="st0" d="M94.6,150h45.6V41.1H94.6V150z M133.2,52.7h3.5v6.3h-3.5V52.7z M133.2,60.7h3.5v7.1h-3.5V60.7z M133.2,68.8
			h3.5v7.1h-3.5V68.8z M133.2,77.7h3.5v7.1h-3.5V77.7z M133.2,85.7h3.5v7.1h-3.5V85.7z M133.2,94.6h3.5v7.1h-3.5V94.6z M133.2,102.7
			h3.5v6.3h-3.5V102.7z M133.2,118.8h3.5v8h-3.5V118.8z M133.2,127.7h3.5v7.1h-3.5V127.7z M123.8,52.7h4.7v6.3h-4.7V52.7z
			 M123.8,68.8h4.7v7.1h-4.7V68.8z M123.8,77.7h4.7v7.1h-4.7V77.7z M123.8,94.6h4.7v7.1h-4.7V94.6z M123.8,110.7h4.7v7.1h-4.7V110.7
			z M123.8,118.8h4.7v8h-4.7V118.8z M115.7,52.7h4.7v6.3h-4.7V52.7z M115.7,60.7h4.7v7.1h-4.7V60.7z M115.7,68.8h4.7v7.1h-4.7V68.8z
			 M115.7,77.7h4.7v7.1h-4.7V77.7z M115.7,85.7h4.7v7.1h-4.7V85.7z M115.7,94.6h4.7v7.1h-4.7V94.6z M115.7,102.7h4.7v6.3h-4.7V102.7
			z M115.7,110.7h4.7v7.1h-4.7V110.7z M115.7,118.8h4.7v8h-4.7V118.8z M115.7,127.7h4.7v7.1h-4.7V127.7z M107.5,60.7h4.7v7.1h-4.7
			V60.7z M107.5,77.7h4.7v7.1h-4.7V77.7z M107.5,102.7h4.7v6.3h-4.7V102.7z M107.5,118.8h4.7v8h-4.7V118.8z M98.1,52.7h5.8v6.3h-5.8
			V52.7z M98.1,60.7h5.8v7.1h-5.8V60.7z M98.1,68.8h5.8v7.1h-5.8V68.8z M98.1,77.7h5.8v7.1h-5.8V77.7z M98.1,85.7h5.8v7.1h-5.8V85.7
			z M98.1,94.6h5.8v7.1h-5.8V94.6z M98.1,102.7h5.8v6.3h-5.8V102.7z M98.1,118.8h5.8v8h-5.8V118.8z M98.1,127.7h5.8v7.1h-5.8V127.7z
			"/>
		<path class="st0" d="M209.1,150h51.4V27.7h-51.4V150z M251.2,41.1h4.7v15.2h-4.7V41.1z M251.2,59.8h4.7V75h-4.7V59.8z M251.2,77.7
			h4.7v15.2h-4.7V77.7z M251.2,96.4h4.7v15.2h-4.7V96.4z M251.2,114.3h4.7v16.1h-4.7V114.3z M241.8,41.1h4.7v15.2h-4.7V41.1z
			 M241.8,77.7h4.7v15.2h-4.7V77.7z M232.5,59.8h4.7V75h-4.7V59.8z M232.5,96.4h4.7v15.2h-4.7V96.4z M232.5,114.3h4.7v16.1h-4.7
			V114.3z M223.1,41.1h4.7v15.2h-4.7V41.1z M223.1,59.8h4.7V75h-4.7V59.8z M223.1,77.7h4.7v15.2h-4.7V77.7z M223.1,96.4h4.7v15.2
			h-4.7V96.4z"/>
		<path class="st0" d="M440.4,150h44.4V12.5L440.4,0V150z M445.1,20.5h35v2.7h-35V20.5z M445.1,25.9h35v2.7h-35V25.9z M445.1,31.3
			h35v2.7h-35V31.3z M445.1,36.6h35v2.7h-35V36.6z M445.1,42h35v2.7h-35V42z M445.1,47.3h35V50h-35V47.3z M445.1,52.7h35v2.7h-35
			V52.7z M445.1,58h35v2.7h-35V58z M445.1,68.8h35v2.7h-35V68.8z M445.1,74.1h35v2.7h-35V74.1z M445.1,79.5h35v2.7h-35V79.5z
			 M445.1,84.8h35v2.7h-35V84.8z M445.1,90.2h35v2.7h-35V90.2z M445.1,95.5h35v2.7h-35V95.5z M445.1,100.9h35v2.7h-35V100.9z
			 M445.1,106.3h35v2.7h-35V106.3z M445.1,117h35v2.7h-35V117z M445.1,122.3h35v2.7h-35V122.3z M445.1,127.7h35v2.7h-35V127.7z"/>
		<path class="st0" d="M184.6,4.5h-32.7v10.7H146V150h57.2V15.2h-18.7V4.5z M189.3,30.4h7v6.3h-7V30.4z M189.3,48.2h7v6.3h-7V48.2z
			 M189.3,57.1h7v6.3h-7V57.1z M189.3,66.1h7v6.3h-7V66.1z M189.3,75h7v6.3h-7V75z M189.3,83.9h7v6.3h-7V83.9z M189.3,92.9h7v6.3h-7
			V92.9z M189.3,101.8h7v6.3h-7V101.8z M189.3,119.6h7v6.3h-7V119.6z M160.1,125.9h-8.2v-6.3h8.2V125.9z M160.1,117h-8.2v-6.3h8.2
			V117z M160.1,99.1h-8.2v-6.3h8.2V99.1z M160.1,90.2h-8.2v-6.3h8.2V90.2z M160.1,81.3h-8.2V75h8.2V81.3z M160.1,72.3h-8.2v-6.3h8.2
			V72.3z M160.1,54.5h-8.2v-6.3h8.2V54.5z M160.1,45.5h-8.2v-6.3h8.2V45.5z M160.1,36.6h-8.2v-6.3h8.2V36.6z M171.7,117h-7v-6.3h7
			V117z M171.7,108h-7v-6.3h7V108z M171.7,99.1h-7v-6.3h7V99.1z M171.7,90.2h-7v-6.3h7V90.2z M171.7,81.3h-7V75h7V81.3z M171.7,72.3
			h-7v-6.3h7V72.3z M171.7,63.4h-7v-6.3h7V63.4z M171.7,54.5h-7v-6.3h7V54.5z M171.7,36.6h-7v-6.3h7V36.6z M184.6,125.9h-7v-6.3h7
			V125.9z M184.6,117h-7v-6.3h7V117z M184.6,108h-7v-6.3h7V108z M184.6,99.1h-7v-6.3h7V99.1z M184.6,81.3h-7V75h7V81.3z M184.6,72.3
			h-7v-6.3h7V72.3z M184.6,63.4h-7v-6.3h7V63.4z M184.6,54.5h-7v-6.3h7V54.5z M184.6,45.5h-7v-6.3h7V45.5z M184.6,36.6h-7v-6.3h7
			V36.6z"/>
		<path class="st0" d="M426.4,19.6h-17.5V1.8H403v17.9h-16.4v14.3h-9.3V150h57.2V33.9h-8.2V19.6z M387.9,128.6H382v-8.9h5.8V128.6z
			 M387.9,115.2H382v-8.9h5.8V115.2z M387.9,101.8H382v-8.9h5.8V101.8z M387.9,88.4H382v-8.9h5.8V88.4z M387.9,75H382v-8.9h5.8V75z
			 M387.9,61.6H382v-8.9h5.8V61.6z M387.9,48.2H382v-8.9h5.8V48.2z M398.4,128.6h-5.8v-8.9h5.8V128.6z M398.4,115.2h-5.8v-8.9h5.8
			V115.2z M398.4,88.4h-5.8v-8.9h5.8V88.4z M398.4,61.6h-5.8v-8.9h5.8V61.6z M398.4,48.2h-5.8v-8.9h5.8V48.2z M398.4,33h-5.8v-8.9
			h5.8V33z M408.9,128.6H403v-8.9h5.8V128.6z M408.9,101.8H403v-8.9h5.8V101.8z M408.9,88.4H403v-8.9h5.8V88.4z M408.9,75H403v-8.9
			h5.8V75z M408.9,61.6H403v-8.9h5.8V61.6z M408.9,48.2H403v-8.9h5.8V48.2z M408.9,31.3V33H403v-1.8v-7.1h5.8V31.3z M419.4,128.6
			h-5.8v-8.9h5.8V128.6z M419.4,115.2h-5.8v-8.9h5.8V115.2z M419.4,101.8h-5.8v-8.9h5.8V101.8z M419.4,88.4h-5.8v-8.9h5.8V88.4z
			 M419.4,75h-5.8v-8.9h5.8V75z M419.4,48.2h-5.8v-8.9h5.8V48.2z M419.4,33h-5.8v-8.9h5.8V33z M429.9,128.6h-5.8v-8.9h5.8V128.6z
			 M429.9,115.2h-5.8v-8.9h5.8V115.2z M429.9,101.8h-5.8v-8.9h5.8V101.8z M429.9,88.4h-5.8v-8.9h5.8V88.4z M429.9,75h-5.8v-8.9h5.8
			V75z M429.9,61.6h-5.8v-8.9h5.8V61.6z M429.9,39.3v8.9h-5.8v-8.9H429.9z"/>
		<path class="st0" d="M0,150h42.1V78.6H0V150z M27.6,83H36v2.7h-8.4V83z M27.6,90.2H36v2.7h-8.4V90.2z M27.6,104.5H36v2.7h-8.4
			V104.5z M27.6,111.6H36v2.7h-8.4V111.6z M27.6,118.8H36v2.7h-8.4V118.8z M17.1,83H25v2.7h-7.9V83z M17.1,90.2H25v2.7h-7.9V90.2z
			 M17.1,97.3H25v2.7h-7.9V97.3z M17.1,104.5H25v2.7h-7.9V104.5z M17.1,111.6H25v2.7h-7.9V111.6z M17.1,118.8H25v2.7h-7.9V118.8z
			 M17.1,125.9H25v2.7h-7.9V125.9z M5.4,83h8.4v2.7H5.4V83z M5.4,97.3h8.4v2.7H5.4V97.3z M5.4,104.5h8.4v2.7H5.4V104.5z M5.4,118.8
			h8.4v2.7H5.4V118.8z M5.4,125.9h8.4v2.7H5.4V125.9z"/>
		<path class="st0" d="M59.6,56.3h-5.8v8h-7V150h42.1V64.3H59.6V56.3z M84.1,121.4H51.4v-2.7h32.7V121.4z M84.1,114.3H51.4v-2.7
			h32.7V114.3z M84.1,107.1H51.4v-2.7h32.7V107.1z M84.1,100H51.4v-2.7h32.7V100z M84.1,92.9H51.4v-2.7h32.7V92.9z M84.1,85.7H51.4
			V83h32.7V85.7z M84.1,78.6H51.4v-2.7h32.7V78.6z M84.1,68.8v2.7H51.4v-2.7H84.1z"/>
		<path class="st0" d="M548.5,150h57.2V26.8h-57.2V150z M591.1,68.8h7V75h-7V68.8z M591.1,77.7h7v6.3h-7V77.7z M591.1,86.6h7v6.3h-7
			V86.6z M591.1,95.5h7v6.3h-7V95.5z M591.1,104.5h7v6.3h-7V104.5z M579.5,42h7v6.3h-7V42z M579.5,50.9h7v6.3h-7V50.9z M579.5,59.8
			h7v6.2h-7V59.8z M579.5,77.7h7v6.3h-7V77.7z M579.5,86.6h7v6.3h-7V86.6z M579.5,95.5h7v6.3h-7V95.5z M579.5,104.5h7v6.3h-7V104.5z
			 M567.8,50.9h7v6.3h-7V50.9z M567.8,59.8h7v6.2h-7V59.8z M566.6,68.8h7V75h-7V68.8z M566.6,77.7h7v6.3h-7V77.7z M566.6,86.6h7v6.3
			h-7V86.6z M566.6,104.5h7v6.3h-7V104.5z M554.9,42h7v6.3h-7V42z M554.9,50.9h7v6.3h-7V50.9z M554.9,59.8h7v6.2h-7V59.8z
			 M553.8,68.8h8.2V75h-8.2V68.8z M553.8,77.7h8.2v6.3h-8.2V77.7z M553.8,95.5h8.2v6.3h-8.2V95.5z M553.8,104.5h8.2v6.3h-8.2V104.5z
			"/>
		<path class="st0" d="M666.5,150h54.1V34.9h-54.1V150z M710.3,48.2h5.8v16.1h-5.8V48.2z M710.3,87.5h5.8v16.1h-5.8V87.5z
			 M710.3,107.1h5.8v15.2h-5.8V107.1z M699.8,48.2h5.8v16.1h-5.8V48.2z M699.8,67.9h5.8v16.1h-5.8V67.9z M699.8,107.1h5.8v15.2h-5.8
			V107.1z M690.4,67.9h5.8v16.1h-5.8V67.9z M690.4,87.5h5.8v16.1h-5.8V87.5z M690.4,107.1h5.8v15.2h-5.8V107.1z M679.9,48.2h5.8
			v16.1h-5.8V48.2z M679.9,87.5h5.8v16.1h-5.8V87.5z M670.6,48.2h5.8v16.1h-5.8V48.2z M670.6,67.9h5.8v16.1h-5.8V67.9z M670.6,87.5
			h5.8v16.1h-5.8V87.5z M670.6,107.1h5.8v15.2h-5.8V107.1z"/>
		<path class="st0" d="M612.8,150h45.2V53.7h-45.2V150z M644.9,65.2h3.5v13.4h-3.5V65.2z M644.9,82.1h3.5v13.4h-3.5V82.1z
			 M644.9,97.3h3.5v13.4h-3.5V97.3z M644.9,114.3h3.5v13.4h-3.5V114.3z M636.7,65.2h3.5v13.4h-3.5V65.2z M636.7,82.1h3.5v13.4h-3.5
			V82.1z M636.7,97.3h3.5v13.4h-3.5V97.3z M636.7,114.3h3.5v13.4h-3.5V114.3z M628.5,65.2h3.5v13.4h-3.5V65.2z M628.5,82.1h3.5v13.4
			h-3.5V82.1z M628.5,97.3h3.5v13.4h-3.5V97.3z M628.5,114.3h3.5v13.4h-3.5V114.3z M620.3,65.2h3.5v13.4h-3.5V65.2z M620.3,82.1h3.5
			v13.4h-3.5V82.1z M620.3,97.3h3.5v13.4h-3.5V97.3z M620.3,114.3h3.5v13.4h-3.5V114.3z"/>
		<path class="st0" d="M727.8,150h44.4V25.9h-44.4V150z M753.7,33h11.5v2.7h-11.5V33z M753.7,38.4h11.5v2.7h-11.5V38.4z M753.7,49.1
			h11.5v2.7h-11.5V49.1z M753.7,54.5h11.5v2.7h-11.5V54.5z M753.7,59.8h11.5v2.7h-11.5V59.8z M753.7,65.2h11.5v2.7h-11.5V65.2z
			 M753.7,70.5h11.5v2.7h-11.5V70.5z M753.7,75.9h11.5v2.7h-11.5V75.9z M753.7,81.3h11.5v2.7h-11.5V81.3z M753.7,86.6h11.5v2.7
			h-11.5V86.6z M753.7,97.3h11.5v2.7h-11.5V97.3z M753.7,102.7h11.5v2.7h-11.5V102.7z M753.7,108h11.5v2.7h-11.5V108z M753.7,118.8
			h11.5v2.7h-11.5V118.8z M753.7,124.1h11.5v2.7h-11.5V124.1z M753.7,129.5h11.5v2.7h-11.5V129.5z M734.8,33h12.9v2.7h-12.9V33z
			 M734.8,38.4h12.9v2.7h-12.9V38.4z M734.8,49.1h12.9v2.7h-12.9V49.1z M734.8,54.5h12.9v2.7h-12.9V54.5z M734.8,59.8h12.9v2.7
			h-12.9V59.8z M734.8,65.2h12.9v2.7h-12.9V65.2z M734.8,70.5h12.9v2.7h-12.9V70.5z M734.8,75.9h12.9v2.7h-12.9V75.9z M734.8,81.3
			h12.9v2.7h-12.9V81.3z M734.8,86.6h12.9v2.7h-12.9V86.6z M734.8,97.3h12.9v2.7h-12.9V97.3z M734.8,102.7h12.9v2.7h-12.9V102.7z
			 M734.8,108h12.9v2.7h-12.9V108z M734.8,118.8h12.9v2.7h-12.9V118.8z M734.8,124.1h12.9v2.7h-12.9V124.1z M734.8,129.5h12.9v2.7
			h-12.9V129.5z"/>
		<path class="st0" d="M777.5,150h51.4V77.7h-51.4V150z M809.6,84.8h4.7v4.5h-4.7V84.8z M809.6,91.1h4.7v4.5h-4.7V91.1z M809.6,97.3
			h4.7v4.5h-4.7V97.3z M809.6,103.6h4.7v4.5h-4.7V103.6z M809.6,109.8h4.7v4.5h-4.7V109.8z M809.6,116.1h4.7v4.5h-4.7V116.1z
			 M809.6,122.3h4.7v4.5h-4.7V122.3z M809.6,128.6h4.7v4.5h-4.7V128.6z M800.3,84.8h4.7v4.5h-4.7V84.8z M800.3,91.1h4.7v4.5h-4.7
			V91.1z M800.3,97.3h4.7v4.5h-4.7V97.3z M800.3,103.6h4.7v4.5h-4.7V103.6z M800.3,109.8h4.7v4.5h-4.7V109.8z M800.3,116.1h4.7v4.5
			h-4.7V116.1z M800.3,122.3h4.7v4.5h-4.7V122.3z M800.3,128.6h4.7v4.5h-4.7V128.6z M790.9,84.8h4.7v4.5h-4.7V84.8z M790.9,91.1h4.7
			v4.5h-4.7V91.1z M790.9,97.3h4.7v4.5h-4.7V97.3z M790.9,103.6h4.7v4.5h-4.7V103.6z M790.9,109.8h4.7v4.5h-4.7V109.8z M790.9,116.1
			h4.7v4.5h-4.7V116.1z M790.9,122.3h4.7v4.5h-4.7V122.3z M790.9,128.6h4.7v4.5h-4.7V128.6z"/>
		<path class="st0" d="M533.9,25.9h-15.2v-9.8H514v9.8h-14v17.9h-8.2v78.6v6.3V150h49.1V43.8h-7V25.9z M509.4,130.4h-4.7v-7.1h4.7
			V130.4z M509.4,117.9h-4.7v-7.1h4.7V117.9z M509.4,105.4h-4.7v-7.1h4.7V105.4z M509.4,92.9h-4.7v-7.1h4.7V92.9z M509.4,80.4h-4.7
			v-7.1h4.7V80.4z M509.4,67.9h-4.7v-7.1h4.7V67.9z M509.4,55.4h-4.7v-7.1h4.7V55.4z M509.4,39.3h-4.7v-7.1h4.7V39.3z M518.7,130.4
			H514v-7.1h4.7V130.4z M518.7,117.9H514v-7.1h4.7V117.9z M518.7,105.4H514v-7.1h4.7V105.4z M518.7,92.9H514v-7.1h4.7V92.9z
			 M518.7,80.4H514v-7.1h4.7V80.4z M518.7,67.9H514v-7.1h4.7V67.9z M518.7,55.4H514v-7.1h4.7V55.4z M518.7,39.3H514v-7.1h4.7V39.3z
			 M528.1,130.4h-4.7v-7.1h4.7V130.4z M528.1,117.9h-4.7v-7.1h4.7V117.9z M528.1,105.4h-4.7v-7.1h4.7V105.4z M528.1,92.9h-4.7v-7.1
			h4.7V92.9z M528.1,80.4h-4.7v-7.1h4.7V80.4z M528.1,67.9h-4.7v-7.1h4.7V67.9z M528.1,55.4h-4.7v-7.1h4.7V55.4z M528.1,39.3h-4.7
			v-7.1h4.7V39.3z"/>
		<path class="st0" d="M329.4,150H368V79.5h-38.6V150z M358.7,87.5h4.7v6.3h-4.7V87.5z M358.7,107.1h4.7v7.1h-4.7V107.1z
			 M358.7,117.9h4.7v6.3h-4.7V117.9z M350.5,87.5h4.7v6.3h-4.7V87.5z M350.5,97.3h4.7v6.3h-4.7V97.3z M350.5,107.1h4.7v7.1h-4.7
			V107.1z M342.3,97.3h4.7v6.3h-4.7V97.3z M342.3,117.9h4.7v6.3h-4.7V117.9z M334.1,87.5h4.7v6.3h-4.7V87.5z M334.1,97.3h4.7v6.3
			h-4.7V97.3z M334.1,107.1h4.7v7.1h-4.7V107.1z M334.1,117.9h4.7v6.3h-4.7V117.9z"/>
		<path class="st0" d="M944,84.8V150h35V84.8H944z M952.1,125.9h-3.5v-6.3h3.5V125.9z M952.1,117h-3.5v-7.1h3.5V117z M952.1,98.2
			h-3.5V92h3.5V98.2z M960.3,117h-4.7v-7.1h4.7V117z M960.3,107.1h-4.7v-6.3h4.7V107.1z M960.3,98.2h-4.7V92h4.7V98.2z M967.3,125.9
			h-4.7v-6.3h4.7V125.9z M967.3,107.1h-4.7v-6.3h4.7V107.1z M975.5,125.9h-4.7v-6.3h4.7V125.9z M975.5,117h-4.7v-7.1h4.7V117z
			 M975.5,107.1h-4.7v-6.3h4.7V107.1z M975.5,98.2h-4.7V92h4.7V98.2z"/>
		<path class="st0" d="M914.7,90.2h4.1c-0.1-12.5-13.4-23.4-31-24.1V52.7h-4.7v13.5c-10.1,0.7-19.3,5.6-24.5,12.4
			c-1.1,1.4-1.9,2.9-2.6,4.5c-0.4,0.9-0.7,1.8-0.9,2.7c-0.4,1.4-0.6,2.9-0.6,4.5h2.9v2.7v1.8h-16.4h-5.8V150h5.8h42.1h53.7V94.6
			h-22.2V90.2z M869.2,104.5v2.7v4.5v0.9h-2.3v-0.9v-4.5v-2.7v-0.9h2.3V104.5z M843.5,103.6h2.3v0.9v2.7v4.5v0.9h-2.3V103.6z
			 M857.5,118.8v2.7v4.5h-2.3v-4.5v-2.7V117h2.3V118.8z M843.5,117h2.3v1.8v2.7v4.5h-2.3V117z M880.9,125.9h-2.3v-4.5v-2.7V117h2.3
			V125.9z M880.9,112.5h-2.3v-0.9v-4.5v-2.7v-0.9h2.3V112.5z M892.5,125.9h-2.3V117h2.3V125.9z M904.2,125.9h-2.3V117h2.3V125.9z
			 M904.2,112.5h-2.3v-8.9h2.3V112.5z M904.2,94.6h-21H868v-1.8v-1.8h10.5h4.7h21V94.6z M925.3,103.6h2.3v8.9h-2.3V103.6z
			 M925.3,117h2.3v8.9h-2.3V117z M915.9,103.6v8.9h-2.3v-8.9H915.9z"/>
	</g>
</g>
</svg>
