<?xml version="1.0" encoding="UTF-8" standalone="no"?>
<!-- Creator: CorelDRAW 2017 -->

<svg
   xmlns:dc="http://purl.org/dc/elements/1.1/"
   xmlns:cc="http://creativecommons.org/ns#"
   xmlns:rdf="http://www.w3.org/1999/02/22-rdf-syntax-ns#"
   xmlns:svg="http://www.w3.org/2000/svg"
   xmlns="http://www.w3.org/2000/svg"
   xmlns:sodipodi="http://sodipodi.sourceforge.net/DTD/sodipodi-0.dtd"
   xmlns:inkscape="http://www.inkscape.org/namespaces/inkscape"
   xml:space="preserve"
   width="24.458372mm"
   height="23.791809mm"
   version="1.1"
   style="clip-rule:evenodd;fill-rule:evenodd;image-rendering:optimizeQuality;shape-rendering:geometricPrecision;text-rendering:geometricPrecision"
   viewBox="0 0 2445.8372 2379.1809"
   id="svg3716"
   sodipodi:docname="compile.svg"
   inkscape:version="0.92.1 r15371"><metadata
     id="metadata3720"><rdf:RDF><cc:Work
         rdf:about=""><dc:format>image/svg+xml</dc:format><dc:type
           rdf:resource="http://purl.org/dc/dcmitype/StillImage" /><dc:title></dc:title></cc:Work></rdf:RDF></metadata><sodipodi:namedview
     pagecolor="#ffffff"
     bordercolor="#666666"
     borderopacity="1"
     objecttolerance="10"
     gridtolerance="10"
     guidetolerance="10"
     inkscape:pageopacity="0"
     inkscape:pageshadow="2"
     inkscape:window-width="2458"
     inkscape:window-height="1544"
     id="namedview3718"
     showgrid="false"
     fit-margin-top="0"
     fit-margin-left="0"
     fit-margin-right="0"
     fit-margin-bottom="0"
     inkscape:zoom="0.2102413"
     inkscape:cx="186.2393"
     inkscape:cy="-290.79753"
     inkscape:window-x="0"
     inkscape:window-y="0"
     inkscape:window-maximized="0"
     inkscape:current-layer="svg3716" /><defs
     id="defs3710"><style
       type="text/css"
       id="style3708"><![CDATA[
    .fil0 {fill:#030303}
   ]]></style></defs><g
     id="Слой_x0020_1"
     transform="translate(-5572.4185,-4776.8011)"><metadata
       id="CorelCorpID_0Corel-Layer" /><path
       class="fil0"
       d="m 7004.99,5970.82 -17.28,-17.26 28.57,-30.38 21.78,21.66 c 25.45,28.68 -9.67,49.36 -33.07,25.98 z M 6686.4,5652.56 5918.53,4885.49 c -30.58,-35.05 -12.54,-57.23 30.24,-24.29 l 764.96,760.99 z m -293.98,933.87 c -153.63,173.44 -259.32,265.65 -371.9,486.09 -75.62,98.87 -125.05,100.81 -170.16,52.94 l -249.68,-264.67 c -46.93,-49.79 -33.59,-103.6 26.51,-143.07 108.99,-71.73 293,-204.42 484.81,-426.85 l 335.72,-373.08 -794.86,-782.08 c -53.73,-52.74 -66.32,-108.84 -18.27,-156.52 l 173.57,-172.31 c 47.01,-46.68 106.07,-35.46 150.73,9.17 l 779.8,778.41 134.6,-149.58 c 130.13,-144.62 120.58,-252.54 -21.93,-306.17 l -391.78,-147.27 c 213.42,-144.96 449.85,-252.38 699.14,-165.9 128.72,44.69 207.51,104.68 285.7,180.32 l 386.3,373.42 c 0.83,102.68 -7.63,142.24 71.09,149.07 37.38,5.19 64.72,44.87 98.56,82.07 54.84,60.3 -30.66,120.84 -66.06,170.78 l -225.87,236.52 c -64.86,50.73 -125.95,95.52 -186.96,27.62 l -74.84,-68.66 c -71.7,-60.62 -11.4,-105.71 -71.43,-186.07 -83.61,-111.93 -121.46,-119.9 -212.76,-22.83 l -121.13,128.78 52.34,52.24 c 47.03,72.02 8.74,116.54 95.49,186.19 69.5,55.76 112.84,-13.67 160.18,93.85 -82.91,79.55 -65.85,137.12 -15.29,185.46 l 366.58,350.13 c 150.72,154.04 180.6,86.19 311.57,298.51 l -57.91,64.92 c -187.92,-72.35 -182.07,-172.56 -328.9,-306.55 l -355.28,-333.9 c -102.97,-82.22 -146.21,-40.55 -199.82,8.06 -126.71,-85.34 -1.77,-72.39 -102.43,-169.43 -64.24,-61.83 -136.21,-41.44 -190.05,-83.48 l -32.16,-31.65 z m 79.9,-695.97 27.5,-30.56 -780.63,-769.4 c -39,-33.21 -56.68,-5.9 -28.38,30.83 z m 92.04,-102.28 56.29,-62.55 -754.44,-750.57 c -68.01,-67.55 -124.09,-9.88 -56.73,57.52 z m 356.52,236.42 -57.98,61.64 c 69.17,59.24 127.77,13.75 57.98,-61.64 z m -122.17,129.89 -27.94,29.7 23.82,23.44 c 23.54,23.24 54.17,-3.86 30.14,-27.49 z m 333.91,-484.97 -803.67,859.6 c -184.49,186.14 -324.65,359.86 -417.63,520.28 l -240.58,-253.95 c 185.37,-123.01 347.6,-277.82 495.25,-452.91 l 789.27,-847.53 z M 6657.96,4981.3 c 195.67,-79.88 255.55,-120.68 455.74,-59.4 70.27,21.55 138.41,52.53 176.79,90.7 l 441.28,438.75 c 36.92,223.12 255,150.81 137.18,272.49 l -215.96,223.03 c -43.12,44.53 -161.09,15.29 -180.81,-148.59 -16.22,-134.74 -217.57,-243.89 -288.3,-170.26 l -179.83,-189.06 c 181.16,-281.2 -72.47,-370.34 -346.09,-457.66 z"
       id="path3713"
       inkscape:connector-curvature="0"
       style="fill:#030303" /></g></svg>