<?xml version="1.0" encoding="UTF-8" standalone="no"?>
<!-- Creator: CorelDRAW 2017 -->

<svg
   xmlns:dc="http://purl.org/dc/elements/1.1/"
   xmlns:cc="http://creativecommons.org/ns#"
   xmlns:rdf="http://www.w3.org/1999/02/22-rdf-syntax-ns#"
   xmlns:svg="http://www.w3.org/2000/svg"
   xmlns="http://www.w3.org/2000/svg"
   xmlns:sodipodi="http://sodipodi.sourceforge.net/DTD/sodipodi-0.dtd"
   xmlns:inkscape="http://www.inkscape.org/namespaces/inkscape"
   xml:space="preserve"
   width="41.271496mm"
   height="25.0762mm"
   version="1.1"
   style="clip-rule:evenodd;fill-rule:evenodd;image-rendering:optimizeQuality;shape-rendering:geometricPrecision;text-rendering:geometricPrecision"
   viewBox="0 0 4127.1496 2507.62"
   id="svg3688"
   sodipodi:docname="delivery.svg"
   inkscape:version="0.92.1 r15371"><metadata
     id="metadata3692"><rdf:RDF><cc:Work
         rdf:about=""><dc:format>image/svg+xml</dc:format><dc:type
           rdf:resource="http://purl.org/dc/dcmitype/StillImage" /><dc:title></dc:title></cc:Work></rdf:RDF></metadata><sodipodi:namedview
     pagecolor="#ffffff"
     bordercolor="#666666"
     borderopacity="1"
     objecttolerance="10"
     gridtolerance="10"
     guidetolerance="10"
     inkscape:pageopacity="0"
     inkscape:pageshadow="2"
     inkscape:window-width="3360"
     inkscape:window-height="1975"
     id="namedview3690"
     showgrid="false"
     inkscape:pagecheckerboard="false"
     fit-margin-top="0"
     fit-margin-left="0"
     fit-margin-right="0"
     fit-margin-bottom="0"
     inkscape:zoom="1.4859428"
     inkscape:cx="345.71679"
     inkscape:cy="-326.80743"
     inkscape:window-x="-13"
     inkscape:window-y="-13"
     inkscape:window-maximized="1"
     inkscape:current-layer="svg3688" /><defs
     id="defs3682"><style
       type="text/css"
       id="style3680"><![CDATA[
    .str0 {stroke:#2B2A29;stroke-width:7.62;stroke-miterlimit:22.9256}
    .fil0 {fill:#2B2A29}
   ]]></style></defs><g
     id="Слой_x0020_1"
     transform="translate(-1352.91,-3695.6)"><metadata
       id="CorelCorpID_0Corel-Layer" /><path
       class="fil0 str0"
       d="m 1356.72,3699.41 h 2252.31 l 1.82,1814.94 h 176.41 l 1.91,-1372.03 h 833.33 l 315.25,615.6 243.88,29.87 c 75.09,28.15 97.79,52.75 124.03,129.75 l -1.82,598.62 168.88,3.82 c 24.7,244.42 -83.8,338.67 -212.91,350.38 l -232.35,0.55 c -23.61,215.55 -228.9,328.5 -431.65,328.5 -202.75,0 -372.45,-141.01 -416.67,-330.32 H 2651.76 c -44.22,189.31 -213.92,330.32 -416.67,330.32 -236.34,0 -427.92,-191.58 -427.92,-427.93 0,-67.37 15.61,-131.02 43.31,-187.67 h -493.76 z m 2722,991.59 h 540.51 v 180.23 h -540.51 z m -184.32,-455.71 7.54,1272.52 341.58,7.54 c 125.93,-220.28 546.05,-292.19 732,0 h 225.18 l 7.53,-457.98 c 7.18,-102.24 -61.74,-182.05 -142.64,-187.68 l -213.92,-14.98 -315.33,-619.51 z m -2433.62,-431.65 2049.37,7.54 -11.17,1702.26 -919.77,0.09 c -136.28,-208.56 -498.11,-263.67 -692.6,-11.17 l -410.94,-1.9 z m 3919.6,1802.87 c -11.35,116.49 -38.4,153.26 -135.01,159.53 l -210.29,3.72 c 9.99,-66.1 -1.99,-98.15 -13.25,-161.26 z m -1182.99,9.35 c -24.42,73.09 -26.24,97.7 -26.24,155.81 l -1511.86,8.53 c -0.45,-57.02 -3.26,-100.33 -22.6,-155.81 z m 416.76,-139.01 c 166.25,3.72 279.65,122.76 281.56,292.73 1.91,169.97 -122.67,287.1 -294.64,287.1 -171.96,0 -287.19,-107.69 -289.09,-287.1 -1.91,-179.42 135.92,-296.45 302.17,-292.73 z m -2387.41,16.8 c 160.62,0 296.63,87.16 292.82,281.56 -3.81,194.39 -118.95,281.65 -279.66,285.28 -160.71,3.63 -290.73,-111.41 -294.54,-283.38 -3.81,-171.97 120.76,-283.46 281.38,-283.46 z"
       id="path3685"
       inkscape:connector-curvature="0"
       style="fill:#2b2a29;stroke:#2b2a29;stroke-width:7.61999989;stroke-miterlimit:22.92560005" /></g></svg>