<?xml version="1.0" encoding="UTF-8" standalone="no"?>
<!-- Creator: CorelDRAW 2017 -->

<svg
   xmlns:dc="http://purl.org/dc/elements/1.1/"
   xmlns:cc="http://creativecommons.org/ns#"
   xmlns:rdf="http://www.w3.org/1999/02/22-rdf-syntax-ns#"
   xmlns:svg="http://www.w3.org/2000/svg"
   xmlns="http://www.w3.org/2000/svg"
   xmlns:sodipodi="http://sodipodi.sourceforge.net/DTD/sodipodi-0.dtd"
   xmlns:inkscape="http://www.inkscape.org/namespaces/inkscape"
   xml:space="preserve"
   width="25mm"
   height="24.9998mm"
   version="1.1"
   style="clip-rule:evenodd;fill-rule:evenodd;image-rendering:optimizeQuality;shape-rendering:geometricPrecision;text-rendering:geometricPrecision"
   viewBox="0 0 2500 2499.98"
   id="svg3702"
   sodipodi:docname="design.svg"
   inkscape:version="0.92.1 r15371"><metadata
     id="metadata3706"><rdf:RDF><cc:Work
         rdf:about=""><dc:format>image/svg+xml</dc:format><dc:type
           rdf:resource="http://purl.org/dc/dcmitype/StillImage" /><dc:title></dc:title></cc:Work></rdf:RDF></metadata><sodipodi:namedview
     pagecolor="#ffffff"
     bordercolor="#666666"
     borderopacity="1"
     objecttolerance="10"
     gridtolerance="10"
     guidetolerance="10"
     inkscape:pageopacity="0"
     inkscape:pageshadow="2"
     inkscape:window-width="2400"
     inkscape:window-height="1320"
     id="namedview3704"
     showgrid="false"
     fit-margin-top="0"
     fit-margin-left="0"
     fit-margin-right="0"
     fit-margin-bottom="0"
     inkscape:zoom="0.2102413"
     inkscape:cx="138.59679"
     inkscape:cy="-29.49808"
     inkscape:window-x="497"
     inkscape:window-y="339"
     inkscape:window-maximized="0"
     inkscape:current-layer="svg3702" /><defs
     id="defs3696"><style
       type="text/css"
       id="style3694"><![CDATA[
    .fil0 {fill:#020202}
   ]]></style></defs><g
     id="Слой_x0020_1"
     transform="translate(-6832.96,-11569.55)"><metadata
       id="CorelCorpID_0Corel-Layer" /><path
       class="fil0"
       d="m 6894.57,13975.76 31.48,33.24 c 21.07,-8.01 95.14,-39.73 106.33,-53.2 l -85.49,-85.47 c -15.61,12.87 -44.38,82.75 -52.32,105.43 z m 1772.36,-2065.29 324.57,325.94 c 26.48,-12.73 42.38,-40.38 64.47,-57.67 -11.45,-33.72 -279.36,-278.42 -322.76,-331.99 -21.02,7.41 -58.8,48.28 -66.28,63.72 z m -1503.09,1503.22 -182.52,387.94 115.7,119.3 392.74,-180.37 z m 1617.41,-1619.31 326.05,327.94 c 219.82,-224.19 239.8,-159.55 -46.79,-444.75 -104.39,-103.9 -130.87,-29.45 -279.26,116.81 z M 7215.7,13360.34 c 19.28,23.88 44.77,43.54 65.62,67.49 119.74,-111.94 232.91,-231.81 350.56,-348.07 l 875.36,-875.43 c 26.12,-26.25 164.14,-160.04 174.03,-177.48 l -65.54,-65.75 z m 127.91,132.54 c 11.07,16.69 52.42,60.44 72.78,68.77 19.96,-27.36 1162.42,-1162.78 1304.96,-1306.82 21.75,-21.98 76.69,-68.97 87.57,-92.78 l -64.67,-66.69 z m 131.39,125.68 c 11.07,16.68 52.42,60.44 72.78,68.77 19.96,-27.36 1162.42,-1162.78 1304.96,-1306.82 21.75,-21.98 76.69,-68.97 87.58,-92.78 l -64.68,-66.69 z m 250.41,-895.24 c -15.86,-19.43 -33.04,-33.97 -50.78,-51.91 -18.31,-18.52 -39.75,-30.27 -49.17,-58.69 l 117.41,-113.53 -60.82,-64.47 -117.54,119.53 c -15.93,-6.65 -2.38,0.76 -15.24,-8.7 -22.72,-16.72 -160.44,-160.97 -163.91,-166.39 12.12,-23.31 92.72,-98.77 117.02,-120.92 l -62,-64.88 c -20.7,24.2 -101.12,107.33 -121.51,119.18 -15.13,-9.15 -165.29,-158.25 -174.76,-175.22 31.16,-41.59 86.43,-80.55 119.04,-122.77 l -63.85,-62.1 c -1.68,7.21 -100.31,109.71 -122.27,118.9 -18.7,-13.05 -103.21,-96.22 -110.82,-113.8 l 255.05,-255.1 c 22.07,9.77 513.44,507.22 573.78,568.26 32.48,32.86 61.4,61.33 94.12,94.28 27.95,28.14 68.59,73.76 97.19,95.9 l 67.77,-66.03 -825.07,-825.31 c -94.21,96.93 -303.72,310.53 -396.09,395.85 l 411.43,410.82 c 77.13,76.75 341.6,349.54 413.05,412.86 z m 1607.55,949.67 -824.06,-823.67 -68.11,65.99 570.55,571.75 c 29.31,28.93 178.92,171.9 188.75,194.06 l -255.17,255.03 c -18.15,-7.9 -100.27,-91.5 -114.02,-110.8 9.32,-21.89 41.38,-47.41 58.45,-64.41 12.91,-12.86 50.8,-55.46 60.7,-58.14 l -63.06,-63.28 c -40.41,33.43 -81.59,88.66 -121.93,118.67 -22.08,-12.15 -67.93,-64.24 -89.22,-85.64 -21.48,-21.58 -72.77,-67.29 -85.89,-89.04 11.94,-20.11 95.17,-101.19 118.32,-120.91 l -62.53,-64.32 c -23.58,25.68 -99.22,106.93 -122.51,118.73 -18.03,-11.24 -123.1,-120.04 -154.46,-151.3 -2.68,-2.68 -7.75,-7.51 -9.56,-9.76 -10.37,-12.93 -4.02,-1.58 -10.72,-17.71 l 117.78,-118.18 -61.04,-63.63 -116.91,119.36 c -30.01,-8.69 -81.42,-77.1 -108.51,-98.07 l -67.77,66.03 825.42,825.78 z"
       id="path3699"
       inkscape:connector-curvature="0"
       style="fill:#020202" /></g></svg>