<?xml version="1.0" encoding="utf-8"?>
<!-- Generator: Adobe Illustrator 23.0.3, SVG Export Plug-In . SVG Version: 6.00 Build 0)  -->
<svg version="1.1" id="Layer_1" xmlns="http://www.w3.org/2000/svg" xmlns:xlink="http://www.w3.org/1999/xlink" x="0px" y="0px"
	 viewBox="0 0 70 48" style="enable-background:new 0 0 70 48;" xml:space="preserve">
<style type="text/css">
	.st0{fill:#FFFFFF;}
</style>
<g>
	<path class="st0" d="M0,39.3c5,0,10,0,15,0c4.1,0,8.1,0,12.2,0c0.3,0,0.8,0.2,1,0.4c1.1,1.5,2.5,1.9,4.4,1.8c2.3-0.2,4.6,0,6.9-0.1
		c0.3,0,0.8-0.2,1-0.4c1.1-1.5,2.5-1.8,4.3-1.8c8.1,0.1,16.3,0,24.4,0c0.3,0,0.6,0,0.9,0c0,1.3,0,2.5,0,3.8
		c-0.2,0.1-0.4,0.2-0.5,0.4c-1.4,1.4-2.7,2.7-4.1,4.1c-0.2,0.2-0.6,0.4-0.9,0.4c-1.5,0-3.1,0-4.6,0c-18,0-36.1,0-54.1,0
		c-0.5,0-0.8-0.1-1.2-0.5c-1.3-1.4-2.7-2.7-4-4c-0.2-0.2-0.3-0.3-0.5-0.4C0,41.8,0,40.6,0,39.3z M68,41.4c-0.6,0-0.9,0-1.2,0
		c-7.1,0-14.1,0.1-21.2,0c-1.8,0-3.3,0.3-4.4,1.8c-0.2,0.2-0.6,0.4-1,0.4c-3,0-5.9-0.1-8.9,0.1c-1.7,0.1-3-0.3-4-1.7
		c-0.3-0.4-0.8-0.6-1.3-0.6c-7.7,0-15.5,0-23.2,0c-0.2,0-0.4,0-0.9,0c0.2,0.4,0.3,0.8,0.5,1c1,1,2,2,2.9,3c0.3,0.3,0.7,0.5,1.1,0.5
		c2.7,0,5.4,0,8.1,0c16.2,0,32.5,0,48.7,0c0.4,0,0.8-0.1,1.1-0.4c1-1,2-2,2.9-3C67.7,42.2,67.8,41.9,68,41.4z"/>
	<path class="st0" d="M61.8,0C63,0.3,64,0.9,64.7,1.9c0.6,0.8,0.9,1.6,0.9,2.5c0,10.7,0,21.5,0,32.2c0,0.1,0,0.3,0,0.4
		c-0.7,0-1.4,0-2.1,0c0-0.2,0-0.5,0-0.7c0-10.6,0-21.1,0-31.7c0-1.7-0.7-2.4-2.4-2.4c-17.2,0-34.4,0-51.5,0c-0.2,0-0.5,0-0.7,0
		c-1.6,0-2.3,0.8-2.3,2.3c0,8,0,16,0,24.1c0,2.8,0,5.6,0,8.5c-0.7,0-1.4,0-2.1,0c0-0.2,0-0.4,0-0.6c0-10.5,0-21,0-31.5
		c0-2.5,1.2-4.1,3.6-4.8C8.1,0.1,8.1,0,8.2,0C26.1,0,43.9,0,61.8,0z"/>
	<path class="st0" d="M59,6.6c-16,0-32,0-48.1,0c0,8.7,0,17.4,0,26.2c4,0,7.9,0,11.9,0c0,0.8,0,1.4,0,2.1c-4.7,0-9.4,0-14.1,0
		c0-10.2,0-20.3,0-30.4c17.5,0,34.9,0,52.4,0c0,10.2,0,20.3,0,30.4c-4.7,0-9.4,0-14.1,0c0-0.7,0-1.3,0-2.1c4,0,7.9,0,12,0
		C59,24,59,15.3,59,6.6z"/>
	<path class="st0" d="M25.2,32.8c0.7,0,1.4,0,2.1,0c0,0.7,0,1.4,0,2.1c-0.7,0-1.3,0-2.1,0C25.2,34.2,25.2,33.5,25.2,32.8z"/>
	<path class="st0" d="M31.7,32.8c0,0.7,0,1.3,0,2c-0.7,0-1.3,0-2.1,0c0-0.6,0-1.3,0-2C30.3,32.8,30.9,32.8,31.7,32.8z"/>
	<path class="st0" d="M36,34.9c-0.7,0-1.3,0-2,0c0-0.7,0-1.3,0-2.1c0.7,0,1.3,0,2,0C36,33.5,36,34.1,36,34.9z"/>
	<path class="st0" d="M38.3,32.8c0.7,0,1.4,0,2.1,0c0,0.7,0,1.4,0,2.1c-0.7,0-1.4,0-2.1,0C38.3,34.2,38.3,33.5,38.3,32.8z"/>
	<path class="st0" d="M44.8,32.8c0,0.7,0,1.3,0,2c-0.7,0-1.3,0-2.1,0c0-0.6,0-1.3,0-2C43.4,32.8,44,32.8,44.8,32.8z"/>
</g>
</svg>
