<?xml version="1.0" encoding="utf-8"?>
<!-- Generator: Adobe Illustrator 23.0.3, SVG Export Plug-In . SVG Version: 6.00 Build 0)  -->
<svg version="1.1" id="Layer_1" xmlns="http://www.w3.org/2000/svg" xmlns:xlink="http://www.w3.org/1999/xlink" x="0px" y="0px"
	 viewBox="0 0 79 47" style="enable-background:new 0 0 79 47;" xml:space="preserve">
<style type="text/css">
	.st0{fill:#FFFFFF;}
</style>
<g>
	<path class="st0" d="M70.4,29.6c0.6,0,1.1,0,1.7,0c0,1.1,0,2.2,0,3.4c0.6,0,1.1,0,1.7,0c0,0.6,0,1.2,0,1.8c-0.5,0-1,0-1.6,0
		c0,2.9,0,5.8,0,8.7c-1.2,0-2.3,0-3.5,0c0-1.7,0-3.3,0-5.2c-0.8,0-1.6-0.1-2.3,0c-1.9,0.2-3.7-0.2-5.3-1.3c-0.7-0.5-1.1-0.4-1.7,0.2
		c-0.7,0.7-1.1,1.4-1,2.4c0.1,0.7,0,1.3,0,2.1c-0.9,0-1.8,0-2.6,0c-0.6,0-1.1,0.1-1.4,0.6c-0.7,1-1.6,1.3-2.8,1.2
		c-1.3-0.1-2.7-0.1-4,0c-0.8,0-1.5-0.1-2-0.8c-0.2-0.3-0.4-0.5-0.7-0.8c-0.1,0-0.1,0.1-0.2,0.1c0,1.1,0,2.1,0,3.3
		c-1.9,0-3.8,0.1-5.6,0c-0.9,0-1.6,0.2-2.1,0.9c-0.2,0.3-0.5,0.6-0.7,0.9c-2-0.9-3.9-1.7-5.2-3.4c-0.6-0.9-1-1.8-1.4-2.8
		c-0.3-0.6-0.6-0.9-1.2-0.8c-0.7,0.2-1.2-0.2-1.6-0.7c-0.6-0.8-1.4-1.1-2.4-1c-1.8,0.1-3.6,0-5.4,0c0,0.6,0,1.1,0,1.6
		c-1,0.1-1.8,0.2-2.5-0.6c-0.7-0.8-1.5-1.6-2.3-2.3c-0.2-0.2-0.4-0.4-0.7-0.4c-1.6,0-3.2,0-4.9,0c0,1.2,0,2.3,0,3.3
		C8.5,39.9,8.5,40,8.4,40c-1.6,0.2-1.6,0.2-2.1,1.7c-0.4,1.2-0.8,2.3-1.1,3.5c-0.6,0-1.1,0-1.7,0c0-0.7-0.1-1.5,0-2.2
		c0.1-0.9-0.2-1.6-0.7-2.3C1.9,39.5,1,38.3,0.3,37C0,36.5,0.1,35.7,0,35c0-0.1,0.3-0.3,0.5-0.4c1.3-0.5,2.6-0.9,4-1.3
		C5,33.1,5.1,32.9,5,32.4c-0.5-1.9-0.9-3.8-1.4-5.7c-0.1-0.5,0-0.8,0.3-1.1c0.3-0.3,0.6-0.6,0.9-0.9c0.2-0.2,0.4-0.4,0.3-0.6
		c-0.2-1.4,0.7-2.5,1.1-3.7c0.4-1,0.9-1.3,2-1.2c1.1,0.1,2.1,0.1,3.2,0c0.3,0,0.7-0.2,0.9-0.5c1-1.4,1.9-2.8,2.8-4.2
		c0.2-0.2,0.5-0.4,0.8-0.5c0.9-0.1,1.9,0,2.9,0c0,1.7,0,3.4,0,5.2c1,0,1.8,0,2.7,0c0.6,0,1,0.1,1.3,0.5c0.9,1,1.9,1.9,2.8,2.9
		c1.1-0.6,2.2-1.1,3.2-1.6c0.2-0.1,0.3-0.3,0.4-0.5c0.3-0.6,0.6-1.3,0.9-1.9c0.6-1.3,0.6-1.3,2.3-1.1c0,1,0,2.1,0,3.1
		c0.1,0,0.1,0.1,0.2,0.1c0.6-0.6,1.2-1.1,1.7-1.7c1-1.2,2.1-1.9,3.6-2.3c0.8-0.2,1.5-0.6,2.3-0.7c0.6-0.2,0.9-0.5,0.8-1.1
		c0-0.3,0-0.5,0-0.8c1.2,0,2.3,0,3.4,0c0,1.1,0,2.2,0,3.3c1.2,0,2.3,0,3.4,0c0-0.5,0-1,0-1.5c1.8-0.8,2.5,0.6,3.5,1.6
		c1-0.5,2.1-1,3.1-1.6c0.2-0.1,0.3-0.5,0.3-0.7c0-0.9,0-1.9,0-2.9c1.1,0,2.2,0,3.4,0c0-1.2,0-2.2,0-3.5c1.2,0.6,2.3,1.1,3.5,1.7
		c0.5-1.5,1-3,1.5-4.5c0.1-0.4,0.4-0.8,0.7-1.2c1.5-1.6,3.1-3.1,4.7-4.7c0.8,0.9,2,1.4,1.8,3C70.4,3.7,70,4,69.6,4.4
		c-0.8,0.6-1,1.4-0.7,2.5c1.1-0.5,2.1-1.1,3.3-1.7c0,1.8,0,3.4,0,5.2c0.6,0,1.1,0.1,1.7,0.1c0,0.6,0,1.1,0,1.7c-0.5,0-1,0-1.6,0.1
		c-0.2,1-0.2,1.8,0.7,2.5c0.9,0.8,1.6,1.7,2.6,2.7c0-0.7,0-1.2,0-1.7c0.6,0,1.2,0,1.7,0c0,0.6,0,1.1,0,1.7c-0.5,0-1,0.1-1.7,0.1
		c0.4,1.6,0.8,3.2,1.2,4.8c0.2,0.7,0.4,1.4,0.6,2.1l0,0c-0.9-0.3-1.8-0.6-2.7-0.7c-2-0.4-3.2-1.4-3.9-3.3c-0.3-0.9-0.4-1.8-0.4-2.8
		c0-0.5,0-1.1,0-1.7c-0.6,0-1.1,0-1.7,0c0,1.4,0,2.9,0,4.3c0,0.6-0.1,1.1-0.6,1.4c-0.1,0.1-0.3,0.3-0.4,0.4c-0.8,0.9-2,1.6-2.4,2.6
		c-0.4,1-0.1,2.3-0.1,3.5c0,0.5,0,1,0,1.5c0.1,0.1,0.2,0.1,0.2,0.1c1.2-0.2,2,0.3,2.8,1.2c0.6,0.8,1.3,1.4,2,2.1
		c0.1,0,0.2,0,0.2-0.1C70.5,31.7,70.5,30.7,70.4,29.6L70.4,29.6z M17.2,36.5c0.4,0,0.7,0,1,0c2.5,0,5,0,7.5,0c0.6,0,1.1,0.1,1.4,0.6
		c0.7,0.9,1.5,1.3,2.6,1.1c0.4-0.1,0.7,0.1,0.9,0.5c0.3,0.8,0.8,1.5,1.1,2.3c0.7,1.7,1.9,2.8,3.5,3.5c0.5,0.2,0.8,0.2,1.1-0.2
		c0.5-0.8,1.3-1,2.2-0.9c1.5,0.1,3,0,4.6,0c0-2,0-3.9,0-5.7c1.4,1.1,2.5,2.4,3.7,3.5c0.2,0.2,0.6,0.4,0.9,0.4c1.5,0,3.1,0,4.6,0
		c0.3,0,0.6-0.1,0.8-0.3c0.8-1.2,2-1.6,3.3-1.4c0.1,0,0.3,0,0.6-0.1c-0.9-2.4,0.9-3.4,2.2-4.8c0.1-0.1,0.2-0.1,0.2-0.2
		c0.4-0.5,0.8-0.5,1.3-0.2c2.2,1.5,4.7,2,7.3,1.8c0.8-0.1,1.7,0,2.5,0c0.1-0.1,0.1-0.2,0.2-0.2c-0.2-0.4-0.3-0.9-0.7-1.2
		c-1-1.1-2.1-2.2-3.2-3.2c-0.3-0.3-0.7-0.4-1.1-0.4c-0.7-0.1-1.4,0-2.1,0c0-1.4,0-2.7,0-4c0-1.2-0.3-2.6,0.1-3.6
		c0.4-1.1,1.6-1.9,2.5-2.7c0.7-0.6,0.9-1.3,0.9-2.2c-0.1-1.6,0-3.2,0-5c1.2,0,2.3,0,3.4,0c0-2,0-3.8,0-5.8c-1.1,0.6-2.2,1.1-3.4,1.7
		c0-1.9,0-3.6,0-5.3c-0.9,0.8-1.9,1.4-2.3,2.7c-0.5,1.9-1.2,3.8-1.9,5.7c-0.9-0.5-1.8-0.9-2.7-1.3c0,0.9,0,1.6,0,2.4
		c-1.2,0-2.2,0-3.4,0c0,0.8,0,1.4,0,2.1c0,0.5-0.1,0.8-0.6,1c-1.1,0.5-2.2,1-3.2,1.6c-1.1,0.7-2.1,1-2.9-0.3c0,0,0,0-0.1,0
		c0,0.2,0,0.5-0.1,0.7c-2.3,0-4.6,0-6.9,0c0-0.7,0-1.4,0-2.1c-1.8,0.6-3.6,1.2-5.3,1.8c-0.4,0.1-0.7,0.3-1,0.6
		c-1.7,1.7-3.4,3.4-5.1,5.1c-0.2,0.2-0.3,0.3-0.7,0.6c0-1.2,0-2.3,0-3.3c-0.4,0.3-0.6,0.5-0.9,0.7c-1.3,0.7-2.6,1.3-3.9,2
		c-0.4,0.2-0.7,0.2-1.1-0.2c-0.8-0.8-1.6-1.6-2.4-2.4c-0.6-0.7-1.3-1-2.2-1c-1.1,0.1-2.1,0-3.2,0c0-1.8,0-3.5,0-5.5
		c-0.5,0.3-0.8,0.5-1,0.8c-0.9,1.3-1.8,2.6-2.6,4c-0.3,0.5-0.7,0.8-1.3,0.8c-1.2-0.1-2.3,0-3.5,0c-0.5,0-0.8,0.2-1,0.7
		c-0.5,0.9-0.8,1.9-0.7,2.9c0,0.3-0.1,0.7-0.3,0.9c-1.2,0.8-1.3,1.9-0.8,3.1C6,28.9,6,29.2,6.1,29.6c0.4,1.5,0.7,3,1.1,4.6
		c-1.8,0.6-3.6,1.2-5.4,1.9c1,1.6,2,3,3,4.5c0.8-0.8,0.1-2.6,2.1-2.3c0-1.2,0-2.3,0-3.4c0.2,0,0.3-0.1,0.4-0.1c2.3,0,4.6,0,6.8,0
		c0.3,0,0.6,0.2,0.8,0.4c0.7,0.7,1.4,1.5,2.2,2.3C17.1,37,17.2,36.8,17.2,36.5z M72.3,16.7c-0.3,2.7,0.7,4.7,2.5,4.8
		C74.4,19.7,74.2,17.7,72.3,16.7z M70.7,33.1c0.5,0.5,0.9,1,1.4,1.5c0-0.6,0-1,0-1.5C71.6,33.1,71.2,33.1,70.7,33.1z"/>
	<path class="st0" d="M27.4,15.7c0-0.6,0-1.1,0-1.7c1.2,0,2.3,0,3.5,0c0,0.5,0,1,0,1.7C29.8,15.7,28.6,15.7,27.4,15.7L27.4,15.7z"/>
	<path class="st0" d="M77.3,29.6c0,0.6,0,1.2,0,1.7c-0.6,0-1.1,0-1.7,0c0-0.5,0-1.1,0-1.7c0.5,0,1,0,1.6,0c0-0.6,0.1-1.1,0.1-1.7
		c0.5,0,1.1,0,1.6,0c0,0.5,0,1.1,0,1.7C78.5,29.6,78,29.6,77.3,29.6z"/>
	<path class="st0" d="M29.2,8.7c0-0.6,0-1.1,0-1.7c1.1,0,2.2,0,3.4,0c0,0.6,0,1.1,0,1.7C31.5,8.7,30.4,8.7,29.2,8.7z"/>
	<path class="st0" d="M53.2,10.5c0,0.6,0,1.1,0,1.7c-1.1,0-2.2,0-3.4,0c0-0.5,0-1.1,0-1.7C51,10.5,52.1,10.5,53.2,10.5z"/>
	<path class="st0" d="M39.5,10.6c-0.5-0.1-1-0.1-1.6-0.2c0-0.5,0-1,0-1.6c0.5,0,1.1,0,1.7,0C39.5,9.4,39.5,10,39.5,10.6L39.5,10.6z"
		/>
	<path class="st0" d="M25.8,17.3c0,0.6,0,1.1,0,1.7c-0.6,0-1.1,0-1.7,0c0-0.6,0-1.1,0-1.7C24.7,17.4,25.2,17.4,25.8,17.3
		C25.8,17.4,25.8,17.3,25.8,17.3z"/>
	<path class="st0" d="M70.5,29.6c-0.6,0-1.1,0-1.7,0c0-0.6,0-1.1,0-1.7c0.5,0,1.1,0,1.7,0C70.4,28.4,70.4,29,70.5,29.6
		C70.4,29.6,70.5,29.6,70.5,29.6z"/>
	<path class="st0" d="M61.9,1.8c0.6,0,1.1,0,1.6,0c0,0.6,0,1.1,0,1.7c-0.5,0-1.1,0-1.6,0C61.9,2.9,61.9,2.3,61.9,1.8z"/>
	<path class="st0" d="M39.4,10.6c0.6-0.1,1.2-0.2,1.8-0.2c0,0.7,0,1.2,0,1.8c-0.6,0-1.1,0-1.7,0C39.5,11.6,39.5,11.1,39.4,10.6
		C39.5,10.6,39.4,10.6,39.4,10.6z"/>
	<path class="st0" d="M77.5,24.3c0.5,0,1,0.1,1.5,0.1c0,0.6,0,1.1,0,1.7c-0.6,0-1.1,0-1.8,0C77.3,25.5,77.4,24.9,77.5,24.3
		C77.5,24.3,77.5,24.3,77.5,24.3z"/>
	<path class="st0" d="M27.4,15.7c0,0.5,0.1,1.1,0.1,1.7c-0.6,0-1.2-0.1-1.7-0.1c0,0,0,0,0,0c0-0.5-0.1-1.1-0.1-1.7
		C26.3,15.7,26.9,15.7,27.4,15.7C27.4,15.7,27.4,15.7,27.4,15.7z"/>
</g>
</svg>
