<?xml version="1.0" encoding="utf-8"?>
<!-- Generator: Adobe Illustrator 21.1.0, SVG Export Plug-In . SVG Version: 6.00 Build 0)  -->
<svg version="1.1" id="Layer_1" xmlns="http://www.w3.org/2000/svg" xmlns:xlink="http://www.w3.org/1999/xlink" x="0px" y="0px"
	 viewBox="0 0 46 65" style="enable-background:new 0 0 46 65;" xml:space="preserve">
<style type="text/css">
	.st0{fill:#E4D1F3;}
</style>
<g>
	<g>
		<path class="st0" d="M18,23.2c5.5,0,11.1,0,16.6,0c1.2,0,1.5,0.3,1.5,1.5c0,4.7,0,9.4,0,14.1c0,1.2-0.3,1.5-1.5,1.5
			c-11.1,0-22.2,0-33.3,0c-1,0-1.3-0.4-1.3-1.4c0-4.8,0-9.5,0-14.3c0-1,0.3-1.3,1.3-1.3C6.9,23.2,12.5,23.2,18,23.2z M14.5,31.7
			c0,1.5,0,3,0,4.4c0,0.4,0.1,0.6,0.5,0.6c0.9,0,1.9,0.1,2.8,0.1c2.5-0.1,4.2-1.2,4.8-3.2c0.3-0.9,0.4-1.8,0.3-2.7
			c-0.1-2.1-1.4-3.6-3.5-4.1c-1.5-0.3-2.9-0.2-4.4,0c-0.4,0-0.6,0.2-0.5,0.6C14.5,28.8,14.5,30.3,14.5,31.7z M6.9,33.3
			c0.8,0,1.5,0,2.2,0c1.7-0.1,3-1,3.4-2.3c0.6-2.2-0.8-4.2-3.1-4.2c-1.8-0.1-3.6,0-5.4,0c-0.1,0-0.2,0-0.2,0c0,3.4,0,6.7,0,10.1
			c1.1,0,2.1,0,3.2,0C6.9,35.6,6.9,34.5,6.9,33.3z M28.1,29.2c1.4,0,2.8,0,4.3,0c0-0.9,0-1.7,0-2.5c-2.5,0-4.9,0-7.5,0
			c0,0.9,0,1.7,0,2.5c0,2.3,0,4.6,0,7c0,0.2,0.2,0.5,0.3,0.6c0.9,0,1.8,0,2.8,0c0-1.3,0-2.6,0-3.9c1.4,0,2.6,0,3.9,0
			c0-0.8,0-1.5,0-2.3c-1,0-1.9,0-2.9,0c-1.1,0-1.1,0-1-1.1C28,29.4,28.1,29.3,28.1,29.2z"/>
		<path class="st0" d="M32.1,58.4c0.6-0.8,1.1-1.6,1.7-2.3c0.2-0.2,0.6-0.2,0.9-0.2c2.6,0,5.1,0,7.7,0c0.8,0,0.9,0,0.9-0.8
			c0-14,0-28.1,0-42.1c0-0.6-0.2-0.8-0.8-0.8c-2.4,0-4.8,0-7.2,0c-1.2,0-1.5-0.3-1.5-1.5c0-2.3,0-4.7,0-7.1c0-0.8,0-0.8-0.9-0.8
			c-8.7,0-17.3,0-26,0c-0.8,0-0.8,0-0.8,0.8c0,5.3,0,10.6,0,15.8c0,0.3,0,0.6,0,0.9c0,0.4-0.2,0.6-0.7,0.6c-2.2,0-2,0.3-2-1.9
			c0-5.8,0-11.6,0-17.3C3.6,0.2,3.8,0,5.2,0c10,0,19.9,0,29.8,0c0.8,0,1.3,0.2,1.9,0.8c2.7,2.7,5.4,5.4,8.1,8.1
			c0.6,0.6,0.9,1.3,0.9,2.2c0,15.2,0,30.5,0,45.7c0,1.3-0.3,1.6-1.6,1.6c-3.8,0-7.6,0-11.4,0C32.7,58.4,32.5,58.4,32.1,58.4z"/>
		<path class="st0" d="M29.6,47.6c0,1.2,0,2.3,0,3.5c0,0.8,0.1,0.8,0.9,0.8c1,0,2,0,3,0c0.3,0,0.7,0.1,0.8,0.3
			c0.1,0.2,0,0.6-0.2,0.8c-2.8,3.8-5.6,7.5-8.4,11.3c-0.6,0.8-1.2,0.8-1.8,0c-2.8-3.8-5.6-7.5-8.3-11.2c-0.2-0.2-0.4-0.7-0.2-0.8
			c0.2-0.2,0.6-0.3,0.9-0.3c1,0,1.9,0,2.9,0c0.6,0,0.8-0.2,0.8-0.8c0-2.3,0-4.5,0-6.8c0-1.4,0.4-1.8,1.8-1.8c2.1,0,4.3,0,6.4,0
			c1.1,0,1.5,0.4,1.6,1.5C29.6,45.3,29.6,46.4,29.6,47.6z"/>
		<path class="st0" d="M17.3,58.4c-0.4,0-0.6,0-0.8,0c-3.8,0-7.7,0-11.5,0c-1.2,0-1.5-0.3-1.5-1.5c0-4.5,0-9,0-13.5c0-0.9,0.1-1,1-1
			c1.8,0,1.7-0.2,1.7,1.7c0,3.6,0,7.2,0,10.8c0,0.8,0,0.9,0.9,0.9c2.5,0,5.1,0,7.6,0c0.6,0,0.9,0.2,1.2,0.6
			C16.3,57.1,16.8,57.6,17.3,58.4z"/>
		<path class="st0" d="M17.5,34.2c0-1.6,0-3.3,0-4.9c1.4-0.2,2.3,0.4,2.4,1.7c0,0.6,0,1.2-0.1,1.7C19.5,33.8,18.7,34.3,17.5,34.2z"
			/>
		<path class="st0" d="M6.9,30.8c0-0.6,0-1.1,0-1.7c0.7,0,1.3,0,2,0.2c0.2,0,0.5,0.5,0.5,0.7c0,0.3-0.4,0.6-0.6,0.7
			C8.2,30.8,7.6,30.8,6.9,30.8z"/>
	</g>
</g>
</svg>
