<?xml version="1.0" encoding="utf-8"?>
<!-- Generator: Adobe Illustrator 21.1.0, SVG Export Plug-In . SVG Version: 6.00 Build 0)  -->
<svg version="1.1" id="Layer_1" xmlns="http://www.w3.org/2000/svg" xmlns:xlink="http://www.w3.org/1999/xlink" x="0px" y="0px"
	 viewBox="0 0 65 65" style="enable-background:new 0 0 65 65;" xml:space="preserve">
<style type="text/css">
	.st0{fill:#FFFFFF;}
	.st1{fill:#6D283D;}
</style>
<circle class="st0" cx="32.5" cy="32.5" r="32.5"/>
<g>
	<g>
		<path class="st1" d="M43.9,46.2c-7.6,0.6-15.2,0.6-22.9,0c0,0.6,0,1.1,0,1.6c0,1.1-0.5,1.7-1.7,1.7c-0.8,0-1.6,0-2.5,0
			c-1,0-1.5-0.6-1.5-1.5c0-0.7,0-1.4,0-2.1c0-0.3-0.1-0.4-0.4-0.5c-0.5-0.1-0.8-0.4-1-0.9c-0.6-1.2-0.9-2.6-1.1-3.9
			c-0.2-1.6-0.3-3.2-0.4-4.8c-0.1-2.9,1-5.3,3.1-7.3c0.1-0.1,0.2-0.1,0.2-0.1c0,0,0-0.1-0.1-0.1c-0.1,0-0.2,0-0.4,0
			c-1,0-1.9,0-2.9,0c-1,0-1.5-0.5-1.5-1.5c0-0.5,0-0.9,0-1.4c0-0.8,0.5-1.3,1.4-1.4c0.6,0,1.3,0,1.9,0c0.7,0,1,0.2,1.2,0.9
			c0.1,0.3,0.2,0.6,0.3,0.8c0.1,0.2,0.2,0.5,0.4,0.7c0,0,0.1,0,0.1,0c0-0.1,0.1-0.2,0.1-0.3c0.6-2.7,1.7-5.2,3.2-7.5
			c0.9-1.4,2.2-2.2,3.8-2.5c1.6-0.2,3.1-0.5,4.7-0.5c3.3-0.1,6.7,0,10,0.1c1.2,0,2.3,0.3,3.5,0.5c1.8,0.3,3.1,1.3,4,2.8
			c1.4,2.2,2.3,4.5,2.9,7.1c0,0.1,0.1,0.2,0.1,0.3c0,0,0.1,0,0.1,0c0.1-0.3,0.3-0.5,0.4-0.8c0.5-1.5,0.5-1.6,2.2-1.6
			c0.4,0,0.8,0,1.3,0c0.8,0,1.3,0.5,1.3,1.3c0,0.5,0,1,0,1.5c0,0.9-0.5,1.4-1.4,1.4c-1.1,0-2.2,0-3.4,0c0.1,0.1,0.1,0.2,0.1,0.2
			c2.4,2.2,3.4,5,3.2,8.2c-0.1,2.1-0.2,4.2-0.8,6.2c-0.2,0.7-0.5,1.3-0.8,1.9c-0.2,0.4-0.5,0.6-0.9,0.7c-0.3,0.1-0.4,0.2-0.4,0.5
			c0,0.7,0,1.4,0,2.1c0,1-0.6,1.5-1.5,1.5c-0.9,0-1.8,0-2.6,0c-0.9,0-1.5-0.6-1.5-1.5c0-0.5,0-1.1,0-1.6
			C44,46.3,43.9,46.3,43.9,46.2z M18.6,27.4c9.3-0.8,18.6-0.8,27.8,0c0,0,0-0.1,0-0.2c-0.6-2.7-1.6-5.2-3-7.5
			c-0.1-0.2-0.4-0.4-0.6-0.5c-2-0.6-4.1-0.8-6.2-0.9c-2.7-0.1-5.3-0.1-8,0c-2.1,0.1-4.2,0.3-6.2,0.9c-0.3,0.1-0.5,0.2-0.7,0.5
			c-1.2,1.9-2,4-2.7,6.2C18.8,26.4,18.7,26.9,18.6,27.4z M32.5,33.1C32.5,33.1,32.5,33.1,32.5,33.1c-2.3,0-4.5,0-6.8,0
			c-0.9,0-1.3,0.6-0.9,1.4c0.5,1,1,1.9,1.6,2.8c0.3,0.5,0.7,0.8,1.3,0.8c3.2,0,6.4,0,9.6,0c0.7,0,1.1-0.3,1.5-0.9
			c0.5-0.9,1-1.8,1.4-2.7c0.5-0.9,0.1-1.5-0.9-1.5C37,33.1,34.7,33.1,32.5,33.1z M45.5,38.2c1.1,0,2.2,0,3.4,0
			c0.9,0,1.3-0.4,1.5-1.2c0.1-0.4,0.1-0.9,0.1-1.3c0-1.5-1-2.5-2.5-2.5c-2.9,0-5,1.3-6.4,3.9c-0.4,0.7-0.1,1.1,0.7,1.1
			C43.3,38.2,44.4,38.2,45.5,38.2z M19.4,38.2c1.1,0,2.3,0,3.4,0c0.7,0,0.9-0.5,0.7-1c-1.2-2.6-3.8-4.1-6.6-4
			c-1.3,0.1-2.1,0.8-2.3,2c-0.1,0.5-0.1,1,0,1.5c0.1,1.1,0.6,1.5,1.7,1.5C17.4,38.2,18.4,38.2,19.4,38.2z"/>
	</g>
</g>
</svg>
