<?xml version="1.0" encoding="UTF-8" standalone="no"?>
<svg
   xmlns:dc="http://purl.org/dc/elements/1.1/"
   xmlns:cc="http://creativecommons.org/ns#"
   xmlns:rdf="http://www.w3.org/1999/02/22-rdf-syntax-ns#"
   xmlns:svg="http://www.w3.org/2000/svg"
   xmlns="http://www.w3.org/2000/svg"
   id="svg8"
   version="1.1"
   viewBox="0 0 161.08235 214.80109"
   height="214.80109mm"
   width="161.08235mm">
  <defs
     id="defs2" />
  <metadata
     id="metadata5">
    <rdf:RDF>
      <cc:Work
         rdf:about="">
        <dc:format>image/svg+xml</dc:format>
        <dc:type
           rdf:resource="http://purl.org/dc/dcmitype/StillImage" />
        <dc:title></dc:title>
      </cc:Work>
    </rdf:RDF>
  </metadata>
  <g
     transform="translate(-24.645353,-6.7383158)"
     id="layer1">
    <path
       id="path4496"
       d="m 31.361609,221.2642 c -3.281617,-0.88659 -5.534341,-3.16029 -6.391457,-6.45098 -0.29344,-1.12659 -0.329107,-10.22841 -0.324427,-82.7866 0.0035,-54.154561 0.07825,-81.837474 0.222694,-82.46402 0.597283,-2.590789 2.434165,-4.885005 4.872539,-6.08567 l 1.449535,-0.713757 14.629726,-0.107536 14.629728,-0.107536 0.107536,-14.629727 0.107536,-14.629727 0.709065,-1.440003 C 62.148885,10.27514 63.534327,8.749369 64.931806,7.930563 67.054319,6.686949 65.505132,6.73862 100.6684,6.73862 c 34.79738,0 33.36883,-0.04389 35.65474,1.095499 1.24536,0.620736 47.12369,46.441278 48.0705,48.00995 1.43815,2.382722 1.33627,-2.428751 1.33047,62.830921 -0.003,39.08057 -0.079,59.47342 -0.2227,60.09654 -0.59726,2.59071 -2.43414,4.88496 -4.87244,6.08567 l -1.44944,0.71376 -12.37157,0.10753 -12.37157,0.10754 -0.10753,14.62489 -0.10754,14.62489 -0.69187,1.41381 c -0.87503,1.78809 -2.58366,3.43174 -4.52179,4.34981 l -1.45357,0.68854 -57.531748,0.0406 c -49.081649,0.0347 -57.697572,-0.004 -58.660733,-0.26439 z M 136.47789,194.71407 V 185.6836 L 101.69,185.6273 66.902106,185.571 65.611675,184.9402 c -1.649721,-0.80643 -3.509431,-2.66614 -4.315858,-4.31586 l -0.630798,-1.29043 -0.05529,-59.41363 -0.05529,-59.413631 H 51.52294 42.491438 v 71.618961 71.61897 h 46.993223 46.993229 z m 31.4005,-76.03049 V 69.539629 h -18.14422 c -11.28858,0 -18.57601,-0.0819 -19.28698,-0.21671 -2.82768,-0.53626 -5.08742,-2.26895 -6.38629,-4.89679 l -0.80994,-1.63863 -0.0583,-19.098953 -0.0583,-19.098953 H 100.77143 78.408456 v 71.618966 71.618961 h 44.734964 44.73497 z m -69.039489,33.24415 c -1.812465,-0.55607 -3.308377,-1.84997 -4.118443,-3.56227 -0.503565,-1.06443 -0.611069,-1.5769 -0.609478,-2.90542 0.0032,-2.67962 1.347529,-4.82989 3.770562,-6.03109 l 1.066286,-0.52861 h 24.088062 24.08806 l 1.21742,0.59785 c 2.40179,1.17948 3.71833,3.28752 3.72337,5.96185 0.005,2.68789 -1.35353,4.89825 -3.73052,6.06937 l -0.9952,0.49032 -23.98052,0.0367 c -13.18929,0.0202 -24.22311,-0.0377 -24.519599,-0.12869 z m -0.642749,-27.05765 c -1.407921,-0.49953 -3.267898,-2.43211 -3.756494,-3.90314 -0.50277,-1.51369 -0.379217,-4.06179 0.256712,-5.29437 0.653438,-1.26652 1.912589,-2.45844 3.269315,-3.09474 l 1.197215,-0.56148 h 23.98052 23.98053 l 1.21742,0.59785 c 1.40314,0.68905 2.61128,1.92933 3.26775,3.35465 0.69839,1.51634 0.63365,4.05702 -0.1416,5.55724 -0.69587,1.3466 -1.77194,2.46535 -3.00509,3.12428 l -0.90834,0.48536 -24.19559,0.0387 c -21.66294,0.0346 -24.296793,0.003 -25.162348,-0.30433 z m 1.10585,-26.521981 c -2.010488,-0.40595 -4.201503,-2.31643 -4.854533,-4.23297 -0.435908,-1.27932 -0.432925,-3.36053 0.0067,-4.65066 0.470115,-1.37971 2.151944,-3.17658 3.575311,-3.81986 l 1.133453,-0.51226 12.113257,-0.0622 c 13.39062,-0.0688 13.7651,-0.0387 15.65323,1.26041 1.91759,1.31934 3.0932,3.96656 2.78691,6.27551 -0.30692,2.31368 -1.60392,4.10714 -3.72588,5.15209 l -1.43913,0.70869 -12.15652,0.0352 c -6.68608,0.0193 -12.577824,-0.0499 -13.092765,-0.15388 z M 154.97407,51.526115 c 0,-0.0894 -3.14542,-3.306856 -6.98983,-7.149902 l -6.98984,-6.987357 v 7.149902 7.149902 h 6.98984 c 3.84441,0 6.98983,-0.07315 6.98983,-0.162545 z"
       style="fill:#d4d4d4;fill-opacity:1;stroke-width:0.21507196" />
  </g>
</svg>
