<svg xmlns="http://www.w3.org/2000/svg" viewBox="0 -0.001129150390625 512.0022583007812 512.0022583007812" width="100%" height="100%"  xmlns:xlink="http://www.w3.org/1999/xlink"><rect id="svgEditorBackground" x="0" y="0" width="512.0022583007812" height="512" style="fill:none;stroke:none;"/><path d="M453.554688,93.230469c-43.476563,-52.769531,-104.90234400000003,-85.449219,-172.95703199999997,-92.019531c-68.058594,-6.566407,-134.601562,13.757812,-187.367187,57.234374c-52.769531,43.476563,-85.449219,104.902344,-92.019531,172.957032c-6.570313,68.058594,13.753906,134.60156200000003,57.234374,187.371094c43.476563,52.765624,104.902344,85.44921800000003,172.960938,92.015624c8.238281,0.7968759999999975,16.484375,1.1914070000000265,24.710938000000027,1.1914070000000265c38.28515600000003,0,76.117187,-8.558594000000028,110.66796799999997,-25.183594000000028c9.953125,-4.785155999999972,14.140625,-16.73828100000003,9.351562999999999,-26.6875c-4.789062999999999,-9.953125,-16.738280999999972,-14.140625,-26.691407000000027,-9.351562999999999c-10.808592999999973,5.199219000000028,-22,9.457032000000027,-33.44921800000003,12.761719000000028v-48.41015600000003c17.820312,-6.699219000000028,34.23828100000003,-16.28125,48.671875,-28.195313l60.59375,34.94140699999997c2.3828120000000013,1.375,4.9335929999999735,2.199219000000028,7.503905999999972,2.519530999999972c7.5,2.238280999999972,15.941405999999972,-0.0625,21.203125,-6.5c32.320312,-39.515625,51.96875,-86.984375,56.82421900000003,-137.27734400000003c6.566406000000029,-68.058594,-13.757812999999999,-134.597656,-57.23828100000003,-187.367187ZM432.601562,379.921875l-39.54296800000003,-22.804687c7.957030999999972,-10.652344000000028,14.695312000000001,-22.265625999999997,20.023437,-34.62109400000003l39.46484400000003,22.75390600000003c-5.527344000000028,12.074218999999971,-12.195312999999999,23.67578100000003,-19.945313,34.671875ZM256,385.988281c-72.226562,0,-130.988281,-58.76171900000003,-130.988281,-130.988281s58.761719,-130.984375,130.988281,-130.984375s130.98828100000003,58.757813,130.98828100000003,130.984375s-58.76171899999997,130.988281,-130.98828100000003,130.988281ZM196.007812,463.488281c-34.644531,-10,-65.441406,-28.355469000000028,-90.332031,-52.55078099999997l41.65625,-24.023438c14.433594,11.914062999999999,30.855469,21.496094000000028,48.675781,28.195313ZM59.390625,345.285156l39.523437,-22.789062c5.332031999999998,12.355467999999973,12.070312999999999,23.96875,20.027344,34.62109399999997l-39.660156,22.867187c-7.65625,-10.898437000000001,-14.328125,-22.507813,-19.890625,-34.69921900000003ZM41.019531,235.24609399999997c1.0507810000000006,-10.878906,2.9023439999999994,-21.492188,5.480468999999999,-31.796875l40.824219,23.542969c-1.5078129999999987,9.117187000000001,-2.3085939999999994,18.46875,-2.3085939999999994,28.007812s0.8007810000000006,18.894531,2.3085939999999994,28.011719l-41.246094,23.78125c-5.539062999999999,-22.80859399999997,-7.4375,-46.898438,-5.058593999999999,-71.546875ZM80.242188,130.57031199999997l38.699218,22.316406999999998c-7.957031000000001,10.652343000000002,-14.695312000000001,22.261719,-20.027344,34.621093l-38.835937,-22.394531c5.675781000000001,-12.199219,12.433594,-23.757812,20.164063,-34.542969ZM147.332031,123.08593799999997l-40.359375,-23.273438c24.933594,-23.757812,55.433594,-41.527344,89.035156,-51.285156v46.363281c-17.820312,6.699218999999999,-34.242187,16.285156,-48.675781,28.195313ZM315.992188,48.51171899999997c34.04296800000003,9.828125,64.382812,27.714843000000002,89.046874,51.296875l-40.37109300000003,23.277344c-14.4375,-11.910156999999998,-30.85546899999997,-21.496094,-48.67578100000003,-28.195313ZM451.87109399999997,165.14062499999997l-38.78515600000003,22.363281c-5.3320320000000265,-12.355468000000002,-12.070312999999999,-23.964844,-20.02734399999997,-34.621094l38.65625,-22.289062c7.746094000000028,10.839844,14.496093999999971,22.40625,20.15625,34.546875ZM424.675781,283.01171899999997c1.5078129999999987,-9.117187999999999,2.308594000000028,-18.472657000000027,2.308594000000028,-28.011719s-0.8007809999999722,-18.890625,-2.308594000000028,-28.007812l40.8125,-23.535156999999998c5.875,23.324219,7.929687999999999,48.019531,5.492187999999999,73.296875c-0.9804690000000278,10.164062999999999,-2.6914070000000265,20.191405999999972,-5.082030999999972,30.027344000000028ZM275.99609399999997,40.95703099999997v44.238281c-6.5625,-0.7695310000000006,-13.230468999999971,-1.1757810000000006,-19.996094,-1.1757810000000006s-13.4375,0.40625,-20,1.1757810000000006v-44.25c13.085937999999999,-1.2109370000000013,26.457031,-1.246093000000002,39.996094,0.011718999999999369ZM275.99609399999997,471.066406c-13.234375,1.2226559999999722,-26.621094,1.2226559999999722,-39.996094,-0.01953099999997221v-46.23828100000003c6.5625,0.765625,13.234375,1.1757809999999722,20,1.1757809999999722s13.433594,-0.4101559999999722,19.996094,-1.1757809999999722ZM310.99609399999997,278.88281199999994v8.015625999999997c0,21.507812,-14.910156000000029,39.62109299999997,-35,44.68359299999997v3.4101570000000265c0,11.046874000000003,-8.953125,20,-19.996094,20c-11.046875,0,-20,-8.953125999999997,-20,-20v-2h-11.996094c-11.046875,0,-20,-8.953125999999997,-20,-19.99609399999997c0,-11.046875,8.953125,-20,20,-20h40.59375c3.6484379999999987,0,6.402344000000028,-2.621094000000028,6.402344000000028,-6.097655999999972v-8.015625999999997c0,-3.4218740000000025,-2.753905999999972,-6,-6.402344000000028,-6h-13.304687000000001c-25.539063,0,-46.316407,-21.03125,-46.316407,-46.878906v-0.84375c0,-20.109375,12.980469,-37.246094,31.027344,-43.554687v-5.597656999999998c0,-11.042968000000002,8.953125,-19.996093000000002,19.996094,-19.996093000000002c11.046875000000028,0,20.00000000000003,8.953125,20.00000000000003,19.996093000000002v3c11.042968999999971,0,19.99609399999997,8.953125999999997,19.99609399999997,20c0,11.042969,-8.953125,19.996094,-19.99609399999997,19.996094h-24.707031c-3.6015629999999987,0,-6.320312999999999,2.644531999999998,-6.320312999999999,6.15625v0.84375c0,3.6679689999999994,2.953125,6.882812999999999,6.320312999999999,6.882812999999999h13.304686999999973c25.582032000000027,0,46.398438,20.632812,46.398438,45.996093ZM310.99609399999997,278.88281199999994" style="fill:#D4D4D4;"/></svg>