<?xml version="1.0" encoding="UTF-8" standalone="no"?>
<!-- Created with Inkscape (http://www.inkscape.org/) -->

<svg
   xmlns:dc="http://purl.org/dc/elements/1.1/"
   xmlns:cc="http://creativecommons.org/ns#"
   xmlns:rdf="http://www.w3.org/1999/02/22-rdf-syntax-ns#"
   xmlns:svg="http://www.w3.org/2000/svg"
   xmlns="http://www.w3.org/2000/svg"
   xmlns:sodipodi="http://sodipodi.sourceforge.net/DTD/sodipodi-0.dtd"
   xmlns:inkscape="http://www.inkscape.org/namespaces/inkscape"
   width="210mm"
   height="297mm"
   viewBox="0 0 210 297"
   version="1.1"
   id="svg142"
   inkscape:version="0.92.1 r15371"
   sodipodi:docname="stat.svg">
  <defs
     id="defs136" />
  <sodipodi:namedview
     id="base"
     pagecolor="#ffffff"
     bordercolor="#666666"
     borderopacity="1.0"
     inkscape:pageopacity="0.0"
     inkscape:pageshadow="2"
     inkscape:zoom="0.35"
     inkscape:cx="400"
     inkscape:cy="560"
     inkscape:document-units="mm"
     inkscape:current-layer="layer1"
     showgrid="false"
     inkscape:window-width="1280"
     inkscape:window-height="744"
     inkscape:window-x="-4"
     inkscape:window-y="-4"
     inkscape:window-maximized="1" />
  <metadata
     id="metadata139">
    <rdf:RDF>
      <cc:Work
         rdf:about="">
        <dc:format>image/svg+xml</dc:format>
        <dc:type
           rdf:resource="http://purl.org/dc/dcmitype/StillImage" />
        <dc:title></dc:title>
      </cc:Work>
    </rdf:RDF>
  </metadata>
  <g
     inkscape:label="Layer 1"
     inkscape:groupmode="layer"
     id="layer1">
    <g
       id="layer1-0"
       inkscape:label="Layer 1"
       transform="matrix(0.86115338,0,0,0.78996199,17.977455,41.38858)">
      <path
         inkscape:connector-curvature="0"
         id="path3838"
         d="m 29.728144,221.71479 c -4.661924,-1.65733 -8.082699,-5.62631 -8.994916,-10.43641 -0.409777,-2.16074 -0.41386,-45.61114 -0.0045,-48.11384 0.622685,-3.80709 3.545025,-7.89584 6.835709,-9.56408 2.917856,-1.47923 4.351194,-1.65446 13.532792,-1.65446 6.638952,0 9.029174,0.10726 10.660937,0.47839 3.920707,0.89175 7.73425,4.18813 9.280538,8.02199 l 0.72441,1.79609 0.08856,24.28124 c 0.06608,18.11517 -0.0048,24.63247 -0.279185,25.66434 -1.229565,4.62442 -4.782752,8.28792 -9.395876,9.68759 -1.167972,0.35438 -3.511139,0.44454 -11.160127,0.42942 -8.623569,-0.017 -9.857352,-0.0816 -11.288322,-0.59027 z m 19.51217,-34.40329 c 0.06238,-17.60785 -0.0019,-22.3153 -0.307357,-22.50922 -0.212429,-0.13487 -3.735405,-0.24733 -7.828837,-0.24992 -7.046313,-0.004 -7.459545,0.0269 -7.760775,0.5898 -0.49056,0.91662 -0.436542,43.73101 0.0558,44.22334 0.278329,0.27833 2.341659,0.353 8.068132,0.29199 l 7.694166,-0.082 z m 38.771145,34.54106 c -4.41144,-1.35879 -7.978175,-5.03669 -9.223366,-9.51083 -0.638741,-2.29508 -0.638741,-120.340521 0,-122.635607 1.26359,-4.540245 4.844377,-8.190071 9.346988,-9.527203 2.262972,-0.67203 19.680899,-0.67203 21.943869,0 4.50261,1.337132 8.0834,4.986958 9.34699,9.527203 0.63874,2.295086 0.63874,120.340527 0,122.635607 -1.26359,4.54025 -4.84438,8.19007 -9.34699,9.5272 -2.18531,0.64897 -19.950189,0.63579 -22.067491,-0.0164 z M 106.94463,151.02392 V 92.47234 h -7.837607 -7.837618 l -0.07885,58.24423 c -0.04336,32.03432 -0.0122,58.4195 0.06923,58.63372 0.115293,0.30327 1.867716,0.37131 7.916458,0.30736 l 7.768387,-0.0821 z m 38.70431,70.73158 c -4.40113,-1.50205 -7.56381,-4.77453 -8.91418,-9.22366 -0.36048,-1.18771 -0.43139,-8.29978 -0.43417,-43.54959 -0.003,-38.15074 0.044,-42.26901 0.49793,-43.60117 1.71586,-5.03576 5.83914,-8.59547 10.87097,-9.3851 2.474,-0.38824 15.74601,-0.40667 18.38183,-0.0255 3.85342,0.55721 7.41349,2.84252 9.50345,6.10055 2.22417,3.46726 2.05841,-0.0639 2.15854,45.98365 0.0589,27.09697 -0.0178,42.04971 -0.22143,43.15119 -0.90842,4.91409 -4.34954,8.88423 -9.12427,10.52698 -1.58479,0.54525 -2.5952,0.59612 -11.44868,0.57647 -8.36552,-0.0186 -9.92648,-0.0953 -11.26999,-0.55379 z m 19.17109,-12.39514 c 0.28312,-0.28312 0.36774,-9.62184 0.36413,-40.18698 -0.002,-21.89998 -0.11599,-39.99347 -0.252,-40.20774 -0.19135,-0.30147 -2.0153,-0.37099 -8.06342,-0.30736 l -7.81614,0.0822 -0.079,40.11015 c -0.0435,22.06057 -0.0132,40.28303 0.0672,40.49434 0.2059,0.54096 15.23904,0.5556 15.77928,0.0154 z"
         style="fill:#000000;stroke-width:0.30735743" />
    </g>
  </g>
</svg>
