<?xml version="1.0" encoding="UTF-8" standalone="no"?>
<svg
   xmlns:dc="http://purl.org/dc/elements/1.1/"
   xmlns:cc="http://creativecommons.org/ns#"
   xmlns:rdf="http://www.w3.org/1999/02/22-rdf-syntax-ns#"
   xmlns:svg="http://www.w3.org/2000/svg"
   xmlns="http://www.w3.org/2000/svg"
   id="svg8"
   version="1.1"
   viewBox="0 0 367.63022 367.56964"
   height="367.56964mm"
   width="367.63022mm">
  <defs
     id="defs2" />
  <metadata
     id="metadata5">
    <rdf:RDF>
      <cc:Work
         rdf:about="">
        <dc:format>image/svg+xml</dc:format>
        <dc:type
           rdf:resource="http://purl.org/dc/dcmitype/StillImage" />
        <dc:title></dc:title>
      </cc:Work>
    </rdf:RDF>
  </metadata>
  <g
     transform="translate(63.618688,41.783287)"
     id="layer1">
    <path
       id="path37"
       d="m 45.609832,324.62215 c -2.81224,-0.8763 -9.395389,-7.19442 -55.0863639,-52.86867 -48.2861381,-48.26846 -51.9660311,-52.11934 -52.9515471,-55.41185 -1.587479,-5.30362 -1.587479,-143.32011 0,-148.62373 0.985513,-3.292508 4.664935,-7.142918 52.9425344,-55.40284 47.9718316,-47.954266 52.1470106,-51.943751 55.3797776,-52.91667 5.23522,-1.575569 143.369167,-1.575569 148.604387,0 3.23277,0.972919 7.40795,4.962404 55.37977,52.91667 48.27761,48.259922 51.95703,52.110332 52.94254,55.40284 1.58748,5.30362 1.58748,143.32011 0,148.62373 -0.98551,3.2925 -4.66493,7.14292 -52.94254,55.40284 -47.97182,47.95426 -52.147,51.94375 -55.37977,52.91667 -5.06637,1.52475 -143.987155,1.48837 -148.888788,-0.039 z M 229.0771,250.91465 274.46197,205.53401 V 142.03398 78.533966 L 229.08132,33.149093 183.70067,-12.235779 H 120.20065 56.700627 L 11.315755,33.144874 -34.069118,78.525521 v 63.500019 63.50002 l 45.380654,45.38487 45.380646,45.38488 h 63.500028 63.50002 z M 116.97676,223.71237 c -3.6604,-0.83397 -6.85513,-3.03369 -9.04278,-6.22634 -1.46036,-2.13127 -1.72908,-3.38544 -1.72908,-8.07014 0,-5.12862 0.1674,-5.75455 2.22075,-8.30399 6.48414,-8.05068 17.03774,-8.07565 23.49657,-0.0556 1.72974,2.14788 2.2383,3.56637 2.48087,6.91973 0.38743,5.3562 -0.66946,8.53159 -3.92229,11.78442 -3.59416,3.59415 -8.61947,5.06479 -13.50404,3.95191 z m -2.8792,-68.32798 c -3.04106,-1.32728 -7.37349,-6.37494 -7.88446,-9.18611 -0.23741,-1.3061 -0.33637,-19.18853 -0.21992,-39.73872 l 0.21172,-37.363976 1.72908,-2.522758 c 5.97791,-8.721851 18.54698,-8.721851 24.52489,0 l 1.72908,2.522758 0.21173,37.363976 c 0.11645,20.55019 0.0175,38.43262 -0.21992,39.73872 -0.52582,2.8928 -4.8924,7.89714 -8.04079,9.21518 -2.90904,1.21784 -9.21941,1.2026 -12.04141,-0.0291 z"
       style="fill:#2e3740;stroke-width:0.71751416;fill-opacity:1" />
  </g>
</svg>
