<?xml version="1.0" encoding="UTF-8" standalone="no"?>
<svg
   xmlns:dc="http://purl.org/dc/elements/1.1/"
   xmlns:cc="http://creativecommons.org/ns#"
   xmlns:rdf="http://www.w3.org/1999/02/22-rdf-syntax-ns#"
   xmlns:svg="http://www.w3.org/2000/svg"
   xmlns="http://www.w3.org/2000/svg"
   id="svg927"
   version="1.1"
   viewBox="0 0 169.97778 170.03005"
   height="170.03004mm"
   width="169.97778mm">
  <defs
     id="defs921" />
  <metadata
     id="metadata924">
    <rdf:RDF>
      <cc:Work
         rdf:about="">
        <dc:format>image/svg+xml</dc:format>
        <dc:type
           rdf:resource="http://purl.org/dc/dcmitype/StillImage" />
        <dc:title></dc:title>
      </cc:Work>
    </rdf:RDF>
  </metadata>
  <g
     style="display:inline"
     transform="translate(-91.939954,14.673159)"
     id="layer1">
    <g
       style="fill:#2e3740;fill-opacity:1"
       transform="translate(71.933187,19.660858)"
       id="layer1-8">
      <path
         id="path151"
         d="M 89.684131,135.6421 C 78.973616,134.81157 69.857912,132.30906 60.763643,127.70264 41.483522,117.93688 27.311514,100.18301 22.138345,79.315099 20.537057,72.855709 20.006767,68.388028 20.006767,61.356594 c 0,-7.029165 0.563121,-11.765064 2.15475,-18.121624 5.013614,-20.023107 18.32058,-37.2036219 36.575731,-47.2226289 10.28449,-5.644456 22.322067,-8.8633871 33.420211,-8.9367931 3.655679,-0.02418 4.060504,0.01142 4.984436,0.438431 1.424286,0.658242 2.865075,2.068026 3.560275,3.4836491 l 0.59585,1.213331 0.0566,31.0212779 0.0566,31.021279 31.02127,0.05662 31.02128,0.05662 1.21333,0.595851 c 1.41563,0.695192 2.82541,2.135985 3.48365,3.560271 0.42234,0.913841 0.46351,1.34906 0.45109,4.769365 -0.0406,11.204596 -3.24179,23.235626 -8.94945,33.635276 -7.34857,13.389491 -18.56565,24.184631 -32.22317,31.011081 -7.76033,3.87886 -15.20927,6.11115 -24.41067,7.31538 -2.29062,0.29979 -11.148657,0.55761 -13.334459,0.38812 z m 13.441999,-14.69157 c 10.0864,-1.54627 19.85734,-5.68171 27.69421,-11.72127 11.68294,-9.00357 19.65341,-21.669301 22.51082,-35.771561 0.282,-1.391719 0.58093,-3.085602 0.66429,-3.764178 l 0.15157,-1.233775 -30.73053,-0.05666 -30.730535,-0.05666 -1.428745,-0.703402 C 89.620588,66.837277 88.676183,65.864581 87.877765,64.162336 L 87.318339,62.969627 87.261679,32.243683 87.205019,1.5177411 85.971243,1.6685541 C 82.180645,2.1319031 76.532778,3.6032281 72.611324,5.1489391 62.159558,9.2686961 53.216072,15.996156 46.428149,24.844423 41.56788,31.179935 37.720894,39.214167 35.793516,47.054302 34.54866,52.1181 34.219407,55.072434 34.211544,61.249051 c -0.0054,4.277697 0.08274,6.198413 0.375238,8.172734 1.572804,10.616264 5.39006,19.822314 11.720398,28.265994 2.03888,2.719551 6.453901,7.382011 9.152983,9.665961 8.839455,7.47991 20.383402,12.52417 31.535561,13.77983 1.123751,0.12653 2.381921,0.26885 2.795935,0.31627 2.110908,0.24177 10.565331,-0.0748 13.334461,-0.49932 z m 16.7185,-79.827887 c -2.07391,-0.493089 -3.91245,-2.021138 -4.85772,-4.037358 l -0.5695,-1.214718 V 3.5022371 -28.866093 l 0.55942,-1.19271 c 0.77002,-1.641685 1.66632,-2.59423 3.22053,-3.422618 1.66161,-0.885624 3.4222,-1.029902 8.15663,-0.668424 13.46229,1.027859 25.51796,5.57702 36.45461,13.755996 4.12702,3.086392 10.16363,9.123006 13.25002,13.2500241 8.17669,10.933581 12.72842,22.9960889 13.756,36.4546039 0.31969,4.187157 0.19483,6.443888 -0.43001,7.771959 -0.74327,1.579807 -1.82607,2.67856 -3.40644,3.456611 l -1.4381,0.708017 -31.94279,0.03391 c -18.19224,0.01931 -32.29141,-0.04898 -32.75265,-0.158637 z m 55.54568,-14.176156 c 0,-0.755374 -1.23129,-6.297853 -1.85991,-8.372169 C 170.87058,9.7975651 166.47221,2.5123531 159.81232,-4.1475439 151.24844,-12.711419 141.65391,-17.575953 129.31114,-19.611985 l -0.80652,-0.133042 V 3.7075641 27.160152 h 23.44284 c 15.38238,0 23.44285,-0.07347 23.44285,-0.213665 z"
         style="fill:#2e3740;stroke-width:0.21507196;fill-opacity:1" />
    </g>
  </g>
</svg>
