<?xml version="1.0" encoding="UTF-8" standalone="no"?>
<svg
   xmlns:dc="http://purl.org/dc/elements/1.1/"
   xmlns:cc="http://creativecommons.org/ns#"
   xmlns:rdf="http://www.w3.org/1999/02/22-rdf-syntax-ns#"
   xmlns:svg="http://www.w3.org/2000/svg"
   xmlns="http://www.w3.org/2000/svg"
   id="svg927"
   version="1.1"
   viewBox="0 0 215.09344 215.05797"
   height="215.05797mm"
   width="215.09344mm">
  <defs
     id="defs921" />
  <metadata
     id="metadata924">
    <rdf:RDF>
      <cc:Work
         rdf:about="">
        <dc:format>image/svg+xml</dc:format>
        <dc:type
           rdf:resource="http://purl.org/dc/dcmitype/StillImage" />
        <dc:title></dc:title>
      </cc:Work>
    </rdf:RDF>
  </metadata>
  <g
     style="display:inline"
     transform="translate(-14.161616,-39.018761)"
     id="layer1">
    <path
       id="path948"
       d="m 52.777774,253.86334 c -7.912495,-0.83196 -15.837624,-4.01952 -22.044876,-8.86666 -2.069708,-1.6162 -5.430778,-4.94713 -7.089183,-7.02562 -5.247924,-6.57724 -8.373966,-14.27682 -9.243293,-22.76664 -0.318408,-3.10956 -0.318408,-134.168314 0,-137.277874 0.546739,-5.339441 1.887551,-10.075412 4.162163,-14.701449 2.237644,-4.550853 4.309625,-7.490259 7.859128,-11.149312 7.1285,-7.348512 16.295814,-11.758224 26.647688,-12.818218 3.10956,-0.318408 134.168309,-0.318408 137.277869,0 5.33944,0.546739 10.07541,1.887551 14.70145,4.162163 4.49016,2.207799 7.45742,4.289138 11.05173,7.75207 7.37155,7.102108 11.85428,16.387961 12.9158,26.754746 0.31842,3.10956 0.31842,134.168314 0,137.277874 -0.86932,8.48982 -3.99537,16.1894 -9.24329,22.76664 -1.65841,2.07849 -5.01948,5.40942 -7.08918,7.02562 -6.33583,4.94755 -14.10079,8.03341 -22.33651,8.87671 -2.71043,0.27754 -134.926165,0.26788 -137.569496,-0.0101 z"
       style="fill:#db2525;fill-opacity:1;stroke-width:0.21507196" />
    <g
       style="fill:#ffffff;fill-opacity:1"
       transform="matrix(0.9,0,0,0.9,28.549428,72.018408)"
       id="layer1-3">
      <path
         id="path112"
         d="m 67.656694,157.36833 c -6.033252,-1.02634 -11.216848,-5.28973 -13.201029,-10.85752 -0.210772,-0.59145 -0.453576,-1.15687 -0.539562,-1.2565 -0.08599,-0.0996 -0.906833,-0.0142 -1.824107,0.18991 -2.21634,0.49309 -5.805577,0.34165 -7.949304,-0.33541 -4.57197,-1.44399 -8.329198,-4.59685 -10.30552,-8.64784 C 32.932707,134.60704 8.5056566,65.751911 8.0967674,63.903757 7.9421063,63.204698 7.8263023,61.568136 7.8394254,60.26695 7.9014754,54.114521 11.322802,48.486166 16.717827,45.661271 18.471059,44.74326 124.1113,7.3743739 125.85577,7.0551189 c 5.64425,-1.032954 11.55324,0.949098 15.53971,5.2124801 2.07594,2.220149 2.83619,3.744736 5.22057,10.469294 1.19538,3.371253 3.93819,11.113844 6.09513,17.205756 l 3.92172,11.076206 13.33068,0.118705 c 12.85782,0.114496 13.3917,0.135431 15.05125,0.590192 5.95424,1.631628 10.34754,5.912862 12.18961,11.8787 l 0.49625,1.607153 0.0678,38.175275 c 0.0498,28.03587 0.002,38.6037 -0.17997,39.78831 -0.99613,6.48491 -5.68971,11.77013 -12.2594,13.80474 l -1.60473,0.49698 -57.53174,0.0301 c -31.642468,0.0166 -57.983645,-0.0467 -58.535956,-0.1407 z M 181.6382,141.4136 c 0.19743,-0.19743 0.25808,-5.52974 0.25808,-22.69009 V 96.291501 H 125.54743 69.198575 v 22.432009 c 0,17.16035 0.06065,22.49266 0.258086,22.69009 0.375851,0.37585 111.805689,0.37585 112.181539,0 z M 84.361148,118.22864 c -1.381484,-0.28757 -1.963837,-0.57456 -2.925976,-1.44193 -1.699088,-1.53175 -2.351918,-4.0333 -1.657465,-6.35118 0.338362,-1.12935 1.870921,-2.80403 3.136452,-3.42731 l 1.016845,-0.5008 H 97.373002 110.815 l 1.22679,0.60244 c 2.18612,1.07353 3.26448,2.82424 3.272,5.31204 0.004,1.38281 -0.0847,1.77646 -0.62294,2.75799 -0.67209,1.22568 -1.71936,2.18121 -3.05036,2.78316 -0.75087,0.33958 -1.98222,0.37655 -13.622272,0.409 -7.03823,0.0196 -13.183912,-0.0449 -13.65707,-0.14341 z m -33.072123,10.97338 1.984609,-0.70515 0.0611,-31.641629 0.0611,-31.641636 0.495409,-1.607153 c 1.8276,-5.928891 6.239449,-10.232572 12.188787,-11.889938 l 1.720575,-0.479318 35.994445,-0.06086 c 34.35924,-0.0581 35.9899,-0.07821 35.89455,-0.442848 -0.0549,-0.210095 -2.25212,-6.474298 -4.88261,-13.920452 -3.2037,-9.068707 -4.92808,-13.664369 -5.22301,-13.919819 -0.2804,-0.242878 -0.60511,-0.331062 -0.89422,-0.24285 -0.64517,0.196857 -102.138718,36.086348 -103.634466,36.64655 -0.880212,0.329666 -1.269264,0.598063 -1.350422,0.931627 -0.07235,0.297367 4.32822,13.001399 12.044916,34.772527 12.096365,34.127499 12.53385,35.276639 13.321235,34.990829 0.128365,-0.0466 1.126467,-0.40204 2.218,-0.78988 z M 181.89628,71.995938 c 0,-4.237743 -0.025,-4.522335 -0.416,-4.731583 -0.58175,-0.311342 -111.283948,-0.311342 -111.8657,0 -0.390984,0.209248 -0.416005,0.49384 -0.416005,4.731583 v 4.508945 h 56.348855 56.34885 z"
         style="fill:#ffffff;fill-opacity:1;stroke-width:0.21507196" />
    </g>
  </g>
</svg>
