<?xml version="1.0" encoding="UTF-8" standalone="no"?>
<svg
   xmlns:dc="http://purl.org/dc/elements/1.1/"
   xmlns:cc="http://creativecommons.org/ns#"
   xmlns:rdf="http://www.w3.org/1999/02/22-rdf-syntax-ns#"
   xmlns:svg="http://www.w3.org/2000/svg"
   xmlns="http://www.w3.org/2000/svg"
   id="svg927"
   version="1.1"
   viewBox="0 0 215.09344 215.05797"
   height="215.05797mm"
   width="215.09344mm">
  <defs
     id="defs921" />
  <metadata
     id="metadata924">
    <rdf:RDF>
      <cc:Work
         rdf:about="">
        <dc:format>image/svg+xml</dc:format>
        <dc:type
           rdf:resource="http://purl.org/dc/dcmitype/StillImage" />
        <dc:title></dc:title>
      </cc:Work>
    </rdf:RDF>
  </metadata>
  <g
     style="display:inline"
     transform="translate(-14.161616,-39.018761)"
     id="layer1">
    <path
       id="path948"
       d="m 52.777774,253.86334 c -7.912495,-0.83196 -15.837624,-4.01952 -22.044876,-8.86666 -2.069708,-1.6162 -5.430778,-4.94713 -7.089183,-7.02562 -5.247924,-6.57724 -8.373966,-14.27682 -9.243293,-22.76664 -0.318408,-3.10956 -0.318408,-134.168314 0,-137.277874 0.546739,-5.339441 1.887551,-10.075412 4.162163,-14.701449 2.237644,-4.550853 4.309625,-7.490259 7.859128,-11.149312 7.1285,-7.348512 16.295814,-11.758224 26.647688,-12.818218 3.10956,-0.318408 134.168309,-0.318408 137.277869,0 5.33944,0.546739 10.07541,1.887551 14.70145,4.162163 4.49016,2.207799 7.45742,4.289138 11.05173,7.75207 7.37155,7.102108 11.85428,16.387961 12.9158,26.754746 0.31842,3.10956 0.31842,134.168314 0,137.277874 -0.86932,8.48982 -3.99537,16.1894 -9.24329,22.76664 -1.65841,2.07849 -5.01948,5.40942 -7.08918,7.02562 -6.33583,4.94755 -14.10079,8.03341 -22.33651,8.87671 -2.71043,0.27754 -134.926165,0.26788 -137.569496,-0.0101 z"
       style="fill:#36af46;fill-opacity:1;stroke-width:0.21507196" />
    <g
       style="fill:#ffffff;fill-opacity:1"
       transform="matrix(0.9,0,0,0.9,37.691648,83.341535)"
       id="layer1-2">
      <path
         id="path138"
         d="m 77.074682,160.9654 c -4.295609,-0.94158 -7.897554,-3.72606 -9.759308,-7.54441 -1.078291,-2.21151 -1.416235,-3.76237 -1.403508,-6.44082 0.0098,-2.05928 0.09513,-2.60592 0.658716,-4.21923 1.95659,-5.60086 6.758609,-9.2689 12.547284,-9.58427 2.635496,-0.14358 4.686101,0.28087 7.094707,1.46852 2.558479,1.26156 4.946776,3.64994 6.207889,6.2081 2.046375,4.15106 2.046375,8.53284 0,12.68391 -1.272368,2.58099 -3.677505,4.97913 -6.217305,6.19921 -2.983205,1.43309 -6.213373,1.86797 -9.128475,1.22899 z m 72.264178,-0.02 c -4.02288,-0.88388 -7.79927,-3.82792 -9.55014,-7.44521 -2.0361,-4.20658 -2.03226,-8.50154 0.0113,-12.64689 1.26112,-2.55816 3.64941,-4.94654 6.20789,-6.2081 2.40861,-1.18765 4.45922,-1.6121 7.09471,-1.46852 5.79702,0.31583 10.68246,4.05119 12.57503,9.61476 0.54715,1.60846 0.62029,2.12661 0.62162,4.40381 0.001,2.2604 -0.0721,2.79425 -0.5914,4.29938 -1.99594,5.78525 -6.83427,9.44438 -12.82032,9.69575 -1.34368,0.0564 -2.55861,-0.0274 -3.54869,-0.24498 z M 62.752812,116.5709 c -2.215028,-0.71076 -4.018981,-2.31265 -4.911704,-4.36152 C 57.526716,111.48783 30.726675,0.9057138 30.726675,0.3300278 c 0,-0.07506 -5.976313,-0.137977 -13.280694,-0.139824 -14.3050329,-0.0036 -14.7909942,-0.03661 -16.65839179,-1.13098 -1.29739063,-0.760322 -2.67680301,-2.310337 -3.35918721,-3.774647 -0.4815885,-1.033427 -0.569151,-1.517339 -0.5711079,-3.156212 -0.00205,-1.720815 0.071438,-2.090805 0.6621685,-3.3336158 0.8442131,-1.7761 2.18008187,-3.11233 3.9574254,-3.958496 l 1.3979677,-0.665551 H 20.833364 38.791873 l 1.182896,0.47981 c 1.695842,0.687872 3.288254,2.164566 4.072387,3.776448 0.471971,0.970197 1.520069,4.9544278 3.830845,14.5625388 l 3.181108,13.2269252 66.345631,0.107536 c 62.44253,0.101211 66.40076,0.129594 67.28271,0.482495 2.86107,1.144815 4.84881,3.822284 5.10625,6.87807 0.098,1.163614 -1.01443,7.269621 -8.06319,44.256706 -4.4973,23.59877 -8.32576,43.328539 -8.50767,43.843929 -0.70308,1.9919 -2.22173,3.53184 -4.5275,4.59098 l -1.07536,0.49396 -51.83235,0.0433 c -49.326622,0.0412 -51.890469,0.0247 -53.034818,-0.34253 z M 159.255,100.04072 c 0.0824,-0.443585 1.66727,-8.791066 3.5219,-18.549956 l 3.37206,-17.743437 -51.72369,-0.05421 c -28.448024,-0.02981 -51.760745,-0.01714 -51.806046,0.02815 -0.0453,0.0453 1.926067,8.417175 4.380814,18.604166 l 4.463173,18.521807 h 43.820969 43.82096 z m 10.07867,-53.015238 c 0.25178,-1.119348 2.69528,-14.111824 2.69528,-14.331229 0,-0.175893 -15.60761,-0.239896 -58.49957,-0.239896 -32.174766,0 -58.499574,0.0518 -58.499574,0.115107 0,0.167999 3.426109,14.353119 3.543485,14.67109 0.07904,0.214117 11.350777,0.26884 55.375379,0.26884 h 55.27615 z"
         style="fill:#ffffff;fill-opacity:1;stroke-width:0.21507196" />
    </g>
  </g>
</svg>
