<?xml version="1.0" encoding="UTF-8" standalone="no"?>
<svg
   xmlns:dc="http://purl.org/dc/elements/1.1/"
   xmlns:cc="http://creativecommons.org/ns#"
   xmlns:rdf="http://www.w3.org/1999/02/22-rdf-syntax-ns#"
   xmlns:svg="http://www.w3.org/2000/svg"
   xmlns="http://www.w3.org/2000/svg"
   id="svg927"
   version="1.1"
   viewBox="0 0 126.01432 125.93152"
   height="125.93151mm"
   width="126.01433mm">
  <defs
     id="defs921" />
  <metadata
     id="metadata924">
    <rdf:RDF>
      <cc:Work
         rdf:about="">
        <dc:format>image/svg+xml</dc:format>
        <dc:type
           rdf:resource="http://purl.org/dc/dcmitype/StillImage" />
        <dc:title></dc:title>
      </cc:Work>
    </rdf:RDF>
  </metadata>
  <g
     style="display:inline"
     transform="translate(-167.17423,18.416772)"
     id="layer1">
    <g
       style="fill:#d4d4d4;fill-opacity:1"
       transform="translate(127.94274,-52.359391)"
       id="layer1-3">
      <path
         id="path99"
         d="m 97.308985,159.68696 c -12.156429,-0.93282 -23.966526,-5.54505 -33.93078,-13.25107 -2.674743,-2.06856 -8.649792,-8.04361 -10.718349,-10.71835 -6.836234,-8.83958 -11.081328,-18.6914 -12.716332,-29.51149 -2.588303,-17.128803 1.931543,-34.264174 12.716332,-48.209419 2.068557,-2.674743 8.043606,-8.649792 10.718349,-10.718349 9.548853,-7.384766 19.752269,-11.540885 32.188355,-13.111163 2.370625,-0.299334 10.97356,-0.299334 13.34419,0 12.43608,1.570278 22.6395,5.726397 32.18835,13.111163 2.67474,2.068557 8.64979,8.043606 10.71835,10.718349 6.83623,8.839575 11.08133,18.691399 12.71633,29.511487 2.58831,17.128802 -1.93154,34.264172 -12.71633,48.209422 -2.06856,2.67474 -8.04361,8.64979 -10.71835,10.71835 -12.67498,9.80241 -28.06039,14.4581 -43.790115,13.25107 z m 11.511595,-10.7252 c 9.66813,-1.23595 18.54039,-5.00864 26.32773,-11.19514 1.97266,-1.56713 6.43274,-6.02722 7.99988,-7.99987 12.24036,-15.40773 15.01171,-35.722814 7.32306,-53.680911 -1.66507,-3.889048 -4.10629,-7.973954 -7.03861,-11.777766 -1.59144,-2.064413 -6.16539,-6.681419 -8.28433,-8.362306 -7.82573,-6.207916 -16.4694,-9.879709 -26.41789,-11.2222 -3.22932,-0.435778 -9.754215,-0.435778 -12.983533,0 -9.948487,1.342491 -18.592158,5.014284 -26.417894,11.2222 -2.118935,1.680887 -6.692886,6.297893 -8.284323,8.362306 -2.939602,3.813253 -5.263359,7.685104 -6.945353,11.572372 -7.800459,18.027691 -5.065969,38.408825 7.229802,53.886305 1.567135,1.97265 6.027222,6.43274 7.999874,7.99987 8.66819,6.88627 18.656623,10.76225 29.753942,11.54591 1.919165,0.13553 7.508625,-0.0658 9.737645,-0.35077 z m -7.93438,-15.47102 c -2.129265,-0.48962 -3.628525,-1.70294 -4.567908,-3.69672 -0.491474,-1.04312 -0.563644,-1.38737 -0.553888,-2.64201 0.02089,-2.68676 1.289595,-4.74208 3.642061,-5.9002 1.088825,-0.53602 1.354415,-0.59157 2.828395,-0.59157 1.38467,0 1.77901,0.0714 2.65012,0.47974 3.76187,1.7635 5.02766,6.18845 2.75985,9.6479 -1.41427,2.1574 -4.23137,3.284 -6.75863,2.70286 z m 0.36065,-18.14088 c -1.743785,-0.38667 -2.857675,-1.2556 -3.634915,-2.83556 -0.595228,-1.20997 -0.60247,-1.25461 -0.579472,-3.57242 0.02792,-2.8141 0.453732,-4.82617 1.488762,-7.03489 1.883265,-4.018784 4.731195,-6.796654 9.487885,-9.254454 3.94584,-2.038834 6.22128,-5.183809 6.22128,-8.598665 0,-0.503814 -0.12104,-1.380747 -0.26899,-1.948739 -0.74973,-2.878425 -2.63467,-5.007881 -5.77196,-6.520717 -2.21819,-1.069638 -3.168,-1.268645 -6.04095,-1.26572 -2.03661,0.0021 -2.655415,0.07108 -3.786865,0.422302 -2.182579,0.677508 -3.725868,1.586015 -5.248442,3.089671 -1.893817,1.870286 -2.866267,4.034952 -2.866267,6.380282 0,1.827813 -1.207237,3.67424 -2.964391,4.533936 -1.944238,0.951227 -4.676039,0.455055 -6.038563,-1.096775 -1.32753,-1.511973 -1.666732,-3.076686 -1.286454,-5.93431 0.406899,-3.057656 1.784514,-6.458055 3.618803,-8.932375 1.174399,-1.584176 3.749803,-4.042006 5.318153,-5.075366 2.490388,-1.640874 5.397653,-2.857944 8.385201,-3.5103 2.17727,-0.475425 7.737275,-0.476236 9.910675,-0.0014 10.40467,2.272938 17.49901,10.324283 17.49901,19.859554 0,7.405202 -4.29637,14.032122 -11.49441,17.729506 -2.97363,1.52745 -4.29961,2.7066 -5.20767,4.63103 -0.34277,0.72641 -0.42579,1.20092 -0.42721,2.44161 -0.004,3.2424 -1.07165,5.2556 -3.27665,6.17691 -0.82868,0.34624 -2.24005,0.49355 -3.03656,0.31693 z"
         style="fill:#d4d4d4;stroke-width:0.18032692;fill-opacity:1" />
    </g>
  </g>
</svg>
