<?xml version="1.0" encoding="UTF-8" standalone="no"?>
<svg
   xmlns:dc="http://purl.org/dc/elements/1.1/"
   xmlns:cc="http://creativecommons.org/ns#"
   xmlns:rdf="http://www.w3.org/1999/02/22-rdf-syntax-ns#"
   xmlns:svg="http://www.w3.org/2000/svg"
   xmlns="http://www.w3.org/2000/svg"
   id="svg927"
   version="1.1"
   viewBox="0 0 215.09344 215.05797"
   height="215.05797mm"
   width="215.09344mm">
  <defs
     id="defs921" />
  <metadata
     id="metadata924">
    <rdf:RDF>
      <cc:Work
         rdf:about="">
        <dc:format>image/svg+xml</dc:format>
        <dc:type
           rdf:resource="http://purl.org/dc/dcmitype/StillImage" />
        <dc:title></dc:title>
      </cc:Work>
    </rdf:RDF>
  </metadata>
  <g
     style="display:inline"
     transform="translate(-14.161616,-39.018761)"
     id="layer1">
    <path
       id="path948"
       d="m 52.777774,253.86334 c -7.912495,-0.83196 -15.837624,-4.01952 -22.044876,-8.86666 -2.069708,-1.6162 -5.430778,-4.94713 -7.089183,-7.02562 -5.247924,-6.57724 -8.373966,-14.27682 -9.243293,-22.76664 -0.318408,-3.10956 -0.318408,-134.168314 0,-137.277874 0.546739,-5.339441 1.887551,-10.075412 4.162163,-14.701449 2.237644,-4.550853 4.309625,-7.490259 7.859128,-11.149312 7.1285,-7.348512 16.295814,-11.758224 26.647688,-12.818218 3.10956,-0.318408 134.168309,-0.318408 137.277869,0 5.33944,0.546739 10.07541,1.887551 14.70145,4.162163 4.49016,2.207799 7.45742,4.289138 11.05173,7.75207 7.37155,7.102108 11.85428,16.387961 12.9158,26.754746 0.31842,3.10956 0.31842,134.168314 0,137.277874 -0.86932,8.48982 -3.99537,16.1894 -9.24329,22.76664 -1.65841,2.07849 -5.01948,5.40942 -7.08918,7.02562 -6.33583,4.94755 -14.10079,8.03341 -22.33651,8.87671 -2.71043,0.27754 -134.926165,0.26788 -137.569496,-0.0101 z"
       style="fill:#1990ea;fill-opacity:1;stroke-width:0.21507196" />
    <g
       style="fill:#ffffff;fill-opacity:1"
       transform="matrix(0.9,0,0,0.9,28.82767,11.398765)"
       id="layer1-6">
      <path
         id="path21"
         d="m 32.681906,237.9146 c -2.035811,-0.48727 -4.013465,-2.15745 -4.947283,-4.17812 l -0.608024,-1.31569 -0.05849,-22.82992 -0.05849,-22.82991 -2.737447,-0.0787 c -2.395666,-0.0688 -2.885139,-0.14791 -3.920345,-0.63321 -1.495638,-0.70115 -2.828122,-2.03422 -3.595722,-3.59731 l -0.598181,-1.21809 v -43.9822 -43.982214 l 0.56675,-1.208707 c 0.768216,-1.638371 1.917526,-2.853248 3.377553,-3.57024 l 1.217424,-0.597852 23.0127,-0.107536 23.0127,-0.107536 0.107536,-10.108382 0.107536,-10.108382 0.557967,-1.182896 c 0.706434,-1.497647 2.039844,-2.829199 3.600737,-3.595723 l 1.218095,-0.59818 h 31.185438 31.18543 l 1.21809,0.59818 c 1.56089,0.766524 2.8943,2.098076 3.60074,3.595723 l 0.55796,1.182896 0.10754,10.108382 0.10754,10.108382 23.0127,0.107536 23.0127,0.107536 1.21742,0.597852 c 1.46003,0.716992 2.60934,1.931869 3.37755,3.57024 l 0.56676,1.208707 v 43.982214 43.98222 l -0.59819,1.21809 c -0.76759,1.56309 -2.10007,2.89616 -3.59572,3.59731 -1.03521,0.4853 -1.52467,0.56436 -3.92035,0.63321 l -2.73744,0.0787 -0.0585,22.82991 -0.0585,22.82992 -0.60802,1.31569 c -0.72511,1.56905 -1.96982,2.84315 -3.58588,3.67055 l -1.1829,0.60563 -71.18882,0.0326 c -39.153841,0.0179 -71.495611,-0.0409 -71.870589,-0.13063 z m 133.866304,-32.86171 0.055,-18.33489 h -20.19947 -20.19946 l -0.0723,3.49492 c -0.0702,3.39361 -0.0904,3.52768 -0.69841,4.62498 -0.68173,1.2304 -1.69549,2.1222 -2.90315,2.55388 -1.12653,0.40269 -35.689567,0.40269 -36.816101,0 -1.207655,-0.43168 -2.22142,-1.32348 -2.903151,-2.55388 -0.607987,-1.0973 -0.628232,-1.23137 -0.69841,-4.62498 L 82.040488,186.718 H 61.842216 41.643956 v 18.24527 c 0,10.0349 0.06469,18.30996 0.143748,18.38902 0.07906,0.0791 28.170147,0.11939 62.424636,0.0896 l 62.28089,-0.0541 z m -51.34964,-25.64734 v -7.31244 H 104.12236 93.046155 v 7.31244 7.31245 h 11.076205 11.07621 z M 82.112748,168.59819 c 0.07018,-3.39361 0.09042,-3.52768 0.69841,-4.62498 0.681731,-1.2304 1.695496,-2.1222 2.903151,-2.55388 1.126534,-0.40269 35.689571,-0.40269 36.816101,0 1.20766,0.43168 2.22142,1.32348 2.90315,2.55388 0.60799,1.0973 0.62824,1.23137 0.69841,4.62498 l 0.0723,3.49492 h 25.68259 25.6826 v -34.84166 -34.84166 h -73.4471 -73.447074 v 34.84166 34.84166 H 56.357881 82.040475 Z M 126.1171,82.139262 126.1745,76.601159 H 104.12599 82.077485 v 5.448489 c 0,2.996671 0.06498,5.513468 0.144395,5.592886 0.07942,0.07942 9.975416,0.119743 21.99111,0.08961 l 21.84671,-0.05478 z"
         style="fill:#ffffff;fill-opacity:1;stroke-width:0.21507196" />
    </g>
  </g>
</svg>
