<?xml version="1.0" encoding="UTF-8" standalone="no"?>
<svg
   xmlns:dc="http://purl.org/dc/elements/1.1/"
   xmlns:cc="http://creativecommons.org/ns#"
   xmlns:rdf="http://www.w3.org/1999/02/22-rdf-syntax-ns#"
   xmlns:svg="http://www.w3.org/2000/svg"
   xmlns="http://www.w3.org/2000/svg"
   id="svg927"
   version="1.1"
   viewBox="0 0 195.71548 122.21945"
   height="122.21944mm"
   width="195.71548mm">
  <defs
     id="defs921" />
  <metadata
     id="metadata924">
    <rdf:RDF>
      <cc:Work
         rdf:about="">
        <dc:format>image/svg+xml</dc:format>
        <dc:type
           rdf:resource="http://purl.org/dc/dcmitype/StillImage" />
        <dc:title></dc:title>
      </cc:Work>
    </rdf:RDF>
  </metadata>
  <g
     style="display:inline"
     transform="translate(-142.08401,7.748451)"
     id="layer1">
    <g
       style="fill:#d4d4d4;fill-opacity:1"
       transform="translate(131.89457,-85.293517)"
       id="layer1-9">
      <path
         id="path47"
         d="m 15.853659,199.40132 c -0.669948,-0.21454 -1.560973,-0.60199 -1.980054,-0.861 -1.17988,-0.72921 -2.64214,-2.49253 -3.188689,-3.8452 l -0.495472,-1.22626 V 138.62551 83.782153 l 0.518859,-1.290432 c 0.709726,-1.76513 2.662666,-3.718069 4.427796,-4.427796 l 1.290432,-0.518859 h 91.620659 91.62065 l 1.29043,0.518859 c 1.76513,0.709727 3.71807,2.662666 4.4278,4.427796 l 0.51886,1.290432 v 54.843357 54.84335 l -0.51886,1.29043 c -0.70973,1.76513 -2.66267,3.71807 -4.4278,4.4278 l -1.29043,0.51886 -91.29804,0.0427 c -87.646508,0.041 -91.346772,0.0271 -92.516141,-0.34735 z M 169.97943,181.80121 c 1.90851,-5.43799 5.9883,-10.82124 10.77346,-14.21549 2.04188,-1.44837 5.37973,-3.17012 7.51614,-3.87703 l 1.29043,-0.42698 v -24.6562 -24.6562 l -1.29043,-0.42699 c -8.15313,-2.69774 -15.40401,-9.8705 -18.2896,-18.092513 l -0.58497,-1.666808 H 108.04719 46.699918 l -0.584979,1.666808 c -1.908505,5.437983 -5.988293,10.821233 -10.773453,14.215493 -2.041878,1.44837 -5.379728,3.17012 -7.516141,3.87702 l -1.290432,0.42699 v 24.6562 24.6562 l 1.290432,0.42698 c 8.153124,2.69775 15.404013,9.87051 18.289594,18.09252 l 0.584979,1.66681 h 61.347272 61.34727 z m -64.44558,-16.83173 c -5.02284,-0.79607 -9.726752,-3.43196 -13.08247,-7.33091 -4.517625,-5.24894 -6.745186,-11.5279 -6.745186,-19.01306 0,-3.83103 0.352587,-6.19875 1.409201,-9.46317 2.702906,-8.35064 9.00547,-14.68068 16.415285,-16.48684 2.6826,-0.65389 6.35041,-0.65389 9.03302,0 7.40981,1.80616 13.71237,8.1362 16.41528,16.48684 1.05661,3.26442 1.4092,5.63214 1.4092,9.46317 0,7.48516 -2.22756,13.76412 -6.74519,19.01306 -2.7915,3.24339 -7.16745,5.99476 -10.97176,6.89848 -2.14365,0.50922 -5.40582,0.70687 -7.13738,0.43243 z m 4.49582,-12.36619 c 4.41574,-1.31133 7.79445,-6.65272 8.16145,-12.90242 0.15072,-2.56651 -0.14399,-4.70075 -0.98778,-7.15355 -1.20679,-3.50797 -3.37354,-6.19204 -6.00508,-7.43882 -1.23388,-0.58459 -1.66698,-0.67775 -3.15107,-0.67775 -1.48409,0 -1.91719,0.0932 -3.15108,0.67775 -2.63259,1.24728 -4.80094,3.93404 -6.003477,7.43882 -1.419366,4.13672 -1.419366,8.01967 0,12.15639 2.032257,5.92296 6.683517,9.22214 11.137037,7.89958 z m -56.963426,-8.18541 c -1.370463,-0.42193 -3.012561,-1.94392 -3.632153,-3.36648 -1.410556,-3.23859 0.400987,-7.24443 3.722141,-8.2307 1.666483,-0.4949 12.133616,-0.46888 13.690773,0.034 2.477668,0.80019 4.096065,3.08029 4.096065,5.77078 0,2.69049 -1.618397,4.97059 -4.096065,5.77079 -1.509246,0.48743 -12.213197,0.5042 -13.780761,0.0216 z m 96.105116,-0.0327 c -2.41124,-0.80379 -4.02006,-3.1088 -4.02006,-5.75968 0,-2.69049 1.6184,-4.97059 4.09607,-5.77078 1.55716,-0.50291 12.02429,-0.52893 13.69077,-0.034 2.39401,0.71094 4.21669,3.22009 4.21669,5.80481 0,2.58472 -1.82268,5.09387 -4.21669,5.80482 -1.6216,0.48156 -12.29171,0.44658 -13.76678,-0.0451 z"
         style="fill:#d4d4d4;stroke-width:0.21507196;fill-opacity:1" />
    </g>
  </g>
</svg>
