<?xml version="1.0" encoding="UTF-8" standalone="no"?>
<!-- Created with Inkscape (http://www.inkscape.org/) -->

<svg
   xmlns:dc="http://purl.org/dc/elements/1.1/"
   xmlns:cc="http://creativecommons.org/ns#"
   xmlns:rdf="http://www.w3.org/1999/02/22-rdf-syntax-ns#"
   xmlns:svg="http://www.w3.org/2000/svg"
   xmlns="http://www.w3.org/2000/svg"
   xmlns:sodipodi="http://sodipodi.sourceforge.net/DTD/sodipodi-0.dtd"
   xmlns:inkscape="http://www.inkscape.org/namespaces/inkscape"
   width="210mm"
   height="297mm"
   viewBox="0 0 210 297"
   version="1.1"
   id="svg142"
   inkscape:version="0.92.1 r15371"
   sodipodi:docname="settings.svg">
  <defs
     id="defs136" />
  <sodipodi:namedview
     id="base"
     pagecolor="#ffffff"
     bordercolor="#666666"
     borderopacity="1.0"
     inkscape:pageopacity="0.0"
     inkscape:pageshadow="2"
     inkscape:zoom="0.35"
     inkscape:cx="400"
     inkscape:cy="560"
     inkscape:document-units="mm"
     inkscape:current-layer="layer1"
     showgrid="false"
     inkscape:window-width="1280"
     inkscape:window-height="744"
     inkscape:window-x="-4"
     inkscape:window-y="-4"
     inkscape:window-maximized="1" />
  <metadata
     id="metadata139">
    <rdf:RDF>
      <cc:Work
         rdf:about="">
        <dc:format>image/svg+xml</dc:format>
        <dc:type
           rdf:resource="http://purl.org/dc/dcmitype/StillImage" />
        <dc:title></dc:title>
      </cc:Work>
    </rdf:RDF>
  </metadata>
  <g
     inkscape:label="Layer 1"
     inkscape:groupmode="layer"
     id="layer1">
    <g
       id="layer1-2"
       inkscape:label="Layer 1"
       transform="matrix(0.86174837,0,0,0.86060286,19.503784,-28.482671)">
      <path
         inkscape:connector-curvature="0"
         id="path3859"
         d="m 97.718552,231.52054 c -1.081222,-0.24587 -3.095956,-1.00685 -4.477186,-1.69108 -6.232726,-3.08754 -10.165635,-9.03416 -10.78165,-16.30201 -0.121492,-1.43338 -0.40762,-2.97429 -0.635843,-3.42424 -0.882247,-1.7394 -3.443543,-2.96865 -5.414952,-2.59882 -0.604744,0.11346 -1.759799,0.80479 -2.719025,1.62743 -5.403611,4.63415 -11.187002,6.38282 -17.205924,5.2024 -4.115461,-0.80713 -7.315932,-2.5287 -10.283225,-5.53149 -2.780922,-2.81419 -4.092518,-5.13249 -5.073272,-8.9672 -1.58637,-6.20265 -0.04928,-12.34298 4.434421,-17.71451 1.082449,-1.29679 2.058594,-2.76987 2.169211,-3.2735 0.314038,-1.42981 -0.33122,-3.25703 -1.518205,-4.29922 -1.098821,-0.96478 -1.630866,-1.09256 -5.903325,-1.41786 C 29.152861,172.281 20.7663,160.96507 23.116878,149.93246 c 1.835968,-8.61725 8.987516,-14.79005 18.022329,-15.55583 1.433384,-0.1215 2.974295,-0.40763 3.424247,-0.63585 1.732122,-0.87855 2.968791,-3.4428 2.602363,-5.39603 -0.118672,-0.63257 -0.963398,-1.95457 -2.181038,-3.41332 -5.580816,-6.68589 -6.549002,-14.6845 -2.687176,-22.19994 1.499573,-2.918299 5.299236,-6.705034 8.104518,-8.07695 7.610755,-3.722019 15.507615,-2.714825 22.143523,2.824271 2.621482,2.18819 3.567602,2.534199 5.521188,2.01918 2.958167,-0.77985 3.616481,-1.84958 3.958883,-6.43301 0.634558,-8.49419 5.84647,-15.127814 13.816727,-17.58567 3.242803,-1.00001 7.834678,-0.998031 11.064868,0.0048 4.04555,1.255927 7.49087,3.632279 9.866,6.804926 2.55444,3.412151 3.57519,6.169248 3.97693,10.741884 0.30127,3.429018 0.60007,4.14076 2.25803,5.3786 1.32313,0.98787 3.78443,0.88136 5.13498,-0.2222 4.80906,-3.929554 7.00412,-5.107349 11.04426,-5.925987 6.3773,-1.292206 12.52005,0.666176 17.36149,5.535047 2.78196,2.797719 4.08935,5.104579 5.07328,8.951689 1.58637,6.20265 0.0493,12.34298 -4.43443,17.71451 -2.18819,2.62149 -2.5342,3.56761 -2.01918,5.52119 0.77986,2.95817 1.84958,3.61648 6.43301,3.95888 6.60433,0.49338 11.93477,3.60102 15.41635,8.98771 3.50738,5.42659 3.87508,13.42132 0.8867,19.27903 -2.98796,5.85689 -10.10653,10.4404 -16.22609,10.44766 -3.172,0.004 -5.29082,1.21975 -5.94813,3.41364 -0.51401,1.71564 -0.11186,3.0448 1.4844,4.90611 4.63416,5.40361 6.38283,11.187 5.2024,17.20592 -0.80713,4.11546 -2.5287,7.31593 -5.53149,10.28322 -2.81419,2.78093 -5.13249,4.09252 -8.9672,5.07327 -6.20265,1.58638 -12.34298,0.0493 -17.71451,-4.43442 -1.29679,-1.08244 -2.76986,-2.05859 -3.2735,-2.1692 -1.42981,-0.31404 -3.25703,0.33121 -4.29922,1.5182 -0.96478,1.09882 -1.09256,1.63087 -1.41786,5.90332 -0.58168,7.63984 -6.26575,14.47572 -13.99886,16.83558 -2.36429,0.72149 -7.05319,0.88339 -9.496118,0.32788 z m 7.190938,-12.994 c 2.58571,-1.27381 3.53231,-3.10008 3.85687,-7.44107 0.34665,-4.63649 1.46266,-7.59614 4.06754,-10.7871 0.7504,-0.91925 2.14166,-2.20502 3.09167,-2.85727 6.79335,-4.66409 15.16699,-4.22932 21.4663,1.11455 1.10014,0.93328 2.42206,1.915 2.9376,2.18159 4.39836,2.27448 9.65179,-1.02602 9.65179,-6.0638 0,-2.0084 -0.62831,-3.33682 -2.76213,-5.83991 -2.97902,-3.49455 -4.351,-7.1116 -4.351,-11.47082 0,-6.17111 3.39072,-12.02961 8.64872,-14.94328 2.50498,-1.38811 4.64755,-2.00528 7.76196,-2.23582 3.16804,-0.23451 4.28245,-0.58156 5.60984,-1.74702 3.07318,-2.69829 3.1709,-7.31684 0.2142,-10.12306 -1.23573,-1.17284 -2.89042,-1.78361 -4.83212,-1.78361 -4.66249,0 -9.19998,-1.7274 -12.39999,-4.72061 -2.34268,-2.19129 -3.80162,-4.53333 -4.68423,-7.51959 -1.8733,-6.33826 -0.69792,-12.12276 3.45896,-17.02287 0.92958,-1.09577 1.90827,-2.41412 2.17486,-2.92966 2.2782,-4.40556 -1.02588,-9.65179 -6.07872,-9.65179 -2.07719,0 -3.16429,0.50529 -5.66877,2.63484 -3.65963,3.11177 -7.20754,4.47829 -11.62704,4.47829 -6.17111,0 -12.02961,-3.39072 -14.94328,-8.64872 -1.38811,-2.50498 -2.00528,-4.647549 -2.23581,-7.761954 -0.23452,-3.168047 -0.58157,-4.282455 -1.74703,-5.609848 -2.69829,-3.073174 -7.316844,-3.170899 -10.123057,-0.214196 -1.172839,1.235734 -1.78361,2.890424 -1.78361,4.832118 0,4.662491 -1.727398,9.19998 -4.720608,12.39999 -2.191289,2.34268 -4.533331,3.80162 -7.519597,4.68423 -6.338261,1.8733 -12.122761,0.69792 -17.022862,-3.45896 -1.095775,-0.92958 -2.414124,-1.90827 -2.929663,-2.17486 -4.405557,-2.2782 -9.651788,1.02588 -9.651788,6.07872 0,2.07719 0.505284,3.16429 2.634836,5.66877 3.404869,4.00433 4.640596,7.51961 4.395519,12.50394 -0.123832,2.51844 -0.330173,3.53077 -1.123518,5.51205 -1.819227,4.5433 -4.76755,7.79554 -8.756986,9.65967 -2.268546,1.06001 -3.867505,1.45119 -7.095059,1.73577 -2.661563,0.23467 -4.120223,0.81339 -5.502652,2.18315 -2.4054,2.38336 -2.438085,6.67628 -0.07067,9.28153 1.257158,1.38346 2.89642,1.95653 6.331221,2.21334 4.4827,0.33515 7.193776,1.3109 10.362951,3.72973 2.890626,2.20623 4.94847,5.45104 5.956421,9.39209 1.421012,5.55611 0.09898,10.91992 -3.834197,15.55631 -0.908721,1.0712 -1.870347,2.36944 -2.136943,2.88498 -2.274481,4.39836 1.026024,9.65179 6.063806,9.65179 2.008393,0 3.33681,-0.62831 5.839904,-2.76214 3.836067,-3.27015 7.423835,-4.51032 12.347719,-4.26822 2.518447,0.12383 3.530768,0.33017 5.51205,1.12352 4.543305,1.81923 7.795546,4.76755 9.659669,8.75698 1.060014,2.26855 1.451191,3.86751 1.73577,7.09506 0.202668,2.29857 0.763045,3.92147 1.751117,5.0714 1.933084,2.24975 5.378257,2.93782 8.070037,1.61177 z m -6.147152,-39.29633 c -9.807388,-1.43888 -17.058789,-6.68999 -21.030179,-15.22901 -3.119167,-6.70663 -3.119167,-14.7122 0,-21.41883 2.78216,-5.98202 6.969216,-10.16011 12.985621,-12.95782 6.652905,-3.09369 14.68175,-3.08448 21.36651,0.0245 5.98202,2.78216 10.16011,6.96921 12.95782,12.98562 3.09369,6.6529 3.08448,14.68175 -0.0245,21.36651 -4.24511,9.12756 -12.63764,14.77639 -22.64172,15.23965 -1.4803,0.0686 -3.106392,0.0638 -3.613531,-0.0106 z m 6.337252,-13.15955 c 2.33709,-0.70934 3.86449,-1.63264 5.64301,-3.41116 2.69454,-2.69454 3.84199,-5.4923 3.84199,-9.36772 0,-3.87541 -1.14745,-6.67317 -3.84199,-9.36771 -2.69455,-2.69455 -5.49231,-3.842 -9.36772,-3.842 -3.875415,0 -6.673179,1.14745 -9.367723,3.842 -2.694545,2.69454 -3.841996,5.4923 -3.841996,9.36771 0,3.87542 1.147451,6.67318 3.841996,9.36772 2.708811,2.70882 5.275694,3.7716 9.214043,3.81494 1.35237,0.0149 3.09765,-0.16682 3.87839,-0.40378 z"
         style="fill:#000000;stroke-width:0.30735743" />
    </g>
  </g>
</svg>
