<?xml version="1.0" encoding="UTF-8" standalone="no"?>
<!-- Created with Inkscape (http://www.inkscape.org/) -->

<svg
   xmlns:dc="http://purl.org/dc/elements/1.1/"
   xmlns:cc="http://creativecommons.org/ns#"
   xmlns:rdf="http://www.w3.org/1999/02/22-rdf-syntax-ns#"
   xmlns:svg="http://www.w3.org/2000/svg"
   xmlns="http://www.w3.org/2000/svg"
   xmlns:sodipodi="http://sodipodi.sourceforge.net/DTD/sodipodi-0.dtd"
   xmlns:inkscape="http://www.inkscape.org/namespaces/inkscape"
   width="210mm"
   height="297mm"
   viewBox="0 0 210 297"
   version="1.1"
   id="svg142"
   inkscape:version="0.92.1 r15371"
   sodipodi:docname="chip.svg">
  <defs
     id="defs136" />
  <sodipodi:namedview
     id="base"
     pagecolor="#ffffff"
     bordercolor="#666666"
     borderopacity="1.0"
     inkscape:pageopacity="0.0"
     inkscape:pageshadow="2"
     inkscape:zoom="0.35"
     inkscape:cx="400"
     inkscape:cy="560"
     inkscape:document-units="mm"
     inkscape:current-layer="layer1"
     showgrid="false"
     inkscape:window-width="1280"
     inkscape:window-height="744"
     inkscape:window-x="-4"
     inkscape:window-y="-4"
     inkscape:window-maximized="1" />
  <metadata
     id="metadata139">
    <rdf:RDF>
      <cc:Work
         rdf:about="">
        <dc:format>image/svg+xml</dc:format>
        <dc:type
           rdf:resource="http://purl.org/dc/dcmitype/StillImage" />
        <dc:title></dc:title>
      </cc:Work>
    </rdf:RDF>
  </metadata>
  <g
     inkscape:label="Layer 1"
     inkscape:groupmode="layer"
     id="layer1">
    <g
       id="layer1-5"
       inkscape:label="Layer 1"
       transform="matrix(0.86227432,0,0,0.8556464,13.471713,9.4968281)">
      <path
         inkscape:connector-curvature="0"
         id="path3691"
         d="m 90.476127,204.12231 c -33.783421,-1.96955 -60.438929,-13.03324 -66.827084,-27.73737 -1.568908,-3.61128 -1.559942,-3.4829 -1.559942,-22.33719 0,-18.85429 -0.009,-18.72592 1.559942,-22.3372 5.178113,-11.91888 24.155413,-21.79846 49.78816,-25.91971 29.280307,-4.70771 62.666827,-1.31438 83.889157,8.52632 11.8928,5.51463 19.10067,12.43026 21.38792,20.52075 0.63882,2.25966 0.63882,36.16002 0,38.41968 -3.24676,11.48447 -16.38646,20.57349 -38.17577,26.40701 -13.96384,3.73845 -33.12858,5.44494 -50.062383,4.45771 z m 5.532434,-19.00278 v -10.11411 l -2.996735,-0.1768 C 81.984207,174.178 71.509887,172.7854 63.818262,170.94723 c -2.110156,-0.50429 -4.029238,-0.9169 -4.264621,-0.9169 -0.356787,0 -0.427971,1.6323 -0.427971,9.81363 v 9.81363 l 1.613627,0.46283 c 9.529847,2.73342 21.465027,4.4987 34.270352,5.06875 l 0.998912,0.0445 z m 16.136259,9.64536 c 8.26118,-0.43443 18.84903,-2.08883 26.66326,-4.16624 l 1.15259,-0.30642 v -9.82359 c 0,-9.38281 -0.0257,-9.82359 -0.57341,-9.82359 -0.31538,0 -2.07884,0.33941 -3.91881,0.75424 -7.02424,1.58368 -17.13117,2.86745 -26.93508,3.42127 l -3.30409,0.18665 v 10.12848 10.12848 l 1.76731,-0.16074 c 0.97201,-0.0884 3.28872,-0.24075 5.14823,-0.33854 z m 39.67183,-8.58177 c 2.92937,-1.27369 6.68331,-3.28327 9.198,-4.92392 2.78827,-1.81913 6.93357,-6.1202 8.00806,-8.30897 l 0.90531,-1.84415 0.0973,-7.33705 0.0973,-7.33706 -1.3267,1.06702 c -3.80002,3.05622 -9.18853,6.03706 -15.46514,8.55506 l -4.30301,1.72625 -0.0812,9.73102 c -0.0446,5.35207 0.0347,9.73103 0.1764,9.73103 0.14165,0 1.35381,-0.47665 2.69369,-1.05923 z m -101.984225,-9.57752 -0.08116,-9.71467 -3.688289,-1.58529 c -5.554236,-2.3873 -10.176975,-5.03675 -13.620996,-7.80665 l -1.326699,-1.06702 0.09727,7.33706 0.09727,7.33705 0.895034,1.84415 c 1.102315,2.27123 5.19431,6.43919 8.398358,8.55427 2.059983,1.35986 8.54011,4.79359 9.075532,4.80901 0.129159,0.004 0.198315,-4.36484 0.153678,-9.70791 z m 46.176136,-15.79599 v -4.91772 l -1.152591,-0.009 c -2.323692,-0.0181 -9.251787,-0.59885 -13.19324,-1.10598 l -4.04936,-0.52101 -4.864005,3.02606 c -2.675206,1.66433 -5.395743,3.35636 -6.045638,3.76006 -0.649895,0.4037 -1.130421,0.78521 -1.06783,0.8478 0.551479,0.55147 11.50267,2.37148 18.385724,3.05556 4.452254,0.4425 6.359717,0.57539 10.373313,0.72269 l 1.613627,0.0592 z m 21.361339,4.11268 c 5.52259,-0.54624 11.38454,-1.44784 15.9583,-2.45449 1.84615,-0.40632 3.3973,-0.77942 3.44699,-0.82911 0.0497,-0.0497 -2.63645,-1.78638 -5.96919,-3.85931 -5.7547,-3.57936 -6.12137,-3.75926 -7.28895,-3.57598 -4.14875,0.65123 -8.33529,1.11705 -12.98585,1.44489 l -5.30192,0.37375 v 4.87961 4.87961 l 3.76513,-0.20148 c 2.07082,-0.11082 5.83979,-0.40669 8.37549,-0.65749 z m -58.461206,-9.84177 c 6.574689,-4.06566 6.48719,-3.98939 5.118549,-4.46158 -3.029846,-1.04534 -6.660398,-3.24259 -8.677299,-5.2516 l -2.085263,-2.0771 H 42.646382 32.028081 l 0.698685,1.15259 c 2.329482,3.84284 6.763529,7.43655 13.191998,10.69185 2.279052,1.15409 6.989656,3.17711 7.457497,3.20272 0.134232,0.007 2.623827,-1.45825 5.532433,-3.25688 z m 91.814536,2.16841 c 7.98184,-3.24331 15.48395,-8.60841 17.75402,-12.6967 l 0.70073,-1.26199 h -10.59796 -10.59797 l -2.14306,2.1135 c -1.6844,1.66117 -2.84178,2.46074 -5.40768,3.73589 -1.79553,0.89231 -3.15463,1.72846 -3.02021,1.8581 0.21329,0.20572 11.19528,7.04566 11.31229,7.04566 0.0246,0 0.92449,-0.35751 1.99984,-0.79446 z m -39.19312,-10.9011 c 12.45214,-0.94363 23.0991,-3.66867 27.50058,-7.03864 0.74123,-0.56753 0.74623,-0.59801 0.19746,-1.20439 -0.77338,-0.85457 -5.05305,-2.89094 -8.02717,-3.81952 -18.68825,-5.83483 -52.084073,-4.83357 -66.125626,1.98255 -1.376458,0.66817 -2.756004,1.4948 -3.065663,1.83697 -0.548768,0.60638 -0.543771,0.63686 0.197465,1.20439 7.23393,5.53863 28.697679,8.60162 49.322954,7.03864 z M 55.47952,131.82609 c 2.401817,-2.38099 5.249535,-4.06519 9.255423,-5.47386 1.141064,-0.40125 2.067925,-0.79994 2.059691,-0.88598 -0.02044,-0.21343 -7.622126,-6.24041 -8.269101,-6.55613 -1.209033,-0.58998 -12.892249,4.36825 -17.753557,7.53443 -2.366586,1.54137 -7.771687,6.60177 -7.771687,7.27607 0,0.25321 2.77204,0.34889 10.108094,0.34889 h 10.108092 z m 112.75803,1.94183 c 0,-0.55247 -4.03236,-4.58538 -6.10285,-6.10369 -3.85464,-2.82664 -10.76122,-6.26898 -16.0886,-8.01881 l -2.05954,-0.67647 -4.08761,3.27729 c -2.24818,1.80251 -4.12654,3.3806 -4.17413,3.50685 -0.0476,0.12626 1.12806,0.73541 2.61254,1.35368 3.61979,1.50759 6.07181,3.11672 7.92414,5.2002 l 1.53678,1.72856 10.21964,0.017 c 6.48958,0.0108 10.21963,-0.0931 10.21963,-0.28461 z M 90.825506,121.62671 c 2.259016,-0.11444 4.349348,-0.27548 4.645179,-0.35785 0.478107,-0.13314 0.537876,-0.60818 0.537876,-4.27504 v -4.12526 l -2.843056,0.16117 c -10.164169,0.57623 -23.451292,2.26168 -23.214897,2.94479 0.04744,0.13708 1.97344,1.74587 4.280007,3.57509 l 4.193757,3.32586 4.146913,-0.52034 c 2.280804,-0.28619 5.995203,-0.61398 8.254221,-0.72842 z m 37.712084,-2.07983 4.33721,-3.45777 -1.75898,-0.3745 c -5.10753,-1.0874 -14.814,-2.21833 -23.04348,-2.68488 l -2.84306,-0.16117 v 4.14011 c 0,4.0483 0.0153,4.14313 0.69155,4.27598 0.38036,0.0747 3.112,0.29508 6.07031,0.48968 2.95832,0.19459 6.48525,0.53179 7.83762,0.74931 4.36142,0.70152 3.89508,0.86093 8.70883,-2.97676 z"
         style="fill:#000000;stroke-width:0.30735743" />
    </g>
  </g>
</svg>
