<?xml version="1.0" encoding="UTF-8" standalone="no"?>
<!-- Created with Inkscape (http://www.inkscape.org/) -->

<svg
   xmlns:dc="http://purl.org/dc/elements/1.1/"
   xmlns:cc="http://creativecommons.org/ns#"
   xmlns:rdf="http://www.w3.org/1999/02/22-rdf-syntax-ns#"
   xmlns:svg="http://www.w3.org/2000/svg"
   xmlns="http://www.w3.org/2000/svg"
   xmlns:sodipodi="http://sodipodi.sourceforge.net/DTD/sodipodi-0.dtd"
   xmlns:inkscape="http://www.inkscape.org/namespaces/inkscape"
   width="210mm"
   height="297mm"
   viewBox="0 0 210 297"
   version="1.1"
   id="svg142"
   inkscape:version="0.92.1 r15371"
   sodipodi:docname="info.svg">
  <defs
     id="defs136" />
  <sodipodi:namedview
     id="base"
     pagecolor="#ffffff"
     bordercolor="#666666"
     borderopacity="1.0"
     inkscape:pageopacity="0.0"
     inkscape:pageshadow="2"
     inkscape:zoom="0.35"
     inkscape:cx="400"
     inkscape:cy="560"
     inkscape:document-units="mm"
     inkscape:current-layer="layer1"
     showgrid="false"
     inkscape:window-width="1280"
     inkscape:window-height="744"
     inkscape:window-x="-4"
     inkscape:window-y="-4"
     inkscape:window-maximized="1" />
  <metadata
     id="metadata139">
    <rdf:RDF>
      <cc:Work
         rdf:about="">
        <dc:format>image/svg+xml</dc:format>
        <dc:type
           rdf:resource="http://purl.org/dc/dcmitype/StillImage" />
        <dc:title></dc:title>
      </cc:Work>
    </rdf:RDF>
  </metadata>
  <g
     inkscape:label="Layer 1"
     inkscape:groupmode="layer"
     id="layer1">
    <g
       id="layer1-0"
       inkscape:label="Layer 1"
       transform="matrix(0.86242299,0,0,0.86043412,19.562368,19.935631)">
      <path
         inkscape:connector-curvature="0"
         id="path3880"
         d="m 111.56697,75.686305 c 15.15105,1.582614 28.49195,6.771554 40.37717,15.704689 3.65717,2.748786 9.82714,8.676576 13.07055,12.557506 8.92135,10.67491 14.96045,24.21767 17.20096,38.57335 0.96218,6.16507 0.96218,16.88673 0,23.0518 -2.08576,13.36416 -7.11731,25.31877 -15.16021,36.01956 -2.74879,3.65717 -8.67657,9.82714 -12.5575,13.07055 -10.67491,8.92135 -24.21768,14.96045 -38.57336,17.20096 -6.16507,0.96218 -16.88673,0.96218 -23.051803,0 -8.58098,-1.33924 -15.648209,-3.56678 -23.205486,-7.31418 -8.691118,-4.30964 -15.071302,-8.99836 -21.996034,-16.16465 -11.395015,-11.7925 -18.499004,-26.21375 -21.089544,-42.81224 -0.962189,-6.16507 -0.962189,-16.88673 0,-23.0518 1.339242,-8.58098 3.566772,-15.64821 7.314175,-23.20548 10.306278,-20.784374 28.89769,-35.855228 51.227418,-41.526778 5.733898,-1.456355 11.021896,-2.132022 17.738584,-2.266518 3.29641,-0.06601 7.2137,0.0074 8.70508,0.163231 z m -16.542691,13.08195 c -14.274195,2.080164 -26.869281,8.426581 -37.1739,18.731205 -10.336916,10.33691 -16.475326,22.53276 -18.787699,37.32757 -0.685684,4.38707 -0.685684,14.05437 0,18.44144 2.312373,14.79481 8.450783,26.99067 18.787699,37.32758 10.336916,10.33692 22.532769,16.47533 37.327578,18.7877 4.387073,0.68568 14.054373,0.68568 18.441443,0 14.79481,-2.31237 26.99067,-8.45078 37.32758,-18.7877 10.33692,-10.33691 16.47533,-22.53277 18.7877,-37.32758 0.68568,-4.38707 0.68568,-14.05437 0,-18.44144 -2.31237,-14.79481 -8.45078,-26.99066 -18.7877,-37.32757 -11.60826,-11.608274 -26.46974,-18.316522 -42.86001,-19.346384 -2.88809,-0.18147 -9.843931,0.146111 -13.062691,0.615179 z m 10.983711,30.223675 c 2.78425,0.89053 4.62811,3.26762 4.62213,5.95879 -0.008,3.77051 -2.54122,6.35258 -6.23144,6.35258 -1.87046,0 -3.22774,-0.52914 -4.422873,-1.72427 -2.847919,-2.84792 -2.266737,-7.78881 1.151833,-9.79222 1.46791,-0.86024 3.59355,-1.20646 4.88035,-0.79488 z m -0.0537,29.03293 c 1.96144,0.51202 3.19072,1.48328 4.02729,3.18198 l 0.71794,1.4578 v 15.98259 15.98258 l -0.85341,1.45178 c -2.47595,4.21201 -8.41889,4.21201 -10.894845,0 l -0.853402,-1.45178 -0.09313,-15.02645 c -0.09882,-15.94371 -0.0077,-17.281 1.314156,-19.2835 1.270231,-1.92433 4.188621,-2.93372 6.635401,-2.295 z"
         style="fill:#000000;stroke-width:0.30735743" />
    </g>
  </g>
</svg>
