<?xml version="1.0" encoding="UTF-8" standalone="no"?>
<svg
   xmlns:dc="http://purl.org/dc/elements/1.1/"
   xmlns:cc="http://creativecommons.org/ns#"
   xmlns:rdf="http://www.w3.org/1999/02/22-rdf-syntax-ns#"
   xmlns:svg="http://www.w3.org/2000/svg"
   xmlns="http://www.w3.org/2000/svg"
   id="svg927"
   version="1.1"
   viewBox="0 0 215.09344 215.05797"
   height="215.05797mm"
   width="215.09344mm">
  <defs
     id="defs921" />
  <metadata
     id="metadata924">
    <rdf:RDF>
      <cc:Work
         rdf:about="">
        <dc:format>image/svg+xml</dc:format>
        <dc:type
           rdf:resource="http://purl.org/dc/dcmitype/StillImage" />
        <dc:title></dc:title>
      </cc:Work>
    </rdf:RDF>
  </metadata>
  <g
     style="display:inline"
     transform="translate(-14.161616,-39.018761)"
     id="layer1">
    <path
       id="path948"
       d="m 52.777774,253.86334 c -7.912495,-0.83196 -15.837624,-4.01952 -22.044876,-8.86666 -2.069708,-1.6162 -5.430778,-4.94713 -7.089183,-7.02562 -5.247924,-6.57724 -8.373966,-14.27682 -9.243293,-22.76664 -0.318408,-3.10956 -0.318408,-134.168314 0,-137.277874 0.546739,-5.339441 1.887551,-10.075412 4.162163,-14.701449 2.237644,-4.550853 4.309625,-7.490259 7.859128,-11.149312 7.1285,-7.348512 16.295814,-11.758224 26.647688,-12.818218 3.10956,-0.318408 134.168309,-0.318408 137.277869,0 5.33944,0.546739 10.07541,1.887551 14.70145,4.162163 4.49016,2.207799 7.45742,4.289138 11.05173,7.75207 7.37155,7.102108 11.85428,16.387961 12.9158,26.754746 0.31842,3.10956 0.31842,134.168314 0,137.277874 -0.86932,8.48982 -3.99537,16.1894 -9.24329,22.76664 -1.65841,2.07849 -5.01948,5.40942 -7.08918,7.02562 -6.33583,4.94755 -14.10079,8.03341 -22.33651,8.87671 -2.71043,0.27754 -134.926165,0.26788 -137.569496,-0.0101 z"
       style="fill:#36af46;fill-opacity:1;stroke-width:0.21507196" />
    <g
       style="fill:#ffffff;fill-opacity:1"
       transform="matrix(0.9,0,0,0.9,29.465137,73.228324)"
       id="layer1-4">
      <path
         id="path125"
         d="m 18.361726,172.12643 c -2.171719,-0.52081 -4.122785,-2.11733 -5.153871,-4.21733 l -0.62784,-1.27872 -0.06193,-64.52159 c -0.06848,-71.346823 -0.156215,-66.515066 1.282608,-70.636295 2.262086,-6.4793 7.335476,-11.580409 13.823954,-13.899481 3.540356,-1.265371 4.873548,-1.383633 15.60896,-1.384603 l 9.576541,-8.6e-4 0.926767,-1.88188 C 55.877792,9.9584384 58.602939,6.1757164 62.14737,2.6312854 78.547773,-13.769116 104.37189,-14.887522 122.18929,0.03095442 126.77401,3.8697344 130.70133,8.8819544 133.36898,14.29898 l 0.92345,1.875189 15.49434,0.06046 c 14.60576,0.05699 15.54367,0.08349 16.35462,0.462142 1.44515,0.674765 2.64736,1.657547 3.43194,2.805551 1.37949,2.018483 1.40718,2.32196 1.40718,15.424596 v 11.76669 l 3.92506,0.07085 c 3.78322,0.06829 3.96892,0.09238 5.1384,0.666699 1.47782,0.725741 2.82609,2.143147 3.59129,3.775455 l 0.57218,1.220562 0.0585,18.227348 0.0585,18.227349 h 3.14265 c 1.78673,0 3.50688,0.109127 3.98685,0.252929 1.06882,0.320225 2.63065,1.685218 3.2473,2.83804 l 0.47492,0.887862 0.0588,17.187238 c 0.0672,19.64382 0.13689,18.76966 -1.63829,20.54484 -1.46599,1.46599 -2.42258,1.73362 -6.19641,1.73362 h -3.07525 l -0.0588,17.15199 -0.0588,17.15199 -0.57428,1.22516 c -0.73139,1.56033 -2.11034,2.93927 -3.73888,3.73887 l -1.27871,0.62784 -79.791697,0.0325 c -43.885435,0.0179 -80.0934,-0.0399 -80.462147,-0.1283 z M 169.04486,144.7151 v -12.34458 l -5.21549,-0.0966 c -4.72073,-0.0874 -5.40956,-0.14832 -7.26115,-0.64187 -7.13067,-1.90072 -12.86863,-7.19513 -15.18852,-14.01441 -1.50142,-4.41342 -1.53277,-9.61749 -0.0837,-13.89582 2.08006,-6.141322 6.96273,-11.247008 12.87251,-13.460462 3.14278,-1.177097 4.61413,-1.379499 10.02817,-1.379499 h 4.84818 V 75.332335 61.782802 h -68.04651 c -72.615131,0 -69.536015,0.04105 -72.387787,-0.965112 l -0.867975,-0.306239 v 48.274119 48.27411 h 70.651139 70.651133 z m 14.83997,-34.11096 v -10.32346 h -11.8063 c -13.42154,0 -13.34468,-0.009 -15.98963,1.79364 -4.1678,2.83993 -5.62352,8.33653 -3.44568,13.01042 0.72422,1.55425 2.76376,3.68555 4.32128,4.5157 2.42706,1.29361 2.47213,1.29749 15.25267,1.313 l 11.66766,0.0142 z M 50.755288,46.526395 c 0,-0.110756 -0.240736,-1.195587 -0.53497,-2.410739 -0.71779,-2.964385 -1.239378,-7.69666 -1.15057,-10.438894 l 0.0725,-2.238745 -7.957662,0.06359 -7.957663,0.06359 -1.216393,0.616419 c -1.504256,0.762299 -2.760965,2.027034 -3.554776,3.577484 -0.538613,1.052003 -0.60563,1.408983 -0.60563,3.226079 0,1.79915 0.07145,2.188671 0.598182,3.261278 1.049341,2.136807 3.181297,3.820083 5.392659,4.257748 1.269969,0.251348 16.914323,0.271876 16.914323,0.0222 z m 69.881422,-1.404196 c 1.60795,-3.862465 2.28412,-7.842958 2.09893,-12.356123 -0.18741,-4.567301 -1.02771,-7.82412 -3.07814,-11.930179 -1.42831,-2.860214 -2.94686,-4.934614 -5.4558,-7.452814 -4.18742,-4.2028826 -9.49239,-7.0281166 -15.377827,-8.1896836 -1.970087,-0.388823 -8.771155,-0.39375 -10.538528,-0.0076 -9.525062,2.080916 -16.820436,7.6052786 -20.919211,15.8409016 -1.926219,3.870334 -2.798176,7.230754 -2.991195,11.527724 -0.204389,4.550101 0.489674,8.705498 2.100247,12.574264 l 0.665712,1.599112 h 26.41371 26.413712 z M 155.7104,39.09271 v -7.635054 l -8.87172,8.6e-4 -8.87172,8.6e-4 -0.0265,3.601501 c -0.0271,3.690852 -0.35478,6.376315 -1.16522,9.550494 -0.23174,0.907795 -0.42133,1.755234 -0.42133,1.883387 0,0.163842 2.87284,0.233007 9.67823,0.233007 h 9.67824 z"
         style="fill:#ffffff;fill-opacity:1;stroke-width:0.21507196" />
    </g>
  </g>
</svg>
