<!-- Made in Mondrian.io -->
<svg xmlns="http://www.w3.org/2000/svg" width="512" height="512" xmlns:mondrian="https://mondrian.io/xml">
<path d="M471.38947368,472.67368421 L447.38947368,472.67368421 L447.38947368,442.67368421 C447.38947368,431.62680921 438.43634868,422.67368421 427.38947368,422.67368421 C416.34259868,422.67368421 407.38947368,431.62680921 407.38947368,442.67368421 L407.38947368,472.67368421 L367.04572368,472.67368421 C366.08478568,462.41587221 362.72541168,447.24790321 352.47931768,430.82212221 C339.33087968,409.74009021 318.54181768,392.36118421 290.69025468,379.15805921 C288.44025468,378.09165321 286.25666168,376.92759021 284.14728568,375.67759021 C277.41291168,371.68149621 269.86994268,369.66977821 262.33478568,369.66977821 C254.88947368,369.66977821 247.44806768,371.63462221 240.79572368,375.58774621 C238.54572368,376.92759021 236.21369268,378.16196521 233.80353568,379.29087221 C206.47931768,392.06821521 185.89728568,409.30259021 172.63556768,430.50962221 C162.16681768,447.24399621 158.72931768,462.44321521 157.74494268,472.67368421 L117.38947368,472.67368421 L117.38947368,442.67368421 C117.38947368,399.07602821 143.52228568,340.27524621 216.86212968,305.97837221 C233.08478568,298.39243421 242.38947368,280.78305921 242.38947368,257.67368421 C242.38947368,234.41587221 233.03400468,216.78696521 216.72541168,209.31040321 C130.29572368,169.66977821 117.38947368,106.06430921 117.38947368,71.67368421 L117.38947368,41.67368421 L407.38947368,41.67368421 L407.38947368,71.67368421 C407.38947368,100.69712221 397.77619268,172.17759021 308.74494268,209.00571521 C291.99494268,215.93540321 282.38947368,233.67368421 282.38947368,257.67368421 C282.38947368,280.68149621 291.65900468,298.27134021 307.82306768,305.93149621 C339.48712968,320.93930921 364.28791168,340.89243421 381.53791168,365.23618421 C387.92072368,374.24790321 400.40119268,376.38071521 409.42072368,369.99399621 C418.43244268,363.60727821 420.56134868,351.12290321 414.17462968,342.11118421 C392.92072368,312.11899621 362.93244268,287.79868421 325.03009868,269.82212221 C324.28400468,269.08384021 322.38947368,265.04087221 322.38947368,257.67368421 C322.38947368,251.04087221 323.74884868,247.01352821 324.56525468,245.75180921 C368.44806768,227.48618421 401.40119268,200.02524621 422.50666168,164.11899621 C443.07306768,129.13071521 447.38947368,94.53305921 447.38947368,71.67368421 L447.38947368,40.67368421 L471.38947368,40.67368421 C482.43634868,40.67368421 491.38947368,31.72055921 491.38947368,20.67368421 C491.38947368,9.62680921 482.43634868,0.67368421 471.38947368,0.67368421 L51.38947368,0.67368421 C40.34259868,0.67368421 31.38947368,9.62680921 31.38947368,20.67368421 C31.38947368,31.72055921 40.34259868,40.67368421 51.38947368,40.67368421 L77.38947368,40.67368421 L77.38947368,71.67368421 C77.38947368,94.19321521 81.72150468,128.27524621 102.35431768,162.75180921 C123.18244268,197.56040321 155.99884868,225.43149621 199.88556768,245.59165321 C200.72541168,246.54477821 202.38947368,250.65024621 202.38947368,257.67368421 C202.38947368,264.81821521 200.65900468,268.90805921 199.81134868,269.79087221 C109.54572368,312.04868421 77.38947368,386.79477821 77.38947368,442.67368421 L77.38947368,472.67368421 L51.38947368,472.67368421 C40.34259868,472.67368421 31.38947368,481.62680921 31.38947368,492.67368421 C31.38947368,503.72055921 40.34259868,512.67368421 51.38947368,512.67368421 L471.38947368,512.67368421 C482.43634868,512.67368421 491.38947368,503.72055921 491.38947368,492.67368421 C491.38947368,481.62680921 482.43634868,472.67368421 471.38947368,472.67368421z M198.09259868,472.67368421 C199.07306768,467.36118421 201.35822368,460.01743421 206.54962968,451.71665321 C215.65509868,437.15805921 230.52619268,424.98227821 250.75275468,415.52524621 C254.33087968,413.84946521 257.86212968,411.98227821 261.24494268,409.97055921 C261.58087968,409.77134021 261.94025468,409.67368421 262.33869268,409.67368421 C262.81525468,409.67368421 263.28791168,409.81040321 263.74103568,410.07993421 C266.90900468,411.95884021 270.21369268,413.71665321 273.56134868,415.30259021 C294.37775468,425.16977821 309.51447368,437.51352821 318.54181768,451.99009021 C323.57306768,460.05649621 325.77619268,467.35337221 326.71759868,472.67368421 L198.09259868,472.67368421z M419.31525468,175.18930921 C417.06525468,176.25571521 414.88166168,177.41587221 412.77228568,178.66977821 C406.03791168,182.66196521 398.49884868,184.67368421 390.96369268,184.67368421 C383.51447368,184.67368421 376.06916168,182.70884021 369.41681768,178.75180921 C367.16681768,177.41587221 364.83869268,176.18149621 362.43244268,175.05649621 C351.38556768,169.88852821 341.44025468,163.97055921 332.63947368,157.34946521 C318.28400468,146.55259021 325.99884868,123.67368421 343.95978568,123.67368421 L438.08869268,123.67368421 C456.09259868,123.67368421 463.79962968,146.66977821 449.34650468,157.39634021 C440.49494268,163.96665321 430.47150468,169.90024621 419.31525468,175.18930921z M419.31525468,175.18930921 L419.31525468,175.18930921z " fill="rgba(255, 255, 255, 1)" stroke="none" stroke-width="1" stroke-linecap="butt" stroke-linejoin="miter"/>
</svg>
