<svg width="135" height="134" viewBox="0 0 135 134" fill="none" xmlns="http://www.w3.org/2000/svg">
<path d="M44.197 79L44.197 64.44L41.537 64.44L41.537 60.324L49.041 60.324L49.041 79H44.197ZM61.8845 64.832C61.4552 64.44 60.9605 64.244 60.4005 64.244C59.8405 64.244 59.3458 64.44 58.9165 64.832C58.4312 65.2427 58.0392 65.9333 57.7405 66.904C57.4418 67.856 57.2925 68.7893 57.2925 69.704C57.2925 70.544 57.4325 71.4587 57.7125 72.448C58.0112 73.4187 58.4125 74.128 58.9165 74.576C59.3458 74.968 59.8405 75.164 60.4005 75.164C60.9605 75.164 61.4552 74.968 61.8845 74.576C62.3698 74.1467 62.7618 73.456 63.0605 72.504C63.3592 71.5333 63.5085 70.6093 63.5085 69.732C63.5085 68.8547 63.3498 67.9213 63.0325 66.932C62.7338 65.9427 62.3512 65.2427 61.8845 64.832ZM68.3245 69.676C68.3245 72.9427 67.4005 75.4813 65.5525 77.292C64.1152 78.7107 62.3978 79.42 60.4005 79.42C58.4032 79.42 56.6858 78.7107 55.2485 77.292C53.4005 75.4813 52.4765 72.9427 52.4765 69.676C52.4765 66.3907 53.4005 63.8427 55.2485 62.032C56.6858 60.6133 58.4032 59.904 60.4005 59.904C62.3978 59.904 64.1152 60.6133 65.5525 62.032C67.4005 63.8427 68.3245 66.3907 68.3245 69.676ZM78.6736 64.832C78.2442 64.44 77.7496 64.244 77.1896 64.244C76.6296 64.244 76.1349 64.44 75.7056 64.832C75.2202 65.2427 74.8282 65.9333 74.5296 66.904C74.2309 67.856 74.0816 68.7893 74.0816 69.704C74.0816 70.544 74.2216 71.4587 74.5016 72.448C74.8002 73.4187 75.2016 74.128 75.7056 74.576C76.1349 74.968 76.6296 75.164 77.1896 75.164C77.7496 75.164 78.2442 74.968 78.6736 74.576C79.1589 74.1467 79.5509 73.456 79.8496 72.504C80.1482 71.5333 80.2976 70.6093 80.2976 69.732C80.2976 68.8547 80.1389 67.9213 79.8216 66.932C79.5229 65.9427 79.1402 65.2427 78.6736 64.832ZM85.1136 69.676C85.1136 72.9427 84.1896 75.4813 82.3416 77.292C80.9042 78.7107 79.1869 79.42 77.1896 79.42C75.1922 79.42 73.4749 78.7107 72.0376 77.292C70.1896 75.4813 69.2656 72.9427 69.2656 69.676C69.2656 66.3907 70.1896 63.8427 72.0376 62.032C73.4749 60.6133 75.1922 59.904 77.1896 59.904C79.1869 59.904 80.9042 60.6133 82.3416 62.032C84.1896 63.8427 85.1136 66.3907 85.1136 69.676ZM86.5026 71.16V67.8H90.7586V63.516L94.3986 63.516V67.8H98.6546V71.16H94.3986L94.3986 75.444L90.7586 75.444L90.7586 71.16H86.5026Z" fill="#151D28"/>
<circle cx="69.1118" cy="9.5" r="1.5" fill="#151D28"/>
<circle cx="66.1118" cy="125.5" r="1.5" fill="#151D28"/>
<circle cx="67" cy="68" r="46.5" stroke="#151D28"/>
<path d="M50.5518 120.247L51.1254 117.618L52.2685 117.868L51.9276 119.43L57.5543 120.658L57.8951 119.095L59.0509 119.347L58.4773 121.977L58.1217 121.899C57.6843 121.83 57.3214 122.07 57.0331 122.619C56.7447 123.169 56.4545 123.97 56.1625 125.024L55.5648 127.276L50.3446 126.137L51.5806 120.472L50.5518 120.247ZM55.0642 124.691C55.2828 123.852 55.5081 123.165 55.7401 122.63C55.9618 122.102 56.2391 121.745 56.5721 121.561L52.7999 120.738L51.7967 125.336L54.718 125.973L55.0642 124.691Z" fill="#151D28"/>
<path d="M46.3144 117.208C46.9505 117.462 47.466 117.83 47.861 118.314C48.256 118.798 48.5006 119.343 48.5949 119.95C48.6778 120.561 48.5942 121.181 48.3441 121.809C48.094 122.437 47.7302 122.94 47.2527 123.319C46.7641 123.703 46.2116 123.931 45.5953 124.002C44.9758 124.082 44.348 123.995 43.712 123.742C43.0759 123.489 42.5644 123.122 42.1774 122.641C41.7792 122.165 41.5386 121.622 41.4557 121.01C41.3614 120.404 41.4394 119.786 41.6895 119.158C41.9397 118.53 42.3091 118.024 42.7978 117.641C43.2752 117.262 43.8237 117.032 44.4431 116.953C45.0546 116.87 45.6783 116.955 46.3144 117.208ZM45.9103 118.223C45.4997 118.059 45.0965 118.006 44.7007 118.063C44.2936 118.124 43.9301 118.288 43.6102 118.552C43.2871 118.824 43.0374 119.182 42.861 119.625C42.6846 120.068 42.6217 120.495 42.6722 120.907C42.7195 121.327 42.8713 121.695 43.1277 122.012C43.376 122.325 43.7054 122.564 44.116 122.727C44.5267 122.891 44.9339 122.946 45.3378 122.892C45.7336 122.835 46.0971 122.672 46.4282 122.403C46.7481 122.139 46.9962 121.785 47.1726 121.342C47.349 120.899 47.4135 120.468 47.3663 120.048C47.3077 119.633 47.1559 119.265 46.9108 118.943C46.6544 118.626 46.321 118.386 45.9103 118.223Z" fill="#151D28"/>
<path d="M35.0335 115.34C34.382 114.689 34.2848 113.981 34.7417 113.214C35.0523 112.693 35.4891 112.408 36.0523 112.36C36.6081 112.308 37.2731 112.513 38.0473 112.974L40.8951 114.671L37.368 120.59L34.6208 118.953C33.921 118.536 33.4536 118.076 33.2187 117.573C32.9794 117.077 33.004 116.587 33.2923 116.103C33.4787 115.79 33.7262 115.57 34.035 115.441C34.3319 115.315 34.6647 115.281 35.0335 115.34ZM37.8356 117.418L36.2274 116.46C35.818 116.216 35.4646 116.106 35.1674 116.131C34.8628 116.151 34.6262 116.303 34.4576 116.586C34.1204 117.151 34.3687 117.683 35.2026 118.18L36.8107 119.138L37.8356 117.418ZM37.6331 113.847C37.1864 113.581 36.8092 113.452 36.5015 113.46C36.1939 113.469 35.9513 113.622 35.7739 113.92C35.592 114.225 35.5609 114.514 35.6806 114.787C35.7929 115.056 36.0687 115.321 36.5079 115.583L38.2947 116.648L39.3529 114.872L37.6331 113.847Z" fill="#151D28"/>
<path d="M31.8005 108.184C32.326 108.623 32.7011 109.134 32.9257 109.717C33.1504 110.299 33.213 110.894 33.1137 111.499C33.0021 112.106 32.7296 112.669 32.2963 113.188C31.863 113.707 31.3605 114.072 30.7888 114.283C30.2049 114.496 29.609 114.54 29.001 114.416C28.3875 114.299 27.818 114.021 27.2925 113.582C26.767 113.143 26.3952 112.635 26.1772 112.058C25.947 111.482 25.8877 110.891 25.9993 110.284C26.0986 109.678 26.365 109.116 26.7983 108.597C27.2316 108.078 27.7402 107.712 28.3241 107.5C28.8958 107.288 29.4884 107.241 30.1019 107.358C30.7087 107.47 31.2749 107.745 31.8005 108.184ZM31.1005 109.022C30.7613 108.739 30.3947 108.563 30.0008 108.493C29.5948 108.425 29.1986 108.467 28.8123 108.619C28.4204 108.777 28.0717 109.039 27.7662 109.405C27.4606 109.771 27.2677 110.157 27.1874 110.564C27.1015 110.978 27.1311 111.376 27.2761 111.756C27.4144 112.132 27.6532 112.461 27.9924 112.744C28.3317 113.027 28.7016 113.206 29.1021 113.281C29.4959 113.35 29.8921 113.309 30.2907 113.156C30.677 113.004 31.0229 112.746 31.3284 112.38C31.634 112.014 31.8297 111.624 31.9155 111.21C31.9892 110.797 31.9596 110.4 31.8269 110.018C31.6819 109.638 31.4398 109.306 31.1005 109.022Z" fill="#151D28"/>
<path d="M18.3726 104.128L23.5941 99.6324L24.4083 100.578L20.0144 104.361L21.9482 106.607L23.1616 105.666C23.8927 105.093 24.5342 104.65 25.0863 104.334C25.6318 104.025 26.1362 103.854 26.5995 103.821C27.0629 103.788 27.4557 103.958 27.778 104.333C27.9251 104.504 28.0623 104.723 28.1898 104.99L27.3409 105.618C27.2871 105.516 27.2291 105.429 27.1669 105.356C26.9407 105.094 26.6561 104.996 26.3132 105.062C25.9702 105.129 25.6241 105.278 25.2749 105.51C24.9258 105.742 24.4448 106.093 23.8319 106.564L21.8246 108.137L18.3726 104.128Z" fill="#151D28"/>
<path d="M16.4117 96.7477C15.9597 95.9981 15.7792 95.3254 15.8701 94.7297C15.9611 94.1341 16.309 93.6498 16.914 93.2768C17.5484 92.8857 18.1709 92.7972 18.7815 93.0114C19.38 93.2227 19.919 93.7253 20.3982 94.5192L21.9562 97.0713L16.0911 100.687L15.4362 99.6245L17.4171 98.4034L16.4117 96.7477ZM19.645 95.1058C19.3567 94.6217 19.038 94.3193 18.6887 94.1986C18.3349 94.0706 17.9625 94.1271 17.5715 94.3681C17.1878 94.6046 16.9825 94.8992 16.9555 95.2518C16.924 95.597 17.0569 96.0191 17.3543 96.5179L18.1917 97.9259L20.4935 96.5069L19.645 95.1058Z" fill="#151D28"/>
<path d="M11.5935 92.5128L11.1143 91.3605L13.8151 90.2374L12.3077 86.6123L9.60692 87.7354L9.12775 86.583L15.4896 83.9376L15.9688 85.0899L13.304 86.198L14.8114 89.8231L17.4762 88.715L17.9554 89.8674L11.5935 92.5128Z" fill="#151D28"/>
<path d="M9.79535 79.5105C9.61627 78.6625 9.66741 77.9721 9.94878 77.4392C10.2301 76.9064 10.7177 76.5631 11.4116 76.4093C12.1392 76.248 12.7563 76.3687 13.2628 76.7713C13.7589 77.1673 14.103 77.8189 14.2952 78.7262L14.9099 81.5593L8.18311 83.0502L7.91306 81.8318L10.1849 81.3283L9.79535 79.5105ZM6.70906 76.3996L6.43901 75.1812L13.1658 73.6903L13.4358 74.9087L6.70906 76.3996ZM13.3884 79.0204C13.275 78.4685 13.0731 78.0783 12.7827 77.8497C12.4905 77.6127 12.1202 77.5438 11.6717 77.6432C11.2318 77.7407 10.9412 77.9516 10.8 78.2758C10.6588 78.6001 10.6459 79.0424 10.7612 79.6027L11.0734 81.1313L13.7133 80.5462L13.3884 79.0204Z" fill="#151D28"/>
<path d="M12.988 67.1398L10.4475 69.2532L13.1802 71.1392L13.247 72.5286L9.59761 69.9839L6.35868 72.7295L6.2919 71.3401L8.68093 69.3251L6.11031 67.5615L6.04478 66.1981L9.53271 68.6334L12.92 65.7245L12.988 67.1398Z" fill="#151D28"/>
<path d="M11.6294 54.2616L11.3312 55.6602L14.1792 56.2673L13.919 57.4879L7.18043 56.0513L7.44065 54.8307L10.2886 55.4379L10.5922 54.0139L8.21046 51.2199L8.48966 49.9103L11.187 53.1571L15.2662 51.1689L14.9599 52.6056L11.6294 54.2616Z" fill="#151D28"/>
<path d="M11.7046 41.5159L18.1323 43.9972L17.6828 45.1615L12.2739 43.0734L11.2064 45.8385L12.6094 46.4637C13.4589 46.8381 14.1529 47.1943 14.6913 47.5322C15.2217 47.867 15.6107 48.2308 15.8585 48.6238C16.1063 49.0167 16.1412 49.4436 15.9633 49.9045C15.8822 50.1147 15.7537 50.3391 15.5779 50.5779L14.6237 50.1259C14.6885 50.0301 14.7381 49.9378 14.7724 49.8489C14.8973 49.5255 14.8494 49.2283 14.6289 48.9573C14.4083 48.6864 14.1134 48.4518 13.744 48.2534C13.3746 48.0551 12.838 47.7968 12.134 47.4786L9.79911 46.4518L11.7046 41.5159Z" fill="#151D28"/>
<path d="M13.6515 37.8517L14.2915 36.7804L18.5993 39.3539L16.4583 33.1533L17.0383 32.1824L22.9532 35.7159L22.3132 36.7873L18.0054 34.2138L20.1531 40.4032L19.5664 41.3853L13.6515 37.8517Z" fill="#151D28"/>
<path d="M26.3277 26.4674C26.4001 26.5294 26.4899 26.6178 26.597 26.7325L22.9592 30.9768C23.4706 31.3124 24.0144 31.4304 24.5907 31.3307C25.166 31.2188 25.6736 30.9063 26.1135 30.393C26.6493 29.7679 26.8702 29.084 26.7762 28.3413L27.8365 28.3427C27.9098 28.8165 27.8666 29.2931 27.7068 29.7725C27.5527 30.2454 27.2895 30.6989 26.9172 31.1332C26.4435 31.686 25.9114 32.0804 25.3211 32.3163C24.7242 32.5466 24.1202 32.6054 23.5092 32.4926C22.9038 32.3733 22.3445 32.0936 21.8312 31.6537C21.3245 31.2194 20.9631 30.7156 20.7468 30.1421C20.5363 29.5621 20.4883 28.9789 20.603 28.3923C20.7167 27.7935 20.9879 27.244 21.4165 26.7439C21.8452 26.2438 22.341 25.8983 22.9041 25.7075C23.4662 25.5044 24.0443 25.4692 24.6384 25.6017C25.2382 25.7276 25.8013 26.0162 26.3277 26.4674ZM22.216 27.4292C21.8269 27.8832 21.6379 28.3833 21.6492 28.9295C21.6662 29.4691 21.8758 29.9569 22.2782 30.3931L25.1546 27.0371C24.6686 26.7119 24.1548 26.5854 23.6134 26.6578C23.071 26.718 22.6052 26.9751 22.216 27.4292Z" fill="#151D28"/>
<path d="M26.538 21.6486L27.4942 20.8465L29.3739 23.0875L32.3818 20.5644L30.5021 18.3234L31.4582 17.5214L35.8862 22.8002L34.93 23.6022L33.0753 21.3911L30.0674 23.9142L31.9221 26.1253L30.966 26.9273L26.538 21.6486Z" fill="#151D28"/>
<path d="M39.4915 13.8916L37.3355 15.2001L40.3436 20.1567L39.2767 20.8042L36.2686 15.8475L34.1125 17.156L33.546 16.2225L38.9249 12.9581L39.4915 13.8916Z" fill="#151D28"/>
<path d="M47.5092 16.8162C46.8767 17.0784 46.2502 17.1739 45.6296 17.1028C45.0091 17.0317 44.4535 16.8117 43.9628 16.4428C43.4769 16.0626 43.1044 15.5602 42.8456 14.9357C42.5867 14.3113 42.4962 13.6968 42.5739 13.0923C42.6564 12.4764 42.8934 11.9278 43.2849 11.4465C43.6731 10.9572 44.1835 10.5815 44.816 10.3193C45.4484 10.0571 46.0709 9.96327 46.6835 10.0377C47.3007 10.1008 47.8523 10.3225 48.3383 10.7027C48.8289 11.0716 49.2037 11.5683 49.4626 12.1928C49.7214 12.8172 49.8096 13.4374 49.7272 14.0533C49.6494 14.6578 49.4164 15.2047 49.0282 15.694C48.648 16.18 48.1416 16.554 47.5092 16.8162ZM47.091 15.8075C47.4993 15.6382 47.8254 15.3951 48.0693 15.0782C48.3179 14.75 48.4646 14.3796 48.5093 13.967C48.5508 13.5464 48.4802 13.116 48.2977 12.6757C48.1152 12.2353 47.8621 11.8852 47.5386 11.6253C47.2117 11.3573 46.846 11.1993 46.4415 11.1513C46.0449 11.0999 45.6424 11.1588 45.2341 11.3281C44.8258 11.4973 44.4957 11.7421 44.2438 12.0623C43.9999 12.3792 43.8532 12.7496 43.8038 13.1735C43.759 13.5861 43.8279 14.0125 44.0104 14.4529C44.193 14.8932 44.4477 15.2473 44.7745 15.5153C45.1061 15.7719 45.4718 15.9299 45.8717 15.9892C46.2762 16.0373 46.6827 15.9767 47.091 15.8075Z" fill="#151D28"/>
<path d="M56.8952 10.2855C57.8158 10.2972 58.3798 10.7371 58.5873 11.6053C58.7284 12.1953 58.6138 12.7039 58.2436 13.131C57.8818 13.5561 57.2626 13.8734 56.386 14.0829L53.1618 14.8535L51.5601 8.15229L54.6705 7.40886C55.4628 7.21948 56.1187 7.22313 56.6379 7.4198C57.1552 7.60805 57.4793 7.97612 57.6103 8.52402C57.6949 8.87805 57.6715 9.20888 57.5401 9.51653C57.4151 9.81373 57.2001 10.0701 56.8952 10.2855ZM53.4377 10.751L55.2584 10.3158C55.722 10.205 56.0516 10.0371 56.2474 9.81213C56.4515 9.58512 56.5153 9.31146 56.4388 8.99115C56.2856 8.35053 55.7371 8.14304 54.793 8.36869L52.9723 8.80386L53.4377 10.751ZM56.0738 13.1684C56.5796 13.0475 56.9398 12.8768 57.1544 12.6562C57.369 12.4356 57.436 12.1567 57.3554 11.8196C57.2728 11.474 57.0933 11.2451 56.817 11.1329C56.5491 11.0187 56.1665 11.021 55.6692 11.1399L53.6462 11.6234L54.1267 13.6338L56.0738 13.1684Z" fill="#151D28"/>
<path d="M85.4248 14.7101L84.7839 17.3237L83.6475 17.045L84.0283 15.492L78.4351 14.1204L78.0542 15.6734L76.9053 15.3917L77.5462 12.7781L77.8997 12.8648C78.3352 12.9448 78.7041 12.714 79.0064 12.1725C79.3088 11.6309 79.6195 10.837 79.9385 9.7909L80.5937 7.55563L85.7829 8.82815L84.4021 14.4593L85.4248 14.7101ZM81.0279 10.1517C80.7878 10.9852 80.5449 11.6663 80.2993 12.195C80.0641 12.7174 79.7777 13.0665 79.4401 13.2425L83.19 14.1621L84.3108 9.5915L81.4068 8.87938L81.0279 10.1517Z" fill="#151D28"/>
<path d="M89.5827 17.8568C88.9534 17.5872 88.4475 17.2055 88.065 16.7117C87.6825 16.2179 87.452 15.6666 87.3734 15.0578C87.3061 14.4444 87.4056 13.827 87.6717 13.2056C87.9379 12.5842 88.3145 12.0903 88.8015 11.7238C89.2999 11.3527 89.858 11.1392 90.4759 11.0833C91.0972 11.0195 91.7226 11.1223 92.352 11.3919C92.9813 11.6615 93.4832 12.0415 93.8577 12.5319C94.2436 13.0178 94.4702 13.5674 94.5374 14.1807C94.616 14.7895 94.5223 15.4046 94.2561 16.026C93.9899 16.6474 93.6077 17.1437 93.1093 17.5147C92.6223 17.8813 92.0681 18.0964 91.4468 18.1603C90.8334 18.2275 90.2121 18.1264 89.5827 17.8568ZM90.0127 16.853C90.419 17.027 90.8207 17.0907 91.2179 17.044C91.6264 16.9927 91.9939 16.839 92.3205 16.5829C92.6505 16.3188 92.9093 15.9677 93.097 15.5295C93.2847 15.0914 93.3585 14.6657 93.3186 14.2527C93.2821 13.8316 93.1398 13.4595 92.8917 13.1364C92.6515 12.8166 92.3283 12.5698 91.922 12.3957C91.5157 12.2217 91.11 12.1563 90.7049 12.1996C90.3077 12.2464 89.9402 12.4001 89.6022 12.6607C89.2757 12.9168 89.0186 13.264 88.8309 13.7021C88.6432 14.1403 88.5676 14.5699 88.6041 14.991C88.652 15.4074 88.7943 15.7795 89.031 16.1072C89.2792 16.4304 89.6064 16.679 90.0127 16.853Z" fill="#151D28"/>
<path d="M100.812 20.0142C101.447 20.6812 101.526 21.3922 101.049 22.147C100.725 22.66 100.281 22.9332 99.7171 22.9665C99.1602 23.0044 98.5007 22.7828 97.7385 22.3017L94.9352 20.5322L98.613 14.7059L101.317 16.4129C102.006 16.8478 102.462 17.3197 102.683 17.8287C102.91 18.3304 102.873 18.8195 102.572 19.2958C102.378 19.6036 102.125 19.8179 101.813 19.9387C101.513 20.0568 101.179 20.082 100.812 20.0142ZM98.0642 17.8646L99.6472 18.8638C100.05 19.1183 100.401 19.237 100.698 19.2199C101.003 19.2075 101.244 19.0621 101.42 18.7836C101.771 18.2266 101.537 17.689 100.716 17.1709L99.1328 16.1717L98.0642 17.8646ZM98.175 21.4397C98.6147 21.7172 98.9885 21.8558 99.2962 21.8553C99.604 21.8548 99.8504 21.708 100.035 21.4149C100.225 21.1144 100.264 20.8261 100.151 20.55C100.046 20.2785 99.7767 20.0063 99.3443 19.7334L97.5854 18.6231L96.4821 20.371L98.175 21.4397Z" fill="#151D28"/>
<path d="M103.861 27.2506C103.347 26.7984 102.985 26.2782 102.775 25.6898C102.565 25.1014 102.518 24.5057 102.633 23.9027C102.76 23.2989 103.047 22.7432 103.493 22.2356C103.94 21.728 104.451 21.3759 105.028 21.1793C105.618 20.9819 106.214 20.9529 106.819 21.0923C107.429 21.2251 107.992 21.5176 108.506 21.9698C109.02 22.422 109.378 22.9394 109.581 23.5221C109.797 24.1039 109.841 24.6968 109.714 25.3006C109.599 25.9036 109.318 26.4589 108.872 26.9665C108.425 27.4741 107.907 27.8266 107.318 28.024C106.741 28.2206 106.148 28.2525 105.537 28.1196C104.934 27.9925 104.375 27.7028 103.861 27.2506ZM104.582 26.4307C104.914 26.7226 105.276 26.9082 105.668 26.9875C106.072 27.066 106.469 27.0344 106.859 26.8928C107.255 26.7446 107.61 26.4916 107.925 26.1336C108.24 25.7757 108.443 25.3943 108.533 24.9893C108.63 24.5779 108.61 24.1799 108.475 23.7956C108.347 23.417 108.116 23.0817 107.784 22.7898C107.453 22.4978 107.087 22.3094 106.689 22.2244C106.297 22.1451 105.9 22.1767 105.498 22.3191C105.107 22.4608 104.755 22.7105 104.44 23.0685C104.125 23.4264 103.92 23.8111 103.823 24.2225C103.739 24.6332 103.758 25.0311 103.881 25.4163C104.016 25.8006 104.25 26.1388 104.582 26.4307Z" fill="#151D28"/>
<path d="M117.18 31.6502L111.845 36.0101L111.055 35.0437L115.545 31.3748L113.669 29.0797L112.432 29.99C111.687 30.5432 111.034 30.9703 110.474 31.2712C109.921 31.5666 109.412 31.7249 108.948 31.7459C108.484 31.767 108.096 31.5863 107.783 31.2038C107.64 31.0293 107.509 30.8066 107.388 30.5358L108.253 29.9299C108.304 30.0336 108.36 30.1224 108.42 30.1962C108.64 30.4646 108.921 30.57 109.266 30.5122C109.611 30.4545 109.96 30.3142 110.315 30.0912C110.67 29.8682 111.16 29.5295 111.785 29.0749L113.832 27.5532L117.18 31.6502Z" fill="#151D28"/>
<path d="M118.951 39.078C119.384 39.8391 119.547 40.5161 119.441 41.1093C119.334 41.7024 118.974 42.1776 118.36 42.5349C117.716 42.9096 117.091 42.9821 116.486 42.7524C115.893 42.5258 115.367 42.0095 114.909 41.2035L113.417 38.6123L119.373 35.1484L120 36.2272L117.988 37.3971L118.951 39.078ZM115.677 40.6365C115.952 41.1278 116.263 41.4383 116.609 41.5679C116.96 41.7049 117.333 41.658 117.731 41.4271C118.12 41.2005 118.333 40.9113 118.369 40.5595C118.409 40.2152 118.287 39.7899 118.003 39.2836L117.202 37.8546L114.864 39.214L115.677 40.6365Z" fill="#151D28"/>
<path d="M123.659 43.435L124.108 44.5993L121.379 45.6526L122.793 49.3152L125.522 48.2618L125.972 49.4261L119.544 51.9074L119.094 50.7431L121.787 49.7038L120.373 46.0412L117.68 47.0806L117.231 45.9163L123.659 43.435Z" fill="#151D28"/>
<path d="M125.123 56.4792C125.28 57.3316 125.211 58.0205 124.916 58.5459C124.621 59.0714 124.125 59.402 123.428 59.538C122.696 59.6805 122.082 59.5441 121.586 59.1286C121.1 58.72 120.773 58.0597 120.604 57.1478L120.063 54.2999L126.825 52.982L127.064 54.207L124.78 54.6521L125.123 56.4792ZM128.128 59.6683L128.367 60.8932L121.604 62.2111L121.365 60.9861L128.128 59.6683ZM121.518 56.877C121.618 57.4316 121.809 57.8269 122.094 58.0628C122.38 58.3073 122.748 58.3856 123.199 58.2978C123.641 58.2116 123.937 58.0082 124.087 57.6877C124.236 57.3672 124.261 56.9254 124.16 56.3623L123.887 54.8261L121.233 55.3433L121.518 56.877Z" fill="#151D28"/>
<path d="M121.614 68.7639L124.208 66.7164L121.524 64.7609L121.493 63.3703L125.076 66.0078L128.384 63.3462L128.415 64.7369L125.976 66.6899L128.5 68.5189L128.531 69.8836L125.106 67.3595L121.645 70.1806L121.614 68.7639Z" fill="#151D28"/>
<path d="M122.641 81.6726L122.975 80.2822L120.144 79.6021L120.435 78.3886L127.135 79.9977L126.843 81.2112L124.012 80.5311L123.672 81.9469L125.981 84.8011L125.668 86.1031L123.055 82.7882L118.926 84.671L119.269 83.2426L122.641 81.6726Z" fill="#151D28"/>
<path d="M122.239 94.4122L115.877 91.7667L116.357 90.6144L121.71 92.8406L122.848 90.1037L121.462 89.4427C120.622 89.0467 119.937 88.6728 119.408 88.3212C118.886 87.9729 118.507 87.5992 118.269 87.2C118.031 86.8009 118.007 86.3732 118.197 85.9171C118.284 85.709 118.418 85.4879 118.6 85.2538L119.542 85.7301C119.475 85.8242 119.423 85.9152 119.386 86.0032C119.253 86.3233 119.293 86.6216 119.507 86.8981C119.72 87.1747 120.009 87.4168 120.373 87.6245C120.738 87.8323 121.267 88.1042 121.963 88.4404L124.271 89.5267L122.239 94.4122Z" fill="#151D28"/>
<path d="M120.199 98.0253L119.531 99.0799L115.291 96.3967L117.272 102.65L116.667 103.606L110.845 99.9217L111.512 98.8671L115.753 101.55L113.765 95.3079L114.376 94.3411L120.199 98.0253Z" fill="#151D28"/>
<path d="M107.235 109.081C107.164 109.017 107.076 108.926 106.972 108.809L110.718 104.659C110.215 104.311 109.674 104.179 109.096 104.263C108.518 104.361 108.002 104.66 107.549 105.162C106.998 105.773 106.759 106.451 106.834 107.196L105.774 107.167C105.713 106.692 105.769 106.216 105.941 105.741C106.107 105.272 106.382 104.826 106.765 104.401C107.253 103.861 107.795 103.48 108.391 103.259C108.994 103.045 109.599 103.001 110.207 103.13C110.809 103.265 111.361 103.558 111.863 104.011C112.358 104.459 112.706 104.972 112.908 105.55C113.104 106.135 113.137 106.72 113.007 107.303C112.878 107.899 112.593 108.441 112.151 108.93C111.71 109.419 111.205 109.752 110.638 109.928C110.07 110.117 109.492 110.137 108.901 109.989C108.305 109.848 107.749 109.545 107.235 109.081ZM111.37 108.225C111.77 107.781 111.972 107.286 111.975 106.739C111.972 106.2 111.775 105.706 111.384 105.26L108.422 108.541C108.899 108.879 109.41 109.018 109.953 108.96C110.497 108.914 110.969 108.669 111.37 108.225Z" fill="#151D28"/>
<path d="M106.901 113.893L105.925 114.67L104.103 112.382L101.031 114.827L102.853 117.115L101.877 117.892L97.5856 112.502L98.5621 111.724L100.359 113.982L103.431 111.537L101.634 109.279L102.61 108.502L106.901 113.893Z" fill="#151D28"/>
<path d="M93.753 121.315L95.9419 120.062L93.062 115.03L94.1451 114.41L97.0251 119.442L99.2139 118.189L99.7564 119.137L94.2955 122.262L93.753 121.315Z" fill="#151D28"/>
<path d="M85.8132 118.185C86.4522 117.939 87.0809 117.86 87.6994 117.947C88.3179 118.034 88.8677 118.268 89.3487 118.65C89.8248 119.042 90.1842 119.554 90.427 120.185C90.6697 120.816 90.7445 121.432 90.6512 122.035C90.553 122.648 90.302 123.19 89.8982 123.662C89.4976 124.141 88.9778 124.503 88.3388 124.749C87.6998 124.995 87.0751 125.073 86.4646 124.983C85.8492 124.904 85.3035 124.668 84.8275 124.275C84.3464 123.894 83.9845 123.388 83.7418 122.757C83.499 122.126 83.4267 121.504 83.525 120.89C83.6182 120.288 83.8652 119.747 84.2658 119.268C84.6584 118.792 85.1742 118.431 85.8132 118.185ZM86.2053 119.204C85.7928 119.363 85.4605 119.598 85.2086 119.908C84.9516 120.23 84.7955 120.597 84.7402 121.008C84.688 121.427 84.7475 121.859 84.9186 122.304C85.0898 122.749 85.3338 123.106 85.6505 123.374C85.9704 123.65 86.3319 123.817 86.7352 123.876C87.1303 123.937 87.5341 123.889 87.9466 123.73C88.3591 123.571 88.6954 123.335 88.9555 123.021C89.2074 122.711 89.3636 122.344 89.4239 121.922C89.4792 121.511 89.4212 121.082 89.2501 120.638C89.0789 120.193 88.8334 119.832 88.5135 119.556C88.1887 119.291 87.8271 119.124 87.4289 119.054C87.0257 118.996 86.6178 119.046 86.2053 119.204Z" fill="#151D28"/>
<path d="M76.262 124.473C75.342 124.438 74.7895 123.983 74.6043 123.11C74.4785 122.517 74.606 122.011 74.9871 121.594C75.3596 121.178 75.9868 120.877 76.8685 120.69L80.1114 120.002L81.5406 126.742L78.4122 127.406C77.6152 127.575 76.9597 127.554 76.4456 127.344C75.9334 127.143 75.6188 126.766 75.502 126.215C75.4265 125.859 75.4583 125.529 75.5976 125.225C75.7302 124.931 75.9517 124.68 76.262 124.473ZM79.7304 124.096L77.8991 124.484C77.4328 124.583 77.0989 124.743 76.8975 124.963C76.6876 125.184 76.6168 125.456 76.6851 125.778C76.8217 126.423 77.3648 126.644 78.3143 126.443L80.1456 126.055L79.7304 124.096ZM77.1571 121.612C76.6484 121.72 76.2839 121.881 76.0637 122.096C75.8436 122.311 75.7694 122.588 75.8413 122.927C75.915 123.275 76.0886 123.508 76.3619 123.628C76.6268 123.749 77.0093 123.756 77.5095 123.65L79.5443 123.219L79.1155 121.197L77.1571 121.612Z" fill="#151D28"/>
</svg>
