<?xml version="1.0" encoding="utf-8"?>
<!-- Generator: Adobe Illustrator 21.1.0, SVG Export Plug-In . SVG Version: 6.00 Build 0)  -->
<svg version="1.1" id="Layer_1" xmlns="http://www.w3.org/2000/svg" xmlns:xlink="http://www.w3.org/1999/xlink" x="0px" y="0px"
	 viewBox="0 0 299 189" style="enable-background:new 0 0 299 189;" xml:space="preserve">
<style type="text/css">
	.st0{fill:#2B3B47;}
	.st1{fill:#D6E3DD;}
	.st2{fill:#43AED0;}
	.st3{fill:#2A8DAC;}
	.st4{fill:#263441;}
	.st5{fill:#344551;}
	.st6{opacity:0.47;clip-path:url(#XMLID_2_);}
	.st7{fill:#FFFFFF;}
	.st8{opacity:0.44;clip-path:url(#XMLID_3_);}
	.st9{opacity:0.47;clip-path:url(#XMLID_4_);fill:#FFFFFF;}
	.st10{fill:#64C6DD;}
	.st11{clip-path:url(#SVGID_2_);}
	.st12{fill:#4B4C4B;}
	.st13{fill:#BFC4C1;}
	.st14{opacity:0.62;fill:#FFFFFF;}
	.st15{opacity:0.57;fill:#FFFFFF;}
	.st16{fill:#1E7E9C;}
</style>
<g id="XMLID_36_">
	<g id="XMLID_227_">
		<g id="XMLID_223_">
			<ellipse id="XMLID_682_" class="st0" cx="173.7" cy="148.5" rx="20.8" ry="28.7"/>
			<ellipse id="XMLID_681_" class="st1" cx="164.2" cy="148.4" rx="10.7" ry="23.1"/>
		</g>
		<g id="XMLID_211_">
			<ellipse id="XMLID_678_" class="st0" cx="20.1" cy="139.1" rx="16.2" ry="42.9"/>
			<ellipse id="XMLID_677_" class="st1" cx="13.3" cy="140" rx="6.4" ry="28.7"/>
			<ellipse id="XMLID_50_" class="st0" cx="11.5" cy="141" rx="4.3" ry="19.3"/>
			<ellipse id="XMLID_60_" class="st0" cx="11.2" cy="142.3" rx="2.3" ry="10.5"/>
			<ellipse id="XMLID_674_" class="st0" cx="11.9" cy="137.9" rx="4.5" ry="12.7"/>
		</g>
		<g id="XMLID_666_">
			<ellipse id="XMLID_671_" class="st0" cx="268.5" cy="148.1" rx="29.6" ry="40.9"/>
			<ellipse id="XMLID_670_" class="st1" cx="261.4" cy="149.8" rx="17.8" ry="34.7"/>
			<ellipse id="XMLID_667_" class="st0" cx="258.2" cy="151.9" rx="10.3" ry="23.5"/>
		</g>
		<g id="XMLID_202_">
			<ellipse id="XMLID_582_" class="st0" cx="76.2" cy="147.5" rx="27" ry="40.9"/>
			<ellipse id="XMLID_581_" class="st1" cx="66.4" cy="147.3" rx="13.1" ry="29.1"/>
			<ellipse id="XMLID_578_" class="st0" cx="65.4" cy="147.3" rx="10.4" ry="23.2"/>
			<path id="XMLID_577_" class="st1" d="M58.9,149.2l-4.9,1.5l0.1-7.8l4-0.7l-3.4-4.5l1.5-7.2l3.5,5.2c0.7-2.3,1.7-4.1,2.9-5.1
				l0.7-10.5l6.2,0.1L67.7,131c1.2,1.2,2.2,3.3,2.9,5.8l5.7-6l1.5,8l-6.2,5.4c0,0,0,0.1,0,0.1c0,0.5,0,0.9,0,1.4L78,145v6.7
				l-7.3-0.5c0,0.1-0.1,0.3-0.1,0.4l6.9,6L75,164l-6.4-7.7c-0.3,0.4-0.6,0.8-0.9,1.1l2,13.9l-7.6,0.3l0.2-14.2
				c-0.5-0.4-0.9-1-1.3-1.7l-5,6.1l-1.7-7.9l4.8-3.6C59,150,59,149.6,58.9,149.2z"/>
			<path id="XMLID_9_" class="st1" d="M9.3,146.7l-2,1.4L7,139l2,1.6l-1.8-7.8l0.7-8.7l1.7,6.3c0.4-2.8,1.2-17,1.2-17l3.3,0.2
				c0,0,0.5,14.8,0.9,17.9l2.8-7.3l0.7,9.7c0,0-4.1,8.3-4.1,8.9l4.2-1.3v8l-3.6-0.6c-0.8-1,2.8,7.8,2.8,7.8l-1.9,6.9l-3.3-12.2
				c-0.1,0.5,1.3,14.4,1.3,14.4l-3.2-0.8l-0.3-13.1c-0.2-0.5-1.4,8.1-1.4,8.1l-1.5-8.2C7.7,152.1,9.3,147.2,9.3,146.7z"/>
		</g>
	</g>
	<path id="XMLID_711_" class="st2" d="M3.9,143.8c0,0-2.2-42.3,3.7-38c0,0,7.3,6.9,6.9,26.2c0,0-0.4,23.1,9.1,25l26.7,2.7
		c0,0-4.6-17.1,4.2-36.8c0,0,0.7-33.8,10.4-20.1c0.6,0.9,0.7,1.4,1.7,3.8c3,7.3,8.7,24.4,7.9,45.2l0.1,0.2c0.1,0.4,0.4,1.6,0.9,3
		l0,0.1c0.8,2.3,2.2,5.4,4.2,7.4c0,0,14.1,0.5,35.2,1.1c48.4,1.3,133.6,2.7,170.1-1.4c3.5-0.4,6.5-0.8,9-1.3c0,0,3-4.8,4.3-10
		c0.5-1.8,0.7-3.6,0.6-5.3c0,0-0.1-37.2-9.5-52.4c0,0,0.8-22.1-19.5-28.2c0,0-4.6-4.4-11.4-10.6C242,38.7,212,11.8,204.5,10
		c0,0-59.8-17.6-129.7-6.1c0,0-21.7-1.9-39.3,21.3c0,0-3.8,5-7.4,12.3c-2.7,5.4-5.3,12.2-6.1,19.2c0,0,0,0.1-0.1,0.2
		c-1.1,1.2-8.8,9.6-10.2,12.8C10.2,73.3,6.3,92,4.6,100C4.6,100-5.3,131.3,3.9,143.8z"/>
	<path id="XMLID_482_" class="st3" d="M22.2,56.7c2.1,1,21.7,10,40.7,12.3c0,0,0.1,0,0.1,0c0.5,0.3,16.3,1.8,25.6-4.7
		c0.2-0.1,0.2-0.4,0-0.5c-1.8-1.1-10.1-6.5-9.2-11.3c0-0.1,0.1-0.2,0.3-0.2l178.2,1.7c0.2,0,0.4-0.3,0.2-0.5
		c-16.7-15.5-46.1-42-53.6-43.7c0,0-59.7-17.6-129.6-6.1c0,0-21.9-1.9-39.3,21.3c0,0-11.4,15-13.5,31.3
		C22.1,56.6,22.1,56.7,22.2,56.7z"/>
	<g id="XMLID_230_">
		<path id="XMLID_486_" class="st4" d="M259,54.2l5,4.5l3.3-1.1l-0.8-4.4c-6.4-10.7-16-7.1-16-7.1L259,54.2z"/>
		<path id="XMLID_485_" d="M259.2,54.3l4.8,4.4c0,0,3.3-0.2,3.3-1.1c-0.1-3.1-0.8-4.3-0.8-4.3C265,51.9,259.2,54.3,259.2,54.3z"/>
		<path id="XMLID_479_" class="st5" d="M48.9,13.6c0,0,21.3-15.9,20.9,1.7c0,0-3.8,45.7-11.2,53.1c0,0-31.6-6.2-36.3-11.4
			C20.7,55.1,35.2,21.5,48.9,13.6z"/>
		<path id="XMLID_476_" class="st1" d="M65.9,28.2c0,0,2.4-14.5-3-16c0,0-4.3-0.8-5.1,0.2c-5.9,8.4-13.5,22.4-17.7,40.3
			c0,0,11.6,7.4,16.7,3.5C61.9,52.4,65.9,28.2,65.9,28.2z"/>
		<path id="XMLID_473_" class="st1" d="M51.7,15.6c0,0-18.2,10.1-23,32.9c0,0,8.9,3.4,9.9,2.6c0.9-0.8,7.6-24.4,13.8-33.4
			C52.4,17.7,54,15.2,51.7,15.6z"/>
		<path id="XMLID_470_" class="st5" d="M203.3,12.5c-5.3-1.1-81.9-15.7-126.2-0.1c-1.3,0.5-2.2,1.7-2.3,3.2
			c-0.2,8.9-0.3,39.7,7,36.9c0,0,127.8-0.6,163.1,0.6c3.1,0.1,4.8-3.7,2.6-5.9c-10.1-10.3-30.3-29.6-43.6-34.5
			C203.7,12.6,203.5,12.6,203.3,12.5z"/>
		<path id="XMLID_467_" class="st1" d="M233.9,48c2.7,0.1,4-3.3,2.1-5.1c-10.9-10.4-24.6-22.1-33.7-25.5c-3.8-0.7-37.6-7.2-72.3-7.2
			c-19.5,0-35.7,2-48.3,5.9c-1.2,0.4-2,1.5-2,2.8c-0.1,10.9,0.6,21.3,1.9,26.5c0.3,1.3,1.5,2.2,2.9,2.2c8.5,0,36.8-0.1,67.5-0.1
			C194.5,47.5,219.3,47.7,233.9,48z"/>
		<g id="XMLID_221_">
			<defs>
				<path id="XMLID_216_" d="M233.9,48c2.7,0.1,4-3.3,2.1-5.1c-10.9-10.4-24.6-22.1-33.7-25.5c-3.8-0.7-37.6-7.2-72.3-7.2
					c-19.5,0-35.7,2-48.3,5.9c-1.2,0.4-2,1.5-2,2.8c-0.1,10.9,0.6,21.3,1.9,26.5c0.3,1.3,1.5,2.2,2.9,2.2c8.5,0,36.8-0.1,67.5-0.1
					C194.5,47.5,219.3,47.7,233.9,48z"/>
			</defs>
			<clipPath id="XMLID_2_">
				<use xlink:href="#XMLID_216_"  style="overflow:visible;"/>
			</clipPath>
			<g id="XMLID_11_" class="st6">
				<polygon id="XMLID_57_" class="st7" points="185.2,66 178.9,71.6 116.1,-0.3 122.4,-5.8 				"/>
				<polygon id="XMLID_66_" class="st7" points="165.6,67.1 149.3,81.5 86.5,9.6 102.8,-4.8 				"/>
			</g>
		</g>
		<g id="XMLID_135_">
			<defs>
				<path id="XMLID_69_" d="M65.9,28.2c0,0,2.4-14.5-3-16c0,0-4.3-0.8-5.1,0.2c-5.9,8.4-13.5,22.4-17.7,40.3c0,0,11.6,7.4,16.7,3.5
					C61.9,52.4,65.9,28.2,65.9,28.2z"/>
			</defs>
			<clipPath id="XMLID_3_">
				<use xlink:href="#XMLID_69_"  style="overflow:visible;"/>
			</clipPath>
			<g id="XMLID_186_" class="st8">
				<polygon id="XMLID_188_" class="st7" points="75.9,55.3 68.4,58.3 50,12.3 57.5,9.3 				"/>
				<polygon id="XMLID_187_" class="st7" points="63.3,56.1 59.1,57.8 40.7,11.8 44.8,10.1 				"/>
			</g>
		</g>
		<g id="XMLID_220_">
			<defs>
				<path id="XMLID_189_" d="M51.7,15.6c0,0-18.2,10.1-23,32.9c0,0,8.9,3.4,9.9,2.6c0.9-0.8,7.6-24.4,13.8-33.4
					C52.4,17.7,54,15.2,51.7,15.6z"/>
			</defs>
			<clipPath id="XMLID_4_">
				<use xlink:href="#XMLID_189_"  style="overflow:visible;"/>
			</clipPath>
			<polygon id="XMLID_103_" class="st9" points="49.1,43.4 45.5,44.8 36,18.5 39.6,17.2 			"/>
			<polygon id="XMLID_110_" class="st9" points="36.2,52.5 44,50.1 34.7,20.4 26.9,22.8 			"/>
		</g>
		<path id="XMLID_362_" class="st4" d="M62.6,59.1L60.9,64c0,0-27.8,3.2-35.1-5.7c0,0-1.9-20.3,28.2-13.5c3.3,0.7,0.1,13.6,0.1,13.6
			S59.7,60.1,62.6,59.1z"/>
	</g>
	<g id="XMLID_6_">
		<path id="XMLID_8_" class="st4" d="M9.3,107.7c0,0-3-9.6-5.2,4.2s-0.5,28.1,0.3,28.1C5.1,140.1,3.9,124.8,9.3,107.7z"/>
		<path id="XMLID_15_" class="st4" d="M68.3,108.9c0,0-6.8,1.7-13.7,13.9c0,0-1.1-23.8,5.6-23.8C60.2,99,65.5,98.7,68.3,108.9z"/>
		<path id="XMLID_463_" class="st3" d="M4.1,143.9c0,0-2.1-40.5,3.5-38.1c0,0,3,2.1,5.9,12.8c0,0,1.5-10.6-4.4-16
			c-1.9-1.8-5.1-0.8-5.7,1.8C1.1,113.3-3,134.2,4.1,143.9z"/>
		<path id="XMLID_445_" class="st5" d="M115,163.4c48.4,1.3,133.6,2.7,170.1-1.4l0.4-0.8c0,0,1-2.7-0.4-5.6
			c-1.3-2.7-2.5-6.4-3.5-7.1l-0.2-0.1c-1-0.2-3.1-35.6-20.1-39.5c0,0-33.6-13.4-38.1-11.3c-4.5,2.1-46.3,0.3-46.3,0.3
			s-39.6,5.4-48.8,21.3c0,0-10.2,19.6-10.8,30.1L115,163.4z"/>
		<path id="XMLID_436_" class="st0" d="M91.3,111.3c0,0-11.6,30.5,0,37.6c0,0,18.5,8.2,19.5-13.9
			C111.2,127.3,101.9,121.9,91.3,111.3z"/>
		<path id="XMLID_433_" class="st3" d="M91,110.9c0,0-12.4,29.4,0.3,38c0,0,18.5,8.2,19.5-13.9C111.2,127.3,101.6,121.5,91,110.9z"
			/>
		<path id="XMLID_430_" class="st0" d="M91,110.9c0,0-12.1,29.3-0.5,36.4c0,0,17.7,9.2,18.8-12.9C109.6,126.7,101.5,124.2,91,110.9z
			"/>
		<path id="XMLID_427_" class="st3" d="M294.1,112.6c0.6,4.7,3.8,31.8,2.5,34c0,0-7.6,6.2-12.3-0.8c-4.6-6.9,1.3-24.8,9.3-33.3
			C293.8,112.2,294.1,112.3,294.1,112.6z"/>
		<path id="XMLID_424_" class="st0" d="M293.8,117.9c0.9,7.4,2.7,24.3,2,28c-0.1,0.4-0.3,0.7-0.6,0.9c-1.7,1.2-7.9,4.9-11.9-1.1
			c-4.2-6.4,0.7-20,7.8-28.6C291.9,116,293.6,116.6,293.8,117.9z"/>
		<path id="XMLID_418_" class="st10" d="M267,69.9c0,0-175.3-13.1-181.5-8c0,0-7.8-5.6-6-9.5L258.3,54c0,0,11.9,10,11.7,10.8
			C269.8,65.7,268.5,69.8,267,69.9z"/>
		<path id="XMLID_347_" class="st3" d="M14.5,131.9c0,0-0.4,23.1,9.1,25l26.7,2.7l-1.3-10.4L23.3,146c0,0-3.9-0.4-8.5-18.6
			c-0.3-1-0.5-1.8-0.8-2.3C14.3,127.4,14.5,129.7,14.5,131.9z"/>
		<path id="XMLID_35_" class="st2" d="M71.5,121.6c0,0-2.2-30.6-14.2-24.5c-2.5,1.3-5.3,7.1-2.8,25.4c0,0,1.2-24.9,6.9-23
			C61.5,99.5,64.8,98.7,71.5,121.6z"/>
		<g id="XMLID_280_">
			<defs>
				<path id="SVGID_1_" d="M115,163.4c48.4,1.3,133.6,2.7,170.1-1.4l0.4-0.8c0,0,1-2.7-0.4-5.6c-1.3-2.7-2.5-6.4-3.5-7.1l-0.2-0.1
					c-1-0.2-3.1-35.6-20.1-39.5c0,0-33.6-13.4-38.1-11.3c-4.5,2.1-46.3,0.3-46.3,0.3s-39.6,5.4-48.8,21.3c0,0-10.2,19.6-10.8,30.1
					L115,163.4z"/>
			</defs>
			<clipPath id="SVGID_2_">
				<use xlink:href="#SVGID_1_"  style="overflow:visible;"/>
			</clipPath>
			<g id="XMLID_78_" class="st11">
				<g id="XMLID_108_">
					
						<rect x="87" y="99.1" transform="matrix(1 -9.492396e-03 9.492396e-03 1 -0.9394 1.8285)" class="st12" width="210.3" height="1.6"/>
				</g>
				<g id="XMLID_237_">
					
						<rect x="87" y="103.4" transform="matrix(1 -9.499344e-03 9.499344e-03 1 -0.9809 1.8301)" class="st12" width="210.3" height="1.6"/>
				</g>
				<g id="XMLID_288_">
					
						<rect x="87" y="107.7" transform="matrix(1 -9.492396e-03 9.492396e-03 1 -1.021 1.8289)" class="st12" width="210.3" height="1.6"/>
				</g>
				<g id="XMLID_642_">
					
						<rect x="87" y="112" transform="matrix(1 -9.492396e-03 9.492396e-03 1 -1.0618 1.8291)" class="st12" width="210.3" height="1.6"/>
				</g>
				<g id="XMLID_648_">
					
						<rect x="87" y="116.3" transform="matrix(1 -9.492396e-03 9.492396e-03 1 -1.1026 1.8293)" class="st12" width="210.3" height="1.6"/>
				</g>
				<g id="XMLID_654_">
					
						<rect x="87" y="120.6" transform="matrix(1 -9.492396e-03 9.492396e-03 1 -1.1434 1.8295)" class="st12" width="210.3" height="1.6"/>
				</g>
				<g id="XMLID_660_">
					
						<rect x="87" y="124.9" transform="matrix(1 -9.500116e-03 9.500116e-03 1 -1.1852 1.8312)" class="st12" width="210.3" height="1.6"/>
				</g>
				<g id="XMLID_665_">
					
						<rect x="87" y="129.2" transform="matrix(1 -9.492396e-03 9.492396e-03 1 -1.225 1.8299)" class="st12" width="210.3" height="1.6"/>
				</g>
				<g id="XMLID_675_">
					
						<rect x="87" y="133.5" transform="matrix(1 -9.499344e-03 9.499344e-03 1 -1.2668 1.8314)" class="st12" width="210.3" height="1.6"/>
				</g>
				<g id="XMLID_696_">
					
						<rect x="87" y="137.8" transform="matrix(1 -9.492396e-03 9.492396e-03 1 -1.3066 1.8303)" class="st12" width="210.3" height="1.6"/>
				</g>
				<g id="XMLID_700_">
					
						<rect x="87" y="142" transform="matrix(1 -9.500116e-03 9.500116e-03 1 -1.3485 1.832)" class="st12" width="210.3" height="1.6"/>
				</g>
				<g id="XMLID_704_">
					
						<rect x="87" y="146.3" transform="matrix(1 -9.492396e-03 9.492396e-03 1 -1.3882 1.8307)" class="st12" width="210.3" height="1.6"/>
				</g>
				<g id="XMLID_708_">
					
						<rect x="87" y="150.6" transform="matrix(1 -9.500116e-03 9.500116e-03 1 -1.4302 1.8323)" class="st12" width="210.3" height="1.6"/>
				</g>
			</g>
		</g>
		<path id="XMLID_442_" class="st3" d="M115,163.4c48.4,1.3,133.6,2.7,170.1-1.4l0.4-0.8c0,0,1-2.7-0.4-5.6
			c-1.3-2.7-2.5-6.4-3.5-7.1l-0.2-0.1l-21.5,6.3c0,0-108.9,2.5-111.8,1.6c-2.8-0.8-30.9-7.2-30.9-7.2l-1.2,7.6L115,163.4z"/>
		<path id="XMLID_439_" class="st3" d="M74.6,151.7l0,0.2l0.9,3l0,0.1c0.8,2.3,2.2,5.4,4.2,7.4c0,0,14.1,0.5,35.2,1
			c48.4,1.3,133.6,2.7,170.1-1.4c3.5-0.4,6.5-0.8,9-1.3c0,0,3-4.8,4.3-10c-5.4,2.2-36.5,14-83.7,10.3c0,0-100.8,0.6-112.2-5.4
			c-3.9-2.1-16-7.6-16-7.6s-2.1,4.6-3.5,5.2C81.1,153.9,74.6,151.7,74.6,151.7z"/>
		<path id="XMLID_421_" class="st13" d="M173,133.4h60.4c5.4,0,9.8-4.4,9.8-9.8l0,0c0-5.4-4.4-9.8-9.8-9.8H173
			c-5.4,0-9.8,4.4-9.8,9.8l0,0C163.2,129,167.6,133.4,173,133.4z"/>
		<path id="XMLID_508_" class="st10" d="M11.8,69.6c0,0,10.6,18.3,67.6,5c0,0,1-4.7,2.6-6.8c0,0-21,6.6-59.6-10.8
			c-0.1-0.1-0.3-0.1-0.4-0.2C20.8,58,13.1,66.4,11.8,69.6z"/>
		<path id="XMLID_415_" class="st3" d="M289.5,93.1c0,0,3.5,15.5-20.9,19.4c0,0-35.2-14.5-42-14.5C226.6,98,274,87.6,289.5,93.1z"/>
		<path id="XMLID_56_" class="st4" d="M285,156.7c-1.3-2.7-2.5-6.4-3.5-7.1l-0.2-0.1c-1-0.2-3.1-35.6-20.1-39.5
			c0,0-33.6-13.4-38.1-11.3c-4.5,2.1-46.3,0.3-46.3,0.3s-39.6,5.4-48.8,21.3c0,0-10.2,19.6-10.8,30.1l-2.2,13l-3,0l2-13.4
			c0.7-11,10.8-30.4,11.3-31.4c9.9-17,49.5-22.6,51.1-22.9l0.3,0l0.3,0c0.2,0,16.9,0.7,30.2,0.7c12.1,0,14.4-0.6,14.7-0.7
			c0.8-0.4,1.7-0.5,2.8-0.5c8,0,33.7,10.1,37.7,11.7c15.6,3.8,19.8,28,21.5,38.4c0.1,0.8,0.3,1.7,0.4,2.3c1,1,1.6,2.6,2.5,4.8
			c0.4,1,0.8,2,1.3,2.9c2,4,0.9,6.3,0.9,6.3l-3.7,0.4C285.1,162,286.4,159.6,285,156.7z"/>
		<path id="XMLID_412_" class="st3" d="M143.2,107c0,0-36.6-2.2-53.1-11.5c0,0,37.7-17.2,86.7,2.5L143.2,107z"/>
		<path id="XMLID_359_" class="st5" d="M257.3,80.9c0,0-38.5,1.7-41.6,0.7c0,0-13.4-12.9-32.1-0.2c0,0-51.4-0.4-56-1.2
			c0,0,11.2,9.4,12.8,15.4c0,0,30.1-0.9,36.3,2.4c6.2,3.3,26.7,24.8,47.3,0.5c0,0,24.5-5.1,29.1-4.6
			C253.2,93.9,254.6,89.1,257.3,80.9z"/>
		<path id="XMLID_356_" class="st1" d="M254.7,89.1l-32.9,4.5c0,0-18.2,28.6-43.4,0.3L137,89.7l-2.7-3c0,0,46,4,48.3,5.2
			c0,0,18.7,25.2,34.1,0.2l39.2-7.2L254.7,89.1z"/>
		<ellipse id="XMLID_353_" class="st1" cx="200.6" cy="94.3" rx="11.1" ry="8"/>
		<path id="XMLID_350_" class="st1" d="M252.9,97.7c0,0,25.7-5.4,31.2-3c0,0,4.3-0.3,5.4-1.6c0,0,0.4-11.4-6.9-20.1
			c-2.9-3.4-6.9-6.4-12.6-8.1c0,0-4.3,7.6-8.4,12.1c0,0,0,0,0,0c-1.7,1.9-3.5,3.3-4.9,3.3C256.7,80.2,250.2,95.8,252.9,97.7z"/>
		<path id="XMLID_566_" class="st1" d="M79.4,74.7c0,0,4.1,26.2,18.3,20c0,0,30.5,0.4,43.9,2.1c0,0-3.7-12.6-18.7-20.2
			c-3.5-1.8-7.7-3.3-12.6-4.4c0,0-19.8-5.9-21.3-8c0,0-8.1,1.7-9.6,7.2C79.2,72.3,79.1,73.4,79.4,74.7z"/>
		<path id="XMLID_241_" class="st14" d="M261.6,77c0.5,0,14.6,0.9,21-4c-2.9-3.4-6.9-6.4-12.6-8.1C270,64.8,265.7,72.4,261.6,77z"/>
		<path id="XMLID_369_" class="st15" d="M79.4,71.4l0.1,0.2c0,0,20.6,12.2,43.3,5c-3.5-1.8-7.7-3.3-12.6-4.4c0,0-19.8-5.9-21.3-8
			C89,64.1,80.8,65.8,79.4,71.4z"/>
		<g id="XMLID_454_">
			<path class="st16" d="M32.2,148.9c0,0,0.1,0,0.1,0c0.2-0.1,0.3-0.3,0.3-0.5C19,95.2,34.4,63.3,34.6,63c0.1-0.2,0-0.4-0.2-0.5
				c-0.2-0.1-0.4,0-0.5,0.2c-0.2,0.3-15.8,32.5-2.1,86C31.9,148.8,32,148.9,32.2,148.9z"/>
		</g>
		<path id="XMLID_344_" class="st3" d="M15.1,141.2c0.9,6.7,3.1,14.6,8.6,15.7l26.7,2.7c0,0-1.8-10.7-1-14.9l-7-7
			c0,0-22.6,12.3-25.2,3.3C16.7,139.4,16,139.6,15.1,141.2z"/>
	</g>
</g>
</svg>
