<?xml version="1.0" encoding="utf-8"?>
<!-- Generator: Adobe Illustrator 21.1.0, SVG Export Plug-In . SVG Version: 6.00 Build 0)  -->
<svg version="1.1" id="Layer_1" xmlns="http://www.w3.org/2000/svg" xmlns:xlink="http://www.w3.org/1999/xlink" x="0px" y="0px"
	 viewBox="0 0 321 200" style="enable-background:new 0 0 321 200;" xml:space="preserve">
<style type="text/css">
	.st0{fill:#263441;}
	.st1{fill:#2B3B47;}
	.st2{fill:#D6E3DD;}
	.st3{fill:#2A8DAC;}
	.st4{fill:#EA8313;}
	.st5{fill:none;stroke:#111111;stroke-miterlimit:10;}
	.st6{fill:#43AED0;}
	.st7{fill:#64C6DD;}
	.st8{fill:#1E7E9C;}
	.st9{opacity:0.57;}
	.st10{fill:#FFFFFF;}
	.st11{fill:#344551;}
	.st12{opacity:0.51;clip-path:url(#SVGID_2_);}
	.st13{opacity:0.51;clip-path:url(#SVGID_4_);}
	.st14{opacity:0.51;clip-path:url(#SVGID_6_);}
</style>
<g id="XMLID_44_">
	<g id="XMLID_42_">
		
			<ellipse transform="matrix(1.441536e-02 -0.9999 0.9999 1.441536e-02 171.1323 208.9683)" class="st0" cx="191.6" cy="17.7" rx="1.3" ry="2.6"/>
	</g>
	<g id="XMLID_200_">
		<g id="XMLID_156_">
			<g id="XMLID_150_">
				<g id="XMLID_504_">
					
						<ellipse transform="matrix(1.441593e-02 -0.9999 0.9999 1.441593e-02 -37.7915 282.0319)" class="st1" cx="124.2" cy="160.2" rx="39.8" ry="24.5"/>
				</g>
				<g id="XMLID_503_">
					
						<ellipse transform="matrix(1.440391e-02 -0.9999 0.9999 1.440391e-02 -48.9255 273.3712)" class="st2" cx="114.2" cy="161.5" rx="26.7" ry="11.3"/>
				</g>
				<g id="XMLID_70_">
					
						<ellipse transform="matrix(1.441040e-02 -0.9999 0.9999 1.441040e-02 -47.729 274.6202)" class="st1" cx="115.4" cy="161.5" rx="21.1" ry="8.9"/>
				</g>
				<g id="XMLID_74_">
					<path class="st2" d="M123.9,171.3l1.2-9.2l-6.3-1.7c0-0.5-0.1-1-0.2-1.5l5.9-5.3l-2.3-7.6l-4.9,8.8c-0.3-0.6-0.7-1.2-1.2-1.6
						l0.7-16.1l-5.5,0.5l1.1,15.3c-0.3,0.2-0.6,0.5-0.8,0.8l-4.4-9.1l-1.8,6.6l4.4,6.2c-0.1,0.3-0.2,0.7-0.3,1.1l-6.2-2.4l-0.3,6.4
						l6.3,1c0,0.4,0.1,0.8,0.2,1.3l-6.1,2.9l1.5,5.8l5.5-5.4c0.3,0.7,0.7,1.3,1.2,1.8l-5.1,9.7l3.4,5.2l4.8-13.9
						c0.4-0.1,0.7-0.3,1.1-0.6l1.4,14.7l4.9-6.2l-4.5-11.2c0.3-0.6,0.5-1.3,0.7-2L123.9,171.3z"/>
				</g>
			</g>
			<g id="XMLID_152_">
				<g id="XMLID_501_">
					
						<ellipse transform="matrix(1.441246e-02 -0.9999 0.9999 1.441246e-02 6.1484 315.4416)" class="st1" cx="163.1" cy="154.6" rx="28" ry="24.2"/>
				</g>
				<g id="XMLID_500_">
					
						<ellipse transform="matrix(1.442311e-02 -0.9999 0.9999 1.442311e-02 -2.4135 307.73)" class="st2" cx="154.9" cy="155.1" rx="21.1" ry="11.5"/>
				</g>
			</g>
			<g id="XMLID_75_">
				<g id="XMLID_536_">
					<path class="st1" d="M54.2,157.3C54,174.6,44,185.8,26.7,185.5c-17.3-0.2-26.9-14.7-26.7-32c0.2-17.3,10.6-31.1,27.9-30.8
						C45.1,123,54.5,140,54.2,157.3z"/>
				</g>
				<g id="XMLID_535_">
					<path class="st2" d="M38.4,157.9c-0.2,12.6-6.4,20.8-17.2,20.6c-10.7-0.2-16.7-10.7-16.5-23.3c0.2-12.6,6.6-22.7,17.4-22.5
						C32.8,132.9,38.6,145.3,38.4,157.9z"/>
				</g>
				<g id="XMLID_534_">
					<path class="st1" d="M35.7,157.6c-0.1,10-5.2,16.6-13.8,16.4c-8.6-0.1-13.5-8.5-13.3-18.5s5.3-18,14-17.9
						C31.2,137.7,35.9,147.5,35.7,157.6z"/>
				</g>
				<g id="XMLID_533_">
					
						<ellipse transform="matrix(1.442193e-02 -0.9999 0.9999 1.442193e-02 -134.091 174.3463)" class="st2" cx="21.4" cy="155.2" rx="11.5" ry="8.7"/>
				</g>
				<g id="XMLID_19_">
					<g id="XMLID_10_">
						<g>
							
								<ellipse transform="matrix(1.442554e-02 -0.9999 0.9999 1.442554e-02 -132.9013 168.6733)" class="st1" cx="19.1" cy="151.8" rx="1.4" ry="1.4"/>
						</g>
					</g>
					<g id="XMLID_9_">
						<g>
							
								<ellipse transform="matrix(1.442554e-02 -0.9999 0.9999 1.442554e-02 -128.1378 175.0811)" class="st1" cx="24.7" cy="152.5" rx="1.4" ry="1.4"/>
						</g>
					</g>
					<g id="XMLID_5_">
						<g>
							
								<ellipse transform="matrix(1.442470e-02 -0.9999 0.9999 1.442470e-02 -135.4757 180.9337)" class="st1" cx="24" cy="159.2" rx="1.4" ry="1.4"/>
						</g>
					</g>
					<g id="XMLID_3_">
						<g>
							
								<ellipse transform="matrix(1.442639e-02 -0.9999 0.9999 1.442639e-02 -140.9822 174.1595)" class="st1" cx="17.9" cy="158.6" rx="1.4" ry="1.4"/>
						</g>
					</g>
				</g>
				<g id="XMLID_14_">
					<g id="XMLID_526_">
						<g id="XMLID_528_">
							<polygon class="st2" points="24.9,145 21.5,144.7 21.4,135.1 25.4,135.2 							"/>
						</g>
						<g id="XMLID_527_">
							<polygon class="st2" points="22.7,164.8 19.4,164.5 18.9,174.6 23.6,175 							"/>
						</g>
					</g>
					<g id="XMLID_523_">
						<g id="XMLID_525_">
							<polygon class="st2" points="28,162.8 25,164.8 28,173.6 31.7,171.4 							"/>
						</g>
						<g id="XMLID_524_">
							<polygon class="st2" points="19.4,145.9 16.5,147.9 12.7,138.9 16.9,136.2 							"/>
						</g>
					</g>
					<g id="XMLID_520_">
						<g id="XMLID_522_">
							<polygon class="st2" points="14.4,150.3 13.7,154.4 6,153.3 6.6,148.4 							"/>
						</g>
						<g id="XMLID_521_">
							<polygon class="st2" points="30,155.7 29.3,159.6 37.4,161.6 38.3,155.9 							"/>
						</g>
					</g>
					<g id="XMLID_517_">
						<g id="XMLID_519_">
							<polygon class="st2" points="26.7,145.9 28.6,149.3 35.1,142.8 32.4,139.1 							"/>
						</g>
						<g id="XMLID_518_">
							<polygon class="st2" points="15.8,160.8 18.1,163.7 12.1,170.7 8.9,166.5 							"/>
						</g>
					</g>
				</g>
			</g>
			<g id="XMLID_154_">
				<g id="XMLID_498_">
					
						<ellipse transform="matrix(1.441401e-02 -0.9999 0.9999 1.441401e-02 122.1281 446.0365)" class="st1" cx="287.3" cy="161.1" rx="33.5" ry="27.4"/>
				</g>
				<g id="XMLID_497_">
					
						<ellipse transform="matrix(1.441475e-02 -0.9999 0.9999 1.441475e-02 114.5157 439.0562)" class="st2" cx="280" cy="161.4" rx="28.4" ry="19"/>
				</g>
				<g id="XMLID_496_">
					
						<ellipse transform="matrix(1.441455e-02 -0.9999 0.9999 1.441455e-02 115.0604 436.5576)" class="st1" cx="279" cy="159.9" rx="19.9" ry="12.4"/>
				</g>
			</g>
		</g>
		<g id="XMLID_499_">
			<path class="st0" d="M145.6,171.5c0,0,104.7,5.3,124.5,3.8c19.8-1.5,17.4-17.9,17.4-17.9l-141,2.2
				C146.5,159.6,145.7,168.5,145.6,171.5z"/>
		</g>
		<g id="XMLID_563_">
			<path class="st3" d="M319.7,160.3c0,0-5.3,1-5.6-4.1l-51.3,1.1l-2.7,3.4l-39.2,0.8l-2.9-3.8l-65.5,1.3l-0.6,1.6
				c-1.2,3-4,5.1-7.2,5.5c-1.2,0.1-2.5,0.2-3.8,0.3c-4.7,0.3-8.9-2.9-9.8-7.6c-2.1-11.4-7.2-33-16.3-40.3c-1.8-1.4-3.8-2.3-5.9-2.5
				c0,0-23,3.1-8.5,53.6l-49-1.2c0,0-18.4-6.7-20.8-10.3c-2.4-3.5-9-54.5-20.3-36.1c0,0-1.8,3.9-1.4,7.6L6,132.9
				c0,0,0.2-12.1,5.4-24.9c0.3-0.6,0.5-1.2,0.8-1.8c3.1-7.1,7.9-14.2,15.1-19.5c0,0,36-56.5,66.7-61.5c0,0,92-16.2,161.9-0.6
				c0,0,25.8,27,30.5,38c1.2,2.8,7,5.2,11.2,7.2c2.5,1.2,4.5,2.2,4.8,3.1c0,0,4.9,15.7,4.5,23.2c0,0.4,0,0.9,0.1,1.3
				c0.2,1,0.7,1.9,1.5,2.5C313.4,104,324.8,118.6,319.7,160.3z"/>
		</g>
		<g id="XMLID_158_">
			<g id="XMLID_561_">
				<g>
					<path class="st0" d="M220.4,162.4l-5-7.9l51-1l-5.9,8.1L220.4,162.4z M218.3,156.1l2.9,4.6l38.4-0.8l3.4-4.7L218.3,156.1z"/>
				</g>
			</g>
			<g id="XMLID_553_">
				<path class="st4" d="M154.4,21.9c-8.6,1-15.6,3.5-16,3.8c2.1-4.3-23.5-2.9-32.2-2.3c25.3-3.5,89-11,140.5-0.5
					C247,23.4,181.9,18.7,154.4,21.9z"/>
			</g>
			<g id="XMLID_550_">
				<g>
					<g>
						<g>
							<g>
								<path class="st5" d="M38.7,79.4"/>
							</g>
						</g>
					</g>
				</g>
			</g>
			<g id="XMLID_29_">
				<path class="st6" d="M137.8,91.2c8.7,35,5.2,42.2,88.9,41.7c0,0,56.7-0.6,67-1.8c4-0.5,3.9-14.7-0.6-32c0,0-10.7,21.4-41,24
					S136.1,84.4,137.8,91.2z"/>
			</g>
			<g id="XMLID_540_">
				<path class="st7" d="M155.7,72c0,0,127,6.8,136.5,1.8c0,0,2.6,45-9,46.4c-21.1,2.5-82.2,7.3-107.2-3
					C165,112.7,157.3,74,155.7,72z"/>
			</g>
			<g id="XMLID_538_">
				<path class="st6" d="M193.7,84c0,0,0.7,24.8,11.5,25.2l52.9,0.5c0,0,10.2,2.8,7.9-24.4L193.7,84z"/>
			</g>
			<g id="XMLID_96_">
				<g id="XMLID_8_">
					<g>
						<path class="st6" d="M266.1,87.1c0-0.6-0.1-1.2-0.1-1.9l-0.1,0C266,85.9,266,86.5,266.1,87.1z"/>
					</g>
				</g>
				<g id="XMLID_7_">
					<g>
						<path class="st8" d="M259.8,105.6l-38.7,3.7l37,0.3c0,0,6.1,1.7,7.8-10.2C264.2,106.4,259.8,105.6,259.8,105.6z"/>
					</g>
				</g>
				<g id="XMLID_6_">
					<g>
						<path class="st6" d="M196.6,100.4c0.6,1.8,1.4,3.4,2.4,4.8C198,103.7,197.3,102.1,196.6,100.4z"/>
					</g>
				</g>
			</g>
			<g id="XMLID_547_">
				<path class="st2" d="M246.8,106.6l-30.1-0.4c-1.5,0-2.7-1.2-2.6-2.7l0.2-13.6c0-1.5,1.2-2.7,2.7-2.6l30.1,0.4
					c1.5,0,2.7,1.2,2.6,2.7l-0.2,13.6C249.5,105.5,248.3,106.7,246.8,106.6z"/>
			</g>
			<g id="XMLID_516_">
				<path class="st2" d="M307,97.3c-1,1.2-9.7,3.2-14.5,4.2c-1.7,0.4-3.3-1-3.2-2.7c0.1-2.2,0.4-5.2,0.8-8.4
					c0.9-7.8,2.2-16.5,2.2-16.5c-0.3-1.9,5.3-3.9,5.3-3.9l0.2-0.1c2.5,1.2,4.5,2.2,4.8,3.1c0,0,2.4,7.7,3.7,14.8l0,0
					c0.6,3.1,0.9,6.1,0.8,8.3C306.9,96.5,306.9,96.9,307,97.3z"/>
			</g>
			<g id="XMLID_543_">
				<path class="st6" d="M111.7,82.8c0,0-16.8,38.4-17.7,43.2c-0.9,4.8-1.7,32.7-1.7,32.7l-61.8-0.4c-2.4-3.5-9-54.5-20.3-36.1
					c0,0-1.8,3.9-1.4,7.6L6,132.9c0,0,0.2-12.1,5.4-24.9c0-0.4,0.3-1.1,0.8-1.8c0,0,5.2-12.5,25.8-18.3c2.2-0.6,4.6-1.2,7.2-1.6
					c0,0,17.7-6.6,36-12.8c0,0,0.1,0,0.2,0c17.1-5.8,34.6-11.3,39-10.8C120.2,62.6,110.8,76,111.7,82.8z"/>
			</g>
			<g id="XMLID_32_">
				<path class="st6" d="M111.7,82.8c0,0-16.8,38.4-17.7,43.2c-0.9,4.8-1.7,32.7-1.7,32.7l-61.8-0.4c-2.4-3.5-9-54.5-20.3-36.1
					c0,0-1.8,3.9-1.4,7.6L6,132.9c0,0,0.2-12.1,5.4-24.9c0-0.4,0.3-1.1,0.8-1.8c0,0,5.2-12.5,25.8-18.3c2.2-0.6,4.6-1.2,7.2-1.6
					c0,0,17.7-6.6,36-12.8c0,0,0.1,0,0.2,0c17.1-5.8,34.6-11.3,39-10.8C120.2,62.6,110.8,76,111.7,82.8z"/>
			</g>
			<g id="XMLID_321_">
				<g id="XMLID_2_">
					<g>
						<path class="st7" d="M8.7,129.9l0.2-0.2c0-0.2,0-0.4,0-0.5C8.7,129.4,8.7,129.6,8.7,129.9z"/>
					</g>
				</g>
				<g id="XMLID_1_">
					<g>
						<path class="st7" d="M120.2,62.6c-4.9,0.6-10.5,2.2-17.3,4.2c0,0-9.4,2.8-21.7,6.6c0,0-0.1,0-0.2,0c-14,4.4-31.6,10-43.2,14.4
							c-5.4,2-10.6,3.4-12.4,4.7c0,0-10.2,9.2-13.3,13.7c-0.5,0.8-0.8,1.4-0.8,1.8c-3.8,9.4-5,18.4-5.3,22.5
							C9.5,89.4,113.6,66.2,118,66.6C118,66.6,121.8,62.4,120.2,62.6z"/>
					</g>
				</g>
			</g>
			<g id="XMLID_541_">
				<path class="st7" d="M20.2,123.4c0,0,2.9-8.4,34.1-12.4c9.4-1.2,36.8-8.7,37.8,3.5c0.1,1.6,2.3,6.5,3.4,5.4
					c0,0,12.4-21.6-1-21.3C94.6,98.7,7.5,96.6,20.2,123.4z"/>
			</g>
			<g id="XMLID_539_">
				<path class="st6" d="M183.9,73.6c0,0-6.6,12,22.8,11.2l59.3,0.5c0,0,10.5,0.6,12.6-9.9L183.9,73.6z"/>
			</g>
			<g id="XMLID_537_">
				
					<rect x="206.9" y="9.3" transform="matrix(1.441232e-02 -0.9999 0.9999 1.441232e-02 181.7722 233.2414)" class="st6" width="4.6" height="30.2"/>
			</g>
			<g id="XMLID_4_">
				<polygon class="st0" points="190.7,17.1 192.3,17.6 203.5,0.5 201.9,0 				"/>
			</g>
			<g id="XMLID_555_">
				
					<ellipse transform="matrix(0.2309 -0.973 0.973 0.2309 107.5401 280.8643)" class="st2" cx="231.4" cy="72.4" rx="4.7" ry="7.6"/>
			</g>
			<g id="XMLID_560_">
				<path class="st1" d="M314.1,157.5l-51.3,1.1l-2.7,3.4l-39.2,0.8l-2.9-3.8l-65.5,1.3c0,0,1.2-10.3,22-10.3
					c31.3,0,125.3-0.9,125.3-0.9S318.5,148.5,314.1,157.5z"/>
			</g>
			<g id="XMLID_562_">
				<path class="st2" d="M211.6,149.8l8.6,13.4l40-0.9l8.8-12.9C268.9,149.3,229.5,149.5,211.6,149.8z"/>
			</g>
			<g id="XMLID_82_">
				<path class="st0" d="M100.4,169.7c0,0-5.6-34.8,17.8-47.4c0,0-7.9-14.1-17.5-4C100.8,118.3,83.9,124.6,100.4,169.7z"/>
			</g>
			<g id="XMLID_515_">
				<path class="st2" d="M164.3,99.8L145,97.1c-1.6-0.2-3.1-1.1-4-2.4c-1.1-1.6-2.8-3.9-4.6-6.5c-2.3-3.4-4.8-7.3-6.6-10.5
					c-1.6-2.9,0.4-6.4,3.7-6.5l19.6-0.5c2-0.1,3.8,1.1,4.6,3l7,16.4l2.6,6C168,98,166.4,100.1,164.3,99.8z"/>
			</g>
			<g id="XMLID_163_" class="st9">
				<path class="st10" d="M164.3,99.8L145,97.1c-1.6-0.2-3.1-1.1-4-2.4c-1.1-1.6-2.8-3.9-4.6-6.5l5.6-2.1c0,0,10.9,3.6,22.6,3.9
					l2.6,6C168,98,166.4,100.1,164.3,99.8z"/>
			</g>
			<g id="XMLID_542_">
				<g>
					<path class="st8" d="M65,158.6L65,158.6c-0.2,0-0.4-0.2-0.4-0.4c0-0.3,0.1-27.9-1.5-47.3c0-0.4-0.1-0.7-0.1-1.1
						c-1.2-19,7.8-32.5,7.9-32.7c0.1-0.2,0.4-0.2,0.6-0.1c0.2,0.1,0.2,0.4,0.1,0.6c-0.1,0.1-8.9,13.5-7.7,32.2c0,0.4,0,0.7,0.1,1.1
						c1.6,19.5,1.5,47.1,1.5,47.4C65.4,158.5,65.2,158.6,65,158.6z"/>
				</g>
			</g>
		</g>
		<g id="XMLID_157_">
			<g id="XMLID_559_">
				<path class="st11" d="M286.5,62.6c-13.3,8.3-141.4,0.3-141.4,0.3c-3.6-1.7-9.9-1.8-16.2-1.2C119,62.5,109,65,109,65
					C83.7,71.1,31,90,26.7,92.8c-3,1.9-15.3,16.2-15.3,16.2l0-1c3.1-7.7,8.1-15.6,15.9-21.4c0,0,36-56.5,66.7-61.5
					c0,0,4.4-0.8,12.1-1.8c0,0,0.1,0,0.1,0c25.3-3.5,85.4-9.8,137.4-1.2c1.1,0.2,2.2,0.4,3.3,0.6c0,0,0.1,0,0.1,0
					c3,0.5,6,1.1,8.9,1.8l0,0C256.8,25.4,281.9,51.8,286.5,62.6z"/>
			</g>
			<g id="XMLID_79_">
				<path class="st2" d="M286.5,62.6c-13.3,8.3-141.4,0.3-141.4,0.3c-1.1-0.5-2.5-0.9-4-1.2c-3.4-0.6-7.8-0.5-12.2,0l-8.6,1
					c0,0,6.2-40.7,31.4-40.8c0,0,67.7-2.3,95.4,1.1c0,0,0.1,0,0.1,0c3.8,0.5,6.9,1.1,8.9,1.8l0,0c0.3,0.3,3.4,3.6,7.6,8.2
					C271.5,41.6,283.4,55.5,286.5,62.6z"/>
			</g>
			<g id="XMLID_552_">
				<path class="st2" d="M80.6,73c0,0,12.1-38.7,19.6-43.6c0,0,23-2.1,25.9,1.7c0,0-16.1,26.3-15.4,33.3c0,0-30.1,8.5-30.1,9"/>
			</g>
			<g id="XMLID_551_">
				<path class="st2" d="M47.3,80.1c0,0,19.8-6.7,22.9-4.8c0,0,12.2-36.3,21.8-45.2c0,0-13.9,1.5-35.2,23.2
					C51.9,58.4,48,78.1,47.3,80.1z"/>
			</g>
			<g id="XMLID_549_">
				<path class="st2" d="M49.9,61.3c0.4-0.6,1.8-2.9,1,0.6l-5,18.7c0,0-5.4,1.4-6.8-2.3C39.1,78.3,47.8,64.9,49.9,61.3z"/>
			</g>
			<g id="XMLID_548_">
				<path class="st0" d="M47.8,74.5c0,0-4.7-1.2-5.9,5c0,0-1.9,6.3-5.2,3.7c-2.5-2,0.2-11.7,0.2-11.7s-16.7-5.8-17.8,5.8
					c-0.5,4.9,3.3,8.3,16.8,9.1c0,0,7.8,0.3,9.3-0.3C45.1,86.2,47.3,76.8,47.8,74.5z"/>
			</g>
			<g id="XMLID_311_">
				<defs>
					<path id="SVGID_1_" d="M286.5,62.6c-13.3,8.3-141.4,0.3-141.4,0.3c-1.1-0.5-2.5-0.9-4-1.2c-3.4-0.6-7.8-0.5-12.2,0l-8.6,1
						c0,0,6.2-40.7,31.4-40.8c0,0,67.7-2.3,95.4,1.1c0,0,0.1,0,0.1,0c3.8,0.5,6.9,1.1,8.9,1.8l0,0c0.3,0.3,3.4,3.6,7.6,8.2
						C271.5,41.6,283.4,55.5,286.5,62.6z"/>
				</defs>
				<clipPath id="SVGID_2_">
					<use xlink:href="#SVGID_1_"  style="overflow:visible;"/>
				</clipPath>
				<g id="XMLID_218_" class="st12">
					<g id="XMLID_174_">
						<polygon class="st10" points="143.4,130.5 116.3,108 246.5,-49.2 273.6,-26.7 						"/>
					</g>
					<g id="XMLID_225_">
						<polygon class="st10" points="168.1,149 154.6,137.8 284.8,-19.4 298.3,-8.2 						"/>
					</g>
				</g>
			</g>
			<g id="XMLID_557_">
				<path class="st3" d="M263.5,32.8c-0.5-0.2-1-0.5-1.6-0.8c-12.8-8.5-76.3-4-101.8-5.5c-32.5-2-18.5,34.7-18.5,34.7l-21.6,2
					c0,0,7-43.2,31.5-41.4c0,0,64.1-4.6,95.4,1.1c0,0,0.1,0,0.1,0c3.8,0.5,6.9,1.1,8.9,1.8l0,0C256.2,24.9,259.4,28.2,263.5,32.8z"
					/>
			</g>
			<g id="XMLID_554_">
				<path class="st11" d="M177,26.9c0,0-20.5,0.8-22,12.4c-0.7,5.2-4.9,17.3,10.7,17.9c0,0,43.3,4.7,45.5,8.4c0,0-64.5,0.5-69.6-3.3
					c-3.9-3-8.4-32.8,9.8-35.6C157.4,25.7,166.9,24.7,177,26.9z"/>
			</g>
			<g id="XMLID_245_">
				<path class="st1" d="M263.5,32.8c-4.2-4.6-7.3-7.9-7.6-8.2l0,0c-1.4-0.5-3.5-1-6-1.4c1.4,1.5,3.3,3.6,5.6,6.1
					c8,8.9,19.9,22.7,22.9,29.8c-13.3,8.3-140.9,2-137.5,2.5c1.5,0.2,2.3,1.8,4,1.2c0,0,128.1,8,141.4-0.3
					C283.4,55.5,271.5,41.6,263.5,32.8z"/>
			</g>
			<g id="XMLID_312_">
				<defs>
					<path id="SVGID_3_" d="M80.6,73c0,0,12.1-38.7,19.6-43.6c0,0,23-2.1,25.9,1.7c0,0-16.1,26.3-15.4,33.3c0,0-30.1,8.5-30.1,9"/>
				</defs>
				<clipPath id="SVGID_4_">
					<use xlink:href="#SVGID_3_"  style="overflow:visible;"/>
				</clipPath>
				<g id="XMLID_231_" class="st13">
					<g id="XMLID_233_">
						
							<rect x="64.5" y="35.8" transform="matrix(0.8949 -0.4463 0.4463 0.8949 -8.2683 48.242)" class="st10" width="67.6" height="11.7"/>
					</g>
					<g id="XMLID_232_">
						
							<rect x="70.8" y="50.3" transform="matrix(0.8949 -0.4463 0.4463 0.8949 -12.7478 52.2774)" class="st10" width="67.6" height="5.8"/>
					</g>
				</g>
			</g>
			<g id="XMLID_315_">
				<defs>
					<path id="SVGID_5_" d="M47.3,80.1c0,0,19.8-6.7,22.9-4.8c0,0,12.2-36.3,21.8-45.2c0,0-13.9,1.5-35.2,23.2
						C51.9,58.4,48,78.1,47.3,80.1z"/>
				</defs>
				<clipPath id="SVGID_6_">
					<use xlink:href="#SVGID_5_"  style="overflow:visible;"/>
				</clipPath>
				<g id="XMLID_248_" class="st14">
					<g id="XMLID_306_">
						
							<rect x="31.3" y="44.5" transform="matrix(0.9212 -0.389 0.389 0.9212 -14.4509 29.2929)" class="st10" width="67.6" height="11.7"/>
					</g>
					<g id="XMLID_285_">
						
							<rect x="36.9" y="59.3" transform="matrix(0.9212 -0.389 0.389 0.9212 -18.6413 32.4021)" class="st10" width="67.6" height="5.8"/>
					</g>
				</g>
			</g>
		</g>
	</g>
</g>
</svg>
