<svg xmlns="http://www.w3.org/2000/svg" viewBox="0 0 33.06 15.24"><title>Asset 3</title><g id="Layer_2" data-name="Layer 2"><g id="Слой_1" data-name="Слой 1"><path d="M1,12.15l6.55-1.5a.8.8,0,0,0,.62-.78V7a1.25,1.25,0,0,1,.23-.56c1.33-2.54,13.73-2.6,15.93-.24.2.21.41.41.41.7v3.13a.8.8,0,0,0,.6.78l6.74,1.78a.8.8,0,0,0,1-.81c-.09-2.22-.58-7-.7-7.48C31-1.29,1.5-1.51,1,4c-.13,1.5-1,5.42-1,7.33A.8.8,0,0,0,1,12.15Z"/><path d="M10.18,12.41c-.07,0-.06.14,0,.14a26.22,26.22,0,0,0,5.17-.18A17.48,17.48,0,0,0,19,10.13c.06,0,0-.16-.06-.13l-3.34,1.42a3.53,3.53,0,0,1-.81.24Z"/><path d="M8.59,15c-.1,0-.08.2,0,.2,1.9.07,5.94.15,7.37-.25,1.24-.35,3.91-2.28,5.15-3.21.08-.06,0-.23-.08-.19l-4.76,2a5,5,0,0,1-1.15.34Z"/></g></g></svg>