<svg width="0" height="0" class="hidden">
    <symbol xmlns="http://www.w3.org/2000/svg" xmlns:xlink="http://www.w3.org/1999/xlink" viewBox="0 0 33.06 15.24" id="e6-icon-calls">
        <path d="M1,12.15l6.55-1.5a.8.8,0,0,0,.62-.78V7a1.25,1.25,0,0,1,.23-.56c1.33-2.54,13.73-2.6,15.93-.24.2.21.41.41.41.7v3.13a.8.8,0,0,0,.6.78l6.74,1.78a.8.8,0,0,0,1-.81c-.09-2.22-.58-7-.7-7.48C31-1.29,1.5-1.51,1,4c-.13,1.5-1,5.42-1,7.33A.8.8,0,0,0,1,12.15Z"/>
        <path d="M10.18,12.41c-.07,0-.06.14,0,.14a26.22,26.22,0,0,0,5.17-.18A17.48,17.48,0,0,0,19,10.13c.06,0,0-.16-.06-.13l-3.34,1.42a3.53,3.53,0,0,1-.81.24Z"/>
        <path d="M8.59,15c-.1,0-.08.2,0,.2,1.9.07,5.94.15,7.37-.25,1.24-.35,3.91-2.28,5.15-3.21.08-.06,0-.23-.08-.19l-4.76,2a5,5,0,0,1-1.15.34Z"/>
    </symbol>

    <symbol xmlns="http://www.w3.org/2000/svg" xmlns:xlink="http://www.w3.org/1999/xlink" viewBox="0 0 29.84 17.56" id="e6-icon-email">
        <path d="M29.84,18H0V.43H29.84ZM1.47,16.52H28.37V1.89H1.47Z" transform="translate(0 -0.43)"/>
        <path d="M8.81,0" transform="translate(0 -0.43)"/>
        <polygon points="14.56 10.4 0.34 1.46 1.12 0.22 14.58 8.68 28.72 0.11 29.48 1.36 14.56 10.4"/>
    </symbol>

    <symbol xmlns="http://www.w3.org/2000/svg" xmlns:xlink="http://www.w3.org/1999/xlink" viewBox="0 0 27.74 17.29" id="e6-icon-battery">
        <path d="M24.57,17.29H0V0H24.72V4.1h3V12.8H24.57ZM1.47,15.83H23.1V11.33h3.17V5.57h-3V1.47H1.47Z"/>
        <rect x="3" y="3.03" width="2.93" height="11.38"/>
        <rect x="7.79" y="3.03" width="2.93" height="11.38"/>
        <rect x="12.85" y="3.03" width="2.93" height="11.38"/>
        <rect x="18.12" y="3.03" width="2.93" height="11.38"/>
    </symbol>
</svg>