<?xml version="1.0" encoding="utf-8"?>
<!-- Generator: Adobe Illustrator 23.0.3, SVG Export Plug-In . SVG Version: 6.00 Build 0)  -->
<svg version="1.1" id="Layer_1" xmlns="http://www.w3.org/2000/svg" xmlns:xlink="http://www.w3.org/1999/xlink" x="0px" y="0px"
	 viewBox="0 0 41 60" style="enable-background:new 0 0 41 60;" xml:space="preserve">
<style type="text/css">
	.st0{fill-rule:evenodd;clip-rule:evenodd;fill:#FFCD0D;}
	.st1{fill:#0C560C;}
</style>
<g>
	<ellipse class="st0" cx="20.5" cy="19.8" rx="17.2" ry="17.4"/>
	<g>
		<g>
			<path class="st1" d="M22.8,0c1.1,0.2,2.2,0.4,3.2,0.7c9.3,2.6,15.6,11.4,15,21.2c-0.2,2.8-1.1,5.4-2.2,7.9
				c-2,4.3-4.6,8.2-7.3,12.1c-2.4,3.5-4.8,7-7.2,10.6c-0.9,1.3-1.5,2.8-2.1,4.2c-0.3,0.6-0.3,1.4-0.4,2c-0.1,0.8-0.5,1.2-1.2,1.2
				c-0.8,0-1.2-0.4-1.3-1.2c-0.1-1.6-0.6-3.1-1.5-4.5c-1.7-2.8-3.5-5.7-5.4-8.4c-2.9-4.2-5.9-8.2-8.3-12.7c-1.6-2.8-3-5.7-3.6-9
				c-1.1-5.5,0-10.6,3.1-15.3C7,3.9,11.8,1,17.9,0.1c0.1,0,0.2-0.1,0.3-0.1C19.8,0,21.3,0,22.8,0z M20.5,28.6c4.8,0,8.8-4,8.8-8.9
				c0-4.9-3.9-8.9-8.8-8.9c-4.8,0-8.8,4-8.8,8.9C11.7,24.6,15.7,28.6,20.5,28.6z"/>
		</g>
	</g>
</g>
</svg>
