<?xml version="1.0" encoding="utf-8"?>
<!-- Generator: Adobe Illustrator 21.1.0, SVG Export Plug-In . SVG Version: 6.00 Build 0)  -->
<svg version="1.1" id="Layer_1" xmlns="http://www.w3.org/2000/svg" xmlns:xlink="http://www.w3.org/1999/xlink" x="0px" y="0px"
	 viewBox="0 0 232 94" style="enable-background:new 0 0 232 94;" xml:space="preserve">
<style type="text/css">
	.st0{fill:url(#SVGID_1_);}
	.st1{fill:url(#SVGID_2_);}
	.st2{fill:url(#SVGID_3_);}
	.st3{fill:url(#SVGID_4_);}
	.st4{fill:url(#SVGID_5_);}
	.st5{fill:url(#SVGID_6_);}
	.st6{fill:#9E9087;}
</style>
<g>
	<g>
		<linearGradient id="SVGID_1_" gradientUnits="userSpaceOnUse" x1="50.8586" y1="22.2621" x2="176.3641" y2="22.2621">
			<stop  offset="0" style="stop-color:#713A76"/>
			<stop  offset="1" style="stop-color:#AA769D"/>
		</linearGradient>
		<path class="st0" d="M20.7,0c5.1,0.3,8.9,2,11.4,5c2.5,3,3.7,7,3.7,12.1c0,2.1-0.4,4.1-1.3,5.9c-0.9,1.8-2.1,3.4-3.6,4.7
			c-1.5,1.4-3.3,2.4-5.3,3.2c-2,0.8-4.1,1.2-6.3,1.2h-9.3v12.4H4.2V7.4C3.4,7.3,2.7,7.3,2,7.2C1.3,7.1,0.7,6.9,0,6.6V0.7
			c0.9,0.2,1.8,0.4,2.8,0.5c1,0.1,1.9,0.1,2.7,0.1c1.2,0,2.3-0.1,3.4-0.2C10,1,11.1,0.8,12.2,0.7c1.2-0.2,2.3-0.4,3.4-0.5
			C16.8,0.1,18,0,19.3,0H20.7z M30.6,16.8c0-1.3-0.1-2.5-0.3-3.7c-0.2-1.2-0.7-2.3-1.4-3.3c-0.7-1-1.8-1.8-3.1-2.5
			c-1.3-0.7-3.1-1-5.4-1.2c-1.3,0-2.8,0-4.5,0.1c-1.7,0.1-3.6,0.4-5.7,0.9V26h9.3c1.5,0,2.9-0.2,4.2-0.6c1.3-0.4,2.5-1,3.5-1.9
			c1-0.8,1.8-1.8,2.4-2.9C30.1,19.5,30.5,18.2,30.6,16.8z"/>
		<linearGradient id="SVGID_2_" gradientUnits="userSpaceOnUse" x1="50.8586" y1="26.8269" x2="176.3641" y2="26.8269">
			<stop  offset="0" style="stop-color:#713A76"/>
			<stop  offset="1" style="stop-color:#AA769D"/>
		</linearGradient>
		<path class="st1" d="M71.1,40.9c-1.6,1.2-3.4,2.2-5.5,3.1c-2.1,0.9-4.5,1.4-7.2,1.4c-2.2,0-4.2-0.3-6.1-1
			c-1.9-0.7-3.5-1.7-4.8-2.9c-1.4-1.3-2.5-2.8-3.3-4.7c-0.8-1.9-1.3-4-1.4-6.4V30c-0.7,0.1-1.4,0.2-2.2,0.2c-0.7,0-1.5,0.2-2.2,0.5
			v-6.4c0.8-0.2,1.5-0.4,2.2-0.4c0.7,0,1.5-0.1,2.2-0.2c0.1-2.2,0.6-4.3,1.5-6.2c0.9-1.9,2-3.5,3.4-4.8c1.4-1.4,3.1-2.4,5.1-3.2
			c2-0.7,4.2-1.1,6.5-1.1c2.6,0,4.9,0.6,6.9,1.8c1.6,0.9,2.9,2.2,3.9,3.9c1,1.6,1.5,3.5,1.5,5.5c0,2.2-0.7,4.2-2.1,6
			c-1.4,2-3.2,3.2-5.2,3.8c-2,0.6-4.2,0.9-6.5,0.9c-1,0-2.2,0-3.6-0.1c-1.4-0.1-2.6-0.1-3.7-0.1c-0.3,0-0.6,0-0.9,0
			c-0.3,0-0.5,0.1-0.7,0.1v0.4c0,2.8,0.9,4.9,2.7,6.3c1.8,1.4,4,2.1,6.6,2.1c1.3,0,2.6-0.1,3.7-0.4c1.1-0.2,2.2-0.6,3.2-1
			c1-0.4,2-0.9,2.9-1.5c0.9-0.6,1.9-1.2,2.8-1.8V40.9z M60.2,14.4c-1.4,0-2.7,0.2-4,0.6c-1.3,0.4-2.4,0.9-3.4,1.7
			c-1,0.7-1.8,1.7-2.5,2.8c-0.7,1.1-1,2.5-1.2,4.1l3.6-0.1c0.8,0.1,1.7,0.2,2.8,0.2c1.1,0,2.2,0,3.2,0c0.9,0,1.8-0.1,2.7-0.2
			c0.9-0.1,1.7-0.4,2.4-0.7c0.7-0.4,1.3-0.8,1.7-1.4c0.4-0.6,0.6-1.4,0.6-2.3c0-1.7-0.6-2.9-1.8-3.6C63.1,14.7,61.7,14.4,60.2,14.4z
			"/>
		<linearGradient id="SVGID_3_" gradientUnits="userSpaceOnUse" x1="50.8586" y1="26.862" x2="176.3641" y2="26.862">
			<stop  offset="0" style="stop-color:#713A76"/>
			<stop  offset="1" style="stop-color:#AA769D"/>
		</linearGradient>
		<path class="st2" d="M119.7,9.2v35.4h-6V16.7c-0.5,0.8-1,1.8-1.4,2.9c-0.4,1.1-0.9,2.2-1.3,3.1c-0.7,1.5-1.4,3-2,4.5
			c-0.7,1.5-1.5,2.7-2.3,3.8c-0.9,1.1-1.9,2-3,2.7c-1.1,0.7-2.4,1-4,1c-1.5,0-2.9-0.4-4-1.1c-1.1-0.7-2.1-1.7-3-2.8
			c-0.9-1.1-1.6-2.4-2.3-3.9c-0.7-1.4-1.3-2.8-1.9-4.2c-0.4-0.9-0.8-2-1.3-3.1c-0.4-1.1-0.9-2.1-1.4-2.9v27.8h-6V9.1h6.8
			c0.9,0.5,1.6,1.2,2.3,2c0.6,0.8,1.2,1.7,1.7,2.6c0.5,1,1,2,1.4,3c0.4,1,0.9,2.1,1.3,3.1c1.2,2.7,2.3,4.8,3.3,6.4
			c1,1.5,2.1,2.4,3.1,2.5c1.1-0.1,2.2-0.9,3.2-2.4c1-1.5,2.1-3.6,3.3-6.3c0.4-1,0.8-2.1,1.3-3.1c0.4-1.1,0.9-2.1,1.4-3
			c0.5-1,1.1-1.8,1.7-2.7c0.6-0.8,1.4-1.5,2.3-2L119.7,9.2z"/>
		<linearGradient id="SVGID_4_" gradientUnits="userSpaceOnUse" x1="50.8586" y1="26.7217" x2="176.3641" y2="26.7217">
			<stop  offset="0" style="stop-color:#713A76"/>
			<stop  offset="1" style="stop-color:#AA769D"/>
		</linearGradient>
		<path class="st3" d="M143.4,45.3c-2.5,0-4.9-0.5-7.1-1.5c-2.2-1-4.2-2.3-5.9-4c-1.7-1.7-3-3.7-4-5.9c-1-2.2-1.4-4.6-1.4-7.2
			c0-2.6,0.5-5,1.4-7.2c1-2.2,2.3-4.2,4-5.9c1.7-1.7,3.6-3,5.9-4c2.2-1,4.6-1.5,7.1-1.5c2.5,0,4.8,0.5,7.1,1.5c2.2,1,4.2,2.3,5.8,4
			c1.7,1.7,3,3.7,3.9,5.9c1,2.2,1.4,4.7,1.4,7.2c0,2.5-0.5,4.9-1.4,7.2c-1,2.2-2.3,4.2-3.9,5.9c-1.7,1.7-3.6,3-5.8,4
			C148.2,44.8,145.9,45.3,143.4,45.3z M143.4,45.3c-2.5,0-4.9-0.5-7.1-1.5c-2.2-1-4.2-2.3-5.9-4c-1.7-1.7-3-3.7-4-5.9
			c-1-2.2-1.4-4.6-1.4-7.2c0-2.6,0.5-5,1.4-7.2c1-2.2,2.3-4.2,4-5.9c1.7-1.7,3.6-3,5.9-4c2.2-1,4.6-1.5,7.1-1.5
			c2.5,0,4.8,0.5,7.1,1.5c2.2,1,4.2,2.3,5.8,4c1.7,1.7,3,3.7,3.9,5.9c1,2.2,1.4,4.7,1.4,7.2c0,2.5-0.5,4.9-1.4,7.2
			c-1,2.2-2.3,4.2-3.9,5.9c-1.7,1.7-3.6,3-5.8,4C148.2,44.8,145.9,45.3,143.4,45.3z M143.4,14.7c-1.7,0-3.2,0.3-4.7,0.9
			c-1.5,0.6-2.7,1.5-3.8,2.6c-1.1,1.1-1.9,2.3-2.6,3.8c-0.6,1.5-1,3-1,4.7c0,1.7,0.3,3.3,1,4.7c0.6,1.5,1.5,2.7,2.6,3.8
			c1.1,1.1,2.4,2,3.8,2.6c1.5,0.6,3,0.9,4.7,0.9s3.2-0.3,4.7-0.9c1.4-0.6,2.7-1.5,3.8-2.6c1.1-1.1,1.9-2.4,2.6-3.8
			c0.6-1.5,0.9-3,0.9-4.7c0-1.7-0.3-3.3-0.9-4.7c-0.6-1.5-1.5-2.7-2.6-3.8c-1.1-1.1-2.3-1.9-3.8-2.6C146.6,15.1,145,14.7,143.4,14.7
			z M143.4,14.7c-1.7,0-3.2,0.3-4.7,0.9c-1.5,0.6-2.7,1.5-3.8,2.6c-1.1,1.1-1.9,2.3-2.6,3.8c-0.6,1.5-1,3-1,4.7c0,1.7,0.3,3.3,1,4.7
			c0.6,1.5,1.5,2.7,2.6,3.8c1.1,1.1,2.4,2,3.8,2.6c1.5,0.6,3,0.9,4.7,0.9s3.2-0.3,4.7-0.9c1.4-0.6,2.7-1.5,3.8-2.6
			c1.1-1.1,1.9-2.4,2.6-3.8c0.6-1.5,0.9-3,0.9-4.7c0-1.7-0.3-3.3-0.9-4.7c-0.6-1.5-1.5-2.7-2.6-3.8c-1.1-1.1-2.3-1.9-3.8-2.6
			C146.6,15.1,145,14.7,143.4,14.7z"/>
		<linearGradient id="SVGID_5_" gradientUnits="userSpaceOnUse" x1="50.8586" y1="26.9322" x2="176.3641" y2="26.9322">
			<stop  offset="0" style="stop-color:#713A76"/>
			<stop  offset="1" style="stop-color:#AA769D"/>
		</linearGradient>
		<path class="st4" d="M195.9,9.3v35.3h-6.3v-15h-17.7v15h-6.3V9.3h6.3v13.8h17.7V9.3H195.9z"/>
		<linearGradient id="SVGID_6_" gradientUnits="userSpaceOnUse" x1="50.8586" y1="26.9322" x2="176.3641" y2="26.9322">
			<stop  offset="0" style="stop-color:#713A76"/>
			<stop  offset="1" style="stop-color:#AA769D"/>
		</linearGradient>
		<path class="st5" d="M232,15.7h-11.4v28.9h-6V15.7h-10.9V9.3H232V15.7z"/>
	</g>
	<g>
		<g>
			<path class="st6" d="M77.6,74.7c0-6.6,4.7-11.3,11.2-11.3c3.5,0,6.6,1.4,8.4,4.1l-1.6,1.1c-1.6-2.3-4.1-3.3-6.8-3.3
				c-5.2,0-9,3.7-9,9.3s3.8,9.3,9,9.3c2.8,0,5.2-1.1,6.8-3.3l1.6,1.1c-1.8,2.7-4.9,4.1-8.4,4.1C82.3,85.9,77.6,81.3,77.6,74.7z"/>
			<path class="st6" d="M122,75.2h-19c0.2,5.3,4.1,8.8,9.4,8.8c2.8,0,5.4-1,7.1-3.1l1.2,1.4c-2,2.4-5,3.6-8.4,3.6
				c-6.7,0-11.4-4.7-11.4-11.3c0-6.6,4.5-11.3,10.6-11.3c6.1,0,10.6,4.6,10.6,11.2C122,74.8,122,75,122,75.2z M103,73.5h17
				c-0.3-4.8-3.8-8.2-8.5-8.2C106.8,65.3,103.3,68.7,103,73.5z"/>
			<path class="st6" d="M151,74.7c0,6.7-4.7,11.3-10.9,11.3c-3.9,0-7.2-1.9-9-5.2V94H129V63.6h2v5.2c1.7-3.4,5.1-5.4,9.1-5.4
				C146.3,63.4,151,68,151,74.7z M148.9,74.7c0-5.6-3.9-9.3-8.9-9.3c-5.1,0-8.9,3.8-8.9,9.3c0,5.6,3.8,9.3,8.9,9.3
				C145.1,84,148.9,80.2,148.9,74.7z"/>
			<path class="st6" d="M175.9,79.8c0,3.8-2.7,5.9-8.4,5.9H158V63.6h9.3c4.9,0,7.9,2,7.9,5.7c0,2.6-1.6,4.4-4.1,5.1
				C174.4,74.9,175.9,76.8,175.9,79.8z M160,73.7h7.1c3.8,0,5.9-1.4,5.9-4.2c0-2.8-2.1-4.2-5.9-4.2H160V73.7z M173.8,79.7
				c0-3-1.8-4.4-6-4.4H160V84h7.5C171.6,84,173.8,82.7,173.8,79.7z"/>
			<path class="st6" d="M183.5,63.6h2.1v18.9l15.8-18.9h1.9v22.2h-2.1V66.8l-15.8,18.9h-1.9V63.6z"/>
			<path class="st6" d="M210.2,74.7c0-6.6,4.7-11.3,11.2-11.3c3.5,0,6.6,1.4,8.4,4.1l-1.6,1.1c-1.6-2.3-4.1-3.3-6.8-3.3
				c-5.2,0-9,3.7-9,9.3s3.8,9.3,9,9.3c2.8,0,5.2-1.1,6.8-3.3l1.6,1.1c-1.8,2.7-4.9,4.1-8.4,4.1C214.9,85.9,210.2,81.3,210.2,74.7z"
				/>
		</g>
	</g>
</g>
</svg>
