<?xml version="1.0" encoding="utf-8"?>
<!-- Generator: Adobe Illustrator 23.0.3, SVG Export Plug-In . SVG Version: 6.00 Build 0)  -->
<svg version="1.1" id="Layer_1" xmlns="http://www.w3.org/2000/svg" xmlns:xlink="http://www.w3.org/1999/xlink" x="0px" y="0px"
	 viewBox="0 0 228 51" style="enable-background:new 0 0 228 51;" xml:space="preserve">
<g>
	<g>
		<path d="M35.1,39.1c-0.3,0.7-0.7,1.5-1,2.2c0.2,0,0.2,0,0.2,0c0.1-0.1,0.2-0.1,0.3-0.2c2.2-2.3,4.1-4.8,5.7-7.6
			c1.9-3.2,3.7-6.4,5.3-9.7c1.6-3.3,3.1-6.7,4.5-10.1c0.8-2.1,1.5-4.2,2.1-6.4c0.4-1.5,0.7-3.1,0.3-4.7C52,0.3,50-0.5,48.1,0.3
			c-1.8,0.7-3.2,2-4.5,3.5c-0.3,0.4-0.6,0.8-0.9,1.1C42.8,5,42.8,5,42.9,5C43,5,43.1,4.9,43.2,4.8c1.2-0.7,2.3-1.6,3.6-2.2
			c1.2-0.6,2,0,2.1,1.3c0.2,2.5-0.6,4.8-1.3,7.1c-0.2,0.6-0.5,0.7-1,0.7c-2.2,0-4.5,0.1-6.7,0.2c-0.8,0-1.7,0.2-2.5,0.6
			c-1.3,0.6-2.6,1.4-3.8,2.2c-2.6,1.8-5.2,3.8-7.7,5.7c-0.1,0.1-0.3,0.2-0.5,0.2c-1.6,0.3-3.1,0.5-4.7,0.8c-2.3,0.4-4.6,0.8-6.9,1.2
			c-2,0.4-4,0.8-6,1.2c-2.9,0.5-5.2,2.1-7,4.3c-0.4,0.5-0.7,1.1-0.6,1.8c0.1,0.9,0.2,1.8,0.4,2.6c0.4,1.5,0.8,2.9,1.3,4.3
			C1.8,37,2,37.2,2.2,37.2c1.8,0,3.6,0,5.4,0c0.1,0,0.4-0.3,0.4-0.4c-0.2-2.4,0.6-4.5,2.1-6.3c2.4-2.7,6.5-3.4,9.5-1.8
			c3,1.6,4.5,4.1,4.5,7.6c0,1.2-0.2,1.1,1.1,1.1c3,0,5.9,0,8.9,0.1C36,37.5,36,37.2,35.1,39.1z M7.7,28.8c-0.1,0.2-0.3,0.3-0.5,0.3
			c-1.2,0.2-2.5,0.4-3.7,0.6c-0.2,0-0.4,0.1-0.6,0.1c-0.3,0-0.7,0-0.8-0.2C2,29.4,2,29,2.2,28.8c0.6-1.1,1.6-1.9,2.9-2.2
			c0.6-0.2,1.2-0.3,1.8-0.4c1.3-0.2,2.5-0.4,3.8-0.6C9.4,26.5,8.4,27.5,7.7,28.8z M28.1,21.5c-0.1,0-0.2,0-0.5,0
			c0.7-0.6,1.3-1.1,2-1.5c2.7-1.8,5.3-3.6,8-5.3c1.3-0.8,2.7-1.1,4.2-1.1c1.6-0.1,3.1,0,4.8,0c-0.5,1.1-0.8,2-1.3,2.9
			c-0.7,1.5-1.5,3-2.3,4.5c-0.2,0.4-0.4,0.6-0.9,0.6C37.5,21.5,32.8,21.5,28.1,21.5z"/>
		<path d="M16.1,28.7c-3.7-0.1-7.5,3.3-7.2,7.2c-0.2,4.1,3.3,7.3,7.1,7.3c4,0,7.2-3.2,7.2-7.2C23.3,31.8,19.7,28.8,16.1,28.7z
			 M16.1,39.7c-2.1,0.1-3.8-1.8-3.8-3.7c0-2.2,1.9-3.8,3.8-3.8c2,0,3.8,1.8,3.8,3.8C19.9,37.9,18.2,39.8,16.1,39.7z"/>
		<path d="M55.1,12.4c0.2-1.2,0.3-2.4,0.3-3.6c0-1.2-0.1-2.4-0.5-3.5c-2.5,9.7-5.6,19.6-10.9,28.2c-0.9,1.7-1.9,3.4-3,5
			c-1.4,2.1-3,4-5.1,5.3c-2.2,1.3-3.9,0.6-4.4-1.9c0-0.2-0.1-0.4-0.2-0.6c0,0-0.1,0-0.1,0c0.1,1,0,2.1,0.2,3.1
			c0.3,1.5,1.1,2.6,2.8,2.9c1,0.2,1.9-0.2,2.7-0.5c4.2-1.9,6.9-5.8,9.2-9.6C50.6,29.5,53.8,21.2,55.1,12.4z"/>
		<path d="M83.2,24.7c-5.8-1.3-11.6-2.6-17.3-3.9c-3.3-0.7-6.5-1.4-9.8-2.2c-0.2,0.9-0.5,1.7-0.7,2.5c7.2,1.6,14.3,3.2,21.5,4.8
			c0,0.2,0,0.3,0,0.4c0.1,3.2,1.5,5.6,4.2,7.2c1,0.6,1,0.6,0.7,1.7c-0.5,2.2-1,4.4-1.5,6.6c-3.8,0-6.5,1.7-8.1,5.2
			c-7.7-1.7-15.4-3.4-23-5.1c0,0,0-0.1,0-0.1c0-0.1,0-0.1,0-0.2c0-1.6-0.4-2.9-1-4.1c-1.3,2.1-2.7,4.2-4.6,5.9
			c11.3,2.5,22.6,5,33.8,7.6c2.1,0.5,3.7-0.6,4.2-2.6c1.4-6.5,2.9-12.9,4.3-19.4C86.3,26.8,85.2,25.1,83.2,24.7z"/>
		<path d="M69.2,10.3c0.3,0,0.4,0,0.5,0.3c1,3.5,3.3,5.5,6.8,6.1c0,0,0.1,0,0.2,0.1c0,1.1,0.1,2.2,0.1,3.3c0,0.4,0.1,0.5,0.5,0.5
			c0.7,0.1,1.4,0.3,2.2,0.5c0-0.3,0-0.6,0-0.8c-0.1-3.2-0.3-6.4-0.4-9.6c-0.1-2.1-1.5-3.4-3.6-3.3c-5.9,0.2-11.8,0.5-17.7,0.7
			c0,0.9-0.1,1.8-0.2,2.6c2.2-0.1,4.4-0.2,6.6-0.3C65.8,10.4,67.5,10.4,69.2,10.3z"/>
		<path d="M50.4,33.3c0.2,0.2,0.5,0.3,0.8,0.3c1.2,0.3,2.4-0.5,2.7-1.7c0.3-1.2-0.4-2.3-1.5-2.7C51.7,30.6,51.1,31.9,50.4,33.3z"/>
		<path d="M73.7,38.6c1.2,0.3,2.4-0.5,2.7-1.7c0.3-1.3-0.5-2.5-1.7-2.8c-1.2-0.3-2.4,0.5-2.7,1.7C71.7,37.1,72.5,38.4,73.7,38.6z"/>
		<path d="M56.4,35.8l-0.5,2.5l1.6,0.3l-0.2,1l3.4,0.7l0.2-1l6.7,1.4l0.5-2.5l-6.7-1.4l0.2-0.8l2.1,0.4c1.9,0.4,3.2,0.1,4.4-0.7
			c0.9-0.6,1.6-1.7,1.8-2.9c0.3-1.5,0-2.7-0.9-3.6c-0.8-0.8-1.8-1.3-3.4-1.6L60,26.6l-1.3,6.3L57,32.6l-0.5,2.5l1.6,0.3L58,36.2
			L56.4,35.8z M62.8,29.7l0.6,0.1c1.1,0.2,1.7,0.3,2.3,0.7c0.5,0.3,0.8,1,0.7,1.7c-0.2,0.8-0.4,1.2-0.9,1.5
			c-0.6,0.3-1.3,0.3-2.5,0.1l-1-0.2L62.8,29.7z"/>
	</g>
	<g>
		<path d="M102.1,34.1h-5.1l6.9-18.2h5.2l6.9,18.2h-5.1l-1.2-3.3h-6.5L102.1,34.1z M104.5,27.5h4.2l-2.1-6.1L104.5,27.5z"/>
		<path d="M126.9,34.1H117V20.4h9.1c1.2,0,2.1,0.3,2.8,1c0.7,0.7,1.1,1.5,1.1,2.3c0,0.8-0.2,1.5-0.5,2.1c-0.4,0.5-0.9,0.9-1.5,1.1
			c0.8,0.1,1.4,0.5,2,1.1c0.6,0.6,0.8,1.5,0.8,2.5s-0.4,1.9-1.1,2.6C129,33.8,128.1,34.1,126.9,34.1z M125.5,24.4
			c0-0.3-0.1-0.5-0.3-0.7c-0.2-0.2-0.4-0.3-0.6-0.3h-3v2.3h3c0.3,0,0.5-0.1,0.6-0.3c0.2-0.2,0.3-0.4,0.3-0.7V24.4z M126.3,29.7
			c0-0.3-0.1-0.5-0.3-0.7c-0.2-0.2-0.4-0.3-0.6-0.3h-3.8V31h3.8c0.3,0,0.5-0.1,0.6-0.3c0.2-0.2,0.3-0.4,0.3-0.7V29.7z"/>
		<path d="M139.9,23.9v10.3h-4.5V23.9h-4.3v-3.5h13.1v3.5H139.9z"/>
		<path d="M159.7,30.2c0,1.3-0.4,2.3-1.1,3.1c-0.7,0.7-1.8,1.1-3.1,1.1h-6c-1.3,0-2.3-0.4-3.1-1.1c-0.7-0.7-1.1-1.8-1.1-3.1v-6
			c0-1.3,0.4-2.3,1.1-3.1c0.7-0.7,1.8-1.1,3.1-1.1h6c1.3,0,2.3,0.4,3.1,1.1c0.7,0.7,1.1,1.8,1.1,3.1V30.2z M155.2,24.6
			c0-0.7-0.3-1-1-1H151c-0.7,0-1,0.3-1,1v5.2c0,0.7,0.3,1,1,1h3.1c0.7,0,1-0.3,1-1V24.6z"/>
		<path d="M175.6,15.7c0.4,0,1.2,0.1,2.3,0.3v3.5h-1c-0.3,0-0.5,0.1-0.7,0.2c-0.2,0.2-0.4,0.3-0.5,0.5l-2.5,4.7l5.1,9.2h-4.9l-4-7.4
			H167v7.4h-4.7V15.9h4.7v7.2h2.3l2.6-4.9c0.4-0.7,0.9-1.3,1.4-1.8C173.9,15.9,174.7,15.7,175.6,15.7z"/>
		<path d="M187.6,34.4c-2.5,0-5.4-0.2-8.6-0.5v-3.1c3.1,0.3,5.5,0.4,7,0.4c0.3,0,0.5-0.1,0.6-0.3c0.2-0.2,0.3-0.4,0.3-0.7v-1.3h-5.8
			v-3.3h5.8v-1c0-0.7-0.3-1-1-1h-6.6v-3.3h8c1.3,0,2.3,0.4,3.1,1.1c0.7,0.7,1.1,1.8,1.1,3.1v6c0,1.2-0.4,2.1-1.1,2.8
			C189.8,34,188.8,34.4,187.6,34.4z"/>
		<path d="M193.9,34.1V20.4h4.5v10.3h3V20.4h4.5v10.3h3V20.4h4.5v13.8H193.9z"/>
		<path d="M223.6,23.2h4.4v3.6h-4.4v4.4H220v-4.4h-4.4v-3.6h4.4v-4.4h3.6V23.2z"/>
	</g>
</g>
</svg>
