<?xml version="1.0" encoding="utf-8"?>
<!-- Generator: Adobe Illustrator 21.1.0, SVG Export Plug-In . SVG Version: 6.00 Build 0)  -->
<svg version="1.1" id="Layer_1" xmlns="http://www.w3.org/2000/svg" xmlns:xlink="http://www.w3.org/1999/xlink" x="0px" y="0px"
	 viewBox="0 0 175 175" style="enable-background:new 0 0 175 175;" xml:space="preserve">
<style type="text/css">
	.st0{fill:#FFFFFF;}
	.st1{fill:#F7931B;}
</style>
<g>
	<circle class="st0" cx="87.5" cy="87.5" r="85.5"/>
	<path class="st1" d="M98.2,138c-2.9,0-5.5,0-8.1,0c-1.2,0-1-0.9-1-1.7c0-3.9-0.1-7.7,0-11.6c0-1.6-0.5-2.2-2.1-2.1
		c-1.4,0.1-2.8,0-4.4,0c0,5.3,0,10.2,0,15.3c-2.8,0-5.4,0-8.1,0c-1.1,0-1.1-0.9-1.1-1.7c0-3.9-0.1-7.7,0-11.6c0-1.6-0.5-2.1-2.1-2.1
		c-5.6,0.1-11.2,0-16.8,0c-0.7,0-1.4,0-2.5,0c0.4-2.8,0.7-5.3,1.1-7.8c0-0.3,0.2-0.6,0.2-0.9c0.5-3.1,0.5-3.1,3.7-3.1
		c1.7,0,3.3,0,5-0.1c2.2-0.1,2.9-1,2.9-3.1c0-13,0-26,0-39c0-2.4-0.8-3.1-3.2-3.2c-2.5,0-5,0-7.6,0c0-3.9,0-7.6,0-11.5
		c6.3,0,12.5,0,19,0c0-0.8,0.1-1.5,0.1-2.2c0-4.3,0.1-8.6,0-12.9c0-1.4,0.5-2,1.9-1.9c2.4,0.1,4.7,0,7.2,0c0,5.7,0,11.2,0,16.8
		c2.1,0,4.2,0,6.4,0c0-0.6,0.1-1.3,0.1-2c0-4.2,0.1-8.5,0-12.7c0-1.6,0.5-2.2,2.1-2.1c2.3,0.1,4.6,0,7.1,0c0,5.8,0,11.3,0,16.7
		c3,0.5,5.8,0.8,8.5,1.4c8.8,2,15,11.7,12.1,20.7c-1.5,4.6-2.8,6.1-8.3,10.2c1.9,1.1,4.1,2,5.8,3.3c5.7,4.4,7.5,10.4,6.1,17.3
		c-1.1,5.3-3.7,9.8-8.4,12.7c-2.8,1.8-5.9,2.6-9.2,2.9c-1.5,0.1-3,0.2-4.4,0.1c-1.7-0.1-2.3,0.4-2.2,2.2c0.1,3.8,0,7.6,0,11.4
		C98.2,136.5,98.2,137.1,98.2,138z M82.7,110.7c5.9,0,11.5,0.1,17.1,0c5.2-0.1,8.4-3.3,8.5-8.4c0.1-4.8-2.5-8.5-8-8.9
		C95.1,93,89.9,93,84.7,92.8c-0.7,0-1.4,0.1-2,0.1C82.7,98.9,82.7,104.8,82.7,110.7z M82.7,65.7c0,5.2,0,10.3,0,15.8
		c5.6-0.2,11.2-0.4,16.8-0.8c3.5-0.3,6.8-3.3,6.3-8.3c-0.3-3.7-2.8-6.5-6.9-6.7C93.6,65.5,88.2,65.7,82.7,65.7z"/>
	<g>
		<g>
			<g>
				<path class="st1" d="M87.5,175C39.3,175,0,135.7,0,87.5S39.3,0,87.5,0S175,39.3,175,87.5S135.7,175,87.5,175z M87.5,5.1
					c-45.4,0-82.4,37-82.4,82.4s37,82.4,82.4,82.4s82.4-37,82.4-82.4S132.9,5.1,87.5,5.1z"/>
			</g>
			<g>
				<g>
					<g>
						<polygon class="st1" points="162,94.6 162.2,92.3 172.7,92.9 172.5,95.6 						"/>
					</g>
				</g>
				<g>
					<g>
						<polygon class="st1" points="161,101.7 161.4,99.3 171.8,101 171.3,103.7 						"/>
					</g>
				</g>
				<g>
					<g>
						<polygon class="st1" points="159.3,108.6 159.9,106.3 170.1,108.9 169.4,111.5 						"/>
					</g>
				</g>
				<g>
					<g>
						<path class="st1" d="M157,115.3l0.9-2.2l9.9,3.6c-0.3,0.8-0.7,1.7-1,2.5L157,115.3z"/>
					</g>
				</g>
				<g>
					<g>
						<path class="st1" d="M154,121.8c0.4-0.7,0.7-1.4,1.1-2.1l9.5,4.5c-0.4,0.8-0.8,1.6-1.2,2.4L154,121.8z"/>
					</g>
				</g>
				<g>
					<g>
						<path class="st1" d="M150.4,127.9c0.4-0.7,0.9-1.3,1.3-2l9,5.4c-0.4,0.8-1,1.5-1.4,2.3L150.4,127.9z"/>
					</g>
				</g>
				<g>
					<g>
						<path class="st1" d="M146.3,133.7c0.5-0.6,1-1.2,1.4-1.9l8.5,6.3c-0.5,0.7-1.1,1.4-1.7,2.1L146.3,133.7z"/>
					</g>
				</g>
				<g>
					<g>
						<path class="st1" d="M141.6,139.1c0.5-0.6,1.1-1.1,1.6-1.7l7.9,7c-0.6,0.7-1.2,1.3-1.8,2L141.6,139.1z"/>
					</g>
				</g>
				<g>
					<g>
						<path class="st1" d="M136.5,144c0.6-0.5,1.2-1,1.8-1.6l7.2,7.7c-0.6,0.6-1.3,1.2-2,1.8L136.5,144z"/>
					</g>
				</g>
				<g>
					<g>
						<path class="st1" d="M130.9,148.4c0.6-0.5,1.3-0.9,1.9-1.4l6.4,8.4c-0.7,0.6-1.5,1.1-2.2,1.6L130.9,148.4z"/>
					</g>
				</g>
				<g>
					<g>
						<path class="st1" d="M124.9,152.3c0.7-0.4,1.4-0.8,2-1.2l5.6,8.9c-0.8,0.5-1.5,0.9-2.3,1.4L124.9,152.3z"/>
					</g>
				</g>
				<g>
					<g>
						<path class="st1" d="M118.6,155.6c0.7-0.3,1.4-0.6,2.1-1l4.7,9.4c-0.8,0.4-1.6,0.8-2.4,1.2L118.6,155.6z"/>
					</g>
				</g>
				<g>
					<g>
						<path class="st1" d="M112,158.2l1.1-0.4c0.4-0.1,0.7-0.3,1.1-0.4l3.8,9.8c-0.4,0.2-0.8,0.3-1.3,0.5l-1.3,0.4L112,158.2z"/>
					</g>
				</g>
				<g>
					<g>
						<path class="st1" d="M105.1,160.2c0.4-0.1,0.8-0.2,1.2-0.3l1.1-0.3l2.8,10.2l-1.3,0.4c-0.4,0.1-0.9,0.2-1.3,0.3L105.1,160.2z"
							/>
					</g>
				</g>
				<g>
					<g>
						<path class="st1" d="M98.2,161.6c0.8-0.1,1.6-0.2,2.3-0.4l1.8,10.4c-0.9,0.2-1.8,0.3-2.7,0.4L98.2,161.6z"/>
					</g>
				</g>
				<g>
					<g>
						<path class="st1" d="M91.1,162.2c0.8,0,1.6-0.1,2.4-0.2l0.8,10.5c-0.9,0.1-1.8,0.2-2.7,0.2L91.1,162.2z"/>
					</g>
				</g>
				<g>
					<g>
						<polygon class="st1" points="83.9,162.2 86.3,162.3 86.1,172.8 83.4,172.8 						"/>
					</g>
				</g>
				<g>
					<g>
						<polygon class="st1" points="76.8,161.6 79.2,161.9 78,172.3 75.4,172 						"/>
					</g>
				</g>
				<g>
					<g>
						<polygon class="st1" points="69.9,160.2 72.2,160.8 70,171.1 67.4,170.5 						"/>
					</g>
				</g>
				<g>
					<g>
						<polygon class="st1" points="63,158.2 65.3,159 62.1,169 59.6,168.2 						"/>
					</g>
				</g>
				<g>
					<g>
						<path class="st1" d="M56.4,155.6c0.7,0.3,1.4,0.7,2.2,1l-4.1,9.7c-0.8-0.3-1.6-0.7-2.5-1.1L56.4,155.6z"/>
					</g>
				</g>
				<g>
					<g>
						<path class="st1" d="M50.1,152.3c0.7,0.4,1.4,0.8,2.1,1.2l-5,9.3c-0.8-0.4-1.6-0.9-2.4-1.3L50.1,152.3z"/>
					</g>
				</g>
				<g>
					<g>
						<path class="st1" d="M44.1,148.4c0.7,0.4,1.3,0.9,1.9,1.4l-5.8,8.8c-0.8-0.5-1.5-1-2.2-1.5L44.1,148.4z"/>
					</g>
				</g>
				<g>
					<g>
						<path class="st1" d="M38.5,144c0.6,0.5,1.2,1.1,1.8,1.5l-6.6,8.2c-0.7-0.5-1.4-1.2-2.1-1.8L38.5,144z"/>
					</g>
				</g>
				<g>
					<g>
						<path class="st1" d="M33.4,139.1c0.6,0.6,1.1,1.2,1.7,1.7l-7.4,7.5c-0.7-0.6-1.3-1.3-1.9-1.9L33.4,139.1z"/>
					</g>
				</g>
				<g>
					<g>
						<path class="st1" d="M28.7,133.7c0.5,0.6,1,1.3,1.5,1.8l-8.1,6.8c-0.6-0.7-1.1-1.4-1.7-2.1L28.7,133.7z"/>
					</g>
				</g>
				<g>
					<g>
						<path class="st1" d="M24.6,127.9c0.4,0.7,0.8,1.3,1.3,2l-8.7,6c-0.5-0.7-1-1.5-1.5-2.3L24.6,127.9z"/>
					</g>
				</g>
				<g>
					<g>
						<path class="st1" d="M21,121.8c0.4,0.7,0.7,1.4,1.1,2.1l-9.2,5.1c-0.5-0.8-0.9-1.6-1.3-2.4L21,121.8z"/>
					</g>
				</g>
				<g>
					<g>
						<path class="st1" d="M18,115.3c0.3,0.7,0.6,1.5,0.9,2.2l-9.7,4.2c-0.4-0.8-0.7-1.7-1-2.5L18,115.3z"/>
					</g>
				</g>
				<g>
					<g>
						<polygon class="st1" points="15.7,108.6 16,109.7 16.4,110.9 6.4,114.1 6,112.9 5.6,111.5 						"/>
					</g>
				</g>
				<g>
					<g>
						<path class="st1" d="M14,101.7c0.1,0.8,0.3,1.6,0.5,2.3l-10.3,2.3c-0.2-0.9-0.4-1.8-0.6-2.7L14,101.7z"/>
					</g>
				</g>
				<g>
					<g>
						<path class="st1" d="M13,94.6c0,0.8,0.2,1.6,0.3,2.4L2.8,98.3c-0.1-0.9-0.3-1.8-0.3-2.7L13,94.6z"/>
					</g>
				</g>
				<g>
					<g>
						<polygon class="st1" points="12.7,87.5 12.7,89.9 2.2,90.2 2.1,87.5 						"/>
					</g>
				</g>
				<g>
					<g>
						<polygon class="st1" points="13,80.4 12.8,82.7 2.3,82.1 2.5,79.4 						"/>
					</g>
				</g>
				<g>
					<g>
						<polygon class="st1" points="14,73.3 13.6,75.7 3.2,74 3.7,71.3 						"/>
					</g>
				</g>
				<g>
					<g>
						<polygon class="st1" points="15.7,66.4 15.1,68.7 4.9,66.1 5.6,63.5 						"/>
					</g>
				</g>
				<g>
					<g>
						<path class="st1" d="M18,59.7l-0.9,2.2l-9.9-3.6c0.3-0.8,0.7-1.7,1-2.5L18,59.7z"/>
					</g>
				</g>
				<g>
					<g>
						<path class="st1" d="M21,53.2c-0.4,0.7-0.7,1.4-1.1,2.1l-9.5-4.5c0.4-0.8,0.8-1.6,1.2-2.4L21,53.2z"/>
					</g>
				</g>
				<g>
					<g>
						<path class="st1" d="M24.6,47.1c-0.4,0.7-0.9,1.3-1.3,2l-9-5.4c0.4-0.8,1-1.5,1.4-2.3L24.6,47.1z"/>
					</g>
				</g>
				<g>
					<g>
						<path class="st1" d="M28.7,41.3c-0.5,0.6-1,1.2-1.4,1.9l-8.5-6.3c0.5-0.7,1.1-1.4,1.7-2.1L28.7,41.3z"/>
					</g>
				</g>
				<g>
					<g>
						<path class="st1" d="M33.4,35.9c-0.5,0.6-1.1,1.1-1.6,1.7l-7.9-7c0.6-0.7,1.2-1.3,1.8-2L33.4,35.9z"/>
					</g>
				</g>
				<g>
					<g>
						<path class="st1" d="M38.5,31c-0.6,0.5-1.2,1-1.8,1.6l-7.2-7.7c0.6-0.6,1.3-1.2,2-1.8L38.5,31z"/>
					</g>
				</g>
				<g>
					<g>
						<path class="st1" d="M44.1,26.6c-0.6,0.5-1.3,0.9-1.9,1.4l-6.4-8.4c0.7-0.6,1.5-1.1,2.2-1.6L44.1,26.6z"/>
					</g>
				</g>
				<g>
					<g>
						<path class="st1" d="M50.1,22.7c-0.7,0.4-1.4,0.8-2,1.2L42.5,15c0.8-0.5,1.5-0.9,2.3-1.4L50.1,22.7z"/>
					</g>
				</g>
				<g>
					<g>
						<path class="st1" d="M56.4,19.4c-0.7,0.3-1.4,0.6-2.1,1L49.6,11c0.8-0.4,1.6-0.8,2.4-1.2L56.4,19.4z"/>
					</g>
				</g>
				<g>
					<g>
						<path class="st1" d="M63,16.8l-1.1,0.4c-0.4,0.1-0.7,0.3-1.1,0.4L57,7.8c0.4-0.2,0.8-0.3,1.3-0.5l1.3-0.4L63,16.8z"/>
					</g>
				</g>
				<g>
					<g>
						<path class="st1" d="M69.9,14.8c-0.4,0.1-0.8,0.2-1.2,0.3l-1.1,0.3L64.8,5.2l1.3-0.4c0.4-0.1,0.9-0.2,1.3-0.3L69.9,14.8z"/>
					</g>
				</g>
				<g>
					<g>
						<path class="st1" d="M76.8,13.4c-0.8,0.1-1.6,0.2-2.3,0.4L72.7,3.4c0.9-0.2,1.8-0.3,2.7-0.4L76.8,13.4z"/>
					</g>
				</g>
				<g>
					<g>
						<path class="st1" d="M83.9,12.8c-0.8,0-1.6,0.1-2.4,0.2L80.7,2.4c0.9-0.1,1.8-0.2,2.7-0.2L83.9,12.8z"/>
					</g>
				</g>
				<g>
					<g>
						<polygon class="st1" points="91.1,12.8 88.7,12.7 88.9,2.2 91.6,2.2 						"/>
					</g>
				</g>
				<g>
					<g>
						<polygon class="st1" points="98.2,13.4 95.8,13.1 97,2.7 99.6,3 						"/>
					</g>
				</g>
				<g>
					<g>
						<polygon class="st1" points="105.1,14.8 102.8,14.2 105,3.9 107.6,4.5 						"/>
					</g>
				</g>
				<g>
					<g>
						<polygon class="st1" points="112,16.8 109.7,16 112.9,6 115.4,6.8 						"/>
					</g>
				</g>
				<g>
					<g>
						<path class="st1" d="M118.6,19.4c-0.7-0.3-1.4-0.7-2.2-1l4.1-9.7c0.8,0.3,1.6,0.7,2.5,1.1L118.6,19.4z"/>
					</g>
				</g>
				<g>
					<g>
						<path class="st1" d="M124.9,22.7c-0.7-0.4-1.4-0.8-2.1-1.2l5-9.3c0.8,0.4,1.6,0.9,2.4,1.3L124.9,22.7z"/>
					</g>
				</g>
				<g>
					<g>
						<path class="st1" d="M130.9,26.6c-0.7-0.4-1.3-0.9-1.9-1.4l5.8-8.8c0.8,0.5,1.5,1,2.2,1.5L130.9,26.6z"/>
					</g>
				</g>
				<g>
					<g>
						<path class="st1" d="M136.5,31c-0.6-0.5-1.2-1.1-1.8-1.5l6.6-8.2c0.7,0.5,1.4,1.2,2.1,1.8L136.5,31z"/>
					</g>
				</g>
				<g>
					<g>
						<path class="st1" d="M141.6,35.9c-0.6-0.6-1.1-1.2-1.7-1.7l7.4-7.5c0.7,0.6,1.3,1.3,1.9,1.9L141.6,35.9z"/>
					</g>
				</g>
				<g>
					<g>
						<path class="st1" d="M146.3,41.3c-0.5-0.6-1-1.3-1.5-1.8l8.1-6.8c0.6,0.7,1.1,1.4,1.7,2.1L146.3,41.3z"/>
					</g>
				</g>
				<g>
					<g>
						<path class="st1" d="M150.4,47.1c-0.4-0.7-0.8-1.3-1.3-2l8.7-6c0.5,0.7,1,1.5,1.5,2.3L150.4,47.1z"/>
					</g>
				</g>
				<g>
					<g>
						<path class="st1" d="M154,53.2c-0.4-0.7-0.7-1.4-1.1-2.1l9.2-5.1c0.5,0.8,0.9,1.6,1.3,2.4L154,53.2z"/>
					</g>
				</g>
				<g>
					<g>
						<path class="st1" d="M157,59.7c-0.3-0.7-0.6-1.5-0.9-2.2l9.7-4.2c0.4,0.8,0.7,1.7,1,2.5L157,59.7z"/>
					</g>
				</g>
				<g>
					<g>
						<polygon class="st1" points="159.3,66.4 159,65.3 158.6,64.1 168.6,60.9 169,62.1 169.4,63.5 						"/>
					</g>
				</g>
				<g>
					<g>
						<path class="st1" d="M161,73.3c-0.1-0.8-0.3-1.6-0.5-2.3l10.3-2.3c0.2,0.9,0.4,1.8,0.6,2.7L161,73.3z"/>
					</g>
				</g>
				<g>
					<g>
						<path class="st1" d="M162,80.4c0-0.8-0.2-1.6-0.3-2.4l10.5-1.3c0.1,0.9,0.3,1.8,0.3,2.7L162,80.4z"/>
					</g>
				</g>
				<g>
					<g>
						<polygon class="st1" points="162.3,87.5 162.3,85.1 172.8,84.8 172.9,87.5 						"/>
					</g>
				</g>
			</g>
			<g>
				<path class="st1" d="M87.5,159.5c-39.7,0-72-32.3-72-72s32.3-72,72-72s72,32.3,72,72S127.2,159.5,87.5,159.5z M87.5,18.7
					c-37.9,0-68.8,30.8-68.8,68.8s30.8,68.8,68.8,68.8s68.8-30.8,68.8-68.8S125.4,18.7,87.5,18.7z"/>
			</g>
		</g>
	</g>
</g>
</svg>
