<svg xmlns="http://www.w3.org/2000/svg" viewBox="0 0 1621.54 437.54">
  <defs>
    <style>
      .cls-1 {
        fill: #fff;
      }

      .cls-2 {
        fill: #fe7f2d;
      }
    </style>
  </defs>
  <title>Ресурс 39</title>
  <g id="Слой_2" data-name="Слой 2">
    <g id="Слой_1-2" data-name="Слой 1">
      <g>
        <g>
          <path class="cls-1" d="M497.5,234.3V117.94l-14.62-2.71v-14.7H547q21.2,0,33.76,4.11t18.16,12.65q5.59,8.55,5.59,22.56a46.19,46.19,0,0,1-3.19,16.76,42.1,42.1,0,0,1-9.67,14.73,37.79,37.79,0,0,1-15.9,9.37,29.37,29.37,0,0,1,10.75,8,65.56,65.56,0,0,1,8.34,12q3.48,6.43,7.71,15.56t6.87,13.4q2.55,4.27,5.3,5l6.18,2.16v13.15H582.69q-3,0-6.08-6.44t-8-20.2q-3.73-10.52-6.53-17.4a87.31,87.31,0,0,0-6.13-12.38q-3.34-5.5-7-7.37H530.68V234.4l17.86,2.36v13.15H482.19V236.76Zm65.76-69.39q6-8,6-24.06,0-13.87-6-20.71t-19.83-6.84a54.33,54.33,0,0,0-12.76,1.17v58q1.57.44,8.24.44h7.46Q557.27,172.86,563.26,164.91Z"/>
          <path class="cls-1" d="M656.41,234.25v-117l-15.6-2.85V100.53H749.45l2.75,34.64h-16l-6.87-20.41H689.68V165.7h24.93l3.63-16.49h14.33v50H718.24l-3.44-17.57H689.68v52.7h44.17l12.27-26.23,16.78,4.73-5.1,37.1H641.1V236.76Z"/>
          <path class="cls-1" d="M801.68,234.2v-117l-15.11-2.85V100.53h67.13v13.84L835,117.21V233h38.67l13-39.06L905,196.71l-5.79,53.19H786.36V236.76Z"/>
          <path class="cls-1" d="M945.67,234.2v-117l-16.39-2.85V100.53h66.15v13.84l-16.49,2.75V234.2L995.62,237v13H929.47V236.76Z"/>
          <path class="cls-1" d="M1024.68,234.22,1070,100.53h34.64l45.64,133.78,11.38,2.44v13.15h-62.13V236.76l14.13-2.55L1106.63,210h-49.37l-6.87,24.63,15.61,2.16v13.15h-52.9l-.2-13.15Zm77.53-39.37L1084.45,135l-3-13.62-3,13.62-16.88,59.8Z"/>
          <path class="cls-1" d="M1194.78,234.3V117.12l-15.9-2.75V100.53h49L1285,187.19l10.7,22.77V117l-17.27-2.65V100.53H1330v13.84l-15.51,2.75V249.91h-27.29l-60.16-92-13.35-26.89V234.3l20.61,2.45v13.15h-55.45V236.76Z"/>
          <path class="cls-1" d="M1361.59,135.55a65.35,65.35,0,0,1,26.55-26.11q16.88-9,38.18-9a146.31,146.31,0,0,1,17.08,1q8.34,1,18.75,2.75,8.14,1.28,10.31,1.47l-2.36,42.76h-21l-6.87-28.77q-1.67-2.19-6.18-3.57a43.07,43.07,0,0,0-12.17-1.38,27,27,0,0,0-18.11,6.58q-7.71,6.57-11.92,19.68t-4.22,32.16a121.5,121.5,0,0,0,3.88,32.06q3.88,14.15,11.92,22.34a26.92,26.92,0,0,0,20,8.19q7.66,0,11.92-1.76a18,18,0,0,0,6.72-4.52l9.42-21.07,19,1.77-3.73,32.31a42,42,0,0,0-5.94,1q-2.8.67-7.21,1.92-7.56,2.21-14.18,3.46A90.58,90.58,0,0,1,1425,250q-23.85,0-40.24-8.91a57.57,57.57,0,0,1-24.63-25.49q-8.24-16.58-8.24-39.67Q1351.92,152.65,1361.59,135.55Z"/>
          <path class="cls-1" d="M1515,234.25v-117l-15.6-2.85V100.53h108.65l2.75,34.64h-16L1588,114.76h-39.65V165.7h24.93l3.63-16.49h14.33v50h-14.33l-3.44-17.57h-25.12v52.7h44.17l12.27-26.23,16.78,4.73-5.1,37.1H1499.74V236.76Z"/>
          <path class="cls-1" d="M494.41,373.09V308.9L485,307.56v-5.69H515.9v5.69l-9.38,1.28v64.24l9.54,1.38v5.43H485v-5.59Z"/>
          <path class="cls-1" d="M533.64,373.65V332l-7.33-2v-6.48l15.18-2.05h.26l2.41,2v4.36l-.05,2.47a31.87,31.87,0,0,1,5.92-4.2,39.08,39.08,0,0,1,7.64-3.3,25.85,25.85,0,0,1,7.72-1.28q6.66,0,10.3,2.44a12.82,12.82,0,0,1,5.08,7.51,52.54,52.54,0,0,1,1.44,13.76v28.38l7.38.84v5.41H563.83v-5.41l6.56-.84V345.32a41.2,41.2,0,0,0-.79-9.13,8.51,8.51,0,0,0-3-5q-2.2-1.68-6.51-1.68a20.26,20.26,0,0,0-7.69,1.64,30.26,30.26,0,0,0-7,4v38.54l7.08.84v5.41H526.92v-5.41Z"/>
          <path class="cls-1" d="M595.62,328.94v-4.87a34.8,34.8,0,0,0,3.31-1.09,14.27,14.27,0,0,0,2.44-1.09,9.22,9.22,0,0,0,2.77-4.25q.77-1.85,2-5.91t1.72-6.12h6.67l.1,16h17.23v7.33H614.69v30.25a66.47,66.47,0,0,0,.36,8.48q.36,2.38,1.46,3.05a8.38,8.38,0,0,0,4,.67h.05a32.17,32.17,0,0,0,6-.65,33.25,33.25,0,0,0,5.2-1.34h.05l1.74,4.91a18.93,18.93,0,0,1-4.61,2.59,43.39,43.39,0,0,1-6.61,2.18,27.32,27.32,0,0,1-6.51.87h-.1q-6.36,0-9.59-2.74T603,368.06V328.94Z"/>
          <path class="cls-1" d="M642.84,335.54a25.52,25.52,0,0,1,9.79-10.32,27.63,27.63,0,0,1,14.2-3.65q9.84,0,15.23,4.92t5.74,14.2v1.69a34.45,34.45,0,0,1-.62,7.5H651.66a31.18,31.18,0,0,0,2.56,12.51,16.63,16.63,0,0,0,6.2,7.33,16.23,16.23,0,0,0,8.67,2.36,27.52,27.52,0,0,0,8.64-1.46,24.16,24.16,0,0,0,6.95-3.36l2.15,4.92a21.31,21.31,0,0,1-5.36,3.79,35.89,35.89,0,0,1-7.59,2.9,32.3,32.3,0,0,1-8.28,1.1q-8.61,0-14.54-3.65a22.42,22.42,0,0,1-8.84-10.2,37.17,37.17,0,0,1-2.92-15.27A32.15,32.15,0,0,1,642.84,335.54Zm32.66,8.38a30.2,30.2,0,0,0,.21-3.79,14.34,14.34,0,0,0-2.72-9q-2.67-3.39-8.41-3.39a11.72,11.72,0,0,0-9.1,3.67q-3.36,3.68-3.82,12.48Z"/>
          <path class="cls-1" d="M704.77,373.57V332L697.49,330v-6.15l14.66-2.05h.26l2.46,2v3.37l-.1,6.95h.1a26.19,26.19,0,0,1,3.56-4.7,28.09,28.09,0,0,1,6.82-5.39,17.73,17.73,0,0,1,9.1-2.44,9,9,0,0,1,3.38.56v13a8.55,8.55,0,0,0-2.59-1.21,11.84,11.84,0,0,0-3.46-.49,27.1,27.1,0,0,0-8.95,1.32,21.41,21.41,0,0,0-6.28,3.32V374h13.48v5.95H696.72v-5.54Z"/>
          <path class="cls-1" d="M752.25,373.65V332l-7.33-2v-6.48l15.18-2.05h.26l2.41,2v4.36l-.05,2.47a31.87,31.87,0,0,1,5.92-4.2,39.08,39.08,0,0,1,7.64-3.3,25.85,25.85,0,0,1,7.72-1.28q6.66,0,10.3,2.44a12.82,12.82,0,0,1,5.08,7.51,52.54,52.54,0,0,1,1.44,13.76v28.38l7.38.84v5.41H782.45v-5.41l6.56-.84V345.32a41.2,41.2,0,0,0-.79-9.13,8.51,8.51,0,0,0-3-5q-2.2-1.68-6.51-1.68a20.26,20.26,0,0,0-7.69,1.64,30.26,30.26,0,0,0-7,4v38.54l7.08.84v5.41H745.53v-5.41Z"/>
          <path class="cls-1" d="M849.51,341.12a17.1,17.1,0,0,0-1-6.49,6.44,6.44,0,0,0-3.46-3.46,17.65,17.65,0,0,0-7-1.1,45.29,45.29,0,0,0-18.25,4.22h-.05l-2.56-4.69a26.8,26.8,0,0,1,5.31-3.18,54.5,54.5,0,0,1,8.92-3.41,33.9,33.9,0,0,1,9.51-1.46q7.49,0,11.77,1.94a11.93,11.93,0,0,1,6.18,6.21q1.9,4.27,1.9,11.53v31.9H867v5A53.24,53.24,0,0,1,855.76,380a11.44,11.44,0,0,1-3.28-.36,2.71,2.71,0,0,1-1.67-1.46,8.17,8.17,0,0,1-.54-3.41v-2.46a33.35,33.35,0,0,1-7.28,5.2A20.58,20.58,0,0,1,832.9,380a21.65,21.65,0,0,1-8.95-1.8,14.4,14.4,0,0,1-6.41-5.55,17.13,17.13,0,0,1-2.38-9.36A14.71,14.71,0,0,1,819.9,352a28.94,28.94,0,0,1,12.46-6.5,65.76,65.76,0,0,1,17.15-2.08Zm0,8a37.61,37.61,0,0,0-12.38,1.72,14.89,14.89,0,0,0-7,4.54,10.2,10.2,0,0,0-2.18,6.41q0,5.38,2.67,7.9a10,10,0,0,0,7.18,2.51,16.24,16.24,0,0,0,5.82-1.36,24.22,24.22,0,0,0,5.92-3.31Z"/>
          <path class="cls-1" d="M873.09,328.94v-4.87A34.8,34.8,0,0,0,876.4,323a14.27,14.27,0,0,0,2.44-1.09,9.22,9.22,0,0,0,2.77-4.25q.77-1.85,2-5.91t1.72-6.12H892l.1,16h17.23v7.33H892.16v30.25a66.47,66.47,0,0,0,.36,8.48q.36,2.38,1.46,3.05a8.38,8.38,0,0,0,4,.67h.05a32.17,32.17,0,0,0,6-.65,33.25,33.25,0,0,0,5.2-1.34h.05l1.74,4.91a18.93,18.93,0,0,1-4.61,2.59,43.39,43.39,0,0,1-6.61,2.18,27.32,27.32,0,0,1-6.51.87h-.1q-6.36,0-9.59-2.74t-3.23-9.16V328.94Z"/>
          <path class="cls-1" d="M924.72,373.45v-43l-7.43-2.1v-6l16.3-2.1h.26l2.61,2v51.22l8.2.87v5.59H916.41v-5.59Zm-.08-75.78a7,7,0,0,1,5.67-2.41h.05a6.89,6.89,0,0,1,3.74,1,6.72,6.72,0,0,1,2.43,2.64,7.5,7.5,0,0,1,.85,3.49,8.55,8.55,0,0,1-2.05,5.9,7.54,7.54,0,0,1-5.95,2.31h-.05a6.33,6.33,0,0,1-4.84-2,7.06,7.06,0,0,1-1.87-5A8.86,8.86,0,0,1,924.64,297.67Z"/>
          <path class="cls-1" d="M994.24,325.34a22.75,22.75,0,0,1,8.82,10.37,37.46,37.46,0,0,1,2.87,15.08,30.21,30.21,0,0,1-3.92,15.69,26.4,26.4,0,0,1-10.3,10.05A28.32,28.32,0,0,1,978.09,380q-8.92,0-14.84-3.78a22.78,22.78,0,0,1-8.79-10.37,37.43,37.43,0,0,1-2.87-15.08,30,30,0,0,1,3.92-15.59,26.76,26.76,0,0,1,10.3-10.1,27.91,27.91,0,0,1,13.56-3.48Q988.29,321.56,994.24,325.34Zm-4.69,9a11.39,11.39,0,0,0-10.79-6.42q-7.08,0-10.66,5.5t-3.59,16.45q0,10.9,3.46,17.32a11.45,11.45,0,0,0,10.79,6.42q14.2,0,14.2-21.94Q993,340.76,989.55,334.34Z"/>
          <path class="cls-1" d="M1021.93,373.65V332l-7.33-2v-6.48l15.18-2.05h.26l2.41,2v4.36l-.05,2.47a31.87,31.87,0,0,1,5.92-4.2,39.08,39.08,0,0,1,7.64-3.3,25.85,25.85,0,0,1,7.72-1.28q6.66,0,10.3,2.44a12.82,12.82,0,0,1,5.08,7.51,52.54,52.54,0,0,1,1.44,13.76v28.38l7.38.84v5.41h-25.74v-5.41l6.56-.84V345.32a41.2,41.2,0,0,0-.79-9.13,8.51,8.51,0,0,0-3-5q-2.2-1.68-6.51-1.68a20.26,20.26,0,0,0-7.69,1.64,30.26,30.26,0,0,0-7,4v38.54l7.08.84v5.41h-25.53v-5.41Z"/>
          <path class="cls-1" d="M1119.19,341.12a17.1,17.1,0,0,0-1-6.49,6.44,6.44,0,0,0-3.46-3.46,17.65,17.65,0,0,0-7-1.1,45.29,45.29,0,0,0-18.25,4.22h-.05l-2.56-4.69a26.8,26.8,0,0,1,5.31-3.18,54.5,54.5,0,0,1,8.92-3.41,33.9,33.9,0,0,1,9.51-1.46q7.49,0,11.77,1.94a11.93,11.93,0,0,1,6.18,6.21q1.9,4.27,1.9,11.53v31.9h6.25v5a53.24,53.24,0,0,1-11.28,1.79,11.44,11.44,0,0,1-3.28-.36,2.71,2.71,0,0,1-1.67-1.46,8.17,8.17,0,0,1-.54-3.41v-2.46a33.35,33.35,0,0,1-7.28,5.2,20.58,20.58,0,0,1-10.1,2.49,21.65,21.65,0,0,1-8.95-1.8,14.4,14.4,0,0,1-6.41-5.55,17.13,17.13,0,0,1-2.38-9.36,14.71,14.71,0,0,1,4.74-11.26,28.94,28.94,0,0,1,12.46-6.5,65.76,65.76,0,0,1,17.15-2.08Zm0,8a37.61,37.61,0,0,0-12.38,1.72,14.89,14.89,0,0,0-7,4.54,10.2,10.2,0,0,0-2.18,6.41q0,5.38,2.67,7.9a10,10,0,0,0,7.18,2.51,16.24,16.24,0,0,0,5.82-1.36,24.22,24.22,0,0,0,5.92-3.31Z"/>
          <path class="cls-1" d="M1151.38,373.45V301.93l-8.41-1V296l17.48-2.2h.1l2.51,1.74v77.88l8.71.87v5.59h-28.71v-5.59Z"/>
          <path class="cls-1" d="M1219.83,373.09V308.85l-8.46-1.28v-5.69h30.51v5.69L1232,308.9v63.73h25.89l6.25-17.64,6.87,1.18-3.49,23.74h-56.29v-5.59Z"/>
          <path class="cls-1" d="M1319.6,325.34a22.75,22.75,0,0,1,8.82,10.37,37.46,37.46,0,0,1,2.87,15.08,30.21,30.21,0,0,1-3.92,15.69,26.4,26.4,0,0,1-10.3,10.05,28.32,28.32,0,0,1-13.61,3.43q-8.92,0-14.84-3.78a22.78,22.78,0,0,1-8.79-10.37,37.43,37.43,0,0,1-2.87-15.08,30,30,0,0,1,3.92-15.59,26.76,26.76,0,0,1,10.3-10.1,27.91,27.91,0,0,1,13.56-3.48Q1313.65,321.56,1319.6,325.34Zm-4.69,9a11.39,11.39,0,0,0-10.79-6.42q-7.08,0-10.66,5.5t-3.59,16.45q0,10.9,3.46,17.32a11.45,11.45,0,0,0,10.79,6.42q14.2,0,14.2-21.94Q1318.32,340.76,1314.91,334.34Z"/>
          <path class="cls-1" d="M1365.12,358.89a33.63,33.63,0,0,1-7.84-.87A9.62,9.62,0,0,0,1355,361a7.64,7.64,0,0,0-.82,3.41,5.73,5.73,0,0,0,1.21,3.92,6.49,6.49,0,0,0,3.64,1.87,34.11,34.11,0,0,0,6.69.51h11.18q20,0,20,15.38a16.69,16.69,0,0,1-4.23,11,29.07,29.07,0,0,1-11.3,8,39.07,39.07,0,0,1-15.18,2.95h-.05q-13.74,0-19.94-4.18a13.43,13.43,0,0,1-6.2-11.82,14.41,14.41,0,0,1,2.79-8.64,18.67,18.67,0,0,1,6.74-5.87,9.26,9.26,0,0,1-5-8.61,12.41,12.41,0,0,1,2.21-7.1,16.66,16.66,0,0,1,5.79-5.26,17.65,17.65,0,0,1-7.87-6.37,17,17,0,0,1-2.74-9.64,15.63,15.63,0,0,1,3.43-10.06,21.79,21.79,0,0,1,9-6.57,31.41,31.41,0,0,1,11.95-2.27h.05a36.28,36.28,0,0,1,9.95,1.26,20.55,20.55,0,0,1,7.43,3.72,15.85,15.85,0,0,1,4.61-3.37,15.4,15.4,0,0,1,7.23-1.61h2.77v9.84h-10.77a16.78,16.78,0,0,1,1.79,7.75,17.37,17.37,0,0,1-3.18,10.28,20.8,20.8,0,0,1-8.72,7,30,30,0,0,1-12.41,2.48Zm-13.59,30q0,6.15,3.64,9.33t11.95,3.18h.1A27.1,27.1,0,0,0,1376,400a16.27,16.27,0,0,0,6.82-4.25,9.54,9.54,0,0,0,2.61-6.72,11.49,11.49,0,0,0-1-5.26,6.33,6.33,0,0,0-3.67-2.9,23.66,23.66,0,0,0-7.74-1h-10.3a45.3,45.3,0,0,1-7.95-.67A14.91,14.91,0,0,0,1351.54,388.93Zm14.2-61.37q-5.54,0-8.59,2.8t-3.05,9.17q0,6,2.9,9.65t9.25,3.61h.05q5.84,0,8.49-3.25t2.64-9.52q0-6.42-2.84-9.43t-8.79-3Z"/>
          <path class="cls-1" d="M1411.88,373.45v-43l-7.43-2.1v-6l16.3-2.1h.26l2.61,2v51.22l8.2.87v5.59h-28.25v-5.59Zm-.08-75.78a7,7,0,0,1,5.67-2.41h.05a6.89,6.89,0,0,1,3.74,1,6.72,6.72,0,0,1,2.43,2.64,7.5,7.5,0,0,1,.85,3.49,8.55,8.55,0,0,1-2.05,5.9,7.54,7.54,0,0,1-5.95,2.31h-.05a6.33,6.33,0,0,1-4.84-2,7.06,7.06,0,0,1-1.87-5A8.86,8.86,0,0,1,1411.81,297.67Z"/>
          <path class="cls-1" d="M1448,362.69l2.05,7.42a5.89,5.89,0,0,0,2.38,2,18.32,18.32,0,0,0,4.18,1.51,20.76,20.76,0,0,0,4.92.58q5.79,0,8.25-2.08a7.1,7.1,0,0,0,2.46-5.72,6.68,6.68,0,0,0-1.67-4.49,16.65,16.65,0,0,0-4.95-3.66,87.55,87.55,0,0,0-8.92-3.88q-8.15-3-11.89-7.19a15.39,15.39,0,0,1-3.74-10.72,11.81,11.81,0,0,1,2.79-7.78,18.14,18.14,0,0,1,7.66-5.23,30.5,30.5,0,0,1,11-1.86,41.39,41.39,0,0,1,8.3.74,68.82,68.82,0,0,1,7.23,1.92l1.85.56v12.47h-6.56l-2.2-6.83q-.62-1.27-3.31-2.2a18.39,18.39,0,0,0-6-.93q-4.72,0-7.28,1.91a6,6,0,0,0-2.56,5,7.08,7.08,0,0,0,1.51,4.61,11.82,11.82,0,0,0,3.77,3q2.26,1.18,6.31,2.8l2,.83A80.29,80.29,0,0,1,1475,350a19.59,19.59,0,0,1,6,5.4,13.24,13.24,0,0,1,2.41,8,14.37,14.37,0,0,1-2.69,8.64,17.27,17.27,0,0,1-7.79,5.79,32.13,32.13,0,0,1-12.07,2.06,45.23,45.23,0,0,1-11-1.43,56.88,56.88,0,0,1-9.18-3V362.69Z"/>
          <path class="cls-1" d="M1491.61,328.94v-4.87a34.8,34.8,0,0,0,3.31-1.09,14.27,14.27,0,0,0,2.44-1.09,9.22,9.22,0,0,0,2.77-4.25q.77-1.85,2-5.91t1.72-6.12h6.67l.1,16h17.23v7.33h-17.17v30.25a66.47,66.47,0,0,0,.36,8.48q.36,2.38,1.46,3.05a8.38,8.38,0,0,0,4,.67h.05a32.17,32.17,0,0,0,6-.65,33.25,33.25,0,0,0,5.2-1.34h.05l1.74,4.91a18.93,18.93,0,0,1-4.61,2.59,43.39,43.39,0,0,1-6.61,2.18,27.32,27.32,0,0,1-6.51.87h-.1q-6.36,0-9.59-2.74t-3.23-9.16V328.94Z"/>
          <path class="cls-1" d="M1543.24,373.45v-43l-7.43-2.1v-6l16.3-2.1h.26l2.61,2v51.22l8.2.87v5.59h-28.25v-5.59Zm-.08-75.78a7,7,0,0,1,5.67-2.41h.05a6.89,6.89,0,0,1,3.74,1,6.72,6.72,0,0,1,2.43,2.64,7.5,7.5,0,0,1,.85,3.49,8.55,8.55,0,0,1-2.05,5.9,7.54,7.54,0,0,1-5.95,2.31h-.05a6.33,6.33,0,0,1-4.84-2,7.06,7.06,0,0,1-1.87-5A8.86,8.86,0,0,1,1543.16,297.67Z"/>
          <path class="cls-1" d="M1615.32,324.74l-.51,15.06h-7.13l-2.36-9a4.64,4.64,0,0,0-2.85-2.37,15,15,0,0,0-5.1-.77,13.28,13.28,0,0,0-7.84,2.35,15,15,0,0,0-5.18,7,31.51,31.51,0,0,0-1.85,11.54,34.53,34.53,0,0,0,2.21,13.25,16.72,16.72,0,0,0,6,7.79,15.15,15.15,0,0,0,8.56,2.51,26.46,26.46,0,0,0,8.23-1.23,26.08,26.08,0,0,0,6.43-3l2.2,4.44a22.44,22.44,0,0,1-4.92,3.67,31.9,31.9,0,0,1-6.9,2.9,26.94,26.94,0,0,1-7.67,1.13q-8.66,0-14.66-3.68a23,23,0,0,1-9-10.08,36.31,36.31,0,0,1,.38-29.76,25.86,25.86,0,0,1,10-10.86q6.66-4,16.1-4A44.79,44.79,0,0,1,1615.32,324.74Z"/>
        </g>
        <path class="cls-1" d="M67.21,96.64C64.83,70.07,65.59,69.2,90.48,69.17c14.13,0,28.26,0,43.05,0l0-.2a21.8,21.8,0,0,1,21.7-19.74h38V14.85H143.34a7.43,7.43,0,0,1-7.43-7.43h0A7.43,7.43,0,0,1,143.34,0H261.14a7.43,7.43,0,0,1,7.43,7.43h0a7.43,7.43,0,0,1-7.43,7.43h-46.8l-.24,34.38h36.06a21.8,21.8,0,0,1,21.61,18.92l.14,1c14.07,0,28.61,0,43.15,0,22,.08,25.12,3.64,22.87,27.47Z"/>
        <rect class="cls-2" x="138.97" y="109.5" width="125.04" height="61.84" rx="2.82" ry="2.82"/>
        <rect class="cls-2" x="14.39" y="109.76" width="108.27" height="61.89" rx="2.82" ry="2.82"/>
        <rect class="cls-2" x="283.62" y="109.48" width="108.87" height="62.15" rx="2.83" ry="2.83"/>
        <path class="cls-2" d="M191.11,187.84H141.33a1.49,1.49,0,0,0-1.66,1.42v15.46c15-5.19,29.44-10.13,43.56-14.88A55,55,0,0,1,191.11,187.84Z"/>
        <path class="cls-2" d="M265.18,203.62V189.26a1.4,1.4,0,0,0-1.18-1.42H215a71.49,71.49,0,0,1,10.76,2.61Q245.46,196.93,265.18,203.62Z"/>
        <path class="cls-2" d="M123.14,190.9a2.82,2.82,0,0,0-2.82-2.82H17.69a2.82,2.82,0,0,0-2.82,2.82v56.24a2.8,2.8,0,0,0,.72,1.87c39.51-14.44,74.83-27.09,107.55-38.54Z"/>
        <path class="cls-2" d="M393.18,247.66c0-.09,0-.17,0-.26V190.92a2.83,2.83,0,0,0-2.83-2.83H287.17a2.83,2.83,0,0,0-2.83,2.83v19.21c21.14,7.22,42.17,14.49,62.82,21.64C362.25,237,377.76,242.36,393.18,247.66Z"/>
        <path class="cls-1" d="M397.29,268.1q-25.93-8.88-51.83-17.87-30.56-10.57-61.13-21.08-9.58-3.28-19.16-6.53-22.47-7.63-45-15.07a56.69,56.69,0,0,0-17.37-2.72A43.88,43.88,0,0,0,189,206.89q-24.69,8.32-49.3,16.88-8.27,2.88-16.54,5.77Q94.39,239.62,65.74,250q-28,10.09-56,20.33C5.21,272-.06,279.89,0,284.84c.71,57.4,53,114.72,109.39,121.32a20.77,20.77,0,0,1,10.47,4.07c23.3,19.52,51,25.48,81,27.31,31.65-1.47,62.17-7.84,87-30.91a22.53,22.53,0,0,1,11.47-5.13c22.6-3.36,41.24-14.3,58.05-29.07,25.83-22.7,41-51.15,49-84.55C409.1,276.54,407.73,271.67,397.29,268.1Z"/>
      </g>
    </g>
  </g>
</svg>
