<?xml version="1.0" encoding="UTF-8"?>
<svg width="120px" height="120px" viewBox="0 0 120 120" version="1.1" xmlns="http://www.w3.org/2000/svg" xmlns:xlink="http://www.w3.org/1999/xlink">
    <!-- Generator: Sketch 41 (35326) - http://www.bohemiancoding.com/sketch -->
    <title>adv-icon/6</title>
    <desc>Created with Sketch.</desc>
    <defs></defs>
    <g id="Symbols" stroke="none" stroke-width="1" fill="none" fill-rule="evenodd">
        <g id="adv-icon/6">
            <g id="Page-1" transform="translate(23.000000, 22.000000)">
                <path d="M45.7412,38.0381 L59.4562,51.7541 C60.9712,53.2701 60.9702,55.7251 59.4562,57.2401 C57.9412,58.7551 55.4852,58.7551 53.9702,57.2401 L57.6282,60.8961 C59.1432,62.4121 59.1432,64.8701 57.6282,66.3821 C56.1122,67.8981 53.6552,67.8981 52.1412,66.3841 L50.3122,64.5541 C51.8272,66.0691 51.8252,68.5271 50.3122,70.0411 C48.7982,71.5561 46.3422,71.5561 44.8262,70.0411 L42.9962,68.2121 C44.5122,69.7271 44.5122,72.1841 42.9962,73.6991 C41.4832,75.2121 39.0272,75.2161 37.5112,73.6991 L15.5182,51.7241 C9.0502,45.2581 11.6372,36.2071 7.7592,32.3271" id="Stroke-1" stroke="#586D81" stroke-width="3" stroke-linecap="round" stroke-linejoin="round"></path>
                <path d="M40.2549,43.5244 L53.9699,57.2404" id="Stroke-3" stroke="#586D81" stroke-width="3" stroke-linecap="round" stroke-linejoin="round"></path>
                <path d="M35.6826,49.9268 L50.3126,64.5538" id="Stroke-5" stroke="#586D81" stroke-width="3" stroke-linecap="round" stroke-linejoin="round"></path>
                <path d="M31.1104,56.3262 L42.9964,68.2122" id="Stroke-7" stroke="#586D81" stroke-width="3" stroke-linecap="round" stroke-linejoin="round"></path>
                <path d="M60.3701,45.3526 L62.1991,43.5246 C65.8551,39.8666 64.8761,30.8126 68.5351,27.1566" id="Stroke-9" stroke="#586D81" stroke-width="3" stroke-linecap="round" stroke-linejoin="round"></path>
                <path d="M51.2266,10.6075 L47.5696,14.2645 C43.9116,17.9215 40.2546,14.2645 36.5966,17.9215 L21.0536,33.4655 C20.5476,33.9715 20.5476,34.7905 21.0536,35.2955 L21.9676,36.2095 C23.9876,38.2305 27.2616,38.2305 29.2816,36.2095 L36.5966,28.8945 C41.6476,33.9435 49.8326,33.9455 54.8956,28.8805" id="Stroke-11" stroke="#586D81" stroke-width="3" stroke-linecap="round" stroke-linejoin="round"></path>
                <path d="M27.4541,19.753 L23.7971,16.093" id="Stroke-13" stroke="#586D81" stroke-width="3" stroke-linecap="round" stroke-linejoin="round"></path>
                <polyline id="Stroke-15" stroke="#586D81" stroke-width="3" stroke-linecap="round" stroke-linejoin="round" points="0 32.3272 21.982 10.3442 14.224 2.5862"></polyline>
                <polyline id="Stroke-17" stroke="#72234D" stroke-width="3" stroke-linecap="round" stroke-linejoin="round" points="75 27.1563 53.019 5.1723 58.189 0.0003"></polyline>
                <path d="M9.166,52.668 C8.404,53.773 8.566,55.725 10.081,57.24 C11.596,58.755 13.471,58.839 14.652,58.153 L13.737,59.067 C12.223,60.584 12.223,63.04 13.737,64.554 C15.253,66.069 17.709,66.069 19.224,64.554 L20.139,63.64 C18.621,65.154 18.621,67.611 20.139,69.128 C21.653,70.643 24.109,70.643 25.625,69.128 C24.91,70.241 25.024,72.184 26.539,73.699 C28.055,75.216 29.91,75.243 31.11,74.614" id="Stroke-19" stroke="#586D81" stroke-width="3" stroke-linecap="round" stroke-linejoin="round"></path>
                <path d="M69,6 C69,4.34321373 67.6604215,3 66.0023419,3 C64.3442623,3 63,4.34321373 63,6 C63,7.66146646 64.3442623,9 66.0023419,9 C67.6604215,9 69,7.66146646 69,6 Z" id="Stroke-23" fill="#72234D"></path>
                <path d="M11.7211336,11 C11.7211336,9.34321373 10.3815551,8 8.72347551,8 C7.06539588,8 5.72113359,9.34321373 5.72113359,11 C5.72113359,12.6614665 7.06539588,14 8.72347551,14 C10.3815551,14 11.7211336,12.6614665 11.7211336,11 Z" id="Stroke-23" fill="#586D81"></path>
            </g>
        </g>
    </g>
</svg>