<?xml version="1.0" encoding="UTF-8"?>
<svg width="120px" height="120px" viewBox="0 0 120 120" version="1.1" xmlns="http://www.w3.org/2000/svg" xmlns:xlink="http://www.w3.org/1999/xlink">
    <!-- Generator: Sketch 41 (35326) - http://www.bohemiancoding.com/sketch -->
    <title>adv-icon/9</title>
    <desc>Created with Sketch.</desc>
    <defs></defs>
    <g id="Symbols" stroke="none" stroke-width="1" fill="none" fill-rule="evenodd" stroke-linecap="round" stroke-linejoin="round">
        <g id="adv-icon/9" stroke-width="3">
            <g id="Page-1" transform="translate(25.000000, 20.000000)">
                <polyline id="Stroke-1" stroke="#586D81" points="41.667 80.5478 5.56 80.5478 0 74.9888 0 5.5578 5.56 -0.0002 49.998 -0.0002 63.897 13.8828"></polyline>
                <path d="M49.998,6.9394 L49.998,13.8824 C49.998,16.9594 52.481,19.4424 55.558,19.4424 L69.443,19.4424 L69.443,47.2144" id="Stroke-3" stroke="#586D81"></path>
                <path d="M44.4404,24 L30.5624,24" id="Stroke-5" stroke="#586D81"></path>
                <path d="M38.8945,33 L30.5625,33" id="Stroke-7" stroke="#586D81"></path>
                <path d="M55.5576,33 L44.4406,33" id="Stroke-9" stroke="#586D81"></path>
                <path d="M33.3369,41 L30.5629,41" id="Stroke-11" stroke="#586D81"></path>
                <path d="M49.998,58 L47.224,58" id="Stroke-13" stroke="#586D81"></path>
                <path d="M52.7744,41 L38.8944,41" id="Stroke-15" stroke="#586D81"></path>
                <path d="M41.667,49 L30.562,49" id="Stroke-17" stroke="#586D81"></path>
                <path d="M41.667,58 L30.562,58" id="Stroke-19" stroke="#586D81"></path>
                <path d="M55.5576,49 L47.2236,49" id="Stroke-21" stroke="#586D81"></path>
                <path d="M41.667,66 L30.562,66" id="Stroke-23" stroke="#586D81"></path>
                <path d="M47.2236,80.5478 L55.5576,80.5478 L73.7516,62.3548 C75.4056,60.7078 75.4266,58.4758 73.7516,56.8008 L70.9806,54.0268 C69.2936,52.3428 67.0666,52.3758 65.4206,54.0268 L47.2236,72.2148 L47.2236,80.5478 Z" id="Stroke-25" stroke="#586D81"></path>
                <path d="M56.9482,79.1562 L48.6052,70.8222" id="Stroke-27" stroke="#586D81"></path>
                <path d="M62.6474,56.8008 L70.9804,65.1288" id="Stroke-29" stroke="#586D81"></path>
                <path d="M66.8017,60.9619 L52.7747,74.9889" id="Stroke-31" stroke="#586D81"></path>
                <polygon id="Stroke-33" stroke="#72234D" points="13.892 33.3338 22.227 33.3338 22.227 24.9978 13.892 24.9978"></polygon>
                <polygon id="Stroke-35" stroke="#72234D" points="13.892 66.6648 22.227 66.6648 22.227 58.3308 13.892 58.3308"></polygon>
                <polyline id="Stroke-36" stroke="#72234D" points="13.8916 47.2148 16.6646 49.9988 22.2266 41.6668"></polyline>
            </g>
        </g>
    </g>
</svg>