<?xml version="1.0" encoding="UTF-8"?>
<svg width="120px" height="120px" viewBox="0 0 120 120" version="1.1" xmlns="http://www.w3.org/2000/svg" xmlns:xlink="http://www.w3.org/1999/xlink">
    <!-- Generator: Sketch 41 (35326) - http://www.bohemiancoding.com/sketch -->
    <title>adv-icon/3</title>
    <desc>Created with Sketch.</desc>
    <defs></defs>
    <g id="Symbols" stroke="none" stroke-width="1" fill="none" fill-rule="evenodd">
        <g id="adv-icon/3">
            <g id="Page-1" transform="translate(23.000000, 23.000000)" stroke="#586D81" stroke-width="3" stroke-linecap="round" stroke-linejoin="round">
                <path d="M37,10.3428 L37,34.9148" id="Stroke-1"></path>
                <path d="M51.6143,37 L40.0833,37" id="Stroke-2"></path>
                <path d="M34.9151,37 L32.3301,37" id="Stroke-3"></path>
                <g id="Group-32">
                    <path d="M40.083,37.5 C40.083,36.068 38.93,34.915 37.5,34.915 C36.068,34.915 34.915,36.068 34.915,37.5 C34.915,38.925 36.068,40.083 37.5,40.083 C38.93,40.083 40.083,38.925 40.083,37.5 Z" id="Stroke-4"></path>
                    <path d="M37,42.6749 L37,40.0829" id="Stroke-6"></path>
                    <path d="M61.1934,23.9327 L60.0714,24.5797" id="Stroke-8"></path>
                    <path d="M51.4121,13.9131 L50.7641,15.0321" id="Stroke-10"></path>
                    <path d="M23.9336,13.8047 L24.5796,14.9257" id="Stroke-12"></path>
                    <path d="M13.9121,23.5879 L15.0321,24.2359" id="Stroke-14"></path>
                    <path d="M64.6543,37 L60.7753,37" id="Stroke-16"></path>
                    <path d="M10.3447,37 L14.2237,37.003" id="Stroke-18"></path>
                    <path d="M59.043,75 L5.175,75 L0,69.823 L0,5.175 L5.175,0 L69.83,0 L75,5.175 L75,69.823 C75,72.68 72.68,75 69.83,75" id="Stroke-20"></path>
                </g>
            </g>
            <text id="00:30" stroke="#72234D" stroke-width="2" font-family="FiraSans-Medium, Fira Sans" font-size="18" font-weight="400" letter-spacing="2" fill="#72234D">
                <tspan x="34.279" y="87">00:30</tspan>
            </text>
        </g>
    </g>
</svg>