<svg id="Group_1712" data-name="Group 1712" xmlns="http://www.w3.org/2000/svg" viewBox="0 0 46.328 40.537">
  <defs>
    <style>
      .cls-1 {
        fill: #d0c4ef;
      }
    </style>
  </defs>
  <path id="Path_442" data-name="Path 442" class="cls-1" d="M42.467,0H3.861A3.853,3.853,0,0,0,0,3.764V9.652a.912.912,0,0,0,.965.965.912.912,0,0,0,.965-.965V3.764A1.919,1.919,0,0,1,3.861,1.93H42.467A1.919,1.919,0,0,1,44.4,3.764V29.052a1.856,1.856,0,0,1-1.93,1.834H19.3a.965.965,0,0,0,0,1.93h2.9v5.791H18.338a.965.965,0,1,0,0,1.93H27.99a.965.965,0,1,0,0-1.93H24.129V32.816H42.467a3.853,3.853,0,0,0,3.861-3.764V3.764A3.853,3.853,0,0,0,42.467,0Z" transform="translate(0)"/>
  <path id="Path_443" data-name="Path 443" class="cls-1" d="M22.488,26.006a1.049,1.049,0,0,0,.1-.483.73.73,0,0,1,.1-.386l.1-.1a3.526,3.526,0,0,0,.676-1.351,5.105,5.105,0,0,0,0-1.737v-.193a2.961,2.961,0,0,0,.579-1.351,3.3,3.3,0,0,0-.386-2.413,3.785,3.785,0,0,0,.483-1.255l2.123,1.544a3.858,3.858,0,1,0,7.432,1.448,4.07,4.07,0,0,0-.869-2.413l3.378-4.633a3.526,3.526,0,0,0,1.448.29,3.861,3.861,0,1,0-3.861-3.861,4.07,4.07,0,0,0,.869,2.413l-3.378,4.633a3.526,3.526,0,0,0-1.448-.29,3.707,3.707,0,0,0-2.413.869l-4.054-3.089A4.774,4.774,0,0,0,19.689,12.2a11.653,11.653,0,0,0-2.413.29c-.29.1-.579.1-.869.193a29.729,29.729,0,0,0,.965-3.668c.772-3.668-1.544-4.729-2.027-4.826A3.429,3.429,0,0,0,14.381,4,3.652,3.652,0,0,0,11,6.9a27.313,27.313,0,0,1-1.834,4.054C8.4,12.011,6.66,14.327,5.308,15a11.066,11.066,0,0,1-3.282.579H.676v.1A.655.655,0,0,0,0,16.354v11a.876.876,0,0,0,.29.676h0a.337.337,0,0,0,.193.1.723.723,0,0,0,.483.1h.772c2.7-.29,4.922-.483,6.949-.579l-3.571,5.4c-.386,0-.772-.1-1.255-.1a3.861,3.861,0,1,0,3.861,3.861,4.334,4.334,0,0,0-.965-2.606L11,27.84c.579.1,1.158.29,1.737.386a16.369,16.369,0,0,0,2.7.579,5.936,5.936,0,0,0,1.351.1C19.979,29,22.2,27.84,22.488,26.006ZM37.449,6.992a1.93,1.93,0,1,1-1.93,1.93A1.936,1.936,0,0,1,37.449,6.992ZM29.727,17.609a1.93,1.93,0,1,1-1.93,1.93A1.936,1.936,0,0,1,29.727,17.609ZM3.861,38.746a1.93,1.93,0,1,1,1.93-1.93A1.936,1.936,0,0,1,3.861,38.746ZM1.93,17.319a11.98,11.98,0,0,0,2.606-.29l1.351,8.976c-1.158.1-2.509.193-3.957.386Zm19.593,4.826a1.636,1.636,0,0,1,0,.965c0,.193-.193.386-.386.579a1.556,1.556,0,0,0-.386.676,3.325,3.325,0,0,0-.1.869v.193c-.1.869-1.737,1.448-3.861,1.448a3.619,3.619,0,0,1-1.062-.1c-.965-.193-1.737-.386-2.509-.579a14.67,14.67,0,0,0-3.764-.579,8.3,8.3,0,0,0-1.544.1L6.467,16.161C8.4,15,10.231,12.3,10.713,11.625a27.66,27.66,0,0,0,2.123-4.536c.29-1.062,1.158-1.737,1.93-1.448.386.1,1.158.579.772,2.606a34.285,34.285,0,0,1-1.351,4.729l-.869,1.641h1.544a15.338,15.338,0,0,0,2.7-.386,7.933,7.933,0,0,1,2.027-.193c2.413,0,2.509,1.255,2.606,1.737a2.414,2.414,0,0,1-.386,1.255.732.732,0,0,0-.193.386l-.1.29v.29a1.372,1.372,0,0,0,.193.579,1.678,1.678,0,0,1,.193,1.448.688.688,0,0,1-.29.579,1.438,1.438,0,0,0-.29.772A1.818,1.818,0,0,0,21.523,22.145Z" transform="translate(0 -0.139)"/>
</svg>
