<svg xmlns="http://www.w3.org/2000/svg" viewBox="0 0 40 35">
  <defs>
    <style>
      .cls-1 {
        fill: #f3c6b5;
      }
    </style>
  </defs>
  <g id="Group_803" data-name="Group 803" transform="translate(-1055 -1366)">
    <path id="Path_241" data-name="Path 241" class="cls-1" d="M42.833,14H34.5A2.455,2.455,0,0,0,32,16.5V34.833a2.455,2.455,0,0,0,2.5,2.5h8.333a2.455,2.455,0,0,0,2.5-2.5V16.5A2.455,2.455,0,0,0,42.833,14Zm.833,20.833a.787.787,0,0,1-.833.833H34.5a.787.787,0,0,1-.833-.833V16.5a.787.787,0,0,1,.833-.833h8.333a.787.787,0,0,1,.833.833Z" transform="translate(1049.666 1363.667)"/>
    <path id="Path_242" data-name="Path 242" class="cls-1" d="M36.667,0H3.333A3.327,3.327,0,0,0,0,3.25V25.083a3.327,3.327,0,0,0,3.333,3.25H19.167v5H15.833a.833.833,0,1,0,0,1.667h8.333a.833.833,0,1,0,0-1.667H20.833v-5h2.5a.833.833,0,0,0,0-1.667h-20a1.657,1.657,0,0,1-1.667-1.583V3.25A1.657,1.657,0,0,1,3.333,1.667H36.667A1.657,1.657,0,0,1,38.333,3.25V8.333a.833.833,0,1,0,1.667,0V3.25A3.327,3.327,0,0,0,36.667,0Z" transform="translate(1055 1366)"/>
    <path id="Path_243" data-name="Path 243" class="cls-1" d="M28.85,8.35l-.833-.833A1.367,1.367,0,0,0,26.35,7.35l-.833.5a2.985,2.985,0,0,0-.917-.333L24.35,6.6a1.256,1.256,0,0,0-1.25-1H20.85a1.256,1.256,0,0,0-1.25,1l-.25.917a6.609,6.609,0,0,0-.75.333l-.833-.5a1.261,1.261,0,0,0-1.583.167L14.6,9.1a1.367,1.367,0,0,0-.167,1.667l.5.833a2.985,2.985,0,0,0-.333.917l-1,.25a1.327,1.327,0,0,0-1,1.25v2.25a1.256,1.256,0,0,0,1,1.25l.917.167a4.466,4.466,0,0,0,.417.917l-.5.833a1.261,1.261,0,0,0,.167,1.583L16.183,22.6a1.271,1.271,0,0,0,1.583.167l.833-.5a2.985,2.985,0,0,0,.917.333l.167.917a1.331,1.331,0,0,0,1.25,1.083H22.1a.833.833,0,0,0,0-1.667h-.833l-.167-.75a1.461,1.461,0,0,0-1-1.083,8.646,8.646,0,0,1-.833-.333,1.6,1.6,0,0,0-1.5.083l-.667.417L15.933,20.1l.417-.667a1.692,1.692,0,0,0,.083-1.417,5.745,5.745,0,0,1-.333-.833,1.461,1.461,0,0,0-1.083-1l-.833-.25V14.267l.75-.167a1.461,1.461,0,0,0,1.083-1,8.646,8.646,0,0,1,.333-.833,1.61,1.61,0,0,0-.083-1.5l-.333-.667L17.1,8.933l.667.417a1.866,1.866,0,0,0,1.5.083A8.645,8.645,0,0,1,20.1,9.1a1.461,1.461,0,0,0,1-1.083l.167-.833h1.667l.167.75a1.461,1.461,0,0,0,1,1.083,8.646,8.646,0,0,1,.833.333,1.61,1.61,0,0,0,1.5-.083l.667-.333.583.583A.825.825,0,0,0,28.85,8.35Z" transform="translate(1052.898 1365.067)"/>
    <path id="Path_244" data-name="Path 244" class="cls-1" d="M23.333,13a3.333,3.333,0,1,0,3.333,3.333A3.343,3.343,0,0,0,23.333,13Zm0,5A1.667,1.667,0,1,1,25,16.333,1.672,1.672,0,0,1,23.333,18Z" transform="translate(1051.666 1363.833)"/>
  </g>
</svg>
