<svg xmlns="http://www.w3.org/2000/svg" viewBox="0 0 60 48.06">
  <defs>
    <style>
      .cls-1 {
        fill: #fff;
      }
    </style>
  </defs>
  <g id="Group_967" data-name="Group 967" transform="translate(-531 -1625.167)">
    <g id="Group_519" data-name="Group 519" transform="translate(555.983 1655.167)">
      <path id="Path_255" data-name="Path 255" class="cls-1" d="M42.158,45.93h0c-2.609-.7-3.211-6.02-3.211-8.027a.948.948,0,0,0-1-1H29.917a.948.948,0,0,0-1,1c0,2.007-.6,7.324-3.211,8.027h0a1.066,1.066,0,0,0-.8.9.948.948,0,0,0,1,1H41.957a.96.96,0,0,0,.2-1.906ZM30.92,38.907h6.12c.1,1.706.5,4.916,2.007,7.023H29.014C30.418,43.823,30.82,40.612,30.92,38.907Z" transform="translate(-24.9 -29.877)"/>
      <g id="Group_518" data-name="Group 518" transform="translate(1.003)">
        <rect id="Rectangle_508" data-name="Rectangle 508" class="cls-1" width="33.01" height="2.007"/>
      </g>
    </g>
    <g id="Group_521" data-name="Group 521" transform="translate(531 1633.193)">
      <g id="Group_520" data-name="Group 520">
        <path id="Path_256" data-name="Path 256" class="cls-1" d="M19.967,48.033H4.013A4.025,4.025,0,0,1,0,44.02V12.013A4.025,4.025,0,0,1,4.013,8H20.067a4.025,4.025,0,0,1,4.013,4.013V44.02A4.18,4.18,0,0,1,19.967,48.033ZM4.013,10.007a2.013,2.013,0,0,0-2.007,2.007V44.02a2.013,2.013,0,0,0,2.007,2.007H20.067a2.013,2.013,0,0,0,2.007-2.007V12.013a2.013,2.013,0,0,0-2.007-2.007Z" transform="translate(0 -8)"/>
      </g>
      <rect id="Rectangle_509" data-name="Rectangle 509" class="cls-1" width="21.973" height="2.007" transform="translate(1.003 31.003)"/>
    </g>
    <path id="Path_257" data-name="Path 257" class="cls-1" d="M6,31.9a.948.948,0,0,0-1,1v1a.948.948,0,0,0,1,1,.948.948,0,0,0,1-1v-1A1.079,1.079,0,0,0,6,31.9Z" transform="translate(531.017 1625.273)"/>
    <path id="Path_258" data-name="Path 258" class="cls-1" d="M10,28.9a.948.948,0,0,0-1,1v4.013a.948.948,0,0,0,1,1,.948.948,0,0,0,1-1V29.9A1.079,1.079,0,0,0,10,28.9Z" transform="translate(531.03 1625.263)"/>
    <path id="Path_259" data-name="Path 259" class="cls-1" d="M14,19a.948.948,0,0,0-1,1V34.05a1,1,0,0,0,2.007,0V20A1,1,0,0,0,14,19Z" transform="translate(531.043 1625.23)"/>
    <path id="Path_260" data-name="Path 260" class="cls-1" d="M18,28.9a.948.948,0,0,0-1,1v4.013a1,1,0,0,0,2.007,0V29.9A1.079,1.079,0,0,0,18,28.9Z" transform="translate(531.057 1625.263)"/>
    <path id="Path_261" data-name="Path 261" class="cls-1" d="M41.933,6A10.033,10.033,0,1,0,51.967,16.033,10.063,10.063,0,0,0,41.933,6Zm0,17.96a8.027,8.027,0,1,1,8.027-8.027A8.05,8.05,0,0,1,41.933,23.96Z" transform="translate(531.107 1625.187)"/>
    <path id="Path_262" data-name="Path 262" class="cls-1" d="M41.9,11a.948.948,0,0,0-1,1v7.023a1,1,0,1,0,2.007,0V12A1,1,0,0,0,41.9,11Z" transform="translate(531.137 1625.203)"/>
    <path id="Path_263" data-name="Path 263" class="cls-1" d="M45.9,13a.948.948,0,0,0-1,1V19.02a1,1,0,0,0,2.007,0V14A1,1,0,0,0,45.9,13Z" transform="translate(531.15 1625.21)"/>
    <path id="Path_264" data-name="Path 264" class="cls-1" d="M37.9,17a.948.948,0,0,0-1,1v1a1,1,0,0,0,2.007,0V18A.948.948,0,0,0,37.9,17Z" transform="translate(531.123 1625.224)"/>
    <g id="Group_523" data-name="Group 523" transform="translate(539.027 1625.167)">
      <path id="Path_265" data-name="Path 265" class="cls-1" d="M56.06,0H12.013A4.025,4.025,0,0,0,8,4.013V6.02h2.007V4.013a2.013,2.013,0,0,1,2.007-2.007H56.06a2.013,2.013,0,0,1,2.007,2.007v31a2.013,2.013,0,0,1-2.007,2.007H25.96V39.03h30a4.025,4.025,0,0,0,4.013-4.013v-31A3.94,3.94,0,0,0,56.06,0Z" transform="translate(-8)"/>
    </g>
  </g>
</svg>
