<svg xmlns="http://www.w3.org/2000/svg" viewBox="0 0 40 40">
  <defs>
    <style>
      .cls-1 {
        fill: #9ad1d4;
      }
    </style>
  </defs>
  <g id="Group_804" data-name="Group 804" transform="translate(-655.332 -1361)">
    <path id="Path_237" data-name="Path 237" class="cls-1" d="M9.333,28H8.5A2.455,2.455,0,0,0,6,30.5v8.333a.787.787,0,0,0,.833.833.787.787,0,0,0,.833-.833V30.5a.787.787,0,0,1,.833-.833h.833a.787.787,0,0,1,.833.833v8.333a.833.833,0,0,0,1.667,0V30.5A2.455,2.455,0,0,0,9.333,28Z" transform="translate(654.332 1356.333)"/>
    <path id="Path_238" data-name="Path 238" class="cls-1" d="M19.333,16H18.5A2.455,2.455,0,0,0,16,18.5V36.833a.833.833,0,0,0,1.667,0V18.5a.787.787,0,0,1,.833-.833h.833a.787.787,0,0,1,.833.833V36.833a.833.833,0,0,0,1.667,0V18.5A2.455,2.455,0,0,0,19.333,16Z" transform="translate(652.666 1358.333)"/>
    <path id="Path_239" data-name="Path 239" class="cls-1" d="M29.333,33H28.5A2.455,2.455,0,0,0,26,35.5v4.167a.833.833,0,0,0,1.667,0V35.5a.787.787,0,0,1,.833-.833h.833a.787.787,0,0,1,.833.833v4.167a.833.833,0,0,0,1.667,0V35.5A2.455,2.455,0,0,0,29.333,33Z" transform="translate(651 1355.5)"/>
    <path id="Path_240" data-name="Path 240" class="cls-1" d="M36.667,6.667H35V5.833a5.833,5.833,0,1,0-11.667,0v.833h-20A3.343,3.343,0,0,0,0,10V36.667A3.343,3.343,0,0,0,3.333,40h27.5a3.075,3.075,0,0,0,2-.833l6.333-6.333a3.075,3.075,0,0,0,.833-2V10A3.343,3.343,0,0,0,36.667,6.667ZM25,5.833a4.167,4.167,0,1,1,8.333,0v.833H25Zm7.5,31.333v-3A1.672,1.672,0,0,1,34.167,32.5h3Zm5.833-6.333H34.167a3.343,3.343,0,0,0-3.333,3.333v4.167H3.333a1.672,1.672,0,0,1-1.667-1.667V10A1.672,1.672,0,0,1,3.333,8.333h30v12.5a2.5,2.5,0,1,1-5,0V12.5a.833.833,0,0,0-1.667,0v8.333a4.167,4.167,0,0,0,8.333,0V8.333h1.667A1.672,1.672,0,0,1,38.333,10Z" transform="translate(655.332 1361)"/>
  </g>
</svg>
