<svg xmlns="http://www.w3.org/2000/svg" viewBox="0 0 38.75 35.5">
  <defs>
    <style>
      .cls-1 {
        fill: #a9d5ee;
      }
    </style>
  </defs>
  <g id="Group_805" data-name="Group 805" transform="translate(-255 -1361.167)">
    <g id="Group_477" data-name="Group 477" transform="translate(255 1361.167)">
      <path id="Path_235" data-name="Path 235" class="cls-1" d="M24.231,8.7a.7.7,0,0,0-.667-.5h-3.75a.634.634,0,0,0-.667.5l-5,14.333a4.179,4.179,0,0,0-.083,2.667l1.75,5.833h-.167a.747.747,0,0,0-.75.75v3.833a.747.747,0,0,0,.75.75H27.731a.747.747,0,0,0,.75-.75V32.283a.747.747,0,0,0-.75-.75h-.167l1.75-5.833a4.16,4.16,0,0,0-.083-2.667Zm2.75,24.25v2.333H16.4V32.95Zm-9.667-1.583-1.833-6.083a3.125,3.125,0,0,1,0-1.75L20.314,9.7H20.9v9.833a2.676,2.676,0,0,0-1.917,2.5,2.667,2.667,0,0,0,5.333,0,2.6,2.6,0,0,0-1.917-2.5V9.7h.583l4.833,13.833a2.528,2.528,0,0,1,0,1.75l-1.75,6.083Zm4.333-10.5a1.167,1.167,0,1,1-1.167,1.167A1.192,1.192,0,0,1,21.648,20.867Z" transform="translate(-2.314 -1.367)"/>
      <path id="Path_236" data-name="Path 236" class="cls-1" d="M35.417,4.083H38a.747.747,0,0,0,.75-.75V.75A.747.747,0,0,0,38,0H35.417a.747.747,0,0,0-.75.75v.583H21.417V.75a.747.747,0,0,0-.75-.75H18.083a.747.747,0,0,0-.75.75v.583H4.083V.75A.747.747,0,0,0,3.333,0H.75A.747.747,0,0,0,0,.75V3.333a.747.747,0,0,0,.75.75H3.333a.747.747,0,0,0,.75-.75v-.5h8.083a18.8,18.8,0,0,0-5.583,3.75,18.173,18.173,0,0,0-5.167,10.75H.75a.747.747,0,0,0-.75.75v2.583a.747.747,0,0,0,.75.75H3.333a.747.747,0,0,0,.75-.75V18.083a.747.747,0,0,0-.75-.75H2.917A16.539,16.539,0,0,1,17.25,3v.333a.747.747,0,0,0,.75.75h2.583a.747.747,0,0,0,.75-.75V2.917A16.539,16.539,0,0,1,35.667,17.25H35.25a.747.747,0,0,0-.75.75v2.583a.747.747,0,0,0,.75.75h2.583a.747.747,0,0,0,.75-.75V18a.747.747,0,0,0-.75-.75h-.667A18.407,18.407,0,0,0,32,6.5a18.059,18.059,0,0,0-5.583-3.833H34.5v.667A1.061,1.061,0,0,0,35.417,4.083Zm.667-1.5V1.5h1.083V2.583Zm-17.25-.5h0V1.5h1.083V2.583H18.833Zm-16.25,0h0v.583H1.5V1.5H2.583Zm0,16.75v1.083H1.5V18.833Zm34.667,0v1.083H36.167V18.833Z"/>
    </g>
  </g>
</svg>
