<?xml version="1.0" encoding="utf-8"?>
<!-- Generator: Adobe Illustrator 21.1.0, SVG Export Plug-In . SVG Version: 6.00 Build 0)  -->
<svg version="1.1" id="Layer_1" xmlns="http://www.w3.org/2000/svg" xmlns:xlink="http://www.w3.org/1999/xlink" x="0px" y="0px"
	 viewBox="0 0 77 69" style="enable-background:new 0 0 77 69;" xml:space="preserve">
<style type="text/css">
	.st0{fill:#FFFFFF;}
	.st1{fill:none;stroke:#F27280;stroke-width:2;stroke-linecap:round;stroke-miterlimit:10;}
</style>
<g>
	<g>
		<path class="st0" d="M43.9,0c0.9,0.1,1.8,0.3,2.7,0.4c6.2,1.3,11.2,6.5,12.1,12.7c0,0.2,0,0.4,0,0.5c0.1,0.8,0.2,1.5,1,2
			c1,0.6,1.1,1.7,1.1,2.7c0,2.6-0.4,5-1.7,7.3c-0.3,0.6-0.9,1-1.4,1.6c-0.2,0.2-0.4,0.5-0.5,0.8c-0.8,2.5-1.7,5-3,7.3
			c-1.1,1.9-2.5,3.6-4.4,4.8c-0.6,0.4-0.8,1.4-0.3,2.1c0.4,0.6,0.8,1.2,1.4,1.7c2.3,2.1,5.1,3.3,8.1,4.2c3.3,0.9,6.5,2,9.5,3.8
			c4.3,2.6,7.1,6.3,8.1,11.3c0.3,1.5,0.4,3,0.5,4.4c0.1,0.8-0.4,1.2-1.4,1.2c-3.8,0-7.6,0-11.4,0c-17.7,0-35.4,0-53,0
			c-1.5,0-1.8-0.4-1.8-1.9c0.4-8.1,4.6-13.6,11.9-16.7c2.9-1.2,6-2,8.9-3.1c2.3-0.8,4.3-2,6-3.7c0.4-0.4,0.7-0.8,0.9-1.3
			c0.5-1.1,0.3-1.5-0.6-2.2c-2-1.5-3.5-3.4-4.7-5.6c-1-2-1.8-4-2.7-6c-0.2-0.3-0.5-0.6-0.7-0.9c-0.5-0.6-1-1-1.3-1.7
			c-1.2-2.5-1.7-5.2-1.3-8c0.1-0.9,0.5-1.6,1.2-2.2c0.3-0.2,0.5-0.6,0.5-1C27.8,8,33.2,2,39.9,0.5c1-0.2,2-0.3,3-0.5
			C43.2,0,43.6,0,43.9,0z M75,66.9c-0.1-0.5-0.1-0.9-0.1-1.3c-0.5-4.7-2.7-8.4-6.5-11.1c-2.9-2-6.2-3.1-9.5-4.2
			c-1.8-0.6-3.7-1.2-5.4-2.1c-2.1-1-4-2.4-5.4-4.4c-1.5-2.1-1-4.2,1.1-5.6c0.2-0.2,0.5-0.3,0.7-0.5c1.7-1.5,2.9-3.3,3.7-5.4
			c0.8-1.9,1.4-3.8,2.1-5.7c0.2-0.4,0.5-0.9,0.9-1c0.8-0.2,1.2-0.8,1.4-1.5c0.7-1.8,1-3.7,1-5.7c0-0.8-0.2-1.3-1-1.6
			c-0.8-0.3-1.1-0.9-1.1-1.8c0-3.8-1.4-7-4.2-9.4c-4.3-3.7-9.1-4.4-14.4-2.5C33.1,5,29.6,10,29.6,15.3c0,0.8-0.2,1.4-1,1.7
			c-0.6,0.3-0.8,0.7-0.8,1.4c0,0.9-0.1,1.9,0.1,2.8c0.2,1.2,0.5,2.4,0.8,3.6c0.1,0.4,0.5,0.9,0.9,1c0.8,0.2,1.1,0.7,1.4,1.4
			c0.6,1.4,1.1,2.9,1.7,4.3c1.3,2.7,2.7,5.3,5.3,7.1c1.6,1.1,2,2.8,1.1,4.5c-0.5,0.9-1.2,1.8-2,2.5c-2.1,1.8-4.4,3.2-7.1,3.9
			c-3.2,0.9-6.3,1.9-9.2,3.4c-4.3,2.3-7.5,5.6-8.7,10.5c-0.3,1.1-0.4,2.2-0.6,3.4C32.7,66.9,53.8,66.9,75,66.9z"/>
	</g>
	<line class="st1" x1="0" y1="66.1" x2="75.2" y2="7.1"/>
</g>
</svg>
