<?xml version="1.0" encoding="utf-8"?>
<!-- Generator: Adobe Illustrator 21.1.0, SVG Export Plug-In . SVG Version: 6.00 Build 0)  -->
<svg version="1.1" id="Layer_1" xmlns="http://www.w3.org/2000/svg" xmlns:xlink="http://www.w3.org/1999/xlink" x="0px" y="0px"
	 viewBox="0 0 76 65" style="enable-background:new 0 0 76 65;" xml:space="preserve">
<style type="text/css">
	.st0{fill:#FFFFFF;}
	.st1{fill:none;stroke:#F27280;stroke-width:2;stroke-linecap:round;stroke-miterlimit:10;}
</style>
<g>
	<g>
		<path class="st0" d="M47.7,41.1c-1.1,1.2-2.1,2.3-3,3.4c-1.9,2.3-3.7,4.7-4.8,7.5c-0.7,1.8-1,3.6-0.3,5.5c0.5,1.5,0.6,3.2,0.2,4.8
			c-0.7,2.7-2.8,3.9-5.5,3c-2.9-0.9-4.6-3.1-5.7-5.8c-1.2-3-1.8-6.1-2.1-9.3c-0.2-1.8-0.3-3.5-0.4-5.3c-0.1-1.3-0.9-2.1-2.1-2.5
			c-1-0.3-2.1-0.6-3.2-0.6c-3.2-0.1-6.5,0-9.7,0c-1.3,0-2.5-0.3-3.7-0.8c-3-1.5-4.1-4.4-3.1-7.9c0.3-0.8,0.6-1.6,1-2.4
			c0.2-0.4,0.2-0.7,0-1.1c-1.9-3.2-1.9-6.4,0-9.6c0.5-0.9,0.6-1.6,0.5-2.6c-0.2-1.7-0.2-3.3,0.5-4.9c0.3-0.7,0.8-1.4,1.3-2
			c0.5-0.5,0.6-1,0.7-1.6c0.2-1.5,0.6-3,1.5-4.3C10.6,3.5,11.7,3,13,3c8,0,16.1,0,24.1,0c1.6,0,2.7,0.8,3.8,1.8
			c1,0.9,1.9,1.8,2.8,2.7c0.9,0.8,1.8,1.5,3,1.7c0.8,0.1,0.9,0.1,1.1-0.7c0.5-2.4,1.6-3.3,4.1-3.3c5.4,0,10.8,0,16.1,0
			c2.6,0,4,1.4,4.1,4c0.1,8.1,0.1,16.2,0.1,24.3c0,2.2,0,4.3-0.1,6.5c0,0.6-0.2,1.3-0.4,1.9C71.1,43.3,70,44,68.6,44
			c-4.3,0-8.6,0-13,0c-1.3,0-2.7,0-4,0c-1.7,0-3-0.7-3.6-2.4C47.9,41.4,47.9,41.3,47.7,41.1z M8.4,29.9C7,31.3,6.2,33,6,34.9
			c-0.3,2.1,0.7,3.8,2.7,4.4c0.7,0.2,1.4,0.3,2.1,0.3c3.1,0,6.3,0,9.4,0c1.6,0,3.1,0.2,4.6,0.8c2.1,0.8,3.4,2.2,3.5,4.6
			c0.1,3.2,0.5,6.4,1.2,9.5c0.5,2.4,1.2,4.7,2.7,6.6c0.8,1,1.7,1.8,2.9,2.2c1.7,0.5,3.1-0.4,3.3-2.2c0.1-0.6,0-1.2-0.1-1.8
			c-0.2-1.1-0.6-2.2-0.7-3.3c-0.3-2.6,0.7-4.9,2-7.1c2-3.7,4.8-6.9,7.7-9.9c0.4-0.4,0.6-0.8,0.6-1.4c0-4.7,0-9.4,0-14.1
			c0-3.9,0-7.7,0-11.6c0-0.4,0.1-0.8-0.5-0.8c-1.6,0-3-0.7-4.1-1.8C42,8.2,40.8,7,39.6,5.8c-0.7-0.7-1.5-1-2.5-1
			c-7.8,0-15.6,0-23.4,0C11.8,5,11,5.5,10.6,7c-0.3,1.1-0.3,2.3-0.5,3.5c0,0.2-0.1,0.6-0.3,0.7C8.6,11.9,8,13,7.7,14.4
			c-0.3,1.5,0,3,0.3,4.5c0.1,0.6,0.2,1-0.5,1.2c-0.2,0.1-0.3,0.3-0.4,0.4c-1.7,2.2-1.7,6.2,0.2,8.4C7.6,29.2,8,29.5,8.4,29.9z
			 M49.6,24.5L49.6,24.5c0,1.4,0,2.9,0,4.3c0,3.6,0,7.2,0,10.8c0,1.7,0.7,2.4,2.4,2.4c5.2,0,10.5,0,15.7,0c1.6,0,2.2-0.6,2.3-2.3
			c0-0.4,0-0.8,0-1.2c0-3.2,0-6.3,0-9.5c0-6.3,0-12.7,0-19c0-2.4-0.5-2.9-2.9-2.9c-4.9,0-9.9,0-14.8,0c-2.3,0-2.8,0.5-2.8,2.9
			C49.6,14.8,49.6,19.6,49.6,24.5z"/>
	</g>
	<line class="st1" x1="0" y1="59.6" x2="76" y2="-0.5"/>
</g>
</svg>
