<?xml version="1.0" encoding="utf-8"?>
<!-- Generator: Adobe Illustrator 21.1.0, SVG Export Plug-In . SVG Version: 6.00 Build 0)  -->
<svg version="1.1" id="Layer_1" xmlns="http://www.w3.org/2000/svg" xmlns:xlink="http://www.w3.org/1999/xlink" x="0px" y="0px"
	 viewBox="0 0 38 23" style="enable-background:new 0 0 38 23;" xml:space="preserve">
<style type="text/css">
	.st0{fill:#BD0336;}
	.st1{fill:#1D267C;}
	.st2{fill:#1D267D;}
	.st3{fill:#BD0437;}
	.st4{fill:#BD0537;}
	.st5{fill:#1C257C;}
	.st6{fill:#1B237B;}
	.st7{fill:#1B247B;}
	.st8{fill:#1D257C;}
	.st9{fill:none;}
	.st10{fill:#FDFDFD;}
</style>
<g>
	<path class="st0" d="M37.7,9.7c-5.5,0-11,0-16.5,0c-0.1,0-0.2,0-0.4,0V0h-3.5v9.7H0v4.1h17.3V23h3.6v-9.2h0.3c5.5,0,11,0,16.5,0
		c0.1,0,0.2,0,0.3,0V9.7C37.9,9.7,37.8,9.7,37.7,9.7z"/>
	<path class="st1" d="M38,8.3c-2.2,0-4.4,0-6.6,0c-0.8,0-1.5,0-2.4,0c0.1-0.1,0.2-0.2,0.3-0.2c2.8-1.6,5.6-3.3,8.5-4.9
		c0.1-0.1,0.2-0.1,0.3-0.1C38,4.9,38,6.6,38,8.3z"/>
	<path class="st2" d="M38,20.4c-3-1.7-6-3.4-8.9-5.1c0,0,0-0.1,0-0.1c0.1,0,0.2,0,0.3,0c2.7,0,5.5,0,8.2,0c0.1,0,0.3,0,0.4,0
		C38,16.9,38,18.6,38,20.4z"/>
	<path class="st3" d="M38,1c-4.1,2.4-8.2,4.7-12.3,7.1c-0.2,0.1-0.5,0.2-0.7,0.2c-0.7,0-1.4,0-2.2,0C23,8.2,23.1,8.1,23.2,8
		c4.4-2.6,8.9-5.1,13.3-7.7C37,0.1,37.5-0.1,38,0C38,0.4,38,0.7,38,1z"/>
	<path class="st4" d="M38,22.8c-0.1,0-0.2-0.1-0.2-0.1c-4.2-2.4-8.4-4.9-12.6-7.3c-0.1,0-0.1-0.1-0.3-0.2c0.9,0,1.8,0,2.6,0
		c0.1,0,0.2,0.1,0.3,0.2c3.3,1.9,6.6,3.8,9.9,5.7c0.1,0.1,0.2,0.1,0.4,0.2C38,21.7,38,22.2,38,22.8z"/>
	<path class="st5" d="M3,0c4.4,0,8.7,0,13.1,0c0,2.6,0,5.1,0,7.7C11.7,5.2,7.3,2.6,3,0C3,0.1,3,0,3,0z"/>
	<path class="st6" d="M35.2,0.1c-4.4,2.5-8.8,5.1-13.2,7.6c0-2.6,0-5.1,0-7.7C26.4,0,30.8,0,35.2,0.1C35.2,0,35.2,0.1,35.2,0.1z"/>
	<path class="st5" d="M16.1,15.7c0,2.5,0,4.8,0,7.2c-4.1,0-8.2,0-12.4,0c0,0,0,0,0-0.1C7.8,20.5,11.9,18.2,16.1,15.7z"/>
	<path class="st7" d="M34.4,23c-4.1,0-8.2,0-12.4,0c0-2.4,0-4.8,0-7.2C26.2,18.2,30.3,20.5,34.4,23C34.5,22.9,34.5,23,34.4,23z"/>
	<path class="st1" d="M0,15.2v5.3c3.1-1.8,6.1-3.5,9.2-5.3H0z"/>
	<path class="st8" d="M0,2.9v5.4h9.2C6.1,6.5,3.1,4.7,0,2.9z"/>
	<path class="st3" d="M13.5,15.2c-0.2,0-0.4,0.1-0.6,0.1c-4.3,2.5-8.5,4.9-12.8,7.4c0,0-0.1,0-0.1,0.1V23c0.7,0,1.5,0,2.2,0
		c0.1,0,0.2-0.1,0.2-0.1c4.3-2.5,8.7-5,13-7.5c0.1,0,0.1-0.1,0.3-0.2C14.9,15.1,14.2,15.1,13.5,15.2z"/>
	<path class="st3" d="M0,0.3v1.5c0,0,0,0,0.1,0.1C3.7,4,7.3,6.1,10.9,8.2c0.1,0.1,0.2,0.1,0.3,0.1c0.8,0,1.6,0,2.4,0
		c0,0,0-0.1,0-0.1C9.1,5.6,4.6,3,0,0.3z"/>
	<g>
		<path class="st9" d="M16.1,0C11.7,0,7.4,0,3,0c0,0,0,0,0,0.1c4.4,2.5,8.7,5.1,13.1,7.6C16.1,5.1,16.1,2.6,16.1,0z"/>
		<path class="st9" d="M0,2.9v5.4h9.2C6.1,6.5,3.1,4.7,0,2.9z"/>
		<path class="st9" d="M0,0.3v1.5c0,0,0,0,0.1,0.1C3.7,4,7.3,6.1,10.9,8.2c0.1,0.1,0.2,0.1,0.3,0.1c0.8,0,1.6,0,2.4,0
			c0,0,0-0.1,0-0.1C9.1,5.6,4.6,3,0,0.3z"/>
		<path class="st9" d="M35.2,0c-4.4,0-8.8,0-13.2,0c0,2.6,0,5.1,0,7.7C26.5,5.2,30.9,2.6,35.2,0C35.2,0.1,35.2,0,35.2,0z"/>
		<path class="st9" d="M0,15.2v5.3c3.1-1.8,6.1-3.5,9.2-5.3H0z"/>
		<path class="st9" d="M13.5,15.2c-0.2,0-0.4,0.1-0.6,0.1c-4.3,2.5-8.5,4.9-12.8,7.4c0,0-0.1,0-0.1,0.1V23c0.7,0,1.5,0,2.2,0
			c0.1,0,0.2-0.1,0.2-0.1c4.3-2.5,8.7-5,13-7.5c0.1,0,0.1-0.1,0.3-0.2C14.9,15.1,14.2,15.1,13.5,15.2z"/>
		<path class="st9" d="M22.1,23c4.1,0,8.3,0,12.4,0c0,0,0,0,0-0.1c-4.1-2.4-8.2-4.8-12.4-7.2C22.1,18.2,22.1,20.6,22.1,23z"/>
		<path class="st9" d="M3.7,23c4.1,0,8.2,0,12.4,0c0-2.4,0-4.8,0-7.2C11.9,18.2,7.8,20.5,3.7,23C3.7,22.9,3.7,23,3.7,23z"/>
		<path class="st10" d="M21.2,13.8h-0.3V23h-3.5v-9.2H0v1.4h9.3C6.1,17,3.1,18.8,0,20.6v2.3c0.1,0,0.1-0.1,0.2-0.1
			c4.3-2.5,8.5-4.9,12.8-7.4c0.2-0.1,0.4-0.1,0.6-0.1c0.7,0,1.5,0,2.3,0c-0.1,0.1-0.2,0.2-0.3,0.2c-4.3,2.5-8.7,5-13,7.5
			c-0.1,0-0.2,0.1-0.2,0.1c-0.8,0-1.6,0-2.3,0v0h38v-0.2c-0.1,0-0.2-0.1-0.2-0.1c-4.2-2.4-8.4-4.9-12.6-7.3c-0.1,0-0.1-0.1-0.3-0.2
			c0.9,0,1.7,0,2.6,0c0.1,0,0.2,0.1,0.3,0.2c3.3,1.9,6.6,3.8,9.9,5.7c0.1,0.1,0.2,0.1,0.4,0.2v-0.8c-3-1.7-5.9-3.4-8.9-5.1
			c0,0,0-0.1,0-0.1h0.3c2.7,0,5.4,0,8.2,0c0.1,0,0.3,0,0.4,0v-1.3c-0.1,0-0.2,0-0.3,0C32.2,13.8,26.7,13.8,21.2,13.8z M16.2,23H3.8
			c0,0,0,0,0-0.1c4.1-2.4,8.2-4.8,12.4-7.2V23z M34.5,22.9C34.5,22.9,34.5,23,34.5,22.9L22.1,23v-7.2C26.2,18.2,30.4,20.5,34.5,22.9
			z"/>
		<path class="st10" d="M36.5,0.4C37,0.1,37.5-0.1,38,0v0H0v0.3c4.6,2.7,9.2,5.3,13.7,8c0,0,0,0.1,0,0.1c-0.8,0-1.6,0-2.4,0
			c-0.1,0-0.2-0.1-0.3-0.1C7.4,6.1,3.8,4,0.2,1.9C0.1,1.8,0,1.8,0,1.7v1.1c3.1,1.8,6.1,3.6,9.3,5.4H0v1.4h17.4V0h3.5v9.6
			c0.1,0,0.2,0,0.4,0c5.5,0,11,0,16.4,0c0.1,0,0.2,0,0.3,0V8.3c-2.2,0-4.4,0-6.6,0c-0.8,0-1.5,0-2.4,0c0.1-0.1,0.2-0.2,0.3-0.2
			c2.8-1.6,5.6-3.3,8.4-4.9c0.1-0.1,0.2-0.1,0.3-0.1V1c-4.1,2.4-8.2,4.7-12.3,7.1c-0.2,0.1-0.5,0.2-0.7,0.2c-0.7,0-1.4,0-2.2,0
			C23,8.2,23.1,8.1,23.3,8C27.7,5.5,32.1,2.9,36.5,0.4z M16.2,7.7C11.8,5.2,7.4,2.6,3.1,0.1c0,0,0,0,0-0.1h13.1V7.7z M22.1,7.7V0
			h13.1c0,0,0,0,0,0.1C30.9,2.6,26.5,5.2,22.1,7.7z"/>
	</g>
</g>
</svg>
