<svg width="47" height="47" viewBox="0 0 47 47" fill="none" xmlns="http://www.w3.org/2000/svg">
<path d="M46.0817 45.1652H42.0426V37.9133C42.0426 37.4063 41.6316 36.9953 41.1247 36.9953C40.6178 36.9953 40.2067 37.4063 40.2067 37.9133V45.1652H29.1911V27.7238C29.1911 27.2169 28.78 26.8059 28.2731 26.8059H18.7263C18.2194 26.8059 17.8083 27.2169 17.8083 27.7238V45.1652H6.79276V24.4191H7.146C7.38944 24.4191 7.62288 24.3223 7.79509 24.1502L23.4997 8.44556L39.2044 24.1502C39.3766 24.3223 39.61 24.4191 39.8535 24.4191H40.2067V38.3038C40.2067 38.8108 40.6178 39.2218 41.1247 39.2218C41.6316 39.2218 42.0426 38.8108 42.0426 38.3038V24.4191H46.0817C46.453 24.4191 46.7877 24.1954 46.9298 23.8524C47.0719 23.5095 46.9932 23.1146 46.7308 22.852L24.1488 0.27007C23.7903 -0.0883957 23.2092 -0.0883957 22.8505 0.27007L4.22167 18.8989C3.86321 19.2574 3.86321 19.8387 4.22167 20.1971C4.58023 20.5557 5.16148 20.5557 5.51995 20.1971L23.4997 2.21735L43.8654 22.5831H40.2337L24.1488 6.49828C23.7903 6.13982 23.2092 6.13982 22.8505 6.49828L6.76568 22.5831H3.13394L10.3793 15.3378C10.7378 14.9794 10.7378 14.3981 10.3793 14.0395C10.0209 13.6812 9.43962 13.6811 9.08107 14.0395L0.268602 22.852C0.00615537 23.1146 -0.0725142 23.5094 0.0695868 23.8524C0.211688 24.1955 0.54647 24.4191 0.917787 24.4191H4.95683V45.1651H0.917787C0.410886 45.1651 -0.00017857 45.5761 -0.00017857 46.0831C-0.00017857 46.59 0.410886 47.001 0.917787 47.001H5.8748H18.7263H28.2731H41.1247H46.0817C46.5886 47.001 46.9996 46.59 46.9996 46.0831C46.9996 45.5761 46.5886 45.1652 46.0817 45.1652ZM27.3552 45.1652H19.6443V28.6418H27.3552V45.1652Z" fill="black"/>
<path d="M37.2694 26.8047H32.1288C31.6219 26.8047 31.2109 27.2157 31.2109 27.7227V36.9024C31.2109 37.4094 31.6219 37.8203 32.1288 37.8203H37.2694C37.7763 37.8203 38.1874 37.4094 38.1874 36.9024V27.7227C38.1874 27.2157 37.7763 26.8047 37.2694 26.8047Z" fill="#F04637"/>
<path d="M14.8711 26.8047H9.73054C9.22364 26.8047 8.81258 27.2157 8.81258 27.7227V36.9024C8.81258 37.4094 9.22364 37.8203 9.73054 37.8203H14.8711C15.378 37.8203 15.7891 37.4094 15.7891 36.9024V27.7227C15.7891 27.2157 15.378 26.8047 14.8711 26.8047Z" fill="#F04637"/>
<path d="M23.5 15.0841C21.1717 15.0841 19.2774 16.9784 19.2774 19.3067C19.2774 21.6351 21.1717 23.5294 23.5 23.5294C25.8283 23.5294 27.7226 21.6351 27.7226 19.3067C27.7226 16.9784 25.8283 15.0841 23.5 15.0841Z" fill="#F04637"/>
<path d="M22.4048 36.2534C22.2341 36.0827 21.9972 35.9844 21.7559 35.9844C21.5144 35.9844 21.2776 36.0827 21.1069 36.2534C20.9361 36.4241 20.8379 36.661 20.8379 36.9024C20.8379 37.1438 20.936 37.3807 21.1069 37.5514C21.2777 37.7221 21.5144 37.8204 21.7559 37.8204C21.9973 37.8204 22.2341 37.7221 22.4048 37.5514C22.5755 37.3807 22.6738 37.1438 22.6738 36.9024C22.6738 36.661 22.5756 36.4241 22.4048 36.2534Z" fill="black"/>
</svg>
