<svg width="43" height="53" viewBox="0 0 43 53" fill="none" xmlns="http://www.w3.org/2000/svg">
<path d="M3.83334 1.85031e-05C2.2212 -0.00517049 0.809968 1.08153 0.403041 2.64148C-0.00388566 4.20142 0.696688 5.83901 2.10594 6.62197C3.51519 7.40494 5.27572 7.13473 6.38529 5.96517L10.3515 8.1682C10.7757 8.40528 11.0851 8.80492 11.2083 9.27502L11.5431 10.6239C11.0066 10.6979 10.5341 11.0149 10.2622 11.4834H4.71667C3.25312 11.4834 2.06667 12.6698 2.06667 14.1334C2.06667 15.5969 3.25312 16.7834 4.71667 16.7834H10.2622C10.5753 17.3282 11.155 17.6648 11.7833 17.6667H12.195C8.96802 21.3139 7.24279 26.0484 7.36667 30.9167C7.36667 40.5132 9.05384 42.6862 9.39215 43.0245C9.42148 43.0537 9.45276 43.0809 9.48579 43.1058C9.60062 43.1941 12.2568 45.1375 17.9658 45.7443V49.4667C17.9658 51.4181 19.5477 53 21.4991 53C23.4505 53 25.0325 51.4181 25.0325 49.4667V45.7443C30.7423 45.1348 33.3985 43.1924 33.5125 43.1058C33.5455 43.0809 33.5768 43.0537 33.6061 43.0245C33.9462 42.6862 35.6333 40.5132 35.6333 30.9167C35.7572 26.0484 34.032 21.3139 30.805 17.6667H31.2167C31.845 17.6648 32.4247 17.3282 32.7378 16.7834H38.2833C39.7469 16.7834 40.9333 15.5969 40.9333 14.1334C40.9333 12.6698 39.7469 11.4834 38.2833 11.4834H32.7378C32.4659 11.0149 31.9934 10.6979 31.4569 10.6239L31.7882 9.28739C31.9109 8.81119 32.2231 8.40588 32.6521 8.16555L36.6147 5.96517C37.7842 7.18393 39.6539 7.40167 41.0721 6.48428C42.4903 5.56688 43.0583 3.77229 42.4262 2.20595C41.7941 0.639608 40.1396 -0.258072 38.4819 0.0658655C36.8242 0.389803 35.6293 1.84428 35.6333 3.53335C35.6375 3.83199 35.6799 4.12886 35.7597 4.41669L31.7997 6.61884C30.9438 7.0951 30.3208 7.90168 30.0763 8.85014L29.6426 10.6H27.0809C26.0611 8.44271 23.8889 7.0668 21.5027 7.0668C19.1165 7.0668 16.9442 8.44271 15.9244 10.6H13.3627L12.9211 8.83865C12.6753 7.89733 12.0552 7.09752 11.2048 6.62502L7.24036 4.41669C7.32009 4.12886 7.36255 3.83199 7.36667 3.53335C7.36667 1.58195 5.78474 1.85031e-05 3.83334 1.85031e-05ZM39.1667 1.76669C40.1424 1.76669 40.9333 2.55765 40.9333 3.53335C40.9333 4.50906 40.1424 5.30002 39.1667 5.30002C38.191 5.30002 37.4 4.50906 37.4 3.53335C37.4 2.55765 38.191 1.76669 39.1667 1.76669ZM3.83334 14.1334C3.83334 13.6455 4.22882 13.25 4.71667 13.25H10.0167V15.0167H4.71667C4.22882 15.0167 3.83334 14.6212 3.83334 14.1334ZM21.5 31.8C23.4003 31.7337 25.2674 32.3097 26.8 33.4351V39.8622C25.0888 40.4133 23.2973 40.674 21.5 40.6334C19.7027 40.6739 17.9112 40.4133 16.2 39.8622V33.436C17.7323 32.3099 19.5996 31.7335 21.5 31.8ZM21.5 51.2334C20.5243 51.2334 19.7333 50.4424 19.7333 49.4667V42.3267C20.281 42.3691 20.8596 42.4 21.5 42.4C22.1404 42.4 22.719 42.3691 23.2667 42.3267V49.4667C23.2667 50.4424 22.4757 51.2334 21.5 51.2334ZM33.8667 30.9167C33.8667 39.1617 32.5629 41.4566 32.38 41.7428C31.9384 42.0334 29.5852 43.453 25.0333 43.9706V42.1156C26.0863 41.9654 27.1139 41.6727 28.0879 41.2455C28.3831 41.0934 28.568 40.7887 28.5667 40.4567V33.0367C28.5673 32.8058 28.4776 32.5839 28.3167 32.4184C26.6702 30.9721 24.5735 30.1409 22.3833 30.066V22.9667C22.3833 22.4788 21.9879 22.0834 21.5 22.0834C21.0122 22.0834 20.6167 22.4788 20.6167 22.9667V30.066C18.4265 30.1409 16.3298 30.9721 14.6833 32.4184C14.5224 32.5839 14.4327 32.8058 14.4333 33.0367V40.4567C14.4333 40.7874 14.6181 41.0905 14.9121 41.242C15.8862 41.6688 16.9138 41.9612 17.9667 42.1112V43.9662C13.4502 43.453 11.097 42.0511 10.635 41.7481C10.3939 41.3789 9.13334 39.0248 9.13334 30.9167C9.13334 22.7017 13.6737 18.5288 14.7346 17.6667H17.1805C19.5785 20.0223 23.4216 20.0223 25.8195 17.6667H28.2655C29.3299 18.5315 33.8667 22.7017 33.8667 30.9167ZM39.1667 14.1334C39.1667 14.6212 38.7712 15.0167 38.2833 15.0167H32.9833V13.25H38.2833C38.7712 13.25 39.1667 13.6455 39.1667 14.1334ZM31.2167 12.3667V15.9H27.0783C27.4758 15.0731 27.6826 14.1675 27.6833 13.25C27.6809 12.9543 27.6572 12.6591 27.6127 12.3667H31.2167ZM21.5 8.83335C23.9393 8.83335 25.9167 10.8108 25.9167 13.25C25.9167 15.6893 23.9393 17.6667 21.5 17.6667C19.0608 17.6667 17.0833 15.6893 17.0833 13.25C17.0863 10.812 19.062 8.83627 21.5 8.83335ZM15.9218 15.9H11.7833V12.3667H15.3873C15.3428 12.6591 15.3192 12.9543 15.3167 13.25C15.3175 14.1675 15.5242 15.0731 15.9218 15.9ZM3.83334 5.30002C2.85763 5.30002 2.06667 4.50906 2.06667 3.53335C2.06667 2.55765 2.85763 1.76669 3.83334 1.76669C4.80904 1.76669 5.6 2.55765 5.6 3.53335C5.6 4.0019 5.41387 4.45126 5.08256 4.78257C4.75125 5.11389 4.30189 5.30002 3.83334 5.30002Z" fill="white"/>
</svg>
