<svg width="12" height="12" viewBox="0 0 12 12" fill="none" xmlns="http://www.w3.org/2000/svg">
<path d="M6 0C2.69159 0 0 2.69159 0 6C0 9.30841 2.69159 12 6 12C9.30841 12 12 9.30841 12 6C12 2.69159 9.30841 0 6 0ZM6 10.9859C3.25076 10.9859 1.01409 8.74924 1.01409 6C1.01409 3.25076 3.25076 1.01409 6 1.01409C8.74924 1.01409 10.9859 3.25076 10.9859 6C10.9859 8.74924 8.74924 10.9859 6 10.9859Z" fill="white" fill-opacity="0.8"/>
<path d="M8.72109 5.81409H6.35491V2.27755C6.35491 1.99752 6.1279 1.77051 5.84787 1.77051C5.56784 1.77051 5.34082 1.99752 5.34082 2.27755V6.32111C5.34082 6.60114 5.56784 6.82816 5.84787 6.82816C5.85359 6.82816 5.85912 6.82748 5.86477 6.82731C5.87041 6.82752 5.87595 6.82816 5.88166 6.82816H8.72109C9.00112 6.82816 9.22814 6.60114 9.22814 6.32111C9.22814 6.04108 9.00112 5.81409 8.72109 5.81409Z" fill="white" fill-opacity="0.8"/>
</svg>
