<svg width="49" height="45" viewBox="0 0 49 45" fill="none" xmlns="http://www.w3.org/2000/svg">
<path d="M47.6818 32.058C47.1766 31.9022 46.641 32.1856 46.4855 32.6909C44.7131 38.4446 39.4727 42.3105 33.4455 42.3105C25.9241 42.3105 19.805 36.1949 19.805 28.6778C19.805 21.1607 25.9241 15.0451 33.4455 15.0451C39.4728 15.0451 44.7131 18.911 46.4855 24.6648C46.6411 25.17 47.1769 25.4535 47.6818 25.2977C48.1869 25.1422 48.4703 24.6064 48.3147 24.1014C47.3565 20.9907 45.3874 18.1967 42.77 16.2341C40.0628 14.2042 36.8384 13.1311 33.4454 13.1311C32.6496 13.1311 31.8676 13.1914 31.1036 13.3072V6.64534C31.1036 5.40312 30.2489 3.63462 26.1769 2.26405C23.3247 1.30405 19.5513 0.775391 15.5519 0.775391C11.5524 0.775391 7.77904 1.30405 4.9267 2.26405C0.854725 3.63462 0 5.40312 0 6.64534V35.993C0 37.2352 0.854725 39.0037 4.9267 40.3743C7.77894 41.3343 11.5523 41.8629 15.5518 41.8629C18.5774 41.8629 21.4724 41.5618 23.9602 40.9905C26.5875 43.0171 29.8778 44.2246 33.4455 44.2246C36.8384 44.2246 40.0629 43.1516 42.7701 41.1216C45.3874 39.159 47.3565 36.3651 48.3148 33.2544C48.4703 32.7491 48.1869 32.2136 47.6818 32.058ZM15.5519 2.68945C23.8769 2.68945 29.1896 5.03236 29.1896 6.64534C29.1896 8.25938 23.8769 10.604 15.5519 10.604C7.22683 10.604 1.91406 8.25947 1.91406 6.64534C1.91406 5.03236 7.22683 2.68945 15.5519 2.68945ZM1.91406 9.6086C2.6372 10.1023 3.61394 10.5858 4.92661 11.028C7.77942 11.9889 11.5529 12.5181 15.5519 12.5181C19.5508 12.5181 23.3243 11.9888 26.1771 11.028C27.4898 10.5858 28.4665 10.1023 29.1896 9.6086V13.7225C26.8186 14.3975 24.6773 15.6226 22.912 17.2493C20.7033 17.7016 18.1655 17.9409 15.5519 17.9409C7.22683 17.9409 1.91406 15.5964 1.91406 13.9823V9.6086ZM1.91406 16.9455C2.6372 17.4392 3.61394 17.9227 4.92661 18.3649C7.77942 19.3258 11.5529 19.855 15.5519 19.855C17.3866 19.855 19.1895 19.7414 20.8818 19.5233C19.6617 21.1914 18.765 23.1099 18.2865 25.1867C17.3838 25.2464 16.4674 25.2778 15.5519 25.2778C7.22683 25.2779 1.91406 22.9332 1.91406 21.3192V16.9455ZM1.91406 24.2825C2.6372 24.7762 3.61394 25.2597 4.92661 25.7018C7.77942 26.6628 11.5529 27.1919 15.5519 27.1919C16.3596 27.1919 17.1679 27.1674 17.9685 27.1228C17.9173 27.6344 17.8908 28.1531 17.8908 28.6778C17.8908 30.0026 18.0579 31.2892 18.3714 32.5178C17.4444 32.58 16.5005 32.6121 15.5518 32.6121C7.22683 32.6121 1.91406 30.2691 1.91406 28.6561V24.2825ZM15.5519 39.949C7.22683 39.949 1.91406 37.606 1.91406 35.993V31.6187C2.6372 32.1122 3.61404 32.5955 4.9267 33.0374C7.77894 33.9974 11.5523 34.5261 15.5518 34.5261C16.7071 34.5261 17.8565 34.4808 18.9796 34.3926C19.7231 36.266 20.8206 37.9621 22.1895 39.3974C20.1624 39.7594 17.9028 39.949 15.5519 39.949Z" fill="#231D1A"/>
<path d="M40.0532 25.2588C40.0532 23.1745 38.5874 21.4271 36.6324 20.9894V19.7846C36.6324 19.256 36.2039 18.8276 35.6753 18.8276C35.1468 18.8276 34.7183 19.256 34.7183 19.7846V20.8828H31.6816V19.7846C31.6816 19.256 31.2531 18.8276 30.7245 18.8276C30.196 18.8276 29.7675 19.256 29.7675 19.7846V20.8828H27.7948C27.2662 20.8828 26.8377 21.3113 26.8377 21.8398C26.8377 22.3684 27.2662 22.7969 27.7948 22.7969H29.6319V28.6778V34.5588H27.7948C27.2662 34.5588 26.8377 34.9872 26.8377 35.5158C26.8377 36.0444 27.2662 36.4728 27.7948 36.4728H29.7675V37.571C29.7675 38.0996 30.196 38.5281 30.7245 38.5281C31.2531 38.5281 31.6816 38.0996 31.6816 37.571V36.4728H34.7183V37.571C34.7183 38.0996 35.1468 38.5281 35.6753 38.5281C36.2039 38.5281 36.6324 38.0996 36.6324 37.571V36.3662C38.5874 35.9286 40.0532 34.1811 40.0532 32.0968C40.0532 30.7143 39.4078 29.4804 38.4031 28.6778C39.4078 27.8753 40.0532 26.6413 40.0532 25.2588ZM35.6753 34.5588H31.5459V29.6348H35.6753C37.0338 29.6348 38.1391 30.7393 38.1391 32.0968C38.1391 33.4544 37.0338 34.5588 35.6753 34.5588ZM35.6753 27.7208H31.5459V22.7969H35.6753C37.0338 22.7969 38.1391 23.9013 38.1391 25.2588C38.1391 26.6164 37.0338 27.7208 35.6753 27.7208Z" fill="#F04637" stroke="#F04637"/>
</svg>
