<svg width="47" height="51" viewBox="0 0 47 51" fill="none" xmlns="http://www.w3.org/2000/svg">
<path d="M11.0568 7.16132H8.10844C7.62753 7.16132 7.23636 7.55258 7.23636 8.0334V12.0471C7.23626 12.5279 7.62753 12.9191 8.10844 12.9191H11.0568C11.5377 12.9191 11.9289 12.5279 11.9289 12.0471V8.0334C11.9289 7.55258 11.5377 7.16132 11.0568 7.16132ZM10.4771 11.4675H8.68787V8.61292H10.4771V11.4675Z" fill="#231D1A"/>
<path d="M17.5279 7.16132H14.5795C14.0986 7.16132 13.7074 7.55258 13.7074 8.0334V12.0471C13.7073 12.5279 14.0986 12.9191 14.5795 12.9191H17.5279C18.0088 12.9191 18.4 12.5279 18.4 12.0471V8.0334C18.4 7.55258 18.0088 7.16132 17.5279 7.16132ZM16.9483 11.4675H15.1589V8.61292H16.9483V11.4675Z" fill="#231D1A"/>
<path d="M23.9988 7.16132H21.0505C20.5696 7.16132 20.1784 7.55258 20.1784 8.0334V12.0471C20.1784 12.5279 20.5696 12.9191 21.0505 12.9191H23.9988C24.4798 12.9191 24.8709 12.5279 24.8709 12.0471V8.0334C24.8709 7.55258 24.4798 7.16132 23.9988 7.16132ZM23.4193 11.4675H21.63V8.61292H23.4193V11.4675Z" fill="#231D1A"/>
<path d="M11.0566 18.0806H8.10826C7.62734 18.0806 7.23618 18.4718 7.23618 18.9526V22.9664C7.23618 23.4472 7.62734 23.8385 8.10826 23.8385H11.0566C11.5375 23.8385 11.9287 23.4472 11.9287 22.9664V18.9526C11.9287 18.4718 11.5375 18.0806 11.0566 18.0806ZM10.4772 22.3869H8.68788V19.5322H10.4772V22.3869Z" fill="#231D1A"/>
<path d="M17.5278 18.0806H14.5794C14.0985 18.0806 13.7073 18.4718 13.7073 18.9526V22.9664C13.7073 23.4472 14.0985 23.8385 14.5794 23.8385H17.5278C18.0087 23.8385 18.3999 23.4472 18.3999 22.9664V18.9526C18.3999 18.4718 18.0087 18.0806 17.5278 18.0806ZM16.9483 22.3869H15.1589V19.5322H16.9483V22.3869Z" fill="#231D1A"/>
<path d="M23.9988 18.0806H21.0505C20.5696 18.0806 20.1784 18.4718 20.1784 18.9526V22.9664C20.1784 23.4472 20.5696 23.8385 21.0505 23.8385H23.9988C24.4798 23.8385 24.8709 23.4472 24.8709 22.9664V18.9526C24.8709 18.4718 24.4798 18.0806 23.9988 18.0806ZM23.4193 22.3869H21.63V19.5322H23.4193V22.3869Z" fill="#231D1A"/>
<path d="M11.0566 29.0002H8.10826C7.62734 29.0002 7.23618 29.3914 7.23618 29.8723V33.8859C7.23618 34.3667 7.62734 34.758 8.10826 34.758H11.0566C11.5375 34.758 11.9287 34.3667 11.9287 33.8859V29.8723C11.9287 29.3914 11.5375 29.0002 11.0566 29.0002ZM10.4772 33.3064H8.68788V30.4518H10.4772V33.3064Z" fill="#231D1A"/>
<path d="M17.5278 29.0002H14.5794C14.0985 29.0002 13.7073 29.3914 13.7073 29.8723V33.8859C13.7073 34.3667 14.0985 34.758 14.5794 34.758H17.5278C18.0087 34.758 18.3999 34.3667 18.3999 33.8859V29.8723C18.3999 29.3914 18.0087 29.0002 17.5278 29.0002ZM16.9483 33.3064H15.1589V30.4518H16.9483V33.3064Z" fill="#231D1A"/>
<path d="M23.9988 29.0002H21.0505C20.5696 29.0002 20.1784 29.3914 20.1784 29.8723V33.8859C20.1784 34.3667 20.5696 34.758 21.0505 34.758H23.9988C24.4798 34.758 24.8709 34.3667 24.8709 33.8859V29.8723C24.8709 29.3914 24.4798 29.0002 23.9988 29.0002ZM23.4193 33.3064H21.63V30.4518H23.4193V33.3064Z" fill="#231D1A"/>
<path d="M11.0566 39.9197H8.10826C7.62734 39.9197 7.23618 40.3109 7.23618 40.7918V44.8054C7.23618 45.2862 7.62734 45.6775 8.10826 45.6775H11.0566C11.5375 45.6775 11.9287 45.2862 11.9287 44.8054V40.7918C11.9287 40.3109 11.5375 39.9197 11.0566 39.9197ZM10.4772 44.2259H8.68788V41.3713H10.4772V44.2259Z" fill="#231D1A"/>
<path d="M23.9988 39.9197H21.0505C20.5696 39.9197 20.1784 40.3109 20.1784 40.7918V44.8054C20.1784 45.2862 20.5696 45.6775 21.0505 45.6775H23.9988C24.4798 45.6775 24.8709 45.2862 24.8709 44.8054V40.7918C24.8709 40.3109 24.4798 39.9197 23.9988 39.9197ZM23.4193 44.2259H21.63V41.3713H23.4193V44.2259Z" fill="#231D1A"/>
<path d="M44.61 47.0325H42.5701L42.5646 35.4997C42.5644 35.099 42.2395 34.7742 41.8388 34.7742C41.4379 34.7744 41.1128 35.0996 41.113 35.5004L41.1185 47.0324H37.1861V43.4231C37.1861 42.8519 36.7213 42.3871 36.15 42.3871H32.8109C32.2396 42.3871 31.7748 42.8519 31.7748 43.4231V47.0324H27.8546L27.8449 23.9677H41.1076L41.1109 35.7183C41.1111 36.119 41.4361 36.4438 41.8368 36.4438C42.2376 36.4436 42.5627 36.1185 42.5625 35.7176L42.5592 23.9678H43.7314C44.1323 23.9678 44.4573 23.6429 44.4573 23.242V20.7716C44.4573 20.3707 44.1324 20.0458 43.7314 20.0458H27.8432L27.8362 3.66303H28.5576C29.0741 3.66303 29.4944 3.24278 29.4944 2.72621V0.936826C29.4944 0.420252 29.0741 0 28.5576 0H3.47951C2.96293 0 2.54268 0.420252 2.54268 0.936826V2.72631C2.54268 3.24288 2.96293 3.66313 3.47951 3.66313H4.18185L4.1953 44.7438C4.1955 45.1446 4.52042 45.4694 4.92115 45.4694C5.32198 45.4692 5.6471 45.144 5.64691 44.7433L5.63346 3.66313H26.3846L26.403 47.0325H19.1798V39.7717C19.1798 39.186 18.7034 38.7097 18.1178 38.7097H13.9194C13.3338 38.7097 12.8573 39.1861 12.8573 39.7717V47.0325H5.65199L5.6489 39.7644C5.6487 39.3635 5.32377 39.0388 4.92304 39.0388C4.52222 39.039 4.19709 39.3641 4.19729 39.7649L4.20038 47.0324H2.38998C1.29617 47.0324 0.406158 47.9223 0.406158 49.0162C0.406158 50.1101 1.29607 51 2.38998 51H44.6101C45.704 51 46.5939 50.1101 46.5939 49.0162C46.5938 47.9223 45.7039 47.0325 44.61 47.0325ZM33.2264 43.8387H35.7345V47.0325H33.2264V43.8387ZM43.0056 21.4975V22.5162H27.8442L27.8437 21.4975H43.0056ZM3.99439 2.21153V1.45161H28.0428V2.21153H3.99439ZM14.3088 40.1613H17.7282V47.0325H14.3088V40.1613ZM44.61 49.5483H2.38998C2.09653 49.5483 1.85777 49.3095 1.85777 49.0162C1.85777 48.7228 2.09653 48.4841 2.38998 48.4841H44.61C44.9035 48.4841 45.1421 48.7228 45.1421 49.0162C45.1421 49.3095 44.9034 49.5483 44.61 49.5483Z" fill="black"/>
<path d="M32.6739 26.6675H29.9488C29.474 26.6675 29.0878 27.0538 29.0878 27.5285V31.2384C29.0878 31.7131 29.4741 32.0993 29.9488 32.0993H32.674C33.1489 32.0993 33.5351 31.713 33.5351 31.2384V27.5285C33.5351 27.0537 33.1488 26.6675 32.6739 26.6675Z" fill="#F04637"/>
<path d="M38.6551 26.6675H35.93C35.4551 26.6675 35.0689 27.0538 35.0689 27.5285V31.2384C35.0689 31.7131 35.4552 32.0993 35.93 32.0993H38.6551C39.1299 32.0993 39.5161 31.713 39.5161 31.2384V27.5285C39.5161 27.0537 39.1298 26.6675 38.6551 26.6675Z" fill="#F04637"/>
<path d="M32.674 34.2556H29.9489C29.474 34.2556 29.0879 34.6419 29.0879 35.1166V38.8265C29.0879 39.3012 29.4741 39.6874 29.9489 39.6874H32.674C33.1488 39.6874 33.535 39.3011 33.535 38.8265V35.1166C33.535 34.6419 33.1487 34.2556 32.674 34.2556Z" fill="#F04637"/>
<path d="M38.6551 34.2556H35.93C35.4551 34.2556 35.0689 34.6419 35.0689 35.1166V38.8265C35.0689 39.3012 35.4552 39.6874 35.93 39.6874H38.6551C39.1299 39.6874 39.5161 39.3011 39.5161 38.8265V35.1166C39.5161 34.6419 39.1298 34.2556 38.6551 34.2556Z" fill="#F04637"/>
</svg>
