<svg width="17" height="19" viewBox="0 0 17 19" fill="none" xmlns="http://www.w3.org/2000/svg">
<path d="M3.0166 8.49807L3.85133 7.54807C4.08187 7.28587 4.48087 7.26053 4.74433 7.4898L7.23334 9.671V0.633333C7.23334 0.283733 7.51707 0 7.86667 0H9.13334C9.48294 0 9.76667 0.283733 9.76667 0.633333V9.671L12.2557 7.4898C12.5179 7.26053 12.9169 7.28587 13.1487 7.54807L13.9834 8.4968C14.2152 8.76027 14.1886 9.1618 13.9251 9.39233L8.91674 13.7763C8.67734 13.9853 8.3214 13.9853 8.082 13.7763L3.07487 9.39233C2.8114 9.1618 2.7848 8.76027 3.0166 8.49807Z" fill="#F04637"/>
<path d="M1.53331 16.4667H15.4666C15.8162 16.4667 16.1 16.7504 16.1 17.1V18.3667C16.1 18.7163 15.8162 19 15.4666 19H1.53331C1.18371 19 0.899979 18.7163 0.899979 18.3667V17.1C0.899979 16.7504 1.18371 16.4667 1.53331 16.4667Z" fill="#F04637"/>
</svg>
