<svg width="68" height="44" viewBox="0 0 68 44" fill="none" xmlns="http://www.w3.org/2000/svg">
<path d="M40.4154 30.4219C41.6989 30.4219 42.7432 29.3776 42.7432 28.0941V23.4483C42.7432 22.1648 41.6989 21.1205 40.4154 21.1205H34.1471C32.8636 21.1205 31.8193 22.1648 31.8193 23.4483V28.0941C31.8193 29.3776 32.8636 30.4219 34.1471 30.4219H40.4154ZM33.8145 28.0941V23.4483C33.8145 23.2649 33.9636 23.1158 34.1471 23.1158H40.4154C40.5988 23.1158 40.7479 23.2649 40.7479 23.4483V28.0941C40.7479 28.2776 40.5988 28.4267 40.4154 28.4267H34.1471C33.9636 28.4267 33.8145 28.2776 33.8145 28.0941ZM67.1895 36.5113C66.6675 36.3347 66.1013 36.6146 65.9248 37.1366C65.0003 39.8705 62.4401 41.7072 59.5542 41.7072H53.6225V37.1918H61.0051C62.714 37.1918 64.1041 35.7952 64.1041 34.0786C64.1041 32.8793 64.0258 31.6718 63.95 30.5041C63.9275 30.1572 63.905 29.8107 63.8846 29.465C63.5997 24.639 61.9535 22.3286 60.74 21.0103C58.8029 18.9062 56.1075 17.4852 53.3448 17.1118C53.095 17.0781 52.8425 17.0529 52.5894 17.0347C52.1408 14.6061 50.0089 12.7604 47.4525 12.7604H45.1214V12.4278C45.1214 10.7568 43.9945 9.34481 42.4611 8.90931V4.48735H44.8553V5.01941C44.8553 5.93629 45.6011 6.6821 46.518 6.6821H64.8076C66.5678 6.6821 68 5.25006 68 3.48973C68 1.72941 66.5678 0.297363 64.8076 0.297363H46.518C45.6011 0.297363 44.8553 1.04318 44.8553 1.96006V2.49212H42.4611V1.4945C42.4611 0.943552 42.0145 0.496886 41.4634 0.496886C40.9124 0.496886 40.4658 0.943552 40.4658 1.4945V2.49212H38.0715V2.15958C38.0715 1.2427 37.3257 0.496886 36.4089 0.496886H17.9197C16.2695 0.496886 14.9269 1.83941 14.9269 3.48973C14.9269 5.14005 16.2695 6.48258 17.9197 6.48258H36.4089C37.3257 6.48258 38.0715 5.73676 38.0715 4.81989V4.48735H40.4658V8.90931C38.9324 9.34481 37.8055 10.7568 37.8055 12.4278V12.7604H35.4744C32.9293 12.7604 30.8046 14.5897 30.3432 17.0024H10.1285L9.07299 15.1166C8.80377 14.6358 8.19615 14.4643 7.71517 14.7334C7.23445 15.0025 7.06286 15.6104 7.33182 16.0912L8.5364 18.2433C8.56035 18.286 8.58735 18.3267 8.61714 18.3654C8.92255 18.7614 9.40353 18.9976 9.90394 18.9976H51.7129C52.1689 18.9976 52.6281 19.0283 53.0775 19.0891C54.7252 19.3118 56.3453 19.9846 57.7302 20.9928H47.9973C46.2002 20.9928 44.7384 22.4547 44.7384 24.2517V27.3085C44.7384 29.0251 46.1286 30.4218 47.8373 30.4218H61.9458C61.9503 30.4923 61.9545 30.5625 61.9591 30.6331C62.0328 31.7692 62.109 32.9439 62.109 34.0784C62.109 34.6949 61.6138 35.1963 61.0053 35.1963H49.7265C49.1754 35.1963 48.7289 35.6429 48.7289 36.194C48.7289 36.745 49.1754 37.1916 49.7265 37.1916H51.6274V41.7069H36.6878V37.1916H45.7359C46.287 37.1916 46.7335 36.745 46.7335 36.194C46.7335 35.6429 46.287 35.1963 45.7359 35.1963H34.6848C32.351 35.1963 30.3181 33.6866 29.6263 31.4399C29.0745 29.6479 27.6051 28.2616 25.7914 27.8221L7.67034 23.4303C6.45378 23.1353 5.46202 22.2583 5.01283 21.0818L2.11256 11.6738H4.85946L5.57415 12.9509C5.84337 13.4317 6.45125 13.6033 6.93197 13.3341C7.41269 13.065 7.58428 12.4571 7.31532 11.9762L6.45152 10.4329C6.42758 10.3902 6.40058 10.3493 6.37078 10.3106C6.06538 9.91478 5.58426 9.67841 5.08399 9.67841H1.66217C1.13662 9.67841 0.636619 9.93074 0.324432 10.3536C0.0122451 10.7764 -0.0816638 11.3287 0.0731661 11.8309L3.11523 21.699C3.12095 21.7178 3.1272 21.7361 3.13412 21.7543C3.8105 23.5647 5.3306 24.9161 7.20026 25.3694L25.3214 29.7615C26.4548 30.0361 27.3735 30.9045 27.7192 32.0273C28.6704 35.1164 31.4696 37.1918 34.6847 37.1918H34.6924V41.7072H27.4735C26.9225 41.7072 26.4759 42.1537 26.4759 42.7048C26.4759 43.2559 26.9225 43.7024 27.4735 43.7024H59.5542C63.2962 43.7024 66.6159 41.3208 67.8149 37.7759C67.9914 37.2541 67.7115 36.6878 67.1895 36.5113ZM46.8506 2.29259H64.8076C65.4678 2.29259 66.0048 2.82971 66.0048 3.48973C66.0048 4.14976 65.4678 4.68687 64.8076 4.68687H46.8506V2.29259ZM36.0763 4.48735H17.9197C17.3696 4.48735 16.9221 4.03988 16.9221 3.48973C16.9221 2.93958 17.3696 2.49212 17.9197 2.49212H36.0763V4.48735ZM39.8007 12.428C39.8007 11.5111 40.5466 10.7653 41.4634 10.7653C42.3803 10.7653 43.1261 11.5111 43.1261 12.428V12.7605H39.8007V12.428ZM32.3978 17.0025C32.8148 15.7008 34.036 14.7557 35.4743 14.7557H47.4525C48.8907 14.7557 50.112 15.7008 50.529 17.0025H32.3978ZM47.8373 28.4267C47.2287 28.4267 46.7336 27.9251 46.7336 27.3087V24.2518C46.7336 23.5551 47.3005 22.9882 47.9973 22.9882H59.7973C60.8918 24.416 61.5291 26.149 61.793 28.4268L47.8373 28.4267Z" fill="#231D1A"/>
<path d="M40.4154 30.422C41.6989 30.422 42.7432 29.3777 42.7432 28.0942V23.4484C42.7432 22.1649 41.6989 21.1206 40.4154 21.1206H34.147C32.8636 21.1206 31.8193 22.1649 31.8193 23.4484V28.0942C31.8193 29.3777 32.8636 30.422 34.147 30.422H40.4154Z" fill="#D73E33"/>
</svg>
