<svg width="39" height="47" viewBox="0 0 39 47" fill="none" xmlns="http://www.w3.org/2000/svg">
<path d="M38.0136 10.4331C37.9624 10.4331 37.9624 10.3819 37.9113 10.3308C37.8601 10.2797 37.8601 10.2285 37.809 10.1774L29.0125 0.306855C28.9613 0.255713 28.8591 0.20457 28.8079 0.153428C28.7568 0.153428 28.7568 0.102285 28.7056 0.102285C28.6033 0.0511425 28.4499 0 28.2965 0H6.71435C3.54351 0 0.935242 2.60827 0.935242 5.77911V41.2209C0.935242 44.3917 3.54351 47 6.71435 47H32.2856C35.4564 47 38.0647 44.3917 38.0647 41.2209V10.7911C38.0647 10.6888 38.0136 10.5354 38.0136 10.4331ZM29.2682 3.47769L34.945 9.87051H29.2682V3.47769ZM36.1213 41.1697C36.1213 43.3177 34.4336 45.0566 32.2856 45.0566H6.71435C4.56636 45.0566 2.87866 43.3177 2.87866 41.2209V5.72796C2.87866 3.57998 4.6175 1.89227 6.71435 1.89227H27.3248V10.7911C27.3248 11.3025 27.7339 11.7628 28.2965 11.7628H36.1213V41.1697Z" fill="#231D1A"/>
<path d="M7.83948 11.7628H16.3803C16.8917 11.7628 17.352 11.3536 17.352 10.791C17.352 10.2285 16.9428 9.81934 16.3803 9.81934H7.83948C7.32805 9.81934 6.86777 10.2285 6.86777 10.791C6.86777 11.3536 7.32805 11.7628 7.83948 11.7628Z" fill="#F04637" stroke="#F04637"/>
<path d="M16.3803 35.2372H7.83948C7.32805 35.2372 6.86777 35.6463 6.86777 36.2089C6.86777 36.7203 7.27691 37.1806 7.83948 37.1806H16.3803C16.8917 37.1806 17.352 36.7715 17.352 36.2089C17.352 35.6975 16.8917 35.2372 16.3803 35.2372Z" fill="#F04637" stroke="#F04637"/>
<path d="M6.86777 17.235C6.86777 17.7464 7.27691 18.2067 7.83948 18.2067H30.6491C31.1605 18.2067 31.6208 17.7976 31.6208 17.235C31.6208 16.7236 31.2116 16.2633 30.6491 16.2633H7.83948C7.32805 16.2633 6.86777 16.6724 6.86777 17.235Z" fill="#F04637" stroke="#F04637"/>
<path d="M30.6491 21.0707H7.83948C7.32805 21.0707 6.86777 21.4799 6.86777 22.0424C6.86777 22.5539 7.27691 23.0142 7.83948 23.0142H30.6491C31.1605 23.0142 31.6208 22.605 31.6208 22.0424C31.6208 21.4799 31.2116 21.0707 30.6491 21.0707Z" fill="#F04637" stroke="#F04637"/>
<path d="M30.6491 25.827H7.83948C7.32805 25.827 6.86777 26.2362 6.86777 26.7987C6.86777 27.3102 7.27691 27.7704 7.83948 27.7704H30.6491C31.1605 27.7704 31.6208 27.3613 31.6208 26.7987C31.6208 26.2362 31.2116 25.827 30.6491 25.827Z" fill="#F04637" stroke="#F04637"/>
<path d="M30.6491 30.5833H7.83948C7.32805 30.5833 6.86777 30.9925 6.86777 31.555C6.86777 32.0664 7.27691 32.5267 7.83948 32.5267H30.6491C31.1605 32.5267 31.6208 32.1176 31.6208 31.555C31.6208 31.0436 31.2116 30.5833 30.6491 30.5833Z" fill="#F04637" stroke="#F04637"/>
</svg>
