<svg width="26" height="36" viewBox="0 0 26 36" fill="none" xmlns="http://www.w3.org/2000/svg">
<path d="M13 0C6.01783 0 0.34375 5.67422 0.34375 12.6562C0.34375 15.0188 0.997797 17.318 2.24226 19.3009L12.142 35.5018C12.3109 35.7761 12.5641 35.9449 12.8594 35.9871C13.2601 36.0503 13.7033 35.8816 13.9352 35.4808L23.8634 19.132C25.0445 17.1915 25.6562 14.9344 25.6562 12.6562C25.6562 5.67422 19.9822 0 13 0ZM13 18.9844C9.45639 18.9844 6.67188 16.1156 6.67188 12.6562C6.67188 9.17571 9.51946 6.32812 13 6.32812C16.4805 6.32812 19.3281 9.17571 19.3281 12.6562C19.3281 16.0945 16.5859 18.9844 13 18.9844Z" fill="#F2453B"/>
</svg>
