<svg width="13" height="13" viewBox="0 0 13 13" fill="none" xmlns="http://www.w3.org/2000/svg">
<path d="M11.5104 13.0001H1.48962C0.667892 13.0001 0 12.3322 0 11.5105V2.57301C0 1.75129 0.667892 1.0835 1.48962 1.0835H11.5104C12.3321 1.0835 13 1.75129 13 2.57301V11.5105C13 12.3322 12.3321 13.0001 11.5104 13.0001ZM1.48962 1.896C1.11639 1.896 0.8125 2.19979 0.8125 2.57301V11.5105C0.8125 11.8837 1.11639 12.1876 1.48962 12.1876H11.5104C11.8836 12.1876 12.1875 11.8837 12.1875 11.5105V2.57301C12.1875 2.19979 11.8836 1.896 11.5104 1.896H1.48962Z" fill="white"/>
<path d="M12.5938 5.14575H0.40625C0.181999 5.14575 0 4.96375 0 4.7395C0 4.51525 0.181999 4.33325 0.40625 4.33325H12.5938C12.818 4.33325 13 4.51525 13 4.7395C13 4.96375 12.818 5.14575 12.5938 5.14575Z" fill="white"/>
<path d="M3.11462 3.25C2.89037 3.25 2.70837 3.068 2.70837 2.84375V0.40625C2.70837 0.181999 2.89037 0 3.11462 0C3.33887 0 3.52087 0.181999 3.52087 0.40625V2.84375C3.52087 3.068 3.33887 3.25 3.11462 3.25Z" fill="white"/>
<path d="M9.88538 3.25C9.66113 3.25 9.47913 3.068 9.47913 2.84375V0.40625C9.47913 0.181999 9.66113 0 9.88538 0C10.1096 0 10.2916 0.181999 10.2916 0.40625V2.84375C10.2916 3.068 10.1096 3.25 9.88538 3.25Z" fill="white"/>
</svg>
