<svg width="15" height="14" viewBox="0 0 15 14" fill="none" xmlns="http://www.w3.org/2000/svg">
<path d="M14.2763 14C14.4607 14 14.6451 13.9299 14.7853 13.7887C15.0665 13.5074 15.0665 13.0514 14.7853 12.7701L2.22608 0.21096C1.9448 -0.0703201 1.48877 -0.0703201 1.20749 0.21096C0.92621 0.492241 0.92621 0.948267 1.20749 1.22972L13.7665 13.7887C13.9077 13.929 14.0921 14 14.2763 14Z" fill="#231D1A"/>
<path d="M1.71626 14C1.90067 14 2.08491 13.9299 2.2252 13.7887L14.7853 1.22972C15.0665 0.948267 15.0665 0.492241 14.7853 0.21096C14.504 -0.0703201 14.0479 -0.0703201 13.7665 0.21096L1.20749 12.7701C0.92621 13.0514 0.92621 13.5074 1.20749 13.7887C1.34866 13.929 1.5329 14 1.71626 14Z" fill="#231D1A"/>
</svg>
