<svg width="58" height="48" viewBox="0 0 58 48" fill="none" xmlns="http://www.w3.org/2000/svg">
<path d="M1.375 46.1217H10.9949C9.34336 45.0967 7.95693 43.6965 6.9482 42.035C5.93946 40.3734 5.33687 38.4974 5.18938 36.5592H2.1145C1.86793 36.5592 1.63146 36.4613 1.45711 36.2869C1.28276 36.1126 1.18481 35.8761 1.18481 35.6295C1.1846 33.4195 1.63473 31.2325 2.50774 29.2022C3.38075 27.1718 4.65833 25.3406 6.2625 23.8204V0.948486C6.2625 0.701918 6.36045 0.465449 6.5348 0.291098C6.70915 0.116748 6.94562 0.0187988 7.19218 0.0187988H28.26C28.4648 0.0189338 28.6638 0.086709 28.8262 0.211594C28.9886 0.33648 29.1051 0.511485 29.1578 0.709424L34.8422 21.8479L42.0273 23.0437V14.9002C42.0273 14.6536 42.1253 14.4171 42.2996 14.2428C42.474 14.0684 42.7104 13.9705 42.957 13.9705H44.3754V11.692H42.957C42.7104 11.692 42.474 11.594 42.2996 11.4197C42.1253 11.2453 42.0273 11.0088 42.0273 10.7623C42.0273 10.5157 42.1253 10.2792 42.2996 10.1049C42.474 9.93053 42.7104 9.83258 42.957 9.83258H45.3051C45.5517 9.83258 45.7882 9.93053 45.9625 10.1049C46.1369 10.2792 46.2348 10.5157 46.2348 10.7623V13.9705H47.6538C47.9004 13.9705 48.1368 14.0684 48.3112 14.2428C48.4855 14.4171 48.5835 14.6536 48.5835 14.9002V24.136L53.3844 24.9355C53.6014 24.9717 53.7986 25.0837 53.9408 25.2516C54.083 25.4195 54.161 25.6324 54.1611 25.8524V32.3783C55.0819 33.3044 55.7934 34.4173 56.2475 35.6418C56.7016 36.8663 56.8878 38.174 56.7935 39.4766C56.6992 40.7792 56.3266 42.0464 55.7008 43.1928C55.075 44.3391 54.2107 45.3379 53.166 46.1217H56.625C56.8716 46.1217 57.108 46.2197 57.2824 46.394C57.4567 46.5684 57.5547 46.8049 57.5547 47.0514C57.5547 47.298 57.4567 47.5345 57.2824 47.7088C57.108 47.8832 56.8716 47.9811 56.625 47.9811H1.375C1.12843 47.9811 0.891964 47.8832 0.717613 47.7088C0.543262 47.5345 0.445312 47.298 0.445312 47.0514C0.445312 46.8049 0.543262 46.5684 0.717613 46.394C0.891964 46.2197 1.12843 46.1217 1.375 46.1217ZM17.5011 46.1217C20.2816 46.1181 22.9472 45.0121 24.9135 43.0461C26.8798 41.0802 27.9864 38.4148 27.9906 35.6343V35.6274C27.9906 32.8447 26.8852 30.176 24.9175 28.2083C22.9499 26.2407 20.2811 25.1352 17.4984 25.1352C14.7157 25.1352 12.047 26.2407 10.0793 28.2083C8.11168 30.176 7.00625 32.8447 7.00625 35.6274V35.6343C7.01047 38.4158 8.11777 41.0819 10.0852 43.048C12.0527 45.0141 14.7197 46.1195 17.5011 46.1217ZM3.07394 34.6999H5.18938C5.42302 31.5944 6.82155 28.692 9.10475 26.5741C11.3879 24.4562 14.3871 23.2794 17.5014 23.2794C20.6156 23.2794 23.6148 24.4562 25.898 26.5741C28.1812 28.692 29.5797 31.5944 29.8133 34.6999H31.9293C31.6927 31.0343 30.0698 27.5963 27.3902 25.084C24.7105 22.5717 21.1751 21.1735 17.5019 21.1735C13.8287 21.1735 10.2933 22.5717 7.61362 25.084C4.93396 27.5963 3.31104 31.0343 3.07447 34.6999H3.07394ZM26.0781 21.7352H28.7705L24.4674 5.88167H12.1015V20.236C14.3909 19.4305 16.8315 19.1473 19.2445 19.4072C21.6576 19.6671 23.9819 20.4634 26.0473 21.7379C26.0579 21.7379 26.0675 21.7352 26.0781 21.7352ZM27.5476 1.87817H8.12187V21.7352H8.96178C9.37687 21.4792 9.80417 21.2421 10.2437 21.0239V4.95252C10.2437 4.70595 10.3416 4.46948 10.516 4.29513C10.6903 4.12078 10.9268 4.02283 11.1734 4.02283H25.175C25.3791 4.02295 25.5775 4.09022 25.7395 4.21426C25.9016 4.33831 26.0183 4.51223 26.0717 4.70921L30.6936 21.7358H32.8824L27.5476 1.87817ZM46.7257 15.8299H43.8883V23.3529L46.7257 23.8257V15.8299ZM34.142 23.6137C34.0678 23.6164 33.9936 23.61 33.921 23.5946H30.1491C30.0967 23.6062 30.0433 23.6133 29.9897 23.6159C29.9468 23.6119 29.9042 23.6047 29.8622 23.5946H28.5033C30.1777 25.1206 31.5151 26.9794 32.4298 29.0519C33.3446 31.1245 33.8167 33.3652 33.8158 35.6306C33.8158 35.8772 33.7178 36.1137 33.5435 36.288C33.3691 36.4623 33.1327 36.5603 32.8861 36.5603H29.8107C29.7775 37.0058 29.72 37.4492 29.6386 37.8884H38.5402C38.6931 36.3595 39.2289 34.8938 40.0982 33.6268C40.9674 32.3597 42.142 31.3322 43.5135 30.6393C44.8849 29.9463 46.4088 29.6102 47.9445 29.6621C49.4802 29.7139 50.978 30.1521 52.2996 30.936V26.6403L34.142 23.6137ZM54.9553 38.8218C54.9557 36.8854 54.1868 35.028 52.8178 33.6584C51.4489 32.2888 49.5919 31.5192 47.6554 31.5187C45.7189 31.5183 43.8616 32.2872 42.492 33.6562C41.1224 35.0252 40.3527 36.8822 40.3523 38.8186V38.8218C40.3523 40.7583 41.1215 42.6155 42.4908 43.9848C43.8601 45.3541 45.7173 46.1233 47.6538 46.1233C49.5903 46.1233 51.4474 45.3541 52.8167 43.9848C54.186 42.6155 54.9553 40.7583 54.9553 38.8218ZM42.1442 46.1239C41.1372 45.3669 40.2974 44.4103 39.6772 43.3138C39.0571 42.2173 38.67 41.0045 38.5402 39.7515H29.1429C28.2 42.3945 26.3893 44.64 24.0062 46.1217L42.1442 46.1239Z" fill="#231D1A"/>
<path d="M17.5011 29.7491C18.6643 29.7491 19.8015 30.0941 20.7687 30.7404C21.7359 31.3866 22.4897 32.3052 22.9349 33.3799C23.38 34.4546 23.4965 35.6371 23.2696 36.778C23.0426 37.9189 22.4825 38.9669 21.6599 39.7894C20.8374 40.612 19.7894 41.1721 18.6485 41.3991C17.5076 41.626 16.3251 41.5095 15.2504 41.0644C14.1757 40.6192 13.2571 39.8654 12.6108 38.8982C11.9646 37.931 11.6196 36.7939 11.6196 35.6306C11.6215 34.0713 12.2417 32.5764 13.3443 31.4738C14.4469 30.3712 15.9418 29.751 17.5011 29.7491Z" fill="#D73E33"/>
<path d="M47.6538 34.3217C48.5435 34.3216 49.4132 34.5853 50.153 35.0794C50.8929 35.5736 51.4696 36.2761 51.8102 37.098C52.1508 37.9199 52.2401 38.8244 52.0667 39.697C51.8933 40.5697 51.465 41.3713 50.8361 42.0005C50.2071 42.6298 49.4057 43.0584 48.5331 43.2322C47.6606 43.406 46.7561 43.3172 45.934 42.977C45.1119 42.6368 44.4092 42.0604 43.9146 41.3208C43.4201 40.5812 43.156 39.7116 43.1557 38.8219C43.1567 37.629 43.6308 36.4853 44.4741 35.6416C45.3174 34.7979 46.4609 34.3232 47.6538 34.3217Z" fill="#D73E33"/>
</svg>
