<svg width="47" height="47" viewBox="0 0 47 47" fill="none" xmlns="http://www.w3.org/2000/svg">
<path d="M36.8886 27.109C36.8886 27.109 30.9586 23.45 30.9512 23.4454C30.5244 23.1821 29.9497 23.3209 29.6871 23.7446C29.424 24.1691 29.5637 24.7471 29.9864 25.0077C29.9864 25.0077 35.9201 28.6691 35.9238 28.6713C36.3504 28.9345 36.9247 28.7991 37.1869 28.3721C37.4492 27.9451 37.3155 27.3722 36.8886 27.109Z" fill="#D73E33" stroke="#D73E33"/>
<path d="M17.8391 23.6971C17.5802 23.2847 16.9831 23.1514 16.5731 23.4104C16.5731 23.4104 10.6814 27.1256 10.6714 27.1319C10.2469 27.3996 10.1174 27.9731 10.3848 28.3973C10.5455 28.6524 10.8557 28.8019 11.1627 28.8106C11.3355 28.8154 11.5073 28.7757 11.6509 28.6851C11.6509 28.6851 17.5484 24.9654 17.5525 24.9627C17.977 24.6951 18.1059 24.122 17.8391 23.6971Z" fill="#D73E33" stroke="#D73E33"/>
<path d="M46.7748 41.8113C46.4422 41.4287 45.8624 41.3883 45.4798 41.721C44.501 42.5721 43.5951 43.4544 42.3108 43.8094C40.8831 44.2039 39.5262 43.8926 38.2341 43.2465L43.0148 27.1615C43.1337 26.7614 42.9676 26.3313 42.6106 26.1149L38.1875 23.4349V15.609C38.1875 15.1021 37.7766 14.691 37.2696 14.691H35.4336V11.9371C35.4336 11.4302 35.0227 11.0191 34.5157 11.0191H31.6241V8.26524C31.6241 7.75834 31.2131 7.34728 30.7061 7.34728H26.254V0.921507C26.254 0.414606 25.843 0.00354004 25.336 0.00354004H21.6641C21.1571 0.00354004 20.7462 0.414606 20.7462 0.921507V7.34728H16.294C15.787 7.34728 15.3761 7.75834 15.3761 8.26524V11.0191H12.4845C11.9775 11.0191 11.5665 11.4302 11.5665 11.9371V14.691H9.73056C9.22357 14.691 8.81259 15.1021 8.81259 15.609V23.4349L4.38964 26.1148C4.03256 26.3312 3.8665 26.7613 3.98546 27.1614C3.98546 27.1614 8.75439 43.2066 8.75641 43.2135C8.67499 42.9396 7.20606 42.7592 6.94637 42.7256C4.27352 42.3797 2.24105 43.7187 0.315707 45.3928C-0.0669021 45.7255 -0.107293 46.3052 0.225287 46.6878C0.542812 47.0529 1.13371 47.1143 1.52026 46.7782C3.50381 45.0539 5.74007 43.7394 8.36453 45.0519C10.7388 46.2389 13.1963 46.7479 15.6693 45.4466C17.6633 44.397 19.5875 43.4907 21.8132 44.5504L24.1014 45.64C26.0591 46.5723 28.2942 46.5508 30.2334 45.5811C31.4284 44.9836 32.6429 44.1884 34.0079 44.0946C35.346 44.0027 36.6388 44.5009 37.8145 45.0892C39.3676 45.8658 41.1858 46.021 42.8536 45.5455C44.3898 45.1076 45.5078 44.1292 46.6843 43.1062C47.067 42.7736 47.1074 42.1939 46.7748 41.8113ZM36.3516 16.5269V22.3225L26.7866 16.5269H36.3516ZM22.5821 1.83947H24.418V7.34728H22.5821V1.83947ZM17.212 9.18321H29.7881V11.0191H17.212V9.18321ZM10.6485 16.5269H20.2136L10.6485 22.3225V16.5269ZM22.5821 42.8832C22.5823 42.72 21.2735 42.4191 21.1023 42.382C19.5047 42.0362 17.7896 42.2558 16.3412 43.0182C15.2903 43.5713 14.2764 44.2165 13.0745 44.3713C13.0723 44.3716 13.0701 44.3718 13.0679 44.3721C12.3657 44.4575 11.6469 44.4058 10.9672 44.2076L5.94716 27.3178L22.5821 17.2386C22.5821 17.2386 22.5821 42.8821 22.5821 42.8832ZM13.4024 14.691V12.8551H33.5977V14.691H13.4024ZM36.5372 42.5108C36.5474 42.2268 33.9633 42.2294 33.7902 42.2477C32.1968 42.4162 30.8184 43.236 29.4122 43.9391C27.7511 44.7697 26.0418 44.5309 24.418 43.7573V17.2386L41.053 27.3178L36.5372 42.5108Z" fill="#231D1A"/>
</svg>
