<svg width="56" height="42" viewBox="0 0 56 42" fill="none" xmlns="http://www.w3.org/2000/svg">
<path d="M45.1123 13.7265L41.9151 4.66759C41.6759 3.98968 41.0321 3.53424 40.3133 3.53424H15.4674C14.7485 3.53424 14.1048 3.98968 13.8656 4.66748L10.6684 13.7265C10.4827 14.2527 10.8863 14.822 11.4434 14.822H44.3373C44.604 14.822 44.8541 14.6925 45.0081 14.4748C45.1622 14.257 45.2011 13.978 45.1123 13.7265ZM12.6051 13.1781L15.4157 5.21457C15.4231 5.19346 15.4449 5.17804 15.4673 5.17804H40.3133C40.3357 5.17804 40.3575 5.19346 40.365 5.21468L43.1756 13.1781H12.6051Z" fill="#231D1A"/>
<path d="M43.6712 24.5754C40.7522 24.5754 38.4658 26.0918 38.4658 28.0275C38.4658 29.9632 40.7522 31.4796 43.6712 31.4796C46.5902 31.4796 48.8767 29.9632 48.8767 28.0275C48.8767 26.0918 46.5902 24.5754 43.6712 24.5754Z" fill="#F04637"/>
<path d="M12.1096 24.5754C9.1906 24.5754 6.90411 26.0918 6.90411 28.0275C6.90411 29.9632 9.1906 31.4796 12.1096 31.4796C15.0286 31.4796 17.3151 29.9632 17.3151 28.0275C17.3151 26.0918 15.0286 24.5754 12.1096 24.5754Z" fill="#F04637"/>
<path d="M54.1918 12.3015H49.8083C49.4311 12.3015 49.1024 12.5582 49.0109 12.924L48.4335 15.2335L44.3953 3.79222C43.7856 2.06486 42.1452 0.904175 40.3133 0.904175H15.4675C13.6355 0.904175 11.9951 2.06486 11.3855 3.79233L7.34736 15.2336L6.76997 12.924C6.67842 12.5581 6.34964 12.3015 5.97262 12.3015H1.58898C1.13508 12.3015 0.767029 12.6694 0.767029 13.1234V16.6303C0.767029 17.0843 1.13508 17.4523 1.58898 17.4523H6.12881L3.32673 21.3751C2.79933 22.1135 2.52053 22.9837 2.52053 23.8912V34.1646C2.52053 35.5881 3.21145 36.8531 4.27534 37.6425C4.27501 37.6521 4.27392 37.6616 4.27392 37.6713V40.3015C4.27392 41.2382 5.03593 42.0001 5.97251 42.0001H11.2328C12.1695 42.0001 12.9314 41.2381 12.9314 40.3015V38.4933H42.8492V40.3015C42.8492 41.2382 43.6112 42.0001 44.5478 42.0001H49.808C50.7447 42.0001 51.5066 41.2381 51.5066 40.3015V37.6713C51.5066 37.6616 51.5055 37.6521 51.5052 37.6425C52.5691 36.8531 53.26 35.5881 53.26 34.1646V23.8912C53.26 22.9836 52.9811 22.1134 52.4537 21.3751L49.6516 17.4523H54.1916C54.6456 17.4523 55.0135 17.0843 55.0135 16.6303V13.1234C55.0136 12.6693 54.6458 12.3015 54.1918 12.3015ZM2.41093 15.8083V13.9453H5.33081L5.79653 15.8083H2.41093ZM11.2877 40.3015C11.2877 40.3317 11.2632 40.3563 11.2329 40.3563H5.97262C5.94243 40.3563 5.91783 40.3317 5.91783 40.3015V38.4933H6.84937H11.2877V40.3015ZM49.863 40.3015C49.863 40.3317 49.8383 40.3563 49.8082 40.3563H44.5479C44.5177 40.3563 44.4931 40.3317 44.4931 40.3015V38.4933H48.9314H49.863V40.3015ZM48.9315 36.8494H6.84926C5.65544 36.8494 4.64153 36.066 4.2935 34.9864H51.4872C51.1391 36.066 50.1253 36.8494 48.9315 36.8494ZM34.9589 27.9727V29.8357H20.8219V27.9727H34.9589ZM20.9511 26.3288C21.2991 25.2492 22.3129 24.4658 23.5069 24.4658H32.274C33.4679 24.4658 34.4818 25.2492 34.8298 26.3288H20.9511ZM34.9589 31.4795V33.3425H20.8219V31.4795H34.9589ZM51.1164 22.3305C51.4435 22.7885 51.6165 23.3281 51.6165 23.8911V33.3426H36.6028V27.1508C36.6028 24.7639 34.6608 22.822 32.274 22.822H23.5069C21.12 22.822 19.1781 24.764 19.1781 27.1508V33.3426H4.16433V23.8911C4.16433 23.3281 4.33725 22.7885 4.66439 22.3305L8.14897 17.4522H38.4108C38.8649 17.4522 39.2328 17.0842 39.2328 16.6302C39.2328 16.1762 38.8649 15.8083 38.4108 15.8083H8.88769L12.9355 4.33931C13.3138 3.26799 14.3312 2.54797 15.4675 2.54797H40.3134C41.4496 2.54797 42.467 3.26788 42.8453 4.33931L46.8931 15.8083H41.9177C41.4637 15.8083 41.0958 16.1762 41.0958 16.6302C41.0958 17.0842 41.4637 17.4522 41.9177 17.4522H47.6318L51.1164 22.3305ZM53.3698 15.8083H49.9841L50.4499 13.9453H53.3698V15.8083Z" fill="#231D1A"/>
<path d="M14.7397 21.9453H9.47942C9.02552 21.9453 8.65747 22.3132 8.65747 22.7672C8.65747 23.2212 9.02552 23.5892 9.47942 23.5892H14.7397C15.1936 23.5892 15.5617 23.2212 15.5617 22.7672C15.5617 22.3132 15.1936 21.9453 14.7397 21.9453Z" fill="#231D1A"/>
<path d="M46.3014 21.9453H41.0411C40.5871 21.9453 40.2192 22.3132 40.2192 22.7672C40.2192 23.2212 40.5871 23.5892 41.0411 23.5892H46.3014C46.7554 23.5892 47.1234 23.2212 47.1234 22.7672C47.1234 22.3132 46.7554 21.9453 46.3014 21.9453Z" fill="#231D1A"/>
</svg>
