<svg width="12" height="14" viewBox="0 0 12 14" fill="none" xmlns="http://www.w3.org/2000/svg">
<path d="M5.99996 0C3.2042 0 0.929688 2.27451 0.929688 5.07024C0.929688 8.53984 5.46708 13.6334 5.66027 13.8485C5.84172 14.0506 6.15852 14.0503 6.33965 13.8485C6.53283 13.6334 11.0702 8.53984 11.0702 5.07024C11.0702 2.27451 8.79569 0 5.99996 0ZM5.99996 12.8442C4.47289 11.0302 1.84275 7.4515 1.84275 5.0703C1.84275 2.77796 3.70765 0.913063 5.99996 0.913063C8.29227 0.913063 10.1572 2.77796 10.1572 5.07027C10.1571 7.45158 7.52741 11.0296 5.99996 12.8442Z" fill="#231D1A"/>
<path d="M5.99998 2.51929C4.59337 2.51929 3.44904 3.66365 3.44904 5.07027C3.44904 6.47688 4.5934 7.62125 5.99998 7.62125C7.40657 7.62125 8.5509 6.47688 8.5509 5.07027C8.5509 3.66365 7.40657 2.51929 5.99998 2.51929ZM5.99998 6.70819C5.09682 6.70819 4.3621 5.97343 4.3621 5.07027C4.3621 4.1671 5.09685 3.43235 5.99998 3.43235C6.90312 3.43235 7.63787 4.1671 7.63787 5.07027C7.63787 5.97343 6.90312 6.70819 5.99998 6.70819Z" fill="#231D1A"/>
</svg>
