<svg width="13" height="13" viewBox="0 0 13 13" fill="none" xmlns="http://www.w3.org/2000/svg">
<path d="M11.5104 13H1.48958C0.667875 13 0 12.3321 0 11.5104V1.48958C0 0.667875 0.667875 0 1.48958 0H11.5104C12.3321 0 13 0.667875 13 1.48958V11.5104C13 12.3321 12.3321 13 11.5104 13ZM1.48958 0.8125C1.11638 0.8125 0.8125 1.11638 0.8125 1.48958V11.5104C0.8125 11.8836 1.11638 12.1875 1.48958 12.1875H11.5104C11.8836 12.1875 12.1875 11.8836 12.1875 11.5104V1.48958C12.1875 1.11638 11.8836 0.8125 11.5104 0.8125H1.48958Z" fill="black"/>
<path d="M6.5 13C6.27575 13 6.09375 12.818 6.09375 12.5938V0.40625C6.09375 0.182 6.27575 0 6.5 0C6.72425 0 6.90625 0.182 6.90625 0.40625V12.5938C6.90625 12.818 6.72425 13 6.5 13Z" fill="black"/>
<path d="M12.5937 6.90625H0.40625C0.182 6.90625 0 6.72425 0 6.5C0 6.27575 0.182 6.09375 0.40625 6.09375H12.5937C12.818 6.09375 13 6.27575 13 6.5C13 6.72425 12.818 6.90625 12.5937 6.90625Z" fill="black"/>
<path d="M3.25 4.87508C3.02575 4.87508 2.84375 4.69308 2.84375 4.46883V2.573C2.84375 2.34875 3.02575 2.16675 3.25 2.16675C3.47425 2.16675 3.65625 2.34875 3.65625 2.573V4.46883C3.65625 4.69308 3.47425 4.87508 3.25 4.87508Z" fill="black"/>
<path d="M4.19784 3.927H2.302C2.07775 3.927 1.89575 3.745 1.89575 3.52075C1.89575 3.2965 2.07775 3.1145 2.302 3.1145H4.19784C4.42209 3.1145 4.60409 3.2965 4.60409 3.52075C4.60409 3.745 4.42209 3.927 4.19784 3.927Z" fill="black"/>
<path d="M2.57286 10.8333C2.46886 10.8333 2.36486 10.7938 2.28578 10.7142C2.12707 10.5555 2.12707 10.2982 2.28578 10.1395L3.63995 8.78529C3.79865 8.62658 4.05595 8.62658 4.21465 8.78529C4.37336 8.944 4.37336 9.20129 4.21465 9.36L2.86049 10.7142C2.78086 10.7938 2.67686 10.8333 2.57286 10.8333Z" fill="black"/>
<path d="M3.92703 10.8333C3.82303 10.8333 3.71903 10.7938 3.63995 10.7142L2.28578 9.36C2.12707 9.20129 2.12707 8.944 2.28578 8.78529C2.44449 8.62658 2.70178 8.62658 2.86049 8.78529L4.21465 10.1395C4.37336 10.2982 4.37336 10.5555 4.21465 10.7142C4.13503 10.7938 4.03103 10.8333 3.92703 10.8333Z" fill="black"/>
<path d="M10.9688 3.79175H8.53125C8.307 3.79175 8.125 3.60975 8.125 3.3855C8.125 3.16125 8.307 2.97925 8.53125 2.97925H10.9688C11.193 2.97925 11.375 3.16125 11.375 3.3855C11.375 3.60975 11.193 3.79175 10.9688 3.79175Z" fill="black"/>
<path d="M10.9688 10.8333H8.53125C8.307 10.8333 8.125 10.6513 8.125 10.427C8.125 10.2028 8.307 10.0208 8.53125 10.0208H10.9688C11.193 10.0208 11.375 10.2028 11.375 10.427C11.375 10.6513 11.193 10.8333 10.9688 10.8333Z" fill="black"/>
<path d="M10.9688 9.20825H8.53125C8.307 9.20825 8.125 9.02625 8.125 8.802C8.125 8.57775 8.307 8.39575 8.53125 8.39575H10.9688C11.193 8.39575 11.375 8.57775 11.375 8.802C11.375 9.02625 11.193 9.20825 10.9688 9.20825Z" fill="black"/>
</svg>
