<?xml version="1.0" encoding="utf-8"?>
<!-- Generator: Adobe Illustrator 21.0.2, SVG Export Plug-In . SVG Version: 6.00 Build 0)  -->
<svg version="1.1" id="Слой_1" xmlns="http://www.w3.org/2000/svg" xmlns:xlink="http://www.w3.org/1999/xlink" x="0px" y="0px"
	 viewBox="0 0 512 512" style="enable-background:new 0 0 512 512;" xml:space="preserve">
<style type="text/css">
	.st0{fill:#FDD23B;}
	.st1{fill:#312F35;}
</style>
<circle class="st0" cx="380.1" cy="369.1" r="131.9"/>
<g>
	<path class="st1" d="M118.6,205.5v-15.8c-39.2,0-71.2-31.9-71.2-71.2H31.6C31.6,166.5,70.6,205.5,118.6,205.5z"/>
	<path class="st1" d="M118.6,173.9c30.5,0,55.3-24.8,55.3-55.3s-24.8-55.3-55.3-55.3s-55.3,24.8-55.3,55.3S88.1,173.9,118.6,173.9z
		 M118.6,79.1c21.8,0,39.5,17.7,39.5,39.5s-17.7,39.5-39.5,39.5s-39.5-17.7-39.5-39.5S96.8,79.1,118.6,79.1z"/>
	<path class="st1" d="M118.6,142.3c13.1,0,23.7-10.6,23.7-23.7s-10.6-23.7-23.7-23.7s-23.7,10.6-23.7,23.7S105.5,142.3,118.6,142.3z
		 M118.6,110.7c4.4,0,7.9,3.5,7.9,7.9s-3.5,7.9-7.9,7.9s-7.9-3.5-7.9-7.9S114.2,110.7,118.6,110.7z"/>
	<path class="st1" d="M490.1,377.2v-58.7l-21.4-7.5c-2.4-7.9-5.5-15.5-9.4-22.7l9.9-20.4l-7.6-7.6c-3.5-4.6-9.3-10.8-13.7-15.2
		c-5.5-5.5-11.8-11.5-16-15.3l-52.6-46l4.5-13.5l18.3,9.2l30.4-30.4l-9.2-18.3l19.4-6.5v-43l-19.4-6.5l9.2-18.3L402,26.1l-18.3,9.2
		l-6.5-19.4h-43l-6.5,19.4l-18.3-9.2l-30.4,30.4l9.2,18.3l-19.4,6.5v6l-65.1-56.9C181.3,10.8,152.6,0,122.8,0v0.2
		c-1.4,0-2.8-0.2-4.3-0.2C53.2,0,0,53.2,0,118.6c0,1.4,0.2,2.8,0.2,4.3H0c0,29.8,10.8,58.5,30.4,80.9l56.9,65.1h-6.1l-6.5,19.4
		l-18.3-9.2l-30.4,30.4l9.2,18.3l-19.4,6.5v43l19.4,6.5L26.1,402l30.4,30.4l18.3-9.2l6.5,19.4h43l6.5-19.4l18.3,9.2l30.4-30.4
		l-9.2-18.3l13.6-4.5l45.9,52.4c3.6,4.1,9,9.8,14.1,14.9c4.8,4.8,11.4,11.2,16.4,15l7.7,7.7l20.4-9.9c7.2,3.8,14.8,7,22.7,9.4
		l7.5,21.4h58.7l7.5-21.4c7.9-2.4,15.5-5.5,22.7-9.4l20.4,9.9l41.5-41.5l-9.9-20.4c3.8-7.2,7-14.8,9.4-22.7L490.1,377.2z
		 M236.3,288.4c-3.8,7.2-7,14.8-9.4,22.7l-21.4,7.5v58.7l21.4,7.5c2.4,7.9,5.5,15.5,9.4,22.7l-2.4,5L72.5,227.9
		c14.2,6,29.7,9.3,46.1,9.3c65.4,0,118.6-53.2,118.6-118.6c0-16.3-3.3-31.9-9.3-46.1l184.6,161.4l-5.1,2.4c-7.2-3.8-14.8-7-22.7-9.4
		l-7.5-21.4h-58.7l-7.5,21.4c-7.9,2.4-15.5,5.5-22.7,9.4l-20.4-9.9L226.5,268L236.3,288.4z M284.6,92.7l18.2-6l1.3-3.5
		c0.4-1,0.8-2,1.2-3l1.5-3.4l-8.5-17.1l14.3-14.3l17.1,8.5l3.4-1.5c1-0.4,2-0.8,3-1.2l3.5-1.3l6-18.2h20.2l6,18.2l3.5,1.3
		c1,0.4,2,0.8,3,1.2l3.4,1.5l17.1-8.5l14.3,14.3l-8.5,17.1l1.5,3.4c0.4,1,0.8,2,1.2,3l1.3,3.5l18.1,6v20.2l-18.2,6l-1.3,3.5
		c-0.4,1-0.8,2-1.2,3l-1.5,3.4l8.5,17.1l-14.3,14.3l-17.1-8.5l-3.4,1.5c-1,0.4-2,0.8-3,1.2l-3.5,1.3l-5.6,16.8l-81.7-71.5V92.7z
		 M118.6,15.8c56.7,0,102.8,46.1,102.8,102.8s-46.1,102.8-102.8,102.8S15.8,175.3,15.8,118.6S61.9,15.8,118.6,15.8z M155.8,371.9
		l-1.3,3.5c-0.4,1-0.8,2-1.2,3l-1.5,3.4l8.5,17.1l-14.3,14.3l-17.1-8.5l-3.4,1.5c-1,0.4-2,0.8-3,1.2l-3.5,1.3l-6,18.2H92.7l-6-18.2
		l-3.5-1.3c-1-0.4-2-0.8-3-1.2l-3.4-1.5l-17.1,8.5l-14.3-14.3l8.5-17.1l-1.5-3.4c-0.4-1-0.8-2-1.2-3l-1.3-3.5l-18.2-6v-20.2l18.2-6
		l1.3-3.5c0.4-1,0.8-2,1.2-3l1.5-3.4l-8.5-17.1l14.3-14.3l17.1,8.5l3.4-1.5c1-0.4,2-0.8,3-1.2l3.5-1.3l6-18.2h8.5l71.5,81.7
		L155.8,371.9z M455.7,372.4l-1.1,4c-2.5,9.4-6.2,18.4-11,26.7l-2.1,3.6l8.6,17.7l-25.6,25.6l-17.7-8.6l-3.6,2.1
		c-8.3,4.8-17.3,8.5-26.7,11l-4,1.1l-6.5,18.6h-36.2l-6.5-18.6l-4-1.1c-9.4-2.5-18.4-6.2-26.7-11l-3.6-2.1l-17.7,8.6l-25.6-25.6
		l8.6-17.7l-2.1-3.6c-4.8-8.3-8.5-17.3-11-26.7l-1.1-4l-18.6-6.5v-36.2l18.6-6.5l1.1-4c2.5-9.4,6.2-18.4,11-26.7l2.1-3.6l-8.6-17.7
		l25.6-25.6l17.7,8.6l3.6-2.1c8.3-4.8,17.3-8.5,26.7-11l4-1.1l6.5-18.6H366l6.5,18.6l4,1.1c9.4,2.5,18.4,6.2,26.7,11l3.6,2.1
		l17.7-8.6l25.6,25.6l-8.6,17.7l2.1,3.6c4.8,8.3,8.5,17.3,11,26.7l1.1,4l18.6,6.5V366L455.7,372.4z"/>
	<path class="st1" d="M347.8,268.8c-43.6,0-79.1,35.5-79.1,79.1s35.5,79.1,79.1,79.1s79.1-35.5,79.1-79.1S391.4,268.8,347.8,268.8z
		 M347.8,411.1c-34.9,0-63.2-28.4-63.2-63.2s28.4-63.2,63.2-63.2s63.2,28.4,63.2,63.2S382.7,411.1,347.8,411.1z"/>
	<path class="st1" d="M347.8,300.4c-26.2,0-47.4,21.3-47.4,47.4c0,26.2,21.3,47.4,47.4,47.4c26.2,0,47.4-21.3,47.4-47.4
		C395.3,321.7,374,300.4,347.8,300.4z M347.8,379.5c-17.4,0-31.6-14.2-31.6-31.6s14.2-31.6,31.6-31.6s31.6,14.2,31.6,31.6
		S365.3,379.5,347.8,379.5z"/>
	<path class="st1" d="M395.3,102.8c0-21.8-17.7-39.5-39.5-39.5s-39.5,17.7-39.5,39.5s17.7,39.5,39.5,39.5S395.3,124.6,395.3,102.8z
		 M332,102.8c0-13.1,10.6-23.7,23.7-23.7c13.1,0,23.7,10.6,23.7,23.7s-10.6,23.7-23.7,23.7C342.7,126.5,332,115.8,332,102.8z"/>
	<path class="st1" d="M63.2,355.8c0,21.8,17.7,39.5,39.5,39.5s39.5-17.7,39.5-39.5s-17.7-39.5-39.5-39.5S63.2,334,63.2,355.8z
		 M126.5,355.8c0,13.1-10.6,23.7-23.7,23.7s-23.7-10.6-23.7-23.7c0-13.1,10.6-23.7,23.7-23.7S126.5,342.7,126.5,355.8z"/>
</g>
</svg>
