<?xml version="1.0" encoding="utf-8"?>
<!-- Generator: Adobe Illustrator 21.0.2, SVG Export Plug-In . SVG Version: 6.00 Build 0)  -->
<svg version="1.1" id="Capa_1" xmlns="http://www.w3.org/2000/svg" xmlns:xlink="http://www.w3.org/1999/xlink" x="0px" y="0px"
	 viewBox="0 0 512 512" style="enable-background:new 0 0 512 512;" xml:space="preserve">
<style type="text/css">
	.st0{fill:#FDD23B;}
	.st1{fill:#312F35;}
</style>
<g>
	<path class="st0" d="M299,304h-16l0,0c0-44.2,35.8-80,80-80h16l0,0C379,268.2,343.2,304,299,304z"/>
	<path class="st0" d="M299,192h-16l0,0c0-44.2,35.8-80,80-80h16l0,0C379,156.2,343.2,192,299,192z"/>
	<path class="st0" d="M283,80h16c30.9,0,56-25.1,56-56h-16C308.1,24,283,49.1,283,80z"/>
</g>
<path class="st0" d="M187,224h16c44.2,0,80,35.8,80,80l0,0h-16C222.8,304,187,268.2,187,224L187,224z"/>
<path class="st0" d="M187,112h16c44.2,0,80,35.8,80,80l0,0h-16C222.8,192,187,156.2,187,112L187,112z"/>
<path class="st0" d="M283,80h-16c-30.9,0-56-25.1-56-56h16C257.9,24,283,49.1,283,80z"/>
<path class="st0" d="M299,200c48.6-0.1,87.9-39.4,88-88c0-4.4-3.6-8-8-8h-16c-28.7,0-55.6,14.1-72,37.6V88h8c35.3,0,64-28.7,64-64
	c0-4.4-3.6-8-8-8h-16c-23.3,0-44.7,12.7-56,33.1C271.7,28.7,250.3,16,227,16h-16c-4.4,0-8,3.6-8,8c0,35.3,28.7,64,64,64h8v53.6
	c-16.4-23.5-43.3-37.6-72-37.6h-16c-4.4,0-8,3.6-8,8c0.1,48.6,39.4,87.9,88,88h8v53.6c-16.4-23.5-43.3-37.6-72-37.6h-16
	c-4.4,0-8,3.6-8,8c0.1,48.6,39.4,87.9,88,88h8v72h16v-72h8c48.6-0.1,87.9-39.4,88-88c0-4.4-3.6-8-8-8h-16c-28.7,0-55.6,14.1-72,37.6
	V200H299z M363,120h7.6c-4.1,36.4-34.9,64-71.6,64h-7.6C295.6,147.6,326.3,120,363,120z M339,32h7.3c-3.9,23.1-23.9,40-47.3,40h-7.3
	C295.6,48.9,315.6,32,339,32z M267,72c-23.4,0-43.4-16.9-47.3-40h7.3c23.4,0,43.4,16.9,47.3,40H267z M267,184
	c-36.7,0-67.4-27.6-71.6-64h7.6c36.7,0,67.4,27.6,71.6,64H267z M267,296c-36.7,0-67.4-27.6-71.6-64h7.6c36.7,0,67.4,27.6,71.6,64
	H267z M363,232h7.6c-4.1,36.4-34.9,64-71.6,64h-7.6C295.6,259.6,326.3,232,363,232z"/>
<g>
	<g>
		<g>
			<path class="st1" d="M221.7,426.7c-2.2-42.7-25.7-81.4-62.6-102.9l-58.9-65.5c-7.9-9-20.2-12.8-31.8-9.8V136.5
				c0-18.9-15.3-34.1-34.1-34.1S0,117.7,0,136.5V298c0,13.1,3.3,25.9,9.7,37.3l75.7,136.2v31.9c0,4.7,3.8,8.5,8.5,8.5h119.5
				c4.7,0,8.5-3.8,8.5-8.5v-76.8H221.7z M204.8,494.9H102.4v-25.6c0-1.5-0.4-2.9-1.1-4.1L24.6,327.1c-4.9-8.9-7.5-18.9-7.5-29V136.5
				c0-9.4,7.6-17.1,17.1-17.1s17.1,7.6,17.1,17.1V259c-10.7,12.4-10.4,30.8,0.6,42.9l69.9,76.9l12.6-11.5l-69.9-76.9
				c-5.6-6.1-5.3-15.6,0.5-21.4c6.1-6.1,15.9-6.1,21.9,0c0.2,0.2,0.4,0.4,0.6,0.6l59.8,66.5c0.8,0.8,1.6,1.4,2.6,2
				c34,19.5,54.9,55.6,55,94.7V494.9z"/>
		</g>
	</g>
	<g>
		<g>
			<path class="st1" d="M477.9,102.4c-18.9,0-34.1,15.3-34.1,34.1v111.9c-2.8-0.7-5.6-1-8.5-1c-8.9,0.2-17.4,4.1-23.4,10.8
				L353,323.7c-36.9,21.5-60.5,60.2-62.6,102.9h-0.2v76.8c0,4.7,3.8,8.5,8.5,8.5h119.5c4.7,0,8.5-3.8,8.5-8.5v-31.9l74.7-135.4
				c6.9-11.8,10.6-25.2,10.6-38.9V136.5C512,117.7,496.7,102.4,477.9,102.4z M494.9,297.1c0,10.7-2.9,21.3-8.4,30.5l-75.9,137.6
				c-0.7,1.3-1,2.7-1,4.1v25.6H307.2v-62.1c0.1-39.3,21.3-75.5,55.4-94.9c0.8-0.5,1.5-1,2.1-1.7l59.8-66.6
				c5.7-6.4,15.6-6.9,21.9-1.1s6.9,15.6,1.1,21.9l-69.9,76.9l12.6,11.5l69.9-76.9c11-12.1,11.3-30.6,0.6-43V136.5
				c0-9.4,7.6-17.1,17.1-17.1s17.1,7.6,17.1,17.1L494.9,297.1L494.9,297.1z"/>
		</g>
	</g>
	<g>
		<g>
			<path class="st1" d="M358.4,213.3h-17.1c-30.6,0-59.3,15-76.8,40.1v-57.2h8.5c51.8-0.1,93.8-42.1,93.9-93.9
				c0-4.7-3.8-8.5-8.5-8.5h-17.1c-30.6,0-59.3,15-76.8,40.1V76.8h8.5c37.7,0,68.2-30.6,68.3-68.3c0-4.7-3.8-8.5-8.5-8.5h-17.1
				C290.9,0,268,13.5,256,35.3C244,13.5,221.1,0,196.3,0h-17.1c-4.7,0-8.5,3.8-8.5,8.5c0,37.7,30.6,68.2,68.3,68.3h8.5V134
				c-17.5-25.1-46.2-40.1-76.8-40.1h-17.1c-4.7,0-8.5,3.8-8.5,8.5c0.1,51.8,42.1,93.8,93.9,93.9h8.5v57.2
				c-17.5-25.1-46.2-40.1-76.8-40.1h-17.1c-4.7,0-8.5,3.8-8.5,8.5c0.1,51.8,42.1,93.8,93.9,93.9h8.5V384h17.1v-68.3h8.5
				c51.8-0.1,93.8-42.1,93.9-93.9C366.9,217.2,363.1,213.3,358.4,213.3z M341.3,110.9h8.1c-4.4,38.8-37.2,68.2-76.3,68.3H265
				C269.4,140.4,302.2,111,341.3,110.9z M315.7,17.1h7.8c-4.2,24.6-25.5,42.6-50.5,42.7h-7.8C269.4,35.1,290.8,17.1,315.7,17.1z
				 M238.9,59.7c-25,0-46.3-18-50.5-42.7h7.8c25,0,46.3,18,50.5,42.7H238.9z M238.9,179.2c-39.1,0-71.9-29.4-76.3-68.3h8.1
				c39.1,0,71.9,29.4,76.3,68.3H238.9z M238.9,298.7c-39.1,0-71.9-29.4-76.3-68.3h8.1c39.1,0,71.9,29.4,76.3,68.3H238.9z
				 M273.1,298.7H265c4.4-38.8,37.2-68.2,76.3-68.3h8.1C345,269.2,312.2,298.6,273.1,298.7z"/>
		</g>
	</g>
</g>
</svg>
