<?xml version="1.0"?>
<svg xmlns="http://www.w3.org/2000/svg" height="512px" viewBox="-24 0 496 496" width="512px"><g><path d="m388.6875 8-16 16h-24.078125c-6.195313-14.105469-20.25-24-36.609375-24h-112c-16.359375 0-30.414062 9.894531-36.609375 24h-24.078125l-16-16h-59.3125v128h59.3125l16-16h24.078125c6.195313 14.105469 20.25 24 36.609375 24v8c0 10.414062 6.710938 19.214844 16 22.527344v81.472656h-10.742188c-10.691406 0-20.738281 4.167969-28.289062 11.71875l-12.28125 12.28125h-52.6875v-16h-112v160h112v-16h52.6875l12.28125 12.28125c7.550781 7.550781 17.597656 11.71875 28.289062 11.71875h10.742188v24c0 22.054688 17.945312 40 40 40s40-17.945312 40-40v-24h8c13.230469 0 24-10.769531 24-24 0-6.167969-2.40625-11.742188-6.238281-16 3.839843-4.257812 6.238281-9.832031 6.238281-16s-2.40625-11.742188-6.238281-16c3.839843-4.257812 6.238281-9.832031 6.238281-16s-2.40625-11.742188-6.238281-16c3.839843-4.257812 6.238281-9.832031 6.238281-16 0-13.230469-10.769531-24-24-24h-8v-113.472656c9.289062-3.3125 16-12.113282 16-22.527344v-8c16.359375 0 30.414062-9.894531 36.609375-24h24.078125l16 16h59.3125v-128zm-272 112h-36.6875v-96h36.6875l11.3125 11.3125v73.375zm27.3125-16v-64h16v64zm88 72h48v81.472656c-2.511719-.898437-5.183594-1.472656-8-1.472656h-40zm-216 104h48v128h-48zm80 128h-16v-128h16zm92.28125.96875-16.96875-16.96875h-59.3125v-96h59.3125l16.96875-16.96875c4.535156-4.535156 10.558594-7.03125 16.976562-7.03125h66.742188c4.414062 0 8 3.585938 8 8v40c0 4.414062-3.585938 8-8 8s-8-3.585938-8-8v-32h-24c-13.230469 0-24 10.769531-24 24 0 6.167969 2.40625 11.742188 6.238281 16-3.839843 4.257812-6.238281 9.832031-6.238281 16s2.40625 11.742188 6.238281 16c-3.839843 4.257812-6.238281 9.832031-6.238281 16s2.40625 11.742188 6.238281 16c-3.839843 4.257812-6.238281 9.832031-6.238281 16 0 2.816406.574219 5.488281 1.472656 8h-12.214844c-6.417968 0-12.441406-2.496094-16.976562-7.03125zm123.71875-64.96875c0 4.414062-3.585938 8-8 8h-64c-4.414062 0-8-3.585938-8-8s3.585938-8 8-8h14.128906c4.398438 4.902344 10.78125 8 17.871094 8 7.0625 0 13.359375-3.128906 17.761719-8h14.238281c4.414062 0 8 3.585938 8 8zm0 32c0 4.414062-3.585938 8-8 8h-64c-4.414062 0-8-3.585938-8-8s3.585938-8 8-8h64c4.414062 0 8 3.585938 8 8zm-80-64c0-4.414062 3.585938-8 8-8h8v16h-8c-4.414062 0-8-3.585938-8-8zm48 144c0 13.230469-10.769531 24-24 24s-24-10.769531-24-24v-24h48zm24-40h-64c-4.414062 0-8-3.585938-8-8s3.585938-8 8-8h64c4.414062 0 8 3.585938 8 8s-3.585938 8-8 8zm8-104c0 4.414062-3.585938 8-8 8h-8v-16h8c4.414062 0 8 3.585938 8 8zm-16-160c0 4.40625-3.585938 8-8 8h-64c-4.414062 0-8-3.59375-8-8v-8h80zm16-24h-112c-13.230469 0-24-10.769531-24-24v-8h112v-16h-112v-16h32v-16h-32v-8c0-13.230469 10.769531-24 24-24h112c13.230469 0 24 10.769531 24 24v8h-112v16h112v16h-32v16h32v8c0 13.230469-10.769531 24-24 24zm40-24v-64h16v64zm80 16h-36.6875l-11.3125-11.3125v-73.375l11.3125-11.3125h36.6875zm0 0" data-original="#000000" class="active-path" data-old_color="#312f35" fill="#312f35"/><path d="m264 456c0 4.417969-3.582031 8-8 8s-8-3.582031-8-8 3.582031-8 8-8 8 3.582031 8 8zm0 0" data-original="#000000" class="active-path" data-old_color="#312f35" fill="#312f35"/></g> </svg>
