<?xml version="1.0"?>
<svg xmlns="http://www.w3.org/2000/svg" xmlns:xlink="http://www.w3.org/1999/xlink" version="1.1" id="Capa_1" x="0px" y="0px" viewBox="0 0 455.451 455.451" style="enable-background:new 0 0 455.451 455.451;" xml:space="preserve" width="512px" height="512px"><g><g>
	<path d="M382.192,154.466C382.192,69.293,312.899,0,227.726,0S73.259,69.293,73.259,154.466c0,60.39,34.841,112.788,85.473,138.173   v162.812l68.995-40.39l68.995,40.39V292.638C347.352,267.253,382.192,214.855,382.192,154.466z M281.722,429.289l-53.995-31.609   l-53.995,31.609V299.187c16.816,6.294,35.009,9.746,53.994,9.746c18.986,0,37.18-3.451,53.996-9.746V429.289z M227.726,293.933   c-76.902,0-139.467-62.564-139.467-139.466S150.823,15,227.726,15c76.901,0,139.466,62.564,139.466,139.466   S304.627,293.933,227.726,293.933z" data-original="#000000" class="active-path" data-old_color="#312f35" fill="#312f35"/>
	<path d="M227.726,36.051c-65.294,0-118.415,53.121-118.415,118.415s53.121,118.415,118.415,118.415s118.415-53.121,118.415-118.415   S293.02,36.051,227.726,36.051z M227.726,257.881c-57.023,0-103.415-46.392-103.415-103.415S170.702,51.051,227.726,51.051   s103.415,46.392,103.415,103.415S284.749,257.881,227.726,257.881z" data-original="#000000" class="active-path" data-old_color="#312f35" fill="#312f35"/>
	<path d="M251.878,123.603l-24.152-48.939l-24.152,48.939l-54.007,7.847l39.079,38.093l-9.226,53.789l48.306-25.396l48.305,25.396   l-9.226-53.789l39.08-38.093L251.878,123.603z M256.109,195.911l-28.383-14.921l-28.384,14.922l5.421-31.605l-22.962-22.383   l31.733-4.611l14.191-28.755l14.191,28.755l31.733,4.611l-22.963,22.383L256.109,195.911z" data-original="#000000" class="active-path" data-old_color="#312f35" fill="#312f35"/>
</g></g> </svg>
