<?xml version="1.0" encoding="utf-8"?>
<!-- Generator: Adobe Illustrator 21.0.2, SVG Export Plug-In . SVG Version: 6.00 Build 0)  -->
<svg version="1.1" id="Layer_1" xmlns="http://www.w3.org/2000/svg" xmlns:xlink="http://www.w3.org/1999/xlink" x="0px" y="0px"
	 viewBox="0 0 512 512" style="enable-background:new 0 0 512 512;" xml:space="preserve">
<style type="text/css">
	.st0{fill:#FDD23B;}
	.st1{fill:#312F35;}
</style>
<rect x="45" y="2" class="st0" width="141" height="370.1"/>
<g>
	<g>
		<g>
			<path class="st1" d="M481.7,347.3H355.2h-88.4l38.4-38.4l113.6-113.6c1.5-1.5,2.4-3.6,2.4-5.8s-0.9-4.3-2.4-5.8l-92.6-92.6
				c-1.5-1.5-3.6-2.4-5.8-2.4c-2.2,0-4.3,0.9-5.8,2.4L201,204.7l-38.4,38.4v-88.4V28.2c0-4.5-3.7-8.2-8.2-8.2H23.5
				c-4.5,0-8.2,3.7-8.2,8.2v126.5v126.5v92.6c-8.6,14.2-13.1,30.4-13.1,47c0,50.2,40.9,91.1,91.1,91.1c19.5,0,37.9-6,53.6-17.5h81.7
				h126.5h126.5c4.5,0,8.2-3.7,8.2-8.2V355.5C489.9,350.9,486.2,347.3,481.7,347.3z M320.4,108.5l81,81l-77.9,77.9l-81-81
				L320.4,108.5z M31.7,36.4h114.5v110.2H31.7V36.4z M31.7,162.9h114.5v96.6l-13.6,13.6h-101V162.9z M31.7,289.5h84.6L73.8,332
				c-15.7,3.5-30.3,11.1-42.1,21.9C31.7,353.9,31.7,289.5,31.7,289.5z M139.2,479.9c-13.2,10.3-29.1,15.7-45.8,15.7
				c-41.2,0-74.7-33.5-74.7-74.7c0-14.3,4.1-28.2,11.8-40.3c11.1-17.3,28.9-29.3,49-33.1h0c4.6-0.9,9.3-1.3,14-1.3
				c16.8,0,32.6,5.4,45.8,15.7c3.3,2.6,6.4,5.5,9.2,8.5c0,0,0,0,0,0c12.7,13.8,19.7,31.8,19.7,50.5c0,1.5-0.1,3-0.2,5c0,0,0,0,0,0
				C166.5,447.1,156,466.8,139.2,479.9z M220.5,478.2h-56.3c11.1-13.7,18-30.4,19.8-48.1l28.1-28.1l8.4-8.4L220.5,478.2L220.5,478.2
				z M200.5,390.4l-17,17c-2.7-17.9-10.6-34.6-23-48.1c0,0,0,0,0,0c-3.4-3.7-7.2-7.2-11.2-10.3c-14.7-11.4-32-17.9-50.3-19
				l42.5-42.5l7.2,7.2l66.6,66.6l7.2,7.2L200.5,390.4z M226.8,349.7l-66.6-66.6l-7.2-7.2l7.2-7.2c0,0,0,0,0,0l52.4-52.4l18.3-18.3
				l81,81l-18.3,18.3l-52.4,52.4c0,0,0,0,0,0l-7.2,7.2L226.8,349.7z M347,478.2H236.8v-101l3-3c0,0,0,0,0,0l10.6-10.6H347L347,478.2
				L347,478.2z M473.5,478.2H363.4V363.6h110.2L473.5,478.2L473.5,478.2z"/>
		</g>
	</g>
	<g>
		<g>
			<path class="st1" d="M93.4,364.7c-31,0-56.2,25.2-56.2,56.2s25.2,56.2,56.2,56.2s56.2-25.2,56.2-56.2
				C149.5,389.9,124.3,364.7,93.4,364.7z M93.4,460.7c-22,0-39.8-17.9-39.8-39.8c0-22,17.9-39.8,39.8-39.8s39.8,17.9,39.8,39.8
				S115.3,460.7,93.4,460.7z"/>
		</g>
	</g>
	<g>
		<g>
			<path class="st1" d="M93.4,388.7c-4.5,0-8.2,3.7-8.2,8.2c0,4.5,3.7,8.2,8.2,8.2c8.7,0,15.8,7.1,15.8,15.8c0,4.5,3.7,8.2,8.2,8.2
				s8.2-3.7,8.2-8.2C125.5,403.2,111.1,388.7,93.4,388.7z"/>
		</g>
	</g>
</g>
</svg>
