<?xml version="1.0" encoding="utf-8"?>
<!-- Generator: Adobe Illustrator 21.0.2, SVG Export Plug-In . SVG Version: 6.00 Build 0)  -->
<svg version="1.1" id="Capa_1" xmlns="http://www.w3.org/2000/svg" xmlns:xlink="http://www.w3.org/1999/xlink" x="0px" y="0px"
	 viewBox="0 0 512 512" style="enable-background:new 0 0 512 512;" xml:space="preserve">
<style type="text/css">
	.st0{fill:#FDD23B;}
	.st1{fill:#312F35;}
</style>
<circle class="st0" cx="285.3" cy="334.5" r="176.7"/>
<g>
	<g>
		<path class="st1" d="M371.5,120.5l5.9-11.4l7.4,3.9L411.3,62l-62.2-32.4l-26.5,50.9l7.4,3.9l-5.9,11.3c-8.1-3-16.5-5.5-25.1-7.5
			V71.8h17.6V0H186.9v71.8h17.7v16.4C111.7,109.6,42.2,193,42.2,292.3c0,115.5,94,209.5,209.5,209.5c120.8,0,209.5-99.2,209.5-209.5
			C461.3,221.3,425.7,158.4,371.5,120.5z M356.2,52.3l32.3,16.8l-10.9,21l-32.3-16.8L356.2,52.3z M344.9,92.1l17.5,9.1l-5.2,10
			c-5.7-3.3-11.5-6.4-17.5-9.2L344.9,92.1z M203.8,54.9v-38h96v38H299v0h-94.4v0H203.8z M221.4,71.8h60.7V85
			c-9.9-1.4-20-2.2-30.4-2.2c-10.3,0-20.4,0.8-30.4,2.2V71.8z M251.8,485c-106.2,0-192.7-86.4-192.7-192.7S145.5,99.7,251.8,99.7
			s192.7,86.4,192.7,192.7S358,485,251.8,485z"/>
		<path class="st1" d="M251.8,128.4c-90.4,0-163.9,73.5-163.9,163.9s73.5,163.9,163.9,163.9s163.9-73.5,163.9-163.9
			C415.7,201.9,342.2,128.4,251.8,128.4z M251.8,439.4c-81.1,0-147.1-66-147.1-147.1c0-81.1,66-147.1,147.1-147.1
			s147.1,66,147.1,147.1C398.8,373.4,332.9,439.4,251.8,439.4z"/>
		<path class="st1" d="M277.7,283.9c-2.7-8.3-9.3-14.9-17.6-17.6v-64.5h-16.9v64.5c-8.3,2.7-14.9,9.3-17.6,17.6h-17.5v16.9h17.5
			c2.7,8.3,9.3,14.9,17.6,17.6v17.5h16.9v-17.5c8.3-2.7,14.9-9.3,17.6-17.6h97.9v-16.9H277.7z M251.8,302.8
			c-5.8,0-10.5-4.7-10.5-10.5c0-5.8,4.7-10.5,10.5-10.5c5.8,0,10.5,4.7,10.5,10.5C262.2,298.1,257.5,302.8,251.8,302.8z"/>
	</g>
</g>
</svg>
