<?xml version="1.0" encoding="utf-8"?>
<!-- Generator: Adobe Illustrator 21.0.2, SVG Export Plug-In . SVG Version: 6.00 Build 0)  -->
<svg version="1.1" id="Capa_1" xmlns="http://www.w3.org/2000/svg" xmlns:xlink="http://www.w3.org/1999/xlink" x="0px" y="0px"
	 viewBox="0 0 512 512" style="enable-background:new 0 0 512 512;" xml:space="preserve">
<style type="text/css">
	.st0{fill:#FDD23B;}
	.st1{fill:#312F35;}
</style>
<circle class="st0" cx="148.4" cy="274.5" r="100.5"/>
<circle class="st0" cx="400.2" cy="275.5" r="100.5"/>
<g>
	<g>
		<path class="st1" d="M502.6,206.8h-18c-3.2-7.2-7.1-13.6-12-19.2c-16.5-19.3-42.2-29.1-76.4-29.1H115.7
			c-34.2,0-59.9,9.8-76.4,29.1c-4.8,5.6-8.8,12-12,19.2h-18c-5.2,0-9.4,4.2-9.4,9.4s4.2,9.4,9.4,9.4h11.9c-2,9.3-3.1,19.4-3.1,30.4
			c0,53.7,43.7,97.5,97.5,97.5c34,0,66.9-15.5,92.7-43.7c22.5-24.7,36.5-56.6,36.5-83.5c0-2.3,0-4.6,0-6.8c3.6-0.9,7.3-1.3,11.1-1.3
			c3.8,0,7.5,0.4,11.1,1.3c0,2.2,0,4.4,0,6.8c0,26.8,14,58.8,36.5,83.5c25.7,28.2,58.6,43.7,92.7,43.7c53.7,0,97.5-43.7,97.5-97.5
			c0-11-1-21.2-3.1-30.4h11.9c5.2,0,9.4-4.2,9.4-9.4C512,211,507.8,206.8,502.6,206.8z M194.5,297.1c-22.1,24.2-50.1,37.6-78.8,37.6
			C72.3,334.7,37,299.4,37,256c0-53,25.7-78.7,78.7-78.7c56.5,0,87.7,0,100.7,6.4c8.8,4.3,9.7,11.9,9.7,42.7
			C226.1,248.6,214,275.8,194.5,297.1z M256,199.5c-4,0-7.9,0.4-11.8,1c-0.8-9.4-2.7-17.1-7-23.2h37.5c-4.2,6.1-6.1,13.9-7,23.2
			C263.9,199.8,260,199.5,256,199.5z M396.3,334.7c-28.7,0-56.7-13.4-78.8-37.6c-19.5-21.3-31.6-48.5-31.6-70.8
			c0-30.7,0.9-38.4,9.7-42.7c13-6.4,44.2-6.4,100.7-6.4c53,0,78.7,25.7,78.7,78.7C475,299.4,439.7,334.7,396.3,334.7z"/>
		<path class="st1" d="M145.8,204.5c-3.7-3.7-9.6-3.7-13.3,0l-60,59.9c-3.7,3.7-3.7,9.6,0,13.3c1.8,1.8,4.2,2.7,6.6,2.7
			c2.4,0,4.8-0.9,6.6-2.7l60-59.9C149.5,214.1,149.5,208.2,145.8,204.5z"/>
		<path class="st1" d="M162.3,234.4l-45,45c-3.7,3.7-3.7,9.6,0,13.3c1.8,1.8,4.2,2.7,6.6,2.7c2.4,0,4.8-0.9,6.6-2.7l45-45
			c3.7-3.7,3.7-9.6,0-13.3C172,230.7,166,230.7,162.3,234.4z"/>
		<path class="st1" d="M409.6,204.5c-3.7-3.7-9.6-3.7-13.3,0l-60,59.9c-3.7,3.7-3.7,9.6,0,13.3c1.8,1.8,4.2,2.7,6.6,2.7
			c2.4,0,4.8-0.9,6.6-2.7l60-59.9C413.3,214.1,413.3,208.2,409.6,204.5z"/>
		<path class="st1" d="M426.2,234.4l-45,45c-3.7,3.7-3.7,9.6,0,13.3c1.8,1.8,4.2,2.7,6.6,2.7c2.4,0,4.8-0.9,6.6-2.7l45-45
			c3.7-3.7,3.7-9.6,0-13.3C435.8,230.7,429.8,230.7,426.2,234.4z"/>
	</g>
</g>
</svg>
