<?xml version="1.0" encoding="utf-8"?>
<!-- Generator: Adobe Illustrator 21.0.2, SVG Export Plug-In . SVG Version: 6.00 Build 0)  -->
<svg version="1.1" id="Слой_1" xmlns="http://www.w3.org/2000/svg" xmlns:xlink="http://www.w3.org/1999/xlink" x="0px" y="0px"
	 viewBox="0 0 512 512" style="enable-background:new 0 0 512 512;" xml:space="preserve">
<style type="text/css">
	.st0{fill:#FDD23B;}
	.st1{fill:#312F35;}
</style>
<circle class="st0" cx="280.9" cy="419.7" r="92.7"/>
<g>
	<path class="st1" d="M254.7,0c-32.3,0-58.5,26.2-58.5,58.5V339c-24.9,20.3-37.2,52.2-32.5,83.9c7.1,50.3,53.6,85.3,104,78.2
		c45.5-6.4,79.2-45.4,79.1-91.3c0.1-27.5-12.2-53.5-33.5-70.8V58.5C313.2,26.2,287,0,254.7,0z M329.9,409.8
		c0.1,41.6-33.6,75.3-75.2,75.4c-41.6,0.1-75.3-33.6-75.4-75.2c0-23.7,11.1-46.1,30.1-60.3c2.1-1.6,3.3-4.1,3.3-6.7v-25.2h16.7
		v-16.7h-16.7V276h16.7v-16.7h-16.7v-25.1h16.7v-16.7h-16.7v-25.1h16.7v-16.7h-16.7v-25.1h16.7v-16.7h-16.7v-25.1h16.7V92h-16.7
		V58.5c0-23.1,18.7-41.8,41.8-41.8c23.1,0,41.8,18.7,41.8,41.8V343c0,2.6,1.2,5.1,3.3,6.7C318.8,363.8,330,386.1,329.9,409.8z"/>
	<path class="st1" d="M263,368.8V75.3h-16.7v293.6c-22.6,4.6-37.2,26.7-32.6,49.3s26.7,37.2,49.3,32.6s37.2-26.7,32.6-49.3
		C292.3,385,279.5,372.2,263,368.8z M254.7,434.9c-13.9,0-25.1-11.2-25.1-25.1c0-13.9,11.2-25.1,25.1-25.1
		c13.9,0,25.1,11.2,25.1,25.1C279.8,423.7,268.5,434.9,254.7,434.9z"/>
</g>
</svg>
