<?xml version="1.0"?>
<svg xmlns="http://www.w3.org/2000/svg" xmlns:xlink="http://www.w3.org/1999/xlink" version="1.1" id="Capa_1" x="0px" y="0px" viewBox="0 0 507.987 507.987" style="enable-background:new 0 0 507.987 507.987;" xml:space="preserve" width="512px" height="512px"><g><g>
	<g>
		<path d="M506.01,128.805c-4.6-16.5-25.4-38-56.8-29l-108.6,33.7l12.7,39.1l-78,25.4l27.9,85.8l-24.6,8l-21.9-67.5    c-2.6-11.4-21.2-28.3-38.9-14.7l-208.9,151.5c-16.2,12.2-10.1,46.2,16.6,49.2l257.1-0.5c24,0,27.4-25,23.1-34.8l-22-67.5    l40.2-13.1l-27.9-85.8l62.4-20.3l10.1,31.1l108.5-33.6h0.1C502.21,177.205,512.71,152.805,506.01,128.805z M290.01,380.005    c1.7,4.8,0.8,12.6-6.6,13.4l-257.4,0.5c-7.1,0-13.7-13.7-7.1-19.9l208.9-151.4c5.6-4.4,12.1,2.1,13.2,6.9L290.01,380.005z     M472.11,170.105l-92.9,28.8l-17.8-54.6l92.8-28.8c22.8-6.1,33.8,11.1,36.2,18.4C495.31,149.005,487.11,165.205,472.11,170.105z" data-original="#000000" class="active-path" data-old_color="#312f35" fill="#312f35"/>
	</g>
</g><g>
	<g>
		<rect x="210.22" y="274.207" transform="matrix(0.9387 -0.3448 0.3448 0.9387 -83.9784 92.6274)" width="16.4" height="16.4" data-original="#000000" class="active-path" data-old_color="#312f35" fill="#312f35"/>
	</g>
</g><g>
	<g>
		<rect x="221.517" y="305.013" transform="matrix(0.9387 -0.3448 0.3448 0.9387 -93.9072 98.4116)" width="16.4" height="16.4" data-original="#000000" class="active-path" data-old_color="#312f35" fill="#312f35"/>
	</g>
</g><g>
	<g>
		<rect x="232.895" y="335.798" transform="matrix(0.9385 -0.3452 0.3452 0.9385 -103.9297 104.3747)" width="16.4" height="16.4" data-original="#000000" class="active-path" data-old_color="#312f35" fill="#312f35"/>
	</g>
</g></g> </svg>
