<?xml version="1.0"?>
<svg xmlns="http://www.w3.org/2000/svg" xmlns:xlink="http://www.w3.org/1999/xlink" version="1.1" id="Capa_1" x="0px" y="0px" viewBox="0 0 508 508" style="enable-background:new 0 0 508 508;" xml:space="preserve" width="512px" height="512px"><g><g>
	<g>
		<path d="M413.1,151.6h-85.3V381h41.7c3.9,23.2,24.1,41,48.4,41s44.5-17.8,48.4-41H508V246.5L413.1,151.6z M344.1,168h62.2    l73.7,73.7H344.1V168z M417.9,405.6c-18.1,0-32.8-14.7-32.8-32.8s14.7-32.8,32.8-32.8s32.8,14.7,32.8,32.8    S435.9,405.6,417.9,405.6z M491.7,364.6h-25.4c-3.9-23.2-24.1-41-48.4-41s-44.5,17.8-48.4,41h-25.3V258.1h147.5V364.6z" data-original="#000000" class="active-path" data-old_color="#312f35" fill="#312f35"/>
	</g>
</g><g>
	<g>
		<path d="M0,381h33.5c3.9,23.2,24.1,41,48.4,41c24.3,0,44.5-17.8,48.4-41h181V135.2H426V86H0V381z M81.9,405.6    c-18.1,0-32.8-14.7-32.8-32.8S63.9,340,81.9,340s32.8,14.7,32.8,32.8S100,405.6,81.9,405.6z M16.4,102.4h393.3v16.4H295v245.8    H130.4c-3.9-23.2-24.1-41-48.4-41s-44.5,17.8-48.4,41H16.4V102.4z" data-original="#000000" class="active-path" data-old_color="#312f35" fill="#312f35"/>
	</g>
</g><g>
	<g>
		<rect x="73.7" y="135.2" width="163.9" height="16.4" data-original="#000000" class="active-path" data-old_color="#312f35" fill="#312f35"/>
	</g>
</g><g>
	<g>
		<rect x="73.7" y="184.4" width="163.9" height="16.4" data-original="#000000" class="active-path" data-old_color="#312f35" fill="#312f35"/>
	</g>
</g><g>
	<g>
		<rect x="73.7" y="233.5" width="163.9" height="16.4" data-original="#000000" class="active-path" data-old_color="#312f35" fill="#312f35"/>
	</g>
</g><g>
	<g>
		<rect x="73.7" y="282.7" width="163.9" height="16.4" data-original="#000000" class="active-path" data-old_color="#312f35" fill="#312f35"/>
	</g>
</g></g> </svg>
