<?xml version="1.0" encoding="utf-8"?>
<!-- Generator: Adobe Illustrator 21.0.2, SVG Export Plug-In . SVG Version: 6.00 Build 0)  -->
<svg version="1.1" id="Слой_1" xmlns="http://www.w3.org/2000/svg" xmlns:xlink="http://www.w3.org/1999/xlink" x="0px" y="0px"
	 viewBox="0 0 512 512" style="enable-background:new 0 0 512 512;" xml:space="preserve">
<style type="text/css">
	.st0{fill:#FDD23B;}
	.st1{fill:#312F35;}
	.st2{display:none;fill:#312F35;}
</style>
<circle class="st0" cx="140.8" cy="208.6" r="132.8"/>
<g>
	<path class="st1" d="M182,358.4c82.6,0,128-48.5,128-136.6c0-82.5-116.7-213.6-121.7-219.1C186.7,1,184.4,0,182,0
		c-2.4,0-4.7,1-6.4,2.7C170.7,8.2,54,139.3,54,221.8C54,309.9,99.5,358.4,182,358.4z M182,21.4c24.4,28.7,111,134.8,111,200.4
		c0,54.5-19.3,119.5-111,119.5s-111-65-111-119.5C71.1,156.2,157.6,50.1,182,21.4z"/>
	<path class="st1" d="M421,375.4c48.8,0,76.8-32.6,76.8-89.4c0-53.4-67.7-126.7-70.6-129.8c-1.7-1.7-3.9-2.6-6.2-2.6
		c-2.3,0-4.6,0.9-6.2,2.6c-2.9,3.1-70.6,76.4-70.6,129.8C344.2,342.9,372.2,375.4,421,375.4z M421,174.9
		c16.5,19.2,59.7,73.1,59.7,111.1c0,48-20.1,72.3-59.7,72.3S361.3,334,361.3,286C361.3,248.1,404.6,194.1,421,174.9z"/>
	<path class="st1" d="M295.1,344.2c-2.2,2.5-53.3,60.9-53.3,99.5c0,43.4,21.8,68.3,59.7,68.3c38,0,59.7-24.9,59.7-68.3
		c0-38.6-51.2-97.1-53.3-99.5c-1.7-1.8-4-2.8-6.4-2.8C299.1,341.4,296.8,342.4,295.1,344.2z M301.5,494.9
		c-28.3,0-42.7-17.2-42.7-51.2c0-23.2,26.7-61,42.7-80.6c16,19.6,42.7,57.4,42.7,80.6C344.2,477.7,329.9,494.9,301.5,494.9z"/>
	<path class="st1" d="M164.1,324.2c0.3,0,0.6,0,0.9,0c4.5,0,8.3-3.6,8.5-8.1c0.2-4.5-3.1-8.5-7.7-8.9c-17.8-0.9-34.4-9.4-45.6-23.3
		c-22.7-29.6-15.2-77.3-15.1-77.8c0.6-4.6-2.5-8.8-7.1-9.6c-4.6-0.8-8.9,2.2-9.8,6.8c-0.4,2.3-8.8,55.4,18.3,90.9
		C120.6,312,141.5,322.9,164.1,324.2z"/>
	<path class="st1" d="M412.5,341.3c15.7-0.2,30.8-6.7,41.7-18c9.5-12.2,12.9-28.1,9.3-43.2c-0.9-4.6-5.2-7.6-9.8-6.8
		c-4.6,0.8-7.7,5-7,9.6c2.6,10.1,0.6,20.8-5.5,29.2c-7.7,7.5-18,11.8-28.8,12c-4.7,0-8.5,3.8-8.5,8.5
		C404,337.5,407.8,341.3,412.5,341.3z"/>
	<path class="st1" d="M296.8,461.7c-2.7-1.1-4.7-3.3-5.6-6c-0.9-2.7-0.6-5.7,0.9-8.2c2.1-4.2,0.4-9.3-3.8-11.5
		c-4.2-2.1-9.3-0.4-11.5,3.8c-3.5,6.5-4.2,14.2-1.8,21.2c2.3,7,7.5,12.8,14.2,15.9c4.2,2.1,9.3,0.4,11.5-3.8
		C302.7,469,301,463.8,296.8,461.7L296.8,461.7z"/>
</g>
<rect x="260" y="-44" transform="matrix(0.7883 0.6153 -0.6153 0.7883 212.5498 -110.6878)" class="st2" width="14.2" height="595"/>
<path class="st1" d="M85,498.1L85,498.1c-3.5-2.7-4.1-7.7-1.4-11.2L447.9,16.3c2.7-3.5,7.7-4.1,11.2-1.4l0,0
	c3.5,2.7,4.1,7.7,1.4,11.2L96.2,496.7C93.5,500.1,88.5,500.8,85,498.1z"/>
</svg>
