<?xml version="1.0" encoding="utf-8"?>
<!-- Generator: Adobe Illustrator 21.0.2, SVG Export Plug-In . SVG Version: 6.00 Build 0)  -->
<svg version="1.1" id="Capa_1" xmlns="http://www.w3.org/2000/svg" xmlns:xlink="http://www.w3.org/1999/xlink" x="0px" y="0px"
	 viewBox="0 0 512 512" style="enable-background:new 0 0 512 512;" xml:space="preserve">
<style type="text/css">
	.st0{fill:#FDD23B;}
	.st1{fill:#312F35;}
</style>
<circle class="st0" cx="286.1" cy="291" r="220.9"/>
<g>
	<g>
		<g>
			<path class="st1" d="M252.5,38.7c-117.9,0-212.9,95.9-212.9,212.9s95.9,213.8,212.9,213.8c117.9,0,213.8-95.9,213.8-212.9
				S370.4,38.7,252.5,38.7z M243.7,447.8c-101.2-4.4-182.1-86.2-186.5-186.5h186.5V447.8z M243.7,242.8H57.2
				c4.4-100.3,85.3-181.2,186.5-186.5V242.8z M261.3,56.3c101.2,5.3,182.1,86.2,186.5,187.4H261.3V56.3z M261.3,447.8V261.3h186.5
				C443.4,361.6,362.5,443.4,261.3,447.8z"/>
		</g>
	</g>
	<g>
		<g>
			<path class="st1" d="M252.5,0C113.5,0,0,112.6,0,252.5C0,391.5,113.5,505,252.5,505S505,391.5,505,252.5S391.5,0,252.5,0z
				 M252.5,487.4c-129.3,0-234.9-105.6-234.9-234.9c0-130.2,105.6-234.9,234.9-234.9s234.9,105.6,234.9,234.9
				S381.8,487.4,252.5,487.4z"/>
		</g>
	</g>
</g>
</svg>
