<?xml version="1.0"?>
<svg xmlns="http://www.w3.org/2000/svg" xmlns:xlink="http://www.w3.org/1999/xlink" version="1.1" id="Capa_1" x="0px" y="0px" viewBox="0 0 339.968 339.968" style="enable-background:new 0 0 339.968 339.968;" xml:space="preserve" width="512px" height="512px"><g><g>
	<g>
		<path d="M324.313,305.664h-20.992V5.12c0-3.072-2.048-5.12-5.12-5.12h-256c-3.072,0-5.12,2.048-5.12,5.12v300.544H16.089    c-3.072,0-5.12,2.048-5.12,5.12v24.064c0,3.072,2.048,5.12,5.12,5.12h307.712c3.072,0,5.12-2.048,5.12-5.12v-24.064    C329.433,308.224,327.385,305.664,324.313,305.664z M47.833,10.24h245.76v295.424h-13.312V28.16c0-3.072-2.048-5.12-5.12-5.12    H66.265c-3.072,0-5.12,2.048-5.12,5.12v277.504H47.833V10.24z M165.593,127.488v83.968H71.385v-83.968H165.593z M71.385,117.248    V33.28h94.208v83.968h-0.512H71.385z M270.041,221.696v83.968H71.385v-83.968H270.041z M269.529,127.488v83.968h-94.208v-83.968    H269.529z M175.321,117.248V33.28h94.208v83.968H175.321z M319.705,329.728h-0.512H21.721v-13.824h44.544h208.896h44.544V329.728z    " data-original="#000000" class="active-path" data-old_color="#312f35" fill="#312f35"/>
	</g>
</g></g> </svg>
