<?xml version="1.0"?>
<svg xmlns="http://www.w3.org/2000/svg" xmlns:xlink="http://www.w3.org/1999/xlink" version="1.1" id="Capa_1" x="0px" y="0px" viewBox="0 0 293.888 293.888" style="enable-background:new 0 0 293.888 293.888;" xml:space="preserve" width="512px" height="512px"><g><g>
	<g>
		<path d="M146.944,22.528c-68.608,0-123.904,55.808-123.904,123.904s55.808,124.416,123.904,124.416    c68.608,0,124.416-55.808,124.416-123.904C271.36,78.848,215.552,22.528,146.944,22.528z M141.824,260.608    c-58.88-2.56-105.984-50.176-108.544-108.544h108.544V260.608z M141.824,141.312H33.28C35.84,82.944,82.944,35.84,141.824,32.768    V141.312z M152.064,32.768c58.88,3.072,105.984,50.176,108.544,109.056H152.064V32.768z M152.064,260.608V152.064h108.544    C258.048,210.432,210.944,258.048,152.064,260.608z" data-original="#000000" class="active-path" data-old_color="#312f35" fill="#312f35"/>
	</g>
</g><g>
	<g>
		<path d="M146.944,0C66.048,0,0,65.536,0,146.944c0,80.896,66.048,146.944,146.944,146.944s146.944-66.048,146.944-146.944    S227.84,0,146.944,0z M146.944,283.648c-75.264,0-136.704-61.44-136.704-136.704c0-75.776,61.44-136.704,136.704-136.704    s136.704,61.44,136.704,136.704S222.208,283.648,146.944,283.648z" data-original="#000000" class="active-path" data-old_color="#312f35" fill="#312f35"/>
	</g>
</g></g> </svg>
