<svg width="28" height="39" viewBox="0 0 28 39" fill="none" xmlns="http://www.w3.org/2000/svg">
<path d="M26.7046 9.83559L26.708 9.84819L26.712 9.86059C26.7179 9.87878 26.7303 9.91517 26.748 9.96661C26.8062 10.1366 26.9208 10.4711 27.0402 10.8561C27.1161 11.1012 27.1892 11.352 27.2428 11.5679C27.3005 11.8003 27.3224 11.9423 27.3224 11.9947V11.9948V13.832C27.3224 15.9298 26.3903 18.0864 25.1004 20.3298C24.5194 21.3402 23.8758 22.3521 23.2253 23.3749C23.1566 23.4828 23.088 23.5908 23.0193 23.6989C22.3021 24.8277 21.5847 25.9692 20.9605 27.1121L20.9587 27.1154C20.866 27.2882 20.7091 27.4818 20.5029 27.7307L20.4825 27.7554C20.2969 27.9794 20.0748 28.2474 19.9162 28.5246L19.9161 28.5248C19.7581 28.8014 19.5819 29.097 19.4007 29.4007C19.13 29.8546 18.8485 30.3267 18.601 30.7805C17.7796 32.1813 16.9464 33.6175 16.109 35.0609C15.5352 36.0501 14.9594 37.0427 14.384 38.0296C14.1657 37.677 13.9473 37.3245 13.7289 36.9719C11.5584 33.4682 9.38594 29.9612 7.28121 26.4045C6.79871 25.5858 6.29389 24.7748 5.78904 23.9637C5.06899 22.807 4.34887 21.6501 3.69335 20.4705C2.59011 18.4852 1.74162 16.5527 1.51015 14.7101C1.49503 14.5696 1.48127 14.3506 1.47116 14.1493C1.46614 14.0495 1.46218 13.9573 1.45948 13.8862C1.45813 13.8506 1.45711 13.8207 1.45644 13.7981L1.45573 13.7711C1.45559 13.7648 1.45557 13.7623 1.45557 13.7623L1.45557 13.7626V12.125C2.30165 4.29394 8.52974 0.5 14.2075 0.5C18.462 0.5 23.6976 2.57285 26.0968 8.33874L26.0968 8.33876L26.099 8.34404C26.1595 8.48476 26.2216 8.62237 26.2825 8.75745C26.4515 9.13226 26.6117 9.48754 26.7046 9.83559ZM9.28103 14.9748L9.28092 14.9748L9.28491 14.985C10.3048 17.5917 12.4024 18.5615 14.3154 18.5615C17.3552 18.5615 19.8834 16.1293 19.8834 13.0699C19.8834 10.03 17.5242 7.57738 14.4648 7.57738C13.2448 7.57738 11.9207 7.95116 10.8904 8.75853C9.84537 9.57737 9.12233 10.8294 9.12233 12.5142V13.5889C9.12233 13.5917 9.1223 13.5961 9.12227 13.602C9.12194 13.6607 9.12076 13.868 9.13501 14.1088C9.14969 14.3569 9.18361 14.7087 9.28103 14.9748Z" fill="#FFC725" stroke="#151D28"/>
</svg>
