<svg width="16" height="22" viewBox="0 0 16 22" fill="none" xmlns="http://www.w3.org/2000/svg">
<path d="M15.5088 5.47556C15.4305 5.18207 15.2714 4.86934 15.1538 4.59554C13.7461 1.21244 10.6702 0 8.18662 0C4.86188 0 1.20006 2.22938 0.711182 6.82467V7.76351C0.711182 7.80269 0.724685 8.15464 0.743866 8.3307C1.01792 10.5207 2.74599 12.8482 4.03659 15.0382C5.42508 17.3845 6.86585 19.6927 8.29326 21.9999C9.17344 20.4943 10.0504 18.9688 10.9106 17.5022C11.145 17.0718 11.4171 16.6416 11.6518 16.2308C11.8082 15.9572 12.107 15.6837 12.2435 15.4292C13.6319 12.8871 15.8668 10.3254 15.8668 7.80264V6.76625C15.8669 6.49276 15.5278 5.53453 15.5088 5.47556ZM8.24748 10.1885C7.27018 10.1885 6.20045 9.69986 5.67244 8.35029C5.59377 8.13546 5.60011 7.70494 5.60011 7.66551V7.05929C5.60011 5.33884 7.06093 4.55646 8.33178 4.55646C9.89633 4.55646 11.1064 5.80818 11.1064 7.37273C11.1064 8.93722 9.81203 10.1885 8.24748 10.1885Z" fill="#FFC725"/>
</svg>
