<?xml version="1.0" encoding="utf-8"?>
<!-- Generator: Adobe Illustrator 21.0.0, SVG Export Plug-In . SVG Version: 6.00 Build 0)  -->
<svg version="1.1" id="Icons_-_60px" xmlns="http://www.w3.org/2000/svg" xmlns:xlink="http://www.w3.org/1999/xlink" x="0px"
	 y="0px" viewBox="0 0 60 60" style="enable-background:new 0 0 60 60;" xml:space="preserve">
<style type="text/css">
	.st0{fill:#998E40;}
</style>
<title>ico-consejos</title>
<g>
	<g>
		<path class="st0" d="M51.8,0c-6.6,0-12.3,4.7-13.6,11.1H32V8.2C32,7.5,31.5,7,30.8,7h-9.4c-0.7,0-1.2,0.5-1.2,1.2v10.6
			c-5.2,0.6-9.2,5-9.2,10.3v29.7c0,0.7,0.5,1.2,1.2,1.2H40c0.7,0,1.2-0.5,1.2-1.2V29.1c0-5.3-4-9.7-9.2-10.3V17h6.3
			c0.7,2.8,2.2,5.4,4.4,7.3c2.5,2.2,5.7,3.4,9.1,3.4c0.7,0,1.2-0.5,1.2-1.2V1.2C53,0.5,52.5,0,51.8,0z M22.6,9.3h7v1.7h-7V9.3z
			 M22.6,17h7v1.7h-7V17z M38.8,29.1v28.5H13.4V29.1c0-4.4,3.6-8,8-8h9.4C35.3,21.1,38.8,24.7,38.8,29.1z M38,14.6H22.6v-1.1h15.3v0
			l0,0c0,0.1,0,0.3,0,0.4C37.9,14.1,37.9,14.4,38,14.6L38,14.6z M48,11.2c-0.7,0-1.2,0.5-1.2,1.2v11.8c-3.3-1.6-5.8-4.8-6.4-8.6
			c-0.1-0.6-0.1-1.2-0.1-1.8c0-0.5,0-1,0.1-1.4v0c0.7-5.3,4.9-9.4,10.2-10v22.8c-0.5,0-0.9-0.1-1.4-0.2V12.4
			C49.2,11.7,48.7,11.2,48,11.2z"/>
	</g>
</g>
</svg>
