<?xml version="1.0" encoding="utf-8"?>
<!-- Generator: Adobe Illustrator 23.0.3, SVG Export Plug-In . SVG Version: 6.00 Build 0)  -->
<svg version="1.1" id="Layer_1" xmlns="http://www.w3.org/2000/svg" xmlns:xlink="http://www.w3.org/1999/xlink" x="0px" y="0px"
	 viewBox="0 0 103 93" style="enable-background:new 0 0 103 93;" xml:space="preserve">
<style type="text/css">
	.st0{fill:#C8C8CA;}
	.st1{fill:#627C8C;}
	.st2{fill:#003000;}
</style>
<g>
	<g>
		<g>
			<rect x="63.2" y="33.1" class="st0" width="7.8" height="15.8"/>
		</g>
	</g>
	<g>
		<g>
			<rect x="53.9" y="27.2" class="st0" width="7.8" height="21.7"/>
		</g>
	</g>
	<g>
		<g>
			<rect x="44.6" y="36.9" class="st0" width="7.8" height="11.9"/>
		</g>
	</g>
	<g>
		<g>
			<path class="st1" d="M19.9,56.5c2.3,2.3,5.4,3.6,8.6,3.6c0.9,0,1.9-0.1,2.8-0.3v-5.6c-4.5,2-9.7-1.3-9.7-6.3
				c0-4.9,5.1-8.3,9.7-6.3V36c-0.9-0.2-1.8-0.3-2.8-0.3C17.7,35.7,12.2,48.8,19.9,56.5z"/>
		</g>
		<g>
			<path class="st1" d="M31.3,62.7c-4.9,0.9-9.9-0.6-13.5-4.2C7.3,48.1,16.8,30.4,31.3,33v-5.4C11.9,25.1,0.2,48.5,14,62.3
				c4.5,4.5,10.8,6.7,17.2,5.8V62.7z"/>
		</g>
		<g>
			<g>
				<polygon class="st0" points="13.2,32.2 5.7,24.7 6.3,19 13.8,26.6 				"/>
			</g>
		</g>
		<g>
			<g>
				<polygon class="st0" points="13.2,32.2 5.7,24.7 0,25.3 7.5,32.8 				"/>
			</g>
		</g>
		<g>
			<g>
				<path class="st2" d="M26.5,46.9L4.8,25.6c-1.2-1.1,0.6-2.9,1.7-1.7l21.7,21.3c0.5,0.5,0.5,1.3,0,1.7
					C27.7,47.3,27,47.3,26.5,46.9z"/>
			</g>
		</g>
	</g>
	<g>
		<g>
			<path class="st2" d="M25.2,76.3c-1.7,0-1.7-2.6,0-2.6C26.9,73.8,26.9,76.3,25.2,76.3z"/>
		</g>
	</g>
	<g>
		<g>
			<path class="st2" d="M88.6,47c0,1.7-2.6,1.7-2.6,0C86.1,45.3,88.6,45.3,88.6,47z"/>
		</g>
	</g>
	<g>
		<g>
			<g>
				<path class="st0" d="M85.5,75.6V58.1c-1.1,0-2.2,0.1-3.3,0.3v25.9H70.4c8.9,15.4,32.6,9.1,32.6-8.7H85.5z"/>
			</g>
		</g>
		<g>
			<path class="st1" d="M103,73.4c0-8.4-6.9-15.2-15.3-15.2v15.2H103z"/>
		</g>
		<g>
			<g>
				<path class="st0" d="M43.8,13.5l7.7-7.7c0.5-0.5,1.3-0.5,1.8,0l5.5,5.4L68.9,1.1c1.2-1.2,2.9,0.6,1.8,1.8l-11,11
					c-0.5,0.5-1.3,0.5-1.8,0l-5.5-5.4l-6.8,6.8C44.4,16.4,42.7,14.6,43.8,13.5z"/>
			</g>
		</g>
		<g>
			<g>
				<path class="st2" d="M67.5,90.9H25.3c-0.7,0-1.2-0.6-1.2-1.2v-10c0-1.6,2.5-1.6,2.5,0v8.8h41c0.7,0,1.2,0.6,1.2,1.2
					S68.2,90.9,67.5,90.9z"/>
			</g>
		</g>
		<g>
			<g>
				<path class="st2" d="M86.3,42v-31H75.4c-1.6,0-1.6-2.5,0-2.5h12.2c0.7,0,1.2,0.6,1.2,1.2V42C88.8,43.7,86.3,43.7,86.3,42z"/>
			</g>
		</g>
		<g>
			<g>
				<path class="st2" d="M82,85.3H30.6c-0.7,0-1.2-0.6-1.2-1.2V15.7c0-0.7,0.6-1.2,1.2-1.2H82c0.7,0,1.2,0.6,1.2,1.2V84
					C83.2,84.7,82.7,85.3,82,85.3z M31.9,82.8h48.9V17H31.9V82.8z"/>
			</g>
		</g>
		<g>
			<g>
				<path class="st0" d="M69.5,7.4V2.5h-4.9c-1.6,0-1.6-2.5,0-2.5h6.1c0.7,0,1.2,0.6,1.2,1.2v6.1C71.9,9,69.5,9,69.5,7.4z"/>
			</g>
		</g>
	</g>
	<g>
		<g>
			<path class="st2" d="M72.8,60h-9.5c-1.6,0-1.6-2.5,0-2.5h9.5c0.7,0,1.2,0.6,1.2,1.2S73.4,60,72.8,60z"/>
		</g>
	</g>
	<g>
		<g>
			<path class="st2" d="M58.1,60h-18c-1.6,0-1.6-2.5,0-2.5h18c0.7,0,1.2,0.6,1.2,1.2S58.8,60,58.1,60z"/>
		</g>
	</g>
	<g>
		<g>
			<path class="st2" d="M73.4,66.4H40.1c-1.6,0-1.6-2.5,0-2.5h33.3c0.7,0,1.2,0.6,1.2,1.2C74.6,65.9,74.1,66.4,73.4,66.4z"/>
		</g>
	</g>
	<g>
		<g>
			<path class="st2" d="M58.1,73.6h-18c-1.6,0-1.6-2.5,0-2.5h18c0.7,0,1.2,0.6,1.2,1.2C59.4,73.1,58.8,73.6,58.1,73.6z"/>
		</g>
	</g>
	<g>
		<g>
			<path class="st2" d="M73.6,51H40.1c-0.7,0-1.2-0.6-1.2-1.2V26.7c0-1.6,2.5-1.6,2.5,0v21.9h32.2c0.7,0,1.2,0.6,1.2,1.2
				C74.8,50.5,74.3,51,73.6,51z"/>
		</g>
	</g>
</g>
</svg>
