<?xml version="1.0" encoding="utf-8"?>
<!-- Generator: Adobe Illustrator 23.0.3, SVG Export Plug-In . SVG Version: 6.00 Build 0)  -->
<svg version="1.1" id="Layer_1" xmlns="http://www.w3.org/2000/svg" xmlns:xlink="http://www.w3.org/1999/xlink" x="0px" y="0px"
	 viewBox="0 0 90 93" style="enable-background:new 0 0 90 93;" xml:space="preserve">
<style type="text/css">
	.st0{fill:#C8C8CA;}
	.st1{fill:#627C8C;}
	.st2{fill:#003000;}
	.st3{fill:#FFFFFF;}
</style>
<g>
	<g>
		<g>
			<g>
				<rect x="26.7" y="45.5" class="st0" width="20.3" height="4.4"/>
			</g>
		</g>
		<g>
			<g>
				<rect x="26.7" y="38.1" class="st0" width="20.3" height="4.4"/>
			</g>
		</g>
		<g>
			<path class="st1" d="M37.7,23.9c-0.3,1.6-0.9,3-1.6,4.4H47v-4.4H37.7z"/>
		</g>
		<g>
			<path class="st1" d="M34.3,31.1c-1.4,1.8-3.2,3.3-5.2,4.4H47v-4.4H34.3z"/>
		</g>
	</g>
	<g>
		<g>
			<path class="st0" d="M35.8,10.7c-1.7,0-1.7-2.6,0-2.6C37.5,8.1,37.5,10.7,35.8,10.7z"/>
		</g>
	</g>
	<g>
		<g>
			<path class="st2" d="M85,79.8c-1.7,0-1.7-2.6,0-2.6C86.7,77.3,86.7,79.8,85,79.8z"/>
		</g>
	</g>
	<g>
		<g>
			<path class="st1" d="M88.8,44.1v15.8c0,1.7-1.4,3-3,3H69.8V44.1H88.8z"/>
		</g>
		<g>
			<g>
				<path class="st2" d="M86.2,61.6c0.8-0.2,1.3-0.9,1.3-1.7V6.5c0-1-0.8-1.8-1.8-1.8H50.9c-1,0-1.8,0.8-1.8,1.8V51
					c0,1.6-2.5,1.6-2.5,0V6.5c0-2.3,1.9-4.2,4.3-4.2h34.8c2.4,0,4.3,1.9,4.3,4.2v53.4c0,1.9-1.3,3.5-3.1,4.1
					C85.3,64.4,84.6,62,86.2,61.6z"/>
			</g>
		</g>
		<g>
			<g>
				<path class="st2" d="M67.1,62.9V23.4c0-1.6,2.5-1.6,2.5,0v39.5C69.6,64.5,67.1,64.5,67.1,62.9z"/>
			</g>
		</g>
		<g>
			<g>
				<path class="st2" d="M87.3,43.9h-38c-1.6,0-1.6-2.5,0-2.5h38c0.7,0,1.2,0.6,1.2,1.2S88,43.9,87.3,43.9z"/>
			</g>
		</g>
		<g>
			<g>
				<path class="st2" d="M87.3,23.6h-38c-1.6,0-1.6-2.5,0-2.5h38c0.7,0,1.2,0.6,1.2,1.2C88.5,23.1,88,23.6,87.3,23.6z"/>
			</g>
		</g>
		<g>
			<path class="st3" d="M58.1,28.2v8.7V28.2z"/>
			<path class="st2" d="M56.9,36.8v-8.7c0-1.6,2.5-1.6,2.5,0v8.7C59.3,38.5,56.9,38.5,56.9,36.8z"/>
		</g>
		<g>
			<path class="st3" d="M53.7,32.5h8.8H53.7z"/>
			<path class="st2" d="M62.5,33.7h-8.8c-1.6,0-1.6-2.5,0-2.5h8.8c0.7,0,1.2,0.6,1.2,1.2C63.7,33.2,63.2,33.7,62.5,33.7z"/>
		</g>
		<g>
			<path class="st3" d="M61.2,49.7L55,55.8L61.2,49.7z"/>
			<path class="st2" d="M54.1,55l6.2-6.1c1.2-1.2,2.9,0.6,1.8,1.7l-6.2,6.1C54.7,57.9,53,56.1,54.1,55z"/>
		</g>
		<g>
			<path class="st3" d="M55,49.7l6.2,6.1L55,49.7z"/>
			<path class="st2" d="M60.3,56.7l-6.2-6.1c-1.2-1.2,0.6-2.9,1.8-1.7l6.2,6.1c0.5,0.5,0.5,1.3,0,1.7C61.6,57.2,60.8,57.2,60.3,56.7
				z"/>
		</g>
		<g>
			<path class="st3" d="M74.2,32.5h8.8H74.2z"/>
			<path class="st2" d="M82.9,33.7h-8.8c-1.6,0-1.6-2.5,0-2.5h8.8c0.7,0,1.2,0.6,1.2,1.2C84.2,33.2,83.6,33.7,82.9,33.7z"/>
		</g>
		<g>
			<path class="st3" d="M74.2,49.9h8.8H74.2z"/>
			<path class="st2" d="M82.9,51.1h-8.8c-1.6,0-1.6-2.5,0-2.5h8.8c0.7,0,1.2,0.6,1.2,1.2C84.2,50.6,83.6,51.1,82.9,51.1z"/>
		</g>
		<g>
			<path class="st3" d="M74.2,55.7h8.8H74.2z"/>
			<path class="st2" d="M82.9,56.9h-8.8c-1.6,0-1.6-2.5,0-2.5h8.8c0.7,0,1.2,0.6,1.2,1.2S83.6,56.9,82.9,56.9z"/>
		</g>
		<g>
			<g>
				<path class="st2" d="M82.9,17.8H53.7c-0.7,0-1.2-0.6-1.2-1.2V9.4c0-0.7,0.6-1.2,1.2-1.2h29.2c0.7,0,1.2,0.6,1.2,1.2v7.2
					C84.2,17.3,83.6,17.8,82.9,17.8z M55,15.4h26.7v-4.8H55V15.4z"/>
			</g>
		</g>
	</g>
	<g>
		<g>
			<g>
				<path class="st0" d="M85.9,66.7c-1.3,0.8-3.3,1.5-5.5,3C75,73.1,65,79.5,63.8,80c-6.7,2.6-23-4.2-30.7-3.9
					c-2.8,0.1-10.8,1.2-10.8,1.2l-3.6-16.7c-0.3,0.1-0.7,0.2-1,0.3l4.5,21.3c13.3-1.8,11.4-1.8,28.7,2.1c8.6,1.9,10.9,1.4,12.8,0.7
					C65,84.4,75,78.1,80.4,74.6c3.7-2.4,6.6-3,7.2-4.6C88.2,68.5,87.2,67.3,85.9,66.7z"/>
			</g>
		</g>
		<g>
			<g>
				<path class="st0" d="M46.5,68.3l10.6,4.8c1.1,0.5,2.5,0.2,3.3-0.7c0,0,0,0,0,0c0.4-0.4,0.7-1,0.7-1.7c1.6-1.2,2.2-3.9,0.8-5.8
					c0.1-0.1,0.2-0.3,0.3-0.5c-0.6-0.3-0.4-0.2-1.3-0.6c0.3,0.2,0.6,0.5,0.8,0.8c-0.1,1.6-1.4,2.8-2.9,2.8c-0.8,0-0.3,0.1-9.5-4
					c0,0,0,0,0,0c-0.6-0.3-1-0.5-1.7-0.5c-1.1,0-2.2,0.6-2.6,1.7C44.4,66,45.1,67.7,46.5,68.3z"/>
			</g>
		</g>
		<g>
			<g>
				<path class="st2" d="M16.3,90.3l6-1.1l-6.1-29l-2.5,0.6c-1.6,0.4-2.2-2.1-0.5-2.5l3.8-0.8c0.7-0.2,1.4,0.3,1.5,1
					c7.1,33.8,6.8,31.8,6.4,32.4c-0.4,0.6-0.3,0.4-8.1,1.9C15.1,93.1,14.6,90.6,16.3,90.3z"/>
			</g>
		</g>
		<g>
			<g>
				<path class="st2" d="M42.1,89.7c-1.6-0.4-1.1-2.8,0.5-2.5c2.3,0.5,4.8,1.1,7.6,1.7c14.3,3.2,14.5,1.6,30-8.3
					c1.4-0.9,2.8,1.2,1.4,2.1C62.4,95.1,65.3,94.8,42.1,89.7z"/>
			</g>
		</g>
		<g>
			<g>
				<path class="st2" d="M51,86c-8.2-1.8-14.5-3.4-17.8-3.3c-2.7,0.1-10.7,1.2-10.8,1.2c-0.7,0.1-1.3-0.3-1.4-1l-4.6-21.5
					c-0.1-0.6,0.2-1.3,0.9-1.5c8.9-2.8,11.8-8.2,23.1-7.7c1.9,0.1,7,2.8,15.2,7.2c6.1,3.3,7.7,3.6,8.6,6.5c0.5,1.7,0.3,3.4-0.7,4.9
					c6.7-1.9,15.4-7.7,23-5.1l0,0c2.3,0.8,3.8,2.9,3,5.1c-0.8,2.3-3.9,2.8-7.8,5.3c-2.6,1.6-15.4,9.9-17,10.5
					C62.2,87.6,59.5,87.9,51,86z M48.4,82.8c7.7,1.8,12.1,2.7,15.3,1.4c2-0.8,15.9-10.2,20.6-12.5c1.8-0.9,3.3-1.5,2.7-2.7
					c-0.2-0.4-0.7-0.8-1.4-1.1c-4.6-1.6-10.1,0.6-15.3,2.8c-5.5,2.3-10.7,4.4-14.7,1.8c-0.6-0.4-0.7-1.1-0.4-1.7
					c0.3-0.6,1.1-0.8,1.7-0.5c1.6,0.8,3.6,0.2,4.5-1.4c0.8-1.6,0.2-3.6-1.4-4.4c-19.5-10.2-18.2-11.1-27.4-9.3
					c-0.9,0.2-3.1,1.3-5.3,2.5c-2.6,1.4-5.6,3-8.3,4l4.1,19.3C34.9,79.8,34.2,79.6,48.4,82.8z"/>
			</g>
		</g>
	</g>
	<g>
		<g>
			<g>
				<ellipse class="st0" cx="20.5" cy="20.3" rx="14.2" ry="14.1"/>
			</g>
		</g>
		<g>
			<g>
				<path class="st3" d="M19.7,29.7l0-1c0.1-1.7,2.6-1.6,2.5,0.1l0,1C22.2,31.5,19.6,31.4,19.7,29.7z"/>
			</g>
			<g>
				<path class="st3" d="M19.4,12.5l0-1.1c0.1-1.6,2.6-1.6,2.5,0.1l0,1.1C21.8,14.2,19.3,14.1,19.4,12.5z"/>
			</g>
			<g>
				<path class="st3" d="M15.2,26.3c-1.1-1.3,0.8-2.9,1.9-1.6c3,3.5,8.8,0.9,6.2-2.3c-1.5-1.9-5.2-0.5-7.2-3.3
					c-2.2-3.3,0.2-7.8,5.1-7.3c2.6,0.3,5.8,2.9,4,4.2c-0.6,0.4-1.4,0.3-1.8-0.3c-2.3-3.1-7.1-0.9-5.2,1.9c1.1,1.7,4.9,0.4,7.1,3.2
					C30,26.8,20.3,32.2,15.2,26.3z"/>
			</g>
		</g>
	</g>
	<g>
		<g>
			<path class="st0" d="M10.8,38.2C4.1,34.6,0,27.8,0,20.3C0,3.4,19.7-6,33,4.3c1.3,1-0.2,2.9-1.5,1.9c-11.7-9-29-0.7-29,14.1
				c0,6.6,3.6,12.6,9.5,15.7c0.6,0.3,0.8,1.1,0.5,1.7C12.1,38.3,11.4,38.5,10.8,38.2z"/>
		</g>
	</g>
</g>
</svg>
