<?xml version="1.0" encoding="utf-8"?>
<!-- Generator: Adobe Illustrator 23.0.3, SVG Export Plug-In . SVG Version: 6.00 Build 0)  -->
<svg version="1.1" id="Layer_1" xmlns="http://www.w3.org/2000/svg" xmlns:xlink="http://www.w3.org/1999/xlink" x="0px" y="0px"
	 viewBox="0 0 101 87" style="enable-background:new 0 0 101 87;" xml:space="preserve">
<style type="text/css">
	.st0{fill:#C8C8CA;}
	.st1{fill:#003000;}
	.st2{fill:#627C8C;}
	.st3{fill:#FFFFFF;}
</style>
<g>
	<g>
		<g>
			<g>
				<path class="st0" d="M11.3,42.8l8.8,3.8l6.4,0.7l8,23.1l5.6-0.6l7.2-6.3l7.9,8.5L41.4,82.2l-5.2,1.4L34.9,85
					c-4.9,0.4,0.1,0.2-29.7,0.6C3.8,71,3.7,76.6,5.6,61L11.3,42.8z"/>
			</g>
		</g>
		<g>
			<g>
				<path class="st1" d="M89,86.9H54.8c-0.7,0-1.2-0.6-1.2-1.2v-8c0-0.7,0.6-1.2,1.2-1.2H89c0.7,0,1.2,0.6,1.2,1.2v8
					C90.2,86.3,89.7,86.9,89,86.9z M56.1,84.4h31.6v-5.5H56.1V84.4z"/>
			</g>
		</g>
		<g>
			<rect x="60.7" y="68.7" class="st2" width="34.1" height="8.9"/>
			<path class="st1" d="M94.8,78.9H60.7c-0.7,0-1.2-0.6-1.2-1.2v-8.9c0-0.7,0.6-1.2,1.2-1.2h34.1c0.7,0,1.2,0.6,1.2,1.2v8.9
				C96.1,78.3,95.5,78.9,94.8,78.9z M62,76.4h31.6v-6.4H62V76.4z"/>
		</g>
		<g>
			<g>
				<path class="st1" d="M66.8,77v-8.3c0-1.6,2.5-1.6,2.5,0V77C69.3,78.7,66.8,78.7,66.8,77z"/>
			</g>
		</g>
		<g>
			<g>
				<path class="st1" d="M72.4,77v-8.3c0-1.6,2.5-1.6,2.5,0V77C74.9,78.7,72.4,78.7,72.4,77z"/>
			</g>
		</g>
		<g>
			<g>
				<path class="st1" d="M73.7,85.6v-7.5c0-1.6,2.5-1.6,2.5,0v7.5C76.2,87.3,73.7,87.3,73.7,85.6z"/>
			</g>
		</g>
		<g>
			<g>
				<path class="st1" d="M79.4,85.6v-7.5c0-1.6,2.5-1.6,2.5,0v7.5C81.9,87.3,79.4,87.3,79.4,85.6z"/>
			</g>
		</g>
		<g>
			<g>
				<path class="st1" d="M29,69.3l-6.5-7.7c-1.1-1.3,0.8-2.9,1.9-1.6l6.5,7.7c1.8,2.1,5.7,3.2,7.8,1.4l7.5-6.3
					c1.3-1.1,2.9,0.8,1.6,1.9L40.3,71C37,73.8,31.6,72.4,29,69.3z"/>
			</g>
		</g>
		<g>
			<g>
				<path class="st1" d="M23.7,80.5l-8-9.5c-1.1-1.3,0.8-2.9,1.9-1.6l8,9.5c4.3,5.1,12.1,5.8,17.3,1.5l7-5.9
					c1.3-1.1,2.9,0.8,1.6,1.9l-7,5.9C38.2,87.5,28.9,86.8,23.7,80.5z"/>
			</g>
		</g>
		<g>
			<g>
				<path class="st1" d="M51.2,76.2c-0.7-0.1-0.3,0.2-8.1-9.1c-0.4-0.5-0.4-1.3,0.2-1.8l3.7-3.1c0.5-0.4,1.3-0.4,1.8,0.2L56,71
					c0.4,0.5,0.4,1.3-0.2,1.8C51.9,76.1,51.9,76.3,51.2,76.2z M45.8,66.5l5.7,6.7l1.8-1.5L47.6,65L45.8,66.5z"/>
			</g>
		</g>
		<g>
			<g>
				<path class="st1" d="M97.4,87H1.2c-1.6,0-1.6-2.5,0-2.5h96.1c0.7,0,1.2,0.6,1.2,1.2S98,87,97.4,87z"/>
			</g>
		</g>
		<g>
			<g>
				<path class="st1" d="M4.3,85.9C2.5,71,4.7,56,10.6,42.2c0.3-0.7,1.1-1,1.8-0.6c1.9,1.2,4,2.1,6.1,2.7c5.9,1.8,7.4,0.5,8.1,1.8
					c3,5.8,5.5,12.2,7.2,18.8c0.4,1.6-2,2.2-2.4,0.6c-1.6-6.1-3.8-12-6.6-17.6c-4.3-0.2-8.5-1.4-12.4-3.5C9.7,51,7.9,57.8,6.9,64.8
					C4.6,81.9,8.4,86.7,5.7,87C5,87.1,4.4,86.6,4.3,85.9z"/>
			</g>
		</g>
		<g>
			<g>
				<path class="st1" d="M19.1,37.9c-1-1.3,0.9-2.8,1.9-1.5c1.8,2.3,4.8,3.4,7.8,2.5c0.5-0.2,0.9-0.6,1-1.1c0.4-1.9,0.8-3,0.9-5.3
					c0.5-8.9-2.1-11.3,0.2-11.7c0.7-0.1,1.3,0.3,1.5,0.9c1.1,5,1.3,10.6,0.1,15.8c-0.2,0.8-0.5,3-2.9,3.8
					C25.6,42.5,21.6,41,19.1,37.9z"/>
			</g>
		</g>
		<g>
			<g>
				<path class="st1" d="M16.4,32.6c-5,0-7.6-5.1-6.1-8.1c1.3-2.6,4.4-3.1,6.8-0.7c0.7-1.8,2.7-2.9,4.7-2.5c0.9,0.2,1.8,0.3,2.8,0.3
					c5.8,0,7.3-3.4,8.5-1.4c0.3,0.6,0.2,1.3-0.4,1.7c-3.4,2-7.4,2.7-11.3,1.9c-0.9-0.2-1.8,0.4-2,1.3l-0.5,2.2
					c-0.3,1.2-2,1.3-2.4,0.1c-0.6-1.8-2-2.8-2.9-2.6c-2.3,0.5-1.3,5.4,2.8,5.4C18,30.2,18,32.6,16.4,32.6z"/>
			</g>
		</g>
		<g>
			<g>
				<path class="st1" d="M9.3,25.9c-4.1-10,5.2-19.8,15.6-14.8c2.6,1.2,5.2,1.8,8.9,0.6c0.6-0.2,1.3,0.1,1.5,0.7
					c2,5-1.2,10.1-6.2,11c-1.6,0.3-2-2.2-0.4-2.4c2.9-0.5,5.4-3.1,4.7-6.6c-3.7,0.9-6.5,0.3-9.5-1.1c-8.4-4-15.6,3.6-12.3,11.6
					C12.2,26.4,9.9,27.4,9.3,25.9z"/>
			</g>
		</g>
		<g>
			<g>
				<path class="st1" d="M11.9,38.8v-8.4c0-1.6,2.5-1.6,2.5,0v8.4C14.4,40.4,11.9,40.4,11.9,38.8z"/>
			</g>
		</g>
		<g>
			<path class="st3" d="M25.2,40.4c0,1.1,0,1.6,0,2.6V40.4z"/>
			<path class="st1" d="M24,43.1v-2.6c0-1.6,2.5-1.6,2.5,0v2.6C26.5,44.7,24,44.7,24,43.1z"/>
		</g>
		<g>
			<g>
				<path class="st1" d="M53.5,70.1l4.7-5.1c0.9-2-1.6-3.8-3.2-2.3c-0.1,0.1-4.5,3-4.7,3.1c-1.4,0.9-2.7-1.2-1.4-2.1l4.4-2.9
					c3.8-3.2,9.3,1.1,7,5.5c-0.1,0.2-4.8,5.3-5,5.5C54.3,72.9,52.4,71.3,53.5,70.1z"/>
			</g>
		</g>
	</g>
	<g>
		<path class="st1" d="M73.7,12.6c7.2,0,13.7,5.7,14.5,12.8c0.7,5.8-1.6,10.3-6.2,13.8c-0.4,0.3-0.5,0.6-0.5,1c0,2.4,0,4.8,0,7.1
			c0,4.2-3.2,7.7-7.4,8.1c-1.1,0.1-2.2-0.1-3.3-0.6c-3.2-1.5-5-4-5-7.6c0-2.4,0-4.8,0-7.1c0-0.4-0.1-0.6-0.5-0.9
			c-4-3-6.4-6.9-6.4-12c0-6.3,4.4-12.2,10.6-14c1.3-0.4,2.7-0.5,4.1-0.8C73.7,12.5,73.7,12.5,73.7,12.6z M73.7,15.9
			c-6.5,0-11.3,4.8-11.4,11.3c0,6.5,4.8,11.4,11.4,11.4c6.4,0,11.3-4.8,11.3-11.2C85.1,20.8,80.2,15.9,73.7,15.9z M69.3,41.2
			c0,2.4,0,4.8,0,7.1c0,0.2,0,0.3,0.1,0.5c0.6,2.7,3.6,4.1,6.3,2.9c1.8-0.8,2.5-2.2,2.5-4c0-2,0-4,0-6.1c0-0.1,0-0.2-0.1-0.4
			C75.2,42.1,72.2,42.1,69.3,41.2z"/>
		<path class="st1" d="M61,3.4c0.5,0,1,0.3,1.3,0.9c0.9,1.6,1.9,3.2,2.8,4.9c0.5,0.9,0.2,1.9-0.6,2.4c-0.8,0.5-1.8,0.2-2.3-0.7
			c-1-1.6-1.9-3.2-2.8-4.9C58.8,4.8,59.6,3.4,61,3.4z"/>
		<path class="st1" d="M83.6,11.8c-1.2,0-2.1-1.3-1.5-2.4c1-1.8,2-3.6,3.1-5.3c0.4-0.7,1.4-0.9,2.2-0.5C88.1,4.1,88.4,5,88,5.8
			c-1,1.8-2,3.6-3.1,5.3c-0.2,0.4-0.8,0.6-1.3,0.9C83.7,11.9,83.6,11.8,83.6,11.8z"/>
		<path class="st1" d="M91,19c-0.8,0-1.5-0.5-1.7-1.2c-0.2-0.7,0-1.5,0.6-1.8c1.7-1,3.5-2.1,5.3-3.1c0.8-0.4,1.7-0.1,2.1,0.7
			c0.5,0.8,0.3,1.7-0.5,2.2c-1.7,1-3.5,2-5.2,3C91.4,19,91.2,19,91,19z"/>
		<path class="st1" d="M51.7,12.8c0.2,0.1,0.5,0.1,0.8,0.3c1.6,0.9,3.2,1.8,4.7,2.7c0.9,0.5,1.2,1.5,0.7,2.4c-0.5,0.8-1.5,1-2.4,0.5
			c-1.6-0.9-3.2-1.8-4.8-2.8c-0.7-0.4-1-1.2-0.8-1.9C50.1,13.3,50.8,12.8,51.7,12.8z"/>
		<path class="st1" d="M51.7,41.7c-0.9,0-1.5-0.5-1.7-1.2c-0.2-0.7,0-1.5,0.6-1.8c1.7-1,3.5-2,5.3-3c0.8-0.4,1.7-0.1,2.1,0.6
			c0.5,0.8,0.3,1.7-0.4,2.2c-1.7,1.1-3.5,2.1-5.3,3.1C52,41.6,51.7,41.7,51.7,41.7z"/>
		<path class="st1" d="M91.1,35.5c0.1,0.1,0.5,0.1,0.7,0.3c1.6,0.9,3.2,1.8,4.8,2.8c0.9,0.5,1.2,1.5,0.7,2.3
			c-0.5,0.8-1.5,1.1-2.4,0.6c-1.6-0.9-3.3-1.9-4.9-2.8c-0.7-0.4-1-1.2-0.8-1.9C89.5,36,90.2,35.5,91.1,35.5z"/>
		<path class="st1" d="M96.5,25.6c0.9,0,1.8,0,2.7,0c1,0,1.8,0.7,1.8,1.7c0,0.9-0.8,1.7-1.8,1.7c-1.8,0-3.7,0-5.5,0
			c-1,0-1.8-0.7-1.8-1.7c0-1,0.8-1.7,1.8-1.7C94.6,25.6,95.6,25.6,96.5,25.6C96.5,25.6,96.5,25.6,96.5,25.6z"/>
		<path class="st1" d="M51,25.6c0.9,0,1.9,0,2.8,0c1,0,1.7,0.7,1.7,1.7c0,0.9-0.7,1.7-1.7,1.7c-1.9,0-3.8,0-5.7,0
			c-1,0-1.7-0.8-1.7-1.7c0-0.9,0.8-1.6,1.7-1.7C49.1,25.6,50.1,25.6,51,25.6C51,25.6,51,25.6,51,25.6z"/>
		<path class="st1" d="M72,4.5c0-0.9,0-1.9,0-2.8c0-1,0.7-1.7,1.6-1.7c0.9,0,1.7,0.7,1.7,1.8c0,1.9,0,3.8,0,5.6c0,1-0.7,1.7-1.7,1.7
			c-0.9,0-1.7-0.7-1.7-1.7C72,6.4,72,5.5,72,4.5C72,4.5,72,4.5,72,4.5z"/>
	</g>
	<ellipse class="st0" cx="73.7" cy="27.2" rx="8.2" ry="8.1"/>
</g>
</svg>
