<?xml version="1.0" encoding="utf-8"?>
<!-- Generator: Adobe Illustrator 23.0.3, SVG Export Plug-In . SVG Version: 6.00 Build 0)  -->
<svg version="1.1" id="Layer_1" xmlns="http://www.w3.org/2000/svg" xmlns:xlink="http://www.w3.org/1999/xlink" x="0px" y="0px"
	 viewBox="0 0 83 97" style="enable-background:new 0 0 83 97;" xml:space="preserve">
<style type="text/css">
	.st0{fill:#C8C8CA;}
	.st1{fill:#003000;}
	.st2{fill:#FABF62;}
	.st3{fill:#627C8C;}
</style>
<g>
	<g>
		<g>
			<path class="st0" d="M69.6,2.1c-2.5,0-4.5,2-4.5,4.5v3.2h9V6.6C74.1,4.1,72.1,2.1,69.6,2.1z"/>
		</g>
	</g>
	<g>
		<g>
			<path class="st1" d="M11.9,34.8V5.8c0-3.2,2.6-5.8,5.8-5.8h50.9c0.7,0,1.2,0.6,1.2,1.2c0,0.7-0.5,1.2-1.1,1.3
				C67.2,2.8,66,4.2,66,5.8v11.8c0,1.6-2.5,1.7-2.5,0c0-12.7-0.3-13.1,1-15.1H17.7c-1.8,0-3.3,1.5-3.3,3.3v29.1
				C14.4,36.5,11.9,36.5,11.9,34.8z"/>
		</g>
	</g>
	<g>
		<g>
			<path class="st1" d="M63.5,34.8v-12c0-1.6,2.5-1.7,2.5,0v12C66,36.5,63.5,36.5,63.5,34.8z"/>
		</g>
	</g>
	<g>
		<g>
			<path class="st1" d="M63.5,10.6V5.8c0-3.2,2.6-5.8,5.8-5.8C72.4,0,75,2.6,75,5.8v4c0,0.7-0.6,1.2-1.2,1.2h-7.9c0,0,0,0,0,0
				C65.4,12.3,63.5,12,63.5,10.6z M66,8.6h6.5V5.8c0-1.8-1.5-3.3-3.3-3.3C67.4,2.5,66,4,66,5.8V8.6z"/>
		</g>
	</g>
	<g>
		<g>
			<polygon class="st2" points="41.1,92.9 41.2,92.8 41.2,92.8 			"/>
		</g>
		<g>
			<path class="st3" d="M49.5,65.6c2.1,2.1,0.9,5.7-2.1,6c-1,0.1-1.8,0.9-2,2c-0.2,1.6-1.4,2.9-3.1,3.1c-1,0.1-1.8,0.9-2,2
				c-0.2,1.6-1.5,2.9-3.1,3.1c-1,0.1-1.8,0.8-2,2.1l0.5,4l0.1,0.1v0c3.2-3.2,7.2-0.1,6.3,3.1l0,0c0,0,0,0,0,0l0.8-1.2l0.3-0.2
				c0.2,0.2,1.9,1.9,2.1,2.1c3.2,3,7.7-1,5.5-4.4c3.5,2.3,7.2-2.4,4.5-5.4l0.2-0.1l1.4,1.5c2.4,2.2,6,0.6,6-2.5
				C63.3,78.5,63,79.1,49.5,65.6z"/>
		</g>
		<g>
			<g>
				<path class="st0" d="M60.7,61.7c-3.3,3.4-8.3,4.1-12.4,2.2l14.8,14.5c6.8-5.6,6.1-10.7,10.1-13.6l-7.5-8.1L60.7,61.7z"/>
			</g>
		</g>
		<g>
			<g>
				<path class="st1" d="M61.9,77.9c3.6-3,5-5.7,6.2-8.2c1-2,2-4,4-5.4c0.6-0.4,1.3-0.3,1.8,0.3c0.4,0.6,0.3,1.4-0.3,1.8
					c-3.5,2.5-3.1,7.8-10,13.5C62.2,80.9,60.6,78.9,61.9,77.9z"/>
			</g>
		</g>
		<g>
			<g>
				<path class="st1" d="M19.8,89.1c-1.9-1.9-1.9-4.9,0-6.8l3.5-3.5c1.9-1.9,4.9-1.9,6.8,0c1.9,1.9,1.9,4.9,0,6.8l-3.5,3.5
					C24.8,90.9,21.7,90.9,19.8,89.1z M25.1,80.5L21.6,84c-2.1,2.1,1.1,5.4,3.2,3.2l3.5-3.5c0.9-0.9,0.9-2.4,0-3.2
					C27.5,79.6,26,79.6,25.1,80.5z"/>
			</g>
		</g>
		<g>
			<g>
				<path class="st1" d="M14.9,84c-1.9-1.9-1.9-4.9,0-6.8l0.6-0.6c1.9-1.9,4.9-1.9,6.8,0c1.9,1.9,1.9,4.9,0,6.8L21.7,84h0
					C19.8,85.9,16.8,85.9,14.9,84z M20.8,83.1L20.8,83.1L20.8,83.1z M17.2,78.4L16.7,79c-2.1,2.1,1.1,5.4,3.2,3.2l0.6-0.6
					c0.9-0.9,0.9-2.4,0-3.2C19.6,77.5,18.1,77.5,17.2,78.4z"/>
			</g>
		</g>
		<g>
			<g>
				<path class="st1" d="M33.4,88.8c2.1-2.1,3.1-3.5,5.5-3.5c4.2,0,6.4,5.2,3.4,8.2c-1.9,1.9-2.2,2.3-2.8,2.7
					C34.9,99.3,29.3,93.1,33.4,88.8z M37.3,88.4c-0.2,0.2-2.2,2.1-2.3,2.4c-1.4,2.3,1,4.6,3.2,3.2c0.2-0.1,2.2-2.1,2.4-2.3
					c0.9-1.1,1-2.5-0.4-3.6C39.3,87.6,38.1,87.6,37.3,88.4z"/>
			</g>
		</g>
		<g>
			<g>
				<path class="st1" d="M76.4,59.1c1.5-2.1-1.7-4.4-3.2-2.2C71.7,59,74.9,61.3,76.4,59.1z"/>
			</g>
		</g>
		<g>
			<g>
				<path class="st1" d="M73.9,66.7c-0.7-0.1,0.3,0.9-16.8-18.8c-0.4-0.5-0.4-1.3,0.1-1.7l15.7-14.7c1.2-1.1,2.9,0.7,1.7,1.8
					L59.8,47.1l14.4,16.5l1.8-1.5c1.3-1.1,2.9,0.8,1.7,1.9l-2.7,2.4C74.6,66.6,74.2,66.7,73.9,66.7z"/>
			</g>
		</g>
		<g>
			<g>
				<path class="st1" d="M13.9,78.8c-1.7-1.5-1.8-1.6-2.6-2.3c-2.8-2.8-4.2-5.8-5.4-8.4c-1.2-2.5-1.7-3.2-1.7-3.2l0-0.1l2-1.5
					c1.9,2.6,3,7.4,6.9,11.3c0.7,0.7,0.7,0.7,2.4,2.2c0.5,0.5,0.6,1.2,0.1,1.8C15.3,79.2,14.5,79.2,13.9,78.8z M4.2,64.9
					C4.2,64.9,4.2,64.9,4.2,64.9C4.2,64.9,4.2,64.9,4.2,64.9z"/>
			</g>
		</g>
		<g>
			<g>
				<path class="st1" d="M37.7,49.6c-2.6-1.9-6.1-2.4-9.4-1.4c-0.2,0.1-0.4,0.1-0.7,0.2c-2.4,0.7-6.4,1.6-8.8,0.8
					c-0.8-0.2-1.1-1.1-0.8-1.8c0.3-0.5,0.9-0.8,1.6-0.6c0.1,0,0.1,0,0.2,0.1c2.1,0.5,5.7-0.5,7.7-1.1c4-1.2,8.4-0.5,11.7,1.8
					c0.6,0.4,0.7,1.2,0.3,1.8C39,49.9,38.2,50.1,37.7,49.6z"/>
			</g>
		</g>
		<g>
			<g>
				<path class="st1" d="M49.7,87.5L46.1,84c-1.2-1.2,0.6-3,1.8-1.8l3.5,3.5c1.3,1.3,3.9,0.5,3.9-1.6c0-1.3-0.1-1.1-7.2-8.2
					c-1.2-1.2,0.6-3,1.8-1.8c6.9,6.9,8,7.4,8,10c0,1.3-0.5,2.5-1.4,3.4C54.6,89.4,51.5,89.4,49.7,87.5z"/>
			</g>
		</g>
		<g>
			<g>
				<path class="st1" d="M56.4,84.2l-8.2-8.3c-1.2-1.2,0.6-3,1.8-1.8l8.2,8.3c0.9,0.9,2.4,0.9,3.2,0c0.9-0.9,0.9-2.4,0-3.2l-0.6-0.6
					c-1.2-1.2,0.6-3,1.8-1.8l0.6,0.6c1.9,1.9,1.9,4.9,0,6.8C61.3,86.1,58.2,86.1,56.4,84.2z"/>
			</g>
		</g>
		<g>
			<g>
				<path class="st1" d="M44.5,92.4l-3.9-3.9c-1.2-1.2,0.6-3,1.8-1.8l3.9,3.9c2.1,2.1,5.4-1.1,3.2-3.2L43,80.8
					c-1.2-1.2,0.6-3,1.8-1.8l6.6,6.6c1.9,1.9,1.9,4.9,0,6.8C49.5,94.3,46.4,94.3,44.5,92.4z"/>
			</g>
		</g>
		<g>
			<g>
				<path class="st1" d="M1.6,59.2c-1.5-2.1,1.7-4.4,3.2-2.2C6.3,59.1,3.1,61.3,1.6,59.2z"/>
			</g>
		</g>
		<g>
			<g>
				<path class="st1" d="M3.2,66.4L0.4,64c-1.3-1.1,0.4-3,1.7-1.9l1.8,1.5l14.4-16.5L2.9,32.8c-1.2-1.1,0.5-3,1.7-1.8l16.2,15.2
					c0.5,0.5,0.5,1.2,0.1,1.7l-16,18.4C4.5,66.8,3.7,66.9,3.2,66.4z"/>
			</g>
		</g>
		<g>
			<g>
				<path class="st1" d="M60.8,78.6l-18.9-19c-0.5-0.5-1.3-0.5-1.8,0c-1.8,1.7-6.5,6.2-6.5,6.2c-2,1.9-5.3,1.7-7.2-1.1
					c-1.3-1.8-1.1-4.3,0.5-5.8L37.2,49c3.8-3.7,8.8-4.6,13.3-3.2c3.7,1.1,6.5,1.5,8,1c0.7-0.2,1.4,0.1,1.6,0.8
					c0.2,0.7-0.1,1.4-0.8,1.6c-2,0.7-5.2,0.4-9.5-1c-3.7-1.1-7.7-0.4-10.8,2.6l-10.2,9.8c-0.7,0.7-0.9,1.8,0,2.8
					c2,2.1,3,0.8,4.5-0.7c1.4-1.3,3.6-3.5,5.2-4.9c1.5-1.4,3.9-1.4,5.3,0.1l18.9,19c0.5,0.5,0.5,1.3,0,1.8
					C62.1,79.1,61.3,79.1,60.8,78.6z"/>
			</g>
		</g>
		<g>
			<g>
				<path class="st1" d="M25,94c-1.9-1.9-1.9-4.9,0-6.8l4.4-4.5c1.9-1.9,4.9-1.9,6.8,0c1.9,1.9,1.9,4.9,0,6.8L31.7,94
					C29.9,95.9,26.8,95.9,25,94z M31.2,84.5l-4.4,4.5c-2.1,2.1,1.1,5.4,3.2,3.2l4.4-4.5c0.9-0.9,0.9-2.4,0-3.2
					C33.5,83.6,32.1,83.6,31.2,84.5z"/>
			</g>
		</g>
	</g>
	<g>
		<g>
			<polygon class="st3" points="76.9,24.8 77,17.8 45.1,17.8 45,24.8 			"/>
		</g>
		<g>
			<g>
				<path class="st1" d="M76.9,25.9L76.9,25.9c-34,0-32.2,0.2-32.8-0.4c-0.6-0.6-0.4-1.1-0.3-7.9c0-0.7,0.6-1.2,1.2-1.2
					c34,0,32.2-0.2,32.8,0.4c0.6,0.6,0.4,1.1,0.3,7.9C78.1,25.3,77.6,25.9,76.9,25.9z M46.3,23.4l29.4,0l0.1-4.5l-29.4,0L46.3,23.4z
					"/>
			</g>
		</g>
		<g>
			<g>
				<path class="st1" d="M76,25.5c-0.6-0.6-0.4-1.1-0.3-7.9c0-0.7,0.6-1.2,1.2-1.2l1.2,0c2.6-0.1,4.8,2.1,4.8,4.8
					c0,2.6-2.1,4.6-4.6,4.7l-1.4,0C76.6,25.9,76.3,25.8,76,25.5z M78.2,18.9l-0.1,4.5C81.5,23.3,81.1,18.8,78.2,18.9z"/>
			</g>
		</g>
		<g>
			<g>
				<path class="st1" d="M44.5,25.8C36,22,35.7,22.1,35.7,21c0-1.1,0.3-0.9,8.9-4.5c0.8-0.3,1.7,0.3,1.7,1.2c-0.1,7.4,0.1,7.5-0.7,8
					C45.3,25.9,44.9,25.9,44.5,25.8z M40.1,21.1l3.7,1.6l0-3.2L40.1,21.1z"/>
			</g>
		</g>
		<g>
			<g>
				<path class="st1" d="M34.9,19.8l3.1-0.1c1.6-0.1,1.7,2.5,0,2.5l-3.1,0.1C33.3,22.4,33.2,19.9,34.9,19.8z"/>
			</g>
		</g>
	</g>
	<g>
		<g>
			<path class="st1" d="M48.7,38.6c-1.6,0-2.2-1.6-2.6-2.8c-0.1-0.2-0.2-0.5-0.3-0.7c-0.5,1.3-1,3.5-2.9,3.5c-1.9,0-2.4-2.3-2.9-3.5
				c-0.1,0.2-0.2,0.5-0.3,0.7c-0.4,1.2-1,2.8-2.6,2.8c-1.6,0-2.2-1.6-2.6-2.8c-0.1-0.4-0.3-0.9-0.5-1.2c-1.5-0.3-1.3-2.5,0.2-2.5
				c1.9,0,2.4,2.3,2.9,3.5c0.1-0.2,0.2-0.5,0.3-0.7c0.4-1.2,1-2.8,2.6-2.8c1.6,0,2.2,1.6,2.6,2.8c0.1,0.2,0.2,0.5,0.3,0.7
				c0.5-1.3,1-3.5,2.9-3.5c2.2,0,2.5,3,3.1,4c0.6,0.1,1,0.6,1,1.2C50,38,49.4,38.6,48.7,38.6z M34.2,34.6L34.2,34.6L34.2,34.6z"/>
		</g>
	</g>
	<g>
		<g>
			<path class="st1" d="M20.4,38.3c-1.4-3.4-0.5-8,4.2-12.1c0.6-0.5,1.1-0.9,1.7-1.3c-0.3-1.2-0.9-3-2-3.4c-1.6-0.5-0.8-2.9,0.8-2.4
				c2,0.6,3,2.6,3.6,4.6c0.1,0,0.1,0,0.2-0.1c2.8-0.9,4.9,0.1,6,2.3c1.3,2.6,1.1,8.3-2.1,12.7c-1,1.3-3-0.2-2-1.5
				c3.1-4.2,3.6-12.7-1.1-11.1c-0.1,0-0.3,0.1-0.4,0.2c0.9,5.7-0.6,11-2.4,13.2c-0.8,0.9-1.7,1.5-2.6,1.6
				C22.4,41.2,21.1,39.9,20.4,38.3z M26.8,27.6c-1.6,1.2-3.1,2.9-3.9,4.8c-1.4,3.4,0.1,6.2,1,6.1c0.9-0.1,1.8-2.2,2.3-3.5
				C26.9,32.6,27.1,30.1,26.8,27.6z"/>
		</g>
	</g>
	<g>
		<g>
			<path class="st1" d="M34.5,11.5H21.9c-1.6,0-1.6-2.5,0-2.5h12.5c0.7,0,1.2,0.6,1.2,1.2C35.7,11,35.2,11.5,34.5,11.5z"/>
		</g>
	</g>
	<g>
		<g>
			<path class="st1" d="M45,11.5h-4.9c-1.6,0-1.6-2.5,0-2.5H45c0.7,0,1.2,0.6,1.2,1.2C46.3,11,45.7,11.5,45,11.5z"/>
		</g>
	</g>
</g>
</svg>
