<?xml version="1.0" standalone="no"?>
<!DOCTYPE svg PUBLIC "-//W3C//DTD SVG 1.1//EN" "http://www.w3.org/Graphics/SVG/1.1/DTD/svg11.dtd" >
<svg xmlns="http://www.w3.org/2000/svg" xmlns:xlink="http://www.w3.org/1999/xlink" version="1.1">
<metadata>
Created by FontForge 20170910 at Sun Oct  2 03:15:03 2016
 By Jimmy Wärting
Copyright (c) 2016 by Andriy Konstantynov. All rights reserved.
</metadata>
<defs>
<font id="QuizaPro-Regular" horiz-adv-x="536" >
  <font-face 
    font-family="Quiza Pro"
    font-weight="400"
    font-stretch="normal"
    units-per-em="1000"
    panose-1="2 11 0 3 3 2 0 0 0 2"
    ascent="800"
    descent="-200"
    x-height="447"
    cap-height="700"
    bbox="-74 -233 1277 947"
    underline-thickness="50"
    underline-position="-100"
    unicode-range="U+0020-FB04"
  />
<missing-glyph horiz-adv-x="260" 
 />
    <glyph glyph-name="ff" unicode="ff" horiz-adv-x="641" 
d="M393 0v384h-207v-384h-78v384h-56q-8 0 -19.5 12t-11.5 20t11.5 19.5t19.5 11.5h56v150q0 140 123 140q68 0 116 -48q0 -9 -16 -25t-25 -16q-21 22 -60 22q-32 0 -46 -20t-14 -65v-138h207v143q0 147 123 147q72 0 122 -51q0 -8 -16 -24t-24 -16q-26 24 -67 24
q-32 0 -46.5 -21.5t-14.5 -70.5v-131h141v-63h-141v-384h-77z" />
    <glyph glyph-name="fi" unicode="fi" horiz-adv-x="544" 
d="M383 0v384h-197v-384h-78v384h-56q-8 0 -19.5 12t-11.5 20t11.5 19.5t19.5 11.5h56v128q0 76 45.5 119t127.5 43t135.5 -39t53.5 -70q0 -18 -21.5 -39.5t-34.5 -21.5t-34.5 21.5t-21.5 33.5q0 5 5.5 13t8.5 9q-36 33 -85 33t-75 -25t-26 -72v-133h243q7 0 19 -11.5
t12 -19.5v-416h-77z" />
    <glyph glyph-name="fl" unicode="fl" horiz-adv-x="554" 
d="M393 0v645q-43 30 -104 30q-55 0 -79 -25.5t-24 -84.5v-118h136v-63h-136v-384h-78v384h-56q-8 0 -19.5 12t-11.5 20t11.5 19.5t19.5 11.5h56v130q0 83 45 121.5t136 38.5q113 0 181 -63v-674h-77z" />
    <glyph glyph-name="ffi" unicode="ffi" horiz-adv-x="823" 
d="M667 0v384h-197v-384h-77v384h-207v-384h-78v384h-56q-8 0 -19.5 12t-11.5 20t11.5 19.5t19.5 11.5h56v150q0 140 123 140q68 0 116 -48q0 -9 -16 -25t-25 -16q-21 22 -60 22q-32 0 -46 -20t-14 -65v-138h207v128q0 76 45.5 119t126.5 43q82 0 136 -39t54 -70
q0 -18 -21.5 -39.5t-35.5 -21.5q-13 0 -34.5 21.5t-21.5 33.5q0 5 5.5 13t8.5 9q-35 33 -84 33t-75.5 -25.5t-26.5 -71.5v-133h243q8 0 20 -12t12 -19v-416h-78z" />
    <glyph glyph-name="ffl" unicode="ffl" horiz-adv-x="838" 
d="M677 0v645q-41 30 -104 30q-55 0 -79 -25.5t-24 -84.5v-118h136v-63h-136v-384h-77v384h-207v-384h-78v384h-56q-8 0 -19.5 12t-11.5 20t11.5 19.5t19.5 11.5h56v150q0 140 123 140q68 0 116 -48q0 -9 -16 -25t-25 -16q-21 22 -60 22q-32 0 -46 -20t-14 -65v-138h207v130
q0 83 44.5 121.5t135.5 38.5q113 0 182 -63v-674h-78z" />
    <glyph glyph-name="f_f_j" unicode="ffj" horiz-adv-x="823" 
d="M667 25v359h-197v-384h-77v384h-207v-384h-78v384h-56q-8 0 -19.5 12t-11.5 20t11.5 19.5t19.5 11.5h56v150q0 140 123 140q68 0 116 -48q0 -9 -16 -25t-25 -16q-21 22 -60 22q-32 0 -46 -20t-14 -65v-138h207v128q0 76 45.5 119t126.5 43q82 0 136 -39t54 -70
q0 -18 -21.5 -39.5t-35.5 -21.5q-13 0 -34.5 21.5t-21.5 33.5q0 5 5.5 13t8.5 9q-35 33 -84 33t-75.5 -25.5t-26.5 -71.5v-133h243q8 0 20 -12t12 -19v-391q0 -45 -14 -88t-33.5 -72t-40.5 -52t-36 -34t-19 -11q-9 0 -25.5 14.5t-16.5 23.5q107 107 107 219z" />
    <glyph glyph-name="f_j" unicode="fj" horiz-adv-x="544" 
d="M383 25v359h-197v-384h-78v384h-56q-8 0 -19.5 12t-11.5 20t11.5 19.5t19.5 11.5h56v128q0 76 45.5 119t127.5 43t135.5 -39t53.5 -70q0 -18 -21.5 -39.5t-34.5 -21.5t-34.5 21.5t-21.5 33.5q0 5 5.5 13t8.5 9q-36 33 -85 33t-75 -25t-26 -72v-133h243q7 0 19 -11.5
t12 -19.5v-391q0 -45 -13.5 -88t-33 -72t-40.5 -52t-36 -34t-19 -11q-9 0 -26 14.5t-17 23.5q108 108 108 219z" />
    <glyph glyph-name="f_b" unicode="fb" horiz-adv-x="859" 
d="M21 416q0 8 11.5 19.5t19.5 11.5h56v130q0 83 45 121.5t136 38.5q113 0 181 -63v-264q53 45 124 45q93 0 155 -65.5t62 -164.5q0 -100 -65.5 -166t-182.5 -66q-96 0 -170 44v608q-43 30 -104 30q-55 0 -79 -25.5t-24 -84.5v-118h136v-63h-136v-384h-78v384h-56
q-8 0 -19.5 12t-11.5 20zM728 223q0 73 -41.5 118t-111.5 45q-63 0 -105 -37v-274q44 -15 93 -15q79 0 122 44.5t43 118.5z" />
    <glyph glyph-name="f_f_b" unicode="ffb" horiz-adv-x="1143" 
d="M21 416q0 8 11.5 19.5t19.5 11.5h56v150q0 140 123 140q68 0 116 -48q0 -9 -16 -25t-25 -16q-21 22 -60 22q-32 0 -46 -20t-14 -65v-138h207v130q0 83 44.5 121.5t135.5 38.5q113 0 182 -63v-264q52 45 123 45q94 0 155.5 -65.5t61.5 -164.5q0 -100 -65.5 -166
t-182.5 -66q-96 0 -170 44v608q-41 30 -104 30q-55 0 -79 -25.5t-24 -84.5v-118h136v-63h-136v-384h-77v384h-207v-384h-78v384h-56q-8 0 -19.5 12t-11.5 20zM1013 223q0 73 -42 118t-111 45q-63 0 -105 -37v-274q43 -15 92 -15q79 0 122.5 44.5t43.5 118.5z" />
    <glyph glyph-name="f_h" unicode="fh" horiz-adv-x="867" 
d="M393 0v645q-43 30 -104 30q-55 0 -79 -25.5t-24 -84.5v-118h136v-63h-136v-384h-78v384h-56q-8 0 -19.5 12t-11.5 20t11.5 19.5t19.5 11.5h56v130q0 83 45 121.5t136 38.5q113 0 181 -63v-277q68 58 160 58q77 0 117.5 -42.5t40.5 -117.5v-295h-77v295q0 91 -100 91
q-83 0 -141 -49v-337h-77z" />
    <glyph glyph-name="f_f_h" unicode="ffh" horiz-adv-x="1151" 
d="M677 0v645q-41 30 -104 30q-55 0 -79 -25.5t-24 -84.5v-118h136v-63h-136v-384h-77v384h-207v-384h-78v384h-56q-8 0 -19.5 12t-11.5 20t11.5 19.5t19.5 11.5h56v150q0 140 123 140q68 0 116 -48q0 -9 -16 -25t-25 -16q-21 22 -60 22q-32 0 -46 -20t-14 -65v-138h207v130
q0 83 44.5 121.5t135.5 38.5q113 0 182 -63v-276q70 57 160 57q77 0 117.5 -42.5t40.5 -117.5v-295h-78v295q0 91 -100 91q-83 0 -140 -49v-337h-78z" />
    <glyph glyph-name="f_k" unicode="fk" horiz-adv-x="783" 
d="M393 0v645q-43 30 -104 30q-55 0 -79 -25.5t-24 -84.5v-118h136v-63h-136v-384h-78v384h-56q-8 0 -19.5 12t-11.5 20t11.5 19.5t19.5 11.5h56v130q0 83 45 121.5t136 38.5q113 0 181 -63v-415l48 6l169 190q9 0 31 -19.5t22 -28.5l-158 -178l168 -187q0 -9 -22 -29
t-31 -20l-183 204l-44 -6v-191h-77z" />
    <glyph glyph-name="f_f_k" unicode="ffk" horiz-adv-x="1068" 
d="M677 0v645q-41 30 -104 30q-55 0 -79 -25.5t-24 -84.5v-118h136v-63h-136v-384h-77v384h-207v-384h-78v384h-56q-8 0 -19.5 12t-11.5 20t11.5 19.5t19.5 11.5h56v150q0 140 123 140q68 0 116 -48q0 -9 -16 -25t-25 -16q-21 22 -60 22q-32 0 -46 -20t-14 -65v-138h207v130
q0 83 44.5 121.5t135.5 38.5q113 0 182 -63v-415l47 6l169 190q10 0 31.5 -19t21.5 -29l-157 -178l167 -187q0 -9 -21.5 -29t-31.5 -20l-182 204l-44 -6v-191h-78z" />
    <glyph glyph-name="f_t" unicode="ft" horiz-adv-x="659" 
d="M383 106v278h-197v-384h-78v384h-56q-8 0 -19.5 12t-11.5 20t11.5 19.5t19.5 11.5h56v143q0 147 124 147q71 0 122 -51q0 -8 -16 -24t-25 -16q-24 24 -66 24q-32 0 -46.5 -21.5t-14.5 -70.5v-131h201v136l51 29h22v-165h148v-63h-148v-266q0 -58 57 -58q44 0 73 29
q8 0 24 -16t16 -25q-55 -55 -130 -55q-56 0 -86.5 28.5t-30.5 84.5z" />
    <glyph glyph-name="f_f_t" unicode="fft" horiz-adv-x="943" 
d="M393 0v384h-207v-384h-78v384h-56q-8 0 -19.5 12t-11.5 20t11.5 19.5t19.5 11.5h56v150q0 140 123 140q68 0 116 -48q0 -9 -16 -25t-25 -16q-21 22 -60 22q-32 0 -46 -20t-14 -65v-138h207v143q0 147 123 147q72 0 122 -51q0 -8 -16 -24t-24 -16q-26 24 -67 24
q-32 0 -46.5 -21.5t-14.5 -70.5v-131h201v136l52 29h22v-165h148v-63h-148v-266q0 -58 56 -58q45 0 73 29q9 0 24.5 -16t15.5 -25q-55 -55 -129 -55q-57 0 -87.5 28.5t-30.5 84.5v278h-197v-384h-77z" />
    <glyph glyph-name="afii10104_afii10104" unicode="&#x457;&#x457;" horiz-adv-x="567" 
d="M300 416q0 8 12 19.5t20 11.5h122q8 0 19.5 -11.5t11.5 -19.5v-416h-77v384h-76q-8 0 -20 12t-12 20zM18 416q0 7 12 19t20 12h122q8 0 19.5 -11.5t11.5 -19.5v-416h-77v384h-76q-8 0 -20 12t-12 20zM18 582q0 11 18 29t29 18q12 0 29.5 -18t17.5 -29t-17.5 -29
t-29.5 -18q-11 0 -29 18t-18 29zM452 582q0 11 18 29t29 18t29 -18t18 -29t-18 -29t-29 -18t-29 18t-18 29zM235 582q0 11 18 29t29 18t29 -18t18 -29t-18 -29t-29 -18t-29 18t-18 29z" />
    <glyph glyph-name=".notdef" horiz-adv-x="260" 
 />
    <glyph glyph-name=".null" horiz-adv-x="0" 
 />
    <glyph glyph-name="nonmarkingreturn" horiz-adv-x="333" 
 />
    <glyph glyph-name="space" unicode=" " horiz-adv-x="260" 
 />
    <glyph glyph-name="exclam" unicode="!" horiz-adv-x="219" 
d="M48 53q0 15 23.5 38t38.5 23t38 -23t23 -38t-23 -38t-38 -23t-38.5 23t-23.5 38zM139 217h-58l-12 483h81z" />
    <glyph glyph-name="quotedbl" unicode="&#x22;" horiz-adv-x="317" 
d="M64 488l-8 212h68l-8 -212h-52zM201 488l-8 212h68l-8 -212h-52z" />
    <glyph glyph-name="numbersign" unicode="#" horiz-adv-x="611" 
d="M80 451v58h107l34 191h58l-34 -191h177l34 191h58l-34 -191h98v-58h-108l-37 -209h98v-58h-108l-32 -184h-58l32 184h-177l-32 -184h-58l32 184h-97v58h107l37 209h-97zM235 451l-37 -209h177l37 209h-177z" />
    <glyph glyph-name="dollar" unicode="$" horiz-adv-x="586" 
d="M126 185v-73q61 -51 160 -51q74 0 119 31.5t45 87.5q0 41 -31.5 64.5t-128.5 66.5q-13 6 -20 9q-111 49 -156 90.5t-45 112.5q0 78 51 127t144 56v94h58v-94q104 -7 177 -74v-118q0 -8 -12 -20.5t-20 -12.5t-20.5 12.5t-12.5 20.5v76q-60 48 -142 48q-68 0 -107 -31
t-39 -79q0 -42 36 -69.5t136 -73.5q125 -59 167 -96.5t42 -103.5q0 -84 -54 -133t-151 -57v-95h-58v94q-122 5 -203 74v117q0 8 11.5 20.5t19.5 12.5t21 -12.5t13 -20.5z" />
    <glyph glyph-name="percent" unicode="%" horiz-adv-x="908" 
d="M669 694l-369 -701q-16 0 -38 4.5t-22 8.5l369 701q16 0 38 -4.5t22 -8.5zM507 175q0 79 51.5 130.5t128.5 51.5q78 0 129 -51.5t51 -130.5t-51 -130.5t-129 -51.5q-77 0 -128.5 51.5t-51.5 130.5zM575 175q0 -57 31 -93t81 -36t81 36t31 93t-31 92.5t-81 35.5t-81 -35.5
t-31 -92.5zM40 525q0 79 51.5 130.5t128.5 51.5q78 0 129 -51.5t51 -130.5t-51 -130.5t-129 -51.5q-77 0 -128.5 51.5t-51.5 130.5zM108 525q0 -57 31.5 -93t80.5 -36q50 0 81 36t31 93t-31 92.5t-81 35.5t-81 -35.5t-31 -92.5z" />
    <glyph glyph-name="ampersand" unicode="&#x26;" horiz-adv-x="672" 
d="M513 381h77q0 -140 -53 -240l104 -93q0 -11 -22.5 -33t-33.5 -22l-93 84q-76 -84 -200 -84q-103 0 -168.5 55.5t-65.5 145.5q0 38 12 71.5t32 57.5t36 38t32 24q-49 70 -49 143q0 81 51.5 130t135.5 49q33 0 62 -8t47.5 -19.5t32 -23t19.5 -19.5l6 -8q0 -9 -16.5 -24.5
t-25.5 -15.5q-1 2 -4 5.5t-13 12.5t-21.5 15.5t-31 12t-40.5 5.5q-54 0 -88 -31.5t-34 -86.5q0 -53 34.5 -97.5t122.5 -123.5l124 -112q31 77 31 192zM286 263q-43 38 -72 70q-74 -55 -74 -136q0 -61 44 -98.5t116 -37.5q89 0 142 61z" />
    <glyph glyph-name="quotesingle" unicode="'" horiz-adv-x="180" 
d="M64 488l-8 212h68l-8 -212h-52z" />
    <glyph glyph-name="parenleft" unicode="(" horiz-adv-x="303" 
d="M61 290q0 85 18 162.5t43.5 127t51.5 87t44 53.5l18 17q8 0 24 -14.5t16 -23.5q-6 -6 -15.5 -17t-34 -50t-43 -83t-34 -114t-15.5 -145t14.5 -144.5t35.5 -115.5t42 -81.5t36 -51.5l14 -16q0 -9 -16 -23.5t-24 -14.5q-7 6 -19 17.5t-42 52t-53 88t-42 126t-19 163.5z" />
    <glyph glyph-name="parenright" unicode=")" horiz-adv-x="303" 
d="M242 290q0 -85 -18 -162.5t-44 -127t-51.5 -87t-43.5 -53.5l-18 -17q-9 0 -25 14.5t-16 23.5q6 6 15.5 17t34 50t43.5 83t34.5 114t15.5 145t-14.5 144.5t-36 115.5t-42.5 81.5t-36 51.5l-14 16q0 9 16 23.5t25 14.5q7 -6 19 -17.5t42 -52t53 -88t42 -126t19 -163.5z" />
    <glyph glyph-name="asterisk" unicode="*" horiz-adv-x="438" 
d="M251 700l-5 -148l138 52l19 -60l-142 -41l92 -117l-51 -38l-83 123l-82 -123l-51 38l91 117l-142 41l20 60l138 -52l-6 148h64z" />
    <glyph glyph-name="plus" unicode="+" horiz-adv-x="600" 
d="M95 291v58h176v176h58v-176h176v-58h-176v-176h-58v176h-176z" />
    <glyph glyph-name="comma" unicode="," horiz-adv-x="219" 
d="M15 -94l91 179q13 0 39 -15t26 -25q0 -6 -28 -49t-56 -82l-28 -40q-9 0 -26.5 12t-17.5 20z" />
    <glyph glyph-name="hyphen" unicode="-" horiz-adv-x="350" 
d="M50 261v58h250v-58h-250z" />
    <glyph glyph-name="period" unicode="." horiz-adv-x="219" 
d="M48 53q0 15 23.5 38t38.5 23t38 -23t23 -38t-23 -38t-38 -23t-38.5 23t-23.5 38z" />
    <glyph glyph-name="slash" unicode="/" horiz-adv-x="449" 
d="M439 724l-371 -881q-15 0 -36.5 4.5t-21.5 8.5l371 881q15 0 36.5 -4.5t21.5 -8.5z" />
    <glyph glyph-name="zero" unicode="0" horiz-adv-x="664" 
d="M61 350q0 154 77 255.5t194 101.5t194 -101.5t77 -255.5t-77 -255.5t-194 -101.5t-194 101.5t-77 255.5zM143 350q0 -128 52.5 -208.5t136.5 -80.5t136.5 80.5t52.5 208.5t-52.5 208.5t-136.5 80.5t-136.5 -80.5t-52.5 -208.5z" />
    <glyph glyph-name="one" unicode="1" horiz-adv-x="449" 
d="M419 32q0 -8 -12 -20t-20 -12h-305q-8 0 -19.5 12t-11.5 20t11.5 19.5t19.5 11.5h116v561l-120 -43q-6 0 -17.5 22t-11.5 33l190 64h37v-637h111q8 0 20 -12t12 -19z" />
    <glyph glyph-name="two" unicode="2" horiz-adv-x="580" 
d="M515 510q0 -60 -36.5 -127.5t-89 -121t-105 -98.5t-88.5 -70l-37 -25h366v-68h-444q-7 0 -19 12.5t-12 19.5v36q16 10 41.5 28.5t91.5 72t116.5 104t92 116t41.5 116.5q0 56 -41.5 94.5t-113.5 38.5q-106 0 -182 -79q-10 0 -28 18.5t-18 28.5q98 101 234 101
q107 0 169 -57.5t62 -139.5z" />
    <glyph glyph-name="three" unicode="3" horiz-adv-x="579" 
d="M76 632v68h377q7 0 19 -12.5t12 -19.5v-31l-185 -215q6 1 19 1q94 0 148.5 -55t54.5 -152q0 -105 -65 -164t-179 -59q-147 0 -239 94q0 10 18.5 28t27.5 18q71 -71 187 -71q79 0 123.5 41t44.5 114q0 65 -36.5 103t-103.5 38q-18 0 -36 -3t-29 -5.5t-12 -2.5q-7 0 -23 16
t-16 25l213 244h-320z" />
    <glyph glyph-name="four" unicode="4" horiz-adv-x="603" 
d="M395 0v147h-324q-7 0 -19 12t-12 19v32l360 490h72v-490h81v-63h-81v-147h-77zM125 215h270v368z" />
    <glyph glyph-name="five" unicode="5" horiz-adv-x="584" 
d="M92 375l37 325h343v-68h-283l-25 -227q59 18 129 18q114 0 173.5 -57.5t59.5 -152.5q0 -101 -65.5 -160.5t-177.5 -59.5q-146 0 -237 94q0 10 18 28t28 18q70 -71 185 -71q79 0 123 40.5t44 110.5q0 67 -43 106t-129 39q-32 0 -66.5 -5t-53.5 -11l-19 -5q-9 0 -25 14.5
t-16 23.5z" />
    <glyph glyph-name="six" unicode="6" horiz-adv-x="643" 
d="M354 639q-103 0 -157 -78t-54 -214v-17q71 105 211 105q105 0 168 -58.5t63 -156.5q0 -104 -69 -165.5t-176 -61.5q-134 0 -206.5 95.5t-72.5 253.5q0 159 75 262t219 103q107 0 179 -50q0 -13 -13.5 -34t-21.5 -21q-60 37 -145 37zM336 367q-45 0 -81.5 -13t-57.5 -34.5
t-31 -35.5t-16 -29q16 -93 65 -143.5t126 -50.5q73 0 117.5 43t44.5 114q0 69 -44.5 109t-122.5 40z" />
    <glyph glyph-name="seven" unicode="7" horiz-adv-x="583" 
d="M48 632v68h444q8 0 19.5 -12t11.5 -19v-32l-286 -644q-12 0 -40.5 13.5t-28.5 22.5l268 603h-388z" />
    <glyph glyph-name="eight" unicode="8" horiz-adv-x="624" 
d="M66 178q0 118 137 191q-114 62 -114 157q0 79 62 130t159 51q96 0 157.5 -50t61.5 -128q0 -107 -120 -173q70 -32 109.5 -71.5t39.5 -102.5q0 -83 -68.5 -136t-179.5 -53q-108 0 -176 51t-68 134zM480 179q0 21 -10 39.5t-22 31t-39 27t-43.5 22t-53 22.5t-51.5 21
q-123 -63 -123 -156q0 -59 49.5 -93.5t123.5 -34.5q76 0 122.5 35t46.5 86zM166 530q0 -23 11.5 -42.5t25 -32.5t43.5 -28.5t47.5 -23t56.5 -22.5q109 59 109 144q0 53 -42.5 85t-106.5 32q-63 0 -103.5 -32t-40.5 -80z" />
    <glyph glyph-name="nine" unicode="9" horiz-adv-x="631" 
d="M281 61q103 0 155 77t52 216v15q-68 -96 -199 -96q-101 0 -162 57t-61 154q0 102 66 162.5t170 60.5q129 0 198.5 -95t69.5 -254q0 -161 -73 -263t-218 -102q-111 0 -192 65q0 13 14 33.5t22 20.5q68 -51 158 -51zM307 341q42 0 76 12.5t54 33t29 34.5t15 28
q-16 93 -62 141.5t-118 48.5q-68 0 -110 -41.5t-42 -110.5q0 -68 42 -107t116 -39z" />
    <glyph glyph-name="colon" unicode=":" horiz-adv-x="219" 
d="M48 53q0 15 23.5 38t38.5 23t38 -23t23 -38t-23 -38t-38 -23t-38.5 23t-23.5 38zM48 394q0 15 23.5 38t38.5 23t38 -23t23 -38t-23 -38t-38 -23t-38.5 23t-23.5 38z" />
    <glyph glyph-name="semicolon" unicode=";" horiz-adv-x="219" 
d="M15 -94l91 179q13 0 39 -15t26 -25q0 -6 -28 -49t-56 -82l-28 -40q-9 0 -26.5 12t-17.5 20zM48 394q0 15 23.5 38t38.5 23t38 -23t23 -38t-23 -38t-38 -23t-38.5 23t-23.5 38z" />
    <glyph glyph-name="less" unicode="&#x3c;" horiz-adv-x="600" 
d="M505 526v-63l-342 -143l342 -143v-63l-425 177v58z" />
    <glyph glyph-name="equal" unicode="=" horiz-adv-x="600" 
d="M95 396v58h410v-58h-410zM95 186v58h410v-58h-410z" />
    <glyph glyph-name="greater" unicode="&#x3e;" horiz-adv-x="600" 
d="M95 463v63l425 -177v-58l-425 -177v63l342 143z" />
    <glyph glyph-name="question" unicode="?" horiz-adv-x="538" 
d="M205 53q0 15 23 38t38 23t38.5 -23t23.5 -38t-23.5 -38t-38.5 -23t-38 23t-23 38zM295 212h-58l-9 143q166 83 166 177q0 44 -36 75t-98 31q-92 0 -162 -79q-9 0 -27.5 18.5t-18.5 28.5q91 101 216 101q93 0 151 -49.5t58 -118.5q0 -37 -18 -73t-44 -61t-52 -45t-44 -30
l-18 -10z" />
    <glyph glyph-name="at" unicode="@" horiz-adv-x="970" 
d="M492 -198q-189 0 -311.5 118.5t-122.5 300.5t122 301t305 119q118 0 214.5 -50.5t154.5 -147t58 -221.5q0 -115 -48 -172t-132 -57q-88 0 -122 56q-58 -56 -138 -56q-93 0 -155 65t-62 164q0 100 66 166.5t182 66.5q95 0 170 -45v-280q0 -72 62 -72q45 0 76 40t31 127
q0 158 -103 255.5t-255 97.5q-153 0 -254 -100.5t-101 -256.5t102 -255.5t266 -99.5q63 0 122.5 15.5t87.5 30.5l28 16q8 0 21 -16t13 -25l-12 -9t-35 -20.5t-57 -26t-77 -20.5t-96 -9zM338 224q0 -73 41.5 -118t110.5 -45q64 0 106 37v273q-48 16 -93 16q-79 0 -122 -44.5
t-43 -118.5z" />
    <glyph glyph-name="A" unicode="A" horiz-adv-x="744" 
d="M408 700l302 -673q0 -5 -30 -19.5t-40 -14.5l-90 204h-357l-90 -204q-9 0 -39.5 15t-30.5 19l276 610h-53q-8 0 -20 12t-12 19q0 8 12 20t20 12h152zM371 602l-150 -340h302z" />
    <glyph glyph-name="B" unicode="B" horiz-adv-x="669" 
d="M22 668q0 8 12 20t20 12h306q97 0 156 -50.5t59 -130.5q0 -51 -26 -91t-72 -63q63 -20 99 -67t36 -110q0 -83 -61.5 -135.5t-163.5 -52.5h-271v637h-62q-8 0 -20 11.5t-12 19.5zM384 326h-188v-261h188q67 0 106.5 36t39.5 95q0 58 -39.5 94t-106.5 36zM356 635h-160
v-244h160q64 0 101.5 34t37.5 88t-37.5 88t-101.5 34z" />
    <glyph glyph-name="C" unicode="C" horiz-adv-x="731" 
d="M598 488v87q-71 62 -181 62q-124 0 -197.5 -79t-73.5 -208t74.5 -208t197.5 -79q131 0 208 80q10 0 28.5 -19t18.5 -28q-98 -103 -257 -103q-155 0 -255 101t-100 256t99.5 256t252.5 101q152 0 250 -98v-121q0 -8 -12.5 -20.5t-20.5 -12.5t-20 12.5t-12 20.5z" />
    <glyph glyph-name="D" unicode="D" horiz-adv-x="779" 
d="M22 668q0 8 12 20t20 12h318q152 0 249 -98.5t97 -251.5t-97 -251.5t-249 -98.5h-256v637h-62q-8 0 -20 11.5t-12 19.5zM196 65h176q119 0 190 78.5t71 206.5t-71 206.5t-190 78.5h-176v-570z" />
    <glyph glyph-name="E" unicode="E" horiz-adv-x="633" 
d="M22 668q0 8 12 20t20 12h519v-65h-377v-246h337v-66h-337v-258h382v-65h-462v637h-62q-8 0 -20 11.5t-12 19.5z" />
    <glyph glyph-name="F" unicode="F" horiz-adv-x="598" 
d="M22 668q0 8 12 20t20 12h501v-65h-359v-258h317v-66h-317v-311h-80v637h-62q-8 0 -20 11.5t-12 19.5z" />
    <glyph glyph-name="G" unicode="G" horiz-adv-x="741" 
d="M420 320q0 8 12 20t20 12h211v-268q-90 -91 -244 -91q-159 0 -258.5 100.5t-99.5 255.5q0 156 99.5 257t253.5 101q151 0 249 -98v-109q0 -8 -12.5 -20.5t-20.5 -12.5t-20 12.5t-12 20.5v75q-71 62 -181 62q-124 0 -197.5 -79.5t-73.5 -208.5q0 -128 74 -207t201 -79
q105 0 166 49v176h-135q-8 0 -20 12t-12 20z" />
    <glyph glyph-name="H" unicode="H" horiz-adv-x="786" 
d="M612 0v323h-416v-323h-80v637h-62q-8 0 -20 11.5t-12 19.5t12 20t20 12h142v-311h416v311h80v-700h-80z" />
    <glyph glyph-name="I" unicode="I" horiz-adv-x="412" 
d="M379 32q0 -8 -12 -20t-20 -12h-282q-8 0 -20 12t-12 20t12 19.5t20 11.5h101v574h-101q-8 0 -20 11.5t-12 19.5t12 20t20 12h282q8 0 20 -12t12 -20q0 -7 -12 -19t-20 -12h-101v-574h101q8 0 20 -12t12 -19z" />
    <glyph glyph-name="J" unicode="J" horiz-adv-x="485" 
d="M314 204v433h-101q-8 0 -20 12t-12 19q0 8 12 20t20 12h179v-496q0 -92 -58.5 -151.5t-150.5 -59.5q-94 0 -152 60q0 10 19 29.5t28 19.5q37 -39 102 -39q61 0 97.5 39t36.5 102z" />
    <glyph glyph-name="K" unicode="K" horiz-adv-x="643" 
d="M22 668q0 8 12 20t20 12h142v-312l90 8l254 311q10 0 34 -21.5t24 -31.5l-242 -294l257 -314q0 -9 -24 -31t-33 -22l-274 334l-86 -8v-319h-80v637h-62q-8 0 -20 11.5t-12 19.5z" />
    <glyph glyph-name="L" unicode="L" horiz-adv-x="563" 
d="M94 0v700h80v-635h361v-65h-441z" />
    <glyph glyph-name="M" unicode="M" horiz-adv-x="945" 
d="M54 668q0 8 12 20t20 12h154l239 -565l237 565h88l81 -691q0 -4 -31 -9t-44 -5l-64 577l-235 -552h-65l-235 552l-64 -577q-12 0 -43.5 5t-31.5 9l72 628h-58q-8 0 -20 12t-12 19z" />
    <glyph glyph-name="N" unicode="N" horiz-adv-x="776" 
d="M189 555v-555h-73v637h-62q-8 0 -20 11.5t-12 19.5t12 20t20 12h111l445 -555v555h72v-700h-48z" />
    <glyph glyph-name="O" unicode="O" horiz-adv-x="824" 
d="M61 350q0 154 99.5 255.5t251.5 101.5t252 -101.5t100 -255.5t-100 -255.5t-252 -101.5t-251.5 101.5t-99.5 255.5zM146 350q0 -128 74 -207.5t192 -79.5q119 0 193 79.5t74 207.5t-74 207.5t-193 79.5t-192.5 -79.5t-73.5 -207.5z" />
    <glyph glyph-name="P" unicode="P" horiz-adv-x="636" 
d="M22 668q0 8 12 20t20 12h306q98 0 160 -59t62 -151q0 -91 -62 -150t-160 -59h-164v-281h-80v637h-62q-8 0 -20 11.5t-12 19.5zM356 635h-160v-289h160q65 0 104.5 40t39.5 104t-39.5 104.5t-104.5 40.5z" />
    <glyph glyph-name="Q" unicode="Q" horiz-adv-x="824" 
d="M61 350q0 154 99.5 255.5t251.5 101.5t252 -101.5t100 -255.5q0 -143 -87 -242t-224 -113q9 -49 43.5 -77.5t86.5 -28.5q64 0 103 39q9 0 28 -19.5t19 -29.5q-57 -60 -153 -60q-83 0 -139.5 48.5t-66.5 127.5q-138 13 -225.5 112t-87.5 243zM146 350q0 -128 74 -207.5
t192 -79.5q119 0 193 79.5t74 207.5t-74 207.5t-193 79.5t-192.5 -79.5t-73.5 -207.5z" />
    <glyph glyph-name="R" unicode="R" horiz-adv-x="647" 
d="M22 668q0 8 12 20t20 12h296q98 0 159.5 -57.5t61.5 -147.5q0 -73 -42.5 -126t-114.5 -71q84 -142 197 -255q0 -10 -21.5 -30t-31.5 -20q-138 138 -222 298h-140v-291h-80v637h-62q-8 0 -20 11.5t-12 19.5zM346 635h-150v-279h150q65 0 104 39t39 100q0 62 -39 101
t-104 39z" />
    <glyph glyph-name="S" unicode="S" horiz-adv-x="586" 
d="M126 185v-73q61 -51 160 -51q74 0 119 31.5t45 87.5q0 41 -31.5 64.5t-128.5 66.5q-13 6 -20 9q-111 49 -156 90.5t-45 112.5q0 84 59 134t166 50q125 0 205 -75v-118q0 -8 -12 -20.5t-20 -12.5t-20.5 12.5t-12.5 20.5v76q-60 48 -142 48q-68 0 -107 -31t-39 -79
q0 -42 36 -69.5t136 -73.5q125 -59 167 -96.5t42 -103.5q0 -92 -64 -142t-178 -50q-134 0 -224 75v117q0 8 11.5 20.5t19.5 12.5t21 -12.5t13 -20.5z" />
    <glyph glyph-name="T" unicode="T" horiz-adv-x="637" 
d="M28 635v65h581v-65h-250v-635h-80v635h-251z" />
    <glyph glyph-name="U" unicode="U" horiz-adv-x="771" 
d="M116 266v371h-62q-8 0 -20 11.5t-12 19.5t12 20t20 12h142v-434q0 -95 53 -149t148 -54q94 0 147 54t53 149v434h80v-434q0 -123 -77.5 -198t-202.5 -75q-126 0 -203.5 75t-77.5 198z" />
    <glyph glyph-name="V" unicode="V" horiz-adv-x="731" 
d="M700 673l-299 -673h-72l-298 673q0 5 30 19.5t40 14.5l264 -604l265 604q9 0 39.5 -15t30.5 -19z" />
    <glyph glyph-name="W" unicode="W" horiz-adv-x="1082" 
d="M1051 680l-241 -680h-79l-190 566l-190 -566h-80l-240 680q0 4 32 15.5t42 11.5l206 -594l195 587h70l195 -587l206 594q10 0 42 -11.5t32 -15.5z" />
    <glyph glyph-name="X" unicode="X" horiz-adv-x="686" 
d="M102 707l241 -293l242 293q9 0 32.5 -21.5t23.5 -30.5l-245 -297l260 -311q0 -10 -23.5 -32t-33.5 -22l-256 309l-256 -309q-9 0 -32.5 22t-23.5 32l259 311l-245 297q0 10 23.5 31t33.5 21z" />
    <glyph glyph-name="Y" unicode="Y" horiz-adv-x="657" 
d="M288 0v301l-257 359q0 9 24.5 28t33.5 19l240 -337l239 337q10 0 34.5 -19t24.5 -28l-259 -359v-301h-80z" />
    <glyph glyph-name="Z" unicode="Z" horiz-adv-x="682" 
d="M66 635v65h519q8 0 20 -12t12 -19v-32l-451 -572h451v-65h-520q-7 0 -19 12t-12 20v31l449 572h-449z" />
    <glyph glyph-name="bracketleft" unicode="[" horiz-adv-x="332" 
d="M268 -150h-174v880h174q8 0 19.5 -12t11.5 -20t-11.5 -19.5t-19.5 -11.5h-102v-754h102q8 0 19.5 -11.5t11.5 -19.5t-11.5 -20t-19.5 -12z" />
    <glyph glyph-name="backslash" unicode="\" horiz-adv-x="449" 
d="M381 -157l-371 881q0 4 21.5 8.5t36.5 4.5l371 -881q0 -4 -21.5 -8.5t-36.5 -4.5z" />
    <glyph glyph-name="bracketright" unicode="]" horiz-adv-x="332" 
d="M239 -150h-174q-8 0 -20 12t-12 20t12 19.5t20 11.5h101v754h-101q-8 0 -20 11.5t-12 19.5t12 20t20 12h174v-880z" />
    <glyph glyph-name="asciicircum" unicode="^" horiz-adv-x="455" 
d="M230 705l179 -182q0 -8 -12 -20t-20 -12l-152 136l-147 -136q-8 0 -20 12t-12 20l174 182h10z" />
    <glyph glyph-name="underscore" unicode="_" horiz-adv-x="500" 
d="M0 -129v58h500v-58h-500z" />
    <glyph glyph-name="grave" unicode="`" horiz-adv-x="261" 
d="M94 684l119 -134q0 -8 -11.5 -20t-19.5 -12l-135 120q0 11 18 28.5t29 17.5z" />
    <glyph glyph-name="a" unicode="a" horiz-adv-x="479" 
d="M231 455q82 0 126 -38t44 -112v-219q0 -26 2 -45.5t4 -25.5l2 -6v-9h-47q-8 0 -23 15t-16 23q-53 -45 -127 -45q-65 0 -105.5 33t-40.5 95q0 67 50.5 103.5t145.5 36.5q39 0 77 -6v48q0 43 -26 64.5t-72 21.5q-71 0 -115 -44q-10 0 -28 18t-18 28q66 64 167 64zM128 127
q0 -35 23 -53t63 -18q64 0 109 45v97q-40 6 -76 6q-119 0 -119 -77z" />
    <glyph glyph-name="b" unicode="b" horiz-adv-x="545" 
d="M4 698q0 8 11.5 20t19.5 12h89q8 0 20 -12t12 -20v-288q52 45 123 45q94 0 155.5 -65.5t61.5 -164.5q0 -100 -65.5 -166t-182.5 -66q-95 0 -170 44v630h-43q-7 0 -19 11.5t-12 19.5zM414 223q0 73 -42 118t-111 45q-63 0 -105 -37v-274q44 -15 93 -15q79 0 122 44.5
t43 118.5z" />
    <glyph glyph-name="c" unicode="c" horiz-adv-x="502" 
d="M443 388v-88q0 -8 -12 -20t-19 -12q-8 0 -20 12t-12 20v58q-31 29 -93 29q-72 0 -115 -45.5t-43 -118.5q0 -71 43 -116t117 -45q76 0 120 38q10 0 27.5 -17.5t17.5 -27.5q-65 -62 -168 -62q-105 0 -171.5 65t-66.5 166q0 100 67 165.5t171 65.5q44 0 82 -12.5t56.5 -28
t18.5 -26.5z" />
    <glyph glyph-name="d" unicode="d" horiz-adv-x="545" 
d="M314 698q0 8 11.5 20t19.5 12h90q8 0 19.5 -12t11.5 -20v-612q0 -26 2 -45.5t4 -25.5l3 -6v-9h-48q-8 0 -22 14t-16 23q-52 -44 -124 -44q-93 0 -155 65.5t-62 163.5q0 102 67.5 167.5t171.5 65.5q55 0 102 -22v234h-44q-7 0 -19 11.5t-12 19.5zM131 223q0 -72 41.5 -117
t111.5 -45q63 0 105 37v262q-43 27 -99 27q-73 0 -116 -45.5t-43 -118.5z" />
    <glyph glyph-name="e" unicode="e" horiz-adv-x="522" 
d="M440 199h-311q5 -64 47.5 -101t113.5 -37q81 0 126 38q9 0 25.5 -16.5t16.5 -26.5q-62 -63 -170 -63q-106 0 -173 65t-67 168q0 100 63 164.5t163 64.5q94 0 147 -60t53 -161q0 -8 -13 -21.5t-21 -13.5zM271 387q-59 0 -98.5 -35t-43.5 -94h268q0 58 -33 93.5t-93 35.5z
" />
    <glyph glyph-name="f" unicode="f" horiz-adv-x="357" 
d="M21 416q0 8 11.5 19.5t19.5 11.5h56v143q0 147 124 147q71 0 122 -51q0 -8 -16 -24t-25 -16q-24 24 -66 24q-32 0 -46.5 -21.5t-14.5 -70.5v-131h141v-63h-141v-384h-78v384h-56q-8 0 -19.5 12t-11.5 20z" />
    <glyph glyph-name="g" unicode="g" horiz-adv-x="545" 
d="M389 -28v65q-52 -44 -124 -44q-93 0 -155 65t-62 164q0 100 66 166.5t182 66.5q95 0 170 -45v-438q0 -97 -60 -151t-159 -54q-105 0 -173 65q0 10 17.5 27.5t27.5 17.5q44 -41 124 -41q69 0 107.5 35t38.5 101zM131 224q0 -73 41.5 -118t111.5 -45q63 0 105 37v273
q-48 16 -93 16q-79 0 -122 -44.5t-43 -118.5z" />
    <glyph glyph-name="h" unicode="h" horiz-adv-x="557" 
d="M9 698q0 8 11.5 20t19.5 12h89q8 0 20 -12t12 -20v-300q70 57 160 57q77 0 117.5 -42.5t40.5 -117.5v-295h-78v295q0 91 -99 91q-84 0 -141 -49v-337h-78v667h-43q-8 0 -19.5 11.5t-11.5 19.5z" />
    <glyph glyph-name="i" unicode="i" horiz-adv-x="285" 
d="M18 416q0 7 12 19t20 12h122q8 0 19.5 -11.5t11.5 -19.5v-416h-77v384h-76q-8 0 -20 12t-12 20zM91 606q0 14 21.5 35t34.5 21t34.5 -21t21.5 -35t-21.5 -35t-34.5 -21t-34.5 21t-21.5 35z" />
    <glyph glyph-name="j" unicode="j" horiz-adv-x="285" 
d="M126 25v359h-76q-8 0 -20 12t-12 20q0 7 12 19t20 12h122q8 0 19.5 -11.5t11.5 -19.5v-391q0 -45 -13.5 -88t-33 -72t-40.5 -52t-36 -34t-19 -11q-9 0 -26 14.5t-17 23.5q108 108 108 219zM91 606q0 14 21.5 35t34.5 21t34.5 -21t21.5 -35t-21.5 -35t-34.5 -21t-34.5 21
t-21.5 35z" />
    <glyph glyph-name="k" unicode="k" horiz-adv-x="474" 
d="M9 698q0 8 11.5 20t19.5 12h89q8 0 20 -12t12 -20v-439l48 6l168 190q10 0 32 -19t22 -29l-158 -178l168 -187q0 -9 -22 -29t-32 -20l-182 204l-44 -6v-191h-78v667h-43q-8 0 -19.5 11.5t-11.5 19.5z" />
    <glyph glyph-name="l" unicode="l" horiz-adv-x="270" 
d="M1 698q0 8 11.5 20t19.5 12h122q8 0 20 -12t12 -20v-698h-78v667h-76q-8 0 -19.5 11.5t-11.5 19.5z" />
    <glyph glyph-name="m" unicode="m" horiz-adv-x="815" 
d="M737 0h-78v311q0 35 -23.5 55t-66.5 20q-74 0 -125 -49q2 -16 2 -26v-311h-77v311q0 36 -23.5 55.5t-67.5 19.5q-74 0 -122 -46v-340h-78v361q0 26 -2 45.5t-4 25.5l-2 6v9h47q8 0 23.5 -15.5t15.5 -23.5v-7q61 54 143 54q98 0 131 -69q67 69 160 69q71 0 109 -38
t38 -106v-311z" />
    <glyph glyph-name="n" unicode="n" horiz-adv-x="552" 
d="M156 408v-10q70 57 160 57q77 0 117.5 -42.5t40.5 -117.5v-295h-78v295q0 91 -99 91q-84 0 -141 -49v-337h-78v361q0 26 -2 45.5t-4 25.5l-2 6v9h47q8 0 23.5 -15.5t15.5 -23.5z" />
    <glyph glyph-name="o" unicode="o" horiz-adv-x="564" 
d="M48 223q0 100 66.5 166t167.5 66t167.5 -66t66.5 -166q0 -99 -66.5 -164.5t-167.5 -65.5t-167.5 65.5t-66.5 164.5zM131 223q0 -72 42 -117t109 -45t109 45t42 117q0 73 -42 118t-109 45t-109 -45t-42 -118z" />
    <glyph glyph-name="p" unicode="p" horiz-adv-x="545" 
d="M258 -7q-56 0 -102 20v-238h-78v586q0 26 -2 45.5t-4 25.5l-2 6v9h47q7 0 22 -14t17 -23q52 45 123 45q94 0 155.5 -65.5t61.5 -164.5q0 -102 -67 -167t-171 -65zM414 224q0 72 -42 117t-111 45q-63 0 -105 -37v-263q44 -26 99 -26q73 0 116 45.5t43 118.5z" />
    <glyph glyph-name="q" unicode="q" horiz-adv-x="545" 
d="M466 410v-635h-77v262q-52 -44 -124 -44q-93 0 -155 65t-62 164q0 100 66 166.5t182 66.5q95 0 170 -45zM131 224q0 -73 41.5 -118t111.5 -45q63 0 105 37v273q-48 16 -93 16q-79 0 -122 -44.5t-43 -118.5z" />
    <glyph glyph-name="r" unicode="r" horiz-adv-x="361" 
d="M156 408v-36q73 80 172 80v-68q-46 0 -94 -22t-78 -62v-300h-78v361q0 26 -2 45.5t-4 25.5l-2 6v9h47q8 0 23.5 -15.5t15.5 -23.5z" />
    <glyph glyph-name="s" unicode="s" horiz-adv-x="419" 
d="M203 57q40 0 65 16t25 45q0 18 -15 32t-31 21.5t-59 24.5q-73 30 -102.5 57t-29.5 76q0 59 40 92.5t114 33.5q85 0 141 -56q0 -9 -17.5 -26.5t-26.5 -17.5q-33 35 -97 35q-38 0 -59.5 -15.5t-21.5 -41.5q0 -17 12 -29.5t28.5 -20.5t58.5 -25q77 -33 108 -60t31 -76
q0 -61 -43.5 -95t-119.5 -34q-96 0 -158 62q0 9 18 27t27 18q41 -43 112 -43z" />
    <glyph glyph-name="t" unicode="t" horiz-adv-x="384" 
d="M21 416q0 8 11.5 19.5t19.5 11.5h60v136l52 29h22v-165h148v-63h-148v-266q0 -58 56 -58q45 0 73 29q9 0 24.5 -16t15.5 -25q-55 -55 -129 -55q-56 0 -87 28.5t-31 84.5v278h-56q-8 0 -19.5 12t-11.5 20z" />
    <glyph glyph-name="u" unicode="u" horiz-adv-x="547" 
d="M396 175v272h77v-272q0 -80 -57 -131t-143 -51q-85 0 -142 51t-57 131v272h78v-272q0 -49 34 -81.5t87 -32.5t88 33t35 81z" />
    <glyph glyph-name="v" unicode="v" horiz-adv-x="501" 
d="M478 420l-197 -420h-62l-196 420q0 5 29.5 18.5t39.5 13.5l159 -354l158 354q10 0 39.5 -13.5t29.5 -18.5z" />
    <glyph glyph-name="w" unicode="w" horiz-adv-x="742" 
d="M719 425l-163 -425h-69l-116 322l-116 -322h-69l-163 425q0 5 30 16t40 11l127 -351l123 346h56l123 -346l127 351q10 0 40 -11t30 -16z" />
    <glyph glyph-name="x" unicode="x" horiz-adv-x="482" 
d="M98 455l145 -172l143 172q10 0 32.5 -21.5t22.5 -30.5l-147 -175l155 -181q0 -10 -23 -32t-32 -22l-151 181l-152 -181q-10 0 -32.5 22t-22.5 32l155 181l-148 175q0 9 23 30.5t32 21.5z" />
    <glyph glyph-name="y" unicode="y" horiz-adv-x="501" 
d="M475 420l-292 -646q-10 0 -41 14.5t-31 19.5l100 192l-185 420q0 5 29.5 18.5t39.5 13.5l154 -359l157 359q10 0 39.5 -13.5t29.5 -18.5z" />
    <glyph glyph-name="z" unicode="z" horiz-adv-x="485" 
d="M59 384v63h337q7 0 19 -12t12 -19v-32l-273 -321h273v-63h-340q-7 0 -19 12.5t-12 19.5v31l272 321h-269z" />
    <glyph glyph-name="braceleft" unicode="{" horiz-adv-x="328" 
d="M28 261v58h14q71 0 71 80q0 23 -10 113.5t-10 112.5q0 50 32.5 81t85.5 31q25 0 46.5 -8t30.5 -16l9 -8q0 -11 -10 -26.5t-20 -15.5q-13 10 -40 10q-62 0 -62 -66q0 -21 10.5 -107.5t10.5 -109.5q0 -70 -55 -100q55 -31 55 -100q0 -23 -10.5 -109.5t-10.5 -107.5
q0 -67 63 -67q12 0 22 3t14 5l4 3q9 0 19 -16t10 -26q-31 -33 -87 -33q-51 0 -84 32t-33 81q0 21 10 111.5t10 114.5q0 80 -71 80h-14z" />
    <glyph glyph-name="bar" unicode="|" horiz-adv-x="202" 
d="M130 -150h-58v880h58v-880z" />
    <glyph glyph-name="braceright" unicode="}" horiz-adv-x="328" 
d="M301 319v-58h-15q-71 0 -71 -80q0 -24 10.5 -114.5t10.5 -111.5q0 -50 -33 -81.5t-85 -31.5q-25 0 -46.5 8t-31.5 16l-9 9q0 10 10 26t19 16q13 -11 40 -11q64 0 64 67q0 21 -11 107t-11 110q0 68 55 100q-55 31 -55 99q0 23 11 110t11 108q0 66 -63 66q-12 0 -22 -2.5
t-14 -4.5l-4 -3q-10 0 -20 15.5t-10 26.5q29 32 87 32q52 0 85 -31t33 -81q0 -22 -10.5 -112.5t-10.5 -113.5q0 -80 71 -80h15z" />
    <glyph glyph-name="asciitilde" unicode="~" horiz-adv-x="600" 
d="M79 298q2 3 7 9t20 20.5t30.5 25.5t39 20t46.5 9q38 0 88 -33t78 -33q26 0 51 16t37 32l12 15q8 0 22.5 -14t14.5 -22q-7 -9 -18.5 -23t-48.5 -37.5t-74 -23.5q-38 0 -88.5 32.5t-78.5 32.5q-25 0 -50.5 -15.5t-38.5 -30.5l-12 -16q-8 0 -22.5 14t-14.5 22z" />
    <glyph glyph-name="exclamdown" unicode="&#xa1;" horiz-adv-x="219" 
d="M171 404q0 -15 -23 -38t-38 -23t-38.5 23t-23.5 38t23.5 38t38.5 23t38 -23t23 -38zM81 250h58l11 -475h-81z" />
    <glyph glyph-name="cent" unicode="&#xa2;" horiz-adv-x="502" 
d="M443 388v-88q0 -8 -12 -20t-19 -12q-8 0 -20 12t-12 20v58q-31 29 -93 29q-72 0 -115 -45.5t-43 -118.5q0 -71 43 -116t117 -45q76 0 120 38q10 0 27.5 -17.5t17.5 -27.5q-56 -53 -142 -61v-94h-58v95q-93 10 -149.5 73t-56.5 156q0 92 57 155.5t149 73.5v94h58v-93
q55 -5 93 -27t38 -39z" />
    <glyph glyph-name="sterling" unicode="&#xa3;" horiz-adv-x="490" 
d="M360 371v-58h-166q10 -38 10 -79q0 -47 -12 -89.5t-24 -62.5l-12 -19h299v-63h-402v63h29q5 7 13.5 21t22 60t13.5 94q0 35 -9 75h-64v58h46q-2 4 -7 18t-7 19.5t-6 18t-6 21t-4 20t-3 22.5t-1 23q0 92 53.5 143t147.5 51q36 0 67.5 -8t51.5 -19t34.5 -22t21.5 -19l6 -8
q0 -9 -15 -23.5t-24 -14.5q-5 6 -15.5 14t-46 22t-75.5 14q-133 0 -133 -138q0 -52 32 -134h185z" />
    <glyph glyph-name="currency" unicode="&#xa4;" horiz-adv-x="600" 
d="M119 320q0 61 32 107l-91 92q0 8 16.5 24.5t24.5 16.5l91 -92q47 33 108 33t107 -33l92 92q8 0 24.5 -16.5t16.5 -24.5l-92 -92q33 -46 33 -107q0 -59 -34 -108l93 -92q0 -8 -16.5 -24.5t-24.5 -16.5l-93 93q-48 -32 -106 -32q-60 0 -107 31l-92 -91q-8 0 -24.5 16.5
t-16.5 24.5l91 92q-32 46 -32 107zM182 320q0 -53 32.5 -86t85.5 -33q52 0 85 33t33 86t-33 86t-85 33q-53 0 -85.5 -33t-32.5 -86z" />
    <glyph glyph-name="yen" unicode="&#xa5;" horiz-adv-x="657" 
d="M135 238v58h153v5l-257 359q0 9 24.5 28t33.5 19l240 -337l239 337q10 0 34.5 -19t24.5 -28l-259 -359v-5h150v-58h-150v-72h150v-58h-150v-108h-80v108h-153v58h153v72h-153z" />
    <glyph glyph-name="brokenbar" unicode="&#xa6;" horiz-adv-x="202" 
d="M130 730v-390h-58v390h58zM130 -150h-58v390h58v-390z" />
    <glyph glyph-name="section" unicode="&#xa7;" horiz-adv-x="506" 
d="M448 196q0 -90 -79 -137q77 -61 77 -136q0 -66 -51.5 -110.5t-145.5 -44.5q-121 0 -199 85q0 9 18 26.5t27 17.5q59 -65 151 -65q59 0 93 28t34 68q0 35 -32.5 67t-78.5 58t-92.5 55t-79 71.5t-32.5 93.5q0 42 21 79.5t60 60.5q-79 64 -79 141q0 66 50.5 109.5
t139.5 43.5q112 0 180 -78q0 -9 -17 -26.5t-27 -17.5q-48 58 -134 58q-56 0 -87.5 -27.5t-31.5 -65.5q0 -36 32.5 -69t78.5 -60.5t92.5 -57.5t79 -73t32.5 -94zM375 200q0 18 -8 35t-18 29t-31 28.5t-34.5 25t-42.5 26.5t-41 26q-33 -14 -51 -41.5t-18 -58.5q0 -15 4.5 -29
t16 -28t20 -23.5t29 -23t30.5 -20t36.5 -22t34.5 -20.5q34 12 53.5 39t19.5 57z" />
    <glyph glyph-name="dieresis" unicode="&#xa8;" horiz-adv-x="438" 
d="M75 582q0 11 18 29t29 18t29 -18t18 -29t-18 -29t-29 -18t-29 18t-18 29zM274 582q0 11 18 29t29 18q12 0 30 -18t18 -29t-18 -29t-30 -18q-11 0 -29 18t-18 29z" />
    <glyph glyph-name="copyright" unicode="&#xa9;" horiz-adv-x="824" 
d="M61 350q0 154 99.5 255.5t251.5 101.5t252 -101.5t100 -255.5t-100 -255.5t-252 -101.5t-251.5 101.5t-99.5 255.5zM124 350q0 -133 80 -216t208 -83q129 0 208.5 83t79.5 216q0 134 -79.5 216.5t-208.5 82.5q-128 0 -208 -83t-80 -216zM500 415v38q-29 24 -74 24
q-55 0 -87 -35t-32 -92q0 -59 32 -94t87 -35q58 0 92 34q7 0 21 -14t14 -21q-49 -51 -130 -51q-79 0 -129.5 51t-50.5 129t50.5 129t128.5 51q75 0 126 -49v-65q0 -6 -9.5 -15t-14.5 -9q-6 0 -15 9t-9 15z" />
    <glyph glyph-name="ordfeminine" unicode="&#xaa;" horiz-adv-x="298" 
d="M144 705q105 0 105 -92v-122q0 -19 1.5 -32.5t2.5 -17.5l1 -4v-6h-32q-5 0 -14 7.5t-12 14.5q-30 -27 -75 -27q-40 0 -64 20t-24 58q0 40 30.5 62.5t88.5 22.5q10 0 43 -3v25q0 49 -56 49q-41 0 -67 -26q-7 0 -19 12.5t-12 19.5q39 39 103 39zM87 508q0 -39 47 -39
q36 0 61 25v53q-24 4 -42 4q-66 0 -66 -43z" />
    <glyph glyph-name="guillemotleft" unicode="&#xab;" horiz-adv-x="473" 
d="M35 268l182 184q8 0 20 -12t12 -20l-136 -157l136 -153q0 -8 -12 -19.5t-20 -11.5l-182 179v10zM215 268l181 184q8 0 20 -12t12 -20l-136 -157l136 -153q0 -8 -12 -19.5t-20 -11.5l-181 179v10z" />
    <glyph glyph-name="logicalnot" unicode="&#xac;" horiz-adv-x="600" 
d="M85 291v58h420v-183h-59v125h-361z" />
    <glyph glyph-name="uni00AD" unicode="&#xad;" horiz-adv-x="350" 
d="M50 261v58h250v-58h-250z" />
    <glyph glyph-name="registered" unicode="&#xae;" horiz-adv-x="824" 
d="M61 347q0 155 99.5 256.5t251.5 101.5t252 -101.5t100 -256.5q0 -154 -100 -255.5t-252 -101.5q-151 0 -251 101.5t-100 255.5zM124 347q0 -132 80 -215t208 -83q129 0 208.5 83t79.5 215q0 134 -79.5 217t-208.5 83q-128 0 -208 -83t-80 -217zM260 502q0 5 8.5 14
t14.5 9h147q53 0 85.5 -29.5t32.5 -76.5q0 -34 -18.5 -60t-51.5 -37q40 -67 89 -114q0 -7 -16 -22.5t-23 -15.5q-70 68 -108 144h-52v-139h-60v304h-25q-6 0 -14.5 9t-8.5 14zM427 477h-59v-115h59q28 0 43.5 16t15.5 41q0 26 -15.5 42t-43.5 16z" />
    <glyph glyph-name="macron" unicode="&#xaf;" horiz-adv-x="435" 
d="M81 556v53h273v-53h-273z" />
    <glyph glyph-name="degree" unicode="&#xb0;" horiz-adv-x="301" 
d="M52 609q0 43 27.5 70t70.5 27q44 0 71.5 -27t27.5 -70t-27.5 -70t-71.5 -27q-43 0 -70.5 27t-27.5 70zM97 609q0 -24 15 -38.5t38 -14.5q24 0 39 14.5t15 38.5t-15 38.5t-39 14.5q-23 0 -38 -14.5t-15 -38.5z" />
    <glyph glyph-name="plusminus" unicode="&#xb1;" horiz-adv-x="600" 
d="M95 341v58h176v176h58v-176h176v-58h-176v-176h-58v176h-176zM95 39v58h410v-58h-410z" />
    <glyph glyph-name="twosuperior" unicode="&#xb2;" horiz-adv-x="300" 
d="M264 604q0 -35 -24 -74t-59 -70t-54.5 -46t-31.5 -22h174v-42h-222q-5 0 -12.5 8t-7.5 12v22q8 5 20 14t44 35t56.5 50t44.5 55t20 55q0 25 -18.5 42.5t-52.5 17.5q-50 0 -85 -37q-6 0 -17.5 11.5t-11.5 17.5q47 51 119 51q55 0 86.5 -29.5t31.5 -70.5z" />
    <glyph glyph-name="threesuperior" unicode="&#xb3;" horiz-adv-x="300" 
d="M42 658v42h187q4 0 11.5 -7.5t7.5 -12.5v-19l-85 -97h1q48 0 76 -28t28 -78q0 -52 -33 -82t-92 -30q-76 0 -122 48q0 5 11.5 17t17.5 12q34 -34 89 -34q37 0 57 18.5t20 51.5q0 30 -16.5 47.5t-47.5 17.5q-9 0 -17.5 -1t-13.5 -2.5t-6 -1.5q-4 0 -14 9.5t-10 14.5
l102 115h-151z" />
    <glyph glyph-name="acute" unicode="&#xb4;" horiz-adv-x="261" 
d="M47 550l120 134q11 0 28.5 -17.5t17.5 -28.5l-134 -120q-8 0 -20 12t-12 20z" />
    <glyph glyph-name="paragraph" unicode="&#xb6;" horiz-adv-x="617" 
d="M339 -150h-63v431q-98 0 -160 59t-62 150q0 92 62 151t161 59h286q8 0 20 -12t12 -20t-12 -19.5t-20 -11.5h-62v-787h-63v787h-99v-787z" />
    <glyph glyph-name="periodcentered" unicode="&#xb7;" horiz-adv-x="219" 
d="M51 300q0 14 22.5 36.5t36.5 22.5t36 -22.5t22 -36.5t-22 -36.5t-36 -22.5t-36.5 22.5t-22.5 36.5z" />
    <glyph glyph-name="cedilla" unicode="&#xb8;" horiz-adv-x="205" 
d="M66 0h46l-7 -53q3 0 7.5 -0.5t16 -4t20.5 -8.5t16 -15.5t7 -24.5q0 -29 -28 -54.5t-56 -37.5l-29 -11q-8 0 -18.5 11t-10.5 19q10 3 24.5 9t39 23.5t24.5 33.5q0 13 -15.5 21t-30.5 10l-16 1z" />
    <glyph glyph-name="onesuperior" unicode="&#xb9;" horiz-adv-x="238" 
d="M220 370q0 -5 -7.5 -12.5t-12.5 -7.5h-153q-4 0 -11.5 7.5t-7.5 12.5q0 4 7.5 12t11.5 8h54v264l-55 -20q-4 0 -11 13.5t-7 20.5l98 32h24v-310h50q5 0 12.5 -7.5t7.5 -12.5z" />
    <glyph glyph-name="ordmasculine" unicode="&#xba;" horiz-adv-x="347" 
d="M32 565q0 61 40 100t101 39q62 0 102 -39t40 -100q0 -60 -40 -99.5t-102 -39.5q-61 0 -101 39.5t-40 99.5zM89 565q0 -41 23.5 -67t60.5 -26q38 0 61.5 26t23.5 67t-23.5 67t-61.5 26q-37 0 -60.5 -26t-23.5 -67z" />
    <glyph glyph-name="guillemotright" unicode="&#xbb;" horiz-adv-x="478" 
d="M77 452l187 -180v-9l-182 -180q-8 0 -19.5 12t-11.5 20l136 153l-142 152q0 8 12 20t20 12zM256 452l187 -180v-9l-182 -180q-8 0 -19.5 12t-11.5 20l136 153l-141 152q0 8 11.5 20t19.5 12z" />
    <glyph glyph-name="onequarter" unicode="&#xbc;" horiz-adv-x="698" 
d="M575 694l-370 -701q-15 0 -37.5 4.5t-22.5 8.5l370 701q16 0 38 -4.5t22 -8.5zM581 0v70h-154q-4 0 -11.5 7.5t-7.5 12.5v20l176 240h46v-240h38v-40h-38v-70h-49zM220 370q0 -5 -7.5 -12.5t-12.5 -7.5h-153q-4 0 -11.5 7.5t-7.5 12.5q0 4 7.5 12t11.5 8h54v264l-55 -20
q-4 0 -11 13.5t-7 20.5l98 32h24v-310h50q5 0 12.5 -7.5t7.5 -12.5zM460 113h121v163z" />
    <glyph glyph-name="onehalf" unicode="&#xbd;" horiz-adv-x="744" 
d="M575 694l-370 -701q-15 0 -37.5 4.5t-22.5 8.5l370 701q16 0 38 -4.5t22 -8.5zM706 254q0 -35 -24 -74t-59 -70t-54.5 -46t-31.5 -22h174v-42h-222q-5 0 -12.5 8t-7.5 12v22q8 5 20 14t44 35t56.5 50t44.5 55t20 55q0 25 -18.5 42.5t-52.5 17.5q-50 0 -85 -37
q-6 0 -17.5 11.5t-11.5 17.5q49 51 119 51q55 0 86.5 -29.5t31.5 -70.5zM220 370q0 -5 -7.5 -12.5t-12.5 -7.5h-153q-4 0 -11.5 7.5t-7.5 12.5q0 4 7.5 12t11.5 8h54v264l-55 -20q-4 0 -11 13.5t-7 20.5l98 32h24v-310h50q5 0 12.5 -7.5t7.5 -12.5z" />
    <glyph glyph-name="threequarters" unicode="&#xbe;" horiz-adv-x="716" 
d="M590 694l-370 -701q-15 0 -37.5 4.5t-22.5 8.5l370 701q16 0 38 -4.5t22 -8.5zM599 0v70h-155q-4 0 -11.5 8t-7.5 12v20l177 240h46v-240h38v-40h-38v-70h-49zM42 658v42h187q4 0 11.5 -7.5t7.5 -12.5v-19l-85 -97h1q48 0 76 -28t28 -78q0 -52 -33 -82t-92 -30
q-76 0 -122 48q0 5 11.5 17t17.5 12q34 -34 89 -34q37 0 57 18.5t20 51.5q0 30 -16.5 47.5t-47.5 17.5q-9 0 -17.5 -1t-13.5 -2.5t-6 -1.5q-4 0 -14 9.5t-10 14.5l102 115h-151zM478 113h121v163z" />
    <glyph glyph-name="questiondown" unicode="&#xbf;" horiz-adv-x="538" 
d="M332 404q0 -15 -23 -38t-38 -23t-38 23t-23 38t23 38t38 23t38 -23t23 -38zM242 256h58l9 -136l-7 -4q-7 -3 -14.5 -7t-19 -11t-22.5 -14t-24 -17t-24 -20t-21.5 -22.5t-17.5 -25t-11.5 -27t-4.5 -29.5q0 -43 36.5 -74.5t98.5 -31.5q93 0 161 79q10 0 28 -18.5t18 -28.5
q-91 -101 -215 -101q-94 0 -151.5 49.5t-57.5 117.5q0 37 18 73.5t43.5 62t51.5 45t44 29.5l18 10z" />
    <glyph glyph-name="Agrave" unicode="&#xc0;" horiz-adv-x="744" 
d="M408 700l302 -673q0 -5 -30 -19.5t-40 -14.5l-90 204h-357l-90 -204q-9 0 -39.5 15t-30.5 19l276 610h-53q-8 0 -20 12t-12 19q0 8 12 20t20 12h152zM371 602l-150 -340h302zM308 937l120 -135q0 -8 -12 -19.5t-20 -11.5l-134 120q0 11 17.5 28.5t28.5 17.5z" />
    <glyph glyph-name="Aacute" unicode="&#xc1;" horiz-adv-x="744" 
d="M408 700l302 -673q0 -5 -30 -19.5t-40 -14.5l-90 204h-357l-90 -204q-9 0 -39.5 15t-30.5 19l276 610h-53q-8 0 -20 12t-12 19q0 8 12 20t20 12h152zM371 602l-150 -340h302zM301 802l120 135q11 0 28.5 -17.5t17.5 -28.5l-134 -120q-8 0 -20 11.5t-12 19.5z" />
    <glyph glyph-name="Acircumflex" unicode="&#xc2;" horiz-adv-x="744" 
d="M408 700l302 -673q0 -5 -30 -19.5t-40 -14.5l-90 204h-357l-90 -204q-9 0 -39.5 15t-30.5 19l276 610h-53q-8 0 -20 12t-12 19q0 8 12 20t20 12h152zM371 602l-150 -340h302zM369 930l122 -125q0 -7 -11.5 -19t-19.5 -12l-96 86l-94 -86q-8 0 -20 11.5t-12 19.5l122 125
h9z" />
    <glyph glyph-name="Atilde" unicode="&#xc3;" horiz-adv-x="744" 
d="M408 700l302 -673q0 -5 -30 -19.5t-40 -14.5l-90 204h-357l-90 -204q-9 0 -39.5 15t-30.5 19l276 610h-53q-8 0 -20 12t-12 19q0 8 12 20t20 12h152zM371 602l-150 -340h302zM225 817q4 7 11.5 17.5t32 28.5t48.5 18q22 0 52 -17.5t45 -17.5q10 0 19.5 4t16 9.5t11.5 11
t8 9.5l3 4q7 0 20 -11.5t13 -18.5q-2 -3 -4.5 -7t-12 -15t-19.5 -19.5t-25.5 -15.5t-31.5 -7q-22 0 -52 17.5t-45 17.5q-10 0 -19.5 -4t-16.5 -9.5t-12 -11t-8 -9.5l-3 -4q-6 0 -18.5 11.5t-12.5 18.5z" />
    <glyph glyph-name="Adieresis" unicode="&#xc4;" horiz-adv-x="744" 
d="M408 700l302 -673q0 -5 -30 -19.5t-40 -14.5l-90 204h-357l-90 -204q-9 0 -39.5 15t-30.5 19l276 610h-53q-8 0 -20 12t-12 19q0 8 12 20t20 12h152zM371 602l-150 -340h302zM218 835q0 11 17.5 29t29.5 18q11 0 29 -18t18 -29t-18 -29t-29 -18q-12 0 -29.5 18t-17.5 29z
M417 835q0 11 18 29t29 18t29 -18t18 -29t-18 -29t-29 -18t-29 18t-18 29z" />
    <glyph glyph-name="Aring" unicode="&#xc5;" horiz-adv-x="744" 
d="M408 700l302 -673q0 -5 -30 -19.5t-40 -14.5l-90 204h-357l-90 -204q-9 0 -39.5 15t-30.5 19l276 610h-53q-8 0 -20 12t-12 19q0 8 12 20t20 12h152zM371 602l-150 -340h302zM272 853q0 40 26 65.5t66 25.5q41 0 67 -25.5t26 -65.5t-26 -65.5t-67 -25.5q-40 0 -66 25.5
t-26 65.5zM315 853q0 -22 13.5 -36t35.5 -14t36 13.5t14 36.5q0 22 -14 35.5t-36 13.5t-35.5 -13.5t-13.5 -35.5z" />
    <glyph glyph-name="AE" unicode="&#xc6;" horiz-adv-x="857" 
d="M390 0v197h-195l-92 -204q-9 0 -39.5 15t-30.5 19l289 610h-53q-7 0 -19 11.5t-12 19.5t11.5 20t19.5 12h528v-65h-327v-246h287v-66h-287v-258h332v-65h-412zM385 602l-163 -340h168v340h-5z" />
    <glyph glyph-name="Ccedilla" unicode="&#xc7;" horiz-adv-x="731" 
d="M598 488v87q-71 62 -181 62q-124 0 -197.5 -79t-73.5 -208t74.5 -208t197.5 -79q131 0 208 80q10 0 28.5 -19t18.5 -28q-94 -98 -244 -103l-6 -46q3 0 7.5 -0.5t16 -4t20.5 -8.5t16 -15.5t7 -24.5q0 -29 -28 -54.5t-56 -37.5l-29 -11q-8 0 -18.5 11t-10.5 19q10 3 24.5 9
t39 23.5t24.5 33.5q0 13 -15.5 21t-30.5 10l-16 1l9 75q-142 11 -232 110.5t-90 245.5q0 155 99.5 256t252.5 101q152 0 250 -98v-121q0 -8 -12.5 -20.5t-20.5 -12.5t-20 12.5t-12 20.5z" />
    <glyph glyph-name="Egrave" unicode="&#xc8;" horiz-adv-x="633" 
d="M22 668q0 8 12 20t20 12h519v-65h-377v-246h337v-66h-337v-258h382v-65h-462v637h-62q-8 0 -20 11.5t-12 19.5zM275 937l120 -135q0 -8 -12 -19.5t-20 -11.5l-134 120q0 11 17.5 28.5t28.5 17.5z" />
    <glyph glyph-name="Eacute" unicode="&#xc9;" horiz-adv-x="633" 
d="M22 668q0 8 12 20t20 12h519v-65h-377v-246h337v-66h-337v-258h382v-65h-462v637h-62q-8 0 -20 11.5t-12 19.5zM269 802l119 135q11 0 29 -17.5t18 -28.5l-135 -120q-8 0 -19.5 11.5t-11.5 19.5z" />
    <glyph glyph-name="Ecircumflex" unicode="&#xca;" horiz-adv-x="633" 
d="M22 668q0 8 12 20t20 12h519v-65h-377v-246h337v-66h-337v-258h382v-65h-462v637h-62q-8 0 -20 11.5t-12 19.5zM336 930l122 -125q0 -8 -12 -19.5t-20 -11.5l-95 86l-95 -86q-8 0 -20 11.5t-12 19.5l123 125h9z" />
    <glyph glyph-name="Edieresis" unicode="&#xcb;" horiz-adv-x="633" 
d="M22 668q0 8 12 20t20 12h519v-65h-377v-246h337v-66h-337v-258h382v-65h-462v637h-62q-8 0 -20 11.5t-12 19.5zM185 835q0 11 17.5 29t29.5 18q11 0 29 -18t18 -29t-18 -29t-29 -18q-12 0 -29.5 18t-17.5 29zM384 835q0 11 18 29t29 18t29 -18t18 -29t-18 -29t-29 -18
t-29 18t-18 29z" />
    <glyph glyph-name="Igrave" unicode="&#xcc;" horiz-adv-x="412" 
d="M379 32q0 -8 -12 -20t-20 -12h-282q-8 0 -20 12t-12 20t12 19.5t20 11.5h101v574h-101q-8 0 -20 11.5t-12 19.5t12 20t20 12h282q8 0 20 -12t12 -20q0 -7 -12 -19t-20 -12h-101v-574h101q8 0 20 -12t12 -19zM149 912l119 -135q0 -7 -12 -19t-19 -12l-135 120
q0 11 18 28.5t29 17.5z" />
    <glyph glyph-name="Iacute" unicode="&#xcd;" horiz-adv-x="412" 
d="M379 32q0 -8 -12 -20t-20 -12h-282q-8 0 -20 12t-12 20t12 19.5t20 11.5h101v574h-101q-8 0 -20 11.5t-12 19.5t12 20t20 12h282q8 0 20 -12t12 -20q0 -7 -12 -19t-20 -12h-101v-574h101q8 0 20 -12t12 -19zM142 777l120 135q11 0 28.5 -17.5t17.5 -28.5l-134 -120
q-8 0 -20 11.5t-12 19.5z" />
    <glyph glyph-name="Icircumflex" unicode="&#xce;" horiz-adv-x="412" 
d="M379 32q0 -8 -12 -20t-20 -12h-282q-8 0 -20 12t-12 20t12 19.5t20 11.5h101v574h-101q-8 0 -20 11.5t-12 19.5t12 20t20 12h282q8 0 20 -12t12 -20q0 -7 -12 -19t-20 -12h-101v-574h101q8 0 20 -12t12 -19zM210 905l123 -125q0 -8 -12 -20t-20 -12l-95 86l-95 -86
q-8 0 -20 12t-12 20l122 125h9z" />
    <glyph glyph-name="Idieresis" unicode="&#xcf;" horiz-adv-x="412" 
d="M379 32q0 -8 -12 -20t-20 -12h-282q-8 0 -20 12t-12 20t12 19.5t20 11.5h101v574h-101q-8 0 -20 11.5t-12 19.5t12 20t20 12h282q8 0 20 -12t12 -20q0 -7 -12 -19t-20 -12h-101v-574h101q8 0 20 -12t12 -19zM59 810q0 11 18 29t29 18t29 -18t18 -29t-18 -29t-29 -18
t-29 18t-18 29zM259 810q0 11 18 29t29 18t29 -18t18 -29t-18 -29t-29 -18t-29 18t-18 29z" />
    <glyph glyph-name="Eth" unicode="&#xd0;" horiz-adv-x="786" 
d="M29 668q0 8 12 20t20 12h318q152 0 249 -98.5t97 -251.5t-97 -251.5t-249 -98.5h-256v323h-62q-7 0 -19.5 12.5t-12.5 19.5t12.5 19.5t19.5 12.5h62v250h-62q-8 0 -20 12t-12 19zM203 65h176q119 0 190.5 78.5t71.5 206.5t-71.5 206.5t-190.5 78.5h-176v-248h188v-64
h-188v-258z" />
    <glyph glyph-name="Ntilde" unicode="&#xd1;" horiz-adv-x="776" 
d="M189 555v-555h-73v637h-62q-8 0 -20 11.5t-12 19.5t12 20t20 12h111l445 -555v555h72v-700h-48zM258 817q4 7 11.5 17.5t32 28.5t48.5 18q22 0 52 -17.5t45 -17.5q10 0 19.5 4t16 9.5t11.5 11t8 9.5l3 4q7 0 20 -11.5t13 -18.5q-4 -7 -11.5 -17.5t-32 -28.5t-48.5 -18
q-22 0 -52.5 17.5t-45.5 17.5q-10 0 -19 -4t-16 -9.5t-12 -11t-8 -9.5l-3 -4q-7 0 -19.5 11.5t-12.5 18.5z" />
    <glyph glyph-name="Ograve" unicode="&#xd2;" horiz-adv-x="824" 
d="M61 350q0 154 99.5 255.5t251.5 101.5t252 -101.5t100 -255.5t-100 -255.5t-252 -101.5t-251.5 101.5t-99.5 255.5zM146 350q0 -128 74 -207.5t192 -79.5q119 0 193 79.5t74 207.5t-74 207.5t-193 79.5t-192.5 -79.5t-73.5 -207.5zM345 937l120 -135q0 -8 -12 -19.5
t-20 -11.5l-134 120q0 11 17.5 28.5t28.5 17.5z" />
    <glyph glyph-name="Oacute" unicode="&#xd3;" horiz-adv-x="824" 
d="M61 350q0 154 99.5 255.5t251.5 101.5t252 -101.5t100 -255.5t-100 -255.5t-252 -101.5t-251.5 101.5t-99.5 255.5zM146 350q0 -128 74 -207.5t192 -79.5q119 0 193 79.5t74 207.5t-74 207.5t-193 79.5t-192.5 -79.5t-73.5 -207.5zM359 802l119 135q11 0 29 -17.5
t18 -28.5l-135 -120q-8 0 -19.5 11.5t-11.5 19.5z" />
    <glyph glyph-name="Ocircumflex" unicode="&#xd4;" horiz-adv-x="824" 
d="M61 350q0 154 99.5 255.5t251.5 101.5t252 -101.5t100 -255.5t-100 -255.5t-252 -101.5t-251.5 101.5t-99.5 255.5zM146 350q0 -128 74 -207.5t192 -79.5q119 0 193 79.5t74 207.5t-74 207.5t-193 79.5t-192.5 -79.5t-73.5 -207.5zM417 930l122 -125q0 -8 -12 -19.5
t-20 -11.5l-95 86l-95 -86q-8 0 -20 11.5t-12 19.5l123 125h9z" />
    <glyph glyph-name="Otilde" unicode="&#xd5;" horiz-adv-x="824" 
d="M61 350q0 154 99.5 255.5t251.5 101.5t252 -101.5t100 -255.5t-100 -255.5t-252 -101.5t-251.5 101.5t-99.5 255.5zM146 350q0 -128 74 -207.5t192 -79.5q119 0 193 79.5t74 207.5t-74 207.5t-193 79.5t-192.5 -79.5t-73.5 -207.5zM272 817q2 3 4.5 7t12 15t19.5 19.5
t25.5 15.5t31.5 7q21 0 51 -17.5t46 -17.5q10 0 19.5 4t16 9.5t11.5 11t8 9.5l3 4q6 0 19 -11.5t13 -18.5q-4 -7 -11.5 -17.5t-31.5 -28.5t-49 -18q-22 0 -52.5 17.5t-45.5 17.5q-10 0 -19 -4t-16 -9.5t-12 -11t-8 -9.5l-3 -4q-6 0 -19 11.5t-13 18.5z" />
    <glyph glyph-name="Odieresis" unicode="&#xd6;" horiz-adv-x="824" 
d="M61 350q0 154 99.5 255.5t251.5 101.5t252 -101.5t100 -255.5t-100 -255.5t-252 -101.5t-251.5 101.5t-99.5 255.5zM146 350q0 -128 74 -207.5t192 -79.5q119 0 193 79.5t74 207.5t-74 207.5t-193 79.5t-192.5 -79.5t-73.5 -207.5zM265 835q0 11 18 29t29 18t29 -18
t18 -29t-18 -29t-29 -18t-29 18t-18 29zM465 835q0 11 18 29t29 18t29 -18t18 -29t-18 -29t-29 -18t-29 18t-18 29z" />
    <glyph glyph-name="multiply" unicode="&#xd7;" horiz-adv-x="600" 
d="M148 513l152 -152l152 152q8 0 24.5 -16.5t16.5 -24.5l-152 -152l152 -152q0 -8 -16.5 -24.5t-24.5 -16.5l-152 152l-152 -152q-8 0 -24.5 16.5t-16.5 24.5l152 152l-152 152q0 8 16.5 24.5t24.5 16.5z" />
    <glyph glyph-name="Oslash" unicode="&#xd8;" horiz-adv-x="824" 
d="M632 714l-31 -59q76 -46 119.5 -126t43.5 -179q0 -154 -100 -255.5t-252 -101.5q-72 0 -136 25l-23 -45q-16 0 -38 4.5t-22 8.5l30 59q-76 47 -119 126.5t-43 178.5q0 154 99.5 255.5t251.5 101.5q73 0 136 -26l24 46q16 0 38 -4.5t22 -8.5zM143 350q0 -162 112 -242
l262 512q-51 19 -105 19q-120 0 -194.5 -80.5t-74.5 -208.5zM681 350q0 161 -112 241l-262 -511q47 -19 105 -19q120 0 194.5 80.5t74.5 208.5z" />
    <glyph glyph-name="Ugrave" unicode="&#xd9;" horiz-adv-x="771" 
d="M116 266v371h-62q-8 0 -20 11.5t-12 19.5t12 20t20 12h142v-434q0 -95 53 -149t148 -54q94 0 147 54t53 149v434h80v-434q0 -123 -77.5 -198t-202.5 -75q-126 0 -203.5 75t-77.5 198zM336 937l120 -135q0 -8 -12 -19.5t-20 -11.5l-134 120q0 11 17.5 28.5t28.5 17.5z" />
    <glyph glyph-name="Uacute" unicode="&#xda;" horiz-adv-x="771" 
d="M116 266v371h-62q-8 0 -20 11.5t-12 19.5t12 20t20 12h142v-434q0 -95 53 -149t148 -54q94 0 147 54t53 149v434h80v-434q0 -123 -77.5 -198t-202.5 -75q-126 0 -203.5 75t-77.5 198zM330 802l119 135q11 0 29 -17.5t18 -28.5l-135 -120q-8 0 -19.5 11.5t-11.5 19.5z" />
    <glyph glyph-name="Ucircumflex" unicode="&#xdb;" horiz-adv-x="771" 
d="M116 266v371h-62q-8 0 -20 11.5t-12 19.5t12 20t20 12h142v-434q0 -95 53 -149t148 -54q94 0 147 54t53 149v434h80v-434q0 -123 -77.5 -198t-202.5 -75q-126 0 -203.5 75t-77.5 198zM397 930l122 -125q0 -7 -11.5 -19t-19.5 -12l-96 86l-95 -86q-7 0 -19 12t-12 19
l122 125h9z" />
    <glyph glyph-name="Udieresis" unicode="&#xdc;" horiz-adv-x="771" 
d="M116 266v371h-62q-8 0 -20 11.5t-12 19.5t12 20t20 12h142v-434q0 -95 53 -149t148 -54q94 0 147 54t53 149v434h80v-434q0 -123 -77.5 -198t-202.5 -75q-126 0 -203.5 75t-77.5 198zM446 835q0 11 17.5 29t29.5 18q11 0 29 -18t18 -29t-18 -29t-29 -18q-12 0 -29.5 18
t-17.5 29zM246 835q0 11 18 29t29 18t29 -18t18 -29t-18 -29t-29 -18t-29 18t-18 29z" />
    <glyph glyph-name="Yacute" unicode="&#xdd;" horiz-adv-x="657" 
d="M288 0v301l-257 359q0 9 24.5 28t33.5 19l240 -337l239 337q10 0 34.5 -19t24.5 -28l-259 -359v-301h-80zM265 802l120 135q11 0 28.5 -17.5t17.5 -28.5l-134 -120q-8 0 -20 11.5t-12 19.5z" />
    <glyph glyph-name="Thorn" unicode="&#xde;" horiz-adv-x="619" 
d="M174 150v-150h-80v700h80v-130h163q99 0 161 -59t62 -151t-62 -151t-161 -59h-163zM334 504h-160v-288h160q65 0 104.5 40t39.5 104t-39.5 104t-104.5 40z" />
    <glyph glyph-name="germandbls" unicode="&#xdf;" horiz-adv-x="603" 
d="M384 57q41 0 66 17t25 48q0 27 -23.5 44t-82.5 43q-75 35 -103 62.5t-28 73.5q0 29 10.5 52t26.5 36t34.5 27t34.5 26.5t26.5 33t10.5 47.5q0 47 -30 74.5t-79 27.5q-54 0 -83.5 -33.5t-29.5 -98.5v-537h-78v540q0 90 51 143.5t142 53.5q84 0 134.5 -45.5t50.5 -120.5
q0 -40 -15 -70t-37 -47t-44 -31.5t-37 -32t-15 -39.5q0 -25 20 -40t79 -41q82 -38 110.5 -63t28.5 -77q0 -65 -43.5 -101t-119.5 -36q-96 0 -158 62q0 9 17.5 27t27.5 18q41 -43 111 -43z" />
    <glyph glyph-name="agrave" unicode="&#xe0;" horiz-adv-x="479" 
d="M231 455q82 0 126 -38t44 -112v-219q0 -26 2 -45.5t4 -25.5l2 -6v-9h-47q-8 0 -23 15t-16 23q-53 -45 -127 -45q-65 0 -105.5 33t-40.5 95q0 67 50.5 103.5t145.5 36.5q39 0 77 -6v48q0 43 -26 64.5t-72 21.5q-71 0 -115 -44q-10 0 -28 18t-18 28q66 64 167 64zM128 127
q0 -35 23 -53t63 -18q64 0 109 45v97q-40 6 -76 6q-119 0 -119 -77zM174 684l119 -134q0 -8 -11.5 -20t-19.5 -12l-135 120q0 11 18 28.5t29 17.5z" />
    <glyph glyph-name="aacute" unicode="&#xe1;" horiz-adv-x="479" 
d="M231 455q82 0 126 -38t44 -112v-219q0 -26 2 -45.5t4 -25.5l2 -6v-9h-47q-8 0 -23 15t-16 23q-53 -45 -127 -45q-65 0 -105.5 33t-40.5 95q0 67 50.5 103.5t145.5 36.5q39 0 77 -6v48q0 43 -26 64.5t-72 21.5q-71 0 -115 -44q-10 0 -28 18t-18 28q66 64 167 64zM128 127
q0 -35 23 -53t63 -18q64 0 109 45v97q-40 6 -76 6q-119 0 -119 -77zM167 550l120 134q11 0 28.5 -17.5t17.5 -28.5l-134 -120q-8 0 -20 12t-12 20z" />
    <glyph glyph-name="acircumflex" unicode="&#xe2;" horiz-adv-x="479" 
d="M231 455q82 0 126 -38t44 -112v-219q0 -26 2 -45.5t4 -25.5l2 -6v-9h-47q-8 0 -23 15t-16 23q-53 -45 -127 -45q-65 0 -105.5 33t-40.5 95q0 67 50.5 103.5t145.5 36.5q39 0 77 -6v48q0 43 -26 64.5t-72 21.5q-71 0 -115 -44q-10 0 -28 18t-18 28q66 64 167 64zM128 127
q0 -35 23 -53t63 -18q64 0 109 45v97q-40 6 -76 6q-119 0 -119 -77zM236 677l122 -124q0 -8 -12 -20t-20 -12l-95 86l-95 -86q-8 0 -20 12t-12 20l122 124h10z" />
    <glyph glyph-name="atilde" unicode="&#xe3;" horiz-adv-x="479" 
d="M231 455q82 0 126 -38t44 -112v-219q0 -26 2 -45.5t4 -25.5l2 -6v-9h-47q-8 0 -23 15t-16 23q-53 -45 -127 -45q-65 0 -105.5 33t-40.5 95q0 67 50.5 103.5t145.5 36.5q39 0 77 -6v48q0 43 -26 64.5t-72 21.5q-71 0 -115 -44q-10 0 -28 18t-18 28q66 64 167 64zM128 127
q0 -35 23 -53t63 -18q64 0 109 45v97q-40 6 -76 6q-119 0 -119 -77zM88 564q2 3 4.5 7t12 15t19.5 19.5t25.5 15.5t31.5 7q21 0 51 -17.5t46 -17.5q10 0 19.5 4t16 9.5t11.5 11t8 9.5l3 4q6 0 19 -11.5t13 -17.5q-4 -7 -11.5 -18t-32 -29t-48.5 -18q-22 0 -52.5 17.5
t-45.5 17.5q-10 0 -19 -4t-16 -9.5t-12 -11t-8 -9.5l-3 -4q-6 0 -19 11.5t-13 18.5z" />
    <glyph glyph-name="adieresis" unicode="&#xe4;" horiz-adv-x="479" 
d="M231 455q82 0 126 -38t44 -112v-219q0 -26 2 -45.5t4 -25.5l2 -6v-9h-47q-8 0 -23 15t-16 23q-53 -45 -127 -45q-65 0 -105.5 33t-40.5 95q0 67 50.5 103.5t145.5 36.5q39 0 77 -6v48q0 43 -26 64.5t-72 21.5q-71 0 -115 -44q-10 0 -28 18t-18 28q66 64 167 64zM128 127
q0 -35 23 -53t63 -18q64 0 109 45v97q-40 6 -76 6q-119 0 -119 -77zM84 582q0 11 18 29t29 18q12 0 29.5 -18t17.5 -29t-17.5 -29t-29.5 -18q-11 0 -29 18t-18 29zM284 582q0 11 18 29t29 18t29 -18t18 -29t-18 -29t-29 -18t-29 18t-18 29z" />
    <glyph glyph-name="aring" unicode="&#xe5;" horiz-adv-x="479" 
d="M231 455q82 0 126 -38t44 -112v-219q0 -26 2 -45.5t4 -25.5l2 -6v-9h-47q-8 0 -23 15t-16 23q-53 -45 -127 -45q-65 0 -105.5 33t-40.5 95q0 67 50.5 103.5t145.5 36.5q39 0 77 -6v48q0 43 -26 64.5t-72 21.5q-71 0 -115 -44q-10 0 -28 18t-18 28q66 64 167 64zM142 600
q0 40 26 65.5t67 25.5q40 0 66 -25.5t26 -65.5t-26 -65.5t-66 -25.5q-41 0 -67 25.5t-26 65.5zM128 127q0 -35 23 -53t63 -18q64 0 109 45v97q-40 6 -76 6q-119 0 -119 -77zM185 600q0 -22 13.5 -36t36.5 -14q22 0 35.5 14t13.5 36t-13.5 35.5t-35.5 13.5t-36 -13.5
t-14 -35.5z" />
    <glyph glyph-name="ae" unicode="&#xe6;" horiz-adv-x="785" 
d="M703 199h-311q4 -64 47 -101t114 -37q81 0 126 38q9 0 25.5 -16.5t16.5 -26.5q-61 -63 -170 -63q-115 0 -184 75q-66 -75 -168 -75q-67 0 -108 33t-41 95q0 67 50.5 103.5t145.5 36.5q38 0 66 -5q4 28 14 58q-4 37 -31.5 56t-69.5 19q-71 0 -115 -44q-10 0 -28 18t-18 28
q64 64 164 64q107 0 145 -65q65 65 164 65q93 0 146.5 -60t53.5 -161q0 -8 -13 -21.5t-21 -13.5zM534 387q-60 0 -99 -35t-44 -94h268q0 58 -32.5 93.5t-92.5 35.5zM128 127q0 -35 23 -53t63 -18q74 0 122 58q-19 37 -24 85q-32 5 -65 5q-119 0 -119 -77z" />
    <glyph glyph-name="ccedilla" unicode="&#xe7;" horiz-adv-x="502" 
d="M443 388v-88q0 -8 -12 -20t-19 -12q-8 0 -20 12t-12 20v58q-31 29 -93 29q-72 0 -115 -45.5t-43 -118.5q0 -71 43 -116t117 -45q76 0 120 38q10 0 27.5 -17.5t17.5 -27.5q-60 -57 -156 -62l-6 -46q3 0 7.5 -0.5t15.5 -4t20 -8.5t16 -15.5t7 -24.5q0 -29 -28 -54.5
t-56 -37.5l-28 -11q-8 0 -18.5 11t-10.5 19q10 3 24.5 9t39 23.5t24.5 33.5q0 13 -15.5 21t-31.5 10l-15 1l9 76q-92 11 -148 74t-56 155q0 100 67 165.5t171 65.5q44 0 82 -12.5t56.5 -28t18.5 -26.5z" />
    <glyph glyph-name="egrave" unicode="&#xe8;" horiz-adv-x="522" 
d="M440 199h-311q5 -64 47.5 -101t113.5 -37q81 0 126 38q9 0 25.5 -16.5t16.5 -26.5q-62 -63 -170 -63q-106 0 -173 65t-67 168q0 100 63 164.5t163 64.5q94 0 147 -60t53 -161q0 -8 -13 -21.5t-21 -13.5zM271 387q-59 0 -98.5 -35t-43.5 -94h268q0 58 -33 93.5t-93 35.5z
M217 684l119 -134q0 -8 -11.5 -20t-19.5 -12l-135 120q0 11 18 28.5t29 17.5z" />
    <glyph glyph-name="eacute" unicode="&#xe9;" horiz-adv-x="522" 
d="M440 199h-311q5 -64 47.5 -101t113.5 -37q81 0 126 38q9 0 25.5 -16.5t16.5 -26.5q-62 -63 -170 -63q-106 0 -173 65t-67 168q0 100 63 164.5t163 64.5q94 0 147 -60t53 -161q0 -8 -13 -21.5t-21 -13.5zM271 387q-59 0 -98.5 -35t-43.5 -94h268q0 58 -33 93.5t-93 35.5z
M206 550l119 134q11 0 29 -17.5t18 -28.5l-135 -120q-8 0 -19.5 12t-11.5 20z" />
    <glyph glyph-name="ecircumflex" unicode="&#xea;" horiz-adv-x="522" 
d="M440 199h-311q5 -64 47.5 -101t113.5 -37q81 0 126 38q9 0 25.5 -16.5t16.5 -26.5q-62 -63 -170 -63q-106 0 -173 65t-67 168q0 100 63 164.5t163 64.5q94 0 147 -60t53 -161q0 -8 -13 -21.5t-21 -13.5zM271 387q-59 0 -98.5 -35t-43.5 -94h268q0 58 -33 93.5t-93 35.5z
M274 677l122 -124q0 -8 -12 -20t-20 -12l-95 86l-95 -86q-8 0 -20 12t-12 20l122 124h10z" />
    <glyph glyph-name="edieresis" unicode="&#xeb;" horiz-adv-x="522" 
d="M440 199h-311q5 -64 47.5 -101t113.5 -37q81 0 126 38q9 0 25.5 -16.5t16.5 -26.5q-62 -63 -170 -63q-106 0 -173 65t-67 168q0 100 63 164.5t163 64.5q94 0 147 -60t53 -161q0 -8 -13 -21.5t-21 -13.5zM271 387q-59 0 -98.5 -35t-43.5 -94h268q0 58 -33 93.5t-93 35.5z
M121 582q0 11 18 29t29 18t29 -18t18 -29t-18 -29t-29 -18t-29 18t-18 29zM321 582q0 11 18 29t29 18t29 -18t18 -29t-18 -29t-29 -18t-29 18t-18 29z" />
    <glyph glyph-name="igrave" unicode="&#xec;" horiz-adv-x="285" 
d="M18 416q0 7 12 19t20 12h122q8 0 19.5 -11.5t11.5 -19.5v-416h-77v384h-76q-8 0 -20 12t-12 20zM84 684l120 -134q0 -8 -12 -20t-20 -12l-134 120q0 11 17.5 28.5t28.5 17.5z" />
    <glyph glyph-name="iacute" unicode="&#xed;" horiz-adv-x="285" 
d="M18 416q0 7 12 19t20 12h122q8 0 19.5 -11.5t11.5 -19.5v-416h-77v384h-76q-8 0 -20 12t-12 20zM78 550l120 134q11 0 28.5 -17.5t17.5 -28.5l-134 -120q-8 0 -20 12t-12 20z" />
    <glyph glyph-name="icircumflex" unicode="&#xee;" horiz-adv-x="285" 
d="M18 416q0 7 12 19t20 12h122q8 0 19.5 -11.5t11.5 -19.5v-416h-77v384h-76q-8 0 -20 12t-12 20zM146 677l122 -124q0 -8 -11.5 -20t-19.5 -12l-96 86l-95 -86q-8 0 -19.5 12t-11.5 20l122 124h9z" />
    <glyph glyph-name="idieresis" unicode="&#xef;" horiz-adv-x="285" 
d="M18 416q0 7 12 19t20 12h122q8 0 19.5 -11.5t11.5 -19.5v-416h-77v384h-76q-8 0 -20 12t-12 20zM181 582q0 11 18 29t29 18q12 0 30 -18t18 -29t-18 -29t-30 -18q-11 0 -29 18t-18 29zM7 582q0 11 18 29t29 18t29 -18t18 -29t-18 -29t-29 -18t-29 18t-18 29z" />
    <glyph glyph-name="eth" unicode="&#xf0;" horiz-adv-x="564" 
d="M416 696l-61 -61q161 -153 161 -389q0 -121 -64 -187t-167 -66q-104 0 -170.5 65t-66.5 165t66.5 166t164.5 66q87 0 139 -62h4q-35 110 -118 191l-73 -73q-8 0 -24.5 16.5t-16.5 25.5l70 70q-25 20 -51.5 35.5t-40.5 21.5l-13 6q0 10 19 30.5t29 20.5q48 -19 107 -65
l65 65q8 0 24.5 -16.5t16.5 -24.5zM131 223q0 -72 42 -117t109 -45t109 45t42 117q0 73 -42 118t-109 45t-109 -45t-42 -118z" />
    <glyph glyph-name="ntilde" unicode="&#xf1;" horiz-adv-x="552" 
d="M156 408v-10q70 57 160 57q77 0 117.5 -42.5t40.5 -117.5v-295h-78v295q0 91 -99 91q-84 0 -141 -49v-337h-78v361q0 26 -2 45.5t-4 25.5l-2 6v9h47q8 0 23.5 -15.5t15.5 -23.5zM136 564q2 3 4.5 7t12 15t19.5 19.5t25.5 15.5t31.5 7q22 0 51.5 -17.5t45.5 -17.5
q10 0 19.5 4t16 9.5t11.5 11t8 9.5l3 4q6 0 19 -11.5t13 -17.5q-4 -7 -11.5 -18t-32 -29t-48.5 -18q-22 0 -52.5 17.5t-45.5 17.5q-10 0 -19 -4t-16 -9.5t-12 -11t-8 -9.5l-3 -4q-7 0 -19.5 11.5t-12.5 18.5z" />
    <glyph glyph-name="ograve" unicode="&#xf2;" horiz-adv-x="564" 
d="M48 223q0 100 66.5 166t167.5 66t167.5 -66t66.5 -166q0 -99 -66.5 -164.5t-167.5 -65.5t-167.5 65.5t-66.5 164.5zM131 223q0 -72 42 -117t109 -45t109 45t42 117q0 73 -42 118t-109 45t-109 -45t-42 -118zM225 684l120 -134q0 -8 -12 -20t-20 -12l-134 120
q0 11 17.5 28.5t28.5 17.5z" />
    <glyph glyph-name="oacute" unicode="&#xf3;" horiz-adv-x="564" 
d="M48 223q0 100 66.5 166t167.5 66t167.5 -66t66.5 -166q0 -99 -66.5 -164.5t-167.5 -65.5t-167.5 65.5t-66.5 164.5zM131 223q0 -72 42 -117t109 -45t109 45t42 117q0 73 -42 118t-109 45t-109 -45t-42 -118zM219 550l119 134q11 0 29 -17.5t18 -28.5l-135 -120
q-8 0 -19.5 12t-11.5 20z" />
    <glyph glyph-name="ocircumflex" unicode="&#xf4;" horiz-adv-x="564" 
d="M48 223q0 100 66.5 166t167.5 66t167.5 -66t66.5 -166q0 -99 -66.5 -164.5t-167.5 -65.5t-167.5 65.5t-66.5 164.5zM131 223q0 -72 42 -117t109 -45t109 45t42 117q0 73 -42 118t-109 45t-109 -45t-42 -118zM287 677l122 -124q0 -8 -12 -20t-20 -12l-95 86l-95 -86
q-8 0 -20 12t-12 20l122 124h10z" />
    <glyph glyph-name="otilde" unicode="&#xf5;" horiz-adv-x="564" 
d="M48 223q0 100 66.5 166t167.5 66t167.5 -66t66.5 -166q0 -99 -66.5 -164.5t-167.5 -65.5t-167.5 65.5t-66.5 164.5zM131 223q0 -72 42 -117t109 -45t109 45t42 117q0 73 -42 118t-109 45t-109 -45t-42 -118zM142 564q4 7 11.5 17.5t32 28.5t48.5 18q22 0 52 -17.5
t45 -17.5q10 0 19.5 4t16 9.5t11.5 11t8 9.5l3 4q7 0 20 -11t13 -18q-4 -7 -12 -18t-32 -29t-49 -18q-21 0 -51 17.5t-46 17.5q-10 0 -19.5 -4t-16.5 -9.5t-12 -11t-8 -9.5l-3 -4q-6 0 -18.5 11.5t-12.5 18.5z" />
    <glyph glyph-name="odieresis" unicode="&#xf6;" horiz-adv-x="564" 
d="M48 223q0 100 66.5 166t167.5 66t167.5 -66t66.5 -166q0 -99 -66.5 -164.5t-167.5 -65.5t-167.5 65.5t-66.5 164.5zM131 223q0 -72 42 -117t109 -45t109 45t42 117q0 73 -42 118t-109 45t-109 -45t-42 -118zM135 582q0 11 18 29t30 18q11 0 29 -18t18 -29t-18 -29
t-29 -18q-12 0 -30 18t-18 29zM335 582q0 11 18 29t29 18t29 -18t18 -29t-18 -29t-29 -18t-29 18t-18 29z" />
    <glyph glyph-name="divide" unicode="&#xf7;" horiz-adv-x="600" 
d="M90 291v58h420v-58h-420zM248 155q0 13 19.5 32.5t32.5 19.5t33 -19.5t20 -32.5t-19.5 -33t-33.5 -20q-13 0 -32.5 20t-19.5 33zM248 485q0 13 19.5 33t32.5 20t33 -20t20 -33t-20 -32.5t-33 -19.5t-32.5 19.5t-19.5 32.5z" />
    <glyph glyph-name="oslash" unicode="&#xf8;" horiz-adv-x="564" 
d="M497 460l-51 -67q70 -67 70 -170q0 -99 -66.5 -164.5t-167.5 -65.5q-64 0 -117 28l-37 -48q-15 0 -37.5 5t-22.5 9l51 67q-71 65 -71 169q0 100 66.5 166t167.5 66q63 0 118 -29l37 49q15 0 37.5 -5.5t22.5 -9.5zM123 223q0 -70 38 -114l198 263q-35 19 -77 19
q-71 0 -115 -46.5t-44 -121.5zM441 223q0 69 -37 114l-199 -263q33 -18 77 -18q70 0 114.5 46.5t44.5 120.5z" />
    <glyph glyph-name="ugrave" unicode="&#xf9;" horiz-adv-x="547" 
d="M396 175v272h77v-272q0 -80 -57 -131t-143 -51q-85 0 -142 51t-57 131v272h78v-272q0 -49 34 -81.5t87 -32.5t88 33t35 81zM217 684l119 -134q0 -8 -11.5 -20t-19.5 -12l-134 120q0 11 17.5 28.5t28.5 17.5z" />
    <glyph glyph-name="uacute" unicode="&#xfa;" horiz-adv-x="547" 
d="M396 175v272h77v-272q0 -80 -57 -131t-143 -51q-85 0 -142 51t-57 131v272h78v-272q0 -49 34 -81.5t87 -32.5t88 33t35 81zM211 550l119 134q11 0 28.5 -17.5t17.5 -28.5l-134 -120q-8 0 -19.5 12t-11.5 20z" />
    <glyph glyph-name="ucircumflex" unicode="&#xfb;" horiz-adv-x="547" 
d="M396 175v272h77v-272q0 -80 -57 -131t-143 -51q-85 0 -142 51t-57 131v272h78v-272q0 -49 34 -81.5t87 -32.5t88 33t35 81zM278 677l122 -124q0 -8 -11.5 -20t-19.5 -12l-96 86l-95 -86q-8 0 -19.5 12t-11.5 20l122 124h9z" />
    <glyph glyph-name="udieresis" unicode="&#xfc;" horiz-adv-x="547" 
d="M396 175v272h77v-272q0 -80 -57 -131t-143 -51q-85 0 -142 51t-57 131v272h78v-272q0 -49 34 -81.5t87 -32.5t88 33t35 81zM127 582q0 11 18 29t29 18t29 -18t18 -29t-18 -29t-29 -18t-29 18t-18 29zM326 582q0 11 18 29t30 18q11 0 29 -18t18 -29t-18 -29t-29 -18
q-12 0 -30 18t-18 29z" />
    <glyph glyph-name="yacute" unicode="&#xfd;" horiz-adv-x="501" 
d="M475 420l-292 -646q-10 0 -41 14.5t-31 19.5l100 192l-185 420q0 5 29.5 18.5t39.5 13.5l154 -359l157 359q10 0 39.5 -13.5t29.5 -18.5zM187 550l120 134q11 0 28.5 -17.5t17.5 -28.5l-134 -120q-8 0 -20 12t-12 20z" />
    <glyph glyph-name="thorn" unicode="&#xfe;" horiz-adv-x="550" 
d="M9 698q0 8 11.5 20t19.5 12h89q8 0 20 -12t12 -20v-288q52 45 123 45q94 0 155.5 -65.5t61.5 -164.5q0 -102 -67 -167t-171 -65q-56 0 -102 20v-238h-78v892h-43q-8 0 -19.5 11.5t-11.5 19.5zM419 224q0 72 -42 117t-111 45q-63 0 -105 -37v-263q44 -26 99 -26
q73 0 116 45.5t43 118.5z" />
    <glyph glyph-name="ydieresis" unicode="&#xff;" horiz-adv-x="501" 
d="M475 420l-292 -646q-10 0 -41 14.5t-31 19.5l100 192l-185 420q0 5 29.5 18.5t39.5 13.5l154 -359l157 359q10 0 39.5 -13.5t29.5 -18.5zM104 582q0 11 17.5 29t29.5 18q11 0 29 -18t18 -29t-18 -29t-29 -18q-12 0 -29.5 18t-17.5 29zM303 582q0 11 18 29t29 18t29 -18
t18 -29t-18 -29t-29 -18t-29 18t-18 29z" />
    <glyph glyph-name="Amacron" unicode="&#x100;" horiz-adv-x="744" 
d="M408 700l302 -673q0 -5 -30 -19.5t-40 -14.5l-90 204h-357l-90 -204q-9 0 -39.5 15t-30.5 19l276 610h-53q-8 0 -20 12t-12 19q0 8 12 20t20 12h152zM371 602l-150 -340h302zM228 809v53h273v-53h-273z" />
    <glyph glyph-name="amacron" unicode="&#x101;" horiz-adv-x="479" 
d="M231 455q82 0 126 -38t44 -112v-219q0 -26 2 -45.5t4 -25.5l2 -6v-9h-47q-8 0 -23 15t-16 23q-53 -45 -127 -45q-65 0 -105.5 33t-40.5 95q0 67 50.5 103.5t145.5 36.5q39 0 77 -6v48q0 43 -26 64.5t-72 21.5q-71 0 -115 -44q-10 0 -28 18t-18 28q66 64 167 64zM128 127
q0 -35 23 -53t63 -18q64 0 109 45v97q-40 6 -76 6q-119 0 -119 -77zM92 556v53h273v-53h-273z" />
    <glyph glyph-name="Abreve" unicode="&#x102;" horiz-adv-x="744" 
d="M408 700l302 -673q0 -5 -30 -19.5t-40 -14.5l-90 204h-357l-90 -204q-9 0 -39.5 15t-30.5 19l276 610h-53q-8 0 -20 12t-12 19q0 8 12 20t20 12h152zM371 602l-150 -340h302zM505 874q-2 -4 -5 -10.5t-15 -24t-26.5 -30.5t-39.5 -23.5t-54 -10.5t-54.5 10t-40.5 24.5
t-26 29.5t-16 25l-4 10q0 8 15.5 19t24.5 11q1 -3 3.5 -7.5t11 -17t19 -22t29 -17t38.5 -7.5q33 0 58 17.5t33 35.5l9 18q9 0 24.5 -11t15.5 -19z" />
    <glyph glyph-name="abreve" unicode="&#x103;" horiz-adv-x="479" 
d="M231 455q82 0 126 -38t44 -112v-219q0 -26 2 -45.5t4 -25.5l2 -6v-9h-47q-8 0 -23 15t-16 23q-53 -45 -127 -45q-65 0 -105.5 33t-40.5 95q0 67 50.5 103.5t145.5 36.5q39 0 77 -6v48q0 43 -26 64.5t-72 21.5q-71 0 -115 -44q-10 0 -28 18t-18 28q66 64 167 64zM128 127
q0 -35 23 -53t63 -18q64 0 109 45v97q-40 6 -76 6q-119 0 -119 -77zM371 622q-2 -4 -5 -10.5t-15 -24t-26.5 -30.5t-40 -23.5t-54.5 -10.5t-54.5 10t-40.5 24.5t-26 29.5t-15 25l-5 10q0 7 16 18t24 11q1 -3 3.5 -7.5t11 -17t19 -22t29 -17t38.5 -7.5q33 0 58.5 18t33.5 36
l9 17q8 0 24 -11t16 -18z" />
    <glyph glyph-name="Aogonek" unicode="&#x104;" horiz-adv-x="744" 
d="M408 700l302 -673q0 -5 -27 -18q-10 -17 -10 -41q0 -29 18 -48t49 -19q32 0 50 17q7 0 20 -15.5t13 -23.5q-35 -30 -84 -30q-54 0 -87.5 31t-33.5 79q0 29 14 52l-82 186h-357l-90 -204q-9 0 -39.5 15t-30.5 19l276 610h-53q-8 0 -20 12t-12 19q0 8 12 20t20 12h152z
M371 602l-150 -340h302z" />
    <glyph glyph-name="aogonek" unicode="&#x105;" horiz-adv-x="479" 
d="M231 455q82 0 126 -38t44 -112v-219q0 -26 2 -45.5t4 -25.5l2 -6v-9h-10q-9 -16 -9 -39q0 -29 18 -47.5t49 -18.5t50 16q7 0 19.5 -15t12.5 -23q-33 -31 -84 -31q-53 0 -86.5 31.5t-33.5 79.5q0 33 15 52q-27 20 -27 33q-53 -45 -127 -45q-65 0 -105.5 33t-40.5 95
q0 67 50.5 103.5t145.5 36.5q39 0 77 -6v48q0 43 -26 64.5t-72 21.5q-71 0 -115 -44q-10 0 -28 18t-18 28q66 64 167 64zM128 127q0 -35 23 -53t63 -18q64 0 109 45v97q-40 6 -76 6q-119 0 -119 -77z" />
    <glyph glyph-name="Cacute" unicode="&#x106;" horiz-adv-x="731" 
d="M598 488v87q-71 62 -181 62q-124 0 -197.5 -79t-73.5 -208t74.5 -208t197.5 -79q131 0 208 80q10 0 28.5 -19t18.5 -28q-98 -103 -257 -103q-155 0 -255 101t-100 256t99.5 256t252.5 101q152 0 250 -98v-121q0 -8 -12.5 -20.5t-20.5 -12.5t-20 12.5t-12 20.5zM351 802
l120 135q11 0 28.5 -17.5t17.5 -28.5l-134 -120q-8 0 -20 11.5t-12 19.5z" />
    <glyph glyph-name="cacute" unicode="&#x107;" horiz-adv-x="502" 
d="M443 388v-88q0 -8 -12 -20t-19 -12q-8 0 -20 12t-12 20v58q-31 29 -93 29q-72 0 -115 -45.5t-43 -118.5q0 -71 43 -116t117 -45q76 0 120 38q10 0 27.5 -17.5t17.5 -27.5q-65 -62 -168 -62q-105 0 -171.5 65t-66.5 166q0 100 67 165.5t171 65.5q44 0 82 -12.5t56.5 -28
t18.5 -26.5zM211 550l119 134q11 0 29 -17.5t18 -28.5l-135 -120q-8 0 -19.5 12t-11.5 20z" />
    <glyph glyph-name="Ccircumflex" unicode="&#x108;" horiz-adv-x="731" 
d="M598 488v87q-71 62 -181 62q-124 0 -197.5 -79t-73.5 -208t74.5 -208t197.5 -79q131 0 208 80q10 0 28.5 -19t18.5 -28q-98 -103 -257 -103q-155 0 -255 101t-100 256t99.5 256t252.5 101q152 0 250 -98v-121q0 -8 -12.5 -20.5t-20.5 -12.5t-20 12.5t-12 20.5zM409 930
l122 -125q0 -8 -12 -19.5t-20 -11.5l-95 86l-95 -86q-8 0 -20 11.5t-12 19.5l123 125h9z" />
    <glyph glyph-name="ccircumflex" unicode="&#x109;" horiz-adv-x="502" 
d="M443 388v-88q0 -8 -12 -20t-19 -12q-8 0 -20 12t-12 20v58q-31 29 -93 29q-72 0 -115 -45.5t-43 -118.5q0 -71 43 -116t117 -45q76 0 120 38q10 0 27.5 -17.5t17.5 -27.5q-65 -62 -168 -62q-105 0 -171.5 65t-66.5 166q0 100 67 165.5t171 65.5q44 0 82 -12.5t56.5 -28
t18.5 -26.5zM280 677l122 -124q0 -8 -11.5 -20t-19.5 -12l-96 86l-94 -86q-8 0 -20 12t-12 20l122 124h9z" />
    <glyph glyph-name="Cdotaccent" unicode="&#x10a;" horiz-adv-x="731" 
d="M598 488v87q-71 62 -181 62q-124 0 -197.5 -79t-73.5 -208t74.5 -208t197.5 -79q131 0 208 80q10 0 28.5 -19t18.5 -28q-98 -103 -257 -103q-155 0 -255 101t-100 256t99.5 256t252.5 101q152 0 250 -98v-121q0 -8 -12.5 -20.5t-20.5 -12.5t-20 12.5t-12 20.5zM348 859
q0 13 21 34.5t35 21.5t35 -21.5t21 -34.5t-21 -34.5t-35 -21.5t-35 21.5t-21 34.5z" />
    <glyph glyph-name="cdotaccent" unicode="&#x10b;" horiz-adv-x="502" 
d="M443 388v-88q0 -8 -12 -20t-19 -12q-8 0 -20 12t-12 20v58q-31 29 -93 29q-72 0 -115 -45.5t-43 -118.5q0 -71 43 -116t117 -45q76 0 120 38q10 0 27.5 -17.5t17.5 -27.5q-65 -62 -168 -62q-105 0 -171.5 65t-66.5 166q0 100 67 165.5t171 65.5q44 0 82 -12.5t56.5 -28
t18.5 -26.5zM219 606q0 14 21.5 35t34.5 21q14 0 35.5 -21.5t21.5 -34.5t-21.5 -34.5t-35.5 -21.5q-13 0 -34.5 21t-21.5 35z" />
    <glyph glyph-name="Ccaron" unicode="&#x10c;" horiz-adv-x="731" 
d="M598 488v87q-71 62 -181 62q-124 0 -197.5 -79t-73.5 -208t74.5 -208t197.5 -79q131 0 208 80q10 0 28.5 -19t18.5 -28q-98 -103 -257 -103q-155 0 -255 101t-100 256t99.5 256t252.5 101q152 0 250 -98v-121q0 -8 -12.5 -20.5t-20.5 -12.5t-20 12.5t-12 20.5zM400 768
l-123 125q0 8 12 19.5t20 11.5l95 -85l95 85q8 0 20 -11.5t12 -19.5l-122 -125h-9z" />
    <glyph glyph-name="ccaron" unicode="&#x10d;" horiz-adv-x="502" 
d="M443 388v-88q0 -8 -12 -20t-19 -12q-8 0 -20 12t-12 20v58q-31 29 -93 29q-72 0 -115 -45.5t-43 -118.5q0 -71 43 -116t117 -45q76 0 120 38q10 0 27.5 -17.5t17.5 -27.5q-65 -62 -168 -62q-105 0 -171.5 65t-66.5 166q0 100 67 165.5t171 65.5q44 0 82 -12.5t56.5 -28
t18.5 -26.5zM271 515l-122 125q0 8 12 20t20 12l95 -86l95 86q8 0 19.5 -12t11.5 -20l-122 -125h-9z" />
    <glyph glyph-name="Dcaron" unicode="&#x10e;" horiz-adv-x="779" 
d="M22 668q0 8 12 20t20 12h318q152 0 249 -98.5t97 -251.5t-97 -251.5t-249 -98.5h-256v637h-62q-8 0 -20 11.5t-12 19.5zM196 65h176q119 0 190 78.5t71 206.5t-71 206.5t-190 78.5h-176v-570zM370 768l-122 125q0 8 11.5 19.5t19.5 11.5l96 -85l95 85q8 0 19.5 -11.5
t11.5 -19.5l-122 -125h-9z" />
    <glyph glyph-name="dcaron" unicode="&#x10f;" horiz-adv-x="709" 
d="M314 698q0 8 11.5 20t19.5 12h90q8 0 19.5 -12t11.5 -20v-612q0 -26 2 -45.5t4 -25.5l3 -6v-9h-48q-8 0 -22 14t-16 23q-52 -44 -124 -44q-93 0 -155 65.5t-62 163.5q0 102 67.5 167.5t171.5 65.5q55 0 102 -22v234h-44q-7 0 -19 11.5t-12 19.5zM131 223q0 -72 41.5 -117
t111.5 -45q63 0 105 37v262q-43 27 -99 27q-73 0 -116 -45.5t-43 -118.5zM537 557l86 179q13 0 36.5 -12.5t23.5 -22.5q0 -6 -26.5 -49t-53.5 -82l-27 -40q-9 0 -24 9.5t-15 17.5z" />
    <glyph glyph-name="Dcroat" unicode="&#x110;" horiz-adv-x="786" 
d="M29 668q0 8 12 20t20 12h318q152 0 249 -98.5t97 -251.5t-97 -251.5t-249 -98.5h-256v323h-62q-7 0 -19.5 12.5t-12.5 19.5t12.5 19.5t19.5 12.5h62v250h-62q-8 0 -20 12t-12 19zM203 65h176q119 0 190.5 78.5t71.5 206.5t-71.5 206.5t-190.5 78.5h-176v-248h188v-64
h-188v-258z" />
    <glyph glyph-name="dcroat" unicode="&#x111;" horiz-adv-x="564" 
d="M228 600q0 8 12 20t20 12h129v98h77v-98h81v-64h-81v-482q0 -26 2 -45.5t4 -25.5l3 -6v-9h-48q-8 0 -22 14t-16 23q-52 -44 -124 -44q-93 0 -155 65.5t-62 163.5q0 102 67.5 167.5t171.5 65.5q55 0 102 -22v135h-129q-8 0 -20 12t-12 20zM131 223q0 -72 41.5 -117
t111.5 -45q63 0 105 37v262q-43 27 -99 27q-73 0 -116 -45.5t-43 -118.5z" />
    <glyph glyph-name="Emacron" unicode="&#x112;" horiz-adv-x="633" 
d="M22 668q0 8 12 20t20 12h519v-65h-377v-246h337v-66h-337v-258h382v-65h-462v637h-62q-8 0 -20 11.5t-12 19.5zM195 809v53h273v-53h-273z" />
    <glyph glyph-name="emacron" unicode="&#x113;" horiz-adv-x="522" 
d="M440 199h-311q5 -64 47.5 -101t113.5 -37q81 0 126 38q9 0 25.5 -16.5t16.5 -26.5q-62 -63 -170 -63q-106 0 -173 65t-67 168q0 100 63 164.5t163 64.5q94 0 147 -60t53 -161q0 -8 -13 -21.5t-21 -13.5zM271 387q-59 0 -98.5 -35t-43.5 -94h268q0 58 -33 93.5t-93 35.5z
M137 556v53h273v-53h-273z" />
    <glyph glyph-name="Ebreve" unicode="&#x114;" horiz-adv-x="633" 
d="M22 668q0 8 12 20t20 12h519v-65h-377v-246h337v-66h-337v-258h382v-65h-462v637h-62q-8 0 -20 11.5t-12 19.5zM472 874q-2 -4 -5 -10.5t-15 -24t-26.5 -30.5t-40 -23.5t-54.5 -10.5t-54 10t-40.5 24.5t-26 29.5t-14.5 25l-5 10q0 8 15.5 19t24.5 11q1 -3 3.5 -7.5
t11 -17t19 -22t28.5 -17t38 -7.5q21 0 39 7.5t29 17.5t19 20.5t11 17.5l3 8q9 0 24.5 -11t15.5 -19z" />
    <glyph glyph-name="ebreve" unicode="&#x115;" horiz-adv-x="522" 
d="M440 199h-311q5 -64 47.5 -101t113.5 -37q81 0 126 38q9 0 25.5 -16.5t16.5 -26.5q-62 -63 -170 -63q-106 0 -173 65t-67 168q0 100 63 164.5t163 64.5q94 0 147 -60t53 -161q0 -8 -13 -21.5t-21 -13.5zM271 387q-59 0 -98.5 -35t-43.5 -94h268q0 58 -33 93.5t-93 35.5z
M412 622q-2 -4 -5 -10.5t-15 -24t-26.5 -30.5t-39.5 -23.5t-54 -10.5t-54.5 10t-40.5 24.5t-26 29.5t-15 25l-5 10q0 7 15.5 18t24.5 11q1 -3 3.5 -7.5t11 -17t19 -22t29 -17t38.5 -7.5q33 0 58 18t34 36l8 17q9 0 24.5 -11t15.5 -18z" />
    <glyph glyph-name="Edotaccent" unicode="&#x116;" horiz-adv-x="633" 
d="M22 668q0 8 12 20t20 12h519v-65h-377v-246h337v-66h-337v-258h382v-65h-462v637h-62q-8 0 -20 11.5t-12 19.5zM275 859q0 13 21.5 34.5t34.5 21.5q14 0 35.5 -21t21.5 -35t-21.5 -35t-35.5 -21q-13 0 -34.5 21.5t-21.5 34.5z" />
    <glyph glyph-name="edotaccent" unicode="&#x117;" horiz-adv-x="522" 
d="M440 199h-311q5 -64 47.5 -101t113.5 -37q81 0 126 38q9 0 25.5 -16.5t16.5 -26.5q-62 -63 -170 -63q-106 0 -173 65t-67 168q0 100 63 164.5t163 64.5q94 0 147 -60t53 -161q0 -8 -13 -21.5t-21 -13.5zM271 387q-59 0 -98.5 -35t-43.5 -94h268q0 58 -33 93.5t-93 35.5z
M211 606q0 14 21.5 35t34.5 21q14 0 35.5 -21t21.5 -35t-21.5 -35t-35.5 -21q-13 0 -34.5 21t-21.5 35z" />
    <glyph glyph-name="Eogonek" unicode="&#x118;" horiz-adv-x="633" 
d="M22 668q0 8 12 20t20 12h519v-65h-377v-246h337v-66h-337v-258h382v-65h-130q-13 -21 -13 -46q0 -29 17.5 -47.5t48.5 -18.5q34 0 50 16q7 0 20 -15t13 -23q-33 -31 -84 -31q-54 0 -87.5 31.5t-33.5 79.5q0 28 16 54h-279v637h-62q-8 0 -20 11.5t-12 19.5z" />
    <glyph glyph-name="eogonek" unicode="&#x119;" horiz-adv-x="522" 
d="M440 199h-311q5 -64 47.5 -101t113.5 -37q81 0 126 38q9 0 25.5 -16.5t16.5 -26.5q-46 -47 -119 -58q-9 -18 -9 -41q0 -29 18 -48t49 -19q32 0 49 16q7 0 20 -15t13 -23q-31 -30 -84 -30q-54 0 -87 31t-33 79q0 26 9 45q-105 1 -170.5 66t-65.5 167q0 100 63 164.5
t163 64.5q94 0 147 -60t53 -161q0 -8 -13 -21.5t-21 -13.5zM271 387q-59 0 -98.5 -35t-43.5 -94h268q0 58 -33 93.5t-93 35.5z" />
    <glyph glyph-name="Ecaron" unicode="&#x11a;" horiz-adv-x="633" 
d="M22 668q0 8 12 20t20 12h519v-65h-377v-246h337v-66h-337v-258h382v-65h-462v637h-62q-8 0 -20 11.5t-12 19.5zM327 768l-123 125q0 8 12 19.5t20 11.5l95 -85l95 85q8 0 20 -11.5t12 -19.5l-122 -125h-9z" />
    <glyph glyph-name="ecaron" unicode="&#x11b;" horiz-adv-x="522" 
d="M440 199h-311q5 -64 47.5 -101t113.5 -37q81 0 126 38q9 0 25.5 -16.5t16.5 -26.5q-62 -63 -170 -63q-106 0 -173 65t-67 168q0 100 63 164.5t163 64.5q94 0 147 -60t53 -161q0 -8 -13 -21.5t-21 -13.5zM271 387q-59 0 -98.5 -35t-43.5 -94h268q0 58 -33 93.5t-93 35.5z
M264 515l-122 125q0 8 12 20t20 12l95 -86l95 86q8 0 20 -12t12 -20l-122 -125h-10z" />
    <glyph glyph-name="Gcircumflex" unicode="&#x11c;" horiz-adv-x="741" 
d="M420 320q0 8 12 20t20 12h211v-268q-90 -91 -244 -91q-159 0 -258.5 100.5t-99.5 255.5q0 156 99.5 257t253.5 101q151 0 249 -98v-109q0 -8 -12.5 -20.5t-20.5 -12.5t-20 12.5t-12 20.5v75q-71 62 -181 62q-124 0 -197.5 -79.5t-73.5 -208.5q0 -128 74 -207t201 -79
q105 0 166 49v176h-135q-8 0 -20 12t-12 20zM400 930l122 -125q0 -8 -12 -19.5t-20 -11.5l-95 86l-95 -86q-8 0 -20 11.5t-12 19.5l122 125h10z" />
    <glyph glyph-name="gcircumflex" unicode="&#x11d;" horiz-adv-x="545" 
d="M389 -28v65q-52 -44 -124 -44q-93 0 -155 65t-62 164q0 100 66 166.5t182 66.5q95 0 170 -45v-438q0 -97 -60 -151t-159 -54q-105 0 -173 65q0 10 17.5 27.5t27.5 17.5q44 -41 124 -41q69 0 107.5 35t38.5 101zM131 224q0 -73 41.5 -118t111.5 -45q63 0 105 37v273
q-48 16 -93 16q-79 0 -122 -44.5t-43 -118.5zM277 677l122 -124q0 -8 -12 -20t-20 -12l-95 86l-95 -86q-8 0 -19.5 12t-11.5 20l122 124h9z" />
    <glyph glyph-name="Gbreve" unicode="&#x11e;" horiz-adv-x="741" 
d="M420 320q0 8 12 20t20 12h211v-268q-90 -91 -244 -91q-159 0 -258.5 100.5t-99.5 255.5q0 156 99.5 257t253.5 101q151 0 249 -98v-109q0 -8 -12.5 -20.5t-20.5 -12.5t-20 12.5t-12 20.5v75q-71 62 -181 62q-124 0 -197.5 -79.5t-73.5 -208.5q0 -128 74 -207t201 -79
q105 0 166 49v176h-135q-8 0 -20 12t-12 20zM536 874q-2 -4 -5 -10.5t-15 -24t-26.5 -30.5t-40 -23.5t-54.5 -10.5t-54.5 10t-40.5 24.5t-26 29.5t-16 25l-4 10q0 8 15.5 19t24.5 11q1 -3 3.5 -7.5t11 -17t19 -22t29 -17t38.5 -7.5q21 0 39 7.5t29 17.5t19 20.5t11 17.5l3 8
q8 0 24 -11t16 -19z" />
    <glyph glyph-name="gbreve" unicode="&#x11f;" horiz-adv-x="545" 
d="M389 -28v65q-52 -44 -124 -44q-93 0 -155 65t-62 164q0 100 66 166.5t182 66.5q95 0 170 -45v-438q0 -97 -60 -151t-159 -54q-105 0 -173 65q0 10 17.5 27.5t27.5 17.5q44 -41 124 -41q69 0 107.5 35t38.5 101zM131 224q0 -73 41.5 -118t111.5 -45q63 0 105 37v273
q-48 16 -93 16q-79 0 -122 -44.5t-43 -118.5zM413 622q-2 -4 -5 -10.5t-15 -24t-26.5 -30.5t-39.5 -23.5t-54 -10.5t-54.5 10t-40.5 24.5t-26 29.5t-16 25l-4 10q0 7 15.5 18t24.5 11q1 -3 3.5 -7.5t11 -17t19 -22t29 -17t38.5 -7.5q33 0 58 18t33 36l9 17q9 0 24.5 -11
t15.5 -18z" />
    <glyph glyph-name="Gdotaccent" unicode="&#x120;" horiz-adv-x="741" 
d="M420 320q0 8 12 20t20 12h211v-268q-90 -91 -244 -91q-159 0 -258.5 100.5t-99.5 255.5q0 156 99.5 257t253.5 101q151 0 249 -98v-109q0 -8 -12.5 -20.5t-20.5 -12.5t-20 12.5t-12 20.5v75q-71 62 -181 62q-124 0 -197.5 -79.5t-73.5 -208.5q0 -128 74 -207t201 -79
q105 0 166 49v176h-135q-8 0 -20 12t-12 20zM339 859q0 13 21.5 34.5t34.5 21.5t34.5 -21.5t21.5 -34.5t-21.5 -34.5t-34.5 -21.5t-34.5 21.5t-21.5 34.5z" />
    <glyph glyph-name="gdotaccent" unicode="&#x121;" horiz-adv-x="545" 
d="M389 -28v65q-52 -44 -124 -44q-93 0 -155 65t-62 164q0 100 66 166.5t182 66.5q95 0 170 -45v-438q0 -97 -60 -151t-159 -54q-105 0 -173 65q0 10 17.5 27.5t27.5 17.5q44 -41 124 -41q69 0 107.5 35t38.5 101zM131 224q0 -73 41.5 -118t111.5 -45q63 0 105 37v273
q-48 16 -93 16q-79 0 -122 -44.5t-43 -118.5zM218 606q0 13 21.5 34.5t35.5 21.5q13 0 34.5 -21t21.5 -35t-21.5 -35t-34.5 -21q-14 0 -35.5 21.5t-21.5 34.5z" />
    <glyph glyph-name="Gcommaaccent" unicode="&#x122;" horiz-adv-x="741" 
d="M420 320q0 8 12 20t20 12h211v-268q-90 -91 -244 -91q-159 0 -258.5 100.5t-99.5 255.5q0 156 99.5 257t253.5 101q151 0 249 -98v-109q0 -8 -12.5 -20.5t-20.5 -12.5t-20 12.5t-12 20.5v75q-71 62 -181 62q-124 0 -197.5 -79.5t-73.5 -208.5q0 -128 74 -207t201 -79
q105 0 166 49v176h-135q-8 0 -20 12t-12 20zM332 -192l71 145q13 0 34 -11t21 -22q0 -6 -23 -40.5t-46 -65.5l-23 -31q-9 0 -21.5 8.5t-12.5 16.5z" />
    <glyph glyph-name="gcommaaccent" unicode="&#x123;" horiz-adv-x="545" 
d="M389 -28v65q-52 -44 -124 -44q-93 0 -155 65t-62 164q0 100 66 166.5t182 66.5q95 0 170 -45v-438q0 -97 -60 -151t-159 -54q-105 0 -173 65q0 10 17.5 27.5t27.5 17.5q44 -41 124 -41q69 0 107.5 35t38.5 101zM131 224q0 -73 41.5 -118t111.5 -45q63 0 105 37v273
q-48 16 -93 16q-79 0 -122 -44.5t-43 -118.5zM350 673l-72 -145q-13 0 -34 11.5t-21 21.5q0 6 23.5 40.5t46.5 65.5l23 31q9 0 21.5 -8.5t12.5 -16.5z" />
    <glyph glyph-name="Hcircumflex" unicode="&#x124;" horiz-adv-x="786" 
d="M612 0v323h-416v-323h-80v637h-62q-8 0 -20 11.5t-12 19.5t12 20t20 12h142v-311h416v311h80v-700h-80zM407 930l122 -125q0 -7 -11.5 -19t-19.5 -12l-96 86l-95 -86q-7 0 -19 12t-12 19l122 125h9z" />
    <glyph glyph-name="hcircumflex" unicode="&#x125;" horiz-adv-x="557" 
d="M9 698q0 8 11.5 20t19.5 12h89q8 0 20 -12t12 -20v-300q70 57 160 57q77 0 117.5 -42.5t40.5 -117.5v-295h-78v295q0 91 -99 91q-84 0 -141 -49v-337h-78v667h-43q-8 0 -19.5 11.5t-11.5 19.5zM111 927l122 -125q0 -8 -12 -20t-20 -12l-95 86l-95 -86q-8 0 -19.5 12
t-11.5 20l122 125h9z" />
    <glyph glyph-name="Hbar" unicode="&#x126;" horiz-adv-x="803" 
d="M609 0v323h-416v-323h-80v512h-73v61h73v127h80v-127h416v127h80v-127h73v-61h-73v-512h-80zM193 512v-123h416v123h-416z" />
    <glyph glyph-name="hbar" unicode="&#x127;" horiz-adv-x="560" 
d="M14 588q0 8 12 19.5t19 11.5h41v111h77v-111h164v-63h-164v-159q68 58 160 58q77 0 117.5 -42.5t40.5 -117.5v-295h-77v295q0 91 -100 91q-83 0 -141 -49v-337h-77v556h-41q-7 0 -19 12t-12 20z" />
    <glyph glyph-name="Itilde" unicode="&#x128;" horiz-adv-x="412" 
d="M379 32q0 -8 -12 -20t-20 -12h-282q-8 0 -20 12t-12 20t12 19.5t20 11.5h101v574h-101q-8 0 -20 11.5t-12 19.5t12 20t20 12h282q8 0 20 -12t12 -20q0 -7 -12 -19t-20 -12h-101v-574h101q8 0 20 -12t12 -19zM66 817q4 7 11.5 17.5t32 28.5t48.5 18q22 0 52 -17.5
t45 -17.5q10 0 19.5 4t16 9.5t12 11t8.5 9.5l3 4q6 0 19 -11.5t13 -18.5q-4 -7 -11.5 -17.5t-32 -28.5t-48.5 -18q-22 0 -52.5 17.5t-45.5 17.5q-10 0 -19 -4t-16 -9.5t-12 -11t-8 -9.5l-3 -4q-7 0 -19.5 11.5t-12.5 18.5z" />
    <glyph glyph-name="itilde" unicode="&#x129;" horiz-adv-x="285" 
d="M18 416q0 7 12 19t20 12h122q8 0 19.5 -11.5t11.5 -19.5v-416h-77v384h-76q-8 0 -20 12t-12 20zM1 564q2 3 4.5 7t12 15t20 19.5t26 15.5t30.5 7q22 0 52 -17.5t45 -17.5q10 0 19.5 4t16 9.5t11.5 11t8 9.5l3 4q6 0 19 -11.5t13 -17.5q-4 -7 -11.5 -18t-31.5 -29t-49 -18
q-21 0 -51.5 17.5t-45.5 17.5q-10 0 -19.5 -4t-16.5 -9.5t-12 -11t-8 -9.5l-3 -4q-6 0 -19 11.5t-13 18.5z" />
    <glyph glyph-name="Imacron" unicode="&#x12a;" horiz-adv-x="412" 
d="M379 32q0 -8 -12 -20t-20 -12h-282q-8 0 -20 12t-12 20t12 19.5t20 11.5h101v574h-101q-8 0 -20 11.5t-12 19.5t12 20t20 12h282q8 0 20 -12t12 -20q0 -7 -12 -19t-20 -12h-101v-574h101q8 0 20 -12t12 -19zM70 809v53h273v-53h-273z" />
    <glyph glyph-name="imacron" unicode="&#x12b;" horiz-adv-x="285" 
d="M18 416q0 7 12 19t20 12h122q8 0 19.5 -11.5t11.5 -19.5v-416h-77v384h-76q-8 0 -20 12t-12 20zM4 556v53h274v-53h-274z" />
    <glyph glyph-name="Ibreve" unicode="&#x12c;" horiz-adv-x="412" 
d="M379 32q0 -8 -12 -20t-20 -12h-282q-8 0 -20 12t-12 20t12 19.5t20 11.5h101v574h-101q-8 0 -20 11.5t-12 19.5t12 20t20 12h282q8 0 20 -12t12 -20q0 -7 -12 -19t-20 -12h-101v-574h101q8 0 20 -12t12 -19zM347 874q-2 -4 -5 -10.5t-15 -24t-26.5 -30.5t-39.5 -23.5
t-54 -10.5t-54.5 10t-40.5 24.5t-26 29.5t-16 25l-4 10q0 8 15.5 19t24.5 11q1 -3 3.5 -7.5t11 -17t19 -22t29 -17t38.5 -7.5q21 0 39 7.5t28.5 17.5t18.5 20.5t11 17.5l3 8q9 0 24.5 -11t15.5 -19z" />
    <glyph glyph-name="ibreve" unicode="&#x12d;" horiz-adv-x="285" 
d="M18 416q0 7 12 19t20 12h122q8 0 19.5 -11.5t11.5 -19.5v-416h-77v384h-76q-8 0 -20 12t-12 20zM282 622q-2 -4 -5 -10.5t-15 -24t-26.5 -30.5t-39.5 -23.5t-54 -10.5t-54.5 10t-40.5 24.5t-26 29.5t-15 25l-5 10q0 7 15.5 18t24.5 11q1 -3 3.5 -7.5t11 -17t19 -22
t29 -17t38.5 -7.5q33 0 58 18t34 36l8 17q9 0 24.5 -11t15.5 -18z" />
    <glyph glyph-name="Iogonek" unicode="&#x12e;" horiz-adv-x="412" 
d="M196 0h-131q-8 0 -20 12t-12 20t12 19.5t20 11.5h101v574h-101q-8 0 -20 11.5t-12 19.5t12 20t20 12h282q8 0 20 -12t12 -20q0 -7 -12 -19t-20 -12h-101v-574h101q8 0 20 -12t12 -19q0 -8 -12 -20t-20 -12h-98q-13 -21 -13 -46q0 -29 17.5 -47.5t48.5 -18.5q34 0 50 16
q7 0 20 -15t13 -23q-33 -31 -84 -31q-54 0 -87.5 31.5t-33.5 79.5q0 28 16 54z" />
    <glyph glyph-name="iogonek" unicode="&#x12f;" horiz-adv-x="285" 
d="M126 0v384h-76q-8 0 -20 12t-12 20q0 7 12 19t20 12h122q8 0 19.5 -11.5t11.5 -19.5v-416h-24q-14 -20 -14 -46q0 -29 18 -47.5t49 -18.5q33 0 50 16q7 0 20 -15t13 -23q-34 -31 -84 -31q-54 0 -87.5 31.5t-33.5 79.5q0 28 16 54zM91 606q0 14 21.5 35t34.5 21t34.5 -21
t21.5 -35t-21.5 -35t-34.5 -21t-34.5 21t-21.5 35z" />
    <glyph glyph-name="Idotaccent" unicode="&#x130;" horiz-adv-x="412" 
d="M379 32q0 -8 -12 -20t-20 -12h-282q-8 0 -20 12t-12 20t12 19.5t20 11.5h101v574h-101q-8 0 -20 11.5t-12 19.5t12 20t20 12h282q8 0 20 -12t12 -20q0 -7 -12 -19t-20 -12h-101v-574h101q8 0 20 -12t12 -19zM149 834q0 14 21.5 35t35.5 21t35 -21t21 -35t-21 -35t-35 -21
t-35.5 21t-21.5 35z" />
    <glyph glyph-name="dotlessi" unicode="&#x131;" horiz-adv-x="285" 
d="M18 416q0 7 12 19t20 12h122q8 0 19.5 -11.5t11.5 -19.5v-416h-77v384h-76q-8 0 -20 12t-12 20z" />
    <glyph glyph-name="IJ" unicode="&#x132;" horiz-adv-x="749" 
d="M379 32q0 -8 -12 -20t-20 -12h-282q-8 0 -20 12t-12 20t12 19.5t20 11.5h101v574h-101q-8 0 -20 11.5t-12 19.5t12 20t20 12h282q8 0 20 -12t12 -20q0 -7 -12 -19t-20 -12h-101v-574h101q8 0 20 -12t12 -19zM575 -21v658h-101q-8 0 -20 12t-12 19q0 8 12 20t20 12h181
v-721q0 -92 -59.5 -151.5t-151.5 -59.5q-94 0 -152 60q0 10 20 29.5t29 19.5q39 -39 100 -39t97.5 39t36.5 102z" />
    <glyph glyph-name="ij" unicode="&#x133;" horiz-adv-x="567" 
d="M408 25v359h-76q-8 0 -20 12t-12 20t12 19.5t20 11.5h122q8 0 19.5 -11.5t11.5 -19.5v-391q0 -45 -13.5 -88t-33 -72t-40.5 -52t-36 -34t-19 -11q-9 0 -26 14.5t-17 23.5q108 108 108 219zM18 416q0 7 12 19t20 12h122q8 0 19.5 -11.5t11.5 -19.5v-416h-77v384h-76
q-8 0 -20 12t-12 20zM373 606q0 14 21.5 35t34.5 21t34.5 -21t21.5 -35t-21.5 -35t-34.5 -21t-34.5 21t-21.5 35zM91 606q0 14 21.5 35t34.5 21t34.5 -21t21.5 -35t-21.5 -35t-34.5 -21t-34.5 21t-21.5 35z" />
    <glyph glyph-name="Jcircumflex" unicode="&#x134;" horiz-adv-x="485" 
d="M314 204v433h-101q-8 0 -20 12t-12 19q0 8 12 20t20 12h179v-496q0 -92 -58.5 -151.5t-150.5 -59.5q-94 0 -152 60q0 10 19 29.5t28 19.5q37 -39 102 -39q61 0 97.5 39t36.5 102zM296 930l123 -125q0 -8 -12 -19.5t-20 -11.5l-95 86l-95 -86q-8 0 -20 11.5t-12 19.5
l122 125h9z" />
    <glyph glyph-name="jcircumflex" unicode="&#x135;" horiz-adv-x="285" 
d="M126 25v359h-76q-8 0 -20 12t-12 20q0 7 12 19t20 12h122q8 0 19.5 -11.5t11.5 -19.5v-391q0 -45 -13.5 -88t-33 -72t-40.5 -52t-36 -34t-19 -11q-9 0 -26 14.5t-17 23.5q108 108 108 219zM146 677l122 -124q0 -8 -11.5 -20t-19.5 -12l-96 86l-95 -86q-8 0 -19.5 12
t-11.5 20l122 124h9z" />
    <glyph glyph-name="Kcommaaccent" unicode="&#x136;" horiz-adv-x="643" 
d="M22 668q0 8 12 20t20 12h142v-312l90 8l254 311q10 0 34 -21.5t24 -31.5l-242 -294l257 -314q0 -9 -24 -31t-33 -22l-274 334l-86 -8v-319h-80v637h-62q-8 0 -20 11.5t-12 19.5zM269 -192l72 145q13 0 34 -11t21 -22q0 -6 -23 -40.5t-47 -65.5l-23 -31q-8 0 -21 8.5
t-13 16.5z" />
    <glyph glyph-name="kcommaaccent" unicode="&#x137;" horiz-adv-x="474" 
d="M9 698q0 8 11.5 20t19.5 12h89q8 0 20 -12t12 -20v-439l48 6l168 190q10 0 32 -19t22 -29l-158 -178l168 -187q0 -9 -22 -29t-32 -20l-182 204l-44 -6v-191h-78v667h-43q-8 0 -19.5 11.5t-11.5 19.5zM176 -192l71 145q13 0 34 -11t21 -22q0 -6 -23 -40.5t-46 -65.5
l-23 -31q-9 0 -21.5 8.5t-12.5 16.5z" />
    <glyph glyph-name="Lacute" unicode="&#x139;" horiz-adv-x="563" 
d="M94 0v700h80v-635h361v-65h-441zM70 802l119 135q11 0 29 -17.5t18 -28.5l-135 -120q-7 0 -19 11.5t-12 19.5z" />
    <glyph glyph-name="lacute" unicode="&#x13a;" horiz-adv-x="270" 
d="M1 698q0 8 11.5 20t19.5 12h122q8 0 20 -12t12 -20v-698h-78v667h-76q-8 0 -19.5 11.5t-11.5 19.5zM56 802l119 135q11 0 28.5 -17.5t17.5 -28.5l-134 -121q-8 0 -19.5 12t-11.5 20z" />
    <glyph glyph-name="Lcommaaccent" unicode="&#x13b;" horiz-adv-x="563" 
d="M94 0v700h80v-635h361v-65h-441zM224 -192l71 145q13 0 34 -11t21 -22q0 -6 -23 -40.5t-46 -65.5l-23 -31q-9 0 -21.5 8.5t-12.5 16.5z" />
    <glyph glyph-name="lcommaaccent" unicode="&#x13c;" horiz-adv-x="270" 
d="M1 698q0 8 11.5 20t19.5 12h122q8 0 20 -12t12 -20v-698h-78v667h-76q-8 0 -19.5 11.5t-11.5 19.5zM74 -192l71 145q14 0 35 -11t21 -22q0 -6 -23.5 -40.5t-46.5 -65.5l-23 -31q-9 0 -21.5 8.5t-12.5 16.5z" />
    <glyph glyph-name="Lcaron" unicode="&#x13d;" horiz-adv-x="563" 
d="M94 0v700h80v-635h361v-65h-441zM360 528l87 179q13 0 36 -12t23 -22q0 -7 -27 -50t-53 -83l-27 -39q-9 0 -24 9.5t-15 17.5z" />
    <glyph glyph-name="lcaron" unicode="&#x13e;" horiz-adv-x="429" 
d="M1 698q0 8 11.5 20t19.5 12h122q8 0 20 -12t12 -20v-698h-78v667h-76q-8 0 -19.5 11.5t-11.5 19.5zM257 557l86 179q13 0 36.5 -12.5t23.5 -22.5q0 -6 -27 -49t-54 -82l-27 -40q-8 0 -23 9.5t-15 17.5z" />
    <glyph glyph-name="Ldot" unicode="&#x13f;" horiz-adv-x="563" 
d="M94 0v700h80v-635h361v-65h-441zM357 355q0 14 22.5 36.5t36.5 22.5t36.5 -22.5t22.5 -36.5t-22.5 -36.5t-36.5 -22.5t-36.5 22.5t-22.5 36.5z" />
    <glyph glyph-name="ldot" unicode="&#x140;" horiz-adv-x="383" 
d="M1 698q0 8 11.5 20t19.5 12h122q8 0 20 -12t12 -20v-698h-78v667h-76q-8 0 -19.5 11.5t-11.5 19.5zM277 300q0 14 22.5 36.5t36.5 22.5t36.5 -22.5t22.5 -36.5t-22.5 -36.5t-36.5 -22.5t-36.5 22.5t-22.5 36.5z" />
    <glyph glyph-name="Lslash" unicode="&#x141;" horiz-adv-x="602" 
d="M33 282l99 64v354h80v-302l87 57q9 0 21 -15.5t12 -24.5l-120 -79v-271h362v-65h-442v283l-65 -43q-9 0 -21.5 16.5t-12.5 25.5z" />
    <glyph glyph-name="lslash" unicode="&#x142;" horiz-adv-x="350" 
d="M29 698q0 8 12 20t20 12h122q8 0 19.5 -12t11.5 -20v-290l73 47q8 0 20 -15.5t12 -24.5l-105 -68v-347h-77v297l-73 -47q-8 0 -20.5 16.5t-12.5 25.5l106 67v308h-76q-8 0 -20 11.5t-12 19.5z" />
    <glyph glyph-name="Nacute" unicode="&#x143;" horiz-adv-x="776" 
d="M189 555v-555h-73v637h-62q-8 0 -20 11.5t-12 19.5t12 20t20 12h111l445 -555v555h72v-700h-48zM335 802l119 135q12 0 29.5 -17.5t17.5 -28.5l-135 -120q-8 0 -19.5 11.5t-11.5 19.5z" />
    <glyph glyph-name="nacute" unicode="&#x144;" horiz-adv-x="552" 
d="M156 408v-10q70 57 160 57q77 0 117.5 -42.5t40.5 -117.5v-295h-78v295q0 91 -99 91q-84 0 -141 -49v-337h-78v361q0 26 -2 45.5t-4 25.5l-2 6v9h47q8 0 23.5 -15.5t15.5 -23.5zM213 550l120 134q11 0 28.5 -17.5t17.5 -28.5l-134 -120q-8 0 -20 12t-12 20z" />
    <glyph glyph-name="Ncommaaccent" unicode="&#x145;" horiz-adv-x="776" 
d="M189 555v-555h-73v637h-62q-8 0 -20 11.5t-12 19.5t12 20t20 12h111l445 -555v555h72v-700h-48zM325 -192l71 145q13 0 34 -11t21 -22q0 -6 -23 -40.5t-46 -65.5l-23 -31q-9 0 -21.5 8.5t-12.5 16.5z" />
    <glyph glyph-name="ncommaaccent" unicode="&#x146;" horiz-adv-x="552" 
d="M156 408v-10q70 57 160 57q77 0 117.5 -42.5t40.5 -117.5v-295h-78v295q0 91 -99 91q-84 0 -141 -49v-337h-78v361q0 26 -2 45.5t-4 25.5l-2 6v9h47q8 0 23.5 -15.5t15.5 -23.5zM202 -192l72 145q13 0 34 -11t21 -22q0 -6 -23 -40.5t-46 -65.5l-23 -31q-9 0 -22 8.5
t-13 16.5z" />
    <glyph glyph-name="Ncaron" unicode="&#x147;" horiz-adv-x="776" 
d="M189 555v-555h-73v637h-62q-8 0 -20 11.5t-12 19.5t12 20t20 12h111l445 -555v555h72v-700h-48zM393 768l-122 125q0 8 12 19.5t20 11.5l95 -85l95 85q8 0 19.5 -11.5t11.5 -19.5l-122 -125h-9z" />
    <glyph glyph-name="ncaron" unicode="&#x148;" horiz-adv-x="552" 
d="M156 408v-10q70 57 160 57q77 0 117.5 -42.5t40.5 -117.5v-295h-78v295q0 91 -99 91q-84 0 -141 -49v-337h-78v361q0 26 -2 45.5t-4 25.5l-2 6v9h47q8 0 23.5 -15.5t15.5 -23.5zM271 515l-122 125q0 8 12 20t20 12l95 -86l95 86q8 0 20 -12t12 -20l-122 -125h-10z" />
    <glyph glyph-name="Eng" unicode="&#x14a;" horiz-adv-x="776" 
d="M189 555v-555h-73v637h-62q-8 0 -20 11.5t-12 19.5t12 20t20 12h111l445 -555v555h72v-721q0 -92 -58 -151.5t-150 -59.5q-93 0 -153 60q0 10 19.5 29.5t28.5 19.5q37 -39 102 -39q61 0 97.5 39t36.5 102v57z" />
    <glyph glyph-name="eng" unicode="&#x14b;" horiz-adv-x="552" 
d="M396 25v270q0 91 -99 91q-84 0 -141 -49v-337h-78v361q0 26 -2 45.5t-4 25.5l-2 6v9h47q8 0 23.5 -15.5t15.5 -23.5v-10q70 57 160 57q77 0 117.5 -42.5t40.5 -117.5v-270q0 -45 -14 -88t-33.5 -72t-40.5 -52t-36 -34t-19 -11q-9 0 -25.5 14.5t-16.5 23.5
q107 107 107 219z" />
    <glyph glyph-name="Omacron" unicode="&#x14c;" horiz-adv-x="824" 
d="M61 350q0 154 99.5 255.5t251.5 101.5t252 -101.5t100 -255.5t-100 -255.5t-252 -101.5t-251.5 101.5t-99.5 255.5zM146 350q0 -128 74 -207.5t192 -79.5q119 0 193 79.5t74 207.5t-74 207.5t-193 79.5t-192.5 -79.5t-73.5 -207.5zM275 809v53h273v-53h-273z" />
    <glyph glyph-name="omacron" unicode="&#x14d;" horiz-adv-x="564" 
d="M48 223q0 100 66.5 166t167.5 66t167.5 -66t66.5 -166q0 -99 -66.5 -164.5t-167.5 -65.5t-167.5 65.5t-66.5 164.5zM131 223q0 -72 42 -117t109 -45t109 45t42 117q0 73 -42 118t-109 45t-109 -45t-42 -118zM145 556v53h273v-53h-273z" />
    <glyph glyph-name="Obreve" unicode="&#x14e;" horiz-adv-x="824" 
d="M61 350q0 154 99.5 255.5t251.5 101.5t252 -101.5t100 -255.5t-100 -255.5t-252 -101.5t-251.5 101.5t-99.5 255.5zM146 350q0 -128 74 -207.5t192 -79.5q119 0 193 79.5t74 207.5t-74 207.5t-193 79.5t-192.5 -79.5t-73.5 -207.5zM553 874q-2 -4 -5 -10.5t-15 -24
t-26.5 -30.5t-40 -23.5t-54.5 -10.5t-54 10t-40.5 24.5t-26 29.5t-15.5 25l-4 10q0 8 15.5 19t24.5 11q1 -3 3.5 -7.5t11 -17t19 -22t28.5 -17t38 -7.5q21 0 39 7.5t29 17.5t19 20.5t11 17.5l3 8q9 0 24.5 -11t15.5 -19z" />
    <glyph glyph-name="obreve" unicode="&#x14f;" horiz-adv-x="564" 
d="M48 223q0 100 66.5 166t167.5 66t167.5 -66t66.5 -166q0 -99 -66.5 -164.5t-167.5 -65.5t-167.5 65.5t-66.5 164.5zM131 223q0 -72 42 -117t109 -45t109 45t42 117q0 73 -42 118t-109 45t-109 -45t-42 -118zM423 622q-2 -4 -5 -10.5t-15 -24t-26.5 -30.5t-40 -23.5
t-54.5 -10.5t-54.5 10t-40.5 24.5t-26 29.5t-15 25l-5 10q0 7 16 18t24 11q1 -3 3.5 -7.5t11.5 -17t19.5 -22t28.5 -17t38 -7.5q33 0 58.5 18t33.5 36l9 17q8 0 24 -11t16 -18z" />
    <glyph glyph-name="Ohungarumlaut" unicode="&#x150;" horiz-adv-x="824" 
d="M61 350q0 154 99.5 255.5t251.5 101.5t252 -101.5t100 -255.5t-100 -255.5t-252 -101.5t-251.5 101.5t-99.5 255.5zM146 350q0 -128 74 -207.5t192 -79.5q119 0 193 79.5t74 207.5t-74 207.5t-193 79.5t-192.5 -79.5t-73.5 -207.5zM275 802l119 135q11 0 29 -17.5
t18 -28.5l-135 -120q-8 0 -19.5 11.5t-11.5 19.5zM443 802l120 135q11 0 28.5 -17.5t17.5 -28.5l-134 -120q-8 0 -20 11.5t-12 19.5z" />
    <glyph glyph-name="ohungarumlaut" unicode="&#x151;" horiz-adv-x="564" 
d="M48 223q0 100 66.5 166t167.5 66t167.5 -66t66.5 -166q0 -99 -66.5 -164.5t-167.5 -65.5t-167.5 65.5t-66.5 164.5zM131 223q0 -72 42 -117t109 -45t109 45t42 117q0 73 -42 118t-109 45t-109 -45t-42 -118zM135 550l119 134q11 0 29 -17.5t18 -28.5l-135 -120
q-8 0 -19.5 12t-11.5 20zM303 550l120 134q11 0 28.5 -17.5t17.5 -28.5l-134 -120q-8 0 -20 12t-12 20z" />
    <glyph glyph-name="OE" unicode="&#x152;" horiz-adv-x="1180" 
d="M663 0v102q-93 -109 -251 -109q-152 0 -251.5 101.5t-99.5 255.5t99.5 255.5t251.5 101.5q156 0 251 -110v103h457v-65h-377v-246h337v-66h-337v-258h382v-65h-462zM419 63q83 0 147 39t97 108v280q-33 69 -97 108t-147 39q-122 0 -197.5 -79.5t-75.5 -207.5t76 -207.5
t197 -79.5z" />
    <glyph glyph-name="oe" unicode="&#x153;" horiz-adv-x="913" 
d="M831 199h-311q5 -64 47.5 -101t113.5 -37q81 0 126 38q9 0 25.5 -16.5t16.5 -26.5q-61 -63 -170 -63q-68 0 -121 31t-81 85q-27 -54 -78.5 -85t-116.5 -31q-101 0 -167.5 65.5t-66.5 164.5q0 100 66.5 166t167.5 66q64 0 115 -31t79 -84q27 54 76 84.5t113 30.5
q94 0 147 -60t53 -161q0 -8 -13 -21.5t-21 -13.5zM131 223q0 -72 42 -117t109 -45t109 45t42 117q0 73 -42 118t-109 45t-109 -45t-42 -118zM663 387q-60 0 -99.5 -35t-43.5 -94h268q0 57 -32.5 93t-92.5 36z" />
    <glyph glyph-name="Racute" unicode="&#x154;" horiz-adv-x="647" 
d="M22 668q0 8 12 20t20 12h296q98 0 159.5 -57.5t61.5 -147.5q0 -73 -42.5 -126t-114.5 -71q84 -142 197 -255q0 -10 -21.5 -30t-31.5 -20q-138 138 -222 298h-140v-291h-80v637h-62q-8 0 -20 11.5t-12 19.5zM346 635h-150v-279h150q65 0 104 39t39 100q0 62 -39 101
t-104 39zM255 802l119 135q11 0 29 -17.5t18 -28.5l-135 -120q-8 0 -19.5 11.5t-11.5 19.5z" />
    <glyph glyph-name="racute" unicode="&#x155;" horiz-adv-x="361" 
d="M156 408v-36q73 80 172 80v-68q-46 0 -94 -22t-78 -62v-300h-78v361q0 26 -2 45.5t-4 25.5l-2 6v9h47q8 0 23.5 -15.5t15.5 -23.5zM143 550l119 134q11 0 29 -17.5t18 -28.5l-135 -120q-8 0 -19.5 12t-11.5 20z" />
    <glyph glyph-name="Rcommaaccent" unicode="&#x156;" horiz-adv-x="647" 
d="M22 668q0 8 12 20t20 12h296q98 0 159.5 -57.5t61.5 -147.5q0 -73 -42.5 -126t-114.5 -71q84 -142 197 -255q0 -10 -21.5 -30t-31.5 -20q-138 138 -222 298h-140v-291h-80v637h-62q-8 0 -20 11.5t-12 19.5zM346 635h-150v-279h150q65 0 104 39t39 100q0 62 -39 101
t-104 39zM260 -192l71 145q13 0 34 -11t21 -22q0 -6 -23 -40.5t-46 -65.5l-23 -31q-9 0 -21.5 8.5t-12.5 16.5z" />
    <glyph glyph-name="rcommaaccent" unicode="&#x157;" horiz-adv-x="361" 
d="M156 408v-36q73 80 172 80v-68q-46 0 -94 -22t-78 -62v-300h-78v361q0 26 -2 45.5t-4 25.5l-2 6v9h47q8 0 23.5 -15.5t15.5 -23.5zM44 -192l71 145q14 0 35 -11t21 -22q0 -6 -23.5 -40.5t-46.5 -65.5l-23 -31q-9 0 -21.5 8.5t-12.5 16.5z" />
    <glyph glyph-name="Rcaron" unicode="&#x158;" horiz-adv-x="647" 
d="M22 668q0 8 12 20t20 12h296q98 0 159.5 -57.5t61.5 -147.5q0 -73 -42.5 -126t-114.5 -71q84 -142 197 -255q0 -10 -21.5 -30t-31.5 -20q-138 138 -222 298h-140v-291h-80v637h-62q-8 0 -20 11.5t-12 19.5zM346 635h-150v-279h150q65 0 104 39t39 100q0 62 -39 101
t-104 39zM313 768l-122 125q0 8 12 19.5t20 11.5l95 -85l95 85q8 0 20 -11.5t12 -19.5l-122 -125h-10z" />
    <glyph glyph-name="rcaron" unicode="&#x159;" horiz-adv-x="361" 
d="M156 408v-36q73 80 172 80v-68q-46 0 -94 -22t-78 -62v-300h-78v361q0 26 -2 45.5t-4 25.5l-2 6v9h47q8 0 23.5 -15.5t15.5 -23.5zM196 515l-122 125q0 8 11.5 20t19.5 12l96 -86l95 86q8 0 19.5 -12t11.5 -20l-122 -125h-9z" />
    <glyph glyph-name="Sacute" unicode="&#x15a;" horiz-adv-x="586" 
d="M126 185v-73q61 -51 160 -51q74 0 119 31.5t45 87.5q0 41 -31.5 64.5t-128.5 66.5q-13 6 -20 9q-111 49 -156 90.5t-45 112.5q0 84 59 134t166 50q125 0 205 -75v-118q0 -8 -12 -20.5t-20 -12.5t-20.5 12.5t-12.5 20.5v76q-60 48 -142 48q-68 0 -107 -31t-39 -79
q0 -42 36 -69.5t136 -73.5q125 -59 167 -96.5t42 -103.5q0 -92 -64 -142t-178 -50q-134 0 -224 75v117q0 8 11.5 20.5t19.5 12.5t21 -12.5t13 -20.5zM229 802l120 135q11 0 28.5 -17.5t17.5 -28.5l-134 -120q-8 0 -20 11.5t-12 19.5z" />
    <glyph glyph-name="sacute" unicode="&#x15b;" horiz-adv-x="419" 
d="M203 57q40 0 65 16t25 45q0 18 -15 32t-31 21.5t-59 24.5q-73 30 -102.5 57t-29.5 76q0 59 40 92.5t114 33.5q85 0 141 -56q0 -9 -17.5 -26.5t-26.5 -17.5q-33 35 -97 35q-38 0 -59.5 -15.5t-21.5 -41.5q0 -17 12 -29.5t28.5 -20.5t58.5 -25q77 -33 108 -60t31 -76
q0 -61 -43.5 -95t-119.5 -34q-96 0 -158 62q0 9 18 27t27 18q41 -43 112 -43zM148 550l120 134q11 0 28.5 -17.5t17.5 -28.5l-134 -120q-8 0 -20 12t-12 20z" />
    <glyph glyph-name="Scircumflex" unicode="&#x15c;" horiz-adv-x="586" 
d="M126 185v-73q61 -51 160 -51q74 0 119 31.5t45 87.5q0 41 -31.5 64.5t-128.5 66.5q-13 6 -20 9q-111 49 -156 90.5t-45 112.5q0 84 59 134t166 50q125 0 205 -75v-118q0 -8 -12 -20.5t-20 -12.5t-20.5 12.5t-12.5 20.5v76q-60 48 -142 48q-68 0 -107 -31t-39 -79
q0 -42 36 -69.5t136 -73.5q125 -59 167 -96.5t42 -103.5q0 -92 -64 -142t-178 -50q-134 0 -224 75v117q0 8 11.5 20.5t19.5 12.5t21 -12.5t13 -20.5zM296 930l122 -125q0 -7 -12 -19t-19 -12l-96 86l-94 -86q-8 0 -20 11.5t-12 19.5l122 125h9z" />
    <glyph glyph-name="scircumflex" unicode="&#x15d;" horiz-adv-x="419" 
d="M203 57q40 0 65 16t25 45q0 18 -15 32t-31 21.5t-59 24.5q-73 30 -102.5 57t-29.5 76q0 59 40 92.5t114 33.5q85 0 141 -56q0 -9 -17.5 -26.5t-26.5 -17.5q-33 35 -97 35q-38 0 -59.5 -15.5t-21.5 -41.5q0 -17 12 -29.5t28.5 -20.5t58.5 -25q77 -33 108 -60t31 -76
q0 -61 -43.5 -95t-119.5 -34q-96 0 -158 62q0 9 18 27t27 18q41 -43 112 -43zM216 677l122 -124q0 -8 -11.5 -20t-19.5 -12l-96 86l-95 -86q-8 0 -19.5 12t-11.5 20l122 124h9z" />
    <glyph glyph-name="Scedilla" unicode="&#x15e;" horiz-adv-x="586" 
d="M126 185v-73q61 -51 160 -51q74 0 119 31.5t45 87.5q0 41 -31.5 64.5t-128.5 66.5q-13 6 -20 9q-111 49 -156 90.5t-45 112.5q0 84 59 134t166 50q125 0 205 -75v-118q0 -8 -12 -20.5t-20 -12.5t-20.5 12.5t-12.5 20.5v76q-60 48 -142 48q-68 0 -107 -31t-39 -79
q0 -42 36 -69.5t136 -73.5q125 -59 167 -96.5t42 -103.5q0 -86 -57 -136t-159 -55l-6 -47q3 0 7.5 -0.5t16 -4t20.5 -8.5t16 -15.5t7 -24.5q0 -29 -28 -54.5t-56 -37.5l-28 -11q-8 0 -19 11t-11 19q10 3 24.5 9t39 23.5t24.5 33.5q0 13 -15.5 21t-30.5 10l-16 1l10 75
q-122 5 -205 74v117q0 8 11.5 20.5t19.5 12.5t21 -12.5t13 -20.5z" />
    <glyph glyph-name="scedilla" unicode="&#x15f;" horiz-adv-x="419" 
d="M203 57q40 0 65 16t25 45q0 18 -15 32t-31 21.5t-59 24.5q-73 30 -102.5 57t-29.5 76q0 59 40 92.5t114 33.5q85 0 141 -56q0 -9 -17.5 -26.5t-26.5 -17.5q-33 35 -97 35q-38 0 -59.5 -15.5t-21.5 -41.5q0 -17 12 -29.5t28.5 -20.5t58.5 -25q77 -33 108 -60t31 -76
q0 -57 -37 -90t-103 -38l-6 -47q3 0 7.5 -0.5t15.5 -4t20 -8.5t16 -15.5t7 -24.5q0 -29 -28 -54.5t-56 -37.5l-28 -11q-8 0 -18.5 11t-10.5 19q10 3 24.5 9t39 23.5t24.5 33.5q0 13 -15.5 21t-30.5 10l-16 1l9 75q-80 6 -135 61q0 9 18 27t27 18q41 -43 112 -43z" />
    <glyph glyph-name="Scaron" unicode="&#x160;" horiz-adv-x="586" 
d="M126 185v-73q61 -51 160 -51q74 0 119 31.5t45 87.5q0 41 -31.5 64.5t-128.5 66.5q-13 6 -20 9q-111 49 -156 90.5t-45 112.5q0 84 59 134t166 50q125 0 205 -75v-118q0 -8 -12 -20.5t-20 -12.5t-20.5 12.5t-12.5 20.5v76q-60 48 -142 48q-68 0 -107 -31t-39 -79
q0 -42 36 -69.5t136 -73.5q125 -59 167 -96.5t42 -103.5q0 -92 -64 -142t-178 -50q-134 0 -224 75v117q0 8 11.5 20.5t19.5 12.5t21 -12.5t13 -20.5zM287 768l-122 125q0 8 12 19.5t20 11.5l95 -85l95 85q8 0 19.5 -11.5t11.5 -19.5l-122 -125h-9z" />
    <glyph glyph-name="scaron" unicode="&#x161;" horiz-adv-x="419" 
d="M203 57q40 0 65 16t25 45q0 18 -15 32t-31 21.5t-59 24.5q-73 30 -102.5 57t-29.5 76q0 59 40 92.5t114 33.5q85 0 141 -56q0 -9 -17.5 -26.5t-26.5 -17.5q-33 35 -97 35q-38 0 -59.5 -15.5t-21.5 -41.5q0 -17 12 -29.5t28.5 -20.5t58.5 -25q77 -33 108 -60t31 -76
q0 -61 -43.5 -95t-119.5 -34q-96 0 -158 62q0 9 18 27t27 18q41 -43 112 -43zM207 515l-122 125q0 8 11.5 20t19.5 12l96 -86l95 86q8 0 19.5 -12t11.5 -20l-122 -125h-9z" />
    <glyph glyph-name="Tcommaaccent" unicode="&#x162;" horiz-adv-x="637" 
d="M28 635v65h581v-65h-250v-635h-80v635h-251zM255 -192l71 145q13 0 34 -11t21 -22q0 -6 -23 -40.5t-46 -65.5l-23 -31q-9 0 -21.5 8.5t-12.5 16.5z" />
    <glyph glyph-name="tcommaaccent" unicode="&#x163;" horiz-adv-x="384" 
d="M21 416q0 8 11.5 19.5t19.5 11.5h60v136l52 29h22v-165h148v-63h-148v-266q0 -58 56 -58q45 0 73 29q9 0 24.5 -16t15.5 -25q-55 -55 -129 -55q-56 0 -87 28.5t-31 84.5v278h-56q-8 0 -19.5 12t-11.5 20zM151 -192l72 145q13 0 34 -11t21 -22q0 -6 -23 -40.5t-47 -65.5
l-23 -31q-8 0 -21 8.5t-13 16.5z" />
    <glyph glyph-name="Tcaron" unicode="&#x164;" horiz-adv-x="637" 
d="M28 635v65h581v-65h-250v-635h-80v635h-251zM314 768l-122 125q0 8 11.5 19.5t19.5 11.5l96 -85l94 85q8 0 20 -11.5t12 -19.5l-122 -125h-9z" />
    <glyph glyph-name="tcaron" unicode="&#x165;" horiz-adv-x="384" 
d="M21 416q0 8 11.5 19.5t19.5 11.5h60v136l52 29h22v-165h148v-63h-148v-266q0 -58 56 -58q45 0 73 29q9 0 24.5 -16t15.5 -25q-55 -55 -129 -55q-56 0 -87 28.5t-31 84.5v278h-56q-8 0 -19.5 12t-11.5 20zM273 575l72 145q13 0 34 -11t21 -21q0 -7 -23 -41t-47 -65
l-23 -31q-8 0 -21 8.5t-13 15.5z" />
    <glyph glyph-name="Tbar" unicode="&#x166;" horiz-adv-x="637" 
d="M28 635v65h581v-65h-250v-243h175v-61h-175v-331h-80v331h-176v61h176v243h-251z" />
    <glyph glyph-name="tbar" unicode="&#x167;" horiz-adv-x="384" 
d="M21 416q0 8 11.5 19.5t19.5 11.5h60v136l52 29h22v-165h148v-63h-148v-94h148v-64h-148v-108q0 -58 56 -58q45 0 73 29q9 0 24.5 -16t15.5 -25q-55 -55 -129 -55q-56 0 -87 28.5t-31 84.5v120h-56q-7 0 -19 12t-12 20t12 20t19 12h56v94h-56q-8 0 -19.5 12t-11.5 20z" />
    <glyph glyph-name="Utilde" unicode="&#x168;" horiz-adv-x="771" 
d="M116 266v371h-62q-8 0 -20 11.5t-12 19.5t12 20t20 12h142v-434q0 -95 53 -149t148 -54q94 0 147 54t53 149v434h80v-434q0 -123 -77.5 -198t-202.5 -75q-126 0 -203.5 75t-77.5 198zM253 817q4 7 11.5 17.5t32 28.5t48.5 18q22 0 52 -17.5t45 -17.5q10 0 19.5 4t16 9.5
t11.5 11t8 9.5l3 4q7 0 20 -11.5t13 -18.5q-2 -3 -4.5 -7t-12 -15t-19.5 -19.5t-25.5 -15.5t-31.5 -7q-22 0 -52 17.5t-45 17.5q-10 0 -19.5 -4t-16.5 -9.5t-12 -11t-8 -9.5l-3 -4q-6 0 -18.5 11.5t-12.5 18.5z" />
    <glyph glyph-name="utilde" unicode="&#x169;" horiz-adv-x="547" 
d="M396 175v272h77v-272q0 -80 -57 -131t-143 -51q-85 0 -142 51t-57 131v272h78v-272q0 -49 34 -81.5t87 -32.5t88 33t35 81zM133 564q2 3 4.5 7t12 15t20 19.5t26 15.5t30.5 7q22 0 52 -17.5t45 -17.5q10 0 19.5 4t16 9.5t11.5 11t8 9.5l3 4q6 0 19 -11.5t13 -17.5
q-4 -7 -11.5 -18t-31.5 -29t-49 -18q-21 0 -51 17.5t-46 17.5q-10 0 -19.5 -4t-16.5 -9.5t-12 -11t-8 -9.5l-3 -4q-6 0 -19 11.5t-13 18.5z" />
    <glyph glyph-name="Umacron" unicode="&#x16a;" horiz-adv-x="771" 
d="M116 266v371h-62q-8 0 -20 11.5t-12 19.5t12 20t20 12h142v-434q0 -95 53 -149t148 -54q94 0 147 54t53 149v434h80v-434q0 -123 -77.5 -198t-202.5 -75q-126 0 -203.5 75t-77.5 198zM256 809v53h273v-53h-273z" />
    <glyph glyph-name="umacron" unicode="&#x16b;" horiz-adv-x="547" 
d="M396 175v272h77v-272q0 -80 -57 -131t-143 -51q-85 0 -142 51t-57 131v272h78v-272q0 -49 34 -81.5t87 -32.5t88 33t35 81zM137 556v53h273v-53h-273z" />
    <glyph glyph-name="Ubreve" unicode="&#x16c;" horiz-adv-x="771" 
d="M116 266v371h-62q-8 0 -20 11.5t-12 19.5t12 20t20 12h142v-434q0 -95 53 -149t148 -54q94 0 147 54t53 149v434h80v-434q0 -123 -77.5 -198t-202.5 -75q-126 0 -203.5 75t-77.5 198zM533 874q-2 -4 -5 -10.5t-15 -24t-26.5 -30.5t-39.5 -23.5t-54 -10.5t-54.5 10
t-40.5 24.5t-26 29.5t-16 25l-4 10q0 8 15.5 19t24.5 11q1 -3 3.5 -7.5t11 -17t19 -22t29 -17t38.5 -7.5q33 0 58 17.5t33 35.5l9 18q9 0 24.5 -11t15.5 -19z" />
    <glyph glyph-name="ubreve" unicode="&#x16d;" horiz-adv-x="547" 
d="M396 175v272h77v-272q0 -80 -57 -131t-143 -51q-85 0 -142 51t-57 131v272h78v-272q0 -49 34 -81.5t87 -32.5t88 33t35 81zM414 622q-2 -4 -5 -10.5t-15 -24t-26.5 -30.5t-39.5 -23.5t-54 -10.5t-54.5 10t-40.5 24.5t-26 29.5t-15 25l-5 10q0 7 15.5 18t24.5 11
q1 -3 3.5 -7.5t11 -17t19 -22t29 -17t38.5 -7.5q33 0 58 18t34 36l8 17q9 0 24.5 -11t15.5 -18z" />
    <glyph glyph-name="Uring" unicode="&#x16e;" horiz-adv-x="771" 
d="M116 266v371h-62q-8 0 -20 11.5t-12 19.5t12 20t20 12h142v-434q0 -95 53 -149t148 -54q94 0 147 54t53 149v434h80v-434q0 -123 -77.5 -198t-202.5 -75q-126 0 -203.5 75t-77.5 198zM300 853q0 40 26 65.5t67 25.5q40 0 66 -25.5t26 -65.5t-26 -65.5t-66 -25.5
q-41 0 -67 25.5t-26 65.5zM343 853q0 -22 14 -36t36 -14t35.5 14t13.5 36t-13.5 35.5t-35.5 13.5t-36 -13.5t-14 -35.5z" />
    <glyph glyph-name="uring" unicode="&#x16f;" horiz-adv-x="547" 
d="M396 175v272h77v-272q0 -80 -57 -131t-143 -51q-85 0 -142 51t-57 131v272h78v-272q0 -49 34 -81.5t87 -32.5t88 33t35 81zM181 600q0 40 26 65.5t66 25.5q41 0 67 -25.5t26 -65.5t-26 -65.5t-67 -25.5q-40 0 -66 25.5t-26 65.5zM224 600q0 -22 13.5 -36t35.5 -14t36 14
t14 36t-14 35.5t-36 13.5t-35.5 -13.5t-13.5 -35.5z" />
    <glyph glyph-name="Uhungarumlaut" unicode="&#x170;" horiz-adv-x="771" 
d="M116 266v371h-62q-8 0 -20 11.5t-12 19.5t12 20t20 12h142v-434q0 -95 53 -149t148 -54q94 0 147 54t53 149v434h80v-434q0 -123 -77.5 -198t-202.5 -75q-126 0 -203.5 75t-77.5 198zM246 802l119 135q11 0 29 -17.5t18 -28.5l-135 -120q-8 0 -19.5 11.5t-11.5 19.5z
M414 802l120 135q11 0 28.5 -17.5t17.5 -28.5l-134 -120q-8 0 -20 11.5t-12 19.5z" />
    <glyph glyph-name="uhungarumlaut" unicode="&#x171;" horiz-adv-x="547" 
d="M396 175v272h77v-272q0 -80 -57 -131t-143 -51q-85 0 -142 51t-57 131v272h78v-272q0 -49 34 -81.5t87 -32.5t88 33t35 81zM126 550l120 134q11 0 28.5 -17.5t17.5 -28.5l-134 -120q-8 0 -20 12t-12 20zM295 550l119 134q11 0 28.5 -17.5t17.5 -28.5l-134 -120
q-8 0 -19.5 12t-11.5 20z" />
    <glyph glyph-name="Uogonek" unicode="&#x172;" horiz-adv-x="771" 
d="M116 266v371h-62q-8 0 -20 11.5t-12 19.5t12 20t20 12h142v-434q0 -95 53 -149t148 -54q94 0 147 54t53 149v434h80v-434q0 -107 -59.5 -179t-160.5 -89q-12 -18 -12 -44q0 -29 18 -47.5t49 -18.5q33 0 50 16q7 0 20 -15t13 -23q-34 -31 -84 -31q-54 0 -87.5 31.5
t-33.5 79.5q0 26 12 47h-5q-126 0 -203.5 75t-77.5 198z" />
    <glyph glyph-name="uogonek" unicode="&#x173;" horiz-adv-x="547" 
d="M396 175v272h77v-272q0 -63 -37 -109.5t-98 -64.5q-13 -18 -13 -44q0 -29 18 -47.5t49 -18.5q34 0 50 16q7 0 20 -15t13 -23q-33 -31 -84 -31q-54 0 -87.5 31.5t-33.5 79.5q0 25 10 44h-7q-85 0 -142 51t-57 131v272h78v-272q0 -49 34 -81.5t87 -32.5t88 33t35 81z" />
    <glyph glyph-name="Wcircumflex" unicode="&#x174;" horiz-adv-x="1082" 
d="M1051 680l-241 -680h-79l-190 566l-190 -566h-80l-240 680q0 4 32 15.5t42 11.5l206 -594l195 587h70l195 -587l206 594q10 0 42 -11.5t32 -15.5zM545 930l122 -125q0 -8 -12 -19.5t-20 -11.5l-95 86l-95 -86q-7 0 -19 12t-12 19l122 125h9z" />
    <glyph glyph-name="wcircumflex" unicode="&#x175;" horiz-adv-x="742" 
d="M719 425l-163 -425h-69l-116 322l-116 -322h-69l-163 425q0 5 30 16t40 11l127 -351l123 346h56l123 -346l127 351q10 0 40 -11t30 -16zM376 677l122 -124q0 -8 -12 -20t-20 -12l-95 86l-95 -86q-8 0 -20 12t-12 20l122 124h10z" />
    <glyph glyph-name="Ycircumflex" unicode="&#x176;" horiz-adv-x="657" 
d="M288 0v301l-257 359q0 9 24.5 28t33.5 19l240 -337l239 337q10 0 34.5 -19t24.5 -28l-259 -359v-301h-80zM333 930l122 -125q0 -7 -11.5 -19t-19.5 -12l-96 86l-95 -86q-7 0 -19 12t-12 19l122 125h9z" />
    <glyph glyph-name="ycircumflex" unicode="&#x177;" horiz-adv-x="501" 
d="M475 420l-292 -646q-10 0 -41 14.5t-31 19.5l100 192l-185 420q0 5 29.5 18.5t39.5 13.5l154 -359l157 359q10 0 39.5 -13.5t29.5 -18.5zM255 677l122 -124q0 -8 -12 -20t-20 -12l-95 86l-95 -86q-8 0 -20 12t-12 20l123 124h9z" />
    <glyph glyph-name="Ydieresis" unicode="&#x178;" horiz-adv-x="657" 
d="M288 0v301l-257 359q0 9 24.5 28t33.5 19l240 -337l239 337q10 0 34.5 -19t24.5 -28l-259 -359v-301h-80zM182 835q0 11 18 29t29 18t29 -18t18 -29t-18 -29t-29 -18t-29 18t-18 29zM381 835q0 11 18 29t29 18q12 0 30 -18t18 -29t-18 -29t-30 -18q-11 0 -29 18t-18 29z
" />
    <glyph glyph-name="Zacute" unicode="&#x179;" horiz-adv-x="682" 
d="M66 635v65h519q8 0 20 -12t12 -19v-32l-451 -572h451v-65h-520q-7 0 -19 12t-12 20v31l449 572h-449zM281 802l119 135q11 0 29 -17.5t18 -28.5l-135 -120q-8 0 -19.5 11.5t-11.5 19.5z" />
    <glyph glyph-name="zacute" unicode="&#x17a;" horiz-adv-x="485" 
d="M59 384v63h337q7 0 19 -12t12 -19v-32l-273 -321h273v-63h-340q-7 0 -19 12.5t-12 19.5v31l272 321h-269zM180 550l120 134q11 0 28.5 -17.5t17.5 -28.5l-134 -120q-8 0 -20 12t-12 20z" />
    <glyph glyph-name="Zdotaccent" unicode="&#x17b;" horiz-adv-x="682" 
d="M66 635v65h519q8 0 20 -12t12 -19v-32l-451 -572h451v-65h-520q-7 0 -19 12t-12 20v31l449 572h-449zM287 859q0 13 21.5 34.5t34.5 21.5q14 0 35.5 -21.5t21.5 -34.5t-21.5 -34.5t-35.5 -21.5q-13 0 -34.5 21.5t-21.5 34.5z" />
    <glyph glyph-name="zdotaccent" unicode="&#x17c;" horiz-adv-x="485" 
d="M59 384v63h337q7 0 19 -12t12 -19v-32l-273 -321h273v-63h-340q-7 0 -19 12.5t-12 19.5v31l272 321h-269zM187 606q0 14 21.5 35t35.5 21t35 -21t21 -35t-21 -35t-35 -21t-35.5 21t-21.5 35z" />
    <glyph glyph-name="Zcaron" unicode="&#x17d;" horiz-adv-x="682" 
d="M66 635v65h519q8 0 20 -12t12 -19v-32l-451 -572h451v-65h-520q-7 0 -19 12t-12 20v31l449 572h-449zM338 768l-122 125q0 8 12 19.5t20 11.5l95 -85l95 85q8 0 20 -11.5t12 -19.5l-122 -125h-10z" />
    <glyph glyph-name="zcaron" unicode="&#x17e;" horiz-adv-x="485" 
d="M59 384v63h337q7 0 19 -12t12 -19v-32l-273 -321h273v-63h-340q-7 0 -19 12.5t-12 19.5v31l272 321h-269zM239 515l-122 125q0 8 12 20t20 12l95 -86l95 86q8 0 19.5 -12t11.5 -20l-122 -125h-9z" />
    <glyph glyph-name="longs" unicode="&#x17f;" horiz-adv-x="240" 
d="M81 0v590q0 147 123 147q72 0 122 -51q0 -8 -15.5 -24t-24.5 -16q-24 24 -67 24q-32 0 -46 -21.5t-14 -70.5v-578h-78z" />
    <glyph glyph-name="uni018F" unicode="&#x18f;" horiz-adv-x="781" 
d="M115 379h524q-5 121 -82 189.5t-203 68.5q-141 0 -222 -74q-8 0 -24.5 17.5t-16.5 25.5q103 102 268 102q163 0 264.5 -101.5t101.5 -264.5q0 -153 -90 -251t-247 -98q-150 0 -236 92.5t-86 244.5q0 10 19.5 29.5t29.5 19.5zM393 63q109 0 173.5 66.5t73.5 184.5h-490
q0 -112 65 -181.5t178 -69.5z" />
    <glyph glyph-name="florin" unicode="&#x192;" horiz-adv-x="357" 
d="M72 25l63 359h-56q-7 0 -16.5 12t-9.5 20q0 7 14.5 19t22.5 12h56l26 143q25 147 149 147q71 0 113 -51q-2 -8 -20.5 -24t-27.5 -16q-21 24 -63 24q-32 0 -50 -21.5t-26 -70.5l-23 -131h141l-12 -63h-140l-63 -359q-8 -45 -29.5 -88t-46 -72t-49.5 -52t-42 -34t-21 -11
q-8 0 -22 14.5t-14 23.5q126 107 146 219z" />
    <glyph glyph-name="uni01DD" unicode="&#x1dd;" horiz-adv-x="523" 
d="M84 248h310q-4 64 -47 101.5t-114 37.5q-79 0 -126 -39q-9 0 -25.5 16.5t-16.5 26.5q61 64 171 64q106 0 172.5 -65.5t66.5 -172.5q0 -98 -57.5 -161t-159.5 -63q-97 0 -153 60t-56 161q0 8 13.5 21t21.5 13zM260 60q60 0 95 34.5t40 94.5h-268q0 -57 36 -93t97 -36z" />
    <glyph glyph-name="Aringacute" unicode="&#x1fa;" horiz-adv-x="744" 
d="M280 752q0 40 26 65.5t67 25.5q28 0 50 -14l105 118q11 0 28.5 -17.5t17.5 -28.5l-119 -107q10 -20 10 -42q0 -54 -45 -79l290 -646q0 -5 -30 -19.5t-40 -14.5l-90 204h-357l-90 -204q-9 0 -39.5 15t-30.5 19l276 610h-53q-8 0 -20 12t-12 19q0 8 12 20t20 12h39
q-15 21 -15 52zM371 602l-150 -340h302zM323 752q0 -22 14 -36t36 -14t35.5 14t13.5 36t-13.5 35.5t-35.5 13.5t-36 -13.5t-14 -35.5z" />
    <glyph glyph-name="aringacute" unicode="&#x1fb;" horiz-adv-x="479" 
d="M234 455q82 0 125.5 -38t43.5 -112v-219q0 -26 2.5 -45.5t4.5 -25.5l2 -6v-9h-48q-8 0 -22.5 15t-15.5 23q-52 -45 -127 -45q-65 0 -105.5 33t-40.5 95q0 67 50.5 103.5t145.5 36.5q39 0 77 -6v48q0 43 -26.5 64.5t-71.5 21.5q-72 0 -116 -44q-10 0 -27.5 18t-17.5 28
q64 64 167 64zM141 579q0 40 26 65.5t67 25.5q24 0 46 -11l102 115q11 0 29 -17.5t18 -28.5l-115 -102q12 -24 12 -47q0 -40 -26 -65.5t-66 -25.5q-41 0 -67 25.5t-26 65.5zM131 127q0 -35 23 -53t62 -18q65 0 110 45v97q-42 6 -76 6q-119 0 -119 -77zM184 579
q0 -22 14 -35.5t36 -13.5t35.5 13.5t13.5 35.5t-13.5 36t-35.5 14t-36 -14t-14 -36z" />
    <glyph glyph-name="AEacute" unicode="&#x1fc;" horiz-adv-x="857" 
d="M390 0v197h-195l-92 -204q-9 0 -39.5 15t-30.5 19l289 610h-53q-7 0 -19 11.5t-12 19.5t11.5 20t19.5 12h528v-65h-327v-246h287v-66h-287v-258h332v-65h-412zM385 602l-163 -340h168v340h-5zM469 802l120 135q11 0 28.5 -17.5t17.5 -28.5l-134 -120q-8 0 -20 11.5
t-12 19.5z" />
    <glyph glyph-name="aeacute" unicode="&#x1fd;" horiz-adv-x="785" 
d="M703 199h-311q4 -64 47 -101t114 -37q81 0 126 38q9 0 25.5 -16.5t16.5 -26.5q-61 -63 -170 -63q-115 0 -184 75q-66 -75 -168 -75q-67 0 -108 33t-41 95q0 67 50.5 103.5t145.5 36.5q38 0 66 -5q4 28 14 58q-4 37 -31.5 56t-69.5 19q-71 0 -115 -44q-10 0 -28 18t-18 28
q64 64 164 64q107 0 145 -65q65 65 164 65q93 0 146.5 -60t53.5 -161q0 -8 -13 -21.5t-21 -13.5zM534 387q-60 0 -99 -35t-44 -94h268q0 58 -32.5 93.5t-92.5 35.5zM128 127q0 -35 23 -53t63 -18q74 0 122 58q-19 37 -24 85q-32 5 -65 5q-119 0 -119 -77zM315 550l120 134
q11 0 28.5 -17.5t17.5 -28.5l-135 -120q-8 0 -19.5 12t-11.5 20z" />
    <glyph glyph-name="Oslashacute" unicode="&#x1fe;" horiz-adv-x="824" 
d="M632 714l-31 -59q76 -46 119.5 -126t43.5 -179q0 -154 -100 -255.5t-252 -101.5q-72 0 -136 25l-23 -45q-16 0 -38 4.5t-22 8.5l30 59q-76 47 -119 126.5t-43 178.5q0 154 99.5 255.5t251.5 101.5q73 0 136 -26l24 46q16 0 38 -4.5t22 -8.5zM143 350q0 -162 112 -242
l262 512q-51 19 -105 19q-120 0 -194.5 -80.5t-74.5 -208.5zM681 350q0 161 -112 241l-262 -511q47 -19 105 -19q120 0 194.5 80.5t74.5 208.5zM349 802l119 135q11 0 29 -17.5t18 -28.5l-135 -120q-8 0 -19.5 11.5t-11.5 19.5z" />
    <glyph glyph-name="oslashacute" unicode="&#x1ff;" horiz-adv-x="564" 
d="M497 460l-51 -67q70 -67 70 -170q0 -99 -66.5 -164.5t-167.5 -65.5q-64 0 -117 28l-37 -48q-15 0 -37.5 5t-22.5 9l51 67q-71 65 -71 169q0 100 66.5 166t167.5 66q63 0 118 -29l37 49q15 0 37.5 -5.5t22.5 -9.5zM123 223q0 -70 38 -114l198 263q-35 19 -77 19
q-71 0 -115 -46.5t-44 -121.5zM441 223q0 69 -37 114l-199 -263q33 -18 77 -18q70 0 114.5 46.5t44.5 120.5zM219 550l119 134q11 0 29 -17.5t18 -28.5l-135 -120q-8 0 -19.5 12t-11.5 20z" />
    <glyph glyph-name="Scommaaccent" unicode="&#x218;" horiz-adv-x="586" 
d="M126 185v-73q61 -51 160 -51q74 0 119 31.5t45 87.5q0 41 -31.5 64.5t-128.5 66.5q-13 6 -20 9q-111 49 -156 90.5t-45 112.5q0 84 59 134t166 50q125 0 205 -75v-118q0 -8 -12 -20.5t-20 -12.5t-20.5 12.5t-12.5 20.5v76q-60 48 -142 48q-68 0 -107 -31t-39 -79
q0 -42 36 -69.5t136 -73.5q125 -59 167 -96.5t42 -103.5q0 -92 -64 -142t-178 -50q-134 0 -224 75v117q0 8 11.5 20.5t19.5 12.5t21 -12.5t13 -20.5zM223 -192l71 145q13 0 34 -11t21 -22q0 -6 -23 -40.5t-46 -65.5l-23 -31q-9 0 -21.5 8.5t-12.5 16.5z" />
    <glyph glyph-name="scommaaccent" unicode="&#x219;" horiz-adv-x="419" 
d="M203 57q40 0 65 16t25 45q0 18 -15 32t-31 21.5t-59 24.5q-73 30 -102.5 57t-29.5 76q0 59 40 92.5t114 33.5q85 0 141 -56q0 -9 -17.5 -26.5t-26.5 -17.5q-33 35 -97 35q-38 0 -59.5 -15.5t-21.5 -41.5q0 -17 12 -29.5t28.5 -20.5t58.5 -25q77 -33 108 -60t31 -76
q0 -61 -43.5 -95t-119.5 -34q-96 0 -158 62q0 9 18 27t27 18q41 -43 112 -43zM133 -192l72 145q13 0 34 -11t21 -22q0 -6 -23 -40.5t-47 -65.5l-23 -31q-9 0 -21.5 8.5t-12.5 16.5z" />
    <glyph glyph-name="uni021A" unicode="&#x21a;" horiz-adv-x="637" 
d="M28 635v65h581v-65h-250v-635h-80v635h-251zM255 -192l71 145q13 0 34 -11t21 -22q0 -6 -23 -40.5t-46 -65.5l-23 -31q-9 0 -21.5 8.5t-12.5 16.5z" />
    <glyph glyph-name="uni021B" unicode="&#x21b;" horiz-adv-x="384" 
d="M21 416q0 8 11.5 19.5t19.5 11.5h60v136l52 29h22v-165h148v-63h-148v-266q0 -58 56 -58q45 0 73 29q9 0 24.5 -16t15.5 -25q-55 -55 -129 -55q-56 0 -87 28.5t-31 84.5v278h-56q-8 0 -19.5 12t-11.5 20zM151 -192l72 145q13 0 34 -11t21 -22q0 -6 -23 -40.5t-47 -65.5
l-23 -31q-8 0 -21 8.5t-13 16.5z" />
    <glyph glyph-name="dotlessj" unicode="&#x237;" horiz-adv-x="285" 
d="M126 25v359h-76q-8 0 -20 12t-12 20q0 7 12 19t20 12h122q8 0 19.5 -11.5t11.5 -19.5v-391q0 -45 -13.5 -88t-33 -72t-40.5 -52t-36 -34t-19 -11q-9 0 -26 14.5t-17 23.5q108 108 108 219z" />
    <glyph glyph-name="circumflex" unicode="&#x2c6;" horiz-adv-x="341" 
d="M175 677l122 -124q0 -8 -12 -20t-20 -12l-95 86l-95 -86q-8 0 -19.5 12t-11.5 20l122 124h9z" />
    <glyph glyph-name="caron" unicode="&#x2c7;" horiz-adv-x="341" 
d="M165 515l-122 125q0 8 12 20t20 12l95 -86l95 86q8 0 20 -12t12 -20l-123 -125h-9z" />
    <glyph glyph-name="breve" unicode="&#x2d8;" horiz-adv-x="341" 
d="M310 622q-1 -4 -4.5 -10.5t-15 -24t-26 -30.5t-40 -23.5t-54.5 -10.5t-54.5 10t-40.5 24.5t-26 29.5t-15 25l-5 10q0 7 15.5 18t24.5 11q1 -3 3.5 -7.5t11 -17t19 -22t29 -17t38.5 -7.5q33 0 58 18t34 36l8 17q9 0 24.5 -11t15.5 -18z" />
    <glyph glyph-name="dotaccent" unicode="&#x2d9;" horiz-adv-x="264" 
d="M76 606q0 14 21 35t35 21t35 -21t21 -35t-21 -35t-35 -21t-35 21t-21 35z" />
    <glyph glyph-name="ring" unicode="&#x2da;" horiz-adv-x="306" 
d="M60 600q0 40 26 65.5t67 25.5q40 0 66 -25.5t26 -65.5t-26 -65.5t-66 -25.5q-41 0 -67 25.5t-26 65.5zM103 600q0 -22 14 -36t36 -14t35.5 14t13.5 36t-13.5 35.5t-35.5 13.5t-36 -13.5t-14 -35.5z" />
    <glyph glyph-name="ogonek" unicode="&#x2db;" horiz-adv-x="292" 
d="M56 0h53q-14 -23 -14 -46q0 -29 18 -47.5t49 -18.5q34 0 50 16q7 0 20 -15t13 -23q-33 -31 -84 -31q-54 0 -87.5 31.5t-33.5 79.5q0 28 16 54z" />
    <glyph glyph-name="tilde" unicode="&#x2dc;" horiz-adv-x="367" 
d="M40 564q4 7 11.5 17.5t32 28.5t48.5 18q22 0 52 -17.5t45 -17.5q10 0 19.5 4t16 9.5t11.5 11t8 9.5l3 4q7 0 20 -11t13 -18q-4 -7 -12 -18t-32 -29t-49 -18q-21 0 -51 17.5t-46 17.5q-10 0 -19.5 -4t-16.5 -9.5t-12 -11t-8 -9.5l-3 -4q-6 0 -18.5 11.5t-12.5 18.5z" />
    <glyph glyph-name="hungarumlaut" unicode="&#x2dd;" horiz-adv-x="427" 
d="M46 550l120 134q11 0 28.5 -17.5t17.5 -28.5l-134 -120q-8 0 -20 12t-12 20zM215 550l120 134q11 0 28.5 -17.5t17.5 -28.5l-134 -120q-8 0 -20 12t-12 20z" />
    <glyph glyph-name="uni0400" unicode="&#x400;" horiz-adv-x="633" 
d="M22 668q0 8 12 20t20 12h519v-65h-377v-246h337v-66h-337v-258h382v-65h-462v637h-62q-8 0 -20 11.5t-12 19.5zM280 937l119 -135q0 -8 -11.5 -19.5t-19.5 -11.5l-134 120q0 11 17.5 28.5t28.5 17.5z" />
    <glyph glyph-name="afii10023" unicode="&#x401;" horiz-adv-x="633" 
d="M22 668q0 8 12 20t20 12h519v-65h-377v-246h337v-66h-337v-258h382v-65h-462v637h-62q-8 0 -20 11.5t-12 19.5zM185 835q0 11 17.5 29t29.5 18q11 0 29 -18t18 -29t-18 -29t-29 -18q-12 0 -29.5 18t-17.5 29zM384 835q0 11 18 29t29 18t29 -18t18 -29t-18 -29t-29 -18
t-29 18t-18 29z" />
    <glyph glyph-name="afii10051" unicode="&#x402;" horiz-adv-x="840" 
d="M666 159v101q0 109 -125 109q-105 0 -182 -57v-312h-80v635h-251v65h581v-65h-250v-264q84 66 197 66q94 0 142 -45.5t48 -131.5v-101q0 -73 -44.5 -119.5t-117.5 -46.5q-74 0 -119 47q0 8 19 28.5t25 20.5q28 -26 68 -26t64.5 26.5t24.5 69.5z" />
    <glyph glyph-name="afii10052" unicode="&#x403;" horiz-adv-x="566" 
d="M22 668q0 8 12 20t20 12h484v-65h-342v-635h-80v637h-62q-8 0 -20 11.5t-12 19.5zM250 802l120 135q11 0 28.5 -17.5t17.5 -28.5l-134 -120q-8 0 -20 11.5t-12 19.5z" />
    <glyph glyph-name="afii10053" unicode="&#x404;" horiz-adv-x="731" 
d="M598 488v87q-71 62 -181 62q-113 0 -185.5 -68t-83.5 -180h378v-66h-379q8 -118 81.5 -189t189.5 -71q131 0 208 80q10 0 28.5 -19t18.5 -28q-98 -103 -257 -103q-155 0 -255 101t-100 256t99.5 256t252.5 101q152 0 250 -98v-121q0 -8 -12.5 -20.5t-20.5 -12.5t-20 12.5
t-12 20.5z" />
    <glyph glyph-name="afii10054" unicode="&#x405;" horiz-adv-x="586" 
d="M126 185v-73q61 -51 160 -51q74 0 119 31.5t45 87.5q0 41 -31.5 64.5t-128.5 66.5q-13 6 -20 9q-111 49 -156 90.5t-45 112.5q0 84 59 134t166 50q125 0 205 -75v-118q0 -8 -12 -20.5t-20 -12.5t-20.5 12.5t-12.5 20.5v76q-60 48 -142 48q-68 0 -107 -31t-39 -79
q0 -42 36 -69.5t136 -73.5q125 -59 167 -96.5t42 -103.5q0 -92 -64 -142t-178 -50q-134 0 -224 75v117q0 8 11.5 20.5t19.5 12.5t21 -12.5t13 -20.5z" />
    <glyph glyph-name="afii10055" unicode="&#x406;" horiz-adv-x="412" 
d="M379 32q0 -8 -12 -20t-20 -12h-282q-8 0 -20 12t-12 20t12 19.5t20 11.5h101v574h-101q-8 0 -20 11.5t-12 19.5t12 20t20 12h282q8 0 20 -12t12 -20q0 -7 -12 -19t-20 -12h-101v-574h101q8 0 20 -12t12 -19z" />
    <glyph glyph-name="afii10056" unicode="&#x407;" horiz-adv-x="412" 
d="M59 835q0 11 18 29t29 18t29 -18t18 -29t-18 -29t-29 -18t-29 18t-18 29zM258 835q0 11 18 29t29 18q12 0 29.5 -18t17.5 -29t-17.5 -29t-29.5 -18q-11 0 -29 18t-18 29zM379 32q0 -8 -12 -20t-20 -12h-282q-8 0 -20 12t-12 20t12 19.5t20 11.5h101v574h-101
q-8 0 -20 11.5t-12 19.5t12 20t20 12h282q8 0 20 -12t12 -20q0 -7 -12 -19t-20 -12h-101v-574h101q8 0 20 -12t12 -19z" />
    <glyph glyph-name="afii10057" unicode="&#x408;" horiz-adv-x="488" 
d="M314 204v433h-101q-8 0 -20 12t-12 19q0 8 12 20t20 12h181v-496q0 -92 -59.5 -151.5t-151.5 -59.5q-94 0 -152 60q0 10 19 29.5t28 19.5q37 -39 102 -39q61 0 97.5 39t36.5 102z" />
    <glyph glyph-name="afii10058" unicode="&#x409;" horiz-adv-x="1088" 
d="M86 668q0 8 11.5 20t19.5 12h502v-301h189q102 0 163.5 -55.5t61.5 -144.5q0 -88 -61.5 -143.5t-163.5 -55.5h-269v635h-284v-212q0 -81 -18 -155t-43.5 -122t-53 -84.5t-46.5 -52.5t-24 -16q-9 0 -27 15.5t-18 24.5q6 5 16.5 15.5t37.5 48t47 80t37 112t17 144.5v204
h-63q-7 0 -19 11.5t-12 19.5zM805 334h-186v-269h186q67 0 106.5 37t39.5 98q0 60 -39.5 97t-106.5 37z" />
    <glyph glyph-name="afii10059" unicode="&#x40a;" horiz-adv-x="1125" 
d="M577 0v330h-381v-330h-80v637h-62q-8 0 -20 11.5t-12 19.5t12 20t20 12h142v-305h381v305h80v-305h189q102 0 163.5 -55.5t61.5 -142.5q0 -86 -62 -141.5t-163 -55.5h-269zM842 330h-185v-265h185q68 0 107.5 37t39.5 96q0 58 -39.5 95t-107.5 37z" />
    <glyph glyph-name="afii10060" unicode="&#x40b;" horiz-adv-x="840" 
d="M746 0h-80v260q0 109 -125 109q-105 0 -182 -57v-312h-80v635h-251v65h581v-65h-250v-264q84 66 197 66q94 0 142 -45.5t48 -131.5v-260z" />
    <glyph glyph-name="afii10061" unicode="&#x40c;" horiz-adv-x="643" 
d="M22 668q0 8 12 20t20 12h142v-312l90 8l254 311q10 0 34 -21.5t24 -31.5l-242 -294l257 -314q0 -9 -24 -31t-33 -22l-274 334l-86 -8v-319h-80v637h-62q-8 0 -20 11.5t-12 19.5zM258 802l120 135q11 0 28.5 -17.5t17.5 -28.5l-134 -120q-8 0 -20 11.5t-12 19.5z" />
    <glyph glyph-name="uni040D" unicode="&#x40d;" horiz-adv-x="781" 
d="M179 0h-63v637h-62q-8 0 -20 11.5t-12 19.5t12 20t20 12h142v-566l428 566h63v-700h-80v566zM343 937l120 -135q0 -8 -12 -19.5t-20 -11.5l-134 120q0 11 17.5 28.5t28.5 17.5z" />
    <glyph glyph-name="afii10062" unicode="&#x40e;" horiz-adv-x="687" 
d="M490 874q-2 -4 -5 -10.5t-15 -24t-26.5 -30.5t-39.5 -23.5t-54 -10.5t-54.5 10t-40.5 24.5t-26 29.5t-15 25l-5 10q0 8 15.5 19t24.5 11q1 -3 3.5 -7.5t11 -17t19 -22t29 -17t38.5 -7.5q21 0 39 7.5t28.5 17.5t18.5 20.5t11 17.5l3 8q9 0 24.5 -11t15.5 -19zM267 104
l40 75l-267 494q0 5 29.5 19.5t38.5 14.5l242 -451l220 451q9 0 39 -15t30 -19l-300 -599q-41 -81 -127 -81q-63 0 -101 38q0 9 15.5 28.5t22.5 19.5q18 -17 52 -17q43 0 66 42z" />
    <glyph glyph-name="afii10145" unicode="&#x40f;" horiz-adv-x="771" 
d="M360 0h-244v637h-62q-8 0 -20 11.5t-12 19.5t12 20t20 12h142v-635h401v635h80v-700h-239l-9 -175h-61z" />
    <glyph glyph-name="afii10017" unicode="&#x410;" horiz-adv-x="744" 
d="M408 700l302 -673q0 -5 -30 -19.5t-40 -14.5l-90 204h-357l-90 -204q-9 0 -39.5 15t-30.5 19l276 610h-53q-8 0 -20 12t-12 19q0 8 12 20t20 12h152zM371 602l-150 -340h302z" />
    <glyph glyph-name="afii10018" unicode="&#x411;" horiz-adv-x="667" 
d="M22 668q0 8 12 20t20 12h499v-65h-357v-236h189q102 0 163.5 -55.5t61.5 -144.5q0 -87 -61.5 -143t-163.5 -56h-269v637h-62q-8 0 -20 11.5t-12 19.5zM381 334h-185v-269h185q68 0 107.5 37t39.5 98q0 60 -39.5 97t-107.5 37z" />
    <glyph glyph-name="afii10019" unicode="&#x412;" horiz-adv-x="669" 
d="M22 668q0 8 12 20t20 12h306q97 0 156 -50.5t59 -130.5q0 -51 -26 -91t-72 -63q63 -20 99 -67t36 -110q0 -83 -61.5 -135.5t-163.5 -52.5h-271v637h-62q-8 0 -20 11.5t-12 19.5zM384 326h-188v-261h188q67 0 106.5 36t39.5 95q0 58 -39.5 94t-106.5 36zM356 635h-160
v-244h160q64 0 101.5 34t37.5 88t-37.5 88t-101.5 34z" />
    <glyph glyph-name="afii10020" unicode="&#x413;" horiz-adv-x="566" 
d="M22 668q0 8 12 20t20 12h484v-65h-342v-635h-80v637h-62q-8 0 -20 11.5t-12 19.5z" />
    <glyph glyph-name="afii10021" unicode="&#x414;" horiz-adv-x="789" 
d="M120 668q0 8 11.5 20t19.5 12h507v-635h95l-8 -240h-61l-9 175h-565l-8 -175h-61l-8 240h79q20 30 39.5 70.5t40.5 128t21 184.5v189h-62q-7 0 -19 11.5t-12 19.5zM289 438q0 -214 -98 -373h387v570h-289v-197z" />
    <glyph glyph-name="afii10022" unicode="&#x415;" horiz-adv-x="633" 
d="M22 668q0 8 12 20t20 12h519v-65h-377v-246h337v-66h-337v-258h382v-65h-462v637h-62q-8 0 -20 11.5t-12 19.5z" />
    <glyph glyph-name="afii10024" unicode="&#x416;" horiz-adv-x="927" 
d="M105 707l240 -312l78 -8v313h80v-313l79 8l239 312q10 0 35 -21t25 -31l-232 -295l247 -314q0 -10 -24.5 -31.5t-34.5 -21.5l-258 333l-76 -8v-318h-80v318l-75 8l-258 -333q-10 0 -34.5 21.5t-24.5 31.5l247 314l-233 295q0 9 25.5 30.5t34.5 21.5z" />
    <glyph glyph-name="afii10025" unicode="&#x417;" horiz-adv-x="593" 
d="M277 707q103 0 164 -51t61 -135q0 -113 -104 -158q64 -16 100 -62.5t36 -111.5q0 -88 -67 -142t-181 -54q-151 0 -243 94q0 10 18.5 28t27.5 18q72 -71 192 -71q79 0 124.5 36.5t45.5 98.5q0 57 -37.5 92.5t-104.5 35.5h-121v66h94q63 0 101 34t38 88q0 55 -40 90
t-109 35q-104 0 -170 -66q-9 0 -27.5 18t-18.5 28q89 89 221 89z" />
    <glyph glyph-name="afii10026" unicode="&#x418;" horiz-adv-x="781" 
d="M179 0h-63v637h-62q-8 0 -20 11.5t-12 19.5t12 20t20 12h142v-566l428 566h63v-700h-80v566z" />
    <glyph glyph-name="afii10027" unicode="&#x419;" horiz-adv-x="781" 
d="M179 0h-63v637h-62q-8 0 -20 11.5t-12 19.5t12 20t20 12h142v-566l428 566h63v-700h-80v566zM543 874q-2 -4 -5 -10.5t-15 -24t-26.5 -30.5t-39.5 -23.5t-54 -10.5t-54.5 10t-40.5 24.5t-26 29.5t-16 25l-4 10q0 8 15.5 19t24.5 11q1 -3 3.5 -7.5t11 -17t19 -22t29 -17
t38.5 -7.5q21 0 39 7.5t28.5 17.5t18.5 20.5t11 17.5l3 8q9 0 24.5 -11t15.5 -19z" />
    <glyph glyph-name="afii10028" unicode="&#x41a;" horiz-adv-x="643" 
d="M22 668q0 8 12 20t20 12h142v-312l90 8l254 311q10 0 34 -21.5t24 -31.5l-242 -294l257 -314q0 -9 -24 -31t-33 -22l-274 334l-86 -8v-319h-80v637h-62q-8 0 -20 11.5t-12 19.5z" />
    <glyph glyph-name="afii10029" unicode="&#x41b;" horiz-adv-x="713" 
d="M86 668q0 8 11.5 20t19.5 12h502v-700h-80v635h-284v-212q0 -81 -18 -155t-43.5 -122t-53 -84.5t-46.5 -52.5t-24 -16q-9 0 -27 15.5t-18 24.5q6 5 16.5 15.5t37.5 48t47 80t37 112t17 144.5v204h-63q-7 0 -19 11.5t-12 19.5z" />
    <glyph glyph-name="afii10030" unicode="&#x41c;" horiz-adv-x="945" 
d="M54 668q0 8 12 20t20 12h154l239 -565l237 565h88l81 -691q0 -4 -31 -9t-44 -5l-64 577l-235 -552h-65l-235 552l-64 -577q-12 0 -43.5 5t-31.5 9l72 628h-58q-8 0 -20 12t-12 19z" />
    <glyph glyph-name="afii10031" unicode="&#x41d;" horiz-adv-x="786" 
d="M612 0v323h-416v-323h-80v637h-62q-8 0 -20 11.5t-12 19.5t12 20t20 12h142v-311h416v311h80v-700h-80z" />
    <glyph glyph-name="afii10032" unicode="&#x41e;" horiz-adv-x="824" 
d="M61 350q0 154 99.5 255.5t251.5 101.5t252 -101.5t100 -255.5t-100 -255.5t-252 -101.5t-251.5 101.5t-99.5 255.5zM146 350q0 -128 74 -207.5t192 -79.5q119 0 193 79.5t74 207.5t-74 207.5t-193 79.5t-192.5 -79.5t-73.5 -207.5z" />
    <glyph glyph-name="afii10033" unicode="&#x41f;" horiz-adv-x="771" 
d="M597 0v635h-401v-635h-80v637h-62q-8 0 -20 11.5t-12 19.5t12 20t20 12h623v-700h-80z" />
    <glyph glyph-name="afii10034" unicode="&#x420;" horiz-adv-x="636" 
d="M22 668q0 8 12 20t20 12h306q98 0 160 -59t62 -151q0 -91 -62 -150t-160 -59h-164v-281h-80v637h-62q-8 0 -20 11.5t-12 19.5zM356 635h-160v-289h160q65 0 104.5 40t39.5 104t-39.5 104.5t-104.5 40.5z" />
    <glyph glyph-name="afii10035" unicode="&#x421;" horiz-adv-x="731" 
d="M598 488v87q-71 62 -181 62q-124 0 -197.5 -79t-73.5 -208t74.5 -208t197.5 -79q131 0 208 80q10 0 28.5 -19t18.5 -28q-98 -103 -257 -103q-155 0 -255 101t-100 256t99.5 256t252.5 101q152 0 250 -98v-121q0 -8 -12.5 -20.5t-20.5 -12.5t-20 12.5t-12 20.5z" />
    <glyph glyph-name="afii10036" unicode="&#x422;" horiz-adv-x="637" 
d="M28 635v65h581v-65h-250v-635h-80v635h-251z" />
    <glyph glyph-name="afii10037" unicode="&#x423;" horiz-adv-x="669" 
d="M267 104l40 75l-267 494q0 5 29.5 19.5t38.5 14.5l242 -451l220 451q9 0 39 -15t30 -19l-300 -599q-41 -81 -127 -81q-63 0 -101 38q0 9 15.5 28.5t22.5 19.5q18 -17 52 -17q43 0 66 42z" />
    <glyph glyph-name="afii10038" unicode="&#x424;" horiz-adv-x="835" 
d="M457 -7h-80v80q-141 0 -232.5 78.5t-91.5 198.5t91.5 198.5t232.5 78.5v80h80v-80q142 0 233.5 -78.5t91.5 -198.5t-91.5 -198.5t-233.5 -78.5v-80zM457 560v-420q108 0 174 58.5t66 151.5t-66 151.5t-174 58.5zM377 140v420q-107 0 -173 -58.5t-66 -151.5t66 -151.5
t173 -58.5z" />
    <glyph glyph-name="afii10039" unicode="&#x425;" horiz-adv-x="686" 
d="M102 707l241 -293l242 293q9 0 32.5 -21.5t23.5 -30.5l-245 -297l260 -311q0 -10 -23.5 -32t-33.5 -22l-256 309l-256 -309q-9 0 -32.5 22t-23.5 32l259 311l-245 297q0 10 23.5 31t33.5 21z" />
    <glyph glyph-name="afii10040" unicode="&#x426;" horiz-adv-x="808" 
d="M116 0v637h-62q-8 0 -20 11.5t-12 19.5t12 20t20 12h142v-635h401v635h80v-635h95l-8 -240h-61l-8 175h-579z" />
    <glyph glyph-name="afii10041" unicode="&#x427;" horiz-adv-x="713" 
d="M540 0v319q-87 -63 -207 -63q-217 0 -217 226v155h-62q-8 0 -20 11.5t-12 19.5t12 20t20 12h142v-216q0 -82 37 -120t115 -38q109 0 192 61v313h80v-700h-80z" />
    <glyph glyph-name="afii10042" unicode="&#x428;" horiz-adv-x="1126" 
d="M614 700v-635h339v635h80v-700h-917v637h-62q-8 0 -20 11.5t-12 19.5t12 20t20 12h142v-635h338v635h80z" />
    <glyph glyph-name="afii10043" unicode="&#x429;" horiz-adv-x="1163" 
d="M116 0v637h-62q-8 0 -20 11.5t-12 19.5t12 20t20 12h142v-635h338v635h80v-635h339v635h80v-635h95l-9 -240h-61l-8 175h-934z" />
    <glyph glyph-name="afii10044" unicode="&#x42a;" horiz-adv-x="778" 
d="M22 668q0 8 12 20t20 12h255v-298h189q102 0 163.5 -56.5t61.5 -144.5t-61.5 -144.5t-163.5 -56.5h-269v637h-175q-8 0 -20 11.5t-12 19.5zM495 336h-186v-271h186q67 0 106.5 38t39.5 98t-39.5 97.5t-106.5 37.5z" />
    <glyph glyph-name="afii10045" unicode="&#x42b;" horiz-adv-x="891" 
d="M94 0v700h80v-298h189q101 0 163 -56.5t62 -144.5t-62 -144.5t-163 -56.5h-269zM360 336h-186v-271h186q67 0 106.5 38t39.5 98t-39.5 97.5t-106.5 37.5zM798 0h-80v700h80v-700z" />
    <glyph glyph-name="afii10046" unicode="&#x42c;" horiz-adv-x="642" 
d="M94 0v700h80v-298h189q101 0 163 -56.5t62 -144.5t-62 -144.5t-163 -56.5h-269zM359 336h-185v-271h185q68 0 107 38t39 98t-39 97.5t-107 37.5z" />
    <glyph glyph-name="afii10047" unicode="&#x42d;" horiz-adv-x="726" 
d="M665 350q0 -155 -100 -256t-255 -101q-158 0 -258 103q0 9 19 28t28 19q77 -80 208 -80q117 0 190.5 71t81.5 189h-379v66h378q-11 113 -84 180.5t-187 67.5q-131 0 -208 -80q-9 0 -28 19t-19 28q100 103 258 103q155 0 255 -101t100 -256z" />
    <glyph glyph-name="afii10048" unicode="&#x42e;" horiz-adv-x="1049" 
d="M22 668q0 8 12 20t20 12h142v-311h168q12 140 99.5 229t214.5 89q136 0 225.5 -101.5t89.5 -255.5t-89.5 -255.5t-225.5 -101.5q-130 0 -218 93t-96 237h-168v-323h-80v637h-62q-8 0 -20 11.5t-12 19.5zM447 350q0 -128 64 -207.5t167 -79.5q102 0 166.5 80t64.5 207
q0 128 -64.5 207.5t-166.5 79.5q-103 0 -167 -79.5t-64 -207.5z" />
    <glyph glyph-name="afii10049" unicode="&#x42f;" horiz-adv-x="624" 
d="M451 0v285h-150q-76 -156 -212 -292q-10 0 -31.5 20t-21.5 30q107 108 190 248q-76 16 -122 70.5t-46 130.5q0 91 63.5 149.5t163.5 58.5h246v-700h-80zM451 350v285h-163q-66 0 -106.5 -40t-40.5 -103t40.5 -102.5t106.5 -39.5h163z" />
    <glyph glyph-name="afii10065" unicode="&#x430;" horiz-adv-x="479" 
d="M231 455q82 0 126 -38t44 -112v-219q0 -26 2 -45.5t4 -25.5l2 -6v-9h-47q-8 0 -23 15t-16 23q-53 -45 -127 -45q-65 0 -105.5 33t-40.5 95q0 67 50.5 103.5t145.5 36.5q39 0 77 -6v48q0 43 -26 64.5t-72 21.5q-71 0 -115 -44q-10 0 -28 18t-18 28q66 64 167 64zM128 127
q0 -35 23 -53t63 -18q64 0 109 45v97q-40 6 -76 6q-119 0 -119 -77z" />
    <glyph glyph-name="afii10066" unicode="&#x431;" horiz-adv-x="566" 
d="M278 690l172 47q17 -21 17 -66l-176 -51q-69 -20 -105.5 -54.5t-49.5 -81t-17 -129.5h5q55 100 173 100q94 0 157 -65.5t63 -170.5q0 -102 -62.5 -164t-173.5 -62q-124 0 -177.5 83t-53.5 251q0 166 52.5 248t175.5 115zM139 223q0 -73 37 -117.5t105 -44.5
q69 0 111.5 45t42.5 118q0 72 -42 117t-110 45t-106 -44t-38 -119z" />
    <glyph glyph-name="afii10067" unicode="&#x432;" horiz-adv-x="488" 
d="M78 0v447h190q74 0 110 -32t36 -82q0 -72 -64 -100q92 -23 92 -113q0 -54 -38.5 -87t-117.5 -33h-208zM281 201h-125v-138h125q83 0 83 69q0 32 -20.5 50.5t-62.5 18.5zM263 384h-107v-125h107q37 0 55.5 17.5t18.5 44.5q0 28 -18.5 45.5t-55.5 17.5z" />
    <glyph glyph-name="afii10068" unicode="&#x433;" horiz-adv-x="411" 
d="M78 0v447h299v-63h-221v-384h-78z" />
    <glyph glyph-name="afii10069" unicode="&#x434;" horiz-adv-x="580" 
d="M469 0h-361l-9 -140h-59l-7 203h59q57 75 57 187v197h322v-384h73l-7 -203h-58zM222 250q0 -103 -53 -187h225v321h-172v-134z" />
    <glyph glyph-name="afii10070" unicode="&#x435;" horiz-adv-x="522" 
d="M440 199h-311q5 -64 47.5 -101t113.5 -37q81 0 126 38q9 0 25.5 -16.5t16.5 -26.5q-62 -63 -170 -63q-106 0 -173 65t-67 168q0 100 63 164.5t163 64.5q94 0 147 -60t53 -161q0 -8 -13 -21.5t-21 -13.5zM271 387q-59 0 -98.5 -35t-43.5 -94h268q0 58 -33 93.5t-93 35.5z
" />
    <glyph glyph-name="afii10072" unicode="&#x436;" horiz-adv-x="667" 
d="M101 455l145 -189l48 -6v187h78v-187l49 6l145 189q10 0 32.5 -19t22.5 -28l-140 -176l150 -191q0 -9 -23 -28.5t-32 -19.5l-158 205l-46 -6v-192h-78v192l-45 6l-158 -205q-10 0 -32.5 19.5t-22.5 28.5l149 191l-139 176q0 9 22.5 28t32.5 19z" />
    <glyph glyph-name="afii10073" unicode="&#x437;" horiz-adv-x="444" 
d="M138 201v58h82q35 0 55.5 19.5t20.5 44.5q0 28 -25 47t-69 19q-63 0 -112 -39q-10 0 -25 15.5t-15 25.5q67 64 162 64q77 0 119.5 -34.5t42.5 -87.5q0 -29 -17 -56.5t-51 -43.5q45 -11 69 -41.5t24 -70.5q0 -57 -48.5 -92.5t-132.5 -35.5q-111 0 -177 63q0 10 15.5 25.5
t25.5 15.5q39 -38 126 -38q53 0 83 20.5t30 54.5q0 28 -21.5 47.5t-62.5 19.5h-99z" />
    <glyph glyph-name="afii10074" unicode="&#x438;" horiz-adv-x="553" 
d="M134 0h-56v447h78v-322l263 322h55v-447h-77v322z" />
    <glyph glyph-name="afii10075" unicode="&#x439;" horiz-adv-x="553" 
d="M417 622q-2 -4 -5 -10.5t-15 -24t-26.5 -30.5t-39.5 -23.5t-54 -10.5t-54.5 10t-40.5 24.5t-26 29.5t-16 25l-4 10q0 7 15.5 18t24.5 11q1 -3 3.5 -7.5t11 -17t19 -22t29 -17t38.5 -7.5q33 0 58 18t33 36l9 17q9 0 24.5 -11t15.5 -18zM134 0h-56v447h78v-322l263 322h55
v-447h-77v322z" />
    <glyph glyph-name="afii10076" unicode="&#x43a;" horiz-adv-x="475" 
d="M78 0v447h78v-188l53 7l168 189q9 0 30.5 -19t21.5 -28l-158 -177l168 -190q0 -9 -21.5 -28.5t-30.5 -19.5l-182 204l-49 -6v-191h-78z" />
    <glyph glyph-name="afii10077" unicode="&#x43b;" horiz-adv-x="525" 
d="M128 252v195h319v-447h-78v384h-168v-132q0 -46 -12 -89t-29.5 -73t-36.5 -52.5t-32 -33.5t-17 -11q-9 0 -26 14.5t-17 23.5q97 95 97 221z" />
    <glyph glyph-name="afii10078" unicode="&#x43c;" horiz-adv-x="675" 
d="M56 10l59 437h85l138 -322l137 322h85l60 -437q0 -5 -29.5 -9.5t-42.5 -4.5l-43 353l-139 -329h-56l-139 329l-43 -353q-14 0 -43 4.5t-29 9.5z" />
    <glyph glyph-name="afii10079" unicode="&#x43d;" horiz-adv-x="553" 
d="M397 0v198h-241v-198h-78v447h78v-186h241v186h77v-447h-77z" />
    <glyph glyph-name="afii10080" unicode="&#x43e;" horiz-adv-x="564" 
d="M48 223q0 100 66.5 166t167.5 66t167.5 -66t66.5 -166q0 -99 -66.5 -164.5t-167.5 -65.5t-167.5 65.5t-66.5 164.5zM131 223q0 -72 42 -117t109 -45t109 45t42 117q0 73 -42 118t-109 45t-109 -45t-42 -118z" />
    <glyph glyph-name="afii10081" unicode="&#x43f;" horiz-adv-x="548" 
d="M392 0v384h-236v-384h-78v447h391v-447h-77z" />
    <glyph glyph-name="afii10082" unicode="&#x440;" horiz-adv-x="545" 
d="M258 -7q-56 0 -102 20v-238h-78v586q0 26 -2 45.5t-4 25.5l-2 6v9h47q7 0 22 -14t17 -23q52 45 123 45q94 0 155.5 -65.5t61.5 -164.5q0 -102 -67 -167t-171 -65zM414 224q0 72 -42 117t-111 45q-63 0 -105 -37v-263q44 -26 99 -26q73 0 116 45.5t43 118.5z" />
    <glyph glyph-name="afii10083" unicode="&#x441;" horiz-adv-x="502" 
d="M443 388v-88q0 -8 -12 -20t-19 -12q-8 0 -20 12t-12 20v58q-31 29 -93 29q-72 0 -115 -45.5t-43 -118.5q0 -71 43 -116t117 -45q76 0 120 38q10 0 27.5 -17.5t17.5 -27.5q-65 -62 -168 -62q-105 0 -171.5 65t-66.5 166q0 100 67 165.5t171 65.5q44 0 82 -12.5t56.5 -28
t18.5 -26.5z" />
    <glyph glyph-name="afii10084" unicode="&#x442;" horiz-adv-x="489" 
d="M30 384v63h425v-63h-174v-384h-77v384h-174z" />
    <glyph glyph-name="afii10085" unicode="&#x443;" horiz-adv-x="501" 
d="M475 420l-292 -646q-10 0 -41 14.5t-31 19.5l100 192l-185 420q0 5 29.5 18.5t39.5 13.5l154 -359l157 359q10 0 39.5 -13.5t29.5 -18.5z" />
    <glyph glyph-name="afii10086" unicode="&#x444;" horiz-adv-x="744" 
d="M411 698v-275q40 32 93 32q83 0 137.5 -65.5t54.5 -164.5q0 -102 -59 -167t-150 -65q-42 0 -76 14v-232h-78v249q-41 -31 -93 -31q-83 0 -137.5 65.5t-54.5 163.5q0 102 59 167.5t150 65.5q38 0 76 -15v227h-43q-8 0 -20 12t-12 19q0 8 12 20t20 12h89q8 0 20 -12t12 -20
zM613 224q0 72 -35 117t-92 45q-44 0 -75 -26v-281q32 -19 70 -19q61 0 96.5 45t35.5 119zM131 223q0 -72 35 -117t92 -45q42 0 75 25v282q-32 19 -70 19q-61 0 -96.5 -45t-35.5 -119z" />
    <glyph glyph-name="afii10087" unicode="&#x445;" horiz-adv-x="482" 
d="M98 455l145 -172l143 172q10 0 32.5 -21.5t22.5 -30.5l-147 -175l155 -181q0 -10 -23 -32t-32 -22l-151 181l-152 -181q-10 0 -32.5 22t-22.5 32l155 181l-148 175q0 9 23 30.5t32 21.5z" />
    <glyph glyph-name="afii10088" unicode="&#x446;" horiz-adv-x="580" 
d="M392 63v384h77v-384h76l-11 -203h-59l-5 140h-392v447h78v-384h236z" />
    <glyph glyph-name="afii10089" unicode="&#x447;" horiz-adv-x="514" 
d="M358 0v204q-63 -47 -147 -47q-72 0 -108.5 38t-36.5 107v145h77v-145q0 -40 20.5 -58t64.5 -18q83 0 130 37v184h77v-447h-77z" />
    <glyph glyph-name="afii10090" unicode="&#x448;" horiz-adv-x="776" 
d="M620 63v384h77v-447h-619v447h78v-384h193v384h78v-384h193z" />
    <glyph glyph-name="afii10091" unicode="&#x449;" horiz-adv-x="808" 
d="M620 63v384h77v-384h76l-11 -203h-59l-6 140h-619v447h78v-384h193v384h78v-384h193z" />
    <glyph glyph-name="afii10092" unicode="&#x44a;" horiz-adv-x="555" 
d="M16 416q0 8 12 19.5t19 11.5h162q8 0 20 -12t12 -19v-142h112q79 0 117.5 -37.5t38.5 -99.5t-38.5 -99.5t-117.5 -37.5h-190v384h-116q-8 0 -19.5 12t-11.5 20zM348 211h-107v-148h107q42 0 63 20.5t21 53.5t-21 53.5t-63 20.5z" />
    <glyph glyph-name="afii10093" unicode="&#x44b;" horiz-adv-x="659" 
d="M78 0v447h78v-173h112q79 0 117.5 -37.5t38.5 -99.5t-38.5 -99.5t-117.5 -37.5h-190zM503 0v447h78v-447h-78zM263 211h-107v-148h107q42 0 63 20.5t21 53.5t-21 53.5t-63 20.5z" />
    <glyph glyph-name="afii10094" unicode="&#x44c;" horiz-adv-x="470" 
d="M78 0v447h78v-173h112q79 0 117.5 -37.5t38.5 -99.5t-38.5 -99.5t-117.5 -37.5h-190zM263 211h-107v-148h107q42 0 63 20.5t21 53.5t-21 53.5t-63 20.5z" />
    <glyph glyph-name="afii10095" unicode="&#x44d;" horiz-adv-x="502" 
d="M165 198v58h205q-9 59 -50.5 94.5t-106.5 35.5q-75 0 -120 -39q-10 0 -27.5 17.5t-17.5 27.5q66 63 168 63q105 0 171.5 -65t66.5 -166t-66.5 -166t-171.5 -65q-103 0 -168 62q0 10 17.5 27.5t27.5 17.5q44 -38 120 -38q67 0 108.5 37.5t49.5 98.5h-206z" />
    <glyph glyph-name="afii10096" unicode="&#x44e;" horiz-adv-x="740" 
d="M78 0v447h78v-186h114q12 86 70 140t141 54q92 0 152 -65.5t60 -166.5q0 -99 -60 -164.5t-152 -65.5q-86 0 -145 57.5t-67 147.5h-113v-198h-78zM351 223q0 -72 36 -117t94 -45t94 45t36 117q0 73 -36 118t-94 45t-94 -45t-36 -118z" />
    <glyph glyph-name="afii10097" unicode="&#x44f;" horiz-adv-x="473" 
d="M394 447v-447h-77v183h-83q-56 -108 -139 -190q-9 0 -30.5 18t-21.5 27q59 59 115 150q-105 22 -105 128q0 60 39 95.5t118 35.5h184zM214 242h103v142h-103q-83 0 -83 -71t83 -71z" />
    <glyph glyph-name="uni0450" unicode="&#x450;" horiz-adv-x="522" 
d="M217 684l120 -134q0 -8 -12 -20t-20 -12l-134 120q0 11 17.5 28.5t28.5 17.5zM440 199h-311q5 -64 47.5 -101t113.5 -37q81 0 126 38q9 0 25.5 -16.5t16.5 -26.5q-62 -63 -170 -63q-106 0 -173 65t-67 168q0 100 63 164.5t163 64.5q94 0 147 -60t53 -161q0 -8 -13 -21.5
t-21 -13.5zM271 387q-59 0 -98.5 -35t-43.5 -94h268q0 58 -33 93.5t-93 35.5z" />
    <glyph glyph-name="afii10071" unicode="&#x451;" horiz-adv-x="522" 
d="M440 199h-311q5 -64 47.5 -101t113.5 -37q81 0 126 38q9 0 25.5 -16.5t16.5 -26.5q-62 -63 -170 -63q-106 0 -173 65t-67 168q0 100 63 164.5t163 64.5q94 0 147 -60t53 -161q0 -8 -13 -21.5t-21 -13.5zM271 387q-59 0 -98.5 -35t-43.5 -94h268q0 58 -33 93.5t-93 35.5z
M121 562q0 11 18 29t29 18t29 -18t18 -29t-18 -29t-29 -18t-29 18t-18 29zM321 562q0 11 18 29t29 18t29 -18t18 -29t-18 -29t-29 -18t-29 18t-18 29z" />
    <glyph glyph-name="afii10099" unicode="&#x452;" horiz-adv-x="560" 
d="M404 25v270q0 91 -100 91q-83 0 -141 -49v-337h-77v556h-41q-7 0 -19 12t-12 20t12 19.5t19 11.5h41v111h77v-111h164v-63h-164v-159q68 58 160 58q77 0 117.5 -42.5t40.5 -117.5v-270q0 -45 -13.5 -88t-33 -72t-40.5 -52t-36 -34t-19 -11q-9 0 -26 14.5t-17 23.5
q108 108 108 219z" />
    <glyph glyph-name="afii10100" unicode="&#x453;" horiz-adv-x="411" 
d="M78 0v447h299v-63h-221v-384h-78zM168 550l120 134q11 0 28.5 -17.5t17.5 -28.5l-134 -120q-8 0 -20 12t-12 20z" />
    <glyph glyph-name="afii10101" unicode="&#x454;" horiz-adv-x="502" 
d="M362 199h-232q8 -62 49.5 -99.5t109.5 -37.5q76 0 120 38q10 0 27.5 -17.5t17.5 -27.5q-65 -62 -168 -62q-105 0 -171.5 65t-66.5 166t66.5 166t171.5 65q102 0 168 -63q0 -10 -17.5 -27.5t-27.5 -17.5q-45 39 -120 39q-65 0 -106.5 -35t-51.5 -93h231v-59z" />
    <glyph glyph-name="afii10102" unicode="&#x455;" horiz-adv-x="419" 
d="M203 57q40 0 65 16t25 45q0 18 -15 32t-31 21.5t-59 24.5q-73 30 -102.5 57t-29.5 76q0 59 40 93t113 34q85 0 142 -57q0 -9 -17.5 -26.5t-26.5 -17.5q-34 36 -97 36q-38 0 -59.5 -15.5t-21.5 -42.5q0 -23 19.5 -36.5t79.5 -38.5q76 -31 107.5 -59t31.5 -77
q0 -61 -43.5 -95t-119.5 -34q-96 0 -158 62q0 9 18 27t27 18q41 -43 112 -43z" />
    <glyph glyph-name="afii10103" unicode="&#x456;" horiz-adv-x="285" 
d="M18 416q0 7 12 19t20 12h122q8 0 19.5 -11.5t11.5 -19.5v-416h-77v384h-76q-8 0 -20 12t-12 20zM91 606q0 14 21.5 35t34.5 21t34.5 -21t21.5 -35t-21.5 -35t-34.5 -21t-34.5 21t-21.5 35z" />
    <glyph glyph-name="afii10104" unicode="&#x457;" horiz-adv-x="285" 
d="M18 416q0 7 12 19t20 12h122q8 0 19.5 -11.5t11.5 -19.5v-416h-77v384h-76q-8 0 -20 12t-12 20zM181 582q0 11 18 29t29 18q12 0 30 -18t18 -29t-18 -29t-30 -18q-11 0 -29 18t-18 29zM7 582q0 11 18 29t29 18t29 -18t18 -29t-18 -29t-29 -18t-29 18t-18 29z" />
    <glyph glyph-name="afii10105" unicode="&#x458;" horiz-adv-x="285" 
d="M126 25v359h-76q-8 0 -20 12t-12 20q0 7 12 19t20 12h122q8 0 19.5 -11.5t11.5 -19.5v-391q0 -45 -13.5 -88t-33 -72t-40.5 -52t-36 -34t-19 -11q-9 0 -26 14.5t-17 23.5q108 108 108 219zM91 606q0 14 21.5 35t34.5 21t34.5 -21t21.5 -35t-21.5 -35t-34.5 -21t-34.5 21
t-21.5 35z" />
    <glyph glyph-name="afii10106" unicode="&#x459;" horiz-adv-x="773" 
d="M142 250v197h318v-173h112q79 0 117.5 -37.5t38.5 -99.5t-38.5 -99.5t-117.5 -37.5h-190v384h-168v-134q0 -46 -12.5 -89t-30.5 -72.5t-37.5 -52t-33.5 -33t-18 -10.5q-9 0 -26 14.5t-17 23.5q103 100 103 219zM567 211h-107v-148h107q42 0 63 20.5t21 53.5t-21 53.5
t-63 20.5z" />
    <glyph glyph-name="afii10107" unicode="&#x45a;" horiz-adv-x="773" 
d="M78 0v447h78v-181h226v181h77v-181h112q79 0 118 -37t39 -97q0 -58 -39.5 -95t-117.5 -37h-189v203h-226v-203h-78zM566 203h-107v-140h107q42 0 63 19t21 50q0 32 -21 51.5t-63 19.5z" />
    <glyph glyph-name="afii10108" unicode="&#x45b;" horiz-adv-x="560" 
d="M14 588q0 8 12 19.5t19 11.5h41v111h77v-111h164v-63h-164v-159q68 58 160 58q77 0 117.5 -42.5t40.5 -117.5v-295h-77v295q0 91 -100 91q-83 0 -141 -49v-337h-77v556h-41q-7 0 -19 12t-12 20z" />
    <glyph glyph-name="afii10109" unicode="&#x45c;" horiz-adv-x="475" 
d="M78 0v447h78v-188l53 7l168 189q9 0 30.5 -19t21.5 -28l-158 -177l168 -190q0 -9 -21.5 -28.5t-30.5 -19.5l-182 204l-49 -6v-191h-78zM174 550l120 134q11 0 28.5 -17.5t17.5 -28.5l-135 -120q-8 0 -19.5 12t-11.5 20z" />
    <glyph glyph-name="uni045D" unicode="&#x45d;" horiz-adv-x="553" 
d="M219 684l120 -134q0 -8 -12 -20t-20 -12l-134 120q0 11 17.5 28.5t28.5 17.5zM134 0h-56v447h78v-322l263 322h55v-447h-77v322z" />
    <glyph glyph-name="afii10110" unicode="&#x45e;" horiz-adv-x="501" 
d="M390 622q-2 -4 -5 -10.5t-15 -24t-26.5 -30.5t-39.5 -23.5t-54 -10.5t-54.5 10t-40.5 24.5t-26 29.5t-15 25l-5 10q0 7 15.5 18t24.5 11q1 -3 3.5 -7.5t11 -17t19 -22t29 -17t38.5 -7.5q33 0 58 18t34 36l8 17q9 0 24.5 -11t15.5 -18zM475 420l-292 -646q-10 0 -41 14.5
t-31 19.5l100 192l-185 420q0 5 29.5 18.5t39.5 13.5l154 -359l157 359q10 0 39.5 -13.5t29.5 -18.5z" />
    <glyph glyph-name="afii10193" unicode="&#x45f;" horiz-adv-x="550" 
d="M394 63v384h78v-447h-155l-7 -140h-57l-8 140h-167v447h78v-384h238z" />
    <glyph glyph-name="afii10050" unicode="&#x490;" horiz-adv-x="546" 
d="M513 635h-317v-635h-80v637h-62q-8 0 -20 11.5t-12 19.5t12 20t20 12h381l17 175h61v-240z" />
    <glyph glyph-name="afii10098" unicode="&#x491;" horiz-adv-x="391" 
d="M78 0v447h214l14 140h51v-203h-201v-384h-78z" />
    <glyph glyph-name="uni04D8" unicode="&#x4d8;" horiz-adv-x="781" 
d="M115 379h524q-5 121 -82 189.5t-203 68.5q-141 0 -222 -74q-8 0 -24.5 17.5t-16.5 25.5q103 102 268 102q163 0 264.5 -101.5t101.5 -264.5q0 -153 -90 -251t-247 -98q-150 0 -236 92.5t-86 244.5q0 10 19.5 29.5t29.5 19.5zM393 63q109 0 173.5 66.5t73.5 184.5h-490
q0 -112 65 -181.5t178 -69.5z" />
    <glyph glyph-name="afii10846" unicode="&#x4d9;" horiz-adv-x="523" 
d="M84 248h310q-4 64 -47 101.5t-114 37.5q-79 0 -126 -39q-9 0 -25.5 16.5t-16.5 26.5q61 64 171 64q106 0 172.5 -65.5t66.5 -172.5q0 -98 -57.5 -161t-159.5 -63q-97 0 -153 60t-56 161q0 8 13.5 21t21.5 13zM260 60q60 0 95 34.5t40 94.5h-268q0 -57 36 -93t97 -36z" />
    <glyph glyph-name="Wgrave" unicode="&#x1e80;" horiz-adv-x="1082" 
d="M1051 680l-241 -680h-79l-190 566l-190 -566h-80l-240 680q0 4 32 15.5t42 11.5l206 -594l195 587h70l195 -587l206 594q10 0 42 -11.5t32 -15.5zM484 937l120 -135q0 -8 -12 -19.5t-20 -11.5l-134 120q0 11 17.5 28.5t28.5 17.5z" />
    <glyph glyph-name="wgrave" unicode="&#x1e81;" horiz-adv-x="742" 
d="M719 425l-163 -425h-69l-116 322l-116 -322h-69l-163 425q0 5 30 16t40 11l127 -351l123 346h56l123 -346l127 351q10 0 40 -11t30 -16zM314 684l120 -134q0 -8 -12 -20t-20 -12l-134 120q0 11 17.5 28.5t28.5 17.5z" />
    <glyph glyph-name="Wacute" unicode="&#x1e82;" horiz-adv-x="1082" 
d="M1051 680l-241 -680h-79l-190 566l-190 -566h-80l-240 680q0 4 32 15.5t42 11.5l206 -594l195 587h70l195 -587l206 594q10 0 42 -11.5t32 -15.5zM478 802l120 135q11 0 28.5 -17.5t17.5 -28.5l-134 -120q-8 0 -20 11.5t-12 19.5z" />
    <glyph glyph-name="wacute" unicode="&#x1e83;" horiz-adv-x="742" 
d="M719 425l-163 -425h-69l-116 322l-116 -322h-69l-163 425q0 5 30 16t40 11l127 -351l123 346h56l123 -346l127 351q10 0 40 -11t30 -16zM308 550l120 134q11 0 28.5 -17.5t17.5 -28.5l-134 -120q-8 0 -20 12t-12 20z" />
    <glyph glyph-name="Wdieresis" unicode="&#x1e84;" horiz-adv-x="1082" 
d="M1051 680l-241 -680h-79l-190 566l-190 -566h-80l-240 680q0 4 32 15.5t42 11.5l206 -594l195 587h70l195 -587l206 594q10 0 42 -11.5t32 -15.5zM394 835q0 11 18 29t29 18t29 -18t18 -29t-18 -29t-29 -18t-29 18t-18 29zM593 835q0 11 18 29t29 18q12 0 30 -18t18 -29
t-18 -29t-30 -18q-11 0 -29 18t-18 29z" />
    <glyph glyph-name="wdieresis" unicode="&#x1e85;" horiz-adv-x="742" 
d="M719 425l-163 -425h-69l-116 322l-116 -322h-69l-163 425q0 5 30 16t40 11l127 -351l123 346h56l123 -346l127 351q10 0 40 -11t30 -16zM224 582q0 11 18 29t29 18q12 0 29.5 -18t17.5 -29t-17.5 -29t-29.5 -18q-11 0 -29 18t-18 29zM424 582q0 11 18 29t29 18t29 -18
t18 -29t-18 -29t-29 -18t-29 18t-18 29z" />
    <glyph glyph-name="Ygrave" unicode="&#x1ef2;" horiz-adv-x="657" 
d="M288 0v301l-257 359q0 9 24.5 28t33.5 19l240 -337l239 337q10 0 34.5 -19t24.5 -28l-259 -359v-301h-80zM272 937l119 -135q0 -8 -11.5 -19.5t-19.5 -11.5l-135 120q0 11 18 28.5t29 17.5z" />
    <glyph glyph-name="ygrave" unicode="&#x1ef3;" horiz-adv-x="501" 
d="M475 420l-292 -646q-10 0 -41 14.5t-31 19.5l100 192l-185 420q0 5 29.5 18.5t39.5 13.5l154 -359l157 359q10 0 39.5 -13.5t29.5 -18.5zM193 684l120 -134q0 -8 -11.5 -20t-19.5 -12l-135 120q0 11 17.5 28.5t28.5 17.5z" />
    <glyph glyph-name="figuredash" unicode="&#x2012;" horiz-adv-x="600" 
d="M66 291v58h468v-58h-468z" />
    <glyph glyph-name="endash" unicode="&#x2013;" horiz-adv-x="497" 
d="M50 261v58h396v-58h-396z" />
    <glyph glyph-name="emdash" unicode="&#x2014;" horiz-adv-x="759" 
d="M50 261v58h659v-58h-659z" />
    <glyph glyph-name="quoteleft" unicode="&#x2018;" horiz-adv-x="220" 
d="M184 709l-87 -179q-13 0 -36 12t-23 22q0 7 27 50t53 82l27 40q9 0 24 -9.5t15 -17.5z" />
    <glyph glyph-name="quoteright" unicode="&#x2019;" horiz-adv-x="220" 
d="M36 557l86 179q13 0 36.5 -12.5t23.5 -22.5q0 -6 -27 -49t-53 -82l-27 -40q-9 0 -24 9.5t-15 17.5z" />
    <glyph glyph-name="quotesinglbase" unicode="&#x201a;" horiz-adv-x="220" 
d="M36 -77l86 180q13 0 36.5 -12.5t23.5 -22.5q0 -7 -27 -49.5t-53 -82.5l-27 -39q-9 0 -24 9.5t-15 16.5z" />
    <glyph glyph-name="quotedblleft" unicode="&#x201c;" horiz-adv-x="366" 
d="M184 709l-87 -179q-13 0 -36 12t-23 22q0 7 27 50t53 82l27 40q9 0 24 -9.5t15 -17.5zM330 709l-86 -179q-13 0 -36.5 12t-23.5 22q0 7 26.5 50t53.5 82l27 40q9 0 24 -9.5t15 -17.5z" />
    <glyph glyph-name="quotedblright" unicode="&#x201d;" horiz-adv-x="366" 
d="M36 557l86 179q13 0 36.5 -12.5t23.5 -22.5q0 -6 -27 -49t-53 -82l-27 -40q-9 0 -24 9.5t-15 17.5zM182 557l87 179q13 0 36 -12.5t23 -22.5q0 -6 -27 -49t-53 -82l-27 -40q-9 0 -24 9.5t-15 17.5z" />
    <glyph glyph-name="quotedblbase" unicode="&#x201e;" horiz-adv-x="366" 
d="M36 -77l86 180q13 0 36.5 -12.5t23.5 -22.5q0 -7 -27 -49.5t-53 -82.5l-27 -39q-9 0 -24 9.5t-15 16.5zM182 -77l87 180q13 0 36 -12.5t23 -22.5q0 -7 -27 -49.5t-53 -82.5l-27 -39q-9 0 -24 9.5t-15 16.5z" />
    <glyph glyph-name="dagger" unicode="&#x2020;" horiz-adv-x="482" 
d="M28 434v58h184v238h58v-238h184v-58h-184v-584h-58v584h-184z" />
    <glyph glyph-name="daggerdbl" unicode="&#x2021;" horiz-adv-x="482" 
d="M28 434v58h184v238h58v-238h184v-58h-184v-287h184v-59h-184v-238h-58v238h-184v59h184v287h-184z" />
    <glyph glyph-name="bullet" unicode="&#x2022;" horiz-adv-x="250" 
d="M33 275q0 23 34.5 57.5t57.5 34.5t57.5 -34.5t34.5 -57.5t-34.5 -57.5t-57.5 -34.5t-57.5 34.5t-34.5 57.5z" />
    <glyph glyph-name="ellipsis" unicode="&#x2026;" horiz-adv-x="643" 
d="M48 53q0 15 23.5 38t38.5 23t38 -23t23 -38t-23 -38t-38 -23t-38.5 23t-23.5 38zM260 53q0 15 23 38t38 23t38 -23t23 -38t-23 -38t-38 -23t-38 23t-23 38zM469 53q0 15 23 38t38 23q16 0 39 -23t23 -38t-23 -38t-39 -23q-15 0 -38 23t-23 38z" />
    <glyph glyph-name="perthousand" unicode="&#x2030;" horiz-adv-x="1317" 
d="M669 694l-369 -701q-16 0 -38 4.5t-22 8.5l369 701q16 0 38 -4.5t22 -8.5zM507 175q0 79 51.5 130.5t128.5 51.5q78 0 129 -51.5t51 -130.5t-51 -130.5t-129 -51.5q-77 0 -128.5 51.5t-51.5 130.5zM575 175q0 -57 31 -93t81 -36t81 36t31 93t-31 92.5t-81 35.5t-81 -35.5
t-31 -92.5zM40 525q0 79 51.5 130.5t128.5 51.5q78 0 129 -51.5t51 -130.5t-51 -130.5t-129 -51.5q-77 0 -128.5 51.5t-51.5 130.5zM108 525q0 -57 31.5 -93t80.5 -36q50 0 81 36t31 93t-31 92.5t-81 35.5t-81 -35.5t-31 -92.5zM917 175q0 79 51 130.5t129 51.5t129 -51.5
t51 -130.5t-51 -130.5t-129 -51.5t-129 51.5t-51 130.5zM985 175q0 -57 31 -93t81 -36t81 36t31 93t-31 92.5t-81 35.5t-81 -35.5t-31 -92.5z" />
    <glyph glyph-name="guilsinglleft" unicode="&#x2039;" horiz-adv-x="294" 
d="M35 272l182 180q8 0 20 -12t12 -20l-136 -152l136 -153q0 -8 -12 -20t-20 -12l-182 180v9z" />
    <glyph glyph-name="guilsinglright" unicode="&#x203a;" horiz-adv-x="294" 
d="M77 452l182 -180v-9l-182 -180q-8 0 -20 12t-12 20l136 153l-136 152q0 8 12 20t20 12z" />
    <glyph glyph-name="fraction" unicode="&#x2044;" horiz-adv-x="450" 
d="M440 694l-370 -701q-15 0 -37.5 4.5t-22.5 8.5l370 701q16 0 38 -4.5t22 -8.5z" />
    <glyph glyph-name="Euro" unicode="&#x20ac;" horiz-adv-x="765" 
d="M30 398v58h84q31 113 122.5 182t218.5 69q158 0 258 -103q0 -9 -19 -28t-28 -19q-77 80 -208 80q-96 0 -163.5 -48.5t-94.5 -132.5h335v-58h-347q-3 -24 -3 -48q0 -27 3 -51h347v-59h-333q27 -83 94.5 -130t161.5 -47q131 0 208 80q9 0 28 -19t19 -28
q-100 -103 -258 -103q-125 0 -216.5 67.5t-123.5 179.5h-85v59h73q-3 24 -3 51q0 24 3 48h-73z" />
    <glyph glyph-name="uni20B4" unicode="&#x20b4;" horiz-adv-x="499" 
d="M52 386v58h274q44 44 44 95q0 45 -31.5 74.5t-88.5 29.5q-85 0 -134 -58q-9 0 -26 17.5t-17 26.5q68 78 177 78q91 0 141.5 -46t50.5 -114q0 -54 -37 -103h43v-58h-102q-21 -16 -103 -72h205v-58h-276q-42 -45 -42 -93q0 -46 33.5 -76t93.5 -30q91 0 151 65
q9 0 26.5 -17.5t17.5 -26.5q-76 -85 -195 -85q-97 0 -149 47t-52 116q0 54 35 100h-39v58h99q19 14 56.5 39.5t47.5 32.5h-203z" />
    <glyph glyph-name="afii61352" unicode="&#x2116;" horiz-adv-x="1104" 
d="M189 555v-555h-73v637h-62q-8 0 -20 11.5t-12 19.5t12 20t20 12h111l445 -555v555h72v-700h-48zM782 565q0 61 40 100t102 39t102 -39t40 -100q0 -60 -40.5 -99.5t-101.5 -39.5t-101.5 39.5t-40.5 99.5zM840 565q0 -42 23 -67.5t61 -25.5t61 25.5t23 67.5t-23 67.5
t-61 25.5t-61 -25.5t-23 -67.5z" />
    <glyph glyph-name="trademark" unicode="&#x2122;" horiz-adv-x="811" 
d="M351 677q0 5 9 14t15 9h95l102 -256l101 256h67l44 -343q0 -3 -23.5 -7t-32.5 -4l-32 259l-98 -245h-52l-98 245l-31 -259q-9 0 -33 4t-24 7l38 297h-23q-6 0 -15 9t-9 14zM16 652v48h295v-48h-117v-302h-61v302h-117z" />
    <glyph glyph-name="arrowleft" unicode="&#x2190;" horiz-adv-x="585" 
d="M534 329v-58h-388l148 -159q0 -8 -14.5 -22.5t-22.5 -14.5l-222 221v9l222 219q8 0 22.5 -14t14.5 -22l-150 -159h390z" />
    <glyph glyph-name="arrowup" unicode="&#x2191;" horiz-adv-x="535" 
d="M297 58h-58v390l-159 -149q-8 0 -22.5 14t-14.5 22l221 222h9l219 -222q0 -7 -14 -21.5t-22 -14.5l-159 149v-390z" />
    <glyph glyph-name="arrowright" unicode="&#x2192;" horiz-adv-x="585" 
d="M50 271v58h389l-148 159q0 8 14.5 22.5t22.5 14.5l221 -221v-9l-221 -219q-8 0 -22.5 14t-14.5 22l149 159h-390z" />
    <glyph glyph-name="arrowdown" unicode="&#x2193;" horiz-adv-x="535" 
d="M238 542h58v-389l159 148q8 0 22.5 -14t14.5 -22l-221 -222h-9l-219 222q0 8 14 22t22 14l159 -150v391z" />
    <glyph glyph-name="uni2196" unicode="&#x2196;" horiz-adv-x="501" 
d="M77 153v312l7 7h311v-52l-218 -8l277 -276q0 -8 -17 -24.5t-25 -16.5l-275 274l-7 -216h-53z" />
    <glyph glyph-name="uni2197" unicode="&#x2197;" horiz-adv-x="501" 
d="M106 471h312l7 -6v-312h-52l-8 217l-276 -275q-8 0 -24.5 16.5t-16.5 24.5l275 275l-217 8v52z" />
    <glyph glyph-name="uni2198" unicode="&#x2198;" horiz-adv-x="501" 
d="M424 428v-312l-6 -7h-312v52l217 7l-275 277q0 8 16.5 24.5t24.5 16.5l275 -276l8 218h52z" />
    <glyph glyph-name="uni2199" unicode="&#x2199;" horiz-adv-x="501" 
d="M397 110h-313l-7 7v311h53l7 -218l276 276q8 0 25 -16.5t17 -24.5l-276 -275l218 -7v-53z" />
    <glyph glyph-name="minus" unicode="&#x2212;" horiz-adv-x="600" 
d="M95 291v58h410v-58h-410z" />
    <glyph glyph-name="approxequal" unicode="&#x2248;" horiz-adv-x="600" 
d="M95 366v62q50 50 102 50q34 0 102.5 -29.5t104.5 -29.5q50 0 101 52v-62q-48 -51 -100 -51q-35 0 -103.5 29.5t-103.5 29.5q-49 0 -103 -51zM405 150q-35 0 -103.5 30t-103.5 30q-48 0 -103 -52v62q51 51 102 51q34 0 102.5 -30t103.5 -30q50 0 102 52v-62
q-48 -51 -100 -51z" />
    <glyph glyph-name="notequal" unicode="&#x2260;" horiz-adv-x="600" 
d="M95 396v58h246l56 97l51 -29l-39 -68h96v-58h-130l-87 -152h217v-58h-250l-56 -97l-51 29l39 68h-92v58h125l88 152h-213z" />
    <glyph glyph-name="lessequal" unicode="&#x2264;" horiz-adv-x="600" 
d="M505 611v-63l-327 -143l327 -143v-63l-410 177v58zM95 76v58h410v-58h-410z" />
    <glyph glyph-name="greaterequal" unicode="&#x2265;" horiz-adv-x="600" 
d="M95 548v63l410 -177v-58l-410 -177v63l327 143zM95 76v58h410v-58h-410z" />
    <glyph glyph-name="angleleft" unicode="&#x2329;" horiz-adv-x="318" 
d="M33 290l203 447q10 0 34 -15t24 -23l-185 -409l185 -409q0 -8 -24 -23t-34 -15z" />
    <glyph glyph-name="angleright" unicode="&#x232a;" horiz-adv-x="318" 
d="M83 737l202 -447l-202 -447q-9 0 -33 15t-24 23l183 409l-183 409q0 8 24 23t33 15z" />
    <glyph glyph-name="commaaccent" unicode="&#xf6c3;" horiz-adv-x="220" 
d="M43 -192l72 145q13 0 34 -11t21 -22q0 -6 -23 -40.5t-47 -65.5l-23 -31q-8 0 -21 8.5t-13 16.5z" />
    <glyph glyph-name="zerooldstyle" unicode="&#xf730;" horiz-adv-x="597" 
d="M60 223q0 100 68 166t170 66q103 0 171 -66t68 -166q0 -99 -68 -164.5t-171 -65.5q-102 0 -170 65.5t-68 164.5zM142 223q0 -72 44 -117t112 -45t112.5 45.5t44.5 116.5q0 72 -44 117.5t-113 45.5t-112.5 -45.5t-43.5 -117.5z" />
    <glyph glyph-name="oneoldstyle" unicode="&#xf731;" horiz-adv-x="449" 
d="M419 32q0 -8 -12 -20t-20 -12h-305q-8 0 -19.5 12t-11.5 20t11.5 19.5t19.5 11.5h116v308l-120 -43q-6 0 -17.5 22t-11.5 33l190 64h37v-384h111q8 0 20 -12t12 -19z" />
    <glyph glyph-name="twooldstyle" unicode="&#xf732;" horiz-adv-x="505" 
d="M440 331q0 -37 -27.5 -78t-67 -73.5t-79 -59.5t-66.5 -42l-28 -15h278v-63h-364q-8 0 -20 12t-12 20v31q12 6 32 17t72 42.5t91 61t71.5 67t32.5 66.5q0 31 -32 52t-84 21q-84 0 -141 -59q-8 0 -24.5 16.5t-16.5 25.5q84 82 198 82q84 0 135.5 -35.5t51.5 -88.5z" />
    <glyph glyph-name="threeoldstyle" unicode="&#xf733;" horiz-adv-x="552" 
d="M78 384v63h347q7 0 19.5 -12t12.5 -19v-32l-162 -196h10q87 0 138 -54t51 -147q0 -103 -62.5 -161t-169.5 -58q-136 0 -221 94q0 10 18 28t28 18q65 -71 169 -71q73 0 114 40t41 110q0 63 -33 99.5t-93 36.5q-16 0 -32.5 -2.5t-27 -5.5t-11.5 -3q-6 0 -22 16t-16 25
l193 231h-291z" />
    <glyph glyph-name="fouroldstyle" unicode="&#xf734;" horiz-adv-x="576" 
d="M367 -175v175h-293q-8 0 -19.5 12t-11.5 19v27l327 389h75v-389h80v-58h-80v-175h-78zM125 63h242v285z" />
    <glyph glyph-name="fiveoldstyle" unicode="&#xf735;" horiz-adv-x="557" 
d="M95 139l34 308h317v-63h-257l-23 -214q54 18 119 18q104 0 159 -56t55 -148q0 -100 -62.5 -158t-167.5 -58q-136 0 -221 94q0 10 18.5 28t27.5 18q65 -71 168 -71q72 0 113.5 39.5t41.5 107.5q0 64 -39 101.5t-116 37.5q-29 0 -60.5 -5.5t-48.5 -11.5l-17 -5
q-10 0 -25.5 14.5t-15.5 23.5z" />
    <glyph glyph-name="sixoldstyle" unicode="&#xf736;" horiz-adv-x="613" 
d="M336 669q-94 0 -143.5 -82t-49.5 -226v-20q69 102 195 102q99 0 158 -59.5t59 -159.5q0 -105 -65 -168t-165 -63q-127 0 -195.5 99.5t-68.5 263.5q0 166 70 273.5t205 107.5q99 0 168 -51q0 -13 -13.5 -33.5t-21.5 -20.5q-55 37 -133 37zM320 375q-42 0 -75 -13.5
t-52 -35t-28.5 -36.5t-14.5 -29q14 -96 59 -148t116 -52q66 0 107 44t41 117q0 72 -40.5 112.5t-112.5 40.5z" />
    <glyph glyph-name="sevenoldstyle" unicode="&#xf737;" horiz-adv-x="557" 
d="M53 384v63h410q7 0 19 -12t12 -19v-32l-267 -616q-12 0 -40.5 13.5t-28.5 22.5l252 580h-357z" />
    <glyph glyph-name="eightoldstyle" unicode="&#xf738;" horiz-adv-x="604" 
d="M66 178q0 71 43 121t96 80q-115 65 -115 168q0 83 59.5 136.5t152.5 53.5q90 0 148.5 -49.5t58.5 -127.5q0 -109 -119 -183q70 -35 109 -77t39 -109q0 -87 -66 -142.5t-174 -55.5q-102 0 -167 51t-65 134zM460 185q0 16 -5 30.5t-11.5 26t-21 23t-24.5 19t-31 18.5
t-32.5 16t-36.5 16t-36 16q-124 -70 -124 -165q0 -58 46.5 -92.5t115.5 -34.5q72 0 116 36.5t44 90.5zM166 556q0 -23 10 -43t23 -33.5t38.5 -29t43 -24t51.5 -23.5q107 68 107 153q0 52 -39.5 84t-97.5 32q-60 0 -98 -33t-38 -83z" />
    <glyph glyph-name="nineoldstyle" unicode="&#xf739;" horiz-adv-x="601" 
d="M269 -164q94 0 141.5 71.5t47.5 203.5v2q-65 -93 -184 -93q-95 0 -151.5 57.5t-56.5 154.5q0 101 62 162t160 61q121 0 186.5 -93.5t65.5 -247.5q0 -155 -68 -250.5t-203 -95.5q-105 0 -182 65q0 13 14 33.5t22 20.5q62 -51 146 -51zM292 88q40 0 71.5 13.5t49 35
t26 35.5t12.5 27q-13 91 -56 139.5t-108 48.5q-62 0 -100 -42t-38 -111q0 -68 38 -107t105 -39z" />
    <glyph glyph-name="T_h" horiz-adv-x="1092" 
d="M621 0v635h-263v-635h-80v635h-250v65h639q8 0 19.5 -12t11.5 -20v-270q70 57 160 57q77 0 117.5 -42.5t40.5 -117.5v-295h-77v295q0 91 -100 91q-84 0 -141 -49v-337h-77z" />
    <glyph glyph-name="A.smcp" 
d="M302 455l205 -431q0 -4 -28.5 -17.5t-37.5 -13.5l-57 123h-233l-57 -122q-9 0 -37.5 13.5t-28.5 17.5l207 430h67zM267 366l-91 -190h183z" />
    <glyph glyph-name="Aacute.smcp" 
d="M302 455l205 -431q0 -4 -28.5 -17.5t-37.5 -13.5l-57 123h-233l-57 -122q-9 0 -37.5 13.5t-28.5 17.5l207 430h67zM267 366l-91 -190h183zM204 519l120 135q11 0 28.5 -17.5t17.5 -28.5l-134 -120q-8 0 -20 11.5t-12 19.5z" />
    <glyph glyph-name="Abreve.smcp" 
d="M302 455l205 -431q0 -4 -28.5 -17.5t-37.5 -13.5l-57 123h-233l-57 -122q-9 0 -37.5 13.5t-28.5 17.5l207 430h67zM267 366l-91 -190h183zM408 592q-2 -4 -5 -10.5t-15 -24t-26.5 -30.5t-40 -23.5t-54.5 -10.5t-54.5 10t-40.5 24.5t-26 29.5t-16 25l-4 10q0 7 16 18
t24 11q1 -3 3.5 -7.5t11.5 -17t19.5 -22t28.5 -17t38 -7.5q33 0 58.5 18t34.5 36l8 17q8 0 24 -11t16 -18z" />
    <glyph glyph-name="Acircumflex.smcp" 
d="M302 455l205 -431q0 -4 -28.5 -17.5t-37.5 -13.5l-57 123h-233l-57 -122q-9 0 -37.5 13.5t-28.5 17.5l207 430h67zM267 366l-91 -190h183zM272 647l122 -124q0 -8 -12 -20t-20 -12l-95 86l-95 -86q-8 0 -20 12t-12 20l122 124h10z" />
    <glyph glyph-name="Agrave.smcp" 
d="M302 455l205 -431q0 -4 -28.5 -17.5t-37.5 -13.5l-57 123h-233l-57 -122q-9 0 -37.5 13.5t-28.5 17.5l207 430h67zM267 366l-91 -190h183zM211 654l120 -135q0 -8 -12 -19.5t-20 -11.5l-134 120q0 11 17.5 28.5t28.5 17.5z" />
    <glyph glyph-name="Adieresis.smcp" 
d="M302 455l205 -431q0 -4 -28.5 -17.5t-37.5 -13.5l-57 123h-233l-57 -122q-9 0 -37.5 13.5t-28.5 17.5l207 430h67zM267 366l-91 -190h183zM120 552q0 11 18 29t29 18t29 -18t18 -29t-18 -29t-29 -18t-29 18t-18 29zM320 552q0 11 17.5 29t29.5 18q11 0 29 -18t18 -29
t-18 -29t-29 -18q-12 0 -29.5 18t-17.5 29z" />
    <glyph glyph-name="Amacron.smcp" 
d="M302 455l205 -431q0 -4 -28.5 -17.5t-37.5 -13.5l-57 123h-233l-57 -122q-9 0 -37.5 13.5t-28.5 17.5l207 430h67zM267 366l-91 -190h183zM130 518v54h274v-54h-274z" />
    <glyph glyph-name="Aogonek.smcp" 
d="M302 455l205 -431q0 -4 -23 -15q-11 -17 -11 -41q0 -29 18 -47.5t49 -18.5q34 0 50 16q7 0 20 -15t13 -23q-33 -31 -84 -31q-54 0 -87.5 31.5t-33.5 79.5q0 29 14 51l-48 105h-233l-57 -122q-9 0 -37.5 13.5t-28.5 17.5l207 430h67zM267 366l-91 -190h183z" />
    <glyph glyph-name="Aring.smcp" 
d="M302 455l205 -431q0 -4 -28.5 -17.5t-37.5 -13.5l-57 123h-233l-57 -122q-9 0 -37.5 13.5t-28.5 17.5l207 430h67zM267 366l-91 -190h183zM174 572q0 40 26 65.5t67 25.5q40 0 66 -25.5t26 -65.5t-26 -65.5t-66 -25.5q-41 0 -67 25.5t-26 65.5zM217 572q0 -22 14 -35.5
t36 -13.5t35.5 13.5t13.5 35.5t-13.5 35.5t-35.5 13.5t-36 -13.5t-14 -35.5z" />
    <glyph glyph-name="Atilde.smcp" 
d="M302 455l205 -431q0 -4 -28.5 -17.5t-37.5 -13.5l-57 123h-233l-57 -122q-9 0 -37.5 13.5t-28.5 17.5l207 430h67zM267 366l-91 -190h183zM127 529q4 7 12 18t32 29t49 18q22 0 52 -17.5t45 -17.5q10 0 19.5 4t16 9.5t11.5 11t8 9.5l3 4q6 0 19 -11.5t13 -18.5
q-4 -7 -11.5 -17.5t-32 -28.5t-48.5 -18q-22 0 -52.5 17.5t-45.5 17.5q-10 0 -19 -4t-16 -9.5t-12 -11t-8 -9.5l-3 -4q-6 0 -19 11t-13 18z" />
    <glyph glyph-name="AE.smcp" horiz-adv-x="624" 
d="M282 0v116h-131l-57 -122q-9 0 -37.5 13.5t-28.5 17.5l218 430h329v-60h-218v-133h188v-60h-188v-142h221v-60h-296zM277 366l-101 -190h106v190h-5z" />
    <glyph glyph-name="AEacute.smcp" horiz-adv-x="624" 
d="M282 0v116h-131l-57 -122q-9 0 -37.5 13.5t-28.5 17.5l218 430h329v-60h-218v-133h188v-60h-188v-142h221v-60h-296zM277 366l-101 -190h106v190h-5zM307 519l119 135q11 0 29 -17.5t18 -28.5l-135 -120q-8 0 -19.5 11.5t-11.5 19.5z" />
    <glyph glyph-name="B.smcp" horiz-adv-x="470" 
d="M67 0v455h175q72 0 115 -33.5t43 -86.5q0 -63 -60 -98q40 -14 63 -44t23 -68q0 -55 -44.5 -90t-119.5 -35h-195zM259 203h-116v-143h116q42 0 65.5 20t23.5 52t-23.5 51.5t-65.5 19.5zM239 395h-96v-133h96q39 0 62 19t23 48t-22.5 47.5t-62.5 18.5z" />
    <glyph glyph-name="C.smcp" horiz-adv-x="522" 
d="M411 314v50q-43 32 -111 32q-81 0 -127 -46t-46 -122q0 -77 46.5 -123t126.5 -46q86 0 135 45q8 0 26 -18t18 -26q-71 -66 -182 -66q-109 0 -180 66.5t-71 167.5t70.5 167t179.5 66q106 0 175 -64v-83q0 -7 -11.5 -18.5t-18.5 -11.5t-18.5 11.5t-11.5 18.5z" />
    <glyph glyph-name="Cacute.smcp" horiz-adv-x="522" 
d="M411 314v50q-43 32 -111 32q-81 0 -127 -46t-46 -122q0 -77 46.5 -123t126.5 -46q86 0 135 45q8 0 26 -18t18 -26q-71 -66 -182 -66q-109 0 -180 66.5t-71 167.5t70.5 167t179.5 66q106 0 175 -64v-83q0 -7 -11.5 -18.5t-18.5 -11.5t-18.5 11.5t-11.5 18.5zM227 519
l120 135q11 0 28.5 -17.5t17.5 -28.5l-134 -120q-8 0 -20 11.5t-12 19.5z" />
    <glyph glyph-name="Ccaron.smcp" horiz-adv-x="522" 
d="M411 314v50q-43 32 -111 32q-81 0 -127 -46t-46 -122q0 -77 46.5 -123t126.5 -46q86 0 135 45q8 0 26 -18t18 -26q-71 -66 -182 -66q-109 0 -180 66.5t-71 167.5t70.5 167t179.5 66q106 0 175 -64v-83q0 -7 -11.5 -18.5t-18.5 -11.5t-18.5 11.5t-11.5 18.5zM285 487
l-123 125q0 8 12 19.5t20 11.5l95 -86l95 86q8 0 20 -11.5t12 -19.5l-122 -125h-9z" />
    <glyph glyph-name="Ccedilla.smcp" horiz-adv-x="522" 
d="M411 314v50q-43 32 -111 32q-81 0 -127 -46t-46 -122q0 -77 46.5 -123t126.5 -46q86 0 135 45q8 0 26 -18t18 -26q-66 -63 -173 -66l-4 -30q3 0 7.5 -0.5t16 -4t20.5 -8.5t16 -15.5t7 -24.5q0 -29 -28.5 -54.5t-56.5 -36.5l-28 -12q-8 0 -18.5 11t-10.5 19q10 3 24.5 9
t39 23.5t24.5 33.5q0 13 -15.5 21t-31.5 9l-15 2l7 60q-95 11 -154.5 75t-59.5 157q0 101 70.5 167t179.5 66q106 0 175 -64v-83q0 -7 -11.5 -18.5t-18.5 -11.5t-18.5 11.5t-11.5 18.5z" />
    <glyph glyph-name="Ccircumflex.smcp" horiz-adv-x="522" 
d="M411 314v50q-43 32 -111 32q-81 0 -127 -46t-46 -122q0 -77 46.5 -123t126.5 -46q86 0 135 45q8 0 26 -18t18 -26q-71 -66 -182 -66q-109 0 -180 66.5t-71 167.5t70.5 167t179.5 66q106 0 175 -64v-83q0 -7 -11.5 -18.5t-18.5 -11.5t-18.5 11.5t-11.5 18.5zM294 642
l122 -124q0 -8 -12 -20t-20 -12l-95 86l-95 -86q-8 0 -20 12t-12 20l123 124h9z" />
    <glyph glyph-name="Cdotaccent.smcp" horiz-adv-x="522" 
d="M411 314v50q-43 32 -111 32q-81 0 -127 -46t-46 -122q0 -77 46.5 -123t126.5 -46q86 0 135 45q8 0 26 -18t18 -26q-71 -66 -182 -66q-109 0 -180 66.5t-71 167.5t70.5 167t179.5 66q106 0 175 -64v-83q0 -7 -11.5 -18.5t-18.5 -11.5t-18.5 11.5t-11.5 18.5zM233 563
q0 13 21.5 34.5t34.5 21.5q14 0 35.5 -21t21.5 -35t-21.5 -35t-35.5 -21q-13 0 -34.5 21.5t-21.5 34.5z" />
    <glyph glyph-name="D.smcp" horiz-adv-x="541" 
d="M495 227q0 -99 -68.5 -163t-175.5 -64h-184v455h184q107 0 175.5 -64.5t68.5 -163.5zM143 60h108q75 0 119.5 45.5t44.5 121.5t-44.5 122t-119.5 46h-108v-335z" />
    <glyph glyph-name="Dcaron.smcp" horiz-adv-x="541" 
d="M495 227q0 -99 -68.5 -163t-175.5 -64h-184v455h184q107 0 175.5 -64.5t68.5 -163.5zM143 60h108q75 0 119.5 45.5t44.5 121.5t-44.5 122t-119.5 46h-108v-335zM257 487l-123 125q0 8 12 19.5t20 11.5l95 -86l95 86q8 0 20 -11.5t12 -19.5l-122 -125h-9z" />
    <glyph glyph-name="Dcroat.smcp" horiz-adv-x="560" 
d="M19 231q0 7 11 18t18 11h37v195h184q107 0 176 -64.5t69 -163.5t-69 -163t-176 -64h-184v202h-37q-8 0 -18.5 11t-10.5 18zM161 60h108q75 0 120 46t45 121q0 76 -45 122t-120 46h-108v-135h120v-58h-120v-142z" />
    <glyph glyph-name="Eth.smcp" horiz-adv-x="560" 
d="M19 231q0 7 11 18t18 11h37v195h184q107 0 176 -64.5t69 -163.5t-69 -163t-176 -64h-184v202h-37q-8 0 -18.5 11t-10.5 18zM161 60h108q75 0 120 46t45 121q0 76 -45 122t-120 46h-108v-135h120v-58h-120v-142z" />
    <glyph glyph-name="Thorn.smcp" horiz-adv-x="451" 
d="M142 94v-94h-75v455h75v-81h101q74 0 118.5 -39t44.5 -101t-44.5 -101t-118.5 -39h-101zM240 314h-98v-160h98q41 0 65 22.5t24 57.5t-24 57.5t-65 22.5z" />
    <glyph glyph-name="E.smcp" horiz-adv-x="441" 
d="M67 0v455h325v-60h-249v-133h220v-60h-220v-142h253v-60h-329z" />
    <glyph glyph-name="Eacute.smcp" horiz-adv-x="441" 
d="M67 0v455h325v-60h-249v-133h220v-60h-220v-142h253v-60h-329zM152 519l120 135q11 0 28.5 -17.5t17.5 -28.5l-134 -120q-8 0 -20 11.5t-12 19.5z" />
    <glyph glyph-name="Ebreve.smcp" horiz-adv-x="441" 
d="M67 0v455h325v-60h-249v-133h220v-60h-220v-142h253v-60h-329zM361 592q-2 -4 -5 -10.5t-15 -24t-26.5 -30.5t-39.5 -23.5t-54 -10.5t-54.5 10t-40.5 24.5t-26 29.5t-16 25l-4 10q0 7 15.5 18t24.5 11q1 -3 3.5 -7.5t11 -17t19 -22t29 -17t38.5 -7.5q33 0 58 18t33 36
l9 17q9 0 24.5 -11t15.5 -18z" />
    <glyph glyph-name="Ecaron.smcp" horiz-adv-x="441" 
d="M67 0v455h325v-60h-249v-133h220v-60h-220v-142h253v-60h-329zM216 487l-122 125q0 8 12 19.5t19 11.5l96 -86l95 86q8 0 19.5 -11.5t11.5 -19.5l-122 -125h-9z" />
    <glyph glyph-name="Ecircumflex.smcp" horiz-adv-x="441" 
d="M67 0v455h325v-60h-249v-133h220v-60h-220v-142h253v-60h-329zM225 642l122 -124q0 -8 -11.5 -20t-19.5 -12l-96 86l-95 -86q-8 0 -19.5 12t-11.5 20l122 124h9z" />
    <glyph glyph-name="Edieresis.smcp" horiz-adv-x="441" 
d="M67 0v455h325v-60h-249v-133h220v-60h-220v-142h253v-60h-329zM74 547q0 11 18 29t29 18q12 0 29.5 -18t17.5 -29t-17.5 -29t-29.5 -18q-11 0 -29 18t-18 29zM274 547q0 11 18 29t29 18t29 -18t18 -29t-18 -29t-29 -18t-29 18t-18 29z" />
    <glyph glyph-name="Edotaccent.smcp" horiz-adv-x="441" 
d="M67 0v455h325v-60h-249v-133h220v-60h-220v-142h253v-60h-329zM165 563q0 13 21.5 34.5t34.5 21.5t34.5 -21.5t21.5 -34.5t-21.5 -34.5t-34.5 -21.5t-34.5 21.5t-21.5 34.5z" />
    <glyph glyph-name="Egrave.smcp" horiz-adv-x="441" 
d="M67 0v455h325v-60h-249v-133h220v-60h-220v-142h253v-60h-329zM170 654l120 -135q0 -8 -12 -19.5t-20 -11.5l-134 120q0 11 17.5 28.5t28.5 17.5z" />
    <glyph glyph-name="Emacron.smcp" horiz-adv-x="441" 
d="M67 0v455h325v-60h-249v-133h220v-60h-220v-142h253v-60h-329zM84 518v54h273v-54h-273z" />
    <glyph glyph-name="Eogonek.smcp" horiz-adv-x="441" 
d="M67 0v455h325v-60h-249v-133h220v-60h-220v-142h253v-60h-114q-6 -15 -6 -33q0 -29 18 -47.5t49 -18.5q33 0 50 16q7 0 20 -15t13 -23q-34 -31 -84 -31q-54 0 -87.5 31.5t-33.5 79.5q0 23 9 41h-163z" />
    <glyph glyph-name="F.smcp" horiz-adv-x="418" 
d="M67 0v455h313v-60h-237v-142h207v-60h-207v-193h-76z" />
    <glyph glyph-name="G.smcp" horiz-adv-x="529" 
d="M291 208q0 7 10.5 18t17.5 11h152v-182q-64 -61 -173 -61q-111 0 -181.5 66t-70.5 167q0 102 70.5 168t179.5 66q106 0 175 -64v-71q0 -7 -11.5 -18.5t-18.5 -11.5t-18.5 11.5t-11.5 18.5v38q-43 32 -109 32q-83 0 -129 -46t-46 -122q0 -77 46.5 -123t127.5 -46
q62 0 99 27v93h-81q-7 0 -17.5 11t-10.5 18z" />
    <glyph glyph-name="Gbreve.smcp" horiz-adv-x="529" 
d="M291 208q0 7 10.5 18t17.5 11h152v-182q-64 -61 -173 -61q-111 0 -181.5 66t-70.5 167q0 102 70.5 168t179.5 66q106 0 175 -64v-71q0 -7 -11.5 -18.5t-18.5 -11.5t-18.5 11.5t-11.5 18.5v38q-43 32 -109 32q-83 0 -129 -46t-46 -122q0 -77 46.5 -123t127.5 -46
q62 0 99 27v93h-81q-7 0 -17.5 11t-10.5 18zM422 592q-2 -4 -5 -10.5t-15 -24t-26.5 -30.5t-39.5 -23.5t-54 -10.5t-54.5 10t-40.5 24.5t-26 29.5t-15 25l-5 10q0 7 15.5 18t24.5 11q1 -3 3.5 -7.5t11 -17t19 -22t29 -17t38.5 -7.5q33 0 58 18t34 36l8 17q9 0 24.5 -11
t15.5 -18z" />
    <glyph glyph-name="Gcircumflex.smcp" horiz-adv-x="529" 
d="M291 208q0 7 10.5 18t17.5 11h152v-182q-64 -61 -173 -61q-111 0 -181.5 66t-70.5 167q0 102 70.5 168t179.5 66q106 0 175 -64v-71q0 -7 -11.5 -18.5t-18.5 -11.5t-18.5 11.5t-11.5 18.5v38q-43 32 -109 32q-83 0 -129 -46t-46 -122q0 -77 46.5 -123t127.5 -46
q62 0 99 27v93h-81q-7 0 -17.5 11t-10.5 18zM286 642l122 -124q0 -8 -12 -20t-20 -12l-95 86l-95 -86q-8 0 -19.5 12t-11.5 20l122 124h9z" />
    <glyph glyph-name="Gcommaaccent.smcp" horiz-adv-x="529" 
d="M291 208q0 7 10.5 18t17.5 11h152v-182q-64 -61 -173 -61q-111 0 -181.5 66t-70.5 167q0 102 70.5 168t179.5 66q106 0 175 -64v-71q0 -7 -11.5 -18.5t-18.5 -11.5t-18.5 11.5t-11.5 18.5v38q-43 32 -109 32q-83 0 -129 -46t-46 -122q0 -77 46.5 -123t127.5 -46
q62 0 99 27v93h-81q-7 0 -17.5 11t-10.5 18zM218 -171l72 145q13 0 34 -11t21 -21q0 -7 -23.5 -41t-46.5 -65l-23 -31q-8 0 -21 8.5t-13 15.5z" />
    <glyph glyph-name="Gdotaccent.smcp" horiz-adv-x="529" 
d="M291 208q0 7 10.5 18t17.5 11h152v-182q-64 -61 -173 -61q-111 0 -181.5 66t-70.5 167q0 102 70.5 168t179.5 66q106 0 175 -64v-71q0 -7 -11.5 -18.5t-18.5 -11.5t-18.5 11.5t-11.5 18.5v38q-43 32 -109 32q-83 0 -129 -46t-46 -122q0 -77 46.5 -123t127.5 -46
q62 0 99 27v93h-81q-7 0 -17.5 11t-10.5 18zM226 563q0 13 21 34.5t35 21.5t35 -21.5t21 -34.5t-21 -34.5t-35 -21.5t-35 21.5t-21 34.5z" />
    <glyph glyph-name="H.smcp" horiz-adv-x="547" 
d="M405 0v202h-262v-202h-76v455h76v-193h262v193h75v-455h-75z" />
    <glyph glyph-name="Hbar.smcp" horiz-adv-x="581" 
d="M422 0v202h-263v-202h-75v330h-49v55h49v70h75v-70h263v70h75v-70h49v-55h-49v-330h-75zM159 330v-68h263v68h-263z" />
    <glyph glyph-name="Hcircumflex.smcp" horiz-adv-x="547" 
d="M405 0v202h-262v-202h-76v455h76v-193h262v193h75v-455h-75zM277 642l122 -124q0 -8 -12 -20t-20 -12l-95 86l-95 -86q-8 0 -20 12t-12 20l123 124h9z" />
    <glyph glyph-name="I.smcp" horiz-adv-x="315" 
d="M286 29q0 -7 -11 -18t-18 -11h-199q-8 0 -18.5 11t-10.5 18t11 18t18 11h62v339h-62q-7 0 -18 11t-11 18q0 8 10.5 18.5t18.5 10.5h199q7 0 18 -11t11 -18t-11 -18t-18 -11h-62v-339h62q7 0 18 -11t11 -18z" />
    <glyph glyph-name="Iacute.smcp" horiz-adv-x="315" 
d="M286 29q0 -7 -11 -18t-18 -11h-199q-8 0 -18.5 11t-10.5 18t11 18t18 11h62v339h-62q-7 0 -18 11t-11 18q0 8 10.5 18.5t18.5 10.5h199q7 0 18 -11t11 -18t-11 -18t-18 -11h-62v-339h62q7 0 18 -11t11 -18zM88 505l120 135q11 0 28.5 -17.5t17.5 -28.5l-135 -121
q-8 0 -19.5 12t-11.5 20z" />
    <glyph glyph-name="Ibreve.smcp" horiz-adv-x="315" 
d="M286 29q0 -7 -11 -18t-18 -11h-199q-8 0 -18.5 11t-10.5 18t11 18t18 11h62v339h-62q-7 0 -18 11t-11 18q0 8 10.5 18.5t18.5 10.5h199q7 0 18 -11t11 -18t-11 -18t-18 -11h-62v-339h62q7 0 18 -11t11 -18zM298 592q-1 -4 -4.5 -10.5t-15 -24t-26 -30.5t-40 -23.5
t-54.5 -10.5t-54.5 10t-40.5 24.5t-26 29.5t-15 25l-5 10q0 7 15.5 18t24.5 11q1 -3 3.5 -7.5t11 -17t19 -22t29 -17t38.5 -7.5q33 0 58.5 18t33.5 36l9 17q8 0 23.5 -11t15.5 -18z" />
    <glyph glyph-name="Icircumflex.smcp" horiz-adv-x="315" 
d="M286 29q0 -7 -11 -18t-18 -11h-199q-8 0 -18.5 11t-10.5 18t11 18t18 11h62v339h-62q-7 0 -18 11t-11 18q0 8 10.5 18.5t18.5 10.5h199q7 0 18 -11t11 -18t-11 -18t-18 -11h-62v-339h62q7 0 18 -11t11 -18zM163 633l122 -125q0 -8 -12 -19.5t-20 -11.5l-95 86l-95 -86
q-7 0 -19 11.5t-12 19.5l122 125h9z" />
    <glyph glyph-name="Idieresis.smcp" horiz-adv-x="315" 
d="M286 29q0 -7 -11 -18t-18 -11h-199q-8 0 -18.5 11t-10.5 18t11 18t18 11h62v339h-62q-7 0 -18 11t-11 18q0 8 10.5 18.5t18.5 10.5h199q7 0 18 -11t11 -18t-11 -18t-18 -11h-62v-339h62q7 0 18 -11t11 -18zM11 532q0 11 18 29t29 18t29 -18t18 -29t-18 -29t-29 -18
t-29 18t-18 29zM211 532q0 11 18 29t29 18t29 -18t18 -29t-18 -29t-29 -18t-29 18t-18 29z" />
    <glyph glyph-name="Idotaccent.smcp" horiz-adv-x="315" 
d="M286 29q0 -7 -11 -18t-18 -11h-199q-8 0 -18.5 11t-10.5 18t11 18t18 11h62v339h-62q-7 0 -18 11t-11 18q0 8 10.5 18.5t18.5 10.5h199q7 0 18 -11t11 -18t-11 -18t-18 -11h-62v-339h62q7 0 18 -11t11 -18zM101 548q0 14 21.5 35t34.5 21t34.5 -21t21.5 -35t-21.5 -35
t-34.5 -21t-34.5 21t-21.5 35z" />
    <glyph glyph-name="Igrave.smcp" horiz-adv-x="315" 
d="M286 29q0 -7 -11 -18t-18 -11h-199q-8 0 -18.5 11t-10.5 18t11 18t18 11h62v339h-62q-7 0 -18 11t-11 18q0 8 10.5 18.5t18.5 10.5h199q7 0 18 -11t11 -18t-11 -18t-18 -11h-62v-339h62q7 0 18 -11t11 -18zM106 640l120 -135q0 -8 -12 -20t-20 -12l-134 121
q0 11 17.5 28.5t28.5 17.5z" />
    <glyph glyph-name="Imacron.smcp" horiz-adv-x="315" 
d="M286 29q0 -7 -11 -18t-18 -11h-199q-8 0 -18.5 11t-10.5 18t11 18t18 11h62v339h-62q-7 0 -18 11t-11 18q0 8 10.5 18.5t18.5 10.5h199q7 0 18 -11t11 -18t-11 -18t-18 -11h-62v-339h62q7 0 18 -11t11 -18zM22 518v54h273v-54h-273z" />
    <glyph glyph-name="Iogonek.smcp" horiz-adv-x="315" 
d="M286 29q0 -7 -11 -18t-18 -11h-85q-6 -15 -6 -33q0 -29 18 -47.5t49 -18.5q33 0 50 16q7 0 20 -15t13 -23q-34 -31 -84 -31q-54 0 -87.5 31.5t-33.5 79.5q0 23 9 41h-62q-8 0 -18.5 11t-10.5 18t11 18t18 11h62v339h-62q-7 0 -18 11t-11 18q0 8 10.5 18.5t18.5 10.5h199
q7 0 18 -11t11 -18t-11 -18t-18 -11h-62v-339h62q7 0 18 -11t11 -18z" />
    <glyph glyph-name="Itilde.smcp" horiz-adv-x="315" 
d="M286 29q0 -7 -11 -18t-18 -11h-199q-8 0 -18.5 11t-10.5 18t11 18t18 11h62v339h-62q-7 0 -18 11t-11 18q0 8 10.5 18.5t18.5 10.5h199q7 0 18 -11t11 -18t-11 -18t-18 -11h-62v-339h62q7 0 18 -11t11 -18zM18 529q4 7 12 18t32 29t49 18q21 0 51 -17.5t46 -17.5
q10 0 19.5 4t16 9.5t11.5 11t8 9.5l3 4q6 0 19 -11.5t13 -18.5q-4 -7 -11.5 -17.5t-32 -28.5t-48.5 -18q-22 0 -52.5 17.5t-45.5 17.5q-10 0 -19 -4t-16 -9.5t-12 -11t-8 -9.5l-3 -4q-7 0 -19.5 11t-12.5 18z" />
    <glyph glyph-name="IJ.smcp" horiz-adv-x="555" 
d="M286 29q0 -7 -11 -18t-18 -11h-199q-8 0 -18.5 11t-10.5 18t11 18t18 11h62v339h-62q-7 0 -18 11t-11 18q0 8 10.5 18.5t18.5 10.5h199q7 0 18 -11t11 -18t-11 -18t-18 -11h-62v-339h62q7 0 18 -11t11 -18zM412 -4v401h-62q-7 0 -17.5 11t-10.5 18t10.5 18t17.5 11h138
v-459q0 -65 -45 -107t-114 -42q-67 0 -112 42q0 9 19 27.5t27 18.5q25 -23 64 -23t62 23t23 61z" />
    <glyph glyph-name="J.smcp" horiz-adv-x="363" 
d="M223 142v255h-62q-7 0 -18 11t-11 18t11 18t18 11h135v-313q0 -65 -43.5 -106.5t-112.5 -41.5t-113 41q0 9 18 27.5t26 18.5q23 -22 66 -22q40 0 63 22.5t23 60.5z" />
    <glyph glyph-name="Jcircumflex.smcp" horiz-adv-x="363" 
d="M223 142v255h-62q-7 0 -18 11t-11 18t11 18t18 11h135v-313q0 -65 -43.5 -106.5t-112.5 -41.5t-113 41q0 9 18 27.5t26 18.5q23 -22 66 -22q40 0 63 22.5t23 60.5zM222 642l123 -124q0 -8 -12 -20t-20 -12l-95 86l-95 -86q-8 0 -20 12t-12 20l122 124h9z" />
    <glyph glyph-name="K.smcp" horiz-adv-x="458" 
d="M67 0v455h76v-193l56 5l167 194q9 0 32.5 -20.5t23.5 -28.5l-159 -178l168 -191q0 -8 -23 -28.5t-31 -20.5l-182 209l-52 -5v-198h-76z" />
    <glyph glyph-name="Kcommaaccent.smcp" horiz-adv-x="458" 
d="M67 0v455h76v-193l56 5l167 194q9 0 32.5 -20.5t23.5 -28.5l-159 -178l168 -191q0 -8 -23 -28.5t-31 -20.5l-182 209l-52 -5v-198h-76zM166 -171l71 145q13 0 34 -11t21 -21q0 -7 -23 -41t-46 -65l-23 -31q-9 0 -21.5 8.5t-12.5 15.5z" />
    <glyph glyph-name="L.smcp" horiz-adv-x="410" 
d="M67 0v455h75v-395h241v-60h-316z" />
    <glyph glyph-name="Lacute.smcp" horiz-adv-x="410" 
d="M67 0v455h75v-395h241v-60h-316zM35 519l120 135q11 0 28.5 -17.5t17.5 -28.5l-134 -120q-8 0 -20 11.5t-12 19.5z" />
    <glyph glyph-name="Lcaron.smcp" horiz-adv-x="410" 
d="M67 0v455h75v-395h241v-60h-316zM237 323l86 179q13 0 36.5 -12t23.5 -22q0 -7 -26.5 -50t-53.5 -82l-27 -40q-9 0 -24 9.5t-15 17.5z" />
    <glyph glyph-name="Lcommaaccent.smcp" horiz-adv-x="410" 
d="M67 0v455h75v-395h241v-60h-316zM146 -171l72 145q13 0 34 -11t21 -21q0 -7 -23.5 -41t-46.5 -65l-23 -31q-8 0 -21 8.5t-13 15.5z" />
    <glyph glyph-name="Ldot.smcp" horiz-adv-x="410" 
d="M67 0v455h75v-395h241v-60h-316zM241 237q0 14 22.5 36.5t36.5 22.5t36.5 -22.5t22.5 -36.5t-22.5 -36.5t-36.5 -22.5t-36.5 22.5t-22.5 36.5z" />
    <glyph glyph-name="Lslash.smcp" horiz-adv-x="441" 
d="M29 185l68 40v230h75v-186l52 31q7 0 17.5 -14t10.5 -22l-80 -49v-155h241v-60h-316v170l-38 -23q-7 0 -18.5 15t-11.5 23z" />
    <glyph glyph-name="M.smcp" horiz-adv-x="672" 
d="M43 9l60 446h82l151 -337l149 337h83l60 -446q0 -4 -29 -8.5t-41 -4.5l-44 340l-147 -323h-63l-147 323l-44 -340q-12 0 -41 4.5t-29 8.5z" />
    <glyph glyph-name="N.smcp" horiz-adv-x="538" 
d="M135 317v-317h-68v455h43l293 -317v317h68v-455h-44z" />
    <glyph glyph-name="Nacute.smcp" horiz-adv-x="538" 
d="M135 317v-317h-68v455h43l293 -317v317h68v-455h-44zM197 519l120 135q11 0 28.5 -17.5t17.5 -28.5l-134 -120q-8 0 -20 11.5t-12 19.5z" />
    <glyph glyph-name="Ncaron.smcp" horiz-adv-x="538" 
d="M135 317v-317h-68v455h43l293 -317v317h68v-455h-44zM262 487l-122 125q0 8 12 19.5t20 11.5l95 -86l95 86q8 0 20 -11.5t12 -19.5l-122 -125h-10z" />
    <glyph glyph-name="Ncommaaccent.smcp" horiz-adv-x="538" 
d="M135 317v-317h-68v455h43l293 -317v317h68v-455h-44zM196 -171l72 145q13 0 34 -11t21 -21q0 -7 -23 -41t-46 -65l-23 -31q-9 0 -22 8.5t-13 15.5z" />
    <glyph glyph-name="Ntilde.smcp" horiz-adv-x="538" 
d="M135 317v-317h-68v455h43l293 -317v317h68v-455h-44zM126 529q4 7 12 18t32.5 29t48.5 18q22 0 52 -17.5t45 -17.5q10 0 19.5 4t16 9.5t11.5 11t8 9.5l3 4q6 0 19 -11.5t13 -18.5q-4 -7 -11.5 -17.5t-31.5 -28.5t-49 -18q-22 0 -51.5 17.5t-45.5 17.5q-10 0 -19.5 -4
t-16.5 -9.5t-12 -11t-8 -9.5l-3 -4q-6 0 -19 11t-13 18z" />
    <glyph glyph-name="Eng.smcp" horiz-adv-x="538" 
d="M135 317v-317h-68v455h43l293 -317v317h68v-459q0 -65 -43.5 -107t-112.5 -42q-68 0 -112 42q0 9 17.5 27.5t25.5 18.5q25 -23 66 -23q40 0 63 23t23 61v35z" />
    <glyph glyph-name="O.smcp" horiz-adv-x="590" 
d="M46 227q0 101 71 167.5t178 66.5t178 -66.5t71 -167.5q0 -100 -71 -166.5t-178 -66.5t-178 66.5t-71 166.5zM127 227q0 -75 46 -121.5t122 -46.5t122.5 46.5t46.5 121.5q0 76 -46.5 122.5t-122.5 46.5t-122 -46.5t-46 -122.5z" />
    <glyph glyph-name="Oacute.smcp" horiz-adv-x="590" 
d="M46 227q0 101 71 167.5t178 66.5t178 -66.5t71 -167.5q0 -100 -71 -166.5t-178 -66.5t-178 66.5t-71 166.5zM127 227q0 -75 46 -121.5t122 -46.5t122.5 46.5t46.5 121.5q0 76 -46.5 122.5t-122.5 46.5t-122 -46.5t-46 -122.5zM233 519l119 135q11 0 29 -17.5t18 -28.5
l-135 -120q-8 0 -19.5 11.5t-11.5 19.5z" />
    <glyph glyph-name="Obreve.smcp" horiz-adv-x="590" 
d="M46 227q0 101 71 167.5t178 66.5t178 -66.5t71 -167.5q0 -100 -71 -166.5t-178 -66.5t-178 66.5t-71 166.5zM127 227q0 -75 46 -121.5t122 -46.5t122.5 46.5t46.5 121.5q0 76 -46.5 122.5t-122.5 46.5t-122 -46.5t-46 -122.5zM435 592q-2 -4 -5 -10.5t-15 -24
t-26.5 -30.5t-39.5 -23.5t-54 -10.5t-54.5 10t-40.5 24.5t-26 29.5t-16 25l-4 10q0 7 15.5 18t24.5 11q1 -3 3.5 -7.5t11 -17t19 -22t29 -17t38.5 -7.5q33 0 58 18t33 36l9 17q9 0 24.5 -11t15.5 -18z" />
    <glyph glyph-name="Ocircumflex.smcp" horiz-adv-x="590" 
d="M46 227q0 101 71 167.5t178 66.5t178 -66.5t71 -167.5q0 -100 -71 -166.5t-178 -66.5t-178 66.5t-71 166.5zM127 227q0 -75 46 -121.5t122 -46.5t122.5 46.5t46.5 121.5q0 76 -46.5 122.5t-122.5 46.5t-122 -46.5t-46 -122.5zM300 642l122 -124q0 -8 -12 -20t-20 -12
l-95 86l-95 -86q-8 0 -20 12t-12 20l123 124h9z" />
    <glyph glyph-name="Odieresis.smcp" horiz-adv-x="590" 
d="M46 227q0 101 71 167.5t178 66.5t178 -66.5t71 -167.5q0 -100 -71 -166.5t-178 -66.5t-178 66.5t-71 166.5zM127 227q0 -75 46 -121.5t122 -46.5t122.5 46.5t46.5 121.5q0 76 -46.5 122.5t-122.5 46.5t-122 -46.5t-46 -122.5zM148 547q0 11 18 29t29 18t29 -18t18 -29
t-18 -29t-29 -18t-29 18t-18 29zM348 547q0 11 18 29t29 18t29 -18t18 -29t-18 -29t-29 -18t-29 18t-18 29z" />
    <glyph glyph-name="Ograve.smcp" horiz-adv-x="590" 
d="M46 227q0 101 71 167.5t178 66.5t178 -66.5t71 -167.5q0 -100 -71 -166.5t-178 -66.5t-178 66.5t-71 166.5zM127 227q0 -75 46 -121.5t122 -46.5t122.5 46.5t46.5 121.5q0 76 -46.5 122.5t-122.5 46.5t-122 -46.5t-46 -122.5zM237 654l120 -135q0 -8 -12 -19.5t-20 -11.5
l-134 120q0 11 17.5 28.5t28.5 17.5z" />
    <glyph glyph-name="Ohungarumlaut.smcp" horiz-adv-x="590" 
d="M46 227q0 101 71 167.5t178 66.5t178 -66.5t71 -167.5q0 -100 -71 -166.5t-178 -66.5t-178 66.5t-71 166.5zM127 227q0 -75 46 -121.5t122 -46.5t122.5 46.5t46.5 121.5q0 76 -46.5 122.5t-122.5 46.5t-122 -46.5t-46 -122.5zM149 519l119 135q11 0 29 -17.5t18 -28.5
l-135 -120q-8 0 -19.5 11.5t-11.5 19.5zM317 519l120 135q11 0 28.5 -17.5t17.5 -28.5l-134 -120q-8 0 -20 11.5t-12 19.5z" />
    <glyph glyph-name="Omacron.smcp" horiz-adv-x="590" 
d="M46 227q0 101 71 167.5t178 66.5t178 -66.5t71 -167.5q0 -100 -71 -166.5t-178 -66.5t-178 66.5t-71 166.5zM127 227q0 -75 46 -121.5t122 -46.5t122.5 46.5t46.5 121.5q0 76 -46.5 122.5t-122.5 46.5t-122 -46.5t-46 -122.5zM157 518v54h274v-54h-274z" />
    <glyph glyph-name="Oslash.smcp" horiz-adv-x="590" 
d="M455 462l-21 -38q51 -31 80.5 -82.5t29.5 -114.5q0 -100 -71 -166.5t-178 -66.5q-48 0 -90 14l-15 -27q-14 0 -34.5 4t-20.5 8l21 38q-52 30 -81 81.5t-29 114.5q0 101 71 167.5t178 66.5q48 0 90 -15l16 28q13 0 33.5 -4t20.5 -8zM124 227q0 -93 64 -138l166 300
q-27 9 -59 9q-77 0 -124 -47t-47 -124zM465 227q0 91 -63 138l-166 -300q29 -8 59 -8q77 0 123.5 47t46.5 123z" />
    <glyph glyph-name="Oslashacute.smcp" horiz-adv-x="590" 
d="M455 462l-21 -38q51 -31 80.5 -82.5t29.5 -114.5q0 -100 -71 -166.5t-178 -66.5q-48 0 -90 14l-15 -27q-14 0 -34.5 4t-20.5 8l21 38q-52 30 -81 81.5t-29 114.5q0 101 71 167.5t178 66.5q48 0 90 -15l16 28q13 0 33.5 -4t20.5 -8zM124 227q0 -93 64 -138l166 300
q-27 9 -59 9q-77 0 -124 -47t-47 -124zM465 227q0 91 -63 138l-166 -300q29 -8 59 -8q77 0 123.5 47t46.5 123zM226 519l119 135q11 0 29 -17.5t18 -28.5l-135 -120q-8 0 -19.5 11.5t-11.5 19.5z" />
    <glyph glyph-name="Otilde.smcp" horiz-adv-x="590" 
d="M46 227q0 101 71 167.5t178 66.5t178 -66.5t71 -167.5q0 -100 -71 -166.5t-178 -66.5t-178 66.5t-71 166.5zM127 227q0 -75 46 -121.5t122 -46.5t122.5 46.5t46.5 121.5q0 76 -46.5 122.5t-122.5 46.5t-122 -46.5t-46 -122.5zM155 529q4 7 12 18t32 29t49 18
q22 0 52 -17.5t45 -17.5q10 0 19.5 4t16 9.5t11.5 11t8 9.5l3 4q6 0 19 -11.5t13 -18.5q-4 -7 -11.5 -17.5t-31.5 -28.5t-49 -18q-22 0 -52.5 17.5t-45.5 17.5q-10 0 -19 -4t-16 -9.5t-12 -11t-8 -9.5l-3 -4q-6 0 -19 11t-13 18z" />
    <glyph glyph-name="OE.smcp" horiz-adv-x="834" 
d="M460 0v49q-66 -55 -165 -55q-107 0 -178 66.5t-71 166.5q0 101 71 167.5t178 66.5q97 0 165 -55v49h325v-60h-250v-133h220v-60h-220v-142h254v-60h-329zM302 59q113 0 158 87v162q-46 88 -158 88q-79 0 -127 -46.5t-48 -122.5q0 -75 48 -121.5t127 -46.5z" />
    <glyph glyph-name="P.smcp" horiz-adv-x="449" 
d="M143 175v-175h-76v455h177q73 0 117.5 -39t44.5 -101q0 -61 -44.5 -100.5t-117.5 -39.5h-101zM240 395h-97v-160h97q41 0 64.5 22.5t23.5 57.5q0 36 -23.5 58t-64.5 22z" />
    <glyph glyph-name="Q.smcp" horiz-adv-x="590" 
d="M46 227q0 101 71 167.5t178 66.5t178 -66.5t71 -167.5q0 -91 -58.5 -155t-151.5 -75q16 -55 82 -55q41 0 66 22q8 0 26 -18.5t18 -26.5q-42 -42 -114 -42q-60 0 -101.5 32.5t-50.5 86.5q-94 11 -154 75t-60 156zM127 227q0 -75 46 -121.5t122 -46.5t122.5 46.5
t46.5 121.5q0 76 -46.5 122.5t-122.5 46.5t-122 -46.5t-46 -122.5z" />
    <glyph glyph-name="R.smcp" horiz-adv-x="453" 
d="M143 182v-182h-76v455h168q74 0 118.5 -38t44.5 -99q0 -45 -27 -79t-74 -48q59 -89 128 -151q0 -8 -20.5 -27t-29.5 -19q-93 85 -150 188h-82zM232 395h-89v-153h89q41 0 64.5 21t23.5 55t-23.5 55.5t-64.5 21.5z" />
    <glyph glyph-name="Racute.smcp" horiz-adv-x="453" 
d="M143 182v-182h-76v455h168q74 0 118.5 -38t44.5 -99q0 -45 -27 -79t-74 -48q59 -89 128 -151q0 -8 -20.5 -27t-29.5 -19q-93 85 -150 188h-82zM232 395h-89v-153h89q41 0 64.5 21t23.5 55t-23.5 55.5t-64.5 21.5zM146 519l120 135q11 0 28.5 -17.5t17.5 -28.5l-134 -120
q-8 0 -20 11.5t-12 19.5z" />
    <glyph glyph-name="Rcaron.smcp" horiz-adv-x="453" 
d="M143 182v-182h-76v455h168q74 0 118.5 -38t44.5 -99q0 -45 -27 -79t-74 -48q59 -89 128 -151q0 -8 -20.5 -27t-29.5 -19q-93 85 -150 188h-82zM232 395h-89v-153h89q41 0 64.5 21t23.5 55t-23.5 55.5t-64.5 21.5zM211 487l-122 125q0 8 12 19.5t20 11.5l95 -86l95 86
q8 0 20 -11.5t12 -19.5l-122 -125h-10z" />
    <glyph glyph-name="Rcommaaccent.smcp" horiz-adv-x="453" 
d="M143 182v-182h-76v455h168q74 0 118.5 -38t44.5 -99q0 -45 -27 -79t-74 -48q59 -89 128 -151q0 -8 -20.5 -27t-29.5 -19q-93 85 -150 188h-82zM232 395h-89v-153h89q41 0 64.5 21t23.5 55t-23.5 55.5t-64.5 21.5zM154 -171l72 145q13 0 34 -11t21 -21q0 -7 -23.5 -41
t-46.5 -65l-23 -31q-9 0 -21.5 8.5t-12.5 15.5z" />
    <glyph glyph-name="S.smcp" horiz-adv-x="431" 
d="M111 123v-37q37 -29 100 -29q47 0 74 16.5t27 45.5q0 21 -20 33.5t-76 35.5q-14 6 -22 9q-75 31 -106.5 60t-31.5 78q0 58 42.5 92t122.5 34q92 0 145 -49v-80q0 -7 -11.5 -18.5t-18.5 -11.5t-18.5 11.5t-11.5 18.5v40q-40 26 -88 26q-42 0 -65.5 -16.5t-23.5 -42.5
q0 -23 23.5 -38.5t86.5 -42.5q84 -36 114.5 -64t30.5 -70q0 -60 -45 -95t-128 -35q-94 0 -160 50v79q0 7 11 18.5t18 11.5q8 0 19.5 -11.5t11.5 -18.5z" />
    <glyph glyph-name="Sacute.smcp" horiz-adv-x="431" 
d="M111 123v-37q37 -29 100 -29q47 0 74 16.5t27 45.5q0 21 -20 33.5t-76 35.5q-14 6 -22 9q-75 31 -106.5 60t-31.5 78q0 58 42.5 92t122.5 34q92 0 145 -49v-80q0 -7 -11.5 -18.5t-18.5 -11.5t-18.5 11.5t-11.5 18.5v40q-40 26 -88 26q-42 0 -65.5 -16.5t-23.5 -42.5
q0 -23 23.5 -38.5t86.5 -42.5q84 -36 114.5 -64t30.5 -70q0 -60 -45 -95t-128 -35q-94 0 -160 50v79q0 7 11 18.5t18 11.5q8 0 19.5 -11.5t11.5 -18.5zM146 519l120 135q11 0 28.5 -17.5t17.5 -28.5l-134 -120q-8 0 -20 11.5t-12 19.5z" />
    <glyph glyph-name="Scaron.smcp" horiz-adv-x="431" 
d="M111 123v-37q37 -29 100 -29q47 0 74 16.5t27 45.5q0 21 -20 33.5t-76 35.5q-14 6 -22 9q-75 31 -106.5 60t-31.5 78q0 58 42.5 92t122.5 34q92 0 145 -49v-80q0 -7 -11.5 -18.5t-18.5 -11.5t-18.5 11.5t-11.5 18.5v40q-40 26 -88 26q-42 0 -65.5 -16.5t-23.5 -42.5
q0 -23 23.5 -38.5t86.5 -42.5q84 -36 114.5 -64t30.5 -70q0 -60 -45 -95t-128 -35q-94 0 -160 50v79q0 7 11 18.5t18 11.5q8 0 19.5 -11.5t11.5 -18.5zM210 487l-122 125q0 8 12 19.5t20 11.5l95 -86l95 86q8 0 19.5 -11.5t11.5 -19.5l-122 -125h-9z" />
    <glyph glyph-name="Scedilla.smcp" horiz-adv-x="431" 
d="M111 123v-37q37 -29 100 -29q47 0 74 16.5t27 45.5q0 21 -20 33.5t-76 35.5q-14 6 -22 9q-75 31 -106.5 60t-31.5 78q0 58 42.5 92t122.5 34q92 0 145 -49v-80q0 -7 -11.5 -18.5t-18.5 -11.5t-18.5 11.5t-11.5 18.5v40q-40 26 -88 26q-42 0 -65.5 -16.5t-23.5 -42.5
q0 -23 23.5 -38.5t86.5 -42.5q84 -36 114.5 -64t30.5 -70q0 -56 -40 -90.5t-115 -38.5l-4 -31q3 0 7.5 -0.5t16 -4t20.5 -8.5t16 -15.5t7 -24.5q0 -29 -28 -54.5t-56 -36.5l-28 -12q-8 0 -19 11t-11 19q10 3 24.5 9t39 23.5t24.5 33.5q0 13 -15.5 21t-30.5 9l-16 2l8 59
q-77 6 -133 49v79q0 7 11 18.5t18 11.5q8 0 19.5 -11.5t11.5 -18.5z" />
    <glyph glyph-name="Scircumflex.smcp" horiz-adv-x="431" 
d="M111 123v-37q37 -29 100 -29q47 0 74 16.5t27 45.5q0 21 -20 33.5t-76 35.5q-14 6 -22 9q-75 31 -106.5 60t-31.5 78q0 58 42.5 92t122.5 34q92 0 145 -49v-80q0 -7 -11.5 -18.5t-18.5 -11.5t-18.5 11.5t-11.5 18.5v40q-40 26 -88 26q-42 0 -65.5 -16.5t-23.5 -42.5
q0 -23 23.5 -38.5t86.5 -42.5q84 -36 114.5 -64t30.5 -70q0 -60 -45 -95t-128 -35q-94 0 -160 50v79q0 7 11 18.5t18 11.5q8 0 19.5 -11.5t11.5 -18.5zM219 642l122 -124q0 -8 -11.5 -20t-19.5 -12l-96 86l-94 -86q-8 0 -20 12t-12 20l122 124h9z" />
    <glyph glyph-name="Scommaaccent.smcp" horiz-adv-x="431" 
d="M111 123v-37q37 -29 100 -29q47 0 74 16.5t27 45.5q0 21 -20 33.5t-76 35.5q-14 6 -22 9q-75 31 -106.5 60t-31.5 78q0 58 42.5 92t122.5 34q92 0 145 -49v-80q0 -7 -11.5 -18.5t-18.5 -11.5t-18.5 11.5t-11.5 18.5v40q-40 26 -88 26q-42 0 -65.5 -16.5t-23.5 -42.5
q0 -23 23.5 -38.5t86.5 -42.5q84 -36 114.5 -64t30.5 -70q0 -60 -45 -95t-128 -35q-94 0 -160 50v79q0 7 11 18.5t18 11.5q8 0 19.5 -11.5t11.5 -18.5zM148 -171l71 145q14 0 35 -11t21 -21q0 -7 -23.5 -41t-46.5 -65l-23 -31q-9 0 -21.5 8.5t-12.5 15.5z" />
    <glyph glyph-name="T.smcp" horiz-adv-x="466" 
d="M27 395v60h411v-60h-168v-395h-75v395h-168z" />
    <glyph glyph-name="Tbar.smcp" horiz-adv-x="466" 
d="M27 395v60h411v-60h-168v-136h117v-54h-117v-205h-75v205h-117v54h117v136h-168z" />
    <glyph glyph-name="Tcaron.smcp" horiz-adv-x="466" 
d="M27 395v60h411v-60h-168v-395h-75v395h-168zM228 487l-122 125q0 8 11.5 19.5t19.5 11.5l96 -86l94 86q8 0 20 -11.5t12 -19.5l-122 -125h-9z" />
    <glyph glyph-name="Tcommaaccent.smcp" horiz-adv-x="466" 
d="M27 395v60h411v-60h-168v-395h-75v395h-168zM169 -171l71 145q13 0 34 -11t21 -21q0 -7 -23 -41t-46 -65l-23 -31q-9 0 -21.5 8.5t-12.5 15.5z" />
    <glyph glyph-name="uni021A.smcp" horiz-adv-x="466" 
d="M27 395v60h411v-60h-168v-395h-75v395h-168zM169 -171l71 145q13 0 34 -11t21 -21q0 -7 -23 -41t-46 -65l-23 -31q-9 0 -21.5 8.5t-12.5 15.5z" />
    <glyph glyph-name="U.smcp" 
d="M67 176v279h76v-279q0 -56 32 -86.5t93 -30.5t93 30.5t32 86.5v279h76v-279q0 -81 -55.5 -131.5t-145.5 -50.5t-145.5 50.5t-55.5 131.5z" />
    <glyph glyph-name="Uacute.smcp" 
d="M67 176v279h76v-279q0 -56 32 -86.5t93 -30.5t93 30.5t32 86.5v279h76v-279q0 -81 -55.5 -131.5t-145.5 -50.5t-145.5 50.5t-55.5 131.5zM195 519l120 135q11 0 28.5 -17.5t17.5 -28.5l-134 -120q-8 0 -20 11.5t-12 19.5z" />
    <glyph glyph-name="Ubreve.smcp" 
d="M67 176v279h76v-279q0 -56 32 -86.5t93 -30.5t93 30.5t32 86.5v279h76v-279q0 -81 -55.5 -131.5t-145.5 -50.5t-145.5 50.5t-55.5 131.5zM405 592q-2 -4 -5 -10.5t-15 -24t-26.5 -30.5t-39.5 -23.5t-54 -10.5t-54.5 10t-40.5 24.5t-26 29.5t-16 25l-4 10q0 7 15.5 18
t24.5 11q1 -3 3.5 -7.5t11 -17t19 -22t29 -17t38.5 -7.5q33 0 58 18t33 36l9 17q9 0 24.5 -11t15.5 -18z" />
    <glyph glyph-name="Ucircumflex.smcp" 
d="M67 176v279h76v-279q0 -56 32 -86.5t93 -30.5t93 30.5t32 86.5v279h76v-279q0 -81 -55.5 -131.5t-145.5 -50.5t-145.5 50.5t-55.5 131.5zM269 642l123 -124q0 -8 -12 -20t-20 -12l-95 86l-95 -86q-8 0 -20 12t-12 20l122 124h9z" />
    <glyph glyph-name="Udieresis.smcp" 
d="M67 176v279h76v-279q0 -56 32 -86.5t93 -30.5t93 30.5t32 86.5v279h76v-279q0 -81 -55.5 -131.5t-145.5 -50.5t-145.5 50.5t-55.5 131.5zM118 547q0 11 18 29t29 18t29 -18t18 -29t-18 -29t-29 -18t-29 18t-18 29zM317 547q0 11 18 29t29 18q12 0 29.5 -18t17.5 -29
t-17.5 -29t-29.5 -18q-11 0 -29 18t-18 29z" />
    <glyph glyph-name="Ugrave.smcp" 
d="M67 176v279h76v-279q0 -56 32 -86.5t93 -30.5t93 30.5t32 86.5v279h76v-279q0 -81 -55.5 -131.5t-145.5 -50.5t-145.5 50.5t-55.5 131.5zM214 654l119 -135q0 -8 -11.5 -19.5t-19.5 -11.5l-135 120q0 11 18 28.5t29 17.5z" />
    <glyph glyph-name="Uhungarumlaut.smcp" 
d="M67 176v279h76v-279q0 -56 32 -86.5t93 -30.5t93 30.5t32 86.5v279h76v-279q0 -81 -55.5 -131.5t-145.5 -50.5t-145.5 50.5t-55.5 131.5zM112 519l119 135q12 0 29.5 -17.5t17.5 -28.5l-135 -120q-8 0 -19.5 11.5t-11.5 19.5zM280 519l120 135q11 0 28.5 -17.5
t17.5 -28.5l-134 -120q-8 0 -20 11.5t-12 19.5z" />
    <glyph glyph-name="Umacron.smcp" 
d="M67 176v279h76v-279q0 -56 32 -86.5t93 -30.5t93 30.5t32 86.5v279h76v-279q0 -81 -55.5 -131.5t-145.5 -50.5t-145.5 50.5t-55.5 131.5zM128 518v54h273v-54h-273z" />
    <glyph glyph-name="Uogonek.smcp" 
d="M67 176v279h76v-279q0 -56 32 -86.5t93 -30.5t93 30.5t32 86.5v279h76v-279q0 -75 -47.5 -124t-125.5 -57q-5 -15 -5 -28q0 -29 18 -47.5t49 -18.5q33 0 50 16q7 0 19.5 -15t12.5 -23q-33 -31 -84 -31q-54 0 -87 31.5t-33 79.5q0 23 6 36q-80 8 -127.5 57t-47.5 124z" />
    <glyph glyph-name="Uring.smcp" 
d="M67 176v279h76v-279q0 -56 32 -86.5t93 -30.5t93 30.5t32 86.5v279h76v-279q0 -81 -55.5 -131.5t-145.5 -50.5t-145.5 50.5t-55.5 131.5zM172 572q0 40 26 65.5t67 25.5q40 0 66 -25.5t26 -65.5t-26 -65.5t-66 -25.5q-41 0 -67 25.5t-26 65.5zM215 572q0 -22 13.5 -35.5
t36.5 -13.5q22 0 35.5 13.5t13.5 35.5t-13.5 35.5t-35.5 13.5t-36 -13.5t-14 -35.5z" />
    <glyph glyph-name="Utilde.smcp" 
d="M67 176v279h76v-279q0 -56 32 -86.5t93 -30.5t93 30.5t32 86.5v279h76v-279q0 -81 -55.5 -131.5t-145.5 -50.5t-145.5 50.5t-55.5 131.5zM124 529q4 7 12 18t32 29t49 18q22 0 51.5 -17.5t45.5 -17.5q10 0 19.5 4t16 9.5t11.5 11t8 9.5l3 4q6 0 19 -11.5t13 -18.5
q-4 -7 -11.5 -17.5t-31.5 -28.5t-49 -18q-22 0 -52 17.5t-45 17.5q-10 0 -19.5 -4t-16.5 -9.5t-12 -11t-8 -9.5l-3 -4q-6 0 -19 11t-13 18z" />
    <glyph glyph-name="V.smcp" horiz-adv-x="527" 
d="M500 430l-202 -430h-70l-201 430q0 4 29 17.5t37 13.5l171 -367l170 367q9 0 37.5 -13.5t28.5 -17.5z" />
    <glyph glyph-name="W.smcp" horiz-adv-x="768" 
d="M741 437l-163 -437h-78l-116 331l-117 -331h-77l-163 437q0 4 30.5 14t38.5 10l132 -359l123 353h66l123 -353l131 359q9 0 39.5 -10t30.5 -14z" />
    <glyph glyph-name="Wacute.smcp" horiz-adv-x="768" 
d="M741 437l-163 -437h-78l-116 331l-117 -331h-77l-163 437q0 4 30.5 14t38.5 10l132 -359l123 353h66l123 -353l131 359q9 0 39.5 -10t30.5 -14zM314 519l120 135q11 0 28.5 -17.5t17.5 -28.5l-134 -120q-8 0 -20 11.5t-12 19.5z" />
    <glyph glyph-name="Wcircumflex.smcp" horiz-adv-x="768" 
d="M741 437l-163 -437h-78l-116 331l-117 -331h-77l-163 437q0 4 30.5 14t38.5 10l132 -359l123 353h66l123 -353l131 359q9 0 39.5 -10t30.5 -14zM387 642l123 -124q0 -8 -12 -20t-20 -12l-95 86l-95 -86q-8 0 -20 12t-12 20l122 124h9z" />
    <glyph glyph-name="Wdieresis.smcp" horiz-adv-x="768" 
d="M741 437l-163 -437h-78l-116 331l-117 -331h-77l-163 437q0 4 30.5 14t38.5 10l132 -359l123 353h66l123 -353l131 359q9 0 39.5 -10t30.5 -14zM237 547q0 11 18 29t29 18t29 -18t18 -29t-18 -29t-29 -18t-29 18t-18 29zM436 547q0 11 18 29t29 18q12 0 29.5 -18
t17.5 -29t-17.5 -29t-29.5 -18q-11 0 -29 18t-18 29z" />
    <glyph glyph-name="Wgrave.smcp" horiz-adv-x="768" 
d="M741 437l-163 -437h-78l-116 331l-117 -331h-77l-163 437q0 4 30.5 14t38.5 10l132 -359l123 353h66l123 -353l131 359q9 0 39.5 -10t30.5 -14zM333 654l119 -135q0 -8 -11.5 -19.5t-19.5 -11.5l-135 120q0 11 18 28.5t29 17.5z" />
    <glyph glyph-name="X.smcp" horiz-adv-x="503" 
d="M89 461l162 -176l163 176q8 0 31 -20t23 -28l-168 -181l176 -188q0 -9 -22.5 -29.5t-31.5 -20.5l-171 186l-171 -186q-8 0 -30.5 20.5t-22.5 29.5l174 188l-165 181q0 8 22.5 28t30.5 20z" />
    <glyph glyph-name="Y.smcp" horiz-adv-x="485" 
d="M205 0v195l-178 223q0 8 23 25.5t32 17.5l161 -204l161 204q9 0 31.5 -17.5t22.5 -25.5l-177 -224v-194h-76z" />
    <glyph glyph-name="Yacute.smcp" horiz-adv-x="485" 
d="M205 0v195l-178 223q0 8 23 25.5t32 17.5l161 -204l161 204q9 0 31.5 -17.5t22.5 -25.5l-177 -224v-194h-76zM173 519l120 135q11 0 28.5 -17.5t17.5 -28.5l-134 -120q-8 0 -20 11.5t-12 19.5z" />
    <glyph glyph-name="Ycircumflex.smcp" horiz-adv-x="485" 
d="M205 0v195l-178 223q0 8 23 25.5t32 17.5l161 -204l161 204q9 0 31.5 -17.5t22.5 -25.5l-177 -224v-194h-76zM247 642l122 -124q0 -8 -12 -20t-20 -12l-95 86l-95 -86q-8 0 -20 12t-12 20l122 124h10z" />
    <glyph glyph-name="Ydieresis.smcp" horiz-adv-x="485" 
d="M205 0v195l-178 223q0 8 23 25.5t32 17.5l161 -204l161 204q9 0 31.5 -17.5t22.5 -25.5l-177 -224v-194h-76zM96 547q0 11 18 29t29 18t29 -18t18 -29t-18 -29t-29 -18t-29 18t-18 29zM295 547q0 11 18 29t30 18q11 0 29 -18t18 -29t-18 -29t-29 -18q-12 0 -30 18t-18 29
z" />
    <glyph glyph-name="Ygrave.smcp" horiz-adv-x="485" 
d="M205 0v195l-178 223q0 8 23 25.5t32 17.5l161 -204l161 204q9 0 31.5 -17.5t22.5 -25.5l-177 -224v-194h-76zM191 654l120 -135q0 -8 -12 -19.5t-20 -11.5l-134 120q0 11 17.5 28.5t28.5 17.5z" />
    <glyph glyph-name="Z.smcp" horiz-adv-x="493" 
d="M52 395v60h360q7 0 18.5 -11t11.5 -18v-29l-296 -337h296v-60h-361q-7 0 -18 11t-11 18v29l294 337h-294z" />
    <glyph glyph-name="Zacute.smcp" horiz-adv-x="493" 
d="M52 395v60h360q7 0 18.5 -11t11.5 -18v-29l-296 -337h296v-60h-361q-7 0 -18 11t-11 18v29l294 337h-294zM179 519l119 135q11 0 29 -17.5t18 -28.5l-135 -120q-8 0 -19.5 11.5t-11.5 19.5z" />
    <glyph glyph-name="Zcaron.smcp" horiz-adv-x="493" 
d="M52 395v60h360q7 0 18.5 -11t11.5 -18v-29l-296 -337h296v-60h-361q-7 0 -18 11t-11 18v29l294 337h-294zM243 487l-122 125q0 8 11.5 19.5t19.5 11.5l96 -86l95 86q7 0 19 -11.5t12 -19.5l-122 -125h-9z" />
    <glyph glyph-name="Zdotaccent.smcp" horiz-adv-x="493" 
d="M52 395v60h360q7 0 18.5 -11t11.5 -18v-29l-296 -337h296v-60h-361q-7 0 -18 11t-11 18v29l294 337h-294zM192 563q0 13 21 34.5t35 21.5t35 -21.5t21 -34.5t-21 -34.5t-35 -21.5t-35 21.5t-21 34.5z" />
    <glyph glyph-name="uni018F.smcp" horiz-adv-x="556" 
d="M94 256h338q-4 68 -53 104t-125 36q-100 0 -150 -45q-7 0 -23.5 16.5t-16.5 24.5q76 70 193 70q115 0 186 -65.5t71 -174.5q0 -101 -62 -164.5t-172 -63.5q-107 0 -168.5 60t-61.5 159q0 9 18 26t26 17zM281 59q68 0 107 35.5t45 102.5h-303q0 -62 40 -100t111 -38z" />
    <glyph glyph-name="germandbls.smcp" horiz-adv-x="447" 
d="M283 52q53 0 53 36q0 14 -13.5 22.5t-53.5 24.5q-51 20 -71 39.5t-20 48.5q0 25 14 42.5t31.5 25.5t31.5 22.5t14 34.5q0 23 -18.5 37t-48.5 14q-34 0 -52.5 -19.5t-18.5 -56.5v-323h-73v327q0 61 38 97.5t108 36.5q63 0 100.5 -29t37.5 -77q0 -29 -15 -50t-33.5 -31
t-33.5 -21.5t-15 -24.5t13 -21.5t48 -22.5q57 -25 77.5 -43t20.5 -53q0 -44 -31 -69t-89 -25q-68 0 -115 43q0 8 17 24.5t25 16.5q29 -26 72 -26z" />
    <glyph glyph-name="zero.fitted" horiz-adv-x="610" 
d="M46 350q0 154 73.5 255.5t185.5 101.5t185.5 -101.5t73.5 -255.5t-73.5 -255.5t-185.5 -101.5t-185.5 101.5t-73.5 255.5zM129 350q0 -129 48.5 -209t127.5 -80t127.5 80t48.5 209t-48.5 209t-127.5 80t-127.5 -80t-48.5 -209z" />
    <glyph glyph-name="one.fitted" horiz-adv-x="610" 
d="M535 32q0 -8 -11.5 -20t-19.5 -12h-372q-8 0 -20 12t-12 20q0 7 12 19t20 12h150v561l-154 -43q-7 0 -18.5 22t-11.5 33l225 64h37v-637h144q8 0 19.5 -11.5t11.5 -19.5z" />
    <glyph glyph-name="two.fitted" horiz-adv-x="610" 
d="M536 510q0 -60 -38 -127.5t-92 -121t-108 -98.5t-92 -70l-38 -25h378v-68h-456q-8 0 -20 12t-12 20v36q16 10 43 28.5t95 72t120 104t95 116t43 116.5q0 56 -43 94.5t-118 38.5q-110 0 -189 -79q-9 0 -27.5 18.5t-18.5 28.5q101 101 241 101q110 0 173.5 -57.5
t63.5 -139.5z" />
    <glyph glyph-name="three.fitted" horiz-adv-x="610" 
d="M85 632v68h389q8 0 20 -12t12 -20v-31l-193 -215q7 1 21 1q97 0 153 -55t56 -152q0 -105 -67 -164t-184 -59q-150 0 -246 94q0 10 18.5 28t27.5 18q74 -71 194 -71q82 0 128 41t46 114q0 65 -37.5 103t-106.5 38q-19 0 -37.5 -3t-30.5 -5.5t-13 -2.5q-7 0 -22.5 16
t-15.5 25l220 244h-332z" />
    <glyph glyph-name="four.fitted" horiz-adv-x="610" 
d="M399 0v147h-326q-7 0 -19 11.5t-12 19.5v32l362 490h73v-490h81v-63h-81v-147h-78zM126 215h273v368z" />
    </font>
</defs>
</svg>
