<svg width="1039" height="400" viewBox="0 0 1039 400" fill="none" xmlns="http://www.w3.org/2000/svg">
<path d="M6.706 294.402C6.706 293.214 7.006 292.218 7.606 291.414C8.206 290.598 9.01 290.088 10.018 289.884L10.342 291.306C9.61 291.438 9.028 291.786 8.596 292.35C8.164 292.914 7.948 293.61 7.948 294.438C7.948 295.254 8.152 295.914 8.56 296.418C8.956 296.922 9.478 297.174 10.126 297.174C10.642 297.174 11.044 297.024 11.332 296.724C11.608 296.412 11.806 295.956 11.926 295.356L12.52 292.728C12.952 290.7 13.996 289.686 15.652 289.686C16.744 289.686 17.614 290.094 18.262 290.91C18.91 291.726 19.234 292.812 19.234 294.168C19.234 295.476 18.916 296.586 18.28 297.498C17.632 298.398 16.75 298.92 15.634 299.064L15.328 297.57C16.168 297.438 16.822 297.054 17.29 296.418C17.746 295.782 17.974 294.99 17.974 294.042C17.974 293.13 17.77 292.416 17.362 291.9C16.942 291.372 16.396 291.108 15.724 291.108C15.172 291.108 14.758 291.264 14.482 291.576C14.206 291.876 13.99 292.374 13.834 293.07L13.24 295.788C12.808 297.72 11.782 298.686 10.162 298.686C9.13 298.686 8.296 298.296 7.66 297.516C7.024 296.724 6.706 295.686 6.706 294.402ZM17.398 282.429L18.532 281.979C19 282.651 19.234 283.335 19.234 284.031C19.234 284.931 18.976 285.645 18.46 286.173C17.932 286.701 17.188 286.965 16.228 286.965L11.278 286.965L11.278 288.891L10.126 288.891L10.126 286.965L6.94 286.965L6.94 285.579L10.126 285.579L10.126 282.411L11.278 282.411L11.278 285.579L16.138 285.579C16.702 285.579 17.146 285.435 17.47 285.147C17.782 284.847 17.938 284.445 17.938 283.941C17.938 283.437 17.758 282.933 17.398 282.429ZM9.91 276.645C9.91 275.517 10.204 274.623 10.792 273.963C11.368 273.303 12.184 272.973 13.24 272.973L19 272.973L19 274.305L17.65 274.305C18.706 275.097 19.234 276.207 19.234 277.635C19.234 278.607 18.982 279.387 18.478 279.975C17.974 280.563 17.32 280.857 16.516 280.857C15.688 280.857 15.022 280.545 14.518 279.921C14.002 279.297 13.744 278.421 13.744 277.293L13.744 274.305L13.33 274.305C12.646 274.305 12.106 274.509 11.71 274.917C11.314 275.325 11.116 275.877 11.116 276.573C11.116 277.245 11.278 277.803 11.602 278.247C11.914 278.691 12.346 278.961 12.898 279.057L12.61 280.371C11.806 280.227 11.158 279.813 10.666 279.129C10.162 278.445 9.91 277.617 9.91 276.645ZM18.1 277.437C18.1 276.561 17.83 275.823 17.29 275.223C16.75 274.611 16.084 274.305 15.292 274.305L14.824 274.305L14.824 277.311C14.824 278.019 14.98 278.571 15.292 278.967C15.592 279.351 15.994 279.543 16.498 279.543C16.966 279.543 17.35 279.351 17.65 278.967C17.95 278.583 18.1 278.073 18.1 277.437ZM9.91 265.522C9.91 264.454 10.258 263.596 10.954 262.948C11.65 262.288 12.562 261.958 13.69 261.958L19 261.958L19 263.326L13.942 263.326C13.114 263.326 12.448 263.554 11.944 264.01C11.428 264.466 11.17 265.06 11.17 265.792C11.17 266.74 11.482 267.49 12.106 268.042C12.73 268.594 13.606 268.87 14.734 268.87L19 268.87L19 270.238L10.126 270.238L10.126 268.87L11.602 268.87C10.474 268.114 9.91 266.998 9.91 265.522ZM5.14 250.492L19 250.492L19 251.86L17.524 251.86C18.664 252.676 19.234 253.852 19.234 255.388C19.234 256.6 18.802 257.644 17.938 258.52C17.062 259.384 15.94 259.816 14.572 259.816C13.204 259.816 12.088 259.384 11.224 258.52C10.348 257.644 9.91 256.6 9.91 255.388C9.91 253.852 10.48 252.676 11.62 251.86L5.14 251.86L5.14 250.492ZM18.01 255.172C18.01 254.296 17.692 253.528 17.056 252.868C16.408 252.196 15.58 251.86 14.572 251.86C13.552 251.86 12.724 252.196 12.088 252.868C11.44 253.528 11.116 254.296 11.116 255.172C11.116 256.12 11.434 256.912 12.07 257.548C12.706 258.172 13.54 258.484 14.572 258.484C15.604 258.484 16.438 258.166 17.074 257.53C17.698 256.894 18.01 256.108 18.01 255.172ZM9.91 243.914C9.91 242.786 10.204 241.892 10.792 241.232C11.368 240.572 12.184 240.242 13.24 240.242L19 240.242L19 241.574L17.65 241.574C18.706 242.366 19.234 243.476 19.234 244.904C19.234 245.876 18.982 246.656 18.478 247.244C17.974 247.832 17.32 248.126 16.516 248.126C15.688 248.126 15.022 247.814 14.518 247.19C14.002 246.566 13.744 245.69 13.744 244.562L13.744 241.574L13.33 241.574C12.646 241.574 12.106 241.778 11.71 242.186C11.314 242.594 11.116 243.146 11.116 243.842C11.116 244.514 11.278 245.072 11.602 245.516C11.914 245.96 12.346 246.23 12.898 246.326L12.61 247.64C11.806 247.496 11.158 247.082 10.666 246.398C10.162 245.714 9.91 244.886 9.91 243.914ZM18.1 244.706C18.1 243.83 17.83 243.092 17.29 242.492C16.75 241.88 16.084 241.574 15.292 241.574L14.824 241.574L14.824 244.58C14.824 245.288 14.98 245.84 15.292 246.236C15.592 246.62 15.994 246.812 16.498 246.812C16.966 246.812 17.35 246.62 17.65 246.236C17.95 245.852 18.1 245.342 18.1 244.706ZM10.036 232.558C10.036 232.306 10.06 232.096 10.108 231.928L11.422 232.036C11.41 232.144 11.404 232.318 11.404 232.558C11.404 233.698 11.788 234.58 12.556 235.204C13.324 235.816 14.332 236.122 15.58 236.122L19 236.122L19 237.508L10.126 237.508L10.126 236.122L12.304 236.122C10.792 235.294 10.036 234.106 10.036 232.558ZM5.14 221.91L19 221.91L19 223.278L17.524 223.278C18.664 224.094 19.234 225.27 19.234 226.806C19.234 228.018 18.802 229.062 17.938 229.938C17.062 230.802 15.94 231.234 14.572 231.234C13.204 231.234 12.088 230.802 11.224 229.938C10.348 229.062 9.91 228.018 9.91 226.806C9.91 225.27 10.48 224.094 11.62 223.278L5.14 223.278L5.14 221.91ZM18.01 226.59C18.01 225.714 17.692 224.946 17.056 224.286C16.408 223.614 15.58 223.278 14.572 223.278C13.552 223.278 12.724 223.614 12.088 224.286C11.44 224.946 11.116 225.714 11.116 226.59C11.116 227.538 11.434 228.33 12.07 228.966C12.706 229.59 13.54 229.902 14.572 229.902C15.604 229.902 16.438 229.584 17.074 228.948C17.698 228.312 18.01 227.526 18.01 226.59ZM6.94 214.199L6.94 210.203C6.94 208.139 7.504 206.513 8.632 205.325C9.76 204.125 11.206 203.525 12.97 203.525C14.722 203.525 16.168 204.125 17.308 205.325C18.436 206.513 19 208.139 19 210.203L19 214.199L6.94 214.199ZM17.704 212.777L17.704 210.221C17.704 208.577 17.26 207.293 16.372 206.369C15.484 205.433 14.35 204.965 12.97 204.965C11.578 204.965 10.438 205.433 9.55 206.369C8.662 207.293 8.218 208.577 8.218 210.221L8.218 212.777L17.704 212.777ZM14.338 192.809L14.842 192.809L14.842 200.423C15.802 200.363 16.576 200.021 17.164 199.397C17.74 198.773 18.028 198.059 18.028 197.255C18.028 195.803 17.392 194.795 16.12 194.231L16.408 193.007C17.32 193.355 18.022 193.901 18.514 194.645C18.994 195.377 19.234 196.247 19.234 197.255C19.234 198.479 18.802 199.535 17.938 200.423C17.074 201.311 15.958 201.755 14.59 201.755C13.21 201.755 12.088 201.305 11.224 200.405C10.348 199.505 9.91 198.425 9.91 197.165C9.91 195.953 10.324 194.939 11.152 194.123C11.968 193.295 13.03 192.857 14.338 192.809ZM11.116 197.165C11.116 197.933 11.362 198.629 11.854 199.253C12.334 199.865 12.988 200.237 13.816 200.369L13.816 194.195C12.964 194.315 12.304 194.651 11.836 195.203C11.356 195.755 11.116 196.409 11.116 197.165ZM10.126 182.65L19 186.574L19 188.068L10.126 191.992L10.126 190.498L17.38 187.312L10.126 184.144L10.126 182.65ZM6.79599 180.586C6.61599 180.406 6.52599 180.184 6.52599 179.92C6.52599 179.656 6.61599 179.434 6.79599 179.254C6.97599 179.062 7.19199 178.966 7.44399 178.966C7.70799 178.966 7.92999 179.056 8.10999 179.236C8.27799 179.416 8.36199 179.644 8.36199 179.92C8.36199 180.184 8.27799 180.406 8.10999 180.586C7.92999 180.766 7.70799 180.856 7.44399 180.856C7.19199 180.856 6.97599 180.766 6.79599 180.586ZM19 179.218L19 180.604L10.126 180.604L10.126 179.218L19 179.218ZM9.90999 172.512C9.90999 171.384 10.204 170.49 10.792 169.83C11.368 169.17 12.184 168.84 13.24 168.84L19 168.84L19 170.172L17.65 170.172C18.706 170.964 19.234 172.074 19.234 173.502C19.234 174.474 18.982 175.254 18.478 175.842C17.974 176.43 17.32 176.724 16.516 176.724C15.688 176.724 15.022 176.412 14.518 175.788C14.002 175.164 13.744 174.288 13.744 173.16L13.744 170.172L13.33 170.172C12.646 170.172 12.106 170.376 11.71 170.784C11.314 171.192 11.116 171.744 11.116 172.44C11.116 173.112 11.278 173.67 11.602 174.114C11.914 174.558 12.346 174.828 12.898 174.924L12.61 176.238C11.806 176.094 11.158 175.68 10.666 174.996C10.162 174.312 9.90999 173.484 9.90999 172.512ZM18.1 173.304C18.1 172.428 17.83 171.69 17.29 171.09C16.75 170.478 16.084 170.172 15.292 170.172L14.824 170.172L14.824 173.178C14.824 173.886 14.98 174.438 15.292 174.834C15.592 175.218 15.994 175.41 16.498 175.41C16.966 175.41 17.35 175.218 17.65 174.834C17.95 174.45 18.1 173.94 18.1 173.304ZM17.398 161.227L18.532 160.777C19 161.449 19.234 162.133 19.234 162.829C19.234 163.729 18.976 164.443 18.46 164.971C17.932 165.499 17.188 165.763 16.228 165.763L11.278 165.763L11.278 167.689L10.126 167.689L10.126 165.763L6.93999 165.763L6.93999 164.377L10.126 164.377L10.126 161.209L11.278 161.209L11.278 164.377L16.138 164.377C16.702 164.377 17.146 164.233 17.47 163.945C17.782 163.645 17.938 163.243 17.938 162.739C17.938 162.235 17.758 161.731 17.398 161.227ZM6.79599 158.859C6.61599 158.679 6.52599 158.457 6.52599 158.193C6.52599 157.929 6.61599 157.707 6.79599 157.527C6.97599 157.335 7.19199 157.239 7.44399 157.239C7.70799 157.239 7.92999 157.329 8.10999 157.509C8.27799 157.689 8.36199 157.917 8.36199 158.193C8.36199 158.457 8.27799 158.679 8.10999 158.859C7.92999 159.039 7.70799 159.129 7.44399 159.129C7.19199 159.129 6.97599 159.039 6.79599 158.859ZM19 157.491L19 158.877L10.126 158.877L10.126 157.491L19 157.491ZM9.92799 150.281C9.92799 148.961 10.366 147.851 11.242 146.951C12.106 146.039 13.21 145.583 14.554 145.583C15.898 145.583 17.014 146.039 17.902 146.951C18.778 147.851 19.216 148.961 19.216 150.281C19.216 151.613 18.778 152.735 17.902 153.647C17.014 154.547 15.898 154.997 14.554 154.997C13.21 154.997 12.106 154.547 11.242 153.647C10.366 152.735 9.92799 151.613 9.92799 150.281ZM18.01 150.281C18.01 149.357 17.686 148.571 17.038 147.923C16.39 147.263 15.562 146.933 14.554 146.933C13.558 146.933 12.742 147.263 12.106 147.923C11.458 148.571 11.134 149.357 11.134 150.281C11.134 151.217 11.458 152.015 12.106 152.675C12.742 153.335 13.558 153.665 14.554 153.665C15.562 153.665 16.39 153.335 17.038 152.675C17.686 152.015 18.01 151.217 18.01 150.281ZM9.90999 138.52C9.90999 137.452 10.258 136.594 10.954 135.946C11.65 135.286 12.562 134.956 13.69 134.956L19 134.956L19 136.324L13.942 136.324C13.114 136.324 12.448 136.552 11.944 137.008C11.428 137.464 11.17 138.058 11.17 138.79C11.17 139.738 11.482 140.488 12.106 141.04C12.73 141.592 13.606 141.868 14.734 141.868L19 141.868L19 143.236L10.126 143.236L10.126 141.868L11.602 141.868C10.474 141.112 9.90999 139.996 9.90999 138.52ZM9.92799 123.563C9.92799 122.243 10.366 121.133 11.242 120.233C12.106 119.321 13.21 118.865 14.554 118.865C15.898 118.865 17.014 119.321 17.902 120.233C18.778 121.133 19.216 122.243 19.216 123.563C19.216 124.895 18.778 126.017 17.902 126.929C17.014 127.829 15.898 128.279 14.554 128.279C13.21 128.279 12.106 127.829 11.242 126.929C10.366 126.017 9.92799 124.895 9.92799 123.563ZM18.01 123.563C18.01 122.639 17.686 121.853 17.038 121.205C16.39 120.545 15.562 120.215 14.554 120.215C13.558 120.215 12.742 120.545 12.106 121.205C11.458 121.853 11.134 122.639 11.134 123.563C11.134 124.499 11.458 125.297 12.106 125.957C12.742 126.617 13.558 126.947 14.554 126.947C15.562 126.947 16.39 126.617 17.038 125.957C17.686 125.297 18.01 124.499 18.01 123.563ZM11.278 111.691L11.278 114.913L19 114.913L19 116.281L11.278 116.281L11.278 117.829L10.126 117.829L10.126 116.281L8.03799 116.281C7.08999 116.281 6.33999 116.005 5.78799 115.453C5.23599 114.901 4.95999 114.163 4.95999 113.239C4.95999 112.723 5.06199 112.243 5.26599 111.799L6.39999 112.141C6.25599 112.465 6.18399 112.801 6.18399 113.149C6.18399 113.689 6.35199 114.121 6.68799 114.445C7.02399 114.757 7.47399 114.913 8.03799 114.913L10.126 114.913L10.126 111.691L11.278 111.691ZM19 95.6283L19 97.4103L13.834 102.018L13.834 104.232L19 104.232L19 105.654L6.93999 105.654L6.93999 100.074C6.93999 98.8983 7.25799 97.9503 7.89399 97.2303C8.51799 96.4983 9.34599 96.1323 10.378 96.1323C11.41 96.1323 12.244 96.4983 12.88 97.2303C13.516 97.9503 13.834 98.8983 13.834 100.074L13.834 100.29L19 95.6283ZM12.538 104.232L12.538 100.074C12.538 99.3183 12.34 98.7123 11.944 98.2563C11.548 97.7883 11.026 97.5543 10.378 97.5543C9.72999 97.5543 9.20799 97.7883 8.81199 98.2563C8.41599 98.7123 8.21799 99.3183 8.21799 100.074L8.21799 104.232L12.538 104.232ZM14.338 85.6882L14.842 85.6882L14.842 93.3022C15.802 93.2422 16.576 92.9002 17.164 92.2762C17.74 91.6522 18.028 90.9382 18.028 90.1342C18.028 88.6822 17.392 87.6742 16.12 87.1102L16.408 85.8862C17.32 86.2342 18.022 86.7802 18.514 87.5242C18.994 88.2562 19.234 89.1262 19.234 90.1342C19.234 91.3582 18.802 92.4142 17.938 93.3022C17.074 94.1902 15.958 94.6342 14.59 94.6342C13.21 94.6342 12.088 94.1842 11.224 93.2842C10.348 92.3842 9.90999 91.3042 9.90999 90.0442C9.90999 88.8322 10.324 87.8182 11.152 87.0022C11.968 86.1742 13.03 85.7362 14.338 85.6882ZM11.116 90.0442C11.116 90.8122 11.362 91.5082 11.854 92.1322C12.334 92.7442 12.988 93.1162 13.816 93.2482L13.816 87.0742C12.964 87.1942 12.304 87.5302 11.836 88.0822C11.356 88.6342 11.116 89.2882 11.116 90.0442ZM17.398 78.4521L18.532 78.0021C19 78.6741 19.234 79.3581 19.234 80.0541C19.234 80.9541 18.976 81.6681 18.46 82.1961C17.932 82.7241 17.188 82.9881 16.228 82.9881L11.278 82.9881L11.278 84.9141L10.126 84.9141L10.126 82.9881L6.93999 82.9881L6.93999 81.6021L10.126 81.6021L10.126 78.4341L11.278 78.4341L11.278 81.6021L16.138 81.6021C16.702 81.6021 17.146 81.4581 17.47 81.1701C17.782 80.8701 17.938 80.4681 17.938 79.9641C17.938 79.4601 17.758 78.9561 17.398 78.4521ZM10.126 68.3399L18.982 68.3399L18.982 69.7259L17.542 69.7259C18.658 70.4819 19.216 71.5979 19.216 73.0739C19.216 74.1419 18.868 75.0059 18.172 75.6659C17.476 76.3139 16.564 76.6379 15.436 76.6379L10.126 76.6379L10.126 75.2519L15.184 75.2519C16.012 75.2519 16.678 75.0299 17.182 74.5859C17.686 74.1299 17.938 73.5359 17.938 72.8039C17.938 71.8559 17.632 71.1059 17.02 70.5539C16.396 70.0019 15.52 69.7259 14.392 69.7259L10.126 69.7259L10.126 68.3399ZM10.036 60.2394C10.036 59.9874 10.06 59.7774 10.108 59.6094L11.422 59.7174C11.41 59.8254 11.404 59.9994 11.404 60.2394C11.404 61.3794 11.788 62.2614 12.556 62.8854C13.324 63.4974 14.332 63.8034 15.58 63.8034L19 63.8034L19 65.1894L10.126 65.1894L10.126 63.8034L12.304 63.8034C10.792 62.9754 10.036 61.7874 10.036 60.2394ZM9.90999 53.0555C9.90999 51.9875 10.258 51.1295 10.954 50.4815C11.65 49.8215 12.562 49.4915 13.69 49.4915L19 49.4915L19 50.8595L13.942 50.8595C13.114 50.8595 12.448 51.0875 11.944 51.5435C11.428 51.9995 11.17 52.5935 11.17 53.3255C11.17 54.2735 11.482 55.0235 12.106 55.5755C12.73 56.1275 13.606 56.4035 14.734 56.4035L19 56.4035L19 57.7715L10.126 57.7715L10.126 56.4035L11.602 56.4035C10.474 55.6475 9.90999 54.5315 9.90999 53.0555ZM16.606 47.295L16.3 45.927C16.876 45.867 17.32 45.597 17.632 45.117C17.944 44.637 18.1 44.037 18.1 43.317C18.1 42.681 17.962 42.171 17.686 41.787C17.41 41.391 17.044 41.193 16.588 41.193C15.952 41.193 15.526 41.679 15.31 42.651L14.86 44.685C14.536 46.221 13.78 46.989 12.592 46.989C11.788 46.989 11.14 46.683 10.648 46.071C10.156 45.459 9.90999 44.643 9.90999 43.623C9.90999 42.651 10.138 41.847 10.594 41.211C11.038 40.575 11.632 40.173 12.376 40.005L12.664 41.319C12.172 41.415 11.776 41.667 11.476 42.075C11.176 42.483 11.026 43.011 11.026 43.659C11.026 44.271 11.164 44.751 11.44 45.099C11.704 45.447 12.052 45.621 12.484 45.621C12.82 45.621 13.084 45.513 13.276 45.297C13.456 45.069 13.6 44.727 13.708 44.271L14.176 42.129C14.512 40.605 15.286 39.843 16.498 39.843C17.362 39.843 18.034 40.173 18.514 40.833C18.994 41.481 19.234 42.345 19.234 43.425C19.234 44.481 19.006 45.363 18.55 46.071C18.094 46.779 17.446 47.187 16.606 47.295Z" fill="#212529"/>
<path d="M416.114 378.94V391H414.89L407.006 381.424V391H405.584V378.94H406.808L414.692 388.624V378.94H416.114ZM427.342 382.126V390.982H425.956V389.542C425.2 390.658 424.084 391.216 422.608 391.216C421.54 391.216 420.676 390.868 420.016 390.172C419.368 389.476 419.044 388.564 419.044 387.436V382.126H420.43V387.184C420.43 388.012 420.652 388.678 421.096 389.182C421.552 389.686 422.146 389.938 422.878 389.938C423.826 389.938 424.576 389.632 425.128 389.02C425.68 388.396 425.956 387.52 425.956 386.392V382.126H427.342ZM441.256 381.91C442.204 381.91 442.99 382.222 443.614 382.846C444.25 383.458 444.568 384.262 444.568 385.258V391H443.2V385.492C443.2 384.796 442.984 384.238 442.552 383.818C442.132 383.386 441.586 383.17 440.914 383.17C440.086 383.17 439.426 383.464 438.934 384.052C438.442 384.628 438.196 385.432 438.196 386.464V391H436.828V385.492C436.828 384.796 436.612 384.238 436.18 383.818C435.76 383.386 435.22 383.17 434.56 383.17C433.732 383.17 433.072 383.464 432.58 384.052C432.1 384.628 431.86 385.432 431.86 386.464V391H430.492V382.126H431.86V383.476C432.532 382.432 433.54 381.91 434.884 381.91C435.568 381.91 436.174 382.072 436.702 382.396C437.242 382.708 437.644 383.146 437.908 383.71C438.652 382.51 439.768 381.91 441.256 381.91ZM452.421 381.91C453.633 381.91 454.671 382.348 455.535 383.224C456.411 384.088 456.849 385.204 456.849 386.572C456.849 387.94 456.411 389.062 455.535 389.938C454.671 390.802 453.633 391.234 452.421 391.234C450.885 391.234 449.709 390.664 448.893 389.524V391H447.525V377.14H448.893V383.62C449.709 382.48 450.885 381.91 452.421 381.91ZM452.205 390.01C453.141 390.01 453.927 389.698 454.563 389.074C455.199 388.438 455.517 387.604 455.517 386.572C455.517 385.54 455.199 384.706 454.563 384.07C453.927 383.434 453.141 383.116 452.205 383.116C451.329 383.116 450.555 383.44 449.883 384.088C449.223 384.724 448.893 385.552 448.893 386.572C448.893 387.58 449.223 388.408 449.883 389.056C450.555 389.692 451.329 390.01 452.205 390.01ZM467.351 386.338V386.842H459.737C459.797 387.802 460.139 388.576 460.763 389.164C461.387 389.74 462.101 390.028 462.905 390.028C464.357 390.028 465.365 389.392 465.929 388.12L467.153 388.408C466.805 389.32 466.259 390.022 465.515 390.514C464.783 390.994 463.913 391.234 462.905 391.234C461.681 391.234 460.625 390.802 459.737 389.938C458.849 389.074 458.405 387.958 458.405 386.59C458.405 385.21 458.855 384.088 459.755 383.224C460.655 382.348 461.735 381.91 462.995 381.91C464.207 381.91 465.221 382.324 466.037 383.152C466.865 383.968 467.303 385.03 467.351 386.338ZM462.995 383.116C462.227 383.116 461.531 383.362 460.907 383.854C460.295 384.334 459.923 384.988 459.791 385.816H465.965C465.845 384.964 465.509 384.304 464.957 383.836C464.405 383.356 463.751 383.116 462.995 383.116ZM474.659 382.036C474.911 382.036 475.121 382.06 475.289 382.108L475.181 383.422C475.073 383.41 474.899 383.404 474.659 383.404C473.519 383.404 472.637 383.788 472.013 384.556C471.401 385.324 471.095 386.332 471.095 387.58V391H469.709V382.126H471.095V384.304C471.923 382.792 473.111 382.036 474.659 382.036ZM485.568 381.928C486.888 381.928 487.998 382.366 488.898 383.242C489.81 384.106 490.266 385.21 490.266 386.554C490.266 387.898 489.81 389.014 488.898 389.902C487.998 390.778 486.888 391.216 485.568 391.216C484.236 391.216 483.114 390.778 482.202 389.902C481.302 389.014 480.852 387.898 480.852 386.554C480.852 385.21 481.302 384.106 482.202 383.242C483.114 382.366 484.236 381.928 485.568 381.928ZM485.568 390.01C486.492 390.01 487.278 389.686 487.926 389.038C488.586 388.39 488.916 387.562 488.916 386.554C488.916 385.558 488.586 384.742 487.926 384.106C487.278 383.458 486.492 383.134 485.568 383.134C484.632 383.134 483.834 383.458 483.174 384.106C482.514 384.742 482.184 385.558 482.184 386.554C482.184 387.562 482.514 388.39 483.174 389.038C483.834 389.686 484.632 390.01 485.568 390.01ZM497.439 383.278H494.217V391H492.849V383.278H491.301V382.126H492.849V380.038C492.849 379.09 493.125 378.34 493.677 377.788C494.229 377.236 494.967 376.96 495.891 376.96C496.407 376.96 496.887 377.062 497.331 377.266L496.989 378.4C496.665 378.256 496.329 378.184 495.981 378.184C495.441 378.184 495.009 378.352 494.685 378.688C494.373 379.024 494.217 379.474 494.217 380.038V382.126H497.439V383.278ZM507.491 378.706C508.679 378.706 509.675 379.006 510.479 379.606C511.295 380.206 511.805 381.01 512.009 382.018L510.587 382.342C510.455 381.61 510.107 381.028 509.543 380.596C508.979 380.164 508.283 379.948 507.455 379.948C506.639 379.948 505.979 380.152 505.475 380.56C504.971 380.956 504.719 381.478 504.719 382.126C504.719 382.642 504.869 383.044 505.169 383.332C505.481 383.608 505.937 383.806 506.537 383.926L509.165 384.52C511.193 384.952 512.207 385.996 512.207 387.652C512.207 388.744 511.799 389.614 510.983 390.262C510.167 390.91 509.081 391.234 507.725 391.234C506.417 391.234 505.307 390.916 504.395 390.28C503.495 389.632 502.973 388.75 502.829 387.634L504.323 387.328C504.455 388.168 504.839 388.822 505.475 389.29C506.111 389.746 506.903 389.974 507.851 389.974C508.763 389.974 509.477 389.77 509.993 389.362C510.521 388.942 510.785 388.396 510.785 387.724C510.785 387.172 510.629 386.758 510.317 386.482C510.017 386.206 509.519 385.99 508.823 385.834L506.105 385.24C504.173 384.808 503.207 383.782 503.207 382.162C503.207 381.13 503.597 380.296 504.377 379.66C505.169 379.024 506.207 378.706 507.491 378.706ZM519.464 389.398L519.914 390.532C519.242 391 518.558 391.234 517.862 391.234C516.962 391.234 516.248 390.976 515.72 390.46C515.192 389.932 514.928 389.188 514.928 388.228V383.278H513.002V382.126H514.928V378.94H516.314V382.126H519.482V383.278H516.314V388.138C516.314 388.702 516.458 389.146 516.746 389.47C517.046 389.782 517.448 389.938 517.952 389.938C518.456 389.938 518.96 389.758 519.464 389.398ZM525.312 381.928C526.632 381.928 527.742 382.366 528.642 383.242C529.554 384.106 530.01 385.21 530.01 386.554C530.01 387.898 529.554 389.014 528.642 389.902C527.742 390.778 526.632 391.216 525.312 391.216C523.98 391.216 522.858 390.778 521.946 389.902C521.046 389.014 520.596 387.898 520.596 386.554C520.596 385.21 521.046 384.106 521.946 383.242C522.858 382.366 523.98 381.928 525.312 381.928ZM525.312 390.01C526.236 390.01 527.022 389.686 527.67 389.038C528.33 388.39 528.66 387.562 528.66 386.554C528.66 385.558 528.33 384.742 527.67 384.106C527.022 383.458 526.236 383.134 525.312 383.134C524.376 383.134 523.578 383.458 522.918 384.106C522.258 384.742 521.928 385.558 521.928 386.554C521.928 387.562 522.258 388.39 522.918 389.038C523.578 389.686 524.376 390.01 525.312 390.01ZM536.173 389.956C536.845 389.956 537.445 389.782 537.973 389.434C538.501 389.086 538.879 388.594 539.107 387.958L540.367 388.3C540.103 389.176 539.581 389.884 538.801 390.424C538.033 390.964 537.157 391.234 536.173 391.234C534.889 391.234 533.797 390.802 532.897 389.938C531.997 389.074 531.547 387.952 531.547 386.572C531.547 385.204 531.997 384.088 532.897 383.224C533.797 382.348 534.889 381.91 536.173 381.91C537.157 381.91 538.033 382.18 538.801 382.72C539.569 383.248 540.097 383.962 540.385 384.862L539.071 385.258C538.855 384.586 538.483 384.07 537.955 383.71C537.439 383.35 536.845 383.17 536.173 383.17C535.249 383.17 534.469 383.488 533.833 384.124C533.197 384.76 532.879 385.576 532.879 386.572C532.879 387.58 533.191 388.396 533.815 389.02C534.451 389.644 535.237 389.956 536.173 389.956ZM551.747 391H550.001L546.221 386.824L544.097 389.056V391H542.729V377.14H544.097V387.22L549.047 382.126H550.703L547.157 385.852L551.747 391ZM552.467 388.606L553.835 388.3C553.895 388.876 554.165 389.32 554.645 389.632C555.125 389.944 555.725 390.1 556.445 390.1C557.081 390.1 557.591 389.962 557.975 389.686C558.371 389.41 558.569 389.044 558.569 388.588C558.569 387.952 558.083 387.526 557.111 387.31L555.077 386.86C553.541 386.536 552.773 385.78 552.773 384.592C552.773 383.788 553.079 383.14 553.691 382.648C554.303 382.156 555.119 381.91 556.139 381.91C557.111 381.91 557.915 382.138 558.551 382.594C559.187 383.038 559.589 383.632 559.757 384.376L558.443 384.664C558.347 384.172 558.095 383.776 557.687 383.476C557.279 383.176 556.751 383.026 556.103 383.026C555.491 383.026 555.011 383.164 554.663 383.44C554.315 383.704 554.141 384.052 554.141 384.484C554.141 384.82 554.249 385.084 554.465 385.276C554.693 385.456 555.035 385.6 555.491 385.708L557.633 386.176C559.157 386.512 559.919 387.286 559.919 388.498C559.919 389.362 559.589 390.034 558.929 390.514C558.281 390.994 557.417 391.234 556.337 391.234C555.281 391.234 554.399 391.006 553.691 390.55C552.983 390.094 552.575 389.446 552.467 388.606ZM567.025 378.796C567.205 378.616 567.427 378.526 567.691 378.526C567.955 378.526 568.177 378.616 568.357 378.796C568.549 378.976 568.645 379.192 568.645 379.444C568.645 379.708 568.555 379.93 568.375 380.11C568.195 380.278 567.967 380.362 567.691 380.362C567.427 380.362 567.205 380.278 567.025 380.11C566.845 379.93 566.755 379.708 566.755 379.444C566.755 379.192 566.845 378.976 567.025 378.796ZM568.393 391H567.007V382.126H568.393V391ZM576.413 381.91C577.481 381.91 578.339 382.258 578.987 382.954C579.647 383.65 579.977 384.562 579.977 385.69V391H578.609V385.942C578.609 385.114 578.381 384.448 577.925 383.944C577.469 383.428 576.875 383.17 576.143 383.17C575.195 383.17 574.445 383.482 573.893 384.106C573.341 384.73 573.065 385.606 573.065 386.734V391H571.697V382.126H573.065V383.602C573.821 382.474 574.937 381.91 576.413 381.91ZM587.465 378.94H592.721C593.993 378.94 595.007 379.288 595.763 379.984C596.531 380.668 596.915 381.568 596.915 382.684C596.915 383.8 596.531 384.706 595.763 385.402C595.007 386.086 593.993 386.428 592.721 386.428H588.887V391H587.465V378.94ZM588.887 385.15H592.721C593.573 385.15 594.251 384.922 594.755 384.466C595.259 384.01 595.511 383.416 595.511 382.684C595.511 381.952 595.259 381.358 594.755 380.902C594.251 380.446 593.573 380.218 592.721 380.218H588.887V385.15ZM603.095 381.928C604.415 381.928 605.525 382.366 606.425 383.242C607.337 384.106 607.793 385.21 607.793 386.554C607.793 387.898 607.337 389.014 606.425 389.902C605.525 390.778 604.415 391.216 603.095 391.216C601.763 391.216 600.641 390.778 599.729 389.902C598.829 389.014 598.379 387.898 598.379 386.554C598.379 385.21 598.829 384.106 599.729 383.242C600.641 382.366 601.763 381.928 603.095 381.928ZM603.095 390.01C604.019 390.01 604.805 389.686 605.453 389.038C606.113 388.39 606.443 387.562 606.443 386.554C606.443 385.558 606.113 384.742 605.453 384.106C604.805 383.458 604.019 383.134 603.095 383.134C602.159 383.134 601.361 383.458 600.701 384.106C600.041 384.742 599.711 385.558 599.711 386.554C599.711 387.562 600.041 388.39 600.701 389.038C601.361 389.686 602.159 390.01 603.095 390.01ZM615.091 382.036C615.343 382.036 615.553 382.06 615.721 382.108L615.613 383.422C615.505 383.41 615.331 383.404 615.091 383.404C613.951 383.404 613.069 383.788 612.445 384.556C611.833 385.324 611.527 386.332 611.527 387.58V391H610.141V382.126H611.527V384.304C612.355 382.792 613.543 382.036 615.091 382.036ZM622.612 389.398L623.062 390.532C622.39 391 621.706 391.234 621.01 391.234C620.11 391.234 619.396 390.976 618.868 390.46C618.34 389.932 618.076 389.188 618.076 388.228V383.278H616.15V382.126H618.076V378.94H619.462V382.126H622.63V383.278H619.462V388.138C619.462 388.702 619.606 389.146 619.894 389.47C620.194 389.782 620.596 389.938 621.1 389.938C621.604 389.938 622.108 389.758 622.612 389.398ZM629.732 383.278H626.51V391H625.142V383.278H623.594V382.126H625.142V380.038C625.142 379.09 625.418 378.34 625.97 377.788C626.522 377.236 627.26 376.96 628.184 376.96C628.7 376.96 629.18 377.062 629.624 377.266L629.282 378.4C628.958 378.256 628.622 378.184 628.274 378.184C627.734 378.184 627.302 378.352 626.978 378.688C626.666 379.024 626.51 379.474 626.51 380.038V382.126H629.732V383.278ZM635.053 381.928C636.373 381.928 637.483 382.366 638.383 383.242C639.295 384.106 639.751 385.21 639.751 386.554C639.751 387.898 639.295 389.014 638.383 389.902C637.483 390.778 636.373 391.216 635.053 391.216C633.721 391.216 632.599 390.778 631.687 389.902C630.787 389.014 630.337 387.898 630.337 386.554C630.337 385.21 630.787 384.106 631.687 383.242C632.599 382.366 633.721 381.928 635.053 381.928ZM635.053 390.01C635.977 390.01 636.763 389.686 637.411 389.038C638.071 388.39 638.401 387.562 638.401 386.554C638.401 385.558 638.071 384.742 637.411 384.106C636.763 383.458 635.977 383.134 635.053 383.134C634.117 383.134 633.319 383.458 632.659 384.106C631.999 384.742 631.669 385.558 631.669 386.554C631.669 387.562 631.999 388.39 632.659 389.038C633.319 389.686 634.117 390.01 635.053 390.01ZM643.286 377.14V388.732C643.286 389.092 643.4 389.38 643.628 389.596C643.856 389.812 644.162 389.92 644.546 389.92C644.894 389.92 645.248 389.824 645.608 389.632L645.896 390.784C645.38 391.084 644.858 391.234 644.33 391.234C643.598 391.234 643.01 391.012 642.566 390.568C642.134 390.124 641.918 389.536 641.918 388.804V377.14H643.286ZM647.867 378.796C648.047 378.616 648.269 378.526 648.533 378.526C648.797 378.526 649.019 378.616 649.199 378.796C649.391 378.976 649.487 379.192 649.487 379.444C649.487 379.708 649.397 379.93 649.217 380.11C649.037 380.278 648.809 380.362 648.533 380.362C648.269 380.362 648.047 380.278 647.867 380.11C647.687 379.93 647.597 379.708 647.597 379.444C647.597 379.192 647.687 378.976 647.867 378.796ZM649.235 391H647.849V382.126H649.235V391ZM656.445 381.928C657.765 381.928 658.875 382.366 659.775 383.242C660.687 384.106 661.143 385.21 661.143 386.554C661.143 387.898 660.687 389.014 659.775 389.902C658.875 390.778 657.765 391.216 656.445 391.216C655.113 391.216 653.991 390.778 653.079 389.902C652.179 389.014 651.729 387.898 651.729 386.554C651.729 385.21 652.179 384.106 653.079 383.242C653.991 382.366 655.113 381.928 656.445 381.928ZM656.445 390.01C657.369 390.01 658.155 389.686 658.803 389.038C659.463 388.39 659.793 387.562 659.793 386.554C659.793 385.558 659.463 384.742 658.803 384.106C658.155 383.458 657.369 383.134 656.445 383.134C655.509 383.134 654.711 383.458 654.051 384.106C653.391 384.742 653.061 385.558 653.061 386.554C653.061 387.562 653.391 388.39 654.051 389.038C654.711 389.686 655.509 390.01 656.445 390.01Z" fill="#212529"/>
<path d="M197.58 274.94V287H196.212V278.144L191.55 287H190.632L185.952 278.144V287H184.584V274.94H185.826L191.082 284.876L196.338 274.94H197.58ZM204.158 277.91C205.286 277.91 206.18 278.204 206.84 278.792C207.5 279.368 207.83 280.184 207.83 281.24V287H206.498V285.65C205.706 286.706 204.596 287.234 203.168 287.234C202.196 287.234 201.416 286.982 200.828 286.478C200.24 285.974 199.946 285.32 199.946 284.516C199.946 283.688 200.258 283.022 200.882 282.518C201.506 282.002 202.382 281.744 203.51 281.744H206.498V281.33C206.498 280.646 206.294 280.106 205.886 279.71C205.478 279.314 204.926 279.116 204.23 279.116C203.558 279.116 203 279.278 202.556 279.602C202.112 279.914 201.842 280.346 201.746 280.898L200.432 280.61C200.576 279.806 200.99 279.158 201.674 278.666C202.358 278.162 203.186 277.91 204.158 277.91ZM203.366 286.1C204.242 286.1 204.98 285.83 205.58 285.29C206.192 284.75 206.498 284.084 206.498 283.292V282.824H203.492C202.784 282.824 202.232 282.98 201.836 283.292C201.452 283.592 201.26 283.994 201.26 284.498C201.26 284.966 201.452 285.35 201.836 285.65C202.22 285.95 202.73 286.1 203.366 286.1ZM215.514 278.036C215.766 278.036 215.976 278.06 216.144 278.108L216.036 279.422C215.928 279.41 215.754 279.404 215.514 279.404C214.374 279.404 213.492 279.788 212.868 280.556C212.256 281.324 211.95 282.332 211.95 283.58V287H210.564V278.126H211.95V280.304C212.778 278.792 213.966 278.036 215.514 278.036ZM227 287H225.254L221.474 282.824L219.35 285.056V287H217.982V273.14H219.35V283.22L224.3 278.126H225.956L222.41 281.852L227 287ZM236.437 282.338V282.842H228.823C228.883 283.802 229.225 284.576 229.849 285.164C230.473 285.74 231.187 286.028 231.991 286.028C233.443 286.028 234.451 285.392 235.015 284.12L236.239 284.408C235.891 285.32 235.345 286.022 234.601 286.514C233.869 286.994 232.999 287.234 231.991 287.234C230.767 287.234 229.711 286.802 228.823 285.938C227.935 285.074 227.491 283.958 227.491 282.59C227.491 281.21 227.941 280.088 228.841 279.224C229.741 278.348 230.821 277.91 232.081 277.91C233.293 277.91 234.307 278.324 235.123 279.152C235.951 279.968 236.389 281.03 236.437 282.338ZM232.081 279.116C231.313 279.116 230.617 279.362 229.993 279.854C229.381 280.334 229.009 280.988 228.877 281.816H235.051C234.931 280.964 234.595 280.304 234.043 279.836C233.491 279.356 232.837 279.116 232.081 279.116ZM243.673 285.398L244.123 286.532C243.451 287 242.767 287.234 242.071 287.234C241.171 287.234 240.457 286.976 239.929 286.46C239.401 285.932 239.137 285.188 239.137 284.228V279.278H237.211V278.126H239.137V274.94H240.523V278.126H243.691V279.278H240.523V284.138C240.523 284.702 240.667 285.146 240.955 285.47C241.255 285.782 241.657 285.938 242.161 285.938C242.665 285.938 243.169 285.758 243.673 285.398ZM260.44 287H258.658L254.05 281.834H251.836V287H250.414V274.94H255.994C257.17 274.94 258.118 275.258 258.838 275.894C259.57 276.518 259.936 277.346 259.936 278.378C259.936 279.41 259.57 280.244 258.838 280.88C258.118 281.516 257.17 281.834 255.994 281.834H255.778L260.44 287ZM251.836 280.538H255.994C256.75 280.538 257.356 280.34 257.812 279.944C258.28 279.548 258.514 279.026 258.514 278.378C258.514 277.73 258.28 277.208 257.812 276.812C257.356 276.416 256.75 276.218 255.994 276.218H251.836V280.538ZM262.635 274.796C262.815 274.616 263.037 274.526 263.301 274.526C263.565 274.526 263.787 274.616 263.967 274.796C264.159 274.976 264.255 275.192 264.255 275.444C264.255 275.708 264.165 275.93 263.985 276.11C263.805 276.278 263.577 276.362 263.301 276.362C263.037 276.362 262.815 276.278 262.635 276.11C262.455 275.93 262.365 275.708 262.365 275.444C262.365 275.192 262.455 274.976 262.635 274.796ZM264.003 287H262.617V278.126H264.003V287ZM266.551 284.606L267.919 284.3C267.979 284.876 268.249 285.32 268.729 285.632C269.209 285.944 269.809 286.1 270.529 286.1C271.165 286.1 271.675 285.962 272.059 285.686C272.455 285.41 272.653 285.044 272.653 284.588C272.653 283.952 272.167 283.526 271.195 283.31L269.161 282.86C267.625 282.536 266.857 281.78 266.857 280.592C266.857 279.788 267.163 279.14 267.775 278.648C268.387 278.156 269.203 277.91 270.223 277.91C271.195 277.91 271.999 278.138 272.635 278.594C273.271 279.038 273.673 279.632 273.841 280.376L272.527 280.664C272.431 280.172 272.179 279.776 271.771 279.476C271.363 279.176 270.835 279.026 270.187 279.026C269.575 279.026 269.095 279.164 268.747 279.44C268.399 279.704 268.225 280.052 268.225 280.484C268.225 280.82 268.333 281.084 268.549 281.276C268.777 281.456 269.119 281.6 269.575 281.708L271.717 282.176C273.241 282.512 274.003 283.286 274.003 284.498C274.003 285.362 273.673 286.034 273.013 286.514C272.365 286.994 271.501 287.234 270.421 287.234C269.365 287.234 268.483 287.006 267.775 286.55C267.067 286.094 266.659 285.446 266.551 284.606ZM285.43 287H283.684L279.904 282.824L277.78 285.056V287H276.412V273.14H277.78V283.22L282.73 278.126H284.386L280.84 281.852L285.43 287Z" fill="#C9B462"/>
<path d="M187.836 174.218H183.372V185H181.932V174.218H177.45V172.94H187.836V174.218ZM192.158 175.928C193.478 175.928 194.588 176.366 195.488 177.242C196.4 178.106 196.856 179.21 196.856 180.554C196.856 181.898 196.4 183.014 195.488 183.902C194.588 184.778 193.478 185.216 192.158 185.216C190.826 185.216 189.704 184.778 188.792 183.902C187.892 183.014 187.442 181.898 187.442 180.554C187.442 179.21 187.892 178.106 188.792 177.242C189.704 176.366 190.826 175.928 192.158 175.928ZM192.158 184.01C193.082 184.01 193.868 183.686 194.516 183.038C195.176 182.39 195.506 181.562 195.506 180.554C195.506 179.558 195.176 178.742 194.516 178.106C193.868 177.458 193.082 177.134 192.158 177.134C191.222 177.134 190.424 177.458 189.764 178.106C189.104 178.742 188.774 179.558 188.774 180.554C188.774 181.562 189.104 182.39 189.764 183.038C190.424 183.686 191.222 184.01 192.158 184.01ZM204.081 183.398L204.531 184.532C203.859 185 203.175 185.234 202.479 185.234C201.579 185.234 200.865 184.976 200.337 184.46C199.809 183.932 199.545 183.188 199.545 182.228V177.278H197.619V176.126H199.545V172.94H200.931V176.126H204.099V177.278H200.931V182.138C200.931 182.702 201.075 183.146 201.363 183.47C201.663 183.782 202.065 183.938 202.569 183.938C203.073 183.938 203.577 183.758 204.081 183.398ZM209.865 175.91C210.993 175.91 211.887 176.204 212.547 176.792C213.207 177.368 213.537 178.184 213.537 179.24V185H212.205V183.65C211.413 184.706 210.303 185.234 208.875 185.234C207.903 185.234 207.123 184.982 206.535 184.478C205.947 183.974 205.653 183.32 205.653 182.516C205.653 181.688 205.965 181.022 206.589 180.518C207.213 180.002 208.089 179.744 209.217 179.744H212.205V179.33C212.205 178.646 212.001 178.106 211.593 177.71C211.185 177.314 210.633 177.116 209.937 177.116C209.265 177.116 208.707 177.278 208.263 177.602C207.819 177.914 207.549 178.346 207.453 178.898L206.139 178.61C206.283 177.806 206.697 177.158 207.381 176.666C208.065 176.162 208.893 175.91 209.865 175.91ZM209.073 184.1C209.949 184.1 210.687 183.83 211.287 183.29C211.899 182.75 212.205 182.084 212.205 181.292V180.824H209.199C208.491 180.824 207.939 180.98 207.543 181.292C207.159 181.592 206.967 181.994 206.967 182.498C206.967 182.966 207.159 183.35 207.543 183.65C207.927 183.95 208.437 184.1 209.073 184.1ZM217.46 171.14V182.732C217.46 183.092 217.574 183.38 217.802 183.596C218.03 183.812 218.336 183.92 218.72 183.92C219.068 183.92 219.422 183.824 219.782 183.632L220.07 184.784C219.554 185.084 219.032 185.234 218.504 185.234C217.772 185.234 217.184 185.012 216.74 184.568C216.308 184.124 216.092 183.536 216.092 182.804V171.14H217.46ZM226.414 172.94H231.67C232.942 172.94 233.956 173.288 234.712 173.984C235.48 174.668 235.864 175.568 235.864 176.684C235.864 177.8 235.48 178.706 234.712 179.402C233.956 180.086 232.942 180.428 231.67 180.428H227.836V185H226.414V172.94ZM227.836 179.15H231.67C232.522 179.15 233.2 178.922 233.704 178.466C234.208 178.01 234.46 177.416 234.46 176.684C234.46 175.952 234.208 175.358 233.704 174.902C233.2 174.446 232.522 174.218 231.67 174.218H227.836V179.15ZM242.045 175.928C243.365 175.928 244.475 176.366 245.375 177.242C246.287 178.106 246.743 179.21 246.743 180.554C246.743 181.898 246.287 183.014 245.375 183.902C244.475 184.778 243.365 185.216 242.045 185.216C240.713 185.216 239.591 184.778 238.679 183.902C237.779 183.014 237.329 181.898 237.329 180.554C237.329 179.21 237.779 178.106 238.679 177.242C239.591 176.366 240.713 175.928 242.045 175.928ZM242.045 184.01C242.969 184.01 243.755 183.686 244.403 183.038C245.063 182.39 245.393 181.562 245.393 180.554C245.393 179.558 245.063 178.742 244.403 178.106C243.755 177.458 242.969 177.134 242.045 177.134C241.109 177.134 240.311 177.458 239.651 178.106C238.991 178.742 238.661 179.558 238.661 180.554C238.661 181.562 238.991 182.39 239.651 183.038C240.311 183.686 241.109 184.01 242.045 184.01ZM254.04 176.036C254.292 176.036 254.502 176.06 254.67 176.108L254.562 177.422C254.454 177.41 254.28 177.404 254.04 177.404C252.9 177.404 252.018 177.788 251.394 178.556C250.782 179.324 250.476 180.332 250.476 181.58V185H249.09V176.126H250.476V178.304C251.304 176.792 252.492 176.036 254.04 176.036ZM261.562 183.398L262.012 184.532C261.34 185 260.656 185.234 259.96 185.234C259.06 185.234 258.346 184.976 257.818 184.46C257.29 183.932 257.026 183.188 257.026 182.228V177.278H255.1V176.126H257.026V172.94H258.412V176.126H261.58V177.278H258.412V182.138C258.412 182.702 258.556 183.146 258.844 183.47C259.144 183.782 259.546 183.938 260.05 183.938C260.554 183.938 261.058 183.758 261.562 183.398ZM268.682 177.278H265.46V185H264.092V177.278H262.544V176.126H264.092V174.038C264.092 173.09 264.368 172.34 264.92 171.788C265.472 171.236 266.21 170.96 267.134 170.96C267.65 170.96 268.13 171.062 268.574 171.266L268.232 172.4C267.908 172.256 267.572 172.184 267.224 172.184C266.684 172.184 266.252 172.352 265.928 172.688C265.616 173.024 265.46 173.474 265.46 174.038V176.126H268.682V177.278ZM274.002 175.928C275.322 175.928 276.432 176.366 277.332 177.242C278.244 178.106 278.7 179.21 278.7 180.554C278.7 181.898 278.244 183.014 277.332 183.902C276.432 184.778 275.322 185.216 274.002 185.216C272.67 185.216 271.548 184.778 270.636 183.902C269.736 183.014 269.286 181.898 269.286 180.554C269.286 179.21 269.736 178.106 270.636 177.242C271.548 176.366 272.67 175.928 274.002 175.928ZM274.002 184.01C274.926 184.01 275.712 183.686 276.36 183.038C277.02 182.39 277.35 181.562 277.35 180.554C277.35 179.558 277.02 178.742 276.36 178.106C275.712 177.458 274.926 177.134 274.002 177.134C273.066 177.134 272.268 177.458 271.608 178.106C270.948 178.742 270.618 179.558 270.618 180.554C270.618 181.562 270.948 182.39 271.608 183.038C272.268 183.686 273.066 184.01 274.002 184.01ZM282.235 171.14V182.732C282.235 183.092 282.349 183.38 282.577 183.596C282.805 183.812 283.111 183.92 283.495 183.92C283.843 183.92 284.197 183.824 284.557 183.632L284.845 184.784C284.329 185.084 283.807 185.234 283.279 185.234C282.547 185.234 281.959 185.012 281.515 184.568C281.083 184.124 280.867 183.536 280.867 182.804V171.14H282.235ZM286.816 172.796C286.996 172.616 287.218 172.526 287.482 172.526C287.746 172.526 287.968 172.616 288.148 172.796C288.34 172.976 288.436 173.192 288.436 173.444C288.436 173.708 288.346 173.93 288.166 174.11C287.986 174.278 287.758 174.362 287.482 174.362C287.218 174.362 286.996 174.278 286.816 174.11C286.636 173.93 286.546 173.708 286.546 173.444C286.546 173.192 286.636 172.976 286.816 172.796ZM288.184 185H286.798V176.126H288.184V185ZM295.394 175.928C296.714 175.928 297.824 176.366 298.724 177.242C299.636 178.106 300.092 179.21 300.092 180.554C300.092 181.898 299.636 183.014 298.724 183.902C297.824 184.778 296.714 185.216 295.394 185.216C294.062 185.216 292.94 184.778 292.028 183.902C291.128 183.014 290.678 181.898 290.678 180.554C290.678 179.21 291.128 178.106 292.028 177.242C292.94 176.366 294.062 175.928 295.394 175.928ZM295.394 184.01C296.318 184.01 297.104 183.686 297.752 183.038C298.412 182.39 298.742 181.562 298.742 180.554C298.742 179.558 298.412 178.742 297.752 178.106C297.104 177.458 296.318 177.134 295.394 177.134C294.458 177.134 293.66 177.458 293 178.106C292.34 178.742 292.01 179.558 292.01 180.554C292.01 181.562 292.34 182.39 293 183.038C293.66 183.686 294.458 184.01 295.394 184.01ZM317.001 185H315.219L310.611 179.834H308.397V185H306.975V172.94H312.555C313.731 172.94 314.679 173.258 315.399 173.894C316.131 174.518 316.497 175.346 316.497 176.378C316.497 177.41 316.131 178.244 315.399 178.88C314.679 179.516 313.731 179.834 312.555 179.834H312.339L317.001 185ZM308.397 178.538H312.555C313.311 178.538 313.917 178.34 314.373 177.944C314.841 177.548 315.075 177.026 315.075 176.378C315.075 175.73 314.841 175.208 314.373 174.812C313.917 174.416 313.311 174.218 312.555 174.218H308.397V178.538ZM319.195 172.796C319.375 172.616 319.597 172.526 319.861 172.526C320.125 172.526 320.347 172.616 320.527 172.796C320.719 172.976 320.815 173.192 320.815 173.444C320.815 173.708 320.725 173.93 320.545 174.11C320.365 174.278 320.137 174.362 319.861 174.362C319.597 174.362 319.375 174.278 319.195 174.11C319.015 173.93 318.925 173.708 318.925 173.444C318.925 173.192 319.015 172.976 319.195 172.796ZM320.563 185H319.177V176.126H320.563V185ZM323.111 182.606L324.479 182.3C324.539 182.876 324.809 183.32 325.289 183.632C325.769 183.944 326.369 184.1 327.089 184.1C327.725 184.1 328.235 183.962 328.619 183.686C329.015 183.41 329.213 183.044 329.213 182.588C329.213 181.952 328.727 181.526 327.755 181.31L325.721 180.86C324.185 180.536 323.417 179.78 323.417 178.592C323.417 177.788 323.723 177.14 324.335 176.648C324.947 176.156 325.763 175.91 326.783 175.91C327.755 175.91 328.559 176.138 329.195 176.594C329.831 177.038 330.233 177.632 330.401 178.376L329.087 178.664C328.991 178.172 328.739 177.776 328.331 177.476C327.923 177.176 327.395 177.026 326.747 177.026C326.135 177.026 325.655 177.164 325.307 177.44C324.959 177.704 324.785 178.052 324.785 178.484C324.785 178.82 324.893 179.084 325.109 179.276C325.337 179.456 325.679 179.6 326.135 179.708L328.277 180.176C329.801 180.512 330.563 181.286 330.563 182.498C330.563 183.362 330.233 184.034 329.573 184.514C328.925 184.994 328.061 185.234 326.981 185.234C325.925 185.234 325.043 185.006 324.335 184.55C323.627 184.094 323.219 183.446 323.111 182.606ZM341.991 185H340.245L336.465 180.824L334.341 183.056V185H332.973V171.14H334.341V181.22L339.291 176.126H340.947L337.401 179.852L341.991 185Z" fill="#4571CE"/>
<path d="M52.824 304.94V317H51.438V306.65L48.216 308.45V307.136L51.942 304.94H52.824ZM56.7744 306.452C57.6984 305.288 58.9044 304.706 60.3924 304.706C61.8804 304.706 63.0804 305.282 63.9924 306.434C64.9164 307.586 65.3784 309.098 65.3784 310.97C65.3784 312.842 64.9164 314.354 63.9924 315.506C63.0804 316.658 61.8804 317.234 60.3924 317.234C58.8924 317.234 57.6804 316.658 56.7564 315.506C55.8444 314.354 55.3884 312.842 55.3884 310.97C55.3884 309.11 55.8504 307.604 56.7744 306.452ZM60.3924 315.902C61.4604 315.902 62.3184 315.452 62.9664 314.552C63.6144 313.64 63.9384 312.446 63.9384 310.97C63.9384 309.494 63.6144 308.3 62.9664 307.388C62.3184 306.476 61.4604 306.02 60.3924 306.02C59.3124 306.02 58.4484 306.476 57.8004 307.388C57.1524 308.3 56.8284 309.494 56.8284 310.97C56.8284 312.446 57.1524 313.64 57.8004 314.552C58.4484 315.452 59.3124 315.902 60.3924 315.902Z" fill="#212529"/>
<path d="M82.376 337.452C83.3 336.288 84.506 335.706 85.994 335.706C87.482 335.706 88.682 336.282 89.594 337.434C90.518 338.586 90.98 340.098 90.98 341.97C90.98 343.842 90.518 345.354 89.594 346.506C88.682 347.658 87.482 348.234 85.994 348.234C84.494 348.234 83.282 347.658 82.358 346.506C81.446 345.354 80.99 343.842 80.99 341.97C80.99 340.11 81.452 338.604 82.376 337.452ZM85.994 346.902C87.062 346.902 87.92 346.452 88.568 345.552C89.216 344.64 89.54 343.446 89.54 341.97C89.54 340.494 89.216 339.3 88.568 338.388C87.92 337.476 87.062 337.02 85.994 337.02C84.914 337.02 84.05 337.476 83.402 338.388C82.754 339.3 82.43 340.494 82.43 341.97C82.43 343.446 82.754 344.64 83.402 345.552C84.05 346.452 84.914 346.902 85.994 346.902Z" fill="#212529"/>
<path d="M523.862 340.71H526.364C527.576 340.71 528.536 341.028 529.244 341.664C529.964 342.288 530.324 343.176 530.324 344.328C530.324 345.492 529.934 346.434 529.154 347.154C528.386 347.874 527.366 348.234 526.094 348.234C524.834 348.234 523.796 347.862 522.98 347.118C522.164 346.374 521.75 345.366 521.738 344.094L523.106 343.824C523.106 344.796 523.382 345.558 523.934 346.11C524.498 346.662 525.224 346.938 526.112 346.938C526.964 346.938 527.654 346.704 528.182 346.236C528.71 345.756 528.974 345.126 528.974 344.346C528.974 343.578 528.728 342.996 528.236 342.6C527.756 342.192 527.096 341.988 526.256 341.988H522.458L522.728 335.94H529.856V337.218H524.042L523.862 340.71ZM533.519 337.452C534.443 336.288 535.649 335.706 537.137 335.706C538.625 335.706 539.825 336.282 540.737 337.434C541.661 338.586 542.123 340.098 542.123 341.97C542.123 343.842 541.661 345.354 540.737 346.506C539.825 347.658 538.625 348.234 537.137 348.234C535.637 348.234 534.425 347.658 533.501 346.506C532.589 345.354 532.133 343.842 532.133 341.97C532.133 340.11 532.595 338.604 533.519 337.452ZM537.137 346.902C538.205 346.902 539.063 346.452 539.711 345.552C540.359 344.64 540.683 343.446 540.683 341.97C540.683 340.494 540.359 339.3 539.711 338.388C539.063 337.476 538.205 337.02 537.137 337.02C536.057 337.02 535.193 337.476 534.545 338.388C533.897 339.3 533.573 340.494 533.573 341.97C533.573 343.446 533.897 344.64 534.545 345.552C535.193 346.452 536.057 346.902 537.137 346.902Z" fill="#212529"/>
<path d="M119.862 340.71H122.364C123.576 340.71 124.536 341.028 125.244 341.664C125.964 342.288 126.324 343.176 126.324 344.328C126.324 345.492 125.934 346.434 125.154 347.154C124.386 347.874 123.366 348.234 122.094 348.234C120.834 348.234 119.796 347.862 118.98 347.118C118.164 346.374 117.75 345.366 117.738 344.094L119.106 343.824C119.106 344.796 119.382 345.558 119.934 346.11C120.498 346.662 121.224 346.938 122.112 346.938C122.964 346.938 123.654 346.704 124.182 346.236C124.71 345.756 124.974 345.126 124.974 344.346C124.974 343.578 124.728 342.996 124.236 342.6C123.756 342.192 123.096 341.988 122.256 341.988H118.458L118.728 335.94H125.856V337.218H120.042L119.862 340.71Z" fill="#212529"/>
<path d="M571.862 340.71H574.364C575.576 340.71 576.536 341.028 577.244 341.664C577.964 342.288 578.324 343.176 578.324 344.328C578.324 345.492 577.934 346.434 577.154 347.154C576.386 347.874 575.366 348.234 574.094 348.234C572.834 348.234 571.796 347.862 570.98 347.118C570.164 346.374 569.75 345.366 569.738 344.094L571.106 343.824C571.106 344.796 571.382 345.558 571.934 346.11C572.498 346.662 573.224 346.938 574.112 346.938C574.964 346.938 575.654 346.704 576.182 346.236C576.71 345.756 576.974 345.126 576.974 344.346C576.974 343.578 576.728 342.996 576.236 342.6C575.756 342.192 575.096 341.988 574.256 341.988H570.458L570.728 335.94H577.856V337.218H572.042L571.862 340.71ZM582.005 340.71H584.507C585.719 340.71 586.679 341.028 587.387 341.664C588.107 342.288 588.467 343.176 588.467 344.328C588.467 345.492 588.077 346.434 587.297 347.154C586.529 347.874 585.509 348.234 584.237 348.234C582.977 348.234 581.939 347.862 581.123 347.118C580.307 346.374 579.893 345.366 579.881 344.094L581.249 343.824C581.249 344.796 581.525 345.558 582.077 346.11C582.641 346.662 583.367 346.938 584.255 346.938C585.107 346.938 585.797 346.704 586.325 346.236C586.853 345.756 587.117 345.126 587.117 344.346C587.117 343.578 586.871 342.996 586.379 342.6C585.899 342.192 585.239 341.988 584.399 341.988H580.601L580.871 335.94H587.999V337.218H582.185L582.005 340.71Z" fill="#212529"/>
<path d="M157.824 335.94V348H156.438V337.65L153.216 339.45V338.136L156.942 335.94H157.824ZM161.774 337.452C162.698 336.288 163.904 335.706 165.392 335.706C166.88 335.706 168.08 336.282 168.992 337.434C169.916 338.586 170.378 340.098 170.378 341.97C170.378 343.842 169.916 345.354 168.992 346.506C168.08 347.658 166.88 348.234 165.392 348.234C163.892 348.234 162.68 347.658 161.756 346.506C160.844 345.354 160.388 343.842 160.388 341.97C160.388 340.11 160.85 338.604 161.774 337.452ZM165.392 346.902C166.46 346.902 167.318 346.452 167.966 345.552C168.614 344.64 168.938 343.446 168.938 341.97C168.938 340.494 168.614 339.3 167.966 338.388C167.318 337.476 166.46 337.02 165.392 337.02C164.312 337.02 163.448 337.476 162.8 338.388C162.152 339.3 161.828 340.494 161.828 341.97C161.828 343.446 162.152 344.64 162.8 345.552C163.448 346.452 164.312 346.902 165.392 346.902Z" fill="#212529"/>
<path d="M620.85 340.206C622.11 340.206 623.112 340.578 623.856 341.322C624.6 342.066 624.972 343.014 624.972 344.166C624.972 345.342 624.582 346.314 623.802 347.082C623.022 347.85 622.002 348.234 620.742 348.234C619.242 348.234 618.072 347.712 617.232 346.668C616.404 345.624 615.99 344.166 615.99 342.294C615.99 339.906 616.536 338.148 617.628 337.02C618.48 336.144 619.542 335.706 620.814 335.706C621.762 335.706 622.578 335.94 623.262 336.408C623.946 336.864 624.408 337.512 624.648 338.352L623.28 338.622C622.944 337.518 622.104 336.966 620.76 336.966C619.86 336.966 619.122 337.284 618.546 337.92C617.67 338.868 617.268 340.272 617.34 342.132C617.64 341.544 618.108 341.076 618.744 340.728C619.392 340.38 620.094 340.206 620.85 340.206ZM618.654 346.164C619.218 346.68 619.908 346.938 620.724 346.938C621.54 346.938 622.218 346.674 622.758 346.146C623.298 345.606 623.568 344.94 623.568 344.148C623.568 343.356 623.298 342.702 622.758 342.186C622.23 341.658 621.552 341.394 620.724 341.394C619.872 341.394 619.176 341.67 618.636 342.222C618.096 342.762 617.826 343.422 617.826 344.202C617.826 344.994 618.102 345.648 618.654 346.164ZM628.345 337.452C629.269 336.288 630.475 335.706 631.963 335.706C633.451 335.706 634.651 336.282 635.563 337.434C636.487 338.586 636.949 340.098 636.949 341.97C636.949 343.842 636.487 345.354 635.563 346.506C634.651 347.658 633.451 348.234 631.963 348.234C630.463 348.234 629.251 347.658 628.327 346.506C627.415 345.354 626.959 343.842 626.959 341.97C626.959 340.11 627.421 338.604 628.345 337.452ZM631.963 346.902C633.031 346.902 633.889 346.452 634.537 345.552C635.185 344.64 635.509 343.446 635.509 341.97C635.509 340.494 635.185 339.3 634.537 338.388C633.889 337.476 633.031 337.02 631.963 337.02C630.883 337.02 630.019 337.476 629.371 338.388C628.723 339.3 628.399 340.494 628.399 341.97C628.399 343.446 628.723 344.64 629.371 345.552C630.019 346.452 630.883 346.902 631.963 346.902Z" fill="#212529"/>
<path d="M201.824 335.94V348H200.438V337.65L197.216 339.45V338.136L200.942 335.94H201.824ZM206.26 340.71H208.762C209.974 340.71 210.934 341.028 211.642 341.664C212.362 342.288 212.722 343.176 212.722 344.328C212.722 345.492 212.332 346.434 211.552 347.154C210.784 347.874 209.764 348.234 208.492 348.234C207.232 348.234 206.194 347.862 205.378 347.118C204.562 346.374 204.148 345.366 204.136 344.094L205.504 343.824C205.504 344.796 205.78 345.558 206.332 346.11C206.896 346.662 207.622 346.938 208.51 346.938C209.362 346.938 210.052 346.704 210.58 346.236C211.108 345.756 211.372 345.126 211.372 344.346C211.372 343.578 211.126 342.996 210.634 342.6C210.154 342.192 209.494 341.988 208.654 341.988H204.856L205.126 335.94H212.254V337.218H206.44L206.26 340.71Z" fill="#212529"/>
<path d="M668.85 340.206C670.11 340.206 671.112 340.578 671.856 341.322C672.6 342.066 672.972 343.014 672.972 344.166C672.972 345.342 672.582 346.314 671.802 347.082C671.022 347.85 670.002 348.234 668.742 348.234C667.242 348.234 666.072 347.712 665.232 346.668C664.404 345.624 663.99 344.166 663.99 342.294C663.99 339.906 664.536 338.148 665.628 337.02C666.48 336.144 667.542 335.706 668.814 335.706C669.762 335.706 670.578 335.94 671.262 336.408C671.946 336.864 672.408 337.512 672.648 338.352L671.28 338.622C670.944 337.518 670.104 336.966 668.76 336.966C667.86 336.966 667.122 337.284 666.546 337.92C665.67 338.868 665.268 340.272 665.34 342.132C665.64 341.544 666.108 341.076 666.744 340.728C667.392 340.38 668.094 340.206 668.85 340.206ZM666.654 346.164C667.218 346.68 667.908 346.938 668.724 346.938C669.54 346.938 670.218 346.674 670.758 346.146C671.298 345.606 671.568 344.94 671.568 344.148C671.568 343.356 671.298 342.702 670.758 342.186C670.23 341.658 669.552 341.394 668.724 341.394C667.872 341.394 667.176 341.67 666.636 342.222C666.096 342.762 665.826 343.422 665.826 344.202C665.826 344.994 666.102 345.648 666.654 346.164ZM676.831 340.71H679.333C680.545 340.71 681.505 341.028 682.213 341.664C682.933 342.288 683.293 343.176 683.293 344.328C683.293 345.492 682.903 346.434 682.123 347.154C681.355 347.874 680.335 348.234 679.063 348.234C677.803 348.234 676.765 347.862 675.949 347.118C675.133 346.374 674.719 345.366 674.707 344.094L676.075 343.824C676.075 344.796 676.351 345.558 676.903 346.11C677.467 346.662 678.193 346.938 679.081 346.938C679.933 346.938 680.623 346.704 681.151 346.236C681.679 345.756 681.943 345.126 681.943 344.346C681.943 343.578 681.697 342.996 681.205 342.6C680.725 342.192 680.065 341.988 679.225 341.988H675.427L675.697 335.94H682.825V337.218H677.011L676.831 340.71Z" fill="#212529"/>
<path d="M247.676 346.704V348H239.558V347.082L243.86 343.068C244.436 342.54 244.856 342.138 245.12 341.862C245.384 341.586 245.624 341.232 245.84 340.8C246.068 340.356 246.182 339.894 246.182 339.414C246.182 338.682 245.936 338.088 245.444 337.632C244.964 337.176 244.334 336.948 243.554 336.948C242.726 336.948 242.066 337.2 241.574 337.704C241.094 338.208 240.836 338.916 240.8 339.828L239.486 339.558C239.534 338.394 239.93 337.464 240.674 336.768C241.418 336.06 242.384 335.706 243.572 335.706C244.76 335.706 245.72 336.048 246.452 336.732C247.184 337.404 247.55 338.292 247.55 339.396C247.55 340.224 247.34 340.956 246.92 341.592C246.5 342.216 245.768 343.02 244.724 344.004L241.826 346.704H247.676ZM250.605 337.452C251.529 336.288 252.735 335.706 254.223 335.706C255.711 335.706 256.911 336.282 257.823 337.434C258.747 338.586 259.209 340.098 259.209 341.97C259.209 343.842 258.747 345.354 257.823 346.506C256.911 347.658 255.711 348.234 254.223 348.234C252.723 348.234 251.511 347.658 250.587 346.506C249.675 345.354 249.219 343.842 249.219 341.97C249.219 340.11 249.681 338.604 250.605 337.452ZM254.223 346.902C255.291 346.902 256.149 346.452 256.797 345.552C257.445 344.64 257.769 343.446 257.769 341.97C257.769 340.494 257.445 339.3 256.797 338.388C256.149 337.476 255.291 337.02 254.223 337.02C253.143 337.02 252.279 337.476 251.631 338.388C250.983 339.3 250.659 340.494 250.659 341.97C250.659 343.446 250.983 344.64 251.631 345.552C252.279 346.452 253.143 346.902 254.223 346.902Z" fill="#212529"/>
<path d="M718.586 335.94V336.912L713.87 348H712.304L717.02 337.218H710.414V335.94H718.586ZM721.235 337.452C722.159 336.288 723.365 335.706 724.853 335.706C726.341 335.706 727.541 336.282 728.453 337.434C729.377 338.586 729.839 340.098 729.839 341.97C729.839 343.842 729.377 345.354 728.453 346.506C727.541 347.658 726.341 348.234 724.853 348.234C723.353 348.234 722.141 347.658 721.217 346.506C720.305 345.354 719.849 343.842 719.849 341.97C719.849 340.11 720.311 338.604 721.235 337.452ZM724.853 346.902C725.921 346.902 726.779 346.452 727.427 345.552C728.075 344.64 728.399 343.446 728.399 341.97C728.399 340.494 728.075 339.3 727.427 338.388C726.779 337.476 725.921 337.02 724.853 337.02C723.773 337.02 722.909 337.476 722.261 338.388C721.613 339.3 721.289 340.494 721.289 341.97C721.289 343.446 721.613 344.64 722.261 345.552C722.909 346.452 723.773 346.902 724.853 346.902Z" fill="#212529"/>
<path d="M294.676 346.704V348H286.558V347.082L290.86 343.068C291.436 342.54 291.856 342.138 292.12 341.862C292.384 341.586 292.624 341.232 292.84 340.8C293.068 340.356 293.182 339.894 293.182 339.414C293.182 338.682 292.936 338.088 292.444 337.632C291.964 337.176 291.334 336.948 290.554 336.948C289.726 336.948 289.066 337.2 288.574 337.704C288.094 338.208 287.836 338.916 287.8 339.828L286.486 339.558C286.534 338.394 286.93 337.464 287.674 336.768C288.418 336.06 289.384 335.706 290.572 335.706C291.76 335.706 292.72 336.048 293.452 336.732C294.184 337.404 294.55 338.292 294.55 339.396C294.55 340.224 294.34 340.956 293.92 341.592C293.5 342.216 292.768 343.02 291.724 344.004L288.826 346.704H294.676ZM298.126 340.71H300.628C301.84 340.71 302.8 341.028 303.508 341.664C304.228 342.288 304.588 343.176 304.588 344.328C304.588 345.492 304.198 346.434 303.418 347.154C302.65 347.874 301.63 348.234 300.358 348.234C299.098 348.234 298.06 347.862 297.244 347.118C296.428 346.374 296.014 345.366 296.002 344.094L297.37 343.824C297.37 344.796 297.646 345.558 298.198 346.11C298.762 346.662 299.488 346.938 300.376 346.938C301.228 346.938 301.918 346.704 302.446 346.236C302.974 345.756 303.238 345.126 303.238 344.346C303.238 343.578 302.992 342.996 302.5 342.6C302.02 342.192 301.36 341.988 300.52 341.988H296.722L296.992 335.94H304.12V337.218H298.306L298.126 340.71Z" fill="#212529"/>
<path d="M764.586 335.94V336.912L759.87 348H758.304L763.02 337.218H756.414V335.94H764.586ZM767.721 340.71H770.223C771.435 340.71 772.395 341.028 773.103 341.664C773.823 342.288 774.183 343.176 774.183 344.328C774.183 345.492 773.793 346.434 773.013 347.154C772.245 347.874 771.225 348.234 769.953 348.234C768.693 348.234 767.655 347.862 766.839 347.118C766.023 346.374 765.609 345.366 765.597 344.094L766.965 343.824C766.965 344.796 767.241 345.558 767.793 346.11C768.357 346.662 769.083 346.938 769.971 346.938C770.823 346.938 771.513 346.704 772.041 346.236C772.569 345.756 772.833 345.126 772.833 344.346C772.833 343.578 772.587 342.996 772.095 342.6C771.615 342.192 770.955 341.988 770.115 341.988H766.317L766.587 335.94H773.715V337.218H767.901L767.721 340.71Z" fill="#212529"/>
<path d="M338.452 341.826C339.1 342.006 339.604 342.336 339.964 342.816C340.324 343.284 340.504 343.86 340.504 344.544C340.504 345.648 340.126 346.542 339.37 347.226C338.614 347.898 337.624 348.234 336.4 348.234C335.128 348.234 334.096 347.874 333.304 347.154C332.512 346.434 332.08 345.486 332.008 344.31L333.34 344.04C333.4 344.94 333.7 345.654 334.24 346.182C334.78 346.71 335.5 346.974 336.4 346.974C337.228 346.974 337.9 346.752 338.416 346.308C338.944 345.864 339.208 345.282 339.208 344.562C339.208 343.89 338.968 343.362 338.488 342.978C338.02 342.594 337.366 342.402 336.526 342.402H335.302V341.268H336.436C337.204 341.268 337.816 341.082 338.272 340.71C338.728 340.338 338.956 339.84 338.956 339.216C338.956 338.544 338.716 338.004 338.236 337.596C337.756 337.176 337.12 336.966 336.328 336.966C335.5 336.966 334.828 337.212 334.312 337.704C333.808 338.184 333.532 338.868 333.484 339.756L332.17 339.504C332.254 338.364 332.668 337.446 333.412 336.75C334.168 336.054 335.146 335.706 336.346 335.706C337.522 335.706 338.47 336.03 339.19 336.678C339.91 337.326 340.27 338.172 340.27 339.216C340.27 339.852 340.108 340.398 339.784 340.854C339.46 341.31 339.016 341.634 338.452 341.826ZM343.923 337.452C344.847 336.288 346.053 335.706 347.541 335.706C349.029 335.706 350.229 336.282 351.141 337.434C352.065 338.586 352.527 340.098 352.527 341.97C352.527 343.842 352.065 345.354 351.141 346.506C350.229 347.658 349.029 348.234 347.541 348.234C346.041 348.234 344.829 347.658 343.905 346.506C342.993 345.354 342.537 343.842 342.537 341.97C342.537 340.11 342.999 338.604 343.923 337.452ZM347.541 346.902C348.609 346.902 349.467 346.452 350.115 345.552C350.763 344.64 351.087 343.446 351.087 341.97C351.087 340.494 350.763 339.3 350.115 338.388C349.467 337.476 348.609 337.02 347.541 337.02C346.461 337.02 345.597 337.476 344.949 338.388C344.301 339.3 343.977 340.494 343.977 341.97C343.977 343.446 344.301 344.64 344.949 345.552C345.597 346.452 346.461 346.902 347.541 346.902Z" fill="#212529"/>
<path d="M808.02 341.826C808.884 342.042 809.532 342.426 809.964 342.978C810.408 343.53 810.63 344.142 810.63 344.814C810.63 345.834 810.222 346.662 809.406 347.298C808.602 347.922 807.54 348.234 806.22 348.234C804.888 348.234 803.814 347.922 802.998 347.298C802.182 346.662 801.774 345.834 801.774 344.814C801.774 344.142 801.996 343.536 802.44 342.996C802.884 342.444 803.532 342.054 804.384 341.826C803.628 341.598 803.058 341.226 802.674 340.71C802.302 340.182 802.116 339.576 802.116 338.892C802.116 337.932 802.488 337.164 803.232 336.588C803.988 336 804.984 335.706 806.22 335.706C807.456 335.706 808.446 336 809.19 336.588C809.934 337.164 810.306 337.932 810.306 338.892C810.306 339.564 810.114 340.164 809.73 340.692C809.346 341.22 808.776 341.598 808.02 341.826ZM803.502 339C803.502 339.636 803.748 340.152 804.24 340.548C804.732 340.932 805.386 341.124 806.202 341.124C807.018 341.124 807.672 340.926 808.164 340.53C808.668 340.134 808.92 339.618 808.92 338.982C808.92 338.346 808.662 337.836 808.146 337.452C807.642 337.068 806.994 336.876 806.202 336.876C805.41 336.876 804.762 337.068 804.258 337.452C803.754 337.836 803.502 338.352 803.502 339ZM806.202 347.01C807.042 347.01 807.732 346.806 808.272 346.398C808.812 345.978 809.082 345.426 809.082 344.742C809.082 344.07 808.818 343.524 808.29 343.104C807.762 342.684 807.066 342.474 806.202 342.474C805.35 342.474 804.66 342.684 804.132 343.104C803.604 343.524 803.34 344.076 803.34 344.76C803.34 345.456 803.604 346.008 804.132 346.416C804.66 346.812 805.35 347.01 806.202 347.01ZM813.782 337.452C814.706 336.288 815.912 335.706 817.4 335.706C818.888 335.706 820.088 336.282 821 337.434C821.924 338.586 822.386 340.098 822.386 341.97C822.386 343.842 821.924 345.354 821 346.506C820.088 347.658 818.888 348.234 817.4 348.234C815.9 348.234 814.688 347.658 813.764 346.506C812.852 345.354 812.396 343.842 812.396 341.97C812.396 340.11 812.858 338.604 813.782 337.452ZM817.4 346.902C818.468 346.902 819.326 346.452 819.974 345.552C820.622 344.64 820.946 343.446 820.946 341.97C820.946 340.494 820.622 339.3 819.974 338.388C819.326 337.476 818.468 337.02 817.4 337.02C816.32 337.02 815.456 337.476 814.808 338.388C814.16 339.3 813.836 340.494 813.836 341.97C813.836 343.446 814.16 344.64 814.808 345.552C815.456 346.452 816.32 346.902 817.4 346.902Z" fill="#212529"/>
<path d="M386.452 341.826C387.1 342.006 387.604 342.336 387.964 342.816C388.324 343.284 388.504 343.86 388.504 344.544C388.504 345.648 388.126 346.542 387.37 347.226C386.614 347.898 385.624 348.234 384.4 348.234C383.128 348.234 382.096 347.874 381.304 347.154C380.512 346.434 380.08 345.486 380.008 344.31L381.34 344.04C381.4 344.94 381.7 345.654 382.24 346.182C382.78 346.71 383.5 346.974 384.4 346.974C385.228 346.974 385.9 346.752 386.416 346.308C386.944 345.864 387.208 345.282 387.208 344.562C387.208 343.89 386.968 343.362 386.488 342.978C386.02 342.594 385.366 342.402 384.526 342.402H383.302V341.268H384.436C385.204 341.268 385.816 341.082 386.272 340.71C386.728 340.338 386.956 339.84 386.956 339.216C386.956 338.544 386.716 338.004 386.236 337.596C385.756 337.176 385.12 336.966 384.328 336.966C383.5 336.966 382.828 337.212 382.312 337.704C381.808 338.184 381.532 338.868 381.484 339.756L380.17 339.504C380.254 338.364 380.668 337.446 381.412 336.75C382.168 336.054 383.146 335.706 384.346 335.706C385.522 335.706 386.47 336.03 387.19 336.678C387.91 337.326 388.27 338.172 388.27 339.216C388.27 339.852 388.108 340.398 387.784 340.854C387.46 341.31 387.016 341.634 386.452 341.826ZM392.409 340.71H394.911C396.123 340.71 397.083 341.028 397.791 341.664C398.511 342.288 398.871 343.176 398.871 344.328C398.871 345.492 398.481 346.434 397.701 347.154C396.933 347.874 395.913 348.234 394.641 348.234C393.381 348.234 392.343 347.862 391.527 347.118C390.711 346.374 390.297 345.366 390.285 344.094L391.653 343.824C391.653 344.796 391.929 345.558 392.481 346.11C393.045 346.662 393.771 346.938 394.659 346.938C395.511 346.938 396.201 346.704 396.729 346.236C397.257 345.756 397.521 345.126 397.521 344.346C397.521 343.578 397.275 342.996 396.783 342.6C396.303 342.192 395.643 341.988 394.803 341.988H391.005L391.275 335.94H398.403V337.218H392.589L392.409 340.71Z" fill="#212529"/>
<path d="M856.02 341.826C856.884 342.042 857.532 342.426 857.964 342.978C858.408 343.53 858.63 344.142 858.63 344.814C858.63 345.834 858.222 346.662 857.406 347.298C856.602 347.922 855.54 348.234 854.22 348.234C852.888 348.234 851.814 347.922 850.998 347.298C850.182 346.662 849.774 345.834 849.774 344.814C849.774 344.142 849.996 343.536 850.44 342.996C850.884 342.444 851.532 342.054 852.384 341.826C851.628 341.598 851.058 341.226 850.674 340.71C850.302 340.182 850.116 339.576 850.116 338.892C850.116 337.932 850.488 337.164 851.232 336.588C851.988 336 852.984 335.706 854.22 335.706C855.456 335.706 856.446 336 857.19 336.588C857.934 337.164 858.306 337.932 858.306 338.892C858.306 339.564 858.114 340.164 857.73 340.692C857.346 341.22 856.776 341.598 856.02 341.826ZM851.502 339C851.502 339.636 851.748 340.152 852.24 340.548C852.732 340.932 853.386 341.124 854.202 341.124C855.018 341.124 855.672 340.926 856.164 340.53C856.668 340.134 856.92 339.618 856.92 338.982C856.92 338.346 856.662 337.836 856.146 337.452C855.642 337.068 854.994 336.876 854.202 336.876C853.41 336.876 852.762 337.068 852.258 337.452C851.754 337.836 851.502 338.352 851.502 339ZM854.202 347.01C855.042 347.01 855.732 346.806 856.272 346.398C856.812 345.978 857.082 345.426 857.082 344.742C857.082 344.07 856.818 343.524 856.29 343.104C855.762 342.684 855.066 342.474 854.202 342.474C853.35 342.474 852.66 342.684 852.132 343.104C851.604 343.524 851.34 344.076 851.34 344.76C851.34 345.456 851.604 346.008 852.132 346.416C852.66 346.812 853.35 347.01 854.202 347.01ZM862.268 340.71H864.77C865.982 340.71 866.942 341.028 867.65 341.664C868.37 342.288 868.73 343.176 868.73 344.328C868.73 345.492 868.34 346.434 867.56 347.154C866.792 347.874 865.772 348.234 864.5 348.234C863.24 348.234 862.202 347.862 861.386 347.118C860.57 346.374 860.156 345.366 860.144 344.094L861.512 343.824C861.512 344.796 861.788 345.558 862.34 346.11C862.904 346.662 863.63 346.938 864.518 346.938C865.37 346.938 866.06 346.704 866.588 346.236C867.116 345.756 867.38 345.126 867.38 344.346C867.38 343.578 867.134 342.996 866.642 342.6C866.162 342.192 865.502 341.988 864.662 341.988H860.864L861.134 335.94H868.262V337.218H862.448L862.268 340.71Z" fill="#212529"/>
<path d="M435.602 345.102H433.73V348H432.344V345.102H425.63V343.734L431.93 335.94H433.73V343.932H435.602V345.102ZM432.344 343.932V337.434L427.178 343.932H432.344ZM438.538 337.452C439.462 336.288 440.668 335.706 442.156 335.706C443.644 335.706 444.844 336.282 445.756 337.434C446.68 338.586 447.142 340.098 447.142 341.97C447.142 343.842 446.68 345.354 445.756 346.506C444.844 347.658 443.644 348.234 442.156 348.234C440.656 348.234 439.444 347.658 438.52 346.506C437.608 345.354 437.152 343.842 437.152 341.97C437.152 340.11 437.614 338.604 438.538 337.452ZM442.156 346.902C443.224 346.902 444.082 346.452 444.73 345.552C445.378 344.64 445.702 343.446 445.702 341.97C445.702 340.494 445.378 339.3 444.73 338.388C444.082 337.476 443.224 337.02 442.156 337.02C441.076 337.02 440.212 337.476 439.564 338.388C438.916 339.3 438.592 340.494 438.592 341.97C438.592 343.446 438.916 344.64 439.564 345.552C440.212 346.452 441.076 346.902 442.156 346.902Z" fill="#212529"/>
<path d="M900.22 335.706C901.72 335.706 902.884 336.228 903.712 337.272C904.552 338.316 904.972 339.774 904.972 341.646C904.972 344.034 904.426 345.792 903.334 346.92C902.482 347.796 901.42 348.234 900.148 348.234C899.2 348.234 898.384 348 897.7 347.532C897.016 347.064 896.56 346.41 896.332 345.57L897.7 345.318C898.012 346.422 898.846 346.974 900.202 346.974C901.078 346.974 901.816 346.656 902.416 346.02C903.292 345.06 903.694 343.656 903.622 341.808C903.31 342.396 902.83 342.864 902.182 343.212C901.546 343.56 900.856 343.734 900.112 343.734C898.864 343.734 897.862 343.362 897.106 342.618C896.362 341.874 895.99 340.92 895.99 339.756C895.99 338.58 896.38 337.614 897.16 336.858C897.94 336.09 898.96 335.706 900.22 335.706ZM900.256 342.546C901.096 342.546 901.786 342.276 902.326 341.736C902.878 341.184 903.154 340.518 903.154 339.738C903.154 338.946 902.872 338.292 902.308 337.776C901.744 337.248 901.06 336.984 900.256 336.984C899.428 336.984 898.744 337.254 898.204 337.794C897.676 338.322 897.412 338.982 897.412 339.774C897.412 340.566 897.676 341.226 898.204 341.754C898.744 342.282 899.428 342.546 900.256 342.546ZM908.345 337.452C909.269 336.288 910.475 335.706 911.963 335.706C913.451 335.706 914.651 336.282 915.563 337.434C916.487 338.586 916.949 340.098 916.949 341.97C916.949 343.842 916.487 345.354 915.563 346.506C914.651 347.658 913.451 348.234 911.963 348.234C910.463 348.234 909.251 347.658 908.327 346.506C907.415 345.354 906.959 343.842 906.959 341.97C906.959 340.11 907.421 338.604 908.345 337.452ZM911.963 346.902C913.031 346.902 913.889 346.452 914.537 345.552C915.185 344.64 915.509 343.446 915.509 341.97C915.509 340.494 915.185 339.3 914.537 338.388C913.889 337.476 913.031 337.02 911.963 337.02C910.883 337.02 910.019 337.476 909.371 338.388C908.723 339.3 908.399 340.494 908.399 341.97C908.399 343.446 908.723 344.64 909.371 345.552C910.019 346.452 910.883 346.902 911.963 346.902Z" fill="#212529"/>
<path d="M484.602 345.102H482.73V348H481.344V345.102H474.63V343.734L480.93 335.94H482.73V343.932H484.602V345.102ZM481.344 343.932V337.434L476.178 343.932H481.344ZM488.024 340.71H490.526C491.738 340.71 492.698 341.028 493.406 341.664C494.126 342.288 494.486 343.176 494.486 344.328C494.486 345.492 494.096 346.434 493.316 347.154C492.548 347.874 491.528 348.234 490.256 348.234C488.996 348.234 487.958 347.862 487.142 347.118C486.326 346.374 485.912 345.366 485.9 344.094L487.268 343.824C487.268 344.796 487.544 345.558 488.096 346.11C488.66 346.662 489.386 346.938 490.274 346.938C491.126 346.938 491.816 346.704 492.344 346.236C492.872 345.756 493.136 345.126 493.136 344.346C493.136 343.578 492.89 342.996 492.398 342.6C491.918 342.192 491.258 341.988 490.418 341.988H486.62L486.89 335.94H494.018V337.218H488.204L488.024 340.71Z" fill="#212529"/>
<path d="M948.22 335.706C949.72 335.706 950.884 336.228 951.712 337.272C952.552 338.316 952.972 339.774 952.972 341.646C952.972 344.034 952.426 345.792 951.334 346.92C950.482 347.796 949.42 348.234 948.148 348.234C947.2 348.234 946.384 348 945.7 347.532C945.016 347.064 944.56 346.41 944.332 345.57L945.7 345.318C946.012 346.422 946.846 346.974 948.202 346.974C949.078 346.974 949.816 346.656 950.416 346.02C951.292 345.06 951.694 343.656 951.622 341.808C951.31 342.396 950.83 342.864 950.182 343.212C949.546 343.56 948.856 343.734 948.112 343.734C946.864 343.734 945.862 343.362 945.106 342.618C944.362 341.874 943.99 340.92 943.99 339.756C943.99 338.58 944.38 337.614 945.16 336.858C945.94 336.09 946.96 335.706 948.22 335.706ZM948.256 342.546C949.096 342.546 949.786 342.276 950.326 341.736C950.878 341.184 951.154 340.518 951.154 339.738C951.154 338.946 950.872 338.292 950.308 337.776C949.744 337.248 949.06 336.984 948.256 336.984C947.428 336.984 946.744 337.254 946.204 337.794C945.676 338.322 945.412 338.982 945.412 339.774C945.412 340.566 945.676 341.226 946.204 341.754C946.744 342.282 947.428 342.546 948.256 342.546ZM956.831 340.71H959.333C960.545 340.71 961.505 341.028 962.213 341.664C962.933 342.288 963.293 343.176 963.293 344.328C963.293 345.492 962.903 346.434 962.123 347.154C961.355 347.874 960.335 348.234 959.063 348.234C957.803 348.234 956.765 347.862 955.949 347.118C955.133 346.374 954.719 345.366 954.707 344.094L956.075 343.824C956.075 344.796 956.351 345.558 956.903 346.11C957.467 346.662 958.193 346.938 959.081 346.938C959.933 346.938 960.623 346.704 961.151 346.236C961.679 345.756 961.943 345.126 961.943 344.346C961.943 343.578 961.697 342.996 961.205 342.6C960.725 342.192 960.065 341.988 959.225 341.988H955.427L955.697 335.94H962.825V337.218H957.011L956.831 340.71Z" fill="#212529"/>
<path d="M994.824 335.94V348H993.438V337.65L990.216 339.45V338.136L993.942 335.94H994.824ZM998.774 337.452C999.698 336.288 1000.9 335.706 1002.39 335.706C1003.88 335.706 1005.08 336.282 1005.99 337.434C1006.92 338.586 1007.38 340.098 1007.38 341.97C1007.38 343.842 1006.92 345.354 1005.99 346.506C1005.08 347.658 1003.88 348.234 1002.39 348.234C1000.89 348.234 999.68 347.658 998.756 346.506C997.844 345.354 997.388 343.842 997.388 341.97C997.388 340.11 997.85 338.604 998.774 337.452ZM1002.39 346.902C1003.46 346.902 1004.32 346.452 1004.97 345.552C1005.61 344.64 1005.94 343.446 1005.94 341.97C1005.94 340.494 1005.61 339.3 1004.97 338.388C1004.32 337.476 1003.46 337.02 1002.39 337.02C1001.31 337.02 1000.45 337.476 999.8 338.388C999.152 339.3 998.828 340.494 998.828 341.97C998.828 343.446 999.152 344.64 999.8 345.552C1000.45 346.452 1001.31 346.902 1002.39 346.902ZM1010.75 337.452C1011.67 336.288 1012.88 335.706 1014.36 335.706C1015.85 335.706 1017.05 336.282 1017.96 337.434C1018.89 338.586 1019.35 340.098 1019.35 341.97C1019.35 343.842 1018.89 345.354 1017.96 346.506C1017.05 347.658 1015.85 348.234 1014.36 348.234C1012.86 348.234 1011.65 347.658 1010.73 346.506C1009.82 345.354 1009.36 343.842 1009.36 341.97C1009.36 340.11 1009.82 338.604 1010.75 337.452ZM1014.36 346.902C1015.43 346.902 1016.29 346.452 1016.94 345.552C1017.59 344.64 1017.91 343.446 1017.91 341.97C1017.91 340.494 1017.59 339.3 1016.94 338.388C1016.29 337.476 1015.43 337.02 1014.36 337.02C1013.28 337.02 1012.42 337.476 1011.77 338.388C1011.12 339.3 1010.8 340.494 1010.8 341.97C1010.8 343.446 1011.12 344.64 1011.77 345.552C1012.42 346.452 1013.28 346.902 1014.36 346.902Z" fill="#212529"/>
<path d="M51.824 246.94V259H50.438V248.65L47.216 250.45V249.136L50.942 246.94H51.824ZM56.2604 251.71H58.7624C59.9744 251.71 60.9344 252.028 61.6424 252.664C62.3624 253.288 62.7224 254.176 62.7224 255.328C62.7224 256.492 62.3324 257.434 61.5524 258.154C60.7844 258.874 59.7644 259.234 58.4924 259.234C57.2324 259.234 56.1944 258.862 55.3784 258.118C54.5624 257.374 54.1484 256.366 54.1364 255.094L55.5044 254.824C55.5044 255.796 55.7804 256.558 56.3324 257.11C56.8964 257.662 57.6224 257.938 58.5104 257.938C59.3624 257.938 60.0524 257.704 60.5804 257.236C61.1084 256.756 61.3724 256.126 61.3724 255.346C61.3724 254.578 61.1264 253.996 60.6344 253.6C60.1544 253.192 59.4944 252.988 58.6544 252.988H54.8564L55.1264 246.94H62.2544V248.218H56.4404L56.2604 251.71Z" fill="#212529"/>
<path d="M56.676 197.704V199H48.558V198.082L52.86 194.068C53.436 193.54 53.856 193.138 54.12 192.862C54.384 192.586 54.624 192.232 54.84 191.8C55.068 191.356 55.182 190.894 55.182 190.414C55.182 189.682 54.936 189.088 54.444 188.632C53.964 188.176 53.334 187.948 52.554 187.948C51.726 187.948 51.066 188.2 50.574 188.704C50.094 189.208 49.836 189.916 49.8 190.828L48.486 190.558C48.534 189.394 48.93 188.464 49.674 187.768C50.418 187.06 51.384 186.706 52.572 186.706C53.76 186.706 54.72 187.048 55.452 187.732C56.184 188.404 56.55 189.292 56.55 190.396C56.55 191.224 56.34 191.956 55.92 192.592C55.5 193.216 54.768 194.02 53.724 195.004L50.826 197.704H56.676ZM59.6045 188.452C60.5285 187.288 61.7345 186.706 63.2225 186.706C64.7105 186.706 65.9105 187.282 66.8225 188.434C67.7465 189.586 68.2085 191.098 68.2085 192.97C68.2085 194.842 67.7465 196.354 66.8225 197.506C65.9105 198.658 64.7105 199.234 63.2225 199.234C61.7225 199.234 60.5105 198.658 59.5865 197.506C58.6745 196.354 58.2185 194.842 58.2185 192.97C58.2185 191.11 58.6805 189.604 59.6045 188.452ZM63.2225 197.902C64.2905 197.902 65.1485 197.452 65.7965 196.552C66.4445 195.64 66.7685 194.446 66.7685 192.97C66.7685 191.494 66.4445 190.3 65.7965 189.388C65.1485 188.476 64.2905 188.02 63.2225 188.02C62.1425 188.02 61.2785 188.476 60.6305 189.388C59.9825 190.3 59.6585 191.494 59.6585 192.97C59.6585 194.446 59.9825 195.64 60.6305 196.552C61.2785 197.452 62.1425 197.902 63.2225 197.902Z" fill="#212529"/>
<path d="M55.676 137.704V139H47.558V138.082L51.86 134.068C52.436 133.54 52.856 133.138 53.12 132.862C53.384 132.586 53.624 132.232 53.84 131.8C54.068 131.356 54.182 130.894 54.182 130.414C54.182 129.682 53.936 129.088 53.444 128.632C52.964 128.176 52.334 127.948 51.554 127.948C50.726 127.948 50.066 128.2 49.574 128.704C49.094 129.208 48.836 129.916 48.8 130.828L47.486 130.558C47.534 129.394 47.93 128.464 48.674 127.768C49.418 127.06 50.384 126.706 51.572 126.706C52.76 126.706 53.72 127.048 54.452 127.732C55.184 128.404 55.55 129.292 55.55 130.396C55.55 131.224 55.34 131.956 54.92 132.592C54.5 133.216 53.768 134.02 52.724 135.004L49.826 137.704H55.676ZM59.1257 131.71H61.6277C62.8397 131.71 63.7997 132.028 64.5077 132.664C65.2277 133.288 65.5877 134.176 65.5877 135.328C65.5877 136.492 65.1977 137.434 64.4177 138.154C63.6497 138.874 62.6297 139.234 61.3577 139.234C60.0977 139.234 59.0597 138.862 58.2437 138.118C57.4277 137.374 57.0137 136.366 57.0017 135.094L58.3697 134.824C58.3697 135.796 58.6457 136.558 59.1977 137.11C59.7617 137.662 60.4877 137.938 61.3757 137.938C62.2277 137.938 62.9177 137.704 63.4457 137.236C63.9737 136.756 64.2377 136.126 64.2377 135.346C64.2377 134.578 63.9917 133.996 63.4997 133.6C63.0197 133.192 62.3597 132.988 61.5197 132.988H57.7217L57.9917 126.94H65.1197V128.218H59.3057L59.1257 131.71Z" fill="#212529"/>
<path d="M54.452 72.826C55.1 73.006 55.604 73.336 55.964 73.816C56.324 74.284 56.504 74.86 56.504 75.544C56.504 76.648 56.126 77.542 55.37 78.226C54.614 78.898 53.624 79.234 52.4 79.234C51.128 79.234 50.096 78.874 49.304 78.154C48.512 77.434 48.08 76.486 48.008 75.31L49.34 75.04C49.4 75.94 49.7 76.654 50.24 77.182C50.78 77.71 51.5 77.974 52.4 77.974C53.228 77.974 53.9 77.752 54.416 77.308C54.944 76.864 55.208 76.282 55.208 75.562C55.208 74.89 54.968 74.362 54.488 73.978C54.02 73.594 53.366 73.402 52.526 73.402H51.302V72.268H52.436C53.204 72.268 53.816 72.082 54.272 71.71C54.728 71.338 54.956 70.84 54.956 70.216C54.956 69.544 54.716 69.004 54.236 68.596C53.756 68.176 53.12 67.966 52.328 67.966C51.5 67.966 50.828 68.212 50.312 68.704C49.808 69.184 49.532 69.868 49.484 70.756L48.17 70.504C48.254 69.364 48.668 68.446 49.412 67.75C50.168 67.054 51.146 66.706 52.346 66.706C53.522 66.706 54.47 67.03 55.19 67.678C55.91 68.326 56.27 69.172 56.27 70.216C56.27 70.852 56.108 71.398 55.784 71.854C55.46 72.31 55.016 72.634 54.452 72.826ZM59.9229 68.452C60.8469 67.288 62.0529 66.706 63.5409 66.706C65.0289 66.706 66.2289 67.282 67.1409 68.434C68.0649 69.586 68.5269 71.098 68.5269 72.97C68.5269 74.842 68.0649 76.354 67.1409 77.506C66.2289 78.658 65.0289 79.234 63.5409 79.234C62.0409 79.234 60.8289 78.658 59.9049 77.506C58.9929 76.354 58.5369 74.842 58.5369 72.97C58.5369 71.11 58.9989 69.604 59.9229 68.452ZM63.5409 77.902C64.6089 77.902 65.4669 77.452 66.1149 76.552C66.7629 75.64 67.0869 74.446 67.0869 72.97C67.0869 71.494 66.7629 70.3 66.1149 69.388C65.4669 68.476 64.6089 68.02 63.5409 68.02C62.4609 68.02 61.5969 68.476 60.9489 69.388C60.3009 70.3 59.9769 71.494 59.9769 72.97C59.9769 74.446 60.3009 75.64 60.9489 76.552C61.5969 77.452 62.4609 77.902 63.5409 77.902Z" fill="#212529"/>
<path d="M55.452 12.826C56.1 13.006 56.604 13.336 56.964 13.816C57.324 14.284 57.504 14.86 57.504 15.544C57.504 16.648 57.126 17.542 56.37 18.226C55.614 18.898 54.624 19.234 53.4 19.234C52.128 19.234 51.096 18.874 50.304 18.154C49.512 17.434 49.08 16.486 49.008 15.31L50.34 15.04C50.4 15.94 50.7 16.654 51.24 17.182C51.78 17.71 52.5 17.974 53.4 17.974C54.228 17.974 54.9 17.752 55.416 17.308C55.944 16.864 56.208 16.282 56.208 15.562C56.208 14.89 55.968 14.362 55.488 13.978C55.02 13.594 54.366 13.402 53.526 13.402L52.302 13.402V12.268H53.436C54.204 12.268 54.816 12.082 55.272 11.71C55.728 11.338 55.956 10.84 55.956 10.216C55.956 9.544 55.716 9.004 55.236 8.596C54.756 8.176 54.12 7.966 53.328 7.966C52.5 7.966 51.828 8.212 51.312 8.704C50.808 9.184 50.532 9.868 50.484 10.756L49.17 10.504C49.254 9.364 49.668 8.446 50.412 7.75C51.168 7.054 52.146 6.706 53.346 6.706C54.522 6.706 55.47 7.03 56.19 7.678C56.91 8.326 57.27 9.172 57.27 10.216C57.27 10.852 57.108 11.398 56.784 11.854C56.46 12.31 56.016 12.634 55.452 12.826ZM61.4089 11.71H63.9109C65.1229 11.71 66.0829 12.028 66.7909 12.664C67.5109 13.288 67.8709 14.176 67.8709 15.328C67.8709 16.492 67.4809 17.434 66.7009 18.154C65.9329 18.874 64.9129 19.234 63.6409 19.234C62.3809 19.234 61.3429 18.862 60.5269 18.118C59.7109 17.374 59.2969 16.366 59.2849 15.094L60.6529 14.824C60.6529 15.796 60.9289 16.558 61.4809 17.11C62.0449 17.662 62.7709 17.938 63.6589 17.938C64.5109 17.938 65.2009 17.704 65.7289 17.236C66.2569 16.756 66.5209 16.126 66.5209 15.346C66.5209 14.578 66.2749 13.996 65.7829 13.6C65.3029 13.192 64.6429 12.988 63.8029 12.988H60.0049L60.2749 6.94L67.4029 6.94V8.218L61.5889 8.218L61.4089 11.71Z" fill="#212529"/>
<rect x="124" width="38" height="314" fill="#EFEFEF"/>
<line x1="81" y1="313.5" x2="1039" y2="313.5" stroke="#D7D7D7"/>
<line x1="80" y1="193.5" x2="1038" y2="193.5" stroke="#D7D7D7"/>
<line x1="80" y1="73.5" x2="1038" y2="73.4999" stroke="#D7D7D7"/>
<line x1="81" y1="253" x2="1039" y2="253" stroke="#C9B462" stroke-width="2" stroke-dasharray="5 5"/>
<line x1="80" y1="133.5" x2="1038" y2="133.5" stroke="#D7D7D7"/>
<line x1="80" y1="13.5" x2="1038" y2="13.5" stroke="#D7D7D7"/>
<path d="M78.5 36C78.5 233.5 163.5 248.5 1034 252.5" stroke="#4571CE" stroke-width="2" stroke-dasharray="5 5"/>
<rect width="656" height="179" transform="matrix(-1 0 0 1 1035 14)" fill="#EFEFEF"/>
<path d="M602.464 115.608C604.048 115.608 605.376 116.008 606.448 116.808C607.536 117.608 608.216 118.68 608.488 120.024L606.592 120.456C606.416 119.48 605.952 118.704 605.2 118.128C604.448 117.552 603.52 117.264 602.416 117.264C601.328 117.264 600.448 117.536 599.776 118.08C599.104 118.608 598.768 119.304 598.768 120.168C598.768 120.856 598.968 121.392 599.368 121.776C599.784 122.144 600.392 122.408 601.192 122.568L604.696 123.36C607.4 123.936 608.752 125.328 608.752 127.536C608.752 128.992 608.208 130.152 607.12 131.016C606.032 131.88 604.584 132.312 602.776 132.312C601.032 132.312 599.552 131.888 598.336 131.04C597.136 130.176 596.44 129 596.248 127.512L598.24 127.104C598.416 128.224 598.928 129.096 599.776 129.72C600.624 130.328 601.68 130.632 602.944 130.632C604.16 130.632 605.112 130.36 605.8 129.816C606.504 129.256 606.856 128.528 606.856 127.632C606.856 126.896 606.648 126.344 606.232 125.976C605.832 125.608 605.168 125.32 604.24 125.112L600.616 124.32C598.04 123.744 596.752 122.376 596.752 120.216C596.752 118.84 597.272 117.728 598.312 116.88C599.368 116.032 600.752 115.608 602.464 115.608ZM626.439 132H624.399L622.599 127.92H614.127L612.327 132H610.287L617.487 115.92H619.239L626.439 132ZM621.855 126.216L618.375 118.272L614.871 126.216H621.855ZM643.224 132H640.824L634.632 124.176L630.696 128.424V132H628.8V115.92H630.696V126.096L640.056 115.92H642.264L635.904 122.808L643.224 132ZM659.978 132H657.938L656.138 127.92H647.666L645.866 132H643.826L651.026 115.92H652.778L659.978 132ZM655.394 126.216L651.914 118.272L648.41 126.216H655.394ZM673.451 130.272V132H662.339V115.92H664.235V130.272H673.451ZM687.8 115.608C689.384 115.608 690.712 116.008 691.784 116.808C692.872 117.608 693.552 118.68 693.824 120.024L691.928 120.456C691.752 119.48 691.288 118.704 690.536 118.128C689.784 117.552 688.856 117.264 687.752 117.264C686.664 117.264 685.784 117.536 685.112 118.08C684.44 118.608 684.104 119.304 684.104 120.168C684.104 120.856 684.304 121.392 684.704 121.776C685.12 122.144 685.728 122.408 686.528 122.568L690.032 123.36C692.736 123.936 694.088 125.328 694.088 127.536C694.088 128.992 693.544 130.152 692.456 131.016C691.368 131.88 689.92 132.312 688.112 132.312C686.368 132.312 684.888 131.888 683.672 131.04C682.472 130.176 681.776 129 681.584 127.512L683.576 127.104C683.752 128.224 684.264 129.096 685.112 129.72C685.96 130.328 687.016 130.632 688.28 130.632C689.496 130.632 690.448 130.36 691.136 129.816C691.84 129.256 692.192 128.528 692.192 127.632C692.192 126.896 691.984 126.344 691.568 125.976C691.168 125.608 690.504 125.32 689.576 125.112L685.952 124.32C683.376 123.744 682.088 122.376 682.088 120.216C682.088 118.84 682.608 117.728 683.648 116.88C684.704 116.032 686.088 115.608 687.8 115.608ZM717.847 115.92L712.903 132H710.911L706.831 118.944L702.727 132H700.759L695.815 115.92H697.783L701.791 129.096L705.895 115.92H707.743L711.847 129.096L715.855 115.92H717.847ZM732.106 130.272V132H720.37V115.92H732.082V117.624H722.266V123.072H731.386V124.776H722.266V130.272H732.106ZM747.387 130.272V132H735.651V115.92H747.363V117.624H737.547V123.072H746.667V124.776H737.547V130.272H747.387ZM763.268 117.624H757.316V132H755.396V117.624H749.42V115.92H763.268V117.624ZM777.378 115.608C778.962 115.608 780.29 116.008 781.362 116.808C782.45 117.608 783.13 118.68 783.402 120.024L781.506 120.456C781.33 119.48 780.866 118.704 780.114 118.128C779.362 117.552 778.434 117.264 777.33 117.264C776.242 117.264 775.362 117.536 774.69 118.08C774.018 118.608 773.682 119.304 773.682 120.168C773.682 120.856 773.882 121.392 774.282 121.776C774.698 122.144 775.306 122.408 776.106 122.568L779.61 123.36C782.314 123.936 783.666 125.328 783.666 127.536C783.666 128.992 783.122 130.152 782.034 131.016C780.946 131.88 779.498 132.312 777.69 132.312C775.946 132.312 774.466 131.888 773.25 131.04C772.05 130.176 771.354 129 771.162 127.512L773.154 127.104C773.33 128.224 773.842 129.096 774.69 129.72C775.538 130.328 776.594 130.632 777.858 130.632C779.074 130.632 780.026 130.36 780.714 129.816C781.418 129.256 781.77 128.528 781.77 127.632C781.77 126.896 781.562 126.344 781.146 125.976C780.746 125.608 780.082 125.32 779.154 125.112L775.53 124.32C772.954 123.744 771.666 122.376 771.666 120.216C771.666 118.84 772.186 117.728 773.226 116.88C774.282 116.032 775.666 115.608 777.378 115.608ZM787.073 115.92H794.081C795.777 115.92 797.129 116.384 798.137 117.312C799.161 118.224 799.673 119.424 799.673 120.912C799.673 122.4 799.161 123.608 798.137 124.536C797.129 125.448 795.777 125.904 794.081 125.904H788.969V132H787.073V115.92ZM788.969 124.2H794.081C795.217 124.2 796.121 123.896 796.793 123.288C797.465 122.68 797.801 121.888 797.801 120.912C797.801 119.936 797.465 119.144 796.793 118.536C796.121 117.928 795.217 117.624 794.081 117.624H788.969V124.2ZM810.242 115.608C812.562 115.608 814.522 116.416 816.122 118.032C817.738 119.648 818.546 121.624 818.546 123.96C818.546 126.296 817.738 128.272 816.122 129.888C814.522 131.504 812.562 132.312 810.242 132.312C807.906 132.312 805.93 131.504 804.314 129.888C802.714 128.272 801.914 126.296 801.914 123.96C801.914 121.624 802.714 119.648 804.314 118.032C805.93 116.416 807.906 115.608 810.242 115.608ZM810.242 130.512C812.034 130.512 813.546 129.888 814.778 128.64C816.01 127.376 816.626 125.816 816.626 123.96C816.626 122.12 816.01 120.568 814.778 119.304C813.546 118.024 812.034 117.384 810.242 117.384C808.434 117.384 806.914 118.024 805.682 119.304C804.45 120.568 803.834 122.12 803.834 123.96C803.834 125.816 804.45 127.376 805.682 128.64C806.914 129.888 808.434 130.512 810.242 130.512ZM833.581 117.624H827.629V132H825.709V117.624H819.733V115.92H833.581V117.624Z" fill="#212529"/>
<path d="M716.893 89.9565C713.864 94.716 709.393 96.3505 708.384 96.014C709.249 96.3024 718.268 99.1657 720.499 93.5622C722.518 88.4897 727.242 87.9019 726.989 87.6489C724.681 85.3413 719.729 85.5008 716.893 89.9565Z" fill="#212529"/>
<path d="M711.702 86.9292C708.673 91.6886 704.202 93.3232 703.192 92.9866C704.058 93.2751 713.077 96.1383 715.307 90.5348C717.326 85.4623 722.05 84.8745 721.797 84.6216C719.49 82.314 714.537 82.4734 711.702 86.9292Z" fill="#212529"/>
<path d="M706.509 83.7563C703.481 88.5158 699.01 90.1503 698 89.8138C698.865 90.1022 707.884 92.9655 710.115 87.362C712.134 82.2895 716.858 81.7017 716.605 81.4487C714.297 79.1411 709.345 79.3006 706.509 83.7563Z" fill="#212529"/>
<path d="M728.864 85.7492C729.811 88.7779 727.566 90.9413 726.412 91.687C728.72 91.2544 732.902 88.3699 731.316 83.6105C729.729 78.851 714.921 75.6521 717.47 71.0629C718.985 68.336 723.96 70.1729 724.826 71.471C725.258 72.0479 727.344 73.7536 727.989 73.8664L727.422 69.0438C721.653 65.2939 713.901 66.8804 714.009 72.3609C714.153 79.7164 727.827 82.432 728.864 85.7492Z" fill="#212529"/>
</svg>
