<svg width="338" height="293" viewBox="0 0 338 293" fill="none" xmlns="http://www.w3.org/2000/svg">
<path d="M5.438 253.646C5.438 252.722 5.67133 251.947 6.138 251.322C6.60467 250.687 7.23 250.291 8.014 250.132L8.266 251.238C7.69667 251.341 7.244 251.611 6.908 252.05C6.572 252.489 6.404 253.03 6.404 253.674C6.404 254.309 6.56267 254.822 6.88 255.214C7.188 255.606 7.594 255.802 8.098 255.802C8.49933 255.802 8.812 255.685 9.036 255.452C9.25067 255.209 9.40467 254.855 9.498 254.388L9.96 252.344C10.296 250.767 11.108 249.978 12.396 249.978C13.2453 249.978 13.922 250.295 14.426 250.93C14.93 251.565 15.182 252.409 15.182 253.464C15.182 254.481 14.9347 255.345 14.44 256.054C13.936 256.754 13.25 257.16 12.382 257.272L12.144 256.11C12.7973 256.007 13.306 255.709 13.67 255.214C14.0247 254.719 14.202 254.103 14.202 253.366C14.202 252.657 14.0433 252.101 13.726 251.7C13.3993 251.289 12.9747 251.084 12.452 251.084C12.0227 251.084 11.7007 251.205 11.486 251.448C11.2713 251.681 11.1033 252.069 10.982 252.61L10.52 254.724C10.184 256.227 9.386 256.978 8.126 256.978C7.32333 256.978 6.67467 256.675 6.18 256.068C5.68533 255.452 5.438 254.645 5.438 253.646ZM13.754 244.333L14.636 243.983C15 244.506 15.182 245.038 15.182 245.579C15.182 246.279 14.9813 246.835 14.58 247.245C14.1693 247.656 13.5907 247.861 12.844 247.861L8.994 247.861L8.994 249.359L8.098 249.359L8.098 247.861L5.62 247.861L5.62 246.783L8.098 246.783L8.098 244.319L8.994 244.319L8.994 246.783L12.774 246.783C13.2127 246.783 13.558 246.671 13.81 246.447C14.0527 246.214 14.174 245.901 14.174 245.509C14.174 245.117 14.034 244.725 13.754 244.333ZM7.93 239.835C7.93 238.958 8.15867 238.262 8.616 237.749C9.064 237.236 9.69867 236.979 10.52 236.979L15 236.979L15 238.015L13.95 238.015C14.7713 238.631 15.182 239.494 15.182 240.605C15.182 241.361 14.986 241.968 14.594 242.425C14.202 242.882 13.6933 243.111 13.068 243.111C12.424 243.111 11.906 242.868 11.514 242.383C11.1127 241.898 10.912 241.216 10.912 240.339L10.912 238.015L10.59 238.015C10.058 238.015 9.638 238.174 9.33 238.491C9.022 238.808 8.868 239.238 8.868 239.779C8.868 240.302 8.994 240.736 9.246 241.081C9.48867 241.426 9.82467 241.636 10.254 241.711L10.03 242.733C9.40467 242.621 8.90067 242.299 8.518 241.767C8.126 241.235 7.93 240.591 7.93 239.835ZM14.3 240.451C14.3 239.77 14.09 239.196 13.67 238.729C13.25 238.253 12.732 238.015 12.116 238.015L11.752 238.015L11.752 240.353C11.752 240.904 11.8733 241.333 12.116 241.641C12.3493 241.94 12.662 242.089 13.054 242.089C13.418 242.089 13.7167 241.94 13.95 241.641C14.1833 241.342 14.3 240.946 14.3 240.451ZM7.93 231.184C7.93 230.353 8.20067 229.686 8.742 229.182C9.28333 228.669 9.99267 228.412 10.87 228.412L15 228.412L15 229.476L11.066 229.476C10.422 229.476 9.904 229.653 9.512 230.008C9.11067 230.363 8.91 230.825 8.91 231.394C8.91 232.131 9.15267 232.715 9.638 233.144C10.1233 233.573 10.8047 233.788 11.682 233.788L15 233.788L15 234.852L8.098 234.852L8.098 233.788L9.246 233.788C8.36867 233.2 7.93 232.332 7.93 231.184ZM4.22 219.494L15 219.494L15 220.558L13.852 220.558C14.7387 221.192 15.182 222.107 15.182 223.302C15.182 224.244 14.846 225.056 14.174 225.738C13.4927 226.41 12.62 226.746 11.556 226.746C10.492 226.746 9.624 226.41 8.952 225.738C8.27067 225.056 7.93 224.244 7.93 223.302C7.93 222.107 8.37333 221.192 9.26 220.558L4.22 220.558L4.22 219.494ZM14.23 223.134C14.23 222.452 13.9827 221.855 13.488 221.342C12.984 220.819 12.34 220.558 11.556 220.558C10.7627 220.558 10.1187 220.819 9.624 221.342C9.12 221.855 8.868 222.452 8.868 223.134C8.868 223.871 9.11533 224.487 9.61 224.982C10.1047 225.467 10.7533 225.71 11.556 225.71C12.3587 225.71 13.0073 225.462 13.502 224.968C13.9873 224.473 14.23 223.862 14.23 223.134ZM7.93 214.378C7.93 213.501 8.15866 212.805 8.616 212.292C9.064 211.779 9.69866 211.522 10.52 211.522L15 211.522L15 212.558L13.95 212.558C14.7713 213.174 15.182 214.037 15.182 215.148C15.182 215.904 14.986 216.511 14.594 216.968C14.202 217.425 13.6933 217.654 13.068 217.654C12.424 217.654 11.906 217.411 11.514 216.926C11.1127 216.441 10.912 215.759 10.912 214.882L10.912 212.558L10.59 212.558C10.058 212.558 9.638 212.717 9.33 213.034C9.022 213.351 8.868 213.781 8.868 214.322C8.868 214.845 8.994 215.279 9.246 215.624C9.48866 215.969 9.82466 216.179 10.254 216.254L10.03 217.276C9.40466 217.164 8.90066 216.842 8.518 216.31C8.126 215.778 7.93 215.134 7.93 214.378ZM14.3 214.994C14.3 214.313 14.09 213.739 13.67 213.272C13.25 212.796 12.732 212.558 12.116 212.558L11.752 212.558L11.752 214.896C11.752 215.447 11.8733 215.876 12.116 216.184C12.3493 216.483 12.662 216.632 13.054 216.632C13.418 216.632 13.7167 216.483 13.95 216.184C14.1833 215.885 14.3 215.489 14.3 214.994ZM8.028 205.545C8.028 205.349 8.04666 205.186 8.084 205.055L9.106 205.139C9.09666 205.223 9.092 205.358 9.092 205.545C9.092 206.432 9.39066 207.118 9.988 207.603C10.5853 208.079 11.3693 208.317 12.34 208.317L15 208.317L15 209.395L8.098 209.395L8.098 208.317L9.792 208.317C8.616 207.673 8.028 206.749 8.028 205.545ZM4.22 197.263L15 197.263L15 198.327L13.852 198.327C14.7387 198.962 15.182 199.877 15.182 201.071C15.182 202.014 14.846 202.826 14.174 203.507C13.4927 204.179 12.62 204.515 11.556 204.515C10.492 204.515 9.624 204.179 8.952 203.507C8.27066 202.826 7.93 202.014 7.93 201.071C7.93 199.877 8.37333 198.962 9.26 198.327L4.22 198.327L4.22 197.263ZM14.23 200.903C14.23 200.222 13.9827 199.625 13.488 199.111C12.984 198.589 12.34 198.327 11.556 198.327C10.7627 198.327 10.1187 198.589 9.624 199.111C9.12 199.625 8.868 200.222 8.868 200.903C8.868 201.641 9.11533 202.257 9.61 202.751C10.1047 203.237 10.7533 203.479 11.556 203.479C12.3587 203.479 13.0073 203.232 13.502 202.737C13.9873 202.243 14.23 201.631 14.23 200.903ZM5.62 191.266L5.62 188.158C5.62 186.553 6.05866 185.288 6.936 184.364C7.81333 183.431 8.938 182.964 10.31 182.964C11.6727 182.964 12.7973 183.431 13.684 184.364C14.5613 185.288 15 186.553 15 188.158L15 191.266L5.62 191.266ZM13.992 190.16L13.992 188.172C13.992 186.893 13.6467 185.895 12.956 185.176C12.2653 184.448 11.3833 184.084 10.31 184.084C9.22733 184.084 8.34066 184.448 7.65 185.176C6.95933 185.895 6.614 186.893 6.614 188.172L6.614 190.16L13.992 190.16ZM11.374 174.629L11.766 174.629L11.766 180.551C12.5127 180.505 13.1147 180.239 13.572 179.753C14.02 179.268 14.244 178.713 14.244 178.087C14.244 176.958 13.7493 176.174 12.76 175.735L12.984 174.783C13.6933 175.054 14.2393 175.479 14.622 176.057C14.9953 176.627 15.182 177.303 15.182 178.087C15.182 179.039 14.846 179.861 14.174 180.551C13.502 181.242 12.634 181.587 11.57 181.587C10.4967 181.587 9.624 181.237 8.952 180.537C8.27066 179.837 7.93 178.997 7.93 178.017C7.93 177.075 8.252 176.286 8.896 175.651C9.53066 175.007 10.3567 174.667 11.374 174.629ZM8.868 178.017C8.868 178.615 9.05933 179.156 9.442 179.641C9.81533 180.117 10.324 180.407 10.968 180.509L10.968 175.707C10.3053 175.801 9.792 176.062 9.428 176.491C9.05466 176.921 8.868 177.429 8.868 178.017ZM8.098 166.728L15 169.78L15 170.942L8.098 173.994L8.098 172.832L13.74 170.354L8.098 167.89L8.098 166.728ZM5.508 165.122C5.368 164.982 5.298 164.81 5.298 164.604C5.298 164.399 5.368 164.226 5.508 164.086C5.648 163.937 5.816 163.862 6.012 163.862C6.21733 163.862 6.39 163.932 6.53 164.072C6.66066 164.212 6.726 164.39 6.726 164.604C6.726 164.81 6.66066 164.982 6.53 165.122C6.39 165.262 6.21733 165.332 6.012 165.332C5.816 165.332 5.648 165.262 5.508 165.122ZM15 164.058L15 165.136L8.098 165.136L8.098 164.058L15 164.058ZM7.93 158.843C7.93 157.965 8.15866 157.27 8.616 156.757C9.064 156.243 9.69866 155.987 10.52 155.987L15 155.987L15 157.023L13.95 157.023C14.7713 157.639 15.182 158.502 15.182 159.613C15.182 160.369 14.986 160.975 14.594 161.433C14.202 161.89 13.6933 162.119 13.068 162.119C12.424 162.119 11.906 161.876 11.514 161.391C11.1127 160.905 10.912 160.224 10.912 159.347L10.912 157.023L10.59 157.023C10.058 157.023 9.638 157.181 9.33 157.499C9.022 157.816 8.868 158.245 8.868 158.787C8.868 159.309 8.994 159.743 9.246 160.089C9.48866 160.434 9.82466 160.644 10.254 160.719L10.03 161.741C9.40466 161.629 8.90066 161.307 8.518 160.775C8.126 160.243 7.93 159.599 7.93 158.843ZM14.3 159.459C14.3 158.777 14.09 158.203 13.67 157.737C13.25 157.261 12.732 157.023 12.116 157.023L11.752 157.023L11.752 159.361C11.752 159.911 11.8733 160.341 12.116 160.649C12.3493 160.947 12.662 161.097 13.054 161.097C13.418 161.097 13.7167 160.947 13.95 160.649C14.1833 160.35 14.3 159.953 14.3 159.459ZM13.754 150.066L14.636 149.716C15 150.238 15.182 150.77 15.182 151.312C15.182 152.012 14.9813 152.567 14.58 152.978C14.1693 153.388 13.5907 153.594 12.844 153.594L8.994 153.594L8.994 155.092L8.098 155.092L8.098 153.594L5.62 153.594L5.62 152.516L8.09799 152.516L8.09799 150.052L8.994 150.052L8.994 152.516L12.774 152.516C13.2127 152.516 13.558 152.404 13.81 152.18C14.0527 151.946 14.174 151.634 14.174 151.242C14.174 150.85 14.034 150.458 13.754 150.066ZM5.50799 148.224C5.36799 148.084 5.29799 147.911 5.29799 147.706C5.29799 147.501 5.36799 147.328 5.50799 147.188C5.64799 147.039 5.81599 146.964 6.01199 146.964C6.21733 146.964 6.39 147.034 6.52999 147.174C6.66066 147.314 6.72599 147.491 6.72599 147.706C6.72599 147.911 6.66066 148.084 6.52999 148.224C6.39 148.364 6.21733 148.434 6.01199 148.434C5.81599 148.434 5.64799 148.364 5.50799 148.224ZM15 147.16L15 148.238L8.09799 148.238L8.09799 147.16L15 147.16ZM7.94399 141.552C7.94399 140.526 8.28466 139.662 8.96599 138.962C9.63799 138.253 10.4967 137.898 11.542 137.898C12.5873 137.898 13.4553 138.253 14.146 138.962C14.8273 139.662 15.168 140.526 15.168 141.552C15.168 142.588 14.8273 143.461 14.146 144.17C13.4553 144.87 12.5873 145.22 11.542 145.22C10.4967 145.22 9.63799 144.87 8.96599 144.17C8.28466 143.461 7.94399 142.588 7.94399 141.552ZM14.23 141.552C14.23 140.834 13.978 140.222 13.474 139.718C12.97 139.205 12.326 138.948 11.542 138.948C10.7673 138.948 10.1327 139.205 9.63799 139.718C9.13399 140.222 8.88199 140.834 8.88199 141.552C8.88199 142.28 9.13399 142.901 9.63799 143.414C10.1327 143.928 10.7673 144.184 11.542 144.184C12.326 144.184 12.97 143.928 13.474 143.414C13.978 142.901 14.23 142.28 14.23 141.552ZM7.92999 132.405C7.92999 131.574 8.20066 130.907 8.74199 130.403C9.28333 129.889 9.99266 129.633 10.87 129.633L15 129.633L15 130.697L11.066 130.697C10.422 130.697 9.90399 130.874 9.51199 131.229C9.11066 131.583 8.90999 132.045 8.90999 132.615C8.90999 133.352 9.15266 133.935 9.63799 134.365C10.1233 134.794 10.8047 135.009 11.682 135.009L15 135.009L15 136.073L8.09799 136.073L8.09799 135.009L9.24599 135.009C8.36866 134.421 7.92999 133.553 7.92999 132.405ZM7.94399 120.771C7.94399 119.744 8.28466 118.881 8.96599 118.181C9.63799 117.472 10.4967 117.117 11.542 117.117C12.5873 117.117 13.4553 117.472 14.146 118.181C14.8273 118.881 15.168 119.744 15.168 120.771C15.168 121.807 14.8273 122.68 14.146 123.389C13.4553 124.089 12.5873 124.439 11.542 124.439C10.4967 124.439 9.63799 124.089 8.96599 123.389C8.28466 122.68 7.94399 121.807 7.94399 120.771ZM14.23 120.771C14.23 120.052 13.978 119.441 13.474 118.937C12.97 118.424 12.326 118.167 11.542 118.167C10.7673 118.167 10.1327 118.424 9.63799 118.937C9.13399 119.441 8.88199 120.052 8.88199 120.771C8.88199 121.499 9.13399 122.12 9.63799 122.633C10.1327 123.146 10.7673 123.403 11.542 123.403C12.326 123.403 12.97 123.146 13.474 122.633C13.978 122.12 14.23 121.499 14.23 120.771ZM8.99399 111.538L8.99399 114.044L15 114.044L15 115.108L8.99399 115.108L8.99399 116.312L8.09799 116.312L8.09799 115.108L6.47399 115.108C5.73666 115.108 5.15333 114.893 4.72399 114.464C4.29466 114.034 4.07999 113.46 4.07999 112.742C4.07999 112.34 4.15933 111.967 4.31799 111.622L5.19999 111.888C5.08799 112.14 5.03199 112.401 5.03199 112.672C5.03199 113.092 5.16266 113.428 5.42399 113.68C5.68533 113.922 6.03533 114.044 6.47399 114.044L8.09799 114.044L8.09799 111.538L8.99399 111.538ZM15 99.0442L15 100.43L10.982 104.014L10.982 105.736L15 105.736L15 106.842L5.61999 106.842L5.61999 102.502C5.61999 101.588 5.86733 100.85 6.36199 100.29C6.84733 99.7209 7.49133 99.4362 8.29399 99.4362C9.09666 99.4362 9.74533 99.7209 10.24 100.29C10.7347 100.85 10.982 101.588 10.982 102.502L10.982 102.67L15 99.0442ZM9.97399 105.736L9.97399 102.502C9.97399 101.914 9.81999 101.443 9.51199 101.088C9.20399 100.724 8.79799 100.542 8.29399 100.542C7.78999 100.542 7.38399 100.724 7.07599 101.088C6.76799 101.443 6.61399 101.914 6.61399 102.502L6.61399 105.736L9.97399 105.736ZM11.374 91.313L11.766 91.313L11.766 97.235C12.5127 97.1884 13.1147 96.9224 13.572 96.437C14.02 95.9517 14.244 95.3964 14.244 94.771C14.244 93.6417 13.7493 92.8577 12.76 92.419L12.984 91.467C13.6933 91.7377 14.2393 92.1624 14.622 92.741C14.9953 93.3104 15.182 93.987 15.182 94.771C15.182 95.723 14.846 96.5444 14.174 97.235C13.502 97.9257 12.634 98.271 11.57 98.271C10.4967 98.271 9.62399 97.921 8.95199 97.221C8.27066 96.521 7.92999 95.681 7.92999 94.701C7.92999 93.7584 8.25199 92.9697 8.89599 92.335C9.53066 91.691 10.3567 91.3504 11.374 91.313ZM8.86799 94.701C8.86799 95.2984 9.05933 95.8397 9.44199 96.325C9.81533 96.801 10.324 97.0904 10.968 97.193L10.968 92.391C10.3053 92.4844 9.79199 92.7457 9.42799 93.175C9.05466 93.6044 8.86799 94.113 8.86799 94.701ZM13.754 85.6849L14.636 85.3349C15 85.8576 15.182 86.3896 15.182 86.9309C15.182 87.6309 14.9813 88.1863 14.58 88.5969C14.1693 89.0076 13.5907 89.2129 12.844 89.2129L8.99399 89.2129L8.99399 90.7109L8.09799 90.7109L8.09799 89.2129L5.61999 89.2129L5.61999 88.1349L8.09799 88.1349L8.09799 85.6709L8.99399 85.6709L8.99399 88.1349L12.774 88.1349C13.2127 88.1349 13.558 88.0229 13.81 87.7989C14.0527 87.5656 14.174 87.2529 14.174 86.8609C14.174 86.4689 14.034 86.0769 13.754 85.6849ZM8.09799 77.8199L14.986 77.8199L14.986 78.8979L13.866 78.8979C14.734 79.4859 15.168 80.3539 15.168 81.5019C15.168 82.3326 14.8973 83.0046 14.356 83.5179C13.8147 84.0219 13.1053 84.2739 12.228 84.2739L8.09799 84.2739L8.09799 83.1959L12.032 83.1959C12.676 83.1959 13.194 83.0232 13.586 82.6779C13.978 82.3232 14.174 81.8612 14.174 81.2919C14.174 80.5546 13.936 79.9712 13.46 79.5419C12.9747 79.1126 12.2933 78.8979 11.416 78.8979L8.09799 78.8979L8.09799 77.8199ZM8.02799 71.5196C8.02799 71.3236 8.04666 71.1602 8.08399 71.0296L9.10599 71.1136C9.09666 71.1976 9.09199 71.3329 9.09199 71.5196C9.09199 72.4062 9.39066 73.0922 9.98799 73.5776C10.5853 74.0536 11.3693 74.2916 12.34 74.2916L15 74.2916L15 75.3696L8.09799 75.3696L8.09799 74.2916L9.79199 74.2916C8.61599 73.6476 8.02799 72.7236 8.02799 71.5196ZM7.92999 65.932C7.92999 65.1014 8.20066 64.434 8.74199 63.93C9.28332 63.4167 9.99266 63.16 10.87 63.16L15 63.16L15 64.224L11.066 64.224C10.422 64.224 9.90399 64.4014 9.51199 64.756C9.11066 65.1107 8.90999 65.5727 8.90999 66.142C8.90999 66.8794 9.15266 67.4627 9.63799 67.892C10.1233 68.3214 10.8047 68.536 11.682 68.536L15 68.536L15 69.6L8.09799 69.6L8.09799 68.536L9.24599 68.536C8.36866 67.948 7.92999 67.08 7.92999 65.932ZM13.138 61.4517L12.9 60.3877C13.348 60.341 13.6933 60.131 13.936 59.7577C14.1787 59.3844 14.3 58.9177 14.3 58.3577C14.3 57.863 14.1927 57.4664 13.978 57.1677C13.7633 56.8597 13.4787 56.7057 13.124 56.7057C12.6293 56.7057 12.298 57.0837 12.13 57.8397L11.78 59.4217C11.528 60.6164 10.94 61.2137 10.016 61.2137C9.39066 61.2137 8.88666 60.9757 8.50399 60.4997C8.12132 60.0237 7.92999 59.389 7.92999 58.5957C7.92999 57.8397 8.10732 57.2144 8.46199 56.7197C8.80732 56.225 9.26932 55.9124 9.84799 55.7817L10.072 56.8037C9.68932 56.8784 9.38132 57.0744 9.14799 57.3917C8.91466 57.709 8.79799 58.1197 8.79799 58.6237C8.79799 59.0997 8.90532 59.473 9.11999 59.7437C9.32532 60.0144 9.59599 60.1497 9.93199 60.1497C10.1933 60.1497 10.3987 60.0657 10.548 59.8977C10.688 59.7204 10.8 59.4544 10.884 59.0997L11.248 57.4337C11.5093 56.2484 12.1113 55.6557 13.054 55.6557C13.726 55.6557 14.2487 55.9124 14.622 56.4257C14.9953 56.9297 15.182 57.6017 15.182 58.4417C15.182 59.263 15.0047 59.949 14.65 60.4997C14.2953 61.0504 13.7913 61.3677 13.138 61.4517Z" fill="#212529"/>
<path d="M78.6251 276.62V286H77.6731L71.5411 278.552V286H70.4351V276.62H71.3871L77.5191 284.152V276.62H78.6251ZM87.3578 279.098V285.986H86.2798V284.866C85.6918 285.734 84.8238 286.168 83.6758 286.168C82.8452 286.168 82.1732 285.897 81.6598 285.356C81.1558 284.815 80.9038 284.105 80.9038 283.228V279.098H81.9818V283.032C81.9818 283.676 82.1545 284.194 82.4998 284.586C82.8545 284.978 83.3165 285.174 83.8858 285.174C84.6232 285.174 85.2065 284.936 85.6358 284.46C86.0652 283.975 86.2798 283.293 86.2798 282.416V279.098H87.3578ZM98.1802 278.93C98.9175 278.93 99.5288 279.173 100.014 279.658C100.509 280.134 100.756 280.759 100.756 281.534V286H99.6922V281.716C99.6922 281.175 99.5242 280.741 99.1882 280.414C98.8615 280.078 98.4368 279.91 97.9142 279.91C97.2702 279.91 96.7568 280.139 96.3742 280.596C95.9915 281.044 95.8002 281.669 95.8002 282.472V286H94.7362V281.716C94.7362 281.175 94.5682 280.741 94.2322 280.414C93.9055 280.078 93.4855 279.91 92.9722 279.91C92.3282 279.91 91.8148 280.139 91.4322 280.596C91.0588 281.044 90.8722 281.669 90.8722 282.472V286H89.8082V279.098H90.8722V280.148C91.3948 279.336 92.1788 278.93 93.2242 278.93C93.7562 278.93 94.2275 279.056 94.6382 279.308C95.0582 279.551 95.3708 279.891 95.5762 280.33C96.1548 279.397 97.0228 278.93 98.1802 278.93ZM106.864 278.93C107.807 278.93 108.614 279.271 109.286 279.952C109.968 280.624 110.308 281.492 110.308 282.556C110.308 283.62 109.968 284.493 109.286 285.174C108.614 285.846 107.807 286.182 106.864 286.182C105.67 286.182 104.755 285.739 104.12 284.852V286H103.056V275.22H104.12V280.26C104.755 279.373 105.67 278.93 106.864 278.93ZM106.696 285.23C107.424 285.23 108.036 284.987 108.53 284.502C109.025 284.007 109.272 283.359 109.272 282.556C109.272 281.753 109.025 281.105 108.53 280.61C108.036 280.115 107.424 279.868 106.696 279.868C106.015 279.868 105.413 280.12 104.89 280.624C104.377 281.119 104.12 281.763 104.12 282.556C104.12 283.34 104.377 283.984 104.89 284.488C105.413 284.983 106.015 285.23 106.696 285.23ZM118.476 282.374V282.766H112.554C112.601 283.513 112.867 284.115 113.352 284.572C113.837 285.02 114.393 285.244 115.018 285.244C116.147 285.244 116.931 284.749 117.37 283.76L118.322 283.984C118.051 284.693 117.627 285.239 117.048 285.622C116.479 285.995 115.802 286.182 115.018 286.182C114.066 286.182 113.245 285.846 112.554 285.174C111.863 284.502 111.518 283.634 111.518 282.57C111.518 281.497 111.868 280.624 112.568 279.952C113.268 279.271 114.108 278.93 115.088 278.93C116.031 278.93 116.819 279.252 117.454 279.896C118.098 280.531 118.439 281.357 118.476 282.374ZM115.088 279.868C114.491 279.868 113.949 280.059 113.464 280.442C112.988 280.815 112.699 281.324 112.596 281.968H117.398C117.305 281.305 117.043 280.792 116.614 280.428C116.185 280.055 115.676 279.868 115.088 279.868ZM124.16 279.028C124.356 279.028 124.519 279.047 124.65 279.084L124.566 280.106C124.482 280.097 124.347 280.092 124.16 280.092C123.273 280.092 122.587 280.391 122.102 280.988C121.626 281.585 121.388 282.369 121.388 283.34V286H120.31V279.098H121.388V280.792C122.032 279.616 122.956 279.028 124.16 279.028ZM132.645 278.944C133.672 278.944 134.535 279.285 135.235 279.966C135.944 280.638 136.299 281.497 136.299 282.542C136.299 283.587 135.944 284.455 135.235 285.146C134.535 285.827 133.672 286.168 132.645 286.168C131.609 286.168 130.736 285.827 130.027 285.146C129.327 284.455 128.977 283.587 128.977 282.542C128.977 281.497 129.327 280.638 130.027 279.966C130.736 279.285 131.609 278.944 132.645 278.944ZM132.645 285.23C133.364 285.23 133.975 284.978 134.479 284.474C134.992 283.97 135.249 283.326 135.249 282.542C135.249 281.767 134.992 281.133 134.479 280.638C133.975 280.134 133.364 279.882 132.645 279.882C131.917 279.882 131.296 280.134 130.783 280.638C130.27 281.133 130.013 281.767 130.013 282.542C130.013 283.326 130.27 283.97 130.783 284.474C131.296 284.978 131.917 285.23 132.645 285.23ZM141.878 279.994H139.372V286H138.308V279.994H137.104V279.098H138.308V277.474C138.308 276.737 138.523 276.153 138.952 275.724C139.382 275.295 139.956 275.08 140.674 275.08C141.076 275.08 141.449 275.159 141.794 275.318L141.528 276.2C141.276 276.088 141.015 276.032 140.744 276.032C140.324 276.032 139.988 276.163 139.736 276.424C139.494 276.685 139.372 277.035 139.372 277.474V279.098H141.878V279.994ZM149.696 276.438C150.62 276.438 151.394 276.671 152.02 277.138C152.654 277.605 153.051 278.23 153.21 279.014L152.104 279.266C152.001 278.697 151.73 278.244 151.292 277.908C150.853 277.572 150.312 277.404 149.668 277.404C149.033 277.404 148.52 277.563 148.128 277.88C147.736 278.188 147.54 278.594 147.54 279.098C147.54 279.499 147.656 279.812 147.89 280.036C148.132 280.251 148.487 280.405 148.954 280.498L150.998 280.96C152.575 281.296 153.364 282.108 153.364 283.396C153.364 284.245 153.046 284.922 152.412 285.426C151.777 285.93 150.932 286.182 149.878 286.182C148.86 286.182 147.997 285.935 147.288 285.44C146.588 284.936 146.182 284.25 146.07 283.382L147.232 283.144C147.334 283.797 147.633 284.306 148.128 284.67C148.622 285.025 149.238 285.202 149.976 285.202C150.685 285.202 151.24 285.043 151.642 284.726C152.052 284.399 152.258 283.975 152.258 283.452C152.258 283.023 152.136 282.701 151.894 282.486C151.66 282.271 151.273 282.103 150.732 281.982L148.618 281.52C147.115 281.184 146.364 280.386 146.364 279.126C146.364 278.323 146.667 277.675 147.274 277.18C147.89 276.685 148.697 276.438 149.696 276.438ZM159.008 284.754L159.358 285.636C158.836 286 158.304 286.182 157.762 286.182C157.062 286.182 156.507 285.981 156.096 285.58C155.686 285.169 155.48 284.591 155.48 283.844V279.994H153.982V279.098H155.48V276.62H156.558V279.098H159.022V279.994H156.558V283.774C156.558 284.213 156.67 284.558 156.894 284.81C157.128 285.053 157.44 285.174 157.832 285.174C158.224 285.174 158.616 285.034 159.008 284.754ZM163.557 278.944C164.584 278.944 165.447 279.285 166.147 279.966C166.856 280.638 167.211 281.497 167.211 282.542C167.211 283.587 166.856 284.455 166.147 285.146C165.447 285.827 164.584 286.168 163.557 286.168C162.521 286.168 161.648 285.827 160.939 285.146C160.239 284.455 159.889 283.587 159.889 282.542C159.889 281.497 160.239 280.638 160.939 279.966C161.648 279.285 162.521 278.944 163.557 278.944ZM163.557 285.23C164.276 285.23 164.887 284.978 165.391 284.474C165.904 283.97 166.161 283.326 166.161 282.542C166.161 281.767 165.904 281.133 165.391 280.638C164.887 280.134 164.276 279.882 163.557 279.882C162.829 279.882 162.208 280.134 161.695 280.638C161.182 281.133 160.925 281.767 160.925 282.542C160.925 283.326 161.182 283.97 161.695 284.474C162.208 284.978 162.829 285.23 163.557 285.23ZM172.005 285.188C172.527 285.188 172.994 285.053 173.405 284.782C173.815 284.511 174.109 284.129 174.287 283.634L175.267 283.9C175.061 284.581 174.655 285.132 174.049 285.552C173.451 285.972 172.77 286.182 172.005 286.182C171.006 286.182 170.157 285.846 169.457 285.174C168.757 284.502 168.407 283.629 168.407 282.556C168.407 281.492 168.757 280.624 169.457 279.952C170.157 279.271 171.006 278.93 172.005 278.93C172.77 278.93 173.451 279.14 174.049 279.56C174.646 279.971 175.057 280.526 175.281 281.226L174.259 281.534C174.091 281.011 173.801 280.61 173.391 280.33C172.989 280.05 172.527 279.91 172.005 279.91C171.286 279.91 170.679 280.157 170.185 280.652C169.69 281.147 169.443 281.781 169.443 282.556C169.443 283.34 169.685 283.975 170.171 284.46C170.665 284.945 171.277 285.188 172.005 285.188ZM184.117 286H182.759L179.819 282.752L178.167 284.488V286H177.103V275.22H178.167V283.06L182.017 279.098H183.305L180.547 281.996L184.117 286ZM184.677 284.138L185.741 283.9C185.788 284.348 185.998 284.693 186.371 284.936C186.745 285.179 187.211 285.3 187.771 285.3C188.266 285.3 188.663 285.193 188.961 284.978C189.269 284.763 189.423 284.479 189.423 284.124C189.423 283.629 189.045 283.298 188.289 283.13L186.707 282.78C185.513 282.528 184.915 281.94 184.915 281.016C184.915 280.391 185.153 279.887 185.629 279.504C186.105 279.121 186.74 278.93 187.533 278.93C188.289 278.93 188.915 279.107 189.409 279.462C189.904 279.807 190.217 280.269 190.347 280.848L189.325 281.072C189.251 280.689 189.055 280.381 188.737 280.148C188.42 279.915 188.009 279.798 187.505 279.798C187.029 279.798 186.656 279.905 186.385 280.12C186.115 280.325 185.979 280.596 185.979 280.932C185.979 281.193 186.063 281.399 186.231 281.548C186.409 281.688 186.675 281.8 187.029 281.884L188.695 282.248C189.881 282.509 190.473 283.111 190.473 284.054C190.473 284.726 190.217 285.249 189.703 285.622C189.199 285.995 188.527 286.182 187.687 286.182C186.866 286.182 186.18 286.005 185.629 285.65C185.079 285.295 184.761 284.791 184.677 284.138ZM196.001 276.508C196.141 276.368 196.313 276.298 196.519 276.298C196.724 276.298 196.897 276.368 197.037 276.508C197.186 276.648 197.261 276.816 197.261 277.012C197.261 277.217 197.191 277.39 197.051 277.53C196.911 277.661 196.733 277.726 196.519 277.726C196.313 277.726 196.141 277.661 196.001 277.53C195.861 277.39 195.791 277.217 195.791 277.012C195.791 276.816 195.861 276.648 196.001 276.508ZM197.065 286H195.987V279.098H197.065V286ZM203.302 278.93C204.133 278.93 204.8 279.201 205.304 279.742C205.818 280.283 206.074 280.993 206.074 281.87V286H205.01V282.066C205.01 281.422 204.833 280.904 204.478 280.512C204.124 280.111 203.662 279.91 203.092 279.91C202.355 279.91 201.772 280.153 201.342 280.638C200.913 281.123 200.698 281.805 200.698 282.682V286H199.634V279.098H200.698V280.246C201.286 279.369 202.154 278.93 203.302 278.93ZM211.898 276.62H215.986C216.975 276.62 217.764 276.891 218.352 277.432C218.949 277.964 219.248 278.664 219.248 279.532C219.248 280.4 218.949 281.105 218.352 281.646C217.764 282.178 216.975 282.444 215.986 282.444H213.004V286H211.898V276.62ZM213.004 281.45H215.986C216.649 281.45 217.176 281.273 217.568 280.918C217.96 280.563 218.156 280.101 218.156 279.532C218.156 278.963 217.96 278.501 217.568 278.146C217.176 277.791 216.649 277.614 215.986 277.614H213.004V281.45ZM224.055 278.944C225.082 278.944 225.945 279.285 226.645 279.966C227.354 280.638 227.709 281.497 227.709 282.542C227.709 283.587 227.354 284.455 226.645 285.146C225.945 285.827 225.082 286.168 224.055 286.168C223.019 286.168 222.146 285.827 221.437 285.146C220.737 284.455 220.387 283.587 220.387 282.542C220.387 281.497 220.737 280.638 221.437 279.966C222.146 279.285 223.019 278.944 224.055 278.944ZM224.055 285.23C224.774 285.23 225.385 284.978 225.889 284.474C226.402 283.97 226.659 283.326 226.659 282.542C226.659 281.767 226.402 281.133 225.889 280.638C225.385 280.134 224.774 279.882 224.055 279.882C223.327 279.882 222.706 280.134 222.193 280.638C221.68 281.133 221.423 281.767 221.423 282.542C221.423 283.326 221.68 283.97 222.193 284.474C222.706 284.978 223.327 285.23 224.055 285.23ZM233.385 279.028C233.581 279.028 233.744 279.047 233.875 279.084L233.791 280.106C233.707 280.097 233.571 280.092 233.385 280.092C232.498 280.092 231.812 280.391 231.327 280.988C230.851 281.585 230.613 282.369 230.613 283.34V286H229.535V279.098H230.613V280.792C231.257 279.616 232.181 279.028 233.385 279.028ZM239.235 284.754L239.585 285.636C239.062 286 238.53 286.182 237.989 286.182C237.289 286.182 236.734 285.981 236.323 285.58C235.912 285.169 235.707 284.591 235.707 283.844V279.994H234.209V279.098H235.707V276.62H236.785V279.098H239.249V279.994H236.785V283.774C236.785 284.213 236.897 284.558 237.121 284.81C237.354 285.053 237.667 285.174 238.059 285.174C238.451 285.174 238.843 285.034 239.235 284.754ZM244.773 279.994H242.267V286H241.203V279.994H239.999V279.098H241.203V277.474C241.203 276.737 241.417 276.153 241.847 275.724C242.276 275.295 242.85 275.08 243.569 275.08C243.97 275.08 244.343 275.159 244.689 275.318L244.423 276.2C244.171 276.088 243.909 276.032 243.639 276.032C243.219 276.032 242.883 276.163 242.631 276.424C242.388 276.685 242.267 277.035 242.267 277.474V279.098H244.773V279.994ZM248.911 278.944C249.937 278.944 250.801 279.285 251.501 279.966C252.21 280.638 252.565 281.497 252.565 282.542C252.565 283.587 252.21 284.455 251.501 285.146C250.801 285.827 249.937 286.168 248.911 286.168C247.875 286.168 247.002 285.827 246.293 285.146C245.593 284.455 245.243 283.587 245.243 282.542C245.243 281.497 245.593 280.638 246.293 279.966C247.002 279.285 247.875 278.944 248.911 278.944ZM248.911 285.23C249.629 285.23 250.241 284.978 250.745 284.474C251.258 283.97 251.515 283.326 251.515 282.542C251.515 281.767 251.258 281.133 250.745 280.638C250.241 280.134 249.629 279.882 248.911 279.882C248.183 279.882 247.562 280.134 247.049 280.638C246.535 281.133 246.279 281.767 246.279 282.542C246.279 283.326 246.535 283.97 247.049 284.474C247.562 284.978 248.183 285.23 248.911 285.23ZM255.314 275.22V284.236C255.314 284.516 255.403 284.74 255.58 284.908C255.758 285.076 255.996 285.16 256.294 285.16C256.565 285.16 256.84 285.085 257.12 284.936L257.344 285.832C256.943 286.065 256.537 286.182 256.126 286.182C255.557 286.182 255.1 286.009 254.754 285.664C254.418 285.319 254.25 284.861 254.25 284.292V275.22H255.314ZM258.878 276.508C259.018 276.368 259.19 276.298 259.396 276.298C259.601 276.298 259.774 276.368 259.914 276.508C260.063 276.648 260.138 276.816 260.138 277.012C260.138 277.217 260.068 277.39 259.928 277.53C259.788 277.661 259.61 277.726 259.396 277.726C259.19 277.726 259.018 277.661 258.878 277.53C258.738 277.39 258.668 277.217 258.668 277.012C258.668 276.816 258.738 276.648 258.878 276.508ZM259.942 286H258.864V279.098H259.942V286ZM265.549 278.944C266.576 278.944 267.439 279.285 268.139 279.966C268.849 280.638 269.203 281.497 269.203 282.542C269.203 283.587 268.849 284.455 268.139 285.146C267.439 285.827 266.576 286.168 265.549 286.168C264.513 286.168 263.641 285.827 262.931 285.146C262.231 284.455 261.881 283.587 261.881 282.542C261.881 281.497 262.231 280.638 262.931 279.966C263.641 279.285 264.513 278.944 265.549 278.944ZM265.549 285.23C266.268 285.23 266.879 284.978 267.383 284.474C267.897 283.97 268.153 283.326 268.153 282.542C268.153 281.767 267.897 281.133 267.383 280.638C266.879 280.134 266.268 279.882 265.549 279.882C264.821 279.882 264.201 280.134 263.687 280.638C263.174 281.133 262.917 281.767 262.917 282.542C262.917 283.326 263.174 283.97 263.687 284.474C264.201 284.978 264.821 285.23 265.549 285.23Z" fill="#212529"/>
<path d="M198.34 199.62V209H197.276V202.112L193.65 209H192.936L189.296 202.112V209H188.232V199.62H189.198L193.286 207.348L197.374 199.62H198.34ZM203.456 201.93C204.333 201.93 205.029 202.159 205.542 202.616C206.055 203.064 206.312 203.699 206.312 204.52V209H205.276V207.95C204.66 208.771 203.797 209.182 202.686 209.182C201.93 209.182 201.323 208.986 200.866 208.594C200.409 208.202 200.18 207.693 200.18 207.068C200.18 206.424 200.423 205.906 200.908 205.514C201.393 205.113 202.075 204.912 202.952 204.912H205.276V204.59C205.276 204.058 205.117 203.638 204.8 203.33C204.483 203.022 204.053 202.868 203.512 202.868C202.989 202.868 202.555 202.994 202.21 203.246C201.865 203.489 201.655 203.825 201.58 204.254L200.558 204.03C200.67 203.405 200.992 202.901 201.524 202.518C202.056 202.126 202.7 201.93 203.456 201.93ZM202.84 208.3C203.521 208.3 204.095 208.09 204.562 207.67C205.038 207.25 205.276 206.732 205.276 206.116V205.752H202.938C202.387 205.752 201.958 205.873 201.65 206.116C201.351 206.349 201.202 206.662 201.202 207.054C201.202 207.418 201.351 207.717 201.65 207.95C201.949 208.183 202.345 208.3 202.84 208.3ZM212.289 202.028C212.485 202.028 212.648 202.047 212.779 202.084L212.695 203.106C212.611 203.097 212.476 203.092 212.289 203.092C211.402 203.092 210.716 203.391 210.231 203.988C209.755 204.585 209.517 205.369 209.517 206.34V209H208.439V202.098H209.517V203.792C210.161 202.616 211.085 202.028 212.289 202.028ZM221.223 209H219.865L216.925 205.752L215.273 207.488V209H214.209V198.22H215.273V206.06L219.123 202.098H220.411L217.653 204.996L221.223 209ZM228.562 205.374V205.766H222.64C222.687 206.513 222.953 207.115 223.438 207.572C223.923 208.02 224.479 208.244 225.104 208.244C226.233 208.244 227.017 207.749 227.456 206.76L228.408 206.984C228.137 207.693 227.713 208.239 227.134 208.622C226.565 208.995 225.888 209.182 225.104 209.182C224.152 209.182 223.331 208.846 222.64 208.174C221.949 207.502 221.604 206.634 221.604 205.57C221.604 204.497 221.954 203.624 222.654 202.952C223.354 202.271 224.194 201.93 225.174 201.93C226.117 201.93 226.905 202.252 227.54 202.896C228.184 203.531 228.525 204.357 228.562 205.374ZM225.174 202.868C224.577 202.868 224.035 203.059 223.55 203.442C223.074 203.815 222.785 204.324 222.682 204.968H227.484C227.391 204.305 227.129 203.792 226.7 203.428C226.271 203.055 225.762 202.868 225.174 202.868ZM234.19 207.754L234.54 208.636C234.017 209 233.485 209.182 232.944 209.182C232.244 209.182 231.689 208.981 231.278 208.58C230.867 208.169 230.662 207.591 230.662 206.844V202.994H229.164V202.098H230.662V199.62H231.74V202.098H234.204V202.994H231.74V206.774C231.74 207.213 231.852 207.558 232.076 207.81C232.309 208.053 232.622 208.174 233.014 208.174C233.406 208.174 233.798 208.034 234.19 207.754ZM247.231 209H245.845L242.261 204.982H240.539V209H239.433V199.62H243.773C244.688 199.62 245.425 199.867 245.985 200.362C246.555 200.847 246.839 201.491 246.839 202.294C246.839 203.097 246.555 203.745 245.985 204.24C245.425 204.735 244.688 204.982 243.773 204.982H243.605L247.231 209ZM240.539 203.974H243.773C244.361 203.974 244.833 203.82 245.187 203.512C245.551 203.204 245.733 202.798 245.733 202.294C245.733 201.79 245.551 201.384 245.187 201.076C244.833 200.768 244.361 200.614 243.773 200.614H240.539V203.974ZM248.938 199.508C249.078 199.368 249.251 199.298 249.456 199.298C249.661 199.298 249.834 199.368 249.974 199.508C250.123 199.648 250.198 199.816 250.198 200.012C250.198 200.217 250.128 200.39 249.988 200.53C249.848 200.661 249.671 200.726 249.456 200.726C249.251 200.726 249.078 200.661 248.938 200.53C248.798 200.39 248.728 200.217 248.728 200.012C248.728 199.816 248.798 199.648 248.938 199.508ZM250.002 209H248.924V202.098H250.002V209ZM251.984 207.138L253.048 206.9C253.095 207.348 253.305 207.693 253.678 207.936C254.051 208.179 254.518 208.3 255.078 208.3C255.573 208.3 255.969 208.193 256.268 207.978C256.576 207.763 256.73 207.479 256.73 207.124C256.73 206.629 256.352 206.298 255.596 206.13L254.014 205.78C252.819 205.528 252.222 204.94 252.222 204.016C252.222 203.391 252.46 202.887 252.936 202.504C253.412 202.121 254.047 201.93 254.84 201.93C255.596 201.93 256.221 202.107 256.716 202.462C257.211 202.807 257.523 203.269 257.654 203.848L256.632 204.072C256.557 203.689 256.361 203.381 256.044 203.148C255.727 202.915 255.316 202.798 254.812 202.798C254.336 202.798 253.963 202.905 253.692 203.12C253.421 203.325 253.286 203.596 253.286 203.932C253.286 204.193 253.37 204.399 253.538 204.548C253.715 204.688 253.981 204.8 254.336 204.884L256.002 205.248C257.187 205.509 257.78 206.111 257.78 207.054C257.78 207.726 257.523 208.249 257.01 208.622C256.506 208.995 255.834 209.182 254.994 209.182C254.173 209.182 253.487 209.005 252.936 208.65C252.385 208.295 252.068 207.791 251.984 207.138ZM266.668 209H265.31L262.37 205.752L260.718 207.488V209H259.654V198.22H260.718V206.06L264.568 202.098H265.856L263.098 204.996L266.668 209Z" fill="#C9B462"/>
<path d="M158.428 157.614H154.956V166H153.836V157.614H150.35V156.62H158.428V157.614ZM161.79 158.944C162.816 158.944 163.68 159.285 164.38 159.966C165.089 160.638 165.444 161.497 165.444 162.542C165.444 163.587 165.089 164.455 164.38 165.146C163.68 165.827 162.816 166.168 161.79 166.168C160.754 166.168 159.881 165.827 159.172 165.146C158.472 164.455 158.122 163.587 158.122 162.542C158.122 161.497 158.472 160.638 159.172 159.966C159.881 159.285 160.754 158.944 161.79 158.944ZM161.79 165.23C162.508 165.23 163.12 164.978 163.624 164.474C164.137 163.97 164.394 163.326 164.394 162.542C164.394 161.767 164.137 161.133 163.624 160.638C163.12 160.134 162.508 159.882 161.79 159.882C161.062 159.882 160.441 160.134 159.928 160.638C159.414 161.133 159.158 161.767 159.158 162.542C159.158 163.326 159.414 163.97 159.928 164.474C160.441 164.978 161.062 165.23 161.79 165.23ZM171.063 164.754L171.413 165.636C170.89 166 170.358 166.182 169.817 166.182C169.117 166.182 168.562 165.981 168.151 165.58C167.74 165.169 167.535 164.591 167.535 163.844V159.994H166.037V159.098H167.535V156.62H168.613V159.098H171.077V159.994H168.613V163.774C168.613 164.213 168.725 164.558 168.949 164.81C169.182 165.053 169.495 165.174 169.887 165.174C170.279 165.174 170.671 165.034 171.063 164.754ZM175.562 158.93C176.439 158.93 177.134 159.159 177.648 159.616C178.161 160.064 178.418 160.699 178.418 161.52V166H177.382V164.95C176.766 165.771 175.902 166.182 174.792 166.182C174.036 166.182 173.429 165.986 172.972 165.594C172.514 165.202 172.286 164.693 172.286 164.068C172.286 163.424 172.528 162.906 173.014 162.514C173.499 162.113 174.18 161.912 175.058 161.912H177.382V161.59C177.382 161.058 177.223 160.638 176.906 160.33C176.588 160.022 176.159 159.868 175.618 159.868C175.095 159.868 174.661 159.994 174.316 160.246C173.97 160.489 173.76 160.825 173.686 161.254L172.664 161.03C172.776 160.405 173.098 159.901 173.63 159.518C174.162 159.126 174.806 158.93 175.562 158.93ZM174.946 165.3C175.627 165.3 176.201 165.09 176.668 164.67C177.144 164.25 177.382 163.732 177.382 163.116V162.752H175.044C174.493 162.752 174.064 162.873 173.756 163.116C173.457 163.349 173.308 163.662 173.308 164.054C173.308 164.418 173.457 164.717 173.756 164.95C174.054 165.183 174.451 165.3 174.946 165.3ZM181.469 155.22V164.236C181.469 164.516 181.557 164.74 181.735 164.908C181.912 165.076 182.15 165.16 182.449 165.16C182.719 165.16 182.995 165.085 183.275 164.936L183.499 165.832C183.097 166.065 182.691 166.182 182.281 166.182C181.711 166.182 181.254 166.009 180.909 165.664C180.573 165.319 180.405 164.861 180.405 164.292V155.22H181.469ZM188.433 156.62H192.521C193.511 156.62 194.299 156.891 194.887 157.432C195.485 157.964 195.783 158.664 195.783 159.532C195.783 160.4 195.485 161.105 194.887 161.646C194.299 162.178 193.511 162.444 192.521 162.444H189.539V166H188.433V156.62ZM189.539 161.45H192.521C193.184 161.45 193.711 161.273 194.103 160.918C194.495 160.563 194.691 160.101 194.691 159.532C194.691 158.963 194.495 158.501 194.103 158.146C193.711 157.791 193.184 157.614 192.521 157.614H189.539V161.45ZM200.59 158.944C201.617 158.944 202.48 159.285 203.18 159.966C203.89 160.638 204.244 161.497 204.244 162.542C204.244 163.587 203.89 164.455 203.18 165.146C202.48 165.827 201.617 166.168 200.59 166.168C199.554 166.168 198.682 165.827 197.972 165.146C197.272 164.455 196.922 163.587 196.922 162.542C196.922 161.497 197.272 160.638 197.972 159.966C198.682 159.285 199.554 158.944 200.59 158.944ZM200.59 165.23C201.309 165.23 201.92 164.978 202.424 164.474C202.938 163.97 203.194 163.326 203.194 162.542C203.194 161.767 202.938 161.133 202.424 160.638C201.92 160.134 201.309 159.882 200.59 159.882C199.862 159.882 199.242 160.134 198.728 160.638C198.215 161.133 197.958 161.767 197.958 162.542C197.958 163.326 198.215 163.97 198.728 164.474C199.242 164.978 199.862 165.23 200.59 165.23ZM209.92 159.028C210.116 159.028 210.279 159.047 210.41 159.084L210.326 160.106C210.242 160.097 210.107 160.092 209.92 160.092C209.033 160.092 208.347 160.391 207.862 160.988C207.386 161.585 207.148 162.369 207.148 163.34V166H206.07V159.098H207.148V160.792C207.792 159.616 208.716 159.028 209.92 159.028ZM215.77 164.754L216.12 165.636C215.597 166 215.065 166.182 214.524 166.182C213.824 166.182 213.269 165.981 212.858 165.58C212.447 165.169 212.242 164.591 212.242 163.844V159.994H210.744V159.098H212.242V156.62H213.32V159.098H215.784V159.994H213.32V163.774C213.32 164.213 213.432 164.558 213.656 164.81C213.889 165.053 214.202 165.174 214.594 165.174C214.986 165.174 215.378 165.034 215.77 164.754ZM221.308 159.994H218.802V166H217.738V159.994H216.534V159.098H217.738V157.474C217.738 156.737 217.953 156.153 218.382 155.724C218.811 155.295 219.385 155.08 220.104 155.08C220.505 155.08 220.879 155.159 221.224 155.318L220.958 156.2C220.706 156.088 220.445 156.032 220.174 156.032C219.754 156.032 219.418 156.163 219.166 156.424C218.923 156.685 218.802 157.035 218.802 157.474V159.098H221.308V159.994ZM225.446 158.944C226.472 158.944 227.336 159.285 228.036 159.966C228.745 160.638 229.1 161.497 229.1 162.542C229.1 163.587 228.745 164.455 228.036 165.146C227.336 165.827 226.472 166.168 225.446 166.168C224.41 166.168 223.537 165.827 222.828 165.146C222.128 164.455 221.778 163.587 221.778 162.542C221.778 161.497 222.128 160.638 222.828 159.966C223.537 159.285 224.41 158.944 225.446 158.944ZM225.446 165.23C226.164 165.23 226.776 164.978 227.28 164.474C227.793 163.97 228.05 163.326 228.05 162.542C228.05 161.767 227.793 161.133 227.28 160.638C226.776 160.134 226.164 159.882 225.446 159.882C224.718 159.882 224.097 160.134 223.584 160.638C223.07 161.133 222.814 161.767 222.814 162.542C222.814 163.326 223.07 163.97 223.584 164.474C224.097 164.978 224.718 165.23 225.446 165.23ZM231.849 155.22V164.236C231.849 164.516 231.938 164.74 232.115 164.908C232.293 165.076 232.531 165.16 232.829 165.16C233.1 165.16 233.375 165.085 233.655 164.936L233.879 165.832C233.478 166.065 233.072 166.182 232.661 166.182C232.092 166.182 231.635 166.009 231.289 165.664C230.953 165.319 230.785 164.861 230.785 164.292V155.22H231.849ZM235.413 156.508C235.553 156.368 235.725 156.298 235.931 156.298C236.136 156.298 236.309 156.368 236.449 156.508C236.598 156.648 236.673 156.816 236.673 157.012C236.673 157.217 236.603 157.39 236.463 157.53C236.323 157.661 236.145 157.726 235.931 157.726C235.725 157.726 235.553 157.661 235.413 157.53C235.273 157.39 235.203 157.217 235.203 157.012C235.203 156.816 235.273 156.648 235.413 156.508ZM236.477 166H235.399V159.098H236.477V166ZM242.084 158.944C243.111 158.944 243.974 159.285 244.674 159.966C245.384 160.638 245.738 161.497 245.738 162.542C245.738 163.587 245.384 164.455 244.674 165.146C243.974 165.827 243.111 166.168 242.084 166.168C241.048 166.168 240.176 165.827 239.466 165.146C238.766 164.455 238.416 163.587 238.416 162.542C238.416 161.497 238.766 160.638 239.466 159.966C240.176 159.285 241.048 158.944 242.084 158.944ZM242.084 165.23C242.803 165.23 243.414 164.978 243.918 164.474C244.432 163.97 244.688 163.326 244.688 162.542C244.688 161.767 244.432 161.133 243.918 160.638C243.414 160.134 242.803 159.882 242.084 159.882C241.356 159.882 240.736 160.134 240.222 160.638C239.709 161.133 239.452 161.767 239.452 162.542C239.452 163.326 239.709 163.97 240.222 164.474C240.736 164.978 241.356 165.23 242.084 165.23ZM258.889 166H257.503L253.919 161.982H252.197V166H251.091V156.62H255.431C256.346 156.62 257.083 156.867 257.643 157.362C258.213 157.847 258.497 158.491 258.497 159.294C258.497 160.097 258.213 160.745 257.643 161.24C257.083 161.735 256.346 161.982 255.431 161.982H255.263L258.889 166ZM252.197 160.974H255.431C256.019 160.974 256.491 160.82 256.845 160.512C257.209 160.204 257.391 159.798 257.391 159.294C257.391 158.79 257.209 158.384 256.845 158.076C256.491 157.768 256.019 157.614 255.431 157.614H252.197V160.974ZM260.596 156.508C260.736 156.368 260.909 156.298 261.114 156.298C261.32 156.298 261.492 156.368 261.632 156.508C261.782 156.648 261.856 156.816 261.856 157.012C261.856 157.217 261.786 157.39 261.646 157.53C261.506 157.661 261.329 157.726 261.114 157.726C260.909 157.726 260.736 157.661 260.596 157.53C260.456 157.39 260.386 157.217 260.386 157.012C260.386 156.816 260.456 156.648 260.596 156.508ZM261.66 166H260.582V159.098H261.66V166ZM263.642 164.138L264.706 163.9C264.753 164.348 264.963 164.693 265.336 164.936C265.709 165.179 266.176 165.3 266.736 165.3C267.231 165.3 267.627 165.193 267.926 164.978C268.234 164.763 268.388 164.479 268.388 164.124C268.388 163.629 268.01 163.298 267.254 163.13L265.672 162.78C264.477 162.528 263.88 161.94 263.88 161.016C263.88 160.391 264.118 159.887 264.594 159.504C265.07 159.121 265.705 158.93 266.498 158.93C267.254 158.93 267.879 159.107 268.374 159.462C268.869 159.807 269.181 160.269 269.312 160.848L268.29 161.072C268.215 160.689 268.019 160.381 267.702 160.148C267.385 159.915 266.974 159.798 266.47 159.798C265.994 159.798 265.621 159.905 265.35 160.12C265.079 160.325 264.944 160.596 264.944 160.932C264.944 161.193 265.028 161.399 265.196 161.548C265.373 161.688 265.639 161.8 265.994 161.884L267.66 162.248C268.845 162.509 269.438 163.111 269.438 164.054C269.438 164.726 269.181 165.249 268.668 165.622C268.164 165.995 267.492 166.182 266.652 166.182C265.831 166.182 265.145 166.005 264.594 165.65C264.043 165.295 263.726 164.791 263.642 164.138ZM278.326 166H276.968L274.028 162.752L272.376 164.488V166H271.312V155.22H272.376V163.06L276.226 159.098H277.514L274.756 161.996L278.326 166Z" fill="#4571CE"/>
<path d="M38.752 222.62V232H37.674V223.95L35.168 225.35V224.328L38.066 222.62H38.752ZM41.8246 223.796C42.5432 222.891 43.4812 222.438 44.6386 222.438C45.7959 222.438 46.7292 222.886 47.4386 223.782C48.1572 224.678 48.5166 225.854 48.5166 227.31C48.5166 228.766 48.1572 229.942 47.4386 230.838C46.7292 231.734 45.7959 232.182 44.6386 232.182C43.4719 232.182 42.5292 231.734 41.8106 230.838C41.1012 229.942 40.7466 228.766 40.7466 227.31C40.7466 225.863 41.1059 224.692 41.8246 223.796ZM44.6386 231.146C45.4692 231.146 46.1366 230.796 46.6406 230.096C47.1446 229.387 47.3966 228.458 47.3966 227.31C47.3966 226.162 47.1446 225.233 46.6406 224.524C46.1366 223.815 45.4692 223.46 44.6386 223.46C43.7986 223.46 43.1266 223.815 42.6226 224.524C42.1186 225.233 41.8666 226.162 41.8666 227.31C41.8666 228.458 42.1186 229.387 42.6226 230.096C43.1266 230.796 43.7986 231.146 44.6386 231.146Z" fill="#212529"/>
<path d="M59.848 245.796C60.5667 244.891 61.5047 244.438 62.662 244.438C63.8193 244.438 64.7527 244.886 65.462 245.782C66.1807 246.678 66.54 247.854 66.54 249.31C66.54 250.766 66.1807 251.942 65.462 252.838C64.7527 253.734 63.8193 254.182 62.662 254.182C61.4953 254.182 60.5527 253.734 59.834 252.838C59.1247 251.942 58.77 250.766 58.77 249.31C58.77 247.863 59.1293 246.692 59.848 245.796ZM62.662 253.146C63.4927 253.146 64.16 252.796 64.664 252.096C65.168 251.387 65.42 250.458 65.42 249.31C65.42 248.162 65.168 247.233 64.664 246.524C64.16 245.815 63.4927 245.46 62.662 245.46C61.822 245.46 61.15 245.815 60.646 246.524C60.142 247.233 59.89 248.162 59.89 249.31C59.89 250.458 60.142 251.387 60.646 252.096C61.15 252.796 61.822 253.146 62.662 253.146Z" fill="#212529"/>
<path d="M213.55 247.938C214.53 247.938 215.309 248.227 215.888 248.806C216.467 249.385 216.756 250.122 216.756 251.018C216.756 251.933 216.453 252.689 215.846 253.286C215.239 253.883 214.446 254.182 213.466 254.182C212.299 254.182 211.389 253.776 210.736 252.964C210.092 252.152 209.77 251.018 209.77 249.562C209.77 247.705 210.195 246.337 211.044 245.46C211.707 244.779 212.533 244.438 213.522 244.438C214.259 244.438 214.894 244.62 215.426 244.984C215.958 245.339 216.317 245.843 216.504 246.496L215.44 246.706C215.179 245.847 214.525 245.418 213.48 245.418C212.78 245.418 212.206 245.665 211.758 246.16C211.077 246.897 210.764 247.989 210.82 249.436C211.053 248.979 211.417 248.615 211.912 248.344C212.416 248.073 212.962 247.938 213.55 247.938ZM211.842 252.572C212.281 252.973 212.817 253.174 213.452 253.174C214.087 253.174 214.614 252.969 215.034 252.558C215.454 252.138 215.664 251.62 215.664 251.004C215.664 250.388 215.454 249.879 215.034 249.478C214.623 249.067 214.096 248.862 213.452 248.862C212.789 248.862 212.248 249.077 211.828 249.506C211.408 249.926 211.198 250.439 211.198 251.046C211.198 251.662 211.413 252.171 211.842 252.572ZM219.379 245.796C220.098 244.891 221.036 244.438 222.193 244.438C223.351 244.438 224.284 244.886 224.993 245.782C225.712 246.678 226.071 247.854 226.071 249.31C226.071 250.766 225.712 251.942 224.993 252.838C224.284 253.734 223.351 254.182 222.193 254.182C221.027 254.182 220.084 253.734 219.365 252.838C218.656 251.942 218.301 250.766 218.301 249.31C218.301 247.863 218.661 246.692 219.379 245.796ZM222.193 253.146C223.024 253.146 223.691 252.796 224.195 252.096C224.699 251.387 224.951 250.458 224.951 249.31C224.951 248.162 224.699 247.233 224.195 246.524C223.691 245.815 223.024 245.46 222.193 245.46C221.353 245.46 220.681 245.815 220.177 246.524C219.673 247.233 219.421 248.162 219.421 249.31C219.421 250.458 219.673 251.387 220.177 252.096C220.681 252.796 221.353 253.146 222.193 253.146Z" fill="#212529"/>
<path d="M109.748 252.992V254H103.434V253.286L106.78 250.164C107.228 249.753 107.555 249.441 107.76 249.226C107.965 249.011 108.152 248.736 108.32 248.4C108.497 248.055 108.586 247.695 108.586 247.322C108.586 246.753 108.395 246.291 108.012 245.936C107.639 245.581 107.149 245.404 106.542 245.404C105.898 245.404 105.385 245.6 105.002 245.992C104.629 246.384 104.428 246.935 104.4 247.644L103.378 247.434C103.415 246.529 103.723 245.805 104.302 245.264C104.881 244.713 105.632 244.438 106.556 244.438C107.48 244.438 108.227 244.704 108.796 245.236C109.365 245.759 109.65 246.449 109.65 247.308C109.65 247.952 109.487 248.521 109.16 249.016C108.833 249.501 108.264 250.127 107.452 250.892L105.198 252.992H109.748ZM112.026 245.796C112.744 244.891 113.682 244.438 114.84 244.438C115.997 244.438 116.93 244.886 117.64 245.782C118.358 246.678 118.718 247.854 118.718 249.31C118.718 250.766 118.358 251.942 117.64 252.838C116.93 253.734 115.997 254.182 114.84 254.182C113.673 254.182 112.73 253.734 112.012 252.838C111.302 251.942 110.948 250.766 110.948 249.31C110.948 247.863 111.307 246.692 112.026 245.796ZM114.84 253.146C115.67 253.146 116.338 252.796 116.842 252.096C117.346 251.387 117.598 250.458 117.598 249.31C117.598 248.162 117.346 247.233 116.842 246.524C116.338 245.815 115.67 245.46 114.84 245.46C114 245.46 113.328 245.815 112.824 246.524C112.32 247.233 112.068 248.162 112.068 249.31C112.068 250.458 112.32 251.387 112.824 252.096C113.328 252.796 114 253.146 114.84 253.146Z" fill="#212529"/>
<path d="M267.46 249.198C268.132 249.366 268.636 249.665 268.972 250.094C269.317 250.523 269.49 250.999 269.49 251.522C269.49 252.315 269.173 252.959 268.538 253.454C267.913 253.939 267.087 254.182 266.06 254.182C265.024 254.182 264.189 253.939 263.554 253.454C262.919 252.959 262.602 252.315 262.602 251.522C262.602 250.999 262.775 250.528 263.12 250.108C263.465 249.679 263.969 249.375 264.632 249.198C264.044 249.021 263.601 248.731 263.302 248.33C263.013 247.919 262.868 247.448 262.868 246.916C262.868 246.169 263.157 245.572 263.736 245.124C264.324 244.667 265.099 244.438 266.06 244.438C267.021 244.438 267.791 244.667 268.37 245.124C268.949 245.572 269.238 246.169 269.238 246.916C269.238 247.439 269.089 247.905 268.79 248.316C268.491 248.727 268.048 249.021 267.46 249.198ZM263.946 247C263.946 247.495 264.137 247.896 264.52 248.204C264.903 248.503 265.411 248.652 266.046 248.652C266.681 248.652 267.189 248.498 267.572 248.19C267.964 247.882 268.16 247.481 268.16 246.986C268.16 246.491 267.959 246.095 267.558 245.796C267.166 245.497 266.662 245.348 266.046 245.348C265.43 245.348 264.926 245.497 264.534 245.796C264.142 246.095 263.946 246.496 263.946 247ZM266.046 253.23C266.699 253.23 267.236 253.071 267.656 252.754C268.076 252.427 268.286 251.998 268.286 251.466C268.286 250.943 268.081 250.519 267.67 250.192C267.259 249.865 266.718 249.702 266.046 249.702C265.383 249.702 264.847 249.865 264.436 250.192C264.025 250.519 263.82 250.948 263.82 251.48C263.82 252.021 264.025 252.451 264.436 252.768C264.847 253.076 265.383 253.23 266.046 253.23ZM271.942 245.796C272.66 244.891 273.598 244.438 274.756 244.438C275.913 244.438 276.846 244.886 277.556 245.782C278.274 246.678 278.634 247.854 278.634 249.31C278.634 250.766 278.274 251.942 277.556 252.838C276.846 253.734 275.913 254.182 274.756 254.182C273.589 254.182 272.646 253.734 271.928 252.838C271.218 251.942 270.864 250.766 270.864 249.31C270.864 247.863 271.223 246.692 271.942 245.796ZM274.756 253.146C275.586 253.146 276.254 252.796 276.758 252.096C277.262 251.387 277.514 250.458 277.514 249.31C277.514 248.162 277.262 247.233 276.758 246.524C276.254 245.815 275.586 245.46 274.756 245.46C273.916 245.46 273.244 245.815 272.74 246.524C272.236 247.233 271.984 248.162 271.984 249.31C271.984 250.458 272.236 251.387 272.74 252.096C273.244 252.796 273.916 253.146 274.756 253.146Z" fill="#212529"/>
<path d="M163.246 251.746H161.79V254H160.712V251.746H155.49V250.682L160.39 244.62H161.79V250.836H163.246V251.746ZM160.712 250.836V245.782L156.694 250.836H160.712ZM165.53 245.796C166.248 244.891 167.186 244.438 168.344 244.438C169.501 244.438 170.434 244.886 171.144 245.782C171.862 246.678 172.222 247.854 172.222 249.31C172.222 250.766 171.862 251.942 171.144 252.838C170.434 253.734 169.501 254.182 168.344 254.182C167.177 254.182 166.234 253.734 165.516 252.838C164.806 251.942 164.452 250.766 164.452 249.31C164.452 247.863 164.811 246.692 165.53 245.796ZM168.344 253.146C169.174 253.146 169.842 252.796 170.346 252.096C170.85 251.387 171.102 250.458 171.102 249.31C171.102 248.162 170.85 247.233 170.346 246.524C169.842 245.815 169.174 245.46 168.344 245.46C167.504 245.46 166.832 245.815 166.328 246.524C165.824 247.233 165.572 248.162 165.572 249.31C165.572 250.458 165.824 251.387 166.328 252.096C166.832 252.796 167.504 253.146 168.344 253.146Z" fill="#212529"/>
<path d="M315.752 244.62V254H314.674V245.95L312.168 247.35V246.328L315.066 244.62H315.752ZM318.825 245.796C319.543 244.891 320.481 244.438 321.639 244.438C322.796 244.438 323.729 244.886 324.439 245.782C325.157 246.678 325.517 247.854 325.517 249.31C325.517 250.766 325.157 251.942 324.439 252.838C323.729 253.734 322.796 254.182 321.639 254.182C320.472 254.182 319.529 253.734 318.811 252.838C318.101 251.942 317.747 250.766 317.747 249.31C317.747 247.863 318.106 246.692 318.825 245.796ZM321.639 253.146C322.469 253.146 323.137 252.796 323.641 252.096C324.145 251.387 324.397 250.458 324.397 249.31C324.397 248.162 324.145 247.233 323.641 246.524C323.137 245.815 322.469 245.46 321.639 245.46C320.799 245.46 320.127 245.815 319.623 246.524C319.119 247.233 318.867 248.162 318.867 249.31C318.867 250.458 319.119 251.387 319.623 252.096C320.127 252.796 320.799 253.146 321.639 253.146ZM328.135 245.796C328.854 244.891 329.792 244.438 330.949 244.438C332.106 244.438 333.04 244.886 333.749 245.782C334.468 246.678 334.827 247.854 334.827 249.31C334.827 250.766 334.468 251.942 333.749 252.838C333.04 253.734 332.106 254.182 330.949 254.182C329.782 254.182 328.84 253.734 328.121 252.838C327.412 251.942 327.057 250.766 327.057 249.31C327.057 247.863 327.416 246.692 328.135 245.796ZM330.949 253.146C331.78 253.146 332.447 252.796 332.951 252.096C333.455 251.387 333.707 250.458 333.707 249.31C333.707 248.162 333.455 247.233 332.951 246.524C332.447 245.815 331.78 245.46 330.949 245.46C330.109 245.46 329.437 245.815 328.933 246.524C328.429 247.233 328.177 248.162 328.177 249.31C328.177 250.458 328.429 251.387 328.933 252.096C329.437 252.796 330.109 253.146 330.949 253.146Z" fill="#212529"/>
<path d="M37.752 180.62V190H36.674V181.95L34.168 183.35V182.328L37.066 180.62H37.752ZM41.2026 184.33H43.1486C44.0912 184.33 44.8379 184.577 45.3886 185.072C45.9486 185.557 46.2286 186.248 46.2286 187.144C46.2286 188.049 45.9252 188.782 45.3186 189.342C44.7212 189.902 43.9279 190.182 42.9386 190.182C41.9586 190.182 41.1512 189.893 40.5166 189.314C39.8819 188.735 39.5599 187.951 39.5506 186.962L40.6146 186.752C40.6146 187.508 40.8292 188.101 41.2586 188.53C41.6972 188.959 42.2619 189.174 42.9526 189.174C43.6152 189.174 44.1519 188.992 44.5626 188.628C44.9732 188.255 45.1786 187.765 45.1786 187.158C45.1786 186.561 44.9872 186.108 44.6046 185.8C44.2312 185.483 43.7179 185.324 43.0646 185.324H40.1106L40.3206 180.62H45.8646V181.614H41.3426L41.2026 184.33Z" fill="#212529"/>
<path d="M41.748 144.992V146H35.434V145.286L38.78 142.164C39.228 141.753 39.5547 141.441 39.76 141.226C39.9653 141.011 40.152 140.736 40.32 140.4C40.4973 140.055 40.586 139.695 40.586 139.322C40.586 138.753 40.3947 138.291 40.012 137.936C39.6387 137.581 39.1487 137.404 38.542 137.404C37.898 137.404 37.3847 137.6 37.002 137.992C36.6287 138.384 36.428 138.935 36.4 139.644L35.378 139.434C35.4153 138.529 35.7233 137.805 36.302 137.264C36.8807 136.713 37.632 136.438 38.556 136.438C39.48 136.438 40.2267 136.704 40.796 137.236C41.3653 137.759 41.65 138.449 41.65 139.308C41.65 139.952 41.4867 140.521 41.16 141.016C40.8333 141.501 40.264 142.127 39.452 142.892L37.198 144.992H41.748ZM44.0257 137.796C44.7444 136.891 45.6824 136.438 46.8397 136.438C47.9971 136.438 48.9304 136.886 49.6397 137.782C50.3584 138.678 50.7177 139.854 50.7177 141.31C50.7177 142.766 50.3584 143.942 49.6397 144.838C48.9304 145.734 47.9971 146.182 46.8397 146.182C45.6731 146.182 44.7304 145.734 44.0117 144.838C43.3024 143.942 42.9477 142.766 42.9477 141.31C42.9477 139.863 43.3071 138.692 44.0257 137.796ZM46.8397 145.146C47.6704 145.146 48.3377 144.796 48.8417 144.096C49.3457 143.387 49.5977 142.458 49.5977 141.31C49.5977 140.162 49.3457 139.233 48.8417 138.524C48.3377 137.815 47.6704 137.46 46.8397 137.46C45.9997 137.46 45.3277 137.815 44.8237 138.524C44.3197 139.233 44.0677 140.162 44.0677 141.31C44.0677 142.458 44.3197 143.387 44.8237 144.096C45.3277 144.796 45.9997 145.146 46.8397 145.146Z" fill="#212529"/>
<path d="M40.748 101.992V103H34.434V102.286L37.78 99.164C38.228 98.7533 38.5547 98.4407 38.76 98.226C38.9653 98.0113 39.152 97.736 39.32 97.4C39.4973 97.0547 39.586 96.6953 39.586 96.322C39.586 95.7527 39.3947 95.2907 39.012 94.936C38.6387 94.5813 38.1487 94.404 37.542 94.404C36.898 94.404 36.3847 94.6 36.002 94.992C35.6287 95.384 35.428 95.9347 35.4 96.644L34.378 96.434C34.4153 95.5287 34.7233 94.8053 35.302 94.264C35.8807 93.7133 36.632 93.438 37.556 93.438C38.48 93.438 39.2267 93.704 39.796 94.236C40.3653 94.7587 40.65 95.4493 40.65 96.308C40.65 96.952 40.4867 97.5213 40.16 98.016C39.8333 98.5013 39.264 99.1267 38.452 99.892L36.198 101.992H40.748ZM43.4311 97.33H45.3771C46.3197 97.33 47.0664 97.5773 47.6171 98.072C48.1771 98.5573 48.4571 99.248 48.4571 100.144C48.4571 101.049 48.1537 101.782 47.5471 102.342C46.9497 102.902 46.1564 103.182 45.1671 103.182C44.1871 103.182 43.3797 102.893 42.7451 102.314C42.1104 101.735 41.7884 100.951 41.7791 99.962L42.8431 99.752C42.8431 100.508 43.0577 101.101 43.4871 101.53C43.9257 101.959 44.4904 102.174 45.1811 102.174C45.8437 102.174 46.3804 101.992 46.7911 101.628C47.2017 101.255 47.4071 100.765 47.4071 100.158C47.4071 99.5607 47.2157 99.108 46.8331 98.8C46.4597 98.4827 45.9464 98.324 45.2931 98.324H42.3391L42.5491 93.62H48.0931V94.614H43.5711L43.4311 97.33Z" fill="#212529"/>
<path d="M39.796 54.198C40.3 54.338 40.692 54.5947 40.972 54.968C41.252 55.332 41.392 55.78 41.392 56.312C41.392 57.1707 41.098 57.866 40.51 58.398C39.922 58.9207 39.152 59.182 38.2 59.182C37.2107 59.182 36.408 58.902 35.792 58.342C35.176 57.782 34.84 57.0447 34.784 56.13L35.82 55.92C35.8667 56.62 36.1 57.1753 36.52 57.586C36.94 57.9967 37.5 58.202 38.2 58.202C38.844 58.202 39.3667 58.0293 39.768 57.684C40.1787 57.3387 40.384 56.886 40.384 56.326C40.384 55.8033 40.1973 55.3927 39.824 55.094C39.46 54.7953 38.9513 54.646 38.298 54.646H37.346V53.764H38.228C38.8253 53.764 39.3013 53.6193 39.656 53.33C40.0107 53.0407 40.188 52.6533 40.188 52.168C40.188 51.6453 40.0013 51.2253 39.628 50.908C39.2547 50.5813 38.76 50.418 38.144 50.418C37.5 50.418 36.9773 50.6093 36.576 50.992C36.184 51.3653 35.9693 51.8973 35.932 52.588L34.91 52.392C34.9753 51.5053 35.2973 50.7913 35.876 50.25C36.464 49.7087 37.2247 49.438 38.158 49.438C39.0727 49.438 39.81 49.69 40.37 50.194C40.93 50.698 41.21 51.356 41.21 52.168C41.21 52.6627 41.084 53.0873 40.832 53.442C40.58 53.7967 40.2347 54.0487 39.796 54.198ZM44.0511 50.796C44.7698 49.8907 45.7078 49.438 46.8651 49.438C48.0225 49.438 48.9558 49.886 49.6651 50.782C50.3838 51.678 50.7431 52.854 50.7431 54.31C50.7431 55.766 50.3838 56.942 49.6651 57.838C48.9558 58.734 48.0225 59.182 46.8651 59.182C45.6985 59.182 44.7558 58.734 44.0371 57.838C43.3278 56.942 42.9731 55.766 42.9731 54.31C42.9731 52.8633 43.3325 51.692 44.0511 50.796ZM46.8651 58.146C47.6958 58.146 48.3631 57.796 48.8671 57.096C49.3711 56.3867 49.6231 55.458 49.6231 54.31C49.6231 53.162 49.3711 52.2333 48.8671 51.524C48.3631 50.8147 47.6958 50.46 46.8651 50.46C46.0251 50.46 45.3531 50.8147 44.8491 51.524C44.3451 52.2333 44.0931 53.162 44.0931 54.31C44.0931 55.458 44.3451 56.3867 44.8491 57.096C45.3531 57.796 46.0251 58.146 46.8651 58.146Z" fill="#212529"/>
<path d="M40.796 10.198C41.3 10.338 41.692 10.5947 41.972 10.968C42.252 11.332 42.392 11.78 42.392 12.312C42.392 13.1707 42.098 13.866 41.51 14.398C40.922 14.9207 40.152 15.182 39.2 15.182C38.2107 15.182 37.408 14.902 36.792 14.342C36.176 13.782 35.84 13.0447 35.784 12.13L36.82 11.92C36.8667 12.62 37.1 13.1753 37.52 13.586C37.94 13.9967 38.5 14.202 39.2 14.202C39.844 14.202 40.3667 14.0293 40.768 13.684C41.1787 13.3387 41.384 12.886 41.384 12.326C41.384 11.8033 41.1973 11.3927 40.824 11.094C40.46 10.7953 39.9513 10.646 39.298 10.646H38.346V9.764H39.228C39.8253 9.764 40.3013 9.61933 40.656 9.33C41.0107 9.04067 41.188 8.65333 41.188 8.168C41.188 7.64533 41.0013 7.22533 40.628 6.908C40.2547 6.58133 39.76 6.418 39.144 6.418C38.5 6.418 37.9773 6.60933 37.576 6.992C37.184 7.36533 36.9693 7.89733 36.932 8.588L35.91 8.392C35.9753 7.50533 36.2973 6.79133 36.876 6.25C37.464 5.70867 38.2247 5.438 39.158 5.438C40.0727 5.438 40.81 5.69 41.37 6.194C41.93 6.698 42.21 7.356 42.21 8.168C42.21 8.66267 42.084 9.08733 41.832 9.442C41.58 9.79667 41.2347 10.0487 40.796 10.198ZM45.4291 9.33H47.3751C48.3178 9.33 49.0645 9.57733 49.6151 10.072C50.1751 10.5573 50.4551 11.248 50.4551 12.144C50.4551 13.0493 50.1518 13.782 49.5451 14.342C48.9478 14.902 48.1545 15.182 47.1651 15.182C46.1851 15.182 45.3778 14.8927 44.7431 14.314C44.1085 13.7353 43.7865 12.9513 43.7771 11.962L44.8411 11.752C44.8411 12.508 45.0558 13.1007 45.4851 13.53C45.9238 13.9593 46.4885 14.174 47.1791 14.174C47.8418 14.174 48.3785 13.992 48.7891 13.628C49.1998 13.2547 49.4051 12.7647 49.4051 12.158C49.4051 11.5607 49.2138 11.108 48.8311 10.8C48.4578 10.4827 47.9445 10.324 47.2911 10.324H44.3371L44.5471 5.62L50.0911 5.62V6.614L45.5691 6.614L45.4291 9.33Z" fill="#212529"/>
<rect width="12" height="228" transform="matrix(-1 0 0 1 90 0)" fill="#EFEFEF"/>
<line x1="58" y1="227.5" x2="338" y2="227.5" stroke="#D7D7D7"/>
<line x1="57" y1="140.5" x2="338" y2="140.5" stroke="#D7D7D7"/>
<line x1="57" y1="53.5" x2="338" y2="53.5" stroke="#D7D7D7"/>
<line x1="58" y1="184" x2="338" y2="184" stroke="#C9B462" stroke-width="2" stroke-dasharray="5 5"/>
<line x1="57" y1="97.5" x2="338" y2="97.5" stroke="#D7D7D7"/>
<line x1="57" y1="10.5" x2="338" y2="10.5" stroke="#D7D7D7"/>
<path d="M57 27C57 170.222 81.8195 181.099 336 184" stroke="#4571CE" stroke-width="2" stroke-dasharray="5 5"/>
<rect width="196" height="130" transform="matrix(-1 0 0 1 336 11)" fill="#EFEFEF"/>
<path d="M188.354 86.438C189.278 86.438 190.053 86.6713 190.678 87.138C191.313 87.6047 191.709 88.23 191.868 89.014L190.762 89.266C190.659 88.6967 190.389 88.244 189.95 87.908C189.511 87.572 188.97 87.404 188.326 87.404C187.691 87.404 187.178 87.5627 186.786 87.88C186.394 88.188 186.198 88.594 186.198 89.098C186.198 89.4993 186.315 89.812 186.548 90.036C186.791 90.2507 187.145 90.4047 187.612 90.498L189.656 90.96C191.233 91.296 192.022 92.108 192.022 93.396C192.022 94.2453 191.705 94.922 191.07 95.426C190.435 95.93 189.591 96.182 188.536 96.182C187.519 96.182 186.655 95.9347 185.946 95.44C185.246 94.936 184.84 94.25 184.728 93.382L185.89 93.144C185.993 93.7973 186.291 94.306 186.786 94.67C187.281 95.0247 187.897 95.202 188.634 95.202C189.343 95.202 189.899 95.0433 190.3 94.726C190.711 94.3993 190.916 93.9747 190.916 93.452C190.916 93.0227 190.795 92.7007 190.552 92.486C190.319 92.2713 189.931 92.1033 189.39 91.982L187.276 91.52C185.773 91.184 185.022 90.386 185.022 89.126C185.022 88.3233 185.325 87.6747 185.932 87.18C186.548 86.6853 187.355 86.438 188.354 86.438ZM202.339 96H201.149L200.099 93.62H195.157L194.107 96H192.917L197.117 86.62H198.139L202.339 96ZM199.665 92.626L197.635 87.992L195.591 92.626H199.665ZM212.13 96H210.73L207.118 91.436L204.822 93.914V96H203.716V86.62H204.822V92.556L210.282 86.62H211.57L207.86 90.638L212.13 96ZM221.904 96H220.714L219.664 93.62H214.722L213.672 96H212.482L216.682 86.62H217.704L221.904 96ZM219.23 92.626L217.2 87.992L215.156 92.626H219.23ZM229.763 94.992V96H223.281V86.62H224.387V94.992H229.763ZM238.133 86.438C239.057 86.438 239.832 86.6713 240.457 87.138C241.092 87.6047 241.489 88.23 241.647 89.014L240.541 89.266C240.439 88.6967 240.168 88.244 239.729 87.908C239.291 87.572 238.749 87.404 238.105 87.404C237.471 87.404 236.957 87.5627 236.565 87.88C236.173 88.188 235.977 88.594 235.977 89.098C235.977 89.4993 236.094 89.812 236.327 90.036C236.57 90.2507 236.925 90.4047 237.391 90.498L239.435 90.96C241.013 91.296 241.801 92.108 241.801 93.396C241.801 94.2453 241.484 94.922 240.849 95.426C240.215 95.93 239.37 96.182 238.315 96.182C237.298 96.182 236.435 95.9347 235.725 95.44C235.025 94.936 234.619 94.25 234.507 93.382L235.669 93.144C235.772 93.7973 236.071 94.306 236.565 94.67C237.06 95.0247 237.676 95.202 238.413 95.202C239.123 95.202 239.678 95.0433 240.079 94.726C240.49 94.3993 240.695 93.9747 240.695 93.452C240.695 93.0227 240.574 92.7007 240.331 92.486C240.098 92.2713 239.711 92.1033 239.169 91.982L237.055 91.52C235.553 91.184 234.801 90.386 234.801 89.126C234.801 88.3233 235.105 87.6747 235.711 87.18C236.327 86.6853 237.135 86.438 238.133 86.438ZM255.661 86.62L252.777 96H251.615L249.235 88.384L246.841 96H245.693L242.809 86.62H243.957L246.295 94.306L248.689 86.62H249.767L252.161 94.306L254.499 86.62H255.661ZM263.978 94.992V96H257.132V86.62H263.964V87.614H258.238V90.792H263.558V91.786H258.238V94.992H263.978ZM272.892 94.992V96H266.046V86.62H272.878V87.614H267.152V90.792H272.472V91.786H267.152V94.992H272.892ZM282.157 87.614H278.685V96H277.565V87.614H274.079V86.62H282.157V87.614ZM290.387 86.438C291.311 86.438 292.086 86.6713 292.711 87.138C293.346 87.6047 293.743 88.23 293.901 89.014L292.795 89.266C292.693 88.6967 292.422 88.244 291.983 87.908C291.545 87.572 291.003 87.404 290.359 87.404C289.725 87.404 289.211 87.5627 288.819 87.88C288.427 88.188 288.231 88.594 288.231 89.098C288.231 89.4993 288.348 89.812 288.581 90.036C288.824 90.2507 289.179 90.4047 289.645 90.498L291.689 90.96C293.267 91.296 294.055 92.108 294.055 93.396C294.055 94.2453 293.738 94.922 293.103 95.426C292.469 95.93 291.624 96.182 290.569 96.182C289.552 96.182 288.689 95.9347 287.979 95.44C287.279 94.936 286.873 94.25 286.761 93.382L287.923 93.144C288.026 93.7973 288.325 94.306 288.819 94.67C289.314 95.0247 289.93 95.202 290.667 95.202C291.377 95.202 291.932 95.0433 292.333 94.726C292.744 94.3993 292.949 93.9747 292.949 93.452C292.949 93.0227 292.828 92.7007 292.585 92.486C292.352 92.2713 291.965 92.1033 291.423 91.982L289.309 91.52C287.807 91.184 287.055 90.386 287.055 89.126C287.055 88.3233 287.359 87.6747 287.965 87.18C288.581 86.6853 289.389 86.438 290.387 86.438ZM296.043 86.62H300.131C301.12 86.62 301.909 86.8907 302.497 87.432C303.094 87.964 303.393 88.664 303.393 89.532C303.393 90.4 303.094 91.1047 302.497 91.646C301.909 92.178 301.12 92.444 300.131 92.444H297.149V96H296.043V86.62ZM297.149 91.45H300.131C300.793 91.45 301.321 91.2727 301.713 90.918C302.105 90.5633 302.301 90.1013 302.301 89.532C302.301 88.9627 302.105 88.5007 301.713 88.146C301.321 87.7913 300.793 87.614 300.131 87.614H297.149V91.45ZM309.558 86.438C310.911 86.438 312.054 86.9093 312.988 87.852C313.93 88.7947 314.402 89.9473 314.402 91.31C314.402 92.6727 313.93 93.8253 312.988 94.768C312.054 95.7107 310.911 96.182 309.558 96.182C308.195 96.182 307.042 95.7107 306.1 94.768C305.166 93.8253 304.7 92.6727 304.7 91.31C304.7 89.9473 305.166 88.7947 306.1 87.852C307.042 86.9093 308.195 86.438 309.558 86.438ZM309.558 95.132C310.603 95.132 311.485 94.768 312.204 94.04C312.922 93.3027 313.282 92.3927 313.282 91.31C313.282 90.2367 312.922 89.3313 312.204 88.594C311.485 87.8473 310.603 87.474 309.558 87.474C308.503 87.474 307.616 87.8473 306.898 88.594C306.179 89.3313 305.82 90.2367 305.82 91.31C305.82 92.3927 306.179 93.3027 306.898 94.04C307.616 94.768 308.503 95.132 309.558 95.132ZM323.172 87.614H319.7V96H318.58V87.614H315.094V86.62H323.172V87.614Z" fill="#212529"/>
<path d="M234.439 70.8772C232.24 74.3329 228.994 75.5196 228.261 75.2753C228.889 75.4847 235.437 77.5636 237.057 73.4951C238.523 69.8122 241.953 69.3854 241.769 69.2018C240.094 67.5263 236.498 67.6421 234.439 70.8772Z" fill="#212529"/>
<path d="M230.669 68.679C228.47 72.1346 225.224 73.3214 224.491 73.0771C225.12 73.2865 231.668 75.3654 233.287 71.2969C234.753 67.614 238.183 67.1872 238 67.0035C236.324 65.3281 232.728 65.4439 230.669 68.679Z" fill="#212529"/>
<path d="M226.9 66.3758C224.701 69.8314 221.455 71.0182 220.722 70.7738C221.35 70.9833 227.898 73.0621 229.518 68.9937C230.984 65.3107 234.414 64.884 234.23 64.7003C232.555 63.0249 228.959 63.1406 226.9 66.3758Z" fill="#212529"/>
<path d="M243.131 67.8225C243.818 70.0215 242.189 71.5923 241.351 72.1337C243.027 71.8196 246.063 69.7252 244.911 66.2696C243.76 62.814 233.008 60.4914 234.859 57.1594C235.959 55.1795 239.571 56.5132 240.199 57.4557C240.513 57.8745 242.027 59.113 242.496 59.1948L242.084 55.6934C237.895 52.9708 232.268 54.1226 232.346 58.1018C232.45 63.4423 242.379 65.414 243.131 67.8225Z" fill="#212529"/>
</svg>
