<?xml version="1.0" encoding="utf-8"?>
<!-- Generator: Adobe Illustrator 21.1.0, SVG Export Plug-In . SVG Version: 6.00 Build 0)  -->
<svg version="1.1" id="Layer_1" xmlns="http://www.w3.org/2000/svg" xmlns:xlink="http://www.w3.org/1999/xlink" x="0px" y="0px"
	 viewBox="0 0 80 71" style="enable-background:new 0 0 80 71;" xml:space="preserve">
<style type="text/css">
	.st0{fill:#6D5B7C;}
	.st1{fill:#FFFFFF;}
	.st2{fill:none;stroke:#F27280;stroke-width:2;stroke-linecap:round;stroke-miterlimit:10;}
</style>
<rect class="st0" width="80" height="71"/>
<g>
	<g>
		<g>
			<rect x="5.9" y="5.9" class="st1" width="41" height="2.4"/>
			<rect x="5.9" y="12.7" class="st1" width="41" height="2.4"/>
			<rect x="5.9" y="19.5" class="st1" width="41" height="2.4"/>
			<rect x="5.9" y="26.3" class="st1" width="41" height="2.4"/>
			<rect x="5.9" y="36.3" class="st1" width="20.5" height="2.4"/>
			<path class="st1" d="M76.6,26.2v-3.4h-3v1.1h1.9v42.6H23.6v-2h50V19.7h-3.4v-3.4h-3v-3.2h-3.4V9.7h-3c0-1,0-2.1,0-3.1
				c-1.1,0-2.2,0-3.4,0c0-1.2,0-2.2,0-3.4c-1.2,0-2.2,0-3.4,0c0-1.2,0-2.2,0-3.3C36,0,18,0,0,0c0,15,0,29.9,0,44.8
				c1.1,0,2.2,0,3.4,0c0,1.1,0,2.2,0,3.4c1.2,0,2.2,0,3.4,0c0,1.1,0,2.2,0,3.3c1,0,2,0,3,0v3.2h3.4v3.3h54.1V17.5h1.9v42.6H17.2v-2
				h-1.1v3.2h3.4v3.3h3.1v3.2h3.4V71H80V26.2H76.6z M1.6,43.7c-0.2,0-0.3,0-0.5,0c0-14.2,0-28.4,0-42.7c17.3,0,34.6,0,51.9,0
				c0,0.3,0,0.5,0,0.8c0,9.9,0,19.7,0,29.6c0,0.9-0.2,1.1-1.1,1.1c-3.1,0-6.3,0-9.4,0c-0.3,0-0.5,0-0.8,0c0,3.5,0,6.8,0,10.1
				c0,0.9-0.2,1.1-1.1,1.1C27.6,43.7,14.6,43.7,1.6,43.7z M51.1,33.6c-2.7,2.7-5.5,5.4-8.2,8.1c0-2.5,0-5.2,0-8.1
				C45.7,33.6,48.4,33.6,51.1,33.6z M4.4,47c0-0.7,0-1.4,0-2.2c0.3,0,0.7,0,1,0c11.8,0,23.7,0,35.5,0c0.5,0,0.9-0.1,1.3-0.5
				c3.4-3.4,6.7-6.8,10.2-10.1c1.3-1.2,1.7-2.4,1.7-4.1c-0.1-8.3,0-16.6,0-24.9c0-0.2,0-0.5,0-0.7c0.8,0,1.5,0,2.3,0
				c0,14.2,0,28.4,0,42.6C39.1,47,21.8,47,4.4,47z M7.8,48.2c16.5,0,33,0,49.7,0c0-13.5,0-26.9,0-40.4c0.8,0,1.5,0,2.3,0
				c0,14.2,0,28.4,0,42.6c-17.3,0-34.6,0-51.9,0C7.8,49.7,7.8,49,7.8,48.2z M10.8,53.5v-2c16.7,0,33.4,0,50,0c0-13.5,0-27,0-40.6
				h1.9v42.6H10.8z M66.1,56.9H14.2v-2.2h49.7V14.2h2.3V56.9z M20.6,61.2h49.7V20.8h2.3v42.6H20.6V61.2z M78.9,69.9H27v-2.2h49.7
				V27.3h2.3V69.9z"/>
		</g>
	</g>
	<line class="st2" x1="0" y1="66" x2="76.2" y2="6.6"/>
</g>
</svg>
