<svg width="222" height="198" viewBox="0 0 222 198" fill="none" xmlns="http://www.w3.org/2000/svg">
<path d="M196.295 119.885C196.579 120.512 196.628 121.225 196.418 121.888L196.048 124.481L195.604 124.776L193.938 125.464C194.111 124.96 193.938 124.432 193.938 124.432L193.21 121.741C193.21 121.741 192.075 117.218 195.16 117.415C195.147 113.728 196.172 114.343 196.172 114.343L196.233 117.513L196.295 119.885Z" fill="#F7B58E"/>
<path d="M203.971 128.844C203.971 128.844 201.811 137.041 199.973 137.188C198.134 137.336 196.221 124.211 196.221 124.211L193.716 124.506C193.716 124.506 192.741 143.382 198.356 143.726C203.971 144.07 204.711 139.892 204.711 139.892L203.971 128.844Z" fill="#FF7B7C"/>
<path d="M204.205 151.247H218.878C218.878 151.247 218.878 140.592 218.878 129.053C214.682 122.687 209.462 124.42 209.462 124.42C209.462 124.42 204.711 124.506 203.971 128.844C203.971 131.99 204.205 151.247 204.205 151.247Z" fill="#F04637"/>
<path d="M211.165 121.47L211.387 124.604L211.288 124.703C210.252 125.686 208.635 125.71 207.574 124.752L207.524 122.392L211.165 121.47Z" fill="#F39F85"/>
<path d="M212.325 114.92L212.054 120.106C211.535 120.082 211.227 120.635 211.326 121.126C211.276 121.249 211.239 121.372 211.239 121.507C210.338 122.146 208.709 122.982 206.599 122.589C203.304 121.962 205.291 115.621 205.291 115.621L212.325 114.92Z" fill="#F7B58E"/>
<path d="M213.979 118.816C214.004 118.435 214.522 117.624 214.818 117.378C216.682 115.768 215.016 114.601 214.423 114.22C213.769 113.802 213.893 112.622 213.053 111.959C211.758 110.951 210.511 111.995 209.685 111.848C208.858 111.7 208.339 110.594 207.13 111.184C205.921 111.762 206.056 112.708 205.674 113.101C205.291 113.495 204.576 112.401 203.403 113.654C201.602 115.559 205.119 116.37 205.119 116.37C205.119 116.37 207.044 117.157 209.586 116.174C209.931 116.039 210.351 116.112 210.573 116.42C211.178 117.243 211.19 121.569 211.19 121.569L212.042 120.868C212.017 120.856 213.868 120.549 213.979 118.816Z" fill="#212B53"/>
<path d="M212.008 119.239C212.176 118.831 211.98 118.365 211.57 118.198C211.16 118.03 210.692 118.226 210.524 118.634C210.356 119.042 210.552 119.509 210.962 119.676C211.372 119.843 211.84 119.648 212.008 119.239Z" fill="#F7B58E"/>
<path d="M207.525 193.104C207.525 193.104 206.698 194.247 202.798 195.23C201.934 195.451 201.009 195.599 201.009 197.012C202.835 197.012 204.859 197.012 204.859 197.012L208.796 196.336V197.012H210.918C210.918 197.012 211.51 193.547 210.264 193.104C209.129 193.104 207.525 193.104 207.525 193.104Z" fill="#212B53"/>
<path d="M207.327 190.609L207.525 193.092C208.302 193.633 209.314 193.657 210.128 193.178L210.277 193.092V190.609H207.327Z" fill="#F7B58E"/>
<path d="M218.458 193.104C218.458 193.104 217.631 194.247 213.732 195.23C212.868 195.451 211.942 195.599 211.942 197.012C213.769 197.012 215.793 197.012 215.793 197.012L219.729 196.336V197.012H221.852C221.852 197.012 222.444 193.547 221.198 193.104C220.062 193.104 218.458 193.104 218.458 193.104Z" fill="#212B53"/>
<path d="M218.261 190.609L218.458 193.092C219.236 193.633 220.248 193.657 221.062 193.178L221.21 193.092V190.609H218.261Z" fill="#F7B58E"/>
<path d="M218.866 129.053C218.866 129.053 223.259 139.167 217.657 144.328C212.042 149.49 204.428 148.617 204.428 148.617V145.705C204.428 145.705 211.314 145.127 213.523 140.543C215.732 135.959 212.634 131.99 212.634 131.99" fill="#F04637"/>
<path d="M204.871 148.212L201.354 148.285C199.923 148.212 198.985 146.086 198.738 144.513C198.701 144.279 198.936 144.083 199.158 144.169C200.355 144.586 203.415 145.668 204.205 146.147L204.871 148.212Z" fill="#F7B58E"/>
<path d="M204.205 151.247C199.824 163.549 206.673 190.806 206.673 190.806H210.573C210.573 190.806 208.734 152.169 213.806 151.247C206.044 151.247 207.525 151.247 204.205 151.247Z" fill="#212B53"/>
<path d="M214.3 137.483C214.25 138.442 214.028 139.474 213.522 140.543C211.313 145.127 204.069 145.729 204.069 145.729V148.666C204.069 148.666 212.041 149.49 217.656 144.328C219.692 142.46 220.408 139.929 220.494 137.483H214.3Z" fill="#FF7B7C"/>
<path d="M214.262 137.926C214.41 137.852 214.571 137.79 214.719 137.717C214.978 134.325 212.991 131.781 212.967 131.744L212.621 132.015C212.658 132.039 214.633 134.595 214.262 137.926Z" fill="#E23C2D"/>
<path d="M195.617 120.278C195.617 120.278 196.431 120.032 196.554 118.57C196.678 117.095 197.381 117.55 197.381 117.55C197.381 117.55 197.023 123.351 196.085 123.572C195.16 123.781 195.617 120.278 195.617 120.278Z" fill="#F7B58E"/>
<path d="M208.512 151.247C207.315 166.338 216.99 190.806 216.99 190.806H221.63C221.63 190.806 218.483 175.162 218.421 160.476C218.409 157.293 218.532 154.172 218.878 151.247C215.669 151.247 211.424 151.247 208.512 151.247Z" fill="#053C5E"/>
<path d="M12.2529 11.8298V23.8479H29.873V40.492H29.3171V162.424C29.3171 171.966 37.1362 179.781 46.6834 179.781C48.1941 179.781 140.331 179.865 140.331 179.865V39.731C140.331 24.3189 127.835 11.8298 112.414 11.8298H12.2529Z" fill="#ACC1D6"/>
<path d="M0.228516 35.0326V23.8842C0.228516 16.9391 5.9206 11.238 12.8695 11.226C22.4168 11.226 30.2358 18.9682 30.2358 28.4377V35.0446H0.228516V35.0326Z" fill="#475B73"/>
<path d="M118.3 42.8715H58.3701V45.3838H118.3V42.8715Z" fill="#475B73"/>
<path d="M118.3 52.9208H58.3701V55.4331H118.3V52.9208Z" fill="#475B73"/>
<path d="M118.3 64.2382H58.3701V66.7505H118.3V64.2382Z" fill="#475B73"/>
<path d="M118.3 74.2994H58.3701V76.8118H118.3V74.2994Z" fill="#475B73"/>
<path d="M118.3 85.2668H58.3701V87.7791H118.3V85.2668Z" fill="#475B73"/>
<path d="M118.3 95.316H58.3701V97.8284H118.3V95.316Z" fill="#475B73"/>
<path d="M118.3 106.634H58.3701V109.146H118.3V106.634Z" fill="#475B73"/>
<path d="M118.3 116.695H58.3701V119.207H118.3V116.695Z" fill="#475B73"/>
<path d="M144.815 179.877C125.744 179.877 51.7471 179.877 51.7471 179.877C51.7471 179.877 70.5636 176.012 64.2914 152.822C93.1386 152.822 163.365 152.822 163.365 152.822C163.365 152.822 169.625 179.877 144.815 179.877Z" fill="#6680A1"/>
<path d="M155.788 18.3522L100.897 167.4C102.795 173.089 101.357 174.116 104.535 175.287L114.554 174.273C117.732 175.444 121.623 178.645 122.796 175.469L177.698 26.3964L155.788 18.3522Z" fill="#25374B"/>
<path d="M155.788 18.3522L100.898 167.4C99.7255 170.577 109.152 176.978 109.152 176.978L166.169 22.1569L155.788 18.3522Z" fill="#475B73"/>
<path d="M160.332 23.7754L170.701 27.5922C173.879 28.7638 177.42 27.1332 178.592 23.9566L182.834 12.4337C184.007 9.25712 182.375 5.71813 179.197 4.54653L173.432 2.42071L168.816 0.729733C165.637 -0.441875 162.096 1.18872 160.924 4.36535L156.682 15.8882C155.522 19.0769 157.154 22.6038 160.332 23.7754Z" fill="#053C5E"/>
<path d="M156.054 17.6155L153.081 25.6839L174.991 33.7402L177.952 25.6839L156.054 17.6155Z" fill="url(#paint0_linear)"/>
<path d="M107.508 188.103L103.846 191.968L103.665 186.472L105.961 185.627L107.508 188.103Z" fill="#212B53"/>
<path d="M103.665 186.472C104.293 186.46 104.922 186.545 105.55 186.774C105.611 186.798 105.659 186.822 105.719 186.847C106.07 186.991 106.396 187.173 106.698 187.378C106.722 187.39 106.735 187.402 106.747 187.414C106.88 187.511 107 187.607 107.121 187.704C107.266 187.825 107.399 187.958 107.52 188.091L122.518 176.23L111.158 172.05L100.607 168.173L103.665 186.472Z" fill="url(#paint1_linear)"/>
<path d="M41.6616 167.544C39.8004 180.867 41.8428 194.672 41.8428 194.552C41.8428 194.431 43.3293 194.552 43.3293 194.552C43.3293 194.552 45.3838 178.354 45.8672 172.943C46.3506 167.532 45.8672 167.17 45.8672 167.17C45.8672 167.17 43.5227 154.21 41.6616 167.544Z" fill="#F39F85"/>
<path d="M41.1661 133.157L36.61 136.056L34.6885 132.058L40.5739 125.306L41.1661 133.157Z" fill="#F04637"/>
<path d="M65.2285 106.476L59.6452 121.042L56.0801 118.397L64.0441 104.978L65.2285 106.476Z" fill="#F7B58E"/>
<path d="M65.5546 101.523C65.1195 101.886 64.8174 102.381 64.7328 102.949L64.0439 104.978L64.2615 105.364L65.2283 106.476C65.2887 106.041 65.615 105.715 65.615 105.715L67.1377 104.012C67.1377 104.012 69.6272 101.113 67.3069 100.122C68.6725 97.4288 67.6936 97.4892 67.6936 97.4892L66.473 99.7962L65.5546 101.523Z" fill="#F7B58E"/>
<path d="M65.9048 102.055C65.9048 102.055 65.3972 101.584 65.8444 100.461C66.2916 99.3373 65.6148 99.4098 65.6148 99.4098C65.6148 99.4098 63.7537 103.794 64.3458 104.289C64.9501 104.797 65.9048 102.055 65.9048 102.055Z" fill="#F7B58E"/>
<path d="M49.2275 124.05L50.8952 124.183L56.5753 117.564L59.6449 121.054C59.6449 121.054 56.829 126.369 52.708 131.864C52.4784 132.988 51.2578 144.233 51.2578 144.233H41.4084C41.4084 144.233 42.9795 135.983 40.212 131.393C37.4445 126.779 49.2275 124.05 49.2275 124.05Z" fill="#F04637"/>
<path d="M46.0004 167.544C44.1393 180.867 46.1817 194.672 46.1817 194.552C46.1817 194.431 47.6682 194.552 47.6682 194.552C47.6682 194.552 49.7227 178.354 50.2061 172.943C50.6895 167.532 50.2061 167.17 50.2061 167.17C50.2061 167.17 47.8736 154.21 46.0004 167.544Z" fill="#F7B58E"/>
<path d="M49.5898 113.759L43.9219 115.74L44.4778 119.967C44.4899 120.028 44.502 120.088 44.514 120.148C44.6228 120.173 44.7316 120.185 44.8403 120.221C44.8524 120.221 44.8766 120.233 44.8887 120.233C44.9008 120.233 44.9249 120.245 44.937 120.245C46.2422 120.571 47.1728 121.646 47.5837 122.902C48.3934 123.035 49.2272 123.035 50.0369 122.866C50.5929 122.757 51.1004 122.576 51.3301 122.31C52.5386 119.689 49.5898 113.759 49.5898 113.759Z" fill="#F7B58E"/>
<path d="M49.7349 117.322C49.2273 118.349 49.1306 119.545 49.614 120.583C50.3875 122.214 50.315 124.05 49.8074 125.052C49.4569 125.741 48.5385 126.417 47.7288 126.924C46.8707 127.456 46.3148 128.35 46.2181 129.352C46.0973 130.729 45.9643 132.42 44.78 132.819C41.3599 134.002 40.103 133.882 39.6438 131.031C39.523 130.306 39.5713 129.231 39.9338 128.241C40.381 127.033 40.3447 125.68 39.8251 124.497C39.4867 123.712 39.1846 122.854 39.1846 122.262C39.1846 121.61 39.7767 120.704 40.3931 119.931C41.1665 118.965 41.5049 117.733 41.3961 116.501C41.2874 115.269 41.4566 113.686 42.7134 112.624C45.0579 110.631 50.2425 113.771 50.2425 113.771C50.2425 113.771 50.7621 115.269 49.7349 117.322Z" fill="#212B53"/>
<path d="M34.6888 132.058L32.5014 134.328C31.0512 135.838 30.592 137.928 32.3443 139.075L39.4987 144.752L38.8461 145.984C38.2902 147.023 38.399 148.291 39.112 149.221L39.8734 150.212L41.5532 144.474L36.3687 138C35.8128 137.421 35.9457 136.478 36.6345 136.068L34.6888 132.058Z" fill="#F7B58E"/>
<path d="M51.2692 144.221C51.2692 144.221 52.7073 147.965 52.7073 151.746C52.7073 153.823 50.9067 169.525 50.9067 169.525C50.9067 169.525 43.2689 169.525 41.5286 169.525C42.1691 157.93 38.6523 156.517 38.6523 151.504C38.6523 147.965 41.4198 144.221 41.4198 144.221H51.2692Z" fill="#053C5E"/>
<path d="M41.8311 192.812C41.8311 192.812 41.0093 193.452 41.1664 194.274C41.3115 195.095 41.529 197.016 41.529 197.016H42.375L42.3508 195.228C42.3508 195.107 44.1636 197.016 44.4657 197.016H48.9251C48.9251 197.016 49.2272 195.808 46.6048 195.421C43.9823 195.035 41.8311 192.812 41.8311 192.812Z" fill="#212B53"/>
<path d="M46.5928 192.812C46.5928 192.812 45.7711 193.452 45.9282 194.274C46.0732 195.095 46.2907 197.016 46.2907 197.016H47.1367L47.1125 195.228C47.1125 195.107 48.9253 197.016 49.2274 197.016H53.6868C53.6868 197.016 53.9889 195.808 51.3664 195.421C48.744 195.035 46.5928 192.812 46.5928 192.812Z" fill="#12375A"/>
<path d="M167.252 194.866C167.252 194.866 166.031 196.001 163.251 196.702C162.635 196.859 161.982 196.653 161.982 197.656C163.276 197.656 165.354 197.656 165.354 197.656L168.158 197.173V197.656H169.669C169.669 197.656 170.092 195.18 169.209 194.854C168.388 194.866 167.252 194.866 167.252 194.866Z" fill="#212B53"/>
<path d="M167.42 193.09L167.251 194.866C167.807 195.252 168.532 195.276 169.112 194.926L169.221 194.866L169.849 193.09H167.42Z" fill="#F7B58E"/>
<path d="M180.738 194.866C180.738 194.866 179.517 196.001 176.738 196.702C176.121 196.859 175.469 196.653 175.469 197.656C176.774 197.656 178.841 197.656 178.841 197.656L181.644 197.173V197.656H183.155C183.155 197.656 183.578 195.18 182.696 194.854C181.886 194.866 180.738 194.866 180.738 194.866Z" fill="#212B53"/>
<path d="M180.907 193.09L180.738 194.866C181.294 195.252 182.019 195.276 182.599 194.926L182.708 194.866L183.337 193.09H180.907Z" fill="#F7B58E"/>
<path d="M172.629 148.521H168.738L167.372 193.513H169.995L177.705 156.891L172.629 148.521Z" fill="#212B53"/>
<path d="M171.36 148.521L180.448 193.513H183.337L182.152 148.521H171.36Z" fill="#053C5E"/>
<path d="M179.252 158.413L180.122 158.353C180.122 158.353 180.086 157.737 180.521 157.29C180.86 156.951 181.403 156.77 182.129 156.77C182.926 156.77 183.53 156.951 183.869 157.278C184.195 157.604 184.183 157.99 184.183 158.014L185.053 158.063C185.053 157.99 185.089 157.314 184.509 156.722C184.002 156.203 183.192 155.937 182.129 155.937C181.138 155.937 180.376 156.203 179.869 156.734C179.192 157.447 179.252 158.377 179.252 158.413Z" fill="#212B53"/>
<path d="M175.526 167.78H188.529V159.421H175.526V167.78Z" fill="#212B53"/>
<path d="M181.56 165.056C181.56 165.563 181.802 165.624 182.104 165.624C182.406 165.624 182.648 165.563 182.648 165.056V163.281C186.394 162.894 188.533 162.23 188.533 162.23V162.459V168.825C188.533 169.416 188.304 169.887 187.953 169.887H176.098C175.747 169.887 175.518 169.404 175.518 168.825V162.254C178.237 162.882 178.406 162.894 181.536 163.268V165.056H181.56Z" fill="#FF7B7C"/>
<path d="M178.152 162.822C178.756 164.005 179.384 165.153 180.17 166.228C181.113 167.52 182.176 168.728 183.288 169.9H176.109C175.759 169.9 175.529 169.416 175.529 168.837V162.266C176.75 162.532 177.463 162.689 178.152 162.822Z" fill="#F04637"/>
<path d="M176.107 157.628H187.963C188.313 157.628 188.543 158.111 188.543 158.691V161.892C186.464 162.58 184.458 162.846 182.657 162.894V162.459C182.657 161.952 182.416 161.892 182.113 161.892C181.811 161.892 181.57 161.952 181.57 162.459V162.894C178.017 162.797 175.551 161.892 175.551 161.892V158.691C175.539 158.111 175.757 157.628 176.107 157.628Z" fill="#ACC1D6"/>
<path d="M181.391 164.295V163.752C181.391 163.619 181.499 163.522 181.62 163.522H182.563C182.696 163.522 182.792 163.631 182.792 163.752V164.295C182.792 164.428 182.684 164.525 182.563 164.525H181.62C181.499 164.525 181.391 164.428 181.391 164.295ZM181.62 163.57C181.524 163.57 181.451 163.643 181.451 163.74V164.283C181.451 164.38 181.524 164.452 181.62 164.452H182.563C182.66 164.452 182.732 164.38 182.732 164.283V163.74C182.732 163.643 182.66 163.57 182.563 163.57H181.62Z" fill="white"/>
<path d="M182.031 163.957C182.031 163.993 182.055 164.017 182.092 164.017C182.128 164.017 182.152 163.993 182.152 163.957V163.196C182.152 163.16 182.128 163.136 182.092 163.136C182.055 163.136 182.031 163.16 182.031 163.196V163.957Z" fill="white"/>
<path d="M150.054 141.829C149.921 141.938 149.426 142.264 148.217 142.361C147.142 142.445 144.833 141.974 145.28 143.049C146.32 143.605 147.468 144.39 147.468 144.39C148.133 144.668 149.293 144.378 149.994 144.064L152.012 142.832C152.012 142.832 152.181 141.696 152.205 141.648L151.746 141.455C151.19 141.672 150.622 141.793 150.054 141.829Z" fill="#F7B58E"/>
<path d="M149.679 142.312C149.679 142.312 149.643 142.361 149.558 142.445C149.703 142.506 149.836 142.566 149.981 142.639C150.549 142.651 151.117 142.687 151.673 142.711C151.637 142.385 151.589 141.926 151.589 141.89L147.915 141.02C147.915 141.02 147.613 141.407 148.29 141.817C148.966 142.228 149.679 142.312 149.679 142.312Z" fill="#F7B58E"/>
<path d="M181.536 153.751L180.315 156.432C180.315 156.432 180.581 157.906 181.113 158.485C181.27 158.654 181.536 158.703 181.754 158.618C182.261 158.413 183.433 157.906 183.627 157.616C183.723 157.483 183.735 157.302 183.687 157.133L183.337 155.949L183.288 153.195L181.536 153.751Z" fill="#F7B58E"/>
<path d="M174.345 121.477L174.297 125.076L177.511 124.907L177.705 119.327L174.345 121.477Z" fill="#F39F85"/>
<path d="M173.801 121.815C173.354 121.803 172.943 121.731 172.726 121.562C171.432 119.677 172.907 114.616 172.907 114.616L174.973 113.747L177.596 115.377L177.741 118.771C177.777 119.677 177.342 120.547 176.569 121.115C175.747 121.586 174.78 121.839 173.801 121.815Z" fill="#F7B58E"/>
<path d="M176.871 117.298C176.726 116.73 177.112 115.414 176.532 115.51C176.109 115.583 174.659 115.643 174.164 115.643C173.003 115.643 170.925 115.184 170.925 113.421C170.925 112.539 171.469 112.092 172.012 111.863C172.544 111.645 173.148 112.285 173.692 112.467C174.973 112.913 177.62 113.276 178.297 113.131C179.07 112.974 179.868 113.759 179.928 114.23C180.061 115.257 179.372 116.827 178.865 117.805C178.575 118.373 178.176 118.892 177.705 119.327L176.871 117.298Z" fill="#212B53"/>
<path d="M178.357 117.431C178.103 117.201 177.607 117.25 177.269 117.527C176.931 117.805 176.87 118.228 177.124 118.457C177.378 118.687 177.873 118.639 178.212 118.361C178.562 118.071 178.622 117.66 178.357 117.431Z" fill="#F7B58E"/>
<path d="M176.001 123.953C177.463 123.953 178.72 124.267 179.76 124.726C182.346 125.862 184.183 128.229 184.823 130.983C185.838 135.307 187.554 145.586 183.627 154.596C182.467 154.705 181.004 154.596 181.004 154.596L180.581 133.362L180.883 148.521H168.726V138.737C168.726 138.737 168.412 140.947 165.475 142.989C162.538 145.03 151.517 143.677 151.517 143.677V141.382C151.517 141.382 161.173 139.353 162.744 138.157C164.315 136.962 167.723 128.362 167.723 128.362C168.786 126.26 170.732 124.714 173.04 124.231C173.886 124.05 174.865 123.953 176.001 123.953Z" fill="#ACC1D6"/>
<path d="M180.726 148.605L180.448 133.99L180.762 133.978L181.053 148.605H180.726Z" fill="#63C0C4"/>
<path d="M177.572 122.927L177.765 124.11L174.079 124.098L174.321 122.927H177.572Z" fill="white"/>
<path d="M198.981 42.6948L200.909 46.4854L196.85 45.5591L183 41.1935L198.981 42.6948Z" fill="#AFD8C7"/>
<path d="M200.909 46.4854L194.026 46.0595L195.71 45.197L200.909 46.4854Z" fill="#63C0C4"/>
<path d="M198.981 42.6948L200.184 39L183 41.1935L198.981 42.6948Z" fill="url(#paint2_linear)"/>
<path d="M183 41.1935L196.85 45.5591L194.794 50.883L183 41.1935Z" fill="url(#paint3_linear)"/>
<path d="M199.385 50.2973C199.417 50.276 199.46 50.2547 199.481 50.2228C199.598 50.0844 199.587 49.882 199.449 49.7649C199.023 49.3922 198.565 49.0621 198.085 48.7853C197.936 48.6894 197.734 48.7427 197.638 48.9024C197.553 49.0515 197.595 49.2538 197.755 49.3496C198.202 49.6052 198.629 49.914 199.023 50.2654C199.129 50.3399 199.268 50.3612 199.385 50.2973Z" fill="#63C0C4"/>
<path d="M194.346 85.6479C194.25 85.4988 194.303 85.2965 194.463 85.2007C195.336 84.6896 196.136 83.9975 196.839 83.1457C196.956 83.0072 197.158 82.986 197.297 83.1031C197.435 83.2202 197.457 83.4225 197.339 83.5609C196.583 84.466 195.731 85.2113 194.793 85.765C194.783 85.765 194.783 85.7757 194.772 85.7757C194.623 85.8502 194.442 85.797 194.346 85.6479ZM198.043 82.0276C197.883 81.9425 197.829 81.7402 197.925 81.5911C198.447 80.6647 198.842 79.6745 199.097 78.6416C199.14 78.4713 199.321 78.3648 199.491 78.4074C199.662 78.45 199.768 78.631 199.726 78.8014C199.459 79.8874 199.044 80.9309 198.49 81.9105C198.458 81.9638 198.415 82.0064 198.351 82.0383C198.256 82.0809 198.138 82.0809 198.043 82.0276ZM199.683 77.1084C199.502 77.0977 199.374 76.938 199.385 76.7676L199.396 76.6186C199.449 75.639 199.396 74.6168 199.236 73.5733C199.204 73.3923 199.332 73.2326 199.502 73.2006C199.683 73.1687 199.843 73.2964 199.875 73.4668C200.035 74.5422 200.099 75.607 200.045 76.6398L200.035 76.7996C200.024 76.9167 199.96 77.0125 199.854 77.0658C199.8 77.0977 199.747 77.1084 199.683 77.1084ZM199.236 71.9229C199.065 71.9655 198.884 71.8696 198.842 71.6886C198.586 70.709 198.234 69.6868 197.787 68.6433C197.712 68.4836 197.797 68.2813 197.957 68.2174C198.117 68.1429 198.309 68.2281 198.383 68.3878C198.831 69.4632 199.193 70.5174 199.459 71.5183C199.502 71.6673 199.428 71.827 199.289 71.8909C199.278 71.9016 199.257 71.9122 199.236 71.9229ZM197.414 67.0249C197.254 67.0994 197.062 67.0355 196.977 66.8758C196.935 66.7906 196.892 66.7161 196.86 66.6309C196.519 66.7693 196.167 66.8758 195.816 66.9823C195.645 67.0249 195.464 66.9291 195.422 66.7587C195.368 66.5883 195.475 66.4073 195.645 66.3647C195.954 66.2795 196.263 66.173 196.572 66.0559C196.231 65.4171 195.869 64.7462 195.443 64.0222C195.358 63.8731 195.4 63.6708 195.56 63.575C195.709 63.4898 195.912 63.5324 196.008 63.6921C196.444 64.4375 196.828 65.1296 197.169 65.8004C197.638 65.5874 198.096 65.3319 198.522 65.0444C198.671 64.9379 198.874 64.9805 198.969 65.1296C199.065 65.2786 199.033 65.4809 198.884 65.5768C198.437 65.8749 197.968 66.1411 197.467 66.3647C197.499 66.4392 197.542 66.5031 197.574 66.5777C197.638 66.748 197.574 66.9503 197.414 67.0249C197.425 67.0249 197.414 67.0249 197.414 67.0249ZM199.971 64.3097C199.843 64.1819 199.843 63.9796 199.96 63.8518C200.418 63.3833 200.813 62.8616 201.143 62.3185C201.345 61.9778 201.526 61.6158 201.675 61.2431C201.739 61.0834 201.931 60.9982 202.102 61.0621C202.272 61.126 202.347 61.3177 202.283 61.488C202.123 61.8926 201.92 62.276 201.707 62.6486C201.356 63.2449 200.93 63.7986 200.429 64.299C200.408 64.3203 200.376 64.3416 200.344 64.3629C200.227 64.4268 200.077 64.4055 199.971 64.3097ZM193.834 67.3443C192.684 67.4401 191.554 67.355 190.478 67.0781C190.308 67.0355 190.201 66.8545 190.244 66.6841C190.287 66.5138 190.468 66.4073 190.638 66.4499C191.64 66.7054 192.694 66.7906 193.781 66.6948C193.962 66.6841 194.111 66.8119 194.133 66.9929C194.143 67.1314 194.069 67.2485 193.952 67.3124C193.909 67.323 193.877 67.3337 193.834 67.3443ZM202.464 59.795C202.283 59.7631 202.166 59.5927 202.197 59.4223C202.379 58.4002 202.389 57.3354 202.229 56.2706C202.208 56.0896 202.325 55.9299 202.506 55.8979C202.688 55.8766 202.847 55.9937 202.879 56.1748C203.05 57.3141 203.039 58.4427 202.847 59.5288C202.826 59.6353 202.762 59.7205 202.677 59.7631C202.613 59.795 202.538 59.8057 202.464 59.795ZM188.582 66.3647C188.316 66.2263 188.06 66.0879 187.826 65.9282C187.123 65.4703 186.494 64.8634 185.993 64.1819C185.887 64.0328 185.919 63.8305 186.068 63.7347C186.217 63.6282 186.419 63.6602 186.515 63.8092C186.963 64.4268 187.538 64.9805 188.167 65.3958C188.39 65.5448 188.625 65.6833 188.87 65.8004C189.029 65.8856 189.093 66.0772 189.008 66.2369C188.976 66.3008 188.923 66.3434 188.87 66.3754C188.784 66.4179 188.678 66.418 188.582 66.3647ZM194.431 62.3611C193.738 61.2857 193.099 60.4978 192.428 59.9015C192.3 59.7844 192.29 59.5821 192.407 59.4436C192.524 59.3159 192.726 59.3052 192.865 59.4223C193.579 60.0612 194.25 60.8917 194.974 62.0204C195.07 62.1695 195.028 62.3718 194.878 62.4676C194.868 62.4783 194.857 62.4783 194.846 62.4889C194.708 62.5528 194.527 62.4996 194.431 62.3611ZM202.197 54.6308C202.027 54.6841 201.846 54.5989 201.782 54.4285C201.622 53.9707 201.441 53.5235 201.217 53.0975C200.951 52.5864 200.653 52.086 200.312 51.6388C200.205 51.5004 200.237 51.2981 200.376 51.1809C200.514 51.0745 200.717 51.1064 200.834 51.2448C201.196 51.724 201.526 52.2564 201.803 52.7994C202.038 53.2573 202.24 53.7258 202.4 54.2156C202.453 54.3646 202.379 54.535 202.24 54.6095C202.229 54.6202 202.208 54.6202 202.197 54.6308ZM185.482 62.5528C185.311 62.5954 185.13 62.4889 185.088 62.3185C184.853 61.4028 184.949 60.5084 185.354 59.7418C185.503 59.4649 185.684 59.2094 185.908 58.9858C186.036 58.858 186.238 58.858 186.366 58.9751C186.494 59.1029 186.494 59.3052 186.377 59.433C186.196 59.614 186.046 59.8163 185.929 60.0399C185.599 60.6788 185.524 61.3922 185.716 62.1588C185.748 62.3079 185.684 62.457 185.546 62.5209C185.535 62.5315 185.514 62.5421 185.482 62.5528ZM190.894 58.858C189.988 58.4427 188.87 58.3363 187.911 58.5812C187.74 58.6238 187.559 58.5173 187.517 58.3469C187.474 58.1765 187.581 57.9955 187.751 57.9529C188.87 57.6761 190.106 57.7932 191.16 58.2724C191.32 58.3469 191.395 58.5386 191.32 58.6983C191.288 58.7622 191.235 58.8154 191.171 58.8474C191.096 58.89 190.99 58.9006 190.894 58.858Z" fill="#63C0C4"/>
<path d="M192.95 86.5638C193.089 86.4999 193.153 86.3402 193.11 86.1911C193.057 86.0207 192.886 85.9249 192.705 85.9675C192.204 86.1059 191.693 86.1911 191.182 86.223C191.001 86.2337 190.862 86.3828 190.873 86.5638C190.883 86.7448 191.032 86.8832 191.214 86.8726C191.778 86.8406 192.332 86.7448 192.876 86.5957C192.908 86.5851 192.929 86.5744 192.95 86.5638Z" fill="#63C0C4"/>
<defs>
<linearGradient id="paint0_linear" x1="176.472" y1="29.7107" x2="154.572" y2="21.6463" gradientUnits="userSpaceOnUse">
<stop stop-color="#DFEFEA"/>
<stop offset="1" stop-color="#BFE3EE"/>
</linearGradient>
<linearGradient id="paint1_linear" x1="100.606" y1="178.143" x2="122.508" y2="178.143" gradientUnits="userSpaceOnUse">
<stop stop-color="#DFEFEA"/>
<stop offset="1" stop-color="#BFE3EE"/>
</linearGradient>
<linearGradient id="paint2_linear" x1="183" y1="40.848" x2="200.18" y2="40.848" gradientUnits="userSpaceOnUse">
<stop offset="6.3e-07" stop-color="#F1F8F7"/>
<stop offset="1" stop-color="#BFE3EE"/>
</linearGradient>
<linearGradient id="paint3_linear" x1="183" y1="46.0417" x2="196.854" y2="46.0417" gradientUnits="userSpaceOnUse">
<stop offset="6.3e-07" stop-color="#F1F8F7"/>
<stop offset="1" stop-color="#BFE3EE"/>
</linearGradient>
</defs>
</svg>
