<svg width="220" height="205" viewBox="0 0 220 205" fill="none" xmlns="http://www.w3.org/2000/svg">
<path d="M62.0953 80.6999L49.943 79.8945L44.5589 81.214L41.0957 83.5094L62.0953 80.6999Z" fill="url(#paint0_linear)"/>
<path d="M62.0953 80.6999L41.8556 84.5205L41.0957 83.5094" fill="#AFD8C7"/>
<path d="M42.7939 87.8704L42.8331 87.8967L44.9099 90.3458L62.0441 80.724L42.7939 87.8704Z" fill="#63C0C4"/>
<path d="M38.57 87.8411L40.1675 84.535L61.9574 80.7291L45.0922 88.0346L38.57 87.8411Z" fill="url(#paint1_linear)"/>
<path d="M23.8288 138.505C24.3247 138.022 24.7892 137.491 25.2146 136.934C25.3152 136.806 25.4928 136.786 25.6171 136.879C25.7447 136.98 25.7657 137.158 25.6724 137.282C25.2319 137.864 24.7489 138.413 24.2345 138.914C24.053 139.097 23.8608 139.277 23.6651 139.449C23.595 139.509 23.5004 139.535 23.414 139.522C23.3564 139.513 23.2957 139.479 23.2536 139.427C23.1444 139.309 23.1561 139.125 23.2744 139.015C23.4701 138.843 23.6511 138.678 23.8288 138.505Z" fill="#63C0C4"/>
<path d="M41.4306 84.1031C42.2976 83.8215 43.2182 83.5593 44.2257 83.2922C44.3784 83.2563 44.5353 83.3436 44.5821 83.5004C44.6182 83.6533 44.5313 83.8103 44.3747 83.8569C43.3672 84.1241 42.4612 84.3793 41.6089 84.6541C41.5616 84.6674 41.5109 84.6733 41.4606 84.6611C41.3634 84.6442 41.2748 84.5695 41.2448 84.4674C41.1941 84.3214 41.2776 84.1571 41.4306 84.1031Z" fill="#63C0C4"/>
<path d="M37.148 86.3629C37.0615 86.3498 36.9872 86.2864 36.9386 86.2019C36.8699 86.0554 36.9319 85.8833 37.0781 85.8147C37.9154 85.4129 38.8244 85.031 39.7726 84.6755C39.9257 84.6215 40.0938 84.6946 40.1479 84.848C40.2021 85.0013 40.1259 85.1622 39.9762 85.2235C39.0427 85.5722 38.1555 85.9437 37.3328 86.3387C37.2744 86.3661 37.2056 86.3716 37.148 86.3629Z" fill="#63C0C4"/>
<path d="M27.4068 132.956C27.461 132.805 27.6292 132.726 27.7831 132.788C27.9336 132.843 28.0126 133.011 27.9511 133.165C27.6073 134.086 27.1775 134.976 26.6729 135.821C26.6088 135.931 26.4811 135.982 26.3697 135.954C26.3409 135.95 26.3087 135.938 26.2803 135.916C26.1449 135.836 26.0951 135.654 26.1815 135.515C26.6565 134.702 27.0746 133.845 27.4068 132.956Z" fill="#63C0C4"/>
<path d="M28.1277 131.679C27.9734 131.635 27.8758 131.484 27.9158 131.322C27.9761 131.071 28.0364 130.819 28.0859 130.563C28.2216 129.883 28.3103 129.197 28.3523 128.507C28.3596 128.352 28.4964 128.225 28.6624 128.237C28.8176 128.244 28.9444 128.381 28.9331 128.548C28.8908 129.256 28.7977 129.97 28.6577 130.679C28.6043 130.946 28.5475 131.205 28.4799 131.46C28.4438 131.611 28.2898 131.701 28.1423 131.672C28.1385 131.683 28.1277 131.679 28.1277 131.679Z" fill="#63C0C4"/>
<path d="M28.6648 127.082C28.6394 127.085 28.6179 127.078 28.5926 127.081C28.4631 127.052 28.3682 126.945 28.3605 126.814C28.3173 125.905 28.1985 124.986 28.0023 123.979C27.9735 123.822 28.0712 123.669 28.2346 123.637C28.3907 123.609 28.5437 123.707 28.5759 123.87C28.7751 124.903 28.9004 125.855 28.9465 126.789C28.9465 126.941 28.8239 127.079 28.6648 127.082Z" fill="#63C0C4"/>
<path d="M25.0916 101.388C24.996 101.755 24.9147 102.133 24.8406 102.507C24.7295 103.069 24.6326 103.642 24.5683 104.208C24.5464 104.37 24.4027 104.482 24.2479 104.457C24.2406 104.46 24.2299 104.456 24.2264 104.449C24.079 104.42 23.9775 104.28 23.9956 104.128C24.0638 103.551 24.1611 102.96 24.2761 102.387C24.354 102.002 24.4354 101.624 24.5349 101.247C24.5783 101.093 24.7147 100.984 24.8905 101.035C25.0414 101.072 25.1351 101.234 25.0916 101.388Z" fill="#63C0C4"/>
<path d="M24.4333 105.916C24.3921 106.874 24.4159 107.837 24.509 108.777C24.5231 108.94 24.4078 109.075 24.2483 109.096C24.2229 109.099 24.1941 109.094 24.1653 109.09C24.0467 109.065 23.9444 108.961 23.9367 108.831C23.8479 107.862 23.8212 106.874 23.8593 105.89C23.8632 105.728 24.0034 105.608 24.1586 105.616C24.3104 105.616 24.4372 105.753 24.4333 105.916Z" fill="#63C0C4"/>
<path d="M26.6477 97.0821C26.2403 97.9437 25.8754 98.839 25.5754 99.7395C25.5251 99.8794 25.3857 99.9626 25.2456 99.9301C25.2348 99.9262 25.2241 99.9223 25.2133 99.9184C25.0629 99.8638 24.9799 99.7061 25.0307 99.5482C25.3384 98.6261 25.711 97.7093 26.1262 96.8262C26.1912 96.6795 26.3662 96.6152 26.5163 96.6879C26.659 96.7639 26.7127 96.9354 26.6477 97.0821Z" fill="#63C0C4"/>
<path d="M30.0856 91.8223C30.015 91.9001 29.9058 91.9335 29.8086 91.9165C29.7583 91.9043 29.7154 91.8888 29.6801 91.8517C29.5597 91.7472 29.546 91.566 29.6501 91.4456C30.2931 90.7059 30.9895 90.0037 31.7133 89.3602C31.8316 89.251 32.0156 89.263 32.1248 89.3816C32.234 89.5002 32.2223 89.6845 32.104 89.7936C31.3879 90.4157 30.7101 91.1002 30.0856 91.8223Z" fill="#63C0C4"/>
<path d="M26.6232 118.055C26.5686 118.072 26.5252 118.075 26.4749 118.062C26.3777 118.045 26.2891 117.971 26.2591 117.869L26.1409 117.522C25.8712 116.719 25.6014 115.916 25.339 115.109C25.2922 114.953 25.3791 114.796 25.5249 114.745C25.6814 114.698 25.8383 114.786 25.889 114.932C26.1407 115.734 26.4105 116.537 26.6875 117.337L26.8057 117.684C26.8525 117.841 26.769 118.005 26.6232 118.055Z" fill="#63C0C4"/>
<path d="M27.4403 95.5575C27.3762 95.668 27.2519 95.7263 27.1332 95.7015C27.1044 95.6972 27.0722 95.6855 27.0473 95.6704C26.9118 95.5909 26.8547 95.4121 26.9412 95.2732C27.4243 94.4208 27.9646 93.5952 28.5436 92.814C28.6443 92.6863 28.8184 92.6582 28.9534 92.7558C29.0776 92.8494 29.1094 93.0312 29.0122 93.1662C28.4375 93.9186 27.9157 94.7266 27.4403 95.5575Z" fill="#63C0C4"/>
<path d="M26.9874 119.154C27.1439 119.107 27.3047 119.184 27.3515 119.341C27.7012 120.428 27.9654 121.314 28.184 122.141C28.22 122.294 28.1331 122.451 27.9766 122.498C27.9293 122.511 27.8932 122.51 27.8463 122.505C27.7384 122.484 27.6498 122.41 27.6237 122.297C27.4119 121.484 27.1512 120.606 26.805 119.526C26.7509 119.372 26.8343 119.208 26.9874 119.154Z" fill="#63C0C4"/>
<path d="M21.9507 140.092C22.0758 139.998 22.2594 140.028 22.354 140.153C22.4485 140.279 22.4188 140.463 22.2936 140.557C21.5505 141.102 20.7394 141.617 19.82 142.129C19.7576 142.167 19.6888 142.173 19.6205 142.16C19.5414 142.143 19.4666 142.098 19.4288 142.017C19.3527 141.874 19.3966 141.702 19.5394 141.626C20.4442 141.121 21.226 140.62 21.9507 140.092Z" fill="#63C0C4"/>
<path d="M24.4013 110.24C24.5574 110.211 24.7139 110.316 24.7353 110.476C24.895 111.349 25.1007 112.262 25.3872 113.272C25.434 113.429 25.3398 113.589 25.1871 113.625C25.1398 113.639 25.0964 113.641 25.0534 113.625C24.9528 113.601 24.8642 113.526 24.8307 113.417C24.5413 112.382 24.3287 111.454 24.1695 110.563C24.1368 110.417 24.2452 110.268 24.4013 110.24Z" fill="#63C0C4"/>
<path d="M34.6425 87.1451C34.9324 86.9644 35.2256 86.791 35.5224 86.625C35.6651 86.549 35.8375 86.5933 35.9136 86.7364C35.9897 86.8795 35.9457 87.052 35.8064 87.1353C35.517 87.2979 35.231 87.4678 34.9485 87.6451C34.4238 87.9717 33.9129 88.3276 33.4123 88.7055C33.3461 88.7545 33.2588 88.7776 33.1797 88.7611C33.1114 88.7484 33.0507 88.7143 33.0052 88.6552C32.9106 88.5298 32.933 88.3494 33.0621 88.2442C33.5738 87.8521 34.1067 87.4859 34.6425 87.1451Z" fill="#63C0C4"/>
<path d="M112.109 63.1082L111.581 62.9107C104.486 59.9815 96.8628 64.326 89.5037 66.1361C81.0556 68.2096 69.6045 67.7159 63.2684 63.9968C58.9454 61.4626 58.2854 54.3864 58.3184 40.1682C58.3514 30.5907 56.5364 24.4361 65.0505 21.6056C71.7495 19.3675 84.4877 18.7422 96.9288 21.6385C101.714 22.7575 105.707 25.4563 106.532 31.1502C108.215 43.0316 106.829 54.1889 106.829 54.1889L112.109 63.1082Z" fill="#6680A1"/>
<path d="M164.241 112.606C164.241 112.606 176.344 81.0918 199.932 78.0194C217.007 100.887 194.343 123.798 194.343 123.798L167.058 135.21L164.241 112.606Z" fill="#053C5E"/>
<path d="M177.224 91.4501L184.001 104.793L199.316 78.1072C199.492 78.0633 199.668 78.0633 199.888 78.0194C199.976 78.1072 200.02 78.195 200.064 78.2828L191.834 92.5913L205.477 89.8261C205.521 89.9578 205.521 90.0895 205.565 90.2211L205.653 90.5723L191.35 93.4691L177.708 117.258L201.824 113.132C201.692 113.396 201.516 113.703 201.384 113.966L177.224 118.092L167.498 134.99L167.058 135.166L166.97 134.42L183.605 105.495L176.74 92.0207C176.872 91.8451 177.048 91.6696 177.224 91.4501Z" fill="white"/>
<path d="M172.294 126.563C172.294 126.563 195.795 110.938 211.286 121.823C209.041 160.359 159.752 160.227 159.752 160.227L172.294 126.563Z" fill="#F04637"/>
<path d="M211.285 121.823C211.285 121.954 211.285 122.13 211.241 122.262L177.883 140.915L197.159 148.728C196.939 148.904 196.675 149.079 196.455 149.255L177.047 141.398L164.064 148.684L164.461 147.587L189.809 133.41L194.166 118.268C194.43 118.224 194.694 118.224 194.958 118.18L190.733 132.927L210.933 121.647C211.065 121.691 211.153 121.779 211.285 121.823Z" fill="white"/>
<path d="M106.763 156.592C106.763 156.592 117.105 124.376 98.0058 108.531C60.6867 129.291 81.2386 165.853 81.2386 165.853L106.763 156.592Z" fill="#ACC1D6"/>
<path d="M98.0062 108.531C97.8742 108.619 97.7422 108.663 97.6102 108.75L95.3217 148.516L77.5424 131.179C77.4544 131.442 77.3663 131.705 77.2783 131.969L95.2777 149.525L94.6176 161.025L95.3657 160.761L96.686 137.894L109.14 130.608C109.096 130.345 109.052 130.081 109.052 129.818L96.774 136.928L98.4023 108.838C98.2703 108.75 98.1383 108.619 98.0062 108.531Z" fill="white"/>
<path d="M97.9622 149.218C97.9622 149.218 85.8599 117.704 62.2714 114.632C45.1962 137.499 67.8605 160.41 67.8605 160.41L95.1457 171.822L97.9622 149.218Z" fill="#053C5E"/>
<path d="M84.9802 128.062L78.2029 141.405L62.888 114.72C62.7119 114.676 62.5359 114.676 62.3159 114.632C62.2279 114.719 62.1838 114.807 62.1398 114.895L70.3694 129.204L56.7268 126.438C56.6828 126.57 56.6828 126.702 56.6388 126.833L56.5508 127.185L70.8535 130.081L84.5401 153.914L60.4235 149.789C60.5555 150.052 60.7316 150.359 60.8636 150.622L85.0242 154.748L94.75 171.646L95.1901 171.822L95.2781 171.076L78.643 142.151L85.5083 128.677C85.3322 128.457 85.1562 128.282 84.9802 128.062Z" fill="white"/>
<path d="M109.864 164.175C109.864 164.175 68.364 147.55 52.873 158.435C55.1175 196.971 106.407 196.84 106.407 196.84L110.136 180.007L109.864 164.175Z" fill="#F04637"/>
<path d="M52.873 158.435C52.873 158.567 52.873 158.742 52.9171 158.874L86.2754 177.528L66.9997 185.34C67.2198 185.516 67.4838 185.691 67.7039 185.867L87.1115 178.01L103.138 188.296L102.742 187.199L74.3931 170.022L69.9923 154.88C69.7282 154.836 69.4642 154.836 69.2001 154.792L73.4249 169.539L53.2251 158.259C53.1371 158.303 53.0051 158.391 52.873 158.435Z" fill="white"/>
<path d="M205.748 197.367L106.113 197.586L106.245 138.509L205.748 138.377V197.367Z" fill="#ACC1D6"/>
<path d="M205.836 146.014V138.157L106.201 137.982L106.245 146.014H205.836Z" fill="#043C5E"/>
<path d="M196.374 141.932C196.242 142.985 196.991 143.819 198.003 143.819C199.059 143.819 199.983 142.942 200.115 141.888C200.247 140.835 199.499 140.001 198.487 140.001C197.431 140.001 196.507 140.879 196.374 141.932Z" fill="white"/>
<path d="M190.961 142.02C190.829 143.073 191.578 143.907 192.59 143.907C193.646 143.907 194.57 143.029 194.702 141.976C194.834 140.922 194.086 140.089 193.074 140.089C192.018 140.089 191.093 140.966 190.961 142.02Z" fill="url(#paint2_linear)"/>
<path d="M176.834 152.203H118.171V153.212H176.834V152.203Z" fill="#01898C"/>
<path d="M176.834 162.561H118.171V163.57H176.834V162.561Z" fill="url(#paint3_linear)"/>
<path d="M127.457 180.337H118.171V181.346H127.457V180.337Z" fill="#01898C"/>
<path d="M151.617 180.337H134.102V181.346H151.617V180.337Z" fill="url(#paint4_linear)"/>
<path d="M151.617 184.55H134.102V185.56H151.617V184.55Z" fill="#01898C"/>
<path d="M176.79 180.337H157.162V181.346H176.79V180.337Z" fill="white"/>
<path d="M176.834 166.687H118.171V167.696H176.834V166.687Z" fill="#01898C"/>
<path d="M176.834 188.808H118.171V189.817H176.834V188.808Z" fill="url(#paint5_linear)"/>
<path d="M193.601 152.203H179.87V153.212H193.601V152.203Z" fill="white"/>
<path d="M128.997 156.46H118.171V157.469H128.997V156.46Z" fill="url(#paint6_linear)"/>
<path d="M131.021 170.637H118.171V171.383H131.021V170.637Z" fill="white"/>
<path d="M176.79 156.46H154.17V157.469H176.79V156.46Z" fill="#63C1C5"/>
<path d="M176.79 174.631H154.17V175.64H176.79V174.631Z" fill="#63C1C5"/>
<path d="M193.601 156.46H179.87V157.469H193.601V156.46Z" fill="url(#paint7_linear)"/>
<path d="M193.601 166.687H179.87V167.696H193.601V166.687Z" fill="#01898C"/>
<path d="M193.601 174.631H179.87V175.64H193.601V174.631Z" fill="url(#paint8_linear)"/>
<path d="M140.88 139.913H113.947V144.127H140.88V139.913Z" fill="#FF7B7C"/>
<path d="M138.509 0.803345C123.847 0.803345 112.009 12.651 112.009 27.2328C112.009 32.6595 113.629 35.7664 116.744 41.9388C121.271 50.8867 113.795 54.6978 113.795 54.6978C113.795 54.6978 133.4 54.8221 138.509 54.8221C153.171 54.8221 165.009 41.8559 165.009 27.2328C165.009 12.651 153.129 0.803345 138.509 0.803345Z" fill="#FF7B7C"/>
<path d="M117.719 96.2568L123.784 107.656L117.086 107.357L116.619 95.8912L117.719 96.2568Z" fill="#F8B68F"/>
<path d="M108.188 91.2053H113.787L116.119 127.364H106.056L108.188 91.2053Z" fill="white"/>
<path d="M97.8914 197.356C97.8914 197.356 96.4918 198.453 96.7584 199.815C97.025 201.211 97.3582 204.435 97.3582 204.435H98.7911L98.7578 201.411C98.7578 201.211 101.824 204.435 102.323 204.435H109.854C109.854 204.435 110.354 202.408 105.922 201.743C101.49 201.112 97.8914 197.356 97.8914 197.356Z" fill="#043C5E"/>
<path d="M101.157 195.994L102.19 198.652C102.457 199.383 102.923 200.015 103.59 200.414C104.323 200.879 105.422 201.51 107.122 202.009C105.056 203.77 101.823 201.943 99.9574 200.646C99.0577 200.015 98.3912 199.084 98.1246 198.021L97.6914 195.994H101.157Z" fill="#F8B68F"/>
<path d="M112.254 197.356C112.254 197.356 110.854 198.453 111.121 199.816C111.387 201.211 111.72 204.435 111.72 204.435H113.153L113.12 201.411C113.12 201.211 116.186 204.435 116.686 204.435H124.217C124.217 204.435 124.717 202.408 120.285 201.743C115.886 201.112 112.254 197.356 112.254 197.356Z" fill="#043C5E"/>
<path d="M115.519 195.994L116.552 198.652C116.819 199.383 117.285 200.015 117.952 200.414C118.685 200.879 119.785 201.51 121.484 202.009C119.418 203.77 116.186 201.943 114.32 200.646C113.42 200.015 112.754 199.084 112.487 198.021L112.054 195.994H115.519Z" fill="#F8B68F"/>
<path d="M103.89 127.364C103.89 127.364 102.957 132.782 108.355 159.336C103.956 173.195 110.988 196.359 110.988 196.359H116.119L119.618 127.364H103.89Z" fill="#053C5E"/>
<path d="M113.187 91.2053L115.019 135.075L121.051 132.516C121.051 132.516 118.318 124.274 118.585 112.841C117.652 104.566 122.384 108.919 116.619 93C114.419 91.2053 113.187 91.2053 113.187 91.2053Z" fill="#FF7B7C"/>
<path d="M113.953 86.6854L113.253 90.3744C112.953 92.0029 111.087 92.8005 109.688 91.9364L107.222 90.3744L111.654 80.4041L113.953 86.6854Z" fill="#F4A086"/>
<path d="M98.9575 127.364C98.9575 127.364 92.2595 132.782 97.6579 159.336C93.2592 173.195 97.158 196.359 97.158 196.359H101.757L114.686 127.364H98.9575Z" fill="#6680A1"/>
<path d="M108.188 87.4829C108.188 87.4829 102.523 90.6734 100.757 93.4984C99.0909 96.1904 98.4911 102.339 98.3245 107.822C98.0912 115.333 94.459 135.075 94.459 135.075H109.654L110.021 92.1025L108.188 87.4829Z" fill="#FF7B7C"/>
<path d="M119.351 75.585C115.919 74.7209 112.62 78.2437 112.62 78.2437L110.021 92.1357L106.055 86.0206C106.055 86.0206 105.822 77.712 109.654 72.2283C112.42 68.9048 117.685 69.8686 120.351 73.0924C121.651 74.6544 121.917 76.8479 121.784 78.8419C121.617 81.5339 120.851 96.9215 120.851 96.9215L112.987 91.1055C112.987 91.1055 113.187 89.5435 113.92 86.6853C115.253 81.7666 121.651 76.15 119.351 75.585Z" fill="#212B53"/>
<path d="M111.587 78.0111C112.087 77.8117 112.754 78.144 113.053 78.7755C113.353 79.4069 113.187 80.0716 112.687 80.271C112.187 80.4705 111.521 80.1381 111.221 79.5066C110.921 78.8752 111.087 78.2105 111.587 78.0111Z" fill="#F8B68F"/>
<path d="M115.285 87.3167C115.918 87.5494 116.552 87.6823 116.951 87.5494C119.951 85.3891 121.017 76.7814 121.017 76.7814L118.651 74.2888L113.952 75.3191L111.62 80.4704C110.987 81.833 111.087 83.4283 111.82 84.7244C112.686 85.8877 113.886 86.8182 115.285 87.3167Z" fill="#F8B68F"/>
<path d="M120.152 75.3855C119.918 77.9778 112.62 78.2105 112.62 78.2105L112.254 74.6876L116.486 72.3612L119.852 74.3885C119.852 74.3885 120.185 74.9535 120.152 75.3855Z" fill="#212B53"/>
<path d="M119.985 75.9172C119.751 76.881 120.718 78.576 120.718 78.576L121.284 77.5457V76.6484L120.718 75.9505C120.718 75.9172 120.218 74.9202 119.985 75.9172Z" fill="#212B53"/>
<path d="M102.29 93.4983C94.959 94.3624 98.4246 113.24 99.9908 121.017C100.391 122.911 102.323 124.107 104.19 123.509C110.588 121.482 119.918 113.14 119.918 113.14L118.452 111.279L106.056 114.17C106.056 114.17 110.821 92.5013 102.29 93.4983Z" fill="#F8B68F"/>
<path d="M116.986 106.859L114.587 121.681C114.52 122.113 114.853 122.512 115.286 122.512H124.784C125.117 122.512 125.417 122.246 125.483 121.914L127.849 107.091C127.916 106.659 127.583 106.26 127.149 106.26H117.686C117.352 106.26 117.053 106.493 116.986 106.859Z" fill="#212B53"/>
<path d="M127.549 113.406C127.615 112.874 127.549 112.575 127.382 111.478C127.149 110.082 127.215 107.889 125.783 108.986C124.416 110.681 124.283 112.475 124.283 112.475C124.016 113.472 124.616 114.868 125.183 115.599L126.182 117.726C126.149 117.76 127.849 115.766 127.549 113.406Z" fill="#F8B68F"/>
<path d="M122.05 112.741C122.455 112.741 122.784 112.414 122.784 112.01C122.784 111.606 122.455 111.279 122.05 111.279C121.646 111.279 121.317 111.606 121.317 112.01C121.317 112.414 121.646 112.741 122.05 112.741Z" fill="white"/>
<path d="M153.242 81.1019L154.409 86.6188L160.207 85.0236L156.408 77.1138L153.242 81.1019Z" fill="#F4A086"/>
<path d="M151.775 82.6307C151.109 82.8301 150.442 82.9298 150.042 82.7636C147.243 80.6034 147.01 72.3945 147.01 72.3945L149.676 70.1345L154.341 71.331L156.174 76.2829C156.673 77.6123 156.44 79.1078 155.541 80.3043C154.541 81.3678 153.241 82.2319 151.775 82.6307Z" fill="#F8B68F"/>
<path d="M154.674 74.3552C154.174 73.5908 153.674 71.5968 152.875 71.9956C152.275 72.2947 150.142 73.0591 149.409 73.2917C147.676 73.8567 144.377 74.1558 143.544 71.5303C143.111 70.2009 144.044 68.6721 144.744 68.0739C145.444 67.4757 146.343 67.2098 147.243 67.243C149.376 67.3095 152.341 67.9742 153.308 67.4424C154.907 66.5783 156.907 67.0104 157.34 68.4727C157.806 70.0015 157.74 72.5938 157.44 74.2888C157.273 75.2858 156.94 76.2164 156.44 77.0804L154.674 74.3552Z" fill="#212B53"/>
<path d="M156.474 73.9897C155.974 73.7571 155.274 74.0562 154.908 74.6544C154.541 75.2194 154.641 75.8841 155.141 76.0835C155.641 76.3161 156.341 76.017 156.707 75.4188C157.074 74.8538 156.974 74.1891 156.474 73.9897Z" fill="#F8B68F"/>
<path d="M157.674 83.7937C168.471 83.1955 169.404 92.767 170.304 103.203C171.337 115.167 170.537 128.195 170.537 128.195H145.378C145.378 128.195 145.378 117.095 145.645 105.994C145.944 95.1932 146.244 84.4252 157.674 83.7937Z" fill="#F04637"/>
<path d="M146.744 122.711C146.744 122.711 144.278 121.016 143.345 121.415C142.412 121.814 143.145 123.542 143.145 123.542L146.744 122.711Z" fill="#F4A086"/>
<path d="M164.438 104.532L165.605 112.475L146.344 122.047L148.443 124.14C148.443 124.14 170.07 120.252 173.136 117.394C176.201 114.536 174.069 103.136 174.069 103.136L164.438 104.532Z" fill="#F8B68F"/>
<path d="M142.878 117.095C138.479 115.533 141.145 100.411 141.145 100.411L143.744 100.378C143.778 100.378 147.277 118.657 142.878 117.095Z" fill="#F4A086"/>
<path d="M149.643 123.742L145.111 126.633C143.278 127.464 141.678 126.168 140.345 124.307C139.546 123.177 140.345 121.581 141.778 121.615C143.411 121.648 145.377 121.98 146.377 122.047L149.643 123.742Z" fill="#F8B68F"/>
<path d="M140.479 100.411L143.544 102.239C143.544 102.239 156.54 81.2679 150.109 86.7848C143.411 92.5676 140.479 100.411 140.479 100.411Z" fill="#F04637"/>
<path d="M155.741 198.453C155.741 198.453 155.741 201.444 149.676 203.272C148.443 203.637 148.843 204.003 148.609 204.535C150.609 204.535 155.574 204.535 155.574 204.535L158.306 201.477L159.14 202.208L161.106 200.281C161.106 200.281 160.173 197.489 158.706 197.456C157.473 197.855 155.741 198.453 155.741 198.453Z" fill="#212B53"/>
<path d="M154.607 195.861L155.74 198.453C156.773 198.752 157.873 198.42 158.573 197.589L158.706 197.456L157.806 194.797L154.607 195.861Z" fill="#F8B68F"/>
<path d="M174.069 103.17C174.069 103.17 169.936 84.0265 160.206 84.4917C150.442 84.9238 164.438 104.565 164.438 104.565L174.069 103.17Z" fill="#F04637"/>
<path d="M142.944 117.427C136.846 112.508 148.843 86.7849 148.843 86.7849L151.742 87.084C151.742 87.0508 151.508 121.183 142.944 117.427Z" fill="#F8B68F"/>
<path d="M153.241 84.7243L153.608 82.8631L158.606 81.8661L160.206 83.8602L153.241 84.7243Z" fill="white"/>
<path d="M148.842 86.7517L148.476 81.833C148.476 81.833 150.942 78.0775 153.241 79.0745C153.674 80.1048 152.941 82.1654 152.941 82.1654L151.775 87.0176L148.842 86.7517Z" fill="#F8B68F"/>
<path d="M145.411 128.195C145.411 128.195 141.912 150.097 142.745 160.266C143.578 170.403 154.708 196.891 154.708 196.891L159.574 195.495C159.574 195.495 159.94 177.781 155.175 166.149C154.142 163.59 154.175 160.732 155.175 158.173C159.074 148.069 160.607 141.356 160.607 141.356L160.24 128.228H145.411V128.195Z" fill="#212B53"/>
<path d="M149.143 86.5522H149.043L148.71 81.9326C149.043 81.4674 151.109 78.576 153.075 79.3071C153.341 80.1047 152.908 81.6335 152.708 82.1653V82.2318C152.875 82.1985 153.042 82.1653 153.242 82.1321C153.408 81.6335 153.875 79.9718 153.508 79.0412L153.475 78.9415L153.375 78.9083C150.909 77.8448 148.41 81.5671 148.31 81.7332L148.276 81.7997L148.676 86.9843L148.976 87.0175C148.976 86.8513 149.043 86.7184 149.143 86.5522Z" fill="#F4A086"/>
<path d="M165.204 200.048C165.204 200.048 163.038 202.042 158.073 203.305C156.973 203.571 155.807 203.205 155.807 205C158.106 205 161.805 205 161.805 205L166.803 204.136V205H169.502C169.502 205 170.269 200.613 168.669 200.048C167.237 200.048 165.204 200.048 165.204 200.048Z" fill="#212B53"/>
<path d="M165.703 196.891L165.17 200.048C166.17 200.713 167.436 200.779 168.469 200.148L168.669 200.048L168.402 196.891H165.703Z" fill="#F8B68F"/>
<path d="M152.809 128.195L164.472 197.821H169.137C169.137 197.821 173.169 179.077 170.037 163.922C169.504 161.297 169.437 158.571 169.837 155.946C172.803 136.404 170.537 128.195 170.537 128.195H152.809Z" fill="#043C5E"/>
<path d="M140.211 63.9173L140.959 63.6978C151.433 60.7132 162.655 65.1462 173.481 66.9897C185.936 69.0964 202.791 68.6136 212.121 64.7951C218.502 62.2055 219.47 55.0074 219.426 40.5233C219.382 30.7795 222.066 24.5469 209.524 21.6501C199.666 19.3678 180.875 18.7094 162.567 21.694C155.526 22.8352 149.629 25.5564 148.44 31.394C145.976 43.5079 148 54.8757 148 54.8757L140.211 63.9173Z" fill="#ACC1D6"/>
<defs>
<linearGradient id="paint0_linear" x1="42.322" y1="86.1192" x2="60.6079" y2="77.5392" gradientUnits="userSpaceOnUse">
<stop offset="6.3e-07" stop-color="#F1F8F7"/>
<stop offset="1" stop-color="#BFE3EE"/>
</linearGradient>
<linearGradient id="paint1_linear" x1="38.8225" y1="88.3723" x2="60.7256" y2="78.095" gradientUnits="userSpaceOnUse">
<stop offset="6.3e-07" stop-color="#F1F8F7"/>
<stop offset="1" stop-color="#BFE3EE"/>
</linearGradient>
<linearGradient id="paint2_linear" x1="190.938" y1="141.979" x2="194.725" y2="141.979" gradientUnits="userSpaceOnUse">
<stop stop-color="#C0E4EF"/>
<stop offset="1" stop-color="#E0F0EB"/>
</linearGradient>
<linearGradient id="paint3_linear" x1="118.152" y1="163.093" x2="176.816" y2="163.093" gradientUnits="userSpaceOnUse">
<stop stop-color="#C0E4EF"/>
<stop offset="1" stop-color="#E0F0EB"/>
</linearGradient>
<linearGradient id="paint4_linear" x1="134.113" y1="180.837" x2="151.619" y2="180.837" gradientUnits="userSpaceOnUse">
<stop stop-color="#C0E4EF"/>
<stop offset="1" stop-color="#E0F0EB"/>
</linearGradient>
<linearGradient id="paint5_linear" x1="118.152" y1="189.3" x2="176.816" y2="189.3" gradientUnits="userSpaceOnUse">
<stop stop-color="#C0E4EF"/>
<stop offset="1" stop-color="#E0F0EB"/>
</linearGradient>
<linearGradient id="paint6_linear" x1="118.152" y1="156.961" x2="128.989" y2="156.961" gradientUnits="userSpaceOnUse">
<stop stop-color="#C0E4EF"/>
<stop offset="1" stop-color="#E0F0EB"/>
</linearGradient>
<linearGradient id="paint7_linear" x1="179.884" y1="156.961" x2="193.607" y2="156.961" gradientUnits="userSpaceOnUse">
<stop stop-color="#C0E4EF"/>
<stop offset="1" stop-color="#E0F0EB"/>
</linearGradient>
<linearGradient id="paint8_linear" x1="179.884" y1="175.129" x2="193.607" y2="175.129" gradientUnits="userSpaceOnUse">
<stop stop-color="#C0E4EF"/>
<stop offset="1" stop-color="#E0F0EB"/>
</linearGradient>
</defs>
</svg>
