<svg width="221" height="213" viewBox="0 0 221 213" fill="none" xmlns="http://www.w3.org/2000/svg">
<path d="M153.574 50.373C153.751 50.4944 153.929 50.6158 154.107 50.7372L152.532 109.302L180.658 86.0524C180.755 86.4489 180.852 86.8454 180.933 87.2339L152.492 110.75L152.039 127.647L150.965 127.146L151.87 93.4569L134.621 81.2212C134.702 80.8328 134.782 80.4525 134.871 80.064L151.902 92.154L153.016 50.7777C153.202 50.6482 153.38 50.5025 153.574 50.373Z" fill="white"/>
<path d="M148.655 109.99C148.655 109.99 170.152 65.3359 204.932 63.7174C227.042 99.3482 191.131 130.099 191.131 130.099L149.964 143.452L148.655 109.99Z" fill="#053C5E"/>
<path d="M170.192 80.6143L178.461 100.983L204.108 63.7741C204.383 63.7579 204.658 63.7336 204.932 63.7174C205.021 63.855 205.094 64.0006 205.182 64.1382L191.446 84.0698L211.691 81.6744C211.715 81.8686 211.74 82.0548 211.764 82.249L211.82 82.7588L190.623 85.2674L167.729 118.479L203.39 115.42C203.139 115.816 202.889 116.197 202.647 116.577L166.93 119.644L150.674 143.225L149.98 143.452L149.94 142.375L177.735 102.059L169.352 81.4316C169.627 81.1646 169.91 80.8895 170.192 80.6143Z" fill="white"/>
<path d="M186.302 124.314C197.64 123.821 210.435 125.946 218.897 135.542C202.559 189.895 132.426 172.959 132.426 172.959L151.965 143.752C159.694 132.187 172.432 124.924 186.302 124.314Z" fill="#ACC1D6"/>
<path d="M218.897 135.542C218.832 135.753 218.769 135.957 218.704 136.168L164.891 151.487L189.658 169.207C189.265 169.377 188.88 169.548 188.488 169.709L163.551 151.865L142.529 157.85L143.469 156.445L184.386 144.797L195.775 124.594C196.168 124.637 196.553 124.687 196.945 124.739L185.88 144.368L218.484 135.087C218.616 135.238 218.757 135.39 218.897 135.542Z" fill="white"/>
<path d="M60.2861 89.938C60.2861 89.938 106.585 148.875 117.255 169.292C140.079 155.047 153.358 143.295 153.358 143.295C153.358 143.295 106.466 62.8141 98.5226 62.458C90.7567 65.5443 90.9346 65.485 60.2861 89.938Z" fill="#475B73"/>
<path d="M87.4963 75.5748C91.0532 79.9668 98.6412 80.7384 102.257 77.296C113.047 79.7888 142.094 134.274 142.094 134.274L142.035 134.333C137.589 137.242 136.7 143.889 139.605 148.103L126.859 157.303C123.539 152.91 117.493 152.258 113.047 155.166C112.987 155.166 112.987 155.225 112.928 155.225L71.3125 98.9001C71.6089 98.7221 71.9053 98.544 72.2017 98.366C76.6478 95.4577 78.3077 88.2761 75.4029 84.0028L87.3777 75.3967C87.437 75.4561 87.437 75.5748 87.4963 75.5748Z" fill="url(#paint0_linear)"/>
<path d="M97.6839 103.289C98.9601 102.371 99.2512 100.591 98.3341 99.3132C97.4169 98.0354 95.6388 97.744 94.3626 98.6622C93.0864 99.5805 92.7952 101.361 93.7124 102.638C94.6295 103.916 96.4076 104.208 97.6839 103.289Z" fill="#01898C"/>
<path d="M92.677 96.3472C93.9533 95.429 94.2444 93.6488 93.3272 92.3711C92.4101 91.0933 90.632 90.8018 89.3558 91.7201C88.0795 92.6383 87.7884 94.4185 88.7056 95.6963C89.6227 96.974 91.4008 97.2655 92.677 96.3472Z" fill="#01898C"/>
<path d="M126.149 142.929C127.425 142.01 127.716 140.23 126.799 138.952C125.882 137.675 124.104 137.383 122.827 138.301C121.551 139.22 121.26 141 122.177 142.278C123.094 143.555 124.872 143.847 126.149 142.929Z" fill="#043C5E"/>
<path d="M121.241 136.106C122.518 135.188 122.809 133.408 121.892 132.13C120.975 130.852 119.196 130.561 117.92 131.479C116.644 132.397 116.353 134.178 117.27 135.455C118.187 136.733 119.965 137.025 121.241 136.106Z" fill="#01898C"/>
<path d="M0.945312 93.2617C0.945312 93.2617 56.5512 143.474 70.4823 161.754C90.5193 143.889 101.664 130.001 101.664 130.001C101.664 130.001 41.8494 58.7188 33.965 59.6685C26.8512 64.0605 27.0291 63.9418 0.945312 93.2617Z" fill="#475B73"/>
<path d="M25.3688 74.5065C29.637 78.1863 37.225 77.7115 40.1891 73.6755C51.2747 74.3284 89.0962 123.116 89.0962 123.116L89.0369 123.175C85.1243 126.796 85.4207 133.443 88.9776 137.182L77.9513 148.4C73.9795 144.601 67.8735 145.017 63.9609 148.637C63.9016 148.696 63.9016 148.696 63.8423 148.756L13.2754 100.325C13.5125 100.147 13.8089 99.9091 14.046 99.6717C17.9586 96.0512 18.3736 88.6916 14.7574 84.9524L25.1909 74.3284C25.2502 74.4471 25.3095 74.5065 25.3688 74.5065Z" fill="url(#paint1_linear)"/>
<path d="M40.0951 100.123C41.1972 99.002 41.1825 97.1983 40.0623 96.0949C38.9422 94.9914 37.1406 95.0061 36.0385 96.1276C34.9364 97.2491 34.9511 99.0528 36.0712 100.156C37.1914 101.26 38.993 101.245 40.0951 100.123Z" fill="#6680A1"/>
<path d="M33.972 94.0551C35.0741 92.9336 35.0595 91.1299 33.9393 90.0265C32.8191 88.9231 31.0176 88.9377 29.9155 90.0593C28.8134 91.1808 28.828 92.9845 29.9482 94.0879C31.0684 95.1913 32.8699 95.1767 33.972 94.0551Z" fill="#6680A1"/>
<path d="M74.804 134.33C75.9061 133.209 75.8915 131.405 74.7713 130.302C73.6511 129.198 71.8496 129.213 70.7475 130.334C69.6454 131.456 69.66 133.259 70.7802 134.363C71.9004 135.466 73.7019 135.452 74.804 134.33Z" fill="#043C5E"/>
<path d="M68.8392 128.43C69.9413 127.308 69.9267 125.505 68.8065 124.401C67.6863 123.298 65.8848 123.312 64.7827 124.434C63.6805 125.555 63.6952 127.359 64.8154 128.463C65.9356 129.566 67.7371 129.551 68.8392 128.43Z" fill="#6680A1"/>
<path d="M0.589844 157.837C0.589844 157.837 73.5651 174.752 94.61 183.952C103.502 158.549 106.526 141.04 106.526 141.04C106.526 141.04 19.6191 107.744 13.1575 112.432C9.06707 119.733 9.18563 119.555 0.589844 157.837Z" fill="#475B73"/>
<path d="M12.8017 129.585C18.3149 130.772 24.7173 126.618 25.3694 121.691C35.3879 116.884 92.0608 141.159 92.0608 141.159C92.0608 141.218 92.0609 141.218 92.0016 141.278C90.3417 146.322 93.8393 152.02 98.7596 153.504L94.5507 168.698C89.2154 167.333 84.1172 170.597 82.4573 175.702C82.4573 175.761 82.4573 175.82 82.398 175.82L14.758 158.015C14.8766 157.718 14.9952 157.421 15.1137 157.065C16.7736 152.02 13.5724 145.373 8.59277 143.889L12.5646 129.526C12.6832 129.585 12.7425 129.585 12.8017 129.585Z" fill="url(#paint2_linear)"/>
<path d="M38.1347 144.791C38.5551 143.275 37.6682 141.705 36.1539 141.284C34.6396 140.863 33.0712 141.751 32.6508 143.267C32.2304 144.783 33.1173 146.354 34.6316 146.774C36.1459 147.195 37.7143 146.307 38.1347 144.791Z" fill="#6680A1"/>
<path d="M29.8329 142.493C30.2533 140.977 29.3665 139.407 27.8522 138.986C26.3378 138.565 24.7694 139.453 24.3491 140.969C23.9287 142.485 24.8155 144.056 26.3298 144.476C27.8441 144.897 29.4125 144.009 29.8329 142.493Z" fill="#6680A1"/>
<path d="M85.1034 157.864C85.5238 156.347 84.637 154.777 83.1227 154.356C81.6083 153.935 80.04 154.823 79.6196 156.339C79.1992 157.856 80.086 159.426 81.6003 159.847C83.1147 160.268 84.683 159.38 85.1034 157.864Z" fill="#043C5E"/>
<path d="M76.9872 155.616C77.4076 154.1 76.5208 152.53 75.0065 152.109C73.4921 151.688 71.9237 152.576 71.5034 154.092C71.083 155.608 71.9698 157.179 73.4841 157.599C74.9984 158.02 76.5668 157.132 76.9872 155.616Z" fill="#6680A1"/>
<path d="M90.4622 26.9381C46.3569 52.2814 53.2928 64.0925 51.1587 81.1265C49.0838 98.1605 51.9886 128.074 105.935 124.691C159.881 121.308 174.167 86.6462 165.038 59.0476C156.264 32.5766 127.217 21.0623 127.217 21.0623C127.217 21.0623 107.535 32.2204 90.4622 26.9381Z" fill="#FF7B7C"/>
<path d="M90.4619 26.9381C91.8254 23.9111 90.9955 20.2907 88.3871 18.2727L81.4512 12.8123C81.4512 12.8123 89.3356 -2.79727 106.112 4.91849C118.917 10.7943 128.758 3.9095 132.73 0.289029C133.263 -0.185787 134.034 0.348383 133.856 1.00126C132.552 5.51201 130.595 9.78535 128.165 13.8806C126.683 16.4328 125.734 19.163 127.216 21.1216L109.847 30.6773L90.4619 26.9381Z" fill="#FF7B7C"/>
<path d="M88.7432 28.0064C88.7432 28.0064 96.6869 35.01 111.804 32.6359C126.92 30.2618 130.418 22.546 130.418 22.546L126.505 18.8662C126.505 18.8662 123.541 25.0388 110.974 27.7097C100.837 29.8463 91.1144 24.4453 91.1144 24.4453L88.7432 28.0064Z" fill="#F04637"/>
<path d="M106.153 167.114H66.79V183.435H106.153V167.114Z" fill="#F04637"/>
<path d="M161.403 167.114H129.45V183.435H161.403V167.114Z" fill="#FF7B7C"/>
<path d="M136.801 167.114H106.152V183.435H136.801V167.114Z" fill="#FF5C5D"/>
<path d="M162.055 184.148H66.1377V166.52H162.055V184.148ZM67.4419 182.842H160.81V167.766H67.4419V182.842Z" fill="#F04637"/>
<path d="M116.824 150.792H77.4609V167.114H116.824V150.792Z" fill="#F04637"/>
<path d="M172.133 150.792H140.181V167.114H172.133V150.792Z" fill="#FF7B7C"/>
<path d="M147.472 150.792H116.823V167.114H147.472V150.792Z" fill="#FF5C5D"/>
<path d="M172.726 167.766H76.8086V150.139H172.726V167.766ZM78.1128 166.52H171.481V151.445H78.1128V166.52Z" fill="#F04637"/>
<path d="M98.3276 134.411H58.9648V150.732H98.3276V134.411Z" fill="#F04637"/>
<path d="M153.578 134.411H121.625V150.732H153.578V134.411Z" fill="#FF7B7C"/>
<path d="M128.977 134.411H98.3281V150.732H128.977V134.411Z" fill="#FF5C5D"/>
<path d="M154.23 151.445H58.3125V133.817H154.23V151.445ZM59.5574 150.139H152.925V135.063H59.5574V150.139Z" fill="#F04637"/>
<path d="M105.085 118.089H65.7227V134.41H105.085V118.089Z" fill="#F04637"/>
<path d="M160.395 118.089H128.442V134.41H160.395V118.089Z" fill="#FF7B7C"/>
<path d="M135.733 118.089H105.085V134.41H135.733V118.089Z" fill="#FF5C5D"/>
<path d="M160.987 135.063H65.0703V117.436H160.987V135.063ZM66.3745 133.817H159.743V118.742H66.3745V133.817Z" fill="#F04637"/>
<path d="M113.503 101.708H74.1406V118.029H113.503V101.708Z" fill="#F04637"/>
<path d="M168.813 101.708H136.86V118.029H168.813V101.708Z" fill="#FF7B7C"/>
<path d="M144.211 101.708H113.562V118.029H144.211V101.708Z" fill="#FF5C5D"/>
<path d="M169.465 118.742H73.5479V101.114H169.465V118.742ZM74.7928 117.436H168.161V102.36H74.7928V117.436Z" fill="#F04637"/>
<path d="M134.741 52.8465L151.517 50.5318L134.919 47.3268L132.607 30.5302L129.406 47.1487L112.629 49.4634L129.228 52.6685L131.54 69.4651L134.741 52.8465Z" fill="white"/>
<path d="M154.472 118.61L156.563 116.873C156.737 116.7 156.853 116.468 156.795 116.236L156.679 115.657C156.679 115.483 156.563 115.31 156.389 115.194L154.239 113.63C154.007 113.457 153.6 113.457 153.368 113.688L153.136 113.92C153.019 114.036 152.903 114.21 152.903 114.383L152.555 117.742L154.472 118.61Z" fill="#F8B68F"/>
<path d="M152.555 117.742L152.148 115.368C152.09 114.962 152.438 114.557 152.845 114.615L153.891 114.673C154.181 114.673 154.82 116.062 154.82 116.062C154.82 116.062 154.007 116.815 153.542 115.483C153.368 115.599 153.019 115.599 153.019 115.599C153.019 115.599 154.297 116.699 153.891 118.379L152.555 117.742Z" fill="#F4A086"/>
<path d="M154.878 118.668C154.878 118.668 149.998 131.871 147.268 136.678C144.538 141.484 136.057 149.244 136.057 149.244L132.107 138.531C132.107 138.531 139.717 134.825 143.493 130.887C147.268 126.949 152.322 117.163 152.322 117.163L154.878 118.668Z" fill="white"/>
<path d="M110.557 110.851L109.337 108.419C109.221 108.187 109.221 107.955 109.395 107.724L109.685 107.261C109.802 107.087 109.918 107.029 110.092 106.971L112.706 106.392C112.996 106.334 113.345 106.45 113.461 106.739L113.635 107.029C113.693 107.203 113.752 107.376 113.693 107.55L112.648 110.735L110.557 110.851Z" fill="#F8B68F"/>
<path d="M112.589 110.793L113.867 108.766C114.1 108.419 113.925 107.955 113.519 107.782L112.531 107.434C112.241 107.318 111.137 108.303 111.137 108.303C111.137 108.303 111.602 109.287 112.589 108.303C112.706 108.477 112.996 108.592 112.996 108.592C112.996 108.592 111.37 109.056 111.079 110.793H112.589Z" fill="#F8B68F"/>
<path d="M96.4417 195.918C96.4417 195.918 94.8152 197.655 93.8277 201.593C93.5954 202.461 93.8858 203.388 92.4336 203.388C92.4336 201.535 92.4336 198.581 92.4336 198.581L93.1307 194.586H92.4336V192.443C92.4336 192.443 95.977 191.864 96.4417 193.08C96.4417 194.296 96.4417 195.918 96.4417 195.918Z" fill="#212B53"/>
<path d="M98.9979 195.686L96.442 195.917C95.9192 195.106 95.8611 194.122 96.3258 193.253L96.442 193.08L98.9979 192.211V195.686Z" fill="#F8B68F"/>
<path d="M121.652 160.999C121.652 160.999 118.69 169.801 119.503 179.471C119.735 182.077 117.876 184.394 115.321 184.857C107.479 186.305 98.5332 192.037 98.5332 192.037V196.033C98.5332 196.033 122.756 193.833 127.81 190.416C132.863 186.999 135.245 164.531 135.245 164.531L121.652 160.999Z" fill="#212B53"/>
<path d="M133.037 136.793C138.556 140.442 136 162.678 136 162.678L119.212 160.709L121.013 144.206C121.013 144.206 113.404 134.94 111.951 128.165C110.499 121.39 109.744 110.677 109.744 110.677H112.823C112.823 110.677 116.25 124.633 118.457 128.165C120.665 131.698 127.926 136.678 127.926 136.678L133.037 136.793Z" fill="white"/>
<path d="M135.883 162.331C136.115 159.899 137.509 144.9 134.547 138.936C134.605 138.82 134.663 138.646 134.721 138.531C138.032 144.727 136.406 160.941 136.231 162.62C136.115 162.504 135.999 162.447 135.883 162.331Z" fill="#63C1C5"/>
<path d="M155.11 208.483C155.11 208.483 156.852 210.105 160.802 211.089C161.674 211.321 162.603 211.031 162.603 212.479C160.744 212.479 157.782 212.479 157.782 212.479L153.774 211.784V212.479H151.625C151.625 212.479 151.044 208.946 152.264 208.483C153.483 208.483 155.11 208.483 155.11 208.483Z" fill="#212B53"/>
<path d="M154.878 205.993L155.11 208.541C154.297 209.062 153.309 209.12 152.438 208.657L152.264 208.541L151.393 205.993H154.878Z" fill="#F8B68F"/>
<path d="M129.378 136.446L130.133 133.319L133.735 133.724L134.025 137.43L133.967 137.488C132.515 136.851 130.946 136.446 129.378 136.446Z" fill="#F4A086"/>
<path d="M128.157 127.239L129.087 132.161C129.551 132.045 129.958 132.566 129.9 133.029C129.958 133.145 130.016 133.261 130.016 133.377C130.945 133.84 132.63 134.477 134.547 133.782C137.625 132.74 134.837 126.949 134.837 126.949L128.157 127.239Z" fill="#F8B68F"/>
<path d="M127.112 131.176C127.054 130.829 126.415 130.134 126.125 129.902C124.15 128.628 125.544 127.297 126.067 126.833C126.647 126.37 126.357 125.212 127.054 124.517C128.158 123.359 129.494 124.227 130.249 123.938C131.004 123.706 131.353 122.548 132.572 122.953C133.792 123.359 133.792 124.285 134.199 124.575C134.605 124.922 135.128 123.764 136.406 124.807C138.381 126.37 135.128 127.644 135.128 127.644C135.128 127.644 133.386 128.628 130.888 128.049C130.539 127.991 130.133 128.107 129.958 128.397C129.494 129.265 130.075 133.377 130.075 133.377L129.203 132.798C129.203 132.856 127.461 132.798 127.112 131.176Z" fill="#212B53"/>
<path d="M130.059 131.611C130.419 131.402 130.541 130.942 130.332 130.582C130.122 130.223 129.66 130.101 129.299 130.31C128.939 130.519 128.817 130.98 129.026 131.339C129.236 131.699 129.698 131.821 130.059 131.611Z" fill="#F8B68F"/>
<path d="M136.058 162.678C136.058 162.678 148.198 174.202 149.302 177.039C150.405 179.877 154.936 206.167 154.936 206.167H151.509C151.509 206.167 144.597 194.933 142.447 186.131C141.692 183.004 139.369 180.572 136.29 179.587C117.179 173.681 119.328 160.709 119.328 160.709L136.058 162.678Z" fill="#475B73"/>
<path d="M133.909 136.099L133.967 137.836L128.448 136.678L129.61 134.883L133.909 136.099Z" fill="white"/>
<defs>
<linearGradient id="paint0_linear" x1="134.36" y1="151.908" x2="82.0777" y2="79.2288" gradientUnits="userSpaceOnUse">
<stop stop-color="#C0E4EF"/>
<stop offset="0.3314" stop-color="#DFEFEB"/>
</linearGradient>
<linearGradient id="paint1_linear" x1="84.4691" y1="141.763" x2="20.6251" y2="79.0236" gradientUnits="userSpaceOnUse">
<stop stop-color="#E0F0EB"/>
<stop offset="1" stop-color="#C0E4EF"/>
</linearGradient>
<linearGradient id="paint2_linear" x1="97.0974" y1="159.686" x2="10.8838" y2="135.779" gradientUnits="userSpaceOnUse">
<stop stop-color="#C0E4EF"/>
<stop offset="0.3314" stop-color="#DFEFEB"/>
</linearGradient>
</defs>
</svg>
