<svg width="194" height="217" viewBox="0 0 194 217" fill="none" xmlns="http://www.w3.org/2000/svg">
<path d="M67.0103 145.153C67.0103 145.153 72.873 107.183 48.4802 92.7949C10.1111 122.714 39.8955 160.06 39.8955 160.06L67.0103 145.153Z" fill="#6680A1"/>
<path d="M48.4802 92.7949C48.3232 92.8988 48.2185 93.0027 48.0614 93.1066L52.6155 138.141L29.4266 121.831C29.3742 122.142 29.3219 122.454 29.2695 122.766L52.7202 139.283L54.0288 152.269L54.814 151.801L52.1967 125.882L64.9166 115.494C64.8119 115.182 64.7595 114.922 64.6549 114.611L52.092 124.895L48.8466 93.1066C48.7943 93.0027 48.6372 92.8988 48.4802 92.7949Z" fill="white"/>
<path d="M54.6045 137.829C54.6045 137.829 27.6991 110.351 1.57883 117.675C-6.01122 149.152 28.1178 162.917 28.1178 162.917L61.8805 162.657L54.6045 137.829Z" fill="#212B53"/>
<path d="M31.4682 121.571L30.369 138.504L2.20726 117.468C1.99788 117.52 1.7885 117.571 1.57912 117.623C1.52677 117.727 1.52677 117.883 1.47443 117.987L16.6022 129.259L1.05566 132.427C1.10801 132.583 1.10801 132.739 1.16035 132.843L1.26505 133.206L17.5967 129.882L42.7224 148.633L15.5553 155.126C15.817 155.334 16.1311 155.593 16.3928 155.801L43.5599 149.308L61.4096 162.606H61.9854L61.7761 161.826L31.3112 139.076L32.4628 121.935C32.044 121.831 31.7299 121.675 31.4682 121.571Z" fill="#00666A"/>
<path d="M52.4584 156.009C52.4584 156.009 20.7896 150.191 9.43066 168.475C29.1648 207.692 80.8295 185.564 80.8295 185.564L52.4584 156.009Z" fill="#6680A1"/>
<path d="M9.43066 168.475C9.48301 168.631 9.5877 168.787 9.64005 168.942L53.0342 173.513L36.3361 190.291C36.6501 190.395 36.9642 190.447 37.2783 190.499L54.0811 173.617L71.0409 175.383L70.151 174.448L37.1736 170.968L25.7624 157.1C25.4483 157.203 25.1866 157.255 24.8725 157.359L35.9697 170.864L9.69239 168.111C9.5877 168.215 9.48301 168.319 9.43066 168.475Z" fill="#212B53"/>
<path d="M37.3306 34.6194C36.336 33.7883 35.1844 33.8922 34.3469 34.1C33.8235 34.2558 33.2477 33.8922 33.143 33.3208C32.9336 32.3859 32.3578 31.1912 30.5781 30.5159C28.8507 29.8407 27.7514 30.8795 27.1233 31.9703C26.9139 32.3339 26.3381 32.282 26.2334 31.8664C25.71 30.1523 23.7732 27.8669 17.5441 27.8669C13.3565 27.8669 11.5768 29.0616 11.001 30.4121C11.2104 33.9441 12.676 36.3854 14.8745 38.2554H37.2782C37.3306 38.3073 39.1103 36.0738 37.3306 34.6194Z" fill="url(#paint0_linear)"/>
<path d="M155.107 92.0158H187.666C187.666 92.0158 189.446 89.7822 187.666 88.3278C186.672 87.4968 185.52 87.6006 184.682 87.8084C184.159 87.9642 183.583 87.6006 183.478 87.0293C183.269 86.0943 182.693 84.8996 180.914 84.2244C179.186 83.5491 178.087 84.588 177.459 85.6788C177.249 86.0424 176.674 85.9904 176.569 85.5749C176.045 83.8608 174.109 81.5753 167.88 81.5753C159.923 81.5753 160.813 85.7827 161.494 87.4968C161.598 87.8084 161.336 88.1201 161.022 88.0681C159.818 87.8084 157.515 87.4448 156.468 88.2759C155.107 89.4186 155.107 92.0158 155.107 92.0158Z" fill="url(#paint1_linear)"/>
<path d="M191.802 30.6718L192.534 34.7233L188.975 32.7495L177.197 24.8023L191.802 30.6718Z" fill="#B0D9C8"/>
<path d="M192.534 34.7233L186.2 32.4378L188.032 32.0742L192.534 34.7233Z" fill="#63C1C5"/>
<path d="M191.802 30.6718L194 27.5552L177.197 24.8023L191.802 30.6718Z" fill="url(#paint2_linear)"/>
<path d="M177.197 24.8023L188.975 32.7495L185.572 37.1646L177.197 24.8023Z" fill="url(#paint3_linear)"/>
<path d="M190.021 37.8918C190.074 37.8918 190.074 37.8918 190.126 37.8398C190.283 37.7359 190.336 37.5282 190.231 37.4243C189.917 36.9568 189.603 36.5413 189.236 36.1257C189.132 36.0218 188.922 35.9699 188.765 36.1257C188.66 36.2296 188.608 36.4374 188.765 36.5932C189.132 36.9568 189.446 37.3723 189.707 37.7879C189.812 37.8398 189.917 37.8918 190.021 37.8918Z" fill="url(#paint4_linear)"/>
<path d="M175.313 69.4727C175.26 69.3169 175.365 69.1091 175.522 69.1091C176.464 68.8494 177.406 68.4339 178.349 67.8625C178.506 67.7586 178.715 67.8106 178.767 67.9664C178.872 68.1222 178.82 68.33 178.663 68.3819C177.72 69.0053 176.674 69.4727 175.627 69.7324C175.522 69.7324 175.365 69.6286 175.313 69.4727ZM179.814 67.0834C179.71 66.9795 179.71 66.7717 179.814 66.6159C180.547 65.8887 181.228 65.1096 181.751 64.1746C181.856 64.0188 182.013 63.9668 182.17 64.0707C182.327 64.1746 182.379 64.3304 182.274 64.4863C181.699 65.4212 181.018 66.3042 180.233 67.0314C180.181 67.0834 180.128 67.0834 180.076 67.1353C180.024 67.2392 179.919 67.1873 179.814 67.0834ZM182.746 62.9799C182.589 62.928 182.484 62.7202 182.536 62.5644L182.589 62.4086C182.903 61.5255 183.164 60.5386 183.321 59.5517C183.321 59.3959 183.531 59.2401 183.688 59.292C183.845 59.292 184.002 59.4998 183.95 59.6556C183.792 60.6945 183.531 61.7333 183.217 62.6683L183.164 62.8241C183.112 62.928 183.007 62.9799 182.903 63.0319C182.85 62.9799 182.798 62.9799 182.746 62.9799ZM183.792 57.9935C183.635 57.9935 183.478 57.8376 183.478 57.6818C183.531 56.6949 183.478 55.6561 183.374 54.5653C183.374 54.4094 183.478 54.2536 183.635 54.2017C183.792 54.2017 183.95 54.3055 184.002 54.4614C184.107 55.6041 184.159 56.6949 184.159 57.6818C184.159 57.8376 184.054 57.9415 183.897 57.9935C183.845 57.9935 183.845 57.9935 183.792 57.9935ZM183.478 52.955C183.321 53.007 183.164 52.8512 183.112 52.6953C183.112 52.5915 183.06 52.5395 183.06 52.4356C182.693 52.4876 182.327 52.4876 181.96 52.4876C181.803 52.4876 181.646 52.3317 181.646 52.1759C181.646 52.0201 181.803 51.8643 181.96 51.8643C182.274 51.8643 182.589 51.8643 182.903 51.8643C182.746 51.189 182.589 50.4618 182.432 49.6307C182.379 49.4749 182.484 49.2671 182.641 49.2671C182.798 49.2152 183.007 49.3191 183.007 49.4749C183.217 50.306 183.374 51.0332 183.531 51.7604C184.054 51.7084 184.525 51.6045 184.996 51.4487C185.153 51.3968 185.363 51.5007 185.415 51.6565C185.468 51.8123 185.363 52.0201 185.206 52.072C184.682 52.2279 184.159 52.3317 183.635 52.4356C183.635 52.4876 183.688 52.5914 183.688 52.6434C183.74 52.7473 183.635 52.9031 183.478 52.955ZM186.619 51.1371C186.514 50.9812 186.567 50.7735 186.724 50.7215C187.3 50.4099 187.823 50.0463 188.242 49.6307C188.504 49.371 188.818 49.0594 189.027 48.7997C189.132 48.6438 189.341 48.6438 189.498 48.7477C189.655 48.8516 189.655 49.0594 189.55 49.2152C189.289 49.5268 188.975 49.8385 188.661 50.1502C188.137 50.6176 187.614 50.9812 186.986 51.3448C186.933 51.3448 186.933 51.3968 186.881 51.3968C186.829 51.2929 186.724 51.2409 186.619 51.1371ZM180.024 52.2279C178.924 52.0201 177.877 51.6045 176.935 51.0332C176.778 50.9293 176.726 50.7735 176.831 50.6176C176.935 50.4618 177.092 50.4099 177.249 50.5138C178.139 51.0332 179.081 51.3968 180.128 51.6045C180.285 51.6565 180.39 51.8123 180.39 51.9681C180.338 52.072 180.233 52.1759 180.128 52.2279C180.076 52.2279 180.024 52.2279 180.024 52.2279ZM190.283 47.605C190.126 47.5011 190.074 47.3453 190.126 47.1894C190.597 46.3064 190.911 45.3195 191.068 44.2807C191.068 44.1248 191.278 43.969 191.435 44.021C191.592 44.021 191.749 44.2287 191.697 44.3846C191.54 45.4753 191.226 46.5661 190.702 47.5011C190.65 47.605 190.545 47.6569 190.493 47.6569C190.388 47.6569 190.336 47.6569 190.283 47.605ZM175.365 49.8385C175.156 49.6307 174.946 49.423 174.789 49.2152C174.266 48.5919 173.847 47.8647 173.585 47.0856C173.533 46.9297 173.637 46.722 173.795 46.67C173.952 46.6181 174.161 46.722 174.213 46.8778C174.475 47.605 174.841 48.2283 175.313 48.7997C175.47 49.0074 175.679 49.2152 175.836 49.371C175.941 49.4749 175.941 49.6827 175.836 49.8385C175.784 49.8904 175.731 49.9424 175.679 49.9424C175.522 49.9424 175.417 49.9424 175.365 49.8385ZM181.96 47.7608C181.594 46.5661 181.228 45.6312 180.756 44.904C180.652 44.7481 180.704 44.5404 180.861 44.4884C181.018 44.3846 181.228 44.4365 181.28 44.5923C181.751 45.3715 182.17 46.3584 182.536 47.605C182.589 47.7608 182.484 47.9686 182.327 48.0205C182.327 48.0205 182.327 48.0205 182.274 48.0205C182.17 48.0205 182.013 47.9166 181.96 47.7608ZM191.435 42.7224C191.278 42.7224 191.121 42.6185 191.121 42.4107C191.121 41.9433 191.068 41.4758 190.964 41.0083C190.859 40.4369 190.702 39.9175 190.545 39.3981C190.493 39.2423 190.545 39.0345 190.754 38.9825C190.911 38.9306 191.121 38.9825 191.173 39.1903C191.383 39.7617 191.54 40.333 191.644 40.9044C191.749 41.3719 191.801 41.8913 191.801 42.4107C191.749 42.5146 191.644 42.6705 191.435 42.7224C191.487 42.7224 191.487 42.7224 191.435 42.7224ZM173.533 45.4234C173.376 45.4234 173.219 45.2676 173.219 45.1117C173.271 44.1768 173.585 43.3976 174.213 42.7743C174.423 42.5666 174.684 42.3588 174.946 42.203C175.103 42.0991 175.313 42.151 175.365 42.3069C175.47 42.4627 175.417 42.6705 175.26 42.7224C175.051 42.8263 174.841 42.9821 174.684 43.1899C174.213 43.7093 173.899 44.3326 173.899 45.1117C173.899 45.2676 173.795 45.3715 173.638 45.4234C173.585 45.4234 173.533 45.4234 173.533 45.4234ZM179.657 43.5015C178.924 42.8782 177.93 42.4627 176.935 42.4107C176.778 42.4107 176.621 42.2549 176.621 42.0991C176.621 41.9433 176.778 41.7874 176.935 41.7874C178.087 41.8394 179.186 42.3069 180.076 43.034C180.233 43.1379 180.233 43.3457 180.128 43.5015C180.076 43.5535 180.024 43.6054 179.971 43.6054C179.814 43.5535 179.71 43.5535 179.657 43.5015Z" fill="url(#paint5_linear)"/>
<path d="M173.742 69.9402C173.899 69.8883 174.004 69.7844 174.004 69.6286C174.004 69.4727 173.847 69.3169 173.69 69.3169C173.167 69.3169 172.695 69.265 172.172 69.1092C172.015 69.0572 171.806 69.1611 171.806 69.3169C171.753 69.4727 171.858 69.6805 172.015 69.6805C172.538 69.7844 173.114 69.8883 173.638 69.8883C173.69 69.9402 173.742 69.9402 173.742 69.9402Z" fill="url(#paint6_linear)"/>
<path d="M141.079 92.8988C139.613 92.691 134.745 95.8076 130.139 100.171C125.376 97.4178 120.298 95.444 115.064 94.1974C115.273 88.6395 114.907 82.77 112.656 81.1598C108.102 77.8875 92.9216 79.7054 91.0371 81.1598C89.8332 82.0948 88.5769 87.8085 88.5246 94.3013C83.3424 95.5998 78.3172 97.5736 73.6062 100.379C69.785 96.2751 65.3356 92.3794 62.6137 92.7949C57.0651 93.678 47.643 105.625 47.3289 107.962C47.1195 109.417 50.2079 114.195 54.6572 118.766C51.6736 123.493 49.4751 128.531 48.0617 133.777C42.6702 133.622 37.0693 134.037 35.5512 136.167C32.2535 140.686 34.0856 155.749 35.5512 157.619C36.4411 158.71 41.4663 159.853 47.4336 160.112C48.6375 165.67 50.7313 171.02 53.6627 176.059C49.9985 179.539 46.8578 183.383 47.2766 185.824C48.1664 191.33 60.2058 200.679 62.5614 200.991C63.87 201.147 67.9006 198.706 72.0358 195.018C77.1657 198.29 82.7666 200.627 88.5246 202.03C88.5246 206.809 89.048 211.276 90.9848 212.678C95.5388 215.95 110.719 214.132 112.603 212.678C113.65 211.899 114.697 207.536 115.011 202.186C120.822 200.835 126.475 198.498 131.709 195.225C135.059 198.602 138.671 201.407 140.974 200.991C146.523 200.108 155.945 188.161 156.259 185.824C156.416 184.525 153.956 180.526 150.24 176.37C153.328 171.228 155.422 165.722 156.678 160.06C161.703 160.112 166.624 159.645 168.037 157.619C171.335 153.1 169.503 138.037 168.037 136.167C167.147 135.024 162.07 133.881 156.05 133.674C154.584 128.324 152.333 123.129 149.245 118.351C153.171 114.715 156.73 110.559 156.312 107.962C155.474 102.56 143.435 93.2105 141.079 92.8988ZM119.775 165.826C109.986 175.539 94.1778 175.539 84.3893 165.826C74.6007 156.113 74.6007 140.426 84.3893 130.713C94.1778 121 109.986 121 119.775 130.713C129.563 140.374 129.563 156.113 119.775 165.826Z" fill="#F04637"/>
<path d="M126.998 172.682C113.126 186.447 90.5134 186.447 76.6419 172.682C62.7704 158.918 62.7704 136.478 76.6419 122.714C90.5134 108.949 113.126 108.949 126.998 122.714C140.922 136.478 140.922 158.918 126.998 172.682ZM77.0083 123.077C63.2939 136.686 63.2939 158.762 77.0083 172.371C90.7227 185.98 112.969 185.98 126.684 172.371C140.398 158.762 140.398 136.686 126.684 123.077C112.969 109.468 90.6704 109.468 77.0083 123.077Z" fill="white"/>
<path d="M130.297 105.001C130.087 105.157 129.93 105.313 129.721 105.417C132.809 107.339 135.741 109.676 138.41 112.325C158.301 132.063 158.301 164.216 138.41 184.006C125.376 196.939 107.003 201.406 90.2527 197.407C90.1481 197.615 89.991 197.77 89.834 197.978C106.846 202.134 125.586 197.615 138.881 184.473C159.034 164.475 159.034 131.908 138.881 111.858C136.212 109.261 133.333 106.975 130.297 105.001Z" fill="white"/>
<path d="M51.674 141.777C53.035 131.024 57.8508 120.584 66.1736 112.377C66.3307 112.221 66.4877 112.066 66.6971 111.91C66.4877 111.806 66.2783 111.702 66.069 111.598C65.9643 111.702 65.8596 111.806 65.7549 111.91C57.3797 120.22 52.4592 130.713 51.0459 141.569C51.2553 141.621 51.4647 141.673 51.674 141.777Z" fill="white"/>
<path d="M148.879 19.0886C148.094 18.9847 145.529 20.6469 143.068 22.9843C140.504 21.5299 137.834 20.4391 135.007 19.8158C135.112 16.8551 134.955 13.7386 133.751 12.8555C131.291 11.1414 123.23 12.0764 122.235 12.8555C121.607 13.323 120.926 16.3876 120.874 19.8678C118.1 20.543 115.43 21.6338 112.918 23.0882C110.876 20.9066 108.521 18.8289 107.055 19.0367C104.124 19.5042 99.0461 25.8931 98.8891 27.1397C98.7844 27.9188 100.407 30.464 102.763 32.9053C101.192 35.3985 99.9884 38.0995 99.2555 40.9044C96.3765 40.8005 93.3929 41.0083 92.5553 42.203C90.828 44.6443 91.7702 52.6434 92.5553 53.6303C93.0265 54.2017 95.6961 54.825 98.8891 54.9289C99.5172 57.8896 100.669 60.7464 102.239 63.4474C100.302 65.3174 98.6274 67.3431 98.8368 68.6417C99.3079 71.5504 105.746 76.5889 107.003 76.7447C107.735 76.8486 109.829 75.55 112.08 73.5762C114.802 75.2903 117.786 76.5889 120.874 77.316C120.874 79.8612 121.136 82.2506 122.183 82.9778C124.643 84.6919 132.704 83.7569 133.699 82.9778C134.274 82.5622 134.798 80.2248 135.007 77.368C138.096 76.6408 141.132 75.3942 143.906 73.6801C145.686 75.4981 147.622 76.9525 148.826 76.7447C151.758 76.2772 156.835 69.8883 156.992 68.6417C157.097 67.9145 155.736 65.7848 153.799 63.6033C155.422 60.8503 156.573 57.9415 157.254 54.8769C159.924 54.9289 162.541 54.6692 163.326 53.5784C165.053 51.1371 164.111 43.138 163.326 42.151C162.855 41.5797 160.133 40.9564 156.94 40.8525C156.155 37.9957 154.951 35.2427 153.328 32.6975C155.422 30.7757 157.306 28.5421 157.097 27.1397C156.521 24.2829 150.135 19.2444 148.879 19.0886ZM137.52 57.9415C132.285 63.1358 123.858 63.1358 118.676 57.9415C113.441 52.7473 113.441 44.3846 118.676 39.2423C123.91 34.048 132.338 34.048 137.52 39.2423C142.702 44.4365 142.702 52.7992 137.52 57.9415Z" fill="#ACC1D6"/>
<path d="M141.446 61.7333C134.013 69.1092 121.869 69.1092 114.436 61.7333C107.003 54.3575 107.003 42.3069 114.436 34.9311C121.869 27.5552 134.013 27.5552 141.446 34.9311C148.879 42.3069 148.879 54.3575 141.446 61.7333ZM114.803 35.2947C107.527 42.5147 107.527 54.2017 114.803 61.3698C122.078 68.5897 133.856 68.5897 141.08 61.3698C148.356 54.1498 148.356 42.4627 141.08 35.2947C133.856 28.0747 122.026 28.0747 114.803 35.2947Z" fill="white"/>
<path d="M143.12 25.5814C143.015 25.6334 142.911 25.7372 142.806 25.7892C144.429 26.828 145.999 28.0747 147.412 29.4771C158.038 40.0214 158.038 57.1624 147.412 67.6548C140.45 74.5631 130.662 76.9524 121.763 74.7709C121.711 74.8748 121.606 74.9786 121.554 75.0825C130.609 77.316 140.607 74.8747 147.674 67.8625C158.405 57.2143 158.405 39.8136 147.674 29.1654C146.261 27.8149 144.743 26.6203 143.12 25.5814Z" fill="white"/>
<path d="M101.192 45.1637C101.925 39.45 104.49 33.8922 108.939 29.4771C109.044 29.3732 109.096 29.3213 109.201 29.2174C109.096 29.1654 108.991 29.1135 108.887 29.0616C108.834 29.1135 108.782 29.1654 108.73 29.2174C104.28 33.6325 101.663 39.2423 100.878 45.0079C100.983 45.0598 101.087 45.1118 101.192 45.1637Z" fill="white"/>
<path d="M80.2021 40.8005C79.5739 40.7486 77.6372 41.9952 75.7527 43.7613C73.816 42.6185 71.7222 41.8394 69.576 41.32C69.6807 39.0345 69.5237 36.6451 68.5815 35.9699C66.697 34.6194 60.468 35.3985 59.7351 35.9699C59.264 36.3335 58.7406 38.7228 58.6882 41.3719C56.5944 41.8913 54.5006 42.7224 52.5638 43.8651C50.9935 42.203 49.1614 40.5928 48.0622 40.7486C45.8113 41.1122 41.9378 45.9948 41.7807 46.9817C41.7284 47.605 42.9847 49.5269 44.7644 51.3968C43.5605 53.3187 42.6706 55.3964 42.0948 57.526C39.8963 57.474 37.5931 57.6299 36.965 58.5129C35.604 60.3828 36.3892 66.564 36.965 67.2912C37.3314 67.7586 39.3729 68.2261 41.8331 68.33C42.3565 70.6155 43.1941 72.7971 44.398 74.8748C42.9323 76.3291 41.6237 77.8874 41.7807 78.8743C42.1472 81.1078 47.0676 84.9516 48.0622 85.1074C48.5856 85.1593 50.2607 84.1724 51.9357 82.6661C54.0295 84.0166 56.3327 84.9516 58.6882 85.5229C58.6882 87.4448 58.8976 89.3147 59.6828 89.8861C61.5672 91.2366 67.7963 90.4575 68.5291 89.8861C68.9479 89.5744 69.3666 87.7565 69.5237 85.5749C71.9316 85.0035 74.2347 84.0686 76.3809 82.7181C77.7419 84.1205 79.2075 85.2632 80.2021 85.1074C82.4529 84.7438 86.3265 79.8612 86.4835 78.8743C86.5359 78.3549 85.5413 76.6927 84.0233 75.0306C85.2796 72.9529 86.1694 70.6674 86.6929 68.33C88.7343 68.382 90.7758 68.1742 91.3516 67.3431C92.7126 65.4732 91.9274 59.292 91.3516 58.5648C90.9852 58.0974 88.8914 57.6299 86.4312 57.526C85.8554 55.3444 84.9132 53.2148 83.6569 51.241C85.2796 49.7346 86.7452 48.0725 86.5359 46.9817C86.1171 44.7482 81.1966 40.9044 80.2021 40.8005ZM71.5128 70.6674C67.5346 74.615 61.0438 74.615 57.0132 70.6674C53.0349 66.7198 53.0349 60.2789 57.0132 56.2794C60.9914 52.3317 67.4822 52.3317 71.5128 56.2794C75.491 60.227 75.491 66.6678 71.5128 70.6674Z" fill="#FF7B7C"/>
<path d="M74.5493 73.5762C68.7913 79.2898 59.4739 79.2898 53.7159 73.5762C47.958 67.8625 47.958 58.6168 53.7159 52.9031C59.4739 47.1894 68.7913 47.1894 74.5493 52.9031C80.3073 58.6168 80.3073 67.8625 74.5493 73.5762ZM54.0824 53.2667C48.5338 58.7726 48.5338 67.7067 54.0824 73.2126C59.6309 78.7185 68.6343 78.7185 74.1829 73.2126C79.7315 67.7067 79.7315 58.7726 74.1829 53.2667C68.6866 47.7608 59.6309 47.7608 54.0824 53.2667Z" fill="white"/>
<path d="M75.8048 45.787C75.7524 45.839 75.6477 45.8909 75.5954 45.9428C76.8517 46.722 78.0556 47.6569 79.1548 48.7477C87.3207 56.8507 87.3207 69.9922 79.1548 78.0952C73.8156 83.3933 66.2779 85.2113 59.4207 83.6011C59.3684 83.705 59.316 83.7569 59.2637 83.8608C66.2256 85.5749 73.9203 83.705 79.3642 78.303C87.6348 70.0961 87.6348 56.7988 79.3642 48.5919C78.2126 47.5011 77.061 46.5662 75.8048 45.787Z" fill="white"/>
<path d="M43.6123 60.7984C44.1881 56.3833 46.1772 52.124 49.5797 48.7477C49.632 48.6958 49.7367 48.6438 49.789 48.54C49.6844 48.488 49.632 48.4361 49.5273 48.4361C49.475 48.488 49.4226 48.54 49.3703 48.5919C45.9155 52.0201 43.9264 56.2794 43.3506 60.7464C43.4553 60.7464 43.5076 60.7984 43.6123 60.7984Z" fill="white"/>
<path d="M110.981 121.675H118.204C124.957 121.675 131.081 125.622 133.803 131.752L140.66 147.127L126.37 153.931L130.977 156.996L133.489 180.318L81.0917 179.435L79.1025 121.363L110.719 122.038L110.981 121.675Z" fill="#ACC1D6"/>
<path d="M105.274 109.884C105.274 109.884 105.955 116.896 106.897 119.857C107.682 121.986 110.98 121.675 110.98 121.675C110.98 121.675 108.415 132.791 99.0454 132.791C89.6756 132.791 88.21 123.285 88.21 123.285L94.8578 122.246L91.7694 112.117L105.274 109.884Z" fill="#F4A086"/>
<path d="M109.043 94.3531L106.897 81.835L85.0693 91.4963L86.378 98.8202C86.378 98.8202 88.053 116.688 99.6736 114.559C112.289 112.273 109.619 94.1973 109.043 94.3531Z" fill="#F8B68F"/>
<path d="M140.66 147.127L143.592 157.515C145.738 165.099 143.435 173.202 137.624 178.604L124.224 189.771L119.932 177.305L127.312 169.929C129.72 167.488 130.453 163.904 129.144 160.736L126.318 153.931L140.66 147.127Z" fill="#F8B68F"/>
<path d="M69.2608 149.776L67.6381 154.814C64.6545 164.008 66.9576 174.085 73.6578 181.149L81.7713 189.667L85.9589 169.722L74.3907 149.776H69.2608Z" fill="#F8B68F"/>
<path d="M67.5859 154.866L74.9143 159.021L76.1182 147.023H69.6274L67.5859 154.866Z" fill="#ACC1D6"/>
<path d="M86.3783 99.5993C100.407 102.56 108.311 87.0293 108.311 87.0293C108.311 87.0293 107.892 90.2497 109.201 95.0803C113.912 89.0031 110.824 81.3156 110.824 81.3156C110.824 81.3156 107.002 72.9529 89.9901 77.0563C70.1513 81.835 66.8012 108.949 66.8012 108.949C66.8012 108.949 65.3356 114.87 70.4654 124.324C71.9311 126.973 71.8264 130.297 69.9943 132.687C65.7543 138.193 66.8012 144.997 66.8012 144.997C66.8012 144.997 67.22 148.529 70.256 150.866C73.0827 153.048 74.2342 157.671 73.135 161.047C70.6748 168.267 72.7686 172.371 72.7686 172.371C72.7686 172.371 74.0772 176.994 81.3532 177.305C91.9792 177.721 91.7175 169.358 90.7753 164.631C90.4089 162.813 90.88 160.995 92.1363 159.645C93.4449 158.19 94.8582 155.957 94.9629 152.944C95.0153 150.399 94.0207 147.698 92.9215 145.464C91.4558 142.608 91.7175 139.231 93.602 136.634C96.3239 132.998 99.831 125.726 97.8419 121C94.5965 112.949 88.9432 110.299 86.3783 99.5993Z" fill="#212B53"/>
<path d="M132.233 161.307H79.1025V192.836H132.233V161.307Z" fill="white"/>
<path d="M132.233 191.485H79.1025V194.134H132.233V191.485Z" fill="#CBB8CD"/>
<path d="M105.641 176.266C106.827 176.266 107.787 175.313 107.787 174.137C107.787 172.96 106.827 172.007 105.641 172.007C104.456 172.007 103.495 172.96 103.495 174.137C103.495 175.313 104.456 176.266 105.641 176.266Z" fill="#ACC1D6"/>
<path d="M170.235 184.421C177.092 204.835 86.3259 213.976 86.3259 213.976L84.1797 202.445C84.1274 202.393 163.378 164.008 170.235 184.421Z" fill="#212B53"/>
<path d="M80.8291 213.925L67.7952 214.652L65.335 212.003L66.5912 207.12L78.8924 205.354L80.8291 213.925Z" fill="#F8B68F"/>
<path d="M67.7953 206.964L54.552 205.354C54.552 205.354 49.4222 204.004 44.8682 204.783V216.729C48.3229 217.145 51.7254 216.678 51.7254 216.678L67.8477 214.704L67.6907 214.444C66.1203 212.159 66.225 209.094 67.7953 206.964Z" fill="#475B73"/>
<path d="M38.1159 210.029C39.0058 206.653 41.8324 205.25 44.9208 204.783V216.729C40.9426 216.262 36.912 214.704 38.1159 210.029Z" fill="white"/>
<path d="M61.3047 207.795H59.9961V212.938H61.3047V207.795Z" fill="white"/>
<path d="M58.0069 207.795H56.6982V212.938H58.0069V207.795Z" fill="white"/>
<path d="M84.1269 200.679L86.5871 215.535L80.8292 216.626L77.9502 202.393L84.1269 200.679Z" fill="#ACC1D6"/>
<path d="M112.742 96.2914C113.323 94.7919 112.963 93.2592 111.937 92.868C110.912 92.4767 109.61 93.3751 109.029 94.8746C108.448 96.3741 108.808 97.9068 109.833 98.2981C110.859 98.6893 112.161 97.7909 112.742 96.2914Z" fill="#F8B68F"/>
<path d="M38.2732 184.421C31.416 204.835 122.182 213.976 122.182 213.976L124.329 202.445C124.329 202.393 45.1304 164.008 38.2732 184.421Z" fill="#212B53"/>
<path d="M127.679 213.925L140.66 214.652L143.121 212.003L141.917 207.12L129.563 205.354L127.679 213.925Z" fill="#F8B68F"/>
<path d="M163.692 204.783C159.086 204.004 153.956 205.354 153.956 205.354L140.713 206.964C142.283 209.094 142.388 212.21 140.87 214.444L140.713 214.704L156.835 216.678C156.835 216.678 160.29 217.145 163.745 216.729V204.783H163.692Z" fill="#475B73"/>
<path d="M170.34 210.029C169.45 206.653 166.624 205.25 163.535 204.783V216.729C167.566 216.262 171.596 214.704 170.34 210.029Z" fill="white"/>
<path d="M148.46 207.795H147.151V212.938H148.46V207.795Z" fill="white"/>
<path d="M151.758 207.795H150.449V212.938H151.758V207.795Z" fill="white"/>
<path d="M124.329 200.679L121.921 215.535L127.679 216.626L130.505 202.393L124.329 200.679Z" fill="#ACC1D6"/>
<path d="M142.911 1.27236C142.336 2.51898 140.504 6.8302 141.079 10.2584C141.184 10.7778 141.446 11.2453 141.917 11.505C145.738 13.7385 151.025 14.4657 152.857 14.6735C153.276 14.7254 153.747 14.5696 154.061 14.258C155.16 13.2191 157.62 10.2065 158.406 4.07725C158.458 3.66171 158.301 3.29812 158.039 2.98646C154.637 -0.389791 145.11 -0.0781373 143.435 0.649056C143.225 0.856826 143.016 1.01265 142.911 1.27236Z" fill="url(#paint7_linear)"/>
<path d="M158.458 4.12919C158.458 4.02531 158.458 3.92142 158.458 3.81754L149.612 6.83019L143.802 0.597107C143.697 0.649049 143.592 0.649049 143.488 0.700992C143.383 0.752934 143.331 0.804877 143.226 0.856819L147.309 5.21998L141.027 8.23264C141.027 8.44041 141.027 8.70012 141.027 8.90789L147.78 5.68746L149.455 7.50545L152.386 6.51854L155.475 12.6997C155.579 12.5439 155.736 12.3361 155.841 12.1283L152.91 6.31077L158.354 4.44084C158.406 4.33696 158.458 4.23307 158.458 4.12919Z" fill="#93CFC7"/>
<path d="M95.1717 18.6731L82.7659 16.8551L77.1126 17.7381L73.3438 19.7639L95.1717 18.6731Z" fill="url(#paint8_linear)"/>
<path d="M95.1717 18.6731L74.0242 20.8547L73.3438 19.7639" fill="#B0D9C8"/>
<path d="M74.7051 24.3348L74.7574 24.3868L76.6942 27.0878L95.1197 18.725L74.7051 24.3348Z" fill="#63C1C5"/>
<path d="M70.3604 23.9712L72.2971 20.7508L95.0149 18.725L77.0605 24.6984L70.3604 23.9712Z" fill="url(#paint9_linear)"/>
<path d="M41.1516 77.8874C41.6751 77.42 42.1985 76.9525 42.722 76.3811C42.8267 76.2772 43.036 76.2253 43.1407 76.3811C43.2454 76.485 43.2978 76.6928 43.1407 76.7966C42.6173 77.368 42.0938 77.8874 41.518 78.3549C41.3086 78.5107 41.0993 78.6666 40.8899 78.8743C40.8375 78.9263 40.7329 78.9263 40.6282 78.9263C40.5758 78.9263 40.5235 78.8744 40.4711 78.8224C40.3664 78.6666 40.4188 78.5108 40.5235 78.4069C40.7329 78.1991 40.9422 78.0433 41.1516 77.8874Z" fill="url(#paint10_linear)"/>
<path d="M63.9746 23.9712C64.9168 23.7634 65.859 23.5557 66.9059 23.3998C67.063 23.3479 67.22 23.5037 67.2724 23.6595C67.3247 23.8154 67.1677 23.9712 67.0106 24.0231C65.9637 24.2309 65.0215 24.3867 64.0793 24.5945C64.027 24.5945 63.9746 24.5945 63.9223 24.5945C63.8176 24.5426 63.7652 24.4906 63.7129 24.3867C63.7129 24.179 63.8176 24.0231 63.9746 23.9712Z" fill="url(#paint11_linear)"/>
<path d="M59.3677 25.8931C59.263 25.8931 59.2106 25.7892 59.1583 25.7372C59.106 25.5814 59.1583 25.4256 59.3153 25.3736C60.2052 25.0101 61.1998 24.6984 62.1943 24.4387C62.3514 24.3867 62.5084 24.4906 62.5607 24.6465C62.6131 24.8023 62.5084 24.9581 62.3514 25.01C61.3568 25.2698 60.4146 25.5814 59.5247 25.945C59.4724 25.945 59.42 25.945 59.3677 25.8931Z" fill="url(#paint12_linear)"/>
<path d="M45.2867 72.5373C45.339 72.3815 45.5484 72.3296 45.7054 72.3815C45.8625 72.4335 45.9148 72.6412 45.8625 72.7971C45.4437 73.6801 44.9203 74.5631 44.2921 75.3942C44.2398 75.4981 44.0827 75.55 43.978 75.4981C43.9257 75.4981 43.9257 75.4981 43.8734 75.4461C43.7163 75.3422 43.7163 75.1864 43.821 75.0306C44.3968 74.2514 44.8679 73.4204 45.2867 72.5373Z" fill="url(#paint13_linear)"/>
<path d="M46.1244 71.2908C45.9673 71.2388 45.8626 71.083 45.915 70.9271C46.0197 70.6674 46.072 70.4077 46.1767 70.148C46.3861 69.4728 46.5431 68.7456 46.6478 68.0703C46.6478 67.9145 46.8049 67.8106 46.9619 67.8106C47.1189 67.8106 47.2236 67.9664 47.2236 68.1223C47.1189 68.8495 46.9619 69.5767 46.7525 70.2519C46.7002 70.5116 46.5955 70.7713 46.4908 71.031C46.4908 71.2908 46.3337 71.3427 46.1244 71.2908C46.1767 71.2908 46.1767 71.2908 46.1244 71.2908Z" fill="url(#paint14_linear)"/>
<path d="M47.1193 66.6679H47.067C46.9623 66.6159 46.8576 66.512 46.8576 66.3562C46.91 65.4213 46.8576 64.4863 46.7529 63.4475C46.7529 63.2916 46.8576 63.1358 47.0147 63.1358C47.1717 63.1358 47.3287 63.2397 47.3287 63.3955C47.4334 64.4863 47.4858 65.4213 47.4334 66.4082C47.3811 66.564 47.2764 66.6679 47.1193 66.6679Z" fill="url(#paint15_linear)"/>
<path d="M45.6539 40.1772C45.5492 40.5408 45.3922 40.9044 45.2875 41.268C45.1304 41.8394 44.9734 42.4107 44.8687 42.9821C44.8164 43.1379 44.6593 43.2418 44.5023 43.1899C44.3453 43.1379 44.2406 42.9821 44.2929 42.8263C44.3976 42.2549 44.5546 41.6316 44.7117 41.0602C44.8164 40.6966 44.9211 40.2811 45.0781 39.9175C45.1304 39.7617 45.2875 39.6578 45.4445 39.7097C45.6539 39.8656 45.7062 40.0214 45.6539 40.1772Z" fill="url(#paint16_linear)"/>
<path d="M44.6065 44.7482C44.5018 45.7351 44.4494 46.722 44.4494 47.6569C44.4494 47.8128 44.2924 47.9686 44.1354 47.9686C44.083 47.9686 44.083 47.9686 44.0307 47.9686C43.926 47.9167 43.8213 47.8128 43.8213 47.7089C43.8213 46.722 43.8736 45.6831 43.9783 44.6962C43.9783 44.5404 44.1354 44.4365 44.2924 44.4365C44.5018 44.4365 44.6065 44.5923 44.6065 44.7482Z" fill="url(#paint17_linear)"/>
<path d="M47.6423 35.918C47.1712 36.749 46.7001 37.632 46.3337 38.5151C46.2814 38.6709 46.1243 38.7228 45.9673 38.6709C45.9673 38.6709 45.9673 38.6709 45.9149 38.6709C45.7579 38.619 45.7056 38.4112 45.7579 38.2554C46.1767 37.3204 46.5954 36.4374 47.1189 35.5544C47.2236 35.3985 47.3806 35.3466 47.5377 35.4505C47.6947 35.6063 47.6947 35.8141 47.6423 35.918Z" fill="url(#paint18_linear)"/>
<path d="M51.6209 30.8795C51.5162 30.9315 51.4115 30.9834 51.3068 30.9315C51.2545 30.9315 51.2022 30.8795 51.1498 30.8276C51.0451 30.7237 51.0451 30.516 51.1498 30.4121C51.8826 29.7368 52.6678 29.0616 53.453 28.4382C53.61 28.3344 53.7671 28.3863 53.8718 28.4902C53.9764 28.646 53.9241 28.8018 53.8194 28.9057C53.0866 29.529 52.3537 30.2043 51.6209 30.8795Z" fill="url(#paint19_linear)"/>
<path d="M45.7584 57.3182C45.706 57.3182 45.6537 57.3182 45.6013 57.3182C45.4967 57.2663 45.4443 57.2143 45.392 57.1104L45.2873 56.7468C45.0779 55.9158 44.8685 55.0847 44.6591 54.2017C44.6068 54.0458 44.7115 53.89 44.8685 53.8381C45.0255 53.7861 45.1826 53.89 45.2349 54.0458C45.4443 54.8769 45.6537 55.708 45.8631 56.5391L45.9678 56.9027C46.0201 57.1104 45.9678 57.2663 45.7584 57.3182Z" fill="url(#paint20_linear)"/>
<path d="M48.5851 34.4636C48.5327 34.5674 48.3757 34.6194 48.271 34.5674C48.2187 34.5674 48.2187 34.5675 48.1663 34.5155C48.0093 34.4116 48.0093 34.2558 48.114 34.1C48.6898 33.2689 49.3179 32.4898 49.9984 31.7106C50.1031 31.6067 50.3125 31.5548 50.4172 31.7106C50.5218 31.8145 50.5742 32.0223 50.4172 32.1262C49.7367 32.8534 49.1609 33.6325 48.5851 34.4636Z" fill="url(#paint21_linear)"/>
<path d="M11.5245 97.1581C11.6292 97.0542 11.8386 97.0022 11.9433 97.1061C12.0479 97.21 12.1003 97.4178 11.9956 97.5217L10.1112 99.8591C10.0588 99.963 9.9018 100.015 9.79711 99.963C9.74476 99.963 9.74476 99.911 9.69242 99.911C9.58773 99.8071 9.53538 99.5994 9.64007 99.4955L11.5245 97.1581Z" fill="url(#paint22_linear)"/>
<path d="M14.5606 93.4182C14.6653 93.3143 14.8747 93.2624 14.9794 93.3663C15.0841 93.4701 15.1364 93.6779 15.0317 93.7818C14.4036 94.5609 13.7755 95.2881 13.1473 96.0673C13.095 96.1712 12.9379 96.2231 12.8332 96.1712C12.7809 96.1712 12.7809 96.1192 12.7286 96.1192C12.6239 96.0153 12.5715 95.8076 12.6762 95.7037C13.3043 94.9765 13.9325 94.1973 14.5606 93.4182Z" fill="url(#paint23_linear)"/>
<path d="M17.8056 89.8861C17.9103 89.7823 18.1197 89.7823 18.2244 89.8861C18.3291 89.99 18.3291 90.1978 18.2244 90.3017C17.5439 90.925 16.9157 91.6522 16.1829 92.4313C16.0782 92.5352 15.9735 92.5352 15.8688 92.5352C15.8165 92.5352 15.7641 92.4833 15.7641 92.4833C15.6595 92.3794 15.6071 92.1716 15.7641 92.0677C16.4446 91.2886 17.1251 90.5614 17.8056 89.8861Z" fill="url(#paint24_linear)"/>
<path d="M8.5411 100.846C8.64579 100.742 8.85517 100.69 8.95986 100.794C9.06455 100.898 9.1169 101.106 9.0122 101.21L7.12778 103.547C7.07544 103.651 6.9184 103.703 6.81371 103.651C6.76136 103.651 6.76136 103.599 6.70902 103.599C6.60433 103.495 6.55198 103.287 6.65667 103.183L8.5411 100.846Z" fill="url(#paint25_linear)"/>
<path d="M46.0726 58.461C46.2296 58.409 46.3867 58.5129 46.439 58.6687C46.7008 59.8115 46.9101 60.7464 47.0672 61.5775C47.1195 61.7333 46.9625 61.8892 46.8054 61.9411C46.7531 61.9411 46.7008 61.9411 46.6484 61.9411C46.5437 61.8892 46.439 61.8372 46.439 61.6814C46.282 60.8503 46.125 59.9153 45.8632 58.7726C45.8109 58.6687 45.9156 58.5129 46.0726 58.461Z" fill="url(#paint26_linear)"/>
<path d="M21.5224 86.8734C21.6795 86.7696 21.8365 86.8215 21.9412 86.9773C22.0459 87.1332 21.9935 87.289 21.8365 87.3929C21.0513 87.9123 20.2662 88.4837 19.481 89.1589C19.3763 89.2109 19.2716 89.2628 19.2193 89.2109C19.1669 89.2109 19.1146 89.1589 19.0622 89.107C18.9575 89.0031 18.9575 88.7953 19.1146 88.6914C19.9521 88.0162 20.7373 87.3929 21.5224 86.8734Z" fill="url(#paint27_linear)"/>
<path d="M3.72503 106.871L5.55711 104.586C5.6618 104.482 5.87119 104.43 5.97588 104.534C6.08057 104.638 6.13291 104.846 6.02822 104.949L4.19614 107.235C4.14379 107.339 3.98676 107.391 3.88207 107.339C3.82972 107.339 3.82972 107.287 3.77738 107.287C3.67269 107.183 3.62034 106.975 3.72503 106.871Z" fill="url(#paint28_linear)"/>
<path d="M39.0586 79.3418C39.2156 79.2379 39.3726 79.2899 39.4773 79.4457C39.582 79.6015 39.5297 79.7573 39.3726 79.8612C38.5875 80.3287 37.6976 80.7962 36.703 81.2637C36.6507 81.3156 36.546 81.3156 36.4937 81.2637C36.389 81.2637 36.3366 81.1598 36.2843 81.1078C36.2319 80.952 36.2843 80.7962 36.4413 80.6923C37.4359 80.2768 38.2734 79.8093 39.0586 79.3418Z" fill="url(#paint29_linear)"/>
<path d="M44.1881 49.1632C44.3451 49.1632 44.5022 49.2671 44.5022 49.423C44.6069 50.306 44.7115 51.2929 44.9209 52.3317C44.9733 52.4876 44.8686 52.6434 44.6592 52.6953C44.6069 52.6953 44.5545 52.6953 44.5022 52.6953C44.3975 52.6434 44.2928 52.5914 44.2928 52.4876C44.0834 51.3968 43.9264 50.4618 43.874 49.5268C43.874 49.3191 44.0311 49.1632 44.1881 49.1632Z" fill="url(#paint30_linear)"/>
<path d="M25.8147 84.6399C25.9717 84.588 26.1288 84.6399 26.1811 84.7958C26.2335 84.9516 26.1811 85.1074 26.0241 85.1594C25.0295 85.5749 24.1397 85.9905 23.3545 86.406C23.3021 86.4579 23.1974 86.4579 23.1451 86.406C23.0927 86.406 22.9881 86.3541 22.9881 86.2502C22.8834 86.0943 22.9357 85.9385 23.0928 85.8346C23.9303 85.471 24.8201 85.0555 25.8147 84.6399Z" fill="url(#paint31_linear)"/>
<path d="M56.6981 26.5164C57.0121 26.3606 57.3262 26.2047 57.6403 26.0489C57.7973 25.997 57.9543 26.0489 58.059 26.2047C58.1114 26.3606 58.059 26.5164 57.902 26.6203C57.5879 26.7761 57.2739 26.9319 56.9598 27.0877C56.384 27.3994 55.8082 27.7111 55.2848 28.0227C55.2324 28.0747 55.1277 28.0747 55.023 28.0747C54.9707 28.0747 54.9183 28.0227 54.866 27.9708C54.7613 27.8149 54.8136 27.6591 54.9707 27.5552C55.5465 27.1397 56.1223 26.7761 56.6981 26.5164Z" fill="url(#paint32_linear)"/>
<path d="M34.8176 81.4195C34.9746 81.3676 35.1317 81.4195 35.184 81.5753C35.2364 81.7311 35.184 81.887 35.027 81.9389C34.0324 82.3545 32.9855 82.7181 32.2003 82.9778C32.148 82.9778 32.0957 82.9778 32.0433 82.9778C31.9386 82.9778 31.8863 82.8739 31.8339 82.77C31.7816 82.6142 31.8863 82.4583 32.0433 82.4064C32.8285 82.1467 33.823 81.7831 34.8176 81.4195Z" fill="url(#paint33_linear)"/>
<path d="M30.316 82.9778C30.473 82.9258 30.6301 83.0297 30.6824 83.1855C30.7348 83.3414 30.6301 83.4972 30.473 83.5491C29.6355 83.8608 28.641 84.1725 27.6464 84.5361C27.5941 84.5361 27.5417 84.5361 27.437 84.5361C27.3323 84.5361 27.28 84.4322 27.2276 84.3802C27.1753 84.2244 27.2276 84.0686 27.3847 84.0166C28.4839 83.6011 29.4785 83.2894 30.316 82.9778Z" fill="url(#paint34_linear)"/>
<defs>
<linearGradient id="paint0_linear" x1="4.78499" y1="33.1153" x2="38.1365" y2="33.1153" gradientUnits="userSpaceOnUse">
<stop stop-color="#E0F0EB"/>
<stop offset="1" stop-color="#C0E4EF"/>
</linearGradient>
<linearGradient id="paint1_linear" x1="155.133" y1="86.814" x2="188.484" y2="86.814" gradientUnits="userSpaceOnUse">
<stop stop-color="#E0F0EB"/>
<stop offset="1" stop-color="#C0E4EF"/>
</linearGradient>
<linearGradient id="paint2_linear" x1="193.708" y1="26.0823" x2="177.965" y2="28.9503" gradientUnits="userSpaceOnUse">
<stop stop-color="#E0F0EB"/>
<stop offset="1" stop-color="#C0E4EF"/>
</linearGradient>
<linearGradient id="paint3_linear" x1="188.444" y1="29.7019" x2="178.434" y2="31.5256" gradientUnits="userSpaceOnUse">
<stop offset="0.2353" stop-color="#E0F0EB"/>
<stop offset="0.4895" stop-color="#DAEEEB"/>
<stop offset="0.8469" stop-color="#CAE7EE"/>
<stop offset="1" stop-color="#C0E4EF"/>
</linearGradient>
<linearGradient id="paint4_linear" x1="188.699" y1="36.9438" x2="190.302" y2="36.9438" gradientUnits="userSpaceOnUse">
<stop stop-color="#E0F0EB"/>
<stop offset="1" stop-color="#C0E4EF"/>
</linearGradient>
<linearGradient id="paint5_linear" x1="173.217" y1="54.3321" x2="191.766" y2="54.3321" gradientUnits="userSpaceOnUse">
<stop stop-color="#E0F0EB"/>
<stop offset="1" stop-color="#C0E4EF"/>
</linearGradient>
<linearGradient id="paint6_linear" x1="171.809" y1="69.5126" x2="174.016" y2="69.5126" gradientUnits="userSpaceOnUse">
<stop stop-color="#E0F0EB"/>
<stop offset="1" stop-color="#C0E4EF"/>
</linearGradient>
<linearGradient id="paint7_linear" x1="141.004" y1="7.48078" x2="158.459" y2="7.48078" gradientUnits="userSpaceOnUse">
<stop offset="0.2157" stop-color="#E0F0EB"/>
<stop offset="0.7647" stop-color="#C0E4EF"/>
</linearGradient>
<linearGradient id="paint8_linear" x1="94.4748" y1="16.0385" x2="73.8072" y2="21.5082" gradientUnits="userSpaceOnUse">
<stop stop-color="#E0F0EB"/>
<stop offset="1" stop-color="#C0E4EF"/>
</linearGradient>
<linearGradient id="paint9_linear" x1="94.7231" y1="17.5088" x2="70.3717" y2="23.9535" gradientUnits="userSpaceOnUse">
<stop offset="0.2157" stop-color="#E0F0EB"/>
<stop offset="0.7647" stop-color="#C0E4EF"/>
</linearGradient>
<linearGradient id="paint10_linear" x1="40.4145" y1="77.608" x2="43.2195" y2="77.608" gradientUnits="userSpaceOnUse">
<stop stop-color="#E0F0EB"/>
<stop offset="1" stop-color="#C0E4EF"/>
</linearGradient>
<linearGradient id="paint11_linear" x1="63.7303" y1="23.9698" x2="67.2608" y2="23.9698" gradientUnits="userSpaceOnUse">
<stop stop-color="#E0F0EB"/>
<stop offset="1" stop-color="#C0E4EF"/>
</linearGradient>
<linearGradient id="paint12_linear" x1="59.1482" y1="25.1608" x2="62.5884" y2="25.1608" gradientUnits="userSpaceOnUse">
<stop stop-color="#E0F0EB"/>
<stop offset="1" stop-color="#C0E4EF"/>
</linearGradient>
<linearGradient id="paint13_linear" x1="43.7499" y1="73.9488" x2="45.867" y2="73.9488" gradientUnits="userSpaceOnUse">
<stop stop-color="#E0F0EB"/>
<stop offset="1" stop-color="#C0E4EF"/>
</linearGradient>
<linearGradient id="paint14_linear" x1="45.9477" y1="69.5865" x2="47.2536" y2="69.5865" gradientUnits="userSpaceOnUse">
<stop stop-color="#E0F0EB"/>
<stop offset="1" stop-color="#C0E4EF"/>
</linearGradient>
<linearGradient id="paint15_linear" x1="46.6924" y1="64.8938" x2="47.4234" y2="64.8938" gradientUnits="userSpaceOnUse">
<stop stop-color="#E0F0EB"/>
<stop offset="1" stop-color="#C0E4EF"/>
</linearGradient>
<linearGradient id="paint16_linear" x1="44.2891" y1="41.523" x2="45.6821" y2="41.523" gradientUnits="userSpaceOnUse">
<stop stop-color="#E0F0EB"/>
<stop offset="1" stop-color="#C0E4EF"/>
</linearGradient>
<linearGradient id="paint17_linear" x1="43.8154" y1="46.1908" x2="44.5901" y2="46.1908" gradientUnits="userSpaceOnUse">
<stop stop-color="#E0F0EB"/>
<stop offset="1" stop-color="#C0E4EF"/>
</linearGradient>
<linearGradient id="paint18_linear" x1="45.7315" y1="37.1121" x2="47.6778" y2="37.1121" gradientUnits="userSpaceOnUse">
<stop stop-color="#E0F0EB"/>
<stop offset="1" stop-color="#C0E4EF"/>
</linearGradient>
<linearGradient id="paint19_linear" x1="51.1163" y1="29.6927" x2="53.9855" y2="29.6927" gradientUnits="userSpaceOnUse">
<stop stop-color="#E0F0EB"/>
<stop offset="1" stop-color="#C0E4EF"/>
</linearGradient>
<linearGradient id="paint20_linear" x1="44.7136" y1="55.5691" x2="46.0121" y2="55.5691" gradientUnits="userSpaceOnUse">
<stop stop-color="#E0F0EB"/>
<stop offset="1" stop-color="#C0E4EF"/>
</linearGradient>
<linearGradient id="paint21_linear" x1="48.0404" y1="33.1153" x2="50.4772" y2="33.1153" gradientUnits="userSpaceOnUse">
<stop stop-color="#E0F0EB"/>
<stop offset="1" stop-color="#C0E4EF"/>
</linearGradient>
<linearGradient id="paint22_linear" x1="9.61348" y1="98.4802" x2="12.0775" y2="98.4802" gradientUnits="userSpaceOnUse">
<stop stop-color="#E0F0EB"/>
<stop offset="1" stop-color="#C0E4EF"/>
</linearGradient>
<linearGradient id="paint23_linear" x1="12.599" y1="94.7778" x2="15.0839" y2="94.7778" gradientUnits="userSpaceOnUse">
<stop stop-color="#E0F0EB"/>
<stop offset="1" stop-color="#C0E4EF"/>
</linearGradient>
<linearGradient id="paint24_linear" x1="15.6536" y1="91.195" x2="18.3066" y2="91.195" gradientUnits="userSpaceOnUse">
<stop stop-color="#E0F0EB"/>
<stop offset="1" stop-color="#C0E4EF"/>
</linearGradient>
<linearGradient id="paint25_linear" x1="6.6283" y1="102.191" x2="9.09235" y2="102.191" gradientUnits="userSpaceOnUse">
<stop stop-color="#E0F0EB"/>
<stop offset="1" stop-color="#C0E4EF"/>
</linearGradient>
<linearGradient id="paint26_linear" x1="45.8356" y1="60.1967" x2="47.0392" y2="60.1967" gradientUnits="userSpaceOnUse">
<stop stop-color="#E0F0EB"/>
<stop offset="1" stop-color="#C0E4EF"/>
</linearGradient>
<linearGradient id="paint27_linear" x1="19.0277" y1="88.0111" x2="22.0004" y2="88.0111" gradientUnits="userSpaceOnUse">
<stop stop-color="#E0F0EB"/>
<stop offset="1" stop-color="#C0E4EF"/>
</linearGradient>
<linearGradient id="paint28_linear" x1="3.66369" y1="105.889" x2="6.10642" y2="105.889" gradientUnits="userSpaceOnUse">
<stop stop-color="#E0F0EB"/>
<stop offset="1" stop-color="#C0E4EF"/>
</linearGradient>
<linearGradient id="paint29_linear" x1="36.286" y1="80.2953" x2="39.5298" y2="80.2953" gradientUnits="userSpaceOnUse">
<stop stop-color="#E0F0EB"/>
<stop offset="1" stop-color="#C0E4EF"/>
</linearGradient>
<linearGradient id="paint30_linear" x1="43.9115" y1="50.9166" x2="44.9417" y2="50.9166" gradientUnits="userSpaceOnUse">
<stop stop-color="#E0F0EB"/>
<stop offset="1" stop-color="#C0E4EF"/>
</linearGradient>
<linearGradient id="paint31_linear" x1="22.9378" y1="85.5518" x2="26.2336" y2="85.5518" gradientUnits="userSpaceOnUse">
<stop stop-color="#E0F0EB"/>
<stop offset="1" stop-color="#C0E4EF"/>
</linearGradient>
<linearGradient id="paint32_linear" x1="54.8645" y1="27.0141" x2="58.0923" y2="27.0141" gradientUnits="userSpaceOnUse">
<stop stop-color="#E0F0EB"/>
<stop offset="1" stop-color="#C0E4EF"/>
</linearGradient>
<linearGradient id="paint33_linear" x1="31.8246" y1="82.1865" x2="35.2316" y2="82.1865" gradientUnits="userSpaceOnUse">
<stop stop-color="#E0F0EB"/>
<stop offset="1" stop-color="#C0E4EF"/>
</linearGradient>
<linearGradient id="paint34_linear" x1="27.3045" y1="83.7653" x2="30.7238" y2="83.7653" gradientUnits="userSpaceOnUse">
<stop stop-color="#E0F0EB"/>
<stop offset="1" stop-color="#C0E4EF"/>
</linearGradient>
</defs>
</svg>
