<svg width="145" height="26" viewBox="0 0 145 26" fill="none" xmlns="http://www.w3.org/2000/svg">
<path d="M1 12.4999C11.8598 22.6873 25.7144 28.184 52.5234 12.4999C85 -6.49995 94.8224 1.31251 110 11.4999" stroke="#FF7B7C" stroke-dasharray="5 5"/>
<path d="M142.691 23.4212L130.903 14.1318L124.523 11.7001L119.368 11.6004L142.691 23.4212Z" fill="url(#paint0_linear)"/>
<path d="M142.691 23.4212L119.438 13.173L119.367 11.6005" fill="#FF7B7C"/>
<path d="M118.058 17.2002L118.096 17.2539L118.485 21.1968L142.645 23.4135L118.058 17.2002Z" fill="#FF7B7C"/>
<path d="M113.808 14.2239L117.737 11.9917L142.56 23.3522L120.275 18.9876L113.808 14.2239Z" fill="url(#paint1_linear)"/>
<defs>
<linearGradient id="paint0_linear" x1="118.806" y1="15.0967" x2="143.409" y2="19.1843" gradientUnits="userSpaceOnUse">
<stop offset="6.3e-07" stop-color="#FAF4F3"/>
<stop offset="1" stop-color="#FF7B7C"/>
</linearGradient>
<linearGradient id="paint1_linear" x1="113.669" y1="14.9321" x2="143.139" y2="19.8283" gradientUnits="userSpaceOnUse">
<stop offset="6.3e-07" stop-color="#FAF4F3"/>
<stop offset="1" stop-color="#FF7B7C"/>
</linearGradient>
</defs>
</svg>
