<svg width="212" height="240" viewBox="0 0 212 240" fill="none" xmlns="http://www.w3.org/2000/svg">
<path d="M117.727 164.716C117.727 164.716 134.322 112.884 103.675 87.3923C43.7928 120.793 76.7702 179.616 76.7702 179.616L117.727 164.716Z" fill="#B0D9C8"/>
<path d="M103.674 87.3923C103.462 87.5335 103.25 87.6041 103.038 87.7454L99.3664 151.723L70.8378 123.83C70.6965 124.254 70.5553 124.677 70.4141 125.101L99.2958 153.347L98.2366 171.848L99.437 171.425L101.555 134.634L121.54 122.912C121.469 122.488 121.398 122.064 121.398 121.641L101.697 133.222L104.309 88.0278C104.027 87.7454 103.886 87.5335 103.674 87.3923Z" fill="white"/>
<path d="M111.604 173.032C111.604 173.032 92.1847 122.33 54.3348 117.387C26.936 154.248 63.3736 191.039 63.3736 191.039L107.155 209.399L111.604 173.032Z" fill="#212B53"/>
<path d="M90.7719 138.995L79.8971 160.462L55.3229 117.528C55.0405 117.457 54.758 117.457 54.4049 117.387C54.2637 117.528 54.1931 117.669 54.1225 117.81L67.3276 140.831L45.4368 136.382C45.3661 136.594 45.3661 136.806 45.2955 137.018L45.1543 137.583L68.1043 142.243L90.0657 180.588L51.3685 173.95C51.5803 174.373 51.8628 174.868 52.0746 175.291L90.8425 181.929L106.449 209.116L107.155 209.399L107.296 208.198L80.6033 161.733L91.6193 140.054C91.4074 139.701 91.125 139.348 90.7719 138.995Z" fill="white"/>
<path d="M90.6102 175.379C90.6102 175.379 52.9016 150.24 28.0449 167.753C31.6463 229.753 110.736 229.541 110.736 229.541L90.6102 175.379Z" fill="#6680A1"/>
<path d="M28.0459 167.753C28.0459 167.964 28.0459 168.247 28.1165 168.459L81.643 198.47L50.6428 210.969C50.9959 211.252 51.4196 211.534 51.7727 211.817L82.9141 199.177L103.816 210.899L103.181 209.133L62.5062 186.324L55.5153 161.962C55.0916 161.892 54.6679 161.892 54.2442 161.821L61.0233 185.548L28.6108 167.329C28.399 167.47 28.2577 167.611 28.0459 167.753Z" fill="#212B53"/>
<path d="M122.319 162.174C122.319 162.174 105.724 110.342 136.371 84.8501C196.253 118.251 163.276 177.074 163.276 177.074L122.319 162.174Z" fill="#B0D9C8"/>
<path d="M136.37 84.8501C136.582 84.9913 136.794 85.0619 137.006 85.2031L140.678 149.181L169.277 121.288C169.418 121.711 169.56 122.135 169.701 122.559L140.819 150.805L141.878 169.306L140.678 168.882L138.559 132.092L118.575 120.37C118.646 119.946 118.716 119.522 118.716 119.099L138.418 130.68L135.805 85.4856C136.017 85.2031 136.229 84.9913 136.37 84.8501Z" fill="white"/>
<path d="M136.513 150.311C136.513 150.311 155.932 99.6088 193.782 94.6657C221.181 131.456 184.814 168.318 184.814 168.318L141.032 186.678L136.513 150.311Z" fill="#ACC1D6"/>
<path d="M157.344 116.274L168.219 137.741L192.793 94.8069C193.075 94.7363 193.358 94.7363 193.711 94.6657C193.852 94.8069 193.923 94.9481 193.993 95.0894L180.788 118.11L202.679 113.661C202.75 113.873 202.75 114.085 202.82 114.297L202.962 114.862L180.012 119.522L158.05 157.867L196.747 151.229C196.536 151.652 196.253 152.147 196.041 152.57L157.273 159.208L141.738 186.395L141.032 186.678L140.891 185.477L167.583 138.942L156.567 117.263C156.779 116.98 157.062 116.627 157.344 116.274Z" fill="white"/>
<path d="M149.434 172.837C149.434 172.837 187.143 147.698 211.999 165.211C208.398 227.211 129.309 226.999 129.309 226.999L149.434 172.837Z" fill="#212B53"/>
<path d="M212 165.211C212 165.422 212 165.705 211.93 165.917L158.403 195.928L189.333 208.498C188.98 208.78 188.556 209.063 188.203 209.345L157.061 196.705L136.159 208.427L136.795 206.662L177.469 183.853L184.46 159.491C184.884 159.42 185.308 159.42 185.731 159.349L178.952 183.076L211.365 164.928C211.647 164.928 211.859 165.069 212 165.211Z" fill="#6680A1"/>
<path d="M149.999 39.7269C159.674 39.7269 167.583 47.2121 167.583 56.4627V213.017C167.583 222.268 159.744 229.753 149.999 229.753H88.0696C78.3953 229.753 70.4863 222.268 70.4863 213.017V56.5334C70.4863 47.2827 78.3246 39.7975 88.0696 39.7975H149.999V39.7269Z" fill="#475B73"/>
<path d="M152.046 42.7633C161.226 42.7633 164.969 49.8248 164.969 58.5812V210.969C164.969 219.726 161.226 226.787 152.046 226.787H87.292C78.112 226.787 73.1689 220.785 73.1689 212.029V57.3807C73.1689 48.6244 78.112 42.6221 87.292 42.6221H152.046V42.7633Z" fill="white"/>
<path d="M162.356 54.4149V215.136C162.356 220.079 158.401 224.033 153.529 224.033H85.032C80.1595 224.033 76.2051 220.008 76.2051 215.136V54.4149C76.2051 49.4718 80.1595 45.5173 85.032 45.5173H153.529C158.401 45.5173 162.356 49.4718 162.356 54.4149Z" fill="#6680A1"/>
<path d="M137.712 49.6836H103.11C101.909 49.6836 100.921 48.695 100.921 47.4945V46.0116C100.921 44.8112 101.909 43.8225 103.11 43.8225H137.712C138.912 43.8225 139.901 44.8112 139.901 46.0116V47.4945C139.901 48.695 138.912 49.6836 137.712 49.6836Z" fill="white"/>
<path d="M120.411 148.263C133.787 148.263 144.632 137.419 144.632 124.042C144.632 110.665 133.787 99.8206 120.411 99.8206C107.034 99.8206 96.1895 110.665 96.1895 124.042C96.1895 137.419 107.034 148.263 120.411 148.263Z" fill="#FF5C5D"/>
<path d="M120.41 149.251C106.499 149.251 95.2002 137.953 95.2002 124.042C95.2002 110.131 106.499 98.832 120.41 98.832C134.321 98.832 145.62 110.131 145.62 124.042C145.62 137.953 134.321 149.251 120.41 149.251ZM120.41 100.809C107.558 100.809 97.1774 111.26 97.1774 124.042C97.1774 136.894 107.629 147.274 120.41 147.274C133.262 147.274 143.642 136.823 143.642 124.042C143.642 111.19 133.262 100.809 120.41 100.809Z" fill="#F04637"/>
<path d="M87.7861 59.5699C96.1188 63.948 90.4695 84.2853 80.654 101.657C70.7678 119.028 59.6105 128.702 54.8087 126.231C50.0068 123.759 56.3622 105.399 66.2484 88.0279C76.064 70.6565 83.0549 57.0983 87.7861 59.5699Z" fill="#F04637"/>
<path d="M52.0543 122.559C55.9381 126.937 66.9541 116.627 76.6285 99.5382C86.3028 82.5199 91.034 65.1485 87.1502 60.7703C83.2663 56.3922 72.2503 66.702 62.576 83.791C52.831 100.88 48.1704 118.251 52.0543 122.559Z" fill="#FF5C5D"/>
<path d="M76.9127 99.8913C66.8853 117.616 55.375 128.349 51.3499 123.83C47.3248 119.311 52.1973 101.233 62.2953 83.5085C72.3933 65.784 83.833 55.0505 87.8581 59.5699C91.8126 64.0892 86.9401 82.1668 76.9127 99.8913ZM62.7896 84.144C53.4684 100.527 48.949 117.192 52.6916 121.358C56.4342 125.525 67.0265 115.639 76.2772 99.2558C85.5984 82.873 90.1178 66.2077 86.3752 62.0414C82.7032 57.8751 72.1109 67.7613 62.7896 84.144Z" fill="#F04637"/>
<path d="M87.5039 59.2168L91.1053 64.1599L88.4219 71.5745L87.5039 59.2168Z" fill="#F04637"/>
<path d="M50.9971 123.477L54.8103 126.301L59.824 121.923L50.9971 123.477Z" fill="#F04637"/>
<path d="M54.8857 7.49647L50.222 10.8021L55.6326 12.1828L74.7188 15.5806L54.8857 7.49647Z" fill="#B0D9C8"/>
<path d="M50.2215 10.8021L58.6594 14.4733L57.1758 12.4284L50.2215 10.8021Z" fill="#63C1C5"/>
<path d="M54.8837 7.49593L55.7231 2.36102L74.7167 15.58L54.8837 7.49593Z" fill="url(#paint0_linear)"/>
<path d="M74.7188 15.5806L55.6326 12.1828L54.7857 19.7811L74.7188 15.5806Z" fill="url(#paint1_linear)"/>
<path d="M49.6904 16.2576C49.6278 16.2251 49.6603 16.1624 49.5977 16.1298C49.5701 15.8767 49.6679 15.6888 49.9536 15.5986C50.6828 15.4206 51.4421 15.3379 52.2015 15.2552C52.4546 15.2276 52.6726 15.4206 52.6375 15.6411C52.6651 15.8942 52.4721 16.1122 52.2516 16.0772C51.5875 16.1298 50.8908 16.2451 50.1941 16.3604C50.0037 16.4205 49.7831 16.3855 49.6904 16.2576Z" fill="#63C1C5"/>
<path d="M33.8813 61.2038C34.1044 61.081 34.172 60.7978 34.0166 60.6374C33.34 59.4896 32.7611 58.1539 32.4678 56.728C32.4403 56.4749 32.1897 56.3446 31.9366 56.3721C31.6834 56.3997 31.5531 56.6503 31.5807 56.9034C31.904 58.4246 32.4504 59.823 33.2198 61.0985C33.4378 61.2915 33.721 61.3591 33.8813 61.2038ZM31.711 54.663C31.9641 54.6354 32.1245 54.4801 32.0969 54.227C32.0242 52.8361 32.2046 51.4177 32.5429 50.0017C32.5779 49.7812 32.4551 49.5582 32.2346 49.5231C32.0141 49.488 31.7911 49.6108 31.756 49.8314C31.3851 51.3099 31.2674 52.7609 31.2749 54.2771C31.305 54.3723 31.335 54.4676 31.3977 54.5001C31.4278 54.5954 31.6157 54.6931 31.711 54.663ZM32.7985 47.8265C32.9864 47.9242 33.2721 47.834 33.4024 47.5834L33.5001 47.3954C34.0564 46.1725 34.7381 45.0147 35.545 43.922C35.7054 43.7666 35.6151 43.4809 35.4598 43.3206C35.3044 43.1602 35.0187 43.2504 34.8583 43.4058C34.0188 44.5611 33.272 45.8442 32.7157 47.0672L32.618 47.2551C32.5528 47.3804 32.5504 47.5383 32.6431 47.6661C32.7057 47.6987 32.7358 47.7939 32.7985 47.8265ZM36.5875 41.9171C36.7428 42.0775 37.0586 42.0825 37.1563 41.8946C38.056 40.9297 39.1461 39.9047 40.2989 38.9123C40.4592 38.7569 40.5269 38.4738 40.3715 38.3134C40.2161 38.153 39.933 38.0853 39.7726 38.2407C38.5572 39.2006 37.5297 40.2581 36.5975 41.2856C36.4371 41.441 36.4647 41.6941 36.5574 41.8219C36.5248 41.8846 36.5248 41.8846 36.5875 41.9171ZM41.7147 37.2608C41.8701 37.4212 42.1533 37.4888 42.3137 37.3335C42.4415 37.2407 42.5367 37.2107 42.6019 37.0854C42.8801 37.4688 43.2535 37.8221 43.6269 38.1755C43.7823 38.3359 44.098 38.3409 44.2584 38.1855C44.4188 38.0301 44.4238 37.7143 44.2684 37.554C43.9577 37.2332 43.6469 36.9124 43.3988 36.6242C44.1656 36.0679 45.0277 35.4814 45.9524 34.9276C46.1755 34.8048 46.2431 34.5216 46.0877 34.3612C45.9649 34.1382 45.6817 34.0705 45.5214 34.2259C44.5641 34.8424 43.702 35.4288 42.8399 36.0153C42.4064 35.4715 42.068 34.8976 41.7297 34.3237C41.6069 34.1007 41.3237 34.033 41.1633 34.1884C40.9403 34.3112 40.8727 34.5944 41.028 34.7548C41.3338 35.3913 41.7348 35.9978 42.231 36.5741C42.1358 36.6042 42.0706 36.7295 41.9754 36.7596C41.627 36.8172 41.5919 37.0378 41.7147 37.2608ZM40.4015 32.4392C40.5919 32.379 40.7222 32.1284 40.6947 31.8753C40.424 31.0183 40.3112 30.1637 40.2611 29.3417C40.2059 28.8355 40.246 28.2992 40.2861 27.7629C40.3212 27.5424 40.1357 27.2868 39.8826 27.3143C39.6621 27.2793 39.4065 27.4647 39.4341 27.7178C39.3614 28.3168 39.3839 28.8856 39.4065 29.4545C39.4867 30.3717 39.6296 31.3215 39.9003 32.1786C39.9003 32.1786 39.9303 32.2738 39.993 32.3064C39.9905 32.4642 40.211 32.4993 40.4015 32.4392ZM45.7796 39.852C47.0928 40.694 48.4736 41.2528 49.8896 41.5911C50.1101 41.6261 50.3331 41.5034 50.3682 41.2828C50.4033 41.0623 50.2805 40.8393 50.06 40.8042C48.7067 40.4985 47.4211 39.9096 46.2006 39.1954C46.0127 39.0976 45.7596 39.1252 45.5666 39.3432C45.4689 39.5312 45.4664 39.6891 45.5591 39.8169C45.6543 39.7868 45.717 39.8194 45.7796 39.852ZM40.2259 25.5826C40.4464 25.6177 40.7321 25.5275 40.7672 25.307C41.1982 24.0188 41.7871 22.7332 42.6592 21.5153C42.8196 21.3599 42.7294 21.0742 42.574 20.9138C42.4186 20.7534 42.1329 20.8437 41.9725 20.999C41.0679 22.2797 40.3837 23.5953 39.9828 24.9787C39.9176 25.104 39.9778 25.2944 40.0404 25.327C40.0379 25.4849 40.1006 25.5175 40.2259 25.5826ZM52.6011 41.8867C53.0121 41.8617 53.3905 41.8992 53.7389 41.8416C54.8465 41.7012 55.9567 41.403 57.0067 40.9143C57.2298 40.7915 57.2974 40.5083 57.2373 40.3178C57.1145 40.0948 56.8313 40.0271 56.6408 40.0873C55.7487 40.5785 54.7337 40.8467 53.7213 40.957C53.373 41.0146 52.9946 40.977 52.6462 41.0347C52.3931 41.0623 52.2327 41.2176 52.1977 41.4382C52.2277 41.5334 52.2578 41.6286 52.2879 41.7239C52.3179 41.8191 52.4433 41.8842 52.6011 41.8867ZM48.1527 33.6043C49.6187 32.7748 50.8592 32.226 52.0646 31.8976C52.3177 31.8701 52.448 31.6195 52.3578 31.3338C52.2977 31.1433 52.0796 30.9503 51.7939 31.0406C50.5885 31.3689 49.2528 31.9478 47.6916 32.8074C47.4685 32.9302 47.4009 33.2134 47.5563 33.3738C47.5563 33.3738 47.5563 33.3738 47.6189 33.4064C47.6791 33.5968 47.9623 33.6645 48.1527 33.6043ZM43.6992 19.6683C43.8545 19.8287 44.1703 19.8337 44.3307 19.6783C44.8118 19.2122 45.3231 18.8413 45.8343 18.4704C46.4733 18.0067 47.1424 17.6383 47.8115 17.2699C48.0346 17.1471 48.1022 16.8639 48.0421 16.6735C47.9193 16.4504 47.6687 16.3201 47.4456 16.4429C46.7139 16.7787 46.0122 17.2098 45.3731 17.6734C44.8293 18.107 44.2856 18.5406 43.8044 19.0067C43.5488 19.1921 43.5137 19.4127 43.6992 19.6683C43.6691 19.5731 43.7317 19.6056 43.6992 19.6683ZM58.6431 39.2978C58.7985 39.4582 59.1143 39.4632 59.212 39.2753C60.0164 38.3405 60.5076 37.2429 60.495 36.0425C60.47 35.6315 60.4449 35.2205 60.3246 34.8396C60.2645 34.6491 60.0139 34.5188 59.7608 34.5464C59.5703 34.6065 59.44 34.8571 59.4676 35.1102C59.5578 35.3959 59.6154 35.7443 59.5778 36.1227C59.5628 37.07 59.2646 37.9496 58.5253 38.759C58.365 38.9144 58.3926 39.1676 58.4853 39.2954C58.5805 39.2653 58.5805 39.2653 58.6431 39.2978ZM54.4704 31.5568C55.7961 31.6094 57.177 32.1682 58.1418 33.0678C58.2972 33.2282 58.6129 33.2332 58.7107 33.0453C58.8711 32.8899 58.8761 32.5741 58.6881 32.4764C57.5353 31.479 55.9665 30.8224 54.4829 30.7673C54.2624 30.7323 54.0694 30.9503 54.0344 31.1708C54.0644 31.2661 54.0945 31.3613 54.1246 31.4565C54.2499 31.5217 54.3752 31.5868 54.4704 31.5568Z" fill="#63C1C5"/>
<path d="M35.0207 63.1487C34.8653 62.9883 34.9004 62.7677 35.0607 62.6124C35.2211 62.457 35.4742 62.4294 35.6923 62.6224C36.1584 63.1035 36.7524 63.492 37.3463 63.8804C37.5343 63.9781 37.6245 64.2638 37.5267 64.4517C37.429 64.6397 37.1433 64.7299 36.9554 64.6322C36.2988 64.2112 35.7048 63.8228 35.176 63.309C34.9881 63.2113 34.9881 63.2113 35.0207 63.1487Z" fill="#63C1C5"/>
<path d="M101.345 166.482V180.817H97.744V173.12C97.744 171.99 97.744 171.354 97.6734 171.142C97.6028 170.93 97.4615 170.719 97.2497 170.648C97.0378 170.507 96.4729 170.507 95.6255 170.507H95.2725V168.812C97.0378 168.459 98.3089 167.682 99.2269 166.482H101.345Z" fill="white"/>
<path d="M111.231 171.354V176.156C111.231 177.215 111.161 178.063 111.02 178.557C110.878 179.051 110.666 179.545 110.313 179.969C109.96 180.393 109.466 180.675 108.972 180.887C108.477 181.099 107.842 181.17 107.206 181.17C106.359 181.17 105.653 181.099 105.088 180.887C104.523 180.675 104.099 180.393 103.746 179.969C103.393 179.545 103.181 179.122 103.04 178.627C102.899 178.133 102.828 177.427 102.828 176.438V171.425C102.828 170.083 102.969 169.094 103.181 168.459C103.393 167.823 103.887 167.258 104.523 166.905C105.229 166.482 106.006 166.34 106.994 166.34C107.771 166.34 108.477 166.482 109.113 166.764C109.748 167.046 110.172 167.4 110.525 167.753C110.808 168.176 111.02 168.6 111.161 169.094C111.161 169.518 111.231 170.295 111.231 171.354ZM107.63 170.154C107.63 169.377 107.559 168.882 107.489 168.741C107.418 168.529 107.277 168.459 106.994 168.459C106.712 168.459 106.571 168.529 106.5 168.741C106.43 168.953 106.359 169.447 106.359 170.154V177.145C106.359 177.992 106.43 178.486 106.5 178.627C106.571 178.769 106.783 178.91 106.994 178.91C107.277 178.91 107.418 178.839 107.489 178.627C107.559 178.416 107.63 177.992 107.63 177.286V170.154Z" fill="white"/>
<path d="M120.905 171.354V176.156C120.905 177.215 120.835 178.063 120.693 178.557C120.552 179.051 120.34 179.545 119.987 179.969C119.634 180.393 119.14 180.675 118.645 180.887C118.151 181.099 117.516 181.17 116.88 181.17C116.033 181.17 115.327 181.099 114.762 180.887C114.197 180.675 113.773 180.393 113.42 179.969C113.067 179.545 112.855 179.122 112.714 178.627C112.573 178.133 112.502 177.427 112.502 176.438V171.425C112.502 170.083 112.643 169.094 112.855 168.459C113.067 167.823 113.561 167.258 114.197 166.905C114.903 166.482 115.68 166.34 116.668 166.34C117.445 166.34 118.151 166.482 118.787 166.764C119.422 167.046 119.846 167.4 120.199 167.753C120.481 168.176 120.693 168.6 120.835 169.094C120.835 169.518 120.905 170.295 120.905 171.354ZM117.374 170.154C117.374 169.377 117.304 168.882 117.233 168.741C117.163 168.529 117.021 168.459 116.739 168.459C116.456 168.459 116.315 168.529 116.245 168.741C116.174 168.953 116.103 169.447 116.103 170.154V177.145C116.103 177.992 116.174 178.486 116.245 178.627C116.315 178.769 116.527 178.91 116.739 178.91C117.021 178.91 117.163 178.839 117.233 178.627C117.304 178.416 117.374 177.992 117.374 177.286V170.154Z" fill="white"/>
<path d="M124.578 177.921V180.816H121.895V177.921H124.578Z" fill="white"/>
<path d="M133.971 171.354V176.156C133.971 177.215 133.9 178.063 133.759 178.557C133.618 179.051 133.406 179.545 133.053 179.969C132.7 180.393 132.205 180.675 131.711 180.887C131.217 181.099 130.581 181.17 129.946 181.17C129.098 181.17 128.392 181.099 127.827 180.887C127.262 180.675 126.838 180.393 126.485 179.969C126.132 179.545 125.92 179.122 125.779 178.627C125.638 178.133 125.567 177.427 125.567 176.438V171.425C125.567 170.083 125.709 169.094 125.92 168.459C126.132 167.823 126.627 167.258 127.262 166.905C127.968 166.482 128.745 166.34 129.734 166.34C130.51 166.34 131.217 166.482 131.852 166.764C132.488 167.046 132.911 167.4 133.264 167.753C133.547 168.176 133.759 168.6 133.9 169.094C133.971 169.518 133.971 170.295 133.971 171.354ZM130.44 170.154C130.44 169.377 130.369 168.882 130.299 168.741C130.228 168.529 130.087 168.459 129.804 168.459C129.522 168.459 129.381 168.529 129.31 168.741C129.239 168.953 129.169 169.447 129.169 170.154V177.145C129.169 177.992 129.239 178.486 129.31 178.627C129.381 178.769 129.592 178.91 129.804 178.91C130.016 178.91 130.228 178.839 130.299 178.627C130.369 178.416 130.44 177.992 130.44 177.286V170.154Z" fill="white"/>
<path d="M143.713 171.354V176.156C143.713 177.215 143.642 178.063 143.501 178.557C143.36 179.051 143.148 179.545 142.795 179.969C142.442 180.393 141.947 180.675 141.453 180.887C140.959 181.099 140.323 181.17 139.688 181.17C138.84 181.17 138.134 181.099 137.569 180.887C137.004 180.675 136.581 180.393 136.228 179.969C135.875 179.545 135.663 179.122 135.521 178.627C135.38 178.133 135.31 177.427 135.31 176.438V171.425C135.31 170.083 135.451 169.094 135.663 168.459C135.874 167.823 136.369 167.258 137.004 166.905C137.71 166.482 138.487 166.34 139.476 166.34C140.253 166.34 140.959 166.482 141.594 166.764C142.23 167.046 142.654 167.4 143.007 167.753C143.289 168.176 143.501 168.6 143.642 169.094C143.642 169.518 143.713 170.295 143.713 171.354ZM140.182 170.154C140.182 169.377 140.111 168.882 140.041 168.741C139.97 168.529 139.829 168.459 139.546 168.459C139.264 168.459 139.123 168.529 139.052 168.741C138.982 168.953 138.911 169.447 138.911 170.154V177.145C138.911 177.992 138.982 178.486 139.052 178.627C139.123 178.769 139.335 178.91 139.546 178.91C139.829 178.91 139.97 178.839 140.041 178.627C140.111 178.416 140.182 177.992 140.182 177.286V170.154Z" fill="white"/>
<path d="M174.715 147.486C174.715 147.486 181.141 159.773 180.647 162.527C180.223 165.211 174.715 169.942 174.715 169.942L173.797 168.388L176.622 162.104L173.021 151.723L174.715 147.486Z" fill="#F8B68F"/>
<path d="M167.865 142.19L168.43 145.721H171.537L171.89 140.354L167.865 142.19Z" fill="#F4A086"/>
<path d="M162.144 157.796V147.839C166.169 145.014 168.993 145.297 168.993 145.297C169.699 145.226 169.841 145.226 170.759 145.226C170.759 145.226 177.467 144.732 176.267 155.324C173.583 164.363 174.854 168.318 174.854 168.318C174.854 168.318 167.863 171.142 163.909 169.165C164.968 166.976 163.132 160.762 162.144 157.796C162.144 157.725 162.144 157.796 162.144 157.796Z" fill="#CBE8ED"/>
<path d="M172.595 144.167C172.595 144.167 175.279 145.721 175.279 148.192C175.279 149.746 174.643 150.664 174.008 151.723C172.878 153.488 172.878 155.819 174.149 157.513L174.219 157.584C174.714 158.22 174.784 158.855 174.643 159.42C174.149 161.75 170.9 162.103 169.7 160.056C169.276 159.279 168.782 158.431 168.5 157.372C167.935 155.607 168.5 154.548 169.135 153.912C169.7 153.347 169.771 152.429 169.206 151.864C168.217 150.805 167.228 149.251 168.429 147.91C170.547 145.65 171.112 143.461 171.112 143.461L172.595 144.167Z" fill="#212B53"/>
<path d="M178.527 223.468L176.62 223.821C176.267 221.491 170.406 210.475 169.912 204.755C169.418 198.4 167.935 191.338 167.935 191.338L174.219 189.502C174.219 189.502 175.844 189.502 174.078 202.496C178.033 207.509 179.021 219.231 178.527 223.468Z" fill="#F4A086"/>
<path d="M164.97 133.928L170.76 133.645L171.819 137.6C171.819 137.67 171.819 137.741 171.819 137.741C171.749 137.812 171.608 137.882 171.537 137.953C171.537 137.953 171.537 137.953 171.466 137.953C171.466 137.953 171.466 137.953 171.396 137.953C170.337 138.73 169.913 140.001 169.983 141.272C169.277 141.696 168.571 141.978 167.794 142.119C167.229 142.19 166.735 142.26 166.453 142.119C164.546 140.283 164.97 133.928 164.97 133.928Z" fill="#F8B68F"/>
<path d="M172.595 143.32C171.112 143.461 173.513 143.32 171.112 143.461C171.042 142.19 166.946 138.871 166.169 138.235C164.192 136.541 164.333 134.493 164.333 134.493C164.333 134.493 168.288 130.256 170.83 131.174C172.807 131.88 173.513 133.434 173.866 134.563C174.149 135.481 174.714 137.106 172.595 143.32Z" fill="#212B53"/>
<path d="M173.938 184.7C173.938 184.7 172.455 193.598 170.407 203.06C172.525 208.78 169.277 224.81 169.207 224.739C168.995 224.528 167.865 225.869 167.865 225.869C167.865 225.869 165.464 211.746 164.97 205.391C164.475 199.035 163.628 191.268 163.628 191.268L173.938 184.7Z" fill="#F8B68F"/>
<path d="M169.489 223.821C169.489 223.821 170.407 224.598 170.195 225.516C170.054 226.505 169.771 228.764 169.771 228.764H168.853V226.646C168.853 226.505 166.876 228.764 166.523 228.764H161.65C161.65 228.764 161.297 227.352 164.192 226.858C167.158 226.434 169.489 223.821 169.489 223.821Z" fill="#043C5E"/>
<path d="M171.113 144.167H172.596C172.949 144.167 173.232 143.885 173.232 143.532V143.39C173.232 143.037 172.949 142.755 172.596 142.755H171.113C170.76 142.755 170.478 143.037 170.478 143.39V143.532C170.478 143.885 170.76 144.167 171.113 144.167Z" fill="#FFDB71"/>
<path d="M164.264 167.047C164.264 167.047 162.64 176.015 162.64 180.464C162.64 182.935 163.77 193.316 163.77 193.316C163.77 193.316 173.091 193.598 174.997 193.598C175.209 186.254 177.963 181.382 177.963 175.45C177.963 171.283 174.291 167.682 174.291 167.682L164.264 167.047Z" fill="#F04637"/>
<path d="M146.539 156.666L146.962 156.807C147.81 157.019 148.445 157.725 148.728 158.573L148.798 158.926C148.798 158.926 152.47 160.197 156.566 160.691C160.732 148.828 162.145 147.91 162.145 147.91C162.145 147.91 164.828 148.757 164.828 152.005C164.828 154.759 162.992 162.457 159.532 164.928C158.543 165.564 157.343 165.634 156.284 165.14C150.705 162.457 146.751 160.197 146.751 160.197L142.514 157.867L144.35 156.878C145.056 156.525 145.833 156.454 146.539 156.666Z" fill="#F8B68F"/>
<path d="M176.409 222.197L176.55 224.245C176.55 224.669 176.479 225.092 176.197 225.446C175.914 225.799 175.491 226.364 174.714 226.999C176.126 227.423 177.397 225.869 178.103 224.81C178.456 224.316 178.527 223.68 178.456 223.115L178.245 221.562L176.409 222.197Z" fill="#F4A086"/>
<path d="M178.527 223.327C178.527 223.327 179.798 223.468 179.939 224.386C180.151 225.304 180.716 227.211 180.716 227.211L180.01 227.776L179.021 225.869C179.021 225.869 176.973 228.623 176.62 228.764H171.324C171.324 228.764 171.324 226.999 174.643 226.928C177.821 226.858 178.527 223.327 178.527 223.327Z" fill="#212B53"/>
<path d="M47.8972 236.523C47.8972 236.523 49.3095 237.865 52.6284 238.713C53.3346 238.924 54.1113 238.642 54.1113 239.842C52.5578 239.842 50.0862 239.842 50.0862 239.842L46.7673 239.277V239.842H45.0019C45.0019 239.842 44.5076 236.877 45.5669 236.523C46.4849 236.523 47.8972 236.523 47.8972 236.523Z" fill="#212B53"/>
<path d="M47.6863 234.405L47.8981 236.523C47.2626 236.947 46.4152 237.018 45.709 236.594L45.5678 236.523L44.791 234.405H47.6863Z" fill="#F8B68F"/>
<path d="M31.8679 236.523C31.8679 236.523 33.2802 237.865 36.5991 238.713C37.3052 238.924 38.082 238.642 38.082 239.842C36.5285 239.842 34.0569 239.842 34.0569 239.842L30.738 239.277V239.842H28.9726C28.9726 239.842 28.4783 236.877 29.5375 236.523C30.5262 236.523 31.8679 236.523 31.8679 236.523Z" fill="#212B53"/>
<path d="M31.7273 234.405L31.9391 236.523C31.3036 236.947 30.4562 237.018 29.75 236.594L29.6088 236.523L28.832 234.405H31.7273Z" fill="#F8B68F"/>
<path d="M41.472 181.655H46.1327L47.6862 234.899H44.5791L35.4697 191.541L41.472 181.655Z" fill="#212B53"/>
<path d="M43.0257 181.655L32.2216 234.899H28.832L30.2443 181.655H43.0257Z" fill="#043C5E"/>
<path d="M33.6352 193.377L32.5759 193.307C32.5759 193.307 32.6466 192.601 32.0816 192.036C31.6579 191.612 31.0224 191.4 30.175 191.4C29.257 191.4 28.5509 191.612 28.1272 192.036C27.7035 192.459 27.7741 192.883 27.7741 192.883L26.7149 192.954C26.7149 192.883 26.6442 192.036 27.3504 191.33C27.9859 190.694 28.9039 190.412 30.175 190.412C31.3755 190.412 32.2229 190.694 32.8584 191.33C33.7058 192.177 33.6352 193.307 33.6352 193.377Z" fill="#212B53"/>
<path d="M38.0846 194.578H22.6904V204.464H38.0846V194.578Z" fill="#212B53"/>
<path d="M30.9524 201.216C30.9524 201.851 30.67 201.922 30.3169 201.922C29.9638 201.922 29.6814 201.851 29.6814 201.216V199.097C25.2326 198.603 22.6904 197.826 22.6904 197.826V198.109V205.664C22.6904 206.371 22.9729 206.935 23.3966 206.935H37.4491C37.8728 206.935 38.1552 206.371 38.1552 205.664V197.897C34.9775 198.673 34.7657 198.673 31.023 199.097V201.216H30.9524Z" fill="#FF7B7C"/>
<path d="M34.9782 198.603C34.2721 200.015 33.4953 201.357 32.5773 202.628C31.4474 204.182 30.1764 205.594 28.9053 207.006H37.3791C37.8028 207.006 38.0853 206.441 38.0853 205.735V197.967C36.6024 198.25 35.755 198.391 34.9782 198.603Z" fill="#F04637"/>
<path d="M37.3778 192.459H23.3253C22.9016 192.459 22.6191 193.024 22.6191 193.73V197.544C25.0907 198.391 27.4916 198.674 29.6101 198.744V198.25C29.6101 197.614 29.8925 197.544 30.2456 197.544C30.5987 197.544 30.8811 197.614 30.8811 198.25V198.744C35.0475 198.603 38.0133 197.544 38.0133 197.544V193.73C38.0839 193.024 37.8015 192.459 37.3778 192.459Z" fill="#6680A1"/>
<path d="M30.8811 200.58H29.7512C29.61 200.58 29.4688 200.439 29.4688 200.298V199.662C29.4688 199.521 29.61 199.38 29.7512 199.38H30.8811C31.0223 199.38 31.1635 199.521 31.1635 199.662V200.298C31.0929 200.439 31.0223 200.58 30.8811 200.58ZM29.7512 199.45C29.61 199.45 29.5394 199.521 29.5394 199.662V200.298C29.5394 200.439 29.61 200.51 29.7512 200.51H30.8811C31.0223 200.51 31.0929 200.439 31.0929 200.298V199.662C31.0929 199.521 31.0223 199.45 30.8811 199.45H29.7512Z" fill="white"/>
<path d="M30.3873 199.945C30.3873 200.015 30.3873 200.015 30.3167 200.015C30.2461 200.015 30.2461 200.015 30.2461 199.945V199.027C30.2461 198.956 30.2461 198.956 30.3167 198.956C30.3873 198.956 30.3873 198.956 30.3873 199.027V199.945Z" fill="white"/>
<path d="M68.2385 173.746C68.3797 173.887 69.0152 174.241 70.4275 174.382C71.6986 174.523 74.4526 173.958 73.8877 175.229C72.6872 175.865 71.2749 176.783 71.2749 176.783C70.4981 177.136 69.0858 176.783 68.309 176.43L65.9081 174.947C65.9081 174.947 65.6963 173.605 65.6963 173.534L66.2612 173.323C66.8967 173.534 67.5323 173.676 68.2385 173.746Z" fill="#F8B68F"/>
<path d="M68.6623 174.311C68.6623 174.311 68.733 174.382 68.8036 174.452C68.6623 174.523 68.4505 174.594 68.3093 174.664C67.6737 174.664 66.9676 174.735 66.332 174.735C66.4026 174.382 66.4027 173.817 66.4027 173.746L70.7808 172.687C70.7808 172.687 71.1339 173.111 70.3571 173.605C69.5097 174.17 68.6623 174.311 68.6623 174.311Z" fill="#F8B68F"/>
<path d="M30.9489 187.869L32.3612 191.047C32.3612 191.047 32.0788 192.813 31.4432 193.448C31.2314 193.66 30.9489 193.731 30.6664 193.589C30.0309 193.307 28.6892 192.742 28.4774 192.389C28.3361 192.248 28.3361 192.036 28.4067 191.824L28.8304 190.412L28.9011 187.163L30.9489 187.869Z" fill="#F8B68F"/>
<path d="M39.4938 149.596V153.903L35.7512 153.692L35.4688 147.054L39.4938 149.596Z" fill="#F4A086"/>
<path d="M40.1317 150.02C40.6966 150.02 41.1203 149.949 41.4028 149.737C42.9563 147.548 41.1909 141.546 41.1909 141.546L38.7194 140.486L35.6123 142.393L35.4005 146.418C35.3298 147.477 35.8948 148.537 36.8128 149.172C37.8014 149.737 38.9312 150.02 40.1317 150.02Z" fill="#F8B68F"/>
<path d="M36.4597 144.653C36.6009 143.947 36.1772 142.393 36.8834 142.534C37.3777 142.605 39.0725 142.676 39.708 142.676C41.1203 142.676 43.5212 142.111 43.5212 140.063C43.5212 139.004 42.8857 138.509 42.2502 138.227C41.6146 137.944 40.9085 138.721 40.2729 138.933C38.79 139.498 35.6123 139.922 34.8355 139.71C33.9175 139.498 32.9995 140.416 32.9289 140.981C32.7877 142.181 33.5645 144.017 34.2 145.218C34.5531 145.924 35.0474 146.489 35.5417 146.983L36.4597 144.653Z" fill="#212B53"/>
<path d="M34.6929 144.794C34.9753 144.512 35.5402 144.582 35.9639 144.935C36.3876 145.288 36.4582 145.783 36.1052 146.065C35.8227 146.348 35.2578 146.277 34.8341 145.924C34.481 145.571 34.4104 145.077 34.6929 144.794Z" fill="#F8B68F"/>
<path d="M37.5175 152.562C35.7521 152.562 34.3398 152.915 33.0687 153.48C30.0323 154.821 27.8432 157.646 27.0664 160.894C25.866 166.049 23.8181 178.195 28.4787 188.858C29.8204 188.999 31.5858 188.858 31.5858 188.858L32.0801 163.719L31.7271 181.655H46.1326V170.074C46.1326 170.074 46.4857 172.687 50.0165 175.088C53.4766 177.489 66.5405 175.865 66.5405 175.865V173.111C66.5405 173.111 55.1008 170.71 53.2648 169.298C51.4288 167.885 47.4037 157.717 47.4037 157.717C46.1326 155.245 43.8729 153.409 41.1189 152.844C39.9891 152.632 38.8592 152.562 37.5175 152.562Z" fill="#ACC1D6"/>
<path d="M31.9393 181.726L32.2218 164.425H31.8687L31.5156 181.726H31.9393Z" fill="white"/>
<path d="M35.6809 151.361L35.3984 152.703H39.7766L39.4941 151.361H35.6809Z" fill="white"/>
<path d="M38.2516 79.9726C43.4741 82.2877 42.505 96.2863 35.9903 110.931C29.4756 125.576 19.9458 135.59 14.7233 133.275C9.50072 130.96 10.5237 117.176 17.0384 102.532C23.5531 87.8871 32.9752 77.6036 38.2516 79.9726Z" fill="#F04637"/>
<path d="M32.1347 109.144C38.5242 94.7695 39.1002 81.0706 33.4212 78.5462C27.7422 76.0218 17.9588 85.6278 11.5693 100.002C5.17973 114.376 4.60372 128.075 10.2827 130.599C15.9617 133.124 25.7451 123.518 32.1347 109.144Z" fill="#FF5C5D"/>
<path d="M32.5435 109.316C25.9211 124.23 15.6914 134.244 9.76889 131.606C3.84642 128.967 4.43867 114.7 11.1149 99.7859C17.7373 84.872 27.967 74.8577 33.8895 77.4959C39.8119 80.1341 39.2197 94.4018 32.5435 109.316ZM11.9764 100.163C5.83853 113.946 5.30011 127.137 10.738 129.56C16.1759 131.983 25.598 122.722 31.7358 108.939C37.8737 95.1556 38.4121 81.9646 32.9742 79.5418C27.4825 77.119 18.0603 86.3796 11.9764 100.163Z" fill="#F04637"/>
<path d="M33.4053 77.2805L38.9509 80.2956L37.9279 86.2719L33.4053 77.2805Z" fill="#F04637"/>
<path d="M9.33887 131.444L15.3152 133.544L19.0302 128.752L9.33887 131.444Z" fill="#F04637"/>
<path d="M123.424 128.327C127.696 128.327 131.162 125.129 131.162 121.143C131.162 117.11 127.589 114.005 123.424 114.005H115.578C114.772 114.005 114.127 114.607 114.127 115.349V125.593H112.434C111.628 125.593 110.983 126.195 110.983 126.937C110.983 127.678 111.628 128.281 112.434 128.281H114.1V131.386H112.434C111.628 131.386 110.983 131.989 110.983 132.731C110.983 133.472 111.628 134.075 112.434 134.075H114.1V137.088C114.1 137.829 114.745 138.432 115.551 138.432C116.357 138.432 117.002 137.829 117.002 137.088V134.075H123.37C124.176 134.075 124.821 133.472 124.821 132.731C124.821 131.989 124.176 131.386 123.37 131.386H117.056V128.281L123.424 128.327ZM117.056 116.693H123.424C126.057 116.693 128.233 118.64 128.233 121.143C128.233 123.599 126.084 125.593 123.424 125.593H117.056V116.693Z" fill="#FF7B7C" stroke="#FF7B7C"/>
<defs>
<linearGradient id="paint0_linear" x1="74.9277" y1="15.126" x2="54.585" y2="4.54831" gradientUnits="userSpaceOnUse">
<stop offset="6.3e-07" stop-color="#F1F8F8"/>
<stop offset="1" stop-color="#C0E4EF"/>
</linearGradient>
<linearGradient id="paint1_linear" x1="71.7303" y1="21.2796" x2="55.3253" y2="12.7494" gradientUnits="userSpaceOnUse">
<stop offset="6.3e-07" stop-color="#F1F8F8"/>
<stop offset="1" stop-color="#C0E4EF"/>
</linearGradient>
</defs>
</svg>
