<svg xmlns="http://www.w3.org/2000/svg" viewBox="0 0 70.87 59.87"><defs><style>.cls-1{fill:#00aa6e;fill-rule:evenodd;}</style></defs><title>Asset 1</title><g id="Layer_2" data-name="Layer 2"><g id="Layer_1-2" data-name="Layer 1"><path class="cls-1" d="M51.78,55.6h3.47v.22c0,.7.14,1.19.14,1.81H51.56a11.07,11.07,0,0,1,.22-2ZM25.5,0h1.64a18.1,18.1,0,0,1,5.78,1.21,16.9,16.9,0,0,1,4.44,2.64c.18.16.33.26.51.43l.43.44a13.43,13.43,0,0,1,1.3,1.38l1.11,1.49c1.54,2.33,1,2.23,2.15,2a14.9,14.9,0,0,1,6.63.43c3.22,1.07,4.88,2.95,6.06,6.09A8,8,0,0,1,56,18c2.52,0,5.29-.1,7.5.89a10.88,10.88,0,0,1,4.27,3,5.91,5.91,0,0,1,.66.79,10.32,10.32,0,0,1,1.12,1.77,9.2,9.2,0,0,1,1.28,4.43v4.33a10.62,10.62,0,0,1-1.78,5.23,10.49,10.49,0,0,1-2.94,3.13,3.39,3.39,0,0,1-.48.32c0,1.51-.07,2.76-.07,4.27a35.85,35.85,0,0,1-.05,4.29,19.87,19.87,0,0,0,0,2.15c0,1,.15,1.14-.33,1.84a2,2,0,0,1-1.18,1c-1.11.32-5.11.21-6.45.21,0,.88.14,1.49.14,2h1.66l.07,2.1a1.71,1.71,0,0,1-.72.14H47.51V57.63c2.47,0,1.47,0,2-2h-4c-1.71,0-3.7,0-4-2l-.14-9.77H29.29c0,3.2-.1,6.33-.07,9.54,0,.86,0,.6-.54,1.34a1.87,1.87,0,0,1-1.2.75,53,53,0,0,1-6.22.15,6.12,6.12,0,0,0,.29,2,6.4,6.4,0,0,0,1.59.07v2.24H11.29V57.63H13c0-1.41.66-1.89-.59-2s-4.94.17-5.82-.26a4.77,4.77,0,0,1-.88-.64c-.79-1-.52-5.56-.52-7.07,0-1-.07-1.88-.07-3v-3a3.11,3.11,0,0,1-.72-.5,11.62,11.62,0,0,1-3.51-4.8c-1-2.49-.82-3.69-.83-6.19a10.6,10.6,0,0,1,1.57-6.17,10.35,10.35,0,0,1,3-3.48,15.56,15.56,0,0,1,3.92-2,7.46,7.46,0,0,1,.95-.21,23.17,23.17,0,0,1,.2-4.14,19,19,0,0,1,.92-3.35,15.9,15.9,0,0,1,.67-1.5,17.78,17.78,0,0,1,1.68-2.66l1-1.15a16.57,16.57,0,0,1,2.25-2.09A18.28,18.28,0,0,1,21.76.64,14.57,14.57,0,0,1,25.5,0ZM15.41,55.89V55.6h3.33c.27,0,.24.34.29.87a10.91,10.91,0,0,1,.07,1.15H15.27c0-.56.14-1.06.14-1.74Zm11.5-2.6H7.46c0-2.34-.21-11.32,0-13.31,0-.47.11-.37.66-.35L27,39.55l-.07,13.74ZM43.68,40.92V39.55H56.77c2.23,0,4.21.07,6.43.07V53.29H43.75c0-4.2-.07-8.16-.07-12.36ZM18.16,27.33c1,0,11.47-.06,12,.11.32.11.24.37.54,1a5.07,5.07,0,0,0,.6,1,5.62,5.62,0,0,0,1.65,1.46c1.51.82,2.11.53,3.62.51,1.67,0,3.35-1.8,4-3.53.15-.4.12-.31.27-.38l.65-.07a4.42,4.42,0,0,0,.77,0c.64-.1,9,0,10.15,0v9.91H46c-.5,0-.75.06-1.15.07a4.5,4.5,0,0,0-2.2.26c-1.41.88-1.27,2.17-1.27,4H29.29c0-1.45.2-3.15-1.17-4-1-.57-8.44-.37-10-.37V27.33Zm17.21,1.88a3,3,0,0,1-2.89-2.82,2.86,2.86,0,0,1,1.64-2.77,2.9,2.9,0,0,1,3.48.55,2.48,2.48,0,0,1,.62.83,3,3,0,0,1-.62,3.33,2.94,2.94,0,0,1-2.23.88ZM11.72,17.93c0-3.77.28-5,1.83-8.07a15.18,15.18,0,0,1,1.73-2.47l.8-.87c.19-.17.28-.21.47-.4a13.82,13.82,0,0,1,2.91-2.08,15,15,0,0,1,13.42-.34,13.27,13.27,0,0,1,2.58,1.61,14,14,0,0,1,3.6,4,16.81,16.81,0,0,1,1.13,2.19l.52,1.22a3,3,0,0,0,.91-.32,7,7,0,0,1,.9-.33c3.21-.83,7.39-.35,9.56,2.37.15.18.27.4.41.6a8.85,8.85,0,0,1,1.39,5.19l4.77.08a16.65,16.65,0,0,1,2.92.33,9.86,9.86,0,0,1,3.32,1.67,10.08,10.08,0,0,1,2.9,3.61c.95,1.88.71,2.44.85,4.07a10.71,10.71,0,0,1-1.86,7.69,5.78,5.78,0,0,1-.58.72,5,5,0,0,1-.67.7c-.4-.76-.49-1.2-1.35-1.61s-8.21-.27-9.57-.27V25h-14c-1.25-5.36-9.09-5.36-10.34,0H15.92V37.24c-1.64,0-7.78-.11-9.14.19A2.53,2.53,0,0,0,5.22,38.9c-.2-.14-.17-.13-.32-.33A8.74,8.74,0,0,1,4,37.44c-1.54-2.3-1.75-4-1.75-6.78A10.1,10.1,0,0,1,4.94,23.3l1.39-1.14c3-2,4.62-1.45,5.61-2,0-.25-.09-.88-.12-1.11a7.21,7.21,0,0,1-.09-1.13Z"/></g></g></svg>