<svg xmlns="http://www.w3.org/2000/svg" viewBox="0 0 70.87 69.25"><defs><style>.cls-1{fill:#00aa6e;fill-rule:evenodd;}</style></defs><title>Asset 1</title><g id="Layer_2" data-name="Layer 2"><g id="Layer_1-2" data-name="Layer 1"><path class="cls-1" d="M16,39.35l-.72.13-2.16.57c-.24.26-.16.16-.52.27a2.86,2.86,0,0,1-1.3.42c-.11.19.19.08-.25.19-.83.3-1.55.66-2.41,1a11.51,11.51,0,0,1-2.34.92A25.19,25.19,0,0,1,3,44.37l-1.38.54c-.2.25-.16.18-.5.33-.77.38-1.11.64-1.12,1.6l.52,1.45a3.24,3.24,0,0,1,.57,1.33c.31.27.24.2.35.62A5.5,5.5,0,0,1,2.2,52a1.68,1.68,0,0,1,.44.67,2.4,2.4,0,0,1,.28.65,24.83,24.83,0,0,1,1.33,3c.13.13.06,0,.21.27a1.94,1.94,0,0,1,.18.5,2,2,0,0,1,.49,1.1l.46.81A5.11,5.11,0,0,1,6,60c.27.17,1.43,3.24,1.88,3.71s.92.37,1.48.51c.14-.11,0,0,.23-.15l1.58-.89,0,0a5.84,5.84,0,0,1,1.8-1.13c.17-.35,1.15-.78,1.48-1a2.49,2.49,0,0,1,2-.31,10,10,0,0,1,2.38,1l.51.29c.2.16,0,0,.22.21a13.94,13.94,0,0,1,2.65,1.2L23,64a8.48,8.48,0,0,1,1.65.73,5.68,5.68,0,0,1,1.5.85,28.16,28.16,0,0,1,3.34,1.56c.57.26,1,.5,1.61.75l.84.37.63.27c.2.12.06,0,.2.16a6.5,6.5,0,0,1,1.64.35,11.24,11.24,0,0,0,4.81-.11l1.51-.48c.11-.12,0-.09.2-.18s.05,0,.29-.1l1.22-.71a8.27,8.27,0,0,1,1.5-.83c.12-.2,3-1.81,3.42-2.11s1.1-.7,1.76-1.12a6.11,6.11,0,0,1,1.81-1,10.63,10.63,0,0,1,2.37-1.57c.36-.28.95-.64,1.45-.95s.89-.58,1.48-.95a25.28,25.28,0,0,1,3.08-1.84c.2-.31.43-.4.77-.62s.48-.32.73-.47a9.33,9.33,0,0,1,1.65-1l.16-.06c.15-.25.08-.19.34-.37l.41-.24a7.68,7.68,0,0,1,.79-.48,28.18,28.18,0,0,1,3.09-1.94c.23-.33,0-.16.45-.34.05-.19.72-.67.91-.84a6.25,6.25,0,0,0,2.21-3.68c.17-2.5-1.34-2.72-1.42-3.06,0,0,0,0-.06-.07a6,6,0,0,0-2.81,0,8.7,8.7,0,0,0-1.1.43,6.31,6.31,0,0,1-1.07.54c-.2.28,0,.14-.42.3a2.09,2.09,0,0,1-.63.46c-.38.25-.36.31-.71.36a2.64,2.64,0,0,1-.77.59l-.81.53a9.66,9.66,0,0,1-1.73,1c-.13.23-.21.26-.43.23a1.8,1.8,0,0,1-1,.65,12.34,12.34,0,0,1-1.8,1.23,9.57,9.57,0,0,1-1.91,1.14,21.92,21.92,0,0,1-3,2c-1.62,1-.28,1.08-2.22,3a4.84,4.84,0,0,1-2.07,1.41c-2,1-4.08.91-6.61.91H36.57c-1.08,0-2.69.07-3.69,0l-2.72-.34L28.06,58a7.41,7.41,0,0,1-2.25-.51,4.15,4.15,0,0,1-2.1-.56,1.27,1.27,0,0,1-.54-.78,1,1,0,0,1,.15-1c.35-.78.88-1,2-.79l2,.48c.24.1.08,0,.23.14l.66,0c.38.07.41,0,.64.2l2.35.29c2,.13,3.66.21,5.75.22s4.05,0,6.08,0l1.36-.15.29,0c.26-.12,1.12-.42,1.38-.5a4.46,4.46,0,0,0,1.21-1.15l.32-.39,0-.3a5.64,5.64,0,0,0,.15-1.68c-.47-2.17-1.58-2.57-3.46-3.15l-1.92-.15h-.6l-1.44-.08L39.24,48c-.32-.07-.12,0-.24-.09-.95.16-4.05-.6-5.05-.81a4.65,4.65,0,0,1-.52-.11c-.43-.14-.18,0-.37-.2l-.79-.11a4.36,4.36,0,0,1-1.86-1.31L29,43.79a17.91,17.91,0,0,0-1.51-1.59l-1.59-1.47-1.07-.57-.43-.22a14.93,14.93,0,0,0-5-.76H18.22L16,39.35Zm32,.09L46.13,40l-2.46,1.44c-.41.24-.81.46-1.19.69a6.88,6.88,0,0,1-1.24.7,28.26,28.26,0,0,1-3.08,1.91c0,.33.86.1,1.25.36a27.77,27.77,0,0,1,5,.27c.92.09.71-.21,1.39-.43a13.9,13.9,0,0,1,1.57-1c.59-.38,1.08-.66,1.65-1a26.27,26.27,0,0,1,3.21-1.86c.26-.37.38-.37.77-.58a3.53,3.53,0,0,0,.42-.23c.25-.2.16,0,.24-.34l-1-.41A11.49,11.49,0,0,0,48,39.44Zm9.63,2-.07.06-.51.3a3.59,3.59,0,0,1-.62.22l-.26.13a4.5,4.5,0,0,1-1.53,1,9,9,0,0,1-1.29.83c-.44.27-.81.48-1.3.8a16.86,16.86,0,0,1-2.7,1.54,1.33,1.33,0,0,1-.19.19l-.2.15a1.57,1.57,0,0,1-.51.23c.06.38,1.86,1.7,2.12,3.36l.37,0,.08,0a.86.86,0,0,1,.29-.3,4.54,4.54,0,0,1,.4-.27,4.14,4.14,0,0,1,.94-.51,6.11,6.11,0,0,1,1.49-1,9.13,9.13,0,0,1,1.7-1A51.72,51.72,0,0,1,61,43.67c.13-.18.1-.16.36-.19a2.08,2.08,0,0,1,1.11-.74c0-.1.07-.24.11-.39a1,1,0,0,1-.61-.45L61,41.45l-1.77-.23-1.65.17ZM29.31,19.13a1.14,1.14,0,0,1,.06-.81,5.35,5.35,0,0,1,1.37-2.71A5.94,5.94,0,0,1,33.19,14a4,4,0,0,1,1.36-.25l.09,0c.11,0-.06-.1.72-.1a3.73,3.73,0,0,1,2.14.47c1-.06,3.08,1.83,3.27,2.69.12.13,0,0,.18.22l.1.2c.16.46.32.52.26,1,.11.16,0-.1.13.25.28.71.18,3.1-.55,3.76.06.73-1.61,2.2-2.12,2.52-4.38,2.78-9-1-9.09-3a2.4,2.4,0,0,1-.42-1.26,2.68,2.68,0,0,1,.06-1.34Zm3-18.88c-.19.27-.39.32-.55.84-.1.33-.15.76-.22,1.1-.15.74-.25,1.49-.41,2.22l-.29,1.09c-.09.15.06,0-.14.14l-.06,0-.41.15a2.2,2.2,0,0,1-.74.21l-.8.43a1.86,1.86,0,0,1-.86-.67c-.21,0-.08,0-.28-.12a1.1,1.1,0,0,1-.13-.13,7.53,7.53,0,0,1-1.52-1,6.11,6.11,0,0,0-1.51-.91c-1.4-.05-1.92.93-2.84,1.8L19.77,7.17a3.07,3.07,0,0,0-.42.6,2.47,2.47,0,0,0,.77,2.15,9,9,0,0,1,1.15,1.76c.28.16.88.94.75,1.38s-.54,1.28-.68,1.56l-.06.37-2.12.33-2.89.45a1.7,1.7,0,0,1-.19.2l-.38.4c-.43.62-.31,4.39-.27,5.3a1.14,1.14,0,0,0,.26.87l.45.45s.05.09.06.07,0,0,.06.07l3.41.59,1.21.22c.54.16.24,0,.68,1.12A7.21,7.21,0,0,1,22,26.19a12.26,12.26,0,0,1-1.4,1.89,6.37,6.37,0,0,1-.94,1.33c-.5.62-.54.64-.54,1.63l.08.34.41.51a18.82,18.82,0,0,1,2.11,1.94c1.54,1.52,1,1.29,2.47,1.57l.92-.5.36-.33.28-.16c.22-.1.08-.06.3-.1a1.88,1.88,0,0,1,.54-.5,4.3,4.3,0,0,1,.66-.38A7.08,7.08,0,0,1,28,32.9c.38-.27.45-.38.91-.19.28.11,1.64.69,1.72.76l.42,1.62,0,.32a5.29,5.29,0,0,1,.28,1.21c.28,1.57.2,2.53,2.14,2.53,1.39,0,3.39-.09,4.71,0,.14-.19.7-.65.92-.9l.63-3.5c.08-.4,0-1.21.44-1.33l1.07-.36c.79-.88,1.41-.2,2.59.63.42.29.76.55,1.17.82a3.92,3.92,0,0,1,1.08.84,3.69,3.69,0,0,0,1.53-.1l0-.17c.31,0,.53-.35.76-.56a3.4,3.4,0,0,1,.7-.58c.16-.31.16-.37.57-.55.09-.28.38-.49.57-.68.34-.34.36-.46.73-.55.2-.38-.05-.14.38-.37a6.8,6.8,0,0,0,.26-.7,6.22,6.22,0,0,0,0-.92A4.09,4.09,0,0,1,50.72,29a3.46,3.46,0,0,1-.85-1.23c-.23-.16-.07,0-.27-.25s0,0-.14-.26L49.23,27c-.23-.28-.49-.6-.44-.88,0-.08.5-1.11.58-1.27.24-1,.45-.79,1.53-1a4.22,4.22,0,0,1,1.35-.12l.59-.19c.26,0,.52-.07.79-.1l.44,0c.18-.15,0,0,.28-.14l.83-.48a4.24,4.24,0,0,0,.25-1.31c0-.48,0-1,0-1.44,0-1.13.19-2.95-.32-3.64l-.27-.37c-.44-.06-1.56-.34-2.22-.46s-1.54-.27-2.31-.36l-.7-.15-.15-.59a10.24,10.24,0,0,1-.62-1.5,2.57,2.57,0,0,1,.87-1.26,2.82,2.82,0,0,1,.53-.86c.27-.4.29-.51.63-.72l.05-.07A3.36,3.36,0,0,1,51.75,9c-.19-1.35,0-1-.82-1.89l-2.6-2.59c-.75-.72-.69-.58-1.83-.76-.23.24-.11.16-.5.23-.13.3,0,.11-.3.32l-.39.27a2.09,2.09,0,0,1-.82.47,3.4,3.4,0,0,1-1.06.85c-1,.63-.89.91-1.7.48a.74.74,0,0,1-.21-.13.69.69,0,0,1-.2-.17,1.25,1.25,0,0,1-.6-.14l-.58-.2L40,5l-.18-.88-.34-2.3C39.21.79,39.14.11,37.8,0H36c-.66,0-1.31,0-2,0a3.7,3.7,0,0,0-1.69.25Z"/></g></g></svg>