<svg xmlns="http://www.w3.org/2000/svg" viewBox="0 0 70.87 49.86"><defs><style>.cls-1{fill:#00aa6e;fill-rule:evenodd;}</style></defs><title>Asset 1</title><g id="Layer_2" data-name="Layer 2"><g id="Layer_1-2" data-name="Layer 1"><path class="cls-1" d="M53.36,40l3.55,0v5H53.34l0-5Zm-15-19.17c-.27.14-.17.17-.48.07-3.13-1.37-3.92-.8-6.27.19a16.36,16.36,0,0,1-1.39-1.69,15.49,15.49,0,0,1-1.3-1.66c.38-1,.91-2.66-.87-3.64a2.48,2.48,0,0,0-3.31,3.44c.54.84.45.55-.1,1.58L19.32,29.3c-.61,1.2-3.26,6.06-3.51,6.79-1.22,0-3-.14-3.76,1.9a3.09,3.09,0,0,0,5.43,2.85c1.3-1.86,0-3.26-.51-4.1a19.81,19.81,0,0,1,1.17-2.32l8.19-15.69,1.58-.12c1.08,1.22,1.7,2.29,2.68,3.34a8.06,8.06,0,0,0-1.33,2.66,5.76,5.76,0,0,0,3.26,6.5c.51.24,1,.31,1.43.49V45l-2.8,0c0-1.44.13-13.2-.09-13.54s-5.61-.47-6-.07c-.41.72-.17,11.79-.17,13.64H10.32l0-40.1,50.18,0V45H58.25c0-.9.22-5.8-.26-6.19a21.1,21.1,0,0,0-5.79,0c-.39.81-.22,4.91-.17,6.18H49.22c-.07-1.93.32-11.65-.23-12.47a18.51,18.51,0,0,0-5.79,0c-.46.53-.22,2.12-.22,3V45l-2.8-.06V29.41a10.38,10.38,0,0,1,.42-2.63c.25-1.59-.37-4.22-1.39-4.62,0-.67.26-.74.62-1.16a4.26,4.26,0,0,0,.68-1.06,12.93,12.93,0,0,0,1.55-2c1.48-.06,1.25.11,2.31-.58l.88.4c-.16,2.38,1,3.28,3.24,3.37.82,1.22,3.27,7.47,3.82,7.88a7.5,7.5,0,0,0,3.21.06,1.19,1.19,0,0,0,.18-1,7,7,0,0,0-2.62-.2l-3.32-7.21c.23-.52.69-.79.89-1.57.28-1.1-.08-1.35-.24-2.16,1.05-1,2-2,3.09-3.08s2-2.11,3.08-3.08c1.17.14,1.86.24,2.56-.53a2.32,2.32,0,0,0,.25-2.54,2.12,2.12,0,0,0-3.93,1c0,.68.32.78,0,1.2l-6,6c-.78,0-1-.43-2.14-.22-.84.16-1,.54-1.59.89L45,16.25c-.33-1.61-.58-2.34-2.42-2.48L40,8.19c-.25-.57-.34-1-.92-1.13a19.51,19.51,0,0,0-2,0,.64.64,0,0,0-.41,1.15c.42.33,1.38.15,1.94.19l2.81,6a2.15,2.15,0,0,0-.62,1.94c.19,1.1.45.74-.28,1.66a18.53,18.53,0,0,0-2.1,2.85ZM37.1,21.87c.22.33.42.35.71.59a9.36,9.36,0,0,0,.71.64c.1.42.44.87.61,1.39A4.44,4.44,0,1,1,33.6,21.6c1.75-.51,2.27.15,3.5.27ZM12.2,10.8c.62.27,6.18.11,7.48.11,1,0,1.35,0,1.15-1.09C20,9.35,17,9.59,15.69,9.59H13c-1.51,0-1.31.82-.78,1.22ZM34.58,25c1.23-.56,1.74,1.3.68,1.72A.93.93,0,1,1,34.58,25Zm-.42-1.23A2.23,2.23,0,1,0,35.72,28c2.78-1.07,1.15-5.27-1.57-4.18Zm29.93,1.39a1.57,1.57,0,0,1,3.1-.47,1.57,1.57,0,0,1-3.1.47Zm.8-3c-3.56,1-2.34,6.49,1.47,5.62,3.52-.8,2.43-6.69-1.47-5.62ZM11.94,6.86C11.67,8,12.27,8,13.38,8h12c2.24,0,3.67.36,3.23-1.12-.76-.41-5-.2-6.32-.2s-9.74-.18-10.31.18ZM47.6,17a1.43,1.43,0,0,1,.77,2.75A1.43,1.43,0,1,1,47.6,17Zm-5.14-1.77c1.09-.68,1.59,1,.81,1.37s-1.79-.75-.81-1.37ZM58,8.08c.23.32.47.59.27,1a.79.79,0,0,1-1,.41c-.65-.21-.93-1.72.73-1.46ZM1.4,4.08C1.4,2,2,1.34,4.12,1.34h59.4c3.56,0,5.93-.6,5.93,2.48V45.09c0,1.67.2,3.42-2.33,3.42H4.51c-1.94,0-3.11-.2-3.11-2.27V4.08ZM.15,47.28c.62,2.9,3.55,2.52,5,2.55,2.51,0,5.07,0,7.59,0H65.45a8.59,8.59,0,0,0,3.41-.3,3.41,3.41,0,0,0,1.76-2c.44-1.48.15-12.48.15-14.94V10c0-7.51,1.2-10-5.07-10H5.41C3.71,0,1.09-.32.24,2.25-.17,3.5.07,14.89.07,17.19c0,2-.17,28.9.08,30.08ZM44.33,33.64h3.56V45H44.31l0-11.34Zm-9.06-2a6.63,6.63,0,0,0,2-.53,17.92,17.92,0,0,0,1.54-1l0,14.83-3.56,0V31.62Zm-9,.79,3.52,0V45H26.23l.06-12.54Zm-12,5.09A1.74,1.74,0,0,1,16.49,40c-1.65,2.75-5.24-1.12-2.16-2.45ZM26.4,15.27a1.12,1.12,0,0,1,1,2,1.12,1.12,0,1,1-1-2ZM9.15,46.12c.91.38,33.68.2,39.33.19,1.62,0,12.59.21,13.08-.19s.28-4.18.28-5c0-1.8,0-3.6,0-5.4V14.24c0-1.75.3-9.69-.21-10.57-1.1-.28-48.37-.09-50.57-.1C8.37,3.56,9,3,9,10.38v12c0,2.93-.23,22.78.16,23.78Z"/></g></g></svg>