<svg xmlns="http://www.w3.org/2000/svg" viewBox="0 0 70.87 55.83"><defs><style>.cls-1{fill:#00aa6e;fill-rule:evenodd;}</style></defs><title>Asset 1</title><g id="Layer_2" data-name="Layer 2"><g id="Layer_1-2" data-name="Layer 1"><path class="cls-1" d="M9.11,39.41A2.86,2.86,0,0,1,6.2,42a2.93,2.93,0,0,1-2-5c1.85-1.86,5.37-.29,4.93,2.43ZM43.3,31.73A2.87,2.87,0,0,1,47,33.64a2.92,2.92,0,1,1-3.72-1.91Zm9.89,5.18a12,12,0,0,1-1.59,3.16c-.42.55-1.86,2.14-2.56,2.2l-.08.08C46,45,37,44.18,35.24,36.81c-.7-2.92-.12-3.86.57-6.3,1,.39,1.62,1.26,2.55,1.64-.46,2.8-.69,4.09,1,6.22a6.26,6.26,0,0,0,5.83,2.27,29.35,29.35,0,0,0,2.79-1c.16-.55.25-.36.64-.74.15-.15.38-.43.58-.67s.56-1.14,1-1.56c0-.71.32-1.52.28-2.53-.13-3.14-1.66-2.31-.42-4a17.64,17.64,0,0,1,1.2-1.58c.21.12,0,0,.24.18a9.63,9.63,0,0,1,1.71,3.29,9.93,9.93,0,0,1,0,4.84Zm-7.92-8.6a6.47,6.47,0,0,0-4.8,1.24,12.75,12.75,0,0,1-2.56-1.78,4.57,4.57,0,0,1,1.73-1.25c.69-.72,3.09-1.27,4.38-1.28a8.77,8.77,0,0,1,4.58,1.15,12.26,12.26,0,0,1-1.77,2.39l-1.57-.46ZM20.2,16.23a2.84,2.84,0,0,1,3.69,1.88,2.88,2.88,0,0,1-1.84,3.63C18.3,23,16.55,17.42,20.2,16.23ZM64.5,9.16a2.92,2.92,0,1,1,.71-5.77,2.77,2.77,0,0,1,2.22,2.08A2.73,2.73,0,0,1,66.94,8,2.92,2.92,0,0,1,64.5,9.16ZM61.76.66l-.53.22A8.56,8.56,0,0,1,60.08,2c-.44.45-.54.74-.95,1.22-.13.41,0,.28-.34.58,0,1.35-.73,2-.2,4s1.3,2.28,1.62,2.95L50.67,23.64c-1-.27-1.46-.93-4-1.47-7.05-1.5-11,3.33-11.68,3.64a30.07,30.07,0,0,1-3.65-2.64c-.43-.1-.25,0-.43-.25A15.33,15.33,0,0,1,29,21.68a11.71,11.71,0,0,0-1.83-1.22c0-.77,0-2.23.08-2.79l-.06-.1-.33-.82C26.18,14.67,24.78,13.86,23,13c-7.89-1.47-9.45,6.52-7.11,9.32-.25.69-5.33,7-6.25,8.19C7.87,32.89,8,33,6.9,32.89A6.09,6.09,0,0,0,2.58,34c-1.28.87-.93.9-1.58,1.63a1.85,1.85,0,0,1-.25.24l-.35.88A8.17,8.17,0,0,0,0,39.51,7.61,7.61,0,0,0,.83,42.3l.11.21a12.67,12.67,0,0,1,1,1,3.27,3.27,0,0,0,1.17.9,5.83,5.83,0,0,0,3.25.88l2.13-.41.66-.27c1.59-1.16,3.12-2.36,3.3-5.06.09-1.88-.69-4.1-1.8-4.84a6.8,6.8,0,0,1,1-1.41c.34-.47.63-.81,1-1.25l3.89-5c.65-.8,1.28-1.76,2-2.46,3.92,1.8,6.57-1,7.28-1.29,1.22.93,2.45,1.72,3.72,2.63l3.63,2.61c-1,2.58-1.75,4.13-1.33,7.45.5,4,2,4.78,2.57,6.34l.63.54c2.17,2.46,4,2.8,4.5,3.25,2.5.66,4.12,1.23,7,.68,3.33-.63,4.62-2.07,5.48-2.35a20,20,0,0,0,2.19,2.08l8.72,8.18c.55.63,1.72,1.62,2.84.64s.48-2-.23-2.7l-1.65-1.53c-.35-.32-.26-.18-.48-.57a8.14,8.14,0,0,1-1.51-1.39s0-.05,0-.08c-.5-.21-3.15-2.86-3.83-3.46s-1.23-1.17-1.86-1.74-1.24-1.17-1.86-1.77a20.15,20.15,0,0,1,1.09-1.84,11.36,11.36,0,0,0,.84-1.94c1.48-4.48,0-10.23-2.88-12.51a12.7,12.7,0,0,1,1.44-2.09l1.05-1.44.2-.24a.86.86,0,0,1,.26-.23,32.67,32.67,0,0,1,2.44-3.42l.4-.57a1.67,1.67,0,0,1,.24-.3c.19-.2.12-.11.2-.16a19.2,19.2,0,0,1,2-2.81c.39-.55.63-.84,1-1.36.54-.76.49-.85.93-.89a6.76,6.76,0,0,1,.68.06,7.06,7.06,0,0,0,3.2-.52l.53-.26,1.67-1.51a4.43,4.43,0,0,1,.42-.5,1.22,1.22,0,0,1,.47-.74c0-.71.47-1.53.48-2.65a6.71,6.71,0,0,0-.59-2.73L70.06,3a1.23,1.23,0,0,1-.22-.24l-.12-.16L69,1.71c-.35-.32-.95-.58-1.24-1-.4,0-.07.15-.46-.15A6.74,6.74,0,0,0,64.11,0a7.79,7.79,0,0,0-2.34.65Z"/></g></g></svg>