<svg xmlns="http://www.w3.org/2000/svg" viewBox="0 0 70.87 55.89"><defs><style>.cls-1{fill:#00aa6e;fill-rule:evenodd;}</style></defs><title>Asset 1</title><g id="Layer_2" data-name="Layer 2"><g id="Layer_1-2" data-name="Layer 1"><path class="cls-1" d="M27.29,54.3c0-1.83.8-4.54,1-6.48H42.6c.17,1.9,1,4.71,1,6.48ZM58.17,39.7l2.34.06L60,38.55H57.75l.43,1.16Zm1.54,3.21,2.41,0a7.63,7.63,0,0,0-.67-1.2H59.26l.45,1.18Zm-1.22-2.79L59,41.24l2.29.07c-.27-.95-.4-1.27-1.35-1.25a5.8,5.8,0,0,0-1.45.06Zm-19.35-.45,2.61.1-.13-1.18-2.53-.05,0,1.14Zm-12.79,0,2.36,0c.3-.18.18-.07.3-.45,0-.11.08-.58.09-.73-2.79-.07-2.47-.41-2.76,1.12Zm-9.55,0h2.38a2,2,0,0,0,.54-1.17l-2.36-.06a1.81,1.81,0,0,0-.55,1.23Zm6.36-.09a9.9,9.9,0,0,0,2.6.09L26,38.62c-3.45-.14-2.28-.27-2.83,1Zm-12.75.06.49,0h1.54l.55,0,.44-1.17H10.91l-.49,1.17Zm9.57,0h2.6l.25-1.22H20.3L20,39.75Zm28.77,0h2.57L51,38.54H48.5l.26,1.22ZM35.21,42.87l2.81.06-.12-1.18-2.56,0-.13,1.14ZM13.57,39.75h2.38c.4-.24.13.13.4-.48a5.11,5.11,0,0,0,.21-.74l-2.55,0-.44,1.2Zm16,0h2.63V38.54H29.69l-.13,1.22Zm-4.23,2L25,42.93l2.79,0,.13-1.11-2.61-.08Zm22-1.66.26,1.18h2.64a2.32,2.32,0,0,0-.15-.69c-.27-.68,0-.49-2.75-.51Zm-4.79-.31H45c-.23-1.57,0-1.22-2.76-1.21.21,1.46.06,1,.4,1.21Zm-9.8,0,2.59,0v-1.1a7.16,7.16,0,0,0-2.58,0v1.16Zm3.16,0h2.62l-.09-1.17L38,38.53H36v1.22Zm9.6,0a8.1,8.1,0,0,0,2.58,0c-.34-1.42.25-1.13-2.79-1.13l.21,1.17Zm-11.09.35v1.19l.56.06h1.54l.55,0,0-1.13-2.63-.07Zm17.79,2.85,2.81,0a8,8,0,0,0-.59-1.2H52l.28,1.18ZM28,40.08l-.17,1.22h2.4c.43-.27.11.15.29-.46,0-.09.09-.63.11-.76Zm3.8,2.83,2.78,0,0-1.2H32l-.16,1.18Zm9.11-2.84.1,1.18.58.06h1.54l.54,0a2.57,2.57,0,0,0-.26-1.18Zm-25.87,0-.43,1.22h2.7l.39-1.17-2.66,0Zm30.36,2.83,2.75,0-.27-1.21H45.29l.13,1.18Zm3.39-.06,2.8.09c-.18-.78-.13-1.19-.88-1.23s-1.46,0-2.12,0l.2,1.12Zm-27.3-2.79-.25,1.24h2.66l.25-1.17-2.66-.06Zm-3.57,1.19,2.5.06a1.45,1.45,0,0,0,.43-1.18,10,10,0,0,0-2-.06c-.69,0-.54-.1-1,1.18Zm19.77-1.19v1.17a7.86,7.86,0,0,0,2.72,0l-.12-1.07-2.6-.07Zm-9.28,2.85,2.79,0,0-1.2H28.63l-.2,1.18Zm10.23-1.16,0,1.18h1.73l1.06,0-.15-1.15-.35,0H38.65ZM24.79,40.06l-.26,1.19,2.5.06c.38-.31.3-.75.4-1.23l-2.64,0ZM18.2,42.92H21a3.22,3.22,0,0,0,.23-1.19H18.68l-.48,1.19Zm42.35,1.82H63a7.9,7.9,0,0,0-.74-1.32l-2.3,0,.55,1.37Zm-16.4-4.65a5.1,5.1,0,0,0,.07.66c.16.69-.23.56,2.28.56.4,0,.18,0,.5-.11l-.29-1.13-2.58,0Zm-12.92,0-.11,1.15.53.08h1.68c.4,0,.18,0,.5-.11l0-1.11Zm19.37,0c0,.22.11.55.17.73.19.53.09.66,2.33.51l.5-.07-.38-1.11-2.63-.07Zm-29,2.83.51.05h2.29l.2-1.18H22a6,6,0,0,0-.42,1.16Zm20.44,0h2.77c-.1-.85,0-1.18-.81-1.21-.64,0-1.4,0-2.06,0l.1,1.18Zm-27.19,0h2.5c.37-.08.5-.49.57-1.2-.66,0-1.49,0-2.12,0s-.6,0-.95,1.21Zm18.74,1.81h2.83l0-1.32-2.7,0-.09,1.35Zm10.55,0H47l-.26-1.3L44,43.37l.15,1.37Zm3.51,0h2.83l-.35-1.33-2.73,0,.25,1.35Zm-7,0h2.85l-.2-1.33-2.74,0,.09,1.35Zm-21.13,0,2.88,0,.31-1.36H19.94l-.44,1.31Zm-3.5,0,2.87,0,.38-1.35H16.51L16,44.69Zm10.54,0h2.85l.17-1.36H26.81l-.27,1.35Zm-3.51,0h2.86l.23-1.35H23.38L23,44.73Zm-10.56,0h2.65c.4-.2.61-.88.67-1.36H13.07a12.12,12.12,0,0,0-.6,1.35Zm24.65,0H40l-.11-1.25a9.55,9.55,0,0,0-2.74-.11v1.36Zm-7,0h2.8L33,43.48a7,7,0,0,0-2.05-.12c-1,0-.84.29-.82,1.37Zm16.12,2h2.93l-.31-1.44L46,45.19l.25,1.51Zm7.34-.06,2.95.06c-.1-.55-.28-1.28-.75-1.5H53.15l.42,1.43Zm-43,0h3L14,45.21H11.19l-.66,1.48Zm3.66,0h2.93l.46-1.46-2.87,0-.52,1.49Zm3.63,0,2.95,0,.38-1.5H18.27l-.45,1.46ZM61,46.7H64l-.72-1.49H60.41L61,46.7Zm-11.16,0H52.8l-.42-1.5H49.52l.35,1.49Zm-43,0,3,0a9.8,9.8,0,0,0,.63-1.5H7.63l-.75,1.47Zm50.43,0h2.92c-.1-.45-.35-1.27-.82-1.5H56.77l.54,1.5Zm-14.72,0h2.93c-.15-2,0-1.5-3.08-1.5l.14,1.5Zm-34.71-2,3.73,0a2,2,0,0,0,.75-1.36H8.58c-.23.4-.44.93-.7,1.31Zm2.46-4.62a2.21,2.21,0,0,0-.7,1.22H14l.48-1.13c-.52-.27-3-.08-4.13-.08ZM8.8,42.93l5.33,0,.52-1.19C9.75,41.9,9.55,41,8.8,42.93Zm43.14-3.18h5.62l-.42-1.16-.54-.07H52.13l-.55,0,.36,1.18Zm1.88.31c.38,1.57.43,1.08,1,1.32s.64.86.86,1.53l3.46,0c-.3-.93-.94-1.87-1.19-2.85l-4.09,0Zm-2.66,4.67h8.72a8.39,8.39,0,0,0-.61-1.36H50.81l.36,1.36ZM21.49,46.58c.88.35,17.84.11,20.38.11l-.13-1.5H21.81l-.32,1.39ZM10.89,2.93H60V4.24L59.9,30.37h-49V2.93Zm-2.07.19v29.3c0,1.4.06,2.65,1.53,2.65H60.68c1.87,0,1.37-3.13,1.37-5.17V4.66C62-.94,62.81.09,54.79,0H12.73C9.32,0,8.82-.54,8.82,3.12Zm.79,36.56a8.56,8.56,0,0,0,1-2.55l49.51,0c.3,1.15,4.4,9,4.66,10H6.08l3.53-7.48ZM2.21,55.82H66.56c1.15,0,2.9.32,3.67-.38,1.13-1,.5-1.7-.06-2.8C68.85,50,62.63,37.82,61.92,36.08l-32.37,0c-6.31,0-13.94-.12-20,0l-.55,0C8,38.53.07,53.37,0,54.17a1.58,1.58,0,0,0,.64,1.26,2,2,0,0,0,1.57.38Z"/></g></g></svg>