<?xml version="1.0" encoding="utf-8"?>
<!-- Generator: Adobe Illustrator 21.1.0, SVG Export Plug-In . SVG Version: 6.00 Build 0)  -->
<svg version="1.1" id="Layer_1" xmlns="http://www.w3.org/2000/svg" xmlns:xlink="http://www.w3.org/1999/xlink" x="0px" y="0px"
	 viewBox="0 0 57 73" style="enable-background:new 0 0 57 73;" xml:space="preserve">
<style type="text/css">
	.st0{fill:#FFFFFF;}
	.st1{fill:#456480;}
</style>
<g>
	<g>
		<g>
			<path class="st0" d="M18.2,7.4C8.8,12.1,3.7,22,5.3,32.4c0.5,3.6,2.1,6.8,4,9.8c3.8,6,8.2,11.5,12.7,17c2.1,2.5,4.2,5,6.5,7.6
				c0.2-0.3,0.3-0.4,0.4-0.6c2.8-3.3,5.7-6.6,8.4-9.9c4.2-5.2,8.3-10.4,11.7-16.2c2.9-4.9,3.6-10.3,2.6-15.8
				C48.9,9.1,32,0.6,18.2,7.4z M28.4,42.1c-7.2,0-13.3-6.2-13.3-13.4c0-7.6,6-13.6,13.5-13.6c7,0,13.3,5.5,13.4,13.4
				C42,36.4,36,42.1,28.4,42.1z"/>
			<g>
				<g>
					<path class="st1" d="M28.6,0c-1.5,0.1-2.9,0.2-4.4,0.4C8.7,2.6-2.3,17.9,0.4,33.3c0.9,4.9,3,9.1,5.7,13.1
						c6.1,9,13,17.2,20.2,25.3c1.4,1.6,2.9,1.7,4.3,0c4.7-5.5,9.4-10.9,13.9-16.6c3.1-4,6-8.1,8.6-12.4c3.5-5.7,4.5-12,3.5-18.6
						C54.5,10.4,42.6,0.1,28.6,0z M49,40.1c-3.4,5.8-7.4,11.1-11.7,16.2c-2.7,3.4-5.6,6.6-8.4,9.9c-0.1,0.1-0.2,0.3-0.4,0.6
						c-2.3-2.7-4.4-5.1-6.5-7.6c-4.5-5.4-9-11-12.7-17c-1.9-3-3.5-6.2-4-9.8C3.7,22,8.8,12.1,18.2,7.4C32,0.6,48.9,9.1,51.6,24.3
						C52.6,29.9,51.9,35.2,49,40.1z"/>
				</g>
			</g>
			<g>
				<g>
					<path class="st1" d="M28.6,15.2c-7.5,0-13.5,6-13.5,13.6c0,7.2,6.1,13.4,13.3,13.4c7.6,0,13.6-5.7,13.6-13.5
						C41.9,20.7,35.6,15.2,28.6,15.2z M28.4,37.2c-4.6,0-8.5-3.9-8.4-8.6c0-4.8,3.8-8.5,8.7-8.5c5.1,0.1,8.5,4.6,8.2,8.5
						C37.2,32.7,33.7,37.2,28.4,37.2z"/>
				</g>
			</g>
		</g>
	</g>
</g>
</svg>
