<?xml version="1.0" encoding="utf-8"?>
<!-- Generator: Adobe Illustrator 23.0.3, SVG Export Plug-In . SVG Version: 6.00 Build 0)  -->
<svg version="1.1" id="Layer_1" xmlns="http://www.w3.org/2000/svg" xmlns:xlink="http://www.w3.org/1999/xlink" x="0px" y="0px"
	 viewBox="0 0 399 353" style="enable-background:new 0 0 399 353;" xml:space="preserve">
<style type="text/css">
	.st0{fill:#458C5E;}
	.st1{fill:#2F6A46;}
	.st2{fill:#FFFFFF;}
	.st3{fill:#E0E0E0;}
	.st4{fill:#3E4447;}
	.st5{fill:#D49A6C;}
	.st6{fill:#EAC3A4;}
	.st7{fill:#FDFFFE;}
	.st8{fill:#DCDCDC;}
	.st9{fill:#505457;}
	.st10{fill:#383C40;}
	.st11{fill:#5B6366;}
	.st12{fill:#FF9D00;}
	.st13{fill:#FFCA00;}
	.st14{fill:#EFF2F4;}
	.st15{fill:#213257;}
	.st16{fill:#CADFEA;}
</style>
<g>
	<g>
		<path class="st0" d="M247.3,0c-12.1,0-22,9.9-22,22v81.5c0,12.1,9.9,22,22,22h26.2l-11.7,35.1c-1.2,3.4,0.5,4.7,3.6,2.9l46.8-27.9
			V0H247.3z"/>
		<path class="st1" d="M312.2,120.7v14.9l-46.8,27.9c-3.1,1.9-4.7,0.6-3.6-2.9l4.1-12.3L312.2,120.7z"/>
		<path class="st1" d="M377,0h-64.9v135.6l14.9-8.9c0.7-0.4,1.2-0.8,1.5-1.2H377c12.1,0,22-9.9,22-22V22C399,9.9,389.1,0,377,0z"/>
	</g>
	<g>
		<path class="st2" d="M243.2,24.2c0.3,0.6,0.7,1.2,1,2c0.4,0.8,0.8,1.7,1.2,2.6c0.4,0.9,0.9,1.9,1.3,2.9c0.4,1,0.8,1.9,1.2,2.8
			c0.4-0.9,0.8-1.8,1.2-2.8c0.4-1,0.8-2,1.3-2.9c0.4-0.9,0.8-1.8,1.2-2.6c0.4-0.8,0.7-1.5,1-2h3.6c0.2,1.2,0.3,2.5,0.5,3.9
			c0.1,1.4,0.3,2.9,0.4,4.5c0.1,1.5,0.2,3.1,0.3,4.7c0.1,1.6,0.2,3,0.2,4.4h-3.8c-0.1-1.7-0.1-3.5-0.2-5.5c-0.1-2-0.2-4-0.4-6
			c-0.3,0.7-0.6,1.5-1,2.3c-0.4,0.9-0.7,1.7-1.1,2.6s-0.7,1.7-1,2.5c-0.3,0.8-0.6,1.4-0.9,2h-2.7c-0.2-0.6-0.5-1.2-0.9-2
			c-0.3-0.8-0.7-1.6-1-2.5s-0.7-1.7-1.1-2.6c-0.4-0.9-0.7-1.6-1-2.3c-0.2,2-0.3,4-0.4,6c-0.1,2-0.2,3.8-0.2,5.5H238
			c0.1-1.4,0.1-2.8,0.2-4.4c0.1-1.6,0.2-3.1,0.3-4.7c0.1-1.5,0.2-3,0.4-4.5c0.1-1.4,0.3-2.7,0.5-3.9H243.2z"/>
		<path class="st2" d="M263.5,41.6V24.2h3.9v10.3c0.6-0.9,1.2-1.8,1.9-2.8c0.7-1,1.4-1.9,2.1-2.8c0.7-0.9,1.4-1.8,2-2.6
			c0.7-0.8,1.3-1.5,1.8-2h3.2v17.4h-3.9V30.2c-1.5,1.7-2.9,3.6-4.2,5.5c-1.3,1.9-2.5,3.9-3.6,5.9H263.5z"/>
		<path class="st2" d="M295.4,24.2h3.9v17.4h-3.9v-7.4h-6.6v7.4h-3.9V24.2h3.9v6.7h6.6V24.2z"/>
		<path class="st2" d="M305.8,41.6V24.2h3.9v10.3c0.6-0.9,1.2-1.8,1.9-2.8c0.7-1,1.4-1.9,2.1-2.8c0.7-0.9,1.4-1.8,2-2.6
			c0.7-0.8,1.3-1.5,1.8-2h3.2v17.4h-3.9V30.2c-1.5,1.7-2.9,3.6-4.2,5.5c-1.3,1.9-2.5,3.9-3.6,5.9H305.8z"/>
		<path class="st2" d="M331.8,24.2c0.3,0.6,0.7,1.2,1,2c0.4,0.8,0.8,1.7,1.2,2.6c0.4,0.9,0.9,1.9,1.3,2.9c0.4,1,0.8,1.9,1.2,2.8
			c0.4-0.9,0.8-1.8,1.2-2.8c0.4-1,0.8-2,1.3-2.9c0.4-0.9,0.8-1.8,1.2-2.6c0.4-0.8,0.7-1.5,1-2h3.6c0.2,1.2,0.3,2.5,0.5,3.9
			c0.1,1.4,0.3,2.9,0.4,4.5c0.1,1.5,0.2,3.1,0.3,4.7c0.1,1.6,0.2,3,0.2,4.4h-3.8c0-1.7-0.1-3.5-0.2-5.5c-0.1-2-0.2-4-0.4-6
			c-0.3,0.7-0.6,1.5-1,2.3c-0.4,0.9-0.7,1.7-1.1,2.6c-0.4,0.9-0.7,1.7-1,2.5c-0.3,0.8-0.6,1.4-0.9,2h-2.7c-0.2-0.6-0.5-1.2-0.9-2
			c-0.3-0.8-0.7-1.6-1-2.5c-0.4-0.9-0.7-1.7-1.1-2.6c-0.4-0.9-0.7-1.6-1-2.3c-0.2,2-0.3,4-0.4,6c-0.1,2-0.2,3.8-0.2,5.5h-3.8
			c0.1-1.4,0.1-2.8,0.2-4.4c0.1-1.6,0.2-3.1,0.3-4.7c0.1-1.5,0.2-3,0.4-4.5c0.1-1.4,0.3-2.7,0.5-3.9H331.8z"/>
		<path class="st2" d="M361.4,36.5c-0.5,1.1-1,2-1.5,2.7c-0.5,0.7-1.1,1.3-1.7,1.7c-0.6,0.4-1.1,0.7-1.7,0.8
			c-0.6,0.2-1.2,0.2-1.8,0.2c-0.6,0-1.2-0.1-1.8-0.2c-0.6-0.1-1.2-0.3-1.7-0.5l0.7-3.1c0.8,0.3,1.6,0.5,2.5,0.5c0.5,0,1-0.1,1.5-0.4
			c0.5-0.2,0.9-0.7,1.4-1.5c-0.7-1.1-1.4-2.2-2-3.3c-0.6-1.1-1.2-2.2-1.8-3.3c-0.6-1.1-1.1-2.2-1.6-3.2c-0.5-1-0.9-1.9-1.3-2.8h4.3
			c0.3,0.7,0.6,1.4,0.9,2.1c0.3,0.7,0.7,1.5,1,2.3c0.4,0.8,0.7,1.6,1.1,2.4c0.4,0.8,0.7,1.6,1.1,2.3c0.5-1.5,1.1-3,1.5-4.5
			c0.5-1.5,1-3.1,1.4-4.6h4.2c-0.4,1.3-0.9,2.5-1.3,3.6c-0.4,1.1-0.8,2.2-1.2,3.2c-0.4,1-0.8,2-1.2,2.9
			C362.2,34.8,361.8,35.6,361.4,36.5z"/>
		<path class="st2" d="M375.3,24.2c0.3,0.6,0.7,1.2,1,2c0.4,0.8,0.8,1.7,1.2,2.6c0.4,0.9,0.9,1.9,1.3,2.9c0.4,1,0.8,1.9,1.2,2.8
			c0.4-0.9,0.8-1.8,1.2-2.8c0.4-1,0.8-2,1.3-2.9c0.4-0.9,0.8-1.8,1.2-2.6c0.4-0.8,0.7-1.5,1-2h3.6c0.2,1.2,0.3,2.5,0.5,3.9
			c0.1,1.4,0.3,2.9,0.4,4.5c0.1,1.5,0.2,3.1,0.3,4.7c0.1,1.6,0.2,3,0.2,4.4h-3.8c-0.1-1.7-0.1-3.5-0.2-5.5c-0.1-2-0.2-4-0.4-6
			c-0.3,0.7-0.6,1.5-1,2.3c-0.4,0.9-0.7,1.7-1.1,2.6c-0.4,0.9-0.7,1.7-1,2.5c-0.3,0.8-0.6,1.4-0.9,2h-2.7c-0.2-0.6-0.5-1.2-0.9-2
			c-0.3-0.8-0.7-1.6-1-2.5c-0.4-0.9-0.7-1.7-1.1-2.6c-0.4-0.9-0.7-1.6-1-2.3c-0.2,2-0.3,4-0.4,6c-0.1,2-0.2,3.8-0.2,5.5h-3.8
			c0.1-1.4,0.1-2.8,0.2-4.4c0.1-1.6,0.2-3.1,0.3-4.7c0.1-1.5,0.2-3,0.4-4.5c0.1-1.4,0.3-2.7,0.5-3.9H375.3z"/>
		<path class="st2" d="M249.3,52.5v2.9h-4.5v12.1h-3.4V55.4h-4.5v-2.9H249.3z"/>
		<path class="st2" d="M256,52.3c2.2,0,3.9,0.4,5.1,1.2s1.8,2.1,1.8,3.8c0,1.8-0.6,3.1-1.8,3.9c-1.2,0.8-2.9,1.2-5.2,1.2h-1.1v5
			h-3.4V52.7c0.7-0.1,1.5-0.2,2.3-0.3C254.6,52.4,255.3,52.3,256,52.3z M256.2,55.2c-0.2,0-0.5,0-0.7,0c-0.2,0-0.4,0-0.6,0v4.3h1.1
			c1.2,0,2-0.2,2.6-0.5c0.6-0.3,0.9-0.9,0.9-1.8c0-0.4-0.1-0.8-0.2-1c-0.2-0.3-0.4-0.5-0.6-0.7c-0.3-0.2-0.6-0.3-1-0.3
			C257.1,55.2,256.7,55.2,256.2,55.2z"/>
		<path class="st2" d="M265.3,67.4V52.5h10.1v2.8h-6.7v2.9h6V61h-6v3.6h7.2v2.8H265.3z"/>
		<path class="st2" d="M281.6,55.4v2.5h1.1c1.1,0,2.1,0.1,3,0.3c0.9,0.2,1.6,0.5,2.2,0.8c0.6,0.4,1.1,0.9,1.4,1.5
			c0.3,0.6,0.5,1.4,0.5,2.3c0,1.7-0.6,2.9-1.8,3.7c-1.2,0.8-2.9,1.2-5.1,1.2c-0.6,0-1.3,0-2.1-0.1c-0.8-0.1-1.5-0.2-2.3-0.4V52.5
			h9.9v2.8H281.6z M282.9,64.7c0.4,0,0.9,0,1.3-0.1c0.4-0.1,0.8-0.2,1.1-0.3s0.6-0.4,0.7-0.6c0.2-0.3,0.3-0.6,0.3-1
			c0-0.4-0.1-0.8-0.3-1.1c-0.2-0.3-0.4-0.5-0.7-0.6c-0.3-0.2-0.7-0.3-1.2-0.3c-0.5-0.1-1-0.1-1.6-0.1h-1v4.1c0.2,0,0.3,0,0.6,0
			C282.4,64.7,282.7,64.7,282.9,64.7z"/>
		<path class="st2" d="M306.6,60c0,1.3-0.2,2.4-0.6,3.4c-0.4,1-0.9,1.8-1.6,2.4c-0.7,0.7-1.4,1.1-2.4,1.5c-0.9,0.3-1.9,0.5-2.9,0.5
			c-1,0-2-0.2-2.9-0.5c-0.9-0.3-1.7-0.8-2.4-1.5c-0.7-0.7-1.2-1.5-1.6-2.4c-0.4-1-0.6-2.1-0.6-3.4c0-1.3,0.2-2.4,0.6-3.4
			s0.9-1.8,1.6-2.4c0.7-0.7,1.5-1.2,2.4-1.5c0.9-0.3,1.8-0.5,2.8-0.5c1,0,2,0.2,2.9,0.5c0.9,0.3,1.7,0.8,2.4,1.5
			c0.7,0.7,1.2,1.5,1.6,2.4C306.4,57.6,306.6,58.7,306.6,60z M295.2,60c0,0.7,0.1,1.4,0.3,2c0.2,0.6,0.4,1.1,0.8,1.5
			c0.3,0.4,0.8,0.8,1.2,1c0.5,0.2,1,0.3,1.7,0.3c0.6,0,1.2-0.1,1.7-0.3c0.5-0.2,0.9-0.6,1.3-1c0.3-0.4,0.6-0.9,0.8-1.5
			c0.2-0.6,0.3-1.2,0.3-2c0-0.7-0.1-1.4-0.3-2c-0.2-0.6-0.4-1.1-0.8-1.5c-0.3-0.4-0.8-0.8-1.3-1c-0.5-0.2-1.1-0.3-1.7-0.3
			c-0.6,0-1.2,0.1-1.7,0.4c-0.5,0.2-0.9,0.6-1.2,1c-0.3,0.4-0.6,0.9-0.8,1.5C295.3,58.6,295.2,59.3,295.2,60z"/>
		<path class="st2" d="M314.4,67.6c-0.8,0-1.6,0-2.4-0.1c-0.8,0-1.7-0.2-2.5-0.4V52.7c0.7-0.1,1.4-0.2,2.3-0.3
			c0.8-0.1,1.6-0.1,2.3-0.1c0.9,0,1.8,0.1,2.6,0.2c0.8,0.1,1.5,0.4,2.1,0.7c0.6,0.3,1,0.8,1.3,1.3c0.3,0.5,0.5,1.2,0.5,2
			c0,1.2-0.6,2.1-1.7,2.8c0.9,0.4,1.6,0.8,1.9,1.5c0.3,0.6,0.5,1.3,0.5,2.1c0,1.6-0.6,2.7-1.7,3.5C318.4,67.2,316.7,67.6,314.4,67.6
			z M312.7,58.4h1.6c1,0,1.8-0.1,2.2-0.4c0.4-0.3,0.7-0.7,0.7-1.3c0-0.6-0.2-1-0.7-1.3c-0.5-0.2-1.1-0.4-2-0.4c-0.3,0-0.6,0-0.9,0
			c-0.3,0-0.6,0-0.9,0.1V58.4z M312.7,60.9v3.9c0.2,0,0.5,0.1,0.8,0.1c0.3,0,0.6,0,0.9,0c1,0,1.8-0.1,2.4-0.4
			c0.6-0.3,0.9-0.8,0.9-1.6c0-0.7-0.3-1.2-0.8-1.5c-0.5-0.3-1.3-0.4-2.2-0.4H312.7z"/>
		<path class="st2" d="M333.7,67.4c-0.2-0.5-0.3-1.1-0.5-1.6c-0.2-0.5-0.4-1.1-0.6-1.6h-5.8c-0.2,0.5-0.4,1.1-0.6,1.6
			c-0.2,0.5-0.4,1.1-0.5,1.6h-3.5c0.6-1.6,1.1-3.1,1.6-4.5c0.5-1.4,1-2.7,1.5-3.9c0.5-1.2,1-2.4,1.4-3.4c0.5-1.1,1-2.1,1.5-3.2h3.2
			c0.5,1,1,2.1,1.5,3.2c0.5,1.1,1,2.2,1.4,3.4c0.5,1.2,1,2.5,1.5,3.9c0.5,1.4,1,2.9,1.6,4.5H333.7z M329.7,55.9
			c-0.1,0.2-0.2,0.5-0.3,0.9c-0.1,0.4-0.3,0.8-0.5,1.3c-0.2,0.5-0.4,1-0.6,1.6s-0.5,1.2-0.7,1.8h4.3c-0.2-0.6-0.4-1.3-0.7-1.9
			c-0.2-0.6-0.4-1.1-0.6-1.6c-0.2-0.5-0.4-0.9-0.5-1.3C329.9,56.4,329.8,56.1,329.7,55.9z"/>
		<path class="st2" d="M348.2,52.5h3.4v14.9h-3.4v-6.3h-5.6v6.3h-3.4V52.5h3.4v5.7h5.6V52.5z"/>
		<path class="st2" d="M355,67.4V52.5h3.3v8.8c0.5-0.8,1.1-1.6,1.7-2.4c0.6-0.8,1.2-1.7,1.8-2.4c0.6-0.8,1.2-1.5,1.8-2.2
			c0.6-0.7,1.1-1.3,1.6-1.7h2.7v14.9h-3.3v-9.8c-1.3,1.5-2.5,3.1-3.6,4.7c-1.1,1.7-2.2,3.4-3.1,5.1H355z"/>
		<path class="st2" d="M371.3,67.4V52.5h3.3v8.8c0.5-0.8,1.1-1.6,1.7-2.4c0.6-0.8,1.2-1.7,1.8-2.4c0.6-0.8,1.2-1.5,1.8-2.2
			c0.6-0.7,1.1-1.3,1.6-1.7h2.7v14.9h-3.3v-9.8c-1.3,1.5-2.5,3.1-3.6,4.7c-1.1,1.7-2.2,3.4-3.1,5.1H371.3z M378,51.2
			c-0.5,0-0.9-0.1-1.3-0.2c-0.4-0.1-0.8-0.3-1.2-0.6c-0.3-0.3-0.6-0.6-0.9-1c-0.2-0.4-0.4-0.8-0.4-1.3l2.2-0.6
			c0.1,0.5,0.3,0.9,0.6,1.2c0.3,0.2,0.6,0.3,0.9,0.3c0.4,0,0.7-0.1,1-0.3c0.3-0.2,0.5-0.6,0.6-1.2l2.2,0.6c0,0.5-0.2,0.9-0.4,1.3
			c-0.2,0.4-0.5,0.7-0.8,1c-0.3,0.3-0.7,0.5-1.2,0.6C378.9,51.1,378.5,51.2,378,51.2z"/>
		<path class="st2" d="M391,65.7c0,0.6-0.2,1.1-0.6,1.5c-0.4,0.3-0.9,0.5-1.4,0.5c-0.5,0-1-0.2-1.4-0.5c-0.4-0.3-0.6-0.8-0.6-1.5
			c0-0.6,0.2-1.1,0.6-1.5c0.4-0.3,0.9-0.5,1.4-0.5c0.5,0,1,0.2,1.4,0.5C390.8,64.6,391,65.1,391,65.7z M390.7,56.4
			c0,1.2,0,2.2-0.1,3.3c-0.1,1-0.2,2-0.3,3.1h-2.5c-0.1-1-0.3-2.1-0.4-3.1c-0.1-1-0.1-2.1-0.1-3.3v-3.9h3.4V56.4z"/>
	</g>
	<g>
		<g>
			<path class="st2" d="M56.3,50.4c-14.1,0-25.4,11.4-25.4,25.5v208.9c0,14.1,11.4,25.5,25.4,25.5h72V50.4H56.3z"/>
			<path class="st2" d="M200.3,50.4h-72v259.9h72c14.1,0,25.4-11.4,25.4-25.5V75.9C225.7,61.8,214.3,50.4,200.3,50.4z"/>
			<path class="st2" d="M31.1,288.1c1.6,12.5,12.3,22.2,25.2,22.2h144c12.9,0,23.6-9.7,25.2-22.2H31.1z"/>
			<path class="st3" d="M147.3,50.4h-7.2H25.2C12.3,50.4,1.6,60.1,0,72.6h140.2h7.2H175c1.6-12.5,12.3-22.2,25.2-22.2H147.3z"/>
			<path class="st3" d="M108.1,310.3h7.2h114.9c12.9,0,23.6-9.7,25.2-22.2H115.3h-7.2H80.4c-1.6,12.5-12.3,22.2-25.2,22.2H108.1z"/>
		</g>
		<g>
			<path class="st1" d="M81.7,236.1c-8.2-4.8-18.7-2-23.5,6.2c-4.8,8.2-2,18.7,6.2,23.5c8.2,4.8,18.7,2,23.5-6.2
				C92.6,251.4,89.8,240.8,81.7,236.1z"/>
			<g>
				<g>
					<g>
						<path class="st1" d="M93.7,265.4c-7.4,10.7-21.9,14-33.3,7.4c-6.5-3.8-10.7-10.1-12.1-17l-3.4-0.7c1.2,8.3,6,16,13.8,20.5
							c13.3,7.7,30.2,3.4,38.3-9.5L93.7,265.4z"/>
						<path class="st1" d="M52.4,236.5c7.4-10.7,21.9-14,33.3-7.4c6.5,3.8,10.7,10.1,12.1,17l3.4,0.7c-1.2-8.3-6-16-13.8-20.5
							c-13.3-7.7-30.2-3.4-38.3,9.5L52.4,236.5z"/>
					</g>
				</g>
				
					<rect x="66.1" y="215.3" transform="matrix(0.2071 -0.9783 0.9783 0.2071 -187.5933 270.4353)" class="st1" width="13.8" height="71.3"/>
			</g>
		</g>
		<rect x="44.3" y="139.3" class="st4" width="162.6" height="28.6"/>
		<rect x="69.4" y="93.1" class="st0" width="112.4" height="28.6"/>
		<rect x="44.3" y="185.5" class="st4" width="162.6" height="28.6"/>
	</g>
	<g>
		<g>
			<g>
				<path class="st4" d="M284.1,333.3l-14.6-107v0l-0.6-2c0.5,15.3,1.2,67.3,1.8,109.1H284.1z"/>
			</g>
			<g>
				<rect x="175.7" y="167.4" class="st5" width="22.3" height="38.2"/>
				<rect x="198" y="167.4" class="st6" width="21.1" height="38.2"/>
			</g>
			<g>
				<polygon class="st7" points="251.9,333.3 267.7,209.9 242.4,198.4 242.4,198.4 237,196 227.4,191.7 224.9,190.5 219.1,192.3 
					198.1,198.8 198,198.9 198,333.3 				"/>
				<polygon class="st8" points="127.6,212.1 142.9,333.3 198,333.3 198,198.9 197.4,199 175.7,192.3 169.9,190.5 168.4,191.2 
					157.8,196 154,197.7 127.6,209.6 127.1,209.9 127.1,209.9 127.1,210 				"/>
			</g>
			<g>
				<path class="st9" d="M139.7,99.9c0,34.4,26.1,62.3,58.3,62.3V43.9C161,43.9,139.7,65.5,139.7,99.9z"/>
				<path class="st10" d="M198,43.9v118.2c32.2,0,58.3-27.9,58.3-62.3C256.2,65.5,238.1,43.9,198,43.9z"/>
			</g>
			<g>
				<path class="st6" d="M148.6,121.2c0,32.7,22.5,59.2,50.3,59.2V62C171.1,62,148.6,88.5,148.6,121.2z"/>
				<path class="st5" d="M198.9,62v118.3c27.8,0,50.3-26.5,50.3-59.2C249.2,88.5,226.7,62,198.9,62z"/>
			</g>
			<g>
				<path class="st6" d="M165.5,126c0,7.5-5.1,13.6-11.4,13.6c-6.3,0-11.4-6.1-11.4-13.6c0-7.5,5.1-13.6,11.4-13.6
					C160.4,112.4,165.5,118.5,165.5,126z"/>
				<path class="st5" d="M253.3,126c0,7.5-5.1,13.6-11.4,13.6c-6.3,0-11.4-6.1-11.4-13.6c0-7.5,5.1-13.6,11.4-13.6
					C248.1,112.4,253.3,118.5,253.3,126z"/>
			</g>
			<g>
				<path class="st9" d="M189.3,57.8c-1.8,0.9-10.7,2.9-16.2,7.6c-2.7-0.7-5.3-1.1-7.8-0.9c-16.9,0.8-18.8,51.3-18.8,51.3
					s7.3,24.3,9.5,20.4c3.1-5.6,0.8-30.5,1.2-34.4c1.7-17.2,8.9-23.3,20.5-24.6c2-0.2,11-0.4,20.3-0.4V55.6
					C193.7,56.6,189.9,57.5,189.3,57.8z"/>
				<path class="st10" d="M232.5,64.5c-2.5-0.1-5.1,0.3-7.8,0.9c-4.7-4-11.8-6-14.9-7.1l2.6-5.2c-1.9-0.2-8.7,1.1-14.4,2.4v21.3
					c9.9,0,20,0.1,22.1,0.4c11.6,1.3,18.8,7.4,20.5,24.6c0.4,3.8-1.9,28.8,1.2,34.4c2.2,3.9,9.5-20.4,9.5-20.4
					S249.4,65.4,232.5,64.5z"/>
			</g>
			<g>
				<polygon class="st0" points="198,333.3 198,208.2 187.7,208.2 182.3,307.5 186.5,333.3 				"/>
				<polygon class="st1" points="208.4,333.3 212.4,307.5 207.1,208.2 198,208.2 198,333.3 				"/>
			</g>
			<g>
				<path class="st1" d="M197.4,199.1l-12.3,5.6c-1.4,1.2-1.4,5.2,0,6.4l9.8,8.4c0.9,0.7,2,1,3.1,0.8v-20.9L197.4,199.1z"/>
				<path class="st0" d="M209.7,204.6l-11.8-5.3v20.9c0.7-0.1,1.4-0.3,2-0.8l9.8-8.4C211.1,209.8,211.1,205.8,209.7,204.6z"/>
			</g>
			<g>
				<polygon class="st7" points="175.7,213.1 154.8,193.2 173.9,188.9 197.4,199 				"/>
				<polygon class="st8" points="219.1,213.1 240,193.2 220.9,188.9 197.4,199 				"/>
			</g>
			<g>
				<path class="st4" d="M112,333.3l14.4-106.1l0.8-3c0.1-4.8,0.3-8.9,0.4-12c0-0.9,0-1.8,0.1-2.5c0.1-2.5,0.1-3.9,0.1-3.9
					c0,0-0.2,0.2-0.4,0.4c-1.4,1.3-6.3,5.2-8.9,8.3c-9.2,11.1-21,29.4-31.7,118.8H112z"/>
				<path class="st11" d="M125.4,333.3c0.6-41.7,1.3-93.8,1.8-109.1l-0.8,3L112,333.3H125.4z"/>
			</g>
			<g>
				<g>
					<path class="st4" d="M198,333.3v-16.1l-13.2-56.1l-11.9-50.8l-4.5-19.2l-0.2-1c-1.2,0.2-2.3,0.5-3.5,0.7c-0.1,0-0.2,0-0.3,0.1
						l-6.7,1.5c0,0-0.1,0-0.2,0l-0.2,0.1c-0.8,0.2-1.5,0.4-2.3,0.6c-4.9,1.2-9.6,2.7-13.8,4.3c-2.5,1-4.8,2.2-6.8,3.4
						c-2.3,1.4-7,5.2-7,5.2v0l-0.2,3.7l0,0.2l-0.7,17.1L124,333.3H198z"/>
					<polygon class="st11" points="150.4,234.5 159.2,213.9 148.6,206.4 157.1,192.7 168.2,190.2 198,317.2 					"/>
				</g>
				<g>
					<path class="st11" d="M271.9,333.3l-2.4-107v0l-0.9-20.1c0,0-0.1-0.1-0.2-0.2c-1-0.8-4.8-3.8-6.8-5c-2-1.2-4.3-2.4-6.8-3.4
						c-4.8-1.9-10.3-3.5-16-4.9l-0.4-0.1c-3.5-0.9-7.2-1.6-10.7-2.3l0,0.2l-0.3,1.3l-4,17.3l-5.1,21.5l-8.2,34.7v0l-12.1,51.5
						l-0.1,0.5v16.1H271.9z"/>
					<polygon class="st4" points="245.5,234.5 236.7,213.9 247.3,206.4 238.8,192.7 227.8,190.2 198,317.2 					"/>
				</g>
			</g>
		</g>
		<g>
			<g>
				<g>
					<path class="st10" d="M176.1,116c-3.2,0-5.8,2.6-5.8,5.8s2.6,5.8,5.8,5.8c3.2,0,5.7-2.6,5.7-5.8S179.3,116,176.1,116z"/>
				</g>
			</g>
			<g>
				<g>
					<path class="st10" d="M220.1,116c-3.2,0-5.8,2.6-5.8,5.8s2.6,5.8,5.8,5.8c3.2,0,5.8-2.6,5.8-5.8S223.2,116,220.1,116z"/>
				</g>
			</g>
		</g>
	</g>
	<path class="st11" d="M283.9,333.3l-14.4-106.1l-0.8-3c-0.1-4.8-0.3-8.9-0.4-12c0-0.9,0-1.8-0.1-2.5c-0.1-2.5-0.1-3.9-0.1-3.9
		c0,0,0.2,0.2,0.4,0.4c1.4,1.3,6.3,5.2,8.9,8.3c9.2,11.1,21,29.4,31.7,118.8H283.9z"/>
	<g>
		<path class="st12" d="M284.4,332.9c-4.9-1.8-7.5-7.2-5.8-12.2l34.8-98c1.8-4.9,7.2-7.5,12.1-5.8l54.9,19.6
			c4.9,1.8,7.5,7.2,5.8,12.2l-34.8,98c-1.8,4.9-7.2,7.5-12.1,5.8L284.4,332.9z"/>
		<g>
			<path class="st13" d="M363.3,256.1c4.7,1.7,9.9-0.8,11.6-5.5c1.7-4.7-0.8-10-5.5-11.6c-4.7-1.7-9.9,0.8-11.6,5.5
				C356.1,249.2,358.5,254.4,363.3,256.1z"/>
			<path class="st14" d="M359.3,267.3c4.7,1.7,9.9-0.8,11.6-5.5c1.7-4.7-0.8-9.9-5.5-11.6c-4.7-1.7-9.9,0.8-11.6,5.5
				C352.1,260.4,354.6,265.6,359.3,267.3z"/>
			<path class="st13" d="M355.3,278.4c4.7,1.7,9.9-0.8,11.6-5.5c1.7-4.7-0.8-9.9-5.5-11.6c-4.7-1.7-9.9,0.8-11.6,5.5
				C348.1,271.5,350.6,276.7,355.3,278.4z"/>
		</g>
		<g>
			<polygon class="st14" points="320.7,270.6 336.1,227.1 344.8,230.2 329.3,273.7 			"/>
			
				<rect x="307.6" y="232.8" transform="matrix(0.3349 -0.9422 0.9422 0.3349 -9.4987 461.3077)" class="st14" width="28.8" height="9.2"/>
			<polygon class="st14" points="305.8,269.4 312.3,250.9 321,254 314.4,272.4 			"/>
		</g>
		<g>
			<path class="st14" d="M338.9,338.3c0.1-0.1,0.2-0.3,0.3-0.4c0.1-0.1,0.2-0.2,0.2-0.3c1.7-2.5,3.1-5.1,4-7.8
				c2.9-8.3,2.6-17.7-1.5-26.2c-8.1-16.9-28.2-24.1-44.9-16.4l-0.8,0.4l-0.8,0.4c-1.6,0.9-3.2,2-4.7,3.1c-0.7,0.5-1.3,1.1-2,1.6
				l-2,5.7c1.4-1.6,2.9-3.1,4.5-4.4c-1.3,4.1-2,8.3-2.1,12.6c0,0.7,0,1.4,0,2.1c-2,0.2-4.1,0.2-6.1,0l-0.7,1.8
				c0.8,0.1,1.6,0.1,2.4,0.1c1.5,0,3,0,4.5-0.1c0.4,5.4,1.7,10.7,4,15.6l-11,5.3c-1.8-4-2.7-8.3-2.7-12.7l-0.7,2
				c-1.7,4.8,0.7,10,5.3,11.9l10-4.8c2.1,4.2,4.9,8,8.2,11.4l4.6,1.6c-0.3-0.3-0.7-0.5-1-0.8c3.1-3.1,6.8-5.7,10.8-7.8l7.1,14.7
				l4.2,1.5c1.6-1,3.1-2.1,4.6-3.3C334.9,343.2,337,340.9,338.9,338.3z M340.8,329.1c-1.9,5.5-5.2,10-9.3,13.5c1.3-4,2-8.1,2-12.4
				c0-0.9,0-1.8,0-2.7c2.6-0.2,5.2-0.1,7.8,0.2C341.1,328.2,341,328.7,340.8,329.1z M327.7,311.5c2.1,4.6,3.4,9.5,3.8,14.3
				c-4.8,0.5-9.6,1.8-14,3.8l-5.2-10.7L327.7,311.5z M311.5,317.2l-5.5-11.5c4.2-2.2,8.1-5,11.5-8.4c3.8,3.4,7,7.6,9.4,12.4
				L311.5,317.2z M341.8,325.9c-1.5-0.2-3.1-0.3-4.7-0.4c-1.2,0-2.5,0-3.7,0.1c-0.4-5.2-1.8-10.2-3.9-15l10.5-5.1
				C342.7,311.8,343.4,318.9,341.8,325.9z M339.1,303.9l-10.5,5.1c-2.5-4.9-5.8-9.3-9.8-12.9c0.9-1,1.8-2,2.6-3.1
				c0.9-1.1,1.6-2.3,2.4-3.5C330.5,292.4,335.8,297.6,339.1,303.9z M321.6,288.6c0.1,0,0.2,0.1,0.3,0.1c-1.3,2.1-2.9,4.2-4.6,6.1
				c-0.5-0.4-1-0.8-1.5-1.2c-3.4-2.6-7.1-4.6-11-6.1C310.2,286.3,316,286.6,321.6,288.6z M301.4,288.3c5.4,1.7,10.4,4.3,14.6,7.8
				c-3.1,3.1-6.8,5.8-10.9,7.9l-7-14.5C299.2,289.1,300.3,288.7,301.4,288.3z M293.9,291.9c0.8-0.5,1.7-1,2.6-1.5l7,14.4
				c-4.1,1.9-8.3,3.1-12.5,3.6C290.8,302.8,291.8,297.2,293.9,291.9z M291,310.3c4.6-0.6,9.1-1.8,13.3-3.8l5.5,11.5l-15,7.2
				C292.6,320.5,291.3,315.4,291,310.3z M304.4,338.8c-3.5-3.3-6.5-7.3-8.7-11.8l15-7.2l5.2,10.7
				C311.6,332.6,307.7,335.5,304.4,338.8z M325.7,346.6l-7.3-15.2c4.3-2,8.8-3.2,13.3-3.7c0.2,5.8-0.8,11.6-2.9,17.1
				C327.7,345.5,326.7,346,325.7,346.6z"/>
		</g>
	</g>
	<g>
		<g>
			
				<rect x="273.8" y="214.7" transform="matrix(0.9725 -0.2328 0.2328 0.9725 -56.8768 73.7446)" class="st15" width="20.6" height="126.3"/>
			<path class="st1" d="M322.5,333.6c5.2-1.3,8.5-6.6,7.2-11.8L305,218c-1.2-5.2-6.5-8.5-11.8-7.2l-13.9,3.3l29.4,122.8L322.5,333.6
				z"/>
			<path class="st1" d="M259.3,218.9l-24.3,5.8c-5.2,1.3-8.5,6.6-7.2,11.8l24.8,103.8c1.2,5.2,6.5,8.5,11.8,7.2l24.3-5.8
				L259.3,218.9z"/>
			<path class="st0" d="M262.3,347.8c0.7,0,1.4-0.1,2.2-0.2l4.3-1l-29.4-122.8l-4.3,1c-0.7,0.2-1.4,0.5-2.1,0.8L262.3,347.8z"/>
		</g>
		<g>
			<g>
				<path class="st14" d="M301.3,241.2l-1.1-0.6c0.4-0.8,0.5-1.5,0.3-2.3c-0.4-1.6-1.8-2.7-5-1.9c-3.1,0.7-4,2.3-3.6,4
					c0.2,1,0.8,1.6,1.4,2l-0.8,1c-0.7-0.4-1.6-1.3-1.9-2.8c-0.6-2.6,0.9-4.9,4.5-5.8c3.6-0.9,6,0.7,6.6,3.1
					C301.9,239.3,301.8,240.2,301.3,241.2z"/>
				<path class="st14" d="M301.2,247.8l-1.5,0.1c0-0.3,0-0.4-0.1-0.7c-0.2-1-1.1-1.4-2.8-1.4l-4.7,1.1l-0.3-1.4l8.2-2l0.3,1.2
					l-1.6,0.5c1.3,0.1,2.1,0.8,2.4,1.7C301.2,247.3,301.2,247.6,301.2,247.8z"/>
				<path class="st14" d="M298.4,256.6l-1.2-5.2c-1.9,0.6-2.4,1.7-2.1,2.8c0.2,0.8,0.6,1.4,1.2,2l-0.7,0.8c-0.8-0.7-1.4-1.5-1.7-2.6
					c-0.5-2.3,0.7-4,3.3-4.6c2.5-0.6,4.7,0.2,5.2,2.4c0.5,2.2-0.7,3.7-3.2,4.3C298.8,256.5,298.6,256.5,298.4,256.6z M299.2,254.9
					c1.6-0.4,2.3-1.2,2-2.5c-0.3-1.1-1.2-1.6-3-1.3L299.2,254.9L299.2,254.9z"/>
				<path class="st14" d="M296.9,266.1l-0.3-1.3l1.1-0.4c-0.9-0.3-1.6-1-1.9-2c-0.5-2,1-3.5,3.5-4.1c2.5-0.6,4.6,0.2,5.1,2.2
					c0.2,1,0,1.8-0.5,2.4l4.3-1l0.2,1.5L296.9,266.1z M298.7,264.2l4-1c0.5-0.7,0.8-1.3,0.6-2.1c-0.3-1.2-1.5-1.7-3.6-1.2
					c-2.2,0.5-3,1.4-2.7,2.6C297.2,263.4,297.8,263.8,298.7,264.2z"/>
				<path class="st14" d="M309.1,268.1c-0.5,0.1-1.1-0.2-1.2-0.8c-0.1-0.6,0.2-1.1,0.7-1.2c0.6-0.1,1.1,0.2,1.2,0.8
					C310,267.5,309.7,268,309.1,268.1z M297.6,269.1l8.2-2l0.3,1.4l-8.2,2L297.6,269.1z"/>
				<path class="st14" d="M299,275.8c-0.3-1.4,0.3-2.4,1.8-2.8l4.9-1.2l-0.3-1.4l1.1-0.3l0.3,1.4l1.8-0.4l0.5,1.4l-2,0.5l0.5,1.9
					l-1.1,0.1l-0.4-1.8l-4.9,1.2c-0.8,0.2-1.1,0.6-1,1.3c0.1,0.4,0.3,0.7,0.6,1l-0.8,0.8C299.5,277.1,299.2,276.5,299,275.8z"/>
				<path class="st14" d="M312.4,287.6l-1.1-0.6c0.4-0.8,0.5-1.5,0.3-2.3c-0.4-1.6-1.8-2.7-5-1.9c-3.1,0.7-4,2.3-3.6,4
					c0.2,1,0.8,1.6,1.4,2l-0.8,1c-0.7-0.4-1.6-1.3-1.9-2.8c-0.6-2.6,0.9-4.9,4.5-5.8c3.6-0.9,6,0.7,6.6,3.1
					C313.1,285.8,312.9,286.6,312.4,287.6z"/>
				<path class="st14" d="M305.3,297.9l-1.1-0.1c-0.1-0.8,0.1-1.4,0.8-1.9c-1-0.4-1.6-1.1-1.8-2.1c-0.4-1.6,0.4-2.8,1.8-3.2
					c1.8-0.4,3,0.7,3.6,3l0.3,1.3l0.6-0.1c1.2-0.3,1.5-1,1.2-2.1c-0.1-0.6-0.5-1.3-1-2.1l1-0.6c0.6,0.9,1,1.8,1.2,2.7
					c0.5,2-0.3,3.1-2,3.5l-3.7,0.9C305.6,297.1,305.4,297.4,305.3,297.9z M306.2,295.5l1.9-0.4l-0.3-1.1c-0.4-1.5-1.1-2.1-2.2-1.9
					c-1,0.2-1.4,0.8-1.1,1.8C304.6,294.7,305.2,295.2,306.2,295.5z"/>
				<path class="st14" d="M314.4,302.7l-1.5,0.1c0-0.3,0-0.4-0.1-0.7c-0.2-1-1.1-1.4-2.8-1.4l-4.7,1.1l-0.3-1.4l8.2-2l0.3,1.2
					l-1.6,0.5c1.3,0.1,2.1,0.8,2.4,1.7C314.3,302.1,314.4,302.4,314.4,302.7z"/>
				<path class="st14" d="M308,312.5l-0.3-1.3l1.1-0.4c-0.9-0.3-1.6-1-1.9-2c-0.5-2,1-3.5,3.5-4.1c2.5-0.6,4.6,0.2,5.1,2.2
					c0.2,1,0,1.8-0.5,2.4l4.3-1l0.2,1.5L308,312.5z M309.8,310.6l4-1c0.5-0.7,0.8-1.3,0.6-2.2c-0.3-1.2-1.5-1.7-3.6-1.2
					c-2.2,0.5-3,1.4-2.7,2.6C308.3,309.7,308.9,310.2,309.8,310.6z"/>
			</g>
		</g>
		
			<rect x="252.3" y="227.7" transform="matrix(0.9725 -0.2328 0.2328 0.9725 -52.8894 67.0442)" class="st16" width="10.6" height="59.9"/>
		
			<rect x="268.8" y="313.8" transform="matrix(0.9725 -0.2328 0.2328 0.9725 -68.4708 72.7785)" class="st16" width="10.6" height="25.5"/>
		<g>
			<path class="st14" d="M262.9,293.9l0.4,1.7l6.1-1.5l-0.3-1.3l0.3-0.1c0.2,0.6,0.5,1,0.8,1.3l0.1,0.4l-6.9,1.7l0.4,1.6l-0.4,0.1
				l-0.9-3.8L262.9,293.9z"/>
			<path class="st14" d="M264,299c3,1.8,4.7,2.7,6,2.4c0.9-0.2,1.5-0.9,1.2-2c-0.2-0.7-0.7-1.2-1.4-1.5l0.2-0.4
				c0.7,0.4,1.4,0.9,1.6,1.8c0.3,1.3-0.3,2.3-1.6,2.6c-1.5,0.4-3.2-0.6-5.8-2.2c0.1,0.4,0.3,0.8,0.4,1.2l0.6,2.5l-0.5,0.1l-1.1-4.5
				L264,299z"/>
			<path class="st14" d="M266.3,304.4c-0.4,0.6-0.7,1.3-0.5,2.3c0.2,1,1.1,1.6,2,1.3c1-0.2,1.5-1.1,1.1-3l0.4-0.1
				c0.4,1.7,1.3,2.1,2.1,1.9c0.8-0.2,1.2-0.9,1-1.8c-0.2-0.7-0.7-1.2-1.2-1.5l0.3-0.4c0.6,0.4,1.2,0.9,1.4,1.8
				c0.3,1.1-0.2,2.2-1.3,2.4c-1,0.2-1.7-0.2-2.2-1l0,0c0,1-0.5,1.9-1.5,2.1c-1.3,0.3-2.3-0.5-2.6-1.7c-0.3-1.2,0.1-2,0.5-2.6
				L266.3,304.4z"/>
		</g>
	</g>
</g>
</svg>
