<?xml version="1.0" encoding="utf-8"?>
<!-- Generator: Adobe Illustrator 23.0.3, SVG Export Plug-In . SVG Version: 6.00 Build 0)  -->
<svg version="1.1" id="Layer_1" xmlns="http://www.w3.org/2000/svg" xmlns:xlink="http://www.w3.org/1999/xlink" x="0px" y="0px"
	 viewBox="0 0 281 369" style="enable-background:new 0 0 281 369;" xml:space="preserve">
<style type="text/css">
	.st0{opacity:0.25;fill:#808080;}
	.st1{fill:#2F6A46;}
	.st2{fill:#FFFFFF;}
	.st3{fill:#7C97CE;}
	.st4{fill:#E0E0E0;}
	.st5{fill:#458C5E;}
	.st6{fill:#EAC3A4;}
	.st7{fill:#D49A6C;}
	.st8{fill:#505457;}
	.st9{fill:#383C40;}
	.st10{fill:#393C41;}
	.st11{fill:#2A2D30;}
	.st12{fill:#5B6366;}
	.st13{fill:#FFFBFF;}
	.st14{fill:#3E4447;}
	.st15{opacity:0.45;fill:#FFFFFF;}
	.st16{opacity:0.3;fill:#808080;}
	.st17{opacity:0.75;fill:#FFFFFF;}
</style>
<g>
	<g>
		<path class="st0" d="M271,369H10c-5.5,0-10-4.5-10-9.9l0,0c0-5.5,4.5-9.9,10-9.9H271c5.5,0,10,4.5,10,9.9l0,0
			C281,364.5,276.5,369,271,369z"/>
		
			<rect x="-29.7" y="70.3" transform="matrix(-1.836970e-16 1 -1 -1.836970e-16 329.3867 57.9652)" class="st1" width="330.8" height="246.7"/>
		<rect x="25.4" y="44" class="st2" width="220.7" height="299.3"/>
		<g>
			<g>
				<path class="st3" d="M48.1,216.8v70.6h175.2v-70.6H48.1z M76.3,285.4H50.1v-14.7h26.2V285.4z M76.3,268.7H50.1v-15.7h26.2V268.7
					z M76.3,251.1H50.1v-15.7h26.2V251.1z M76.3,233.4H50.1v-14.7h26.2V233.4z M105.5,285.4H78.3v-14.7h27.2V285.4z M105.5,268.7
					H78.3v-15.7h27.2V268.7z M105.5,251.1H78.3v-15.7h27.2V251.1z M105.5,233.4H78.3v-14.7h27.2V233.4z M134.7,285.4h-27.2v-14.7
					h27.2V285.4z M134.7,268.7h-27.2v-15.7h27.2V268.7z M134.7,251.1h-27.2v-15.7h27.2V251.1z M134.7,233.4h-27.2v-14.7h27.2V233.4z
					 M163.9,285.4h-27.2v-14.7h27.2V285.4z M163.9,268.7h-27.2v-15.7h27.2V268.7z M163.9,251.1h-27.2v-15.7h27.2V251.1z
					 M163.9,233.4h-27.2v-14.7h27.2V233.4z M193.1,285.4h-27.2v-14.7h27.2V285.4z M193.1,268.7h-27.2v-15.7h27.2V268.7z
					 M193.1,251.1h-27.2v-15.7h27.2V251.1z M193.1,233.4h-27.2v-14.7h27.2V233.4z M221.3,285.4h-26.2v-14.7h26.2V285.4z
					 M221.3,268.7h-26.2v-15.7h26.2V268.7z M221.3,251.1h-26.2v-15.7h26.2V251.1z M221.3,233.4h-26.2v-14.7h26.2V233.4z"/>
			</g>
			<rect x="48.1" y="181.2" class="st4" width="175.2" height="7.9"/>
			<rect x="48.1" y="199" class="st4" width="175.2" height="7.9"/>
			<rect x="48.1" y="297.3" class="st4" width="82.6" height="7.9"/>
			<rect x="140.7" y="297.3" class="st4" width="82.6" height="7.9"/>
			<rect x="48.1" y="315" class="st4" width="82.6" height="7.9"/>
			<rect x="140.7" y="315" class="st4" width="82.6" height="7.9"/>
		</g>
		<g>
			<path class="st1" d="M169.4,0H102c-8.5,0-15.3,6.9-15.3,15.3v11.4h98.1V15.3C184.8,6.9,177.9,0,169.4,0z M135.7,14.3
				c-2.7,0-4.8-2.2-4.8-4.8s2.2-4.8,4.8-4.8c2.7,0,4.8,2.2,4.8,4.8S138.4,14.3,135.7,14.3z"/>
			<path class="st5" d="M193.4,56.6H78.1c-3.7,0-6.8-3-6.8-6.8V21.5h128.9v28.3C200.1,53.6,197.1,56.6,193.4,56.6z"/>
		</g>
	</g>
	<g>
		<path class="st6" d="M198,98c0,2.6-1.8,4.7-3.9,4.7c-2.2,0-3.9-2.1-3.9-4.7c0-2.6,1.8-4.7,3.9-4.7C196.2,93.4,198,95.5,198,98z"/>
		<path class="st6" d="M167.7,98c0,2.6-1.8,4.7-3.9,4.7c-2.2,0-3.9-2.1-3.9-4.7c0-2.6,1.8-4.7,3.9-4.7
			C165.9,93.4,167.7,95.5,167.7,98z"/>
		<g>
			<path class="st6" d="M187.4,118.6c-0.5,0-1-0.1-1.7-0.1v-6.1h-6.8v21c0.1,0,0.1,0.1,0.2,0.1c1.3,0,3.9-3.8,3.9-3.8
				S188.7,118.7,187.4,118.6z"/>
			<path class="st7" d="M172.8,112.4v6c-0.6,0-1.2,0.1-1.6,0.2c-1.7,0.2,3.9,11,3.9,11s2.4,3.5,3.9,3.8v-21H172.8z"/>
		</g>
		<g>
			<path class="st6" d="M147.4,167.6c4-16.5,10.5-32.9,21.1-45.8c-3.6-2.5-8.4-0.9-10.7,2.7c-8.4,13.6-14.6,28-18.6,43.1H147.4z"/>
			<path class="st7" d="M154.6,167.6c3.6-12.3,8.9-24.1,15.8-35.2c2.1-3.4,1.5-8.1-1.8-10.5c-10.6,12.9-17,29.3-21.1,45.8H154.6z"/>
		</g>
		<g>
			<path class="st5" d="M162.2,121c-1,0.4-2.1,0.9-3.1,1.6c-9.1,6.9-16.9,28.6-16.9,28.6l8.3,5.2c3.9-12.1,9.4-23.8,17.1-33.5
				C165.7,121.4,163.7,120.5,162.2,121z"/>
			<path class="st1" d="M180.8,138.1c0,0-7.1-10.7-13.1-15.3c-7.7,9.8-13.2,21.4-17.1,33.5l11,6.8L180.8,138.1z"/>
		</g>
		<g>
			<g>
				<path class="st6" d="M219.8,167.6c-4-15.1-10.2-29.5-18.6-43.1c-2.2-3.5-7.1-5.2-10.7-2.7c10.6,12.9,17.1,29.3,21.1,45.8H219.8z
					"/>
				<path class="st7" d="M204.4,167.6h7.2c-4-16.5-10.5-32.9-21.1-45.8c-3.3,2.4-4,7.1-1.8,10.5
					C195.5,143.5,200.8,155.3,204.4,167.6z"/>
			</g>
			<g>
				<path class="st5" d="M196.8,121c1,0.4,2.1,0.9,3.1,1.6c9.1,6.9,16.9,28.6,16.9,28.6l-8.3,5.2c-3.9-12.1-9.4-23.8-17.1-33.5
					C193.3,121.4,195.3,120.5,196.8,121z"/>
				<path class="st1" d="M178.2,138.1c0,0,7.1-10.7,13.1-15.3c7.7,9.8,13.2,21.4,17.1,33.5l-11,6.8L178.2,138.1z"/>
			</g>
		</g>
		<g>
			<path class="st6" d="M161.6,96.4c0,11.2,7.7,20.3,17.3,20.3V76C169.3,76.1,161.6,85.2,161.6,96.4z"/>
			<path class="st7" d="M178.9,76C178.9,76,178.9,76,178.9,76l0,40.7c0,0,0,0,0,0c9.6,0,17.4-9.1,17.4-20.3
				C196.3,85.1,188.5,76,178.9,76z"/>
		</g>
		<g>
			<path class="st5" d="M178.9,167.6v-41.2c-4-0.3-7.9-7.8-7.9-7.8c-7.3,1-12.5,3.2-12.5,5.8l-1.9,43.2H178.9z"/>
			<path class="st1" d="M201.7,167.6l-1.9-43.2c0-2.6-5.1-4.8-12.5-5.8c0,0-4.2,7.8-8.3,7.8c-0.1,0-0.1,0-0.2,0v41.2H201.7z"/>
		</g>
		<g>
			<path class="st8" d="M178.9,69.8c-12.7,0-20.1,7.4-20.1,19.2c0,2.6,0.4,5.2,1.3,7.5c0.3-1,0.9-1.9,1.6-2.5c0.6,2.6,1.5,5.3,3.5,7
				c0.4,0.4,0.8-1.4,0.9-2c0.1-1.4,0.2-3,0.3-4.5c0.4-4.9,1.4-10.1,5.6-13.2c0,0,0,0,0,0c0.5,1.4,1.5,2.6,2.4,3.7
				c1.2,1.4,2.7,2.9,4.5,3.5L178.9,69.8C178.9,69.8,178.9,69.8,178.9,69.8z"/>
			<path class="st9" d="M178.9,69.8v18.8c0,0,0,0,0.1,0c0.3,0.1,0.7-0.2,0.7-0.5c-0.1-1.5-0.1-2.9,0.1-4.4c1.3,1.5,3.1,2.5,5.1,2.7
				c0.4,0,0.6-0.3,0.6-0.6c0.1-1.2-0.2-2.8,0.2-4.1c5.6,1.4,5.8,6.4,6.9,11.2c0,0.2,0.1,0.5,0.1,0.9c0.3,2.2,0.7,7.2,1.5,6.1
				c1.1-1.5,1.8-3.8,2.1-5.7c0-0.1,0.1-0.3,0.1-0.4c0,0.1,0,0.3,0,0.4c0.7,0.6,1.2,1.4,1.5,2.4c0.8-2.3,1.3-4.9,1.3-7.5
				C199,77.2,192.8,69.8,178.9,69.8z"/>
		</g>
	</g>
	<g>
		<g>
			<g>
				<path class="st10" d="M67.9,129.7v12.9c0,2.8-2.3,5.1-5.1,5.1h-4.3c-2.9,0-5.2-2.3-5.2-5.2v-12.8c0-2.9,2.3-5.2,5.2-5.2h4.2
					C65.6,124.5,67.9,126.9,67.9,129.7z"/>
				<g>
					<rect x="61.3" y="137" class="st11" width="0.8" height="10.7"/>
					<rect x="59.1" y="137" class="st11" width="0.8" height="10.7"/>
				</g>
				<g>
					<polygon class="st11" points="67.9,137.9 67.9,139.1 62.1,144.8 61.8,145.2 61.8,144 62.1,143.7 					"/>
					<polygon class="st11" points="67.9,141.4 67.9,142.6 62.8,147.7 61.8,147.7 61.8,147.5 62.1,147.2 					"/>
					<polygon class="st11" points="67.9,134.4 67.9,135.6 62.1,141.3 61.8,141.7 61.8,140.5 62.1,140.2 					"/>
				</g>
				<g>
					<polygon class="st11" points="53.3,137.9 53.3,139.1 59.1,144.8 59.4,145.2 59.4,144 59.1,143.7 					"/>
					<polygon class="st11" points="53.3,141.4 53.3,142.6 58.4,147.7 59.4,147.7 59.4,147.5 59.1,147.2 					"/>
					<polygon class="st11" points="53.3,134.4 53.3,135.6 59.1,141.3 59.4,141.7 59.4,140.5 59.1,140.2 					"/>
				</g>
			</g>
			<g>
				<path class="st10" d="M130.5,129.7v12.9c0,2.8-2.3,5.1-5.1,5.1h-4.3c-2.9,0-5.2-2.3-5.2-5.2v-12.8c0-2.9,2.3-5.2,5.2-5.2h4.2
					C128.2,124.5,130.5,126.9,130.5,129.7z"/>
				<g>
					<rect x="123.9" y="137" class="st11" width="0.8" height="10.7"/>
					<rect x="121.7" y="137" class="st11" width="0.8" height="10.7"/>
				</g>
				<g>
					<polygon class="st11" points="130.5,137.9 130.5,139.1 124.7,144.8 124.4,145.2 124.4,144 124.7,143.7 					"/>
					<polygon class="st11" points="130.5,141.4 130.5,142.6 125.4,147.7 124.4,147.7 124.4,147.5 124.7,147.2 					"/>
					<polygon class="st11" points="130.5,134.4 130.5,135.6 124.7,141.3 124.4,141.7 124.4,140.5 124.7,140.2 					"/>
				</g>
				<g>
					<polygon class="st11" points="115.9,137.9 115.9,139.1 121.7,144.8 122,145.2 122,144 121.7,143.7 					"/>
					<polygon class="st11" points="115.9,141.4 115.9,142.6 121,147.7 122,147.7 122,147.5 121.7,147.2 					"/>
					<polygon class="st11" points="115.9,134.4 115.9,135.6 121.7,141.3 122,141.7 122,140.5 121.7,140.2 					"/>
				</g>
			</g>
		</g>
		<path class="st11" d="M130.6,97.4l-5.4,0c-1.6,0-2.9,1.3-2.9,2.9c0,0.1,0,0.1,0,0.2l-4.1,3.1l0.7,0.9l3.7-2.8
			c0.5,0.9,1.5,1.6,2.6,1.6l5.4,0c1.6,0,2.9-1.3,2.9-2.9C133.5,98.7,132.2,97.4,130.6,97.4z"/>
		<path class="st11" d="M53,97.4l5.4,0c1.6,0,2.9,1.3,2.9,2.9c0,0.1,0,0.1,0,0.2l4.1,3.1l-0.7,0.9l-3.7-2.8
			c-0.5,0.9-1.5,1.6-2.6,1.6l-5.4,0c-1.6,0-2.9-1.3-2.9-2.9C50,98.7,51.4,97.4,53,97.4z"/>
		<g>
			<g>
				<path class="st5" d="M135.2,118.2c-0.1-1-0.7-2.5-1.4-3.3c-2.4-2.8-4.8-5.5-7.2-8.3c-0.7-0.8-2.2-1.5-3.2-1.5
					c-10.7,0-21.3,0-32,0c-10.4,0-20.7,0-31.1,0c-1,0-2.5,0.7-3.2,1.5c-2.4,2.7-4.9,5.5-7.2,8.2c-0.7,0.8-1.3,2.3-1.4,3.3
					c-0.1,1.1-0.1,1.7-0.1,2.8c0,0,0,0,0,0c0,5.3,0.3,10.5,0.9,15.8c0.4,2.5,3.2,4.6,6.1,4.6c12,0,23.9,0,35.9,0
					c12.2,0,24.5,0,36.7,0c3,0,5.8-2.1,6.1-4.6c0.1-0.7,0.1-1,0.2-1.7c0,0,0,0,0,0C135.3,129.5,135.5,123.9,135.2,118.2z"/>
			</g>
		</g>
		<g>
			<g>
				<g>
					<path class="st5" d="M118.3,84.7C118.3,84.6,118.3,84.6,118.3,84.7c0-2-11.9-3.5-26.6-3.5c-0.1,0-0.2,0-0.2,0v25.1l34.4,0
						L118.3,84.7z"/>
				</g>
				<g>
					<path class="st5" d="M65,84.5C65,84.6,65,84.6,65,84.5l-7.3,21.7l33.8,0V81.1C76.8,81.1,65,82.7,65,84.5z"/>
				</g>
			</g>
		</g>
		<path class="st12" d="M116.7,85.3c-2-1-11.3-2.3-24.9-2.3c-0.1,0-0.2,0-0.4,0c-13.4,0-22.5,1.3-24.5,2.3l-5.8,18l30.4,0l31,0
			L116.7,85.3z"/>
		<path class="st11" d="M107.2,129.7c0,0.9-0.7,1.6-1.6,1.6H78.2c-0.9,0-1.6-0.7-1.6-1.6v-7.6c0-0.9,0.7-1.6,1.6-1.6h27.4
			c0.9,0,1.6,0.7,1.6,1.6V129.7z"/>
		<g>
			<g>
				<path class="st1" d="M61.4,110.9C61.4,110.9,61.4,110.9,61.4,110.9l-0.1,9.5h-0.8v4.1h10.2v-4.1
					C70.7,115.2,66.5,110.9,61.4,110.9z"/>
				<g>
					<path class="st1" d="M57.6,129.1c-3.2,0-5.8-2.6-5.8-5.7v-0.2c0-3.2,2.6-5.7,5.8-5.7h0.1l0.1,0c3.3,1,14.1,4.4,13.5,7.3
						c-0.6,3-2.2,4.3-5,4.3H57.6z"/>
					<path class="st13" d="M70.7,124.7c-0.5,2.5-1.8,3.9-4.4,3.9h-8.6c-2.9,0-5.2-2.3-5.2-5.2v-0.2c0-2.9,2.3-5.2,5.2-5.2
						C57.6,118,71.2,122,70.7,124.7z"/>
				</g>
			</g>
			<g>
				<path class="st1" d="M122.4,110.9C122.4,110.9,122.5,110.9,122.4,110.9l0.1,9.5h0.8v4.1h-10.2v-4.1
					C113.1,115.2,117.3,110.9,122.4,110.9z"/>
				<g>
					<path class="st1" d="M126.2,129.1c3.2,0,5.8-2.6,5.8-5.7v-0.2c0-3.2-2.6-5.7-5.8-5.7h-0.1l-0.1,0c-3.3,1-14.1,4.4-13.5,7.3
						c0.6,3,2.2,4.3,5,4.3H126.2z"/>
					<path class="st13" d="M113.1,124.7c0.5,2.5,1.8,3.9,4.4,3.9h8.6c2.9,0,5.2-2.3,5.2-5.2v-0.2c0-2.9-2.3-5.2-5.2-5.2
						C126.2,118,112.6,122,113.1,124.7z"/>
				</g>
			</g>
		</g>
		<g>
			<polygon class="st12" points="62.7,98.3 61.1,103.3 91.4,103.3 122.5,103.3 118,89.4 			"/>
			<path class="st14" d="M116.7,85.3c-2-1-11.3-2.3-24.9-2.3c-0.1,0-0.2,0-0.4,0c-13.4,0-22.5,1.3-24.5,2.3l-4.2,13l55.3-8.9
				L116.7,85.3z"/>
		</g>
		<path class="st11" d="M120.4,132.4l-1.4,2H64.8l-1.4-2H49c0.1,1.5,0.3,3,0.4,4.4c0.4,2.5,3.2,4.6,6.1,4.6c12,0,23.9,0,35.9,0
			l36.7,0c3,0,5.8-2.1,6.1-4.6c0.1-0.7,0.1-1,0.2-1.7h0c0.1-0.9,0.2-1.8,0.3-2.8H120.4z"/>
		<path class="st13" d="M105.6,138.9c0,0.8-0.6,1.4-1.4,1.4H79.6c-0.8,0-1.4-0.6-1.4-1.4v-2.2c0-0.8,0.6-1.4,1.4-1.4h24.6
			c0.8,0,1.4,0.6,1.4,1.4V138.9z"/>
	</g>
	<g>
		<polygon class="st1" points="133.8,183.4 125.5,190.7 111.8,175.2 120,168 		"/>
		<path class="st1" d="M227.7,297.6L227.7,297.6c-6,5.3-15.2,4.7-20.5-1.2l-82.6-93.1c-5.3-6-4.7-15.1,1.2-20.4l0,0
			c6-5.3,15.2-4.7,20.5,1.2l82.6,93.1C234.3,283.2,233.7,292.3,227.7,297.6z"/>
		<path class="st2" d="M214,292.1c-1.5,1.3-3.8,1.2-5.1-0.3l-79.5-89.6c-1.3-1.5-1.2-3.8,0.3-5.1c1.5-1.3,3.8-1.2,5.1,0.3l79.5,89.6
			C215.7,288.5,215.5,290.8,214,292.1z"/>
		<g>
			<path class="st1" d="M40.9,87c-24.5,21.7-26.8,59.1-5.1,83.6c21.7,24.5,59.3,26.8,83.8,5.1c24.5-21.7,26.8-59.1,5.1-83.6
				C102.9,67.6,65.4,65.3,40.9,87z M113.2,168.5c-20.5,18.2-51.9,16.3-70.1-4.3c-18.2-20.5-16.3-51.8,4.2-70
				c20.5-18.2,51.9-16.3,70.1,4.3C135.6,119,133.7,150.3,113.2,168.5z"/>
			<path class="st15" d="M117.4,98.5c18.2,20.5,16.3,51.8-4.3,70c-20.5,18.2-51.9,16.3-70.1-4.3c-18.2-20.5-16.3-51.8,4.2-70
				C67.8,76.1,99.2,78,117.4,98.5z"/>
			<path class="st1" d="M38.2,84c-26.2,23.2-28.6,63.1-5.4,89.3c23.2,26.1,63.3,28.6,89.5,5.4c26.2-23.2,28.6-63.1,5.4-89.3
				C104.5,63.3,64.4,60.9,38.2,84z M115.4,171c-21.9,19.4-55.5,17.3-74.9-4.5c-19.4-21.9-17.4-55.4,4.5-74.7
				c21.9-19.4,55.5-17.3,74.9,4.6C139.4,118.2,137.3,151.6,115.4,171z"/>
			<path class="st5" d="M38.2,84c-26.2,23.2-28.6,63.1-5.4,89.3c23.2,26.1,63.3,28.6,89.5,5.4c26.2-23.2,28.6-63.1,5.4-89.3
				C104.5,63.3,64.4,60.9,38.2,84z M115.4,171c-21.9,19.4-55.5,17.3-74.9-4.5c-19.4-21.9-17.4-55.4,4.5-74.7
				c21.9-19.4,55.5-17.3,74.9,4.6C139.4,118.2,137.3,151.6,115.4,171z"/>
			<path class="st16" d="M121.2,177.5c-1,0.9-2.5,0.8-3.4-0.2c-0.9-1-0.8-2.5,0.2-3.4c23.5-20.8,25.7-56.8,4.9-80.3
				c-0.9-1-0.8-2.5,0.2-3.4c1-0.9,2.5-0.8,3.4,0.2C149,115.9,146.7,155,121.2,177.5z"/>
			<path class="st17" d="M37.4,172.4c-1,0.9-2.5,0.8-3.4-0.2c-22.6-25.4-20.2-64.5,5.3-87c1-0.9,2.5-0.8,3.4,0.2
				c0.9,1,0.8,2.5-0.2,3.4c-23.5,20.8-25.7,56.8-4.9,80.3C38.4,170,38.3,171.6,37.4,172.4z"/>
			<path class="st17" d="M51,160.6c-0.7,0.6-1.8,0.6-2.4-0.1c-16-18-14.3-45.6,3.7-61.6c0.7-0.6,1.8-0.6,2.4,0.1
				c0.6,0.7,0.6,1.8-0.1,2.4c-16.6,14.7-18.2,40.2-3.5,56.8C51.8,158.9,51.7,160,51,160.6z"/>
		</g>
	</g>
</g>
</svg>
