<?xml version="1.0" encoding="utf-8"?>
<!-- Generator: Adobe Illustrator 23.0.3, SVG Export Plug-In . SVG Version: 6.00 Build 0)  -->
<svg version="1.1" id="Layer_1" xmlns="http://www.w3.org/2000/svg" xmlns:xlink="http://www.w3.org/1999/xlink" x="0px" y="0px"
	 viewBox="0 0 335 338" style="enable-background:new 0 0 335 338;" xml:space="preserve">
<style type="text/css">
	.st0{opacity:0.25;fill:#808080;}
	.st1{fill:#9EB3DE;}
	.st2{fill:#FFFFFF;}
	.st3{fill:#D8DEE2;}
	.st4{fill:#0C560C;}
	.st5{fill:#385780;}
	.st6{fill:#96E1DF;}
	.st7{fill:#E0F7FA;}
	.st8{fill:#FEBC30;}
</style>
<g>
	<g>
		<path class="st0" d="M326.7,338H5.3c-2.9,0-5.3-2.4-5.3-5.3v-20.2c0-2.9,2.4-5.3,5.3-5.3h321.3c2.9,0,5.3,2.4,5.3,5.3v20.2
			C332,335.6,329.6,338,326.7,338z"/>
		<g>
			<rect x="123.4" class="st1" width="211.6" height="297.1"/>
			<rect x="128.8" y="5.3" class="st2" width="200.9" height="286.4"/>
			<g>
				<path class="st3" d="M221.8,49.8h-72.3c-2.4,0-4.3-4-4.3-9l0,0c0-4.9,1.9-9,4.3-9h72.3c2.4,0,4.3,4,4.3,9l0,0
					C226.1,45.8,224.2,49.8,221.8,49.8z"/>
				<path class="st3" d="M221.8,80.6h-72.3c-2.4,0-4.3-4-4.3-9l0,0c0-4.9,1.9-9,4.3-9h72.3c2.4,0,4.3,4,4.3,9l0,0
					C226.1,76.5,224.2,80.6,221.8,80.6z"/>
				<path class="st3" d="M221.8,111.3h-72.3c-2.4,0-4.3-4-4.3-9l0,0c0-4.9,1.9-9,4.3-9h72.3c2.4,0,4.3,4,4.3,9l0,0
					C226.1,107.3,224.2,111.3,221.8,111.3z"/>
				<path class="st3" d="M304.3,142.1H154.1c-4.9,0-9-4-9-9l0,0c0-4.9,4-9,9-9h150.2c4.9,0,9,4,9,9l0,0
					C313.3,138.1,309.3,142.1,304.3,142.1z"/>
				<path class="st3" d="M304.3,172.9H154.1c-4.9,0-9-4-9-9l0,0c0-4.9,4-9,9-9h150.2c4.9,0,9,4,9,9l0,0
					C313.3,168.8,309.3,172.9,304.3,172.9z"/>
				<path class="st3" d="M304.3,203.6H154.1c-4.9,0-9-4-9-9v0c0-4.9,4-9,9-9h150.2c4.9,0,9,4,9,9v0
					C313.3,199.6,309.3,203.6,304.3,203.6z"/>
				<path class="st3" d="M304.3,234.4H154.1c-4.9,0-9-4-9-9l0,0c0-4.9,4-9,9-9h150.2c4.9,0,9,4,9,9l0,0
					C313.3,230.4,309.3,234.4,304.3,234.4z"/>
				<path class="st3" d="M304.3,265.2H154.1c-4.9,0-9-4-9-9l0,0c0-4.9,4-9,9-9h150.2c4.9,0,9,4,9,9l0,0
					C313.3,261.1,309.3,265.2,304.3,265.2z"/>
			</g>
		</g>
		<g>
			<rect x="13.4" y="265.1" class="st4" width="215.8" height="20.1"/>
			<g>
				<path class="st5" d="M52.2,323.6H32.6c-2.9,0-5.3-2.4-5.3-5.3v-40.5c0-2.9,2.4-5.3,5.3-5.3h19.5c2.9,0,5.3,2.4,5.3,5.3v40.5
					C57.5,321.2,55.1,323.6,52.2,323.6z"/>
				<path class="st5" d="M212.5,323.6h-19.5c-2.9,0-5.3-2.4-5.3-5.3v-40.5c0-2.9,2.4-5.3,5.3-5.3h19.5c2.9,0,5.3,2.4,5.3,5.3v40.5
					C217.8,321.2,215.4,323.6,212.5,323.6z"/>
			</g>
			<g>
				<g>
					<path class="st4" d="M226.1,171.2v7.8c0,5.5-4.5,9.9-10,9.9c-2.8,0-5.4-1.2-7.2-3.1l-10.6,6.1l-2.5-4.3l10.7-6.1
						c-0.2-0.8-0.3-1.6-0.3-2.5v-7.8c0-5.5,4.5-9.9,10-9.9c2.7,0,5.2,1.1,7,2.9C225,165.9,226.1,168.4,226.1,171.2z"/>
					<path class="st4" d="M16.5,171.2v7.8c0,5.5,4.5,9.9,10,9.9c2.8,0,5.4-1.2,7.2-3.1l10.6,6.1l2.5-4.3l-10.7-6.1
						c0.2-0.8,0.3-1.6,0.3-2.5v-7.8c0-5.5-4.5-9.9-10-9.9c-2.7,0-5.2,1.1-7,2.9C17.7,165.9,16.5,168.4,16.5,171.2z"/>
				</g>
			</g>
			<path class="st4" d="M224.7,285.3H18c-2.5,0-4.6-2-4.6-4.6v-79.3c0-10.6,8.6-19.3,19.3-19.3H210c10.6,0,19.3,8.6,19.3,19.3v79.3
				C229.2,283.2,227.2,285.3,224.7,285.3z"/>
			<path class="st4" d="M196.7,196.4H45.9c-1.9,0-3.5-1.6-3.5-3.5v-65.9c0-8.2,6.7-14.9,14.9-14.9h128c8.2,0,14.9,6.7,14.9,14.9
				v65.9C200.2,194.8,198.6,196.4,196.7,196.4z"/>
			<g>
				<ellipse class="st6" cx="45.3" cy="219.5" rx="20.8" ry="20.7"/>
				<ellipse class="st7" cx="45.3" cy="219.5" rx="16.9" ry="16.9"/>
				<ellipse class="st6" cx="197.4" cy="219.5" rx="20.8" ry="20.7"/>
				<ellipse class="st7" cx="197.4" cy="219.5" rx="16.9" ry="16.9"/>
			</g>
			<rect x="8.7" y="255" class="st0" width="225.3" height="20.1"/>
			<rect x="79.2" y="260.4" class="st7" width="84.3" height="20.1"/>
			<path class="st6" d="M188.3,151.7v32.8H54.3v-32.8c0-15.4,12.5-27.9,27.9-27.9h78.2c0.5,0,1,0,1.4,0h0
				C176.6,124.6,188.3,136.9,188.3,151.7z"/>
			<g>
				<path class="st6" d="M95.8,123.9l-41.5,41.4v-13.5c0-15.4,12.5-27.9,27.9-27.9H95.8z"/>
				<path class="st7" d="M161.8,123.9l-60.7,60.6H54.3v-19.2l41.5-41.4h64.6C160.9,123.9,161.4,123.9,161.8,123.9z"/>
				<path class="st6" d="M188.3,151.7v13.9l-18.9,18.9h-68.3l60.7-60.6h0C176.6,124.6,188.3,136.9,188.3,151.7z"/>
				<polygon class="st7" points="188.3,165.6 188.3,184.5 169.4,184.5 				"/>
			</g>
			<g>
				<path class="st4" d="M82.5,251.7c-8.5,0-15.5-6.9-15.5-15.5c0-8.5,6.9-15.5,15.5-15.5h77.6c8.5,0,15.5,6.9,15.5,15.5
					c0,8.5-6.9,15.5-15.5,15.5H82.5z"/>
				<path class="st7" d="M168.3,249.3H74.3c-2.7,0-4.9-2.2-4.9-4.9v-16.4c0-2.7,2.2-4.9,4.9-4.9h94.1c2.7,0,4.9,2.2,4.9,4.9v16.4
					C173.2,247.1,171,249.3,168.3,249.3z"/>
				<g>
					<g>
						<path class="st4" d="M79.5,246.9L79.5,246.9c-0.8,0-1.5-0.7-1.5-1.5v-17.1c0-0.8,0.7-1.5,1.5-1.5l0,0c0.8,0,1.5,0.7,1.5,1.5
							v17.1C81,246.2,80.3,246.9,79.5,246.9z"/>
						<path class="st4" d="M85.9,246.9L85.9,246.9c-0.8,0-1.5-0.7-1.5-1.5v-17.1c0-0.8,0.7-1.5,1.5-1.5l0,0c0.8,0,1.5,0.7,1.5,1.5
							v17.1C87.4,246.2,86.7,246.9,85.9,246.9z"/>
						<path class="st4" d="M92.2,246.9L92.2,246.9c-0.8,0-1.5-0.7-1.5-1.5v-17.1c0-0.8,0.7-1.5,1.5-1.5l0,0c0.8,0,1.5,0.7,1.5,1.5
							v17.1C93.7,246.2,93.1,246.9,92.2,246.9z"/>
						<path class="st4" d="M98.6,246.9L98.6,246.9c-0.8,0-1.5-0.7-1.5-1.5v-17.1c0-0.8,0.7-1.5,1.5-1.5l0,0c0.8,0,1.5,0.7,1.5,1.5
							v17.1C100.1,246.2,99.4,246.9,98.6,246.9z"/>
						<path class="st4" d="M105,246.9L105,246.9c-0.8,0-1.5-0.7-1.5-1.5v-17.1c0-0.8,0.7-1.5,1.5-1.5l0,0c0.8,0,1.5,0.7,1.5,1.5
							v17.1C106.4,246.2,105.8,246.9,105,246.9z"/>
						<path class="st4" d="M111.3,246.9L111.3,246.9c-0.8,0-1.5-0.7-1.5-1.5v-17.1c0-0.8,0.7-1.5,1.5-1.5l0,0c0.8,0,1.5,0.7,1.5,1.5
							v17.1C112.8,246.2,112.1,246.9,111.3,246.9z"/>
						<path class="st4" d="M117.7,246.9L117.7,246.9c-0.8,0-1.5-0.7-1.5-1.5v-17.1c0-0.8,0.7-1.5,1.5-1.5l0,0c0.8,0,1.5,0.7,1.5,1.5
							v17.1C119.2,246.2,118.5,246.9,117.7,246.9z"/>
						<path class="st4" d="M124.1,246.9L124.1,246.9c-0.8,0-1.5-0.7-1.5-1.5v-17.1c0-0.8,0.7-1.5,1.5-1.5l0,0c0.8,0,1.5,0.7,1.5,1.5
							v17.1C125.5,246.2,124.9,246.9,124.1,246.9z"/>
						<path class="st4" d="M130.4,246.9L130.4,246.9c-0.8,0-1.5-0.7-1.5-1.5v-17.1c0-0.8,0.7-1.5,1.5-1.5l0,0c0.8,0,1.5,0.7,1.5,1.5
							v17.1C131.9,246.2,131.2,246.9,130.4,246.9z"/>
						<path class="st4" d="M136.8,246.9L136.8,246.9c-0.8,0-1.5-0.7-1.5-1.5v-17.1c0-0.8,0.7-1.5,1.5-1.5l0,0c0.8,0,1.5,0.7,1.5,1.5
							v17.1C138.3,246.2,137.6,246.9,136.8,246.9z"/>
						<path class="st4" d="M143.1,246.9L143.1,246.9c-0.8,0-1.5-0.7-1.5-1.5v-17.1c0-0.8,0.7-1.5,1.5-1.5l0,0c0.8,0,1.5,0.7,1.5,1.5
							v17.1C144.6,246.2,144,246.9,143.1,246.9z"/>
						<path class="st4" d="M149.5,246.9L149.5,246.9c-0.8,0-1.5-0.7-1.5-1.5v-17.1c0-0.8,0.7-1.5,1.5-1.5l0,0c0.8,0,1.5,0.7,1.5,1.5
							v17.1C151,246.2,150.3,246.9,149.5,246.9z"/>
						<path class="st4" d="M155.9,246.9L155.9,246.9c-0.8,0-1.5-0.7-1.5-1.5v-17.1c0-0.8,0.7-1.5,1.5-1.5l0,0c0.8,0,1.5,0.7,1.5,1.5
							v17.1C157.3,246.2,156.7,246.9,155.9,246.9z"/>
						<path class="st4" d="M162.2,246.9L162.2,246.9c-0.8,0-1.5-0.7-1.5-1.5v-17.1c0-0.8,0.7-1.5,1.5-1.5l0,0c0.8,0,1.5,0.7,1.5,1.5
							v17.1C163.7,246.2,163,246.9,162.2,246.9z"/>
					</g>
				</g>
			</g>
		</g>
	</g>
	<g>
		<path class="st8" d="M295.8,31.4h-45.3c-8.9,0-16.1,7.2-16.1,16.1v45.2c0,8.9,7.2,16.1,16.1,16.1h45.3c8.9,0,16.1-7.2,16.1-16.1
			V47.5C311.9,38.6,304.7,31.4,295.8,31.4z M306.8,92.7c0,6.1-5,11-11,11h-45.3c-6.1,0-11-4.9-11-11V47.5c0-6.1,4.9-11,11-11h45.3
			c6.1,0,11,4.9,11,11V92.7z"/>
		<path class="st2" d="M306.8,47.5v45.2c0,6.1-5,11-11,11h-45.3c-6.1,0-11-4.9-11-11V47.5c0-6.1,4.9-11,11-11h45.3
			C301.9,36.5,306.8,41.4,306.8,47.5z"/>
		<g>
			<path class="st8" d="M271.2,60.4c0,1.4-0.2,2.7-0.7,3.9c-0.5,1.1-1.1,2.1-1.9,2.9c-0.8,0.8-1.7,1.4-2.8,1.9
				c-1.1,0.4-2.2,0.7-3.3,0.7c-1.3,0-2.4-0.2-3.5-0.7c-1.1-0.4-2-1.1-2.8-1.9c-0.8-0.8-1.4-1.8-1.8-2.9c-0.4-1.1-0.7-2.4-0.7-3.9
				c0-1.5,0.2-2.8,0.7-4c0.4-1.2,1-2.2,1.8-3c0.8-0.8,1.7-1.4,2.8-1.9c1.1-0.4,2.2-0.7,3.5-0.7s2.4,0.2,3.5,0.7
				c1.1,0.4,2,1.1,2.8,1.9c0.8,0.8,1.4,1.8,1.8,3C271,57.6,271.2,58.9,271.2,60.4z M283.7,52.3c0.2-0.3,0.5-0.5,0.8-0.7
				c0.3-0.2,0.7-0.3,1.3-0.3h4.7l-28,36.7c-0.2,0.3-0.5,0.5-0.8,0.7c-0.3,0.2-0.7,0.3-1.1,0.3h-4.8L283.7,52.3z M266.2,60.4
				c0-1-0.1-1.8-0.3-2.5c-0.2-0.7-0.5-1.2-0.8-1.6c-0.3-0.4-0.7-0.7-1.2-0.9c-0.5-0.2-1-0.3-1.5-0.3c-0.5,0-1,0.1-1.5,0.3
				c-0.5,0.2-0.8,0.5-1.2,0.9c-0.3,0.4-0.6,1-0.8,1.6c-0.2,0.7-0.3,1.5-0.3,2.5c0,1,0.1,1.8,0.3,2.4c0.2,0.7,0.4,1.2,0.8,1.6
				c0.3,0.4,0.7,0.7,1.2,0.9c0.5,0.2,0.9,0.3,1.5,0.3c0.5,0,1-0.1,1.5-0.3c0.5-0.2,0.9-0.5,1.2-0.9s0.6-0.9,0.8-1.6
				C266.1,62.1,266.2,61.3,266.2,60.4z M292.5,80c0,1.4-0.2,2.7-0.7,3.9c-0.5,1.1-1.1,2.1-1.9,2.9c-0.8,0.8-1.7,1.4-2.8,1.9
				s-2.2,0.7-3.3,0.7c-1.3,0-2.4-0.2-3.5-0.7c-1.1-0.4-2-1.1-2.8-1.9c-0.8-0.8-1.4-1.8-1.8-2.9c-0.4-1.1-0.7-2.4-0.7-3.9
				c0-1.5,0.2-2.8,0.7-4c0.4-1.2,1-2.2,1.8-3c0.8-0.8,1.7-1.4,2.8-1.9c1.1-0.4,2.2-0.7,3.5-0.7c1.3,0,2.4,0.2,3.5,0.7
				c1.1,0.4,2,1.1,2.8,1.9c0.8,0.8,1.4,1.8,1.8,3C292.3,77.3,292.5,78.6,292.5,80z M287.5,80c0-1-0.1-1.8-0.3-2.5
				c-0.2-0.7-0.5-1.2-0.8-1.6c-0.3-0.4-0.7-0.7-1.2-0.9c-0.5-0.2-1-0.3-1.5-0.3c-0.5,0-1,0.1-1.5,0.3c-0.5,0.2-0.8,0.5-1.2,0.9
				c-0.3,0.4-0.6,1-0.8,1.6c-0.2,0.7-0.3,1.5-0.3,2.5c0,1,0.1,1.8,0.3,2.4c0.2,0.7,0.4,1.2,0.8,1.6c0.3,0.4,0.7,0.7,1.2,0.9
				c0.5,0.2,0.9,0.3,1.5,0.3c0.5,0,1-0.1,1.5-0.3c0.5-0.2,0.9-0.5,1.2-0.9c0.3-0.4,0.6-0.9,0.8-1.6C287.4,81.8,287.5,81,287.5,80z"
				/>
		</g>
	</g>
</g>
</svg>
