<svg width="117" height="117" viewBox="0 0 117 117" fill="none" xmlns="http://www.w3.org/2000/svg">
<circle cx="58.5" cy="58.5" r="58.5" fill="#FFC725"/>
<circle cx="58.5" cy="58.5002" r="48" stroke="#151D28"/>
<path d="M34.7219 64.0334C33.7173 64.3026 32.7498 64.3237 31.8194 64.0968C30.8986 63.8673 30.1016 63.4234 29.4283 62.7653C28.7621 62.0948 28.2983 61.2718 28.0369 60.2963C27.7754 59.3207 27.7669 58.3809 28.0113 57.4768C28.2627 56.5605 28.7345 55.7715 29.4269 55.1098C30.1192 54.448 30.9676 53.9826 31.9722 53.7134C32.7256 53.5115 33.4547 53.4508 34.1595 53.5311C34.8643 53.6114 35.5036 53.8335 36.0773 54.1974L35.5788 55.0609C34.5719 54.4714 33.4648 54.3384 32.2574 54.6619C31.4557 54.8767 30.7756 55.2557 30.2171 55.7987C29.6586 56.3418 29.2764 56.9825 29.0705 57.721C28.8743 58.4568 28.8823 59.2208 29.0945 60.0129C29.3068 60.8049 29.6818 61.4705 30.2197 62.0097C30.7672 62.5463 31.4186 62.9101 32.1738 63.1011C32.9289 63.2922 33.7074 63.2803 34.5091 63.0655C35.7262 62.7394 36.6172 62.0658 37.1822 61.0448L38.0456 61.5433C37.7307 62.1453 37.2846 62.6634 36.7073 63.0976C36.1371 63.5196 35.4753 63.8315 34.7219 64.0334ZM42.3939 58.2507L40.6553 58.7165L41.5637 62.1069L40.535 62.3826L38.4929 54.7614L39.5216 54.4858L40.4184 57.8327L42.1716 57.363L43.9552 53.2978L45.0709 52.9989L43.0617 57.4972L47.3303 60.5618L46.1132 60.8879L42.3939 58.2507ZM49.5221 51.7441C50.517 51.4775 51.3474 51.5241 52.0132 51.8841C52.6765 52.2343 53.1388 52.8973 53.4002 53.8729L54.6659 58.5962L53.6806 58.8602L53.3623 57.6721C53.2366 58.1303 52.9765 58.5313 52.582 58.8751C52.1972 59.2163 51.6957 59.4697 51.0775 59.6354C50.2275 59.8631 49.497 59.8415 48.886 59.5704C48.2751 59.2993 47.8803 58.8305 47.7017 58.164C47.5283 57.5168 47.6203 56.9331 47.9779 56.4128C48.345 55.89 49.0406 55.4914 50.0645 55.217L52.4841 54.5687L52.3599 54.105C52.1839 53.4482 51.8671 52.9999 51.4094 52.7602C50.9492 52.5108 50.3665 52.4806 49.6614 52.6695C49.1784 52.799 48.7368 53.0053 48.3365 53.2886C47.9335 53.5622 47.6102 53.8817 47.3665 54.2473L46.6971 53.6036C46.9955 53.1716 47.3919 52.7963 47.8862 52.4775C48.3779 52.149 48.9232 51.9045 49.5221 51.7441ZM51.0195 58.7813C51.5991 58.626 52.0616 58.3623 52.407 57.9902C52.7499 57.6085 52.9555 57.1393 53.0237 56.5826L52.6899 55.3366L50.2992 55.9772C48.9952 56.3266 48.4648 56.9553 48.7081 57.8632C48.8272 58.3076 49.0907 58.6148 49.4987 58.785C49.904 58.9456 50.411 58.9443 51.0195 58.7813ZM61.2593 48.6612L63.3013 56.2824L62.2726 56.558L61.4224 53.3849C60.647 54.0068 59.8342 54.4317 58.9842 54.6594C58.0666 54.9053 57.2961 54.8892 56.6729 54.611C56.0471 54.3231 55.6216 53.7591 55.3964 52.9187L54.7248 50.4121L55.7535 50.1365L56.4096 52.5851C56.5623 53.155 56.8623 53.5405 57.3096 53.7416C57.7543 53.933 58.3002 53.942 58.9474 53.7686C59.6622 53.5771 60.4134 53.1739 61.2011 52.5591L60.2306 48.9369L61.2593 48.6612ZM66.9325 47.0789C67.9274 46.8124 68.7578 46.859 69.4237 47.219C70.0869 47.5692 70.5493 48.2322 70.8107 49.2077L72.0763 53.9311L71.091 54.1951L70.7727 53.007C70.647 53.4652 70.3869 53.8662 69.9925 54.21C69.6077 54.5512 69.1062 54.8046 68.488 54.9703C67.638 55.198 66.9075 55.1764 66.2965 54.9052C65.6855 54.6341 65.2907 54.1653 65.1121 53.4989C64.9387 52.8517 65.0308 52.268 65.3883 51.7477C65.7555 51.2249 66.451 50.8263 67.4749 50.5519L69.8945 49.9036L69.7703 49.4399C69.5943 48.7831 69.2775 48.3348 68.8199 48.0951C68.3596 47.8457 67.7769 47.8155 67.0718 48.0044C66.5889 48.1338 66.1472 48.3402 65.7469 48.6234C65.344 48.897 65.0207 49.2166 64.777 49.5821L64.1076 48.9385C64.4059 48.5065 64.8023 48.1311 65.2966 47.8123C65.7884 47.4839 66.3337 47.2394 66.9325 47.0789ZM68.4299 54.1162C69.0095 53.9609 69.472 53.6972 69.8175 53.3251C70.1603 52.9434 70.3659 52.4742 70.4342 51.9175L70.1003 50.6715L67.7096 51.3121C66.4056 51.6615 65.8753 52.2902 66.1186 53.1981C66.2376 53.6424 66.5011 53.9497 66.9091 54.1199C67.3145 54.2805 67.8214 54.2792 68.4299 54.1162ZM78.5231 45.0137L75.6398 45.7863L77.4373 52.4947L76.4086 52.7703L74.6111 46.0619L71.7278 46.8345L71.4832 45.9217L78.2785 44.1009L78.5231 45.0137ZM83.9074 45.4811C84.8662 45.2345 85.6476 45.2529 86.2515 45.5363C86.8651 45.817 87.2767 46.3486 87.4863 47.131C87.7037 47.9424 87.6002 48.6379 87.1758 49.2175C86.761 49.7945 86.0452 50.2141 85.0284 50.4762L81.9528 51.2847L79.9108 43.6636L80.9395 43.3879L81.6538 46.0539L83.9074 45.4811ZM84.7608 49.7093C85.4685 49.53 85.9622 49.2476 86.242 48.8621C86.5288 48.4643 86.5958 47.9804 86.4431 47.4105C86.293 46.8503 86.003 46.4828 85.5732 46.3081C85.1433 46.1334 84.5697 46.137 83.8523 46.3189L81.8596 46.8218L82.768 50.2122L84.7608 49.7093ZM50.9988 70.4492C52.2931 70.1024 53.3902 70.1397 54.2899 70.5612C55.1897 70.9827 55.7845 71.7344 56.0744 72.8162C56.3642 73.8981 56.2249 74.8464 55.6565 75.6613C55.0854 76.4666 54.1527 77.0426 52.8584 77.3894L50.1345 78.1193L50.9925 81.3213L49.9203 81.6086L47.2027 71.4664L50.9988 70.4492ZM52.5771 76.4554C53.5816 76.1862 54.2913 75.7631 54.7061 75.1861C55.1183 74.5994 55.217 73.9052 55.0022 73.1035C54.7822 72.2825 54.3483 71.7258 53.7006 71.4335C53.0503 71.1315 52.2228 71.1151 51.2183 71.3843L48.5233 72.1064L49.8821 77.1775L52.5771 76.4554ZM57.6058 68.6789L61.7352 67.5724C62.8073 67.2851 63.8122 67.2488 64.7497 67.4635C65.6846 67.6685 66.4826 68.0966 67.1436 68.7477C67.8021 69.3891 68.2633 70.2024 68.5273 71.1877C68.7913 72.1729 68.7998 73.1127 68.5529 74.0071C68.3034 74.8918 67.8263 75.6615 67.1218 76.3162C66.4146 76.9612 65.5249 77.4274 64.4528 77.7146L60.3234 78.8211L57.6058 68.6789ZM64.1463 76.8029C65.035 76.5648 65.766 76.1826 66.3393 75.6562C66.91 75.1203 67.2961 74.494 67.4975 73.7775C67.6963 73.0513 67.687 72.2825 67.4696 71.4711C67.2522 70.6597 66.8771 69.9941 66.3444 69.4743C65.8092 68.9448 65.1617 68.5954 64.402 68.4263C63.6398 68.2475 62.8143 68.2771 61.9257 68.5152L58.9265 69.3189L61.1471 77.6065L64.1463 76.8029ZM71.0417 66.0726L72.1093 70.0571L77.3543 68.6517L77.6027 69.579L72.3578 70.9843L73.5108 75.2875L72.4386 75.5748L69.721 65.4326L76.6757 63.5691L76.9242 64.4964L71.0417 66.0726Z" fill="#151D28"/>
</svg>
