<?xml version="1.0" standalone="no"?>
<!DOCTYPE svg PUBLIC "-//W3C//DTD SVG 1.1//EN" "http://www.w3.org/Graphics/SVG/1.1/DTD/svg11.dtd" >
<svg>
<metadata>
Created by FontForge 20090914 at Sat Mar 10 18:26:53 2018
 By www-data
&#194;&#169; 2015 Apple Inc. All rights reserved.
</metadata>
<defs>
<font id="SFUIText-Italic" horiz-adv-x="0" >
  <font-face 
    font-family="SF UI Text"
    font-weight="400"
    font-style="italic"
    font-stretch="normal"
    units-per-em="2048"
    panose-1="0 0 5 0 0 0 0 0 0 0"
    ascent="1638"
    descent="-410"
    x-height="1078"
    cap-height="1443"
    bbox="-534 -573 2926 2173"
    underline-thickness="50"
    underline-position="-75"
    slope="-12"
    unicode-range="U+0020-U+FB02"
  />
<missing-glyph horiz-adv-x="1293" 
d="M349 1365h1053l-290 -1365h-1053zM549 231c20.667 -18.667 47.332 -28.002 79.999 -28.002c34.667 0 62.667 9.66699 84 29c22 18.667 33 43.334 33 74.001s-10.333 55.334 -31 74.001c-21.333 19.333 -49 29 -83 29c-33.333 0 -60.666 -9.66699 -81.999 -29
c-21.333 -20 -32 -45.667 -32 -77c0 -29.333 10.333 -53.333 31 -72zM624.998 907.998c6 38 22.667 68.001 50 90.001c26.667 22 60 33 100 33c41.333 0 75 -10.333 101 -31s39 -47.334 39 -80.001c0 -24.667 -9.33301 -46.334 -28 -65.001
c-19.333 -18.667 -60 -45.667 -122 -81c-62 -34.667 -105.667 -68 -131 -100c-25.333 -31.333 -41.666 -71.666 -48.999 -120.999l-6 -42h150l7 39c4.66699 28.667 16 51.334 34 68.001c17.333 17.333 56.666 43.666 117.999 78.999c126 70.667 189 148 189 232
c0 70.667 -27 127.667 -81 171c-54.667 42.667 -126.667 64 -216 64c-88 0 -159.667 -23 -215 -69s-86 -108.333 -92 -187h152z" />
    <glyph glyph-name=".notdef" horiz-adv-x="1293" 
d="M349 1365h1053l-290 -1365h-1053zM549 231c20.667 -18.667 47.332 -28.002 79.999 -28.002c34.667 0 62.667 9.66699 84 29c22 18.667 33 43.334 33 74.001s-10.333 55.334 -31 74.001c-21.333 19.333 -49 29 -83 29c-33.333 0 -60.666 -9.66699 -81.999 -29
c-21.333 -20 -32 -45.667 -32 -77c0 -29.333 10.333 -53.333 31 -72zM624.998 907.998c6 38 22.667 68.001 50 90.001c26.667 22 60 33 100 33c41.333 0 75 -10.333 101 -31s39 -47.334 39 -80.001c0 -24.667 -9.33301 -46.334 -28 -65.001
c-19.333 -18.667 -60 -45.667 -122 -81c-62 -34.667 -105.667 -68 -131 -100c-25.333 -31.333 -41.666 -71.666 -48.999 -120.999l-6 -42h150l7 39c4.66699 28.667 16 51.334 34 68.001c17.333 17.333 56.666 43.666 117.999 78.999c126 70.667 189 148 189 232
c0 70.667 -27 127.667 -81 171c-54.667 42.667 -126.667 64 -216 64c-88 0 -159.667 -23 -215 -69s-86 -108.333 -92 -187h152z" />
    <glyph glyph-name="space" unicode=" " horiz-adv-x="578" 
 />
    <glyph glyph-name="exclam" unicode="!" horiz-adv-x="636" 
d="M662 1444l-222 -964h-166l188 964h200zM183 22c-26 26 -39 59 -39 99s13 73.333 39 100c26.667 26.667 60 40 100 40s73 -13.333 99 -40s39 -60 39 -100s-13 -73 -39 -99c-26 -26.667 -59 -40 -99 -40s-73.333 13.333 -100 40z" />
    <glyph glyph-name="quotedbl" unicode="&#x22;" horiz-adv-x="895" 
d="M310 904l115 539h160l-115 -539h-160zM687 904l115 539h160l-115 -539h-160z" />
    <glyph glyph-name="numbersign" unicode="#" horiz-adv-x="1296" 
d="M1114 901l-144 -344h212l-59 -144h-212l-172 -413h-152l173 413h-299l-172 -413h-151l172 413h-212l61 144h212l143 344h-212l59 143h212l167 399h151l-166 -399h298l167 399h152l-168 -399h212l-60 -143h-212zM519 554h301l145 349h-302z" />
    <glyph glyph-name="dollar" unicode="$" horiz-adv-x="1328" 
d="M702 129c96 0.666992 172 25 228 73c54 46.667 81 107 81 181c0 56 -17.333 103.333 -52 142c-31.333 35.333 -82 69 -152 101zM819 1313c-84 0 -153.332 -22.668 -207.999 -68.001c-54 -45.333 -81 -101.333 -81 -168c0 -50.667 16.667 -94 50 -130
c29.333 -31.333 76.666 -61.666 141.999 -90.999zM862.001 795.999c112.667 -48.667 196 -102.333 250 -161c60 -65.333 90 -142.333 90 -231c0 -131.333 -49.333 -237.666 -148 -318.999c-96.667 -79.333 -220.667 -119 -372 -119h-15l-23 -108h-134l27 126
c-105.333 25.333 -192.333 74.333 -261 147c-70.667 74.667 -108.667 161 -114 259h182c18 -127.333 93.667 -209 227 -245l113 533l-51 21c-195.333 80.667 -293 203 -293 367c0 119.333 45.667 217 137 293c94 78 216.333 117 367 117h10l26 124h134l-30 -142
c98 -25.333 177.333 -74 238 -146s91.667 -153.333 93 -244h-181c-18 115.333 -79.667 190.666 -185 225.999l-104 -491z" />
    <glyph glyph-name="percent" unicode="%" horiz-adv-x="1610" 
d="M475 1257c-37.333 -54.667 -55.999 -118.667 -55.999 -192c0 -50 11 -90 33 -120c22 -30.667 51.333 -46 88 -46c49.333 0 92.333 27.667 129 83c36 54.667 54 119.667 54 195c0 50 -10.667 89.667 -32 119c-20.667 28.667 -49.334 43 -86.001 43
c-50 0 -93.333 -27.333 -130 -82zM129.001 0l1364 1443h188l-1362 -1443h-190zM335.001 851c-49.333 54 -74.001 125.668 -74.001 215.001c0 111.333 34 206 102 284c68.667 78.667 151.334 118 248.001 118c80.667 0 145.667 -27 195 -81c50 -54.667 75 -126 75 -214
c0 -110.667 -34 -205.334 -102 -284.001c-68.667 -79.333 -151 -119 -247 -119c-81.333 0 -147 27 -197 81zM1147 462.001c-37.333 -54.667 -55.999 -118.667 -55.999 -192c0 -50 11 -90 33 -120c22 -30.667 51.333 -46 88 -46c49.333 0 92.333 27.667 129 83
c36 54.667 54 119.667 54 195c0 50 -10.667 89.667 -32 119c-20.667 28.667 -49.334 43 -86.001 43c-50 0 -93.333 -27.333 -130 -82zM1007 56.001c-49.333 54 -74.001 125.668 -74.001 215.001c0 111.333 34 206 102 284c68.667 78.667 151.334 118 248.001 118
c80.667 0 145.667 -27 195 -81c50 -54.667 75 -126 75 -214c0 -110.667 -34 -205.334 -102 -284.001c-68.667 -79.333 -151 -119 -247 -119c-81.333 0 -147 27 -197 81z" />
    <glyph glyph-name="ampersand" unicode="&#x26;" horiz-adv-x="1457" 
d="M708 885c101.333 30.667 178.333 73.999 231 129.999c46.667 48.667 70 101.667 70 159c0 48.667 -17.333 87.334 -52 116.001c-34 28.667 -78 43 -132 43c-60.667 0 -112.667 -21 -156 -63c-43.333 -42.667 -65 -94 -65 -154c0 -59.333 34.667 -136.333 104 -231z
M948 224.999l-322 487.001l-57 -21c-185.333 -68 -278 -169 -278 -303c0 -76.667 28.333 -139.334 85 -188.001c58 -50.667 135 -76 231 -76c135.333 0 249 33.667 341 101zM1032 96c-118.667 -82 -263 -123.001 -433 -123.001c-136 0 -251 38.667 -345 116
c-95.333 78 -143 173.667 -143 287c0 191.333 125 335.666 375 432.999l62 24c-77.333 113.333 -116 209.333 -116 288c0 98.667 38.333 182.334 115 251.001c77.333 70 172.333 105 285 105c100.667 0 183.667 -27.333 249 -82c66 -54.667 99 -123.667 99 -207
c0 -86.667 -31.333 -165 -94 -235c-68 -76 -168.333 -136.333 -301 -181l291 -427c80 90.667 125.667 211.667 137 363l4 54h168l-5 -61c-16 -195.333 -86.667 -359.666 -212 -492.999l139 -208h-213z" />
    <glyph glyph-name="quotesingle" unicode="'" horiz-adv-x="518" 
d="M310 904l115 539h160l-115 -539h-160z" />
    <glyph glyph-name="parenleft" unicode="(" horiz-adv-x="728" 
d="M304 -277c-75.333 163.333 -113 365.667 -113 607c0 208 39 410 117 606c78.667 198 188 367 328 507h192c-308 -318.667 -462 -690.667 -462 -1116c0 -212.667 30.667 -414 92 -604h-154z" />
    <glyph glyph-name="parenright" unicode=")" horiz-adv-x="728" 
d="M549 1443c75.333 -163.333 113 -365.667 113 -607c0 -208 -38.667 -410 -116 -606c-78.667 -198 -188 -367 -328 -507h-192c307.333 318 461 690 461 1116c0 212.667 -30.667 414 -92 604h154z" />
    <glyph glyph-name="asterisk" unicode="*" horiz-adv-x="1032" 
d="M708 920l-52 -323l-144 12l85 322l-309 -154l-46 135l319 121l-257 171l101 122l233 -202l53 325l144 -12l-85 -323l309 154l45 -134l-318 -121l256 -171l-100 -123z" />
    <glyph glyph-name="plus" unicode="+" horiz-adv-x="1328" 
d="M694 71h-152l93 435h-433l33 148h431l92 435h152l-92 -435h433l-33 -148h-431z" />
    <glyph glyph-name="comma" unicode="," horiz-adv-x="628" 
d="M49 -367l217 569h202l-269 -569h-150z" />
    <glyph glyph-name="hyphen" unicode="-" horiz-adv-x="966" 
d="M200 499l35 163h656l-35 -163h-656z" />
    <glyph glyph-name="period" unicode="." horiz-adv-x="608" 
d="M151 28c-25.333 26 -38 56.667 -38 92c0 36 12.667 66.667 38 92c26 25.333 56.667 38 92 38c36 0 66.667 -12.667 92 -38s38 -56 38 -92c0 -35.333 -12.667 -66 -38 -92c-25.333 -25.333 -56 -38 -92 -38c-35.333 0 -66 12.667 -92 38z" />
    <glyph glyph-name="slash" unicode="/" horiz-adv-x="712" 
d="M-69 -325l816 1768h154l-818 -1768h-152z" />
    <glyph glyph-name="zero" unicode="0" horiz-adv-x="1290" 
d="M318 108c-77.333 93.333 -115.998 218.001 -115.998 374.001c0 281.333 64.667 518.333 194 711c127.333 189.333 281.666 284 462.999 284c130 0 234 -47.667 312 -143c77.333 -95.333 116 -221 116 -377c0 -282.667 -64 -519.334 -192 -710.001
c-126 -187.333 -280.333 -281 -463 -281c-130.667 0 -235.334 47.333 -314.001 142zM451.002 221.001c46 -64.667 110.668 -96.999 194.001 -96.999c125.333 0 233.666 81.667 324.999 245s137 359 137 587c0 112 -22.667 200.333 -68 265c-46 64.667 -109.667 97 -191 97
c-126 0 -235 -82 -327 -246c-92.667 -164.667 -139 -360.334 -139 -587.001c0 -112.667 23 -200.667 69 -264z" />
    <glyph glyph-name="one" unicode="1" horiz-adv-x="955" 
d="M705 1223h-16l-423 -262l44 206l443 276h179l-307 -1443h-180z" />
    <glyph glyph-name="two" unicode="2" horiz-adv-x="1237" 
d="M307 1067c14 121.333 66.999 220.003 158.999 296.003c92.667 76 205.334 114 338.001 114c123.333 0 226.333 -35 309 -105s124 -157 124 -261c0 -80.667 -28 -159.334 -84 -236.001c-55.333 -76.667 -162.333 -184.667 -321 -324l-426 -373l-4 -16h702l-34 -162h-970
l29 139l615 545c127.333 113.333 210.666 195.666 249.999 246.999c38.667 51.333 58 104.666 58 159.999c0 66 -24.667 120.667 -74 164s-111.666 65 -186.999 65c-79.333 0 -147 -23 -203 -69s-90.667 -107.333 -104 -184v-1z" />
    <glyph glyph-name="three" unicode="3" horiz-adv-x="1284" 
d="M573 819l208.997 -0.00195312c86.667 0 160 27.667 220 83c60 54.667 90 122 90 202c0 64 -24.667 116 -74 156c-50 39.333 -115 59 -195 59c-69.333 0 -132.666 -21 -189.999 -63c-57.333 -41.333 -95.666 -94.666 -114.999 -159.999h-177
c24.667 114.667 82.334 206.667 173.001 276c91.333 70 199.666 105 324.999 105c126.667 0 231.667 -33.667 315 -101s125 -151.666 125 -252.999c0 -95.333 -30 -177.333 -90 -246s-140 -112.667 -240 -132l-3 -16c79.333 -17.333 140.333 -51 183 -101s64 -113 64 -189
c0 -139.333 -50.667 -253 -152 -341s-232.333 -132 -393 -132c-136.667 0 -251.667 37.333 -345 112c-93.333 74 -140.333 165.333 -141 274c0 6.66699 0.666992 17.334 2 32.001h174v-8c0 -74.667 30 -135.334 90 -182.001c59.333 -47.333 136.333 -71 231 -71
c106.667 0 191.334 27.667 254.001 83c63.333 55.333 95 130 95 224c0 69.333 -29 126 -87 170c-58 43.333 -132.667 65 -224 65h-156z" />
    <glyph glyph-name="four" unicode="4" horiz-adv-x="1318" 
d="M823 299h-703.001l27 171c186.667 240 460.334 564.333 821.001 973h274l-209 -983h205l-34 -161h-205l-64 -299h-176zM337.999 459h520l173 817h-12c-210.667 -234.667 -437 -503 -679 -805z" />
    <glyph glyph-name="five" unicode="5" horiz-adv-x="1267" 
d="M312 80c-91.333 75.333 -137 168 -137 278c0 9.33301 0.666992 18.666 2 27.999h178v-7c0 -75.333 28 -136.666 84 -183.999c56.667 -47.333 129.667 -71 219 -71c106 0 192 35.667 258 107c64.667 70.667 97 162 97 274c0 86.667 -28 156 -84 208
c-53.333 50.667 -122.333 76 -207 76c-122 0 -219.333 -43 -292 -129h-178l244 783h796l-35 -161h-646l-133 -437l16 -2c73.333 64.667 164.333 97 273 97c120 0 221.333 -38.667 304 -116c84.667 -79.333 127 -178.333 127 -297c0 -164.667 -49 -298.667 -147 -402
c-100.667 -106 -233.667 -159 -399 -159c-134.667 0 -248 38 -340 114z" />
    <glyph glyph-name="six" unicode="6" horiz-adv-x="1305" 
d="M1073 131c-108 -110 -241.332 -165.002 -399.999 -165.002c-145.333 0 -261 47.333 -347 142s-129 222.334 -129 383.001c0 250 56.667 472 170 666c124.667 213.333 296.334 320 515.001 320c127.333 0 233.666 -37.333 318.999 -112s130.666 -170 135.999 -286h-186
c-6.66699 72.667 -35.667 130.334 -87 173.001c-51.333 43.333 -117.333 65 -198 65c-110.667 0 -205.667 -48 -285 -144s-138.333 -234 -177 -414l16 -2c96 127.333 224 191 384 191c126 0 229.333 -38.333 310 -115s121 -175.334 121 -296.001
c0 -161.333 -54 -296.666 -162 -405.999zM494.001 683.998c-73.333 -73.333 -110.001 -162.998 -110.001 -268.998c0 -86.667 27.667 -156.334 83 -209.001c54.667 -53.333 127.334 -80 218.001 -80c101.333 0 187.333 37.667 258 113c70 75.333 105 167.666 105 276.999
c0 82.667 -26.667 149.667 -80 201s-122.333 77 -207 77c-104.667 0 -193.667 -36.667 -267 -110z" />
    <glyph glyph-name="seven" unicode="7" horiz-adv-x="1167" 
d="M1066 1266l3 16h-737l35 161h925l-36 -167l-913 -1276h-197z" />
    <glyph glyph-name="eight" unicode="8" horiz-adv-x="1308" 
d="M1049 97c-104 -87.333 -235.665 -130.996 -394.998 -130.996c-148.667 0 -270.334 35.667 -365.001 107c-95.333 70.667 -143 162 -143 274c0 111.333 36.667 207 110 287c73.333 80.667 165.666 126.334 276.999 137.001l4 16c-120.667 58 -181 148 -181 270
c0 120.667 47 221 141 301c93.333 79.333 210.666 119 351.999 119c126 0 232 -33.333 318 -100c85.333 -66.667 128 -149.334 128 -248.001c0 -94.667 -29 -176.334 -87 -245.001c-58.667 -68.667 -135.667 -112.334 -231 -131.001l-4 -16
c72.667 -27.333 129.334 -68.333 170.001 -123c41.333 -54.667 62 -116.334 62 -185.001c0 -134.667 -52 -245.334 -156 -332.001zM436.002 593.004c-68 -58.667 -102 -132.666 -102 -221.999c0 -77.333 29.333 -138.333 88 -183s138.667 -67 240 -67
c104.667 0 190.667 28.667 258 86c68 57.333 102 130.666 102 219.999c0 75.333 -30.333 136.333 -91 183s-139.667 70 -237 70c-104 0 -190 -29 -258 -87zM608.002 888.005c50.667 -40 116.667 -60.001 198 -60.001c88.667 0 161.667 26.333 219 79
c58 52.667 87 119.334 87 200.001c0 64.667 -25.333 116.667 -76 156c-50 39.333 -116.333 59 -199 59c-90 0 -163.333 -25.667 -220 -77s-85 -118 -85 -200c0 -64.667 25.333 -117 76 -157z" />
    <glyph glyph-name="nine" unicode="9" horiz-adv-x="1306" 
d="M996 760c73.333 74 110.001 164 110.001 270c0 86.667 -27.667 156 -83 208c-54.667 52.667 -127.334 79 -218.001 79c-101.333 0 -187.333 -37.333 -258 -112c-70 -75.333 -105 -167.333 -105 -276c0 -82.667 26.667 -150 80 -202s122.333 -78 207 -78
c104.667 0 193.667 37 267 111zM417.001 1313c108 109.333 241.331 164 399.998 164c145.333 0 261 -47 347 -141s129 -221.333 129 -382c0 -252.667 -56.667 -476 -170 -670c-124 -212 -295.667 -318 -515 -318c-127.333 0 -233.666 37 -318.999 111
s-130.666 169 -135.999 285h186c6.66699 -72.667 35.667 -130 87 -172c51.333 -42.667 117.333 -64 198 -64c110.667 0 205.667 48 285 144s138.333 234 177 414l-16 2c-96 -127.333 -224 -191 -384 -191c-126 0 -229.333 38.667 -310 116s-121 176.333 -121 297
c0 160.667 54 295.667 162 405z" />
    <glyph glyph-name="colon" unicode=":" horiz-adv-x="608" 
d="M151 28c-25.333 26 -38 56.667 -38 92c0 36 12.667 66.667 38 92c26 25.333 56.667 38 92 38c36 0 66.667 -12.667 92 -38s38 -56 38 -92c0 -35.333 -12.667 -66 -38 -92c-25.333 -25.333 -56 -38 -92 -38c-35.333 0 -66 12.667 -92 38zM312 797
c-25.333 26 -38 56.667 -38 92c0 36 12.667 66.667 38 92c26 25.333 56.667 38 92 38c36 0 66.667 -12.667 92 -38s38 -56 38 -92c0 -35.333 -12.667 -66 -38 -92c-25.333 -25.333 -56 -38 -92 -38c-35.333 0 -66 12.667 -92 38z" />
    <glyph glyph-name="semicolon" unicode=";" horiz-adv-x="608" 
d="M-24 -367l217 569h202l-269 -569h-150zM313 797c-25.333 26 -38 56.667 -38 92c0 36 12.667 66.667 38 92c26 25.333 56.667 38 92 38c36 0 66.667 -12.667 92 -38s38 -56 38 -92c0 -35.333 -12.667 -66 -38 -92c-25.333 -25.333 -56 -38 -92 -38
c-35.333 0 -66 12.667 -92 38z" />
    <glyph glyph-name="less" unicode="&#x3c;" horiz-adv-x="1328" 
d="M1046 -21l-771 585l30 142l988 433l-40 -188l-790 -327l-3 -16l625 -445z" />
    <glyph glyph-name="equal" unicode="=" horiz-adv-x="1329" 
d="M166 312l32 149h1008l-32 -149h-1008zM248 700l32 149h1008l-32 -149h-1008z" />
    <glyph glyph-name="greater" unicode="&#x3e;" horiz-adv-x="1328" 
d="M398 1139l771 -585l-30 -142l-988 -433l40 188l790 327l3 16l-625 445z" />
    <glyph glyph-name="question" unicode="?" horiz-adv-x="1050" 
d="M246 1089c22.667 112.667 72.999 201.332 150.999 265.999c81.333 67.333 185.333 101 312 101c122 0 222 -32.333 300 -97c76 -63.333 114 -141 114 -233c0 -85.333 -27.333 -164 -82 -236c-52.667 -69.333 -122 -123.333 -208 -162c-72 -32 -123 -64 -153 -96
c-31.333 -31.333 -51.666 -73.333 -60.999 -126l-11 -60h-179l18 82c18 81.333 48 145 90 191c37.333 40.667 96.666 79.334 177.999 116.001c144.667 67.333 217 158 217 272c0 53.333 -20 98 -60 134c-43.333 38.667 -101.666 58 -174.999 58
c-68 0 -126.333 -18.333 -175 -55c-48.667 -37.333 -82.667 -89 -102 -155h-174zM354.999 20.998c-26 26 -39 59.332 -39 99.999s13 74.334 39 101.001c26 26 59.333 39 100 39s73.667 -13 99 -39c26 -26 39 -59.667 39 -101c0 -40.667 -13 -74 -39 -100
c-25.333 -26 -58.333 -39 -99 -39s-74 13 -100 39z" />
    <glyph glyph-name="at" unicode="@" horiz-adv-x="1880" 
d="M1706 1251c142.667 -124.667 214.001 -279.663 214.001 -464.996c0 -184.667 -45.333 -340.667 -136 -468s-201.667 -191 -333 -191c-62.667 0 -114.334 16.333 -155.001 49c-41.333 32.667 -62 73.667 -62 123l1 16l-16 1c-52.667 -92 -134 -138 -244 -138
c-94.667 0 -170.334 30 -227.001 90s-85 140 -85 240c0 143.333 39.333 264.333 118 363c79.333 98 176.666 147 291.999 147c58.667 0 111.334 -15.667 158.001 -47s75.334 -70 86.001 -116h16l26 124h157l-131 -603c-2.66699 -14 -4 -24.333 -4 -31
c0 -60.667 35.667 -91 107 -91c76 0 144.333 53.667 205 161c60 107.333 90 228.666 90 363.999c0 154 -59 281.333 -177 382s-267.333 151 -448 151c-216.667 0 -400.667 -78.667 -552 -236c-151.333 -158 -227 -350 -227 -576c0 -184.667 64.667 -333.334 194 -446.001
c129.333 -113.333 299.666 -170 510.999 -170c94.667 0 166.334 8.33301 215.001 25l-27 -126c-72 -16.667 -150.333 -25 -235 -25c-232 0 -422.667 68 -572 204c-149.333 135.333 -224 308.666 -224 519.999c0 275.333 88.333 503.666 265 684.999
c176 180.667 398.333 271 667 271c212 0 389.667 -62.333 533 -187zM1228 818.004c-35.333 40 -82.333 60 -141 60c-73.333 0 -135.333 -34.667 -186 -104s-76 -153.666 -76 -252.999c0 -62.667 16.667 -112.334 50 -149.001s78.333 -55 135 -55
c74.667 0 138.667 33.667 192 101c53.333 66.667 80 147 80 241c0 65.333 -18 118.333 -54 159z" />
    <glyph glyph-name="A" unicode="A" horiz-adv-x="1380" 
d="M1015 413h-579l-232 -413h-193l845 1443h167l226 -1443h-176zM522 566h473l-95 641h-16z" />
    <glyph glyph-name="B" unicode="B" horiz-adv-x="1346" 
d="M122 0l307.002 1443h501c123.333 0 221.666 -29 294.999 -87c74 -57.333 111 -134.333 111 -231c0 -90.667 -28.333 -169.667 -85 -237c-56.667 -66.667 -132.334 -110.334 -227.001 -131.001l-4 -16c77.333 -13.333 138.333 -45.333 183 -96c44 -50 66 -112.333 66 -187
c0 -133.333 -52.333 -243 -157 -329c-104 -86 -237.333 -129 -400 -129h-590zM480.002 821.001l298 0.000976562c110 0 199.333 24.667 268 74s103 113.666 103 192.999c0 130.667 -96 196 -288 196h-283zM706.002 159.002c106 0 194.667 26.999 266 80.999
c70.667 54.667 106 122.334 106 203.001c0 148.667 -98.667 223 -296 223h-335l-108 -507h367z" />
    <glyph glyph-name="C" unicode="C" horiz-adv-x="1463" 
d="M1323 992l-0.000976562 1.99609c-7.33301 96.667 -45 173.334 -113 230.001c-68 57.333 -155.667 86 -263 86c-157.333 0 -290 -70.667 -398 -212c-108 -142 -162 -317 -162 -525c0 -135.333 35.333 -242.666 106 -321.999c70.667 -78.667 166.334 -118 287.001 -118
c97.333 0 183.333 22.667 258 68c74.667 44.667 125 104.334 151 179.001h190c-36 -128.667 -109 -229.667 -219 -303c-110 -74 -243.333 -111 -400 -111c-168 0 -303.333 53.667 -406 161c-102.667 108 -154 250.333 -154 427c0 266 72.333 486.333 217 661
c144 174.667 325.333 262 544 262c156.667 0 286.667 -45.333 390 -136c103.333 -91.333 155 -205.666 155 -342.999v-6h-183z" />
    <glyph glyph-name="D" unicode="D" horiz-adv-x="1486" 
d="M832 1443c199.333 0 354.333 -56.002 465 -168.002c109.333 -111.333 164 -265.666 164 -462.999c0 -231.333 -71.667 -424.666 -215 -579.999c-143.333 -154.667 -320.333 -232 -531 -232h-591l305 1443h403zM340 159.998h381.999c158.667 0 290.334 61 395.001 183
c105.333 122 158 275.333 158 460c0 151.333 -40 269 -120 353c-80.667 84.667 -193 127 -337 127h-239z" />
    <glyph glyph-name="E" unicode="E" horiz-adv-x="1219" 
d="M1018 0h-896l307 1443h896l-35 -162h-711l-100 -463h675l-34 -160h-674l-106 -496h712z" />
    <glyph glyph-name="F" unicode="F" horiz-adv-x="1170" 
d="M122 0l307 1443h878l-35 -162h-693l-107 -496h637l-34 -160h-637l-131 -625h-185z" />
    <glyph glyph-name="G" unicode="G" horiz-adv-x="1525" 
d="M1448 540c-40 -186.667 -117.667 -328.999 -233 -426.999c-114.667 -98 -261.334 -147 -440.001 -147c-171.333 0 -310 54.667 -416 164c-105.333 109.333 -158 253.333 -158 432c0 264.667 72 483.334 216 656.001s325.667 259 545 259c150 0 275.667 -42 377 -126
c102 -84 157.667 -191.667 167 -323c0.666992 -5.33301 1 -17.333 1 -36h-183c-7.33301 97.333 -44.666 174.666 -111.999 231.999c-68 57.333 -156 86 -264 86c-158.667 0 -291.667 -70 -399 -210c-107.333 -139.333 -161 -312.333 -161 -519c0 -138.667 37 -248 111 -328
s174.667 -120 302 -120c114.667 0 214 35.667 298 107c84.667 71.333 138.667 165.666 162 282.999l11 55h-400l34 158h584z" />
    <glyph glyph-name="H" unicode="H" horiz-adv-x="1522" 
d="M1093 0l140 657h-788l-140 -657h-183l307 1443h184l-133 -624h788l133 624h184l-307 -1443h-185z" />
    <glyph glyph-name="I" unicode="I" horiz-adv-x="550" 
d="M122 0l307 1443h184l-307 -1443h-184z" />
    <glyph glyph-name="J" unicode="J" horiz-adv-x="1102" 
d="M287 337c1.33301 -62.667 22.001 -111.999 62.001 -147.999c39.333 -36 93 -54 161 -54c138.667 0 227 89.667 265 269l221 1039h179l-228 -1080c-27.333 -127.333 -79.666 -225 -156.999 -293c-78.667 -69.333 -179.334 -104 -302.001 -104
c-116 0 -210.667 35.333 -284 106c-72.667 71.333 -105.334 159.666 -98.001 264.999h181z" />
    <glyph glyph-name="K" unicode="K" horiz-adv-x="1349" 
d="M122 0l307 1443h179l-149 -701h16l772 701h235l-702 -635l449 -808h-210l-381 697l-229 -204l-107 -493h-180z" />
    <glyph glyph-name="L" unicode="L" horiz-adv-x="1164" 
d="M1000 0h-878l307 1443h184l-273 -1281h694z" />
    <glyph glyph-name="M" unicode="M" horiz-adv-x="1792" 
d="M122 0l307 1443h200l242 -1194h16l746 1194h222l-307 -1443h-172l234 1102h-12l-685 -1092h-152l-221 1092h-12l-234 -1102h-172z" />
    <glyph glyph-name="N" unicode="N" horiz-adv-x="1520" 
d="M122 0l307 1443h177l534 -1153h16l245 1153h182l-307 -1443h-179l-533 1150h-16l-244 -1150h-182z" />
    <glyph glyph-name="O" unicode="O" horiz-adv-x="1579" 
d="M366 136c-110.667 112.667 -165.999 255.001 -165.999 427.001c0 262.667 74 480.667 222 654s334.333 260 559 260c168.667 0 307.667 -56.333 417 -169c110 -112.667 165 -255.334 165 -428.001c0 -264.667 -73.333 -483 -220 -655
c-146.667 -172.667 -332.334 -259 -557.001 -259c-168.667 0 -308.667 56.667 -420 170zM1261 1186c-75.333 82.667 -173.333 124 -294 124c-164.667 0 -302 -69.667 -412 -209c-110 -140 -165 -314 -165 -522c0 -133.333 37.667 -241 113 -323s174.333 -123 297 -123
c165.333 0 302.333 69 411 207c108 138 162 312.667 162 524c0 132.667 -37.333 240 -112 322z" />
    <glyph glyph-name="P" unicode="P" horiz-adv-x="1304" 
d="M936 1443c118 0 215.667 -35 293 -105c80.667 -73.333 121 -168.333 121 -285c0 -164 -55.667 -295.667 -167 -395c-106.667 -95.333 -242.667 -143 -408 -143h-360l-109 -515h-184l307 1443h507zM449 675h315c121.333 0 217.333 31.333 288 94
c73.333 64.667 110 154 110 268c0 77.333 -26 138 -78 182c-52 42.667 -122.333 64 -211 64h-294z" />
    <glyph glyph-name="Q" unicode="Q" horiz-adv-x="1579" 
d="M1104 -163l-84.998 164.001c-70 -23.333 -147.667 -35 -233 -35c-168.667 0 -308.334 56.333 -419.001 169c-111.333 113.333 -167 256 -167 428c0 262.667 74.333 480.667 223 654c148 173.333 334 260 558 260c168 0 307 -56.333 417 -169s165 -255.334 165 -428.001
c0 -175.333 -34.333 -334 -103 -476s-164.334 -251.667 -287.001 -329l123 -238h-192zM941.002 151.001l-135.998 261.999h194l96 -186c87.333 63.333 155.666 151 204.999 263c48.667 112 73 236.667 73 374c0 132.667 -37.667 240.334 -113 323.001
c-74.667 82 -172.334 123 -293.001 123c-164 0 -301 -69.667 -411 -209c-110.667 -140 -166 -314 -166 -522c0 -133.333 38 -241 114 -323c75.333 -82 174 -123 296 -123c51.333 0 98.333 6 141 18z" />
    <glyph glyph-name="R" unicode="R" horiz-adv-x="1338" 
d="M429 1443h498.999c130.667 0 235.334 -34.667 314.001 -104c78 -69.333 117 -162 117 -278c0 -112 -35 -210 -105 -294c-70.667 -84 -164.667 -140 -282 -168l207 -599h-196l-188 571h-368l-121 -571h-184zM460.999 731h348c106 0 192.667 29.333 260 88
c66.667 58 100 133 100 225c0 73.333 -22 131.333 -66 174c-44.667 43.333 -104.667 65 -180 65h-344z" />
    <glyph glyph-name="S" unicode="S" horiz-adv-x="1276" 
d="M300 400c17.333 -83.333 59.334 -149.337 126.001 -198.004c67.333 -48.667 149.666 -73 246.999 -73c99.333 0 180 23.667 242 71c61.333 46.667 92 108.334 92 185.001c0 59.333 -20.667 109.333 -62 150c-40.667 40.667 -107.667 77.334 -201 110.001l-137 48
c-98.667 34.667 -175 84.334 -229 149.001c-54.667 64.667 -82 138.334 -82 221.001c0 118.667 48.333 217.334 145 296.001c97.333 78.667 218.666 118 363.999 118c137.333 0 253.333 -39.333 348 -118s147.334 -179.334 158.001 -302.001h-181
c-18.667 81.333 -57.334 144.333 -116.001 189c-59.333 45.333 -132.666 68 -219.999 68c-89.333 0 -163 -22 -221 -66c-58 -44.667 -87 -101 -87 -169c0 -100 77.333 -178 232 -234l130 -47c233.333 -84 350 -214 350 -390c0 -130.667 -50.333 -237 -151 -319
c-100 -82 -229.667 -123 -389 -123c-148 0 -270 38.667 -366 116c-96.667 77.333 -154.667 183.333 -174 318h182z" />
    <glyph glyph-name="T" unicode="T" horiz-adv-x="1291" 
d="M493 0l272 1281h-463l34 162h1110l-34 -162h-463l-272 -1281h-184z" />
    <glyph glyph-name="U" unicode="U" horiz-adv-x="1524" 
d="M363 96c-84.667 81.333 -128.003 187.332 -130.003 317.999c-0.666992 40 3.66602 83.333 12.999 130l188 899h184l-186 -887c-9.33301 -45.333 -13.666 -89.666 -12.999 -132.999c4 -91.333 34.333 -162 91 -212c60 -52.667 146 -79 258 -79
c108 0 200.333 31.667 277 95c78 64.667 128.667 152.667 152 264l203 952h184l-210 -987c-33.333 -157.333 -102.666 -277.333 -207.999 -360c-109.333 -86.667 -252.666 -130 -429.999 -130c-157.333 0 -281.666 43.333 -372.999 130z" />
    <glyph glyph-name="V" unicode="V" horiz-adv-x="1380" 
d="M541 0l-226 1443h170l186 -1204h16l671 1204h199l-838 -1443h-178z" />
    <glyph glyph-name="W" unicode="W" horiz-adv-x="1982" 
d="M600 0h-177l-87 1443h165l58 -1173h12l572 1173h162l94 -1173h12l541 1173h186l-692 -1443h-177l-97 1139h-12z" />
    <glyph glyph-name="X" unicode="X" horiz-adv-x="1390" 
d="M685 752l-323 691h206l249 -574h16l508 574h205l-649 -727l332 -716h-194l-268 586h-16l-517 -586h-204z" />
    <glyph glyph-name="Y" unicode="Y" horiz-adv-x="1344" 
d="M520 0l132 621l-336 822h187l268 -649h16l526 649h207l-692 -848l-124 -595h-184z" />
    <glyph glyph-name="Z" unicode="Z" horiz-adv-x="1355" 
d="M110 128l1048 1137l4 16h-779l34 162h1022l-27 -128l-1045 -1137l-3 -16h820l-34 -162h-1067z" />
    <glyph glyph-name="bracketleft" unicode="[" horiz-adv-x="758" 
d="M892 1444l-29 -136h-284l-300 -1413h296l-29 -135h-464l358 1684h452z" />
    <glyph glyph-name="backslash" unicode="\" horiz-adv-x="712" 
d="M310 1443h144l64 -1768h-142z" />
    <glyph glyph-name="bracketright" unicode="]" horiz-adv-x="758" 
d="M453 -240h-452l29 136h284l300 1413h-296l29 134h464z" />
    <glyph glyph-name="asciicircum" unicode="^" horiz-adv-x="828" 
d="M336 815h-169l396 609h184l138 -609h-161l-88 463h-16z" />
    <glyph glyph-name="underscore" unicode="_" horiz-adv-x="916" 
d="M-120 -235l27 128h936l-27 -128h-936z" />
    <glyph glyph-name="grave" unicode="`" horiz-adv-x="1094" 
d="M799 1263l-206 338h214l180 -338h-188z" />
    <glyph glyph-name="a" unicode="a" horiz-adv-x="1126" 
d="M703 202c62 47.333 100.999 107.667 116.999 181l27 124l-287 -14c-88 -4.66699 -156.333 -24 -205 -58c-48.667 -34.667 -73 -80.334 -73 -137.001c0 -49.333 19.333 -89.666 58 -120.999s88.334 -47 149.001 -47c80.667 0 152 24 214 72zM199.999 67.001
c-63.333 57.333 -94.998 127.999 -94.998 211.999c0 106 40 189.667 120 251c80.667 61.333 195.667 95.333 345 102l306 14l16 73c4 22 6 39 6 51c0 54.667 -20.333 97 -61 127c-40.667 30.667 -97.334 46 -170.001 46c-124 0 -203.667 -45 -239 -135h-182
c24 88.667 75 159 153 211c78.667 52 172.667 78 282 78c118.667 0 213.667 -27.333 285 -82c71.333 -55.333 107 -128.666 107 -219.999c0 -28.667 -3 -58 -9 -88l-150 -707h-167l30 141h-16c-80.667 -106.667 -189.334 -160 -326.001 -160c-94 0 -172.333 28.667 -235 86z
" />
    <glyph glyph-name="b" unicode="b" horiz-adv-x="1259" 
d="M459 42c-62 41.333 -103.667 93.668 -125 157.001h-16l-44 -199h-165l320 1506h172l-120 -575h16c82 110.667 194.667 166 338 166c108.667 0 199.334 -39.333 272.001 -118c73.333 -79.333 110 -179 110 -299c0 -196.667 -53 -362.334 -159 -497.001
c-106.667 -134.667 -237.667 -202 -393 -202c-74.667 0 -143.334 20.333 -206.001 61zM927 284.002c73.333 98.667 110 221.999 110 369.999c0 90.667 -22.667 161.334 -68 212.001c-46 50.667 -109.667 76 -191 76c-111.333 0 -205.333 -49 -282 -147
s-115 -218.333 -115 -361c0 -91.333 24.333 -164 73 -218c48.667 -53.333 114.667 -80 198 -80c110 0 201.667 49.333 275 148z" />
    <glyph glyph-name="c" unicode="c" horiz-adv-x="1135" 
d="M966 748c-5.33301 56 -32.334 102.333 -81.001 139c-48 36.667 -106.333 55 -175 55c-106.667 0 -195.667 -46 -267 -138s-107 -206.333 -107 -343c0 -100 24.333 -179 73 -237c48 -57.333 113.667 -86 197 -86c140 0 231.667 56.667 275 170h179
c-22 -98 -76 -177 -162 -237s-188.333 -90 -307 -90c-131.333 0 -236.666 41.667 -315.999 125c-80 83.333 -120 194 -120 332c0 189.333 53.667 346.333 161 471c108 125.333 244 188 408 188c106 0 197.333 -28.333 274 -85c76 -56 122.333 -128.333 139 -217
c2 -10 3.66699 -25.667 5 -47h-176z" />
    <glyph glyph-name="d" unicode="d" horiz-adv-x="1265" 
d="M267 99c-76.667 82 -115.001 188.333 -115.001 319c0 194 53.667 356 161 486c106.667 128.667 238.334 193 395.001 193c77.333 0 146 -20.333 206 -61c58.667 -40 97.667 -92.333 117 -157h16l133 627h175l-320 -1506h-166l31 147h-16
c-84.667 -110.667 -198 -166 -340 -166c-110.667 0 -203 39.333 -277 118zM878.999 283c75.333 98 113.002 218.333 113.002 361c0 91.333 -24.333 164 -73 218c-48.667 53.333 -114.667 80 -198 80c-110.667 0 -203 -46.667 -277 -140c-74.667 -94.667 -112 -214 -112 -358
c0 -91.333 24.667 -165.333 74 -222c49.333 -57.333 113.666 -86 192.999 -86c111.333 0 204.666 49 279.999 147z" />
    <glyph glyph-name="e" unicode="e" horiz-adv-x="1176" 
d="M285 97c-86 82.667 -128.998 194.333 -128.998 335c0 198 52.333 358.667 157 482c104 122 238.667 183 404 183c116 0 212 -37.667 288 -113c80.667 -80 121.334 -187.667 122.001 -323c0 -57.333 -4.33301 -111.333 -13 -162h-777c-1.33301 -24 -2 -42 -2 -54
c0 -102.667 28.667 -181.667 86 -237c49.333 -46.667 110.666 -70 183.999 -70c131.333 0 221.666 45.667 270.999 137h183c-22.667 -86 -74.334 -155.667 -155.001 -209c-84.667 -56.667 -188 -85 -310 -85c-125.333 0 -228.333 38.667 -309 116zM945.002 637.999
c1.33301 8 1.99805 23 1.99805 45c0 74.667 -20.667 136 -62 184c-44.667 52 -106 78 -184 78c-81.333 0 -152.666 -28 -213.999 -84c-59.333 -54.667 -101.666 -129 -126.999 -223h585z" />
    <glyph glyph-name="f" unicode="f" horiz-adv-x="741" 
d="M367 934h-178.999l30 144h179l20 105c20.667 110 61.334 189.667 122.001 239c59.333 49.333 143.666 74 252.999 74c41.333 0 81.666 -3.33301 120.999 -10l-29 -144c-26.667 6 -63 9 -109 9c-100 0 -161 -57.667 -183 -173l-19 -100h245l-30 -144h-245l-194 -934h-176z
" />
    <glyph glyph-name="g" unicode="g" horiz-adv-x="1247" 
d="M195 -321c-80 58.667 -123.334 130.332 -130.001 214.999h183c8 -45.333 34.667 -82.333 80 -111c49.333 -31.333 112 -47 188 -47c181.333 0 291 80.667 329 242l47 200h-16c-77.333 -108 -186 -162 -326 -162c-111.333 0 -204 39.667 -278 119
c-76 81.333 -114 185.333 -114 312c0 190.667 51.333 347 154 469c100.667 120.667 228 181 382 181c76 0 145.667 -20.333 209 -61c64 -41.333 106.667 -93.666 128 -156.999h16l42 199h167l-244 -1130c-24 -111.333 -80 -199 -168 -263c-90 -65.333 -204 -98 -342 -98
c-121.333 0 -223.666 30.667 -306.999 92zM874.999 298.998c72.667 89.333 109 204.333 109 345c0 91.333 -25 164 -75 218c-50 53.333 -117.333 80 -202 80c-108 0 -196.333 -42.333 -265 -127c-69.333 -86.667 -104 -200.667 -104 -342c0 -95.333 23.667 -170 71 -224
s112 -81 194 -81c110 0 200.667 43.667 272 131z" />
    <glyph glyph-name="h" unicode="h" horiz-adv-x="1236" 
d="M431 1506l175 -0.000976562l-127 -589h16c84 120 195 180 333 180c102 0 186 -32.667 252 -98c62.667 -62 94 -137.333 94 -226c0 -37.333 -4.66699 -78.666 -14 -123.999l-138 -649h-175l132 619c8.66699 42 13 77 13 105c0 66 -21 118.667 -63 158
c-42.667 40 -100.667 60 -174 60c-83.333 0 -155.333 -27 -216 -81c-58.667 -52 -97 -119.667 -115 -203l-140 -658h-175z" />
    <glyph glyph-name="i" unicode="i" horiz-adv-x="516" 
d="M340 1078h176l-231 -1078h-176zM413 1332c-23.333 24 -35 52.333 -35 85c0 33.333 11.667 61.666 35 84.999c24 23.333 52.333 35 85 35c33.333 0 61.666 -11.667 84.999 -35s35 -51.666 35 -84.999c0 -32.667 -11.667 -61 -35 -85
c-23.333 -23.333 -51.666 -35 -84.999 -35c-32.667 0 -61 11.667 -85 35z" />
    <glyph glyph-name="j" unicode="j" horiz-adv-x="516" 
d="M262 -107c-21.333 -100.667 -60.001 -174.333 -116.001 -221c-55.333 -46 -131.666 -69.333 -228.999 -70c-29.333 0 -56.333 1.33301 -81 4l33 152c21.333 -2 39 -3 53 -3c50.667 0 89 12 115 36s45.333 65.667 58 125l247 1162h172zM413.999 1332
c-23.333 24 -35 52.333 -35 85c0 33.333 11.667 61.666 35 84.999c24 23.333 52.333 35 85 35c33.333 0 61.666 -11.667 84.999 -35s35 -51.666 35 -84.999c0 -32.667 -11.667 -61 -35 -85c-23.333 -23.333 -51.666 -35 -84.999 -35c-32.667 0 -61 11.667 -85 35z" />
    <glyph glyph-name="k" unicode="k" horiz-adv-x="1086" 
d="M980 1078h227l-565 -465l363 -613h-201l-301 516l-130 -94l-90 -422h-174l320 1506h174l-185 -870h16z" />
    <glyph glyph-name="l" unicode="l" horiz-adv-x="516" 
d="M429 1506h176l-320 -1506h-176z" />
    <glyph glyph-name="m" unicode="m" horiz-adv-x="1782" 
d="M328 1078l166.995 -0.000976562l-35 -166h16c29.333 54 71 98 125 132c56 35.333 113.667 53 173 53c74.667 0 139 -20.333 193 -61c48.667 -37.333 79.334 -82.666 92.001 -135.999h16c82 131.333 197.333 197 346 197c88 0 160.667 -27.333 218 -82
c58 -56 87 -126.667 87 -212c0 -37.333 -4.66699 -78.666 -14 -123.999l-144 -679h-175l138 649c8.66699 42 13 77 13 105c0 53.333 -16.667 97.666 -50 132.999c-35.333 36.667 -82.666 55 -141.999 55c-66 0 -125.333 -23.667 -178 -71
c-55.333 -49.333 -91.666 -114.333 -108.999 -195l-144 -676h-175l138 649c8.66699 42 13 77 13 105c0 53.333 -16.667 97.666 -50 132.999c-35.333 36.667 -82.666 55 -141.999 55c-65.333 0 -124.666 -23.333 -177.999 -70c-55.333 -47.333 -91 -108.666 -107 -183.999
l-146 -688h-175z" />
    <glyph glyph-name="n" unicode="n" horiz-adv-x="1218" 
d="M328 1078l167 -0.000976562l-34 -161h16c84 120 196.333 180 337 180c100.667 0 183.667 -32.667 249 -98c62 -62 93 -137.333 93 -226c0 -37.333 -4.66699 -78.666 -14 -123.999l-138 -649h-175l132 619c8.66699 42 13 77 13 105c0 65.333 -20.667 118 -62 158
c-42.667 40 -99.667 60 -171 60c-81.333 0 -152.333 -27 -213 -81c-58 -52 -96 -119.667 -114 -203l-140 -658h-175z" />
    <glyph glyph-name="o" unicode="o" horiz-adv-x="1212" 
d="M411 225c51.333 -59.333 120 -89.002 206 -89.002c96.667 0 181 44.333 253 133c74 92.667 111 207 111 343c0 102.667 -24 183.334 -72 242.001c-48.667 58.667 -115 88 -199 88c-114 0 -205 -47 -273 -141c-66.667 -91.333 -100 -209 -100 -353
c0 -91.333 24.667 -165.666 74 -222.999zM276 105.998c-81.333 82.667 -122.001 189.668 -122.001 321.001c0 188.667 50.333 346 151 472c106.667 132 247 198 421 198c131.333 0 237.666 -41.667 318.999 -125c80 -82 120 -188.333 120 -319
c0 -184.667 -49.667 -340.334 -149 -467.001c-107.333 -136.667 -247.666 -205 -420.999 -205c-131.333 0 -237.666 41.667 -318.999 125z" />
    <glyph glyph-name="p" unicode="p" horiz-adv-x="1254" 
d="M922 284c73.333 98.667 110 221.999 110 369.999c0 90.667 -22.667 161.334 -68 212.001c-46 50.667 -109.667 76 -191 76c-111.333 0 -205.333 -49 -282 -147s-115 -218.333 -115 -361c0 -91.333 24.333 -164 73 -218c48.667 -53.333 114.667 -80 198 -80
c110 0 201.667 49.333 275 148zM27 -360.001l305.999 1438h166l-31 -147h16c84.667 110.667 199.334 166 344.001 166c109.333 0 200.333 -39.333 273 -118c74 -79.333 111 -179 111 -299c0 -196.667 -53 -362.334 -159 -497.001c-106.667 -134.667 -237.667 -202 -393 -202
c-77.333 0 -146 20.333 -206 61c-58.667 40 -97.667 92.333 -117 157h-16l-121 -559h-173z" />
    <glyph glyph-name="q" unicode="q" horiz-adv-x="1251" 
d="M872 283c76.667 98 115 218.332 115 360.999c0 91.333 -24.333 164 -73 218c-48.667 53.333 -114.667 80 -198 80c-110 0 -201.667 -48 -275 -144c-73.333 -95.333 -110 -214.666 -110 -357.999c0 -96 22.667 -170.667 68 -224c46 -53.333 109.667 -80 191 -80
c111.333 0 205.333 49 282 147zM781 -360.001l105.999 506.998h-16c-82 -110.667 -194.667 -166 -338 -166c-109.333 0 -200 40.667 -272 122c-73.333 82.667 -110 186.334 -110 311.001c0 192 53 354 159 486c106.667 131.333 237.667 197 393 197
c74.667 0 143.334 -20.333 206.001 -61c62 -41.333 103.667 -93.666 125 -156.999h16l42 199h167l-306 -1438h-172z" />
    <glyph glyph-name="r" unicode="r" horiz-adv-x="791" 
d="M320 1078h166.001l-29 -137h16c69.333 104 165.666 156 288.999 156c58 0 100 -5 126 -15l-37 -165c-38.667 8.66699 -84 13 -136 13c-168 0 -273 -97.667 -315 -293l-135 -637h-174z" />
    <glyph glyph-name="s" unicode="s" horiz-adv-x="1052" 
d="M274 289c14 -48.667 42.665 -87.665 85.998 -116.998c45.333 -30.667 101 -46 167 -46c72.667 0 132.334 15.667 179.001 47s70 71.666 70 120.999c0 68.667 -45 117.334 -135 146.001l-165 53c-166.667 54 -250 148 -250 282c0 95.333 38.333 173 115 233
c76 59.333 172.333 89 289 89c112.667 0 205.334 -27 278.001 -81c70 -52.667 112.333 -124 127 -214h-171c-11.333 46.667 -37.666 83 -78.999 109c-42.667 26.667 -95.334 40 -158.001 40c-66 0 -120.333 -15 -163 -45c-43.333 -30 -65 -68.333 -65 -115
c0 -64.667 50.333 -113.334 151 -146.001l146 -47c90 -28.667 155.333 -66.334 196 -113.001c40.667 -46 61 -105.333 61 -178c0 -94.667 -41 -172.667 -123 -234s-185.667 -92 -311 -92c-118 0 -216 28.333 -294 85c-77.333 56.667 -120 131 -128 223h177z" />
    <glyph glyph-name="t" unicode="t" horiz-adv-x="744" 
d="M298 46c-48.667 38.667 -72.999 93.333 -72.999 164c0 26.667 3.66699 57.667 11 93l135 631h-181l30 144h182l55 269h175l-57 -269h250l-30 -144h-250l-123 -578c-8 -38 -12 -70.333 -12 -97c0 -77.333 45.333 -116 136 -116c25.333 0 48.333 1.33301 69 4l-31 -145
c-38.667 -6.66699 -72.334 -10 -101.001 -10c-78 0 -139.667 18 -185 54z" />
    <glyph glyph-name="u" unicode="u" horiz-adv-x="1215" 
d="M996 0l-165.998 -0.00195312l33 146h-16c-70.667 -110 -185.334 -165 -344.001 -165c-97.333 0 -177 30 -239 90c-62 58.667 -93 133 -93 223c0 44.667 5 91.334 15 140.001l135 644h175l-131 -619c-9.33301 -45.333 -14 -85.666 -14 -120.999
c0 -134.667 73 -202 219 -202c85.333 0 159.666 27.667 222.999 83c62 54 102 124.333 120 211l138 648h174z" />
    <glyph glyph-name="v" unicode="v" horiz-adv-x="1110" 
d="M410 1078l126 -856h16l468 856h191l-622 -1078h-183l-169 1078h173z" />
    <glyph glyph-name="w" unicode="w" horiz-adv-x="1586" 
d="M1154 0h-175l-70 827h-16l-411 -827h-174l-72 1078h157l49 -853h16l411 853h175l57 -862h16l396 862h173z" />
    <glyph glyph-name="x" unicode="x" horiz-adv-x="1076" 
d="M561 405l-339 -405h-205l484 548l-258 530h188l179 -401h16l337 401h205l-481 -539l256 -539h-181l-185 405h-16z" />
    <glyph glyph-name="y" unicode="y" horiz-adv-x="1112" 
d="M39 -380l26 147c26 -8.66699 60 -13 102 -13c72 0 140.333 60.333 205 181l39 73l-175 1070h171l128 -857h16l472 857h189l-686 -1196c-60.667 -106 -119.667 -179 -177 -219c-51.333 -36.667 -115.333 -55 -192 -55c-24.667 0 -64 4 -118 12z" />
    <glyph glyph-name="z" unicode="z" horiz-adv-x="1104" 
d="M103 126l764 792l3 16h-594l32 144h826l-29 -129l-758 -789l-3 -16h593l-31 -144h-830z" />
    <glyph glyph-name="braceleft" unicode="{" horiz-adv-x="823" 
d="M332 606c92 -21.333 137.999 -73.666 137.999 -156.999c0 -21.333 -3.33301 -49.333 -10 -84l-71 -334c-6.66699 -33.333 -10 -60 -10 -80c0 -99.333 65 -149 195 -149h45l-29 -136h-48c-101.333 0 -182.333 22.667 -243 68c-60 44 -90 102.333 -90 175
c0 34.667 4.33301 71.334 13 110.001l61 289c8 37.333 12 69 12 95c0 42 -11.667 72 -35 90c-22 17.333 -58.667 26 -110 26l41 191c66.667 0 116.334 15.667 149.001 47c32 31.333 56.667 86.666 74 165.999l59 275c46 216 200 324 462 324h50l-30 -141h-45
c-83.333 0 -147 -17.333 -191 -52s-74.333 -92.334 -91 -173.001l-63 -296c-31.333 -146.667 -108 -226 -230 -238z" />
    <glyph glyph-name="bar" unicode="|" horiz-adv-x="676" 
d="M134 -326l376 1769h148l-376 -1769h-148z" />
    <glyph glyph-name="braceright" unicode="}" horiz-adv-x="824" 
d="M623 582c-92 21.333 -137.999 73.668 -137.999 157.001c0 21.333 3.33301 49.333 10 84l71 334c6.66699 33.333 10 60 10 80c0 99.333 -65 149 -195 149h-45l29 136h48c101.333 0 182.333 -22.333 243 -67c60 -44.667 90 -103.334 90 -176.001
c0 -34.667 -4.33301 -71.334 -13 -110.001l-61 -289c-8 -36.667 -12 -68.334 -12 -95.001c0 -42 11.667 -72 35 -90c22 -17.333 58.667 -26 110 -26l-41 -191c-66.667 0 -116.334 -15.667 -149.001 -47c-32 -31.333 -56.667 -86.666 -74 -165.999l-59 -275
c-46 -216 -200 -324 -462 -324h-50l30 141h45c83.333 0 147 17.333 191 52s74.333 92.334 91 173.001l63 296c31.333 146.667 108 226 230 238z" />
    <glyph glyph-name="asciitilde" unicode="~" horiz-adv-x="1202" 
d="M509 626c-43.333 48 -67.333 74 -72 78c-26 24 -51 36 -75 36c-70.667 0 -116 -55.667 -136 -167h-171c12 103.333 48.333 185 109 245c56.667 56 124.334 84 203.001 84c74 0 145.333 -38 214 -114c42.667 -47.333 66.667 -73.333 72 -78c26 -24 51 -36 75 -36
c72 0 118 55.667 138 167h171c-12 -103.333 -48.333 -185 -109 -245c-56.667 -56 -124.334 -84 -203.001 -84c-74.667 0 -146.667 38 -216 114z" />
    <glyph glyph-name="uni00A0" unicode="&#xa0;" horiz-adv-x="578" 
 />
    <glyph glyph-name="exclamdown" unicode="&#xa1;" horiz-adv-x="636" 
d="M86 -342l222 964h166l-188 -964h-200zM565 1080c26 -26 39 -59 39 -99s-13 -73.333 -39 -100c-26.667 -26.667 -60 -40 -100 -40s-73 13.333 -99 40s-39 60 -39 100s13 73 39 99c26 26.667 59 40 99 40s73.333 -13.333 100 -40z" />
    <glyph glyph-name="cent" unicode="&#xa2;" horiz-adv-x="1328" 
d="M1187 504c-20.667 -92.667 -70.3359 -168.666 -149.003 -227.999c-78 -58.667 -172 -91.334 -282 -98.001l-38 -178h-172l41 194c-94 26 -168.333 78 -223 156c-54.667 79.333 -82 175.333 -82 288c0 183.333 50.667 337 152 461
c101.333 123.333 230.666 189 387.999 197l31 147h172l-35 -165c72.667 -21.333 133.334 -56.666 182.001 -105.999c48.667 -50.667 79.334 -109.667 92.001 -177c2.66699 -19.333 4.33398 -35 5.00098 -47h-176c-5.33301 56 -32.333 102.333 -81 139
c-48 36.667 -106.333 55 -175 55c-106.667 0 -195.667 -46 -267 -138s-107 -206.333 -107 -343c0 -100.667 24.333 -180.334 73 -239.001s114.334 -88 197.001 -88c140 0 231.667 56.667 275 170h179z" />
    <glyph glyph-name="sterling" unicode="&#xa3;" horiz-adv-x="1328" 
d="M1155 0l-1062 0.00195312l32 152c93.333 16 177.333 58.333 252 127c88 81.333 132 177.666 132 288.999c0 20 -1.66699 48.333 -5 85h-314l30 144h269c-6.66699 77.333 -10 134.333 -10 171c0 160 45.333 283.333 136 370c96.667 92.667 240.667 139 432 139
c140 0 254 -21.667 342 -65l-35 -158c-74 42.667 -178 64 -312 64c-116 0 -206.333 -26 -271 -78c-68 -55.333 -102 -135.333 -102 -240c0 -48.667 3.66699 -116.334 11 -203.001h428l-30 -144h-389c1.33301 -26.667 2 -45.667 2 -57c0 -223.333 -90.333 -365.333 -271 -426
l-3 -16h771z" />
    <glyph glyph-name="currency" unicode="&#xa4;" horiz-adv-x="1328" 
d="M523 470c51.333 -52 113.333 -78 186 -78s134.667 26 186 78c52 51.333 78 113.333 78 186s-26 134.667 -78 186c-51.333 52 -113.333 78 -186 78s-134.667 -26 -186 -78c-52 -51.333 -78 -113.333 -78 -186s26 -134.667 78 -186zM1050 847
c33.333 -59.333 50 -123 50 -191c0 -94.667 -31 -179 -93 -253l109 -138l-123 -98l-110 139c-54.667 -27.333 -112.667 -41 -174 -41c-95.333 0 -179.333 31 -252 93l-239 -198l-87 110l236 196c-32.667 60 -49 123.333 -49 190c0 95.333 31 179.333 93 252l-111 140l123 98
l111 -141c54 28 112.333 42 175 42c94.667 0 178.667 -30.667 252 -92l237 196l87 -110z" />
    <glyph glyph-name="yen" unicode="&#xa5;" horiz-adv-x="1328" 
d="M752 269l-55 -269h-185l57 269h-278l29 136h278l35 166h-278l29 136h225l-301 736h187l268 -649h16l526 649h207l-601 -736h207l-29 -136h-274l-35 -166h274l-29 -136h-273z" />
    <glyph glyph-name="brokenbar" unicode="&#xa6;" horiz-adv-x="676" 
d="M368 774l142 669h148l-142 -669h-148zM134 -326l142 669h148l-142 -669h-148z" />
    <glyph glyph-name="section" unicode="&#xa7;" horiz-adv-x="1032" 
d="M591 373c66.667 11.333 119.667 35.999 159 73.999c40 38 60 83.667 60 137c0 73.333 -41.667 125.333 -125 156l-86 31c-68.667 -6 -125.667 -28 -171 -66c-46.667 -39.333 -70 -86.666 -70 -141.999c0 -68.667 47 -120.667 141 -156zM180 -172.001
c-76.667 58 -118 132.33 -124 222.997h177c12 -48.667 38 -87.667 78 -117c42 -30.667 93.667 -46 155 -46c68 0 123.333 15.667 166 47c42 31.333 63 71.666 63 120.999c0 66.667 -41.667 115.334 -125 146.001l-145 53c-160 58.667 -240 153.334 -240 284.001
c0 72 24.667 133.667 74 185c48 50.667 111.667 84 191 100l4 18c-102.667 60.667 -154 140.334 -154 239.001c0 94.667 36.333 171.334 109 230.001c71.333 57.333 163 86 275 86c107.333 0 195.666 -27.667 264.999 -83c67.333 -52.667 107.333 -123.334 120 -212.001
h-171c-9.33301 44.667 -33.333 80.667 -72 108c-39.333 27.333 -87.666 41 -144.999 41c-60.667 0 -110.667 -15 -150 -45c-38.667 -30 -58 -68.333 -58 -115c0 -62 47 -110.667 141 -146l126 -47c84 -31.333 145.333 -67.666 184 -108.999c42 -44.667 63 -102 63 -172
s-22.667 -132 -68 -186c-47.333 -56.667 -111.333 -94.667 -192 -114l-3 -12c98.667 -60.667 148 -140.667 148 -240c0 -94 -39 -171.333 -117 -232c-77.333 -60 -176.333 -90 -297 -90c-110 0 -202.667 28.333 -278 85z" />
    <glyph glyph-name="dieresis" unicode="&#xa8;" horiz-adv-x="1094" 
d="M492 1298c-23.333 24 -35 52.667 -35 86s11.667 62 35 86c24 23.333 52.667 35 86 35s62 -11.667 86 -35c23.333 -24 35 -52.667 35 -86s-11.667 -62 -35 -86c-24 -23.333 -52.667 -35 -86 -35s-62 11.667 -86 35zM896 1298c-23.333 24 -35 52.667 -35 86
s11.667 62 35 86c24 23.333 52.667 35 86 35s62 -11.667 86 -35c23.333 -24 35 -52.667 35 -86s-11.667 -62 -35 -86c-24 -23.333 -52.667 -35 -86 -35s-62 11.667 -86 35z" />
    <glyph glyph-name="copyright" unicode="&#xa9;" horiz-adv-x="1742" 
d="M379 33c-141.333 135.333 -211.999 300.334 -211.999 495.001c0 256.667 85 470 255 640s383.333 255 640 255c207.333 0 380.666 -66.667 519.999 -200c139.333 -132.667 209 -298.334 209 -497.001c0 -257.333 -85 -471.333 -255 -642
c-170 -170 -383.667 -255 -641 -255c-202.667 0 -374.667 68 -516 204zM1434 183.001c142 142.667 213 317.668 213 525.001c0 165.333 -57 302.666 -171 411.999c-114 108.667 -257.333 163 -430 163c-205.333 0 -379.333 -71.333 -522 -214
c-142 -142 -213 -316.333 -213 -523c0 -163.333 57.667 -300.333 173 -411s258 -166 428 -166c206 0 380 71.333 522 214zM1208 795.002c-4 42 -24.001 76.999 -60.001 104.999c-36.667 27.333 -80.667 41 -132 41c-80 0 -146.667 -34.333 -200 -103
c-54 -69.333 -81 -155.333 -81 -258c0 -75.333 18.333 -135 55 -179c36 -44 85.333 -66 148 -66c104.667 0 173.334 42.333 206.001 127h134c-16.667 -73.333 -57 -132.666 -121 -177.999c-64.667 -44.667 -141.334 -67 -230.001 -67c-98 0 -177 31.667 -237 95
s-90 147 -90 251c0 142 40.333 260 121 354c80.667 93.333 182.334 140 305.001 140c90 0 163.333 -23.667 220 -71s88 -111 94 -191h-132z" />
    <glyph glyph-name="ordfeminine" unicode="&#xaa;" horiz-adv-x="942" 
d="M571 949c-69.333 -3.33301 -123.668 -18.6641 -163.001 -45.9971c-38.667 -26.667 -58 -62.334 -58 -107.001c0 -38.667 15.333 -70.334 46 -95.001s70.334 -37 119.001 -37c64 0 120.667 18.333 170 55c49.333 37.333 80.333 84.666 93 141.999l21 99zM261.998 599.002
c-52.667 47.333 -78.9971 106.333 -78.9971 177c0 89.333 34 159.666 102 210.999c68.667 52 165.667 80.333 291 85l249 11l13 60c3.33301 20.667 4.66602 34 3.99902 40c0.666992 42.667 -15.333 76.334 -48 101.001c-32.667 24 -77.667 36 -135 36
c-98.667 0 -162.334 -35.667 -191.001 -107h-168c19.333 76 62.666 136.333 129.999 181s148 67 242 67c102 0 183.667 -23.333 245 -70s92 -108.667 92 -186c0 -28 -2.33301 -52.333 -7 -73l-126 -591h-160l25 117h-14c-64.667 -86.667 -154.667 -130 -270 -130
c-78 0 -143 23.667 -195 71z" />
    <glyph glyph-name="guillemotleft" unicode="&#xab;" horiz-adv-x="1390" 
d="M891 553l-3 -16l248 -392h-190l-262 416l2 8l439 416h219zM413 553l-3 -16l248 -392h-190l-262 416l2 8l439 416h219z" />
    <glyph glyph-name="logicalnot" unicode="&#xac;" horiz-adv-x="1328" 
d="M1104 126h-148l81 380h-800l31 148h948z" />
    <glyph glyph-name="registered" unicode="&#xae;" horiz-adv-x="1261" 
d="M496 655l105.999 498.999h241c43.333 0 80 -13.333 110 -40c28.667 -26 43 -57 43 -93c0 -46 -14 -84.333 -42 -115c-27.333 -29.333 -63.666 -47.666 -108.999 -54.999l96 -196h-120l-90 183h-98l-39 -183h-98zM650.999 921.999h124c72.667 0 109 27.667 109 83
c0 40 -25.333 60 -76 60h-127zM387.999 1258c101.333 100.667 224.666 151 369.999 151c146 0 269.667 -50.333 371 -151c100.667 -101.333 151 -225 151 -371c0 -145.333 -50.333 -268.666 -151 -369.999c-101.333 -101.333 -225 -152 -371 -152
c-145.333 0 -268.666 50.667 -369.999 152s-152 224.666 -152 369.999c0 146 50.667 269.667 152 371zM1055 1184c-80.667 80.667 -179.665 121 -296.998 121c-116.667 0 -215.334 -40.333 -296.001 -121c-81.333 -81.333 -122 -180.333 -122 -297s40 -215.334 120 -296.001
c80.667 -81.333 179 -122 295 -122c117.333 0 216.666 40.667 297.999 122c82 80.667 123 179.334 123 296.001c0 117.333 -40.333 216.333 -121 297z" />
    <glyph glyph-name="macron" unicode="&#xaf;" horiz-adv-x="1094" 
d="M422 1286l29 136h674l-29 -136h-674z" />
    <glyph glyph-name="degree" unicode="&#xb0;" horiz-adv-x="820" 
d="M400 992c-54.667 55.333 -82 122.667 -82 202s27.333 146.666 82 201.999c55.333 55.333 122.666 83 201.999 83s146.666 -27.667 201.999 -83s83 -122.666 83 -201.999c0 -78.667 -27.667 -146 -83 -202c-55.333 -55.333 -122.666 -83 -201.999 -83
s-146.666 27.667 -201.999 83zM714 1084c30.667 30.667 46 67.333 46 110c0 43.333 -15.333 80.333 -46 111s-68 46 -112 46c-42 0 -78.667 -15.333 -110 -46s-47 -67.667 -47 -111c0 -42 15.667 -78.667 47 -110c31.333 -30.667 68 -46 110 -46c44 0 81.333 15.333 112 46z
" />
    <glyph glyph-name="plusminus" unicode="&#xb1;" horiz-adv-x="1328" 
d="M118 112l31 148h1018l-31 -148h-1018zM758 371h-152l62 291h-433l29 136h433l63 291h152l-63 -291h433l-29 -136h-433z" />
    <glyph glyph-name="uni00B2" unicode="&#xb2;" horiz-adv-x="855" 
d="M365 1547c7.33301 81.333 42.667 148.334 106 201.001c64 52.667 142.333 79 235 79c85.333 0 156.333 -23 213 -69c56 -46 84 -103.667 84 -173c0 -53.333 -18.333 -104 -55 -152s-109 -115.667 -217 -203l-212 -178l-2 -11h403l-30 -141h-646l27 126l356 297
c84 69.333 139 119.666 165 150.999c25.333 31.333 38 63 38 95c0 35.333 -13 64 -39 86c-25.333 22.667 -58.333 34 -99 34c-41.333 0 -77.333 -12.667 -108 -38c-30 -25.333 -49 -59 -57 -101v-3h-162z" />
    <glyph glyph-name="uni00B3" unicode="&#xb3;" horiz-adv-x="867" 
d="M571 1429l122.998 -0.00195312c48.667 0 89 13.667 121 41s48 62 48 104c0 34.667 -13.333 62.667 -40 84s-61.667 32 -105 32c-38 0 -72 -10.667 -102 -32s-50.333 -49.666 -61 -84.999h-161c16 77.333 54.667 139 116 185s135.333 69 222 69
c87.333 0 159.333 -22 216 -66s85 -99.667 85 -167c0 -58.667 -20 -109.667 -60 -153c-39.333 -43.333 -90 -69.666 -152 -78.999l-1 -11c104 -22.667 156 -84.667 156 -186c0 -84 -33.333 -153 -100 -207c-66.667 -54.667 -151.667 -82 -255 -82
c-104 0 -187.667 27.667 -251 83s-89.666 124 -78.999 206h165c0 -44 15.333 -79.333 46 -106c30.667 -27.333 71.334 -41 122.001 -41c54 0 97.333 14.333 130 43c33.333 29.333 50 67.666 50 114.999c0 36.667 -15 66.334 -45 89.001c-30 23.333 -68.333 35 -115 35h-99z
" />
    <glyph glyph-name="acute" unicode="&#xb4;" horiz-adv-x="1094" 
d="M842 1601h220l-350 -338h-194z" />
    <glyph glyph-name="paragraph" unicode="&#xb6;" horiz-adv-x="1321" 
d="M593 -220l169 795.001c-120.667 0 -219.667 35 -297 105c-77.333 70.667 -116 160.667 -116 270c0 145.333 54 263.666 162 354.999c107.333 92 246 138 416 138h200l-354 -1663h-180zM1274 1443h180l-354 -1663h-180z" />
    <glyph glyph-name="periodcentered" unicode="&#xb7;" horiz-adv-x="630" 
d="M310 637c-26.667 26.667 -40 60.667 -40 102s13.333 75.333 40 102s60.667 40 102 40c40.667 0 74.334 -13.333 101.001 -40c26 -26.667 39 -60.667 39 -102s-13 -75.333 -39 -102c-26.667 -26.667 -60.334 -40 -101.001 -40c-41.333 0 -75.333 13.333 -102 40z" />
    <glyph glyph-name="cedilla" unicode="&#xb8;" horiz-adv-x="1094" 
d="M293 -143l112.999 182.001h141l-111 -179c119.333 -13.333 179 -65.333 179 -156c0 -56.667 -23 -103.334 -69 -140.001c-46.667 -36.667 -106 -55 -178 -55c-63.333 0 -121.666 12 -174.999 36l23 108c43.333 -18.667 92.333 -28 147 -28c69.333 0 104 23.333 104 70
c0 48 -44.667 72 -134 72h-53z" />
    <glyph glyph-name="uni00B9" unicode="&#xb9;" horiz-adv-x="680" 
d="M603 1625h-11l-256 -155l36 169l270 164h173l-192 -903h-174z" />
    <glyph glyph-name="ordmasculine" unicode="&#xba;" horiz-adv-x="1024" 
d="M487 1208c-56.667 -71.333 -85.0029 -160.333 -85.0029 -267c0 -86.667 19.333 -154.667 58 -204s92.334 -74 161.001 -74c83.333 0 154 37.333 212 112s87 166 87 274c0 82 -19.667 147 -59 195c-39.333 47.333 -92.666 71 -159.999 71
c-85.333 0 -156.666 -35.667 -213.999 -107zM326.997 624c-68 72.667 -101.999 170.667 -101.999 294c0 154.667 47.667 284 143 388c95.333 104.667 213.333 157 354 157c115.333 0 206.666 -36 273.999 -108s101 -169.667 101 -293c0 -154 -47.667 -283.667 -143 -389
c-94.667 -105.333 -211.667 -158 -351 -158c-115.333 0 -207.333 36.333 -276 109z" />
    <glyph glyph-name="guillemotright" unicode="&#xbb;" horiz-adv-x="1393" 
d="M372 985h190l262 -416l-2 -8l-439 -416h-219l453 432l3 16zM853 985h190l262 -416l-2 -8l-439 -416h-219l453 432l3 16z" />
    <glyph glyph-name="onequarter" unicode="&#xbc;" horiz-adv-x="2046" 
d="M1472 1443h173l-944 -1443h-173zM1657 166h-442.999l28 156c109.333 144 270.666 337.667 483.999 581h254l-127 -596h120l-30 -141h-120l-35 -166h-166zM1402 303h288l98 465h-9c-120 -136 -245 -288 -375 -456zM615.001 1265h-11l-256 -155l36 169l270 164h173
l-192 -903h-174z" />
    <glyph glyph-name="onehalf" unicode="&#xbd;" horiz-adv-x="2036" 
d="M1386 647c7.33301 81.333 42.667 148.334 106 201.001c64 52.667 142.333 79 235 79c85.333 0 156.333 -23 213 -69c56 -46 84 -103.667 84 -173c0 -53.333 -18.333 -104 -55 -152s-109 -115.667 -217 -203l-212 -178l-2 -11h403l-30 -141h-646l27 126l356 297
c84 69.333 139 119.666 165 150.999c25.333 31.333 38 63 38 95c0 35.333 -13 64 -39 86c-25.333 22.667 -58.333 34 -99 34c-41.333 0 -77.333 -12.667 -108 -38c-30 -25.333 -49 -59 -57 -101v-3h-162zM615.001 1265h-11l-256 -155l36 169l270 164h173l-192 -903h-174z
M1472 1443h173l-944 -1443h-173z" />
    <glyph glyph-name="threequarters" unicode="&#xbe;" horiz-adv-x="2182" 
d="M1622 1443h173l-944 -1443h-173zM1807 166h-443l28 156c108.667 144 270 337.667 484 581h254l-127 -596h120l-30 -141h-120l-35 -166h-166zM1552 303h288l98 465h-9c-120 -136 -245 -288 -375 -456zM494 1069l122.998 -0.00195312c48.667 0 89 13.667 121 41
s48 62 48 104c0 34.667 -13.333 62.667 -40 84s-61.667 32 -105 32c-38 0 -72 -10.667 -102 -32s-50.333 -49.666 -61 -84.999h-161c16 77.333 54.667 139 116 185s135.333 69 222 69c87.333 0 159.333 -22 216 -66s85 -99.667 85 -167c0 -58.667 -20 -109.667 -60 -153
c-39.333 -43.333 -90 -69.666 -152 -78.999l-1 -11c104 -22.667 156 -84.667 156 -186c0 -84 -33.333 -153 -100 -207c-66.667 -54.667 -151.667 -82 -255 -82c-104 0 -187.667 27.667 -251 83s-89.666 124 -78.999 206h165c0 -44 15.333 -79.333 46 -106
c30.667 -27.333 71.334 -41 122.001 -41c54 0 97.333 14.333 130 43c33.333 29.333 50 67.666 50 114.999c0 36.667 -15 66.334 -45 89.001c-30 23.333 -68.333 35 -115 35h-99z" />
    <glyph glyph-name="questiondown" unicode="&#xbf;" horiz-adv-x="1049" 
d="M807 1081c26 -26 39 -59.332 39 -99.999s-13 -74.334 -39 -101.001c-26 -26 -59.333 -39 -100 -39s-73.667 13 -99 39c-26 26 -39 59.667 -39 101c0 40.667 13 74 39 100c25.333 26 58.333 39 99 39s74 -13 100 -39zM916 13.001
c-22.667 -112.667 -73 -201.334 -151 -266.001c-81.333 -67.333 -185.333 -101 -312 -101c-122 0 -222 32.667 -300 98c-76 62.667 -114 140 -114 232c0 85.333 27.333 164.333 82 237c52.667 68.667 122 122.334 208 161.001c72 32 123.333 64 154 96
c30.667 31.333 50.667 73.333 60 126l11 60h179l-18 -82c-18 -81.333 -48 -145 -90 -191c-37.333 -40.667 -96.666 -79.334 -177.999 -116.001c-144.667 -67.333 -217 -158 -217 -272c0 -53.333 20 -97.666 60 -132.999c43.333 -39.333 101.666 -59 174.999 -59
c68 0 126.333 18.667 175 56c48.667 36.667 82.667 88 102 154h174z" />
    <glyph glyph-name="Agrave" unicode="&#xc0;" horiz-adv-x="1380" 
d="M1015 413h-579l-232 -413h-193l845 1443h167l226 -1443h-176zM522 566h473l-95 641h-16zM1049 1575h-184l-206 298h206z" />
    <glyph glyph-name="Aacute" unicode="&#xc1;" horiz-adv-x="1380" 
d="M1015 413h-579l-232 -413h-193l845 1443h167l226 -1443h-176zM522 566h473l-95 641h-16zM1250 1873h226l-395 -298h-204z" />
    <glyph glyph-name="Acircumflex" unicode="&#xc2;" horiz-adv-x="1380" 
d="M1015 413h-579l-232 -413h-193l845 1443h167l226 -1443h-176zM522 566h473l-95 641h-16zM1304 1575h-185l-105 186h-16l-183 -186h-207l310 298h202z" />
    <glyph glyph-name="Atilde" unicode="&#xc3;" horiz-adv-x="1380" 
d="M1015 413h-579l-232 -413h-193l845 1443h167l226 -1443h-176zM522 566h473l-95 641h-16zM970 1657c-58 54 -98.667 81 -122 81c-59.333 0 -97.333 -39.333 -114 -118h-142c13.333 78.667 44 141 92 187c47.333 44 103 66 167 66c62 0 122 -27 180 -81
c58 -54.667 98.667 -82 122 -82c60 0 98.333 39.333 115 118h142c-13.333 -78.667 -44 -140.667 -92 -186c-47.333 -44.667 -103 -67 -167 -67c-62.667 0 -123 27.333 -181 82z" />
    <glyph glyph-name="Adieresis" unicode="&#xc4;" horiz-adv-x="1380" 
d="M1015 413h-579l-232 -413h-193l845 1443h167l226 -1443h-176zM522 566h473l-95 641h-16zM705 1610c-23.333 24 -35 52.667 -35 86s11.667 62 35 86c24 23.333 52.667 35 86 35s62 -11.667 86 -35c23.333 -24 35 -52.667 35 -86s-11.667 -62 -35 -86
c-24 -23.333 -52.667 -35 -86 -35s-62 11.667 -86 35zM1109 1610c-23.333 24 -35 52.667 -35 86s11.667 62 35 86c24 23.333 52.667 35 86 35s62 -11.667 86 -35c23.333 -24 35 -52.667 35 -86s-11.667 -62 -35 -86c-24 -23.333 -52.667 -35 -86 -35s-62 11.667 -86 35z" />
    <glyph glyph-name="Aring" unicode="&#xc5;" horiz-adv-x="1380" 
d="M1015 413h-579l-232 -413h-193l845 1443h167l226 -1443h-176zM522 566h473l-95 641h-16zM851 1637c-45.333 44.667 -68 99 -68 163s22.667 118.333 68 163c45.333 44 100 66 164 66s118.667 -22 164 -66c45.333 -44.667 68 -99 68 -163s-22.667 -118.333 -68 -163
c-45.333 -44 -100 -66 -164 -66s-118.667 22 -164 66zM1102 1712c23.333 23.333 35 52.666 35 87.999s-11.667 64.666 -35 87.999s-52.333 35 -87 35s-63.667 -11.667 -87 -35s-35 -52.666 -35 -87.999s11.667 -64.666 35 -87.999s52.333 -35 87 -35s63.667 11.667 87 35z
" />
    <glyph glyph-name="AE" unicode="&#xc6;" horiz-adv-x="1966" 
d="M1060 1292l-455 -680h457l145 680h-147zM1030 459h-527l-307 -459h-187l958 1443h1110l-35 -162h-658l-100 -473h621l-34 -160h-621l-104 -486h658l-34 -162h-838z" />
    <glyph glyph-name="Ccedilla" unicode="&#xc7;" horiz-adv-x="1466" 
d="M1323 992l-0.00195312 1.99707c-7.33301 96.667 -45 173.334 -113 230.001c-68 57.333 -155.667 86 -263 86c-157.333 0 -290 -70.667 -398 -212c-108 -142 -162 -317 -162 -525c0 -135.333 35.333 -242.666 106 -321.999c70.667 -78.667 166.334 -118 287.001 -118
c97.333 0 183.333 22.667 258 68c74.667 44.667 125 104.334 151 179.001h190c-32.667 -118 -97.334 -213.333 -194.001 -286c-96.667 -72 -214 -113.667 -352 -125l-68 -109c119.333 -13.333 179 -65.333 179 -156c0 -56.667 -23 -103.334 -69 -140.001
c-46.667 -36.667 -106 -55 -178 -55c-63.333 0 -121.666 12 -174.999 36l23 108c43.333 -18.667 92.333 -28 147 -28c69.333 0 104 23.333 104 70c0 48 -44.667 72 -134 72h-53l13 90l70 112c-149.333 15.333 -268.666 75.333 -357.999 180c-89.333 106 -134 241 -134 405
c0 266 72.333 486.333 217 661c144 174.667 325.333 262 544 262c156.667 0 286.667 -45.333 390 -136c103.333 -91.333 155 -205.666 155 -342.999v-6h-183z" />
    <glyph glyph-name="Egrave" unicode="&#xc8;" horiz-adv-x="1219" 
d="M1018 0h-896l307 1443h896l-35 -162h-711l-100 -463h675l-34 -160h-674l-106 -496h712zM986 1575h-184l-206 298h206z" />
    <glyph glyph-name="Eacute" unicode="&#xc9;" horiz-adv-x="1219" 
d="M1018 0h-896l307 1443h896l-35 -162h-711l-100 -463h675l-34 -160h-674l-106 -496h712zM1187 1873h226l-395 -298h-204z" />
    <glyph glyph-name="Ecircumflex" unicode="&#xca;" horiz-adv-x="1219" 
d="M1018 0h-896l307 1443h896l-35 -162h-711l-100 -463h675l-34 -160h-674l-106 -496h712zM1241 1575h-185l-105 186h-16l-183 -186h-207l310 298h202z" />
    <glyph glyph-name="Edieresis" unicode="&#xcb;" horiz-adv-x="1219" 
d="M1018 0h-896l307 1443h896l-35 -162h-711l-100 -463h675l-34 -160h-674l-106 -496h712zM642 1610c-23.333 24 -35 52.667 -35 86s11.667 62 35 86c24 23.333 52.667 35 86 35s62 -11.667 86 -35c23.333 -24 35 -52.667 35 -86s-11.667 -62 -35 -86
c-24 -23.333 -52.667 -35 -86 -35s-62 11.667 -86 35zM1046 1610c-23.333 24 -35 52.667 -35 86s11.667 62 35 86c24 23.333 52.667 35 86 35s62 -11.667 86 -35c23.333 -24 35 -52.667 35 -86s-11.667 -62 -35 -86c-24 -23.333 -52.667 -35 -86 -35s-62 11.667 -86 35z" />
    <glyph glyph-name="Igrave" unicode="&#xcc;" horiz-adv-x="550" 
d="M122 0l307 1443h184l-307 -1443h-184zM631 1575h-184l-206 298h206z" />
    <glyph glyph-name="Iacute" unicode="&#xcd;" horiz-adv-x="550" 
d="M122 0l307 1443h184l-307 -1443h-184zM832 1873h226l-395 -298h-204z" />
    <glyph glyph-name="Icircumflex" unicode="&#xce;" horiz-adv-x="550" 
d="M122 0l307 1443h184l-307 -1443h-184zM886 1575h-185l-105 186h-16l-183 -186h-207l310 298h202z" />
    <glyph glyph-name="Idieresis" unicode="&#xcf;" horiz-adv-x="550" 
d="M122 0l307 1443h184l-307 -1443h-184zM287 1610c-23.333 24 -35 52.667 -35 86s11.667 62 35 86c24 23.333 52.667 35 86 35s62 -11.667 86 -35c23.333 -24 35 -52.667 35 -86s-11.667 -62 -35 -86c-24 -23.333 -52.667 -35 -86 -35s-62 11.667 -86 35zM691 1610
c-23.333 24 -35 52.667 -35 86s11.667 62 35 86c24 23.333 52.667 35 86 35s62 -11.667 86 -35c23.333 -24 35 -52.667 35 -86s-11.667 -62 -35 -86c-24 -23.333 -52.667 -35 -86 -35s-62 11.667 -86 35z" />
    <glyph glyph-name="Eth" unicode="&#xd0;" horiz-adv-x="1486" 
d="M722 160c158.667 0 290.333 61 395 183c105.333 122 158 275.333 158 460c0 151.333 -40 269 -120 353c-80.667 84.667 -193 127 -337 127h-239l-97 -457h202l-35 -163h-202l-107 -503h382zM831.999 1443c199.333 0 354.333 -56.002 465 -168.002
c109.333 -111.333 164 -265.666 164 -462.999c0 -231.333 -71.667 -424.666 -215 -579.999c-143.333 -154.667 -320.333 -232 -531 -232h-591l140 663h-201l35 163h201l130 617h403z" />
    <glyph glyph-name="Ntilde" unicode="&#xd1;" horiz-adv-x="1520" 
d="M122 0l307 1443h177l534 -1153h16l245 1153h182l-307 -1443h-179l-533 1150h-16l-244 -1150h-182zM1046 1657c-58 54 -98.667 81 -122 81c-59.333 0 -97.333 -39.333 -114 -118h-142c13.333 78.667 44 141 92 187c47.333 44 103 66 167 66c62 0 122 -27 180 -81
c58 -54.667 98.667 -82 122 -82c60 0 98.333 39.333 115 118h142c-13.333 -78.667 -44 -140.667 -92 -186c-47.333 -44.667 -103 -67 -167 -67c-62.667 0 -123 27.333 -181 82z" />
    <glyph glyph-name="Ograve" unicode="&#xd2;" horiz-adv-x="1579" 
d="M366 136c-110.667 112.667 -165.999 255.001 -165.999 427.001c0 262.667 74 480.667 222 654s334.333 260 559 260c168.667 0 307.667 -56.333 417 -169c110 -112.667 165 -255.334 165 -428.001c0 -264.667 -73.333 -483 -220 -655
c-146.667 -172.667 -332.334 -259 -557.001 -259c-168.667 0 -308.667 56.667 -420 170zM1261 1186c-75.333 82.667 -173.333 124 -294 124c-164.667 0 -302 -69.667 -412 -209c-110 -140 -165 -314 -165 -522c0 -133.333 37.667 -241 113 -323s174.333 -123 297 -123
c165.333 0 302.333 69 411 207c108 138 162 312.667 162 524c0 132.667 -37.333 240 -112 322zM1086 1573h-184l-206 298h206z" />
    <glyph glyph-name="Oacute" unicode="&#xd3;" horiz-adv-x="1579" 
d="M366 136c-110.667 112.667 -165.999 255.001 -165.999 427.001c0 262.667 74 480.667 222 654s334.333 260 559 260c168.667 0 307.667 -56.333 417 -169c110 -112.667 165 -255.334 165 -428.001c0 -264.667 -73.333 -483 -220 -655
c-146.667 -172.667 -332.334 -259 -557.001 -259c-168.667 0 -308.667 56.667 -420 170zM1261 1186c-75.333 82.667 -173.333 124 -294 124c-164.667 0 -302 -69.667 -412 -209c-110 -140 -165 -314 -165 -522c0 -133.333 37.667 -241 113 -323s174.333 -123 297 -123
c165.333 0 302.333 69 411 207c108 138 162 312.667 162 524c0 132.667 -37.333 240 -112 322zM1287 1871h226l-395 -298h-204z" />
    <glyph glyph-name="Ocircumflex" unicode="&#xd4;" horiz-adv-x="1579" 
d="M366 136c-110.667 112.667 -165.999 255.001 -165.999 427.001c0 262.667 74 480.667 222 654s334.333 260 559 260c168.667 0 307.667 -56.333 417 -169c110 -112.667 165 -255.334 165 -428.001c0 -264.667 -73.333 -483 -220 -655
c-146.667 -172.667 -332.334 -259 -557.001 -259c-168.667 0 -308.667 56.667 -420 170zM1261 1186c-75.333 82.667 -173.333 124 -294 124c-164.667 0 -302 -69.667 -412 -209c-110 -140 -165 -314 -165 -522c0 -133.333 37.667 -241 113 -323s174.333 -123 297 -123
c165.333 0 302.333 69 411 207c108 138 162 312.667 162 524c0 132.667 -37.333 240 -112 322zM1341 1573h-185l-105 186h-16l-183 -186h-207l310 298h202z" />
    <glyph glyph-name="Otilde" unicode="&#xd5;" horiz-adv-x="1579" 
d="M366 136c-110.667 112.667 -165.999 255.001 -165.999 427.001c0 262.667 74 480.667 222 654s334.333 260 559 260c168.667 0 307.667 -56.333 417 -169c110 -112.667 165 -255.334 165 -428.001c0 -264.667 -73.333 -483 -220 -655
c-146.667 -172.667 -332.334 -259 -557.001 -259c-168.667 0 -308.667 56.667 -420 170zM1261 1186c-75.333 82.667 -173.333 124 -294 124c-164.667 0 -302 -69.667 -412 -209c-110 -140 -165 -314 -165 -522c0 -133.333 37.667 -241 113 -323s174.333 -123 297 -123
c165.333 0 302.333 69 411 207c108 138 162 312.667 162 524c0 132.667 -37.333 240 -112 322zM1007 1655c-58 54 -98.667 81 -122 81c-59.333 0 -97.333 -39.333 -114 -118h-142c13.333 78.667 44 141 92 187c47.333 44 103 66 167 66c62 0 122 -27 180 -81
c58 -54.667 98.667 -82 122 -82c60 0 98.333 39.333 115 118h142c-13.333 -78.667 -44 -140.667 -92 -186c-47.333 -44.667 -103 -67 -167 -67c-62.667 0 -123 27.333 -181 82z" />
    <glyph glyph-name="Odieresis" unicode="&#xd6;" horiz-adv-x="1579" 
d="M366 136c-110.667 112.667 -165.999 255.001 -165.999 427.001c0 262.667 74 480.667 222 654s334.333 260 559 260c168.667 0 307.667 -56.333 417 -169c110 -112.667 165 -255.334 165 -428.001c0 -264.667 -73.333 -483 -220 -655
c-146.667 -172.667 -332.334 -259 -557.001 -259c-168.667 0 -308.667 56.667 -420 170zM1261 1186c-75.333 82.667 -173.333 124 -294 124c-164.667 0 -302 -69.667 -412 -209c-110 -140 -165 -314 -165 -522c0 -133.333 37.667 -241 113 -323s174.333 -123 297 -123
c165.333 0 302.333 69 411 207c108 138 162 312.667 162 524c0 132.667 -37.333 240 -112 322zM742.001 1608c-23.333 24 -35 52.667 -35 86s11.667 62 35 86c24 23.333 52.667 35 86 35s62 -11.667 86 -35c23.333 -24 35 -52.667 35 -86s-11.667 -62 -35 -86
c-24 -23.333 -52.667 -35 -86 -35s-62 11.667 -86 35zM1146 1608c-23.333 24 -35 52.667 -35 86s11.667 62 35 86c24 23.333 52.667 35 86 35s62 -11.667 86 -35c23.333 -24 35 -52.667 35 -86s-11.667 -62 -35 -86c-24 -23.333 -52.667 -35 -86 -35s-62 11.667 -86 35z" />
    <glyph glyph-name="multiply" unicode="&#xd7;" horiz-adv-x="1328" 
d="M710 467l-373 -307l-94 116l373 308l-238 304l126 104l239 -303l373 307l94 -116l-372 -308l233 -300l-126 -104z" />
    <glyph glyph-name="Oslash" unicode="&#xd8;" horiz-adv-x="1551" 
d="M557 208c68.667 -50 149.667 -75 243 -75c165.333 0 302.333 69 411 207c108 138 162 312.667 162 524c0 116.667 -29.333 214.667 -88 294zM1197 1242c-64.667 45.333 -141.333 68 -230 68c-164.667 0 -302 -69.667 -412 -209c-110 -140 -165 -314 -165 -522
c0 -110 26.333 -203.333 79 -280zM1399 1307c109.333 -112.667 164.003 -255 164.003 -427c0 -264.667 -73.333 -483 -220 -655c-146.667 -172.667 -332.334 -259 -557.001 -259c-126.667 0 -239.334 33.667 -338.001 101l-87 -114l-100 76l93 120
c-102.667 111.333 -154 249.333 -154 414c0 262.667 74 480.667 222 654s334.333 260 559 260c121.333 0 229.666 -31 324.999 -93l81 104l98 -69z" />
    <glyph glyph-name="Ugrave" unicode="&#xd9;" horiz-adv-x="1524" 
d="M363 96c-84.667 81.333 -128.003 187.332 -130.003 317.999c-0.666992 40 3.66602 83.333 12.999 130l188 899h184l-186 -887c-9.33301 -45.333 -13.666 -89.666 -12.999 -132.999c4 -91.333 34.333 -162 91 -212c60 -52.667 146 -79 258 -79
c108 0 200.333 31.667 277 95c78 64.667 128.667 152.667 152 264l203 952h184l-210 -987c-33.333 -157.333 -102.666 -277.333 -207.999 -360c-109.333 -86.667 -252.666 -130 -429.999 -130c-157.333 0 -281.666 43.333 -372.999 130zM1118 1575h-184l-206 298h206z" />
    <glyph glyph-name="Uacute" unicode="&#xda;" horiz-adv-x="1524" 
d="M363 96c-84.667 81.333 -128.003 187.332 -130.003 317.999c-0.666992 40 3.66602 83.333 12.999 130l188 899h184l-186 -887c-9.33301 -45.333 -13.666 -89.666 -12.999 -132.999c4 -91.333 34.333 -162 91 -212c60 -52.667 146 -79 258 -79
c108 0 200.333 31.667 277 95c78 64.667 128.667 152.667 152 264l203 952h184l-210 -987c-33.333 -157.333 -102.666 -277.333 -207.999 -360c-109.333 -86.667 -252.666 -130 -429.999 -130c-157.333 0 -281.666 43.333 -372.999 130zM1319 1873h226l-395 -298h-204z" />
    <glyph glyph-name="Ucircumflex" unicode="&#xdb;" horiz-adv-x="1524" 
d="M363 96c-84.667 81.333 -128.003 187.332 -130.003 317.999c-0.666992 40 3.66602 83.333 12.999 130l188 899h184l-186 -887c-9.33301 -45.333 -13.666 -89.666 -12.999 -132.999c4 -91.333 34.333 -162 91 -212c60 -52.667 146 -79 258 -79
c108 0 200.333 31.667 277 95c78 64.667 128.667 152.667 152 264l203 952h184l-210 -987c-33.333 -157.333 -102.666 -277.333 -207.999 -360c-109.333 -86.667 -252.666 -130 -429.999 -130c-157.333 0 -281.666 43.333 -372.999 130zM1373 1575h-185l-105 186h-16
l-183 -186h-207l310 298h202z" />
    <glyph glyph-name="Udieresis" unicode="&#xdc;" horiz-adv-x="1524" 
d="M363 96c-84.667 81.333 -128.003 187.332 -130.003 317.999c-0.666992 40 3.66602 83.333 12.999 130l188 899h184l-186 -887c-9.33301 -45.333 -13.666 -89.666 -12.999 -132.999c4 -91.333 34.333 -162 91 -212c60 -52.667 146 -79 258 -79
c108 0 200.333 31.667 277 95c78 64.667 128.667 152.667 152 264l203 952h184l-210 -987c-33.333 -157.333 -102.666 -277.333 -207.999 -360c-109.333 -86.667 -252.666 -130 -429.999 -130c-157.333 0 -281.666 43.333 -372.999 130zM774.997 1610
c-24 24 -36 52.667 -36 86s12 62 36 86c23.333 23.333 51.666 35 84.999 35c34 0 62.667 -11.667 86 -35c23.333 -24 35 -52.667 35 -86s-11.667 -62 -35 -86c-23.333 -23.333 -52 -35 -86 -35c-33.333 0 -61.666 11.667 -84.999 35zM1179 1610c-24 24 -36 52.667 -36 86
s12 62 36 86c23.333 23.333 51.666 35 84.999 35c34 0 62.667 -11.667 86 -35c23.333 -24 35 -52.667 35 -86s-11.667 -62 -35 -86c-23.333 -23.333 -52 -35 -86 -35c-33.333 0 -61.666 11.667 -84.999 35z" />
    <glyph glyph-name="Yacute" unicode="&#xdd;" horiz-adv-x="1344" 
d="M520 0l132 621l-336 822h187l268 -649h16l526 649h207l-692 -848l-124 -595h-184zM1228 1873h226l-395 -298h-204z" />
    <glyph glyph-name="Thorn" unicode="&#xde;" horiz-adv-x="1280" 
d="M430 1443h179l-57 -266h332c114 0 206.667 -33 278 -99c72 -66 108 -151.667 108 -257c0 -141.333 -50.667 -255.333 -152 -342c-102 -86.667 -235.667 -130 -401 -130h-340l-74 -349h-180zM411 509h295c118.667 0 211 26 277 78s99 124.667 99 218
c0 66 -21.667 117.667 -65 155c-45.333 38 -110 57 -194 57h-304z" />
    <glyph glyph-name="germandbls" unicode="&#xdf;" horiz-adv-x="1338" 
d="M164 0l227.998 1072c23.333 110.667 75.333 197 156 259c80.667 62.667 180.334 94 299.001 94c113.333 0 207.666 -31 282.999 -93c75.333 -61.333 113 -138.666 113 -231.999s-30.667 -171.666 -92 -234.999c-61.333 -64 -140.666 -100.333 -237.999 -109l-4 -18
c97.333 -10 174.333 -42.667 231 -98c57.333 -55.333 86 -125 86 -209c0 -129.333 -47.333 -236.666 -142 -321.999c-95.333 -84.667 -215.666 -127 -360.999 -127c-79.333 0 -148.666 11.333 -207.999 34l33 152c53.333 -21.333 114.666 -32 183.999 -32
c89.333 0 165.333 28 228 84s94 124.333 94 205c0 70.667 -27.333 127 -82 169c-55.333 42 -128.666 63 -219.999 63h-71l36 170h79c75.333 0 139.666 23.667 192.999 71s80 104.333 80 171c0 60.667 -21.333 109.667 -64 147s-98.667 56 -168 56
c-72.667 0 -133.667 -21.667 -183 -65c-48.667 -44 -81.667 -106 -99 -186l-217 -1021h-174z" />
    <glyph glyph-name="agrave" unicode="&#xe0;" horiz-adv-x="1126" 
d="M703 202c62 47.333 100.999 107.667 116.999 181l27 124l-287 -14c-88 -4.66699 -156.333 -24 -205 -58c-48.667 -34.667 -73 -80.334 -73 -137.001c0 -49.333 19.333 -89.666 58 -120.999s88.334 -47 149.001 -47c80.667 0 152 24 214 72zM199.999 67.001
c-63.333 57.333 -94.998 127.999 -94.998 211.999c0 106 40 189.667 120 251c80.667 61.333 195.667 95.333 345 102l306 14l16 73c4 22 6 39 6 51c0 54.667 -20.333 97 -61 127c-40.667 30.667 -97.334 46 -170.001 46c-124 0 -203.667 -45 -239 -135h-182
c24 88.667 75 159 153 211c78.667 52 172.667 78 282 78c118.667 0 213.667 -27.333 285 -82c71.333 -55.333 107 -128.666 107 -219.999c0 -28.667 -3 -58 -9 -88l-150 -707h-167l30 141h-16c-80.667 -106.667 -189.334 -160 -326.001 -160c-94 0 -172.333 28.667 -235 86z
M608.001 1263l-206 338h214l180 -338h-188z" />
    <glyph glyph-name="aacute" unicode="&#xe1;" horiz-adv-x="1126" 
d="M703 202c62 47.333 100.999 107.667 116.999 181l27 124l-287 -14c-88 -4.66699 -156.333 -24 -205 -58c-48.667 -34.667 -73 -80.334 -73 -137.001c0 -49.333 19.333 -89.666 58 -120.999s88.334 -47 149.001 -47c80.667 0 152 24 214 72zM199.999 67.001
c-63.333 57.333 -94.998 127.999 -94.998 211.999c0 106 40 189.667 120 251c80.667 61.333 195.667 95.333 345 102l306 14l16 73c4 22 6 39 6 51c0 54.667 -20.333 97 -61 127c-40.667 30.667 -97.334 46 -170.001 46c-124 0 -203.667 -45 -239 -135h-182
c24 88.667 75 159 153 211c78.667 52 172.667 78 282 78c118.667 0 213.667 -27.333 285 -82c71.333 -55.333 107 -128.666 107 -219.999c0 -28.667 -3 -58 -9 -88l-150 -707h-167l30 141h-16c-80.667 -106.667 -189.334 -160 -326.001 -160c-94 0 -172.333 28.667 -235 86z
M964.001 1601h220l-350 -338h-194z" />
    <glyph glyph-name="acircumflex" unicode="&#xe2;" horiz-adv-x="1126" 
d="M703 202c62 47.333 100.999 107.667 116.999 181l27 124l-287 -14c-88 -4.66699 -156.333 -24 -205 -58c-48.667 -34.667 -73 -80.334 -73 -137.001c0 -49.333 19.333 -89.666 58 -120.999s88.334 -47 149.001 -47c80.667 0 152 24 214 72zM199.999 67.001
c-63.333 57.333 -94.998 127.999 -94.998 211.999c0 106 40 189.667 120 251c80.667 61.333 195.667 95.333 345 102l306 14l16 73c4 22 6 39 6 51c0 54.667 -20.333 97 -61 127c-40.667 30.667 -97.334 46 -170.001 46c-124 0 -203.667 -45 -239 -135h-182
c24 88.667 75 159 153 211c78.667 52 172.667 78 282 78c118.667 0 213.667 -27.333 285 -82c71.333 -55.333 107 -128.666 107 -219.999c0 -28.667 -3 -58 -9 -88l-150 -707h-167l30 141h-16c-80.667 -106.667 -189.334 -160 -326.001 -160c-94 0 -172.333 28.667 -235 86z
M1102 1228h-187l-129 227h-16l-225 -227h-209l354 340h202z" />
    <glyph glyph-name="atilde" unicode="&#xe3;" horiz-adv-x="1126" 
d="M703 202c62 47.333 100.999 107.667 116.999 181l27 124l-287 -14c-88 -4.66699 -156.333 -24 -205 -58c-48.667 -34.667 -73 -80.334 -73 -137.001c0 -49.333 19.333 -89.666 58 -120.999s88.334 -47 149.001 -47c80.667 0 152 24 214 72zM199.999 67.001
c-63.333 57.333 -94.998 127.999 -94.998 211.999c0 106 40 189.667 120 251c80.667 61.333 195.667 95.333 345 102l306 14l16 73c4 22 6 39 6 51c0 54.667 -20.333 97 -61 127c-40.667 30.667 -97.334 46 -170.001 46c-124 0 -203.667 -45 -239 -135h-182
c24 88.667 75 159 153 211c78.667 52 172.667 78 282 78c118.667 0 213.667 -27.333 285 -82c71.333 -55.333 107 -128.666 107 -219.999c0 -28.667 -3 -58 -9 -88l-150 -707h-167l30 141h-16c-80.667 -106.667 -189.334 -160 -326.001 -160c-94 0 -172.333 28.667 -235 86z
M747.001 1309l-56.999 63c-20.667 19.333 -41.667 29 -63 29c-58.667 0 -96.667 -46.333 -114 -139h-142c10 86.667 39.667 154.667 89 204c47.333 46.667 105.333 70 174 70c64.667 0 124 -30.667 178 -92c33.333 -38 52.333 -59 57 -63c20.667 -19.333 41.667 -29 63 -29
c59.333 0 97.666 46.333 114.999 139h142c-10 -86.667 -39.667 -154.667 -89 -204c-47.333 -46.667 -105.333 -70 -174 -70c-65.333 0 -125 30.667 -179 92z" />
    <glyph glyph-name="adieresis" unicode="&#xe4;" horiz-adv-x="1126" 
d="M703 202c62 47.333 100.999 107.667 116.999 181l27 124l-287 -14c-88 -4.66699 -156.333 -24 -205 -58c-48.667 -34.667 -73 -80.334 -73 -137.001c0 -49.333 19.333 -89.666 58 -120.999s88.334 -47 149.001 -47c80.667 0 152 24 214 72zM199.999 67.001
c-63.333 57.333 -94.998 127.999 -94.998 211.999c0 106 40 189.667 120 251c80.667 61.333 195.667 95.333 345 102l306 14l16 73c4 22 6 39 6 51c0 54.667 -20.333 97 -61 127c-40.667 30.667 -97.334 46 -170.001 46c-124 0 -203.667 -45 -239 -135h-182
c24 88.667 75 159 153 211c78.667 52 172.667 78 282 78c118.667 0 213.667 -27.333 285 -82c71.333 -55.333 107 -128.666 107 -219.999c0 -28.667 -3 -58 -9 -88l-150 -707h-167l30 141h-16c-80.667 -106.667 -189.334 -160 -326.001 -160c-94 0 -172.333 28.667 -235 86z
M467.001 1263c-23.333 24 -35 52.667 -35 86s11.667 62 35 86c24 23.333 52.667 35 86 35s62 -11.667 86 -35c23.333 -24 35 -52.667 35 -86s-11.667 -62 -35 -86c-24 -23.333 -52.667 -35 -86 -35s-62 11.667 -86 35zM871.001 1263c-23.333 24 -35 52.667 -35 86
s11.667 62 35 86c24 23.333 52.667 35 86 35s62 -11.667 86 -35c23.333 -24 35 -52.667 35 -86s-11.667 -62 -35 -86c-24 -23.333 -52.667 -35 -86 -35s-62 11.667 -86 35z" />
    <glyph glyph-name="aring" unicode="&#xe5;" horiz-adv-x="1126" 
d="M703 202c62 47.333 100.999 107.667 116.999 181l27 124l-287 -14c-88 -4.66699 -156.333 -24 -205 -58c-48.667 -34.667 -73 -80.334 -73 -137.001c0 -49.333 19.333 -89.666 58 -120.999s88.334 -47 149.001 -47c80.667 0 152 24 214 72zM199.999 67.001
c-63.333 57.333 -94.998 127.999 -94.998 211.999c0 106 40 189.667 120 251c80.667 61.333 195.667 95.333 345 102l306 14l16 73c4 22 6 39 6 51c0 54.667 -20.333 97 -61 127c-40.667 30.667 -97.334 46 -170.001 46c-124 0 -203.667 -45 -239 -135h-182
c24 88.667 75 159 153 211c78.667 52 172.667 78 282 78c118.667 0 213.667 -27.333 285 -82c71.333 -55.333 107 -128.666 107 -219.999c0 -28.667 -3 -58 -9 -88l-150 -707h-167l30 141h-16c-80.667 -106.667 -189.334 -160 -326.001 -160c-94 0 -172.333 28.667 -235 86z
M615.001 1294c-45.333 44.667 -68 99 -68 163s22.667 118.333 68 163c45.333 44 100 66 164 66s118.667 -22 164 -66c45.333 -44.667 68 -99 68 -163s-22.667 -118.333 -68 -163c-45.333 -44 -100 -66 -164 -66s-118.667 22 -164 66zM866.001 1369
c23.333 23.333 35 52.666 35 87.999s-11.667 64.666 -35 87.999s-52.333 35 -87 35s-63.667 -11.667 -87 -35s-35 -52.666 -35 -87.999s11.667 -64.666 35 -87.999s52.333 -35 87 -35s63.667 11.667 87 35z" />
    <glyph glyph-name="ae" unicode="&#xe6;" horiz-adv-x="1866" 
d="M1039 46c-72.667 44 -123.33 102.333 -151.997 175h-15c-39.333 -68 -95.666 -124 -168.999 -168c-78.667 -48 -161.334 -72 -248.001 -72c-102.667 0 -187 28.667 -253 86c-64.667 56 -97 126.667 -97 212c0 106.667 40 190.667 120 252
c80.667 60.667 195.667 94.334 345 101.001l306 14l16 73c4 22 6 39 6 51c0 54.667 -20.333 97 -61 127c-40.667 30.667 -97.334 46 -170.001 46c-124 0 -203.667 -45 -239 -135h-182c24 88.667 75 159 153 211c78.667 52 172.667 78 282 78
c169.333 0 284.666 -56 345.999 -168h16c94 112 215.333 168 364 168c116 0 212 -37.667 288 -113c80.667 -80 121.334 -187.667 122.001 -323c0 -57.333 -4.33301 -111.333 -13 -162h-777c-1.33301 -24 -2 -42.667 -2 -56c0 -102.667 28.667 -181.334 86 -236.001
c48.667 -46 110 -69 184 -69c131.333 0 221.666 45.667 270.999 137h183c-22.667 -86 -75 -155.667 -157 -209c-86.667 -56.667 -193.334 -85 -320.001 -85c-84 0 -161.667 21.667 -233 65zM1635 638c1.33301 8 1.99805 23 1.99805 45c0 74.667 -20.667 136 -62 184
c-44.667 52 -106 78 -184 78c-81.333 0 -152.666 -28 -213.999 -84c-59.333 -54.667 -101.666 -129 -126.999 -223h585zM703.002 202c62 47.333 100.999 107.667 116.999 181l27 124l-287 -14c-88 -4.66699 -156.333 -24 -205 -58c-48.667 -34.667 -73 -80.334 -73 -137.001
c0 -49.333 19.333 -89.666 58 -120.999s88.334 -47 149.001 -47c80.667 0 152 24 214 72z" />
    <glyph glyph-name="ccedilla" unicode="&#xe7;" horiz-adv-x="1146" 
d="M966 748c-5.33301 56 -32.334 102.334 -81.001 139.001c-48 36.667 -106.333 55 -175 55c-106.667 0 -195.667 -46 -267 -138s-107 -206.333 -107 -343c0 -100 24.333 -179 73 -237c48 -57.333 113.667 -86 197 -86c140 0 231.667 56.667 275 170h179
c-21.333 -96 -73.333 -173.667 -156 -233s-181.667 -90.666 -297 -93.999l-75 -121c119.333 -13.333 179 -65.333 179 -156c0 -56.667 -23 -103.334 -69 -140.001c-46.667 -36.667 -106 -55 -178 -55c-63.333 0 -121.666 12 -174.999 36l23 108
c43.333 -18.667 92.333 -28 147 -28c69.333 0 104 23.333 104 70c0 48 -44.667 72 -134 72h-53l13 90l85 137c-98 23.333 -175.667 74 -233 152c-57.333 79.333 -86 176.666 -86 291.999c0 189.333 53.667 346.333 161 471c108 125.333 244 188 408 188
c106 0 197.333 -28.333 274 -85c76 -56 122.333 -128.333 139 -217c2 -10 3.66699 -25.667 5 -47h-176z" />
    <glyph glyph-name="egrave" unicode="&#xe8;" horiz-adv-x="1170" 
d="M285 97c-86 82.667 -128.998 194.333 -128.998 335c0 198 52.333 358.667 157 482c104 122 238.667 183 404 183c116 0 212 -37.667 288 -113c80.667 -80 121.334 -187.667 122.001 -323c0 -57.333 -4.33301 -111.333 -13 -162h-777c-1.33301 -24 -2 -42 -2 -54
c0 -102.667 28.667 -181.667 86 -237c49.333 -46.667 110.666 -70 183.999 -70c131.333 0 221.666 45.667 270.999 137h183c-22.667 -86 -74.334 -155.667 -155.001 -209c-84.667 -56.667 -188 -85 -310 -85c-125.333 0 -228.333 38.667 -309 116zM945.002 637.999
c1.33301 8 1.99805 23 1.99805 45c0 74.667 -20.667 136 -62 184c-44.667 52 -106 78 -184 78c-81.333 0 -152.666 -28 -213.999 -84c-59.333 -54.667 -101.666 -129 -126.999 -223h585zM619 1263l-206 338h214l180 -338h-188z" />
    <glyph glyph-name="eacute" unicode="&#xe9;" horiz-adv-x="1170" 
d="M285 97c-86 82.667 -128.998 194.333 -128.998 335c0 198 52.333 358.667 157 482c104 122 238.667 183 404 183c116 0 212 -37.667 288 -113c80.667 -80 121.334 -187.667 122.001 -323c0 -57.333 -4.33301 -111.333 -13 -162h-777c-1.33301 -24 -2 -42 -2 -54
c0 -102.667 28.667 -181.667 86 -237c49.333 -46.667 110.666 -70 183.999 -70c131.333 0 221.666 45.667 270.999 137h183c-22.667 -86 -74.334 -155.667 -155.001 -209c-84.667 -56.667 -188 -85 -310 -85c-125.333 0 -228.333 38.667 -309 116zM945.002 637.999
c1.33301 8 1.99805 23 1.99805 45c0 74.667 -20.667 136 -62 184c-44.667 52 -106 78 -184 78c-81.333 0 -152.666 -28 -213.999 -84c-59.333 -54.667 -101.666 -129 -126.999 -223h585zM975 1601h220l-350 -338h-194z" />
    <glyph glyph-name="ecircumflex" unicode="&#xea;" horiz-adv-x="1170" 
d="M285 97c-86 82.667 -128.998 194.333 -128.998 335c0 198 52.333 358.667 157 482c104 122 238.667 183 404 183c116 0 212 -37.667 288 -113c80.667 -80 121.334 -187.667 122.001 -323c0 -57.333 -4.33301 -111.333 -13 -162h-777c-1.33301 -24 -2 -42 -2 -54
c0 -102.667 28.667 -181.667 86 -237c49.333 -46.667 110.666 -70 183.999 -70c131.333 0 221.666 45.667 270.999 137h183c-22.667 -86 -74.334 -155.667 -155.001 -209c-84.667 -56.667 -188 -85 -310 -85c-125.333 0 -228.333 38.667 -309 116zM945.002 637.999
c1.33301 8 1.99805 23 1.99805 45c0 74.667 -20.667 136 -62 184c-44.667 52 -106 78 -184 78c-81.333 0 -152.666 -28 -213.999 -84c-59.333 -54.667 -101.666 -129 -126.999 -223h585zM1113 1228h-187l-129 227h-16l-225 -227h-209l354 340h202z" />
    <glyph glyph-name="edieresis" unicode="&#xeb;" horiz-adv-x="1170" 
d="M285 97c-86 82.667 -128.998 194.333 -128.998 335c0 198 52.333 358.667 157 482c104 122 238.667 183 404 183c116 0 212 -37.667 288 -113c80.667 -80 121.334 -187.667 122.001 -323c0 -57.333 -4.33301 -111.333 -13 -162h-777c-1.33301 -24 -2 -42 -2 -54
c0 -102.667 28.667 -181.667 86 -237c49.333 -46.667 110.666 -70 183.999 -70c131.333 0 221.666 45.667 270.999 137h183c-22.667 -86 -74.334 -155.667 -155.001 -209c-84.667 -56.667 -188 -85 -310 -85c-125.333 0 -228.333 38.667 -309 116zM945.002 637.999
c1.33301 8 1.99805 23 1.99805 45c0 74.667 -20.667 136 -62 184c-44.667 52 -106 78 -184 78c-81.333 0 -152.666 -28 -213.999 -84c-59.333 -54.667 -101.666 -129 -126.999 -223h585zM478 1263c-23.333 24 -35 52.667 -35 86s11.667 62 35 86c24 23.333 52.667 35 86 35
s62 -11.667 86 -35c23.333 -24 35 -52.667 35 -86s-11.667 -62 -35 -86c-24 -23.333 -52.667 -35 -86 -35s-62 11.667 -86 35zM882 1263c-23.333 24 -35 52.667 -35 86s11.667 62 35 86c24 23.333 52.667 35 86 35s62 -11.667 86 -35c23.333 -24 35 -52.667 35 -86
s-11.667 -62 -35 -86c-24 -23.333 -52.667 -35 -86 -35s-62 11.667 -86 35z" />
    <glyph glyph-name="igrave" unicode="&#xec;" horiz-adv-x="516" 
d="M340 1078h172l-229 -1078h-172zM336 1263l-206 338h214l180 -338h-188z" />
    <glyph glyph-name="iacute" unicode="&#xed;" horiz-adv-x="516" 
d="M340 1078h172l-229 -1078h-172zM692 1601h220l-350 -338h-194z" />
    <glyph glyph-name="icircumflex" unicode="&#xee;" horiz-adv-x="516" 
d="M340 1078h172l-229 -1078h-172zM830 1228h-187l-129 227h-16l-225 -227h-209l354 340h202z" />
    <glyph glyph-name="idieresis" unicode="&#xef;" horiz-adv-x="516" 
d="M340 1078h172l-229 -1078h-172zM195 1263c-23.333 24 -35 52.667 -35 86s11.667 62 35 86c24 23.333 52.667 35 86 35s62 -11.667 86 -35c23.333 -24 35 -52.667 35 -86s-11.667 -62 -35 -86c-24 -23.333 -52.667 -35 -86 -35s-62 11.667 -86 35zM599 1263
c-23.333 24 -35 52.667 -35 86s11.667 62 35 86c24 23.333 52.667 35 86 35s62 -11.667 86 -35c23.333 -24 35 -52.667 35 -86s-11.667 -62 -35 -86c-24 -23.333 -52.667 -35 -86 -35s-62 11.667 -86 35z" />
    <glyph glyph-name="eth" unicode="&#xf0;" horiz-adv-x="1188" 
d="M265 102c-83.333 79.333 -125.001 179.666 -125.001 300.999c0 186 50 342.333 150 469s225 190 375 190c76.667 0 147.334 -18.667 212.001 -56c63.333 -37.333 106.666 -85 129.999 -143l15 -1c-4 122.667 -41.333 251 -112 385l-351 -106l-7 128l292 89
c-24 34.667 -64.667 84.334 -122 149.001h191c38.667 -46 65.667 -80.667 81 -104l233 71l8 -128l-181 -55c79.333 -166 119 -330.667 119 -494c0 -114 -13 -221 -39 -321c-40.667 -154 -108.667 -274.667 -204 -362c-97.333 -88.667 -211.666 -133 -342.999 -133
c-130.667 0 -238 40.333 -322 121zM897.999 820c-55.333 55.333 -126.001 82.999 -212.001 82.999c-104 0 -190.667 -44.667 -260 -134c-69.333 -90 -104 -201.667 -104 -335c0 -91.333 25 -163.666 75 -216.999c50.667 -53.333 118.667 -80 204 -80
c98.667 0 186.334 47.667 263.001 143c77.333 95.333 116 204.333 116 327c0 86.667 -27.333 157.667 -82 213z" />
    <glyph glyph-name="ntilde" unicode="&#xf1;" horiz-adv-x="1215" 
d="M328 1078l167 -0.000976562l-34 -161h16c84 120 196.333 180 337 180c100.667 0 183.667 -32.667 249 -98c62 -62 93 -137.333 93 -226c0 -37.333 -4.66699 -78.666 -14 -123.999l-138 -649h-175l132 619c8.66699 42 13 77 13 105c0 65.333 -20.667 118 -62 158
c-42.667 40 -99.667 60 -171 60c-81.333 0 -152.333 -27 -213 -81c-58 -52 -96 -119.667 -114 -203l-140 -658h-175zM830 1309l-56.999 63c-20.667 19.333 -41.667 29 -63 29c-58.667 0 -96.667 -46.333 -114 -139h-142c10 86.667 39.667 154.667 89 204
c47.333 46.667 105.333 70 174 70c64.667 0 124 -30.667 178 -92c33.333 -38 52.333 -59 57 -63c20.667 -19.333 41.667 -29 63 -29c59.333 0 97.666 46.333 114.999 139h142c-10 -86.667 -39.667 -154.667 -89 -204c-47.333 -46.667 -105.333 -70 -174 -70
c-65.333 0 -125 30.667 -179 92z" />
    <glyph glyph-name="ograve" unicode="&#xf2;" horiz-adv-x="1210" 
d="M411 225c51.333 -59.333 120 -89.002 206 -89.002c96.667 0 181 44.333 253 133c74 92.667 111 207 111 343c0 102.667 -24 183.334 -72 242.001c-48.667 58.667 -115 88 -199 88c-114 0 -205 -47 -273 -141c-66.667 -91.333 -100 -209 -100 -353
c0 -91.333 24.667 -165.666 74 -222.999zM276 105.998c-81.333 82.667 -122.001 189.668 -122.001 321.001c0 188.667 50.333 346 151 472c106.667 132 247 198 421 198c131.333 0 237.666 -41.667 318.999 -125c80 -82 120 -188.333 120 -319
c0 -184.667 -49.667 -340.334 -149 -467.001c-107.333 -136.667 -247.666 -205 -420.999 -205c-131.333 0 -237.666 41.667 -318.999 125zM633.999 1263l-206 338h214l180 -338h-188z" />
    <glyph glyph-name="oacute" unicode="&#xf3;" horiz-adv-x="1210" 
d="M411 225c51.333 -59.333 120 -89.002 206 -89.002c96.667 0 181 44.333 253 133c74 92.667 111 207 111 343c0 102.667 -24 183.334 -72 242.001c-48.667 58.667 -115 88 -199 88c-114 0 -205 -47 -273 -141c-66.667 -91.333 -100 -209 -100 -353
c0 -91.333 24.667 -165.666 74 -222.999zM276 105.998c-81.333 82.667 -122.001 189.668 -122.001 321.001c0 188.667 50.333 346 151 472c106.667 132 247 198 421 198c131.333 0 237.666 -41.667 318.999 -125c80 -82 120 -188.333 120 -319
c0 -184.667 -49.667 -340.334 -149 -467.001c-107.333 -136.667 -247.666 -205 -420.999 -205c-131.333 0 -237.666 41.667 -318.999 125zM989.999 1601h220l-350 -338h-194z" />
    <glyph glyph-name="ocircumflex" unicode="&#xf4;" horiz-adv-x="1210" 
d="M411 225c51.333 -59.333 120 -89.002 206 -89.002c96.667 0 181 44.333 253 133c74 92.667 111 207 111 343c0 102.667 -24 183.334 -72 242.001c-48.667 58.667 -115 88 -199 88c-114 0 -205 -47 -273 -141c-66.667 -91.333 -100 -209 -100 -353
c0 -91.333 24.667 -165.666 74 -222.999zM276 105.998c-81.333 82.667 -122.001 189.668 -122.001 321.001c0 188.667 50.333 346 151 472c106.667 132 247 198 421 198c131.333 0 237.666 -41.667 318.999 -125c80 -82 120 -188.333 120 -319
c0 -184.667 -49.667 -340.334 -149 -467.001c-107.333 -136.667 -247.666 -205 -420.999 -205c-131.333 0 -237.666 41.667 -318.999 125zM1128 1228h-187l-129 227h-16l-225 -227h-209l354 340h202z" />
    <glyph glyph-name="otilde" unicode="&#xf5;" horiz-adv-x="1210" 
d="M411 225c51.333 -59.333 120 -89.002 206 -89.002c96.667 0 181 44.333 253 133c74 92.667 111 207 111 343c0 102.667 -24 183.334 -72 242.001c-48.667 58.667 -115 88 -199 88c-114 0 -205 -47 -273 -141c-66.667 -91.333 -100 -209 -100 -353
c0 -91.333 24.667 -165.666 74 -222.999zM276 105.998c-81.333 82.667 -122.001 189.668 -122.001 321.001c0 188.667 50.333 346 151 472c106.667 132 247 198 421 198c131.333 0 237.666 -41.667 318.999 -125c80 -82 120 -188.333 120 -319
c0 -184.667 -49.667 -340.334 -149 -467.001c-107.333 -136.667 -247.666 -205 -420.999 -205c-131.333 0 -237.666 41.667 -318.999 125zM772.999 1309l-56.999 63c-20.667 19.333 -41.667 29 -63 29c-58.667 0 -96.667 -46.333 -114 -139h-142
c10 86.667 39.667 154.667 89 204c47.333 46.667 105.333 70 174 70c64.667 0 124 -30.667 178 -92c33.333 -38 52.333 -59 57 -63c20.667 -19.333 41.667 -29 63 -29c59.333 0 97.666 46.333 114.999 139h142c-10 -86.667 -39.667 -154.667 -89 -204
c-47.333 -46.667 -105.333 -70 -174 -70c-65.333 0 -125 30.667 -179 92z" />
    <glyph glyph-name="odieresis" unicode="&#xf6;" horiz-adv-x="1210" 
d="M411 225c51.333 -59.333 120 -89.002 206 -89.002c96.667 0 181 44.333 253 133c74 92.667 111 207 111 343c0 102.667 -24 183.334 -72 242.001c-48.667 58.667 -115 88 -199 88c-114 0 -205 -47 -273 -141c-66.667 -91.333 -100 -209 -100 -353
c0 -91.333 24.667 -165.666 74 -222.999zM276 105.998c-81.333 82.667 -122.001 189.668 -122.001 321.001c0 188.667 50.333 346 151 472c106.667 132 247 198 421 198c131.333 0 237.666 -41.667 318.999 -125c80 -82 120 -188.333 120 -319
c0 -184.667 -49.667 -340.334 -149 -467.001c-107.333 -136.667 -247.666 -205 -420.999 -205c-131.333 0 -237.666 41.667 -318.999 125zM492.999 1263c-23.333 24 -35 52.667 -35 86s11.667 62 35 86c24 23.333 52.667 35 86 35s62 -11.667 86 -35
c23.333 -24 35 -52.667 35 -86s-11.667 -62 -35 -86c-24 -23.333 -52.667 -35 -86 -35s-62 11.667 -86 35zM896.999 1263c-23.333 24 -35 52.667 -35 86s11.667 62 35 86c24 23.333 52.667 35 86 35s62 -11.667 86 -35c23.333 -24 35 -52.667 35 -86s-11.667 -62 -35 -86
c-24 -23.333 -52.667 -35 -86 -35s-62 11.667 -86 35z" />
    <glyph glyph-name="divide" unicode="&#xf7;" horiz-adv-x="1328" 
d="M202 506l31 148h1018l-31 -148h-1018zM705 847c-24 24 -36 54 -36 90s12 66 36 90c24 23.333 54 35 90 35c35.333 0 65 -11.667 89 -35c23.333 -24 35 -54 35 -90s-11.667 -66 -35 -90c-23.333 -23.333 -53 -35 -89 -35s-66 11.667 -90 35zM554 133c-24 24 -36 54 -36 90
s12 66 36 90c24 23.333 54 35 90 35c35.333 0 65 -11.667 89 -35c23.333 -24 35 -54 35 -90s-11.667 -66 -35 -90c-23.333 -23.333 -53 -35 -89 -35s-66 11.667 -90 35z" />
    <glyph glyph-name="oslash" unicode="&#xf8;" horiz-adv-x="1212" 
d="M432 204c48.667 -45.333 110.333 -68 185 -68c96.667 0 181 44.333 253 133c74 92.667 111 207 111 343c0 66 -10.333 123.667 -31 173zM886.999 877c-46.667 43.333 -105.667 65 -177 65c-114 0 -205 -47 -273 -141c-66.667 -91.333 -100 -209 -100 -353
c0 -54.667 9.66699 -105 29 -151zM1080 931c56.667 -76 84.998 -168.666 84.998 -277.999c0 -184.667 -49.667 -340.334 -149 -467.001c-107.333 -136.667 -247.666 -205 -420.999 -205c-110 0 -203.667 30.333 -281 91l-97 -109l-89 69l108 121
c-54.667 76.667 -82 168 -82 274c0 188.667 50.333 346 151 472c106.667 132 247 198 421 198c110.667 0 203.334 -29.667 278.001 -89l99 110l86 -64z" />
    <glyph glyph-name="ugrave" unicode="&#xf9;" horiz-adv-x="1215" 
d="M996 0l-165.998 -0.00195312l33 146h-16c-70.667 -110 -185.334 -165 -344.001 -165c-97.333 0 -177 30 -239 90c-62 58.667 -93 133 -93 223c0 44.667 5 91.334 15 140.001l135 644h175l-131 -619c-9.33301 -45.333 -14 -85.666 -14 -120.999
c0 -134.667 73 -202 219 -202c85.333 0 159.666 27.667 222.999 83c62 54 102 124.333 120 211l138 648h174zM675.002 1263l-206 338h214l180 -338h-188z" />
    <glyph glyph-name="uacute" unicode="&#xfa;" horiz-adv-x="1215" 
d="M996 0l-165.998 -0.00195312l33 146h-16c-70.667 -110 -185.334 -165 -344.001 -165c-97.333 0 -177 30 -239 90c-62 58.667 -93 133 -93 223c0 44.667 5 91.334 15 140.001l135 644h175l-131 -619c-9.33301 -45.333 -14 -85.666 -14 -120.999
c0 -134.667 73 -202 219 -202c85.333 0 159.666 27.667 222.999 83c62 54 102 124.333 120 211l138 648h174zM1031 1601h220l-350 -338h-194z" />
    <glyph glyph-name="ucircumflex" unicode="&#xfb;" horiz-adv-x="1215" 
d="M996 0l-165.998 -0.00195312l33 146h-16c-70.667 -110 -185.334 -165 -344.001 -165c-97.333 0 -177 30 -239 90c-62 58.667 -93 133 -93 223c0 44.667 5 91.334 15 140.001l135 644h175l-131 -619c-9.33301 -45.333 -14 -85.666 -14 -120.999
c0 -134.667 73 -202 219 -202c85.333 0 159.666 27.667 222.999 83c62 54 102 124.333 120 211l138 648h174zM1169 1228h-187l-129 227h-16l-225 -227h-209l354 340h202z" />
    <glyph glyph-name="udieresis" unicode="&#xfc;" horiz-adv-x="1215" 
d="M996 0l-165.998 -0.00195312l33 146h-16c-70.667 -110 -185.334 -165 -344.001 -165c-97.333 0 -177 30 -239 90c-62 58.667 -93 133 -93 223c0 44.667 5 91.334 15 140.001l135 644h175l-131 -619c-9.33301 -45.333 -14 -85.666 -14 -120.999
c0 -134.667 73 -202 219 -202c85.333 0 159.666 27.667 222.999 83c62 54 102 124.333 120 211l138 648h174zM534.002 1263c-23.333 24 -35 52.667 -35 86s11.667 62 35 86c24 23.333 52.667 35 86 35s62 -11.667 86 -35c23.333 -24 35 -52.667 35 -86s-11.667 -62 -35 -86
c-24 -23.333 -52.667 -35 -86 -35s-62 11.667 -86 35zM938.002 1263c-23.333 24 -35 52.667 -35 86s11.667 62 35 86c24 23.333 52.667 35 86 35s62 -11.667 86 -35c23.333 -24 35 -52.667 35 -86s-11.667 -62 -35 -86c-24 -23.333 -52.667 -35 -86 -35s-62 11.667 -86 35z
" />
    <glyph glyph-name="yacute" unicode="&#xfd;" horiz-adv-x="1112" 
d="M39 -380l26 147c26 -8.66699 60 -13 102 -13c72 0 140.333 60.333 205 181l39 73l-175 1070h171l128 -857h16l472 857h189l-686 -1196c-60.667 -106 -119.667 -179 -177 -219c-51.333 -36.667 -115.333 -55 -192 -55c-24.667 0 -64 4 -118 12zM991 1601h220l-350 -338
h-194z" />
    <glyph glyph-name="thorn" unicode="&#xfe;" horiz-adv-x="1260" 
d="M927 284c73.333 98.667 110 221.999 110 369.999c0 90.667 -22.667 161.334 -68 212.001c-46 50.667 -109.667 76 -191 76c-111.333 0 -205.333 -49 -282 -147s-115 -218.333 -115 -361c0 -91.333 24.333 -164 73 -218c48.667 -53.333 114.667 -80 198 -80
c110 0 201.667 49.333 275 148zM205 -360.001l-173.001 0.000976562l397 1866h172l-120 -575h16c82 110.667 194.667 166 338 166c108.667 0 199.334 -39.333 272.001 -118c73.333 -79.333 110 -179 110 -299c0 -196.667 -53 -362.334 -159 -497.001
c-106.667 -134.667 -237.667 -202 -393 -202c-77.333 0 -146 20.333 -206 61c-58.667 40 -97.667 92.333 -117 157h-16z" />
    <glyph glyph-name="ydieresis" unicode="&#xff;" horiz-adv-x="1112" 
d="M39 -380l26 147c26 -8.66699 60 -13 102 -13c72 0 140.333 60.333 205 181l39 73l-175 1070h171l128 -857h16l472 857h189l-686 -1196c-60.667 -106 -119.667 -179 -177 -219c-51.333 -36.667 -115.333 -55 -192 -55c-24.667 0 -64 4 -118 12zM494 1263
c-23.333 24 -35 52.667 -35 86s11.667 62 35 86c24 23.333 52.667 35 86 35s62 -11.667 86 -35c23.333 -24 35 -52.667 35 -86s-11.667 -62 -35 -86c-24 -23.333 -52.667 -35 -86 -35s-62 11.667 -86 35zM898 1263c-23.333 24 -35 52.667 -35 86s11.667 62 35 86
c24 23.333 52.667 35 86 35s62 -11.667 86 -35c23.333 -24 35 -52.667 35 -86s-11.667 -62 -35 -86c-24 -23.333 -52.667 -35 -86 -35s-62 11.667 -86 35z" />
    <glyph glyph-name="Amacron" unicode="&#x100;" horiz-adv-x="1380" 
d="M1015 413h-579l-232 -413h-193l845 1443h167l226 -1443h-176zM522 566h473l-95 641h-16zM640 1620l29 136h674l-29 -136h-674z" />
    <glyph glyph-name="amacron" unicode="&#x101;" horiz-adv-x="1126" 
d="M703 202c62 47.333 100.999 107.667 116.999 181l27 124l-287 -14c-88 -4.66699 -156.333 -24 -205 -58c-48.667 -34.667 -73 -80.334 -73 -137.001c0 -49.333 19.333 -89.666 58 -120.999s88.334 -47 149.001 -47c80.667 0 152 24 214 72zM199.999 67.001
c-63.333 57.333 -94.998 127.999 -94.998 211.999c0 106 40 189.667 120 251c80.667 61.333 195.667 95.333 345 102l306 14l16 73c4 22 6 39 6 51c0 54.667 -20.333 97 -61 127c-40.667 30.667 -97.334 46 -170.001 46c-124 0 -203.667 -45 -239 -135h-182
c24 88.667 75 159 153 211c78.667 52 172.667 78 282 78c118.667 0 213.667 -27.333 285 -82c71.333 -55.333 107 -128.666 107 -219.999c0 -28.667 -3 -58 -9 -88l-150 -707h-167l30 141h-16c-80.667 -106.667 -189.334 -160 -326.001 -160c-94 0 -172.333 28.667 -235 86z
M405.001 1286l29 136h674l-29 -136h-674z" />
    <glyph glyph-name="Abreve" unicode="&#x102;" horiz-adv-x="1380" 
d="M1015 413h-579l-232 -413h-193l845 1443h167l226 -1443h-176zM522 566h473l-95 641h-16zM639 1873l150 0.000976562v-13c0 -44.667 19 -82 57 -112c37.333 -29.333 83.666 -44 138.999 -44c56 0 103.333 15 142 45s64.667 71.333 78 124h154
c-17.333 -91.333 -60.666 -164 -129.999 -218c-68.667 -53.333 -151.334 -80 -248.001 -80c-101.333 0 -183.666 26.667 -246.999 80s-95 122.666 -95 207.999v10z" />
    <glyph glyph-name="abreve" unicode="&#x103;" horiz-adv-x="1126" 
d="M703 202c62 47.333 100.999 107.667 116.999 181l27 124l-287 -14c-88 -4.66699 -156.333 -24 -205 -58c-48.667 -34.667 -73 -80.334 -73 -137.001c0 -49.333 19.333 -89.666 58 -120.999s88.334 -47 149.001 -47c80.667 0 152 24 214 72zM199.999 67.001
c-63.333 57.333 -94.998 127.999 -94.998 211.999c0 106 40 189.667 120 251c80.667 61.333 195.667 95.333 345 102l306 14l16 73c4 22 6 39 6 51c0 54.667 -20.333 97 -61 127c-40.667 30.667 -97.334 46 -170.001 46c-124 0 -203.667 -45 -239 -135h-182
c24 88.667 75 159 153 211c78.667 52 172.667 78 282 78c118.667 0 213.667 -27.333 285 -82c71.333 -55.333 107 -128.666 107 -219.999c0 -28.667 -3 -58 -9 -88l-150 -707h-167l30 141h-16c-80.667 -106.667 -189.334 -160 -326.001 -160c-94 0 -172.333 28.667 -235 86z
M552.001 1556c-1.33301 -10.667 -2 -21 -2 -31c0 -51.333 18 -92.333 54 -123c35.333 -30 83.333 -45 144 -45c138.667 0 217.667 66.333 237 199h156c-9.33301 -98.667 -50 -177.667 -122 -237c-72 -60.667 -164.667 -91 -278 -91c-107.333 0 -192 27.333 -254 82
c-59.333 52.667 -89 120.667 -89 204c0 13.333 1 27.333 3 42h151z" />
    <glyph glyph-name="Aogonek" unicode="&#x104;" horiz-adv-x="1380" 
d="M522 566h473l-95 641h-16zM1197 -416c-26 -10.667 -58 -16 -96 -16c-68.667 0 -122.667 16.667 -162 50c-38.667 32.667 -58 78.334 -58 137.001c0 105.333 62.667 196.666 188 273.999l-54 384h-579l-232 -413h-193l845 1443h167l223 -1424
c-131.333 -73.333 -197 -149 -197 -227c0 -60 34.333 -90 103 -90c32 0 55.667 3 71 9z" />
    <glyph glyph-name="aogonek" unicode="&#x105;" horiz-adv-x="1126" 
d="M595 -367c-38.667 44 -50.667 100.33 -36 168.997c18.667 85.333 83 155.666 193 210.999l25 128h-16c-80 -106.667 -188.667 -160 -326 -160c-93.333 0 -171.666 28.667 -234.999 86c-63.333 56.667 -95 127.334 -95 212.001c0 106.667 40.333 190.667 121 252
c80.667 60.667 195.334 94.334 344.001 101.001l306 14l16 73c4 20.667 6 37.667 6 51c0 54.667 -20.333 97 -61 127c-40.667 30.667 -97.334 46 -170.001 46c-124 0 -203.667 -45 -239 -135h-182c24 88.667 75 159 153 211c78.667 52 172.667 78 282 78
c118.667 0 213.667 -27.333 285 -82c71.333 -55.333 107 -128.666 107 -219.999c0 -28.667 -3 -58 -9 -88l-146 -688c-114.667 -63.333 -179.334 -129.666 -194.001 -198.999c-7.33301 -36 -2.66602 -64.667 14.001 -86c17.333 -21.333 43.666 -32 78.999 -32
c36 0 62 3 78 9l-26 -127c-27.333 -10.667 -62.333 -16 -105 -16c-74.667 0 -131 21.667 -169 65zM703 200.997c62 48 100.998 108.667 116.998 182l27 124l-287 -14c-87.333 -4.66699 -155.666 -24 -204.999 -58c-48.667 -34.667 -73 -80.334 -73 -137.001
c0 -49.333 19.333 -89.666 58 -120.999s88.334 -47 149.001 -47c80.667 0 152 23.667 214 71z" />
    <glyph glyph-name="Cacute" unicode="&#x106;" horiz-adv-x="1466" 
d="M1323 992l-0.000976562 1.99609c-7.33301 96.667 -45 173.334 -113 230.001c-68 57.333 -155.667 86 -263 86c-157.333 0 -290 -70.667 -398 -212c-108 -142 -162 -317 -162 -525c0 -135.333 35.333 -242.666 106 -321.999c70.667 -78.667 166.334 -118 287.001 -118
c97.333 0 183.333 22.667 258 68c74.667 44.667 125 104.334 151 179.001h190c-36 -128.667 -109 -229.667 -219 -303c-110 -74 -243.333 -111 -400 -111c-168 0 -303.333 53.667 -406 161c-102.667 108 -154 250.333 -154 427c0 266 72.333 486.333 217 661
c144 174.667 325.333 262 544 262c156.667 0 286.667 -45.333 390 -136c103.333 -91.333 155 -205.666 155 -342.999v-6h-183zM1266 1875h226l-395 -298h-204z" />
    <glyph glyph-name="cacute" unicode="&#x107;" horiz-adv-x="1146" 
d="M966 748c-5.33301 56 -32.334 102.333 -81.001 139c-48 36.667 -106.333 55 -175 55c-106.667 0 -195.667 -46 -267 -138s-107 -206.333 -107 -343c0 -100 24.333 -179 73 -237c48 -57.333 113.667 -86 197 -86c140 0 231.667 56.667 275 170h179
c-22 -98 -76 -177 -162 -237s-188.333 -90 -307 -90c-131.333 0 -236.666 41.667 -315.999 125c-80 83.333 -120 194 -120 332c0 189.333 53.667 346.333 161 471c108 125.333 244 188 408 188c106 0 197.333 -28.333 274 -85c76 -56 122.333 -128.333 139 -217
c2 -10 3.66699 -25.667 5 -47h-176zM1017 1601h220l-350 -338h-194z" />
    <glyph glyph-name="Ccircumflex" unicode="&#x108;" horiz-adv-x="1466" 
d="M1323 992l-0.000976562 1.99609c-7.33301 96.667 -45 173.334 -113 230.001c-68 57.333 -155.667 86 -263 86c-157.333 0 -290 -70.667 -398 -212c-108 -142 -162 -317 -162 -525c0 -135.333 35.333 -242.666 106 -321.999c70.667 -78.667 166.334 -118 287.001 -118
c97.333 0 183.333 22.667 258 68c74.667 44.667 125 104.334 151 179.001h190c-36 -128.667 -109 -229.667 -219 -303c-110 -74 -243.333 -111 -400 -111c-168 0 -303.333 53.667 -406 161c-102.667 108 -154 250.333 -154 427c0 266 72.333 486.333 217 661
c144 174.667 325.333 262 544 262c156.667 0 286.667 -45.333 390 -136c103.333 -91.333 155 -205.666 155 -342.999v-6h-183zM1320 1577h-185l-105 186h-16l-183 -186h-207l310 298h202z" />
    <glyph glyph-name="ccircumflex" unicode="&#x109;" horiz-adv-x="1146" 
d="M966 748c-5.33301 56 -32.334 102.333 -81.001 139c-48 36.667 -106.333 55 -175 55c-106.667 0 -195.667 -46 -267 -138s-107 -206.333 -107 -343c0 -100 24.333 -179 73 -237c48 -57.333 113.667 -86 197 -86c140 0 231.667 56.667 275 170h179
c-22 -98 -76 -177 -162 -237s-188.333 -90 -307 -90c-131.333 0 -236.666 41.667 -315.999 125c-80 83.333 -120 194 -120 332c0 189.333 53.667 346.333 161 471c108 125.333 244 188 408 188c106 0 197.333 -28.333 274 -85c76 -56 122.333 -128.333 139 -217
c2 -10 3.66699 -25.667 5 -47h-176zM1155 1228h-187l-129 227h-16l-225 -227h-209l354 340h202z" />
    <glyph glyph-name="Cdotaccent" unicode="&#x10a;" horiz-adv-x="1466" 
d="M1323 992l-0.000976562 1.99609c-7.33301 96.667 -45 173.334 -113 230.001c-68 57.333 -155.667 86 -263 86c-157.333 0 -290 -70.667 -398 -212c-108 -142 -162 -317 -162 -525c0 -135.333 35.333 -242.666 106 -321.999c70.667 -78.667 166.334 -118 287.001 -118
c97.333 0 183.333 22.667 258 68c74.667 44.667 125 104.334 151 179.001h190c-36 -128.667 -109 -229.667 -219 -303c-110 -74 -243.333 -111 -400 -111c-168 0 -303.333 53.667 -406 161c-102.667 108 -154 250.333 -154 427c0 266 72.333 486.333 217 661
c144 174.667 325.333 262 544 262c156.667 0 286.667 -45.333 390 -136c103.333 -91.333 155 -205.666 155 -342.999v-6h-183zM923.999 1612c-23.333 24 -35 52.667 -35 86s11.667 62 35 86c24 23.333 52.667 35 86 35s62 -11.667 86 -35c23.333 -24 35 -52.667 35 -86
s-11.667 -62 -35 -86c-24 -23.333 -52.667 -35 -86 -35s-62 11.667 -86 35z" />
    <glyph glyph-name="cdotaccent" unicode="&#x10b;" horiz-adv-x="1146" 
d="M966 748c-5.33301 56 -32.334 102.333 -81.001 139c-48 36.667 -106.333 55 -175 55c-106.667 0 -195.667 -46 -267 -138s-107 -206.333 -107 -343c0 -100 24.333 -179 73 -237c48 -57.333 113.667 -86 197 -86c140 0 231.667 56.667 275 170h179
c-22 -98 -76 -177 -162 -237s-188.333 -90 -307 -90c-131.333 0 -236.666 41.667 -315.999 125c-80 83.333 -120 194 -120 332c0 189.333 53.667 346.333 161 471c108 125.333 244 188 408 188c106 0 197.333 -28.333 274 -85c76 -56 122.333 -128.333 139 -217
c2 -10 3.66699 -25.667 5 -47h-176zM732.999 1325c-25.333 25.333 -38 55.333 -38 90s12.667 64.667 38 90c24.667 24.667 54.667 37 90 37s65.333 -12.333 90 -37c25.333 -25.333 38 -55.333 38 -90s-12.667 -64.667 -38 -90c-24.667 -25.333 -54.667 -38 -90 -38
c-34.667 0 -64.667 12.667 -90 38z" />
    <glyph glyph-name="Ccaron" unicode="&#x10c;" horiz-adv-x="1466" 
d="M1323 992l-0.000976562 1.99609c-7.33301 96.667 -45 173.334 -113 230.001c-68 57.333 -155.667 86 -263 86c-157.333 0 -290 -70.667 -398 -212c-108 -142 -162 -317 -162 -525c0 -135.333 35.333 -242.666 106 -321.999c70.667 -78.667 166.334 -118 287.001 -118
c97.333 0 183.333 22.667 258 68c74.667 44.667 125 104.334 151 179.001h190c-36 -128.667 -109 -229.667 -219 -303c-110 -74 -243.333 -111 -400 -111c-168 0 -303.333 53.667 -406 161c-102.667 108 -154 250.333 -154 427c0 266 72.333 486.333 217 661
c144 174.667 325.333 262 544 262c156.667 0 286.667 -45.333 390 -136c103.333 -91.333 155 -205.666 155 -342.999v-6h-183zM708.999 1875h185l105 -186h16l183 186h207l-310 -298h-202z" />
    <glyph glyph-name="ccaron" unicode="&#x10d;" horiz-adv-x="1146" 
d="M966 748c-5.33301 56 -32.334 102.333 -81.001 139c-48 36.667 -106.333 55 -175 55c-106.667 0 -195.667 -46 -267 -138s-107 -206.333 -107 -343c0 -100 24.333 -179 73 -237c48 -57.333 113.667 -86 197 -86c140 0 231.667 56.667 275 170h179
c-22 -98 -76 -177 -162 -237s-188.333 -90 -307 -90c-131.333 0 -236.666 41.667 -315.999 125c-80 83.333 -120 194 -120 332c0 189.333 53.667 346.333 161 471c108 125.333 244 188 408 188c106 0 197.333 -28.333 274 -85c76 -56 122.333 -128.333 139 -217
c2 -10 3.66699 -25.667 5 -47h-176zM694.999 1228l-210 340h185l129 -227h16l225 227h211l-354 -340h-202z" />
    <glyph glyph-name="Dcaron" unicode="&#x10e;" horiz-adv-x="1486" 
d="M832 1443c199.333 0 354.333 -56.002 465 -168.002c109.333 -111.333 164 -265.666 164 -462.999c0 -231.333 -71.667 -424.666 -215 -579.999c-143.333 -154.667 -320.333 -232 -531 -232h-591l305 1443h403zM340 159.998h381.999c158.667 0 290.334 61 395.001 183
c105.333 122 158 275.333 158 460c0 151.333 -40 269 -120 353c-80.667 84.667 -193 127 -337 127h-239zM534.999 1873h185l105 -186h16l183 186h207l-310 -298h-202z" />
    <glyph glyph-name="dcaron" unicode="&#x10f;" horiz-adv-x="1357" 
d="M1646 1506l-154 -488h-120l104 488h170zM267 99c-76.667 82 -115.001 188.333 -115.001 319c0 194 53.667 356 161 486c106.667 128.667 238.334 193 395.001 193c77.333 0 146 -20.333 206 -61c58.667 -40 97.667 -92.333 117 -157h16l133 627h175l-320 -1506h-166
l31 147h-16c-84.667 -110.667 -198 -166 -340 -166c-110.667 0 -203 39.333 -277 118zM878.999 283c75.333 98 113.002 218.333 113.002 361c0 91.333 -24.333 164 -73 218c-48.667 53.333 -114.667 80 -198 80c-110.667 0 -203 -46.667 -277 -140
c-74.667 -94.667 -112 -214 -112 -358c0 -91.333 24.667 -165.333 74 -222c49.333 -57.333 113.666 -86 192.999 -86c111.333 0 204.666 49 279.999 147z" />
    <glyph glyph-name="Dcroat" unicode="&#x110;" horiz-adv-x="1452" 
d="M722 160c158.667 0 290.333 61 395 183c105.333 122 158 275.333 158 460c0 151.333 -40 269 -120 353c-80.667 84.667 -193 127 -337 127h-239l-97 -457h200l-35 -163h-200l-107 -503h382zM831.999 1443c199.333 0 354.333 -56.002 465 -168.002
c109.333 -111.333 164 -265.666 164 -462.999c0 -231.333 -71.667 -424.666 -215 -579.999c-143.333 -154.667 -320.333 -232 -531 -232h-591l140 663h-203l35 163h203l130 617h403z" />
    <glyph glyph-name="dcroat" unicode="&#x111;" horiz-adv-x="1258" 
d="M879 283c75.333 98 113.002 218.333 113.002 361c0 91.333 -24.333 164 -73 218c-48.667 53.333 -114.667 80 -198 80c-110.667 0 -203 -46.667 -277 -140c-74.667 -94.667 -112 -214 -112 -358c0 -91.333 24.667 -165.333 74 -222
c49.333 -57.333 113.666 -86 192.999 -86c111.333 0 204.666 49 279.999 147zM1459 1287h-151.001l-273 -1287h-166l31 147h-16c-84.667 -110.667 -198 -166 -340 -166c-110.667 0 -203 39.333 -277 118c-76.667 82 -115 188.333 -115 319c0 194 53.667 356 161 486
c106.667 128.667 238.334 193 395.001 193c77.333 0 146 -20.333 206 -61c58.667 -40 97.667 -92.333 117 -157h16l87 408h-231l26 124h231l20 95h175l-20 -95h150z" />
    <glyph glyph-name="Emacron" unicode="&#x112;" horiz-adv-x="1219" 
d="M1018 0h-896l307 1443h896l-35 -162h-711l-100 -463h675l-34 -160h-674l-106 -496h712zM577 1620l29 136h674l-29 -136h-674z" />
    <glyph glyph-name="emacron" unicode="&#x113;" horiz-adv-x="1170" 
d="M285 97c-86 82.667 -128.998 194.333 -128.998 335c0 198 52.333 358.667 157 482c104 122 238.667 183 404 183c116 0 212 -37.667 288 -113c80.667 -80 121.334 -187.667 122.001 -323c0 -57.333 -4.33301 -111.333 -13 -162h-777c-1.33301 -24 -2 -42 -2 -54
c0 -102.667 28.667 -181.667 86 -237c49.333 -46.667 110.666 -70 183.999 -70c131.333 0 221.666 45.667 270.999 137h183c-22.667 -86 -74.334 -155.667 -155.001 -209c-84.667 -56.667 -188 -85 -310 -85c-125.333 0 -228.333 38.667 -309 116zM945.002 637.999
c1.33301 8 1.99805 23 1.99805 45c0 74.667 -20.667 136 -62 184c-44.667 52 -106 78 -184 78c-81.333 0 -152.666 -28 -213.999 -84c-59.333 -54.667 -101.666 -129 -126.999 -223h585zM416 1286l29 136h674l-29 -136h-674z" />
    <glyph glyph-name="Ebreve" unicode="&#x114;" horiz-adv-x="1219" 
d="M1018 0h-896l307 1443h896l-35 -162h-711l-100 -463h675l-34 -160h-674l-106 -496h712zM576 1873l150 0.000976562v-13c0 -44.667 19 -82 57 -112c37.333 -29.333 83.666 -44 138.999 -44c56 0 103.333 15 142 45s64.667 71.333 78 124h154
c-17.333 -91.333 -60.666 -164 -129.999 -218c-68.667 -53.333 -151.334 -80 -248.001 -80c-101.333 0 -183.666 26.667 -246.999 80s-95 122.666 -95 207.999v10z" />
    <glyph glyph-name="ebreve" unicode="&#x115;" horiz-adv-x="1170" 
d="M285 97c-86 82.667 -128.998 194.333 -128.998 335c0 198 52.333 358.667 157 482c104 122 238.667 183 404 183c116 0 212 -37.667 288 -113c80.667 -80 121.334 -187.667 122.001 -323c0 -57.333 -4.33301 -111.333 -13 -162h-777c-1.33301 -24 -2 -42 -2 -54
c0 -102.667 28.667 -181.667 86 -237c49.333 -46.667 110.666 -70 183.999 -70c131.333 0 221.666 45.667 270.999 137h183c-22.667 -86 -74.334 -155.667 -155.001 -209c-84.667 -56.667 -188 -85 -310 -85c-125.333 0 -228.333 38.667 -309 116zM945.002 637.999
c1.33301 8 1.99805 23 1.99805 45c0 74.667 -20.667 136 -62 184c-44.667 52 -106 78 -184 78c-81.333 0 -152.666 -28 -213.999 -84c-59.333 -54.667 -101.666 -129 -126.999 -223h585zM563 1556c-1.33301 -10.667 -2 -21 -2 -31c0 -51.333 18 -92.333 54 -123
c35.333 -30 83.333 -45 144 -45c138.667 0 217.667 66.333 237 199h156c-9.33301 -98.667 -50 -177.667 -122 -237c-72 -60.667 -164.667 -91 -278 -91c-107.333 0 -192 27.333 -254 82c-59.333 52.667 -89 120.667 -89 204c0 13.333 1 27.333 3 42h151z" />
    <glyph glyph-name="Edotaccent" unicode="&#x116;" horiz-adv-x="1219" 
d="M1018 0h-896l307 1443h896l-35 -162h-711l-100 -463h675l-34 -160h-674l-106 -496h712zM845 1610c-23.333 24 -35 52.667 -35 86s11.667 62 35 86c24 23.333 52.667 35 86 35s62 -11.667 86 -35c23.333 -24 35 -52.667 35 -86s-11.667 -62 -35 -86
c-24 -23.333 -52.667 -35 -86 -35s-62 11.667 -86 35z" />
    <glyph glyph-name="edotaccent" unicode="&#x117;" horiz-adv-x="1170" 
d="M285 97c-86 82.667 -128.998 194.333 -128.998 335c0 198 52.333 358.667 157 482c104 122 238.667 183 404 183c116 0 212 -37.667 288 -113c80.667 -80 121.334 -187.667 122.001 -323c0 -57.333 -4.33301 -111.333 -13 -162h-777c-1.33301 -24 -2 -42 -2 -54
c0 -102.667 28.667 -181.667 86 -237c49.333 -46.667 110.666 -70 183.999 -70c131.333 0 221.666 45.667 270.999 137h183c-22.667 -86 -74.334 -155.667 -155.001 -209c-84.667 -56.667 -188 -85 -310 -85c-125.333 0 -228.333 38.667 -309 116zM945.002 637.999
c1.33301 8 1.99805 23 1.99805 45c0 74.667 -20.667 136 -62 184c-44.667 52 -106 78 -184 78c-81.333 0 -152.666 -28 -213.999 -84c-59.333 -54.667 -101.666 -129 -126.999 -223h585zM691 1325c-25.333 25.333 -38 55.333 -38 90s12.667 64.667 38 90
c24.667 24.667 54.667 37 90 37s65.333 -12.333 90 -37c25.333 -25.333 38 -55.333 38 -90s-12.667 -64.667 -38 -90c-24.667 -25.333 -54.667 -38 -90 -38c-34.667 0 -64.667 12.667 -90 38z" />
    <glyph glyph-name="Eogonek" unicode="&#x118;" horiz-adv-x="1219" 
d="M671 -382c-38.667 32.667 -58 78.332 -58 136.999c0 92 48.333 173.667 145 245h-636l307 1443h896l-35 -162h-711l-100 -463h675l-34 -160h-674l-106 -496h712l-29 -123c-161.333 -61.333 -242 -143.666 -242 -246.999c0 -27.333 9.33301 -49 28 -65
c19.333 -16.667 44.333 -25 75 -25c32 0 55.667 3 71 9l-26 -127c-26 -10.667 -58 -16 -96 -16c-68.667 0 -122.667 16.667 -162 50z" />
    <glyph glyph-name="eogonek" unicode="&#x119;" horiz-adv-x="1176" 
d="M569 -379c-39.333 34 -58.998 77.333 -58.998 130c0 78.667 33.333 150 100 214v16h-16c-131.333 0 -237 41.333 -317 124c-80.667 83.333 -121 192.333 -121 327c0 196.667 52 356.667 156 480s239 185 405 185c120.667 0 219 -40.333 295 -121
s114.333 -185.667 115 -315c0 -60 -4.33301 -114 -13 -162h-777l-2 -54c0 -92.667 24.667 -167 74 -223s114.666 -84 195.999 -84c131.333 0 221.666 45.667 270.999 137h183c-22 -80 -100 -168.667 -234 -266c-100 -72 -150 -143.333 -150 -214
c0 -64.667 40.667 -97 122 -97c21.333 0 36.333 1 45 3l-26 -123c-15.333 -6.66699 -42 -10 -80 -10c-69.333 0 -125 17.667 -167 53zM945.002 638c1.33301 8 2 23 2 45c0 78.667 -22.333 142 -67 190c-45.333 48 -105 72 -179 72c-80 0 -150.333 -27.333 -211 -82
s-104 -129.667 -130 -225h585z" />
    <glyph glyph-name="Ecaron" unicode="&#x11a;" horiz-adv-x="1219" 
d="M1018 0h-896l307 1443h896l-35 -162h-711l-100 -463h675l-34 -160h-674l-106 -496h712zM630 1873h185l105 -186h16l183 186h207l-310 -298h-202z" />
    <glyph glyph-name="ecaron" unicode="&#x11b;" horiz-adv-x="1170" 
d="M285 97c-86 82.667 -128.998 194.333 -128.998 335c0 198 52.333 358.667 157 482c104 122 238.667 183 404 183c116 0 212 -37.667 288 -113c80.667 -80 121.334 -187.667 122.001 -323c0 -57.333 -4.33301 -111.333 -13 -162h-777c-1.33301 -24 -2 -42 -2 -54
c0 -102.667 28.667 -181.667 86 -237c49.333 -46.667 110.666 -70 183.999 -70c131.333 0 221.666 45.667 270.999 137h183c-22.667 -86 -74.334 -155.667 -155.001 -209c-84.667 -56.667 -188 -85 -310 -85c-125.333 0 -228.333 38.667 -309 116zM945.002 637.999
c1.33301 8 1.99805 23 1.99805 45c0 74.667 -20.667 136 -62 184c-44.667 52 -106 78 -184 78c-81.333 0 -152.666 -28 -213.999 -84c-59.333 -54.667 -101.666 -129 -126.999 -223h585zM653 1228l-210 340h185l129 -227h16l225 227h211l-354 -340h-202z" />
    <glyph glyph-name="Gcircumflex" unicode="&#x11c;" horiz-adv-x="1528" 
d="M1448 540c-40 -186.667 -117.667 -328.999 -233 -426.999c-114.667 -98 -261.334 -147 -440.001 -147c-171.333 0 -310 54.667 -416 164c-105.333 109.333 -158 253.333 -158 432c0 264.667 72 483.334 216 656.001s325.667 259 545 259c150 0 275.667 -42 377 -126
c102 -84 157.667 -191.667 167 -323c0.666992 -5.33301 1 -17.333 1 -36h-183c-7.33301 97.333 -44.666 174.666 -111.999 231.999c-68 57.333 -156 86 -264 86c-158.667 0 -291.667 -70 -399 -210c-107.333 -139.333 -161 -312.333 -161 -519c0 -138.667 37 -248 111 -328
s174.667 -120 302 -120c114.667 0 214 35.667 298 107c84.667 71.333 138.667 165.666 162 282.999l11 55h-400l34 158h584zM1317 1575h-185l-105 186h-16l-183 -186h-207l310 298h202z" />
    <glyph glyph-name="gcircumflex" unicode="&#x11d;" horiz-adv-x="1247" 
d="M195 -321c-80 58.667 -123.334 130.332 -130.001 214.999h183c8 -45.333 34.667 -82.333 80 -111c49.333 -31.333 112 -47 188 -47c181.333 0 291 80.667 329 242l47 200h-16c-77.333 -108 -186 -162 -326 -162c-111.333 0 -204 39.667 -278 119
c-76 81.333 -114 185.333 -114 312c0 190.667 51.333 347 154 469c100.667 120.667 228 181 382 181c76 0 145.667 -20.333 209 -61c64 -41.333 106.667 -93.666 128 -156.999h16l42 199h167l-244 -1130c-24 -111.333 -80 -199 -168 -263c-90 -65.333 -204 -98 -342 -98
c-121.333 0 -223.666 30.667 -306.999 92zM874.999 298.998c72.667 89.333 109 204.333 109 345c0 91.333 -25 164 -75 218c-50 53.333 -117.333 80 -202 80c-108 0 -196.333 -42.333 -265 -127c-69.333 -86.667 -104 -200.667 -104 -342c0 -95.333 23.667 -170 71 -224
s112 -81 194 -81c110 0 200.667 43.667 272 131zM1153 1228h-187l-129 227h-16l-225 -227h-209l354 340h202z" />
    <glyph glyph-name="Gbreve" unicode="&#x11e;" horiz-adv-x="1528" 
d="M1448 540c-40 -186.667 -117.667 -328.999 -233 -426.999c-114.667 -98 -261.334 -147 -440.001 -147c-171.333 0 -310 54.667 -416 164c-105.333 109.333 -158 253.333 -158 432c0 264.667 72 483.334 216 656.001s325.667 259 545 259c150 0 275.667 -42 377 -126
c102 -84 157.667 -191.667 167 -323c0.666992 -5.33301 1 -17.333 1 -36h-183c-7.33301 97.333 -44.666 174.666 -111.999 231.999c-68 57.333 -156 86 -264 86c-158.667 0 -291.667 -70 -399 -210c-107.333 -139.333 -161 -312.333 -161 -519c0 -138.667 37 -248 111 -328
s174.667 -120 302 -120c114.667 0 214 35.667 298 107c84.667 71.333 138.667 165.666 162 282.999l11 55h-400l34 158h584zM652 1873l150 0.000976562v-13c0 -44.667 19 -82 57 -112c37.333 -29.333 83.666 -44 138.999 -44c56 0 103.333 15 142 45s64.667 71.333 78 124
h154c-17.333 -91.333 -60.666 -164 -129.999 -218c-68.667 -53.333 -151.334 -80 -248.001 -80c-101.333 0 -183.666 26.667 -246.999 80s-95 122.666 -95 207.999v10z" />
    <glyph glyph-name="gbreve" unicode="&#x11f;" horiz-adv-x="1247" 
d="M195 -321c-80 58.667 -123.334 130.332 -130.001 214.999h183c8 -45.333 34.667 -82.333 80 -111c49.333 -31.333 112 -47 188 -47c181.333 0 291 80.667 329 242l47 200h-16c-77.333 -108 -186 -162 -326 -162c-111.333 0 -204 39.667 -278 119
c-76 81.333 -114 185.333 -114 312c0 190.667 51.333 347 154 469c100.667 120.667 228 181 382 181c76 0 145.667 -20.333 209 -61c64 -41.333 106.667 -93.666 128 -156.999h16l42 199h167l-244 -1130c-24 -111.333 -80 -199 -168 -263c-90 -65.333 -204 -98 -342 -98
c-121.333 0 -223.666 30.667 -306.999 92zM874.999 298.998c72.667 89.333 109 204.333 109 345c0 91.333 -25 164 -75 218c-50 53.333 -117.333 80 -202 80c-108 0 -196.333 -42.333 -265 -127c-69.333 -86.667 -104 -200.667 -104 -342c0 -95.333 23.667 -170 71 -224
s112 -81 194 -81c110 0 200.667 43.667 272 131zM602.999 1556c-1.33301 -10.667 -2 -21 -2 -31c0 -51.333 18 -92.333 54 -123c35.333 -30 83.333 -45 144 -45c138.667 0 217.667 66.333 237 199h156c-9.33301 -98.667 -50 -177.667 -122 -237
c-72 -60.667 -164.667 -91 -278 -91c-107.333 0 -192 27.333 -254 82c-59.333 52.667 -89 120.667 -89 204c0 13.333 1 27.333 3 42h151z" />
    <glyph glyph-name="Gdotaccent" unicode="&#x120;" horiz-adv-x="1528" 
d="M1448 540c-40 -186.667 -117.667 -328.999 -233 -426.999c-114.667 -98 -261.334 -147 -440.001 -147c-171.333 0 -310 54.667 -416 164c-105.333 109.333 -158 253.333 -158 432c0 264.667 72 483.334 216 656.001s325.667 259 545 259c150 0 275.667 -42 377 -126
c102 -84 157.667 -191.667 167 -323c0.666992 -5.33301 1 -17.333 1 -36h-183c-7.33301 97.333 -44.666 174.666 -111.999 231.999c-68 57.333 -156 86 -264 86c-158.667 0 -291.667 -70 -399 -210c-107.333 -139.333 -161 -312.333 -161 -519c0 -138.667 37 -248 111 -328
s174.667 -120 302 -120c114.667 0 214 35.667 298 107c84.667 71.333 138.667 165.666 162 282.999l11 55h-400l34 158h584zM921 1610c-23.333 24 -35 52.667 -35 86s11.667 62 35 86c24 23.333 52.667 35 86 35s62 -11.667 86 -35c23.333 -24 35 -52.667 35 -86
s-11.667 -62 -35 -86c-24 -23.333 -52.667 -35 -86 -35s-62 11.667 -86 35z" />
    <glyph glyph-name="gdotaccent" unicode="&#x121;" horiz-adv-x="1247" 
d="M195 -321c-80 58.667 -123.334 130.332 -130.001 214.999h183c8 -45.333 34.667 -82.333 80 -111c49.333 -31.333 112 -47 188 -47c181.333 0 291 80.667 329 242l47 200h-16c-77.333 -108 -186 -162 -326 -162c-111.333 0 -204 39.667 -278 119
c-76 81.333 -114 185.333 -114 312c0 190.667 51.333 347 154 469c100.667 120.667 228 181 382 181c76 0 145.667 -20.333 209 -61c64 -41.333 106.667 -93.666 128 -156.999h16l42 199h167l-244 -1130c-24 -111.333 -80 -199 -168 -263c-90 -65.333 -204 -98 -342 -98
c-121.333 0 -223.666 30.667 -306.999 92zM874.999 298.998c72.667 89.333 109 204.333 109 345c0 91.333 -25 164 -75 218c-50 53.333 -117.333 80 -202 80c-108 0 -196.333 -42.333 -265 -127c-69.333 -86.667 -104 -200.667 -104 -342c0 -95.333 23.667 -170 71 -224
s112 -81 194 -81c110 0 200.667 43.667 272 131zM730.999 1325c-25.333 25.333 -38 55.333 -38 90s12.667 64.667 38 90c24.667 24.667 54.667 37 90 37s65.333 -12.333 90 -37c25.333 -25.333 38 -55.333 38 -90s-12.667 -64.667 -38 -90
c-24.667 -25.333 -54.667 -38 -90 -38c-34.667 0 -64.667 12.667 -90 38z" />
    <glyph glyph-name="uni0122" unicode="&#x122;" horiz-adv-x="1528" 
d="M1448 540c-40 -186.667 -117.667 -328.999 -233 -426.999c-114.667 -98 -261.334 -147 -440.001 -147c-171.333 0 -310 54.667 -416 164c-105.333 109.333 -158 253.333 -158 432c0 264.667 72 483.334 216 656.001s325.667 259 545 259c150 0 275.667 -42 377 -126
c102 -84 157.667 -191.667 167 -323c0.666992 -5.33301 1 -17.333 1 -36h-183c-7.33301 97.333 -44.666 174.666 -111.999 231.999c-68 57.333 -156 86 -264 86c-158.667 0 -291.667 -70 -399 -210c-107.333 -139.333 -161 -312.333 -161 -519c0 -138.667 37 -248 111 -328
s174.667 -120 302 -120c114.667 0 214 35.667 298 107c84.667 71.333 138.667 165.666 162 282.999l11 55h-400l34 158h584zM502 -517.999l182 377h182l-197 -377h-167z" />
    <glyph glyph-name="uni0123" unicode="&#x123;" horiz-adv-x="1248" 
d="M195 -321c-80 58.667 -123.334 130.332 -130.001 214.999h183c8 -45.333 34.667 -82.333 80 -111c49.333 -31.333 112 -47 188 -47c181.333 0 291 80.667 329 242l47 200h-16c-77.333 -108 -186 -162 -326 -162c-111.333 0 -204 39.667 -278 119
c-76 81.333 -114 185.333 -114 312c0 190.667 51.333 347 154 469c100.667 120.667 228 181 382 181c76 0 145.667 -20.333 209 -61c64 -41.333 106.667 -93.666 128 -156.999h16l42 199h167l-244 -1130c-24 -111.333 -80 -199 -168 -263c-90 -65.333 -204 -98 -342 -98
c-121.333 0 -223.666 30.667 -306.999 92zM874.999 298.998c72.667 89.333 109 204.333 109 345c0 91.333 -25 164 -75 218c-50 53.333 -117.333 80 -202 80c-108 0 -196.333 -42.333 -265 -127c-69.333 -86.667 -104 -200.667 -104 -342c0 -95.333 23.667 -170 71 -224
s112 -81 194 -81c110 0 200.667 43.667 272 131zM1254 1663l-182 -377h-182l197 377h167z" />
    <glyph glyph-name="Hcircumflex" unicode="&#x124;" horiz-adv-x="1522" 
d="M1093 0l140 657h-788l-140 -657h-183l307 1443h184l-133 -624h788l133 624h184l-307 -1443h-185zM1371 1575h-185l-105 186h-16l-183 -186h-207l310 298h202z" />
    <glyph glyph-name="hcircumflex" unicode="&#x125;" horiz-adv-x="1236" 
d="M431 1506l175 -0.000976562l-127 -589h16c84 120 195 180 333 180c102 0 186 -32.667 252 -98c62.667 -62 94 -137.333 94 -226c0 -37.333 -4.66699 -78.666 -14 -123.999l-138 -649h-175l132 619c8.66699 42 13 77 13 105c0 66 -21 118.667 -63 158
c-42.667 40 -100.667 60 -174 60c-83.333 0 -155.333 -27 -216 -81c-58.667 -52 -97 -119.667 -115 -203l-140 -658h-175zM882 1638h-185l-105 186h-16l-183 -186h-207l310 298h202z" />
    <glyph glyph-name="Hbar" unicode="&#x126;" horiz-adv-x="1473" 
d="M1300 1075h-788l-55 -256h788zM1616 1075h-132l-229 -1075h-185l140 657h-788l-140 -657h-183l229 1075h-136l30 143h136l48 225h184l-48 -225h788l48 225h184l-48 -225h132z" />
    <glyph glyph-name="hbar" unicode="&#x127;" horiz-adv-x="1252" 
d="M495 917c84 120 195 179.999 333 179.999c102 0 186 -32.667 252 -98c62.667 -62 94 -137.333 94 -226c0 -37.333 -4.66699 -78.666 -14 -123.999l-138 -649h-175l132 619c8.66699 42 13 77 13 105c0 66 -21 118.667 -63 158c-42.667 40 -100.667 60 -174 60
c-83.333 0 -155.333 -27 -216 -81c-58.667 -52 -97 -119.667 -115 -203l-140 -658h-175l275 1287h-147l26 124h148l20 95h175l-20 -95h233l-26 -124h-234l-80 -370h16z" />
    <glyph glyph-name="Itilde" unicode="&#x128;" horiz-adv-x="550" 
d="M122 0l307 1443h184l-307 -1443h-184zM552 1657c-58 54 -98.667 81 -122 81c-59.333 0 -97.333 -39.333 -114 -118h-142c13.333 78.667 44 141 92 187c47.333 44 103 66 167 66c62 0 122 -27 180 -81c58 -54.667 98.667 -82 122 -82c60 0 98.333 39.333 115 118h142
c-13.333 -78.667 -44 -140.667 -92 -186c-47.333 -44.667 -103 -67 -167 -67c-62.667 0 -123 27.333 -181 82z" />
    <glyph glyph-name="itilde" unicode="&#x129;" horiz-adv-x="516" 
d="M340 1078h172l-229 -1078h-172zM475 1309l-56.999 63c-20.667 19.333 -41.667 29 -63 29c-58.667 0 -96.667 -46.333 -114 -139h-142c10 86.667 39.667 154.667 89 204c47.333 46.667 105.333 70 174 70c64.667 0 124 -30.667 178 -92c33.333 -38 52.333 -59 57 -63
c20.667 -19.333 41.667 -29 63 -29c59.333 0 97.666 46.333 114.999 139h142c-10 -86.667 -39.667 -154.667 -89 -204c-47.333 -46.667 -105.333 -70 -174 -70c-65.333 0 -125 30.667 -179 92z" />
    <glyph glyph-name="Imacron" unicode="&#x12a;" horiz-adv-x="550" 
d="M122 0l307 1443h184l-307 -1443h-184zM222 1620l29 136h674l-29 -136h-674z" />
    <glyph glyph-name="imacron" unicode="&#x12b;" horiz-adv-x="516" 
d="M340 1078h172l-229 -1078h-172zM133 1286l29 136h674l-29 -136h-674z" />
    <glyph glyph-name="Ibreve" unicode="&#x12c;" horiz-adv-x="550" 
d="M122 0l307 1443h184l-307 -1443h-184zM221 1873l150 0.000976562v-13c0 -44.667 19 -82 57 -112c37.333 -29.333 83.666 -44 138.999 -44c56 0 103.333 15 142 45s64.667 71.333 78 124h154c-17.333 -91.333 -60.666 -164 -129.999 -218
c-68.667 -53.333 -151.334 -80 -248.001 -80c-101.333 0 -183.666 26.667 -246.999 80s-95 122.666 -95 207.999v10z" />
    <glyph glyph-name="ibreve" unicode="&#x12d;" horiz-adv-x="516" 
d="M340 1078h172l-229 -1078h-172zM280 1556c-1.33301 -10.667 -2 -21 -2 -31c0 -51.333 18 -92.333 54 -123c35.333 -30 83.333 -45 144 -45c138.667 0 217.667 66.333 237 199h156c-9.33301 -98.667 -50 -177.667 -122 -237c-72 -60.667 -164.667 -91 -278 -91
c-107.333 0 -192 27.333 -254 82c-59.333 52.667 -89 120.667 -89 204c0 13.333 1 27.333 3 42h151z" />
    <glyph glyph-name="Iogonek" unicode="&#x12e;" horiz-adv-x="550" 
d="M614 1443l-299.001 -1404c-76 -38.667 -130.333 -76.334 -163 -113.001s-49 -78 -49 -124c0 -31.333 9.33301 -55.666 28 -72.999c18 -18 43 -27 75 -27s55.667 3 71 9l-26 -127c-26 -10.667 -58 -16 -96 -16c-67.333 0 -120.666 18 -159.999 54
c-40 35.333 -60 83 -60 143c0 58.667 15.333 110 46 154c30 44.667 81.333 90.667 154 138l295 1386h184z" />
    <glyph glyph-name="iogonek" unicode="&#x12f;" horiz-adv-x="516" 
d="M414 1332c-23.333 24 -35 52.333 -35 85c0 33.333 11.667 61.666 35 84.999c24 23.333 52.333 35 85 35c33.333 0 61.666 -11.667 84.999 -35s35 -51.666 35 -84.999c0 -32.667 -11.667 -61 -35 -85c-23.333 -23.333 -51.666 -35 -84.999 -35
c-32.667 0 -61 11.667 -85 35zM-25 -378c-40 35.333 -60.001 83.001 -60.001 143.001c0 57.333 16.333 108.666 49 153.999c31.333 43.333 84 89.333 158 138l219 1021h177l-223 -1039c-76 -38.667 -130.333 -76.334 -163 -113.001s-49 -78 -49 -124
c0 -31.333 9.33301 -55.666 28 -72.999c18 -18 43 -27 75 -27s55.667 3 71 9l-26 -127c-26 -10.667 -58 -16 -96 -16c-67.333 0 -120.666 18 -159.999 54z" />
    <glyph glyph-name="Idotaccent" unicode="&#x130;" horiz-adv-x="550" 
d="M122 0l307 1443h184l-307 -1443h-184zM489 1610c-23.333 24 -35 52.667 -35 86s11.667 62 35 86c24 23.333 52.667 35 86 35s62 -11.667 86 -35c23.333 -24 35 -52.667 35 -86s-11.667 -62 -35 -86c-24 -23.333 -52.667 -35 -86 -35s-62 11.667 -86 35z" />
    <glyph glyph-name="dotlessi" unicode="&#x131;" horiz-adv-x="516" 
d="M340 1078h172l-229 -1078h-172z" />
    <glyph glyph-name="IJ" unicode="&#x132;" horiz-adv-x="1650" 
d="M122 0l307 1443h184l-307 -1443h-184zM824 337c1.33301 -62.667 22 -111.999 62 -147.999s93.667 -54 161 -54c138.667 0 227 89.667 265 269l221 1039h179l-228 -1080c-26.667 -127.333 -78.667 -225 -156 -293c-79.333 -69.333 -180.333 -104 -303 -104
c-116 0 -210.333 35.333 -283 106c-73.333 71.333 -106.333 159.666 -99 264.999h181z" />
    <glyph glyph-name="ij" unicode="&#x133;" horiz-adv-x="1032" 
d="M340 1078h176l-231 -1078h-176zM413 1332c-23.333 24 -35 52.333 -35 85c0 33.333 11.667 61.666 35 84.999c24 23.333 52.333 35 85 35c33.333 0 61.666 -11.667 84.999 -35s35 -51.666 35 -84.999c0 -32.667 -11.667 -61 -35 -85
c-23.333 -23.333 -51.666 -35 -84.999 -35c-32.667 0 -61 11.667 -85 35zM777 -107c-21.333 -100.667 -60.001 -174.333 -116.001 -221c-55.333 -46 -131.666 -69.333 -228.999 -70c-29.333 0 -56.333 1.33301 -81 4l33 152c21.333 -2 39 -3 53 -3c50.667 0 89 12 115 36
s45.333 65.667 58 125l247 1162h172zM928.999 1332c-23.333 24 -35 52.333 -35 85c0 33.333 11.667 61.666 35 84.999c24 23.333 52.333 35 85 35c33.333 0 61.666 -11.667 84.999 -35s35 -51.666 35 -84.999c0 -32.667 -11.667 -61 -35 -85
c-23.333 -23.333 -51.666 -35 -84.999 -35c-32.667 0 -61 11.667 -85 35z" />
    <glyph glyph-name="Jcircumflex" unicode="&#x134;" horiz-adv-x="1102" 
d="M287 337c1.33301 -62.667 22.001 -111.999 62.001 -147.999c39.333 -36 93 -54 161 -54c138.667 0 227 89.667 265 269l221 1039h179l-228 -1080c-27.333 -127.333 -79.666 -225 -156.999 -293c-78.667 -69.333 -179.334 -104 -302.001 -104
c-116 0 -210.667 35.333 -284 106c-72.667 71.333 -105.334 159.666 -98.001 264.999h181zM1449 1575h-185l-105 186h-16l-183 -186h-207l310 298h202z" />
    <glyph glyph-name="jcircumflex" unicode="&#x135;" horiz-adv-x="516" 
d="M262 -107c-21.333 -100.667 -60.001 -174.333 -116.001 -221c-55.333 -46 -131.666 -69.333 -228.999 -70c-29.333 0 -56.333 1.33301 -81 4l33 152c21.333 -2 39 -3 53 -3c50.667 0 89 12 115 36s45.333 65.667 58 125l247 1162h172zM831.999 1228h-187l-129 227h-16
l-225 -227h-209l354 340h202z" />
    <glyph glyph-name="uni0136" unicode="&#x136;" horiz-adv-x="1349" 
d="M122 0l307 1443h179l-149 -701h16l772 701h235l-702 -635l449 -808h-210l-381 697l-229 -204l-107 -493h-180zM353 -518l182 377h182l-197 -377h-167z" />
    <glyph glyph-name="uni0137" unicode="&#x137;" horiz-adv-x="1112" 
d="M980 1078h227l-565 -465l363 -613h-201l-301 516l-130 -94l-90 -422h-174l320 1506h174l-185 -870h16zM254 -518l182 377h182l-197 -377h-167z" />
    <glyph glyph-name="Lacute" unicode="&#x139;" horiz-adv-x="1164" 
d="M1000 0h-878l307 1443h184l-273 -1281h694zM831 1873h226l-395 -298h-204z" />
    <glyph glyph-name="lacute" unicode="&#x13a;" horiz-adv-x="518" 
d="M429 1506h176l-320 -1506h-176zM828 1936h226l-395 -298h-204z" />
    <glyph glyph-name="uni013B" unicode="&#x13b;" horiz-adv-x="1164" 
d="M1000 0h-878l307 1443h184l-273 -1281h694zM273 -518l182 377h182l-197 -377h-167z" />
    <glyph glyph-name="uni013C" unicode="&#x13c;" horiz-adv-x="518" 
d="M430 1506h176l-320 -1506h-176zM-89 -518l182 377h182l-197 -377h-167z" />
    <glyph glyph-name="Lcaron" unicode="&#x13d;" horiz-adv-x="1164" 
d="M982 1443l-154 -488h-120l104 488h170zM1000 0h-878l307 1443h184l-273 -1281h694z" />
    <glyph glyph-name="lcaron" unicode="&#x13e;" horiz-adv-x="615" 
d="M898 1506l-154 -488h-120l104 488h170zM429 1506h176l-320 -1506h-176z" />
    <glyph glyph-name="Lslash" unicode="&#x141;" horiz-adv-x="1115" 
d="M1034 162l-34 -162h-878l153 718l-181 -75l30 143l181 75l124 582h184l-106 -498l317 132l-30 -143l-318 -132l-136 -640h694z" />
    <glyph glyph-name="lslash" unicode="&#x142;" horiz-adv-x="516" 
d="M595 851l-142 -62l-168 -789h-176l150 705l-136 -59l30 143l136 59l140 658h176l-122 -574l142 62z" />
    <glyph glyph-name="Nacute" unicode="&#x143;" horiz-adv-x="1520" 
d="M122 0l307 1443h177l534 -1153h16l245 1153h182l-307 -1443h-179l-533 1150h-16l-244 -1150h-182zM1326 1873h226l-395 -298h-204z" />
    <glyph glyph-name="nacute" unicode="&#x144;" horiz-adv-x="1215" 
d="M328 1078l167 -0.000976562l-34 -161h16c84 120 196.333 180 337 180c100.667 0 183.667 -32.667 249 -98c62 -62 93 -137.333 93 -226c0 -37.333 -4.66699 -78.666 -14 -123.999l-138 -649h-175l132 619c8.66699 42 13 77 13 105c0 65.333 -20.667 118 -62 158
c-42.667 40 -99.667 60 -171 60c-81.333 0 -152.333 -27 -213 -81c-58 -52 -96 -119.667 -114 -203l-140 -658h-175zM1047 1601h220l-350 -338h-194z" />
    <glyph glyph-name="uni0145" unicode="&#x145;" horiz-adv-x="1520" 
d="M122 0l307 1443h177l534 -1153h16l245 1153h182l-307 -1443h-179l-533 1150h-16l-244 -1150h-182zM411 -518l182 377h182l-197 -377h-167z" />
    <glyph glyph-name="uni0146" unicode="&#x146;" horiz-adv-x="1215" 
d="M328 1078l167 -0.000976562l-34 -161h16c84 120 196.333 180 337 180c100.667 0 183.667 -32.667 249 -98c62 -62 93 -137.333 93 -226c0 -37.333 -4.66699 -78.666 -14 -123.999l-138 -649h-175l132 619c8.66699 42 13 77 13 105c0 65.333 -20.667 118 -62 158
c-42.667 40 -99.667 60 -171 60c-81.333 0 -152.333 -27 -213 -81c-58 -52 -96 -119.667 -114 -203l-140 -658h-175zM263 -518.001l182 377h182l-197 -377h-167z" />
    <glyph glyph-name="Ncaron" unicode="&#x147;" horiz-adv-x="1520" 
d="M122 0l307 1443h177l534 -1153h16l245 1153h182l-307 -1443h-179l-533 1150h-16l-244 -1150h-182zM769 1873h185l105 -186h16l183 186h207l-310 -298h-202z" />
    <glyph glyph-name="ncaron" unicode="&#x148;" horiz-adv-x="1215" 
d="M328 1078l167 -0.000976562l-34 -161h16c84 120 196.333 180 337 180c100.667 0 183.667 -32.667 249 -98c62 -62 93 -137.333 93 -226c0 -37.333 -4.66699 -78.666 -14 -123.999l-138 -649h-175l132 619c8.66699 42 13 77 13 105c0 65.333 -20.667 118 -62 158
c-42.667 40 -99.667 60 -171 60c-81.333 0 -152.333 -27 -213 -81c-58 -52 -96 -119.667 -114 -203l-140 -658h-175zM725 1228l-210 340h185l129 -227h16l225 227h211l-354 -340h-202z" />
    <glyph glyph-name="Omacron" unicode="&#x14c;" horiz-adv-x="1579" 
d="M366 136c-110.667 112.667 -165.999 255.001 -165.999 427.001c0 262.667 74 480.667 222 654s334.333 260 559 260c168.667 0 307.667 -56.333 417 -169c110 -112.667 165 -255.334 165 -428.001c0 -264.667 -73.333 -483 -220 -655
c-146.667 -172.667 -332.334 -259 -557.001 -259c-168.667 0 -308.667 56.667 -420 170zM1261 1186c-75.333 82.667 -173.333 124 -294 124c-164.667 0 -302 -69.667 -412 -209c-110 -140 -165 -314 -165 -522c0 -133.333 37.667 -241 113 -323s174.333 -123 297 -123
c165.333 0 302.333 69 411 207c108 138 162 312.667 162 524c0 132.667 -37.333 240 -112 322zM677.001 1618l29 136h674l-29 -136h-674z" />
    <glyph glyph-name="omacron" unicode="&#x14d;" horiz-adv-x="1210" 
d="M411 225c51.333 -59.333 120 -89.002 206 -89.002c96.667 0 181 44.333 253 133c74 92.667 111 207 111 343c0 102.667 -24 183.334 -72 242.001c-48.667 58.667 -115 88 -199 88c-114 0 -205 -47 -273 -141c-66.667 -91.333 -100 -209 -100 -353
c0 -91.333 24.667 -165.666 74 -222.999zM276 105.998c-81.333 82.667 -122.001 189.668 -122.001 321.001c0 188.667 50.333 346 151 472c106.667 132 247 198 421 198c131.333 0 237.666 -41.667 318.999 -125c80 -82 120 -188.333 120 -319
c0 -184.667 -49.667 -340.334 -149 -467.001c-107.333 -136.667 -247.666 -205 -420.999 -205c-131.333 0 -237.666 41.667 -318.999 125zM430.999 1286l29 136h674l-29 -136h-674z" />
    <glyph glyph-name="Obreve" unicode="&#x14e;" horiz-adv-x="1579" 
d="M366 136c-110.667 112.667 -165.999 255.001 -165.999 427.001c0 262.667 74 480.667 222 654s334.333 260 559 260c168.667 0 307.667 -56.333 417 -169c110 -112.667 165 -255.334 165 -428.001c0 -264.667 -73.333 -483 -220 -655
c-146.667 -172.667 -332.334 -259 -557.001 -259c-168.667 0 -308.667 56.667 -420 170zM1261 1186c-75.333 82.667 -173.333 124 -294 124c-164.667 0 -302 -69.667 -412 -209c-110 -140 -165 -314 -165 -522c0 -133.333 37.667 -241 113 -323s174.333 -123 297 -123
c165.333 0 302.333 69 411 207c108 138 162 312.667 162 524c0 132.667 -37.333 240 -112 322zM676.001 1871l150 0.000976562v-13c0 -44.667 19 -82 57 -112c37.333 -29.333 83.666 -44 138.999 -44c56 0 103.333 15 142 45s64.667 71.333 78 124h154
c-17.333 -91.333 -60.666 -164 -129.999 -218c-68.667 -53.333 -151.334 -80 -248.001 -80c-101.333 0 -183.666 26.667 -246.999 80s-95 122.666 -95 207.999v10z" />
    <glyph glyph-name="obreve" unicode="&#x14f;" horiz-adv-x="1210" 
d="M411 225c51.333 -59.333 120 -89.002 206 -89.002c96.667 0 181 44.333 253 133c74 92.667 111 207 111 343c0 102.667 -24 183.334 -72 242.001c-48.667 58.667 -115 88 -199 88c-114 0 -205 -47 -273 -141c-66.667 -91.333 -100 -209 -100 -353
c0 -91.333 24.667 -165.666 74 -222.999zM276 105.998c-81.333 82.667 -122.001 189.668 -122.001 321.001c0 188.667 50.333 346 151 472c106.667 132 247 198 421 198c131.333 0 237.666 -41.667 318.999 -125c80 -82 120 -188.333 120 -319
c0 -184.667 -49.667 -340.334 -149 -467.001c-107.333 -136.667 -247.666 -205 -420.999 -205c-131.333 0 -237.666 41.667 -318.999 125zM577.999 1556c-1.33301 -10.667 -2 -21 -2 -31c0 -51.333 18 -92.333 54 -123c35.333 -30 83.333 -45 144 -45
c138.667 0 217.667 66.333 237 199h156c-9.33301 -98.667 -50 -177.667 -122 -237c-72 -60.667 -164.667 -91 -278 -91c-107.333 0 -192 27.333 -254 82c-59.333 52.667 -89 120.667 -89 204c0 13.333 1 27.333 3 42h151z" />
    <glyph glyph-name="Ohungarumlaut" unicode="&#x150;" horiz-adv-x="1579" 
d="M366 136c-110.667 112.667 -165.999 255.001 -165.999 427.001c0 262.667 74 480.667 222 654s334.333 260 559 260c168.667 0 307.667 -56.333 417 -169c110 -112.667 165 -255.334 165 -428.001c0 -264.667 -73.333 -483 -220 -655
c-146.667 -172.667 -332.334 -259 -557.001 -259c-168.667 0 -308.667 56.667 -420 170zM1261 1186c-75.333 82.667 -173.333 124 -294 124c-164.667 0 -302 -69.667 -412 -209c-110 -140 -165 -314 -165 -522c0 -133.333 37.667 -241 113 -323s174.333 -123 297 -123
c165.333 0 302.333 69 411 207c108 138 162 312.667 162 524c0 132.667 -37.333 240 -112 322zM1475 1871h226l-395 -298h-204zM1061 1871h226l-395 -298h-204z" />
    <glyph glyph-name="ohungarumlaut" unicode="&#x151;" horiz-adv-x="1210" 
d="M411 225c51.333 -59.333 120 -89.002 206 -89.002c96.667 0 181 44.333 253 133c74 92.667 111 207 111 343c0 102.667 -24 183.334 -72 242.001c-48.667 58.667 -115 88 -199 88c-114 0 -205 -47 -273 -141c-66.667 -91.333 -100 -209 -100 -353
c0 -91.333 24.667 -165.666 74 -222.999zM276 105.998c-81.333 82.667 -122.001 189.668 -122.001 321.001c0 188.667 50.333 346 151 472c106.667 132 247 198 421 198c131.333 0 237.666 -41.667 318.999 -125c80 -82 120 -188.333 120 -319
c0 -184.667 -49.667 -340.334 -149 -467.001c-107.333 -136.667 -247.666 -205 -420.999 -205c-131.333 0 -237.666 41.667 -318.999 125zM1197 1601h210l-352 -338h-182zM796.999 1601h210l-352 -338h-182z" />
    <glyph glyph-name="OE" unicode="&#x152;" horiz-adv-x="2325" 
d="M1260 1187c-74.667 82 -172.333 122.999 -293 122.999c-164 0 -301 -69.667 -411 -209c-110.667 -140 -166 -314 -166 -522c0 -133.333 38 -241 114 -323c75.333 -82 174 -123 296 -123c165.333 0 302.333 69 411 207c108 138 162 312.667 162 524
c0 132.667 -37.667 240.334 -113 323.001zM1250 139.999l-15.999 -1c-118.667 -115.333 -268 -173 -448 -173c-168.667 0 -308.334 56.333 -419.001 169c-111.333 113.333 -167 256 -167 428c0 262.667 74.333 480.667 223 654c148 173.333 334 260 558 260
c108 0 205.333 -26.667 292 -80c81.333 -50 143 -116.667 185 -200l17 1l52 245h896l-35 -162h-711l-100 -463h675l-34 -160h-674l-106 -496h712l-34 -162h-896z" />
    <glyph glyph-name="oe" unicode="&#x153;" horiz-adv-x="1991" 
d="M1031 203l-15.9971 -0.000976562c-104 -148 -245 -222 -423 -222c-130 0 -235.333 41.333 -316 124c-81.333 82 -122 189.333 -122 322c0 196 53.333 356.667 160 482c107.333 125.333 244.666 188 411.999 188c178.667 0 301.667 -77.333 369 -232h16
c96 154.667 236.333 232 421 232c120.667 0 219 -40.333 295 -121s114.333 -185.667 115 -315c0 -60 -4.33301 -114 -13 -162h-777l-2 -56c0 -92 24.667 -166 74 -222c49.333 -55.333 114.666 -83 195.999 -83c131.333 0 221.666 45.667 270.999 137h183
c-23.333 -89.333 -77.333 -160.666 -162 -213.999s-185.667 -80 -303 -80c-178.667 0 -304.667 74 -378 222zM1760 637.999c1.33301 8 2 23 2 45c0 78.667 -22.333 142 -67 190c-45.333 48 -105 72 -179 72c-80 0 -150.333 -27.333 -211 -82s-104 -129.667 -130 -225h585z
M414.003 221.999c51.333 -57.333 118.999 -86.0029 202.999 -86.0029c100.667 0 186.334 46.667 257.001 140c71.333 92.667 107 204.667 107 336c0 102.667 -24 183.334 -72 242.001s-114.333 88 -199 88c-111.333 0 -201.333 -45.333 -270 -136
c-68.667 -91.333 -103 -210.666 -103 -357.999c0 -93.333 25.667 -168.666 77 -225.999z" />
    <glyph glyph-name="Racute" unicode="&#x154;" horiz-adv-x="1338" 
d="M429 1443h498.999c130.667 0 235.334 -34.667 314.001 -104c78 -69.333 117 -162 117 -278c0 -112 -35 -210 -105 -294c-70.667 -84 -164.667 -140 -282 -168l207 -599h-196l-188 571h-368l-121 -571h-184zM460.999 731h348c106 0 192.667 29.333 260 88
c66.667 58 100 133 100 225c0 73.333 -22 131.333 -66 174c-44.667 43.333 -104.667 65 -180 65h-344zM1143 1873h226l-395 -298h-204z" />
    <glyph glyph-name="racute" unicode="&#x155;" horiz-adv-x="765" 
d="M320 1078h166.001l-29 -137h16c69.333 104 165.666 156 288.999 156c58 0 100 -5 126 -15l-37 -165c-38.667 8.66699 -84 13 -136 13c-168 0 -273 -97.667 -315 -293l-135 -637h-174zM834.001 1601h220l-350 -338h-194z" />
    <glyph glyph-name="uni0156" unicode="&#x156;" horiz-adv-x="1338" 
d="M429 1443h498.999c130.667 0 235.334 -34.667 314.001 -104c78 -69.333 117 -162 117 -278c0 -112 -35 -210 -105 -294c-70.667 -84 -164.667 -140 -282 -168l207 -599h-196l-188 571h-368l-121 -571h-184zM460.999 731h348c106 0 192.667 29.333 260 88
c66.667 58 100 133 100 225c0 73.333 -22 131.333 -66 174c-44.667 43.333 -104.667 65 -180 65h-344zM356.999 -518l182 377h182l-197 -377h-167z" />
    <glyph glyph-name="uni0157" unicode="&#x157;" horiz-adv-x="765" 
d="M321 1078h166.001l-29 -137h16c69.333 104 165.666 156 288.999 156c58 0 100 -5 126 -15l-37 -165c-38.667 8.66699 -84 13 -136 13c-168 0 -273 -97.667 -315 -293l-135 -637h-174zM-99.999 -518l182 377h182l-197 -377h-167z" />
    <glyph glyph-name="Rcaron" unicode="&#x158;" horiz-adv-x="1338" 
d="M429 1443h498.999c130.667 0 235.334 -34.667 314.001 -104c78 -69.333 117 -162 117 -278c0 -112 -35 -210 -105 -294c-70.667 -84 -164.667 -140 -282 -168l207 -599h-196l-188 571h-368l-121 -571h-184zM460.999 731h348c106 0 192.667 29.333 260 88
c66.667 58 100 133 100 225c0 73.333 -22 131.333 -66 174c-44.667 43.333 -104.667 65 -180 65h-344zM585.999 1873h185l105 -186h16l183 186h207l-310 -298h-202z" />
    <glyph glyph-name="rcaron" unicode="&#x159;" horiz-adv-x="765" 
d="M320 1078h166.001l-29 -137h16c69.333 104 165.666 156 288.999 156c58 0 100 -5 126 -15l-37 -165c-38.667 8.66699 -84 13 -136 13c-168 0 -273 -97.667 -315 -293l-135 -637h-174zM512.001 1228l-210 340h185l129 -227h16l225 227h211l-354 -340h-202z" />
    <glyph glyph-name="Sacute" unicode="&#x15a;" horiz-adv-x="1276" 
d="M300 400c17.333 -83.333 59.334 -149.337 126.001 -198.004c67.333 -48.667 149.666 -73 246.999 -73c99.333 0 180 23.667 242 71c61.333 46.667 92 108.334 92 185.001c0 59.333 -20.667 109.333 -62 150c-40.667 40.667 -107.667 77.334 -201 110.001l-137 48
c-98.667 34.667 -175 84.334 -229 149.001c-54.667 64.667 -82 138.334 -82 221.001c0 118.667 48.333 217.334 145 296.001c97.333 78.667 218.666 118 363.999 118c137.333 0 253.333 -39.333 348 -118s147.334 -179.334 158.001 -302.001h-181
c-18.667 81.333 -57.334 144.333 -116.001 189c-59.333 45.333 -132.666 68 -219.999 68c-89.333 0 -163 -22 -221 -66c-58 -44.667 -87 -101 -87 -169c0 -100 77.333 -178 232 -234l130 -47c233.333 -84 350 -214 350 -390c0 -130.667 -50.333 -237 -151 -319
c-100 -82 -229.667 -123 -389 -123c-148 0 -270 38.667 -366 116c-96.667 77.333 -154.667 183.333 -174 318h182zM1166 1873h226l-395 -298h-204z" />
    <glyph glyph-name="sacute" unicode="&#x15b;" horiz-adv-x="1052" 
d="M274 289c14 -48.667 42.665 -87.665 85.998 -116.998c45.333 -30.667 101 -46 167 -46c72.667 0 132.334 15.667 179.001 47s70 71.666 70 120.999c0 68.667 -45 117.334 -135 146.001l-165 53c-166.667 54 -250 148 -250 282c0 95.333 38.333 173 115 233
c76 59.333 172.333 89 289 89c112.667 0 205.334 -27 278.001 -81c70 -52.667 112.333 -124 127 -214h-171c-11.333 46.667 -37.666 83 -78.999 109c-42.667 26.667 -95.334 40 -158.001 40c-66 0 -120.333 -15 -163 -45c-43.333 -30 -65 -68.333 -65 -115
c0 -64.667 50.333 -113.334 151 -146.001l146 -47c90 -28.667 155.333 -66.334 196 -113.001c40.667 -46 61 -105.333 61 -178c0 -94.667 -41 -172.667 -123 -234s-185.667 -92 -311 -92c-118 0 -216 28.333 -294 85c-77.333 56.667 -120 131 -128 223h177zM914.998 1601
h220l-350 -338h-194z" />
    <glyph glyph-name="Scircumflex" unicode="&#x15c;" horiz-adv-x="1276" 
d="M300 400c17.333 -83.333 59.334 -149.337 126.001 -198.004c67.333 -48.667 149.666 -73 246.999 -73c99.333 0 180 23.667 242 71c61.333 46.667 92 108.334 92 185.001c0 59.333 -20.667 109.333 -62 150c-40.667 40.667 -107.667 77.334 -201 110.001l-137 48
c-98.667 34.667 -175 84.334 -229 149.001c-54.667 64.667 -82 138.334 -82 221.001c0 118.667 48.333 217.334 145 296.001c97.333 78.667 218.666 118 363.999 118c137.333 0 253.333 -39.333 348 -118s147.334 -179.334 158.001 -302.001h-181
c-18.667 81.333 -57.334 144.333 -116.001 189c-59.333 45.333 -132.666 68 -219.999 68c-89.333 0 -163 -22 -221 -66c-58 -44.667 -87 -101 -87 -169c0 -100 77.333 -178 232 -234l130 -47c233.333 -84 350 -214 350 -390c0 -130.667 -50.333 -237 -151 -319
c-100 -82 -229.667 -123 -389 -123c-148 0 -270 38.667 -366 116c-96.667 77.333 -154.667 183.333 -174 318h182zM1220 1575h-185l-105 186h-16l-183 -186h-207l310 298h202z" />
    <glyph glyph-name="scircumflex" unicode="&#x15d;" horiz-adv-x="1052" 
d="M274 289c14 -48.667 42.665 -87.665 85.998 -116.998c45.333 -30.667 101 -46 167 -46c72.667 0 132.334 15.667 179.001 47s70 71.666 70 120.999c0 68.667 -45 117.334 -135 146.001l-165 53c-166.667 54 -250 148 -250 282c0 95.333 38.333 173 115 233
c76 59.333 172.333 89 289 89c112.667 0 205.334 -27 278.001 -81c70 -52.667 112.333 -124 127 -214h-171c-11.333 46.667 -37.666 83 -78.999 109c-42.667 26.667 -95.334 40 -158.001 40c-66 0 -120.333 -15 -163 -45c-43.333 -30 -65 -68.333 -65 -115
c0 -64.667 50.333 -113.334 151 -146.001l146 -47c90 -28.667 155.333 -66.334 196 -113.001c40.667 -46 61 -105.333 61 -178c0 -94.667 -41 -172.667 -123 -234s-185.667 -92 -311 -92c-118 0 -216 28.333 -294 85c-77.333 56.667 -120 131 -128 223h177zM1053 1228h-187
l-129 227h-16l-225 -227h-209l354 340h202z" />
    <glyph glyph-name="Scedilla" unicode="&#x15e;" horiz-adv-x="1276" 
d="M848 798c233.333 -84 350.001 -214.003 350.001 -390.003c0 -121.333 -44.333 -222.333 -133 -303c-88 -80 -203.667 -125.667 -347 -137l-67 -108c119.333 -13.333 179 -65.333 179 -156c0 -56.667 -23 -103.334 -69 -140.001c-46.667 -36.667 -106 -55 -178 -55
c-63.333 0 -121.666 12 -174.999 36l23 108c43.333 -18.667 92.333 -28 147 -28c69.333 0 104 23.333 104 70c0 48 -44.667 72 -134 72h-53l13 90l70 113c-126.667 13.333 -230.334 58 -311.001 134c-82 76 -131.667 174.667 -149 296h182
c17.333 -83.333 59.333 -149.333 126 -198c67.333 -48.667 149.666 -73 246.999 -73c99.333 0 180 23.667 242 71c61.333 46.667 92 108.334 92 185.001c0 59.333 -20.667 109.333 -62 150c-40.667 40.667 -107.667 77.334 -201 110.001l-137 48
c-98.667 34.667 -175 84.334 -229 149.001c-54.667 64.667 -82 138.334 -82 221.001c0 118.667 48.333 217.334 145 296.001c97.333 78.667 218.666 118 363.999 118c137.333 0 253.333 -39.333 348 -118s147.334 -179.334 158.001 -302.001h-181
c-18.667 81.333 -57.334 144.333 -116.001 189c-59.333 45.333 -132.666 68 -219.999 68c-89.333 0 -163 -22 -221 -66c-58 -44.667 -87 -101 -87 -169c0 -100 77.333 -178 232 -234z" />
    <glyph glyph-name="scedilla" unicode="&#x15f;" horiz-adv-x="1052" 
d="M696 598c90 -28.667 155.33 -66.3311 195.997 -112.998c40.667 -46 61 -105.333 61 -178c0 -88 -36.333 -162.333 -109 -223c-72.667 -60 -165.667 -93.667 -279 -101l-76 -123c119.333 -13.333 179 -65.333 179 -156c0 -56.667 -23 -103.334 -69 -140.001
c-46.667 -36.667 -106 -55 -178 -55c-63.333 0 -121.666 12 -174.999 36l23 108c43.333 -18.667 92.333 -28 147 -28c69.333 0 104 23.333 104 70c0 48 -44.667 72 -134 72h-53l13 90l81 131c-94 14 -170.667 48 -230 102c-60 54 -93.333 120.333 -100 199h177
c14 -48.667 42.667 -87.667 86 -117c45.333 -30.667 101 -46 167 -46c72.667 0 132.334 15.667 179.001 47s70 71.666 70 120.999c0 68.667 -45 117.334 -135 146.001l-165 53c-166.667 54 -250 148 -250 282c0 95.333 38.333 173 115 233c76 59.333 172.333 89 289 89
c112.667 0 205.334 -27 278.001 -81c70 -52.667 112.333 -124 127 -214h-171c-11.333 46.667 -37.666 83 -78.999 109c-42.667 26.667 -95.334 40 -158.001 40c-66 0 -120.333 -15 -163 -45c-43.333 -30 -65 -68.333 -65 -115c0 -64.667 50.333 -113.334 151 -146.001z" />
    <glyph glyph-name="Scaron" unicode="&#x160;" horiz-adv-x="1276" 
d="M300 400c17.333 -83.333 59.334 -149.337 126.001 -198.004c67.333 -48.667 149.666 -73 246.999 -73c99.333 0 180 23.667 242 71c61.333 46.667 92 108.334 92 185.001c0 59.333 -20.667 109.333 -62 150c-40.667 40.667 -107.667 77.334 -201 110.001l-137 48
c-98.667 34.667 -175 84.334 -229 149.001c-54.667 64.667 -82 138.334 -82 221.001c0 118.667 48.333 217.334 145 296.001c97.333 78.667 218.666 118 363.999 118c137.333 0 253.333 -39.333 348 -118s147.334 -179.334 158.001 -302.001h-181
c-18.667 81.333 -57.334 144.333 -116.001 189c-59.333 45.333 -132.666 68 -219.999 68c-89.333 0 -163 -22 -221 -66c-58 -44.667 -87 -101 -87 -169c0 -100 77.333 -178 232 -234l130 -47c233.333 -84 350 -214 350 -390c0 -130.667 -50.333 -237 -151 -319
c-100 -82 -229.667 -123 -389 -123c-148 0 -270 38.667 -366 116c-96.667 77.333 -154.667 183.333 -174 318h182zM609.001 1873h185l105 -186h16l183 186h207l-310 -298h-202z" />
    <glyph glyph-name="scaron" unicode="&#x161;" horiz-adv-x="1052" 
d="M274 289c14 -48.667 42.665 -87.665 85.998 -116.998c45.333 -30.667 101 -46 167 -46c72.667 0 132.334 15.667 179.001 47s70 71.666 70 120.999c0 68.667 -45 117.334 -135 146.001l-165 53c-166.667 54 -250 148 -250 282c0 95.333 38.333 173 115 233
c76 59.333 172.333 89 289 89c112.667 0 205.334 -27 278.001 -81c70 -52.667 112.333 -124 127 -214h-171c-11.333 46.667 -37.666 83 -78.999 109c-42.667 26.667 -95.334 40 -158.001 40c-66 0 -120.333 -15 -163 -45c-43.333 -30 -65 -68.333 -65 -115
c0 -64.667 50.333 -113.334 151 -146.001l146 -47c90 -28.667 155.333 -66.334 196 -113.001c40.667 -46 61 -105.333 61 -178c0 -94.667 -41 -172.667 -123 -234s-185.667 -92 -311 -92c-118 0 -216 28.333 -294 85c-77.333 56.667 -120 131 -128 223h177zM592.998 1228
l-210 340h185l129 -227h16l225 227h211l-354 -340h-202z" />
    <glyph glyph-name="uni0162" unicode="&#x162;" horiz-adv-x="1298" 
d="M1446 1443l-34.001 -161.999h-463l-272 -1281h-22l-87 -140c119.333 -13.333 179 -65.333 179 -156c0 -56.667 -23 -103.334 -69 -140.001c-46.667 -36.667 -106 -55 -178 -55c-63.333 0 -121.666 12 -174.999 36l23 108c43.333 -18.667 92.333 -28 147 -28
c69.333 0 104 23.333 104 70c0 48 -44.667 72 -134 72h-53l13 90l89 143h-21l272 1281h-463l34 162h1110z" />
    <glyph glyph-name="uni0163" unicode="&#x163;" horiz-adv-x="744" 
d="M422 356c-8 -38 -12.001 -70.332 -12.001 -96.999c0 -77.333 45.333 -116 136 -116c25.333 0 48.333 1.33301 69 4l-31 -145c-38.667 -6.66699 -72.334 -10 -101.001 -10c-17.333 0 -34.666 1 -51.999 3l-84 -135c119.333 -13.333 179 -65.333 179 -156
c0 -56.667 -23 -103.334 -69 -140.001c-46.667 -36.667 -106 -55 -178 -55c-63.333 0 -121.666 12 -174.999 36l23 108c43.333 -18.667 92.333 -28 147 -28c69.333 0 104 23.333 104 70c0 48 -44.667 72 -134 72h-53l13 90l110 178c-59.333 38 -89 96.333 -89 175
c0 26.667 3.66699 57.667 11 93l135 631h-181l30 144h182l55 269h175l-57 -269h250l-30 -144h-250z" />
    <glyph glyph-name="Tcaron" unicode="&#x164;" horiz-adv-x="1298" 
d="M493 0l272 1281h-463l34 162h1110l-34 -162h-463l-272 -1281h-184zM652 1873h185l105 -186h16l183 186h207l-310 -298h-202z" />
    <glyph glyph-name="tcaron" unicode="&#x165;" horiz-adv-x="744" 
d="M758 1232l104 488h170l-154 -488h-120zM298 46c-48.667 38.667 -72.999 93.333 -72.999 164c0 26.667 3.66699 57.667 11 93l135 631h-181l30 144h182l55 269h175l-57 -269h250l-30 -144h-250l-123 -578c-8 -38 -12 -70.333 -12 -97c0 -77.333 45.333 -116 136 -116
c25.333 0 48.333 1.33301 69 4l-31 -145c-38.667 -6.66699 -72.334 -10 -101.001 -10c-78 0 -139.667 18 -185 54z" />
    <glyph glyph-name="Tbar" unicode="&#x166;" horiz-adv-x="1298" 
d="M949 1281l-104 -488h307l-30 -143h-307l-138 -650h-184l138 650h-299l30 143h299l104 488h-463l34 162h1110l-34 -162h-463z" />
    <glyph glyph-name="tbar" unicode="&#x167;" horiz-adv-x="739" 
d="M545 934l-62.999 -295.001h232l-31 -144h-231l-30 -139c-8 -38 -12 -70.333 -12 -97c0 -77.333 45.333 -116 136 -116c25.333 0 48.333 1.33301 69 4l-31 -145c-38.667 -6.66699 -72.334 -10 -101.001 -10c-78 0 -139.667 18 -185 54
c-48.667 38.667 -73 93.334 -73 164.001c0 26.667 3.66699 57.667 11 93l41 192h-180l31 144h180l63 295h-181l30 144h182l55 269h175l-57 -269h250l-30 -144h-250z" />
    <glyph glyph-name="Utilde" unicode="&#x168;" horiz-adv-x="1524" 
d="M363 96c-84.667 81.333 -128.003 187.332 -130.003 317.999c-0.666992 40 3.66602 83.333 12.999 130l188 899h184l-186 -887c-9.33301 -45.333 -13.666 -89.666 -12.999 -132.999c4 -91.333 34.333 -162 91 -212c60 -52.667 146 -79 258 -79
c108 0 200.333 31.667 277 95c78 64.667 128.667 152.667 152 264l203 952h184l-210 -987c-33.333 -157.333 -102.666 -277.333 -207.999 -360c-109.333 -86.667 -252.666 -130 -429.999 -130c-157.333 0 -281.666 43.333 -372.999 130zM1039 1657
c-58 54 -98.665 81 -121.998 81c-59.333 0 -97.333 -39.333 -114 -118h-142c13.333 78.667 44.333 141 93 187c46.667 44 102 66 166 66c62.667 0 123 -27 181 -81c58 -54.667 98.333 -82 121 -82c60 0 98.333 39.333 115 118h142
c-12.667 -78.667 -43.334 -140.667 -92.001 -186c-46.667 -44.667 -102.334 -67 -167.001 -67c-62.667 0 -123 27.333 -181 82z" />
    <glyph glyph-name="utilde" unicode="&#x169;" horiz-adv-x="1215" 
d="M996 0l-165.998 -0.00195312l33 146h-16c-70.667 -110 -185.334 -165 -344.001 -165c-97.333 0 -177 30 -239 90c-62 58.667 -93 133 -93 223c0 44.667 5 91.334 15 140.001l135 644h175l-131 -619c-9.33301 -45.333 -14 -85.666 -14 -120.999
c0 -134.667 73 -202 219 -202c85.333 0 159.666 27.667 222.999 83c62 54 102 124.333 120 211l138 648h174zM814.002 1309l-56.999 63c-20.667 19.333 -41.667 29 -63 29c-58.667 0 -96.667 -46.333 -114 -139h-142c10 86.667 39.667 154.667 89 204
c47.333 46.667 105.333 70 174 70c64.667 0 124 -30.667 178 -92c33.333 -38 52.333 -59 57 -63c20.667 -19.333 41.667 -29 63 -29c59.333 0 97.666 46.333 114.999 139h142c-10 -86.667 -39.667 -154.667 -89 -204c-47.333 -46.667 -105.333 -70 -174 -70
c-65.333 0 -125 30.667 -179 92z" />
    <glyph glyph-name="Umacron" unicode="&#x16a;" horiz-adv-x="1524" 
d="M363 96c-84.667 81.333 -128.003 187.332 -130.003 317.999c-0.666992 40 3.66602 83.333 12.999 130l188 899h184l-186 -887c-9.33301 -45.333 -13.666 -89.666 -12.999 -132.999c4 -91.333 34.333 -162 91 -212c60 -52.667 146 -79 258 -79
c108 0 200.333 31.667 277 95c78 64.667 128.667 152.667 152 264l203 952h184l-210 -987c-33.333 -157.333 -102.666 -277.333 -207.999 -360c-109.333 -86.667 -252.666 -130 -429.999 -130c-157.333 0 -281.666 43.333 -372.999 130zM708.997 1620l29 136h674l-29 -136
h-674z" />
    <glyph glyph-name="umacron" unicode="&#x16b;" horiz-adv-x="1215" 
d="M996 0l-165.998 -0.00195312l33 146h-16c-70.667 -110 -185.334 -165 -344.001 -165c-97.333 0 -177 30 -239 90c-62 58.667 -93 133 -93 223c0 44.667 5 91.334 15 140.001l135 644h175l-131 -619c-9.33301 -45.333 -14 -85.666 -14 -120.999
c0 -134.667 73 -202 219 -202c85.333 0 159.666 27.667 222.999 83c62 54 102 124.333 120 211l138 648h174zM472.002 1286l29 136h674l-29 -136h-674z" />
    <glyph glyph-name="Ubreve" unicode="&#x16c;" horiz-adv-x="1524" 
d="M363 96c-84.667 81.333 -128.003 187.332 -130.003 317.999c-0.666992 40 3.66602 83.333 12.999 130l188 899h184l-186 -887c-9.33301 -45.333 -13.666 -89.666 -12.999 -132.999c4 -91.333 34.333 -162 91 -212c60 -52.667 146 -79 258 -79
c108 0 200.333 31.667 277 95c78 64.667 128.667 152.667 152 264l203 952h184l-210 -987c-33.333 -157.333 -102.666 -277.333 -207.999 -360c-109.333 -86.667 -252.666 -130 -429.999 -130c-157.333 0 -281.666 43.333 -372.999 130zM707.997 1873l149.999 0.000976562
v-13c0 -44.667 19 -82 57 -112c37.333 -29.333 83.666 -44 138.999 -44c56 0 103.333 15 142 45s64.667 71.333 78 124h154c-17.333 -91.333 -60.666 -164 -129.999 -218c-68 -53.333 -150.667 -80 -248 -80c-101.333 0 -183.666 26.667 -246.999 80
s-95 122.666 -95 207.999v10z" />
    <glyph glyph-name="ubreve" unicode="&#x16d;" horiz-adv-x="1215" 
d="M996 0l-165.998 -0.00195312l33 146h-16c-70.667 -110 -185.334 -165 -344.001 -165c-97.333 0 -177 30 -239 90c-62 58.667 -93 133 -93 223c0 44.667 5 91.334 15 140.001l135 644h175l-131 -619c-9.33301 -45.333 -14 -85.666 -14 -120.999
c0 -134.667 73 -202 219 -202c85.333 0 159.666 27.667 222.999 83c62 54 102 124.333 120 211l138 648h174zM619.002 1556c-1.33301 -10.667 -2 -21 -2 -31c0 -51.333 18 -92.333 54 -123c35.333 -30 83.333 -45 144 -45c138.667 0 217.667 66.333 237 199h156
c-9.33301 -98.667 -50 -177.667 -122 -237c-72 -60.667 -164.667 -91 -278 -91c-107.333 0 -192 27.333 -254 82c-59.333 52.667 -89 120.667 -89 204c0 13.333 1 27.333 3 42h151z" />
    <glyph glyph-name="Uring" unicode="&#x16e;" horiz-adv-x="1524" 
d="M363 96c-84.667 81.333 -128.003 187.332 -130.003 317.999c-0.666992 40 3.66602 83.333 12.999 130l188 899h184l-186 -887c-9.33301 -45.333 -13.666 -89.666 -12.999 -132.999c4 -91.333 34.333 -162 91 -212c60 -52.667 146 -79 258 -79
c108 0 200.333 31.667 277 95c78 64.667 128.667 152.667 152 264l203 952h184l-210 -987c-33.333 -157.333 -102.666 -277.333 -207.999 -360c-109.333 -86.667 -252.666 -130 -429.999 -130c-157.333 0 -281.666 43.333 -372.999 130zM919.997 1637
c-45.333 44.667 -68 99 -68 163s22.667 118.333 68 163c45.333 44 100 66 164 66c64.667 0 119.334 -22 164.001 -66c45.333 -44.667 68 -99 68 -163s-22.667 -118.333 -68 -163c-44.667 -44 -99.334 -66 -164.001 -66c-64 0 -118.667 22 -164 66zM1172 1712
c22.667 23.333 34 52.666 34 87.999s-11.333 64.666 -34 87.999c-23.333 23.333 -52.666 35 -87.999 35c-34.667 0 -63.667 -11.667 -87 -35s-35 -52.666 -35 -87.999s11.667 -64.666 35 -87.999s52.333 -35 87 -35c35.333 0 64.666 11.667 87.999 35z" />
    <glyph glyph-name="uring" unicode="&#x16f;" horiz-adv-x="1215" 
d="M996 0l-165.998 -0.00195312l33 146h-16c-70.667 -110 -185.334 -165 -344.001 -165c-97.333 0 -177 30 -239 90c-62 58.667 -93 133 -93 223c0 44.667 5 91.334 15 140.001l135 644h175l-131 -619c-9.33301 -45.333 -14 -85.666 -14 -120.999
c0 -134.667 73 -202 219 -202c85.333 0 159.666 27.667 222.999 83c62 54 102 124.333 120 211l138 648h174zM682.002 1294c-45.333 44.667 -68 99 -68 163s22.667 118.333 68 163c45.333 44 100 66 164 66s118.667 -22 164 -66c45.333 -44.667 68 -99 68 -163
s-22.667 -118.333 -68 -163c-45.333 -44 -100 -66 -164 -66s-118.667 22 -164 66zM933.002 1369c23.333 23.333 35 52.666 35 87.999s-11.667 64.666 -35 87.999s-52.333 35 -87 35s-63.667 -11.667 -87 -35s-35 -52.666 -35 -87.999s11.667 -64.666 35 -87.999
s52.333 -35 87 -35s63.667 11.667 87 35z" />
    <glyph glyph-name="Uhungarumlaut" unicode="&#x170;" horiz-adv-x="1524" 
d="M363 96c-84.667 81.333 -128.003 187.332 -130.003 317.999c-0.666992 40 3.66602 83.333 12.999 130l188 899h184l-186 -887c-9.33301 -45.333 -13.666 -89.666 -12.999 -132.999c4 -91.333 34.333 -162 91 -212c60 -52.667 146 -79 258 -79
c108 0 200.333 31.667 277 95c78 64.667 128.667 152.667 152 264l203 952h184l-210 -987c-33.333 -157.333 -102.666 -277.333 -207.999 -360c-109.333 -86.667 -252.666 -130 -429.999 -130c-157.333 0 -281.666 43.333 -372.999 130zM1507 1873h226l-395 -298h-204z
M1093 1873h226l-395 -298h-204z" />
    <glyph glyph-name="uhungarumlaut" unicode="&#x171;" horiz-adv-x="1215" 
d="M996 0l-165.998 -0.00195312l33 146h-16c-70.667 -110 -185.334 -165 -344.001 -165c-97.333 0 -177 30 -239 90c-62 58.667 -93 133 -93 223c0 44.667 5 91.334 15 140.001l135 644h175l-131 -619c-9.33301 -45.333 -14 -85.666 -14 -120.999
c0 -134.667 73 -202 219 -202c85.333 0 159.666 27.667 222.999 83c62 54 102 124.333 120 211l138 648h174zM1238 1601h210l-352 -338h-182zM838.002 1601h210l-352 -338h-182z" />
    <glyph glyph-name="Uogonek" unicode="&#x172;" horiz-adv-x="1524" 
d="M800 -381c-39.333 33.333 -58.999 80.667 -58.999 142c0 66 31 131 93 195v16c-20 -4 -53 -6 -99 -6c-151.333 0 -273 40.667 -365 122c-92 82 -138 190.667 -138 326c0 46 4.33301 89.333 13 130l188 899h184l-186 -887c-8.66699 -38.667 -13 -83 -13 -133
c0 -93.333 31 -165.333 93 -216c60.667 -50 146 -75 256 -75c108.667 0 201.334 32.333 278.001 97c77.333 64 127.666 151.333 150.999 262l203 952h184l-210 -987c-41.333 -192 -139 -330.333 -293 -415c-46.667 -25.333 -87.334 -62.666 -122.001 -111.999
c-34.667 -48.667 -52 -93.334 -52 -134.001c0 -64.667 40.667 -97 122 -97c21.333 0 36.333 1 45 3l-26 -123c-15.333 -6.66699 -42 -10 -80 -10c-71.333 0 -127 17 -167 51z" />
    <glyph glyph-name="uogonek" unicode="&#x173;" horiz-adv-x="1215" 
d="M693 -383c-38.667 33.333 -57.999 77.666 -57.999 132.999c0 107.333 66 194.666 198 261.999l30 134h-16c-70.667 -110 -185.334 -165 -344.001 -165c-96 0 -175.333 29.667 -238 89c-62.667 58.667 -94 133.334 -94 224.001c0 43.333 5 90 15 140l135 644h175
l-131 -619c-9.33301 -48 -14 -88.333 -14 -121c0 -134.667 73 -202 219 -202c84 0 157.667 27 221 81c62.667 54 103.334 125 122.001 213l138 648h174l-225 -1059c-131.333 -71.333 -197 -147.666 -197 -228.999c0 -27.333 8.66699 -49 26 -65
c17.333 -15.333 40.666 -23 69.999 -23c36 0 62 3 78 9l-26 -127c-29.333 -10.667 -64.333 -16 -105 -16c-64 0 -115 16.333 -153 49z" />
    <glyph glyph-name="Wcircumflex" unicode="&#x174;" horiz-adv-x="1982" 
d="M600 0h-177l-87 1443h165l58 -1173h12l572 1173h162l94 -1173h12l541 1173h186l-692 -1443h-177l-97 1139h-12zM1601 1575h-185l-105 186h-16l-183 -186h-207l310 298h202z" />
    <glyph glyph-name="wcircumflex" unicode="&#x175;" horiz-adv-x="1586" 
d="M1154 0h-175l-70 827h-16l-411 -827h-174l-72 1078h157l49 -853h16l411 853h175l57 -862h16l396 862h173zM1359 1228h-187l-129 227h-16l-225 -227h-209l354 340h202z" />
    <glyph glyph-name="Ycircumflex" unicode="&#x176;" horiz-adv-x="1344" 
d="M520 0l132 621l-336 822h187l268 -649h16l526 649h207l-692 -848l-124 -595h-184zM1282 1575h-185l-105 186h-16l-183 -186h-207l310 298h202z" />
    <glyph glyph-name="ycircumflex" unicode="&#x177;" horiz-adv-x="1112" 
d="M39 -380l26 147c26 -8.66699 60 -13 102 -13c72 0 140.333 60.333 205 181l39 73l-175 1070h171l128 -857h16l472 857h189l-686 -1196c-60.667 -106 -119.667 -179 -177 -219c-51.333 -36.667 -115.333 -55 -192 -55c-24.667 0 -64 4 -118 12zM1129 1228h-187l-129 227
h-16l-225 -227h-209l354 340h202z" />
    <glyph glyph-name="Ydieresis" unicode="&#x178;" horiz-adv-x="1344" 
d="M520 0l132 621l-336 822h187l268 -649h16l526 649h207l-692 -848l-124 -595h-184zM683 1610c-23.333 24 -35 52.667 -35 86s11.667 62 35 86c24 23.333 52.667 35 86 35s62 -11.667 86 -35c23.333 -24 35 -52.667 35 -86s-11.667 -62 -35 -86
c-24 -23.333 -52.667 -35 -86 -35s-62 11.667 -86 35zM1087 1610c-23.333 24 -35 52.667 -35 86s11.667 62 35 86c24 23.333 52.667 35 86 35s62 -11.667 86 -35c23.333 -24 35 -52.667 35 -86s-11.667 -62 -35 -86c-24 -23.333 -52.667 -35 -86 -35s-62 11.667 -86 35z" />
    <glyph glyph-name="Zacute" unicode="&#x179;" horiz-adv-x="1355" 
d="M110 128l1048 1137l4 16h-779l34 162h1022l-27 -128l-1045 -1137l-3 -16h820l-34 -162h-1067zM1228 1873h226l-395 -298h-204z" />
    <glyph glyph-name="zacute" unicode="&#x17a;" horiz-adv-x="1104" 
d="M103 126l764 792l3 16h-594l32 144h826l-29 -129l-758 -789l-3 -16h593l-31 -144h-830zM987 1601h220l-350 -338h-194z" />
    <glyph glyph-name="Zdotaccent" unicode="&#x17b;" horiz-adv-x="1355" 
d="M110 128l1048 1137l4 16h-779l34 162h1022l-27 -128l-1045 -1137l-3 -16h820l-34 -162h-1067zM886 1610c-23.333 24 -35 52.667 -35 86s11.667 62 35 86c24 23.333 52.667 35 86 35s62 -11.667 86 -35c23.333 -24 35 -52.667 35 -86s-11.667 -62 -35 -86
c-24 -23.333 -52.667 -35 -86 -35s-62 11.667 -86 35z" />
    <glyph glyph-name="zdotaccent" unicode="&#x17c;" horiz-adv-x="1104" 
d="M103 126l764 792l3 16h-594l32 144h826l-29 -129l-758 -789l-3 -16h593l-31 -144h-830zM703 1325c-25.333 25.333 -38 55.333 -38 90s12.667 64.667 38 90c24.667 24.667 54.667 37 90 37s65.333 -12.333 90 -37c25.333 -25.333 38 -55.333 38 -90
s-12.667 -64.667 -38 -90c-24.667 -25.333 -54.667 -38 -90 -38c-34.667 0 -64.667 12.667 -90 38z" />
    <glyph glyph-name="Zcaron" unicode="&#x17d;" horiz-adv-x="1355" 
d="M110 128l1048 1137l4 16h-779l34 162h1022l-27 -128l-1045 -1137l-3 -16h820l-34 -162h-1067zM671 1873h185l105 -186h16l183 186h207l-310 -298h-202z" />
    <glyph glyph-name="zcaron" unicode="&#x17e;" horiz-adv-x="1104" 
d="M103 126l764 792l3 16h-594l32 144h826l-29 -129l-758 -789l-3 -16h593l-31 -144h-830zM665 1228l-210 340h185l129 -227h16l225 227h211l-354 -340h-202z" />
    <glyph glyph-name="florin" unicode="&#x192;" horiz-adv-x="1328" 
d="M31 26l36.999 158.999c65.333 -30 133 -45 203 -45c66.667 0 119.667 15 159 45c40 30.667 73 82.334 99 155.001l141 395h-336l31 144h356l81 227c86.667 244 241.334 366 464.001 366c80 0 152.333 -13 217 -39l-35 -149c-56 21.333 -120.333 32 -193 32
c-74.667 0 -134.667 -18.667 -180 -56c-42 -34 -76.333 -89 -103 -165l-77 -216h369l-31 -144h-390l-144 -408c-44 -122 -101.333 -210.333 -172 -265c-70 -54 -161.333 -81 -274 -81c-58 0 -132 15 -222 45z" />
    <glyph glyph-name="Ohorn" unicode="&#x1a0;" horiz-adv-x="1662" 
d="M366 136c-110.667 112.667 -165.999 255 -165.999 427c0 262.667 74 480.667 222 654s334.333 260 559 260c125.333 0 236 -32.667 332 -98s146 -98 150 -98c49.333 0 87 11.333 113 34c26 23.333 45 63 57 119l37 176h158l-47 -224c-16 -76 -47.333 -133.667 -94 -173
c-43.333 -37.333 -96 -56 -158 -56c-6.66699 0 -16.667 0.666992 -30 2v-16c42.667 -81.333 64 -169 64 -263c0 -264.667 -73.333 -483 -220 -655c-146.667 -172.667 -332.334 -259 -557.001 -259c-168.667 0 -308.667 56.667 -420 170zM1261 1186
c-75.333 82.667 -173.333 124 -294 124c-164.667 0 -302 -69.667 -412 -209c-110 -140 -165 -314 -165 -522c0 -133.333 37.667 -241 113 -323s174.333 -123 297 -123c165.333 0 302.333 69 411 207c108 138 162 312.667 162 524c0 132.667 -37.333 240 -112 322z" />
    <glyph glyph-name="ohorn" unicode="&#x1a1;" horiz-adv-x="1374" 
d="M411 225c51.333 -59.333 120 -89.002 206 -89.002c96.667 0 181 44.333 253 133c74 92.667 111 207 111 343c0 102.667 -24 183.334 -72 242.001c-48.667 58.667 -115 88 -199 88c-114 0 -205 -47 -273 -141c-66.667 -91.333 -100 -209 -100 -353
c0 -91.333 24.667 -165.666 74 -222.999zM1016 185.998c-107.333 -136.667 -247.668 -204.999 -421.001 -204.999c-131.333 0 -237.666 41.667 -318.999 125c-81.333 82.667 -122 189.667 -122 321c0 188.667 50.333 346 151 472c106.667 132 247 198 421 198
c94 0 178.333 -25.333 253 -76c74 -50.667 120 -76 138 -76c83.333 0 136 52 158 156l37 176h158l-47 -224c-16 -76 -47.333 -133.667 -94 -173c-43.333 -37.333 -96 -56 -158 -56c-6.66699 0 -16.667 0.666992 -30 2v-15c16 -48 24 -100.667 24 -158
c0 -184.667 -49.667 -340.334 -149 -467.001z" />
    <glyph glyph-name="Uhorn" unicode="&#x1af;" horiz-adv-x="1770" 
d="M1986 1620l-48.001 -224.001c-34.667 -163.333 -132 -245 -292 -245c-48 0 -87 10.333 -117 31l-155 -726c-33.333 -157.333 -102.666 -277.333 -207.999 -360c-109.333 -86.667 -252.666 -130 -429.999 -130c-157.333 0 -281.666 43.333 -372.999 130
c-84.667 81.333 -128 187.333 -130 318c-0.666992 40 3.66602 83.333 12.999 130l188 899h184l-186 -887c-9.33301 -45.333 -13.666 -89.666 -12.999 -132.999c4 -91.333 34.333 -162 91 -212c60 -52.667 146 -79 258 -79c108 0 200.333 31.667 277 95
c78 64.667 128.667 152.667 152 264l203 952h184l-26 -125c21.333 -18 49.666 -27 84.999 -27c42 0 74 11.333 96 34c23.333 23.333 40.666 63 51.999 119l37 176h158z" />
    <glyph glyph-name="uhorn" unicode="&#x1b0;" horiz-adv-x="1461" 
d="M1610 1272l-47.998 -224.002c-35.333 -163.333 -132.666 -245 -291.999 -245c-38 0 -71 7 -99 21l-175 -824h-166l33 146h-16c-70.667 -110 -185.334 -165 -344.001 -165c-97.333 0 -177 30 -239 90c-62 58.667 -93 133 -93 223c0 44.667 5 91.334 15 140.001l135 644
h175l-131 -619c-9.33301 -45.333 -14 -85.666 -14 -120.999c0 -134.667 73 -202 219 -202c85.333 0 159.666 27.667 222.999 83c62 54 102 124.333 120 211l138 648h174l-25 -120c19.333 -10 41.666 -15 66.999 -15c41.333 0 73.333 11.333 96 34
c22.667 23.333 40 63 52 119l37 176h158z" />
    <glyph glyph-name="uni01C4" unicode="&#x1c4;" horiz-adv-x="2842" 
d="M832 1443c199.333 0 354.333 -56.002 465 -168.002c109.333 -111.333 164 -265.666 164 -462.999c0 -231.333 -71.667 -424.666 -215 -579.999c-143.333 -154.667 -320.333 -232 -531 -232h-591l305 1443h403zM340 159.998h381.999c158.667 0 290.334 61 395.001 183
c105.333 122 158 275.333 158 460c0 151.333 -40 269 -120 353c-80.667 84.667 -193 127 -337 127h-239zM1597 127.998l1048 1137l4 16h-779l34 162h1022l-27 -128l-1045 -1137l-3 -16h820l-34 -162h-1067zM2158 1873h185l105 -186h16l183 186h207l-310 -298h-202z" />
    <glyph glyph-name="uni01C5" unicode="&#x1c5;" horiz-adv-x="2591" 
d="M832 1443c199.333 0 354.333 -56.002 465 -168.002c109.333 -111.333 164 -265.666 164 -462.999c0 -231.333 -71.667 -424.666 -215 -579.999c-143.333 -154.667 -320.333 -232 -531 -232h-591l305 1443h403zM340 159.998h381.999c158.667 0 290.334 61 395.001 183
c105.333 122 158 275.333 158 460c0 151.333 -40 269 -120 353c-80.667 84.667 -193 127 -337 127h-239zM1590 125.998l764 792l3 16h-594l32 144h826l-29 -129l-758 -789l-3 -16h593l-31 -144h-830zM2152 1228l-210 340h185l129 -227h16l225 227h211l-354 -340h-202z" />
    <glyph glyph-name="uni01C6" unicode="&#x1c6;" horiz-adv-x="2362" 
d="M267 99c-76.667 82 -115.001 188.333 -115.001 319c0 194 53.667 356 161 486c106.667 128.667 238.334 193 395.001 193c77.333 0 146 -20.333 206 -61c58.667 -40 97.667 -92.333 117 -157h16l133 627h175l-320 -1506h-166l31 147h-16
c-84.667 -110.667 -198 -166 -340 -166c-110.667 0 -203 39.333 -277 118zM878.999 283c75.333 98 113.002 218.333 113.002 361c0 91.333 -24.333 164 -73 218c-48.667 53.333 -114.667 80 -198 80c-110.667 0 -203 -46.667 -277 -140c-74.667 -94.667 -112 -214 -112 -358
c0 -91.333 24.667 -165.333 74 -222c49.333 -57.333 113.666 -86 192.999 -86c111.333 0 204.666 49 279.999 147zM1361 126l764 792l3 16h-594l32 144h826l-29 -129l-758 -789l-3 -16h593l-31 -144h-830zM1923 1228l-210 340h185l129 -227h16l225 227h211l-354 -340h-202z
" />
    <glyph glyph-name="uni01C7" unicode="&#x1c7;" horiz-adv-x="2265" 
d="M1000 0h-878l307 1443h184l-273 -1281h694zM1439 337c1.33301 -62.667 22 -111.999 62 -147.999s93.667 -54 161 -54c138.667 0 227 89.667 265 269l221 1039h179l-228 -1080c-26.667 -127.333 -78.667 -225 -156 -293c-79.333 -69.333 -180.333 -104 -303 -104
c-116 0 -210.333 35.333 -283 106c-73.333 71.333 -106.333 159.666 -99 264.999h181z" />
    <glyph glyph-name="uni01C8" unicode="&#x1c8;" horiz-adv-x="1679" 
d="M1000 0h-878l307 1443h184l-273 -1281h694zM1424 -107c-21.333 -100.667 -60.001 -174.333 -116.001 -221c-55.333 -46 -131.666 -69.333 -228.999 -70c-29.333 0 -56.333 1.33301 -81 4l33 152c21.333 -2 39 -3 53 -3c50.667 0 89 12 115 36s45.333 65.667 58 125
l247 1162h172zM1576 1332c-23.333 24 -35 52.333 -35 85c0 33.333 11.667 61.666 35 84.999c24 23.333 52.333 35 85 35c33.333 0 61.666 -11.667 84.999 -35s35 -51.666 35 -84.999c0 -32.667 -11.667 -61 -35 -85c-23.333 -23.333 -51.666 -35 -84.999 -35
c-32.667 0 -61 11.667 -85 35z" />
    <glyph glyph-name="uni01C9" unicode="&#x1c9;" horiz-adv-x="1032" 
d="M429 1506h176l-320 -1506h-176zM777 -107c-21.333 -100.667 -60.001 -174.333 -116.001 -221c-55.333 -46 -131.666 -69.333 -228.999 -70c-29.333 0 -56.333 1.33301 -81 4l33 152c21.333 -2 39 -3 53 -3c50.667 0 89 12 115 36s45.333 65.667 58 125l247 1162h172z
M928.999 1332c-23.333 24 -35 52.333 -35 85c0 33.333 11.667 61.666 35 84.999c24 23.333 52.333 35 85 35c33.333 0 61.666 -11.667 84.999 -35s35 -51.666 35 -84.999c0 -32.667 -11.667 -61 -35 -85c-23.333 -23.333 -51.666 -35 -84.999 -35
c-32.667 0 -61 11.667 -85 35z" />
    <glyph glyph-name="uni01CA" unicode="&#x1ca;" horiz-adv-x="2622" 
d="M122 0l307 1443h177l534 -1153h16l245 1153h182l-307 -1443h-179l-533 1150h-16l-244 -1150h-182zM1796 337c1.33301 -62.667 22 -111.999 62 -147.999s93.667 -54 161 -54c138.667 0 227 89.667 265 269l221 1039h179l-228 -1080
c-26.667 -127.333 -78.667 -225 -156 -293c-79.333 -69.333 -180.333 -104 -303 -104c-116 0 -210.333 35.333 -283 106c-73.333 71.333 -106.333 159.666 -99 264.999h181z" />
    <glyph glyph-name="uni01CB" unicode="&#x1cb;" horiz-adv-x="2036" 
d="M122 0l307 1443h177l534 -1153h16l245 1153h182l-307 -1443h-179l-533 1150h-16l-244 -1150h-182zM1781 -107c-21.333 -100.667 -60.001 -174.333 -116.001 -221c-55.333 -46 -131.666 -69.333 -228.999 -70c-29.333 0 -56.333 1.33301 -81 4l33 152
c21.333 -2 39 -3 53 -3c50.667 0 89 12 115 36s45.333 65.667 58 125l247 1162h172zM1933 1332c-23.333 24 -35.001 52.333 -35.001 85c0 33.333 11.667 61.666 35 84.999c24 23.333 52.333 35 85 35c33.333 0 61.666 -11.667 85 -35c23.333 -23.333 35 -51.666 35 -84.999
c0 -32.667 -11.667 -61 -35 -85c-23.333 -23.333 -51.666 -35 -84.999 -35c-32.667 0 -61 11.667 -85 35z" />
    <glyph glyph-name="uni01CC" unicode="&#x1cc;" horiz-adv-x="1737" 
d="M328 1078l167 -0.000976562l-34 -161h16c84 120 196.333 180 337 180c100.667 0 183.667 -32.667 249 -98c62 -62 93 -137.333 93 -226c0 -37.333 -4.66699 -78.666 -14 -123.999l-138 -649h-175l132 619c8.66699 42 13 77 13 105c0 65.333 -20.667 118 -62 158
c-42.667 40 -99.667 60 -171 60c-81.333 0 -152.333 -27 -213 -81c-58 -52 -96 -119.667 -114 -203l-140 -658h-175zM1482 -107.001c-21.333 -100.667 -60.001 -174.333 -116.001 -221c-55.333 -46 -131.666 -69.333 -228.999 -70c-29.333 0 -56.333 1.33301 -81 4l33 152
c21.333 -2 39 -3 53 -3c50.667 0 89 12 115 36s45.333 65.667 58 125l247 1162h172zM1634 1332c-23.333 24 -35 52.333 -35 85c0 33.333 11.667 61.666 35 84.999c24 23.333 52.333 35 85 35c33.333 0 61.666 -11.667 84.999 -35s35 -51.666 35 -84.999
c0 -32.667 -11.667 -61 -35 -85c-23.333 -23.333 -51.666 -35 -84.999 -35c-32.667 0 -61 11.667 -85 35z" />
    <glyph glyph-name="uni01CD" unicode="&#x1cd;" horiz-adv-x="1380" 
d="M1015 413h-579l-232 -413h-193l845 1443h167l226 -1443h-176zM522 566h473l-95 641h-16zM693 1873h185l105 -186h16l183 186h207l-310 -298h-202z" />
    <glyph glyph-name="uni01CE" unicode="&#x1ce;" horiz-adv-x="1126" 
d="M703 202c62 47.333 100.999 107.667 116.999 181l27 124l-287 -14c-88 -4.66699 -156.333 -24 -205 -58c-48.667 -34.667 -73 -80.334 -73 -137.001c0 -49.333 19.333 -89.666 58 -120.999s88.334 -47 149.001 -47c80.667 0 152 24 214 72zM199.999 67.001
c-63.333 57.333 -94.998 127.999 -94.998 211.999c0 106 40 189.667 120 251c80.667 61.333 195.667 95.333 345 102l306 14l16 73c4 22 6 39 6 51c0 54.667 -20.333 97 -61 127c-40.667 30.667 -97.334 46 -170.001 46c-124 0 -203.667 -45 -239 -135h-182
c24 88.667 75 159 153 211c78.667 52 172.667 78 282 78c118.667 0 213.667 -27.333 285 -82c71.333 -55.333 107 -128.666 107 -219.999c0 -28.667 -3 -58 -9 -88l-150 -707h-167l30 141h-16c-80.667 -106.667 -189.334 -160 -326.001 -160c-94 0 -172.333 28.667 -235 86z
M642.001 1228l-210 340h185l129 -227h16l225 227h211l-354 -340h-202z" />
    <glyph glyph-name="uni01CF" unicode="&#x1cf;" horiz-adv-x="550" 
d="M122 0l307 1443h184l-307 -1443h-184zM275 1873h185l105 -186h16l183 186h207l-310 -298h-202z" />
    <glyph glyph-name="uni01D0" unicode="&#x1d0;" horiz-adv-x="516" 
d="M340 1078h172l-229 -1078h-172zM370 1228l-210 340h185l129 -227h16l225 227h211l-354 -340h-202z" />
    <glyph glyph-name="uni01D1" unicode="&#x1d1;" horiz-adv-x="1579" 
d="M366 136c-110.667 112.667 -165.999 255.001 -165.999 427.001c0 262.667 74 480.667 222 654s334.333 260 559 260c168.667 0 307.667 -56.333 417 -169c110 -112.667 165 -255.334 165 -428.001c0 -264.667 -73.333 -483 -220 -655
c-146.667 -172.667 -332.334 -259 -557.001 -259c-168.667 0 -308.667 56.667 -420 170zM1261 1186c-75.333 82.667 -173.333 124 -294 124c-164.667 0 -302 -69.667 -412 -209c-110 -140 -165 -314 -165 -522c0 -133.333 37.667 -241 113 -323s174.333 -123 297 -123
c165.333 0 302.333 69 411 207c108 138 162 312.667 162 524c0 132.667 -37.333 240 -112 322zM730.001 1871h185l105 -186h16l183 186h207l-310 -298h-202z" />
    <glyph glyph-name="uni01D2" unicode="&#x1d2;" horiz-adv-x="1210" 
d="M411 225c51.333 -59.333 120 -89.002 206 -89.002c96.667 0 181 44.333 253 133c74 92.667 111 207 111 343c0 102.667 -24 183.334 -72 242.001c-48.667 58.667 -115 88 -199 88c-114 0 -205 -47 -273 -141c-66.667 -91.333 -100 -209 -100 -353
c0 -91.333 24.667 -165.666 74 -222.999zM276 105.998c-81.333 82.667 -122.001 189.668 -122.001 321.001c0 188.667 50.333 346 151 472c106.667 132 247 198 421 198c131.333 0 237.666 -41.667 318.999 -125c80 -82 120 -188.333 120 -319
c0 -184.667 -49.667 -340.334 -149 -467.001c-107.333 -136.667 -247.666 -205 -420.999 -205c-131.333 0 -237.666 41.667 -318.999 125zM667.999 1228l-210 340h185l129 -227h16l225 227h211l-354 -340h-202z" />
    <glyph glyph-name="uni01D3" unicode="&#x1d3;" horiz-adv-x="1524" 
d="M363 96c-84.667 81.333 -128.003 187.332 -130.003 317.999c-0.666992 40 3.66602 83.333 12.999 130l188 899h184l-186 -887c-9.33301 -45.333 -13.666 -89.666 -12.999 -132.999c4 -91.333 34.333 -162 91 -212c60 -52.667 146 -79 258 -79
c108 0 200.333 31.667 277 95c78 64.667 128.667 152.667 152 264l203 952h184l-210 -987c-33.333 -157.333 -102.666 -277.333 -207.999 -360c-109.333 -86.667 -252.666 -130 -429.999 -130c-157.333 0 -281.666 43.333 -372.999 130zM761.997 1873h185l105 -186h16
l183 186h207l-310 -298h-202z" />
    <glyph glyph-name="uni01D4" unicode="&#x1d4;" horiz-adv-x="1215" 
d="M996 0l-165.998 -0.00195312l33 146h-16c-70.667 -110 -185.334 -165 -344.001 -165c-97.333 0 -177 30 -239 90c-62 58.667 -93 133 -93 223c0 44.667 5 91.334 15 140.001l135 644h175l-131 -619c-9.33301 -45.333 -14 -85.666 -14 -120.999
c0 -134.667 73 -202 219 -202c85.333 0 159.666 27.667 222.999 83c62 54 102 124.333 120 211l138 648h174zM709.002 1228l-210 340h185l129 -227h16l225 227h211l-354 -340h-202z" />
    <glyph glyph-name="uni01D5" unicode="&#x1d5;" horiz-adv-x="1524" 
d="M363 96c-84.667 81.333 -128.003 187.332 -130.003 317.999c-0.666992 40 3.66602 83.333 12.999 130l188 899h184l-186 -887c-9.33301 -45.333 -13.666 -89.666 -12.999 -132.999c4 -91.333 34.333 -162 91 -212c60 -52.667 146 -79 258 -79
c108 0 200.333 31.667 277 95c78 64.667 128.667 152.667 152 264l203 952h184l-210 -987c-33.333 -157.333 -102.666 -277.333 -207.999 -360c-109.333 -86.667 -252.666 -130 -429.999 -130c-157.333 0 -281.666 43.333 -372.999 130zM802.997 2062h674l-28 -130h-674z
M780.997 1609c-23.333 22.667 -35 50.334 -35 83.001s11.667 60.334 35 83.001c22.667 22.667 50 34 82 34c32.667 0 60.334 -11.333 83.001 -34s34 -50.334 34 -83.001s-11.333 -60.334 -34 -83.001s-50.334 -34 -83.001 -34c-32 0 -59.333 11.333 -82 34zM1185 1609
c-23.333 22.667 -35 50.334 -35 83.001s11.667 60.334 35 83.001c22.667 22.667 50 34 82 34c32.667 0 60.334 -11.333 83.001 -34s34 -50.334 34 -83.001s-11.333 -60.334 -34 -83.001s-50.334 -34 -83.001 -34c-32 0 -59.333 11.333 -82 34z" />
    <glyph glyph-name="uni01D6" unicode="&#x1d6;" horiz-adv-x="1215" 
d="M996 0l-165.998 -0.00195312l33 146h-16c-70.667 -110 -185.334 -165 -344.001 -165c-97.333 0 -177 30 -239 90c-62 58.667 -93 133 -93 223c0 44.667 5 91.334 15 140.001l135 644h175l-131 -619c-9.33301 -45.333 -14 -85.666 -14 -120.999
c0 -134.667 73 -202 219 -202c85.333 0 159.666 27.667 222.999 83c62 54 102 124.333 120 211l138 648h174zM536.002 1262c-22.667 22.667 -34 50.334 -34 83.001s11.333 60.334 34 83.001s50.334 34 83.001 34s60.334 -11.333 83.001 -34s34 -50.334 34 -83.001
s-11.333 -60.334 -34 -83.001s-50.334 -34 -83.001 -34s-60.334 11.333 -83.001 34zM940.002 1262c-22.667 22.667 -34 50.334 -34 83.001s11.333 60.334 34 83.001s50.334 34 83.001 34s60.334 -11.333 83.001 -34s34 -50.334 34 -83.001s-11.333 -60.334 -34 -83.001
s-50.334 -34 -83.001 -34s-60.334 11.333 -83.001 34zM543.002 1620l29 136h674l-29 -136h-674z" />
    <glyph glyph-name="uni01D7" unicode="&#x1d7;" horiz-adv-x="1524" 
d="M363 96c-84.667 81.333 -128.003 187.332 -130.003 317.999c-0.666992 40 3.66602 83.333 12.999 130l188 899h184l-186 -887c-9.33301 -45.333 -13.666 -89.666 -12.999 -132.999c4 -91.333 34.333 -162 91 -212c60 -52.667 146 -79 258 -79
c108 0 200.333 31.667 277 95c78 64.667 128.667 152.667 152 264l203 952h184l-210 -987c-33.333 -157.333 -102.666 -277.333 -207.999 -360c-109.333 -86.667 -252.666 -130 -429.999 -130c-157.333 0 -281.666 43.333 -372.999 130zM1251 2095h227l-328 -222h-176z
M774.997 1610c-24 24 -36 52.667 -36 86s12 62 36 86c23.333 23.333 51.666 35 84.999 35c34 0 62.667 -11.667 86 -35c23.333 -24 35 -52.667 35 -86s-11.667 -62 -35 -86c-23.333 -23.333 -52 -35 -86 -35c-33.333 0 -61.666 11.667 -84.999 35zM1179 1610
c-24 24 -36 52.667 -36 86s12 62 36 86c23.333 23.333 51.666 35 84.999 35c34 0 62.667 -11.667 86 -35c23.333 -24 35 -52.667 35 -86s-11.667 -62 -35 -86c-23.333 -23.333 -52 -35 -86 -35c-33.333 0 -61.666 11.667 -84.999 35z" />
    <glyph glyph-name="uni01D8" unicode="&#x1d8;" horiz-adv-x="1215" 
d="M996 0l-165.998 -0.00195312l33 146h-16c-70.667 -110 -185.334 -165 -344.001 -165c-97.333 0 -177 30 -239 90c-62 58.667 -93 133 -93 223c0 44.667 5 91.334 15 140.001l135 644h175l-131 -619c-9.33301 -45.333 -14 -85.666 -14 -120.999
c0 -134.667 73 -202 219 -202c85.333 0 159.666 27.667 222.999 83c62 54 102 124.333 120 211l138 648h174zM999.002 1873h198l-281 -298h-170zM534.002 1263c-23.333 24 -35 52.667 -35 86s11.667 62 35 86c24 23.333 52.667 35 86 35s62 -11.667 86 -35
c23.333 -24 35 -52.667 35 -86s-11.667 -62 -35 -86c-24 -23.333 -52.667 -35 -86 -35s-62 11.667 -86 35zM938.002 1263c-23.333 24 -35 52.667 -35 86s11.667 62 35 86c24 23.333 52.667 35 86 35s62 -11.667 86 -35c23.333 -24 35 -52.667 35 -86s-11.667 -62 -35 -86
c-24 -23.333 -52.667 -35 -86 -35s-62 11.667 -86 35z" />
    <glyph glyph-name="uni01D9" unicode="&#x1d9;" horiz-adv-x="1524" 
d="M363 96c-84.667 81.333 -128.003 187.332 -130.003 317.999c-0.666992 40 3.66602 83.333 12.999 130l188 899h184l-186 -887c-9.33301 -45.333 -13.666 -89.666 -12.999 -132.999c4 -91.333 34.333 -162 91 -212c60 -52.667 146 -79 258 -79
c108 0 200.333 31.667 277 95c78 64.667 128.667 152.667 152 264l203 952h184l-210 -987c-33.333 -157.333 -102.666 -277.333 -207.999 -360c-109.333 -86.667 -252.666 -130 -429.999 -130c-157.333 0 -281.666 43.333 -372.999 130zM777.997 1609
c-23.333 22.667 -35 50.334 -35 83.001s11.667 60.334 35 83.001c22.667 22.667 50 34 82 34c32.667 0 60.334 -11.333 83.001 -34s34 -50.334 34 -83.001s-11.333 -60.334 -34 -83.001s-50.334 -34 -83.001 -34c-32 0 -59.333 11.333 -82 34zM1182 1609
c-23.333 22.667 -35 50.334 -35 83.001s11.667 60.334 35 83.001c22.667 22.667 50 34 82 34c32.667 0 60.334 -11.333 83.001 -34s34 -50.334 34 -83.001s-11.333 -60.334 -34 -83.001s-50.334 -34 -83.001 -34c-32 0 -59.333 11.333 -82 34zM762.997 2095h212l135 -136h16
l192 136h233l-342 -233h-202z" />
    <glyph glyph-name="uni01DA" unicode="&#x1da;" horiz-adv-x="1215" 
d="M996 0l-165.998 -0.00195312l33 146h-16c-70.667 -110 -185.334 -165 -344.001 -165c-97.333 0 -177 30 -239 90c-62 58.667 -93 133 -93 223c0 44.667 5 91.334 15 140.001l135 644h175l-131 -619c-9.33301 -45.333 -14 -85.666 -14 -120.999
c0 -134.667 73 -202 219 -202c85.333 0 159.666 27.667 222.999 83c62 54 102 124.333 120 211l138 648h174zM536.002 1262c-22.667 22.667 -34 50.334 -34 83.001s11.333 60.334 34 83.001s50.334 34 83.001 34s60.334 -11.333 83.001 -34s34 -50.334 34 -83.001
s-11.333 -60.334 -34 -83.001s-50.334 -34 -83.001 -34s-60.334 11.333 -83.001 34zM940.002 1262c-22.667 22.667 -34 50.334 -34 83.001s11.333 60.334 34 83.001s50.334 34 83.001 34s60.334 -11.333 83.001 -34s34 -50.334 34 -83.001s-11.333 -60.334 -34 -83.001
s-50.334 -34 -83.001 -34s-60.334 11.333 -83.001 34zM530.002 1895h184l118 -207h16l205 207h211l-334 -320h-202z" />
    <glyph glyph-name="uni01DB" unicode="&#x1db;" horiz-adv-x="1524" 
d="M363 96c-84.667 81.333 -128.003 187.332 -130.003 317.999c-0.666992 40 3.66602 83.333 12.999 130l188 899h184l-186 -887c-9.33301 -45.333 -13.666 -89.666 -12.999 -132.999c4 -91.333 34.333 -162 91 -212c60 -52.667 146 -79 258 -79
c108 0 200.333 31.667 277 95c78 64.667 128.667 152.667 152 264l203 952h184l-210 -987c-33.333 -157.333 -102.666 -277.333 -207.999 -360c-109.333 -86.667 -252.666 -130 -429.999 -130c-157.333 0 -281.666 43.333 -372.999 130zM981.997 1873l-234 222h227l183 -222
h-176zM774.997 1610c-24 24 -36 52.667 -36 86s12 62 36 86c23.333 23.333 51.666 35 84.999 35c34 0 62.667 -11.667 86 -35c23.333 -24 35 -52.667 35 -86s-11.667 -62 -35 -86c-23.333 -23.333 -52 -35 -86 -35c-33.333 0 -61.666 11.667 -84.999 35zM1179 1610
c-24 24 -36 52.667 -36 86s12 62 36 86c23.333 23.333 51.666 35 84.999 35c34 0 62.667 -11.667 86 -35c23.333 -24 35 -52.667 35 -86s-11.667 -62 -35 -86c-23.333 -23.333 -52 -35 -86 -35c-33.333 0 -61.666 11.667 -84.999 35z" />
    <glyph glyph-name="uni01DC" unicode="&#x1dc;" horiz-adv-x="1215" 
d="M996 0l-165.998 -0.00195312l33 146h-16c-70.667 -110 -185.334 -165 -344.001 -165c-97.333 0 -177 30 -239 90c-62 58.667 -93 133 -93 223c0 44.667 5 91.334 15 140.001l135 644h175l-131 -619c-9.33301 -45.333 -14 -85.666 -14 -120.999
c0 -134.667 73 -202 219 -202c85.333 0 159.666 27.667 222.999 83c62 54 102 124.333 120 211l138 648h174zM746.002 1575l-155 298h198l127 -298h-170zM534.002 1263c-23.333 24 -35 52.667 -35 86s11.667 62 35 86c24 23.333 52.667 35 86 35s62 -11.667 86 -35
c23.333 -24 35 -52.667 35 -86s-11.667 -62 -35 -86c-24 -23.333 -52.667 -35 -86 -35s-62 11.667 -86 35zM938.002 1263c-23.333 24 -35 52.667 -35 86s11.667 62 35 86c24 23.333 52.667 35 86 35s62 -11.667 86 -35c23.333 -24 35 -52.667 35 -86s-11.667 -62 -35 -86
c-24 -23.333 -52.667 -35 -86 -35s-62 11.667 -86 35z" />
    <glyph glyph-name="uni01DE" unicode="&#x1de;" horiz-adv-x="1380" 
d="M1015 413h-579l-232 -413h-193l845 1443h167l226 -1443h-176zM522 566h473l-95 641h-16zM734 2062h674l-28 -130h-674zM711 1609c-22.667 22.667 -34 50.334 -34 83.001s11.333 60.334 34 83.001s50.334 34 83.001 34s60.334 -11.333 83.001 -34s34 -50.334 34 -83.001
s-11.333 -60.334 -34 -83.001s-50.334 -34 -83.001 -34s-60.334 11.333 -83.001 34zM1115 1609c-22.667 22.667 -34 50.334 -34 83.001s11.333 60.334 34 83.001s50.334 34 83.001 34s60.334 -11.333 83.001 -34s34 -50.334 34 -83.001s-11.333 -60.334 -34 -83.001
s-50.334 -34 -83.001 -34s-60.334 11.333 -83.001 34z" />
    <glyph glyph-name="uni01DF" unicode="&#x1df;" horiz-adv-x="1126" 
d="M703 202c62 47.333 100.999 107.667 116.999 181l27 124l-287 -14c-88 -4.66699 -156.333 -24 -205 -58c-48.667 -34.667 -73 -80.334 -73 -137.001c0 -49.333 19.333 -89.666 58 -120.999s88.334 -47 149.001 -47c80.667 0 152 24 214 72zM199.999 67.001
c-63.333 57.333 -94.998 127.999 -94.998 211.999c0 106 40 189.667 120 251c80.667 61.333 195.667 95.333 345 102l306 14l16 73c4 22 6 39 6 51c0 54.667 -20.333 97 -61 127c-40.667 30.667 -97.334 46 -170.001 46c-124 0 -203.667 -45 -239 -135h-182
c24 88.667 75 159 153 211c78.667 52 172.667 78 282 78c118.667 0 213.667 -27.333 285 -82c71.333 -55.333 107 -128.666 107 -219.999c0 -28.667 -3 -58 -9 -88l-150 -707h-167l30 141h-16c-80.667 -106.667 -189.334 -160 -326.001 -160c-94 0 -172.333 28.667 -235 86z
M469.001 1262c-22.667 22.667 -34 50.334 -34 83.001s11.333 60.334 34 83.001s50.334 34 83.001 34s60.334 -11.333 83.001 -34s34 -50.334 34 -83.001s-11.333 -60.334 -34 -83.001s-50.334 -34 -83.001 -34s-60.334 11.333 -83.001 34zM873.001 1262
c-22.667 22.667 -34 50.334 -34 83.001s11.333 60.334 34 83.001s50.334 34 83.001 34s60.334 -11.333 83.001 -34s34 -50.334 34 -83.001s-11.333 -60.334 -34 -83.001s-50.334 -34 -83.001 -34s-60.334 11.333 -83.001 34zM476.001 1620l29 136h674l-29 -136h-674z" />
    <glyph glyph-name="uni01E0" unicode="&#x1e0;" horiz-adv-x="1380" 
d="M1015 413h-579l-232 -413h-193l845 1443h167l226 -1443h-176zM522 566h473l-95 641h-16zM706 1932l28 130h674l-28 -130h-674zM909 1612c-23.333 23.333 -35 51.333 -35 84c0 33.333 11.667 61.333 35 84c23.333 23.333 51.333 35 84 35c33.333 0 61.333 -11.667 84 -35
c23.333 -22.667 35 -50.667 35 -84c0 -32.667 -11.667 -60.667 -35 -84c-22.667 -23.333 -50.667 -35 -84 -35c-32.667 0 -60.667 11.667 -84 35z" />
    <glyph glyph-name="uni01E1" unicode="&#x1e1;" horiz-adv-x="1126" 
d="M703 202c62 47.333 100.999 107.667 116.999 181l27 124l-287 -14c-88 -4.66699 -156.333 -24 -205 -58c-48.667 -34.667 -73 -80.334 -73 -137.001c0 -49.333 19.333 -89.666 58 -120.999s88.334 -47 149.001 -47c80.667 0 152 24 214 72zM199.999 67.001
c-63.333 57.333 -94.998 127.999 -94.998 211.999c0 106 40 189.667 120 251c80.667 61.333 195.667 95.333 345 102l306 14l16 73c4 22 6 39 6 51c0 54.667 -20.333 97 -61 127c-40.667 30.667 -97.334 46 -170.001 46c-124 0 -203.667 -45 -239 -135h-182
c24 88.667 75 159 153 211c78.667 52 172.667 78 282 78c118.667 0 213.667 -27.333 285 -82c71.333 -55.333 107 -128.666 107 -219.999c0 -28.667 -3 -58 -9 -88l-150 -707h-167l30 141h-16c-80.667 -106.667 -189.334 -160 -326.001 -160c-94 0 -172.333 28.667 -235 86z
M666.001 1262c-22.667 23.333 -34 51.666 -34 84.999s11.333 61.666 34 84.999c23.333 22.667 51.666 34 84.999 34s61.666 -11.333 84.999 -34c22.667 -23.333 34 -51.666 34 -84.999s-11.333 -61.666 -34 -84.999c-23.333 -22.667 -51.666 -34 -84.999 -34
s-61.666 11.333 -84.999 34zM476.001 1620l29 136h674l-29 -136h-674z" />
    <glyph glyph-name="uni01E2" unicode="&#x1e2;" horiz-adv-x="1966" 
d="M1060 1292l-455 -680h457l145 680h-147zM1030 459h-527l-307 -459h-187l958 1443h1110l-35 -162h-658l-100 -473h621l-34 -160h-621l-104 -486h658l-34 -162h-838zM1079 1620l29 136h674l-29 -136h-674z" />
    <glyph glyph-name="uni01E3" unicode="&#x1e3;" horiz-adv-x="1874" 
d="M1039 46c-72.667 44 -123.33 102.333 -151.997 175h-15c-39.333 -68 -95.666 -124 -168.999 -168c-78.667 -48 -161.334 -72 -248.001 -72c-102.667 0 -187 28.667 -253 86c-64.667 56 -97 126.667 -97 212c0 106.667 40 190.667 120 252
c80.667 60.667 195.667 94.334 345 101.001l306 14l16 73c4 22 6 39 6 51c0 54.667 -20.333 97 -61 127c-40.667 30.667 -97.334 46 -170.001 46c-124 0 -203.667 -45 -239 -135h-182c24 88.667 75 159 153 211c78.667 52 172.667 78 282 78
c169.333 0 284.666 -56 345.999 -168h16c94 112 215.333 168 364 168c116 0 212 -37.667 288 -113c80.667 -80 121.334 -187.667 122.001 -323c0 -57.333 -4.33301 -111.333 -13 -162h-777c-1.33301 -24 -2 -42.667 -2 -56c0 -102.667 28.667 -181.334 86 -236.001
c48.667 -46 110 -69 184 -69c131.333 0 221.666 45.667 270.999 137h183c-22.667 -86 -75 -155.667 -157 -209c-86.667 -56.667 -193.334 -85 -320.001 -85c-84 0 -161.667 21.667 -233 65zM1635 638c1.33301 8 1.99805 23 1.99805 45c0 74.667 -20.667 136 -62 184
c-44.667 52 -106 78 -184 78c-81.333 0 -152.666 -28 -213.999 -84c-59.333 -54.667 -101.666 -129 -126.999 -223h585zM703.002 202c62 47.333 100.999 107.667 116.999 181l27 124l-287 -14c-88 -4.66699 -156.333 -24 -205 -58c-48.667 -34.667 -73 -80.334 -73 -137.001
c0 -49.333 19.333 -89.666 58 -120.999s88.334 -47 149.001 -47c80.667 0 152 24 214 72zM774.001 1286l29 136h674l-29 -136h-674z" />
    <glyph glyph-name="Gcaron" unicode="&#x1e6;" horiz-adv-x="1528" 
d="M1448 540c-40 -186.667 -117.667 -328.999 -233 -426.999c-114.667 -98 -261.334 -147 -440.001 -147c-171.333 0 -310 54.667 -416 164c-105.333 109.333 -158 253.333 -158 432c0 264.667 72 483.334 216 656.001s325.667 259 545 259c150 0 275.667 -42 377 -126
c102 -84 157.667 -191.667 167 -323c0.666992 -5.33301 1 -17.333 1 -36h-183c-7.33301 97.333 -44.666 174.666 -111.999 231.999c-68 57.333 -156 86 -264 86c-158.667 0 -291.667 -70 -399 -210c-107.333 -139.333 -161 -312.333 -161 -519c0 -138.667 37 -248 111 -328
s174.667 -120 302 -120c114.667 0 214 35.667 298 107c84.667 71.333 138.667 165.666 162 282.999l11 55h-400l34 158h584zM706 1873h185l105 -186h16l183 186h207l-310 -298h-202z" />
    <glyph glyph-name="gcaron" unicode="&#x1e7;" horiz-adv-x="1247" 
d="M195 -321c-80 58.667 -123.334 130.332 -130.001 214.999h183c8 -45.333 34.667 -82.333 80 -111c49.333 -31.333 112 -47 188 -47c181.333 0 291 80.667 329 242l47 200h-16c-77.333 -108 -186 -162 -326 -162c-111.333 0 -204 39.667 -278 119
c-76 81.333 -114 185.333 -114 312c0 190.667 51.333 347 154 469c100.667 120.667 228 181 382 181c76 0 145.667 -20.333 209 -61c64 -41.333 106.667 -93.666 128 -156.999h16l42 199h167l-244 -1130c-24 -111.333 -80 -199 -168 -263c-90 -65.333 -204 -98 -342 -98
c-121.333 0 -223.666 30.667 -306.999 92zM874.999 298.998c72.667 89.333 109 204.333 109 345c0 91.333 -25 164 -75 218c-50 53.333 -117.333 80 -202 80c-108 0 -196.333 -42.333 -265 -127c-69.333 -86.667 -104 -200.667 -104 -342c0 -95.333 23.667 -170 71 -224
s112 -81 194 -81c110 0 200.667 43.667 272 131zM692.999 1228l-210 340h185l129 -227h16l225 227h211l-354 -340h-202z" />
    <glyph glyph-name="uni01E8" unicode="&#x1e8;" horiz-adv-x="1349" 
d="M122 0l307 1443h179l-149 -701h16l772 701h235l-702 -635l449 -808h-210l-381 697l-229 -204l-107 -493h-180zM641 1873h185l105 -186h16l183 186h207l-310 -298h-202z" />
    <glyph glyph-name="uni01E9" unicode="&#x1e9;" horiz-adv-x="1112" 
d="M980 1078h227l-565 -465l363 -613h-201l-301 516l-130 -94l-90 -422h-174l320 1506h174l-185 -870h16zM215 1936h185l105 -186h16l183 186h207l-310 -298h-202z" />
    <glyph glyph-name="uni01EA" unicode="&#x1ea;" horiz-adv-x="1579" 
d="M829 -381c-39.333 33.333 -59 80.668 -59 142.001c0 70 30.333 134.333 91 193v16c-14 -2.66699 -39 -4 -75 -4c-168.667 0 -308.667 56.667 -420 170c-110.667 112.667 -166 255 -166 427c0 262.667 74 480.667 222 654s334.333 260 559 260
c168.667 0 307.667 -56.333 417 -169c110 -112.667 165 -255.334 165 -428.001c0 -349.333 -140.667 -626.333 -422 -831c-137.333 -100 -206 -184.667 -206 -254c0 -64.667 40.667 -97 122 -97c21.333 0 36.333 1 45 3l-26 -123c-15.333 -6.66699 -42 -10 -80 -10
c-71.333 0 -127 17 -167 51zM1261 1186c-75.333 82.667 -173.333 124 -294 124c-164.667 0 -302 -69.667 -412 -209c-110 -140 -165 -314 -165 -522c0 -133.333 37.667 -241 113 -323s174.333 -123 297 -123c165.333 0 302.333 69 411 207c108 138 162 312.667 162 524
c0 132.667 -37.333 240 -112 322z" />
    <glyph glyph-name="uni01EB" unicode="&#x1eb;" horiz-adv-x="1210" 
d="M567 -381c-39.333 33.333 -59 80.668 -59 142.001c0 76 34 144 102 204v16h-15c-130.667 0 -236.667 41.333 -318 124c-82 82.667 -123 190 -123 322c0 196 53.333 356.667 160 482c107.333 125.333 244.666 188 411.999 188c130.667 0 236.334 -41 317.001 -123
c81.333 -82 122 -189 122 -321c0 -130.667 -27 -249.667 -81 -357c-54 -108 -127.667 -189.667 -221 -245c-54.667 -32.667 -100 -73.334 -136 -122.001c-36 -48 -54 -92.667 -54 -134c0 -64.667 40.667 -97 122 -97c21.333 0 36.333 1 45 3l-26 -123
c-15.333 -6.66699 -42 -10 -80 -10c-71.333 0 -127 17 -167 51zM414 222.002c51.333 -57.333 118.999 -86.0029 202.999 -86.0029c100.667 0 186.334 46.667 257.001 140c71.333 92.667 107 204.667 107 336c0 102.667 -24 183.334 -72 242.001s-114.333 88 -199 88
c-111.333 0 -201.333 -45.333 -270 -136c-68.667 -91.333 -103 -210.666 -103 -357.999c0 -93.333 25.667 -168.666 77 -225.999z" />
    <glyph glyph-name="uni01EC" unicode="&#x1ec;" horiz-adv-x="1579" 
d="M829 -381c-39.333 33.333 -59 80.668 -59 142.001c0 70 30.333 134.333 91 193v16c-14 -2.66699 -39 -4 -75 -4c-168.667 0 -308.667 56.667 -420 170c-110.667 112.667 -166 255 -166 427c0 262.667 74 480.667 222 654s334.333 260 559 260
c168.667 0 307.667 -56.333 417 -169c110 -112.667 165 -255.334 165 -428.001c0 -349.333 -140.667 -626.333 -422 -831c-137.333 -100 -206 -184.667 -206 -254c0 -64.667 40.667 -97 122 -97c21.333 0 36.333 1 45 3l-26 -123c-15.333 -6.66699 -42 -10 -80 -10
c-71.333 0 -127 17 -167 51zM1261 1186c-75.333 82.667 -173.333 124 -294 124c-164.667 0 -302 -69.667 -412 -209c-110 -140 -165 -314 -165 -522c0 -133.333 37.667 -241 113 -323s174.333 -123 297 -123c165.333 0 302.333 69 411 207c108 138 162 312.667 162 524
c0 132.667 -37.333 240 -112 322zM677 1618l29 136h674l-29 -136h-674z" />
    <glyph glyph-name="uni01ED" unicode="&#x1ed;" horiz-adv-x="1210" 
d="M431 1286l29 136h674l-29 -136h-674zM567 -381c-39.333 33.333 -59 80.668 -59 142.001c0 76 34 144 102 204v16h-15c-130.667 0 -236.667 41.333 -318 124c-82 82.667 -123 190 -123 322c0 196 53.333 356.667 160 482c107.333 125.333 244.666 188 411.999 188
c130.667 0 236.334 -41 317.001 -123c81.333 -82 122 -189 122 -321c0 -130.667 -27 -249.667 -81 -357c-54 -108 -127.667 -189.667 -221 -245c-54.667 -32.667 -100 -73.334 -136 -122.001c-36 -48 -54 -92.667 -54 -134c0 -64.667 40.667 -97 122 -97
c21.333 0 36.333 1 45 3l-26 -123c-15.333 -6.66699 -42 -10 -80 -10c-71.333 0 -127 17 -167 51zM414 222.002c51.333 -57.333 118.999 -86.0029 202.999 -86.0029c100.667 0 186.334 46.667 257.001 140c71.333 92.667 107 204.667 107 336
c0 102.667 -24 183.334 -72 242.001s-114.333 88 -199 88c-111.333 0 -201.333 -45.333 -270 -136c-68.667 -91.333 -103 -210.666 -103 -357.999c0 -93.333 25.667 -168.666 77 -225.999z" />
    <glyph glyph-name="uni01F1" unicode="&#x1f1;" horiz-adv-x="2842" 
d="M832 1443c199.333 0 354.333 -56.002 465 -168.002c109.333 -111.333 164 -265.666 164 -462.999c0 -231.333 -71.667 -424.666 -215 -579.999c-143.333 -154.667 -320.333 -232 -531 -232h-591l305 1443h403zM340 159.998h381.999c158.667 0 290.334 61 395.001 183
c105.333 122 158 275.333 158 460c0 151.333 -40 269 -120 353c-80.667 84.667 -193 127 -337 127h-239zM1597 127.998l1048 1137l4 16h-779l34 162h1022l-27 -128l-1045 -1137l-3 -16h820l-34 -162h-1067z" />
    <glyph glyph-name="uni01F2" unicode="&#x1f2;" horiz-adv-x="2591" 
d="M832 1443c199.333 0 354.333 -56.002 465 -168.002c109.333 -111.333 164 -265.666 164 -462.999c0 -231.333 -71.667 -424.666 -215 -579.999c-143.333 -154.667 -320.333 -232 -531 -232h-591l305 1443h403zM340 159.998h381.999c158.667 0 290.334 61 395.001 183
c105.333 122 158 275.333 158 460c0 151.333 -40 269 -120 353c-80.667 84.667 -193 127 -337 127h-239zM1590 125.998l764 792l3 16h-594l32 144h826l-29 -129l-758 -789l-3 -16h593l-31 -144h-830z" />
    <glyph glyph-name="uni01F3" unicode="&#x1f3;" horiz-adv-x="2362" 
d="M267 99c-76.667 82 -115.001 188.333 -115.001 319c0 194 53.667 356 161 486c106.667 128.667 238.334 193 395.001 193c77.333 0 146 -20.333 206 -61c58.667 -40 97.667 -92.333 117 -157h16l133 627h175l-320 -1506h-166l31 147h-16
c-84.667 -110.667 -198 -166 -340 -166c-110.667 0 -203 39.333 -277 118zM878.999 283c75.333 98 113.002 218.333 113.002 361c0 91.333 -24.333 164 -73 218c-48.667 53.333 -114.667 80 -198 80c-110.667 0 -203 -46.667 -277 -140c-74.667 -94.667 -112 -214 -112 -358
c0 -91.333 24.667 -165.333 74 -222c49.333 -57.333 113.666 -86 192.999 -86c111.333 0 204.666 49 279.999 147zM1361 126l764 792l3 16h-594l32 144h826l-29 -129l-758 -789l-3 -16h593l-31 -144h-830z" />
    <glyph glyph-name="uni01F4" unicode="&#x1f4;" horiz-adv-x="1528" 
d="M1448 540c-40 -186.667 -117.667 -328.999 -233 -426.999c-114.667 -98 -261.334 -147 -440.001 -147c-171.333 0 -310 54.667 -416 164c-105.333 109.333 -158 253.333 -158 432c0 264.667 72 483.334 216 656.001s325.667 259 545 259c150 0 275.667 -42 377 -126
c102 -84 157.667 -191.667 167 -323c0.666992 -5.33301 1 -17.333 1 -36h-183c-7.33301 97.333 -44.666 174.666 -111.999 231.999c-68 57.333 -156 86 -264 86c-158.667 0 -291.667 -70 -399 -210c-107.333 -139.333 -161 -312.333 -161 -519c0 -138.667 37 -248 111 -328
s174.667 -120 302 -120c114.667 0 214 35.667 298 107c84.667 71.333 138.667 165.666 162 282.999l11 55h-400l34 158h584zM1263 1873h226l-395 -298h-204z" />
    <glyph glyph-name="uni01F5" unicode="&#x1f5;" horiz-adv-x="1247" 
d="M195 -321c-80 58.667 -123.334 130.332 -130.001 214.999h183c8 -45.333 34.667 -82.333 80 -111c49.333 -31.333 112 -47 188 -47c181.333 0 291 80.667 329 242l47 200h-16c-77.333 -108 -186 -162 -326 -162c-111.333 0 -204 39.667 -278 119
c-76 81.333 -114 185.333 -114 312c0 190.667 51.333 347 154 469c100.667 120.667 228 181 382 181c76 0 145.667 -20.333 209 -61c64 -41.333 106.667 -93.666 128 -156.999h16l42 199h167l-244 -1130c-24 -111.333 -80 -199 -168 -263c-90 -65.333 -204 -98 -342 -98
c-121.333 0 -223.666 30.667 -306.999 92zM874.999 298.998c72.667 89.333 109 204.333 109 345c0 91.333 -25 164 -75 218c-50 53.333 -117.333 80 -202 80c-108 0 -196.333 -42.333 -265 -127c-69.333 -86.667 -104 -200.667 -104 -342c0 -95.333 23.667 -170 71 -224
s112 -81 194 -81c110 0 200.667 43.667 272 131zM1015 1601h220l-350 -338h-194z" />
    <glyph glyph-name="uni01F8" unicode="&#x1f8;" horiz-adv-x="1520" 
d="M122 0l307 1443h177l534 -1153h16l245 1153h182l-307 -1443h-179l-533 1150h-16l-244 -1150h-182zM1125 1575h-184l-206 298h206z" />
    <glyph glyph-name="uni01F9" unicode="&#x1f9;" horiz-adv-x="1215" 
d="M328 1078l167 -0.000976562l-34 -161h16c84 120 196.333 180 337 180c100.667 0 183.667 -32.667 249 -98c62 -62 93 -137.333 93 -226c0 -37.333 -4.66699 -78.666 -14 -123.999l-138 -649h-175l132 619c8.66699 42 13 77 13 105c0 65.333 -20.667 118 -62 158
c-42.667 40 -99.667 60 -171 60c-81.333 0 -152.333 -27 -213 -81c-58 -52 -96 -119.667 -114 -203l-140 -658h-175zM691 1263l-206 338h214l180 -338h-188z" />
    <glyph glyph-name="Aringacute" unicode="&#x1fa;" horiz-adv-x="1380" 
d="M1015 413h-579l-232 -413h-193l845 1443h167l226 -1443h-176zM522 566h473l-95 641h-16zM929 1658c18.667 -20 42.334 -30 71.001 -30s52.334 10 71.001 30c19.333 19.333 29 43.333 29 72s-9.66699 52.667 -29 72c-18.667 20 -42.334 30 -71.001 30
s-52.334 -10 -71.001 -30c-19.333 -19.333 -29 -43.333 -29 -72s9.66699 -52.667 29 -72zM857 1590c-39.333 38.667 -59 85.667 -59 141s19.667 102.333 59 141c39.333 38 87 57 143 57s103.667 -19 143 -57c39.333 -38.667 59 -85.667 59 -141s-19.667 -102.333 -59 -141
c-39.333 -38 -87 -57 -143 -57s-103.667 19 -143 57zM1257 2173l-174 -181h-161l148 181h187z" />
    <glyph glyph-name="aringacute" unicode="&#x1fb;" horiz-adv-x="1126" 
d="M703 202c62 47.333 100.999 107.667 116.999 181l27 124l-287 -14c-88 -4.66699 -156.333 -24 -205 -58c-48.667 -34.667 -73 -80.334 -73 -137.001c0 -49.333 19.333 -89.666 58 -120.999s88.334 -47 149.001 -47c80.667 0 152 24 214 72zM199.999 67.001
c-63.333 57.333 -94.998 127.999 -94.998 211.999c0 106 40 189.667 120 251c80.667 61.333 195.667 95.333 345 102l306 14l16 73c4 22 6 39 6 51c0 54.667 -20.333 97 -61 127c-40.667 30.667 -97.334 46 -170.001 46c-124 0 -203.667 -45 -239 -135h-182
c24 88.667 75 159 153 211c78.667 52 172.667 78 282 78c118.667 0 213.667 -27.333 285 -82c71.333 -55.333 107 -128.666 107 -219.999c0 -28.667 -3 -58 -9 -88l-150 -707h-167l30 141h-16c-80.667 -106.667 -189.334 -160 -326.001 -160c-94 0 -172.333 28.667 -235 86z
M623.001 1258c-39.333 38.667 -59 85.334 -59 140.001s19.667 101.334 59 140.001s87 58 143 58s103.667 -19.333 143 -58s59 -85.334 59 -140.001s-19.667 -101.334 -59 -140.001s-87 -58 -143 -58s-103.667 19.333 -143 58zM695.001 1324c19.333 -19.333 43 -29 71 -29
s51.667 9.66699 71 29c19.333 20 29 44.333 29 73s-9.66699 53 -29 73c-19.333 19.333 -43 29 -71 29s-51.667 -9.66699 -71 -29c-19.333 -20 -29 -44.333 -29 -73s9.66699 -53 29 -73zM895.001 1909h199l-242 -226h-171z" />
    <glyph glyph-name="AEacute" unicode="&#x1fc;" horiz-adv-x="1966" 
d="M1060 1292l-455 -680h457l145 680h-147zM1030 459h-527l-307 -459h-187l958 1443h1110l-35 -162h-658l-100 -473h621l-34 -160h-621l-104 -486h658l-34 -162h-838zM1689 1873h226l-395 -298h-204z" />
    </font>
</defs>
</svg>
