<?xml version="1.0" encoding="UTF-8" standalone="no"?>
<svg
   xmlns:dc="http://purl.org/dc/elements/1.1/"
   xmlns:cc="http://creativecommons.org/ns#"
   xmlns:rdf="http://www.w3.org/1999/02/22-rdf-syntax-ns#"
   xmlns:svg="http://www.w3.org/2000/svg"
   xmlns="http://www.w3.org/2000/svg"
   id="svg8"
   version="1.1"
   viewBox="0 0 70.153194 70.44351"
   height="70.443504mm"
   width="70.153191mm">
  <defs
     id="defs2" />
  <metadata
     id="metadata5">
    <rdf:RDF>
      <cc:Work
         rdf:about="">
        <dc:format>image/svg+xml</dc:format>
        <dc:type
           rdf:resource="http://purl.org/dc/dcmitype/StillImage" />
        <dc:title></dc:title>
      </cc:Work>
    </rdf:RDF>
  </metadata>
  <g
     transform="translate(-44.461812,-25.768533)"
     id="layer1">
    <path
       id="path190"
       d="M 77.273837,94.96163 76.023426,93.71122 V 80.42926 c 0,-14.40673 0.04724,-14.78966 1.930421,-15.64769 1.810117,-0.82474 3.782833,-0.23 4.622426,1.39359 0.402908,0.77914 0.502709,3.11167 0.502709,11.74938 0,12.12698 -0.278578,11.1001 2.822222,10.4032 7.864964,-1.76764 15.211066,-7.5686 18.959646,-14.9718 2.32301,-4.58779 3.40403,-11.53909 2.59662,-16.697135 C 105.836,46.300268 98.647408,37.641043 88.818916,34.207171 69.837954,27.575619 50.164932,42.523408 51.455638,62.59622 c 0.345436,5.37216 1.800058,9.67549 4.727898,13.98692 1.964539,2.89292 5.936902,6.52852 9.213267,8.43222 3.494456,2.03042 4.255284,3.45666 3.068358,5.75192 -0.540545,1.0453 -1.871522,1.81505 -3.138404,1.81505 -0.97373,0 -5.736194,-2.68409 -7.945141,-4.47783 C 51.286005,83.15467 46.863897,76.06051 45.109546,68.41705 44.325889,65.00278 44.233896,57.156444 44.939967,53.953165 48.029338,39.937401 58.656273,29.310466 72.672038,26.221095 c 2.737562,-0.603416 11.02077,-0.603416 13.758332,0 14.01577,3.089371 24.6427,13.716306 27.73207,27.73207 0.60342,2.737563 0.60342,11.020775 0,13.758335 -3.48831,15.82566 -16.432682,27.12227 -32.390687,28.26749 L 78.52425,96.21204 Z M 76.197092,60.220026 c -7.439108,-2.66349 -9.582394,-11.851187 -4.054221,-17.37936 2.165248,-2.165247 4.197981,-2.984016 7.408333,-2.984016 3.210352,0 5.243085,0.818769 7.408333,2.984016 2.165248,2.165246 2.984011,4.197981 2.984011,7.408333 0,3.210351 -0.818763,5.243085 -2.984011,7.408333 -2.804675,2.804678 -7.178061,3.846048 -10.762445,2.562694 z m 5.066837,-6.945959 c 2.380954,-1.231238 2.309541,-5.026526 -0.115368,-6.131388 -3.203836,-1.459765 -6.319093,1.789 -4.63283,4.831378 0.925216,1.669289 2.95789,2.225816 4.748198,1.30001 z"
       style="fill:#000000;stroke-width:0.35277778" />
  </g>
</svg>
