<?xml version="1.0" encoding="UTF-8" standalone="no"?>
<svg
   xmlns:dc="http://purl.org/dc/elements/1.1/"
   xmlns:cc="http://creativecommons.org/ns#"
   xmlns:rdf="http://www.w3.org/1999/02/22-rdf-syntax-ns#"
   xmlns:svg="http://www.w3.org/2000/svg"
   xmlns="http://www.w3.org/2000/svg"
   id="svg8"
   version="1.1"
   viewBox="0 0 70.139255 70.553999"
   height="70.553993mm"
   width="70.139252mm">
  <defs
     id="defs2" />
  <metadata
     id="metadata5">
    <rdf:RDF>
      <cc:Work
         rdf:about="">
        <dc:format>image/svg+xml</dc:format>
        <dc:type
           rdf:resource="http://purl.org/dc/dcmitype/StillImage" />
        <dc:title></dc:title>
      </cc:Work>
    </rdf:RDF>
  </metadata>
  <g
     transform="translate(-44.271622,-0.43458203)"
     id="layer1">
    <path
       id="path177"
       d="M 75.466521,70.888379 C 74.981451,70.801859 73.632076,70.559259 72.46791,70.349271 62.569652,68.563849 52.876398,61.264034 48.162384,52.04522 45.152449,46.158936 44.260336,42.396794 44.271729,35.637904 c 0.01,-5.908096 0.788717,-9.50218 3.147623,-14.526758 3.208778,-6.834847 7.449954,-11.611828 13.647067,-15.371158 2.739727,-1.661989 4.163461,-1.736053 5.607794,-0.29172 0.787304,0.787304 1.028543,1.350504 1.019977,2.38125 -0.01426,1.716043 -0.449997,2.269541 -3.171347,4.028434 -3.332029,2.153595 -5.157725,3.773085 -7.256264,6.436698 -3.615241,4.588716 -5.654695,9.926133 -6.020354,15.755754 C 49.985843,54.14441 69.633772,69.071023 88.614788,62.439454 103.30283,57.307758 111.09207,41.200659 105.97224,26.546582 102.12331,15.530105 91.242972,7.612358 79.929159,7.594736 78.455497,7.592436 78.051824,7.425709 77.018743,6.392627 75.373701,4.747585 75.388659,3.366046 77.069713,1.684993 l 1.250413,-1.25041097 3.247503,0.233055 C 97.52563,1.812853 110.47,13.109464 113.95831,28.935126 c 0.60342,2.737563 0.60342,11.020771 0,13.758333 -3.02458,13.721824 -13.31925,24.27044 -26.850119,27.51244 -2.257101,0.540805 -9.918054,0.989919 -11.641666,0.68248 z M 66.43541,48.725959 c -1.352128,-1.352126 -1.555186,-2.693134 -0.621124,-4.10192 0.318076,-0.479735 2.339549,-2.658184 4.492162,-4.840996 l 3.913843,-3.96875 -3.913843,-3.96875 c -4.483356,-4.546253 -5.070483,-5.32535 -5.070483,-6.728356 0,-1.386368 2.027637,-3.414005 3.414005,-3.414005 1.403006,0 2.182103,0.587127 6.728356,5.070482 l 3.96875,3.913844 3.96875,-3.913844 c 2.182812,-2.152612 4.361261,-4.174085 4.840996,-4.492162 1.408787,-0.934061 2.749794,-0.731003 4.10192,0.621125 1.351626,1.351624 1.555041,2.692113 0.622459,4.101921 -0.839897,1.26969 -20.164597,20.691409 -21.789138,21.89853 -1.866001,1.386537 -3.141513,1.338023 -4.656653,-0.177119 z m 21.16668,0.184909 c -2.747278,-2.025813 -4.727236,-4.60369 -4.727236,-6.154794 0,-1.401674 2.027399,-3.414003 3.439569,-3.414003 1.13599,0 3.14422,1.32334 4.885591,3.219397 2.682289,2.920558 2.91979,4.30343 1.058728,6.164491 -1.511748,1.511748 -2.788528,1.562446 -4.656652,0.184909 z"
       style="fill:#000000;stroke-width:0.35277778" />
  </g>
</svg>
