<?xml version="1.0" encoding="UTF-8" standalone="no"?>
<svg
   xmlns:dc="http://purl.org/dc/elements/1.1/"
   xmlns:cc="http://creativecommons.org/ns#"
   xmlns:rdf="http://www.w3.org/1999/02/22-rdf-syntax-ns#"
   xmlns:svg="http://www.w3.org/2000/svg"
   xmlns="http://www.w3.org/2000/svg"
   id="svg8"
   version="1.1"
   viewBox="0 0 70.538608 49.360306"
   height="49.360302mm"
   width="70.538605mm">
  <defs
     id="defs2" />
  <metadata
     id="metadata5">
    <rdf:RDF>
      <cc:Work
         rdf:about="">
        <dc:format>image/svg+xml</dc:format>
        <dc:type
           rdf:resource="http://purl.org/dc/dcmitype/StillImage" />
        <dc:title></dc:title>
      </cc:Work>
    </rdf:RDF>
  </metadata>
  <g
     transform="translate(-49.947422,-0.35200521)"
     id="layer1">
    <path
       id="path164"
       d="m 72.873302,49.158143 c -0.485069,-0.310187 -2.707569,-2.703541 -4.938889,-5.318559 -8.449148,-9.902077 -8.466666,-9.925202 -8.466666,-11.178053 0,-1.354116 1.10068,-2.928408 2.390199,-3.418681 1.869376,-0.710738 2.973342,0.119263 8.061521,6.060948 2.645879,3.089709 4.918695,5.61765 5.050701,5.61765 0.226723,0 26.866822,-24.258764 29.123962,-26.520601 1.12079,-1.123117 1.20582,-1.175203 -17.775345,10.888225 -6.351249,4.036515 -11.068986,6.812932 -11.576664,6.812932 -1.46377,0 -2.224572,-0.608841 -8.303847,-6.645267 l -5.905862,-5.864236 -2.208027,2.14709 c -3.910357,3.802444 -5.129453,4.160153 -7.182193,2.107414 -2.246292,-2.246292 -1.578183,-3.727489 4.186402,-9.281253 3.44017,-3.314357 4.463866,-3.891029 6.154174,-3.466788 0.583285,0.146395 3.456284,2.716629 7.360865,6.585156 L 75.24781,24.029161 93.860161,12.190584 C 105.14445,5.0130932 112.8093,0.35200521 113.32792,0.35200521 c 1.36776,0 2.68285,0.86585699 4.81822,3.17230899 2.53462,2.737693 2.93937,4.301943 1.55588,6.012995 -0.85047,1.0518248 -42.84995,39.4206428 -43.576426,39.8094388 -1.021141,0.546499 -2.210606,0.47752 -3.252292,-0.188605 z"
       style="fill:#000000;stroke-width:0.35277778" />
  </g>
</svg>
