<svg width="597" height="446" viewBox="0 0 597 446" fill="none" xmlns="http://www.w3.org/2000/svg">
<path d="M426.452 315.224C426.452 315.224 413.097 231.98 465.952 199.972C550.044 265.006 485.758 347.571 485.758 347.571L426.452 315.224Z" fill="#F04637"/>
<path d="M465.952 199.972C466.291 200.198 466.518 200.424 466.857 200.65L457.577 299.615L507.942 263.422C508.055 264.101 508.168 264.78 508.281 265.458L457.35 302.103L454.634 330.605L452.823 329.587L458.142 272.697L430.187 250.076C430.413 249.398 430.527 248.832 430.753 248.153L458.256 270.548L464.82 200.65C465.386 200.424 465.612 200.198 465.952 199.972Z" fill="white"/>
<path d="M445.353 306.288C445.353 306.288 486.89 233.111 546.083 234.355C579.585 297.127 515.185 345.195 515.185 345.195L443.769 363.179L445.353 306.288Z" fill="#6680A1"/>
<path d="M485.193 259.011L496.964 294.413L544.725 234.355C545.178 234.355 545.631 234.355 546.084 234.355C546.197 234.581 546.31 234.807 546.423 235.147L520.845 267.381L555.478 265.571C555.478 265.911 555.478 266.25 555.591 266.589V267.494L519.373 269.304L476.818 322.801L537.708 321.67C537.256 322.349 536.803 322.914 536.35 323.593L475.346 324.724L445.127 362.84L443.882 363.179V361.369L495.605 296.222L483.721 260.369C484.174 259.916 484.74 259.464 485.193 259.011Z" fill="#475B73"/>
<path d="M465.612 337.844C465.612 337.844 529.219 308.098 563.4 340.671C543.48 434.886 422.151 416.224 422.151 416.224L465.612 337.844Z" fill="#25374B"/>
<path d="M563.286 340.672C563.173 341.011 563.173 341.35 563.06 341.803L473.987 375.281L518.467 401.747C517.788 402.086 517.222 402.426 516.543 402.765L471.724 376.186L436.978 389.306L438.336 386.817L506.017 361.369L522.428 325.629C523.107 325.629 523.786 325.629 524.466 325.742L508.507 360.465L562.494 340.106C562.834 340.219 563.06 340.445 563.286 340.672Z" fill="#475B73"/>
<path d="M195.05 84.0238H52.8965C52.8965 84.0238 45.2003 74.2969 52.8965 67.737C57.1973 64.1177 62.1772 64.457 65.799 65.588C68.1758 66.2666 70.5526 64.6832 71.1185 62.308C72.0239 58.3494 74.627 53.0336 82.3233 49.9798C89.7931 46.9261 94.6599 51.5633 97.3762 56.3136C98.2816 57.897 100.658 57.6708 101.224 55.9743C103.601 48.3964 111.976 38.4434 139.253 38.4434C173.999 38.4434 170.151 56.8791 166.982 64.5701C166.416 65.9273 167.548 67.2846 169.019 66.9452C174.339 65.8142 184.298 64.3439 188.826 67.8501C195.05 72.7135 195.05 84.0238 195.05 84.0238Z" fill="url(#paint0_linear)"/>
<path d="M244.006 49.2059V349.607H369.862C369.862 349.607 356.394 160.273 300.257 90.2622C262.794 43.5507 244.006 49.2059 244.006 49.2059Z" fill="#475B73"/>
<path d="M284.978 93.9946C284.412 93.2029 284.072 92.2981 283.846 91.5063H244.006V95.8043H285.996C285.657 95.1256 285.317 94.5601 284.978 93.9946Z" fill="#25374B"/>
<path d="M291.768 103.834H244.006V108.132H294.937C293.806 106.775 292.787 105.305 291.768 103.834Z" fill="#25374B"/>
<path d="M300.709 116.163H244.119V120.461H303.426C302.52 118.99 301.615 117.633 300.709 116.163Z" fill="#25374B"/>
<path d="M307.387 128.604H244.006V132.902H308.858C308.406 131.432 307.953 129.961 307.387 128.604Z" fill="#25374B"/>
<path d="M336.701 200.537C335.569 199.745 334.664 198.841 334.211 198.049H244.006V202.347H339.191C338.399 201.668 337.493 201.103 336.701 200.537Z" fill="#F04637"/>
<path d="M352.093 210.377H244.006V214.675H359.223C356.847 213.205 354.47 211.848 352.093 210.377Z" fill="#F04637"/>
<path d="M372.352 222.705H244.006V227.003H378.351C376.427 225.533 374.39 224.063 372.352 222.705Z" fill="#F04637"/>
<path d="M387.632 235.147H244.006V239.445H390.914C390.008 237.861 388.877 236.504 387.632 235.147Z" fill="#F04637"/>
<path d="M302.181 90.2621C264.718 43.5506 244.006 47.283 244.006 47.283V56.105C250.684 61.9864 267.887 79.5173 276.489 90.2621C332.739 160.273 336.587 349.607 336.587 349.607H372.692C372.805 349.72 358.431 160.386 302.181 90.2621Z" fill="#25374B"/>
<path d="M263.247 157.784H158.216V417.921H263.247V157.784Z" fill="#6680A1"/>
<path d="M180.852 348.136H111.133V417.921H180.852V348.136Z" fill="#043C5E"/>
<path d="M250.91 298.597H239.818V312.283H250.91V298.597Z" fill="#475B73"/>
<path d="M218.993 269.643H207.902V282.989H218.993V269.643Z" fill="#475B73"/>
<path d="M218.993 298.597H207.902V312.283H218.993V298.597Z" fill="#475B73"/>
<path d="M186.964 269.643H175.872V282.989H186.964V269.643Z" fill="#475B73"/>
<path d="M186.963 298.597H175.872V312.283H186.963V298.597Z" fill="#475B73"/>
<path d="M250.91 328.796H239.818V342.142H250.91V328.796Z" fill="#475B73"/>
<path d="M218.993 328.796H207.901V342.142H218.993V328.796Z" fill="#475B73"/>
<path d="M218.993 358.315H207.901V371.662H218.993V358.315Z" fill="#475B73"/>
<path d="M186.963 328.796H175.872V342.142H186.963V328.796Z" fill="#475B73"/>
<path d="M137.617 361.256H123.244V365.554H137.617V361.256Z" fill="#F04637"/>
<path d="M169.194 361.256H154.481V365.554H169.194V361.256Z" fill="#F04637"/>
<path d="M137.617 373.584H123.243V377.882H137.617V373.584Z" fill="#F04637"/>
<path d="M169.194 373.584H154.481V377.882H169.194V373.584Z" fill="#F04637"/>
<path d="M137.617 385.913H123.243V390.211H137.617V385.913Z" fill="#F04637"/>
<path d="M169.194 385.913H154.481V390.211H169.194V385.913Z" fill="#F04637"/>
<path d="M137.617 398.354H123.243V402.652H137.617V398.354Z" fill="#F04637"/>
<path d="M169.194 398.354H154.481V402.652H169.194V398.354Z" fill="#F04637"/>
<path d="M408.343 172.827H317.686V417.808H408.343V172.827Z" fill="#043C5E"/>
<path d="M396.912 345.648H329.231V349.946H396.912V345.648Z" fill="#01898C"/>
<path d="M396.912 358.089H329.23V362.387H396.912V358.089Z" fill="#01898C"/>
<path d="M396.912 370.417H329.23V374.715H396.912V370.417Z" fill="#01898C"/>
<path d="M396.912 382.859H329.23V387.157H396.912V382.859Z" fill="#01898C"/>
<path d="M350.395 192.281H329.231V196.579H350.395V192.281Z" fill="#ACC1D6"/>
<path d="M396.912 192.281H375.181V196.579H396.912V192.281Z" fill="#ACC1D6"/>
<path d="M350.395 204.722H329.23V209.02H350.395V204.722Z" fill="#ACC1D6"/>
<path d="M396.912 204.722H375.181V209.02H396.912V204.722Z" fill="#ACC1D6"/>
<path d="M350.395 217.05H329.23V221.348H350.395V217.05Z" fill="#ACC1D6"/>
<path d="M396.912 217.05H375.181V221.348H396.912V217.05Z" fill="#ACC1D6"/>
<path d="M350.395 229.491H329.23V233.789H350.395V229.491Z" fill="#ACC1D6"/>
<path d="M396.912 229.491H375.181V233.789H396.912V229.491Z" fill="#ACC1D6"/>
<path d="M350.395 241.707H329.231V246.004H350.395V241.707Z" fill="#ACC1D6"/>
<path d="M396.912 241.707H375.181V246.004H396.912V241.707Z" fill="#ACC1D6"/>
<path d="M350.395 254.035H329.23V258.333H350.395V254.035Z" fill="#ACC1D6"/>
<path d="M396.912 254.035H375.181V258.333H396.912V254.035Z" fill="#ACC1D6"/>
<path d="M350.395 266.363H329.23V270.661H350.395V266.363Z" fill="#ACC1D6"/>
<path d="M396.912 266.363H375.181V270.661H396.912V266.363Z" fill="#ACC1D6"/>
<path d="M350.395 278.804H329.23V283.102H350.395V278.804Z" fill="#ACC1D6"/>
<path d="M396.912 278.804H375.181V283.102H396.912V278.804Z" fill="#ACC1D6"/>
<path d="M250.91 178.143H239.818V191.489H250.91V178.143Z" fill="#475B73"/>
<path d="M250.91 207.097H239.818V220.782H250.91V207.097Z" fill="#475B73"/>
<path d="M218.993 178.143H207.902V191.489H218.993V178.143Z" fill="#475B73"/>
<path d="M218.993 207.097H207.902V220.782H218.993V207.097Z" fill="#475B73"/>
<path d="M186.964 178.143H175.872V191.489H186.964V178.143Z" fill="#475B73"/>
<path d="M186.963 207.097H175.872V220.782H186.963V207.097Z" fill="#475B73"/>
<path d="M250.91 237.295H239.818V250.642H250.91V237.295Z" fill="#475B73"/>
<path d="M218.993 237.295H207.901V250.642H218.993V237.295Z" fill="#475B73"/>
<path d="M186.963 237.296H175.872V250.642H186.963V237.296Z" fill="#475B73"/>
<path d="M484.853 260.708H359.223V419.278H484.853V260.708Z" fill="#ACC1D6"/>
<path d="M467.99 281.632H455.087V302.216H467.99V281.632Z" fill="#6680A1"/>
<path d="M467.99 326.307H455.087V347.344H467.99V326.307Z" fill="#6680A1"/>
<path d="M430.753 281.632H417.85V302.216H430.753V281.632Z" fill="#6680A1"/>
<path d="M430.753 326.307H417.85V347.344H430.753V326.307Z" fill="#6680A1"/>
<path d="M393.404 281.632H380.501V302.217H393.404V281.632Z" fill="#6680A1"/>
<path d="M393.404 326.307H380.501V347.344H393.404V326.307Z" fill="#6680A1"/>
<path d="M467.99 372.792H455.087V393.377H467.99V372.792Z" fill="#6680A1"/>
<path d="M393.404 372.792H380.501V393.377H393.404V372.792Z" fill="#6680A1"/>
<path d="M319.158 270.435H235.405V417.921H319.158V270.435Z" fill="#ACC1D6"/>
<path d="M264.266 281.971H243.101V287.739H264.266V281.971Z" fill="url(#paint1_linear)"/>
<path d="M310.783 281.971H289.052V287.739H310.783V281.971Z" fill="url(#paint2_linear)"/>
<path d="M264.266 298.597H243.101V304.365H264.266V298.597Z" fill="url(#paint3_linear)"/>
<path d="M310.783 298.597H289.052V304.365H310.783V298.597Z" fill="url(#paint4_linear)"/>
<path d="M264.266 315.223H243.101V320.992H264.266V315.223Z" fill="url(#paint5_linear)"/>
<path d="M310.783 315.223H289.052V320.992H310.783V315.223Z" fill="url(#paint6_linear)"/>
<path d="M264.266 331.963H243.101V337.731H264.266V331.963Z" fill="url(#paint7_linear)"/>
<path d="M310.783 331.963H289.052V337.731H310.783V331.963Z" fill="url(#paint8_linear)"/>
<path d="M264.266 348.363H243.101V354.131H264.266V348.363Z" fill="url(#paint9_linear)"/>
<path d="M310.783 348.363H289.052V354.131H310.783V348.363Z" fill="url(#paint10_linear)"/>
<path d="M264.266 365.102H243.101V370.87H264.266V365.102Z" fill="url(#paint11_linear)"/>
<path d="M310.783 365.102H289.052V370.87H310.783V365.102Z" fill="url(#paint12_linear)"/>
<path d="M264.266 381.615H243.101V387.383H264.266V381.615Z" fill="url(#paint13_linear)"/>
<path d="M310.783 381.615H289.052V387.383H310.783V381.615Z" fill="url(#paint14_linear)"/>
<path d="M264.266 398.354H243.101V404.122H264.266V398.354Z" fill="url(#paint15_linear)"/>
<path d="M310.783 398.354H289.052V404.122H310.783V398.354Z" fill="url(#paint16_linear)"/>
<path d="M131.619 321.105C131.392 320.539 129.468 319.408 127.091 318.617C127.205 316.468 126.978 314.319 126.526 312.283C128.563 311.378 130.487 310.247 130.713 309.116C131.053 306.967 127.771 301.877 126.865 301.538C126.299 301.312 124.036 301.877 121.772 303.008C120.414 301.425 118.829 300.068 117.018 298.824C117.811 296.788 118.377 294.526 117.698 293.621C116.339 291.811 110.454 290.68 109.662 291.019C109.096 291.246 107.964 293.168 107.172 295.544C105.021 295.317 102.758 295.431 100.721 295.883C99.8151 293.96 98.6833 292.037 97.6647 291.924C95.5143 291.585 90.4212 294.865 90.0816 295.77C89.8553 296.222 90.308 298.258 91.3266 300.407C89.6289 301.877 88.0444 303.461 86.7994 305.497C84.8754 304.818 82.9513 304.366 82.159 305.044C80.3482 306.401 79.2164 312.283 79.5559 313.075C79.7823 313.527 81.2536 314.545 83.2908 315.337C83.0645 317.712 83.1777 320.087 83.7436 322.349C82.0459 323.141 80.5745 324.159 80.4613 325.063C80.1218 327.212 83.404 332.302 84.3095 332.641C84.7622 332.868 86.4599 332.415 88.4971 331.623C89.9684 333.433 91.8925 335.016 93.9297 336.261C93.3638 338.07 93.0243 339.767 93.477 340.559C94.8352 342.368 100.721 343.499 101.513 343.16C101.966 342.934 102.984 341.35 103.776 339.314C106.153 339.427 108.417 339.201 110.68 338.636C111.586 340.445 112.604 342.029 113.51 342.142C115.66 342.481 120.753 339.201 121.093 338.296C121.319 337.844 120.867 335.808 119.848 333.659C121.432 332.189 122.904 330.492 124.036 328.57C126.073 329.248 128.11 329.814 128.902 329.135C130.826 327.891 131.958 322.01 131.619 321.105ZM102.079 326.647C96.8724 324.95 94.1561 319.408 95.8538 314.206C97.5515 309.003 103.097 306.288 108.304 307.985C113.51 309.681 116.226 315.223 114.528 320.426C112.831 325.516 107.285 328.343 102.079 326.647Z" fill="#ACC1D6"/>
<path d="M100.947 330.379C93.5903 328.004 89.629 320.087 92.0058 312.735C94.3826 305.384 102.305 301.425 109.662 303.8C117.019 306.175 120.98 314.092 118.603 321.444C116.226 328.796 108.304 332.754 100.947 330.379ZM109.662 304.026C102.418 301.651 94.6089 305.61 92.2321 312.848C89.8554 320.087 93.8167 327.891 101.06 330.266C108.304 332.641 116.113 328.683 118.49 321.444C120.753 314.206 116.905 306.401 109.662 304.026Z" fill="white"/>
<path d="M125.507 319.408C125.394 319.408 125.394 319.295 125.281 319.295C125.167 320.765 124.828 322.123 124.375 323.593C120.867 334.112 109.549 339.88 99.0229 336.374C92.1189 334.112 87.2521 328.456 85.7808 321.897C85.6676 321.897 85.5544 321.897 85.5544 321.897C87.139 328.57 92.0057 334.338 99.0229 336.713C109.662 340.219 121.206 334.451 124.715 323.706C125.054 322.349 125.281 320.879 125.507 319.408Z" fill="white"/>
<path d="M98.5701 298.484C102.645 297.014 107.172 296.901 111.586 298.371C111.699 298.371 111.699 298.484 111.812 298.484C111.812 298.371 111.812 298.258 111.812 298.258C111.699 298.258 111.699 298.258 111.586 298.145C107.172 296.675 102.531 296.901 98.4569 298.258C98.4569 298.258 98.5701 298.371 98.5701 298.484Z" fill="white"/>
<path d="M92.7979 366.12C92.5716 365.328 89.9684 363.858 86.7994 362.727C86.9126 359.899 86.6862 356.958 86.0071 354.244C88.7235 353 91.3266 351.416 91.553 350.059C92.0057 347.119 87.5917 340.445 86.4599 339.993C85.7808 339.654 82.7249 340.445 79.6691 341.916C77.8582 339.767 75.7078 337.957 73.331 336.374C74.3496 333.659 75.1419 330.606 74.3496 329.475C72.6519 327.099 64.7293 325.516 63.5975 325.968C62.8053 326.195 61.3339 328.796 60.2021 331.963C57.2594 331.737 54.3168 331.85 51.6005 332.415C50.3555 329.814 48.8841 327.326 47.526 327.099C44.5833 326.647 37.9057 331.058 37.453 332.189C37.1134 332.868 37.7925 335.469 39.1507 338.297C36.7739 340.219 34.7367 342.481 33.1521 344.97C30.6622 344.065 28.059 343.499 27.0404 344.291C24.6636 345.988 23.0791 353.905 23.5318 355.036C23.7582 355.714 25.9086 356.958 28.6249 358.09C28.2854 361.256 28.5118 364.423 29.1908 367.477C26.9272 368.608 24.89 369.965 24.7768 371.096C24.3241 374.037 28.7381 380.71 29.8699 381.162C30.4358 381.502 32.8126 380.936 35.4157 379.805C37.453 382.18 39.8297 384.329 42.6592 385.913C41.867 388.288 41.4143 390.663 42.0933 391.568C43.791 393.943 51.7136 395.526 52.8454 395.074C53.5245 394.848 54.7695 392.699 55.9013 389.984C59.0703 390.211 62.1262 389.871 65.0689 389.08C66.2007 391.455 67.5588 393.604 68.917 393.83C71.8597 394.282 78.5373 389.871 78.99 388.74C79.3295 388.062 78.6504 385.347 77.2923 382.52C79.4427 380.597 81.3668 378.335 82.9513 375.734C85.5544 376.638 88.3839 377.43 89.5157 376.525C91.6661 375.168 93.2507 367.251 92.7979 366.12ZM53.4113 373.471C46.5074 371.209 42.7724 363.858 45.036 356.958C47.2996 350.059 54.6563 346.327 61.5603 348.589C68.4643 350.851 72.1992 358.203 69.9356 365.102C67.672 372.001 60.3153 375.734 53.4113 373.471Z" fill="#D2DEEC"/>
<path d="M51.9399 378.561C42.2064 375.394 36.7738 364.763 40.056 355.036C43.225 345.309 53.8639 339.88 63.5974 343.16C73.3309 346.327 78.7635 356.959 75.4813 366.686C72.1991 376.412 61.6733 381.728 51.9399 378.561ZM63.4842 343.386C53.8639 340.22 43.4514 345.422 40.2823 355.036C37.1133 364.65 42.4328 375.055 52.0531 378.222C61.6733 381.389 72.0859 376.073 75.2549 366.459C78.3108 356.959 73.1045 346.553 63.4842 343.386Z" fill="white"/>
<path d="M84.5358 363.971C84.4226 363.971 84.3094 363.858 84.1962 363.858C83.9699 365.781 83.6303 367.703 82.9512 369.513C78.3109 383.538 63.1448 391.116 49.2236 386.592C40.0561 383.538 33.6048 376.073 31.5676 367.251C31.4544 367.251 31.3412 367.251 31.228 367.251C33.2653 376.186 39.8297 383.877 49.2236 386.931C63.3711 391.568 78.7636 383.877 83.404 369.626C83.9699 367.703 84.3094 365.781 84.5358 363.971Z" fill="white"/>
<path d="M48.6576 335.921C54.0902 333.999 60.0888 333.772 65.9741 335.695C66.0873 335.695 66.2005 335.808 66.3137 335.808C66.3137 335.695 66.3137 335.582 66.3137 335.469C66.2005 335.469 66.2005 335.469 66.0873 335.356C60.2019 333.433 54.0902 333.659 48.6576 335.582C48.6576 335.695 48.6576 335.808 48.6576 335.921Z" fill="white"/>
<path d="M350.289 347.427L349.723 348.558C349.157 349.802 349.044 351.159 349.61 352.404C349.836 352.856 350.289 353.082 350.742 353.082C350.742 353.082 356.514 354.666 356.061 353.195C355.608 351.612 353.684 350.933 353.684 350.933L354.477 348.219L350.289 347.427Z" fill="#F8B68F"/>
<path d="M362.852 319.491C361.267 321.866 359.456 324.015 357.532 326.051C356.853 326.842 356.061 327.747 355.156 328.539L356.514 329.783L350.289 347.427L354.476 348.106C354.476 348.106 364.436 334.533 367.153 328.765C368.284 326.616 366.021 322.997 362.852 319.491Z" fill="#01898C"/>
<path d="M343.385 300.716L344.743 306.484L338.518 307.502L338.631 298.341L343.385 300.716Z" fill="#F4A086"/>
<path d="M345.422 301.62C346.101 301.507 346.78 301.281 347.12 300.942C348.817 297.662 345.422 289.631 345.422 289.631L341.913 288.614L337.952 291.894L338.405 297.436C338.518 298.906 339.423 300.263 340.782 301.055C342.253 301.62 343.838 301.847 345.422 301.62Z" fill="#F8B68F"/>
<path d="M339.084 294.947C339.197 294.043 338.858 291.894 339.763 291.894C340.442 291.894 342.819 291.667 343.611 291.667C345.535 291.441 348.818 290.31 348.478 287.37C348.252 285.899 346.78 284.881 345.762 284.655C344.856 284.429 343.838 284.542 343.045 284.994C341.008 286.012 338.518 287.935 337.386 287.822C335.462 287.709 333.765 288.953 333.991 290.536C334.217 292.233 335.462 294.608 336.481 296.192C337.047 297.096 338.631 298.454 338.631 298.454L339.084 294.947Z" fill="#212B53"/>
<path d="M337.16 295.4C337.5 294.947 338.292 294.947 338.971 295.287C339.537 295.626 339.763 296.305 339.424 296.757C339.084 297.21 338.292 297.21 337.613 296.87C336.934 296.531 336.821 295.739 337.16 295.4Z" fill="#F8B68F"/>
<path d="M341.687 306.145C353.798 306.145 353.684 324.241 353.684 324.241L353.345 349.237H328.672L328.219 322.658C328.332 322.658 329.577 306.145 341.687 306.145Z" fill="#6680A1"/>
<path d="M328.671 322.997C328.671 322.997 314.184 321.753 311.015 315.532C307.846 309.311 335.123 293.816 335.123 293.816L337.613 296.87C337.613 296.87 329.577 308.407 322.786 311.008C329.237 308.859 336.934 307.163 336.934 307.163L333.878 320.282L328.671 322.997Z" fill="#6680A1"/>
<path d="M335.123 293.703C335.123 293.703 337.273 290.423 341.348 289.971C343.951 289.745 346.667 289.292 347.459 288.953C347.799 288.84 348.138 289.066 348.025 289.519C347.572 292.346 346.441 292.686 341.121 294.721C337.952 296.079 337.386 297.436 337.386 297.436L335.123 293.703Z" fill="#F4A086"/>
<path d="M356.966 434.29C356.966 434.29 359.23 436.326 364.21 437.683C365.342 438.022 366.474 437.57 366.474 439.38C364.097 439.38 360.362 439.38 360.362 439.38L355.269 438.475V439.38H352.552C352.552 439.38 351.76 434.856 353.345 434.29C354.929 434.29 356.966 434.29 356.966 434.29Z" fill="#212B53"/>
<path d="M356.401 431.01L356.966 434.29C355.948 434.969 354.59 435.082 353.571 434.403L353.345 434.29L353.571 431.01H356.401Z" fill="#F8B68F"/>
<path d="M353.345 349.237L357.306 432.141H352.666C352.666 432.141 345.422 406.467 345.422 394.704C345.422 393.573 345.309 392.329 344.969 391.198C340.782 376.495 336.934 349.237 336.934 349.237H353.345Z" fill="#212B53"/>
<path d="M336.028 434.29C336.028 434.29 338.291 436.326 343.271 437.683C344.403 438.022 345.535 437.57 345.535 439.38C343.158 439.38 339.423 439.38 339.423 439.38L334.33 438.475V439.38H331.614C331.614 439.38 330.822 434.856 332.406 434.29C333.877 434.29 336.028 434.29 336.028 434.29Z" fill="#212B53"/>
<path d="M335.462 431.01L336.028 434.29C335.009 434.969 333.651 435.082 332.632 434.403L332.406 434.29L332.632 431.01H335.462Z" fill="#F8B68F"/>
<path d="M328.785 349.237C328.785 349.237 326.521 371.971 330.03 387.126C330.369 388.823 330.596 390.632 330.369 392.329C328.219 415.402 331.727 432.028 331.727 432.028H335.802L348.025 349.124H328.785V349.237Z" fill="#212B53"/>
<path d="M336.934 307.163L338.292 304.561H344.29L345.649 306.823L336.934 307.163Z" fill="white"/>
<path d="M345.648 306.823C353.231 306.823 369.982 323.11 367.266 328.878C364.549 334.533 354.589 348.219 354.589 348.219L350.402 347.54L356.627 329.896L345.082 319.038C344.969 318.925 338.178 306.823 345.648 306.823Z" fill="#6680A1"/>
<path d="M353.118 347.653C353.231 347.201 353.345 346.635 353.571 346.296C353.571 346.296 353.571 346.183 353.684 346.183L353.91 324.354C353.91 324.128 353.91 320.169 352.665 316.098C352.552 316.324 352.439 316.55 352.213 316.663C353.231 320.622 353.231 324.241 353.231 324.354L353.118 347.653Z" fill="#63C1C5"/>
<path d="M479.986 177.031C475.685 195.58 519.486 197.955 537.595 198.181C542.575 198.181 547.555 197.729 552.535 196.824C567.814 193.77 601.202 185.627 596.562 174.543C590.563 160.292 572.341 170.245 572.341 170.245C572.341 170.245 574.605 159.5 543.707 152.375C512.808 145.249 512.922 169.001 512.922 169.001C512.922 169.001 485.306 153.732 479.986 177.031Z" fill="url(#paint17_linear)"/>
<path d="M240.954 396.235C237.898 418.516 241.293 441.476 241.293 441.25C241.293 441.024 243.783 441.25 243.783 441.25C243.783 441.25 247.179 414.218 247.971 405.17C248.763 396.122 247.971 395.556 247.971 395.556C247.971 395.556 244.123 373.954 240.954 396.235Z" fill="#F4A086"/>
<path d="M240.161 338.779L232.578 343.642L229.296 336.969L239.143 325.659L240.161 338.779Z" fill="#F04637"/>
<path d="M280.34 294.329L270.946 318.646L265.061 314.235L278.303 291.841L280.34 294.329Z" fill="#F8B68F"/>
<path d="M280.793 286.073C280.114 286.638 279.548 287.543 279.435 288.448L278.303 291.841L278.642 292.52L280.227 294.329C280.34 293.651 280.906 293.085 280.906 293.085L283.396 290.258C283.396 290.258 287.583 285.394 283.622 283.811C285.886 279.287 284.301 279.4 284.301 279.4L282.264 283.245L280.793 286.073Z" fill="#F8B68F"/>
<path d="M281.472 286.865C281.472 286.865 280.679 286.073 281.358 284.15C282.038 282.227 281.019 282.454 281.019 282.454C281.019 282.454 277.963 289.805 278.869 290.597C279.887 291.502 281.472 286.865 281.472 286.865Z" fill="#F8B68F"/>
<path d="M253.63 323.623L256.459 323.849L265.966 312.765L271.059 318.533C271.059 318.533 266.419 327.355 259.515 336.517C259.176 338.326 257.138 357.101 257.138 357.101H240.727C240.727 357.101 243.33 343.303 238.69 335.612C233.936 328.147 253.63 323.623 253.63 323.623Z" fill="#F04637"/>
<path d="M248.197 396.235C245.141 418.516 248.537 441.476 248.537 441.25C248.537 441.024 251.027 441.25 251.027 441.25C251.027 441.25 254.422 414.218 255.214 405.17C256.006 396.122 255.214 395.556 255.214 395.556C255.214 395.556 251.366 373.954 248.197 396.235Z" fill="#F8B68F"/>
<path d="M254.196 306.431L244.689 309.711L245.594 316.723C245.594 316.837 245.594 316.95 245.707 317.063C245.934 317.063 246.047 317.176 246.273 317.176H246.387H246.5C248.65 317.741 250.235 319.551 250.914 321.587C252.272 321.813 253.63 321.813 254.988 321.587C255.894 321.361 256.799 321.134 257.139 320.682C259.063 316.384 254.196 306.431 254.196 306.431Z" fill="#F8B68F"/>
<path d="M254.422 312.426C253.517 314.122 253.404 316.158 254.196 317.855C255.441 320.569 255.328 323.623 254.535 325.319C253.969 326.45 252.385 327.581 251.027 328.486C249.555 329.391 248.65 330.861 248.537 332.558C248.31 334.82 248.084 337.647 246.16 338.326C240.501 340.249 238.351 340.136 237.558 335.385C237.332 334.141 237.445 332.332 238.011 330.748C238.803 328.712 238.69 326.45 237.785 324.528C237.219 323.17 236.653 321.813 236.653 320.795C236.653 319.664 237.672 318.194 238.69 316.95C239.935 315.366 240.501 313.33 240.388 311.181C240.162 309.146 240.501 306.544 242.538 304.735C246.386 301.455 255.101 306.657 255.101 306.657C255.101 306.657 256.12 308.919 254.422 312.426Z" fill="#212B53"/>
<path d="M229.296 336.969L225.674 340.701C223.298 343.19 222.505 346.696 225.448 348.619L237.332 358.119L236.2 360.155C235.295 361.852 235.408 364.001 236.653 365.584L237.898 367.281L240.727 357.667L232.126 346.809C231.22 345.791 231.447 344.208 232.578 343.642L229.296 336.969Z" fill="#F8B68F"/>
<path d="M257.025 357.327C257.025 357.327 259.402 363.548 259.402 369.882C259.402 373.388 256.346 399.515 256.346 399.515C256.346 399.515 243.557 399.515 240.728 399.515C241.746 380.174 235.974 377.799 235.974 369.429C235.974 363.548 240.614 357.327 240.614 357.327H257.025Z" fill="#043C5E"/>
<path d="M241.293 438.309C241.293 438.309 239.935 439.44 240.161 440.797C240.388 442.155 240.727 445.321 240.727 445.321H242.085V442.381C242.085 442.155 245.141 445.321 245.594 445.321H253.064C253.064 445.321 253.516 443.286 249.216 442.607C244.802 442.041 241.293 438.309 241.293 438.309Z" fill="#212B53"/>
<path d="M249.216 438.309C249.216 438.309 247.858 439.44 248.084 440.797C248.31 442.155 248.65 445.321 248.65 445.321H250.008V442.381C250.008 442.155 253.064 445.321 253.517 445.321H260.987C260.987 445.321 261.439 443.286 257.138 442.607C252.724 442.041 249.216 438.309 249.216 438.309Z" fill="#11375B"/>
<path d="M307.393 409.407L304.79 409.181C304.79 409.181 304.903 407.371 303.545 406.014C302.527 404.996 300.942 404.544 298.792 404.544C296.415 404.544 294.717 405.109 293.698 406.014C292.68 407.032 292.793 408.163 292.793 408.163L290.19 408.276C290.19 408.05 290.077 406.014 291.774 404.318C293.246 402.734 295.623 402.056 298.792 402.056C301.734 402.056 303.885 402.847 305.469 404.431C307.62 406.58 307.393 409.294 307.393 409.407Z" fill="#212B53"/>
<path d="M318.259 412.461H280.117V437.004H318.259V412.461Z" fill="#212B53"/>
<path d="M300.602 428.974C300.602 430.445 299.923 430.671 299.018 430.671C298.113 430.671 297.433 430.445 297.433 428.974V423.772C286.455 422.641 280.117 420.718 280.117 420.718V421.396V440.058C280.117 441.755 280.796 443.225 281.815 443.225H316.674C317.693 443.225 318.372 441.868 318.372 440.058V420.718C310.449 422.527 309.883 422.641 300.716 423.658V428.974H300.602Z" fill="#FF8889"/>
<path d="M310.675 422.414C308.865 425.92 307.054 429.313 304.79 432.367C301.961 436.213 298.905 439.719 295.623 443.112H316.674C317.693 443.112 318.372 441.755 318.372 439.945V420.604C314.75 421.509 312.713 422.075 310.675 422.414Z" fill="#F04637"/>
<path d="M316.674 407.145H281.815C280.796 407.145 280.117 408.503 280.117 410.312V419.7C286.229 421.736 292.114 422.527 297.434 422.64V421.396C297.434 419.926 298.113 419.7 299.018 419.7C299.924 419.7 300.603 419.926 300.603 421.396V422.64C311.015 422.414 318.259 419.7 318.259 419.7V410.312C318.372 408.503 317.693 407.145 316.674 407.145Z" fill="#6680A1"/>
<path d="M300.49 427.391H297.773C297.434 427.391 297.094 427.051 297.094 426.712V425.129C297.094 424.789 297.434 424.45 297.773 424.45H300.49C300.829 424.45 301.169 424.789 301.169 425.129V426.712C301.169 427.051 300.829 427.391 300.49 427.391ZM297.66 424.563C297.434 424.563 297.207 424.789 297.207 425.015V426.599C297.207 426.825 297.434 427.051 297.66 427.051H300.376C300.603 427.051 300.829 426.825 300.829 426.599V425.015C300.829 424.789 300.603 424.563 300.376 424.563H297.66Z" fill="white"/>
<path d="M299.244 425.694C299.244 425.807 299.131 425.807 299.018 425.807C298.905 425.807 298.792 425.694 298.792 425.694V423.432C298.792 423.319 298.905 423.319 299.018 423.319C299.131 423.319 299.244 423.432 299.244 423.432V425.694Z" fill="white"/>
<path d="M320.583 83.7043H330.201V87.2954H320.583V83.7043Z" fill="#1A2350"/>
<path d="M198.864 6.82642C198.864 6.82642 206.793 6.82642 211.418 6.82642C221.182 6.82642 245.408 29.3987 245.408 29.3987H381.737C381.737 36.5808 340.773 80.5529 333.578 80.5529L314.417 55.1957L243.206 42.3705C239.902 42.3705 233.956 51.0183 222.577 51.0183C215.015 51.0183 208.775 45.8882 206.94 38.926L198.864 6.82642Z" fill="#FF6D6E"/>
<path d="M251.428 34.8221L245.335 29.3989H366.908L356.777 34.8221H251.428Z" fill="#F04637"/>
<path d="M376.452 21.777C376.452 23.6092 377.993 25.1482 379.829 25.1482C381.664 25.1482 383.206 23.6092 383.206 21.777V4.0416C383.206 2.20943 381.664 0.67041 379.829 0.67041C377.993 0.67041 376.452 2.20943 376.452 4.0416V21.777Z" fill="#F04637"/>
<path d="M329.981 64.9428C329.981 84.5836 345.911 100.487 365.586 100.487H446.341C466.016 100.487 481.947 102.905 481.947 83.2645C481.947 63.6236 429.236 29.3254 409.561 29.3254H365.586C345.911 29.3987 329.981 45.3019 329.981 64.9428Z" fill="#FF8889"/>
<path d="M250.18 4.33466C250.18 5.28738 250.621 7.85242 253.704 7.85242L379.829 6.02025L505.953 7.85242C509.183 7.85242 509.477 5.28738 509.477 4.33466C509.477 3.38193 508.67 0.816895 505.953 0.816895L379.829 2.64906L253.704 0.816895C250.474 0.816895 250.18 3.38193 250.18 4.33466Z" fill="#25374B"/>
<path d="M372.928 11.8832C372.928 13.7887 374.543 15.401 376.452 15.401H383.206C385.114 15.401 386.729 13.862 386.729 11.8832C386.729 9.97779 385.188 8.36548 383.206 8.36548H376.452C374.543 8.36548 372.928 9.97779 372.928 11.8832Z" fill="#25374B"/>
<path d="M326.016 47.3542C323.502 47.3542 321.465 45.3198 321.465 42.8104C321.465 40.3009 323.502 38.2666 326.016 38.2666C328.53 38.2666 330.568 40.3009 330.568 42.8104C330.568 45.3198 328.53 47.3542 326.016 47.3542Z" fill="#F04637"/>
<path d="M429.236 35.042C452.361 45.5953 481.947 68.534 481.947 83.2647C481.947 85.6098 481.727 87.5886 481.286 89.3475H453.242C427.988 89.3475 407.505 92.4255 407.505 67.1416C407.505 57.9807 416.535 46.2549 429.236 35.042Z" fill="#ACC1D6"/>
<path d="M429.236 35.042C431.805 36.2146 434.522 37.5337 437.165 38.9995C426.079 49.626 418.517 60.3992 418.517 69.047C418.517 79.9668 422.115 85.8297 428.208 89.0543C415.728 87.8084 407.505 83.1914 407.505 67.2149C407.505 57.9807 416.535 46.2549 429.236 35.042Z" fill="#6680A1"/>
<path d="M475.193 89.4206C475.193 89.4206 479.304 82.5317 471.522 77.4749L462.052 73.8105L454.857 81.5789L458.234 84.657C458.234 84.657 463.447 84.9501 462.198 89.4206H475.193Z" fill="#6680A1"/>
<path d="M451.407 77.1817C451.187 77.768 451.554 78.3543 452.068 78.5008L457.647 80.333C458.234 80.5529 458.822 80.1864 458.968 79.6734C459.189 79.0871 458.822 78.5008 458.308 78.3543L452.728 76.5221C452.214 76.3755 451.627 76.6687 451.407 77.1817Z" fill="#00A4CD"/>
<path d="M427.327 89.0542C427.401 88.3946 427.621 87.735 427.988 87.1487L422.776 68.6072C422.041 66.0421 423.583 63.4038 426.153 62.671C428.722 61.9381 431.365 63.4771 432.099 66.0421L437.458 85.3166C437.458 85.3898 437.458 85.4631 437.532 85.5364H447.883C450.012 85.5364 451.774 87.2953 451.774 89.4206V89.4939C442.744 89.4206 434.301 89.787 427.327 89.0542Z" fill="#6680A1"/>
<path d="M450.746 77.4017C450.526 78.1346 450.893 79.014 451.7 79.2339C452.435 79.4538 453.316 79.0873 453.536 78.2812L456.619 69.1203C456.839 68.3875 456.472 67.508 455.665 67.2882C454.931 67.0683 454.05 67.4347 453.829 68.2409L450.746 77.4017Z" fill="#6680A1"/>
<path d="M401.559 69.6332C401.559 69.6332 402.293 94.624 426.593 94.624H404.789C404.789 94.624 370.578 94.624 357.731 94.624C343.268 85.683 344.883 59.2265 363.017 41.7109L401.559 69.6332Z" fill="#FF8889"/>
<path d="M401.706 68.2407C401.706 69.7064 400.898 72.4913 396.934 72.4913H378.727C369.33 72.4913 361.255 58.86 361.255 49.5526C361.255 34.6021 373.368 35.3349 388.344 35.3349C388.344 35.3349 401.118 35.3349 405.964 35.3349C413.011 35.3349 413.525 41.8575 410.882 45.0088C404.055 53.2902 401.706 61.3517 401.706 68.2407Z" fill="#6680A1"/>
<path d="M405.964 39.439C401.045 39.439 388.345 39.439 388.345 39.439C374.176 39.439 362.503 38.7795 361.402 51.4581C361.328 50.7985 361.255 50.1389 361.255 49.4793C361.255 34.5288 373.368 35.2617 388.345 35.2617C388.345 35.2617 401.119 35.2617 405.964 35.2617C411.69 35.2617 413.085 39.5856 411.984 42.8835C411.323 40.9781 409.414 39.439 405.964 39.439Z" fill="#007D9E"/>
<path d="M402.146 62.9641C400.898 63.5504 399.503 63.8435 398.035 63.8435C392.382 63.8435 387.757 59.2265 387.757 53.5834C387.757 47.9403 392.382 43.3232 398.035 43.3232C402.293 43.3232 405.964 45.8883 407.505 49.6259C404.569 54.3163 402.88 58.7867 402.146 62.9641Z" fill="#ACC1D6"/>
<path d="M361.402 47.5005C363.237 45.0088 366.247 43.3965 369.624 43.3965C375.277 43.3965 379.902 48.0135 379.902 53.6566C379.902 59.2997 375.277 63.9168 369.624 63.9168C368.229 63.9168 366.908 63.6236 365.733 63.1839C363.017 59.1531 361.328 54.6094 361.328 49.6259C361.255 48.8197 361.328 48.1601 361.402 47.5005Z" fill="#ACC1D6"/>
<path d="M384.454 77.2549C384.454 78.2077 385.261 78.9405 386.142 78.9405H396.2C397.154 78.9405 397.888 78.1344 397.888 77.2549C397.888 76.3022 397.081 75.5693 396.2 75.5693H386.142C385.188 75.5693 384.454 76.3022 384.454 77.2549Z" fill="#F04637"/>
<path d="M478.863 94.624C473.284 101.806 460.804 100.56 446.268 100.56H365.513C358.245 100.56 351.491 98.3616 345.838 94.624H478.863Z" fill="#F04637"/>
<path d="M359.787 121.007H457.867C486.572 121.007 499.126 102.686 499.64 101.879C500.447 100.634 500.154 98.8747 498.906 98.0685C497.657 97.1891 495.969 97.5555 495.088 98.8014C494.648 99.461 483.489 115.438 457.867 115.438H359.787C358.245 115.438 356.997 116.683 356.997 118.222C356.997 119.835 358.245 121.007 359.787 121.007Z" fill="#25374B"/>
<path d="M385.481 100.34H391.134V115.511H385.481V100.34Z" fill="#25374B"/>
<path d="M456.472 100.34L468.953 115.511H474.605L462.125 100.34H456.472Z" fill="#25374B"/>
<path d="M254.218 44.3494L247.757 53.8766H252.162L264.716 46.2548L254.218 44.3494Z" fill="#1A2350"/>
<path d="M350.316 26.9804C350.316 30.4249 353.106 33.283 356.63 33.283H403.174C406.625 33.283 409.488 30.4982 409.488 26.9804C409.488 23.5359 406.698 20.6777 403.174 20.6777H356.63C353.106 20.6777 350.316 23.5359 350.316 26.9804Z" fill="#F04637"/>
<path d="M330.862 89.1275H365.513C368.229 89.1275 370.432 86.9289 370.432 84.2173C370.432 81.5057 368.229 79.3071 365.513 79.3071H326.897C324.181 79.3071 321.758 79.4537 321.538 82.3852C325.429 82.605 328.145 89.1275 330.862 89.1275Z" fill="#F04637"/>
<path d="M402.881 30.9379C400.732 30.9379 398.99 29.1661 398.99 26.9804C398.99 24.7948 400.732 23.0229 402.881 23.0229C405.029 23.0229 406.771 24.7948 406.771 26.9804C406.771 29.1661 405.029 30.9379 402.881 30.9379Z" fill="#25374B"/>
<path d="M146.97 140.802L5.76457 184.941C2.58088 185.937 0.801954 189.34 1.79121 192.543L27.194 274.785C28.1833 277.988 31.5661 279.777 34.7498 278.782L175.955 234.643C179.139 233.648 180.917 230.244 179.928 227.042L154.525 144.799C153.536 141.596 150.153 139.807 146.97 140.802Z" fill="url(#paint18_linear)"/>
<path d="M146.238 142.101L8.14958 185.266C4.96589 186.261 3.18696 189.664 4.17622 192.867L28.5531 271.789C29.5424 274.991 32.9252 276.781 36.1089 275.786L174.198 232.62C177.381 231.625 179.16 228.222 178.171 225.019L153.794 146.098C152.805 142.895 149.422 141.106 146.238 142.101Z" fill="white"/>
<path d="M155.688 152.228L6.06958 198.997L10.0793 211.979L159.697 165.209L155.688 152.228Z" fill="#F04637"/>
<path d="M75.0153 245.157L37.0005 257.04L38.7344 262.654L76.7492 250.771L75.0153 245.157Z" fill="#6680A1"/>
<path d="M99.99 226.962L34.0745 247.567L35.8084 253.181L101.724 232.576L99.99 226.962Z" fill="#ACC1D6"/>
<path d="M196.481 192.163H47.7148C44.381 192.163 41.6783 194.882 41.6783 198.236V284.454C41.6783 287.808 44.381 290.527 47.7148 290.527H196.481C199.815 290.527 202.518 287.808 202.518 284.454V198.236C202.518 194.882 199.815 192.163 196.481 192.163Z" fill="url(#paint19_linear)"/>
<path d="M194.142 193.166H49.5408C46.207 193.166 43.5044 195.885 43.5044 199.239V281.882C43.5044 285.236 46.207 287.955 49.5408 287.955H194.142C197.476 287.955 200.179 285.236 200.179 281.882V199.239C200.179 195.885 197.476 193.166 194.142 193.166Z" fill="white"/>
<path d="M85.3278 239.182H80.7627V252.225H85.3278V239.182Z" fill="#ACC1D6"/>
<path d="M91.1711 239.182H86.606V252.225H91.1711V239.182Z" fill="#ACC1D6"/>
<path d="M97.0146 239.182H92.4495V252.225H97.0146V239.182Z" fill="#ACC1D6"/>
<path d="M107.24 239.182H102.675V252.225H107.24V239.182Z" fill="#ACC1D6"/>
<path d="M113.084 239.182H108.519V252.225H113.084V239.182Z" fill="#ACC1D6"/>
<path d="M118.927 239.182H114.362V252.225H118.927V239.182Z" fill="#ACC1D6"/>
<path d="M129.153 239.182H124.588V252.225H129.153V239.182Z" fill="#ACC1D6"/>
<path d="M134.996 239.182H130.431V252.225H134.996V239.182Z" fill="#ACC1D6"/>
<path d="M140.84 239.182H136.274V252.225H140.84V239.182Z" fill="#ACC1D6"/>
<path d="M151.065 239.182H146.5V252.225H151.065V239.182Z" fill="#ACC1D6"/>
<path d="M156.909 239.182H152.344V252.225H156.909V239.182Z" fill="#ACC1D6"/>
<path d="M162.752 239.182H158.187V252.225H162.752V239.182Z" fill="#ACC1D6"/>
<path d="M80.6913 218H53.4724V233.015H80.6913V218Z" fill="#F04637"/>
<path opacity="0.1" d="M175.957 267.243H159.275V284.026H175.957V267.243Z" fill="#6C63FF"/>
<path opacity="0.1" d="M184.299 267.243H167.616V284.026H184.299V267.243Z" fill="#6C63FF"/>
<path d="M79.0235 209.825L102.535 196.955L114.513 194.514L123.607 195.846L79.0235 209.825Z" fill="url(#paint20_linear)"/>
<path d="M79.0235 209.825L123.053 198.619L123.607 195.845" fill="#B0D9C8"/>
<path d="M124.273 206.164H124.162L122.387 213.042L79.1344 209.825L124.273 206.164Z" fill="#63C1C5"/>
<path d="M132.701 202.059L126.38 197.066L79.3562 209.825L119.836 208.604L132.701 202.059Z" fill="url(#paint21_linear)"/>
<path d="M120.208 199.263C121.649 198.708 123.091 198.154 124.422 197.377C124.755 197.266 125.087 197.377 125.309 197.599C125.42 197.932 125.309 198.265 125.087 198.486C123.646 199.263 122.204 199.818 120.651 200.373C120.097 200.594 119.542 200.705 118.988 200.927C118.766 201.038 118.544 200.927 118.433 200.816C118.322 200.705 118.211 200.595 118.211 200.484C118.1 200.151 118.322 199.818 118.655 199.707C119.099 199.596 119.653 199.485 120.208 199.263Z" fill="#63C1C5"/>
<path d="M206.159 107.399C208.155 107.621 210.262 107.954 212.48 108.397C212.813 108.508 213.035 108.841 213.035 109.174C212.924 109.507 212.591 109.729 212.259 109.729C210.04 109.285 207.933 108.952 205.937 108.73C205.826 108.73 205.715 108.619 205.604 108.619C205.382 108.508 205.271 108.286 205.382 108.065C205.493 107.51 205.826 107.288 206.159 107.399Z" fill="#63C1C5"/>
<path d="M195.512 107.843C195.401 107.732 195.29 107.51 195.29 107.288C195.29 106.955 195.623 106.622 195.955 106.622C197.952 106.622 200.17 106.733 202.388 106.844C202.721 106.844 203.053 107.177 202.942 107.51C202.942 107.843 202.61 108.175 202.277 108.064C200.059 107.843 197.952 107.843 195.955 107.843C195.845 107.953 195.623 107.953 195.512 107.843Z" fill="#63C1C5"/>
<path d="M132.518 191.497C132.74 191.275 133.183 191.275 133.405 191.497C133.627 191.719 133.627 192.163 133.405 192.385C131.853 193.938 130.189 195.269 128.415 196.49C128.193 196.601 127.86 196.601 127.638 196.49C127.527 196.49 127.527 196.379 127.527 196.379C127.306 196.046 127.416 195.713 127.749 195.491C129.413 194.382 130.965 193.05 132.518 191.497Z" fill="#63C1C5"/>
<path d="M135.069 189.722C134.847 189.5 134.736 189.056 134.958 188.834C135.291 188.39 135.623 187.947 135.956 187.503C136.843 186.282 137.731 184.951 138.396 183.62C138.618 183.287 138.95 183.176 139.283 183.398C139.616 183.62 139.727 183.952 139.505 184.285C138.729 185.617 137.952 186.948 136.954 188.279C136.622 188.723 136.289 189.167 135.845 189.722C135.845 189.833 135.402 189.944 135.069 189.722C135.18 189.722 135.18 189.722 135.069 189.722Z" fill="#63C1C5"/>
<path d="M140.503 181.068C140.503 181.068 140.392 181.068 140.392 180.957C140.17 180.735 140.06 180.513 140.17 180.18C140.947 178.294 141.612 176.408 142.167 174.189C142.278 173.856 142.61 173.634 142.943 173.745C143.276 173.856 143.498 174.189 143.387 174.522C142.832 176.741 142.167 178.738 141.39 180.624C141.169 180.957 140.836 181.179 140.503 181.068Z" fill="#63C1C5"/>
<path d="M157.472 126.482C156.917 127.147 156.473 127.813 155.919 128.479C155.143 129.477 154.477 130.587 153.812 131.585C153.59 131.918 153.257 132.029 152.925 131.807C152.703 131.585 152.592 131.252 152.814 130.92C153.479 129.81 154.255 128.701 155.032 127.702C155.586 127.036 156.03 126.371 156.584 125.705C156.806 125.483 157.139 125.372 157.472 125.594C157.583 125.816 157.693 126.26 157.472 126.482Z" fill="#63C1C5"/>
<path d="M151.816 134.914C150.817 136.8 150.041 138.686 149.265 140.683C149.154 141.016 148.821 141.238 148.488 141.016C148.377 141.016 148.377 141.016 148.377 140.905C148.156 140.794 148.045 140.461 148.156 140.128C148.932 138.131 149.708 136.134 150.706 134.248C150.817 133.915 151.261 133.804 151.594 134.026C151.926 134.248 152.037 134.581 151.816 134.914Z" fill="#63C1C5"/>
<path d="M164.569 119.381C162.906 120.712 161.353 122.155 159.911 123.708C159.69 123.93 159.357 123.93 159.024 123.819C159.024 123.819 159.024 123.819 158.913 123.819C158.691 123.597 158.691 123.153 158.913 122.931C160.355 121.378 162.019 119.936 163.682 118.494C163.904 118.272 164.348 118.272 164.569 118.604C164.902 118.715 164.791 119.159 164.569 119.381Z" fill="#63C1C5"/>
<path d="M176.325 112.059C176.104 112.17 175.882 112.17 175.66 111.948C175.549 111.837 175.549 111.837 175.438 111.726C175.327 111.393 175.438 111.06 175.771 110.838C177.767 109.951 179.763 109.174 181.871 108.619C182.203 108.508 182.536 108.73 182.647 109.063C182.758 109.396 182.536 109.729 182.203 109.84C180.318 110.505 178.322 111.282 176.325 112.059Z" fill="#63C1C5"/>
<path d="M144.828 161.097C144.718 161.097 144.607 160.986 144.496 160.986C144.274 160.875 144.163 160.653 144.274 160.432L144.385 159.655C144.607 157.769 144.828 155.994 145.05 154.107C145.05 153.775 145.383 153.553 145.716 153.553C146.048 153.553 146.27 153.886 146.27 154.218C146.048 156.105 145.827 157.88 145.605 159.766L145.494 160.542C145.494 160.875 145.272 161.208 144.828 161.097Z" fill="#63C1C5"/>
<path d="M167.564 117.051C167.342 117.162 167.009 117.162 166.788 117.051L166.677 116.94C166.455 116.607 166.566 116.275 166.788 116.053C168.562 114.832 170.447 113.612 172.333 112.613C172.666 112.502 172.998 112.613 173.22 112.835C173.331 113.168 173.22 113.501 172.998 113.723C171.113 114.721 169.338 115.831 167.564 117.051Z" fill="#63C1C5"/>
<path d="M144.607 163.649C144.939 163.649 145.161 163.982 145.161 164.315C144.829 166.756 144.496 168.864 144.163 170.639C144.052 170.972 143.719 171.194 143.387 171.194C143.276 171.194 143.165 171.083 143.165 171.083C142.943 170.972 142.832 170.75 142.943 170.417C143.276 168.642 143.609 166.645 143.941 164.093C143.941 163.871 144.274 163.649 144.607 163.649Z" fill="#63C1C5"/>
<path d="M114.884 200.706C115.217 200.595 115.55 200.816 115.661 201.26C115.771 201.593 115.55 201.926 115.106 202.037C113.11 202.481 111.003 202.703 108.674 202.814C108.563 202.814 108.341 202.814 108.23 202.703C108.119 202.592 108.008 202.481 108.008 202.259C108.008 201.926 108.23 201.593 108.563 201.593C110.892 201.26 112.999 201.038 114.884 200.706Z" fill="#63C1C5"/>
<path d="M147.712 143.457C148.045 143.568 148.267 143.9 148.156 144.233C147.601 146.119 147.268 148.116 146.825 150.446C146.714 150.779 146.492 151.001 146.048 151.001C145.938 151.001 145.827 150.89 145.827 150.89C145.605 150.779 145.494 150.557 145.605 150.224C146.048 147.894 146.381 145.787 146.936 143.9C147.047 143.568 147.379 143.346 147.712 143.457Z" fill="#63C1C5"/>
<path d="M189.856 107.066C190.632 106.955 191.298 106.955 192.074 106.844C192.407 106.844 192.739 107.066 192.739 107.399C192.739 107.732 192.517 108.064 192.185 108.064C191.408 108.064 190.743 108.175 189.967 108.286C188.636 108.397 187.305 108.619 185.863 108.952C185.641 108.952 185.53 108.952 185.309 108.841C185.198 108.73 185.087 108.619 185.087 108.508C184.976 108.175 185.198 107.843 185.53 107.732C187.083 107.51 188.414 107.177 189.856 107.066Z" fill="#63C1C5"/>
<defs>
<linearGradient id="paint0_linear" x1="195.045" y1="61.1922" x2="49.5236" y2="61.1922" gradientUnits="userSpaceOnUse">
<stop stop-color="#E0F0EB"/>
<stop offset="1" stop-color="#C0E4EF"/>
</linearGradient>
<linearGradient id="paint1_linear" x1="243.084" y1="284.819" x2="264.287" y2="284.819" gradientUnits="userSpaceOnUse">
<stop stop-color="#E0F0EB"/>
<stop offset="1" stop-color="#C0E4EF"/>
</linearGradient>
<linearGradient id="paint2_linear" x1="289.076" y1="284.819" x2="310.775" y2="284.819" gradientUnits="userSpaceOnUse">
<stop stop-color="#E0F0EB"/>
<stop offset="1" stop-color="#C0E4EF"/>
</linearGradient>
<linearGradient id="paint3_linear" x1="243.084" y1="301.496" x2="264.287" y2="301.496" gradientUnits="userSpaceOnUse">
<stop stop-color="#E0F0EB"/>
<stop offset="1" stop-color="#C0E4EF"/>
</linearGradient>
<linearGradient id="paint4_linear" x1="289.076" y1="301.496" x2="310.775" y2="301.496" gradientUnits="userSpaceOnUse">
<stop stop-color="#E0F0EB"/>
<stop offset="1" stop-color="#C0E4EF"/>
</linearGradient>
<linearGradient id="paint5_linear" x1="243.084" y1="318.113" x2="264.287" y2="318.113" gradientUnits="userSpaceOnUse">
<stop stop-color="#E0F0EB"/>
<stop offset="1" stop-color="#C0E4EF"/>
</linearGradient>
<linearGradient id="paint6_linear" x1="289.076" y1="318.113" x2="310.775" y2="318.113" gradientUnits="userSpaceOnUse">
<stop stop-color="#E0F0EB"/>
<stop offset="1" stop-color="#C0E4EF"/>
</linearGradient>
<linearGradient id="paint7_linear" x1="243.084" y1="334.79" x2="264.287" y2="334.79" gradientUnits="userSpaceOnUse">
<stop stop-color="#E0F0EB"/>
<stop offset="1" stop-color="#C0E4EF"/>
</linearGradient>
<linearGradient id="paint8_linear" x1="289.076" y1="334.79" x2="310.775" y2="334.79" gradientUnits="userSpaceOnUse">
<stop stop-color="#E0F0EB"/>
<stop offset="1" stop-color="#C0E4EF"/>
</linearGradient>
<linearGradient id="paint9_linear" x1="243.084" y1="351.249" x2="264.287" y2="351.249" gradientUnits="userSpaceOnUse">
<stop stop-color="#E0F0EB"/>
<stop offset="1" stop-color="#C0E4EF"/>
</linearGradient>
<linearGradient id="paint10_linear" x1="289.076" y1="351.248" x2="310.775" y2="351.248" gradientUnits="userSpaceOnUse">
<stop stop-color="#E0F0EB"/>
<stop offset="1" stop-color="#C0E4EF"/>
</linearGradient>
<linearGradient id="paint11_linear" x1="243.084" y1="367.926" x2="264.287" y2="367.926" gradientUnits="userSpaceOnUse">
<stop stop-color="#E0F0EB"/>
<stop offset="1" stop-color="#C0E4EF"/>
</linearGradient>
<linearGradient id="paint12_linear" x1="289.076" y1="367.926" x2="310.775" y2="367.926" gradientUnits="userSpaceOnUse">
<stop stop-color="#E0F0EB"/>
<stop offset="1" stop-color="#C0E4EF"/>
</linearGradient>
<linearGradient id="paint13_linear" x1="243.084" y1="384.543" x2="264.287" y2="384.543" gradientUnits="userSpaceOnUse">
<stop stop-color="#E0F0EB"/>
<stop offset="1" stop-color="#C0E4EF"/>
</linearGradient>
<linearGradient id="paint14_linear" x1="289.076" y1="384.543" x2="310.775" y2="384.543" gradientUnits="userSpaceOnUse">
<stop stop-color="#E0F0EB"/>
<stop offset="1" stop-color="#C0E4EF"/>
</linearGradient>
<linearGradient id="paint15_linear" x1="243.084" y1="401.22" x2="264.287" y2="401.22" gradientUnits="userSpaceOnUse">
<stop stop-color="#E0F0EB"/>
<stop offset="1" stop-color="#C0E4EF"/>
</linearGradient>
<linearGradient id="paint16_linear" x1="289.076" y1="401.22" x2="310.775" y2="401.22" gradientUnits="userSpaceOnUse">
<stop stop-color="#E0F0EB"/>
<stop offset="1" stop-color="#C0E4EF"/>
</linearGradient>
<linearGradient id="paint17_linear" x1="479.697" y1="174.612" x2="596.879" y2="174.612" gradientUnits="userSpaceOnUse">
<stop stop-color="#E0F0EB"/>
<stop offset="1" stop-color="#C0E4EF"/>
</linearGradient>
<linearGradient id="paint18_linear" x1="91.1603" y1="279.315" x2="91.7753" y2="140.275" gradientUnits="userSpaceOnUse">
<stop stop-color="#808080" stop-opacity="0.25"/>
<stop offset="0.53514" stop-color="#808080" stop-opacity="0.12"/>
<stop offset="1" stop-color="#808080" stop-opacity="0.1"/>
</linearGradient>
<linearGradient id="paint19_linear" x1="88394.5" y1="67008.2" x2="88394.5" y2="23193.1" gradientUnits="userSpaceOnUse">
<stop stop-color="#808080" stop-opacity="0.25"/>
<stop offset="0.53514" stop-color="#808080" stop-opacity="0.12"/>
<stop offset="1" stop-color="#808080" stop-opacity="0.1"/>
</linearGradient>
<linearGradient id="paint20_linear" x1="123.571" y1="202.19" x2="79.0462" y2="202.19" gradientUnits="userSpaceOnUse">
<stop offset="6.3e-07" stop-color="#F1F8F8"/>
<stop offset="1" stop-color="#C0E4EF"/>
</linearGradient>
<linearGradient id="paint21_linear" x1="132.664" y1="203.408" x2="79.3318" y2="203.408" gradientUnits="userSpaceOnUse">
<stop offset="6.3e-07" stop-color="#F1F8F8"/>
<stop offset="1" stop-color="#C0E4EF"/>
</linearGradient>
</defs>
</svg>
