<svg width="562" height="452" viewBox="0 0 562 452" fill="none" xmlns="http://www.w3.org/2000/svg">
<path d="M147.452 109.275L6.24681 153.415C3.06312 154.41 1.28419 157.813 2.27345 161.016L27.6762 243.258C28.6655 246.461 32.0483 248.251 35.232 247.255L176.437 203.116C179.621 202.121 181.4 198.718 180.41 195.515L155.008 113.272C154.018 110.07 150.636 108.28 147.452 109.275Z" fill="url(#paint0_linear)"/>
<path d="M146.721 110.574L8.63181 153.739C5.44813 154.734 3.6692 158.138 4.65846 161.34L29.0354 240.262C30.0246 243.464 33.4075 245.254 36.5912 244.259L174.68 201.093C177.864 200.098 179.643 196.695 178.653 193.492L154.276 114.571C153.287 111.368 149.904 109.579 146.721 110.574Z" fill="white"/>
<path d="M156.17 120.701L6.55182 167.47L10.5615 180.452L160.179 133.682L156.17 120.701Z" fill="#F04637"/>
<path d="M75.4975 213.63L37.4827 225.513L39.2166 231.127L77.2314 219.244L75.4975 213.63Z" fill="#6680A1"/>
<path d="M100.472 195.436L34.5567 216.04L36.2906 221.654L102.206 201.049L100.472 195.436Z" fill="#ACC1D6"/>
<path d="M196.964 160.636H48.197C44.8632 160.636 42.1606 163.355 42.1606 166.709V252.927C42.1606 256.281 44.8632 259 48.197 259H196.964C200.297 259 203 256.281 203 252.927V166.709C203 163.355 200.297 160.636 196.964 160.636Z" fill="url(#paint1_linear)"/>
<path d="M194.625 161.639H50.023C46.6892 161.639 43.9866 164.358 43.9866 167.712V250.356C43.9866 253.709 46.6892 256.428 50.023 256.428H194.625C197.958 256.428 200.661 253.709 200.661 250.356V167.712C200.661 164.358 197.958 161.639 194.625 161.639Z" fill="white"/>
<path d="M85.8101 207.655H81.2449V220.698H85.8101V207.655Z" fill="#ACC1D6"/>
<path d="M91.6534 207.655H87.0883V220.698H91.6534V207.655Z" fill="#ACC1D6"/>
<path d="M97.4967 207.655H92.9316V220.698H97.4967V207.655Z" fill="#ACC1D6"/>
<path d="M107.723 207.655H103.157V220.698H107.723V207.655Z" fill="#ACC1D6"/>
<path d="M113.566 207.655H109.001V220.698H113.566V207.655Z" fill="#ACC1D6"/>
<path d="M119.409 207.655H114.844V220.698H119.409V207.655Z" fill="#ACC1D6"/>
<path d="M129.635 207.655H125.07V220.698H129.635V207.655Z" fill="#ACC1D6"/>
<path d="M135.478 207.655H130.913V220.698H135.478V207.655Z" fill="#ACC1D6"/>
<path d="M141.322 207.655H136.757V220.698H141.322V207.655Z" fill="#ACC1D6"/>
<path d="M151.548 207.655H146.982V220.698H151.548V207.655Z" fill="#ACC1D6"/>
<path d="M157.391 207.655H152.826V220.698H157.391V207.655Z" fill="#ACC1D6"/>
<path d="M163.234 207.655H158.669V220.698H163.234V207.655Z" fill="#ACC1D6"/>
<path d="M81.1735 186.473H53.9547V201.489H81.1735V186.473Z" fill="#F04637"/>
<path opacity="0.1" d="M176.44 235.716H159.757V252.499H176.44V235.716Z" fill="#6C63FF"/>
<path opacity="0.1" d="M184.781 235.716H168.098V252.499H184.781V235.716Z" fill="#6C63FF"/>
<path d="M561.131 158.655C567.009 184.062 507.01 187.39 482.278 187.612C475.402 187.723 468.637 187.058 461.872 185.726C440.911 181.51 395.218 170.304 401.651 155.216C409.968 135.689 434.811 149.335 434.811 149.335C434.811 149.335 431.706 134.579 474.071 124.816C516.437 115.053 516.215 147.56 516.215 147.56C516.215 147.56 553.812 126.591 561.131 158.655Z" fill="url(#paint2_linear)"/>
<path d="M110.526 77.6632H351.744C351.744 77.6632 364.83 61.1321 351.744 49.9264C344.535 43.8243 335.995 44.379 329.784 46.2651C325.792 47.4855 321.688 44.7118 320.801 40.6068C319.359 33.839 314.812 24.8522 301.836 19.6377C289.082 14.4232 280.986 22.4114 276.328 30.5106C274.776 33.1733 270.672 32.7295 269.785 29.8449C265.682 16.975 251.597 0 205.239 0C146.237 0 152.781 31.3981 158.104 44.379C158.991 46.5979 157.106 49.0388 154.666 48.484C145.572 46.487 128.714 44.0462 121.062 49.9264C110.526 58.3584 110.526 77.6632 110.526 77.6632Z" fill="url(#paint3_linear)"/>
<path d="M448.674 351.26C448.674 351.26 439.247 285.135 481.613 260.616C547.157 313.316 495.254 377.665 495.254 377.665L448.674 351.26Z" fill="#B5CAE7"/>
<path d="M481.502 260.616C481.724 260.838 481.945 260.949 482.167 261.17L473.406 339.278L513.664 311.319C513.775 311.873 513.775 312.428 513.886 312.983L473.073 341.275L470.522 363.797L469.191 363.02L474.182 318.087L452.445 299.78C452.556 299.225 452.778 298.782 452.888 298.227L474.293 316.311L480.504 261.06C481.058 260.949 481.28 260.838 481.502 260.616Z" fill="white"/>
<path d="M468.193 339.832C468.193 339.832 502.019 282.583 548.821 284.359C574.44 334.507 522.869 371.563 522.869 371.563L466.197 384.766L468.193 339.832Z" fill="#6680A1"/>
<path d="M500.356 302.998L509.117 331.179L547.712 284.359C548.045 284.359 548.488 284.359 548.821 284.359C548.932 284.581 549.043 284.803 549.154 284.914L528.525 309.988L555.919 309.1C555.919 309.322 555.919 309.655 555.919 309.877V310.543L527.194 311.541L492.814 353.368L540.947 353.257C540.614 353.701 540.17 354.256 539.838 354.7L491.594 354.811L467.195 384.545L466.197 384.767L466.308 383.324L508.119 332.51L499.247 303.997C499.579 303.664 500.023 303.331 500.356 302.998Z" fill="#00666A"/>
<path d="M479.284 369.677C479.284 369.677 529.967 347.044 556.473 373.338C539.394 447.562 443.794 431.031 443.794 431.031L479.284 369.677Z" fill="#F04637"/>
<path d="M556.473 373.338C556.362 373.671 556.362 373.893 556.252 374.226L485.384 399.522L520.208 421.046C519.653 421.268 519.209 421.601 518.655 421.822L483.609 400.077L455.994 409.951L457.103 407.954L511.002 388.76L524.533 360.69C525.087 360.69 525.642 360.69 526.085 360.801L512.999 388.094L555.919 372.784C556.03 373.006 556.252 373.117 556.473 373.338Z" fill="white"/>
<path d="M230.857 290.127C230.857 290.127 274.776 222.56 241.061 174.187C142.466 198.373 166.533 295.341 166.533 295.341L230.857 290.127Z" fill="#C1D5F0"/>
<path d="M240.95 174.077C240.617 174.188 240.284 174.299 239.952 174.299L209.675 264.277L179.73 213.13C179.398 213.685 178.954 214.24 178.621 214.794L208.898 266.496L200.137 292.458L202.022 292.347L219.434 240.534L252.595 231.547C252.706 230.882 252.817 230.327 252.817 229.661L220.1 238.537L241.504 174.964C241.393 174.742 241.172 174.41 240.95 174.077Z" fill="white"/>
<path d="M215.22 267.604C215.22 267.604 207.346 187.611 155.221 165.755C101.654 207.582 139.25 274.483 139.25 274.483L194.592 317.863L215.22 267.604Z" fill="#6680A1"/>
<path d="M198.806 210.8L174.851 237.206L156.551 166.199C156.108 165.977 155.775 165.866 155.331 165.645C155.11 165.755 154.888 165.977 154.666 166.088L164.537 204.143L135.036 189.165C134.925 189.387 134.703 189.72 134.592 190.053L134.26 190.83L165.202 206.473L181.616 269.824L128.714 245.194C128.825 245.97 129.047 246.636 129.158 247.413L181.949 272.043L193.594 316.977L194.481 317.753L195.146 316.089L175.294 239.203L199.582 212.464C199.361 212.021 199.028 211.466 198.806 210.8Z" fill="#00666A"/>
<path d="M187.937 294.676C187.937 294.676 143.908 244.084 101.543 259.284C82.3562 349.262 195.479 379.995 195.479 379.995L187.937 294.676Z" fill="#F04637"/>
<path d="M101.543 259.284C101.432 259.617 101.432 259.95 101.321 260.283L165.978 324.077L116.848 329.958C117.291 330.512 117.735 331.067 118.178 331.622L167.642 325.742L192.928 350.705L192.706 347.931L143.576 299.447L143.132 261.836C142.577 261.614 141.912 261.392 141.357 261.17L141.801 297.672L102.652 259.062C102.208 259.062 101.875 259.173 101.543 259.284Z" fill="white"/>
<path d="M402.981 43.6023H195.812V135.467C195.812 140.127 201.246 143.788 208.122 143.899L230.747 144.121C235.737 144.232 239.73 146.894 239.73 150.334L240.173 221.007C240.173 224.447 236.181 227.22 231.19 227.22L206.902 227.442C200.026 227.553 194.592 231.325 194.703 235.985L195.812 432.806H402.981V43.6023Z" fill="#475B73"/>
<path d="M472.297 332.51L449.672 332.288C444.682 332.177 440.689 329.514 440.689 326.075L440.245 255.401C440.245 251.962 444.238 249.188 449.229 249.188L473.406 248.855C480.282 248.744 485.716 244.972 485.605 240.312L484.496 43.4915H285.09V432.695H484.607V340.831C484.607 336.282 479.173 332.51 472.297 332.51Z" fill="#475B73"/>
<path d="M472.297 332.51L466.308 332.288C461.317 332.177 457.325 329.514 457.325 326.075L456.881 255.401C456.881 251.962 460.874 249.188 465.864 249.188L473.406 248.855C480.282 248.744 485.716 244.972 485.605 240.312L484.496 43.4915H397.658V432.695H484.607V340.831C484.607 336.282 479.173 332.51 472.297 332.51Z" fill="#25374B"/>
<path d="M484.164 41.4944H195.812V54.919H484.164V41.4944Z" fill="#6680A1"/>
<path d="M484.163 41.4944H396.66V54.919H484.163V41.4944Z" fill="#475B73"/>
<path d="M282.872 320.527H242.17C237.733 320.527 234.074 316.866 234.074 312.428V268.715C234.074 264.277 237.733 260.616 242.17 260.616H282.872C287.308 260.616 290.968 264.277 290.968 268.715V312.428C290.857 316.866 287.308 320.527 282.872 320.527Z" fill="url(#paint4_linear)"/>
<path d="M267.345 260.616H259.582V320.527H267.345V260.616Z" fill="#11375B"/>
<path d="M303.06 293.511V287.631H223.763V293.511H303.06Z" fill="#11375B"/>
<path d="M360.838 320.527H320.025C315.589 320.527 311.929 316.866 311.929 312.428V268.715C311.929 264.277 315.589 260.616 320.025 260.616H360.727C365.163 260.616 368.823 264.277 368.823 268.715V312.428C368.823 316.866 365.274 320.527 360.838 320.527Z" fill="url(#paint5_linear)"/>
<path d="M345.311 260.616H337.548V320.527H345.311V260.616Z" fill="#11375B"/>
<path d="M372.815 287.687H301.725V293.567H372.815V287.687Z" fill="#11375B"/>
<path d="M255.7 221.34V163.426C255.7 149.557 267.678 138.24 282.206 138.24H283.426C298.066 138.24 309.932 149.557 309.932 163.426V221.34H255.7Z" fill="url(#paint6_linear)"/>
<path d="M255.7 221.34V163.426C255.7 149.557 267.678 138.24 282.206 138.24H283.426C298.066 138.24 309.932 149.557 309.932 163.426V221.34H255.7Z" fill="url(#paint7_linear)"/>
<path d="M286.643 131.695H278.99V227.886H286.643V131.695Z" fill="#11375B"/>
<path d="M313.703 175.963H251.597V183.618H313.703V175.963Z" fill="#11375B"/>
<path d="M331.781 221.34V163.426C331.781 149.557 343.758 138.24 358.287 138.24H359.507C374.146 138.24 386.013 149.557 386.013 163.426V221.34H331.781Z" fill="url(#paint8_linear)"/>
<path d="M362.723 131.695H355.071V227.886H362.723V131.695Z" fill="#11375B"/>
<path d="M389.673 175.963H327.234V183.618H389.673V175.963Z" fill="#11375B"/>
<path d="M271.67 83.6545H223.981C222.54 83.6545 221.431 82.434 221.431 81.1027V78.9947C221.431 77.5523 222.651 76.4429 223.981 76.4429H271.67C273.112 76.4429 274.221 77.6633 274.221 78.9947V80.9917C274.221 82.434 273.112 83.6545 271.67 83.6545Z" fill="#6680A1"/>
<path d="M303.167 92.974H255.478C254.037 92.974 252.927 91.7536 252.927 90.4222V88.3142C252.927 86.8719 254.147 85.7625 255.478 85.7625H303.167C304.609 85.7625 305.718 86.9829 305.718 88.3142V90.4222C305.718 91.7536 304.609 92.974 303.167 92.974Z" fill="#6680A1"/>
<path d="M337.77 381.992H290.081C288.639 381.992 287.53 380.772 287.53 379.44V377.332C287.53 375.89 288.75 374.781 290.081 374.781H337.77C339.211 374.781 340.32 376.001 340.32 377.332V379.44C340.32 380.883 339.211 381.992 337.77 381.992Z" fill="#01898C"/>
<path d="M376.364 107.73H347.973C346.864 107.73 345.976 106.842 345.976 105.733V102.515C345.976 101.406 346.864 100.518 347.973 100.518H376.364C377.473 100.518 378.361 101.406 378.361 102.515V105.733C378.472 106.842 377.473 107.73 376.364 107.73Z" fill="#6680A1"/>
<path d="M347.64 371.563H319.248C318.139 371.563 317.252 370.676 317.252 369.566V366.349C317.252 365.239 318.139 364.352 319.248 364.352H347.64C348.749 364.352 349.636 365.239 349.636 366.349V369.566C349.747 370.565 348.749 371.563 347.64 371.563Z" fill="#01898C"/>
<path d="M61.8648 402.291L384.597 402.291V368.341L61.8648 368.341V402.291Z" fill="#6680A1"/>
<path d="M82.3562 334.617H381.244C381.244 334.617 397.325 334.617 407.861 355.586C416.955 373.782 410.301 408.287 408.305 416.497H383.684V415.942C383.684 392.532 364.719 373.56 341.318 373.56C317.918 373.56 298.953 392.532 298.953 415.942V416.497H146.459V415.942C146.459 392.532 127.494 373.56 104.094 373.56C80.6927 373.56 61.728 392.532 61.728 415.942V416.497H55.4064C55.4064 416.497 55.4064 398.301 55.4064 372.561C55.4064 346.822 82.3562 334.617 82.3562 334.617Z" fill="#ACC1D6"/>
<path d="M285.09 334.617H169.305L177.512 292.236H244.61L285.09 334.617Z" fill="white"/>
<path d="M285.09 416.608V334.618L249.822 292.347H177.512L169.305 334.729C169.305 334.729 163.982 340.72 159.435 345.158C154.888 349.707 154.666 359.026 154.666 359.026V416.386L285.09 416.608Z" fill="#6680A1"/>
<path d="M169.305 334.617L177.512 292.236H249.822L285.09 334.617H169.305Z" fill="url(#paint9_linear)"/>
<path d="M334.331 334.618C334.331 334.618 277.992 283.915 257.586 283.915C253.371 288.131 249.822 292.236 249.822 292.236L285.09 334.507H334.331V334.618Z" fill="url(#paint10_linear)"/>
<path d="M257.586 283.915H118.844L107.975 292.236H249.933L257.586 283.915Z" fill="#6680A1"/>
<path d="M82.3562 334.617C82.3562 334.617 85.2397 309.321 107.975 292.236C127.383 292.236 172.411 292.236 172.411 292.236L164.204 334.617H82.3562Z" fill="url(#paint11_linear)"/>
<path d="M176.625 362.244C183.363 362.244 188.825 361.25 188.825 360.025C188.825 358.799 183.363 357.806 176.625 357.806C169.888 357.806 164.426 358.799 164.426 360.025C164.426 361.25 169.888 362.244 176.625 362.244Z" fill="#475B73"/>
<path d="M103.317 364.13C108.769 364.13 113.188 359.709 113.188 354.255C113.188 348.802 108.769 344.381 103.317 344.381C97.8659 344.381 93.4467 348.802 93.4467 354.255C93.4467 359.709 97.8659 364.13 103.317 364.13Z" fill="#25374B"/>
<path d="M341.651 450.669C361.19 450.669 377.03 434.823 377.03 415.276C377.03 395.73 361.19 379.884 341.651 379.884C322.112 379.884 306.273 395.73 306.273 415.276C306.273 434.823 322.112 450.669 341.651 450.669Z" fill="#212B53"/>
<path d="M103.872 450.669C123.411 450.669 139.25 434.823 139.25 415.276C139.25 395.73 123.411 379.884 103.872 379.884C84.3327 379.884 68.4932 395.73 68.4932 415.276C68.4932 434.823 84.3327 450.669 103.872 450.669Z" fill="#212B53"/>
<path d="M389.673 348.153C390.449 347.488 391.447 347.266 392.556 347.266L404.201 361.356C403.98 362.465 403.536 363.353 402.76 364.019C400.209 366.127 395.218 364.241 391.558 359.914C388.009 355.587 387.122 350.261 389.673 348.153Z" fill="white"/>
<path d="M341.54 437.688C353.913 437.688 363.943 427.654 363.943 415.276C363.943 402.899 353.913 392.865 341.54 392.865C329.168 392.865 319.138 402.899 319.138 415.276C319.138 427.654 329.168 437.688 341.54 437.688Z" fill="url(#paint12_linear)"/>
<path d="M103.872 437.688C116.244 437.688 126.274 427.654 126.274 415.276C126.274 402.899 116.244 392.865 103.872 392.865C91.4991 392.865 81.469 402.899 81.469 415.276C81.469 427.654 91.4991 437.688 103.872 437.688Z" fill="url(#paint13_linear)"/>
<path d="M172.3 292.236H177.512L169.305 334.617H164.204L172.3 292.236Z" fill="#ACC1D6"/>
<path d="M288.195 334.618L250.599 290.572L245.719 291.792L281.763 334.618H288.195Z" fill="#ACC1D6"/>
<path d="M288.436 337.081C288.762 331.637 285.755 327.028 281.72 326.786C277.685 326.544 274.149 330.761 273.823 336.204C273.497 341.648 276.504 346.257 280.539 346.499C284.574 346.741 288.11 342.524 288.436 337.081Z" fill="#25374B"/>
<path d="M537.398 160.541L541.39 168.418L532.961 166.532L503.905 157.323L537.398 160.541Z" fill="#B0D9C8"/>
<path d="M541.39 168.418L526.973 167.531L530.522 165.756L541.39 168.418Z" fill="#63C1C5"/>
<path d="M537.398 160.541L539.948 152.775L503.905 157.324L537.398 160.541Z" fill="white"/>
<path d="M503.905 157.323L532.961 166.532L528.636 177.738L503.905 157.323Z" fill="white"/>
<path d="M538.285 176.518C538.396 176.518 538.396 176.407 538.507 176.407C538.729 176.074 538.729 175.741 538.396 175.408C537.509 174.631 536.51 173.966 535.512 173.3C535.18 173.078 534.736 173.189 534.625 173.522C534.403 173.855 534.514 174.299 534.847 174.41C535.734 174.964 536.621 175.63 537.509 176.296C537.73 176.518 537.952 176.628 538.285 176.518Z" fill="#63C1C5"/>
<path d="M527.638 250.63C527.416 250.298 527.527 249.854 527.86 249.743C529.634 248.633 531.409 247.191 532.851 245.416C533.072 245.083 533.516 245.083 533.849 245.305C534.181 245.527 534.181 245.971 533.96 246.303C532.407 248.19 530.633 249.743 528.636 250.963C528.304 251.074 527.86 250.963 527.638 250.63ZM535.401 242.975C535.069 242.753 534.958 242.42 535.18 242.087C536.289 240.201 537.065 238.093 537.62 235.874C537.73 235.542 538.063 235.32 538.396 235.431C538.729 235.542 538.95 235.874 538.839 236.207C538.285 238.537 537.398 240.645 536.289 242.753C536.178 242.864 536.067 242.975 535.956 242.975C535.845 243.197 535.623 243.197 535.401 242.975ZM538.839 232.657C538.507 232.657 538.174 232.324 538.174 231.88V231.547C538.285 229.439 538.174 227.331 537.841 225.223C537.73 224.891 538.063 224.558 538.396 224.447C538.729 224.336 539.061 224.669 539.172 225.002C539.505 227.221 539.616 229.55 539.505 231.658V231.991C539.505 232.213 539.394 232.435 539.172 232.546C539.172 232.657 538.95 232.768 538.839 232.657ZM537.952 221.784C537.62 221.895 537.176 221.673 537.176 221.34C536.621 219.343 535.845 217.124 534.958 214.905C534.847 214.573 534.958 214.129 535.291 214.018C535.623 213.907 536.067 214.018 536.178 214.351C537.176 216.57 537.841 218.789 538.396 220.897C538.507 221.229 538.285 221.562 538.063 221.673C538.063 221.784 537.952 221.784 537.952 221.784ZM534.071 211.577C533.738 211.688 533.294 211.577 533.183 211.244C533.072 211.022 532.962 210.911 532.962 210.689C532.296 211.022 531.52 211.244 530.743 211.466C530.411 211.577 529.967 211.355 529.856 211.022C529.745 210.689 529.967 210.246 530.3 210.135C530.965 209.913 531.631 209.691 532.185 209.469C531.52 208.138 530.743 206.695 529.856 205.253C529.634 204.92 529.745 204.476 530.078 204.365C530.411 204.143 530.854 204.254 530.965 204.587C531.852 206.14 532.629 207.583 533.405 209.025C534.403 208.581 535.291 208.027 536.178 207.472C536.51 207.25 536.954 207.361 537.065 207.694C537.287 208.027 537.176 208.47 536.843 208.581C535.956 209.247 534.958 209.802 533.849 210.246C533.96 210.357 533.96 210.578 534.071 210.689C534.625 211.022 534.403 211.355 534.071 211.577ZM539.505 205.808C539.283 205.586 539.283 205.142 539.505 204.809C540.503 203.811 541.279 202.701 541.945 201.592C542.388 200.926 542.721 200.149 543.054 199.373C543.165 199.04 543.608 198.818 543.941 199.04C544.274 199.151 544.496 199.595 544.274 199.927C543.941 200.815 543.497 201.592 543.054 202.368C542.278 203.589 541.39 204.809 540.392 205.808C540.392 205.808 540.281 205.919 540.17 205.919C539.949 206.141 539.727 206.03 539.505 205.808ZM526.64 212.243C524.2 212.465 521.871 212.243 519.653 211.688C519.32 211.577 519.098 211.244 519.209 210.911C519.32 210.578 519.653 210.357 519.986 210.467C522.093 211.022 524.311 211.133 526.529 211.022C526.862 211.022 527.194 211.244 527.305 211.688C527.305 212.021 527.194 212.243 526.973 212.354C526.751 212.243 526.64 212.243 526.64 212.243ZM544.717 196.377C544.385 196.266 544.052 195.933 544.163 195.601C544.496 193.492 544.607 191.274 544.274 188.944C544.163 188.611 544.496 188.278 544.828 188.167C545.161 188.056 545.494 188.389 545.605 188.722C545.937 191.163 545.937 193.492 545.494 195.711C545.494 195.933 545.272 196.155 545.161 196.155C545.05 196.377 544.828 196.377 544.717 196.377ZM515.549 210.135C514.995 209.802 514.44 209.58 513.997 209.247C512.555 208.249 511.224 207.028 510.115 205.586C509.893 205.253 510.004 204.809 510.226 204.587C510.559 204.365 511.002 204.476 511.224 204.698C512.111 206.03 513.331 207.139 514.662 208.027C515.106 208.359 515.66 208.581 516.104 208.914C516.437 209.136 516.548 209.469 516.437 209.802C516.326 209.913 516.215 210.024 516.104 210.135C515.993 210.246 515.771 210.246 515.549 210.135ZM527.86 201.814C526.418 199.595 525.087 197.93 523.646 196.599C523.313 196.377 523.313 195.933 523.646 195.601C523.867 195.379 524.311 195.268 524.644 195.601C526.085 196.932 527.527 198.707 529.08 201.037C529.302 201.37 529.191 201.814 528.858 201.925C528.858 201.925 528.858 201.925 528.747 201.925C528.414 202.146 528.082 202.035 527.86 201.814ZM544.163 185.504C543.83 185.615 543.387 185.393 543.276 185.06C542.943 184.062 542.499 183.174 542.056 182.287C541.501 181.177 540.836 180.179 540.17 179.18C539.949 178.847 540.059 178.404 540.281 178.182C540.614 177.96 541.058 177.96 541.279 178.293C542.056 179.291 542.721 180.401 543.276 181.51C543.719 182.509 544.163 183.507 544.496 184.506C544.717 185.06 544.496 185.393 544.163 185.504ZM509.117 202.146C508.784 202.257 508.341 202.035 508.341 201.703C507.897 199.817 508.008 197.93 508.895 196.266C509.228 195.711 509.561 195.157 510.004 194.713C510.226 194.491 510.67 194.491 511.002 194.713C511.224 194.935 511.224 195.379 511.002 195.711C510.67 196.044 510.337 196.488 510.115 197.043C509.45 198.374 509.228 199.817 509.672 201.481C509.782 201.814 509.561 202.146 509.339 202.257C509.228 202.146 509.117 202.146 509.117 202.146ZM520.429 194.38C518.544 193.492 516.215 193.271 514.219 193.825C513.886 193.936 513.442 193.714 513.442 193.382C513.331 193.049 513.553 192.605 513.886 192.605C516.215 192.05 518.877 192.272 520.984 193.271C521.317 193.382 521.427 193.825 521.317 194.158C521.206 194.269 521.095 194.38 520.984 194.491C520.873 194.491 520.651 194.491 520.429 194.38Z" fill="#63C1C5"/>
<path d="M524.755 252.517C525.087 252.406 525.198 252.073 525.087 251.74C524.976 251.407 524.644 251.185 524.2 251.296C523.202 251.629 522.093 251.74 520.984 251.851C520.651 251.851 520.318 252.184 520.318 252.517C520.318 252.849 520.651 253.182 520.984 253.182C522.204 253.071 523.313 252.96 524.422 252.628C524.644 252.628 524.755 252.628 524.755 252.517Z" fill="#63C1C5"/>
<path d="M100.023 188.825L123.535 175.955L135.513 173.514L144.607 174.846L100.023 188.825Z" fill="url(#paint14_linear)"/>
<path d="M100.023 188.825L144.053 177.619L144.607 174.845" fill="#B0D9C8"/>
<path d="M145.272 185.164H145.162L143.387 192.042L100.134 188.825L145.272 185.164Z" fill="#63C1C5"/>
<path d="M153.701 181.059L147.38 176.066L100.356 188.825L140.836 187.604L153.701 181.059Z" fill="url(#paint15_linear)"/>
<path d="M141.208 178.263C142.649 177.708 144.091 177.154 145.422 176.377C145.755 176.266 146.087 176.377 146.309 176.599C146.42 176.932 146.309 177.265 146.087 177.486C144.646 178.263 143.204 178.818 141.651 179.373C141.097 179.594 140.542 179.705 139.988 179.927C139.766 180.038 139.544 179.927 139.433 179.816C139.322 179.705 139.211 179.595 139.211 179.484C139.1 179.151 139.322 178.818 139.655 178.707C140.099 178.596 140.653 178.485 141.208 178.263Z" fill="#63C1C5"/>
<path d="M227.159 86.3988C229.155 86.6207 231.262 86.9536 233.48 87.3974C233.813 87.5083 234.035 87.8411 234.035 88.174C233.924 88.5068 233.591 88.7287 233.258 88.7287C231.04 88.2849 228.933 87.9521 226.937 87.7302C226.826 87.7302 226.715 87.6193 226.604 87.6193C226.382 87.5083 226.271 87.2864 226.382 87.0645C226.493 86.5098 226.826 86.2879 227.159 86.3988Z" fill="#63C1C5"/>
<path d="M216.512 86.8425C216.401 86.7316 216.29 86.5097 216.29 86.2878C216.29 85.9549 216.623 85.6221 216.955 85.6221C218.952 85.6221 221.17 85.733 223.388 85.844C223.721 85.844 224.053 86.1768 223.942 86.5097C223.942 86.8425 223.61 87.1753 223.277 87.0644C221.059 86.8425 218.952 86.8425 216.955 86.8425C216.844 86.9535 216.623 86.9535 216.512 86.8425Z" fill="#63C1C5"/>
<path d="M153.518 170.497C153.74 170.275 154.183 170.275 154.405 170.497C154.627 170.719 154.627 171.163 154.405 171.385C152.853 172.938 151.189 174.269 149.415 175.49C149.193 175.601 148.86 175.601 148.638 175.49C148.527 175.49 148.527 175.379 148.527 175.379C148.305 175.046 148.416 174.713 148.749 174.491C150.413 173.382 151.965 172.05 153.518 170.497Z" fill="#63C1C5"/>
<path d="M156.069 168.722C155.847 168.5 155.736 168.056 155.958 167.834C156.291 167.39 156.623 166.947 156.956 166.503C157.843 165.282 158.731 163.951 159.396 162.62C159.618 162.287 159.95 162.176 160.283 162.398C160.616 162.62 160.727 162.952 160.505 163.285C159.729 164.617 158.952 165.948 157.954 167.279C157.621 167.723 157.289 168.167 156.845 168.722C156.845 168.833 156.402 168.944 156.069 168.722C156.18 168.722 156.18 168.722 156.069 168.722Z" fill="#63C1C5"/>
<path d="M161.503 160.068C161.503 160.068 161.392 160.068 161.392 159.957C161.17 159.735 161.059 159.513 161.17 159.18C161.947 157.294 162.612 155.408 163.167 153.189C163.278 152.856 163.61 152.634 163.943 152.745C164.276 152.856 164.498 153.189 164.387 153.522C163.832 155.741 163.167 157.738 162.39 159.624C162.169 159.957 161.836 160.179 161.503 160.068Z" fill="#63C1C5"/>
<path d="M178.472 105.482C177.917 106.147 177.473 106.813 176.919 107.479C176.143 108.477 175.477 109.587 174.812 110.585C174.59 110.918 174.257 111.029 173.924 110.807C173.703 110.585 173.592 110.252 173.814 109.92C174.479 108.81 175.255 107.701 176.032 106.702C176.586 106.036 177.03 105.371 177.584 104.705C177.806 104.483 178.139 104.372 178.472 104.594C178.582 104.816 178.693 105.26 178.472 105.482Z" fill="#63C1C5"/>
<path d="M172.815 113.914C171.817 115.8 171.041 117.686 170.265 119.683C170.154 120.016 169.821 120.238 169.488 120.016C169.377 120.016 169.377 120.016 169.377 119.905C169.156 119.794 169.045 119.461 169.156 119.128C169.932 117.131 170.708 115.134 171.706 113.248C171.817 112.915 172.261 112.804 172.594 113.026C172.926 113.248 173.037 113.581 172.815 113.914Z" fill="#63C1C5"/>
<path d="M185.569 98.3811C183.906 99.7125 182.353 101.155 180.911 102.708C180.69 102.93 180.357 102.93 180.024 102.819C180.024 102.819 180.024 102.819 179.913 102.819C179.691 102.597 179.691 102.153 179.913 101.931C181.355 100.378 183.019 98.9358 184.682 97.4935C184.904 97.2716 185.348 97.2716 185.569 97.6045C185.902 97.7154 185.791 98.1592 185.569 98.3811Z" fill="#63C1C5"/>
<path d="M197.325 91.0586C197.103 91.1695 196.882 91.1695 196.66 90.9476C196.549 90.8367 196.549 90.8367 196.438 90.7257C196.327 90.3929 196.438 90.06 196.771 89.8381C198.767 88.9506 200.763 88.1739 202.871 87.6192C203.203 87.5082 203.536 87.7301 203.647 88.063C203.758 88.3958 203.536 88.7287 203.203 88.8396C201.318 89.5053 199.322 90.2819 197.325 91.0586Z" fill="#63C1C5"/>
<path d="M165.828 140.097C165.717 140.097 165.607 139.986 165.496 139.986C165.274 139.875 165.163 139.653 165.274 139.432L165.385 138.655C165.607 136.769 165.828 134.994 166.05 133.107C166.05 132.775 166.383 132.553 166.716 132.553C167.048 132.553 167.27 132.886 167.27 133.218C167.048 135.105 166.827 136.88 166.605 138.766L166.494 139.542C166.494 139.875 166.272 140.208 165.828 140.097Z" fill="#63C1C5"/>
<path d="M188.564 96.0513C188.342 96.1622 188.009 96.1622 187.788 96.0513L187.677 95.9403C187.455 95.6075 187.566 95.2746 187.788 95.0527C189.562 93.8323 191.447 92.6119 193.333 91.6133C193.665 91.5024 193.998 91.6134 194.22 91.8352C194.331 92.1681 194.22 92.5009 193.998 92.7228C192.113 93.7214 190.338 94.8308 188.564 96.0513Z" fill="#63C1C5"/>
<path d="M165.607 142.649C165.939 142.649 166.161 142.982 166.161 143.315C165.828 145.756 165.496 147.864 165.163 149.639C165.052 149.972 164.719 150.194 164.387 150.194C164.276 150.194 164.165 150.083 164.165 150.083C163.943 149.972 163.832 149.75 163.943 149.417C164.276 147.642 164.608 145.645 164.941 143.093C164.941 142.871 165.274 142.649 165.607 142.649Z" fill="#63C1C5"/>
<path d="M135.884 179.706C136.217 179.595 136.55 179.816 136.661 180.26C136.771 180.593 136.55 180.926 136.106 181.037C134.11 181.481 132.003 181.703 129.674 181.814C129.563 181.814 129.341 181.814 129.23 181.703C129.119 181.592 129.008 181.481 129.008 181.259C129.008 180.926 129.23 180.593 129.563 180.593C131.892 180.26 133.999 180.038 135.884 179.706Z" fill="#63C1C5"/>
<path d="M168.712 122.457C169.045 122.568 169.266 122.9 169.156 123.233C168.601 125.119 168.268 127.116 167.825 129.446C167.714 129.779 167.492 130.001 167.048 130.001C166.937 130.001 166.827 129.89 166.827 129.89C166.605 129.779 166.494 129.557 166.605 129.224C167.048 126.894 167.381 124.787 167.936 122.9C168.047 122.568 168.379 122.346 168.712 122.457Z" fill="#63C1C5"/>
<path d="M210.856 86.0659C211.632 85.9549 212.297 85.9549 213.074 85.844C213.406 85.844 213.739 86.0659 213.739 86.3987C213.739 86.7316 213.517 87.0644 213.185 87.0644C212.408 87.0644 211.743 87.1754 210.967 87.2863C209.636 87.3973 208.305 87.6192 206.863 87.952C206.641 87.952 206.53 87.952 206.309 87.841C206.198 87.7301 206.087 87.6192 206.087 87.5082C205.976 87.1754 206.198 86.8425 206.53 86.7316C208.083 86.5097 209.414 86.1768 210.856 86.0659Z" fill="#63C1C5"/>
<path d="M441.798 167.087H413.406C412.297 167.087 411.41 166.199 411.41 165.09V161.872C411.41 160.763 412.297 159.875 413.406 159.875H441.798C442.907 159.875 443.794 160.763 443.794 161.872V165.09C443.794 166.199 442.907 167.087 441.798 167.087Z" fill="#475B73"/>
<path d="M470.19 367.458H441.798C440.689 367.458 439.802 366.571 439.802 365.461V362.244C439.802 361.134 440.689 360.247 441.798 360.247H470.19C471.299 360.247 472.186 361.134 472.186 362.244V365.461C472.297 366.571 471.299 367.458 470.19 367.458Z" fill="#11375B"/>
<path d="M472.962 179.735H430.042C428.6 179.735 427.491 178.625 427.491 177.183V174.52C427.491 173.078 428.6 171.969 430.042 171.969H472.962C474.404 171.969 475.513 173.078 475.513 174.52V177.183C475.513 178.625 474.404 179.735 472.962 179.735Z" fill="#475B73"/>
<path d="M43.5397 337.502C43.5397 337.502 34.5564 354.81 35.2218 358.693C35.8872 362.576 43.5397 369.122 43.5397 369.122L44.7596 367.014L40.8779 358.139L45.9796 343.605L43.5397 337.502Z" fill="#F8B68F"/>
<path d="M53.1883 330.069L52.412 335.061H47.9758L47.5322 327.406L53.1883 330.069Z" fill="#F4A086"/>
<path d="M61.1735 352.036V338.057C55.5173 334.063 51.5248 334.507 51.5248 334.507C50.5266 334.396 50.3048 334.396 48.974 334.396C48.974 334.396 39.5471 333.73 41.2106 348.597C44.9814 361.356 43.2069 366.903 43.2069 366.903C43.2069 366.903 53.0774 370.898 58.6227 368.124C57.1809 364.906 59.7317 356.252 61.1735 352.036Z" fill="#6680A1"/>
<path d="M46.5341 332.843C46.5341 332.843 42.7633 335.062 42.7633 338.501C42.7633 340.609 43.6505 341.94 44.5378 343.494C46.0904 345.934 46.0904 349.263 44.316 351.593C44.316 351.593 44.316 351.704 44.2051 351.704C43.5396 352.591 43.4287 353.479 43.5396 354.366C44.2051 357.695 48.7521 358.139 50.5266 355.254C51.192 354.145 51.7466 352.924 52.3011 351.482C53.0774 349.041 52.3011 347.488 51.4139 346.6C50.6375 345.823 50.5266 344.603 51.303 343.715C52.7447 342.273 54.0756 340.054 52.3011 338.168C49.3067 334.951 48.5303 331.955 48.5303 331.955L46.5341 332.843Z" fill="#212B53"/>
<path d="M38.1053 444.567L40.767 445.01C41.3215 441.682 49.5285 426.149 50.1939 418.161C50.9702 409.174 52.9665 399.189 52.9665 399.189L44.0942 396.526C44.0942 396.526 41.8761 396.526 44.316 414.833C38.8816 422.044 37.4399 438.576 38.1053 444.567Z" fill="#F4A086"/>
<path d="M57.1809 318.419L49.0848 318.086L47.6431 323.745C47.6431 323.856 47.6431 323.856 47.6431 323.967C47.754 324.078 47.8649 324.078 47.9758 324.189C47.9758 324.189 47.9758 324.189 48.0867 324.189C48.0867 324.189 48.0867 324.189 48.1976 324.189C49.6394 325.298 50.3048 327.073 50.1939 328.848C51.192 329.403 52.1902 329.847 53.2992 330.069C54.0756 330.18 54.741 330.291 55.1846 330.069C57.8463 327.406 57.1809 318.419 57.1809 318.419Z" fill="#F8B68F"/>
<path d="M46.4231 331.733C48.5303 331.955 45.2032 331.733 48.5303 331.955C48.6412 330.18 54.4083 325.52 55.5173 324.632C58.2899 322.192 58.0681 319.307 58.0681 319.307C58.0681 319.307 52.5229 313.316 48.9739 314.647C46.2013 315.646 45.2032 317.865 44.7596 319.418C44.316 320.638 43.5396 322.857 46.4231 331.733Z" fill="#212B53"/>
<path d="M44.6487 389.87C44.6487 389.87 46.7559 402.407 49.6394 415.72C46.645 423.82 51.1921 446.342 51.303 446.231C51.6357 445.898 53.1884 447.895 53.1884 447.895C53.1884 447.895 56.5155 428.036 57.2919 419.049C58.0682 410.062 59.1772 399.189 59.1772 399.189L44.6487 389.87Z" fill="#F8B68F"/>
<path d="M50.8593 445.01C50.8593 445.01 49.6394 446.12 49.8612 447.451C50.083 448.783 50.4157 452 50.4157 452H51.7466V449.005C51.7466 448.783 54.5192 452 54.9628 452H61.8389C61.8389 452 62.2825 450.003 58.2899 449.337C54.1865 448.672 50.8593 445.01 50.8593 445.01Z" fill="#043C5E"/>
<path d="M48.6413 332.842H46.5341C46.0905 332.842 45.6469 332.51 45.6469 331.955V331.733C45.6469 331.289 45.9796 330.845 46.5341 330.845H48.6413C49.0849 330.845 49.5285 331.178 49.5285 331.733V331.955C49.4176 332.51 49.0849 332.842 48.6413 332.842Z" fill="#FFDB71"/>
<path d="M58.1791 365.017C58.1791 365.017 60.3972 377.665 60.3972 383.878C60.3972 387.318 58.8445 401.963 58.8445 401.963C58.8445 401.963 45.7578 402.296 43.096 402.296C42.7633 391.867 38.8817 385.099 38.8817 376.778C38.8817 370.898 44.0942 365.794 44.0942 365.794L58.1791 365.017Z" fill="#11375B"/>
<path d="M83.2435 350.483L82.6889 350.594C81.469 350.927 80.5818 351.815 80.249 353.035L80.1381 353.479C80.1381 353.479 74.9256 355.254 69.1586 356.031C63.2806 339.278 61.2844 338.057 61.2844 338.057C61.2844 338.057 57.5136 339.278 57.5136 343.826C57.5136 347.71 60.0644 358.582 64.9442 362.022C66.2751 362.909 68.0495 363.02 69.6022 362.355C77.4764 358.582 83.0217 355.476 83.0217 355.476L88.8996 352.147L86.2379 350.816C85.2397 350.261 84.2416 350.15 83.2435 350.483Z" fill="#F8B68F"/>
<path d="M41.0998 442.791L40.8779 445.676C40.8779 446.231 40.9889 446.896 41.3216 447.34C41.6543 447.895 42.3197 448.672 43.4288 449.448C41.4325 450.114 39.658 447.895 38.6599 446.342C38.2162 445.676 37.9944 444.788 38.1053 443.901L38.438 441.682L41.0998 442.791Z" fill="#F4A086"/>
<path d="M38.1053 444.345C38.1053 444.345 36.3309 444.456 36.109 445.787C35.7763 447.118 35 449.781 35 449.781L35.9981 450.558L37.329 447.895C37.329 447.895 40.2125 451.778 40.6561 452H48.0867C48.0867 452 48.0867 449.559 43.4287 449.448C39.1035 449.337 38.1053 444.345 38.1053 444.345Z" fill="#212B53"/>
<path d="M253.704 445.343C253.704 445.343 251.597 447.229 246.939 448.45C245.941 448.671 244.831 448.339 244.831 450.114C247.05 450.114 250.488 450.114 250.488 450.114L255.257 449.337V450.114H257.807C257.807 450.114 258.473 445.898 257.031 445.343C255.7 445.343 253.704 445.343 253.704 445.343Z" fill="#212B53"/>
<path d="M254.037 442.347L253.704 445.343C254.591 446.009 255.811 446.009 256.809 445.454L257.031 445.343L258.14 442.347H254.037Z" fill="#F8B68F"/>
<path d="M276.439 445.343C276.439 445.343 274.332 447.229 269.674 448.45C268.676 448.671 267.567 448.339 267.567 450.114C269.785 450.114 273.223 450.114 273.223 450.114L277.992 449.337V450.114H280.543C280.543 450.114 281.208 445.898 279.766 445.343C278.436 445.343 276.439 445.343 276.439 445.343Z" fill="#212B53"/>
<path d="M276.772 442.347L276.439 445.343C277.327 446.009 278.546 446.009 279.545 445.454L279.766 445.343L280.875 442.347H276.772Z" fill="#F8B68F"/>
<path d="M262.798 367.125H256.255L253.926 443.013H258.362L271.338 381.215L262.798 367.125Z" fill="#212B53"/>
<path d="M260.691 367.125L275.996 443.013H280.876L278.879 367.125H260.691Z" fill="#25374B"/>
<path d="M273.445 385.875L274.887 385.764C274.887 385.764 274.887 384.766 275.552 383.989C276.107 383.434 276.994 383.102 278.214 383.102C279.545 383.102 280.543 383.434 281.097 383.989C281.652 384.544 281.652 385.21 281.652 385.21L283.094 385.321C283.094 385.21 283.204 384.1 282.206 383.102C281.319 382.214 279.988 381.77 278.214 381.77C276.55 381.77 275.219 382.214 274.443 383.102C273.334 384.211 273.334 385.764 273.445 385.875Z" fill="#F04637"/>
<path d="M267.286 401.727H289.245V387.637H267.286V401.727Z" fill="#212B53"/>
<path d="M277.548 397.081C277.548 397.969 277.992 398.08 278.436 398.08C278.99 398.08 279.323 397.969 279.323 397.081V394.085C285.644 393.42 289.304 392.31 289.304 392.31V392.643V403.405C289.304 404.404 288.971 405.18 288.306 405.18H268.343C267.789 405.18 267.345 404.404 267.345 403.405V392.31C271.892 393.42 272.225 393.42 277.548 394.085V397.081Z" fill="#F04637"/>
<path d="M268.344 384.544H288.307C288.861 384.544 289.305 385.321 289.305 386.319V391.756C285.756 392.865 282.429 393.42 279.323 393.42V392.754C279.323 391.866 278.88 391.756 278.436 391.756C277.882 391.756 277.549 391.866 277.549 392.754V393.531C271.56 393.42 267.346 391.866 267.346 391.866V386.43C267.346 385.321 267.678 384.544 268.344 384.544Z" fill="#CF3528"/>
<path d="M277.216 395.75V394.862C277.216 394.64 277.437 394.418 277.659 394.418H279.212C279.434 394.418 279.656 394.64 279.656 394.862V395.75C279.656 395.972 279.434 396.194 279.212 396.194H277.659C277.437 396.194 277.216 395.972 277.216 395.75ZM277.659 394.64C277.548 394.64 277.326 394.751 277.326 394.973V395.861C277.326 395.972 277.437 396.194 277.659 396.194H279.212C279.323 396.194 279.545 396.083 279.545 395.861V394.973C279.545 394.862 279.434 394.64 279.212 394.64H277.659Z" fill="white"/>
<path d="M278.325 395.195C278.325 395.306 278.325 395.306 278.325 395.195C278.436 395.306 278.546 395.195 278.546 395.195V393.864C278.546 393.864 278.546 393.753 278.436 393.753C278.325 393.753 278.325 393.753 278.325 393.864V395.195Z" fill="white"/>
<path d="M224.203 358.249C223.981 358.471 223.094 359.026 221.098 359.137C219.323 359.248 215.442 358.471 216.107 360.246C217.882 361.134 219.767 362.465 219.767 362.465C220.876 362.909 222.872 362.465 223.981 361.911L227.419 359.803C227.419 359.803 227.752 357.916 227.752 357.805L226.976 357.473C226.089 358.027 225.09 358.249 224.203 358.249Z" fill="#F8B68F"/>
<path d="M223.538 359.137C223.538 359.137 223.427 359.248 223.316 359.359C223.538 359.47 223.76 359.581 223.981 359.692C224.98 359.692 225.867 359.802 226.865 359.802C226.754 359.248 226.754 358.471 226.754 358.471L220.543 357.029C220.543 357.029 219.989 357.695 221.209 358.36C222.318 358.915 223.538 359.137 223.538 359.137Z" fill="#F8B68F"/>
<path d="M277.77 375.89L275.663 380.439C275.663 380.439 276.107 382.88 276.994 383.878C277.216 384.211 277.659 384.211 278.103 384.1C278.99 383.767 280.986 382.88 281.319 382.436C281.43 382.214 281.541 381.881 281.43 381.659L280.876 379.662L280.765 375.002L277.77 375.89Z" fill="#F8B68F"/>
<path d="M265.682 321.415L265.571 327.517L271.005 327.184L271.338 317.753L265.682 321.415Z" fill="#F4A086"/>
<path d="M264.794 321.97C264.018 321.97 263.353 321.859 263.02 321.526C260.802 318.308 263.353 309.765 263.353 309.765L266.791 308.323L271.227 311.097L271.449 316.866C271.56 318.419 270.783 319.862 269.452 320.86C268.011 321.637 266.458 322.08 264.794 321.97Z" fill="#F8B68F"/>
<path d="M269.896 314.425C269.674 313.426 270.34 311.208 269.341 311.429C268.676 311.54 266.125 311.651 265.349 311.651C263.353 311.651 259.915 310.875 259.915 307.879C259.915 306.437 260.802 305.66 261.8 305.216C262.687 304.884 263.685 305.882 264.683 306.215C266.791 306.992 271.338 307.546 272.447 307.324C273.778 307.103 275.108 308.434 275.219 309.211C275.441 310.986 274.332 313.537 273.445 315.202C273.001 316.2 272.336 317.088 271.449 317.753L269.896 314.425Z" fill="#212B53"/>
<path d="M272.447 314.647C272.003 314.314 271.227 314.314 270.672 314.758C270.118 315.202 270.007 315.978 270.45 316.311C270.894 316.644 271.67 316.644 272.225 316.2C272.779 315.645 272.89 314.98 272.447 314.647Z" fill="#F8B68F"/>
<path d="M268.454 325.631C270.894 325.631 273.001 326.185 274.776 326.962C279.101 328.848 282.206 332.842 283.315 337.502C285.09 344.825 287.973 362.132 281.319 377.332C279.323 377.554 276.883 377.332 276.883 377.332L276.217 341.496L276.772 367.125H256.255V350.594C256.255 350.594 255.7 354.366 250.82 357.805C245.83 361.245 225.978 361.578 225.978 361.578V357.694C225.978 357.694 243.501 351.592 246.162 349.595C248.824 347.598 254.591 333.064 254.591 333.064C256.366 329.514 259.693 326.851 263.574 326.074C264.905 325.742 266.569 325.631 268.454 325.631Z" fill="#465A72"/>
<path d="M276.439 367.236L275.996 342.606L276.55 342.495L276.994 367.236H276.439Z" fill="#465A72"/>
<path d="M271.116 323.855L271.449 325.853H265.238L265.682 323.855H271.116Z" fill="#F04637"/>
<path d="M190.156 340.165C190.156 340.165 190.377 362.798 196.255 362.576C202.133 362.354 206.015 344.381 206.015 344.381L203.575 343.715L197.808 354.588C197.808 354.588 198.695 351.038 197.253 344.603C195.812 337.946 190.156 340.165 190.156 340.165Z" fill="#F8B68F"/>
<path d="M191.265 337.946L191.043 338.39C191.154 338.39 197.586 342.828 197.586 349.928V379.108H185.608L185.941 356.696C185.83 356.807 185.608 356.918 185.497 357.029L185.165 379.551H198.03V349.928C198.03 342.495 191.375 337.946 191.265 337.946Z" fill="#212B53"/>
<path d="M197.475 385.319H185.941C184.832 385.319 183.945 384.431 183.945 383.322V375.778C183.945 374.668 184.832 373.781 185.941 373.781H197.475C198.584 373.781 199.471 374.668 199.471 375.778V383.322C199.471 384.431 198.584 385.319 197.475 385.319Z" fill="#63C1C5"/>
<path d="M199.471 379.328V375.778C199.471 374.668 198.584 373.781 197.475 373.781H185.941C184.832 373.781 183.945 374.668 183.945 375.778V379.328H199.471Z" fill="#F04637"/>
<path d="M197.808 385.321C196.81 385.321 196.033 384.877 196.033 383.878V375.003C196.033 374.004 196.81 373.56 197.808 373.56C198.806 373.56 199.582 374.337 199.582 375.003V383.435C199.582 384.877 198.806 385.321 197.808 385.321Z" fill="#475B73"/>
<path d="M189.823 381.216C189.49 381.216 189.268 380.994 189.268 380.661V377.998C189.268 377.665 189.49 377.443 189.823 377.443C190.155 377.443 190.377 377.665 190.377 377.998V380.661C190.377 380.994 190.155 381.216 189.823 381.216Z" fill="#043C5E"/>
<path d="M203.575 344.048L202.466 339.721C202.466 339.721 203.242 337.613 204.24 336.948C204.573 336.726 204.906 336.726 205.239 336.948C205.904 337.391 207.568 338.501 207.789 338.945C207.9 339.167 207.9 339.499 207.789 339.721L206.902 341.386L206.126 344.381L203.575 344.048Z" fill="#F8B68F"/>
<path d="M184.832 334.396C189.046 334.396 189.934 335.061 189.934 335.061C189.934 335.061 195.257 341.718 197.142 346.045C197.808 347.598 197.808 349.485 197.142 351.038C193.815 358.138 194.259 371.785 194.259 371.785C194.259 371.785 185.387 371.785 182.06 371.785C182.614 361.578 172.078 336.393 184.832 334.396Z" fill="white"/>
<path d="M199.693 443.457L200.47 446.009C200.691 446.675 201.024 447.34 201.69 447.673C202.355 448.117 203.353 448.672 204.906 449.115C202.799 450.78 199.915 449.115 198.251 447.895C197.475 447.34 196.921 446.453 196.699 445.343L196.477 443.457H199.693Z" fill="#F8B68F"/>
<path d="M196.477 444.788C196.477 444.788 195.035 445.787 195.146 447.118C195.257 448.45 195.368 451.556 195.368 451.556H196.699L196.921 448.672C196.921 448.45 199.582 451.556 200.026 451.556H207.124C207.124 451.556 207.789 449.67 203.686 449.004C199.582 448.339 196.477 444.788 196.477 444.788Z" fill="#043C5E"/>
<path d="M194.259 371.785L200.137 443.679L196.144 443.79C196.144 443.79 188.714 428.701 188.603 416.164C188.603 414.056 188.714 411.948 187.494 410.395C178.289 398.301 182.947 379.218 182.947 379.218L189.157 371.785H194.259Z" fill="#212B53"/>
<path d="M178.178 443.457L179.176 446.009C179.398 446.675 179.841 447.34 180.507 447.673C181.172 448.117 182.281 448.672 183.834 449.115C181.838 450.78 178.843 449.115 177.069 447.895C176.182 447.34 175.627 446.453 175.294 445.343L174.851 443.457H178.178Z" fill="#F8B68F"/>
<path d="M175.073 444.788C175.073 444.788 173.742 445.787 173.963 447.118C174.185 448.45 174.518 451.556 174.518 451.556H175.849V448.672C175.849 448.45 178.732 451.556 179.287 451.556H186.385C186.385 451.556 186.828 449.67 182.614 449.004C178.511 448.339 175.073 444.788 175.073 444.788Z" fill="#043C5E"/>
<path d="M190.599 331.511V339.61L185.719 334.285L186.274 326.851L190.599 331.511Z" fill="#F4A086"/>
<path d="M191.375 319.862C188.048 320.305 186.385 324.632 186.385 324.632V337.28L180.618 332.288C180.618 332.288 180.174 326.629 181.616 320.416C182.836 316.533 187.827 315.535 191.375 317.421C193.039 318.308 194.037 320.194 194.703 321.97C195.479 324.41 195.59 326.962 195.035 329.514L193.039 338.723L190.599 336.282C190.599 336.282 189.934 333.952 190.599 331.622C191.819 326.962 193.594 319.529 191.375 319.862Z" fill="#212B53"/>
<path d="M185.387 324.743C185.719 324.41 186.496 324.41 186.939 324.854C187.383 325.298 187.494 325.964 187.161 326.296C186.828 326.629 186.052 326.629 185.608 326.185C185.165 325.742 185.054 325.076 185.387 324.743Z" fill="#F8B68F"/>
<path d="M191.93 331.622C192.595 331.622 193.15 331.511 193.483 331.178C195.368 328.183 193.261 320.194 193.261 320.194L190.266 318.863L186.496 321.415L186.274 326.74C186.163 328.183 186.828 329.514 187.937 330.402C189.157 331.289 190.488 331.733 191.93 331.622Z" fill="#F8B68F"/>
<path d="M191.93 319.418C192.595 321.859 186.274 324.521 186.274 324.521L184.721 321.526L187.605 317.976L191.265 318.53C191.375 318.641 191.819 319.085 191.93 319.418Z" fill="#212B53"/>
<path d="M192.041 319.973C192.152 320.86 193.593 322.081 193.593 322.081L193.704 320.971L193.372 320.194L192.595 319.751C192.706 319.64 191.93 318.974 192.041 319.973Z" fill="#212B53"/>
<path d="M182.059 371.785C182.059 371.785 170.193 376.778 176.182 408.176C176.514 410.062 176.292 411.948 175.738 413.723C173.187 422.488 174.629 443.79 174.629 443.79H178.621C178.621 443.79 192.041 387.983 192.928 371.785C184.943 371.785 182.059 371.785 182.059 371.785Z" fill="#25374B"/>
<path d="M218.991 358.138C219.213 358.249 219.878 358.471 221.431 358.249C222.761 358.028 225.534 356.696 225.312 358.249C224.203 359.359 223.094 360.69 223.094 360.69C222.318 361.245 220.876 361.245 219.878 361.023L216.994 360.025C216.994 360.025 216.44 358.582 216.329 358.471L216.884 358.028C217.549 358.249 218.214 358.249 218.991 358.138Z" fill="#F8B68F"/>
<path d="M219.656 358.693C219.656 358.693 219.767 358.804 219.878 358.804C219.767 358.915 219.545 359.026 219.434 359.137C218.769 359.359 217.993 359.581 217.327 359.803C217.216 359.359 217.216 358.693 217.105 358.693L221.32 356.363C221.32 356.363 221.874 356.807 221.098 357.584C220.432 358.36 219.656 358.693 219.656 358.693Z" fill="#F8B68F"/>
<path d="M180.84 338.945C185.165 334.396 193.483 345.601 196.477 348.819C197.032 349.374 197.697 349.928 198.473 350.261L218.436 358.028L217.216 360.136L195.146 355.365C194.259 355.143 193.483 354.81 192.706 354.255C188.603 351.704 176.514 343.493 180.84 338.945Z" fill="#F8B68F"/>
<path d="M195.701 355.143L205.571 357.251L205.349 357.695L195.59 355.587C194.703 355.365 193.815 355.032 193.039 354.588C190.821 353.257 187.272 350.594 184.056 347.931C184.167 347.82 184.278 347.709 184.388 347.598C187.716 350.372 191.486 353.146 193.261 354.144C194.037 354.699 194.924 354.921 195.701 355.143Z" fill="#F4A086"/>
<path d="M421.946 334.063L409.746 364.795H404.534C403.092 364.795 402.538 365.128 401.318 365.905L397.991 368.346H411.41C411.41 368.346 426.049 351.038 427.602 340.276C422.833 335.505 421.946 334.063 421.946 334.063Z" fill="#F8B68F"/>
<path d="M441.798 324.41L438.249 318.641L433.702 320.971L435.255 326.075C435.255 326.075 435.365 326.075 435.365 326.186C436.918 324.521 439.691 325.298 441.798 324.41Z" fill="#F4A086"/>
<path d="M437.695 309.543L438.914 316.533C438.249 316.644 438.027 317.532 438.249 318.086C438.249 318.308 438.249 318.419 438.249 318.641C437.251 319.751 435.365 321.415 432.482 321.526C427.935 321.748 428.6 312.65 428.6 312.65L437.695 309.543Z" fill="#F8B68F"/>
<path d="M441.133 314.203C441.022 313.648 441.465 312.428 441.798 311.984C443.794 309.211 441.243 308.212 440.245 307.879C439.247 307.546 439.025 305.882 437.694 305.327C435.698 304.44 434.367 306.215 433.147 306.215C432.038 306.215 430.929 304.995 429.598 306.104C428.157 307.213 428.6 308.434 428.268 309.1C427.935 309.765 426.604 308.545 425.384 310.542C423.61 313.648 428.489 313.648 428.489 313.648C428.489 313.648 431.262 314.092 434.367 311.984C434.811 311.651 435.365 311.651 435.698 311.984C436.807 312.872 438.138 318.641 438.138 318.641L439.025 317.421C439.136 317.532 441.576 316.533 441.133 314.203Z" fill="#11375B"/>
<path d="M438.655 315.396C438.752 314.791 438.34 314.222 437.735 314.125C437.13 314.029 436.562 314.441 436.465 315.046C436.369 315.651 436.781 316.22 437.386 316.316C437.99 316.413 438.559 316.001 438.655 315.396Z" fill="#F8B68F"/>
<path d="M449.339 361.356H427.048V340.276L422.057 334.063C422.057 334.063 427.713 323.634 438.249 323.634C448.896 323.634 455.772 334.063 455.772 334.063L449.339 343.161V361.356Z" fill="url(#paint16_linear)"/>
<path d="M426.826 361.356V335.505H426.715H427.269V361.356H426.826Z" fill="#63C1C5"/>
<path d="M456.548 443.457C456.548 443.457 457.103 446.785 450.781 449.781C449.45 450.447 450.005 450.779 449.783 451.334C452.001 451.001 457.325 450.114 457.325 450.114L459.765 446.341L460.763 447.007L462.537 444.566C462.537 444.566 461.095 441.682 459.432 441.904C458.323 442.569 456.548 443.457 456.548 443.457Z" fill="#212B53"/>
<path d="M454.885 440.794L456.548 443.457C457.768 443.568 458.877 443.013 459.432 442.015L459.543 441.793L458.101 439.019L454.885 440.794Z" fill="#F8B68F"/>
<path d="M445.68 444.123C445.68 444.123 443.572 446.12 438.693 447.34C437.584 447.562 436.475 447.229 436.475 449.004C438.804 449.004 442.352 449.004 442.352 449.004L447.232 448.117V449.004H449.894C449.894 449.004 450.67 444.677 449.118 444.123C447.676 444.123 445.68 444.123 445.68 444.123Z" fill="#212B53"/>
<path d="M446.234 441.016L445.68 444.123C446.678 444.788 447.898 444.788 448.896 444.234L449.118 444.123L448.896 441.016H446.234Z" fill="#F8B68F"/>
<path d="M442.574 324.188L440.024 321.526L434.256 322.746L433.702 324.41L442.574 324.188Z" fill="white"/>
<path d="M449.34 361.356C453.443 395.861 449.34 441.682 449.34 441.682H445.458C445.458 441.682 433.702 392.865 435.587 361.356C442.574 361.356 439.247 361.356 449.34 361.356Z" fill="#475B73"/>
<path d="M426.826 361.356C426.826 361.356 422.944 396.415 427.713 406.733C432.482 417.162 454.552 441.238 454.552 441.238L458.988 439.685C458.988 439.685 450.781 415.276 439.58 402.184C439.025 379.995 439.802 361.245 439.802 361.245H426.826V361.356Z" fill="#6680A1"/>
<path d="M439.136 374.226C439.358 374.226 439.469 374.226 439.691 374.115C439.58 381.881 439.58 392.199 439.802 403.516C452.556 417.162 458.766 439.463 458.877 439.685V439.796C458.655 439.796 458.434 439.685 458.323 439.685C457.768 437.799 451.558 416.719 439.358 403.738L439.247 403.627V403.516C438.914 392.421 439.025 381.992 439.136 374.226Z" fill="#6680A1"/>
<path d="M455.772 334.063C455.772 334.063 463.646 342.939 463.646 348.93C463.646 354.921 449.45 371.008 449.45 371.008L447.01 366.459L456.216 350.15L449.118 343.16L455.772 334.063Z" fill="#F8B68F"/>
<path d="M449.561 371.674L450.005 371.452L446.678 365.239L446.234 365.461L449.561 371.674Z" fill="#043C5E"/>
<defs>
<linearGradient id="paint0_linear" x1="91.6426" y1="247.788" x2="92.2575" y2="108.748" gradientUnits="userSpaceOnUse">
<stop stop-color="#808080" stop-opacity="0.25"/>
<stop offset="0.53514" stop-color="#808080" stop-opacity="0.12"/>
<stop offset="1" stop-color="#808080" stop-opacity="0.1"/>
</linearGradient>
<linearGradient id="paint1_linear" x1="88394.9" y1="66976.6" x2="88394.9" y2="23161.6" gradientUnits="userSpaceOnUse">
<stop stop-color="#808080" stop-opacity="0.25"/>
<stop offset="0.53514" stop-color="#808080" stop-opacity="0.12"/>
<stop offset="1" stop-color="#808080" stop-opacity="0.1"/>
</linearGradient>
<linearGradient id="paint2_linear" x1="561.524" y1="155.265" x2="400.953" y2="155.265" gradientUnits="userSpaceOnUse">
<stop stop-color="#E0F0EB"/>
<stop offset="1" stop-color="#C0E4EF"/>
</linearGradient>
<linearGradient id="paint3_linear" x1="110.49" y1="38.8385" x2="357.539" y2="38.8385" gradientUnits="userSpaceOnUse">
<stop stop-color="#D2DEEC" stop-opacity="0.78"/>
<stop offset="1" stop-color="#D2DEEC"/>
</linearGradient>
<linearGradient id="paint4_linear" x1="234.015" y1="290.601" x2="290.899" y2="290.601" gradientUnits="userSpaceOnUse">
<stop stop-color="#E0F0EB"/>
<stop offset="1" stop-color="#C0E4EF"/>
</linearGradient>
<linearGradient id="paint5_linear" x1="311.991" y1="290.601" x2="368.875" y2="290.601" gradientUnits="userSpaceOnUse">
<stop stop-color="#E0F0EB"/>
<stop offset="1" stop-color="#C0E4EF"/>
</linearGradient>
<linearGradient id="paint6_linear" x1="255.674" y1="179.787" x2="309.942" y2="179.787" gradientUnits="userSpaceOnUse">
<stop stop-color="#E0F0EB"/>
<stop offset="1" stop-color="#C0E4EF"/>
</linearGradient>
<linearGradient id="paint7_linear" x1="255.674" y1="179.787" x2="309.942" y2="179.787" gradientUnits="userSpaceOnUse">
<stop stop-color="#E0F0EB"/>
<stop offset="1" stop-color="#C0E4EF"/>
</linearGradient>
<linearGradient id="paint8_linear" x1="331.786" y1="179.787" x2="386.055" y2="179.787" gradientUnits="userSpaceOnUse">
<stop stop-color="#E0F0EB"/>
<stop offset="1" stop-color="#C0E4EF"/>
</linearGradient>
<linearGradient id="paint9_linear" x1="169.271" y1="313.41" x2="285.04" y2="313.41" gradientUnits="userSpaceOnUse">
<stop stop-color="#E4EAF1"/>
<stop offset="1" stop-color="#D8E2EE"/>
</linearGradient>
<linearGradient id="paint10_linear" x1="249.816" y1="309.233" x2="334.302" y2="309.233" gradientUnits="userSpaceOnUse">
<stop stop-color="#E0F0EB"/>
<stop offset="1" stop-color="#C0E4EF"/>
</linearGradient>
<linearGradient id="paint11_linear" x1="82.365" y1="313.41" x2="172.383" y2="313.41" gradientUnits="userSpaceOnUse">
<stop stop-color="#E3EAF0" stop-opacity="0.94"/>
<stop offset="1" stop-color="#D8E2EF"/>
</linearGradient>
<linearGradient id="paint12_linear" x1="319.124" y1="415.286" x2="363.85" y2="415.286" gradientUnits="userSpaceOnUse">
<stop stop-color="#E0F0EB"/>
<stop offset="1" stop-color="#C0E4EF"/>
</linearGradient>
<linearGradient id="paint13_linear" x1="81.4742" y1="415.286" x2="126.2" y2="415.286" gradientUnits="userSpaceOnUse">
<stop stop-color="#E0F0EB"/>
<stop offset="1" stop-color="#C0E4EF"/>
</linearGradient>
<linearGradient id="paint14_linear" x1="144.571" y1="181.19" x2="100.046" y2="181.19" gradientUnits="userSpaceOnUse">
<stop offset="6.3e-07" stop-color="#F1F8F8"/>
<stop offset="1" stop-color="#C0E4EF"/>
</linearGradient>
<linearGradient id="paint15_linear" x1="153.664" y1="182.408" x2="100.332" y2="182.408" gradientUnits="userSpaceOnUse">
<stop offset="6.3e-07" stop-color="#F1F8F8"/>
<stop offset="1" stop-color="#C0E4EF"/>
</linearGradient>
<linearGradient id="paint16_linear" x1="421.985" y1="342.524" x2="455.794" y2="342.524" gradientUnits="userSpaceOnUse">
<stop stop-color="#E0F0EB"/>
<stop offset="1" stop-color="#C0E4EF"/>
</linearGradient>
</defs>
</svg>
