<svg width="554" height="510" viewBox="0 0 554 510" fill="none" xmlns="http://www.w3.org/2000/svg">
<path d="M385.7 288.8C385.7 288.8 408.6 213.9 468.7 208.1C516.1 295.7 424.8 339.3 424.8 339.3L385.7 288.8Z" fill="#B5CAE7"/>
<path d="M468.7 208.1C468.9 208.4 469 208.7 469.2 209L419.8 288L479.5 277.6C479.3 278.2 479.1 278.8 479 279.4L418.5 290L404.2 312.8L403 311.3L431.4 265.8L416.1 235.8C416.5 235.3 417 234.9 417.4 234.4L432.5 264L467.4 208.2C468 208.1 468.4 208.1 468.7 208.1Z" fill="white"/>
<path d="M400.7 304.8C400.7 304.8 457.9 247.7 513.6 261.5C529.9 325.3 457.3 354.8 457.3 354.8L385.4 355.7L400.7 304.8Z" fill="#F04637"/>
<path d="M450 270.7L452.4 305.1L512.3 261.1C512.7 261.2 513.2 261.3 513.6 261.4C513.7 261.7 513.7 261.9 513.8 262.1L481.7 285.6L514.9 291.4C514.8 291.7 514.8 292 514.7 292.3L514.5 293.1L479.7 287L426.3 326.2L484.2 338.2C483.6 338.7 483 339.1 482.4 339.6L424.5 327.6L386.6 355.5H385.4L385.9 353.9L450.7 306.3L448.2 271.5C448.8 271.2 449.4 271 450 270.7Z" fill="white"/>
<path d="M372.1 358.4L407.1 326.1C407.1 326.1 475.1 316.2 497.6 353.9C467.3 405.9 409.7 402.4 374.2 394.1L372.1 358.4Z" fill="#475B73"/>
<path d="M372.3 362.1L438.2 357.3L463.8 329.8C464.4 330 465 330.2 465.7 330.4L440.8 357.1L497 353C497.2 353.3 497.3 353.5 497.5 353.8C497.3 354.1 497.1 354.4 497 354.7L404.2 361.4L438.2 396.4C437.5 396.5 436.8 396.7 436.1 396.8L401.9 361.5L372.5 363.6L372.3 362.1Z" fill="#25374B"/>
<path d="M196.1 314.3C196.1 314.3 173.9 250.3 121.7 247.2C83.5998 324.5 163.9 359.3 163.9 359.3L196.1 314.3Z" fill="#F04637"/>
<path d="M121.6 247.1C121.5 247.4 121.3 247.6 121.2 247.9L166.5 314.7L114.6 307.7C114.8 308.2 115 308.8 115.1 309.3L167.6 316.4L180.7 335.7L181.7 334.4L155.6 296L167.8 269.6C167.4 269.2 167 268.8 166.6 268.4L154.5 294.5L122.5 247.3C122.3 247.2 122 247.2 121.6 247.1Z" fill="white"/>
<path d="M200.8 345.238C200.8 345.238 141.2 308.738 97.1 331.438C96.2 388.438 163.3 398.638 163.3 398.638L224 384.938L200.8 345.238Z" fill="#B5CAE7"/>
<path d="M152.4 326.438L157.3 355.938L98.1 330.938C97.7 331.138 97.4 331.238 97 331.438C97 331.638 97 331.838 97 332.138L128.7 345.538L102 357.038C102.1 357.238 102.2 357.538 102.3 357.738L102.6 358.338L130.6 346.238L183.5 368.538L137.2 390.238C137.8 390.538 138.4 390.838 139 391.038L185.4 369.338L222.9 385.138L223.9 384.938L223.2 383.638L159 356.638L154.1 326.838C153.5 326.638 153 326.538 152.4 326.438Z" fill="white"/>
<path d="M353.2 162.5C349.1 180.3 391.1 182.6 408.4 182.8C413.2 182.9 418 182.4 422.7 181.4C437.3 178.4 469.4 170.6 464.9 160C459.1 146.3 441.7 155.9 441.7 155.9C441.7 155.9 443.9 145.6 414.2 138.7C384.5 131.9 384.7 154.6 384.7 154.6C384.7 154.6 358.4 140.1 353.2 162.5Z" fill="url(#paint0_linear)"/>
<path d="M60.5 227.9H244.6C244.6 227.9 254.6 215.3 244.6 206.8C239.1 202.1 232.6 202.6 227.9 204C224.8 204.9 221.7 202.8 221.1 199.7C220 194.5 216.5 187.7 206.6 183.7C196.8 179.7 190.7 185.8 187.1 192C185.9 194 182.8 193.7 182.1 191.5C179 181.7 168.2 168.7 132.8 168.7C87.8 168.7 92.8 192.6 96.8 202.6C97.5 204.3 96 206.1 94.2 205.7C87.3 204.2 74.4 202.3 68.6 206.8C60.5 213.1 60.5 227.9 60.5 227.9Z" fill="url(#paint1_linear)"/>
<path d="M297.4 417.4C372.235 417.4 432.9 356.734 432.9 281.9C432.9 207.065 372.235 146.4 297.4 146.4C222.565 146.4 161.9 207.065 161.9 281.9C161.9 356.734 222.565 417.4 297.4 417.4Z" fill="#FF8889"/>
<path d="M96.8068 246.33L73.2433 251.505L63.7551 257.05L58.4998 263.323L96.8068 246.33Z" fill="white"/>
<path d="M96.8068 246.33L60.4405 264.77L58.4998 263.323" fill="#A2D7C5"/>
<path d="M64.0805 270.628L64.203 270.699L69.4763 274.152L96.7102 246.356L64.0805 270.628Z" fill="#58C4C5"/>
<path d="M55.9926 272.899L57.2788 265.721L96.5171 246.408L68.5756 269.631L55.9926 272.899Z" fill="white"/>
<path d="M42.839 278.287C44.5896 277.093 46.4628 275.97 48.5032 274.698C48.8637 274.498 49.2053 274.614 49.4054 274.974C49.6055 275.335 49.49 275.676 49.1295 275.877C47.089 277.148 45.2159 278.271 43.5618 279.439C43.4652 279.465 43.3686 279.491 43.272 279.517C43.0788 279.568 42.8339 279.427 42.6855 279.26C42.3888 278.925 42.4785 278.487 42.839 278.287Z" fill="#58C4C5"/>
<path d="M34.8671 286.013C34.6739 286.065 34.429 285.924 34.2806 285.756C34.0098 285.518 34.0994 285.08 34.3375 284.809C35.9139 283.352 37.7094 281.939 39.5308 280.622C39.7947 280.448 40.2069 280.441 40.5037 280.776C40.6779 281.04 40.6848 281.452 40.3502 281.749C38.5288 283.065 36.8299 284.452 35.2535 285.91C35.0603 285.961 34.9637 285.987 34.8671 286.013Z" fill="#58C4C5"/>
<path d="M43.9664 391.451C43.5542 391.458 43.2833 391.22 43.2764 390.808C43.2177 390.202 43.2556 389.571 43.2228 389.062C43.0984 387.439 42.9034 385.938 42.4893 384.393C42.3858 384.006 42.5979 383.639 43.0101 383.632C43.3965 383.528 43.7639 383.741 43.7709 384.153C44.0884 385.724 44.4318 387.392 44.5561 389.015C44.6148 389.621 44.6735 390.226 44.6356 390.857C44.6167 391.173 44.2821 391.47 43.9664 391.451Z" fill="#58C4C5"/>
<path d="M42.2147 381.05C42.1181 381.076 42.1181 381.076 42.0216 381.102C41.7059 381.083 41.4609 380.941 41.3833 380.651C40.7432 378.649 39.8133 376.724 38.7351 374.632C38.5349 374.271 38.6505 373.93 39.011 373.73C39.3714 373.53 39.7389 373.742 39.9131 374.006C41.0172 376.194 41.8505 378.145 42.6131 380.218C42.6908 380.508 42.5045 380.972 42.2147 381.05Z" fill="#58C4C5"/>
<path d="M17.8458 326.809C17.8855 327.73 17.8994 328.554 18.0357 329.449C18.179 330.757 18.3223 332.064 18.5622 333.346C18.6657 333.732 18.3311 334.029 18.0413 334.107C18.0413 334.107 18.0413 334.107 17.9447 334.133C17.6291 334.114 17.2616 333.902 17.2806 333.586C17.0407 332.304 16.8715 330.9 16.8249 329.567C16.7851 328.646 16.6488 327.751 16.6349 326.926C16.628 326.514 16.866 326.243 17.2782 326.236C17.568 326.158 17.8647 326.493 17.8458 326.809Z" fill="#58C4C5"/>
<path d="M19.2818 337.191C19.8512 339.316 20.5172 341.415 21.2539 343.392C21.3574 343.778 21.2419 344.12 20.8555 344.223C20.7589 344.249 20.7589 344.249 20.6623 344.275C20.3467 344.256 20.1017 344.114 20.0241 343.825C19.1649 341.777 18.473 339.582 18.0002 337.431C17.8967 337.044 18.1088 336.677 18.4952 336.573C18.9333 336.663 19.2041 336.901 19.2818 337.191Z" fill="#58C4C5"/>
<path d="M18.5676 316.366C18.2159 318.531 17.9867 320.766 17.9248 322.853C17.9058 323.169 17.6678 323.44 17.2814 323.543L17.1849 323.569C16.7726 323.576 16.5725 323.216 16.5914 322.9C16.7241 320.69 16.9533 318.455 17.2791 316.194C17.3946 315.852 17.6326 315.581 18.0708 315.671C18.3864 315.69 18.5866 316.05 18.5676 316.366Z" fill="#58C4C5"/>
<path d="M22.751 302.615C22.6096 302.86 22.4423 303.008 22.2233 302.963C22.1267 302.989 22.0042 302.918 21.9076 302.944C21.5661 302.829 21.4367 302.346 21.5781 302.101C22.4904 300.096 23.5959 298.04 24.7531 296.177C24.9652 295.81 25.3775 295.803 25.6224 295.944C25.9899 296.156 25.9968 296.569 25.8554 296.814C24.6981 298.677 23.6634 300.61 22.751 302.615Z" fill="#58C4C5"/>
<path d="M31.9568 362.472C31.8603 362.498 31.7637 362.523 31.6671 362.549C31.4739 362.601 31.2289 362.46 31.0806 362.292L30.5837 361.597C29.4417 360.04 28.3963 358.456 27.325 356.776C27.1507 356.513 27.2404 356.074 27.5043 355.9C27.7682 355.726 28.2063 355.816 28.3806 356.08C29.426 357.663 30.568 359.22 31.6393 360.9L32.1362 361.595C32.3104 361.859 32.2207 362.297 31.9568 362.472Z" fill="#58C4C5"/>
<path d="M19.3038 312.545C19.2849 312.861 19.021 313.035 18.7053 313.016C18.6087 313.042 18.6087 313.042 18.4862 312.971C18.1447 312.856 17.9446 312.495 17.9635 312.18C18.5084 309.963 19.1758 307.817 19.9656 305.742C20.0811 305.401 20.4416 305.2 20.7832 305.316C21.1247 305.432 21.3248 305.792 21.2093 306.134C20.5419 308.279 19.8487 310.329 19.3038 312.545Z" fill="#58C4C5"/>
<path d="M33.3766 364.679C33.7371 364.479 34.0787 364.595 34.2529 364.859C35.7693 367.041 36.8665 368.817 37.8412 370.523C38.0413 370.883 37.9258 371.225 37.5653 371.425C37.4687 371.451 37.3721 371.477 37.2755 371.503C37.0823 371.555 36.7408 371.439 36.6631 371.149C35.6884 369.443 34.4946 367.693 33.1007 365.582C33.0231 365.292 33.1127 364.854 33.3766 364.679Z" fill="#58C4C5"/>
<path d="M22.0373 346.702C22.3978 346.502 22.7652 346.714 22.9394 346.978C23.8434 348.806 24.8699 350.705 26.1413 352.746C26.3415 353.106 26.2259 353.448 25.962 353.622C25.8654 353.648 25.7688 353.674 25.6723 353.699C25.4791 353.751 25.2341 353.61 25.0599 353.346C23.7885 351.305 22.6395 349.336 21.7355 347.507C21.5871 347.34 21.6768 346.902 22.0373 346.702Z" fill="#58C4C5"/>
<path d="M29.7565 289.35C30.3291 288.782 30.8051 288.24 31.3778 287.673C31.6158 287.402 32.028 287.395 32.2989 287.633C32.5697 287.871 32.5766 288.283 32.3386 288.554C31.766 289.122 31.29 289.663 30.8139 290.205C29.8619 291.288 28.9098 292.372 28.0802 293.526C27.9129 293.674 27.8422 293.797 27.6232 293.752C27.43 293.804 27.3075 293.733 27.185 293.662C26.9142 293.424 26.8107 293.038 27.0487 292.767C27.8783 291.613 28.8044 290.433 29.7565 289.35Z" fill="#58C4C5"/>
<path d="M147.9 194.8C153.3 196.4 158.5 198.6 163.4 201.5C166.2 203.1 168.7 198.8 165.9 197.2C160.7 194.1 155.1 191.7 149.3 190C146.1 189 144.8 193.9 147.9 194.8Z" fill="#FF8889"/>
<path d="M183.6 152.5C186.6 156.5 189.5 160.6 192.5 164.6C194.4 167.2 198.7 164.7 196.8 162.1C193.8 158.1 190.9 154 187.9 150C186 147.4 181.7 149.9 183.6 152.5Z" fill="#FF8889"/>
<path d="M233.3 122C235.3 127 237.3 132 239.3 137C240.5 140 245.3 138.7 244.1 135.7C242.1 130.7 240.1 125.7 238.1 120.7C237 117.7 232.2 119 233.3 122Z" fill="#FF8889"/>
<path d="M448.1 189.9C442.3 191.6 436.7 194 431.5 197.1C428.7 198.7 431.2 203.1 434 201.4C438.9 198.5 444 196.3 449.5 194.7C452.6 193.9 451.2 189 448.1 189.9Z" fill="#FF8889"/>
<path d="M409.4 150C406.4 154 403.5 158.1 400.5 162.1C398.6 164.7 402.9 167.2 404.8 164.6C407.8 160.6 410.7 156.5 413.7 152.5C415.7 149.9 411.3 147.4 409.4 150Z" fill="#FF8889"/>
<path d="M458 239.7C453 239.9 448 240 443 240.2C439.8 240.3 440.5 245.3 443.7 245.2C448.7 245 453.7 244.9 458.7 244.7C461.9 244.5 461.2 239.5 458 239.7Z" fill="#FF8889"/>
<path d="M135.7 239.7C140.7 239.9 145.7 240 150.7 240.2C153.9 240.3 153.2 245.3 150 245.2C145 245 140 244.9 135 244.7C131.8 244.5 132.5 239.5 135.7 239.7Z" fill="#FF8889"/>
<path d="M359.2 120.6C357.2 125.6 355.2 130.6 353.2 135.6C352 138.6 356.8 139.9 358 136.9C360 131.9 362 126.9 364 121.9C365.2 119 360.3 117.7 359.2 120.6Z" fill="#FF8889"/>
<path d="M300 126.4C300 121.4 300 116.4 300 111.4C300 108.2 295 108.2 295 111.4C295 116.4 295 121.4 295 126.4C295 129.6 300 129.6 300 126.4Z" fill="#FF8889"/>
<path d="M532 139.9L535.5 148.7L526.8 145.8L497 133.4L532 139.9Z" fill="#58C4C5"/>
<path d="M535.5 148.7L520.4 146.4L524.3 144.8L535.5 148.7Z" fill="#58C4C5"/>
<path d="M532 139.9L535.4 132L497 133.4L532 139.9Z" fill="url(#paint2_linear)"/>
<path d="M497 133.4L526.8 145.8L521.1 157.2L497 133.4Z" fill="url(#paint3_linear)"/>
<path d="M531.4 156.8C531.5 156.8 531.6 156.7 531.6 156.7C531.9 156.4 531.9 156 531.6 155.7C530.7 154.8 529.8 154 528.8 153.3C528.5 153.1 528 153.1 527.8 153.5C527.6 153.8 527.6 154.3 528 154.5C528.9 155.2 529.8 155.9 530.6 156.8C530.8 156.8 531.2 156.9 531.4 156.8Z" fill="#58C4C5"/>
<path d="M513.3 233.9C513.1 233.5 513.3 233.1 513.6 232.9C515.6 231.9 517.5 230.6 519.2 228.8C519.5 228.5 519.9 228.5 520.2 228.8C520.5 229.1 520.5 229.5 520.2 229.8C518.4 231.7 516.3 233.1 514.1 234.2C513.9 234.4 513.5 234.3 513.3 233.9ZM522.2 226.7C521.9 226.5 521.8 226 522 225.7C523.3 223.8 524.4 221.7 525.2 219.4C525.3 219 525.7 218.8 526.1 219C526.5 219.1 526.7 219.5 526.5 219.9C525.7 222.3 524.6 224.5 523.1 226.5C523 226.6 522.9 226.7 522.8 226.8C522.6 226.8 522.4 226.8 522.2 226.7ZM526.8 216.1C526.4 216 526.1 215.7 526.2 215.3V215C526.5 212.8 526.6 210.6 526.4 208.2C526.4 207.8 526.7 207.5 527.1 207.4C527.5 207.4 527.8 207.7 527.9 208.1C528.1 210.5 528 212.9 527.6 215.1L527.5 215.4C527.5 215.7 527.3 215.9 527.1 216C527.1 216.1 526.9 216.1 526.8 216.1ZM526.8 204.6C526.4 204.7 526 204.4 526 204C525.6 201.8 525 199.5 524.3 197.1C524.2 196.7 524.4 196.3 524.8 196.2C525.2 196.1 525.6 196.3 525.7 196.7C526.5 199.2 527.1 201.6 527.5 203.8C527.6 204.1 527.4 204.5 527.1 204.6C526.9 204.5 526.9 204.6 526.8 204.6ZM523.8 193.4C523.4 193.5 523 193.4 522.9 193C522.8 192.8 522.8 192.6 522.7 192.4C521.9 192.6 521.1 192.8 520.3 193C519.9 193.1 519.5 192.8 519.5 192.4C519.4 192 519.7 191.6 520.1 191.6C520.8 191.5 521.5 191.3 522.2 191.1C521.6 189.6 520.9 188.1 520.1 186.4C519.9 186 520.1 185.6 520.4 185.4C520.8 185.2 521.2 185.4 521.4 185.7C522.2 187.4 522.9 189 523.6 190.6C524.7 190.2 525.7 189.7 526.7 189.2C527 189 527.5 189.1 527.7 189.5C527.9 189.8 527.8 190.3 527.4 190.5C526.4 191.1 525.3 191.6 524.1 192C524.2 192.2 524.2 192.3 524.3 192.5C524.3 192.8 524.1 193.2 523.8 193.4ZM530 187.9C529.7 187.6 529.8 187.1 530.1 186.9C531.2 186 532.2 184.9 533 183.7C533.5 183 534 182.2 534.4 181.4C534.6 181 535 180.9 535.4 181.1C535.8 181.3 535.9 181.7 535.7 182.1C535.3 183 534.7 183.8 534.2 184.6C533.3 185.8 532.2 187 531.1 188C531 188.1 531 188.1 530.9 188.1C530.5 188.2 530.2 188.1 530 187.9ZM515.8 193.4C513.2 193.4 510.8 193 508.4 192.2C508 192.1 507.8 191.7 508 191.3C508.1 190.9 508.5 190.7 508.9 190.9C511.1 191.7 513.4 192 515.8 192.1C516.2 192.1 516.5 192.4 516.5 192.8C516.5 193.1 516.3 193.4 516 193.5C516 193.4 515.9 193.4 515.8 193.4ZM536.4 178.4C536 178.3 535.8 177.9 535.9 177.5C536.5 175.3 536.7 172.9 536.6 170.5C536.6 170.1 536.9 169.8 537.3 169.7C537.7 169.7 538 170 538.1 170.4C538.3 172.9 538 175.4 537.4 177.8C537.3 178 537.2 178.2 537 178.3C536.7 178.4 536.5 178.4 536.4 178.4ZM504.4 190.2C503.8 189.9 503.3 189.5 502.8 189.1C501.3 188 500.1 186.5 499.1 184.9C498.9 184.6 499 184.1 499.4 183.9C499.7 183.7 500.2 183.8 500.4 184.2C501.3 185.7 502.4 187 503.7 188C504.2 188.4 504.7 188.7 505.2 189C505.5 189.2 505.6 189.7 505.4 190C505.3 190.1 505.2 190.2 505.1 190.3C504.8 190.3 504.6 190.3 504.4 190.2ZM518.1 182.5C516.8 180 515.5 178.1 514.2 176.7C513.9 176.4 513.9 176 514.2 175.7C514.5 175.4 514.9 175.4 515.2 175.7C516.6 177.3 518 179.2 519.3 181.9C519.5 182.3 519.3 182.7 519 182.9C519 182.9 519 182.9 518.9 182.9C518.7 183 518.3 182.8 518.1 182.5ZM536.8 166.9C536.4 167 536 166.8 535.9 166.4C535.6 165.4 535.3 164.3 534.9 163.4C534.4 162.2 533.8 161.1 533.2 160C533 159.7 533.1 159.2 533.4 159C533.7 158.8 534.2 158.9 534.4 159.2C535.1 160.3 535.7 161.6 536.2 162.8C536.6 163.8 537 164.9 537.2 166C537.4 166.4 537.2 166.8 536.8 166.9ZM498.3 181.1C497.9 181.2 497.5 180.9 497.5 180.5C497.2 178.4 497.6 176.5 498.6 174.9C499 174.3 499.4 173.8 500 173.3C500.3 173 500.8 173.1 501 173.4C501.3 173.7 501.2 174.2 500.9 174.4C500.5 174.8 500.1 175.2 499.8 175.7C498.9 177 498.6 178.6 498.9 180.3C499 180.6 498.8 181 498.5 181.1C498.4 181.1 498.4 181.1 498.3 181.1ZM511 174C509.1 172.9 506.6 172.4 504.5 172.8C504.1 172.9 503.7 172.6 503.7 172.2C503.6 171.8 503.9 171.4 504.3 171.4C506.8 171 509.5 171.5 511.8 172.8C512.1 173 512.3 173.4 512.1 173.8C512 173.9 511.9 174.1 511.7 174.1C511.4 174.2 511.2 174.1 511 174Z" fill="#58C4C5"/>
<path d="M510 235.7C510.3 235.6 510.5 235.2 510.4 234.9C510.3 234.5 509.9 234.3 509.6 234.3C508.5 234.5 507.3 234.6 506.2 234.6C505.8 234.6 505.5 234.9 505.5 235.3C505.5 235.7 505.8 236 506.2 236C507.4 236 508.7 235.9 509.9 235.7C510 235.7 510 235.7 510 235.7Z" fill="#58C4C5"/>
<path d="M525.155 460.4C525.155 460.4 524.155 461.8 519.455 463C518.455 463.3 517.255 463.4 517.255 465.2C519.455 465.2 521.955 465.2 521.955 465.2L526.755 464.4V465.2H529.355C529.355 465.2 530.055 461 528.555 460.4C527.155 460.4 525.155 460.4 525.155 460.4Z" fill="#1C2C57"/>
<path d="M524.955 457.4L525.155 460.4C526.055 461.1 527.355 461.1 528.355 460.5L528.555 460.4V457.4H524.955Z" fill="#FAB08A"/>
<path d="M549.155 461C549.155 461 548.155 462.4 543.455 463.6C542.455 463.9 541.255 464 541.255 465.8C543.455 465.8 545.955 465.8 545.955 465.8L550.755 465V465.8H553.355C553.355 465.8 554.055 461.6 552.555 461C551.055 461 549.155 461 549.155 461Z" fill="#1C2C57"/>
<path d="M548.855 458L549.055 461C549.955 461.7 551.255 461.7 552.255 461.1L552.455 461V458H548.855Z" fill="#FAB08A"/>
<path d="M523.055 382.9L524.255 459H529.755C529.755 459 538.155 397.6 536.355 382.9C534.555 368.3 523.055 382.9 523.055 382.9Z" fill="#1C2C57"/>
<path d="M528.855 382.9C528.855 382.9 530.755 406.3 535.255 419.2C539.655 432.2 547.655 459 547.655 459H553.355C553.355 459 543.755 402.9 545.955 382.9H528.855Z" fill="#083B5E"/>
<path d="M523.855 344.2C523.855 344.2 517.055 360.1 515.255 360.1C513.855 360.1 515.755 347.1 515.755 347.1H510.055C510.055 347.1 502.855 369.4 508.555 373.5C514.255 377.6 526.855 362 526.855 362L523.855 344.2Z" fill="url(#paint4_linear)"/>
<path d="M544.255 384.9L542.155 390C541.155 392 537.455 392.1 535.055 391.4C534.655 391.3 534.555 390.8 534.855 390.6C536.155 389.1 539.655 385.4 540.855 384.5L544.255 384.9Z" fill="#FAB08A"/>
<path d="M529.555 340.8C527.355 340.8 525.155 341.9 524.055 343.8C523.655 344.5 523.355 345.2 523.355 346C523.355 348.8 523.355 382.8 523.355 382.8H544.255V348.4C544.255 348.4 543.855 340.7 536.355 340.7C533.155 340.8 531.055 340.8 529.555 340.8Z" fill="url(#paint5_linear)"/>
<path d="M523.755 382.9V349.8L523.055 349.9V382.9H523.755Z" fill="#85CFC5"/>
<path d="M537.255 333.8L535.055 342.2C535.055 342.2 533.155 343.7 530.655 343.1C528.155 342.4 528.655 340.6 528.655 340.6L530.055 335.2H534.055L537.255 333.8Z" fill="#F79C82"/>
<path d="M529.155 336.7C528.355 336.5 527.655 336.2 527.455 335.7C526.155 331.5 531.255 322.6 531.255 322.6L538.955 326.2L537.455 332.7C537.055 334.4 535.855 335.9 534.255 336.6C532.655 337.1 530.855 337.2 529.155 336.7Z" fill="#FAB08A"/>
<path d="M535.155 325.4C535.155 325.4 532.355 325.2 529.655 323.9C526.955 322.6 529.555 320 529.555 320C529.555 320 531.355 321.5 535.255 322C537.855 322.3 538.655 322 540.055 323.3C541.955 325.1 540.355 328.9 540.355 328.9L536.955 337L536.455 336.9C536.455 336.9 537.655 331.9 538.155 330.2C537.855 329.3 537.355 329.2 536.955 329.3C536.455 329.4 536.055 329.8 535.955 330.3L533.655 339C533.655 339 527.455 339.9 526.155 339.1C524.855 338.3 527.555 332.1 527.555 332.1C527.555 332.1 529.355 331.8 530.255 333.6C531.155 335.3 533.055 334.3 533.055 334.3L535.155 325.4Z" fill="#1C2C57"/>
<path d="M511.255 347.1L511.455 346C511.855 343.6 514.255 340.5 516.555 339.7H518.955L518.155 344.9L514.755 347.1H511.255Z" fill="#FAB08A"/>
<path d="M537.655 329.1C537.055 328.9 536.255 329.3 535.955 330.1C535.655 330.9 535.855 331.6 536.455 331.9C537.055 332.1 537.855 331.7 538.155 330.9C538.555 330.1 538.255 329.3 537.655 329.1Z" fill="#FAB08A"/>
<path d="M517.255 344.3L512.555 347H515.555L520.555 342.8C520.555 342.8 520.155 342.1 519.055 342.7C517.855 343.4 517.255 344.3 517.255 344.3Z" fill="#FAB08A"/>
<path d="M542.055 343.1C542.055 343.1 553.855 356.2 553.855 364.1C553.855 372 544.255 385.8 544.255 385.8L539.555 384.4C539.555 384.4 543.855 367.2 543.855 362.7C543.855 358.1 535.055 351.4 535.055 351.4" fill="url(#paint6_linear)"/>
<path d="M543.455 362.7C543.455 366.6 539.955 381 539.155 384.4C539.355 384.5 539.455 384.5 539.855 384.6C540.855 380.5 544.155 366.6 544.155 362.8C544.155 358.1 535.555 351.5 535.255 351.3L534.855 351.9C534.955 351.8 543.455 358.4 543.455 362.7Z" fill="#85CFC5"/>
<path d="M520.355 336.5C520.355 336.5 520.655 341.7 517.055 345.3C516.855 345.5 516.455 345.7 516.155 345.7C515.455 345.7 514.955 345.4 514.555 345.2C513.955 345 513.755 344.6 513.655 344.4C513.555 344.2 513.655 343.9 513.855 343.7C514.655 342.8 516.955 339.8 516.455 336.9C518.155 335.8 520.355 336.5 520.355 336.5Z" fill="#006769"/>
<path d="M514.055 345C513.755 344.8 513.655 344.6 513.555 344.4C513.455 344.2 513.555 343.9 513.755 343.7C514.555 342.8 516.855 339.8 516.355 336.9C516.955 336.5 517.655 336.3 518.355 336.3C517.955 339.4 517.055 341.5 514.055 345Z" fill="#118C8C"/>
<path d="M516.959 340.249C517.19 339.569 517.165 338.946 516.904 338.857C516.642 338.768 516.243 339.247 516.012 339.927C515.782 340.607 515.806 341.23 516.068 341.319C516.329 341.408 516.728 340.929 516.959 340.249Z" fill="#006769"/>
<path d="M516.955 338.9L516.655 338.8L516.755 338.9L516.855 339L516.955 338.9Z" fill="#F89B4B"/>
<path d="M516.155 341.4L515.755 341.3H516.255L516.155 341.4Z" fill="#EF4366"/>
<path d="M516.756 340.253C516.986 339.574 516.962 338.951 516.7 338.862C516.439 338.773 516.04 339.252 515.809 339.932C515.578 340.612 515.603 341.235 515.864 341.324C516.126 341.413 516.525 340.933 516.756 340.253Z" fill="#58C4C5"/>
<path d="M522.155 332.4L522.755 332.5C523.855 332.6 524.555 333.6 524.455 334.6L524.255 336.1C524.155 337.1 523.155 337.8 522.055 337.7L521.455 337.6L522.155 332.4Z" fill="#FFD052"/>
<path d="M509.075 332.274C509.577 328.273 509.051 324.914 507.9 324.769C506.749 324.625 505.41 327.751 504.908 331.751C504.407 335.751 504.933 339.111 506.084 339.255C507.234 339.4 508.574 336.274 509.075 332.274Z" fill="#1C2C57"/>
<path d="M509.455 329.6L507.655 330.4L507.455 332.8L508.855 334.5L509.855 331.5L509.455 329.6Z" fill="white"/>
<path d="M509.055 332.2C509.455 328.8 509.155 326 508.355 325C514.555 330.8 522.355 332.4 522.355 332.4L521.755 337.5C521.755 337.5 511.055 335.5 506.555 338.9C507.655 338.3 508.655 335.6 509.055 332.2Z" fill="#004060"/>
<path d="M507.756 331.621C507.839 330.964 507.817 330.42 507.708 330.406C507.598 330.392 507.442 330.914 507.36 331.572C507.277 332.229 507.299 332.773 507.409 332.787C507.518 332.801 507.674 332.279 507.756 331.621Z" fill="#FFD052"/>
<path d="M513.855 343.3C514.055 343.4 514.655 343.7 516.455 343.7C517.855 343.7 518.455 342 518.655 341.1C518.755 340.8 518.855 340.3 518.455 340.1L516.255 339.8L513.855 343.3Z" fill="#FAB08A"/>
<path d="M295.5 464.497C407.338 464.497 498 454.247 498 441.603C498 428.959 407.338 418.709 295.5 418.709C183.662 418.709 93 428.959 93 441.603C93 454.247 183.662 464.497 295.5 464.497Z" fill="#C2E6EF"/>
<path opacity="0.5" d="M313.717 440.38H313.75H313.717C313.717 440.215 313.717 440.132 313.717 440.132L307.865 439.95L307.683 439.917C316.676 440.215 323.239 440.347 328.512 440.396L337.389 443.008L337.868 442.992C321.916 451.091 339.439 457.29 337.786 464.035C347.456 463.803 356.878 463.506 366.003 463.142C403.561 454.464 445.383 444.38 441.383 443.388C441.399 443.388 441.432 443.388 441.449 443.388L445.912 442.727C446.044 442.711 445.995 442.678 445.797 442.645C445.73 442.645 445.664 442.628 445.598 442.628L445.73 442.529C445.73 442.529 445.631 442.529 445.433 442.512C445.4 442.496 445.35 442.496 445.301 442.479C445.4 442.479 445.466 442.479 445.466 442.479C445.466 442.479 435.2 439.768 431.2 438.843C428.886 438.314 427.844 438.099 423.96 437.305C423.943 437.322 423.943 437.322 423.927 437.338C423.877 437.322 423.827 437.322 423.794 437.305C423.844 437.305 423.877 437.305 423.877 437.305L415.595 435.454L169.868 427.718L169.851 428.445C169.851 428.445 169.868 428.445 169.884 428.445L169.901 429.933L167.405 430.412L165.95 431.668C165.95 431.668 165.999 431.668 166.099 431.668L166.066 431.702C166.049 431.702 166.049 431.702 166.049 431.702H166.066L166.049 431.718C166.049 431.718 166.132 431.718 166.297 431.718H166.314H166.049C166.049 431.718 172.992 432.561 179.257 433.222L179.67 433.272C179.67 433.272 179.687 433.272 179.72 433.272C182.497 433.569 185.092 433.817 186.845 433.95C188.431 434.065 203.557 434.809 204.846 434.908C210.417 435.371 219.542 436.082 226.716 436.628L223.46 439.272C207.061 439.008 195.259 439.057 195.358 439.719C196.135 444.562 222.881 454.546 251.512 463.886C266.158 464.266 281.416 464.464 297.071 464.464C302.427 464.464 307.716 464.448 312.973 464.398C313.287 453.521 313.651 442.182 313.717 440.38ZM445.135 442.628L440.722 443.289H440.705C438.473 443.058 435.68 442.876 432.473 442.727L431.382 442.149C439.052 442.413 443.78 442.578 445.135 442.628ZM397.428 440.958C397.924 440.975 398.354 440.975 398.75 440.992C411.925 441.454 422.621 441.835 430.456 442.099L431.531 442.678C423.083 442.314 411.975 442.182 400.337 442.165C400.321 442.149 400.271 442.149 400.205 442.132L391.279 440.892C393.328 440.909 397.461 440.975 397.461 440.975C397.445 440.975 397.445 440.958 397.428 440.958ZM365.838 440.611C369.028 440.727 374.682 440.777 380.517 440.81C380.616 440.826 380.699 440.826 380.749 440.843C380.749 440.843 387.46 440.876 390.254 440.892C390.27 440.909 390.32 440.909 390.402 440.925L399.379 442.182C371.657 442.182 341.439 442.909 338.166 442.992L329.405 440.413C343.389 440.496 348.035 439.983 365.838 440.611ZM224.336 439.322L227.526 436.727C233.163 437.157 237.412 437.471 237.412 437.471L236.916 437.404C238.172 437.487 239.214 437.553 239.941 437.586C239.908 437.586 239.891 437.603 239.891 437.603L240.354 439.636C234.734 439.52 229.328 439.405 224.336 439.322ZM241.23 439.669L240.767 437.636C240.767 437.636 240.751 437.619 240.734 437.619C261.96 438.297 279.201 438.942 306.344 439.867C306.708 439.884 307.072 439.901 307.435 439.901L287.417 440.992C273.283 440.529 256.538 440.033 241.23 439.669ZM307.832 441.719C303.369 441.554 297.98 441.355 291.996 441.157L307.849 440.595C307.849 440.876 307.849 441.256 307.832 441.719ZM307.849 440.463L290.376 441.074L290.425 441.091C289.929 441.074 289.434 441.058 288.938 441.041L307.849 440C307.865 440.099 307.865 440.248 307.849 440.463Z" fill="url(#paint7_linear)"/>
<path d="M295.351 26.1672C288.326 30.5973 283.218 24.0183 275.498 26.7293C275.498 26.7293 277.019 25.6713 278.225 25.3738C278.804 25.225 282.656 24.9275 282.656 24.9275C279.019 23.1092 271.249 23.3736 272.456 22.9934C281.532 20.1503 295.483 25.7209 294.458 17.4393C294.244 15.902 295.996 25.754 295.351 26.1672Z" fill="#002A46"/>
<path d="M240.453 381.598C240.254 381.598 240.073 381.45 240.04 381.251L236.899 359.101C236.866 358.87 237.031 358.671 237.246 358.638C237.477 358.605 237.676 358.77 237.709 358.985L240.85 381.136C240.883 381.367 240.717 381.565 240.502 381.598C240.486 381.598 240.469 381.598 240.453 381.598Z" fill="#B3D8E5"/>
<path d="M392.617 388.459C392.501 388.459 392.386 388.409 392.303 388.31C392.154 388.145 392.171 387.88 392.353 387.732L400.949 380.293C401.114 380.144 401.378 380.161 401.527 380.342C401.676 380.508 401.659 380.772 401.478 380.921L392.882 388.36C392.816 388.426 392.716 388.459 392.617 388.459Z" fill="#B3D8E5"/>
<path d="M431.564 382.524C431.349 382.475 431.117 382.607 431.068 382.822L429.58 388.773C429.53 388.988 429.663 389.219 429.877 389.269C429.911 389.285 429.944 389.285 429.977 389.285C430.159 389.285 430.324 389.153 430.373 388.971L431.861 383.02C431.927 382.805 431.779 382.574 431.564 382.524Z" fill="#B3D8E5"/>
<path d="M443.697 388.459C443.565 388.459 443.433 388.393 443.35 388.277L439.218 382.161C439.085 381.979 439.135 381.714 439.333 381.582C439.515 381.45 439.78 381.499 439.912 381.698L444.045 387.814C444.177 387.996 444.127 388.261 443.929 388.393C443.863 388.442 443.78 388.459 443.697 388.459Z" fill="#B3D8E5"/>
<path d="M299.684 361.321L299.286 362.045L320.604 373.778L321.003 373.054L299.684 361.321Z" fill="#B3D8E5"/>
<path d="M295.895 360.517L295.417 361.191L315.26 375.246L315.737 374.571L295.895 360.517Z" fill="#B3D8E5"/>
<path d="M343.587 358.357L334.132 377.863L334.925 378.227L344.381 358.721L343.587 358.357Z" fill="#B3D8E5"/>
<path d="M252.603 376.392C252.603 376.392 252.587 376.392 252.603 376.392C252.355 376.392 252.19 376.193 252.19 375.962L252.686 360.424C252.686 360.192 252.884 360.01 253.116 360.027C253.347 360.027 253.529 360.225 253.512 360.457L253.016 375.995C253.016 376.21 252.818 376.392 252.603 376.392Z" fill="#B3D8E5"/>
<path d="M318.312 60.6655C289.383 119.182 212.318 284.649 210.78 348.869C210.45 362.754 293.351 362.837 319.634 361.349L318.312 60.6655Z" fill="#ACC1D6"/>
<path d="M318.229 103.396C318.229 103.396 449.466 375.945 439.564 381.929C418.736 394.492 343.521 359.283 343.521 359.283C320.957 258.697 372.532 211.751 318.229 103.396Z" fill="#6680A1"/>
<path d="M321.453 374.904H315.998C315.486 378.408 316.163 121.05 315.502 50.5823C315.502 50.0864 317.486 50.5823 317.486 50.5823L318.312 0L319.139 50.5823C319.139 50.5823 320.957 50.1194 320.957 50.5823C320.957 127.117 321.453 374.904 321.453 374.904Z" fill="#002A46"/>
<path d="M224.418 400.03L164.495 399.451C164.495 399.451 178.513 389.434 183.918 387.632C185.406 387.136 218.269 388.128 219.459 387.632C229.047 383.665 249.875 376.392 249.875 376.392L224.418 400.03Z" fill="#71959E"/>
<path d="M415.595 433.999L167.966 430.032L168.049 414.08L165.735 409.782L164.495 399.451C164.495 399.451 236.733 401.931 300.376 401.104C359.572 400.327 443.697 389.037 443.697 389.037C443.697 389.037 434.076 406.989 430.307 413.006C427.05 418.229 415.595 433.999 415.595 433.999Z" fill="#002A46"/>
<path d="M443.862 389.203C443.862 389.203 382.716 398.757 297.98 401.848C224.352 404.526 164.578 399.534 164.578 399.534L177.224 391.021C177.224 391.021 189.407 391.269 211.574 391.467C216.269 391.517 247.247 376.111 252.603 376.144C272.556 376.243 288.574 374.838 314.015 374.408C347.026 373.846 346.167 384.558 369.475 384.078C376.137 383.946 394.386 389.318 400.106 389.203C427.762 388.607 443.697 388.211 443.697 388.211L443.862 389.203Z" fill="#A3C6D6"/>
<path d="M339.554 388.541C307.485 392.013 237.395 392.343 237.395 392.343C237.395 392.343 247.049 384.624 257.066 383.913C280.375 382.26 299.054 383.252 316.577 382.921C322.114 382.822 345.059 387.946 339.554 388.541Z" fill="#0B4B68"/>
<path d="M385.096 393.583C323.106 401.683 255.496 398.211 255.496 398.211C255.496 398.211 262.985 393.682 273.019 393.748C297.815 393.914 348.894 390.773 366.251 388.955C369.21 388.641 390.584 392.872 385.096 393.583Z" fill="#0B4B68"/>
<path d="M387.658 392.839C384.187 391.517 379.889 389.864 372.615 388.872C372.103 388.806 382.203 387.054 383.36 386.062C383.36 386.062 390.336 387.616 392.617 388.045C394.221 388.359 398.899 389.037 398.899 389.037C398.734 390.855 388.931 393.318 387.658 392.839Z" fill="#0B4B68"/>
<path d="M398.982 278.533C418.802 321.214 440.49 380.838 439.316 378.21C423.282 342.505 388.518 343.612 372.533 268.45C355.341 187.617 337.488 143.647 337.488 143.647C337.488 143.647 380.583 238.91 398.982 278.533Z" fill="#ACC1D6"/>
<path d="M300.294 401.517C236.651 402.344 164.578 399.534 164.578 399.534L165.735 409.782C184.91 409.782 240.949 409.782 307.568 409.782C381.046 409.782 421.926 408.262 423.447 423.337C427.084 418.279 428.059 416.89 430.225 413.419C433.994 407.402 443.615 389.45 443.615 389.45C443.615 389.45 359.49 400.74 300.294 401.517Z" fill="#034163"/>
<path d="M415.595 435.239L167.966 430.809V425.271C167.966 425.271 241.114 429.239 288.888 429.239C366.747 429.239 423.364 423.238 423.364 423.238L415.595 435.239Z" fill="#A3C6D6"/>
<path d="M295.665 204.643C295.665 276.682 315.502 360.523 315.502 360.523C315.502 360.523 316.163 276.682 316.163 204.643C316.163 132.605 314.675 69.2615 314.675 69.2615C314.675 69.2615 295.665 132.605 295.665 204.643Z" fill="#6680A1"/>
<path d="M316.775 382.954C299.384 383.285 280.837 382.293 257.711 383.946C256.306 384.045 254.901 384.276 253.545 384.624C274.44 383.433 291.599 384.26 307.749 383.946C312.807 383.847 332.512 388.161 331.355 389.302C334.297 389.07 337.058 388.806 339.587 388.541C345.058 387.946 322.279 382.855 316.775 382.954Z" fill="#065A7F"/>
<path d="M366.416 388.954C349.191 390.756 300.624 393.913 273.018 393.748C272.588 393.748 273.432 393.732 273.018 393.748C299.385 394.459 335.405 393.368 349.572 392.36C351.076 392.26 357.291 393.781 362.267 395.352C371.392 394.773 379.327 394.161 385.129 393.533C390.584 392.955 369.342 388.64 366.416 388.954Z" fill="#065A7F"/>
<path d="M392.584 388.045C390.32 387.616 383.393 386.078 383.393 386.078C382.253 387.07 372.219 388.789 372.731 388.872C372.996 388.905 373.277 388.955 373.541 388.988C376.467 388.607 381.377 387.979 382.203 387.384C382.203 387.384 388.981 389.467 391.212 390.062C392.138 390.31 394.138 390.789 395.593 391.137C397.378 390.475 398.767 389.715 398.833 389.037C398.816 389.037 394.171 388.36 392.584 388.045Z" fill="#065A7F"/>
<path opacity="0.35" d="M329.223 385.814C329.223 385.814 313.039 385.153 303.369 385.153C293.698 385.153 274.837 384.326 274.837 384.326C274.837 384.326 305.832 384.144 315.502 383.996C326.032 383.83 329.223 385.814 329.223 385.814Z" fill="white"/>
<path opacity="0.35" d="M374.847 391.104C374.847 391.104 360.35 393.335 347.77 393.616C335.19 393.897 310.642 393.649 310.642 393.649C310.642 393.649 339.372 393.071 351.869 391.599C370.053 389.45 374.847 391.104 374.847 391.104Z" fill="white"/>
<path opacity="0.35" d="M387.41 387.632C387.41 387.632 384.567 387.847 382.5 388.26C380.451 388.674 376.335 388.922 376.335 388.922C376.335 388.922 381.476 388.062 383.277 386.971C384.104 386.475 387.41 387.632 387.41 387.632Z" fill="white"/>
<path d="M318.031 21.0595C319.255 24.0846 308.278 20.0347 304.311 23.3242C304.311 23.3242 303.385 13.373 304.989 11.6373C307.204 9.257 319.271 10.6125 318.031 11.6373C316.197 13.1416 316.775 18.0015 318.031 21.0595Z" fill="#002A46"/>
<path d="M304.311 23.3239C300.112 27.9689 292.409 23.3239 292.409 23.3239C292.409 23.3239 291.334 17.7532 292.409 16.4143C294.541 13.7199 303.071 21.6378 304.096 16.8606C304.443 15.1084 305.501 22.0015 304.311 23.3239Z" fill="#023856"/>
<path d="M399.643 389.12C395.675 394.244 366.499 395.699 341.786 397.385C326.792 398.41 313.072 398.278 300.806 398.245C270.373 398.989 254.835 398.212 254.835 398.212C254.835 398.212 261.331 394.658 268.224 393.748C285.416 392.261 311.865 390.277 315.998 390.277C301.12 391.93 236.155 392.426 236.155 392.426C236.155 392.426 243.924 384.161 257.975 382.839C267.795 381.913 268.158 382.194 276.49 382.177C283.928 378.21 293.682 376.061 326.082 374.904C320.957 373.086 267.795 376.309 249.71 376.227C244.85 376.21 218.302 391.732 211.524 392.095C196.482 392.922 178.298 392.095 178.298 392.095L165.173 399.088C165.173 399.088 216.517 399.931 284.424 400.03C361.308 400.129 395.51 392.922 395.51 392.922L402.288 391.104C402.288 391.104 408.768 388.905 399.643 389.12Z" fill="#8CB2BF"/>
<path d="M439.813 396.393C431.134 399.782 412.306 402.708 385.08 404.377C362.185 405.782 333.62 406.526 300.162 406.609C298.492 406.609 296.839 406.609 295.186 406.609C236.089 406.609 179.604 404.295 164.727 402.675L164.892 403.501C179.769 405.105 236.073 407.27 295.186 407.27C296.839 407.27 298.492 407.27 300.162 407.27C333.62 407.204 362.201 406.443 385.113 405.038C412.405 403.352 430.572 400.807 439.3 397.385L439.813 396.393Z" fill="#71959E"/>
<path d="M166.313 96.9485C166.313 96.8658 166.313 96.7997 166.313 96.717C166.313 90.1215 172.214 84.7823 179.487 84.7823C182.314 84.7823 184.926 85.5923 187.075 86.9643C186.265 84.1872 185.819 81.2613 185.819 78.2363C185.819 59.5407 202.564 44.3826 223.211 44.3826C243.792 44.3826 260.471 59.425 260.603 78.038C264.256 74.6989 269.331 72.6161 274.935 72.6161C286.06 72.6161 295.086 80.782 295.086 90.8654C295.086 92.9978 294.673 95.0475 293.929 96.9485H166.313Z" fill="#D6E0EC"/>
<path d="M133.291 491.837H142.059C143.207 491.942 144.564 492.255 144.773 493.298C144.773 493.298 144.878 493.925 144.878 494.655C144.564 495.073 132.874 494.655 132.874 494.655C131.621 492.985 133.291 491.837 133.291 491.837Z" fill="#1C2C57"/>
<path d="M144.878 494.655L132.874 494.551L132.978 495.073H144.878V494.655Z" fill="#1C2C57"/>
<path d="M136.736 491.837H137.571L137.258 492.881H136.527L136.736 491.837Z" fill="white"/>
<path d="M138.406 491.837H139.241L139.032 492.881H138.197L138.406 491.837Z" fill="white"/>
<path d="M132.664 488.915L133.291 491.837C134.021 492.15 134.961 492.255 135.691 491.942L135.796 491.837L136.213 488.915H132.664Z" fill="#FAB08A"/>
<path d="M106.569 491.837H115.337C116.486 491.942 117.843 492.255 118.051 493.298C118.051 493.298 118.156 493.925 118.156 494.655C117.843 495.073 106.152 494.655 106.152 494.655C104.899 492.985 106.569 491.837 106.569 491.837Z" fill="#1C2C57"/>
<path d="M118.156 494.655L106.152 494.551L106.256 495.073H118.156V494.655Z" fill="#1C2C57"/>
<path d="M110.014 491.837H110.849L110.536 492.881H109.805L110.014 491.837Z" fill="white"/>
<path d="M111.684 491.837H112.519L112.311 492.881H111.475L111.684 491.837Z" fill="white"/>
<path d="M106.152 488.706L106.361 491.733C106.987 492.15 107.927 492.359 108.657 492.15H108.762L109.597 489.332L106.152 488.706Z" fill="#FAB08A"/>
<path d="M123.27 358.646L113.667 364.909L116.59 372.529C116.59 372.633 116.694 372.738 116.694 372.842C116.903 372.842 117.112 372.842 117.321 372.842H117.425H117.529C120.139 372.842 122.331 374.408 123.584 376.495C125.149 376.391 126.715 375.974 128.072 375.347C129.011 374.93 129.846 374.303 130.16 373.782C131.412 368.249 123.27 358.646 123.27 358.646Z" fill="#FAB08A"/>
<path d="M135.483 360.629C135.483 360.629 136.631 371.798 134.335 378.792C135.483 379.731 139.45 384.011 140.702 378.479C141.955 372.842 139.241 358.646 139.241 358.646L135.483 360.629Z" fill="#FAB08A"/>
<path d="M129.741 359.795L127.445 361.256L128.28 362.926L130.681 361.882L129.741 359.795Z" fill="#1C2C57"/>
<path d="M128.394 362.941C128.605 362.848 128.588 362.345 128.357 361.817C128.125 361.289 127.766 360.937 127.555 361.029C127.343 361.122 127.36 361.625 127.592 362.153C127.824 362.681 128.183 363.034 128.394 362.941Z" fill="#1C2C57"/>
<path d="M156.881 351.653C156.881 351.549 156.881 351.549 156.881 351.653C156.463 350.609 155.733 349.043 154.689 347.687C153.019 345.39 152.601 344.242 152.601 344.242L129.324 359.482L130.786 362.3L156.777 352.697C156.881 352.279 156.881 351.966 156.881 351.653Z" fill="#004060"/>
<path d="M121.183 376.391L120.348 381.715H127.759L128.281 375.243L121.183 376.391Z" fill="#F79C82"/>
<path d="M140.285 389.439C140.285 389.439 149.053 386.621 151.767 382.863C154.481 379.105 149.888 358.646 149.888 358.646L150.514 354.993C150.827 352.905 149.262 351.027 147.174 351.027H144.878C143.938 351.027 143.208 351.966 143.625 352.905L146.652 359.795C146.652 359.795 148.948 375.347 145.713 376.496C141.851 377.853 137.467 378.166 137.467 378.166L140.285 389.439Z" fill="#FAB08A"/>
<path d="M123.793 376.391L121.496 371.381L122.957 370.441C124.001 369.815 124.523 368.458 124.106 367.206L122.54 362.508C122.54 362.508 127.133 361.987 126.924 357.707C126.924 355.515 123.897 355.515 123.897 355.515C123.897 355.515 122.957 357.498 120.244 357.707C119.095 357.603 115.755 358.02 113.563 361.882C112.102 364.492 112.728 368.563 113.981 371.59C115.129 374.304 118.156 375.869 121.079 376.287H123.793V376.391Z" fill="#1C2C57"/>
<path d="M114.92 418.353C114.92 418.353 115.338 428.999 117.738 440.481C118.365 443.926 118.156 447.371 117.008 450.711C111.789 466.264 105.526 489.541 105.526 489.541H109.91C109.91 489.541 125.671 461.984 129.533 448.31C133.291 434.636 134.022 430.252 134.022 430.252L129.533 418.353H114.92Z" fill="#1C2C57"/>
<path d="M120.348 369.085C120.035 369.92 120.661 370.963 121.601 371.381C122.54 371.903 123.479 371.694 123.793 370.859C124.106 370.024 123.479 368.98 122.54 368.563C121.601 368.145 120.661 368.354 120.348 369.085Z" fill="#FAB08A"/>
<path d="M136.214 418.353H114.92V391.109C114.92 385.159 119.513 380.149 125.358 379.627L140.18 377.853C140.18 377.853 141.955 380.462 146.756 386.725C140.911 390.274 134.231 391.944 134.231 391.944L136.214 418.353Z" fill="url(#paint8_linear)"/>
<path d="M114.92 418.353C114.92 418.353 117.947 429.208 129.012 441.421C130.89 443.3 133.5 447.057 133.187 452.485L131.934 489.645H136.423C136.423 489.645 145.504 458.853 143.834 443.613C142.059 428.373 136.214 418.457 136.214 418.457H114.92V418.353Z" fill="#083B5E"/>
<path d="M156.793 352.746C157.572 352.37 157.27 350.129 156.119 347.74C154.967 345.352 153.402 343.72 152.623 344.095C151.844 344.471 152.146 346.712 153.298 349.1C154.449 351.489 156.015 353.121 156.793 352.746Z" fill="white"/>
<path d="M134.544 356.037L134.752 356.141C135.483 356.454 136.214 356.559 136.944 356.246H137.049C138.197 355.828 139.136 354.889 139.554 353.74C139.763 353.219 139.241 352.697 138.719 352.801L137.257 353.114C136.736 353.219 136.214 353.532 135.901 354.054L134.544 356.037Z" fill="#FAB08A"/>
<path d="M373.288 398.561L366.688 410.261L373.988 409.861L374.488 398.161L373.288 398.561Z" fill="#FAB08A"/>
<path d="M383.588 393.361H377.488L374.988 430.361H385.888L383.588 393.361Z" fill="white"/>
<path d="M394.688 501.861C394.688 501.861 396.188 502.961 395.888 504.361C395.588 505.761 395.188 509.061 395.188 509.061H393.688V505.961C393.688 505.761 390.388 509.061 389.788 509.061H381.588C381.588 509.061 381.088 506.961 385.788 506.261C390.788 505.661 394.688 501.861 394.688 501.861Z" fill="#004060"/>
<path d="M391.188 500.461L390.088 503.161C389.788 503.861 389.288 504.561 388.588 504.961C387.788 505.461 386.588 506.061 384.788 506.561C386.988 508.361 390.488 506.461 392.588 505.161C393.588 504.561 394.288 503.561 394.588 502.461L395.088 500.361H391.188V500.461Z" fill="#FAB08A"/>
<path d="M379.188 501.861C379.188 501.861 380.688 502.961 380.388 504.361C380.088 505.761 379.688 509.061 379.688 509.061H378.188V505.961C378.188 505.761 374.888 509.061 374.288 509.061H366.088C366.088 509.061 365.588 506.961 370.288 506.261C375.288 505.661 379.188 501.861 379.188 501.861Z" fill="#004060"/>
<path d="M375.688 500.461L374.588 503.161C374.288 503.861 373.788 504.561 373.088 504.961C372.288 505.461 371.088 506.061 369.288 506.561C371.488 508.361 374.988 506.461 377.088 505.161C378.088 504.561 378.788 503.561 379.088 502.461L379.588 500.361H375.688V500.461Z" fill="#FAB08A"/>
<path d="M388.188 430.361C388.188 430.361 389.188 435.861 383.388 463.061C388.088 477.161 380.488 500.861 380.488 500.861H374.988L371.288 430.361H388.188Z" fill="#1C2C57"/>
<path d="M378.188 393.361L376.188 438.161L369.688 435.561C369.688 435.561 372.588 427.161 372.388 415.461C373.388 406.961 368.288 411.461 374.488 395.161C376.788 393.361 378.188 393.361 378.188 393.361Z" fill="#F04637"/>
<path d="M377.288 388.761L378.088 392.561C378.388 394.261 380.388 395.061 381.988 394.161L384.688 392.561L379.888 382.361L377.288 388.761Z" fill="#F79C82"/>
<path d="M393.588 430.361C393.588 430.361 400.888 435.861 394.988 463.061C399.688 477.161 395.588 500.861 395.588 500.861H390.588L376.588 430.361H393.588Z" fill="#083B5E"/>
<path d="M383.588 389.561C383.588 389.561 389.688 392.761 391.588 395.661C393.388 398.461 393.988 404.661 394.188 410.261C394.388 417.961 398.388 438.061 398.388 438.061H381.988L381.588 394.361L383.588 389.561Z" fill="#F04637"/>
<path d="M371.488 377.461C375.188 376.561 378.788 380.161 378.788 380.161L381.588 394.361L385.888 388.161C385.888 388.161 386.088 379.661 381.988 374.061C378.988 370.661 373.288 371.661 370.388 374.961C368.988 376.561 368.688 378.761 368.788 380.861C368.988 383.561 369.788 399.361 369.788 399.361L378.288 393.461C378.288 393.461 378.088 391.861 377.288 388.961C375.888 383.761 368.988 378.061 371.488 377.461Z" fill="#004060"/>
<path d="M379.888 379.961C379.388 379.761 378.588 380.061 378.288 380.761C377.988 381.361 378.188 382.061 378.688 382.261C379.188 382.461 379.988 382.161 380.288 381.461C380.588 380.861 380.488 380.161 379.888 379.961Z" fill="#FAB08A"/>
<path d="M375.888 389.461C375.188 389.661 374.488 389.861 374.088 389.661C370.888 387.461 369.688 378.661 369.688 378.661L372.288 376.061L377.388 377.161L379.888 382.361C380.588 383.761 380.488 385.361 379.688 386.761C378.688 387.961 377.388 388.961 375.888 389.461Z" fill="#FAB08A"/>
<path d="M370.688 377.261C370.988 379.961 378.788 380.161 378.788 380.161L379.188 376.561L374.588 374.161L370.988 376.261C370.988 376.161 370.588 376.761 370.688 377.261Z" fill="#004060"/>
<path d="M370.788 377.761C371.088 378.761 369.988 380.461 369.988 380.461L369.388 379.361V378.461L369.988 377.761C369.988 377.761 370.588 376.761 370.788 377.761Z" fill="#004060"/>
<path d="M389.888 395.761C397.788 396.661 394.088 415.961 392.388 423.861C391.988 425.861 389.888 426.961 387.788 426.361C380.888 424.261 370.788 415.761 370.788 415.761L372.388 413.861L385.788 416.861C385.888 416.861 380.688 394.761 389.888 395.761Z" fill="#FAB08A"/>
<path d="M374.088 409.361L376.688 424.461C376.788 424.861 376.388 425.261 375.888 425.261H365.588C365.188 425.261 364.888 424.961 364.788 424.661L362.288 409.561C362.188 409.161 362.588 408.761 363.088 408.761H373.288C373.688 408.761 373.988 409.061 374.088 409.361Z" fill="white"/>
<path d="M362.688 416.061C362.588 415.561 362.688 415.161 362.888 414.061C363.088 412.661 363.088 410.361 364.588 411.461C366.088 413.161 366.188 415.061 366.188 415.061C366.488 416.061 365.788 417.461 365.188 418.261L364.088 420.461C364.188 420.561 362.288 418.461 362.688 416.061Z" fill="#FAB08A"/>
<path d="M368.588 415.361C369.03 415.361 369.388 415.048 369.388 414.661C369.388 414.274 369.03 413.961 368.588 413.961C368.147 413.961 367.788 414.274 367.788 414.661C367.788 415.048 368.147 415.361 368.588 415.361Z" fill="url(#paint9_linear)"/>
<path d="M321.888 380.661C321.388 381.761 321.288 382.961 321.688 384.061L322.388 388.461L323.188 388.961L326.188 390.161C325.888 389.261 326.188 388.361 326.188 388.361L327.488 383.761C327.488 383.761 329.488 376.061 323.988 376.361C323.988 370.061 322.188 371.161 322.188 371.161L322.088 376.561L321.888 380.661Z" fill="#FAB08A"/>
<path d="M308.088 395.861C308.088 395.861 311.988 409.861 315.288 410.061C318.588 410.261 322.088 387.961 322.088 387.961L326.588 388.461C326.588 388.461 328.288 420.661 318.188 421.261C308.088 421.861 306.788 414.761 306.788 414.761L308.088 395.861Z" fill="#FF8889"/>
<path d="M307.688 434.161H281.288C281.288 434.161 281.288 415.961 281.288 396.361C288.888 385.461 298.288 388.461 298.288 388.461C298.288 388.461 306.888 388.561 308.188 395.961C308.088 401.261 307.688 434.161 307.688 434.161Z" fill="#F04637"/>
<path d="M295.588 383.661L295.288 388.361L295.488 388.461C297.088 389.961 299.688 389.961 301.388 388.561L301.488 385.061L295.588 383.661Z" fill="#F79C82"/>
<path d="M293.688 373.861L294.088 381.661C294.888 381.661 295.388 382.461 295.188 383.161C295.288 383.361 295.288 383.561 295.288 383.761C296.688 384.761 299.288 385.961 302.588 385.361C307.788 384.461 304.688 374.961 304.688 374.961L293.688 373.861Z" fill="#FAB08A"/>
<path d="M291.088 379.661C291.088 379.061 290.188 377.861 289.788 377.561C286.888 375.161 289.488 373.361 290.388 372.861C291.388 372.261 291.188 370.461 292.588 369.461C294.588 367.961 296.588 369.561 297.888 369.261C299.188 369.061 299.988 367.361 301.888 368.261C303.788 369.161 303.588 370.561 304.188 371.161C304.788 371.761 305.888 370.161 307.788 371.961C310.588 374.861 305.088 376.061 305.088 376.061C305.088 376.061 302.088 377.261 298.088 375.761C297.488 375.561 296.888 375.661 296.488 376.161C295.488 377.361 295.488 383.861 295.488 383.861L294.188 382.861C294.188 382.761 291.288 382.261 291.088 379.661Z" fill="#1C2C57"/>
<path d="M294.188 380.261C294.488 380.861 295.188 381.161 295.788 380.961C296.388 380.761 296.788 380.061 296.488 379.361C296.188 378.761 295.488 378.461 294.888 378.661C294.288 378.961 293.988 379.661 294.188 380.261Z" fill="#FAB08A"/>
<path d="M281.688 504.161C281.688 504.161 282.788 505.561 287.888 506.861C288.988 507.161 290.288 507.361 290.288 509.061C287.888 509.061 285.188 509.061 285.188 509.061L279.988 508.261V509.061H277.188C277.188 509.061 276.388 504.761 278.088 504.161C279.588 504.161 281.688 504.161 281.688 504.161Z" fill="#1C2C57"/>
<path d="M281.988 501.061L281.688 504.161C280.688 504.861 279.288 504.861 278.288 504.261L278.088 504.161V501.061H281.988Z" fill="#FAB08A"/>
<path d="M301.688 504.161C301.688 504.161 302.788 505.561 307.888 506.861C308.988 507.161 310.288 507.361 310.288 509.061C307.888 509.061 305.188 509.061 305.188 509.061L299.988 508.261V509.061H297.188C297.188 509.061 296.388 504.761 298.088 504.161C299.588 504.161 301.688 504.161 301.688 504.161Z" fill="#1C2C57"/>
<path d="M301.988 501.061L301.688 504.161C300.688 504.861 299.288 504.861 298.288 504.261L298.088 504.161V501.061H301.988Z" fill="#FAB08A"/>
<path d="M281.288 396.261C281.288 396.261 273.388 413.461 283.488 422.261C293.588 431.061 307.288 429.561 307.288 429.561V424.561C307.288 424.561 294.888 423.561 290.888 415.761C286.888 407.961 292.488 401.161 292.488 401.161" fill="#F04637"/>
<path d="M306.488 428.961L312.788 429.061C315.388 428.961 317.088 425.261 317.488 422.661C317.588 422.261 317.088 421.961 316.688 422.061C314.588 422.761 308.988 424.561 307.588 425.461L306.488 428.961Z" fill="#FAB08A"/>
<path d="M307.688 434.161C312.988 458.761 302.288 501.661 302.288 501.661H297.288C297.288 501.661 299.588 435.761 290.488 434.161C304.388 434.161 301.688 434.161 307.688 434.161Z" fill="#083B5E"/>
<path d="M289.488 410.661C289.588 412.261 289.988 414.061 290.888 415.861C294.888 423.661 307.888 424.761 307.888 424.761V429.761C307.888 429.761 293.488 431.161 283.388 422.361C279.688 419.161 278.388 414.861 278.288 410.661H289.488Z" fill="#FF8889"/>
<path d="M289.588 411.361C289.288 411.261 288.988 411.161 288.788 410.961C288.288 405.161 291.888 400.861 291.988 400.761L292.588 401.261C292.488 401.361 288.888 405.661 289.588 411.361Z" fill="#F68B27"/>
<path d="M323.188 381.261C323.188 381.261 321.688 380.861 321.488 378.361C321.288 375.861 319.988 376.661 319.988 376.661C319.988 376.661 320.688 386.561 322.288 386.961C323.988 387.261 323.188 381.261 323.188 381.261Z" fill="#FAB08A"/>
<path d="M297.888 434.161C299.988 459.861 282.588 501.661 282.588 501.661H277.288C277.288 501.661 281.988 474.961 282.088 449.961C282.088 444.561 281.888 439.161 281.288 434.261C286.988 434.161 292.688 434.161 297.888 434.161Z" fill="#1C2C57"/>
<path d="M341.276 470.352L338.673 470.125C338.673 470.125 338.786 468.316 337.428 466.959C336.41 465.941 334.825 465.488 332.675 465.488C330.298 465.488 328.6 466.054 327.582 466.959C326.563 467.977 326.676 469.108 326.676 469.108L324.073 469.221C324.073 468.994 323.96 466.959 325.658 465.262C327.129 463.679 329.506 463 332.675 463C335.617 463 337.768 463.792 339.352 465.375C341.503 467.524 341.276 470.239 341.276 470.352Z" fill="#212B53"/>
<path d="M352.142 473.406H314V497.949H352.142V473.406Z" fill="#212B53"/>
<path d="M334.486 489.919C334.486 491.389 333.806 491.615 332.901 491.615C331.996 491.615 331.317 491.389 331.317 489.919V484.716C320.338 483.585 314 481.662 314 481.662V482.341V501.003C314 502.699 314.679 504.17 315.698 504.17H350.557C351.576 504.17 352.255 502.812 352.255 501.003V481.662C344.332 483.472 343.766 483.585 334.599 484.603V489.919H334.486Z" fill="#FF8889"/>
<path d="M344.559 483.358C342.748 486.865 340.937 490.258 338.673 493.312C335.844 497.157 332.788 500.663 329.506 504.056H350.557C351.576 504.056 352.255 502.699 352.255 500.889V481.549C348.633 482.454 346.596 483.019 344.559 483.358Z" fill="#F04637"/>
<path d="M350.557 468.09H315.698C314.679 468.09 314 469.447 314 471.256V480.644C320.112 482.68 325.997 483.472 331.317 483.585V482.341C331.317 480.87 331.996 480.644 332.901 480.644C333.807 480.644 334.486 480.87 334.486 482.341V483.585C344.898 483.358 352.142 480.644 352.142 480.644V471.256C352.255 469.447 351.576 468.09 350.557 468.09Z" fill="#6680A1"/>
<path d="M334.373 488.335H331.656C331.317 488.335 330.977 487.996 330.977 487.656V486.073C330.977 485.734 331.317 485.394 331.656 485.394H334.373C334.712 485.394 335.052 485.734 335.052 486.073V487.656C335.052 487.996 334.712 488.335 334.373 488.335ZM331.543 485.507C331.317 485.507 331.09 485.734 331.09 485.96V487.543C331.09 487.769 331.317 487.996 331.543 487.996H334.259C334.486 487.996 334.712 487.769 334.712 487.543V485.96C334.712 485.734 334.486 485.507 334.259 485.507H331.543Z" fill="white"/>
<path d="M333.127 486.639C333.127 486.752 333.014 486.752 332.901 486.752C332.788 486.752 332.675 486.639 332.675 486.639V484.377C332.675 484.263 332.788 484.263 332.901 484.263C333.014 484.263 333.127 484.377 333.127 484.377V486.639Z" fill="white"/>
<defs>
<linearGradient id="paint0_linear" x1="352.966" y1="160.191" x2="465.417" y2="160.191" gradientUnits="userSpaceOnUse">
<stop stop-color="#D6EDE5"/>
<stop offset="1" stop-color="#B1E1EA"/>
</linearGradient>
<linearGradient id="paint1_linear" x1="60.5253" y1="198.265" x2="249.104" y2="198.265" gradientUnits="userSpaceOnUse">
<stop stop-color="#D6EDE5"/>
<stop offset="1" stop-color="#B1E1EA"/>
</linearGradient>
<linearGradient id="paint2_linear" x1="497.003" y1="135.746" x2="535.383" y2="135.954" gradientUnits="userSpaceOnUse">
<stop stop-color="#D6EDE5"/>
<stop offset="1" stop-color="#B1E1EA"/>
</linearGradient>
<linearGradient id="paint3_linear" x1="496.952" y1="145.252" x2="526.765" y2="145.413" gradientUnits="userSpaceOnUse">
<stop stop-color="#D6EDE5"/>
<stop offset="1" stop-color="#B1E1EA"/>
</linearGradient>
<linearGradient id="paint4_linear" x1="526.954" y1="359.15" x2="506.446" y2="359.15" gradientUnits="userSpaceOnUse">
<stop stop-color="#D6EDE5"/>
<stop offset="1" stop-color="#B1E1EA"/>
</linearGradient>
<linearGradient id="paint5_linear" x1="544.297" y1="361.852" x2="523.384" y2="361.852" gradientUnits="userSpaceOnUse">
<stop stop-color="#D6EDE5"/>
<stop offset="1" stop-color="#B1E1EA"/>
</linearGradient>
<linearGradient id="paint6_linear" x1="553.894" y1="364.486" x2="535.047" y2="364.486" gradientUnits="userSpaceOnUse">
<stop stop-color="#D6EDE5"/>
<stop offset="1" stop-color="#B1E1EA"/>
</linearGradient>
<linearGradient id="paint7_linear" x1="305.954" y1="430.731" x2="305.954" y2="471.787" gradientUnits="userSpaceOnUse">
<stop stop-color="#101C23"/>
<stop offset="0.1259" stop-color="#356078"/>
<stop offset="0.1835" stop-color="#6E8D9E"/>
<stop offset="0.2668" stop-color="#BCCAD2"/>
<stop offset="0.3263" stop-color="#ECF0F3"/>
<stop offset="0.3557" stop-color="white"/>
</linearGradient>
<linearGradient id="paint8_linear" x1="146.774" y1="398.089" x2="114.94" y2="398.089" gradientUnits="userSpaceOnUse">
<stop stop-color="#B1E1EA"/>
<stop offset="1" stop-color="#D6EDE5"/>
</linearGradient>
<linearGradient id="paint9_linear" x1="369.373" y1="414.653" x2="367.806" y2="414.653" gradientUnits="userSpaceOnUse">
<stop stop-color="#D6EDE5"/>
<stop offset="1" stop-color="#B1E1EA"/>
</linearGradient>
</defs>
</svg>
