<svg width="541" height="431" viewBox="0 0 541 431" fill="none" xmlns="http://www.w3.org/2000/svg">
<path d="M390.886 350.891C390.762 348.908 385.434 343.206 378.371 338.124C380.849 331.059 382.336 323.746 382.708 316.432C390.266 315.317 398.073 313.458 399.684 309.987C402.905 303.046 396.71 283.213 394.355 281.106C392.868 279.743 384.814 279.495 376.017 280.982C373.043 274.413 369.078 268.215 364.245 262.513C368.83 256.439 373.043 249.498 371.68 245.904C369.078 238.714 350.739 229.046 347.394 229.17C345.411 229.294 339.711 234.624 334.631 241.565C327.568 238.714 320.134 237.103 312.823 236.483C311.708 229.17 309.849 221.857 306.504 220.369C299.565 217.147 279.739 223.344 277.633 225.699C276.394 227.187 276.022 234.252 277.261 242.185C270.074 245.16 263.383 249.25 257.311 254.456C251.736 250.49 245.788 247.143 242.566 248.259C235.379 250.862 225.715 269.207 225.838 272.553C225.962 274.413 230.175 279.123 236.247 283.709C233.149 291.394 231.29 299.451 230.795 307.508C224.352 308.623 218.404 310.483 217.041 313.458C213.819 320.399 220.015 340.231 222.369 342.338C223.732 343.578 229.804 343.826 237.114 342.958C240.336 350.395 244.921 357.461 250.62 363.534C246.903 368.864 244.053 374.318 245.168 377.417C247.77 384.606 266.109 394.275 269.455 394.151C271.313 394.027 276.022 389.688 280.73 383.739C288.413 386.589 296.343 388.077 304.273 388.325C305.388 395.018 307.247 401.464 310.345 402.951C317.284 406.174 337.109 399.976 339.216 397.621C340.455 396.134 340.826 389.069 339.587 381.012C346.402 377.789 352.846 373.451 358.546 368.121C364.369 372.459 370.936 376.178 374.282 374.938C381.345 372.459 391.01 354.114 390.886 350.891ZM287.422 340.479C271.933 329.819 268.092 308.623 278.748 293.129C289.404 277.635 310.593 273.793 326.081 284.453C341.57 295.113 345.411 316.308 334.755 331.803C323.975 347.297 302.786 351.139 287.422 340.479Z" fill="#B5CAE7"/>
<path d="M293.369 358.824C288.536 357.336 283.952 355.105 279.615 352.254C268.835 344.817 261.648 333.785 259.294 320.894C256.939 308.127 259.665 295.112 267.1 284.328C274.535 273.545 285.562 266.355 298.449 264C311.212 261.645 324.222 264.372 335.002 271.809C345.782 279.246 352.969 290.278 355.324 303.169C357.678 315.936 354.952 328.951 347.517 339.735C340.083 350.519 329.055 357.708 316.168 360.063C308.486 361.427 300.679 360.931 293.369 358.824ZM320.877 266.603C313.814 264.496 306.255 264 298.821 265.488C286.43 267.843 275.526 274.784 268.339 285.196C261.152 295.608 258.426 308.251 260.781 320.646C263.135 333.042 270.074 343.95 280.482 351.139C290.891 358.328 303.529 361.055 315.92 358.7C328.311 356.345 339.215 349.403 346.402 338.991C353.589 328.579 356.315 315.936 353.96 303.541C351.606 291.146 344.667 280.238 334.259 273.049C330.046 270.074 325.585 267.967 320.877 266.603Z" fill="white"/>
<path d="M371.804 339.487C371.557 339.239 371.309 339.115 371.061 338.867C369.202 343.454 366.848 347.916 363.874 352.254C342.19 383.738 298.822 391.795 267.349 370.103C246.656 355.849 236.124 332.422 237.487 308.995C237.239 308.871 236.867 308.747 236.619 308.623C235.256 332.422 245.912 356.345 266.853 370.847C298.822 392.911 342.686 384.73 364.618 352.874C367.592 348.412 369.946 343.949 371.804 339.487Z" fill="white"/>
<path d="M303.034 243.424C317.903 242.556 333.02 246.523 346.279 255.571C346.526 255.695 346.774 255.943 347.022 256.067C347.146 255.819 347.146 255.448 347.27 255.2C347.146 255.076 346.898 254.952 346.774 254.828C333.516 245.655 318.151 241.689 303.158 242.556C303.034 242.804 303.034 243.176 303.034 243.424Z" fill="white"/>
<path d="M179.248 148.357C179.248 150.216 183.584 155.546 189.656 160.38C187.054 166.454 185.319 172.899 184.576 179.345C177.885 179.841 170.698 181.204 169.087 184.055C165.865 190.005 170.202 207.978 172.185 210.085C173.424 211.448 180.611 212.068 188.541 211.2C190.771 217.274 193.993 222.976 197.958 228.182C193.497 233.388 189.408 239.214 190.4 242.436C192.258 249.006 208.119 258.55 210.969 258.674C212.827 258.674 218.155 254.336 222.988 248.386C229.183 251.237 235.627 253.22 242.07 254.088C242.689 260.657 243.928 267.227 246.778 268.838C252.726 272.061 270.693 267.723 272.799 265.74C274.038 264.5 274.658 258.302 274.038 251.113C280.606 248.882 286.801 245.535 292.501 241.321C297.21 245.163 302.29 248.51 305.264 247.642C311.831 245.783 321.372 229.917 321.496 227.066C321.496 225.455 318.026 220.993 312.946 216.53C316.168 209.837 318.15 202.772 319.142 195.706C324.965 195.087 330.293 193.723 331.656 191.244C334.878 185.294 330.541 167.321 328.559 165.214C327.443 164.099 321.991 163.479 315.548 163.851C313.07 157.033 309.477 150.588 304.768 144.762C308.361 140.176 311.211 135.466 310.468 132.739C308.609 126.169 292.749 116.625 289.899 116.501C288.288 116.501 283.827 120.095 279.367 125.178C272.675 122.203 265.737 120.467 258.674 119.724C258.054 113.65 256.691 107.824 254.089 106.337C248.141 103.114 230.174 107.452 228.068 109.436C226.829 110.675 226.209 116.997 226.829 124.186C220.51 126.665 214.562 130.136 209.234 134.598C204.277 130.384 198.701 126.665 195.604 127.657C188.913 129.64 179.248 145.506 179.248 148.357ZM270.569 163.479C283.703 173.767 285.934 192.856 275.649 205.994C265.365 219.133 246.283 221.365 233.148 211.077C220.014 200.665 217.784 181.7 228.068 168.561C238.476 155.298 257.435 153.067 270.569 163.479Z" fill="#6680A1"/>
<path d="M266.356 146.869C270.569 148.481 274.534 150.712 278.127 153.563C287.297 160.752 292.997 171.04 294.36 182.568C295.723 194.095 292.501 205.499 285.314 214.547C278.127 223.72 267.843 229.422 256.319 230.785C244.796 232.148 233.396 228.926 224.351 221.736C215.181 214.547 209.481 204.259 208.118 192.732C206.755 181.204 209.977 169.8 217.164 160.752C224.351 151.579 234.635 145.878 246.159 144.514C253.098 143.647 259.913 144.514 266.356 146.869ZM236.742 227.19C242.937 229.422 249.628 230.289 256.319 229.422C267.471 228.058 277.508 222.48 284.447 213.68C291.386 204.879 294.483 193.847 293.244 182.568C291.881 171.412 286.305 161.372 277.508 154.43C268.71 147.489 257.682 144.39 246.407 145.63C235.255 146.993 225.218 152.571 218.279 161.372C211.34 170.172 208.242 181.204 209.481 192.484C210.844 203.639 216.42 213.68 225.218 220.621C228.687 223.596 232.653 225.703 236.742 227.19Z" fill="white"/>
<path d="M195.479 159.512C195.727 159.76 195.851 159.884 196.099 160.132C197.958 156.166 200.436 152.323 203.162 148.728C224.227 121.955 263.134 117.245 289.899 138.44C307.494 152.199 315.424 173.767 313.07 194.343C313.317 194.467 313.565 194.591 313.813 194.715C316.415 173.643 308.237 151.827 290.394 137.697C263.258 116.377 223.855 121.087 202.418 148.233C199.816 151.827 197.462 155.67 195.479 159.512Z" fill="white"/>
<path d="M251.239 248.758C237.981 248.634 224.722 244.42 213.57 235.619C213.323 235.495 213.199 235.247 212.951 235.123C212.827 235.371 212.703 235.619 212.703 235.867C212.827 235.991 212.951 236.115 213.075 236.239C224.351 245.163 237.733 249.502 251.115 249.626C251.115 249.254 251.239 249.006 251.239 248.758Z" fill="white"/>
<path d="M174.168 263.009C172.929 263.257 169.831 267.223 167.229 272.057C162.521 271.066 157.812 270.942 153.104 271.314C151.741 266.603 149.758 261.893 147.528 261.149C142.819 259.786 130.924 265.488 129.685 267.223C128.941 268.339 129.561 273.421 131.295 278.875C127.454 281.354 123.861 284.453 120.763 288.047C116.426 285.692 111.718 283.709 109.611 284.824C105.274 287.18 100.938 299.699 101.309 301.682C101.557 302.921 105.398 306.02 110.355 308.623C109.24 313.333 108.868 318.168 109.116 322.878C104.655 324.241 100.194 326.101 99.4507 328.332C98.0877 333.042 103.788 344.941 105.522 346.181C106.514 346.801 111.098 346.429 116.055 344.941C118.657 349.156 121.878 353.122 125.72 356.469C123.737 360.435 122.126 364.402 123.241 366.385C125.596 370.723 138.11 375.062 140.093 374.69C141.208 374.442 143.81 371.343 146.165 367.129C151.369 368.368 156.573 368.74 161.653 368.368C163.016 372.335 164.627 375.929 166.61 376.549C171.318 377.913 183.214 372.211 184.453 370.476C185.072 369.484 184.7 365.641 183.461 361.055C187.922 358.328 191.887 354.734 195.233 350.643C198.95 352.502 202.667 353.866 204.526 352.874C208.863 350.519 213.2 338 212.828 336.017C212.58 334.901 209.482 332.298 205.146 329.943C206.261 324.861 206.385 319.655 205.889 314.573C210.102 313.21 213.943 311.474 214.563 309.367C215.926 304.657 210.226 292.757 208.491 291.518C207.5 290.774 202.915 291.27 197.959 292.881C195.233 288.791 191.887 285.196 188.046 282.097C190.276 278.007 192.011 273.545 190.896 271.562C188.666 266.975 176.151 262.637 174.168 263.009ZM177.142 329.447C171.814 340.231 158.803 344.693 148.023 339.363C137.243 334.034 132.782 321.019 138.11 310.235C143.439 299.451 156.449 294.989 167.229 300.318C178.009 305.524 182.47 318.663 177.142 329.447Z" fill="#6680A1"/>
<path d="M188.17 323.87C187.674 327.092 186.683 330.191 185.32 333.166C181.602 340.603 175.283 346.181 167.353 348.908C159.423 351.635 150.997 351.015 143.562 347.421C136.128 343.702 130.552 337.38 127.826 329.447C125.1 321.514 125.719 313.086 129.313 305.649C133.03 298.211 139.349 292.634 147.28 289.907C155.21 287.18 163.636 287.799 171.07 291.394C178.505 295.113 184.081 301.434 186.807 309.367C188.417 314.077 188.913 319.035 188.17 323.87ZM127.33 315.069C126.587 319.779 127.082 324.613 128.693 329.2C131.295 336.885 136.747 343.082 143.934 346.677C151.245 350.271 159.423 350.767 167.105 348.164C174.787 345.561 180.983 340.107 184.576 332.918C188.17 325.605 188.665 317.424 186.063 309.739C183.461 302.054 178.009 295.856 170.822 292.262C163.512 288.667 155.334 288.171 147.651 290.774C139.969 293.377 133.773 298.831 130.18 306.02C128.693 308.995 127.826 311.97 127.33 315.069Z" fill="white"/>
<path d="M168.716 276.024C168.592 276.148 168.468 276.396 168.344 276.52C171.442 277.263 174.416 278.379 177.39 279.866C199.322 290.65 208.367 317.3 197.587 339.24C190.524 353.618 176.646 362.419 161.777 363.782C161.777 364.03 161.653 364.154 161.653 364.402C176.77 363.038 191.02 354.114 198.207 339.488C209.111 317.3 199.941 290.278 177.762 279.247C174.788 277.883 171.69 276.768 168.716 276.024Z" fill="white"/>
<path d="M114.444 328.58C112.585 319.283 113.576 309.243 118.037 300.07C118.161 299.946 118.285 299.699 118.285 299.575C118.037 299.575 117.913 299.575 117.665 299.451C117.665 299.575 117.541 299.699 117.418 299.823C112.833 309.119 111.842 319.159 113.7 328.58C113.948 328.58 114.196 328.58 114.444 328.58Z" fill="white"/>
<path d="M366.373 211.66C366.373 211.66 374.826 119.834 439.537 100.396C510.866 192.192 420.386 262.135 420.386 262.135L366.373 211.66Z" fill="#25374B"/>
<path d="M439.537 100.395C439.84 100.681 440.009 101.061 440.312 101.346L403.54 203.576L466.674 178.955C466.653 179.771 466.537 180.453 466.535 181.155L402.641 206.115L392.009 235.67L390.383 234.224L411.475 175.436L388.176 143.865C388.519 143.221 388.862 142.577 389.319 141.953L412.355 173.011L438.304 100.771C438.797 100.621 439.158 100.565 439.537 100.395Z" fill="#475B73"/>
<path d="M390.632 208.64C390.632 208.64 452.037 135.633 522.416 153.782C540.803 229.452 459.592 262.706 459.592 262.706L379.186 262.279L390.632 208.64Z" fill="#F04637"/>
<path d="M451.308 163.358L454.103 204.086L520.958 153.417C521.413 153.495 521.962 153.705 522.417 153.782C522.492 154.029 522.547 154.389 522.623 154.636L486.782 181.784L523.862 189.366C523.804 189.707 523.746 190.048 523.688 190.389L523.534 191.299L484.634 183.409L425.02 228.636L489.682 243.943C488.997 244.529 488.332 245.001 487.648 245.587L422.873 230.261L380.457 262.378L379.054 262.373L379.609 260.478L451.975 205.597L449.144 164.395C450.036 163.961 450.682 163.603 451.308 163.358Z" fill="white"/>
<path d="M258.548 91.6481H78.1358C78.1358 91.6481 68.3469 79.2528 78.1358 70.948C83.5878 66.3618 89.9072 66.8576 94.4918 68.2211C97.4656 69.0887 100.563 67.1055 101.183 64.0067C102.298 58.9246 105.644 52.2312 115.433 48.2647C124.974 44.4222 131.045 50.248 134.515 56.3216C135.63 58.3049 138.728 58.057 139.471 55.8258C142.445 46.2815 153.101 33.5144 187.796 33.5144C231.907 33.5144 226.951 56.9414 223.11 66.7336C222.366 68.469 223.853 70.2043 225.712 69.8325C232.527 68.345 245.166 66.4857 250.866 70.948C258.548 77.1456 258.548 91.6481 258.548 91.6481Z" fill="url(#paint0_linear)"/>
<path d="M362.339 9.16744L366.923 18.092L357.382 15.8609L324.918 5.69678L362.339 9.16744Z" fill="#B0D9C8"/>
<path d="M366.924 18.092L350.815 17.1004L354.781 14.9932L366.924 18.092Z" fill="#63C1C5"/>
<path d="M362.339 9.16739L365.189 0.490723L324.918 5.69672L362.339 9.16739Z" fill="url(#paint1_linear)"/>
<path d="M324.918 5.69678L357.382 15.8609L352.55 28.3801L324.918 5.69678Z" fill="url(#paint2_linear)"/>
<path d="M363.329 27.0168C363.453 27.0168 363.453 26.8929 363.577 26.8929C363.825 26.521 363.825 26.1491 363.453 25.7773C362.462 24.9096 361.347 24.1659 360.232 23.4222C359.86 23.1743 359.364 23.2982 359.24 23.6701C358.992 24.042 359.116 24.5378 359.488 24.6617C360.479 25.2815 361.471 26.0252 362.462 26.7689C362.71 27.1408 363.081 27.1408 363.329 27.0168Z" fill="#63C1C5"/>
<path d="M351.558 109.817C351.31 109.445 351.434 108.949 351.806 108.825C353.789 107.586 355.771 105.974 357.382 103.991C357.63 103.619 358.125 103.619 358.497 103.867C358.869 104.115 358.869 104.611 358.621 104.983C356.886 107.09 354.904 108.825 352.673 110.189C352.178 110.313 351.806 110.189 351.558 109.817ZM360.232 101.388C359.86 101.14 359.736 100.768 359.984 100.396C361.223 98.2893 362.09 95.9342 362.71 93.4552C362.834 93.0833 363.206 92.8354 363.577 92.9594C363.949 93.0833 364.197 93.4552 364.073 93.827C363.453 96.43 362.462 98.7851 361.223 101.14C361.099 101.264 360.975 101.388 360.851 101.388C360.727 101.512 360.356 101.512 360.232 101.388ZM364.073 89.8605C363.701 89.8605 363.33 89.4887 363.33 88.9929V88.621C363.453 86.2659 363.33 83.9108 362.958 81.5557C362.834 81.1839 363.206 80.812 363.577 80.6881C363.949 80.5641 364.321 80.936 364.445 81.3078C364.816 83.7869 364.94 86.3899 364.816 88.745V89.1168C364.816 89.3647 364.693 89.6126 364.445 89.7366C364.321 89.7366 364.197 89.8605 364.073 89.8605ZM362.958 77.7132C362.586 77.8372 362.09 77.5893 362.09 77.2174C361.471 74.9863 360.604 72.5072 359.612 70.0282C359.488 69.6563 359.612 69.1605 359.984 69.0365C360.356 68.9126 360.851 69.0365 360.975 69.4084C362.09 71.8874 362.834 74.3665 363.453 76.7216C363.577 77.0934 363.33 77.4653 363.082 77.5893C363.082 77.5893 363.082 77.7132 362.958 77.7132ZM358.745 66.1856C358.373 66.3096 357.878 66.1856 357.754 65.8138C357.63 65.5659 357.506 65.4419 357.506 65.194C356.762 65.5659 355.895 65.8138 355.028 66.0617C354.656 66.1856 354.16 65.9377 354.036 65.5659C353.912 65.194 354.16 64.6982 354.532 64.5743C355.275 64.3263 356.019 64.0784 356.638 63.8305C355.895 62.3431 355.028 60.7317 354.036 59.1204C353.789 58.7485 353.912 58.2527 354.284 58.1287C354.656 57.8808 355.152 58.0048 355.275 58.3766C356.267 60.112 357.134 61.7233 358.001 63.3347C359.117 62.8389 360.108 62.2192 361.099 61.5994C361.471 61.3515 361.967 61.4754 362.09 61.8473C362.338 62.2192 362.214 62.715 361.843 62.8389C360.851 63.5826 359.736 64.2024 358.497 64.6982C358.621 64.8222 358.621 65.0701 358.745 65.194C359.241 65.5659 359.117 66.0617 358.745 66.1856ZM364.693 59.8641C364.445 59.6162 364.445 59.1204 364.693 58.7485C365.808 57.6329 366.675 56.3934 367.419 55.1539C367.914 54.4102 368.286 53.5425 368.658 52.6748C368.782 52.303 369.277 52.0551 369.649 52.303C370.021 52.4269 370.268 52.9227 370.021 53.2946C369.649 54.2862 369.153 55.1539 368.658 56.0215C367.79 57.385 366.799 58.7485 365.684 59.8641C365.684 59.8641 365.56 59.988 365.436 59.988C365.312 60.112 364.94 59.988 364.693 59.8641ZM350.319 66.9293C347.593 67.1773 344.991 66.9293 342.513 66.3096C342.141 66.1856 341.893 65.8138 342.017 65.4419C342.141 65.0701 342.513 64.8222 342.884 64.9461C345.239 65.5659 347.717 65.6898 350.195 65.5659C350.567 65.5659 350.939 65.8138 351.063 66.3096C351.063 66.6814 350.939 66.9293 350.691 67.0533C350.567 66.9293 350.443 66.9293 350.319 66.9293ZM370.516 49.2042C370.145 49.0802 369.773 48.7084 369.897 48.3365C370.269 45.9814 370.392 43.5024 370.021 40.8994C369.897 40.5275 370.268 40.1556 370.64 40.0317C371.012 39.9077 371.384 40.2796 371.508 40.6514C371.879 43.3784 371.879 45.9814 371.384 48.4604C371.384 48.7083 371.136 48.9563 371.012 48.9563C370.888 49.2042 370.764 49.3281 370.516 49.2042ZM338.052 64.6982C337.432 64.3264 336.813 64.0784 336.317 63.7066C334.706 62.591 333.22 61.2275 331.98 59.6162C331.733 59.2443 331.857 58.7485 332.104 58.5006C332.476 58.2527 332.972 58.3766 333.22 58.6245C334.211 60.112 335.574 61.3515 337.061 62.3431C337.556 62.715 338.176 62.9629 338.672 63.3347C339.043 63.5826 339.167 63.9545 339.043 64.3264C338.919 64.4503 338.795 64.5743 338.672 64.6982C338.548 64.6982 338.3 64.8222 338.052 64.6982ZM351.682 55.2778C350.071 52.7988 348.584 50.9395 346.974 49.4521C346.602 49.2042 346.602 48.7084 346.974 48.3365C347.221 48.0886 347.717 47.9646 348.089 48.3365C349.7 49.8239 351.31 51.8072 353.045 54.4102C353.293 54.782 353.169 55.2778 352.797 55.4018C352.797 55.4018 352.797 55.4018 352.673 55.4018C352.426 55.6497 351.93 55.6497 351.682 55.2778ZM369.897 37.1808C369.525 37.3047 369.029 37.0568 368.905 36.685C368.534 35.5694 368.038 34.5778 367.542 33.5862C366.923 32.3466 366.179 31.2311 365.436 30.1155C365.188 29.7436 365.312 29.2478 365.56 28.9999C365.932 28.752 366.427 28.752 366.675 29.1239C367.543 30.2394 368.286 31.479 368.905 32.7185C369.401 33.8341 369.897 34.9496 370.269 36.0652C370.516 36.561 370.392 36.9329 369.897 37.1808C370.021 37.0568 369.897 37.1808 369.897 37.1808ZM330.741 55.6497C330.37 55.7736 329.874 55.5257 329.874 55.1539C329.378 53.0467 329.502 50.9395 330.494 49.0802C330.865 48.4604 331.237 47.8407 331.733 47.3449C331.98 47.097 332.476 47.097 332.848 47.3449C333.096 47.5928 333.096 48.0886 332.848 48.4604C332.476 48.8323 332.104 49.3281 331.857 49.9479C331.113 51.4353 330.865 53.0467 331.361 54.906C331.485 55.2778 331.237 55.6497 330.989 55.7736C330.865 55.6497 330.865 55.6497 330.741 55.6497ZM343.504 47.097C341.398 46.1054 338.795 45.8574 336.565 46.4772C336.193 46.6012 335.698 46.3533 335.698 45.9814C335.574 45.6095 335.822 45.1137 336.193 45.1137C338.795 44.494 341.769 44.7419 344.124 45.8574C344.495 45.9814 344.619 46.4772 344.495 46.8491C344.371 46.973 344.247 47.097 344.124 47.2209C343.876 47.097 343.628 47.097 343.504 47.097Z" fill="#63C1C5"/>
<path d="M348.212 112.048C348.584 111.924 348.708 111.552 348.584 111.181C348.46 110.809 348.088 110.561 347.593 110.685C346.478 111.057 345.238 111.181 343.999 111.305C343.628 111.305 343.256 111.676 343.256 112.048C343.256 112.42 343.628 112.792 343.999 112.792C345.362 112.668 346.601 112.544 347.841 112.172C348.212 112.048 348.212 112.048 348.212 112.048Z" fill="#63C1C5"/>
<path d="M277.88 25.6512L249.381 16.2308L235.751 15.9829L226.086 19.3296L277.88 25.6512Z" fill="url(#paint3_linear)"/>
<path d="M277.88 25.6512L227.201 22.1805L226.086 19.3296" fill="#B0D9C8"/>
<path d="M227.449 30.7332V30.8571L230.919 37.9224L277.756 25.6511L227.449 30.7332Z" fill="#63C1C5"/>
<path d="M217.412 28.0063L223.236 21.189L277.508 25.6513L232.777 32.5926L217.412 28.0063Z" fill="url(#paint4_linear)"/>
<path d="M126.339 143.902C127.826 143.034 129.313 142.043 130.552 141.051C130.923 140.803 131.295 140.927 131.543 141.175C131.791 141.547 131.791 141.919 131.419 142.166C130.056 143.282 128.569 144.274 126.958 145.141C126.463 145.513 125.843 145.761 125.223 146.009C124.976 146.133 124.728 146.133 124.604 146.009C124.48 145.885 124.356 145.885 124.232 145.637C124.108 145.265 124.232 144.893 124.48 144.646C125.347 144.522 125.843 144.15 126.339 143.902Z" fill="#63C1C5"/>
<path d="M202.295 25.4032C204.526 25.2793 206.88 25.2793 209.482 25.2793C209.854 25.2793 210.225 25.6512 210.225 26.023C210.225 26.3949 209.854 26.7667 209.482 26.7667C206.88 26.7667 204.65 26.7667 202.419 26.8907C202.295 26.8907 202.171 26.8907 202.047 26.7667C201.8 26.6428 201.676 26.3949 201.676 26.147C201.552 25.7751 201.923 25.4032 202.295 25.4032Z" fill="#63C1C5"/>
<path d="M190.647 28.1302C190.4 28.0063 190.276 27.8823 190.276 27.6344C190.152 27.2626 190.4 26.8907 190.895 26.7668C193.126 26.271 195.48 26.0231 198.082 25.7751C198.454 25.7751 198.825 26.0231 198.825 26.3949C198.825 26.7668 198.578 27.1386 198.206 27.1386C195.728 27.3865 193.373 27.7584 191.267 28.1302C190.895 28.2542 190.771 28.1302 190.647 28.1302Z" fill="#63C1C5"/>
<path d="M138.358 132.87C138.606 132.498 138.978 132.498 139.35 132.746C139.721 132.994 139.721 133.366 139.473 133.738C138.11 135.721 136.5 137.58 134.765 139.315C134.517 139.563 134.269 139.563 133.898 139.439C133.774 139.439 133.774 139.315 133.65 139.315C133.402 139.068 133.402 138.572 133.65 138.324C135.508 136.589 136.995 134.853 138.358 132.87Z" fill="#63C1C5"/>
<path d="M140.837 130.267C140.465 130.019 140.341 129.647 140.589 129.275C140.837 128.656 141.208 128.16 141.456 127.54C142.2 126.053 142.819 124.441 143.315 122.83C143.439 122.458 143.811 122.21 144.182 122.334C144.554 122.458 144.802 122.83 144.678 123.202C144.182 124.813 143.439 126.548 142.695 128.16C142.448 128.78 142.076 129.399 141.828 129.895C141.704 130.391 141.208 130.515 140.837 130.267C140.961 130.267 140.961 130.267 140.837 130.267Z" fill="#63C1C5"/>
<path d="M145.049 119.731H144.925C144.677 119.607 144.43 119.235 144.553 118.987C145.049 116.756 145.297 114.525 145.421 112.046C145.421 111.674 145.793 111.302 146.164 111.426C146.536 111.426 146.908 111.798 146.784 112.17C146.66 114.773 146.288 117.128 145.793 119.359C145.793 119.483 145.421 119.731 145.049 119.731Z" fill="#63C1C5"/>
<path d="M152.608 56.3916C152.112 57.2593 151.741 58.003 151.369 58.8706C150.749 60.1102 150.13 61.4736 149.634 62.7132C149.51 63.085 149.015 63.209 148.767 63.085C148.395 62.9611 148.271 62.5892 148.395 62.2174C148.891 60.8539 149.51 59.4904 150.13 58.2509C150.502 57.3832 150.997 56.5155 151.493 55.6479C151.741 55.276 152.112 55.1521 152.484 55.4C152.608 55.5239 152.732 56.0197 152.608 56.3916Z" fill="#63C1C5"/>
<path d="M148.147 66.6794C147.404 68.9105 146.908 71.2656 146.536 73.4968C146.413 73.8686 146.165 74.1165 145.669 74.1165C145.545 74.1165 145.545 74.1165 145.421 73.9926C145.173 73.8686 144.926 73.4968 145.05 73.2489C145.421 70.8938 146.041 68.5387 146.66 66.1836C146.784 65.8117 147.156 65.5638 147.528 65.6878C148.023 65.9357 148.271 66.3075 148.147 66.6794Z" fill="#63C1C5"/>
<path d="M158.928 47.095C157.441 48.8303 155.954 50.8136 154.715 52.7968C154.467 53.0447 154.095 53.1687 153.847 53.0447C153.847 53.0447 153.847 53.0447 153.723 53.0447C153.352 52.7968 153.352 52.425 153.475 52.0531C154.838 50.0699 156.201 48.0866 157.812 46.2273C158.06 45.9794 158.556 45.8555 158.804 46.1034C159.175 46.3513 159.175 46.7232 158.928 47.095Z" fill="#63C1C5"/>
<path d="M170.451 36.683C170.203 36.807 169.956 36.807 169.708 36.683C169.584 36.683 169.46 36.5591 169.46 36.4351C169.212 36.0633 169.336 35.6914 169.708 35.4435C171.69 34.08 173.797 32.8405 175.903 31.7249C176.275 31.601 176.647 31.7249 176.895 32.0968C177.018 32.4687 176.895 32.8405 176.523 33.0884C174.416 34.204 172.31 35.3196 170.451 36.683Z" fill="#63C1C5"/>
<path d="M145.793 96.9238C145.669 96.9238 145.545 96.9238 145.421 96.7998C145.173 96.6759 145.049 96.428 145.049 96.1801L144.925 95.3124C144.802 93.2052 144.678 91.098 144.554 89.1148C144.554 88.7429 144.802 88.3711 145.173 88.3711C145.545 88.3711 145.917 88.619 145.917 88.9909C146.041 91.098 146.165 93.0813 146.288 95.1885L146.412 96.0561C146.536 96.5519 146.165 96.9238 145.793 96.9238Z" fill="#63C1C5"/>
<path d="M161.777 43.9961C161.529 44.244 161.281 44.244 160.909 44.1201C160.785 44.1201 160.785 43.9961 160.785 43.9961C160.538 43.7482 160.538 43.2524 160.785 43.0045C162.52 41.2691 164.255 39.6578 166.114 38.1703C166.361 37.9224 166.857 37.9224 167.105 38.2943C167.353 38.5422 167.353 39.038 166.981 39.2859C165.246 40.6494 163.388 42.2608 161.777 43.9961Z" fill="#63C1C5"/>
<path d="M146.04 99.7749C146.412 99.7749 146.784 100.023 146.784 100.395C146.908 103.246 147.032 105.477 147.032 107.584C147.032 107.956 146.66 108.328 146.288 108.328C146.164 108.328 146.04 108.328 145.916 108.204C145.669 108.08 145.545 107.832 145.545 107.584C145.545 105.477 145.421 103.246 145.297 100.519C145.297 100.147 145.545 99.7749 146.04 99.7749Z" fill="#63C1C5"/>
<path d="M120.887 146.505C121.259 146.381 121.63 146.505 121.754 146.877C121.878 147.248 121.754 147.62 121.383 147.744C119.276 148.612 117.046 149.356 114.568 149.975C114.444 149.975 114.196 149.975 114.072 149.975C113.948 149.851 113.7 149.727 113.7 149.48C113.576 149.108 113.824 148.736 114.196 148.612C116.674 147.992 118.904 147.248 120.887 146.505Z" fill="#63C1C5"/>
<path d="M145.421 76.9675C145.793 76.9675 146.164 77.3394 146.04 77.7112C145.917 79.8184 145.793 82.1735 145.793 84.7765C145.793 85.1484 145.545 85.5202 145.049 85.5202C144.925 85.5202 144.801 85.5202 144.677 85.3963C144.43 85.2723 144.306 85.0244 144.306 84.7765C144.306 82.1735 144.306 79.8184 144.553 77.5873C144.677 77.2154 145.049 76.9675 145.421 76.9675Z" fill="#63C1C5"/>
<path d="M184.204 28.3783C184.948 28.1303 185.815 27.8824 186.682 27.6345C187.054 27.5106 187.426 27.7585 187.55 28.1303C187.674 28.5022 187.426 28.8741 187.054 28.998C186.311 29.2459 185.443 29.3699 184.7 29.6178C183.213 30.1136 181.85 30.6094 180.363 31.2292C180.115 31.3531 179.991 31.3531 179.743 31.2292C179.619 31.1052 179.496 30.9813 179.372 30.8573C179.248 30.4854 179.372 30.1136 179.743 29.8657C181.23 29.3699 182.717 28.8741 184.204 28.3783Z" fill="#63C1C5"/>
<path d="M155.594 212.186C155.594 212.186 159.543 128.196 103.686 102.415C27.6178 176.208 100.355 250.847 100.355 250.847L155.594 212.186Z" fill="#F04637"/>
<path d="M103.644 102.298C103.336 102.541 103.144 102.741 102.878 103.1L123.099 200.145L69.1756 169.851C69.1517 170.518 69.1278 171.185 69.104 171.852L123.545 202.487L129.244 230.468L130.942 229.332L119.353 173.57L144.44 148.103C144.231 147.52 143.98 146.82 143.654 146.278L118.949 171.345L104.753 102.822C104.32 102.714 103.961 102.448 103.644 102.298Z" fill="white"/>
<path d="M139.465 216.396C139.465 216.396 83.6319 126.866 22.0058 140.031C-4.22977 205.946 64.8979 246.322 64.8979 246.322L137.558 256.194L139.465 216.396Z" fill="#6680A1"/>
<path d="M84.9268 157.613L77.1787 193.977L23.3729 139.804C22.8645 139.855 22.4728 139.863 21.9644 139.914C21.9315 140.189 21.7401 140.39 21.7073 140.665L50.5556 169.687L16.034 171.806C16.043 172.198 16.0102 172.473 16.1358 172.823L16.1957 173.724L52.2843 171.569L100.354 220.03L39.9652 225.64C40.4497 226.256 41.0508 226.831 41.4935 227.33L101.999 221.679L136.183 256.029L137.442 256.236L137.205 254.477L78.8236 195.625L86.6793 158.828C86.1201 158.37 85.4861 158.071 84.9268 157.613Z" fill="#475B73"/>
<path d="M349.872 281.106L276.765 216.527H149.882V273.421L165.742 274.412L179.001 279.99L253.718 324.489L273.172 336.265C275.65 338.496 279.987 337.008 282.093 334.777L284.076 332.546C286.058 330.191 286.058 326.968 283.456 324.737L266.729 310.111L268.835 307.756L291.263 327.34C294.856 330.439 299.565 329.943 302.414 326.596L305.264 323.374C308.114 320.027 308.114 315.317 304.397 312.218L282.093 292.757L283.952 290.65L313.319 316.184C317.284 319.655 322.488 319.035 325.586 315.441L328.683 311.846C331.781 308.251 331.781 303.045 327.816 299.575L298.697 274.164L300.928 271.561L333.392 299.823C337.481 303.417 343.057 302.426 346.65 298.335L350.12 294.369C353.713 290.278 353.961 284.7 349.872 281.106Z" fill="#F8B68F"/>
<path d="M369.945 285.196L367.343 222.724H336.614L285.315 205.371C285.315 205.371 221.378 204.751 220.139 205.371C220.139 205.371 219.271 211.321 219.271 214.295L220.387 219.625C224.6 227.558 231.291 229.418 236.619 229.418L274.907 228.922C277.137 228.922 286.43 228.054 288.041 226.815L352.598 285.32H369.945V285.196Z" fill="#F4A086"/>
<path d="M232.778 318.043C230.424 321.514 225.22 322.134 221.255 319.407C217.289 316.68 216.05 311.598 218.529 308.127L227.078 295.856C229.433 292.385 234.141 292.509 238.106 295.236C242.071 297.963 243.682 302.425 241.328 305.772L232.778 318.043Z" fill="#F4A086"/>
<path d="M215.926 305.648C213.076 309.739 207.5 310.854 203.535 308.127C199.57 305.4 198.702 299.822 201.552 295.732L211.713 281.106C214.563 277.015 219.519 276.643 223.484 279.37C227.449 282.097 228.812 286.931 225.963 291.022L215.926 305.648Z" fill="#F4A086"/>
<path d="M197.959 294.988C195.357 298.335 190.277 298.707 186.436 295.856C182.595 293.005 181.603 287.923 184.206 284.452L193.251 272.553C195.853 269.206 200.438 269.454 204.279 272.305C208.12 275.156 209.607 279.618 207.005 282.965L197.959 294.988Z" fill="#F4A086"/>
<path d="M248.515 327.96C246.532 330.811 242.319 331.306 238.974 329.075C235.752 326.844 234.761 322.63 236.743 319.779L243.806 309.739C245.789 306.888 249.63 306.888 252.975 309.243C256.197 311.474 257.56 315.069 255.578 318.044L248.515 327.96Z" fill="#F4A086"/>
<path d="M422.978 194.959L341.941 221.361L364.617 291.022L474.029 255.448V232.021C473.905 205.619 448.132 186.778 422.978 194.959Z" fill="#475B73"/>
<path d="M470.188 217.766C445.158 225.575 353.465 256.935 353.465 256.935L364.617 291.394L473.905 255.82C473.905 255.82 477.003 221.113 470.188 217.766Z" fill="#25374B"/>
<path d="M368.334 211.94L392.125 283.709L364.493 292.261L340.826 220.493L368.334 211.94Z" fill="url(#paint5_linear)"/>
<path d="M372.423 270.446C374.778 269.702 377.38 270.942 378.247 273.421C378.991 275.776 377.751 278.379 375.273 279.246C372.919 279.99 370.317 278.751 369.449 276.272C368.706 273.916 370.069 271.313 372.423 270.446Z" fill="#043C5E"/>
<path d="M111.223 189.877L192.012 216.155L169.337 285.816L59.9248 250.242V227.186C59.9248 200.537 85.8219 181.696 111.223 189.877Z" fill="#FF7B7C"/>
<path d="M62.5261 213.056C73.0584 215.287 180.364 251.729 180.364 251.729L169.212 286.188L59.924 250.737C59.924 250.737 58.6849 215.163 62.5261 213.056Z" fill="#F04637"/>
<path d="M165.495 206.734L142.943 278.503L169.336 287.056L191.888 215.287L165.495 206.734Z" fill="url(#paint6_linear)"/>
<path d="M495.095 408.777C495.095 408.777 492.493 411.256 486.421 412.743C485.058 413.115 483.695 412.619 483.695 414.85C486.545 414.85 491.006 414.85 491.006 414.85L497.078 413.859V414.85H500.423C500.423 414.85 501.29 409.52 499.432 408.777C497.573 408.777 495.095 408.777 495.095 408.777Z" fill="#212B53"/>
<path d="M495.466 404.934L495.095 408.777C496.334 409.644 497.821 409.644 499.06 408.901L499.308 408.777L500.671 404.934H495.466Z" fill="#F8B68F"/>
<path d="M524.337 408.777C524.337 408.777 521.735 411.256 515.663 412.743C514.3 413.115 512.938 412.619 512.938 414.85C515.787 414.85 520.248 414.85 520.248 414.85L526.32 413.859V414.85H529.665C529.665 414.85 530.533 409.52 528.674 408.777C526.815 408.777 524.337 408.777 524.337 408.777Z" fill="#212B53"/>
<path d="M524.709 404.934L524.337 408.777C525.576 409.644 527.063 409.644 528.302 408.901L528.55 408.777L529.913 404.934H524.709Z" fill="#F8B68F"/>
<path d="M506.742 308.375H498.317L495.343 405.802H501.043L517.77 326.472L506.742 308.375Z" fill="#212B53"/>
<path d="M504.017 308.375L523.718 405.802H529.914L527.312 308.375H504.017Z" fill="#043C5E"/>
<path d="M520.373 332.422L522.231 332.298C522.231 332.298 522.107 330.935 523.099 329.943C523.842 329.199 524.957 328.827 526.568 328.827C528.303 328.827 529.542 329.199 530.285 329.943C531.029 330.687 531.029 331.554 531.029 331.554L532.887 331.678C532.887 331.554 533.011 330.067 531.772 328.827C530.657 327.712 528.922 327.092 526.568 327.092C524.462 327.092 522.727 327.712 521.736 328.827C520.249 330.315 520.373 332.298 520.373 332.422Z" fill="#F04637"/>
<path d="M512.586 352.738H540.714V334.641H512.586V352.738Z" fill="#212B53"/>
<path d="M525.577 346.801C525.577 347.916 526.072 348.04 526.692 348.04C527.312 348.04 527.807 347.916 527.807 346.801V342.958C535.861 342.091 540.57 340.727 540.57 340.727V341.223V354.982C540.57 356.221 540.074 357.337 539.331 357.337H513.681C512.938 357.337 512.442 356.345 512.442 354.982V340.727C518.266 342.091 518.762 342.091 525.453 342.958V346.801H525.577Z" fill="#FF7B7C"/>
<path d="M513.805 330.811H539.454C540.198 330.811 540.693 331.802 540.693 333.166V340.107C536.233 341.594 531.896 342.214 527.931 342.214V341.223C527.931 340.107 527.435 339.983 526.816 339.983C526.196 339.983 525.7 340.107 525.7 341.223V342.214C518.018 341.966 512.69 340.107 512.69 340.107V333.166C512.566 331.802 513.062 330.811 513.805 330.811Z" fill="#F04637"/>
<path d="M525.205 345.189V343.949C525.205 343.702 525.453 343.454 525.701 343.454H527.683C527.931 343.454 528.179 343.702 528.179 343.949V345.189C528.179 345.437 527.931 345.685 527.683 345.685H525.701C525.453 345.685 525.205 345.437 525.205 345.189ZM525.701 343.578C525.453 343.578 525.329 343.702 525.329 343.949V345.189C525.329 345.437 525.453 345.561 525.701 345.561H527.683C527.931 345.561 528.055 345.437 528.055 345.189V343.949C528.055 343.702 527.931 343.578 527.683 343.578H525.701Z" fill="white"/>
<path d="M526.692 344.445C526.692 344.569 526.692 344.569 526.816 344.569C526.94 344.569 526.94 344.569 526.94 344.445V342.834C526.94 342.71 526.94 342.71 526.816 342.71C526.692 342.71 526.692 342.71 526.692 342.834V344.445Z" fill="white"/>
<path d="M457.179 296.972C456.931 297.22 455.816 297.963 453.213 298.087C450.859 298.335 445.903 297.22 446.894 299.575C449.124 300.814 451.603 302.426 451.603 302.426C453.09 303.045 455.568 302.426 457.055 301.682L461.391 298.955C461.391 298.955 461.763 296.476 461.763 296.352L460.772 295.98C459.657 296.724 458.418 296.972 457.179 296.972Z" fill="#F8B68F"/>
<path d="M456.311 298.087C456.311 298.087 456.187 298.211 456.063 298.335C456.435 298.459 456.683 298.583 456.931 298.707C458.17 298.707 459.409 298.831 460.648 298.831C460.524 298.087 460.524 297.096 460.524 297.096L452.594 295.236C452.594 295.236 451.974 296.104 453.461 296.972C454.824 297.839 456.311 298.087 456.311 298.087Z" fill="#F8B68F"/>
<path d="M526.072 319.655L523.47 325.481C523.47 325.481 524.089 328.703 525.204 329.943C525.576 330.315 526.072 330.439 526.567 330.191C527.683 329.695 530.161 328.579 530.656 328.084C530.904 327.836 530.904 327.34 530.78 327.092L530.037 324.489L529.913 318.539L526.072 319.655Z" fill="#F8B68F"/>
<path d="M510.459 249.746L510.335 257.555L517.274 257.183L517.77 245.036L510.459 249.746Z" fill="#F4A086"/>
<path d="M509.344 250.489C508.352 250.489 507.485 250.365 506.989 249.993C504.14 245.903 507.361 234.995 507.361 234.995L511.822 233.136L517.522 236.731L517.894 244.044C518.017 246.027 517.026 247.886 515.415 249.126C513.433 249.993 511.45 250.489 509.344 250.489Z" fill="#F8B68F"/>
<path d="M515.911 240.697C515.539 239.458 516.407 236.607 515.168 236.855C514.3 236.979 511.079 237.103 510.087 237.103C507.609 237.103 503.024 236.111 503.024 232.268C503.024 230.409 504.264 229.418 505.379 228.922C506.494 228.426 507.857 229.789 508.972 230.285C511.698 231.277 517.522 232.021 518.885 231.773C520.496 231.401 522.23 233.136 522.478 234.128C522.726 236.359 521.239 239.706 520.124 241.937C519.504 243.176 518.637 244.292 517.646 245.283L515.911 240.697Z" fill="#212B53"/>
<path d="M519.133 240.945C518.513 240.449 517.522 240.573 516.778 241.193C516.035 241.813 515.911 242.68 516.407 243.176C517.026 243.672 518.018 243.548 518.761 242.928C519.628 242.309 519.752 241.441 519.133 240.945Z" fill="#F8B68F"/>
<path d="M514.052 255.076C517.274 255.076 519.876 255.696 522.23 256.687C527.806 259.166 531.771 264.248 533.258 270.198C535.489 279.619 539.206 301.806 530.656 321.39C528.178 321.638 524.956 321.39 524.956 321.39L524.089 275.404L524.709 308.252H498.316V287.056C498.316 287.056 497.572 291.89 491.253 296.228C484.934 300.69 459.408 301.062 459.408 301.062V296.104C459.408 296.104 481.96 288.295 485.429 285.692C488.899 283.089 496.209 264.496 496.209 264.496C498.564 259.91 502.777 256.563 507.733 255.572C509.468 255.324 511.574 255.076 514.052 255.076Z" fill="url(#paint7_linear)"/>
<path d="M524.337 308.499L523.718 276.891L524.337 276.767L524.957 308.499H524.337Z" fill="#63C1C5"/>
<path d="M517.398 252.845L517.894 255.448H509.84L510.459 252.845H517.398Z" fill="#FAB746"/>
<path d="M413.438 273.669C413.438 273.669 413.685 302.798 421.244 302.426C428.802 302.054 433.883 279.123 433.883 279.123L430.785 278.255L423.474 292.138C423.474 292.138 424.589 287.551 422.731 279.247C420.748 270.942 413.438 273.669 413.438 273.669Z" fill="#F8B68F"/>
<path d="M414.924 270.818L414.553 271.314C414.677 271.314 422.978 277.016 422.978 286.188V323.622H407.614L408.109 294.741C407.862 294.865 407.738 295.113 407.49 295.236L406.994 324.241H423.598V286.188C423.598 276.768 415.048 270.942 414.924 270.818Z" fill="#25374B"/>
<path d="M422.854 331.802H407.985C406.498 331.802 405.383 330.687 405.383 329.2V319.531C405.383 318.044 406.498 316.928 407.985 316.928H422.854C424.341 316.928 425.456 318.044 425.456 319.531V329.2C425.456 330.563 424.217 331.802 422.854 331.802Z" fill="#63C1C5"/>
<path d="M425.456 323.994V319.407C425.456 317.92 424.341 316.804 422.854 316.804H407.985C406.498 316.804 405.383 317.92 405.383 319.407V323.994H425.456Z" fill="#FF7B7C"/>
<path d="M423.225 331.802C421.986 331.802 420.995 331.307 420.995 330.067V318.664C420.995 317.424 421.986 316.928 423.225 316.928C424.465 316.928 425.456 317.92 425.456 318.664V329.571C425.58 331.183 424.465 331.802 423.225 331.802Z" fill="#25374B"/>
<path d="M413.065 326.473C412.693 326.473 412.321 326.101 412.321 325.729V322.258C412.321 321.886 412.693 321.515 413.065 321.515C413.437 321.515 413.808 321.886 413.808 322.258V325.729C413.808 326.101 413.437 326.473 413.065 326.473Z" fill="#043C5E"/>
<path d="M430.661 278.751L429.298 273.173C429.298 273.173 430.289 270.446 431.528 269.579C431.9 269.331 432.396 269.331 432.767 269.579C433.635 270.198 435.741 271.562 435.989 272.182C436.113 272.429 436.113 272.801 435.989 273.173L434.874 275.28L433.883 279.247L430.661 278.751Z" fill="#F8B68F"/>
<path d="M406.622 266.356C411.95 266.356 413.19 267.099 413.19 267.099C413.19 267.099 420.005 275.652 422.483 281.106C423.35 283.213 423.35 285.568 422.483 287.552C418.27 296.6 418.765 314.201 418.765 314.201C418.765 314.201 407.366 314.201 403.153 314.201C403.772 301.186 390.266 268.835 406.622 266.356Z" fill="url(#paint8_linear)"/>
<path d="M425.705 406.422L426.696 409.645C426.944 410.512 427.44 411.256 428.183 411.752C429.051 412.372 430.29 412.991 432.272 413.611C429.546 415.718 425.829 413.611 423.723 412C422.731 411.256 421.988 410.14 421.74 408.777L421.492 406.298H425.705V406.422Z" fill="#F8B68F"/>
<path d="M421.616 408.157C421.616 408.157 419.757 409.52 420.005 411.132C420.129 412.867 420.253 416.834 420.253 416.834H421.988L422.236 413.115C422.236 412.867 425.581 416.834 426.201 416.834H435.37C435.37 416.834 436.237 414.355 430.909 413.487C425.581 412.619 421.616 408.157 421.616 408.157Z" fill="#043C5E"/>
<path d="M418.766 314.325L426.324 406.67L421.244 406.794C421.244 406.794 411.703 387.333 411.579 371.343C411.579 368.74 411.703 366.013 410.092 363.906C398.197 348.412 404.268 323.87 404.268 323.87L412.322 314.325H418.766Z" fill="#212B53"/>
<path d="M398.072 406.422L399.311 409.645C399.559 410.512 400.179 411.256 401.046 411.752C401.914 412.372 403.277 412.991 405.383 413.611C402.905 415.718 398.94 413.611 396.709 412C395.594 411.256 394.851 410.14 394.479 408.777L393.983 406.298H398.072V406.422Z" fill="#F8B68F"/>
<path d="M394.108 408.157C394.108 408.157 392.373 409.52 392.745 411.132C392.992 412.867 393.488 416.834 393.488 416.834H395.223V413.115C395.223 412.867 398.94 416.834 399.56 416.834H408.729C408.729 416.834 409.348 414.355 403.896 413.487C398.568 412.619 394.108 408.157 394.108 408.157Z" fill="#043C5E"/>
<path d="M413.933 262.761L414.057 273.049L407.861 266.232L408.481 256.687L413.933 262.761Z" fill="#F4A086"/>
<path d="M415.048 247.763C410.835 248.383 408.605 253.836 408.605 253.836V270.074L401.17 263.629C401.17 263.629 400.674 256.316 402.409 248.383C404.02 243.424 410.339 242.061 414.924 244.54C417.154 245.78 418.393 248.011 419.137 250.366C420.128 253.465 420.252 256.811 419.633 260.034L417.154 271.933L413.933 268.835C413.933 268.835 413.065 265.86 413.933 262.885C415.667 256.811 417.898 247.267 415.048 247.763Z" fill="#043C5E"/>
<path d="M407.365 253.96C407.861 253.464 408.728 253.588 409.348 254.208C409.968 254.828 410.091 255.572 409.596 256.067C409.1 256.563 408.233 256.439 407.613 255.82C406.994 255.324 406.87 254.456 407.365 253.96Z" fill="#F8B68F"/>
<path d="M415.791 262.885C416.658 262.885 417.402 262.761 417.774 262.389C420.128 258.546 417.402 248.382 417.402 248.382L413.561 246.647L408.728 249.994L408.48 256.811C408.357 258.67 409.224 260.406 410.587 261.521C412.198 262.389 413.932 262.885 415.791 262.885Z" fill="#F8B68F"/>
<path d="M415.791 247.143C416.659 250.242 408.605 253.712 408.605 253.712L406.622 249.87L410.339 245.283L415.048 246.027C415.048 246.151 415.667 246.647 415.791 247.143Z" fill="#043C5E"/>
<path d="M415.915 247.763C416.039 249.002 418.021 250.49 418.021 250.49L418.145 249.002L417.773 248.011L416.782 247.515C416.658 247.515 415.667 246.647 415.915 247.763Z" fill="#043C5E"/>
<path d="M403.029 314.325C403.029 314.325 387.788 320.771 395.47 360.931C395.966 363.286 395.594 365.765 394.974 367.997C391.629 379.276 393.488 406.67 393.488 406.67H398.692C398.692 406.67 415.915 335.025 417.03 314.201C406.746 314.325 403.029 314.325 403.029 314.325Z" fill="#043C5E"/>
<path d="M450.487 296.848C450.735 296.972 451.726 297.344 453.585 296.972C455.319 296.724 458.789 294.989 458.541 296.972C457.178 298.336 455.691 300.195 455.691 300.195C454.7 300.939 452.717 300.939 451.478 300.691L447.761 299.451C447.761 299.451 447.017 297.592 446.894 297.468L447.513 296.972C448.628 296.972 449.62 296.972 450.487 296.848Z" fill="#F8B68F"/>
<path d="M451.354 297.468C451.354 297.468 451.478 297.592 451.602 297.592C451.354 297.716 451.23 297.964 450.983 298.088C450.115 298.335 449.248 298.583 448.257 298.955C448.133 298.335 448.009 297.592 448.009 297.468L453.461 294.493C453.461 294.493 454.08 294.989 453.213 295.98C452.346 297.096 451.354 297.468 451.354 297.468Z" fill="#F8B68F"/>
<path d="M401.542 272.181C407.118 266.356 417.898 280.734 421.739 284.948C422.483 285.692 423.35 286.312 424.218 286.808L449.867 296.848L448.256 299.451L420.005 293.377C418.889 293.129 417.898 292.633 416.907 292.014C411.455 288.543 395.842 278.007 401.542 272.181Z" fill="#F8B68F"/>
<path d="M420.624 293.005L433.263 295.732L433.015 296.228L420.5 293.625C419.385 293.377 418.27 292.881 417.278 292.386C414.429 290.65 409.844 287.304 405.755 283.957C405.879 283.833 406.003 283.709 406.127 283.585C410.463 287.18 415.296 290.65 417.526 292.014C418.518 292.386 419.509 292.757 420.624 293.005Z" fill="#F4A086"/>
<path d="M313.815 273.173L313.071 277.511C314.434 278.503 316.169 278.503 317.532 277.635L317.78 277.511L318.895 273.173H313.815Z" fill="#F8B68F"/>
<path d="M348.385 173.267C344.544 185.91 331.657 205.371 331.657 205.371L341.818 201.156L349.005 184.547C349.005 184.671 352.226 160.624 348.385 173.267Z" fill="#F7A605"/>
<path d="M320.753 224.088L312.699 273.545H319.762C319.762 273.545 335.746 229.046 337.481 216.031C337.481 208.594 321.249 216.031 321.249 216.031L320.753 224.088Z" fill="#212B53"/>
<path d="M347.395 153.311L349.997 160.252L355.696 156.038L351.855 147.981L347.395 153.311Z" fill="#F4A086"/>
<path d="M345.164 154.426C344.297 154.55 343.429 154.674 342.934 154.426C339.588 151.204 340.456 140.544 340.456 140.544L344.173 137.941L349.997 140.048L351.731 146.741C352.227 148.477 351.731 150.46 350.368 151.823C348.881 153.187 347.147 154.178 345.164 154.426Z" fill="#F8B68F"/>
<path d="M349.005 142.403C348.51 141.287 347.271 140.792 346.155 141.287C345.288 141.659 344.421 141.907 343.429 142.155C341.075 142.651 336.862 142.651 336.119 139.056C335.375 135.586 339.96 135.834 339.96 135.834L346.031 136.205C347.766 136.329 349.625 135.958 351.236 135.214C352.723 134.594 353.962 135.958 354.333 136.825C355.077 138.808 354.333 142.155 353.714 144.386C353.342 145.626 352.846 146.865 352.103 147.857L349.005 142.403Z" fill="#212B53"/>
<path d="M352.351 143.891C351.731 143.519 350.74 143.891 350.244 144.51C349.749 145.254 349.749 145.998 350.368 146.37C350.988 146.741 351.979 146.37 352.475 145.75C352.97 145.13 352.97 144.262 352.351 143.891Z" fill="#F8B68F"/>
<path d="M312.947 277.015C312.947 277.015 312.947 281.602 303.654 284.329C301.795 284.948 302.415 285.444 302.043 286.188C305.017 286.188 312.699 286.188 312.699 286.188L316.912 281.478L318.151 282.593L321.125 279.618C321.125 279.618 320.629 275.404 318.275 275.28C316.416 276.148 312.947 277.015 312.947 277.015Z" fill="#212B53"/>
<path d="M339.216 271.809L340.951 275.776C342.561 276.272 344.172 275.652 345.287 274.412L345.535 274.164L344.172 270.074L339.216 271.809Z" fill="#F8B68F"/>
<path d="M348.757 158.269C348.757 158.269 348.014 157.153 354.581 153.807C364.37 163.599 367.592 201.28 367.592 201.28C367.592 201.28 344.668 201.28 341.942 201.28C340.951 179.713 348.757 158.269 348.757 158.269Z" fill="#F04637"/>
<path d="M323.355 200.165C323.232 199.669 323.479 199.173 323.851 198.925L328.064 196.446C329.055 195.827 330.294 195.703 331.533 195.951L336.118 196.074L336.738 196.818L337.729 200.785C336.862 200.537 336.242 200.413 336.242 200.413L333.392 200.537C333.392 200.537 327.94 205.619 325.214 201.157C325.09 205.867 323.727 205.495 323.727 205.495L323.355 200.165Z" fill="#F8B68F"/>
<path d="M367.591 201.28L367.963 204.503V204.627C368.706 210.701 364.617 216.403 358.794 218.014C358.794 218.014 347.146 221.857 332.401 222.724C342.066 235.119 344.792 270.074 344.792 270.074L338.596 272.305L314.31 214.791C312.823 211.073 314.93 206.982 318.895 206.115L341.942 201.156H367.591V201.28Z" fill="#043C5E"/>
<path d="M351.483 170.54C351.483 170.54 356.316 174.878 359.042 179.465C359.785 180.704 359.661 182.316 358.794 183.431C353.466 189.629 334.384 195.455 334.384 195.455L335.623 202.396C335.623 202.396 362.635 197.066 372.3 187.522C382.089 177.605 356.688 157.029 356.688 157.029" fill="#F04637"/>
<path d="M358.794 179.713C359.537 180.828 359.414 182.192 358.546 183.183C356.068 186.034 349.625 189.009 343.925 191.116C343.925 191.488 343.925 191.488 343.925 191.86C349.872 189.629 356.44 186.654 359.166 183.555C360.281 182.316 360.405 180.58 359.537 179.093C356.688 174.631 351.979 170.168 351.855 170.168L351.359 170.788C351.235 170.912 356.068 175.251 358.794 179.713Z" fill="#F7A605"/>
<path d="M366.6 191.365C356.192 196.942 340.951 201.033 335.499 202.148C335.499 202.396 335.623 202.768 335.623 202.892C340.827 201.777 355.944 197.934 366.6 192.232C366.724 191.984 366.724 191.612 366.6 191.365Z" fill="#F7A605"/>
<path d="M313.195 208.594L305.265 179.96L306.752 179.589L314.31 206.858L337.357 202.892L337.605 204.379L313.195 208.594Z" fill="#01898C"/>
<path d="M340.455 274.908C340.455 274.908 340.827 279.494 331.658 282.345C329.799 282.965 330.419 283.461 330.047 284.204C333.021 284.204 340.703 284.204 340.703 284.204L344.916 279.494L346.155 280.61L349.129 277.635C349.129 277.635 347.766 273.421 345.412 273.297C343.553 274.04 340.455 274.908 340.455 274.908Z" fill="#212B53"/>
<path d="M216.915 226.435L230.173 225.32C231.908 225.32 234.014 225.692 234.386 227.179C234.386 227.179 234.758 228.171 234.758 229.162C234.386 229.782 216.667 230.526 216.667 230.526H216.543C214.561 228.419 216.915 226.435 216.915 226.435Z" fill="#043C5E"/>
<path d="M234.758 229.162L216.791 230.526L216.915 231.27L234.882 229.782L234.758 229.162Z" fill="white"/>
<path d="M222.119 225.94L223.358 225.816L223.11 227.551H221.995L222.119 225.94Z" fill="white"/>
<path d="M224.721 225.692H225.961L225.713 227.303L224.474 227.427L224.721 225.692Z" fill="white"/>
<path d="M215.676 222.097L216.915 226.435C218.03 226.931 219.393 226.807 220.508 226.188L220.756 226.064L221.004 221.601L215.676 222.097Z" fill="#F8B68F"/>
<path d="M212.826 229.41L226.084 228.295C227.819 228.295 229.926 228.667 230.297 230.154C230.297 230.154 230.669 231.146 230.669 232.137C230.297 232.757 212.578 233.625 212.578 233.625H212.454C210.472 231.518 212.826 229.41 212.826 229.41Z" fill="#043C5E"/>
<path d="M230.669 232.137L212.578 233.625L212.826 234.244L230.669 232.757V232.137Z" fill="white"/>
<path d="M218.03 228.915H219.269L219.021 230.526L217.782 230.65L218.03 228.915Z" fill="white"/>
<path d="M220.633 228.791L221.748 228.667L221.5 230.278L220.385 230.402L220.633 228.791Z" fill="white"/>
<path d="M211.463 225.072L212.702 229.41C213.817 229.906 215.18 229.782 216.295 229.162L216.543 229.038L216.791 224.576L211.463 225.072Z" fill="#F8B68F"/>
<path d="M159.421 195.695C159.421 195.695 161.527 212.429 176.768 213.172C192.009 213.916 210.1 196.439 210.1 196.439L216.048 222.841L221.871 222.965C221.871 222.965 225.712 182.804 217.534 180.821C209.356 178.838 178.875 192.1 178.875 192.1L159.421 195.695Z" fill="#212B53"/>
<path d="M171.441 148.593L168.467 154.543L173.547 156.402L175.901 151.568L171.441 148.593Z" fill="#F4A086"/>
<path d="M172.804 137.934L170.697 146.114C171.565 146.362 171.689 147.354 171.317 147.974C171.317 148.222 171.317 148.346 171.317 148.593C172.432 149.957 174.538 152.064 177.884 152.436C183.212 153.056 183.212 142.272 183.212 142.272L172.804 137.934Z" fill="#F8B68F"/>
<path d="M168.342 143.14C168.466 142.52 168.094 141.032 167.723 140.537C165.616 137.19 168.714 136.198 169.829 135.826C171.068 135.455 171.44 133.595 173.051 132.975C175.529 131.984 176.892 134.215 178.255 134.463C179.618 134.587 180.981 133.223 182.468 134.711C184.079 136.198 183.335 137.562 183.831 138.429C184.203 139.173 185.813 137.934 187.053 140.413C188.911 144.255 183.087 143.759 183.087 143.759C183.087 143.759 179.742 144.007 176.396 141.28C175.901 140.908 175.281 140.784 174.786 141.156C173.423 142.148 171.316 148.841 171.316 148.841L170.325 147.354C170.449 147.23 167.723 145.867 168.342 143.14Z" fill="#212B53"/>
<path d="M172.531 145.864C173.213 145.805 173.719 145.205 173.66 144.523C173.601 143.841 173.001 143.335 172.319 143.394C171.638 143.452 171.132 144.053 171.191 144.735C171.25 145.417 171.85 145.922 172.531 145.864Z" fill="#F8B68F"/>
<path d="M155.084 194.208C155.084 194.208 155.456 211.065 170.573 213.297C185.69 215.528 205.391 200.034 205.391 200.034L211.215 225.94L217.163 225.444C217.163 225.444 222.367 188.134 214.437 185.283C206.506 182.432 174.786 192.473 174.786 192.473L155.084 194.208Z" fill="#043C5E"/>
<path d="M155.084 194.208L180.362 192.101C180.362 192.101 178.999 186.523 179.123 180.821C179.123 176.483 180.981 172.764 180.981 172.764C180.238 163.096 177.388 153.552 168.838 154.047C154.093 156.526 155.084 194.208 155.084 194.208Z" fill="#01898C"/>
<path d="M227.2 163.344L217.163 184.911L195.231 180.821L194.859 182.556L218.154 186.895L228.811 164.087L227.2 163.344Z" fill="#01898C"/>
<path d="M170.944 173.26L180.857 172.392L181.229 183.548L198.948 179.209L203.037 176.854C204.028 176.235 205.267 176.111 206.506 176.359L211.215 177.35C211.711 177.474 212.082 177.846 212.082 178.342L213.445 183.548C213.445 183.548 212.206 184.292 210.719 179.953C209.48 185.035 202.541 181.193 202.541 181.193L200.063 182.804C200.063 182.804 180.485 195.323 176.025 192.596C171.44 189.621 170.944 173.26 170.944 173.26Z" fill="#F8B68F"/>
<path d="M212.082 178.342C212.082 177.846 211.71 177.474 211.215 177.35L206.506 176.359C205.391 176.111 204.152 176.359 203.037 176.855L198.948 179.21L198.328 179.334L198.7 183.424C199.443 182.928 199.939 182.68 199.939 182.68L202.417 181.069C202.417 181.069 209.356 184.911 210.595 179.829C212.206 184.292 213.321 183.424 213.321 183.424L212.082 178.342Z" fill="#F8B68F"/>
<path d="M65.1247 289.501L72.5593 303.507L64.3813 303.136L63.7617 289.129L65.1247 289.501Z" fill="#F8B68F"/>
<path d="M53.4771 283.303H60.2921L63.142 327.554H50.875L53.4771 283.303Z" fill="white"/>
<path d="M40.9631 413.081C40.9631 413.081 39.2283 414.445 39.6001 416.056C39.9718 417.791 40.3435 421.758 40.3435 421.758H42.0783V418.039C42.0783 417.792 45.7955 421.758 46.4151 421.758H55.5844C55.5844 421.758 56.2039 419.279 50.7519 418.411C45.4238 417.668 40.9631 413.081 40.9631 413.081Z" fill="#043C5E"/>
<path d="M44.9287 411.47L46.1678 414.693C46.4157 415.56 47.0352 416.304 47.9026 416.8C48.7699 417.42 50.1329 418.163 52.2394 418.783C49.7612 420.89 45.7961 418.659 43.4418 417.172C42.3266 416.428 41.5832 415.313 41.2115 413.949L40.7158 411.47H44.9287Z" fill="#F8B68F"/>
<path d="M58.4338 413.081C58.4338 413.081 56.699 414.445 57.0708 416.056C57.3186 417.791 57.8142 421.758 57.8142 421.758H59.549V418.039C59.549 417.792 63.2663 421.758 63.8858 421.758H73.0551C73.0551 421.758 73.6747 419.279 68.2226 418.411C62.8945 417.668 58.4338 413.081 58.4338 413.081Z" fill="#043C5E"/>
<path d="M62.3995 411.47L63.6385 414.693C63.8864 415.56 64.5059 416.304 65.3733 416.8C66.2407 417.42 67.6037 418.163 69.7101 418.783C67.2319 420.89 63.2668 418.659 60.9125 417.172C59.7973 416.428 59.0539 415.313 58.6822 413.949L58.1865 411.47H62.3995Z" fill="#F8B68F"/>
<path d="M48.2738 327.554C48.2738 327.554 47.1586 334.123 53.7258 366.599C48.3977 383.58 56.9475 411.842 56.9475 411.842H63.143L67.3559 327.554H48.2738Z" fill="#475B73"/>
<path d="M59.5498 283.303L61.7802 336.974L69.0908 333.876C69.0908 333.876 65.7453 323.835 66.117 309.829C65.0018 299.665 70.7017 304.995 63.7627 285.534C61.1606 283.303 59.5498 283.303 59.5498 283.303Z" fill="#FF7B7C"/>
<path d="M60.5403 277.849L59.673 282.311C59.3012 284.295 57.0709 285.286 55.3361 284.171L52.3623 282.311L57.6904 270.164L60.5403 277.849Z" fill="#F4A086"/>
<path d="M42.2025 327.554C42.2025 327.554 34.0245 334.123 40.5917 366.599C35.2636 383.58 39.9721 411.842 39.9721 411.842H45.5481L61.2846 327.554H42.2025Z" fill="#6680A1"/>
<path d="M53.4778 278.841C53.4778 278.841 46.5389 282.683 44.4324 286.154C42.3259 289.501 41.7064 296.938 41.4586 303.631C41.2107 312.804 36.75 336.974 36.75 336.974H55.2125L55.7082 284.419L53.4778 278.841Z" fill="#FF7B7C"/>
<path d="M67.1084 264.214C62.8955 263.099 58.9304 267.437 58.9304 267.437L55.7087 284.419L50.8763 276.982C50.8763 276.982 50.6285 266.817 55.337 260.124C58.6826 256.034 65.1259 257.273 68.3475 261.24C69.9583 263.223 70.2061 265.826 70.0822 268.305C69.8344 271.528 68.9671 290.368 68.9671 290.368L59.426 283.179C59.426 283.179 59.6738 281.32 60.5412 277.725C62.152 271.776 69.9583 264.958 67.1084 264.214Z" fill="#212B53"/>
<path d="M57.6908 267.189C58.3103 266.942 59.0538 267.313 59.4255 268.181C59.7973 268.925 59.5494 269.792 58.9299 270.04C58.3103 270.288 57.5669 269.916 57.1952 269.049C56.8234 268.305 57.0713 267.437 57.6908 267.189Z" fill="#F8B68F"/>
<path d="M62.1512 278.593C62.8946 278.841 63.6381 279.089 64.2576 278.841C67.851 276.238 69.214 265.702 69.214 265.702L66.3641 262.603L60.6643 263.843L57.8143 270.164C57.0709 271.899 57.1948 273.759 58.0622 275.37C59.0534 276.858 60.4164 277.973 62.1512 278.593Z" fill="#F8B68F"/>
<path d="M68.0995 263.967C67.8517 267.189 58.9302 267.437 58.9302 267.437L58.4346 263.099L63.6388 260.248L67.7278 262.727C67.7278 262.727 68.0995 263.471 68.0995 263.967Z" fill="#212B53"/>
<path d="M67.8514 264.586C67.6035 265.826 68.7187 267.809 68.7187 267.809L69.4622 266.57V265.454L68.7187 264.586C68.8426 264.71 68.2231 263.471 67.8514 264.586Z" fill="#212B53"/>
<path d="M46.2908 286.154C37.3693 287.146 41.5823 310.325 43.4409 319.745C43.9365 322.1 46.2908 323.464 48.5212 322.844C56.3275 320.365 67.7272 310.201 67.7272 310.201L65.8685 307.97L50.7516 311.44C50.8755 311.44 56.6992 284.914 46.2908 286.154Z" fill="#F8B68F"/>
<path d="M64.2577 302.516L61.2839 320.613C61.16 321.109 61.6556 321.604 62.1513 321.604H73.6749C74.0466 321.604 74.4183 321.356 74.5422 320.861L77.3921 302.764C77.516 302.268 77.0204 301.772 76.5248 301.772H65.0012C64.6295 301.772 64.3816 302.02 64.2577 302.516Z" fill="white"/>
<path d="M77.1449 310.449C77.2688 309.829 77.1449 309.457 76.8971 308.094C76.6493 306.358 76.6493 303.755 74.9146 304.995C73.3037 307.102 73.0559 309.333 73.0559 309.333C72.6842 310.573 73.4276 312.184 74.1711 313.176L75.4102 315.779C75.4102 315.779 77.5167 313.424 77.1449 310.449Z" fill="#F8B68F"/>
<path d="M70.4533 309.705C70.9323 309.705 71.3207 309.317 71.3207 308.837C71.3207 308.358 70.9323 307.97 70.4533 307.97C69.9743 307.97 69.5859 308.358 69.5859 308.837C69.5859 309.317 69.9743 309.705 70.4533 309.705Z" fill="url(#paint9_linear)"/>
<path d="M265.118 349.776L262.144 356.717L257.063 352.131L260.657 342.215L265.118 349.776Z" fill="#F4A086"/>
<path d="M266.976 350.271C267.844 350.395 268.587 350.395 269.083 350.023C272.057 346.553 271.065 336.513 271.065 336.513L267.472 333.414L262.02 335.893L260.657 341.471C260.285 343.33 260.781 346.553 262.02 347.916C263.383 349.156 265.118 350.023 266.976 350.271Z" fill="#F8B68F"/>
<path d="M271.19 336.885C270.942 337.132 266.977 340.355 261.649 340.107C260.41 340.107 260.533 339.859 260.533 342.215C260.533 344.57 259.047 347.049 259.047 347.049L255.949 346.181C255.949 346.181 252.108 332.298 260.41 330.191C269.455 328.084 271.19 336.885 271.19 336.885Z" fill="#212B53"/>
<path d="M264.127 418.197C264.127 418.197 262.268 419.189 262.64 420.676C262.888 422.288 263.383 424.643 263.383 424.643H264.499V422.783C264.499 422.536 264.746 422.412 264.994 422.536L267.101 424.023C267.596 424.395 268.092 424.519 268.712 424.519H277.137C277.137 424.519 277.137 421.792 272.181 421.048C267.101 420.552 264.127 418.197 264.127 418.197Z" fill="#043C5E"/>
<path d="M266.605 415.222L267.72 418.321C267.968 418.941 268.339 419.561 268.959 419.933C269.578 420.304 270.57 420.8 272.18 421.296C270.322 422.907 267.348 421.296 265.737 420.181C264.87 419.561 264.374 418.817 264.126 417.825L263.507 415.222H266.605Z" fill="#F8B68F"/>
<path d="M256.072 346.305L255.205 348.04L258.427 348.784L259.046 347.173L256.072 346.305Z" fill="#FFDB71"/>
<path d="M255.206 347.792C255.206 347.792 249.134 347.792 245.912 351.635C244.673 353.246 244.178 355.849 243.806 357.708C243.558 359.072 242.691 360.187 241.576 360.931C238.354 362.914 232.654 367.377 237.61 372.459C244.302 379.276 248.391 373.079 248.391 373.079L258.551 348.536L255.206 347.792Z" fill="#212B53"/>
<path d="M287.763 355.961L278.469 357.479L278.868 359.926L288.162 358.408L287.763 355.961Z" fill="#F7A605"/>
<path d="M278.376 360.064L277.881 357.585L278.748 357.461L279.12 359.94L278.376 360.064Z" fill="url(#paint10_linear)"/>
<path d="M278.128 357.584C277.509 357.708 276.889 357.956 277.137 359.072C277.385 360.311 277.88 360.187 278.624 360.064L278.128 357.584Z" fill="#212B53"/>
<path d="M287.669 355.973L289.775 356.469L289.899 357.337L288.165 358.452L287.669 355.973Z" fill="url(#paint11_linear)"/>
<path d="M289.775 356.469L290.643 356.717L289.899 357.337L289.775 356.469Z" fill="#212B53"/>
<path d="M287.862 356.993L287.762 356.381L278.835 357.841L278.935 358.452L287.862 356.993Z" fill="#FFDB71"/>
<path d="M288.07 358.099L287.971 357.487L279.043 358.944L279.143 359.556L288.07 358.099Z" fill="#FFDB71"/>
<path d="M252.355 389.688C252.355 389.688 265.862 379.152 273.296 382.747C280.731 386.341 265.986 416.834 265.986 416.834C265.986 416.834 263.631 414.851 262.392 409.892C261.277 404.934 262.392 400.224 262.392 400.224L255.205 413.239L252.355 389.688Z" fill="#043C5E"/>
<path d="M285.563 356.097C285.192 354.981 284.944 354.734 283.953 355.229C282.961 355.601 282.218 356.469 281.722 357.337L279.12 363.038C279.864 363.782 280.483 364.526 280.979 365.269C281.227 365.022 281.35 364.898 281.35 364.898L284.324 362.666C285.44 361.923 286.803 360.807 286.926 359.568C287.05 358.204 286.059 357.089 285.563 356.097Z" fill="#F8B68F"/>
<path d="M259.914 339.983C260.533 339.611 261.401 339.859 261.896 340.479C262.392 341.099 262.392 341.967 261.896 342.462C261.277 342.834 260.409 342.586 259.914 341.967C259.418 341.223 259.418 340.355 259.914 339.983Z" fill="#F8B68F"/>
<path d="M226.087 411.628C226.087 411.628 225.839 409.645 224.352 409.273C222.865 408.901 220.387 408.405 220.387 408.405L220.015 409.397L221.75 410.14C221.998 410.264 221.998 410.512 221.75 410.636L219.519 411.628L217.537 418.445C217.165 419.809 218.528 422.04 218.528 422.04C218.528 422.04 220.263 424.643 221.874 424.643H224.724C224.724 424.643 225.095 424.023 224.352 423.279C223.237 422.04 221.13 420.18 221.626 417.825C222.741 412.991 226.087 411.628 226.087 411.628Z" fill="#212B53"/>
<path d="M227.945 414.975L224.599 414.851C223.856 414.851 223.112 414.851 222.617 415.47C221.749 416.462 221.997 418.693 221.873 420.428C219.147 416.958 221.873 413.487 223.608 412.372C224.475 411.876 225.467 411.628 226.458 411.752L229.06 412.124L227.945 414.975Z" fill="#F8B68F"/>
<path d="M252.231 369.856C252.231 369.856 256.94 383.987 263.259 384.73C269.455 385.598 282.713 363.782 282.713 363.782L279.492 362.171L265.242 373.451L259.542 361.427" fill="#F04637"/>
<path d="M257.807 350.643L262.268 356.345C262.268 356.345 264.374 361.179 264.498 368.988C264.498 371.219 263.383 372.707 262.144 374.442C257.188 380.764 252.355 389.688 252.355 389.688L240.336 384.482C240.336 384.482 247.523 359.568 250.992 354.981C254.462 350.271 257.807 350.643 257.807 350.643Z" fill="#F04637"/>
<path d="M240.336 384.358C240.336 384.358 233.025 387.581 231.539 396.01C230.052 404.439 247.275 417.702 247.275 417.702C247.275 417.702 244.053 412 227.078 411.504C225.591 413.611 226.087 412.62 224.6 415.223C254.09 434.931 265.366 432.948 267.348 424.519C269.331 416.09 252.231 389.564 252.231 389.564L240.336 384.358Z" fill="#212B53"/>
<path d="M410.281 59.243C406.636 75.1308 444.019 77.0934 459.44 77.2804C463.739 77.3738 467.944 76.9065 472.15 76.0654C485.141 73.4486 513.739 66.4392 509.72 57.0934C504.58 44.9439 489.066 53.4486 489.066 53.4486C489.066 53.4486 491.029 44.2897 464.673 38.2149C438.225 32.0467 438.318 52.3271 438.318 52.3271C438.318 52.3271 414.86 39.3364 410.281 59.243Z" fill="#D6E0EB"/>
<defs>
<linearGradient id="paint0_linear" x1="258.533" y1="62.5667" x2="73.7246" y2="62.5667" gradientUnits="userSpaceOnUse">
<stop stop-color="#E0F0EB"/>
<stop offset="1" stop-color="#C0E4EF"/>
</linearGradient>
<linearGradient id="paint1_linear" x1="324.961" y1="4.83587" x2="365.194" y2="4.83587" gradientUnits="userSpaceOnUse">
<stop offset="6.3e-07" stop-color="#F1F8F8"/>
<stop offset="1" stop-color="#C0E4EF"/>
</linearGradient>
<linearGradient id="paint2_linear" x1="324.961" y1="17.0093" x2="357.406" y2="17.0093" gradientUnits="userSpaceOnUse">
<stop offset="6.3e-07" stop-color="#F1F8F8"/>
<stop offset="1" stop-color="#C0E4EF"/>
</linearGradient>
<linearGradient id="paint3_linear" x1="227.359" y1="26.2641" x2="276.275" y2="17.2183" gradientUnits="userSpaceOnUse">
<stop offset="6.3e-07" stop-color="#F1F8F8"/>
<stop offset="1" stop-color="#C0E4EF"/>
</linearGradient>
<linearGradient id="paint4_linear" x1="217.616" y1="29.4497" x2="276.208" y2="18.6144" gradientUnits="userSpaceOnUse">
<stop offset="6.3e-07" stop-color="#F1F8F8"/>
<stop offset="1" stop-color="#C0E4EF"/>
</linearGradient>
<linearGradient id="paint5_linear" x1="340.79" y1="252.096" x2="392.111" y2="252.096" gradientUnits="userSpaceOnUse">
<stop stop-color="#E0F0EB"/>
<stop offset="1" stop-color="#C0E4EF"/>
</linearGradient>
<linearGradient id="paint6_linear" x1="142.983" y1="246.919" x2="191.826" y2="246.919" gradientUnits="userSpaceOnUse">
<stop stop-color="#E0F0EB"/>
<stop offset="1" stop-color="#C0E4EF"/>
</linearGradient>
<linearGradient id="paint7_linear" x1="486.369" y1="250.09" x2="512.529" y2="344.008" gradientUnits="userSpaceOnUse">
<stop stop-color="#E0F0EB"/>
<stop offset="1" stop-color="#C0E4EF"/>
</linearGradient>
<linearGradient id="paint8_linear" x1="398.507" y1="290.355" x2="423.136" y2="290.355" gradientUnits="userSpaceOnUse">
<stop stop-color="#E0F0EB"/>
<stop offset="1" stop-color="#C0E4EF"/>
</linearGradient>
<linearGradient id="paint9_linear" x1="69.5291" y1="308.776" x2="71.2956" y2="308.776" gradientUnits="userSpaceOnUse">
<stop stop-color="#E0F0EB"/>
<stop offset="1" stop-color="#C0E4EF"/>
</linearGradient>
<linearGradient id="paint10_linear" x1="277.937" y1="358.733" x2="279.181" y2="358.733" gradientUnits="userSpaceOnUse">
<stop stop-color="#E0F0EB"/>
<stop offset="1" stop-color="#C0E4EF"/>
</linearGradient>
<linearGradient id="paint11_linear" x1="287.719" y1="357.204" x2="289.907" y2="357.204" gradientUnits="userSpaceOnUse">
<stop stop-color="#E0F0EB"/>
<stop offset="1" stop-color="#C0E4EF"/>
</linearGradient>
</defs>
</svg>
