<svg width="552" height="406" viewBox="0 0 552 406" fill="none" xmlns="http://www.w3.org/2000/svg">
<path d="M45.1748 149.344H241.17C241.17 149.344 251.85 135.869 241.17 126.886C235.345 121.909 228.427 122.394 223.33 123.851C220.053 124.822 216.777 122.637 216.049 119.238C214.835 113.654 211.194 106.492 200.636 102.243C190.199 97.9939 183.646 104.428 179.884 111.105C178.67 113.29 175.272 112.925 174.544 110.619C171.267 100.179 159.738 86.3401 122.117 86.3401C74.1797 86.3401 79.5195 111.833 83.767 122.394C84.4952 124.215 82.9175 126.157 80.9758 125.672C73.5729 124.094 59.8593 122.03 53.67 126.886C45.1748 133.562 45.1748 149.344 45.1748 149.344Z" fill="url(#paint0_linear)"/>
<path d="M464.714 79.0564L468.355 82.6982L476 81.6057L471.995 76.3857L464.714 79.0564Z" fill="#475B73"/>
<path d="M508.039 51.3787L511.679 55.0205L513.742 66.4316L505.126 60.8474L508.039 51.3787Z" fill="#475B73"/>
<path d="M490.927 81.6057L435.588 186.248H301L244.932 292.467H110.709L55.8545 396.26H75.1506L122.723 307.035H257.432L314.107 199.601H447.602L505.126 83.3052L490.927 81.6057Z" fill="#475B73"/>
<path d="M468.354 82.6984L520.66 105.035L511.68 55.0205L468.354 82.6984Z" fill="#475B73"/>
<path d="M524.179 297.566C524.179 297.566 431.461 329.493 401.606 333.742C409.373 368.096 418.111 389.583 418.111 389.583C418.111 389.583 537.65 366.397 541.655 356.685C541.048 345.76 541.17 346.002 524.179 297.566Z" fill="#475B73"/>
<path d="M530.126 337.384C523.208 339.933 518.961 348.916 521.631 354.864C513.864 367.125 434.131 379.507 434.131 379.507V379.386C432.432 372.588 424.665 368.703 418.111 370.524L412.286 350.737C419.082 348.552 422.602 341.39 420.903 334.592C420.903 334.47 420.903 334.47 420.903 334.47L508.403 307.278C508.524 307.763 508.524 308.128 508.645 308.613C510.344 315.411 518.475 320.51 525.029 318.81L530.49 337.505C530.247 337.384 530.126 337.384 530.126 337.384Z" fill="url(#paint1_linear)"/>
<path d="M496.123 340.634C498.116 340.045 499.254 337.952 498.665 335.959C498.076 333.966 495.983 332.828 493.991 333.417C491.998 334.006 490.86 336.099 491.449 338.092C492.038 340.085 494.13 341.223 496.123 340.634Z" fill="#6680A1"/>
<path d="M506.901 337.355C508.894 336.766 510.032 334.673 509.443 332.68C508.854 330.687 506.762 329.548 504.769 330.137C502.776 330.726 501.638 332.82 502.227 334.813C502.816 336.806 504.909 337.944 506.901 337.355Z" fill="#6680A1"/>
<path d="M434.958 358.702C436.951 358.113 438.089 356.02 437.5 354.027C436.911 352.034 434.818 350.896 432.826 351.485C430.833 352.074 429.695 354.167 430.284 356.16C430.873 358.153 432.965 359.291 434.958 358.702Z" fill="#043C5E"/>
<path d="M445.503 355.566C447.496 354.977 448.633 352.884 448.045 350.891C447.456 348.898 445.363 347.759 443.371 348.348C441.378 348.937 440.24 351.031 440.829 353.024C441.418 355.017 443.51 356.155 445.503 355.566Z" fill="#01898C"/>
<path d="M509.373 233.349C509.373 233.349 430.854 292.103 403.912 305.457C421.752 335.805 436.8 353.529 436.8 353.529C436.8 353.529 543.475 294.653 544.203 284.334C540.32 274.137 540.441 274.38 509.373 233.349Z" fill="#475B73"/>
<path d="M527.213 269.524C521.388 274.137 520.174 283.97 524.543 288.826C520.902 302.907 448.815 339.204 448.815 339.204C448.815 339.204 448.815 339.083 448.694 339.083C445.053 333.135 436.436 331.799 430.733 335.562L419.082 318.567C424.907 314.44 426 306.549 422.237 300.48L422.116 300.358L497.116 247.673C497.359 248.037 497.48 248.401 497.723 248.887C501.364 254.835 510.708 257.142 516.412 253.5L527.335 269.524C527.456 269.403 527.334 269.403 527.213 269.524Z" fill="url(#paint2_linear)"/>
<path d="M495.967 282.916C497.683 281.744 498.125 279.402 496.953 277.685C495.781 275.969 493.44 275.527 491.724 276.699C490.008 277.871 489.567 280.213 490.739 281.93C491.91 283.646 494.251 284.088 495.967 282.916Z" fill="#6680A1"/>
<path d="M505.228 276.652C506.944 275.48 507.385 273.139 506.214 271.422C505.042 269.705 502.701 269.264 500.985 270.436C499.269 271.608 498.828 273.95 499.999 275.666C501.171 277.383 503.512 277.824 505.228 276.652Z" fill="#6680A1"/>
<path d="M443.222 319.015C444.938 317.843 445.379 315.501 444.208 313.785C443.036 312.068 440.695 311.627 438.979 312.799C437.263 313.971 436.822 316.312 437.994 318.029C439.165 319.745 441.506 320.187 443.222 319.015Z" fill="#043C5E"/>
<path d="M452.274 312.716C453.99 311.544 454.431 309.202 453.26 307.486C452.088 305.769 449.747 305.328 448.031 306.5C446.315 307.672 445.874 310.014 447.045 311.73C448.217 313.447 450.558 313.888 452.274 312.716Z" fill="#01898C"/>
<path d="M426.607 216.596C426.607 216.596 386.437 306.064 369.325 330.828C399.665 348.673 421.388 356.928 421.388 356.928C421.388 356.928 486.194 253.743 481.825 244.274C473.451 237.112 473.573 237.355 426.607 216.596Z" fill="#475B73"/>
<path d="M459.738 239.418C456.825 246.216 460.587 255.442 466.776 257.627C470.417 271.709 424.908 338.355 424.908 338.355C424.908 338.355 424.786 338.355 424.786 338.233C418.718 334.834 410.466 337.869 407.31 343.817L388.864 334.591C391.898 328.036 388.985 320.752 382.917 317.232C382.917 317.232 382.796 317.232 382.796 317.111L422.723 234.684C423.087 234.927 423.451 235.169 423.815 235.412C429.883 238.811 439.228 236.383 442.383 230.435L459.738 239.175C459.859 239.297 459.859 239.418 459.738 239.418Z" fill="url(#paint3_linear)"/>
<path d="M437.813 295.462C441.662 287.793 438.566 278.455 430.899 274.605C423.232 270.755 413.896 273.852 410.048 281.521C406.199 289.191 409.295 298.529 416.962 302.379C424.629 306.228 433.964 303.132 437.813 295.462Z" fill="white"/>
<path d="M414.471 279.843L416.898 281.663C418.233 279.843 420.175 278.386 421.631 277.779L422.845 280.085C421.389 280.814 419.811 281.906 418.597 283.727C417.02 286.034 416.777 288.097 418.233 289.19C419.69 290.161 421.389 289.554 423.937 287.855C427.335 285.427 429.884 284.213 432.19 285.791C434.374 287.369 434.617 290.404 432.918 293.56L435.588 295.381L434.131 297.323L431.583 295.502C430.127 297.323 428.792 298.416 427.699 299.023L426.364 296.595C427.093 296.109 428.428 295.26 429.884 293.317C431.583 290.889 431.583 289.433 430.491 288.704C429.156 287.733 427.578 288.462 424.665 290.525C421.267 292.953 418.719 293.681 416.413 291.982C414.35 290.525 413.5 287.248 415.442 283.727L412.894 281.906L414.471 279.843Z" fill="#00666A"/>
<path d="M414.476 279.818L412.848 282.086L434.138 297.384L435.767 295.116L414.476 279.818Z" fill="#00666A"/>
<path d="M438.903 266.423C439.835 264.566 439.086 262.304 437.229 261.372C435.372 260.439 433.111 261.189 432.179 263.047C431.247 264.904 431.997 267.166 433.853 268.098C435.71 269.03 437.971 268.281 438.903 266.423Z" fill="#01898C"/>
<path d="M443.955 256.44C444.887 254.583 444.137 252.321 442.28 251.389C440.423 250.456 438.162 251.206 437.23 253.063C436.298 254.921 437.047 257.183 438.904 258.115C440.761 259.048 443.022 258.298 443.955 256.44Z" fill="#6680A1"/>
<path d="M410.305 323.507C411.237 321.65 410.488 319.388 408.631 318.455C406.774 317.523 404.513 318.273 403.581 320.13C402.648 321.987 403.398 324.249 405.255 325.182C407.112 326.114 409.373 325.365 410.305 323.507Z" fill="#043C5E"/>
<path d="M415.236 313.746C416.168 311.889 415.419 309.627 413.562 308.695C411.705 307.762 409.444 308.512 408.511 310.369C407.579 312.227 408.329 314.488 410.185 315.421C412.042 316.354 414.303 315.604 415.236 313.746Z" fill="#01898C"/>
<path d="M298.937 205.428C300.272 203.243 302.457 201.665 304.763 200.936C306.947 171.559 302.821 132.955 273.331 108.434C170.418 165.853 227.093 266.975 227.093 266.975L275.636 249.251C283.161 234.441 290.564 219.631 298.937 205.428Z" fill="#B5CAE7"/>
<path d="M273.452 108.434C273.088 108.677 272.724 108.798 272.36 109.041L266.049 219.024L217.02 171.073C216.777 171.802 216.535 172.53 216.292 173.258L265.928 221.816L264.108 253.621L266.171 252.893L269.811 189.647L304.156 169.495C304.035 168.767 303.913 168.038 303.913 167.31L270.054 187.219L274.544 109.526C274.059 109.041 273.816 108.798 273.452 108.434Z" fill="white"/>
<path d="M267.748 265.154L273.209 220.966C273.209 220.966 239.835 133.805 174.787 125.308C127.699 188.675 190.321 252.043 190.321 252.043L259.374 281.056C262.287 275.715 265.078 270.495 267.748 265.154Z" fill="#6680A1"/>
<path d="M261.194 277.657C261.559 276.929 261.923 276.201 262.287 275.472L219.811 201.422L238.743 164.154C238.258 163.547 237.772 163.061 237.287 162.454L218.597 199.358L176.364 125.55C175.879 125.429 175.394 125.429 174.787 125.308C174.544 125.55 174.423 125.793 174.301 126.036L196.995 165.611L159.374 157.963C159.253 158.327 159.253 158.691 159.131 159.055L158.889 160.026L198.33 168.038L236.073 233.955L169.568 222.544C169.932 223.273 170.418 224.123 170.782 224.851L237.408 236.262L261.194 277.657Z" fill="#B5CAE7"/>
<path d="M168.84 302.422C169.689 302.3 170.66 302.3 171.51 302.3C197.359 303.757 222.966 299.872 248.694 298.901C254.034 290.525 259.01 281.906 263.621 273.044L261.437 265.275C261.437 265.275 186.073 216.596 143.354 246.58C144.689 269.888 152.214 288.097 163.257 302.3C165.199 302.3 167.02 302.3 168.84 302.422Z" fill="#25374B"/>
<path d="M234.738 299.63C236.437 299.508 238.014 299.387 239.713 299.265L202.699 278.507L190.684 236.626C189.956 236.505 189.228 236.505 188.5 236.383L200.15 277.172L144.446 245.973C144.082 246.216 143.84 246.338 143.476 246.58C143.476 246.945 143.476 247.43 143.597 247.794L235.587 299.387L234.738 299.63Z" fill="#6680A1"/>
<path d="M343.111 246.216C266.776 275.351 274.786 295.745 267.14 322.209C259.495 348.673 256.339 404.272 343.111 405C448.572 405.85 448.572 359.234 444.689 322.209C439.956 277.779 402.941 246.216 402.941 246.216C402.941 246.216 368.839 258.841 343.111 246.216Z" fill="#6680A1"/>
<path d="M343.111 246.216C346.024 241.725 345.66 235.898 342.019 231.892L332.432 221.452C332.432 221.452 348.936 198.63 373.572 215.139C392.383 227.643 409.737 219.267 416.898 214.532C417.869 213.925 418.961 214.897 418.475 215.989C415.32 222.787 411.072 229.1 406.218 234.927C403.184 238.69 401 242.696 402.941 246.216L372.844 257.02L343.111 246.216Z" fill="#6680A1"/>
<path d="M340.077 247.43C340.077 247.43 350.878 260.541 375.514 260.541C400.15 260.541 407.674 249.251 407.674 249.251L402.456 242.453C402.456 242.453 396.145 251.558 375.635 252.529C359.009 253.379 344.932 242.453 344.932 242.453L340.077 247.43Z" fill="#2D2C45"/>
<path d="M292.383 378.9H247.966V397.352H292.383V378.9Z" fill="#F04637"/>
<path d="M221.753 378.9H185.709V397.352H221.753V378.9Z" fill="#FF7B7C"/>
<path d="M247.966 378.9H213.379V397.352H247.966V378.9Z" fill="#FF5C5D"/>
<path d="M184.98 378.172H293.112V397.959H184.98V378.172ZM291.534 379.629H186.315V396.624H291.534V379.629Z" fill="#F04637"/>
<path d="M280.248 360.448H235.83V378.9H280.248V360.448Z" fill="#F04637"/>
<path d="M209.617 360.448H173.573V378.9H209.617V360.448Z" fill="#FF7B7C"/>
<path d="M235.952 360.448H201.364V378.9H235.952V360.448Z" fill="#FF5C5D"/>
<path d="M172.845 359.72H280.976V379.507H172.845V359.72ZM279.519 361.177H174.301V378.172H279.519V361.177Z" fill="#F04637"/>
<path d="M301.122 342.118H256.704V360.57H301.122V342.118Z" fill="#F04637"/>
<path d="M230.491 342.118H194.447V360.57H230.491V342.118Z" fill="#FF7B7C"/>
<path d="M256.826 342.118H222.238V360.57H256.826V342.118Z" fill="#FF5C5D"/>
<path d="M193.719 341.389H301.85V361.177H193.719V341.389ZM300.394 342.846H195.175V359.841H300.394V342.846Z" fill="#F04637"/>
<path d="M293.598 323.666H249.181V342.118H293.598V323.666Z" fill="#F04637"/>
<path d="M222.845 323.666H186.802V342.118H222.845V323.666Z" fill="#FF7B7C"/>
<path d="M249.18 323.666H214.593V342.118H249.18V323.666Z" fill="#FF5C5D"/>
<path d="M186.073 322.938H294.204V342.725H186.073V322.938ZM292.748 324.394H187.53V341.389H292.748V324.394Z" fill="#F04637"/>
<path d="M501.485 79.6634L487.286 77.9639L431.946 182.606H297.359L241.291 288.826H107.068L50.7568 395.41L69.8102 395.895L119.082 303.393H253.791L310.466 195.959H443.961L501.485 79.6634Z" fill="#ACC1D6"/>
<path d="M464.713 79.0565L517.019 101.393L508.038 51.3787L464.713 79.0565Z" fill="#ACC1D6"/>
<path d="M219.811 343.817L241.413 340.782L220.054 336.776L217.141 315.168L213.015 336.534L191.413 339.447L212.772 343.574L215.806 365.183L219.811 343.817Z" fill="white"/>
<path d="M386.559 182.363C413.167 182.363 434.738 160.786 434.738 134.169C434.738 107.553 413.167 85.9758 386.559 85.9758C359.95 85.9758 338.379 107.553 338.379 134.169C338.379 160.786 359.95 182.363 386.559 182.363Z" fill="#FF5C5D"/>
<path d="M386.559 184.427C358.889 184.427 336.438 161.969 336.438 134.291C336.438 106.613 358.889 84.155 386.559 84.155C414.229 84.155 436.68 106.613 436.68 134.169C436.68 161.847 414.229 184.427 386.559 184.427ZM386.559 87.9182C361.073 87.9182 340.2 108.677 340.2 134.291C340.2 159.784 360.952 180.663 386.559 180.663C412.044 180.663 432.918 159.905 432.918 134.291C432.797 108.677 412.044 87.9182 386.559 87.9182Z" fill="#F04637"/>
<path d="M178.913 343.089L179.642 347.338C178.307 348.309 176.608 348.309 175.151 347.459L174.909 347.338L173.816 343.089H178.913Z" fill="#F8B68F"/>
<path d="M144.447 243.667C148.209 256.292 161.073 275.594 161.073 275.594L151 271.466L143.84 254.957C143.84 254.957 140.563 231.042 144.447 243.667Z" fill="#B0D9C8"/>
<path d="M171.874 294.167L179.884 343.332H172.845C172.845 343.332 156.947 299.023 155.248 286.034C155.248 278.629 171.389 286.034 171.389 286.034L171.874 294.167Z" fill="#212B53"/>
<path d="M145.539 223.759L142.869 230.557L137.165 226.429L141.049 218.417L145.539 223.759Z" fill="#F4A086"/>
<path d="M147.724 224.851C148.573 224.972 149.423 225.094 149.908 224.851C153.185 221.695 152.457 211.134 152.457 211.134L148.695 208.584L142.869 210.769L141.17 217.446C140.685 219.267 141.17 221.088 142.505 222.545C143.962 223.637 145.782 224.487 147.724 224.851Z" fill="#F8B68F"/>
<path d="M143.839 212.833C144.325 211.74 145.66 211.255 146.752 211.74C147.601 212.105 148.572 212.347 149.543 212.59C151.849 213.076 156.097 213.076 156.825 209.555C157.553 206.035 153.063 206.399 153.063 206.399L146.995 206.763C145.174 206.885 143.475 206.521 141.776 205.792C140.32 205.185 138.985 206.521 138.742 207.37C138.014 209.313 138.742 212.712 139.349 214.897C139.713 216.111 140.199 217.325 141.048 218.417L143.839 212.833Z" fill="#212B53"/>
<path d="M140.442 214.29C141.049 213.926 142.02 214.29 142.505 214.897C143.112 215.625 142.991 216.475 142.384 216.839C141.777 217.203 140.806 216.839 140.321 216.232C139.835 215.504 139.835 214.654 140.442 214.29Z" fill="#F8B68F"/>
<path d="M179.762 346.852C179.762 346.852 179.762 351.465 188.986 354.136C190.927 354.743 190.199 355.228 190.563 356.078C187.529 356.078 180.005 356.078 180.005 356.078L175.879 351.465L174.544 352.558L171.51 349.644C171.51 349.644 171.995 345.396 174.301 345.396C176.243 346.002 179.762 346.852 179.762 346.852Z" fill="#212B53"/>
<path d="M153.67 341.754L151.971 345.76C150.393 346.245 148.694 345.638 147.723 344.424L147.48 344.182L148.815 340.054L153.67 341.754Z" fill="#F8B68F"/>
<path d="M144.083 228.614C144.083 228.614 144.811 227.522 138.379 224.123C128.549 233.956 125.394 271.345 125.394 271.345C125.394 271.345 148.209 271.345 151 271.345C151.85 250.101 144.083 228.614 144.083 228.614Z" fill="#63C1C5"/>
<path d="M169.447 270.374C169.568 269.888 169.325 269.403 168.961 269.16L164.835 266.732C163.743 266.125 162.529 265.882 161.437 266.125L156.947 266.246L156.34 266.975L155.369 270.981C156.219 270.738 156.825 270.617 156.825 270.617L159.738 270.738C159.738 270.738 165.199 275.715 167.869 271.345C167.991 275.958 169.325 275.594 169.325 275.594L169.447 270.374Z" fill="#F8B68F"/>
<path d="M125.394 271.467L125.03 274.623V274.744C124.302 280.814 128.306 286.398 134.253 288.098C134.253 288.098 145.903 291.982 160.588 292.711C151.001 305.093 148.331 339.812 148.331 339.812L154.52 342.118L178.549 284.941C180.127 281.299 177.942 277.172 174.059 276.322L151.122 271.467H125.394Z" fill="#043C5E"/>
<path d="M141.413 240.875C141.413 240.875 136.68 245.245 133.889 249.737C133.16 250.951 133.282 252.529 134.131 253.743C139.471 259.934 158.403 265.761 158.403 265.761L157.19 272.68C157.19 272.68 130.248 267.339 120.66 257.87C110.83 248.037 136.194 227.522 136.194 227.522" fill="#63C1C5"/>
<path d="M134.131 249.98C133.403 251.072 133.525 252.529 134.374 253.5C136.801 256.292 143.233 259.327 148.937 261.512C148.937 261.876 148.937 261.876 148.937 262.24C142.991 260.055 136.437 257.02 133.767 253.986C132.675 252.772 132.554 250.951 133.403 249.615C136.194 245.124 140.927 240.754 141.049 240.754L141.534 241.361C141.534 241.239 136.801 245.609 134.131 249.98Z" fill="#B0D9C8"/>
<path d="M126.364 261.634C136.68 267.218 151.85 271.224 157.311 272.316C157.311 272.68 157.19 272.923 157.19 273.045C151.971 271.952 136.923 268.067 126.364 262.483C126.243 262.241 126.243 261.876 126.364 261.634Z" fill="#B0D9C8"/>
<path d="M179.399 278.75L187.408 250.222L185.952 249.858L178.306 277.05L155.491 273.044L155.248 274.501L179.399 278.75Z" fill="#63C1C5"/>
<path d="M152.335 344.788C152.335 344.788 151.971 349.401 161.194 352.193C163.136 352.8 162.408 353.286 162.772 354.136C159.738 354.136 152.214 354.136 152.214 354.136L148.088 349.523L146.753 350.615L143.719 347.702C143.719 347.702 145.054 343.453 147.36 343.453C149.301 343.939 152.335 344.788 152.335 344.788Z" fill="#212B53"/>
<path d="M30.9754 392.254H43.2327C44.8104 392.375 46.6308 392.861 46.9949 394.318C46.9949 394.318 47.2376 395.289 47.1162 396.139C46.6308 396.624 30.3686 396.017 30.3686 396.017H30.2473C28.6696 393.953 30.9754 392.254 30.9754 392.254Z" fill="#11375B"/>
<path d="M47.2378 396.138H30.4902L30.6116 396.745H47.2378V396.138Z" fill="#212B53"/>
<path d="M35.8299 392.254H36.9221L36.5581 393.832H35.4658L35.8299 392.254Z" fill="white"/>
<path d="M38.2567 392.254H39.3489L38.9848 393.832H37.8926L38.2567 392.254Z" fill="white"/>
<path d="M30.126 388.248L30.9755 392.375C31.9464 392.861 33.2813 392.861 34.2522 392.497L34.4949 392.375L35.1017 388.248H30.126Z" fill="#F8B68F"/>
<path d="M2.21372 392.254H14.471C16.0487 392.375 17.8691 392.861 18.2331 394.318C18.2331 394.318 18.4759 395.289 18.3545 396.139C17.8691 396.624 1.60693 396.017 1.60693 396.017H1.48557C-0.092104 393.953 2.21372 392.254 2.21372 392.254Z" fill="#212B53"/>
<path d="M18.4761 396.138H1.72852L1.84987 396.745H18.4761V396.138Z" fill="#212B53"/>
<path d="M7.06791 392.254H8.16015L7.79607 393.832H6.8252L7.06791 392.254Z" fill="white"/>
<path d="M9.49494 392.254H10.5872L10.2231 393.832H9.13086L9.49494 392.254Z" fill="white"/>
<path d="M2.6993 388.248L2.21387 392.254C3.18474 392.739 4.51969 392.739 5.49057 392.375L5.73328 392.254L7.67503 388.126H2.6993V388.248Z" fill="#F8B68F"/>
<path d="M21.1461 250.344L11.0732 256.899L14.2286 264.911C14.2286 265.032 14.3499 265.154 14.3499 265.275C14.5927 265.275 14.8354 265.275 15.0781 265.275H15.1995H15.3208C17.9907 265.275 20.4179 266.975 21.7529 269.16C23.4519 269.038 25.0296 268.674 26.4859 267.946C27.4567 267.46 28.4276 266.853 28.7917 266.246C29.7626 260.541 21.1461 250.344 21.1461 250.344Z" fill="#F8B68F"/>
<path d="M34.0095 252.407C34.0095 252.407 35.2231 264.183 32.7959 271.709C34.0095 272.68 38.2571 277.293 39.592 271.345C40.927 265.397 38.1357 250.344 38.1357 250.344L34.0095 252.407Z" fill="#F8B68F"/>
<path d="M27.9418 251.558L25.5146 253.136L26.3642 254.957L28.9127 253.743L27.9418 251.558Z" fill="#212B53"/>
<path d="M26.5441 254.87C26.7896 254.763 26.7921 254.227 26.5497 253.675C26.3072 253.122 25.9117 252.762 25.6662 252.87C25.4207 252.977 25.4182 253.513 25.6607 254.065C25.9031 254.618 26.2986 254.978 26.5441 254.87Z" fill="#212B53"/>
<path d="M56.7034 242.939C56.7034 242.939 56.7034 242.817 56.7034 242.939C56.2179 241.846 55.4898 240.268 54.3975 238.69C52.6985 236.262 52.2131 235.048 52.2131 235.048L27.5771 251.194L29.1548 254.228L56.7034 244.031C56.7034 243.667 56.7034 243.303 56.7034 242.939Z" fill="#043C5E"/>
<path d="M18.8397 269.16L17.9902 274.744H25.8786L26.364 267.946L18.8397 269.16Z" fill="#F4A086"/>
<path d="M39.1072 282.878C39.1072 282.878 48.3305 279.964 51.2431 275.958C54.1558 271.952 49.18 250.344 49.18 250.344L49.7868 246.459C50.1509 244.274 48.4519 242.21 46.2674 242.21H43.8402C42.8694 242.21 42.1412 243.303 42.5053 244.153L45.782 251.436C45.782 251.436 48.2092 267.825 44.8111 269.16C40.6849 270.617 36.0732 270.981 36.0732 270.981L39.1072 282.878Z" fill="#F8B68F"/>
<path d="M21.7525 269.16L19.3253 263.94L20.903 262.969C21.9952 262.24 22.602 260.784 22.1166 259.57L20.4175 254.593C20.4175 254.593 25.2719 253.986 25.1506 249.494C25.1506 247.187 21.9952 247.188 21.9952 247.188C21.9952 247.188 21.0243 249.251 18.1117 249.494C16.8981 249.373 13.3787 249.858 11.0729 253.864C9.49522 256.656 10.2234 260.905 11.5583 264.183C12.7719 267.096 15.9273 268.674 19.0826 269.16H21.7525Z" fill="#11375B"/>
<path d="M12.2869 313.59C12.2869 313.59 12.7723 324.88 15.1995 337.019C15.9276 340.661 15.6849 344.303 14.4713 347.824C8.8888 364.212 1.24316 388.976 1.24316 388.976H8.16064C8.16064 388.976 23.816 359.842 27.8208 345.274C31.8257 330.828 32.5538 326.215 32.5538 326.215L27.6995 313.59H12.2869Z" fill="#212B53"/>
<path d="M18.112 261.512C17.8693 262.362 18.3548 263.454 19.447 263.94C20.4179 264.426 21.5101 264.183 21.7528 263.333C21.9955 262.483 21.5101 261.391 20.4179 260.905C19.3256 260.42 18.3548 260.662 18.112 261.512Z" fill="#F8B68F"/>
<path d="M34.7376 313.59H12.2861V284.82C12.2861 278.507 17.1405 273.287 23.3298 272.68L38.9852 270.738C38.9852 270.738 40.8055 273.53 45.9026 280.085C39.7133 283.849 32.6745 285.67 32.6745 285.67L34.7376 313.59Z" fill="#465A72"/>
<path d="M12.2861 313.59C12.2861 313.59 15.4415 325.123 27.2133 337.991C29.1551 339.933 31.9463 343.939 31.5822 349.644L29.1551 388.976H36.1939C36.1939 388.976 44.689 356.321 42.8687 340.297C41.0483 324.273 34.8589 313.712 34.8589 313.712H12.2861V313.59Z" fill="#043C5E"/>
<path d="M56.6043 244.125C57.3892 243.747 57.0346 241.384 55.8123 238.847C54.59 236.311 52.9629 234.561 52.178 234.94C51.3931 235.318 51.7477 237.681 52.97 240.218C54.1923 242.754 55.8194 244.504 56.6043 244.125Z" fill="#00666A"/>
<path d="M33.0391 247.673L33.2818 247.795C34.0099 248.159 34.8594 248.159 35.5876 247.916H35.709C36.9226 247.552 38.0148 246.459 38.3789 245.245C38.5002 244.638 38.0148 244.153 37.5294 244.274L35.9517 244.638C35.3449 244.76 34.8595 245.124 34.4954 245.609L33.0391 247.673Z" fill="#F8B68F"/>
<path d="M426.485 277.172L419.446 290.282L427.092 289.918L427.699 276.686L426.485 277.172Z" fill="#F8B68F"/>
<path d="M437.408 271.345H430.976L428.306 312.862H439.835L437.408 271.345Z" fill="white"/>
<path d="M449.179 393.225C449.179 393.225 450.757 394.439 450.514 396.017C450.272 397.595 449.786 401.358 449.786 401.358H448.208V397.838C448.208 397.595 444.689 401.358 444.082 401.358H435.466C435.466 401.358 434.859 399.052 439.956 398.202C445.053 397.595 449.179 393.225 449.179 393.225Z" fill="#043C5E"/>
<path d="M445.417 391.646L444.204 394.681C443.961 395.531 443.354 396.259 442.626 396.745C441.776 397.231 440.563 397.959 438.621 398.566C440.927 400.63 444.689 398.445 446.874 396.988C447.966 396.259 448.694 395.167 448.937 393.953L449.422 391.646H445.417Z" fill="#F8B68F"/>
<path d="M432.674 393.225C432.674 393.225 434.252 394.439 434.009 396.017C433.767 397.595 433.281 401.358 433.281 401.358H431.704V397.838C431.704 397.595 428.184 401.358 427.577 401.358H418.961C418.961 401.358 418.354 399.052 423.451 398.202C428.548 397.595 432.674 393.225 432.674 393.225Z" fill="#043C5E"/>
<path d="M428.912 391.646L427.699 394.681C427.456 395.531 426.849 396.259 426.121 396.745C425.272 397.231 424.058 397.959 422.116 398.566C424.422 400.63 428.184 398.445 430.369 396.988C431.461 396.259 432.189 395.167 432.432 393.953L432.917 391.646H428.912Z" fill="#F8B68F"/>
<path d="M442.262 312.862C442.262 312.862 443.354 319.053 437.165 349.523C442.141 365.425 434.131 392.011 434.131 392.011H428.306L424.301 312.74H442.262V312.862Z" fill="#212B53"/>
<path d="M431.583 271.345L429.52 321.724L422.603 318.81C422.603 318.81 425.758 309.341 425.394 296.231C426.486 286.762 421.025 291.739 427.7 273.409C430.248 271.345 431.583 271.345 431.583 271.345Z" fill="#F04637"/>
<path d="M430.733 266.125L431.583 270.374C431.947 272.195 434.01 273.166 435.709 272.195L438.5 270.374L433.403 258.963L430.733 266.125Z" fill="#F4A086"/>
<path d="M447.966 312.862C447.966 312.862 455.612 319.053 449.422 349.523C454.398 365.425 450.029 392.011 450.029 392.011H444.811L430.005 312.74H447.966V312.862Z" fill="#043C5E"/>
<path d="M437.408 267.096C437.408 267.096 443.84 270.738 445.903 274.015C447.845 277.172 448.452 284.213 448.695 290.404C448.937 299.023 453.063 321.723 453.063 321.723H435.709L435.224 272.316L437.408 267.096Z" fill="#F04637"/>
<path d="M424.544 253.378C428.427 252.407 432.311 256.413 432.311 256.413L435.223 272.316L439.714 265.275C439.714 265.275 439.956 255.806 435.587 249.494C432.432 245.731 426.364 246.823 423.33 250.465C421.874 252.286 421.51 254.714 421.631 257.02C421.874 260.055 422.723 277.779 422.723 277.779L431.704 271.102C431.704 271.102 431.461 269.281 430.612 266.004C429.277 260.541 421.874 254.107 424.544 253.378Z" fill="#212B53"/>
<path d="M433.403 256.171C432.796 255.928 432.068 256.292 431.704 257.02C431.34 257.749 431.583 258.477 432.19 258.72C432.796 258.963 433.525 258.598 433.889 257.87C434.253 257.142 434.01 256.413 433.403 256.171Z" fill="#F8B68F"/>
<path d="M429.277 266.853C428.549 267.096 427.821 267.217 427.335 267.096C423.937 264.668 422.724 254.714 422.724 254.714L425.394 251.8L430.733 253.014L433.403 258.963C434.131 260.541 434.01 262.362 433.161 263.818C432.19 265.275 430.855 266.246 429.277 266.853Z" fill="#F8B68F"/>
<path d="M423.694 253.136C423.937 256.17 432.311 256.413 432.311 256.413L432.796 252.407L427.942 249.737L424.058 252.043C423.937 252.043 423.573 252.65 423.694 253.136Z" fill="#212B53"/>
<path d="M423.816 253.743C424.058 254.835 422.966 256.777 422.966 256.777L422.359 255.564V254.471L422.966 253.621C422.966 253.743 423.573 252.65 423.816 253.743Z" fill="#212B53"/>
<path d="M444.083 274.015C452.457 274.987 448.573 296.716 446.753 305.578C446.268 307.763 444.083 309.098 441.899 308.491C434.617 306.185 423.938 296.595 423.938 296.595L425.637 294.41L439.836 297.687C439.836 297.687 434.374 272.801 444.083 274.015Z" fill="#F8B68F"/>
<path d="M427.214 289.311L430.005 306.306C430.126 306.792 429.762 307.277 429.155 307.277H418.233C417.869 307.277 417.505 307.035 417.384 306.549L414.714 289.554C414.592 289.068 414.956 288.583 415.563 288.583H426.364C426.85 288.583 427.214 288.947 427.214 289.311Z" fill="white"/>
<path d="M415.199 296.838C415.078 296.231 415.199 295.866 415.442 294.652C415.684 293.074 415.684 290.525 417.262 291.739C418.84 293.681 418.961 295.745 418.961 295.745C419.325 296.838 418.597 298.416 417.869 299.387L416.777 301.815C416.777 301.815 414.835 299.508 415.199 296.838Z" fill="#F8B68F"/>
<path d="M421.51 296.109C421.979 296.109 422.359 295.729 422.359 295.259C422.359 294.79 421.979 294.41 421.51 294.41C421.041 294.41 420.66 294.79 420.66 295.259C420.66 295.729 421.041 296.109 421.51 296.109Z" fill="url(#paint4_linear)"/>
<path d="M336.923 85.8545L336.316 87.0684C335.709 88.4038 335.588 89.8605 336.195 91.1958C336.438 91.6814 336.923 91.9242 337.408 91.9242C337.408 91.9242 343.598 93.6237 343.112 92.0456C342.627 90.3461 340.564 89.6177 340.564 89.6177L341.413 86.7042L336.923 85.8545Z" fill="#F8B68F"/>
<path d="M350.394 55.8701C348.695 58.4194 346.753 60.7259 344.69 62.911C343.962 63.7607 343.112 64.7319 342.141 65.5817L343.598 66.917L336.923 85.8545L341.413 86.5829C341.413 86.5829 352.093 72.0156 355.005 65.8244C356.219 63.518 353.792 59.7547 350.394 55.8701Z" fill="#01898C"/>
<path d="M329.519 35.8401L330.976 42.0312L324.301 43.1238L324.422 33.1694L329.519 35.8401Z" fill="#F4A086"/>
<path d="M331.704 36.6898C332.432 36.5684 333.16 36.3256 333.524 35.9615C335.345 32.441 331.704 23.822 331.704 23.822L327.942 22.7295L323.694 26.1285L324.18 32.0768C324.301 33.655 325.272 35.1117 326.728 35.9615C328.306 36.6898 330.005 36.9326 331.704 36.6898Z" fill="#F8B68F"/>
<path d="M324.908 29.5276C325.029 28.5565 324.665 26.25 325.636 26.25C326.364 26.25 328.913 26.0072 329.762 26.0072C331.825 25.7644 335.345 24.5505 334.981 21.3942C334.738 19.8161 333.16 18.7236 332.068 18.4808C331.097 18.238 330.005 18.3594 329.155 18.845C326.971 19.9375 324.301 22.0012 323.087 21.8798C321.024 21.7584 319.204 23.0938 319.447 24.7933C319.689 26.6142 321.024 29.1635 322.117 30.863C322.723 31.8341 324.422 33.2909 324.422 33.2909L324.908 29.5276Z" fill="#212B53"/>
<path d="M322.844 30.0133C323.208 29.5277 324.058 29.5277 324.786 29.8919C325.393 30.2561 325.636 30.9845 325.272 31.47C324.907 31.9556 324.058 31.9556 323.33 31.5914C322.602 31.2273 322.48 30.4989 322.844 30.0133Z" fill="#F8B68F"/>
<path d="M327.699 41.5457C340.685 41.5457 340.563 60.9687 340.563 60.9687L340.199 87.7969H313.743L313.379 59.2692C313.379 59.2692 314.714 41.5457 327.699 41.5457Z" fill="#6680A1"/>
<path d="M313.743 59.6334C313.743 59.6334 298.209 58.2981 294.811 51.6214C291.413 44.9447 320.66 28.3137 320.66 28.3137L323.33 31.5914C323.33 31.5914 314.714 43.9736 307.432 46.7656C314.35 44.4592 322.602 42.6382 322.602 42.6382L319.325 56.72L313.743 59.6334Z" fill="#6680A1"/>
<path d="M320.66 28.3138C320.66 28.3138 322.966 24.7934 327.335 24.3078C330.126 24.065 333.039 23.5794 333.888 23.2153C334.252 23.0939 334.616 23.3367 334.495 23.8222C334.01 26.8571 332.796 27.2213 327.092 29.4064C323.694 30.8631 323.087 32.3198 323.087 32.3198L320.66 28.3138Z" fill="#F4A086"/>
<path d="M344.083 179.085C344.083 179.085 346.51 181.271 351.85 182.727C353.064 183.091 354.277 182.606 354.277 184.548C351.729 184.548 347.724 184.548 347.724 184.548L342.263 183.577V184.548H339.35C339.35 184.548 338.501 179.692 340.2 179.085C341.899 179.085 344.083 179.085 344.083 179.085Z" fill="#212B53"/>
<path d="M343.476 175.686L344.083 179.207C342.99 179.935 341.534 180.056 340.442 179.328L340.199 179.207L340.442 175.686H343.476Z" fill="#F8B68F"/>
<path d="M340.321 87.9182L344.568 176.9H339.593C339.593 176.9 331.826 149.344 331.826 136.719C331.826 135.505 331.704 134.169 331.34 132.955C326.85 117.174 322.724 87.9182 322.724 87.9182H340.321Z" fill="#212B53"/>
<path d="M321.631 179.085C321.631 179.085 324.058 181.271 329.398 182.727C330.612 183.091 331.825 182.606 331.825 184.548C329.277 184.548 325.272 184.548 325.272 184.548L319.811 183.577V184.548H316.898C316.898 184.548 316.048 179.692 317.747 179.085C319.325 179.085 321.631 179.085 321.631 179.085Z" fill="#212B53"/>
<path d="M321.024 175.686L321.631 179.207C320.538 179.935 319.082 180.056 317.99 179.328L317.747 179.207L317.99 175.686H321.024Z" fill="#F8B68F"/>
<path d="M313.864 87.9183C313.864 87.9183 311.437 112.319 315.199 128.585C315.563 130.406 315.806 132.349 315.563 134.169C313.257 158.934 317.019 176.779 317.019 176.779H321.388L334.495 87.7969H313.864V87.9183Z" fill="#043C5E"/>
<path d="M322.602 42.6383L324.058 39.8462H330.49L331.946 42.2741L322.602 42.6383Z" fill="#212B53"/>
<path d="M331.947 42.2739C340.078 42.2739 358.039 59.7547 355.127 65.9458C352.214 72.0155 341.534 86.7042 341.534 86.7042L337.044 85.9759L343.719 67.0384L331.34 55.3845C331.219 55.2631 323.937 42.2739 331.947 42.2739Z" fill="#6680A1"/>
<path d="M339.956 86.0973C340.078 85.6117 340.199 85.0047 340.442 84.6405C340.442 84.6405 340.442 84.5191 340.563 84.5191L340.806 61.09C340.806 60.8473 340.806 56.5985 339.471 52.2283C339.349 52.4711 339.228 52.7138 338.985 52.8352C340.078 57.084 340.078 60.9687 340.078 61.09L339.956 86.0973Z" fill="#63C1C5"/>
<path d="M374.058 27.2213C369.81 45.916 413.743 48.3438 431.946 48.4652C436.922 48.4652 442.019 48.1011 446.874 47.0085C462.165 43.8523 495.781 35.7188 491.048 24.5506C484.98 10.2261 466.776 20.1804 466.776 20.1804C466.776 20.1804 469.082 9.3763 438.014 2.21404C406.946 -4.94822 407.068 18.8451 407.068 18.8451C407.068 18.8451 379.398 3.79217 374.058 27.2213Z" fill="url(#paint5_linear)"/>
<path d="M541.776 131.256L546.267 139.875L536.922 137.811L505.126 127.736L541.776 131.256Z" fill="#B0D9C8"/>
<path d="M546.267 139.875L530.49 138.904L534.374 136.961L546.267 139.875Z" fill="#63C1C5"/>
<path d="M541.776 131.256L544.568 122.758L505.126 127.735L541.776 131.256Z" fill="url(#paint6_linear)"/>
<path d="M505.126 127.736L536.922 137.811L532.189 150.072L505.126 127.736Z" fill="url(#paint7_linear)"/>
<path d="M542.747 148.737C542.869 148.737 542.869 148.615 542.99 148.615C543.233 148.251 543.233 147.887 542.869 147.523C541.898 146.673 540.806 145.945 539.713 145.216C539.349 144.973 538.864 145.095 538.742 145.459C538.5 145.823 538.621 146.309 538.985 146.43C539.956 147.037 540.927 147.765 541.898 148.494C542.141 148.737 542.505 148.858 542.747 148.737Z" fill="#63C1C5"/>
<path d="M531.218 229.828C530.976 229.464 531.097 228.978 531.461 228.857C533.403 227.643 535.345 226.065 536.922 224.122C537.165 223.758 537.65 223.758 538.014 224.001C538.379 224.244 538.379 224.729 538.136 225.093C536.437 227.157 534.495 228.857 532.311 230.192C531.825 230.313 531.34 230.192 531.218 229.828ZM539.714 221.452C539.349 221.209 539.228 220.845 539.471 220.48C540.684 218.417 541.534 216.11 542.141 213.682C542.262 213.318 542.626 213.075 542.99 213.197C543.354 213.318 543.597 213.682 543.476 214.047C542.869 216.596 541.898 218.902 540.684 221.209C540.563 221.33 540.442 221.452 540.32 221.452C540.199 221.694 539.835 221.694 539.714 221.452ZM543.476 210.162C543.112 210.162 542.747 209.798 542.747 209.312V208.948C542.869 206.642 542.747 204.335 542.383 202.029C542.262 201.664 542.626 201.3 542.99 201.179C543.354 201.057 543.718 201.422 543.84 201.786C544.204 204.214 544.325 206.763 544.204 209.069V209.434C544.204 209.676 544.082 209.919 543.84 210.041C543.718 210.162 543.597 210.283 543.476 210.162ZM542.383 198.265C542.019 198.387 541.534 198.144 541.534 197.78C540.927 195.595 540.078 193.167 539.107 190.739C538.985 190.375 539.107 189.889 539.471 189.768C539.835 189.646 540.32 189.768 540.442 190.132C541.534 192.56 542.262 194.988 542.869 197.294C542.99 197.658 542.748 198.023 542.505 198.144C542.505 198.265 542.505 198.265 542.383 198.265ZM538.257 187.097C537.893 187.218 537.408 187.097 537.286 186.733C537.165 186.49 537.044 186.369 537.044 186.126C536.315 186.49 535.466 186.733 534.616 186.976C534.252 187.097 533.767 186.854 533.646 186.49C533.524 186.126 533.767 185.64 534.131 185.519C534.859 185.276 535.587 185.033 536.194 184.791C535.466 183.334 534.616 181.756 533.646 180.178C533.403 179.813 533.524 179.328 533.888 179.206C534.252 178.964 534.738 179.085 534.859 179.449C535.83 181.149 536.68 182.727 537.529 184.305C538.621 183.819 539.592 183.212 540.563 182.605C540.927 182.363 541.413 182.484 541.534 182.848C541.777 183.212 541.655 183.698 541.291 183.819C540.32 184.548 539.228 185.155 538.014 185.64C538.136 185.762 538.136 186.005 538.257 186.126C538.743 186.49 538.621 186.854 538.257 187.097ZM544.082 180.785C543.84 180.542 543.84 180.056 544.082 179.692C545.175 178.599 546.024 177.386 546.752 176.172C547.238 175.443 547.602 174.593 547.966 173.744C548.087 173.38 548.573 173.137 548.937 173.38C549.301 173.501 549.544 173.986 549.301 174.351C548.937 175.322 548.451 176.172 547.966 177.021C547.116 178.357 546.146 179.692 545.053 180.785C545.053 180.785 544.932 180.906 544.811 180.906C544.689 181.149 544.325 181.027 544.082 180.785ZM530.005 187.825C527.335 188.068 524.786 187.825 522.359 187.218C521.995 187.097 521.752 186.733 521.874 186.369C521.995 186.005 522.359 185.762 522.723 185.883C525.029 186.49 527.456 186.611 529.883 186.49C530.247 186.49 530.612 186.733 530.733 187.218C530.733 187.583 530.612 187.825 530.369 187.947C530.247 187.825 530.126 187.825 530.005 187.825ZM549.786 170.466C549.422 170.345 549.058 169.98 549.18 169.616C549.544 167.31 549.665 164.882 549.301 162.333C549.18 161.968 549.544 161.604 549.908 161.483C550.272 161.361 550.636 161.726 550.757 162.09C551.121 164.761 551.121 167.31 550.636 169.738C550.636 169.98 550.393 170.223 550.272 170.223C550.15 170.466 550.029 170.466 549.786 170.466ZM517.99 185.519C517.383 185.155 516.777 184.912 516.291 184.548C514.713 183.455 513.257 182.12 512.044 180.542C511.801 180.178 511.922 179.692 512.165 179.449C512.529 179.206 513.014 179.328 513.257 179.571C514.228 181.027 515.563 182.241 517.019 183.212C517.505 183.577 518.112 183.819 518.597 184.184C518.961 184.426 519.082 184.791 518.961 185.155C518.84 185.276 518.718 185.398 518.597 185.519C518.476 185.64 518.233 185.64 517.99 185.519ZM531.34 176.414C529.762 173.986 528.306 172.166 526.728 170.709C526.364 170.466 526.364 169.98 526.728 169.616C526.971 169.373 527.456 169.252 527.82 169.616C529.398 171.073 530.976 173.015 532.675 175.565C532.917 175.929 532.796 176.414 532.432 176.536C532.432 176.536 532.432 176.536 532.311 176.536C532.068 176.779 531.582 176.657 531.34 176.414ZM549.18 158.569C548.815 158.691 548.33 158.448 548.209 158.084C547.845 156.991 547.359 156.02 546.874 155.049C546.267 153.835 545.539 152.742 544.811 151.65C544.568 151.286 544.689 150.8 544.932 150.557C545.296 150.315 545.781 150.315 546.024 150.679C546.874 151.771 547.602 152.985 548.209 154.199C548.694 155.292 549.18 156.384 549.544 157.477C549.786 158.084 549.665 158.448 549.18 158.569C549.301 158.569 549.18 158.569 549.18 158.569ZM510.83 176.779C510.466 176.9 509.98 176.657 509.98 176.293C509.495 174.229 509.616 172.166 510.587 170.345C510.951 169.738 511.315 169.131 511.801 168.645C512.044 168.402 512.529 168.402 512.893 168.645C513.136 168.888 513.136 169.373 512.893 169.738C512.529 170.102 512.165 170.587 511.922 171.194C511.194 172.651 510.951 174.229 511.437 176.05C511.558 176.414 511.315 176.779 511.073 176.9C510.951 176.779 510.951 176.779 510.83 176.779ZM523.33 168.281C521.267 167.31 518.718 167.067 516.534 167.674C516.17 167.795 515.684 167.553 515.684 167.188C515.563 166.824 515.806 166.339 516.17 166.339C518.718 165.732 521.631 165.974 523.937 167.067C524.301 167.188 524.422 167.674 524.301 168.038C524.18 168.16 524.058 168.281 523.937 168.402C523.694 168.402 523.451 168.402 523.33 168.281Z" fill="#63C1C5"/>
<path d="M527.941 231.892C528.305 231.77 528.427 231.406 528.305 231.042C528.184 230.678 527.82 230.435 527.335 230.556C526.242 230.92 525.029 231.042 523.815 231.163C523.451 231.163 523.087 231.527 523.087 231.892C523.087 232.256 523.451 232.62 523.815 232.62C525.15 232.499 526.364 232.377 527.577 232.013C527.941 232.013 527.941 232.013 527.941 231.892Z" fill="#63C1C5"/>
<path d="M195.66 51.6216L171.51 34.9906L158.767 31.106L148.694 31.5915L195.66 51.6216Z" fill="url(#paint8_linear)"/>
<path d="M195.66 51.6216L149.058 34.505L148.694 31.5916" fill="#B0D9C8"/>
<path d="M146.874 42.6384V42.7598L148.209 50.4077L195.539 51.6216L146.874 42.6384Z" fill="#63C1C5"/>
<path d="M138.136 37.4185L145.539 32.5627L195.417 51.5002L151.364 45.7947L138.136 37.4185Z" fill="url(#paint9_linear)"/>
<path d="M21.0243 121.545C22.6019 121.18 24.301 120.573 25.8786 119.966C26.2427 119.845 26.6068 119.966 26.7281 120.331C26.8495 120.695 26.7281 121.059 26.3641 121.18C24.7864 121.787 23.0874 122.394 21.3883 122.758C20.7815 122.88 20.1747 123.001 19.5679 123.123C19.3252 123.123 19.0825 123.123 18.9611 123.001C18.8398 122.88 18.7184 122.758 18.7184 122.637C18.5971 122.273 18.8398 121.909 19.3252 121.787C19.8107 121.787 20.4175 121.666 21.0243 121.545Z" fill="#63C1C5"/>
<path d="M124.665 30.7417C126.849 31.2273 129.034 31.8342 131.461 32.5626C131.825 32.684 132.068 33.0482 131.946 33.4124C131.825 33.7766 131.461 34.0193 131.097 33.8979C128.67 33.1696 126.485 32.684 124.422 32.077C124.301 32.077 124.18 31.9556 124.058 31.9556C123.937 31.8342 123.815 31.5915 123.815 31.2273C123.937 30.9845 124.301 30.7417 124.665 30.7417Z" fill="#63C1C5"/>
<path d="M113.015 30.1347C112.894 30.0133 112.772 29.7705 112.772 29.5278C112.772 29.1636 113.137 28.7994 113.501 28.9208C115.685 29.1636 118.112 29.4064 120.539 29.8919C120.904 30.0133 121.146 30.3775 121.146 30.7417C121.025 31.1059 120.661 31.3487 120.297 31.3487C117.991 30.8631 115.685 30.6203 113.379 30.3775C113.258 30.3775 113.137 30.2561 113.015 30.1347Z" fill="#63C1C5"/>
<path d="M35.224 114.504C35.4667 114.261 35.9521 114.261 36.1948 114.625C36.4376 114.868 36.4376 115.353 36.0735 115.596C34.2531 117.053 32.19 118.388 30.1269 119.481C29.8842 119.602 29.5201 119.602 29.2774 119.359C29.2774 119.359 29.156 119.238 29.156 119.117C29.0346 118.752 29.156 118.388 29.3987 118.146C31.5832 117.174 33.5249 115.96 35.224 114.504Z" fill="#63C1C5"/>
<path d="M38.3793 112.683C38.1366 112.44 38.1366 111.954 38.3793 111.712C38.8647 111.226 39.2288 110.862 39.7143 110.376C40.8065 109.162 41.8987 107.827 42.7482 106.492C42.991 106.127 43.355 106.127 43.7191 106.249C44.0832 106.492 44.0832 106.856 43.9618 107.22C42.991 108.677 41.8987 110.012 40.8065 111.226C40.3211 111.712 39.957 112.197 39.4715 112.683C39.1075 113.047 38.622 113.047 38.3793 112.683C38.3793 112.804 38.3793 112.683 38.3793 112.683Z" fill="#63C1C5"/>
<path d="M45.175 103.942L45.0536 103.821C44.8109 103.578 44.8109 103.214 44.9323 102.971C45.9031 101.029 46.874 98.9652 47.7235 96.6587C47.8449 96.2945 48.209 96.0517 48.573 96.2945C48.9371 96.4159 49.1798 96.7801 48.9371 97.1443C48.0876 99.5721 47.1167 101.636 46.1458 103.578C45.9031 103.942 45.4177 104.064 45.175 103.942Z" fill="#63C1C5"/>
<path d="M69.4465 46.4015C68.8397 47.0085 68.1116 47.7368 67.5048 48.3438C66.5339 49.315 65.6844 50.4075 64.8349 51.5C64.5922 51.8642 64.1067 51.8642 63.864 51.6214C63.6213 51.3787 63.4999 51.0145 63.7427 50.6503C64.5922 49.5577 65.563 48.4652 66.5339 47.3726C67.1407 46.6443 67.8689 46.0373 68.4757 45.3089C68.7184 45.0662 69.2038 44.9448 69.4465 45.3089C69.8106 45.6731 69.8106 46.0373 69.4465 46.4015Z" fill="#63C1C5"/>
<path d="M62.5293 54.899C61.3157 56.8413 60.1021 58.905 59.1312 60.8474C59.0098 61.2115 58.5244 61.3329 58.1603 61.2115C58.039 61.2115 58.039 61.0901 58.039 61.0901C57.7962 60.8474 57.7962 60.6046 57.9176 60.2404C58.8885 58.1767 60.1021 56.113 61.437 54.0493C61.6797 53.6851 62.0438 53.6851 62.4079 53.8065C62.6506 54.1707 62.772 54.5349 62.5293 54.899Z" fill="#63C1C5"/>
<path d="M78.0634 39.3608C76.1216 40.6961 74.3012 42.0314 72.6022 43.4882C72.3595 43.731 71.9954 43.731 71.6313 43.4882C71.6313 43.4882 71.6313 43.4882 71.51 43.3668C71.2673 43.124 71.2673 42.6384 71.6313 42.3956C73.4517 40.8175 75.2721 39.4822 77.2139 38.1468C77.5779 37.904 77.942 38.0254 78.1847 38.3896C78.4275 38.7538 78.3061 39.118 78.0634 39.3608Z" fill="#63C1C5"/>
<path d="M91.6555 32.684C91.4128 32.8053 91.1701 32.684 90.9273 32.5626C90.806 32.5626 90.806 32.4412 90.806 32.3198C90.6846 31.9556 90.9273 31.5914 91.2914 31.47C93.5972 30.7416 95.9031 30.1347 98.0875 29.6491C98.4516 29.5277 98.8157 29.7705 98.9371 30.2561C99.0584 30.6203 98.8157 30.9844 98.3303 31.1058C96.0244 31.47 93.84 32.077 91.6555 32.684Z" fill="#63C1C5"/>
<path d="M52.0921 82.6984C51.9708 82.6984 51.8494 82.577 51.7281 82.577C51.6067 82.4556 51.4854 82.2128 51.4854 81.97L51.7281 81.1203C52.2135 79.178 52.5776 77.1142 53.063 75.1719C53.1844 74.8078 53.5485 74.565 53.9125 74.6864C54.2766 74.8078 54.5193 75.1719 54.398 75.5361C53.9125 77.4784 53.5485 79.5421 53.063 81.4845L52.8203 82.3342C52.8203 82.577 52.4562 82.8198 52.0921 82.6984Z" fill="#63C1C5"/>
<path d="M81.5825 37.1755C81.3398 37.2969 80.9757 37.2969 80.733 37.0541L80.6116 36.9327C80.3689 36.5685 80.4903 36.2043 80.8544 35.9615C82.9175 34.7476 85.1019 33.7764 87.165 32.8053C87.5291 32.6839 87.8932 32.8053 88.1359 33.1695C88.2573 33.5337 88.1359 33.8978 87.7718 34.1406C85.5874 35.1118 83.5243 36.0829 81.5825 37.1755Z" fill="#63C1C5"/>
<path d="M51.486 85.4904C51.8501 85.6118 52.0928 85.976 51.9715 86.3402C51.3647 89.0108 50.7579 91.1959 50.2725 93.1383C50.1511 93.5024 49.787 93.7452 49.4229 93.6238C49.3016 93.6238 49.1802 93.5024 49.1802 93.5024C48.9375 93.381 48.9375 93.0169 48.9375 92.7741C49.5443 90.8318 50.0297 88.6467 50.6365 86.0974C50.6365 85.6118 51.122 85.369 51.486 85.4904Z" fill="#63C1C5"/>
<path d="M15.1993 122.516C15.5634 122.516 15.9275 122.758 15.9275 123.123C15.9275 123.487 15.6848 123.851 15.3207 123.851C13.1362 124.094 10.8304 124.094 8.28187 124.094C8.16051 124.094 7.91779 123.972 7.79643 123.972C7.67507 123.851 7.55371 123.608 7.55371 123.487C7.55371 123.123 7.91779 122.758 8.28187 122.758C10.7091 122.758 13.0149 122.758 15.1993 122.516Z" fill="#63C1C5"/>
<path d="M57.0682 63.7608C57.4322 63.8822 57.5536 64.2464 57.4322 64.6106C56.7041 66.5529 55.9759 68.738 55.3691 71.1659C55.2478 71.53 54.8837 71.7728 54.5196 71.6514C54.3983 71.6514 54.2769 71.53 54.2769 71.53C54.0342 71.4086 54.0342 71.0445 54.0342 70.8017C54.7623 68.2524 55.3691 66.0673 56.2186 64.125C56.34 63.8822 56.7041 63.6394 57.0682 63.7608Z" fill="#63C1C5"/>
<path d="M106.826 28.678C107.675 28.678 108.525 28.678 109.253 28.678C109.617 28.678 109.981 29.0422 109.981 29.4063C109.981 29.7705 109.617 30.1347 109.253 30.1347C108.404 30.1347 107.675 30.1347 106.826 30.1347C105.37 30.1347 103.792 30.2561 102.336 30.3775C102.093 30.3775 101.971 30.3775 101.85 30.2561C101.729 30.1347 101.607 30.0133 101.607 29.7705C101.607 29.4063 101.85 29.0422 102.214 29.0422C103.792 28.7994 105.37 28.7994 106.826 28.678Z" fill="#63C1C5"/>
<path d="M392.66 141.391C401.129 141.391 408 135.051 408 127.15C408 119.156 400.916 113 392.66 113H377.108C375.51 113 374.232 114.194 374.232 115.665V135.97H370.876C369.278 135.97 368 137.165 368 138.635C368 140.105 369.278 141.299 370.876 141.299H374.178V147.455H370.876C369.278 147.455 368 148.65 368 150.12C368 151.59 369.278 152.784 370.876 152.784H374.178V158.757C374.178 160.227 375.457 161.421 377.055 161.421C378.652 161.421 379.931 160.227 379.931 158.757V152.784H392.554C394.152 152.784 395.43 151.59 395.43 150.12C395.43 148.65 394.152 147.455 392.554 147.455H380.037V141.299L392.66 141.391ZM380.037 118.329H392.66C397.88 118.329 402.194 122.188 402.194 127.15C402.194 132.019 397.933 135.97 392.66 135.97H380.037V118.329Z" fill="#FF7B7C" stroke="#FF7B7C"/>
<defs>
<linearGradient id="paint0_linear" x1="45.1226" y1="117.738" x2="245.898" y2="117.738" gradientUnits="userSpaceOnUse">
<stop stop-color="#D5DFEB"/>
<stop offset="1" stop-color="#C0E4EF"/>
</linearGradient>
<linearGradient id="paint1_linear" x1="415.668" y1="362.462" x2="527.994" y2="329.278" gradientUnits="userSpaceOnUse">
<stop stop-color="#E0F0EB"/>
<stop offset="1" stop-color="#E0F0EB"/>
</linearGradient>
<linearGradient id="paint2_linear" x1="426.052" y1="328.464" x2="522.794" y2="262.423" gradientUnits="userSpaceOnUse">
<stop stop-color="#E0F0EB"/>
<stop offset="1" stop-color="#E0F0EB"/>
</linearGradient>
<linearGradient id="paint3_linear" x1="399.856" y1="340.154" x2="452.433" y2="235.464" gradientUnits="userSpaceOnUse">
<stop stop-color="#E0F0EB"/>
<stop offset="1" stop-color="#E0F0EB"/>
</linearGradient>
<linearGradient id="paint4_linear" x1="422.294" y1="295.232" x2="420.635" y2="295.232" gradientUnits="userSpaceOnUse">
<stop stop-color="#E0F0EB"/>
<stop offset="1" stop-color="#C0E4EF"/>
</linearGradient>
<linearGradient id="paint5_linear" x1="373.74" y1="24.7393" x2="491.541" y2="24.7393" gradientUnits="userSpaceOnUse">
<stop stop-color="#E0F0EB"/>
<stop offset="1" stop-color="#C0E4EF"/>
</linearGradient>
<linearGradient id="paint6_linear" x1="505.164" y1="126.991" x2="544.569" y2="126.991" gradientUnits="userSpaceOnUse">
<stop offset="6.3e-07" stop-color="#F1F8F8"/>
<stop offset="1" stop-color="#C0E4EF"/>
</linearGradient>
<linearGradient id="paint7_linear" x1="505.164" y1="138.913" x2="536.941" y2="138.913" gradientUnits="userSpaceOnUse">
<stop offset="6.3e-07" stop-color="#F1F8F8"/>
<stop offset="1" stop-color="#C0E4EF"/>
</linearGradient>
<linearGradient id="paint8_linear" x1="148.036" y1="38.4523" x2="196.518" y2="43.2743" gradientUnits="userSpaceOnUse">
<stop offset="6.3e-07" stop-color="#F1F8F8"/>
<stop offset="1" stop-color="#C0E4EF"/>
</linearGradient>
<linearGradient id="paint9_linear" x1="138.002" y1="38.7918" x2="196.075" y2="44.5677" gradientUnits="userSpaceOnUse">
<stop offset="6.3e-07" stop-color="#F1F8F8"/>
<stop offset="1" stop-color="#C0E4EF"/>
</linearGradient>
</defs>
</svg>
