<svg width="540" height="440" viewBox="0 0 540 440" fill="none" xmlns="http://www.w3.org/2000/svg">
<path d="M432.871 255.149C432.871 255.149 445.387 190.162 489.82 176.147C530.635 214.537 494.714 266.515 494.714 266.515L446.025 297.868L432.871 255.149Z" fill="#B5CAE7"/>
<path d="M450.668 209.859L468.348 233.306L488.775 176.495C489.123 176.379 489.471 176.263 489.82 176.147C489.974 176.302 490.129 176.457 490.284 176.611L479.335 207.037L504.714 197.004C504.811 197.236 504.908 197.488 505.004 197.72L505.256 198.358L478.677 208.854L460.436 259.556L505.527 243.377C505.333 243.976 505.159 244.556 504.966 245.136L459.798 261.354L446.837 297.366L446.006 297.888L445.58 296.515L467.729 234.969L449.836 211.231C450.126 210.767 450.377 210.304 450.668 209.859Z" fill="white"/>
<path d="M459.221 278.408C459.221 278.408 499.166 240.212 532.805 255.927C541.684 331.159 446.55 347.764 446.55 347.764L459.221 278.408Z" fill="#6680A1"/>
<path d="M532.805 255.927C532.843 256.217 532.863 256.507 532.901 256.797L474.986 304.194L514.834 312.699C514.447 313.125 514.061 313.531 513.654 313.936L473.535 305.373L450.903 323.891L451.309 321.668L495.355 285.618L498.585 254.825C499.088 254.671 499.591 254.516 500.094 254.381L496.961 284.304L532.05 255.579C532.302 255.715 532.553 255.811 532.805 255.927Z" fill="#00666B"/>
<path d="M433.639 330.609C433.159 339.477 425.107 346.312 415.642 346.312H251.689C242.196 346.312 234.229 339.449 233.89 330.581L223.041 55.7015C222.589 44.2352 231.065 34.9718 241.942 35.0001L430.277 35.6496C441.126 35.6779 449.405 44.913 448.783 56.351L433.639 330.609Z" fill="#2D2C45"/>
<path d="M430.363 41.4958L242.479 40.9027C234.625 40.8744 228.522 47.596 228.833 55.8709L239.032 330.891C239.258 337.331 245.022 342.499 251.887 342.499H416.208C423.045 342.499 428.865 337.331 429.204 330.92L443.755 56.5205C444.15 48.2738 438.189 41.524 430.363 41.4958Z" fill="#2D2C45"/>
<path d="M258.837 61.463C258.95 65.5863 255.842 68.9189 251.915 68.9189C247.988 68.9189 244.711 65.5581 244.598 61.4347C244.485 57.2832 247.564 53.9224 251.52 53.9506C255.447 53.9506 258.724 57.3397 258.837 61.463Z" fill="#ACC1D6"/>
<path d="M427.904 61.9713C427.706 66.0946 424.4 69.4272 420.501 69.3989C416.603 69.3989 413.579 66.0381 413.749 61.9148C413.919 57.7632 417.224 54.4307 421.18 54.4307C425.078 54.4589 428.102 57.8479 427.904 61.9713Z" fill="#ACC1D6"/>
<path d="M265.308 325.412C265.393 328.689 262.624 331.315 259.149 331.315C255.673 331.315 252.763 328.66 252.65 325.412C252.537 322.136 255.306 319.482 258.81 319.482C262.313 319.482 265.223 322.136 265.308 325.412Z" fill="#ACC1D6"/>
<path d="M415.644 325.469C415.502 328.717 412.564 331.371 409.089 331.371C405.614 331.371 402.902 328.745 403.043 325.469C403.184 322.193 406.122 319.538 409.598 319.538C413.101 319.538 415.785 322.193 415.644 325.469Z" fill="#ACC1D6"/>
<path d="M383.236 129.526C382.473 156.045 361.085 177.086 335.403 177.029C309.721 176.973 288.616 155.876 288.305 129.3C287.966 102.131 309.41 79.679 336.194 79.7355C362.978 79.8202 384.027 102.357 383.236 129.526Z" fill="#ACC1D6"/>
<path d="M375.805 129.498C375.24 151.922 357.187 169.742 335.46 169.686C313.733 169.658 295.934 151.752 295.736 129.3C295.51 106.424 313.62 87.5865 336.138 87.6429C358.627 87.7277 376.399 106.65 375.805 129.498Z" fill="#2D2C45"/>
<path d="M366.652 129.47C366.285 146.782 352.356 160.621 335.545 160.592C318.735 160.564 305.004 146.669 304.919 129.328C304.834 111.734 318.763 97.3021 336.054 97.3586C353.345 97.3868 367.019 111.903 366.652 129.47Z" fill="#ACC1D6"/>
<path d="M349.868 129.441C349.755 137.377 343.398 143.732 335.685 143.732C327.972 143.704 321.728 137.321 321.728 129.385C321.756 121.392 328.085 114.897 335.911 114.925C343.737 114.925 349.981 121.449 349.868 129.441Z" fill="#2D2C45"/>
<path d="M326.983 129.498C326.644 129.498 326.39 129.215 326.39 128.876C326.418 123.454 330.741 119.02 336.052 119.02C336.363 119.02 336.702 119.048 337.013 119.076C337.352 119.104 337.578 119.415 337.55 119.754C337.521 120.093 337.211 120.347 336.9 120.291C336.617 120.262 336.335 120.234 336.08 120.234C331.419 120.234 327.633 124.103 327.605 128.848C327.576 129.215 327.322 129.498 326.983 129.498Z" fill="#BDD0FB"/>
<path d="M400.301 255.005C399.002 289.489 369.477 316.657 334.302 316.629C299.099 316.629 269.97 289.404 269.207 254.864C268.416 219.194 298.025 189.484 335.319 189.54C372.585 189.625 401.658 219.392 400.301 255.005Z" fill="#ACC1D6"/>
<path d="M390.045 255.005C389.085 284.179 364.166 307.224 334.358 307.224C304.551 307.224 279.971 284.094 279.463 254.892C278.954 224.899 303.902 199.99 335.234 200.046C366.511 200.102 391.034 225.04 390.045 255.005Z" fill="#2D2C45"/>
<path d="M377.387 254.977C376.766 277.542 357.553 295.476 334.442 295.447C311.331 295.447 292.373 277.457 292.119 254.892C291.865 231.846 311.105 212.811 335.092 212.84C359.107 212.896 378.037 231.959 377.387 254.977Z" fill="#ACC1D6"/>
<path d="M354.22 254.977C354.05 265.314 345.292 273.617 334.64 273.617C324.017 273.617 315.372 265.285 315.372 254.949C315.372 244.499 324.13 235.97 334.951 235.998C345.772 235.998 354.389 244.527 354.22 254.977Z" fill="#2D2C45"/>
<path d="M322.633 255.062C322.181 255.062 321.814 254.694 321.814 254.271C321.842 247.154 327.832 241.364 335.178 241.364C335.63 241.364 336.054 241.393 336.477 241.421C336.929 241.477 337.268 241.844 337.212 242.296C337.155 242.748 336.76 243.059 336.308 243.002C335.941 242.974 335.545 242.946 335.15 242.946C328.708 242.946 323.453 248.029 323.453 254.243C323.453 254.723 323.085 255.062 322.633 255.062Z" fill="#BDD0FB"/>
<path d="M126.626 214.664C126.626 214.664 150.129 142.679 107.669 106.958C23.968 152.924 69.4261 235.057 69.4261 235.057L126.626 214.664Z" fill="#F04637"/>
<path d="M107.669 106.958C107.379 107.112 107.089 107.286 106.798 107.441L101.189 196.475L61.6111 157.351C61.4176 157.931 61.2049 158.53 61.0308 159.11L101.073 198.659L99.4477 224.348L101.15 223.749L104.38 172.525L132.294 156.326C132.216 155.727 132.139 155.128 132.061 154.529L104.496 170.514L108.462 107.615C108.191 107.402 107.94 107.17 107.669 106.958Z" fill="white"/>
<path d="M106.992 198.04C106.992 198.04 80.3941 127.37 27.7208 120.16C-10.7735 171.172 39.6366 222.725 39.6366 222.725L100.434 248.607L106.992 198.04Z" fill="#6680A1"/>
<path d="M78.2666 150.547L62.9075 180.295L28.9783 120.353C28.5721 120.295 28.1466 120.218 27.7403 120.16C27.5856 120.353 27.4502 120.566 27.2954 120.759L45.4593 152.866L14.9927 146.468C14.9153 146.758 14.8573 147.048 14.7993 147.338L14.6445 148.092L46.5426 154.799L76.8351 208.305L23.0204 198.775C23.3493 199.413 23.6781 200.031 24.007 200.631L77.9184 210.16L99.4288 248.144L100.454 248.588L100.667 246.964L63.8941 182.016L79.4465 151.88C79.0403 151.455 78.6534 150.991 78.2666 150.547Z" fill="white"/>
<path d="M88.7904 229.239C88.7904 229.239 36.5039 193.981 1.72363 218.124C6.23076 304.432 116.433 304.78 116.433 304.78L88.7904 229.239Z" fill="#FFD147"/>
<path d="M1.70312 218.124C1.72247 218.453 1.74181 218.781 1.76116 219.11L76.0223 261.268L32.8468 278.511C33.3691 278.897 33.872 279.303 34.3943 279.671L77.86 262.312L106.876 278.781L105.986 276.365L49.5019 244.316L39.9266 210.315C39.327 210.237 38.7273 210.16 38.147 210.102L47.4514 243.156L2.49622 217.602C2.22541 217.776 1.97394 217.95 1.70312 218.124Z" fill="white"/>
<path d="M168.836 188.221H7.63867C3.77268 188.221 0.638672 191.355 0.638672 195.221V310.751C0.638672 314.617 3.77269 317.751 7.63868 317.751H168.836C172.702 317.751 175.836 314.617 175.836 310.751V195.221C175.836 191.355 172.702 188.221 168.836 188.221Z" fill="#053C5E"/>
<path d="M135.138 198.04L143.823 196.706C145.003 196.648 146.338 196.784 146.705 197.75C146.705 197.75 146.957 198.388 147.034 199.065C146.783 199.47 135.196 200.804 135.196 200.804L135.138 200.766C133.706 199.49 135.138 198.04 135.138 198.04Z" fill="#053C5E"/>
<path d="M147.053 199.064L135.196 200.823L135.37 201.268L147.131 199.47L147.053 199.064Z" fill="white"/>
<path d="M138.581 197.518L139.374 197.402L139.296 198.504L138.523 198.62L138.581 197.518Z" fill="white"/>
<path d="M140.263 197.267L141.057 197.151L140.96 198.253L140.205 198.369L140.263 197.267Z" fill="white"/>
<path d="M134.112 195.237L135.157 198.04C135.911 198.291 136.82 198.175 137.497 197.75L137.613 197.673L137.594 194.715L134.112 195.237Z" fill="#F7B58E"/>
<path d="M162.741 193.498L164.366 184.857C164.695 183.736 165.275 182.518 166.3 182.499C166.3 182.499 166.997 182.48 167.635 182.615C167.945 182.982 165.352 194.368 165.352 194.368L165.294 194.406C163.631 195.334 162.741 193.498 162.741 193.498Z" fill="#053C5E"/>
<path d="M167.655 182.615L165.372 194.368L165.855 194.348L168.061 182.692L167.655 182.615Z" fill="white"/>
<path d="M163.379 190.076L163.534 189.303L164.54 189.748L164.405 190.502L163.379 190.076Z" fill="white"/>
<path d="M163.688 188.414L163.843 187.641L164.868 188.085L164.714 188.839L163.688 188.414Z" fill="white"/>
<path d="M159.743 193.536L162.741 193.498C163.225 192.879 163.418 191.971 163.244 191.198L163.205 191.062L160.4 190.096L159.743 193.536Z" fill="#F7B58E"/>
<path d="M109.333 189.245C109.333 189.245 118.792 192.454 132.662 191.584C134.944 191.449 137.246 191.758 139.413 192.512C147.808 195.45 160.265 193.884 160.265 193.884L161.155 189.98L119.643 179.155L109.333 189.245Z" fill="#01888B"/>
<path d="M104.342 146.507L102.64 150.547L106.083 151.571L107.418 148.304L104.342 146.507Z" fill="#F39F85"/>
<path d="M104.787 139.432L103.762 144.883C104.303 144.999 104.477 145.637 104.245 146.12C104.265 146.255 104.265 146.39 104.245 146.545C105.019 147.434 106.489 148.71 108.772 148.826C112.331 149 111.886 141.925 111.886 141.925L104.787 139.432Z" fill="#F7B58E"/>
<path d="M102.098 143.046C102.176 142.641 101.827 141.674 101.595 141.345C100.067 139.219 102.098 138.407 102.795 138.175C103.568 137.905 103.742 136.648 104.787 136.165C106.373 135.45 107.398 136.842 108.308 136.88C109.197 136.938 110.01 135.914 111.112 136.822C112.215 137.731 111.847 138.678 112.138 139.18C112.428 139.683 113.453 138.736 114.343 140.321C115.716 142.756 111.886 142.718 111.886 142.718C111.886 142.718 109.7 143.066 107.321 141.384C106.992 141.152 106.547 141.133 106.238 141.384C105.406 142.08 104.303 146.584 104.303 146.584L103.607 145.637C103.607 145.675 101.789 144.883 102.098 143.046Z" fill="#212B53"/>
<path d="M105.016 144.704C105.481 144.633 105.8 144.199 105.73 143.735C105.659 143.27 105.225 142.951 104.76 143.022C104.295 143.092 103.976 143.526 104.047 143.99C104.117 144.455 104.551 144.774 105.016 144.704Z" fill="#F7B58E"/>
<path d="M95.5022 177.318C95.5022 177.318 96.4887 188.433 106.567 189.284C116.645 190.115 128.986 179.058 128.986 179.058L133.919 195.875L137.827 195.276C137.827 195.276 139.626 170.437 134.267 168.891C128.89 167.344 108.405 175.366 108.405 175.366L95.5022 177.318Z" fill="#63C0C4"/>
<path d="M95.5018 177.319L112.08 174.806C112.08 174.806 110.958 171.191 110.745 167.402C110.59 164.542 111.654 161.99 111.654 161.99C110.745 155.669 108.443 149.503 102.833 150.16C93.2773 152.499 95.5018 177.319 95.5018 177.319Z" fill="#00666B"/>
<path d="M141.85 153.813L136.086 168.465L121.462 166.726L121.326 167.885L136.84 169.741L142.933 154.238L141.85 153.813Z" fill="#053C5E"/>
<path d="M105.096 162.84L111.634 161.854L112.331 169.181L123.86 165.547L126.413 163.845C127.071 163.401 127.883 163.227 128.657 163.343L131.829 163.807C132.158 163.845 132.41 164.116 132.468 164.445L133.628 167.827C133.628 167.827 132.874 168.388 131.655 165.547C131.075 168.91 126.297 166.687 126.297 166.687L124.692 167.827C124.692 167.827 112.331 176.951 109.236 175.289C106.141 173.549 105.096 162.84 105.096 162.84Z" fill="#F7B58E"/>
<path d="M132.487 164.425C132.429 164.097 132.178 163.845 131.849 163.787L128.676 163.324C127.883 163.208 127.09 163.382 126.432 163.826L123.879 165.527L123.511 165.643L123.918 168.349C124.421 167.982 124.711 167.769 124.711 167.769L126.316 166.629C126.316 166.629 131.094 168.871 131.675 165.488C132.893 168.33 133.648 167.769 133.648 167.769L132.487 164.425Z" fill="#F7B58E"/>
<path d="M76.7666 241.344H81.0801C83.9557 241.344 85.9016 241.452 86.9287 241.679C87.9449 241.906 88.7773 242.467 89.4151 243.375C90.0529 244.282 90.3773 245.741 90.3773 247.739C90.3773 249.565 90.1502 250.786 89.6962 251.412C89.2421 252.039 88.3449 252.417 87.0151 252.547C88.2259 252.849 89.0367 253.249 89.4475 253.746C89.8583 254.243 90.1178 254.707 90.2259 255.129C90.3232 255.55 90.3773 256.706 90.3773 258.596V264.776H84.7125V256.987C84.7125 255.733 84.6152 254.956 84.4206 254.653C84.226 254.351 83.7071 254.199 82.8638 254.199V264.765H76.7666V241.344ZM82.8638 245.352V250.559C83.5449 250.559 84.0314 250.462 84.3017 250.278C84.5719 250.094 84.7125 249.479 84.7125 248.452V247.167C84.7125 246.421 84.5827 245.935 84.3125 245.708C84.053 245.471 83.5665 245.352 82.8638 245.352Z" fill="white"/>
<path d="M92.7451 241.344H102.918V246.032H98.8532V250.472H102.659V254.934H98.8532V260.087H103.329V264.776H92.7559V241.344H92.7451Z" fill="white"/>
<path d="M119.307 251.553H113.209V247.48C113.209 246.292 113.145 245.557 113.015 245.266C112.885 244.974 112.593 244.823 112.15 244.823C111.653 244.823 111.328 245.006 111.199 245.363C111.058 245.719 110.993 246.497 110.993 247.675V258.564C110.993 259.698 111.058 260.444 111.199 260.789C111.339 261.135 111.642 261.308 112.107 261.308C112.561 261.308 112.853 261.135 112.993 260.789C113.134 260.444 113.199 259.623 113.199 258.337V255.388H119.296V256.306C119.296 258.737 119.123 260.454 118.777 261.47C118.431 262.485 117.674 263.371 116.507 264.138C115.328 264.905 113.891 265.283 112.172 265.283C110.388 265.283 108.918 264.959 107.75 264.311C106.593 263.663 105.826 262.766 105.447 261.621C105.069 260.476 104.885 258.758 104.885 256.457V249.608C104.885 247.923 104.939 246.648 105.058 245.806C105.177 244.963 105.523 244.153 106.096 243.364C106.669 242.586 107.469 241.971 108.485 241.517C109.501 241.063 110.68 240.847 111.999 240.847C113.793 240.847 115.274 241.193 116.442 241.884C117.609 242.576 118.377 243.44 118.745 244.477C119.112 245.514 119.296 247.124 119.296 249.317V251.553H119.307Z" fill="white"/>
<path d="M58.5 266C65.4036 266 71 260.404 71 253.5C71 246.596 65.4036 241 58.5 241C51.5964 241 46 246.596 46 253.5C46 260.404 51.5964 266 58.5 266Z" fill="#F04637"/>
<path d="M218.217 357.122C215.817 357.139 213.35 356.714 211 356V397H225V356.306C222.817 356.816 220.583 357.088 218.217 357.122Z" fill="#6680A1"/>
<path d="M260.004 387H178.996C171.815 387 166 392.817 166 400H273C273 392.817 267.185 387 260.004 387Z" fill="#2D2C45"/>
<path d="M154.814 214.873V279.991C154.814 314.456 183.031 342.653 217.52 342.653H220.464C254.953 342.653 283.17 314.456 283.17 279.991V214.873H154.814Z" fill="#6680A1"/>
<path d="M283.186 215.692V188.749C283.186 154.285 254.969 126.088 220.48 126.088H217.536C183.047 126.088 154.83 154.285 154.83 188.749V215.692H283.186Z" fill="#B5CAE7"/>
<mask id="mask0" mask-type="alpha" maskUnits="userSpaceOnUse" x="154" y="126" width="130" height="90">
<path d="M283.187 215.692V188.749C283.187 154.285 254.97 126.088 220.481 126.088H217.537C183.048 126.088 154.831 154.285 154.831 188.749V215.692H283.187Z" fill="#92CEC6"/>
</mask>
<g mask="url(#mask0)">
<g opacity="0.6">
<path d="M178.966 216.11L134.96 171.299L135.796 170.48L179.803 215.291L178.966 216.11Z" fill="white"/>
<path d="M194.254 212.784L150.247 167.99L151.083 167.171L195.09 211.965L194.254 212.784Z" fill="white"/>
<path d="M216.584 214.021L156.554 153.215L157.39 152.396L217.404 213.202L216.584 214.021Z" fill="white"/>
<path d="M239.08 214.021L161.37 134.896L162.207 134.077L239.916 213.202L239.08 214.021Z" fill="white"/>
<path d="M258.215 212.784L178.448 131.587L179.284 130.768L259.051 211.965L258.215 212.784Z" fill="white"/>
<path d="M281.096 215.558L185.439 116.26L186.292 115.441L281.949 214.739L281.096 215.558Z" fill="white"/>
<path d="M302.054 215.141L206.381 115.842L207.234 115.023L302.891 214.322L302.054 215.141Z" fill="white"/>
<path d="M303.025 196.354L207.351 97.0722L208.204 96.2532L303.861 195.552L303.025 196.354Z" fill="white"/>
<path d="M259.854 216.11L259.018 215.291L303.024 170.48L303.86 171.299L259.854 216.11Z" fill="white"/>
<path d="M244.567 212.784L243.73 211.965L287.737 167.171L288.573 167.99L244.567 212.784Z" fill="white"/>
<path d="M222.237 214.021L221.401 213.202L281.431 152.396L282.267 153.215L222.237 214.021Z" fill="white"/>
<path d="M199.741 214.021L198.904 213.202L276.614 134.077L277.45 134.896L199.741 214.021Z" fill="white"/>
<path d="M180.606 212.784L179.769 211.965L259.536 130.768L260.372 131.587L180.606 212.784Z" fill="url(#paint0_linear)"/>
<path d="M157.708 215.558L156.871 214.739L252.528 115.441L253.381 116.26L157.708 215.558Z" fill="white"/>
<path d="M136.766 215.141L135.93 214.322L231.587 115.023L232.423 115.842L136.766 215.141Z" fill="white"/>
<path d="M135.796 196.354L134.96 195.552L230.617 96.2534L231.453 97.0724L135.796 196.354Z" fill="white"/>
</g>
</g>
<path d="M289.008 209.057H147.839V215.692H289.008V209.057Z" fill="#475B73"/>
<path d="M300.382 219.837V275.913C300.382 319.654 264.772 355.255 220.983 355.255H217.019C173.246 355.255 137.62 319.671 137.62 275.913V219.837H127.584V275.913C127.584 287.931 129.959 299.614 134.642 310.628C139.158 321.259 145.631 330.819 153.844 339.042C162.073 347.266 171.641 353.717 182.278 358.23C193.301 362.91 204.993 365.284 217.019 365.284H220.983C233.009 365.284 244.7 362.91 255.723 358.23C266.361 353.717 275.928 347.249 284.157 339.042C292.387 330.819 298.843 321.259 303.359 310.628C308.042 299.614 310.417 287.931 310.417 275.913V219.837H300.382Z" fill="#6680A1"/>
<path d="M132.702 223.698C137.912 223.698 142.135 219.478 142.135 214.271C142.135 209.065 137.912 204.845 132.702 204.845C127.492 204.845 123.268 209.065 123.268 214.271C123.268 219.478 127.492 223.698 132.702 223.698Z" fill="#6680A1"/>
<path d="M305.566 223.698C310.776 223.698 315 219.478 315 214.271C315 209.065 310.776 204.845 305.566 204.845C300.356 204.845 296.133 209.065 296.133 214.271C296.133 219.478 300.356 223.698 305.566 223.698Z" fill="#6680A1"/>
<path d="M213.283 347.657C212.915 348.43 212.857 349.3 213.128 350.112L213.612 353.282L214.192 353.649L216.339 354.481C216.107 353.862 216.339 353.205 216.339 353.205L217.287 349.919C217.287 349.919 218.757 344.371 214.772 344.603C214.792 340.08 213.457 340.834 213.457 340.834L213.36 344.738L213.283 347.657Z" fill="#F7B58E"/>
<path d="M203.34 358.636C203.34 358.636 206.125 368.688 208.524 368.862C210.903 369.036 213.379 352.953 213.379 352.953L216.629 353.321C216.629 353.321 217.887 376.459 210.613 376.884C203.34 377.309 202.392 372.187 202.392 372.187L203.34 358.636Z" fill="#FF7B7C"/>
<path d="M203.05 386.104H184.035C184.035 386.104 184.035 373.037 184.035 358.907C189.471 351.098 196.241 353.224 196.241 353.224C196.241 353.224 202.393 353.321 203.36 358.656C203.34 362.483 203.05 386.104 203.05 386.104Z" fill="#F04637"/>
<path d="M194.306 349.841L194.055 353.205L194.171 353.301C195.351 354.345 197.188 354.384 198.388 353.359L198.446 350.827L194.306 349.841Z" fill="#F39F85"/>
<path d="M193.01 342.786L193.32 348.353C193.9 348.334 194.248 348.933 194.132 349.455C194.19 349.59 194.229 349.726 194.229 349.861C195.254 350.557 197.111 351.446 199.51 351.021C203.262 350.344 200.999 343.521 200.999 343.521L193.01 342.786Z" fill="#F7B58E"/>
<path d="M191.114 346.981C191.095 346.575 190.495 345.705 190.167 345.434C188.039 343.714 189.934 342.438 190.612 342.032C191.347 341.587 191.211 340.312 192.178 339.596C193.648 338.514 195.061 339.635 196.008 339.48C196.956 339.307 197.537 338.127 198.91 338.765C200.283 339.384 200.129 340.408 200.574 340.834C201.019 341.259 201.812 340.08 203.146 341.433C205.177 343.482 201.193 344.371 201.193 344.371C201.193 344.371 199.007 345.221 196.125 344.158C195.738 344.004 195.254 344.1 195.003 344.41C194.306 345.299 194.306 349.957 194.306 349.957L193.339 349.203C193.358 349.184 191.25 348.836 191.114 346.981Z" fill="#212B53"/>
<path d="M193.358 347.425C193.552 347.87 194.074 348.063 194.538 347.889C195.002 347.715 195.235 347.212 195.041 346.768C194.848 346.323 194.325 346.13 193.861 346.304C193.397 346.497 193.184 347 193.358 347.425Z" fill="#F7B58E"/>
<path d="M184.344 436.459C184.344 436.459 185.137 437.483 188.832 438.372C189.645 438.566 190.534 438.701 190.534 439.977C188.813 439.977 186.878 439.977 186.878 439.977L183.145 439.378V439.977H181.133C181.133 439.977 180.572 436.865 181.752 436.478C182.836 436.459 184.344 436.459 184.344 436.459Z" fill="#212B53"/>
<path d="M184.538 434.236L184.344 436.459C183.609 436.942 182.642 436.961 181.868 436.536L181.733 436.459V434.236H184.538Z" fill="#F7B58E"/>
<path d="M198.756 436.459C198.756 436.459 199.549 437.483 203.244 438.372C204.056 438.566 204.946 438.701 204.946 439.977C203.224 439.977 201.29 439.977 201.29 439.977L197.556 439.378V439.977H195.525C195.525 439.977 194.964 436.865 196.144 436.478C197.247 436.459 198.756 436.459 198.756 436.459Z" fill="#212B53"/>
<path d="M198.949 434.236L198.756 436.459C198.021 436.942 197.054 436.961 196.28 436.536L196.145 436.459V434.236H198.949Z" fill="#F7B58E"/>
<path d="M184.035 358.907C184.035 358.907 178.328 371.298 185.602 377.619C192.875 383.939 202.74 382.876 202.74 382.876V379.3C202.74 379.3 193.823 378.585 190.96 372.979C188.097 367.354 192.101 362.503 192.101 362.503" fill="#F04637"/>
<path d="M202.179 382.374L206.725 382.47C208.582 382.374 209.801 379.783 210.11 377.85C210.149 377.56 209.859 377.328 209.568 377.425C208.021 377.928 204.056 379.261 203.03 379.861L202.179 382.374Z" fill="#F7B58E"/>
<path d="M203.05 386.104C206.9 403.791 199.143 434.584 199.143 434.584H195.525C195.525 434.584 197.189 387.225 190.612 386.104C200.651 386.104 198.736 386.104 203.05 386.104Z" fill="#212B53"/>
<path d="M189.954 369.229C190.012 370.408 190.302 371.665 190.96 372.979C193.823 378.604 203.204 379.339 203.204 379.339V382.934C203.204 382.934 192.875 383.939 185.601 377.618C182.971 375.318 182.042 372.225 181.926 369.229H189.954Z" fill="#FF7B7C"/>
<path d="M190.012 369.77C189.819 369.693 189.606 369.596 189.413 369.519C189.064 365.363 191.656 362.232 191.676 362.193L192.121 362.522C192.101 362.56 189.529 365.692 190.012 369.77Z" fill="#F08712"/>
<path d="M214.173 348.14C214.173 348.14 213.128 347.85 212.954 346.033C212.8 344.236 211.89 344.796 211.89 344.796C211.89 344.796 212.355 351.91 213.573 352.18C214.753 352.432 214.173 348.14 214.173 348.14Z" fill="#F7B58E"/>
<path d="M196.009 386.104C197.556 404.603 185.022 434.584 185.022 434.584H181.172C181.172 434.584 184.538 415.408 184.615 397.412C184.635 393.527 184.461 389.68 184.035 386.104C188.175 386.104 192.256 386.104 196.009 386.104Z" fill="#053C5E"/>
<path d="M259.883 348.875L261.701 352.934L264.641 350.267L262.572 344.352L259.883 348.875Z" fill="#F39F85"/>
<path d="M258.819 349.126C258.316 349.184 257.852 349.184 257.581 349.01C255.782 346.981 256.401 340.988 256.401 340.988L258.509 339.171L261.72 340.679L262.552 343.965C262.784 345.048 262.475 346.961 261.72 347.773C260.908 348.508 259.902 348.991 258.819 349.126Z" fill="#F7B58E"/>
<path d="M258.335 370.621C258.335 370.621 257.6 371.685 256.149 372.168C254.698 372.67 243.866 370.389 243.866 370.389L241.699 370.621C240.558 370.931 239.359 370.873 238.256 370.447L235.064 369.21L253.731 368.824L260.869 359.951L258.335 370.621Z" fill="#F7B58E"/>
<path d="M264.641 350.267C264.641 350.267 268.955 355.795 269.961 359.41C270.967 363.044 271.334 373.057 271.334 373.057H262.262C262.262 373.057 259.651 368.34 257.639 364.049C257.039 362.773 257 361.285 257.581 359.971C259.07 356.607 261.295 352.007 261.295 352.007L264.641 350.267Z" fill="#00666B"/>
<path d="M260.037 433.463L259.321 435.338C259.147 435.86 258.799 436.285 258.334 436.575C257.831 436.904 257.038 437.348 255.858 437.696C257.309 438.933 259.592 437.638 260.907 436.73C261.546 436.285 262.01 435.628 262.184 434.874L262.493 433.463H260.037Z" fill="#F7B58E"/>
<path d="M262.339 434.429C262.339 434.429 263.306 435.203 263.132 436.169C262.958 437.155 262.706 439.436 262.706 439.436H261.7L261.739 437.31C261.739 437.174 259.592 439.436 259.224 439.436H253.905C253.905 439.436 253.556 438.006 256.671 437.542C259.785 437.078 262.339 434.429 262.339 434.429Z" fill="#053C5E"/>
<path d="M270.367 433.463L269.651 435.338C269.477 435.86 269.129 436.285 268.664 436.575C268.162 436.904 267.368 437.348 266.188 437.696C267.639 438.933 269.922 437.638 271.237 436.73C271.875 436.285 272.34 435.628 272.514 434.874L272.823 433.463H270.367Z" fill="#F7B58E"/>
<path d="M272.669 434.429C272.669 434.429 273.636 435.203 273.462 436.169C273.288 437.155 273.036 439.436 273.036 439.436H272.03L272.069 437.31C272.069 437.174 269.922 439.436 269.554 439.436H264.235C264.235 439.436 263.887 438.006 267.001 437.542C270.115 437.078 272.669 434.429 272.669 434.429Z" fill="#053C5E"/>
<path d="M262.262 373.211C262.262 373.211 257.755 379.958 261.604 406.865C261.005 417.033 259.863 433.772 259.863 433.772H262.417C262.417 433.772 269.497 415.95 267.117 407.078C266.556 398.282 268.723 373.076 268.723 373.076L262.262 373.211Z" fill="#212B53"/>
<path d="M271.334 373.057C271.334 373.057 276.054 376.846 276.054 382.471C276.054 386.878 273.926 396.04 272.708 402.013C272.263 404.178 272.708 406.44 273.327 408.566C275.822 417.245 272.785 433.753 272.785 433.753H270.251C270.251 433.753 270.115 425.267 266.634 406.227C262.629 384.365 262.281 373.057 262.281 373.057H271.334Z" fill="#053C5E"/>
<path d="M234.581 369.229H249.417V368.128H235.238L228.932 356.162L227.984 356.684L234.581 369.229Z" fill="#053C5E"/>
<path d="M268.762 360.396C268.762 360.396 264.022 371.414 261.74 371.414C259.457 371.414 246.864 366.021 246.864 366.021L247.193 364.146L260.057 366.33C260.057 366.33 261.198 363.295 261.991 359.816C262.301 358.443 263.384 357.303 264.777 357.051C267.814 356.452 268.762 360.396 268.762 360.396Z" fill="#F7B58E"/>
<path d="M262.475 342.902C262.475 342.902 261.063 343.753 256.768 340.988C256.111 341.162 257.155 334.957 262.726 336.794C266.614 338.07 266.44 341.839 266.247 343.927C266.053 346.169 267.233 347.657 268.781 349.32C270.077 350.692 270.057 353.244 270.928 354.616C271.992 356.298 273.114 356.201 273.965 357.902C274.855 359.68 274.971 361.865 273.791 363.469C273.114 364.378 271.547 366.581 269.071 365.789C267.678 365.344 267.311 362.928 267.233 360.879C267.175 359.062 266.305 357.361 264.873 356.22C263.539 355.157 262.068 353.688 261.682 352.18C260.908 349.165 262.475 342.902 262.475 342.902Z" fill="#FF7B7C"/>
<path d="M262.977 343.018C262.648 342.786 262.126 342.922 261.797 343.327C261.488 343.733 261.488 344.236 261.816 344.468C262.145 344.7 262.668 344.565 262.997 344.159C263.325 343.753 263.306 343.25 262.977 343.018Z" fill="#F7B58E"/>
<path d="M240.152 365.112C240.113 364.842 240.268 364.59 240.519 364.474L242.937 363.43C243.537 363.179 244.214 363.14 244.833 363.353L247.231 364.146L247.56 364.165L247.812 366.388C247.328 366.214 247.057 366.098 247.057 366.098L245.549 365.537C245.549 365.537 242.241 368.34 241.061 365.789C240.713 368.321 239.978 368.031 239.978 368.031L240.152 365.112Z" fill="#F7B58E"/>
<path d="M264.603 340.737C264.119 342.457 261.682 343.289 259.128 342.593C256.575 341.897 255.202 339.983 255.376 338.205C255.608 335.866 258.297 335.653 260.85 336.349C263.403 337.045 265.086 338.997 264.603 340.737Z" fill="#FF7B7C"/>
<path d="M533.017 75.4308L536.363 82.003L529.341 80.3986L505.316 72.8406L533.017 75.4308Z" fill="#AFD8C7"/>
<path d="M536.363 82.0027L524.447 81.2682L527.368 79.7798L536.363 82.0027Z" fill="#63C0C4"/>
<path d="M533.017 75.4307L535.106 69.0325L505.316 72.8405L533.017 75.4307Z" fill="url(#paint1_linear)"/>
<path d="M505.316 72.8406L529.341 80.3986L525.763 89.6383L505.316 72.8406Z" fill="url(#paint2_linear)"/>
<path d="M533.733 88.6137C533.791 88.575 533.849 88.5364 533.907 88.4784C534.12 88.2464 534.081 87.8985 533.849 87.6859C533.114 87.048 532.321 86.4681 531.489 85.9848C531.218 85.8302 530.87 85.9075 530.715 86.1781C530.56 86.4487 530.657 86.7967 530.909 86.9513C531.682 87.3959 532.417 87.9372 533.094 88.5364C533.288 88.691 533.539 88.7104 533.733 88.6137Z" fill="#63C0C4"/>
<path d="M525.009 149.89C524.854 149.619 524.931 149.271 525.202 149.116C526.711 148.227 528.104 147.029 529.322 145.56C529.516 145.328 529.864 145.289 530.115 145.482C530.347 145.676 530.386 146.024 530.193 146.275C528.897 147.841 527.407 149.136 525.782 150.083C525.763 150.083 525.763 150.102 525.744 150.102C525.473 150.238 525.163 150.16 525.009 149.89ZM531.392 143.607C531.121 143.453 531.024 143.105 531.179 142.834C532.088 141.23 532.765 139.509 533.21 137.731C533.288 137.422 533.597 137.248 533.887 137.325C534.197 137.402 534.371 137.712 534.294 138.002C533.829 139.896 533.114 141.694 532.146 143.395C532.088 143.491 532.011 143.569 531.914 143.627C531.76 143.704 531.566 143.704 531.392 143.607ZM534.255 135.083C533.945 135.064 533.713 134.793 533.733 134.484L533.752 134.232C533.849 132.531 533.752 130.753 533.481 128.955C533.442 128.646 533.636 128.356 533.945 128.317C534.255 128.279 534.545 128.472 534.584 128.781C534.874 130.656 534.971 132.493 534.874 134.29L534.855 134.561C534.835 134.774 534.719 134.928 534.545 135.025C534.468 135.064 534.371 135.083 534.255 135.083ZM533.481 126.094C533.172 126.172 532.881 125.998 532.804 125.688C532.359 124.007 531.74 122.228 530.986 120.411C530.87 120.121 531.005 119.793 531.295 119.677C531.585 119.561 531.914 119.696 532.03 119.986C532.804 121.842 533.442 123.678 533.907 125.418C533.984 125.669 533.849 125.94 533.617 126.056C533.559 126.075 533.52 126.094 533.481 126.094ZM530.328 117.609C530.057 117.744 529.709 117.628 529.574 117.357C529.496 117.222 529.438 117.067 529.361 116.932C528.761 117.164 528.162 117.357 527.543 117.531C527.252 117.609 526.943 117.435 526.846 117.145C526.769 116.855 526.943 116.545 527.233 116.449C527.775 116.294 528.316 116.12 528.839 115.927C528.258 114.806 527.62 113.646 526.885 112.409C526.73 112.138 526.827 111.79 527.098 111.636C527.368 111.481 527.717 111.578 527.871 111.848C528.626 113.143 529.284 114.342 529.883 115.502C530.696 115.134 531.489 114.69 532.224 114.206C532.475 114.033 532.823 114.11 532.998 114.361C533.172 114.612 533.094 114.96 532.843 115.134C532.069 115.656 531.237 116.101 530.386 116.507C530.444 116.623 530.502 116.758 530.56 116.874C530.715 117.145 530.599 117.473 530.328 117.609ZM534.758 112.892C534.545 112.679 534.526 112.312 534.738 112.1C535.532 111.288 536.228 110.398 536.789 109.432C537.137 108.833 537.447 108.214 537.717 107.557C537.834 107.267 538.162 107.132 538.453 107.248C538.743 107.364 538.878 107.692 538.762 107.982C538.472 108.678 538.143 109.355 537.756 109.993C537.137 111.017 536.402 111.984 535.551 112.853C535.512 112.892 535.454 112.931 535.396 112.969C535.203 113.105 534.932 113.066 534.758 112.892ZM524.099 118.169C522.107 118.343 520.153 118.188 518.296 117.725C517.987 117.647 517.813 117.338 517.89 117.048C517.967 116.739 518.277 116.565 518.567 116.642C520.308 117.087 522.146 117.222 524.003 117.067C524.312 117.048 524.583 117.261 524.602 117.57C524.622 117.802 524.486 118.014 524.293 118.111C524.254 118.13 524.177 118.15 524.099 118.169ZM539.091 105.083C538.781 105.025 538.588 104.735 538.627 104.426C538.936 102.647 538.955 100.811 538.685 98.9745C538.646 98.6652 538.859 98.3753 539.149 98.3366C539.458 98.2979 539.749 98.5106 539.787 98.8005C540.077 100.772 540.058 102.725 539.729 104.619C539.691 104.793 539.574 104.947 539.439 105.025C539.323 105.083 539.207 105.102 539.091 105.083ZM514.988 116.468C514.544 116.236 514.099 115.985 513.673 115.714C512.454 114.922 511.352 113.878 510.501 112.679C510.327 112.428 510.385 112.08 510.636 111.906C510.888 111.732 511.236 111.79 511.41 112.042C512.184 113.124 513.17 114.071 514.273 114.786C514.66 115.038 515.066 115.27 515.491 115.482C515.762 115.618 515.878 115.966 515.743 116.236C515.685 116.352 515.607 116.429 515.491 116.487C515.356 116.545 515.163 116.545 514.988 116.468ZM525.144 109.529C523.945 107.654 522.842 106.301 521.681 105.257C521.449 105.044 521.43 104.696 521.643 104.464C521.855 104.232 522.204 104.213 522.436 104.426C523.674 105.547 524.834 106.977 526.092 108.929C526.266 109.181 526.189 109.529 525.918 109.703C525.898 109.722 525.879 109.722 525.86 109.722C525.628 109.857 525.299 109.761 525.144 109.529ZM538.607 96.1136C538.317 96.2103 537.988 96.0557 537.892 95.7657C537.621 94.9732 537.292 94.2 536.924 93.4654C536.479 92.5763 535.938 91.7258 535.338 90.9332C535.145 90.6819 535.203 90.334 535.454 90.1407C535.706 89.9474 536.054 90.0054 536.247 90.2567C536.886 91.0879 537.447 91.9964 537.93 92.9629C538.336 93.7554 538.685 94.5673 538.975 95.4178C539.072 95.6884 538.936 95.9783 538.704 96.0943C538.665 96.0943 538.627 96.1136 538.607 96.1136ZM509.63 109.857C509.321 109.935 509.03 109.741 508.953 109.451C508.547 107.866 508.721 106.32 509.417 104.986C509.669 104.503 509.998 104.058 510.385 103.672C510.597 103.44 510.965 103.44 511.178 103.652C511.39 103.865 511.41 104.232 511.197 104.445C510.888 104.754 510.636 105.121 510.423 105.508C509.843 106.61 509.727 107.847 510.056 109.181C510.114 109.432 509.998 109.703 509.766 109.819C509.727 109.819 509.688 109.838 509.63 109.857ZM519.012 103.44C517.445 102.724 515.511 102.531 513.847 102.956C513.538 103.034 513.247 102.86 513.17 102.551C513.093 102.241 513.286 101.951 513.576 101.874C515.511 101.391 517.658 101.584 519.496 102.435C519.786 102.57 519.902 102.898 519.766 103.188C519.708 103.304 519.612 103.401 519.515 103.459C519.36 103.517 519.186 103.517 519.012 103.44Z" fill="#63C0C4"/>
<path d="M522.572 151.475C522.804 151.359 522.939 151.088 522.862 150.818C522.784 150.528 522.475 150.354 522.165 150.431C521.295 150.682 520.424 150.818 519.535 150.876C519.225 150.895 518.993 151.165 519.012 151.475C519.032 151.784 519.303 152.016 519.612 151.997C520.579 151.939 521.546 151.784 522.494 151.513C522.514 151.513 522.552 151.494 522.572 151.475Z" fill="#63C0C4"/>
<path d="M184.16 39.0909L164.739 28.3821L154.816 26.3911L147.33 27.4929L184.16 39.0909Z" fill="url(#paint3_linear)"/>
<path d="M184.16 39.0909L147.774 29.7545L147.33 27.4929" fill="#AFD8C7"/>
<path d="M146.749 35.9788L146.788 36.0561L148.316 41.7004L184.064 39.0909L146.749 35.9788Z" fill="#63C0C4"/>
<path d="M139.805 32.6734L144.989 28.4595L183.909 39.033L150.406 38.0278L139.805 32.6734Z" fill="url(#paint4_linear)"/>
<path d="M57.9806 104.678C59.1606 104.252 60.3406 103.75 61.4819 103.17C61.7333 103.035 62.0622 103.131 62.1976 103.402C62.333 103.653 62.2363 103.982 61.9654 104.117C60.7855 104.736 59.5668 105.257 58.3288 105.702C57.8839 105.857 57.439 106.011 56.9747 106.147C56.8006 106.205 56.6459 106.166 56.5105 106.069C56.4138 106.011 56.3557 105.915 56.317 105.799C56.2397 105.528 56.3944 105.219 56.6652 105.142C57.1295 104.987 57.555 104.832 57.9806 104.678Z" fill="#63C0C4"/>
<path d="M129.166 28.7493C130.81 28.9619 132.532 29.2325 134.408 29.5805C134.698 29.6385 134.892 29.9091 134.834 30.199C134.776 30.489 134.505 30.6823 134.215 30.6243C132.358 30.2764 130.656 30.0057 129.031 29.8124C128.934 29.7931 128.857 29.7738 128.779 29.7158C128.624 29.5998 128.547 29.4258 128.566 29.2325C128.624 28.9039 128.876 28.7106 129.166 28.7493Z" fill="#63C0C4"/>
<path d="M120.365 29.1359C120.23 29.0393 120.152 28.8847 120.152 28.7107C120.152 28.4207 120.384 28.1888 120.675 28.1694C122.377 28.1501 124.157 28.2274 125.994 28.3821C126.284 28.4014 126.497 28.6527 126.478 28.9426C126.458 29.2326 126.207 29.4452 125.917 29.4259C124.118 29.2713 122.358 29.2133 120.694 29.2133C120.559 29.2519 120.443 29.2133 120.365 29.1359Z" fill="#63C0C4"/>
<path d="M68.1943 98.3179C68.4071 98.1053 68.7359 98.1053 68.9487 98.3179C69.1615 98.5305 69.1421 98.8592 68.9293 99.0718C67.6526 100.328 66.2405 101.469 64.7511 102.454C64.5576 102.59 64.3255 102.57 64.1514 102.435C64.1127 102.396 64.0547 102.358 64.0353 102.3C63.8806 102.049 63.9386 101.739 64.1708 101.565C65.6022 100.618 66.9563 99.5164 68.1943 98.3179Z" fill="#63C0C4"/>
<path d="M70.3609 96.7714C70.1288 96.5781 70.1094 96.2494 70.2835 96.0368C70.5737 95.6695 70.8638 95.3023 71.154 94.9157C71.9084 93.9105 72.5854 92.8281 73.1851 91.7456C73.3205 91.4943 73.6494 91.3976 73.9008 91.533C74.1523 91.6683 74.249 91.9969 74.1136 92.2481C73.4946 93.3886 72.7789 94.4904 72.0051 95.5342C71.715 95.9208 71.4055 96.3074 71.096 96.694C70.9219 96.9067 70.593 96.9453 70.3803 96.7907C70.3803 96.7907 70.3803 96.7714 70.3609 96.7714Z" fill="#63C0C4"/>
<path d="M74.8103 89.6193C74.7716 89.6 74.7329 89.5807 74.6942 89.5613C74.5008 89.426 74.4234 89.1554 74.5202 88.9428C75.1392 87.4157 75.6808 85.8113 76.1257 83.9943C76.2031 83.7044 76.4932 83.5304 76.764 83.6077C77.0542 83.685 77.2283 83.975 77.1509 84.2456C76.6867 86.1013 76.145 87.7637 75.4873 89.3294C75.3906 89.6 75.0811 89.7353 74.8103 89.6193Z" fill="#63C0C4"/>
<path d="M88.8151 44.5612C88.3702 45.1025 87.9447 45.6437 87.5384 46.2043C86.9194 47.0355 86.3198 47.9247 85.7781 48.7945C85.6234 49.0458 85.2945 49.1231 85.0431 48.9685C85.0237 48.9685 85.0237 48.9491 85.0044 48.9491C84.7916 48.7945 84.7336 48.4852 84.869 48.2533C85.43 47.3447 86.049 46.4556 86.6873 45.605C87.1129 45.0251 87.5578 44.4646 88.0027 43.9233C88.1961 43.6914 88.5056 43.6334 88.7378 43.846C88.9699 44.02 89.0086 44.3486 88.8151 44.5612Z" fill="#63C0C4"/>
<path d="M84.2109 51.5007C83.3985 53.0471 82.7021 54.6515 82.1218 56.2559C82.0251 56.5265 81.7156 56.6811 81.4447 56.5652C81.3867 56.5458 81.348 56.5265 81.3093 56.4878C81.1352 56.3525 81.0385 56.1012 81.1352 55.8886C81.7349 54.2262 82.4506 52.5832 83.2824 50.9981C83.4178 50.7468 83.7467 50.6308 83.9981 50.7661C84.2496 50.9208 84.3463 51.2494 84.2109 51.5007Z" fill="#63C0C4"/>
<path d="M94.7143 38.6849C93.3603 39.7868 92.0836 40.9852 90.8843 42.2224C90.6908 42.4157 90.4007 42.435 90.1879 42.2803C90.1686 42.261 90.1492 42.261 90.1299 42.2417C89.9171 42.0484 89.9171 41.7004 90.1105 41.4878C91.3292 40.212 92.6446 38.9749 94.0373 37.8537C94.2694 37.6604 94.5983 37.6991 94.7724 37.9311C94.9852 38.163 94.9465 38.4916 94.7143 38.6849Z" fill="#63C0C4"/>
<path d="M104.464 32.6733C104.29 32.7506 104.077 32.7312 103.942 32.6153C103.865 32.5573 103.807 32.4993 103.768 32.4026C103.652 32.132 103.768 31.8228 104.039 31.7068C105.683 30.9916 107.366 30.3537 109.049 29.8705C109.339 29.7932 109.629 29.9478 109.707 30.2184C109.784 30.489 109.629 30.7983 109.358 30.8756C107.714 31.3588 106.07 31.9774 104.464 32.6733Z" fill="#63C0C4"/>
<path d="M78.4269 73.1889C78.3302 73.1696 78.2528 73.1503 78.1754 73.0923C78.0207 72.9763 77.9433 72.8023 77.9626 72.609L78.04 71.9518C78.2141 70.4248 78.3882 68.8977 78.601 67.3707C78.6397 67.0807 78.9105 66.8874 79.2006 66.9261C79.4908 66.9647 79.6842 67.2353 79.6649 67.5253C79.4715 69.0523 79.2974 70.5794 79.1233 72.0871L79.0459 72.7443C78.9879 73.015 78.717 73.2083 78.4269 73.1889Z" fill="#63C0C4"/>
<path d="M97.2101 36.7905C97.0167 36.9258 96.7652 36.9064 96.5911 36.7905C96.5524 36.7518 96.5138 36.7132 96.4751 36.6745C96.301 36.4425 96.359 36.114 96.6105 35.94C98.0613 34.9155 99.5894 33.9684 101.156 33.1372C101.408 33.0019 101.737 33.0985 101.872 33.3498C102.007 33.6011 101.911 33.9297 101.659 34.065C100.131 34.8575 98.6416 35.7853 97.2101 36.7905Z" fill="#63C0C4"/>
<path d="M78.1757 75.2768C78.4658 75.3154 78.6786 75.5667 78.6399 75.876C78.3884 77.925 78.1176 79.6066 77.8468 81.1337C77.7888 81.4237 77.518 81.617 77.2278 81.559C77.1504 81.5397 77.073 81.5203 77.015 81.4623C76.8603 81.3464 76.7635 81.153 76.8022 80.9404C77.0924 79.4327 77.3439 77.7896 77.5953 75.76C77.634 75.4507 77.8855 75.2381 78.1757 75.2768Z" fill="#63C0C4"/>
<path d="M53.667 105.856C53.9572 105.798 54.228 105.992 54.286 106.282C54.3441 106.572 54.1506 106.842 53.8605 106.9C52.2162 107.229 50.4753 107.442 48.5602 107.577C48.4248 107.577 48.3088 107.538 48.212 107.48C48.096 107.384 48.0186 107.248 47.9993 107.094C47.9799 106.804 48.1927 106.552 48.4829 106.533C50.3592 106.378 52.0615 106.166 53.667 105.856Z" fill="#63C0C4"/>
<path d="M80.8262 58.6141C81.097 58.6915 81.2711 58.9814 81.1937 59.252C80.7682 60.7984 80.42 62.4801 80.1105 64.3551C80.0718 64.645 79.7816 64.8383 79.5108 64.7803C79.4334 64.761 79.3561 64.7417 79.2787 64.6837C79.1239 64.5677 79.0466 64.3744 79.0659 64.1811C79.3948 62.2675 79.7429 60.5471 80.1685 58.9621C80.2459 58.6915 80.536 58.5368 80.8262 58.6141Z" fill="#63C0C4"/>
<path d="M115.625 28.4979C116.244 28.4206 116.863 28.3626 117.482 28.324C117.773 28.3046 118.024 28.5173 118.043 28.8072C118.063 29.0971 117.85 29.3484 117.56 29.3678C116.96 29.4064 116.36 29.4644 115.761 29.5417C114.639 29.677 113.517 29.851 112.414 30.1023C112.26 30.1409 112.105 30.1023 111.989 30.0056C111.892 29.9283 111.815 29.8123 111.795 29.6963C111.737 29.4064 111.911 29.1358 112.202 29.0778C113.304 28.8265 114.465 28.6332 115.625 28.4979Z" fill="#63C0C4"/>
<path d="M81.8058 292.539C81.8058 292.539 79.7751 288.595 81.6752 287.406C83.5754 286.217 85.0985 287.986 85.8673 288.871C86.6361 289.755 84.0686 293.192 83.3869 293.482C82.7196 293.757 81.8058 292.539 81.8058 292.539Z" fill="url(#paint5_linear)"/>
<path d="M83.8805 291.858C83.8805 291.858 77.2516 309.272 88.7833 316.116C90.4078 317.087 90.872 319.233 89.8276 320.828C89.6101 321.176 89.349 321.509 89.0734 321.843C87.7389 323.438 85.2875 323.452 83.9385 321.872C80.2397 317.551 73.9879 307.169 81.9803 292.423L83.8805 291.858Z" fill="url(#paint6_linear)"/>
<path d="M95.1941 363.21L86.6651 360.817L84.5328 373.055C84.5328 373.055 81.066 373.113 78.2085 374.882C75.351 376.665 65.2554 385.989 65.2554 385.989L63.4857 385.583L62.804 386.018L61.8176 393.514L64.6316 389.526C65.0813 388.888 66.3142 387.917 66.2852 387.859C71.7392 385.278 84.8374 377.796 88.3187 375.795C88.8844 375.476 89.334 374.998 89.6241 374.418L95.1941 363.21Z" fill="url(#paint7_linear)"/>
<path d="M94.6436 399.053C94.5711 399.053 94.4986 399.053 94.426 399.053C94.7452 395.109 96.1812 377.767 97.6317 371.272C99.2708 363.92 95.1803 349.218 95.1803 349.218L87.8262 356.569L91.9166 370.46C89.1171 374.664 92.3663 399.241 92.3083 399.241V399.299L91.2349 400.763L91.3654 401.561L97.8783 405.403L95.3109 401.242C94.9047 400.575 94.6871 399.821 94.6436 399.053Z" fill="url(#paint8_linear)"/>
<path d="M98.3126 405.998H96.2383C95.8467 405.998 95.484 405.824 95.2519 405.505C94.5992 404.664 93.2647 403.025 92.6265 402.982C91.7562 402.924 91.8722 405.998 91.8722 405.998H91.3935L90.7843 402.184C90.6248 401.228 91.1034 400.271 91.9738 399.821C91.9738 399.821 92.1768 401.285 93.2357 401.923C94.3091 402.576 97.5873 404.881 97.5873 404.881C97.5873 404.881 97.9934 404.823 98.4286 404.91C99.0668 405.026 98.9798 405.998 98.3126 405.998Z" fill="#F04637"/>
<path d="M61.4262 394.152L60.6139 392.238C60.4544 391.875 60.4834 391.469 60.6719 391.136C61.1941 390.208 62.1805 388.337 61.9629 387.728C61.6728 386.917 58.8878 388.221 58.8878 388.221L58.6992 387.772L61.9774 385.713C62.8042 385.191 63.8631 385.264 64.6174 385.873C64.6174 385.873 63.3554 386.627 63.1813 387.859C63.0073 389.091 62.166 393.021 62.166 393.021C62.166 393.021 62.3836 393.369 62.4706 393.804C62.6156 394.471 61.6873 394.761 61.4262 394.152Z" fill="#F04637"/>
<path d="M97.0505 336.791C97.0505 336.791 96.8039 338.27 97.1665 342.316C97.5147 346.361 99.1973 355.873 98.8637 364.964C98.8637 364.964 94.0769 366.08 85.7654 365.544C85.7654 365.544 82.2552 351.349 83.111 345.955C83.9668 340.561 88.6085 336.69 88.6085 336.69L97.0505 336.791Z" fill="#212B53"/>
<path d="M93.5268 309.736L94.107 316.608H88.5515L89.9295 306.111L93.5268 309.736Z" fill="url(#paint9_linear)"/>
<path d="M86.8976 315.666C88.8123 315.565 93.1058 315.362 96.1374 315.536C97.733 315.623 99.082 316.768 99.4011 318.334L100.141 321.886C100.416 323.206 100.373 324.583 100.025 325.874L97.0512 336.792C97.0512 336.792 94.4113 338.387 88.5947 336.676C88.5947 336.676 83.4889 324.511 85.5776 316.724C85.7517 316.13 86.2739 315.695 86.8976 315.666Z" fill="url(#paint10_linear)"/>
<path d="M95.8759 301.804C96.0789 301.92 97.631 307.43 96.3255 309.75C95.0201 312.056 91.0166 309.475 89.9287 306.125C88.8408 302.776 90.5814 298.687 95.8759 301.804Z" fill="url(#paint11_linear)"/>
<path d="M85.5046 306.111C84.6053 310.504 81.6317 309.301 79.5285 311.258C76.1198 314.433 71.2315 311.157 66.4883 314.158C63.0651 316.333 61.4115 321.872 63.0506 326.352C65.3279 332.558 73.1172 335.11 77.1496 333.21C81.008 331.398 80.4568 326.004 85.6352 323.902C87.84 323.017 88.9279 323.597 90.2478 322.278C92.5542 319.972 91.9304 315.506 91.6984 313.796C91.1762 310.055 89.9287 309.388 90.5234 307.749C91.6839 304.559 97.1233 305.212 97.573 302.964C97.9791 300.905 94.0482 297.02 90.3494 297.643C84.6053 298.586 85.8963 304.153 85.5046 306.111Z" fill="#2D2C45"/>
<path d="M64.7624 325.308C64.6899 325.308 64.6319 325.264 64.6173 325.192C63.8776 322.147 64.2112 319.653 65.6037 317.768C67.91 314.651 72.3921 314.346 72.4357 314.332C72.5082 314.317 72.5952 314.39 72.5952 314.477C72.5952 314.564 72.5372 314.636 72.4502 314.636C72.4066 314.636 68.0551 314.941 65.8358 317.942C64.5013 319.74 64.1822 322.162 64.8929 325.12C64.9075 325.207 64.8639 325.279 64.7769 325.293C64.7914 325.308 64.7769 325.308 64.7624 325.308Z" fill="#91B3FA"/>
<path d="M79.4566 328.092H79.4421C79.3985 328.077 79.384 328.034 79.384 328.005C80.0948 325.264 81.3567 323.365 83.1119 322.35C84.3883 321.611 85.5923 321.538 86.6511 321.48C87.6665 321.422 88.5513 321.364 89.2621 320.741C90.7271 319.436 90.6401 316.304 89.0155 311.446C89.001 311.403 89.03 311.359 89.059 311.345C89.1025 311.33 89.146 311.359 89.1605 311.388C90.8141 316.318 90.8867 319.508 89.3636 320.842C88.6093 321.509 87.71 321.553 86.6656 321.625C85.6213 321.683 84.4463 321.756 83.1989 322.466C81.4728 323.452 80.2398 325.337 79.5436 328.034C79.5146 328.077 79.4856 328.092 79.4566 328.092Z" fill="#91B3FA"/>
<path d="M87.6224 305.023C87.6079 305.023 87.6079 305.023 87.5934 305.023C87.5499 305.009 87.5354 304.965 87.5499 304.922C88.1156 303.225 89.7547 303.486 91.4953 303.747C92.5977 303.921 93.7291 304.095 94.6864 303.805C95.4117 303.588 95.8323 303.269 95.9484 302.819C96.1659 302.08 95.4262 301.239 95.4117 301.239C95.3827 301.21 95.3827 301.166 95.4117 301.137C95.4407 301.108 95.4842 301.108 95.5132 301.137C95.5422 301.181 96.311 302.036 96.0789 302.863C95.9339 303.356 95.4842 303.718 94.7154 303.95C93.7146 304.24 92.5687 304.066 91.4518 303.892C89.7111 303.631 88.2026 303.399 87.6804 304.965C87.6804 305.009 87.6514 305.023 87.6224 305.023Z" fill="#91B3FA"/>
<path d="M109.308 294.83C109.308 294.83 112.253 291.51 110.701 289.9C109.149 288.276 107.234 289.61 106.277 290.277C105.32 290.944 106.944 294.917 107.539 295.352C108.134 295.787 109.308 294.83 109.308 294.83Z" fill="url(#paint12_linear)"/>
<path d="M107.465 293.656C107.465 293.656 109.554 312.171 96.6878 315.941C94.8602 316.478 93.8883 318.45 94.4975 320.233C94.6281 320.625 94.7876 321.016 94.9762 321.408C95.8755 323.292 98.2399 323.901 99.9515 322.712C104.608 319.436 113.238 310.939 109.177 294.67L107.465 293.656Z" fill="url(#paint13_linear)"/>
<path d="M217.161 22.7079C219.053 22.7079 220.586 21.3969 220.586 19.7797C220.586 18.1625 219.053 16.8516 217.161 16.8516C215.269 16.8516 213.735 18.1625 213.735 19.7797C213.735 21.3969 215.269 22.7079 217.161 22.7079Z" fill="#F04637"/>
<path d="M223.09 2.84849C221.106 1.59694 220.775 0.250938 219.287 0.014797C217.775 -0.221344 217.964 2.44705 217.964 2.44705V19.1186C217.964 19.7326 218.696 20.2049 219.287 20.2049C219.877 20.2049 220.468 20.3702 220.468 19.7562L220.562 3.91113C224.697 4.61955 226.894 9.76743 226.894 9.76743C227.248 6.91012 224.862 3.95835 223.09 2.84849Z" fill="#F04637"/>
<path d="M463.128 125.855C462.585 125.572 462.42 124.91 462.703 124.391L470.593 109.703C470.877 109.16 471.515 108.947 472.058 109.231C472.601 109.514 472.767 110.175 472.483 110.695L464.309 125.926C464.002 126.445 463.648 126.138 463.128 125.855Z" fill="#F04637"/>
<path d="M464.474 126.068C463.694 127.508 461.71 127.909 460.009 126.988C458.308 126.068 457.552 124.178 458.308 122.738C459.088 121.297 461.072 120.896 462.773 121.817C464.497 122.738 465.253 124.651 464.474 126.068Z" fill="#F04637"/>
<path d="M477.751 131.216C477.207 130.932 477.042 130.271 477.326 129.751L485.216 115.063C485.499 114.52 486.137 114.308 486.68 114.591C487.224 114.875 487.389 115.536 487.106 116.055L478.932 131.286C478.625 131.806 478.27 131.499 477.751 131.216Z" fill="#F04637"/>
<path d="M478.813 131.286C478.034 132.727 476.049 133.128 474.348 132.207C472.648 131.286 471.892 129.397 472.648 127.957C473.427 126.516 475.411 126.115 477.112 127.036C478.837 127.957 479.593 129.846 478.813 131.286Z" fill="#F04637"/>
<path d="M469.152 114.591L485.358 119.266L487.389 115.488C487.554 115.205 487.531 114.851 487.413 114.544C487.295 114.237 487.082 114.048 486.775 113.93L472.034 109.207L469.152 114.591Z" fill="#F04637"/>
<path d="M151.298 86.3371C150.944 86.526 150.542 86.408 150.329 86.0538L144.92 76.5373C144.731 76.1831 144.825 75.758 145.179 75.5691C145.534 75.3802 145.935 75.4983 146.148 75.8525L151.77 85.7232C151.936 86.0538 151.652 86.1482 151.298 86.3371Z" fill="#2D2C45"/>
<path d="M151.888 85.6522C152.408 86.5732 151.959 87.8483 150.849 88.4623C149.739 89.0999 148.416 88.8401 147.896 87.9191C147.376 86.9982 147.825 85.7231 148.935 85.1091C150.046 84.4951 151.369 84.7313 151.888 85.6522Z" fill="#2D2C45"/>
<path d="M159.377 80.0793C159.023 80.2682 158.621 80.1501 158.408 79.7959L152.999 70.2795C152.81 69.9253 152.904 69.5002 153.259 69.3113C153.613 69.1224 154.015 69.2405 154.227 69.5947L159.849 79.4653C160.038 79.7959 159.731 79.8904 159.377 80.0793Z" fill="#2D2C45"/>
<path d="M159.802 79.5125C160.322 80.4334 159.873 81.7086 158.763 82.3225C157.652 82.9601 156.329 82.7004 155.81 81.7794C155.29 80.8585 155.739 79.5833 156.849 78.9693C157.959 78.3318 159.282 78.5915 159.802 79.5125Z" fill="#2D2C45"/>
<path d="M147.141 79.064L155.385 71.6728L153.991 69.217C153.897 69.028 153.684 68.91 153.472 68.8864C153.259 68.8391 153.07 68.8864 152.905 69.028L145.133 75.5691L147.141 79.064Z" fill="#2D2C45"/>
<path d="M429.563 336.786H390.2V352.985H429.563V336.786Z" fill="#F04637"/>
<path d="M484.813 336.786H452.86V352.985H484.813V336.786Z" fill="#FF7B7C"/>
<path d="M460.211 336.786H429.563V352.985H460.211V336.786Z" fill="#FF5C5D"/>
<path d="M485.466 353.691H389.548V336.197H485.466V353.691ZM390.853 352.395H484.221V337.434H390.853V352.395Z" fill="#F04637"/>
<path d="M440.234 320.587H400.871V336.786H440.234V320.587Z" fill="#F04637"/>
<path d="M495.543 320.587H463.591V336.786H495.543V320.587Z" fill="#FF7B7C"/>
<path d="M470.882 320.587H440.234V336.786H470.882V320.587Z" fill="#FF5C5D"/>
<path d="M496.136 337.433H400.219V319.938H496.136V337.433ZM401.523 336.196H494.891V321.234H401.523V336.196Z" fill="#F04637"/>
<path d="M421.738 304.329H382.375V320.528H421.738V304.329Z" fill="#F04637"/>
<path d="M476.988 304.329H445.035V320.528H476.988V304.329Z" fill="#FF7B7C"/>
<path d="M452.386 304.329H421.738V320.528H452.386V304.329Z" fill="#FF5C5D"/>
<path d="M477.64 321.235H381.723V303.74H477.64V321.235ZM382.968 319.939H476.336V304.977H382.968V319.939Z" fill="#F04637"/>
<path d="M428.497 288.13H389.134V304.329H428.497V288.13Z" fill="#F04637"/>
<path d="M483.806 288.13H451.854V304.329H483.806V288.13Z" fill="#FF7B7C"/>
<path d="M459.145 288.13H428.497V304.329H459.145V288.13Z" fill="#FF5C5D"/>
<path d="M484.399 304.977H388.481V287.482H484.399V304.977ZM389.786 303.74H483.154V288.778H389.786V303.74Z" fill="#F04637"/>
<path d="M436.914 271.872H397.551V288.071H436.914V271.872Z" fill="#F04637"/>
<path d="M492.224 271.872H460.271V288.071H492.224V271.872Z" fill="#FF7B7C"/>
<path d="M467.622 271.872H436.973V288.071H467.622V271.872Z" fill="#FF5C5D"/>
<path d="M492.876 288.778H396.958V271.283H492.876V288.778ZM398.203 287.482H491.571V272.52H398.203V287.482Z" fill="#F04637"/>
<path d="M431.494 267.604C431.494 267.604 430.64 268.779 426.692 269.74C425.839 269.953 424.878 270.06 424.878 271.555C426.692 271.555 428.72 271.555 428.72 271.555L432.668 270.914V271.555H434.802C434.802 271.555 435.442 268.031 434.162 267.604C433.095 267.604 431.494 267.604 431.494 267.604Z" fill="#1C2C57"/>
<path d="M431.281 265.042L431.494 267.604C432.241 268.138 433.308 268.138 434.162 267.711L434.269 267.604V265.042H431.281Z" fill="#FAB08A"/>
<path d="M451.341 268.031C451.341 268.031 450.488 269.206 446.539 270.167C445.686 270.38 444.725 270.487 444.725 271.982C446.539 271.982 448.567 271.982 448.567 271.982L452.515 271.341V271.982H454.649C454.649 271.982 455.289 268.458 454.009 268.031C453.048 268.031 451.341 268.031 451.341 268.031Z" fill="#1C2C57"/>
<path d="M451.234 265.575L451.448 268.138C452.195 268.672 453.262 268.672 454.115 268.245L454.222 268.138V265.575H451.234Z" fill="#FAB08A"/>
<path d="M429.68 203.216L430.64 266.43H435.229C435.229 266.43 442.271 215.389 440.777 203.216C439.283 191.043 429.68 203.216 429.68 203.216Z" fill="#1C2C57"/>
<path d="M434.588 203.216C434.588 203.216 436.189 222.65 439.924 233.434C443.552 244.219 450.274 266.536 450.274 266.536H455.076C455.076 266.536 447.073 219.873 448.887 203.322H434.588V203.216Z" fill="#083B5E"/>
<path d="M430.427 170.968C430.427 170.968 424.771 184.209 423.277 184.209C422.104 184.209 423.704 173.424 423.704 173.424H418.903C418.903 173.424 412.927 191.897 417.729 195.314C422.531 198.731 432.881 185.704 432.881 185.704L430.427 170.968Z" fill="url(#paint14_linear)"/>
<path d="M447.393 204.817L445.686 209.089C444.832 210.797 441.844 210.797 439.817 210.263C439.497 210.156 439.39 209.836 439.604 209.622C440.671 208.448 443.552 205.244 444.619 204.604L447.393 204.817Z" fill="#FAB08A"/>
<path d="M435.122 168.192C433.308 168.192 431.494 169.153 430.534 170.754C430.214 171.288 430 171.929 430 172.57C430 174.919 430 203.216 430 203.216H447.393V174.598C447.393 174.598 447.073 168.192 440.777 168.192C438.11 168.192 436.296 168.192 435.122 168.192Z" fill="url(#paint15_linear)"/>
<path d="M430.32 203.216V175.666L429.68 175.773V203.216H430.32Z" fill="#85CFC5"/>
<path d="M441.524 162.426L439.71 169.366C439.71 169.366 438.109 170.648 436.082 170.114C433.948 169.58 434.375 168.085 434.375 168.085L435.548 163.6H438.856L441.524 162.426Z" fill="#F79C82"/>
<path d="M434.802 164.775C434.161 164.561 433.628 164.348 433.308 163.92C432.241 160.503 436.509 153.029 436.509 153.029L442.911 156.019L441.737 161.464C441.417 162.959 440.457 164.134 439.07 164.668C437.683 165.202 436.189 165.202 434.802 164.775Z" fill="#FAB08A"/>
<path d="M439.817 155.378C439.817 155.378 437.469 155.164 435.228 154.203C432.988 153.136 435.228 151 435.228 151C435.228 151 436.722 152.281 440.03 152.602C442.164 152.815 442.911 152.602 443.978 153.67C445.579 155.164 444.192 158.261 444.192 158.261L441.311 164.988L440.884 164.881C440.884 164.881 441.844 160.717 442.271 159.329C442.058 158.581 441.631 158.475 441.204 158.581C440.777 158.688 440.457 159.009 440.35 159.436L438.43 166.697C438.43 166.697 433.308 167.444 432.241 166.803C431.174 166.163 433.415 160.931 433.415 160.931C433.415 160.931 434.908 160.717 435.655 162.105C436.402 163.493 438.003 162.639 438.003 162.639L439.817 155.378Z" fill="#1C2C57"/>
<path d="M419.97 173.424L420.183 172.463C420.504 170.434 422.531 167.978 424.452 167.231H426.479L425.839 171.502L422.958 173.317H419.97V173.424Z" fill="#FAB08A"/>
<path d="M441.844 158.474C441.311 158.261 440.67 158.688 440.457 159.329C440.137 159.969 440.35 160.61 440.884 160.824C441.417 161.037 442.058 160.61 442.271 159.969C442.591 159.329 442.378 158.688 441.844 158.474Z" fill="#FAB08A"/>
<path d="M424.878 171.181L420.93 173.424H423.384L427.546 169.9C427.546 169.9 427.226 169.259 426.265 169.793C425.412 170.327 424.878 171.181 424.878 171.181Z" fill="#FAB08A"/>
<path d="M445.472 170.114C445.472 170.114 455.289 181.005 455.289 187.519C455.289 194.033 447.286 205.565 447.286 205.565L443.338 204.39C443.338 204.39 446.859 190.082 446.859 186.344C446.859 182.5 439.603 176.948 439.603 176.948" fill="url(#paint16_linear)"/>
<path d="M446.646 186.451C446.646 189.761 443.765 201.614 443.125 204.39C443.338 204.39 443.445 204.497 443.658 204.497C444.512 201.08 447.18 189.548 447.18 186.344C447.18 182.5 440.03 176.948 439.817 176.734L439.497 177.161C439.604 177.375 446.646 182.821 446.646 186.451Z" fill="#85CFC5"/>
<path d="M427.439 164.668C427.439 164.668 427.759 168.939 424.665 172.036C424.452 172.249 424.238 172.356 423.918 172.356C423.278 172.356 422.958 172.143 422.638 171.929C422.211 171.715 421.997 171.502 421.891 171.288C421.784 171.075 421.891 170.861 421.997 170.754C422.638 170.007 424.558 167.551 424.132 165.095C425.732 164.027 427.439 164.668 427.439 164.668Z" fill="#006769"/>
<path d="M422.317 171.715C421.997 171.502 421.997 171.395 421.891 171.182C421.784 170.968 421.891 170.754 421.997 170.648C422.638 169.9 424.558 167.444 424.131 164.988C424.665 164.668 425.198 164.561 425.732 164.454C425.519 167.124 424.772 168.726 422.317 171.715Z" fill="#118C8C"/>
<path d="M424.001 168.673C423.777 168.597 423.75 168.083 423.939 167.525C424.129 166.966 424.463 166.575 424.687 166.651C424.91 166.727 424.937 167.241 424.748 167.799C424.558 168.358 424.224 168.749 424.001 168.673Z" fill="#006769"/>
<path d="M424.665 166.59H424.452V166.697L424.665 166.804V166.59Z" fill="#F89B4B"/>
<path d="M424.024 168.726L423.704 168.619H424.024V168.726Z" fill="#EF4366"/>
<path d="M423.811 168.565C423.588 168.489 423.56 167.975 423.75 167.416C423.939 166.858 424.274 166.467 424.497 166.542C424.72 166.618 424.747 167.132 424.558 167.691C424.369 168.249 424.034 168.64 423.811 168.565Z" fill="#58C4C5"/>
<path d="M428.933 161.251L429.36 161.358C430.214 161.465 430.854 162.212 430.747 163.066L430.64 164.241C430.534 165.095 429.68 165.629 428.826 165.522L428.4 165.415L428.933 161.251Z" fill="#006769"/>
<path d="M415.694 166.973C414.759 166.856 414.339 164.057 414.757 160.721C415.175 157.386 416.272 154.778 417.207 154.895C418.143 155.012 418.563 157.811 418.145 161.146C417.727 164.482 416.63 167.09 415.694 166.973Z" fill="#1C2C57"/>
<path d="M418.476 158.902L416.982 159.649L416.769 161.571L417.943 162.959L418.796 160.503L418.476 158.902Z" fill="white"/>
<path d="M418.049 161.144C418.369 158.368 418.156 155.912 417.516 155.164C422.637 159.969 429.146 161.358 429.146 161.358L428.613 165.629C428.613 165.629 419.756 164.027 416.022 166.803C416.875 166.163 417.729 163.92 418.049 161.144Z" fill="#F04637"/>
<path d="M416.749 161.551C416.632 161.536 416.591 161.097 416.657 160.571C416.723 160.044 416.872 159.629 416.988 159.644C417.105 159.658 417.147 160.097 417.081 160.624C417.015 161.15 416.866 161.565 416.749 161.551Z" fill="#FFD052"/>
<path d="M422.104 170.327C422.211 170.327 422.744 170.648 424.345 170.648C425.519 170.648 426.052 169.259 426.159 168.512C426.266 168.192 426.266 167.871 425.945 167.658L424.131 167.444L422.104 170.327Z" fill="#FAB08A"/>
<path d="M399.07 323.885L394.098 332.719L399.572 332.468L399.959 323.595L399.07 323.885Z" fill="#F7B58E"/>
<path d="M406.884 319.981L402.28 319.961L400.385 347.97H408.625L406.884 319.981Z" fill="white"/>
<path d="M415.318 402.152C415.318 402.152 416.459 403.003 416.247 404.066C416.034 405.129 415.744 407.642 415.744 407.642H414.583L414.622 405.303C414.622 405.148 412.107 407.642 411.701 407.642H405.511C405.511 407.642 405.105 406.057 408.722 405.554C412.359 405.052 415.318 402.152 415.318 402.152Z" fill="#053C5E"/>
<path d="M412.648 401.089L411.817 403.138C411.604 403.698 411.217 404.182 410.675 404.51C410.095 404.858 409.166 405.361 407.793 405.747C409.476 407.1 412.145 405.689 413.673 404.684C414.428 404.201 414.95 403.466 415.163 402.635L415.511 401.07H412.648V401.089Z" fill="#F7B58E"/>
<path d="M403.558 402.152C403.558 402.152 404.699 403.003 404.486 404.066C404.274 405.129 403.983 407.642 403.983 407.642H402.823L402.862 405.303C402.862 405.148 400.347 407.642 399.941 407.642H393.75C393.75 407.642 393.344 406.057 396.962 405.554C400.579 405.052 403.558 402.152 403.558 402.152Z" fill="#053C5E"/>
<path d="M400.869 401.089L400.037 403.138C399.824 403.698 399.438 404.182 398.896 404.51C398.316 404.858 397.387 405.361 396.014 405.747C397.697 407.1 400.366 405.689 401.894 404.684C402.649 404.201 403.171 403.466 403.384 402.635L403.732 401.07H400.869V401.089Z" fill="#F7B58E"/>
<path d="M410.406 347.97C410.406 347.97 411.179 352.145 406.73 372.713C410.328 383.421 404.564 401.36 404.564 401.36H400.385L397.522 347.97H410.406Z" fill="#212B53"/>
<path d="M402.803 319.98L401.314 353.943L396.381 351.952C396.381 351.952 398.605 345.573 398.393 336.72C399.147 330.322 395.298 333.685 400.017 321.353C401.758 319.961 402.803 319.98 402.803 319.98Z" fill="#CFEAEE"/>
<path d="M402.146 316.462L402.726 319.323C402.977 320.58 404.505 321.198 405.647 320.522L407.678 319.323L404.061 311.611L402.146 316.462Z" fill="#F39F85"/>
<path d="M414.449 347.97C414.449 347.97 419.942 352.145 415.512 372.713C419.11 383.421 415.938 401.36 415.938 401.36H412.166L401.565 347.97H414.449Z" fill="#12375A"/>
<path d="M406.885 317.1C406.885 317.1 411.528 319.555 412.978 321.759C414.352 323.846 414.835 328.602 414.971 332.854C415.145 338.673 418.143 353.963 418.143 353.963H405.705L405.396 320.696L406.885 317.1Z" fill="#CFEAEE"/>
<path d="M397.735 307.88C400.54 307.203 403.248 309.929 403.248 309.929L405.357 320.676L408.606 315.94C408.606 315.94 408.8 309.523 405.647 305.27C403.384 302.7 399.07 303.434 396.884 305.947C395.82 307.165 395.607 308.846 395.704 310.393C395.839 312.48 396.458 324.407 396.458 324.407L402.9 319.903C402.9 319.903 402.745 318.685 402.126 316.482C401.082 312.674 395.839 308.325 397.735 307.88Z" fill="#053C5E"/>
<path d="M404.099 309.755C403.693 309.6 403.151 309.852 402.9 310.354C402.649 310.838 402.784 311.359 403.21 311.514C403.635 311.669 404.157 311.417 404.409 310.915C404.641 310.432 404.505 309.91 404.099 309.755Z" fill="#F7B58E"/>
<path d="M401.063 316.965C400.541 317.139 400.018 317.255 399.689 317.139C397.233 315.477 396.362 308.788 396.362 308.788L398.297 306.855L402.166 307.648L404.061 311.63C404.564 312.693 404.506 313.911 403.906 314.935C403.191 315.844 402.204 316.578 401.063 316.965Z" fill="#F7B58E"/>
<path d="M397.077 307.745C397.271 309.755 403.248 309.929 403.248 309.929L403.557 307.203L400.075 305.406L397.329 306.971C397.329 306.952 397.058 307.397 397.077 307.745Z" fill="#053C5E"/>
<path d="M397.213 308.131C397.406 308.885 396.594 310.2 396.594 310.2L396.11 309.388L396.13 308.692L396.594 308.151C396.613 308.131 397.019 307.377 397.213 308.131Z" fill="#053C5E"/>
<path d="M411.701 321.74C417.717 322.397 414.874 337.03 413.578 343.041C413.268 344.51 411.663 345.419 410.135 344.974C404.892 343.408 397.251 336.952 397.251 336.952L398.47 335.522L408.645 337.764C408.626 337.745 404.718 320.986 411.701 321.74Z" fill="#F7B58E"/>
<path d="M399.65 332.081L401.623 343.544C401.681 343.872 401.41 344.182 401.043 344.182H393.267C392.977 344.182 392.744 343.988 392.686 343.718L390.752 332.255C390.694 331.926 390.965 331.617 391.332 331.617H399.089C399.379 331.617 399.611 331.81 399.65 332.081Z" fill="#01888B"/>
<path d="M391.023 337.165C390.984 336.759 391.023 336.508 391.158 335.676C391.351 334.594 391.293 332.893 392.473 333.743C393.576 335.058 393.711 336.45 393.711 336.45C393.944 337.223 393.441 338.286 392.976 338.866L392.164 340.528C392.164 340.528 390.771 338.982 391.023 337.165Z" fill="#F7B58E"/>
<path d="M395.511 336.643C395.842 336.643 396.11 336.392 396.11 336.082C396.11 335.773 395.842 335.522 395.511 335.522C395.18 335.522 394.911 335.773 394.911 336.082C394.911 336.392 395.18 336.643 395.511 336.643Z" fill="url(#paint17_linear)"/>
<defs>
<linearGradient id="paint0_linear" x1="220.068" y1="212.79" x2="220.068" y2="130.766" gradientUnits="userSpaceOnUse">
<stop stop-color="white"/>
<stop offset="1" stop-color="white"/>
</linearGradient>
<linearGradient id="paint1_linear" x1="505.324" y1="72.2296" x2="535.113" y2="72.2296" gradientUnits="userSpaceOnUse">
<stop offset="6.3e-07" stop-color="#F1F8F7"/>
<stop offset="1" stop-color="#BFE3EE"/>
</linearGradient>
<linearGradient id="paint2_linear" x1="505.324" y1="81.2333" x2="529.347" y2="81.2333" gradientUnits="userSpaceOnUse">
<stop offset="6.3e-07" stop-color="#F1F8F7"/>
<stop offset="1" stop-color="#BFE3EE"/>
</linearGradient>
<linearGradient id="paint3_linear" x1="147.323" y1="32.7427" x2="184.155" y2="32.7427" gradientUnits="userSpaceOnUse">
<stop offset="6.3e-07" stop-color="#F1F8F7"/>
<stop offset="1" stop-color="#BFE3EE"/>
</linearGradient>
<linearGradient id="paint4_linear" x1="139.801" y1="33.7485" x2="183.919" y2="33.7485" gradientUnits="userSpaceOnUse">
<stop offset="6.3e-07" stop-color="#F1F8F7"/>
<stop offset="1" stop-color="#BFE3EE"/>
</linearGradient>
<linearGradient id="paint5_linear" x1="82.9862" y1="284.534" x2="84.257" y2="297.754" gradientUnits="userSpaceOnUse">
<stop stop-color="#FF928E"/>
<stop offset="1" stop-color="#FEB3B1"/>
</linearGradient>
<linearGradient id="paint6_linear" x1="90.7519" y1="327.974" x2="71.4037" y2="274.75" gradientUnits="userSpaceOnUse">
<stop stop-color="#FF928E"/>
<stop offset="1" stop-color="#FEB3B1"/>
</linearGradient>
<linearGradient id="paint7_linear" x1="56.1994" y1="385.447" x2="101.547" y2="364.621" gradientUnits="userSpaceOnUse">
<stop stop-color="#FF928E"/>
<stop offset="1" stop-color="#FEB3B1"/>
</linearGradient>
<linearGradient id="paint8_linear" x1="77.8105" y1="556.733" x2="138.768" y2="-155.984" gradientUnits="userSpaceOnUse">
<stop stop-color="#FF928E"/>
<stop offset="1" stop-color="#FEB3B1"/>
</linearGradient>
<linearGradient id="paint9_linear" x1="88.5478" y1="311.364" x2="94.1045" y2="311.364" gradientUnits="userSpaceOnUse">
<stop stop-color="#FF928E"/>
<stop offset="1" stop-color="#FEB3B1"/>
</linearGradient>
<linearGradient id="paint10_linear" x1="98.5586" y1="317.382" x2="69.1487" y2="355.127" gradientUnits="userSpaceOnUse">
<stop stop-color="#FE7062"/>
<stop offset="1" stop-color="#FF928E"/>
</linearGradient>
<linearGradient id="paint11_linear" x1="97.8019" y1="311.362" x2="87.0098" y2="295.575" gradientUnits="userSpaceOnUse">
<stop stop-color="#FF928E"/>
<stop offset="1" stop-color="#FEB3B1"/>
</linearGradient>
<linearGradient id="paint12_linear" x1="110.159" y1="286.79" x2="105.645" y2="299.281" gradientUnits="userSpaceOnUse">
<stop stop-color="#FF928E"/>
<stop offset="1" stop-color="#FEB3B1"/>
</linearGradient>
<linearGradient id="paint13_linear" x1="91.8419" y1="326.94" x2="123.804" y2="280.185" gradientUnits="userSpaceOnUse">
<stop stop-color="#FF928E"/>
<stop offset="1" stop-color="#FEB3B1"/>
</linearGradient>
<linearGradient id="paint14_linear" x1="432.972" y1="183.455" x2="415.95" y2="183.455" gradientUnits="userSpaceOnUse">
<stop stop-color="#D6EDE5"/>
<stop offset="1" stop-color="#B1E1EA"/>
</linearGradient>
<linearGradient id="paint15_linear" x1="447.368" y1="185.698" x2="430.01" y2="185.698" gradientUnits="userSpaceOnUse">
<stop stop-color="#D6EDE5"/>
<stop offset="1" stop-color="#B1E1EA"/>
</linearGradient>
<linearGradient id="paint16_linear" x1="455.334" y1="187.887" x2="439.69" y2="187.887" gradientUnits="userSpaceOnUse">
<stop stop-color="#D6EDE5"/>
<stop offset="1" stop-color="#B1E1EA"/>
</linearGradient>
<linearGradient id="paint17_linear" x1="396.111" y1="336.077" x2="394.923" y2="336.077" gradientUnits="userSpaceOnUse">
<stop stop-color="#DFEFEA"/>
<stop offset="1" stop-color="#BFE3EE"/>
</linearGradient>
</defs>
</svg>
