<svg width="586" height="466" viewBox="0 0 586 466" fill="none" xmlns="http://www.w3.org/2000/svg">
<path d="M508.682 57.9818C512.844 75.9209 470.588 78.1633 453.196 78.3769C448.394 78.4837 443.592 77.9497 438.79 76.9887C424.065 73.9989 391.84 66.2039 396.322 55.5259C402.191 41.7512 419.69 51.3614 419.69 51.3614C419.69 51.3614 417.45 41.0037 447.327 34.063C477.097 27.229 476.991 50.0801 476.991 50.0801C476.991 50.0801 503.453 35.4511 508.682 57.9818Z" fill="url(#paint0_linear)"/>
<path d="M401.808 283.502C401.808 283.502 364.995 208.969 405.436 163.588C503.391 200.427 467.004 296.743 467.004 296.743L401.808 283.502Z" fill="#6680A1"/>
<path d="M405.436 163.588C405.756 163.694 406.076 163.801 406.396 164.015L426.457 259.797L463.27 211.105C463.59 211.746 463.91 212.28 464.23 212.92L426.99 262.146L432.752 289.802L430.831 289.375L419.307 234.276L386.549 221.036C386.549 220.395 386.549 219.754 386.549 219.007L418.987 232.034L404.689 164.442C404.902 164.122 405.222 163.801 405.436 163.588Z" fill="#006769"/>
<path d="M417.6 261.933C417.6 261.933 459.322 186.226 517.582 184.304C553.755 244.314 492.934 294.928 492.934 294.928L423.789 316.284L417.6 261.933Z" fill="#F04637"/>
<path d="M459.002 211.746L472.34 245.915L516.089 184.303C516.515 184.303 517.049 184.196 517.476 184.196C517.582 184.41 517.796 184.623 517.903 184.944L494.428 217.939L528.36 214.415C528.36 214.735 528.466 215.056 528.466 215.376L528.573 216.23L493.04 219.968L453.986 274.96L513.741 270.688C513.314 271.329 512.887 271.97 512.461 272.61L452.599 276.882L424.856 315.857L423.682 316.177V314.362L471.166 247.624L457.614 213.027C458.041 212.707 458.575 212.173 459.002 211.746Z" fill="white"/>
<path d="M435.188 299.626C435.188 299.626 497.931 259.69 540.826 294.18C526.101 387.827 405.951 375.76 405.951 375.76L435.188 299.626Z" fill="#004060"/>
<path d="M540.826 294.18C540.719 294.5 540.719 294.928 540.612 295.248L454.929 332.835L500.065 356.54C499.424 356.86 498.891 357.287 498.251 357.608L452.901 333.689L419.396 348.318L420.676 345.755L485.873 317.138L500.171 281.153C500.812 281.153 501.452 281.153 502.092 281.153L488.22 316.177L540.186 293.433C540.292 293.753 540.612 293.966 540.826 294.18Z" fill="#475B73"/>
<path d="M182.146 281.572C182.146 281.572 224.081 196.789 177.984 145C66.3712 186.858 107.879 296.628 107.879 296.628L182.146 281.572Z" fill="#F04637"/>
<path d="M177.984 145C177.557 145.107 177.237 145.32 176.81 145.427L153.976 254.557L112.041 199.138C111.721 199.778 111.294 200.526 110.974 201.167L153.335 257.226L146.72 288.727L148.96 288.299L162.085 225.512L199.432 210.456C199.432 209.709 199.432 208.961 199.432 208.214L162.512 223.057L178.624 145.961C178.624 145.641 178.304 145.32 177.984 145Z" fill="white"/>
<path d="M144.219 309.863C144.219 309.863 96.6292 223.691 30.3656 221.556C-10.8224 289.895 58.4289 347.45 58.4289 347.45L137.177 371.796L144.219 309.863Z" fill="#004060"/>
<path d="M96.9493 252.735L81.6905 291.71L31.8594 221.555C31.3259 221.555 30.7924 221.448 30.2589 221.448C30.0455 221.769 29.9388 221.982 29.8321 222.302L56.5082 259.889L17.8811 255.832C17.8811 256.152 17.7744 256.579 17.7744 256.899L17.6677 257.86L58.1088 262.025L102.605 324.598L34.5271 319.686C35.0606 320.434 35.4874 321.181 36.0209 321.822L104.205 326.734L135.79 371.154L137.07 371.582V369.553L83.0777 293.632L98.4431 254.123C98.123 253.803 97.5895 253.269 96.9493 252.735Z" fill="#475B73"/>
<path d="M135.363 353.963C135.363 353.963 63.9774 308.474 15 347.769C31.7526 454.443 168.548 440.668 168.548 440.668L135.363 353.963Z" fill="#6680A1"/>
<path d="M15 347.769C15.1067 348.197 15.1067 348.624 15.2134 348.944L112.848 391.763L61.5232 418.778C62.1635 419.205 62.9104 419.633 63.6573 420.06L115.302 392.831L153.396 409.488L152.009 406.605L77.7423 374.037L61.4165 333.034C60.6696 333.034 59.9227 333.034 59.1757 333.034L74.968 372.863L15.8536 347.022C15.6402 347.235 15.3201 347.449 15 347.769Z" fill="#475B73"/>
<path d="M43.707 150.026H249.647C249.647 150.026 260.851 135.931 249.647 126.428C243.458 121.196 236.202 121.73 230.974 123.225C227.559 124.186 224.145 121.943 223.291 118.419C222.01 112.653 218.169 104.965 207.072 100.48C196.188 96.1023 189.252 102.83 185.304 109.77C184.024 112.013 180.502 111.692 179.755 109.236C176.341 98.238 164.283 83.7158 124.696 83.7158C74.3313 83.7158 79.9866 110.518 84.4682 121.623C85.2151 123.545 83.6146 125.574 81.5872 125.147C73.7977 123.438 59.3926 121.303 52.9903 126.428C43.707 133.475 43.707 150.026 43.707 150.026Z" fill="url(#paint1_linear)"/>
<path d="M225.105 2.34923V367.432H377.906C377.906 367.432 361.58 137.426 293.396 52.3225C247.833 -4.37794 225.105 2.34923 225.105 2.34923Z" fill="#475B73"/>
<path d="M274.723 56.8071C274.083 55.7393 273.656 54.7783 273.336 53.7104H224.999V58.9427H276.003C275.683 58.1952 275.15 57.5545 274.723 56.8071Z" fill="#25374B"/>
<path d="M282.939 68.7666H225.105V73.9988H286.781C285.5 72.2904 284.22 70.5819 282.939 68.7666Z" fill="#25374B"/>
<path d="M293.823 83.8225H225.105V89.0548H297.131C296.064 87.2395 294.997 85.531 293.823 83.8225Z" fill="#25374B"/>
<path d="M302.039 98.8787H225.105V104.111H303.747C303.32 102.296 302.68 100.48 302.039 98.8787Z" fill="#25374B"/>
<path d="M337.572 186.225C336.185 185.157 335.117 184.196 334.477 183.128H225.105V188.361H340.666C339.599 187.613 338.532 186.973 337.572 186.225Z" fill="#FF5C5D"/>
<path d="M356.138 198.185H225.105V203.417H364.888C362.007 201.708 359.019 199.893 356.138 198.185Z" fill="#FF5C5D"/>
<path d="M380.787 213.24H225.105V218.473H388.15C385.802 216.657 383.348 214.949 380.787 213.24Z" fill="#FF5C5D"/>
<path d="M399.354 228.297H225.105V233.529H403.408C402.235 231.714 400.848 229.898 399.354 228.297Z" fill="#FF5C5D"/>
<path d="M295.637 52.3225C250.181 -4.37792 225.105 0.106859 225.105 0.106859V10.7849C233.215 17.9392 254.022 39.2953 264.479 52.3225C332.663 137.426 337.465 367.432 337.465 367.432H381.321C381.321 367.432 363.928 137.426 295.637 52.3225Z" fill="#25374B"/>
<path d="M116.128 43.9935L88.0646 42.7122L75.6869 46.1291L67.8975 51.5749L116.128 43.9935Z" fill="url(#paint2_linear)"/>
<path d="M116.128 43.9934L69.6047 53.8172L67.8975 51.5748" fill="#A2D7C5"/>
<path d="M71.9523 61.5054H72.059L76.9674 67.058L116.021 43.9934L71.9523 61.5054Z" fill="#58C4C5"/>
<path d="M62.2422 61.6122L65.7634 53.924L115.808 43.9934L77.2875 61.719L62.2422 61.6122Z" fill="url(#paint3_linear)"/>
<path d="M10.0637 189.322C11.1307 188.147 12.1978 186.973 13.1581 185.584C13.3715 185.264 13.7983 185.264 14.1184 185.478C14.4386 185.691 14.4386 186.118 14.2251 186.439C13.2648 187.827 12.1978 189.108 11.024 190.283C10.5972 190.71 10.1704 191.137 9.74355 191.564C9.63685 191.671 9.31673 191.778 9.21003 191.778C9.10332 191.778 8.88992 191.671 8.88992 191.564C8.67651 191.244 8.67651 190.924 8.88992 190.603C9.31673 190.176 9.74355 189.749 10.0637 189.322Z" fill="#58C4C5"/>
<path d="M48.0505 63.2141C50.0779 62.5734 52.1053 61.8259 54.4528 61.1852C54.7729 61.0785 55.1997 61.292 55.3064 61.6124C55.4131 61.9327 55.1997 62.3598 54.8796 62.4666C52.5321 63.1073 50.5047 63.748 48.584 64.4954C48.4773 64.4954 48.3706 64.4954 48.2639 64.4954C48.0505 64.4954 47.8371 64.2819 47.7304 64.0683C47.517 63.6412 47.6237 63.3209 48.0505 63.2141Z" fill="#58C4C5"/>
<path d="M38.2337 68.5531C38.0203 68.5531 37.8069 68.3396 37.8069 68.2328C37.5934 67.9124 37.8069 67.4853 38.127 67.3785C40.0476 66.4175 42.075 65.4565 44.3158 64.6022C44.636 64.4955 45.0628 64.6022 45.1695 65.0294C45.2762 65.3497 45.1695 65.7768 44.7427 65.8836C42.6086 66.7378 40.5812 67.5921 38.6605 68.5531C38.5538 68.5531 38.3404 68.6599 38.2337 68.5531Z" fill="#58C4C5"/>
<path d="M18.0665 176.401C18.1732 176.081 18.6 175.868 18.9201 175.974C19.2402 176.081 19.4536 176.508 19.3469 176.829C18.6 178.964 17.6397 181.1 16.5726 183.022C16.4659 183.235 16.1458 183.449 15.8257 183.342C15.719 183.342 15.719 183.342 15.6123 183.235C15.2922 183.022 15.1855 182.595 15.3989 182.274C16.4659 180.459 17.3196 178.43 18.0665 176.401Z" fill="#58C4C5"/>
<path d="M19.6671 173.412C19.347 173.305 19.1335 172.984 19.1335 172.557C19.2402 172.023 19.347 171.383 19.4537 170.849C19.7738 169.247 19.8805 167.645 19.9872 166.15C19.9872 165.83 20.3073 165.51 20.6274 165.51C20.9475 165.51 21.2676 165.83 21.2676 166.15C21.1609 167.752 21.0542 169.461 20.7341 171.062C20.6274 171.703 20.5207 172.237 20.414 172.878C20.414 173.305 20.0939 173.518 19.6671 173.412Z" fill="#58C4C5"/>
<path d="M20.7341 162.84C20.6274 162.84 20.6274 162.84 20.5207 162.84C20.2006 162.84 19.9872 162.52 19.9872 162.2C19.8805 160.171 19.5603 158.035 19.0268 155.686C18.9201 155.366 19.1335 154.939 19.5603 154.939C19.8805 154.832 20.3073 155.045 20.3073 155.472C20.8408 157.822 21.1609 160.064 21.2676 162.2C21.3743 162.52 21.0542 162.84 20.7341 162.84Z" fill="#58C4C5"/>
<path d="M11.2374 103.791C11.024 104.645 10.9173 105.499 10.7039 106.353C10.4905 107.635 10.2771 109.023 10.1703 110.304C10.1703 110.625 9.85023 110.945 9.42342 110.945C9.1033 110.838 8.88989 110.518 8.88989 110.198C8.9966 108.809 9.21001 107.528 9.42342 106.14C9.53012 105.286 9.74353 104.325 9.95694 103.47C10.0636 103.15 10.3838 102.83 10.8106 102.936C11.024 103.15 11.2374 103.47 11.2374 103.791Z" fill="#58C4C5"/>
<path d="M9.85017 114.255C9.85017 116.497 9.95688 118.633 10.1703 120.875C10.1703 121.196 9.95688 121.623 9.53006 121.623C9.42335 121.623 9.42336 121.623 9.31665 121.623C8.99654 121.623 8.78313 121.303 8.78313 121.089C8.56972 118.847 8.46301 116.604 8.46301 114.362C8.46301 114.041 8.78313 113.721 9.10324 113.721C9.63676 113.614 9.85017 113.935 9.85017 114.255Z" fill="#58C4C5"/>
<path d="M14.5452 93.8601C13.6916 95.889 12.838 97.9178 12.1977 100.053C12.091 100.374 11.7709 100.587 11.4508 100.481H11.3441C11.024 100.374 10.8106 99.9466 10.9173 99.6263C11.5575 97.4907 12.4111 95.3551 13.2648 93.3262C13.3715 93.0059 13.7983 92.7923 14.1184 93.0059C14.5452 93.1127 14.7586 93.5398 14.5452 93.8601Z" fill="#58C4C5"/>
<path d="M22.2279 81.5804C22.1212 81.7939 21.801 81.9007 21.5876 81.7939C21.4809 81.7939 21.3742 81.6871 21.2675 81.6871C20.9474 81.4736 20.9474 81.0465 21.1608 80.7261C22.6547 79.0176 24.1485 77.3091 25.8558 75.8142C26.1759 75.6007 26.6028 75.6007 26.8162 75.8142C27.0296 76.1346 27.0296 76.4549 26.8162 76.7752C25.2156 78.2702 23.615 79.8719 22.2279 81.5804Z" fill="#58C4C5"/>
<path d="M15.5055 142.125C15.3988 142.125 15.2921 142.125 15.1854 142.125C14.972 142.125 14.7586 141.911 14.6519 141.698L14.3317 140.95C13.6915 139.135 13.0513 137.32 12.4111 135.398C12.3044 135.077 12.5178 134.65 12.8379 134.543C13.158 134.437 13.5848 134.65 13.6915 134.971C14.3317 136.786 14.972 138.601 15.6122 140.416L15.9323 141.164C16.039 141.591 15.9323 142.018 15.5055 142.125Z" fill="#58C4C5"/>
<path d="M16.3592 90.2296C16.2525 90.4431 15.9323 90.6567 15.6122 90.5499C15.5055 90.5499 15.5055 90.5499 15.3988 90.4431C15.0787 90.2296 14.972 89.9092 15.0787 89.5889C16.1458 87.5601 17.3195 85.638 18.6 83.8228C18.8134 83.5024 19.2402 83.5024 19.5603 83.716C19.8804 83.9295 19.8804 84.3567 19.667 84.677C18.6 86.4923 17.4262 88.3075 16.3592 90.2296Z" fill="#58C4C5"/>
<path d="M16.4659 144.687C16.786 144.581 17.2128 144.794 17.3196 145.115C18.1732 147.571 18.8134 149.599 19.3469 151.521C19.4536 151.842 19.2402 152.269 18.9201 152.376C18.8134 152.376 18.7067 152.376 18.6 152.376C18.3866 152.376 18.1732 152.162 18.0665 151.949C17.533 150.133 16.8927 148.104 16.0391 145.648C15.9324 145.115 16.0391 144.794 16.4659 144.687Z" fill="#58C4C5"/>
<path d="M5.90212 193.166C6.22223 192.952 6.64905 192.952 6.86246 193.273C7.07587 193.593 7.07587 194.02 6.75576 194.234C5.04848 195.515 3.2345 196.796 1.10041 197.971C0.993703 198.078 0.780294 198.078 0.673589 198.078C0.46018 198.078 0.353475 197.971 0.246771 197.758C0.0333614 197.437 0.140065 197.01 0.460179 196.796C2.38086 195.622 4.19484 194.341 5.90212 193.166Z" fill="#58C4C5"/>
<path d="M10.0636 124.292C10.3837 124.186 10.8105 124.506 10.8105 124.826C11.2373 126.855 11.7708 128.884 12.4111 131.233C12.5178 131.553 12.3044 131.981 11.9842 132.087C11.8775 132.087 11.7708 132.087 11.6641 132.087C11.4507 132.087 11.2373 131.874 11.1306 131.66C10.3837 129.311 9.85016 127.175 9.42334 125.147C9.42334 124.72 9.63675 124.292 10.0636 124.292Z" fill="#58C4C5"/>
<path d="M32.4715 70.5819C33.1117 70.1548 33.752 69.7277 34.4989 69.3006C34.819 69.087 35.2458 69.1938 35.4592 69.5141C35.6727 69.8345 35.566 70.2616 35.2458 70.4751C34.6056 70.9023 33.9654 71.2226 33.3252 71.6497C32.1514 72.3972 30.9776 73.2514 29.8039 74.2125C29.6972 74.3192 29.4838 74.426 29.2704 74.3192C29.1637 74.3192 28.9503 74.2125 28.8436 74.1057C28.6301 73.7853 28.6301 73.3582 28.9503 73.1447C30.124 72.1836 31.2978 71.3294 32.4715 70.5819Z" fill="#58C4C5"/>
<path d="M554.817 113.928L560.468 121.487L551.271 120.946L519.216 116.642L554.817 113.928Z" fill="#58C4C5"/>
<path d="M560.468 121.487L545.22 123.105L548.653 120.647L560.468 121.487Z" fill="#58C4C5"/>
<path d="M554.817 113.928L556.062 105.312L519.216 116.642L554.817 113.928Z" fill="url(#paint4_linear)"/>
<path d="M519.216 116.642L551.271 120.946L548.737 133.44L519.216 116.642Z" fill="url(#paint5_linear)"/>
<path d="M558.659 130.474C558.762 130.447 558.838 130.316 558.838 130.316C559.065 129.925 558.955 129.512 558.564 129.284C557.519 128.678 556.372 128.099 555.149 127.65C554.785 127.526 554.399 127.739 554.275 128.103C554.151 128.467 554.364 128.853 554.728 128.977C555.821 129.35 556.838 129.853 557.882 130.46C558.04 130.639 558.377 130.66 558.659 130.474Z" fill="#58C4C5"/>
<path d="M560.917 210.083C560.629 209.829 560.726 209.361 560.98 209.072C562.693 207.623 564.193 205.789 565.405 203.699C565.632 203.308 566.045 203.198 566.436 203.426C566.828 203.653 566.937 204.066 566.71 204.458C565.45 206.781 563.744 208.67 561.955 210.25C561.673 210.435 561.233 210.441 560.917 210.083ZM567.717 200.765C567.353 200.641 567.14 200.256 567.264 199.891C568.112 197.678 568.595 195.34 568.741 192.981C568.735 192.541 569.12 192.328 569.56 192.321C570 192.315 570.213 192.701 570.219 193.141C569.997 195.63 569.541 198.071 568.618 200.416C568.542 200.546 568.466 200.677 568.363 200.704C568.157 200.759 567.951 200.814 567.717 200.765ZM569.411 189.267C568.972 189.274 568.683 189.019 568.573 188.606L568.491 188.296C568.253 186.15 567.753 183.852 566.944 181.637C566.834 181.224 567.061 180.832 567.371 180.75C567.783 180.64 568.175 180.868 568.257 181.177C568.99 183.524 569.593 185.794 569.859 188.044L569.942 188.353C569.996 188.56 569.845 188.821 569.666 188.979C569.721 189.185 569.542 189.343 569.411 189.267ZM566.452 178.121C566.067 178.334 565.675 178.107 565.463 177.721C564.475 175.663 563.356 173.53 562.031 171.451C561.819 171.066 561.943 170.701 562.225 170.516C562.61 170.303 562.974 170.427 563.159 170.71C564.511 172.892 565.76 175.101 566.748 177.159C566.934 177.441 566.81 177.805 566.528 177.991C566.528 177.991 566.528 177.991 566.452 178.121ZM560.66 167.948C560.378 168.134 559.938 168.14 559.622 167.782C559.464 167.603 559.409 167.397 559.279 167.321C558.612 167.719 557.841 168.144 557.147 168.439C556.762 168.652 556.37 168.424 556.185 168.142C555.972 167.757 556.199 167.365 556.481 167.18C557.176 166.885 557.74 166.514 558.407 166.116C557.404 164.835 556.374 163.452 555.138 162.123C554.85 161.868 554.947 161.4 555.201 161.112C555.456 160.823 555.923 160.92 556.212 161.175C557.475 162.607 558.505 163.991 559.535 165.375C560.456 164.688 561.378 164.001 562.169 163.239C562.424 162.95 562.864 162.944 563.18 163.302C563.468 163.557 563.475 163.997 563.117 164.313C562.223 165.103 561.328 165.893 560.303 166.607C560.461 166.786 560.489 166.889 560.647 167.068C561.038 167.295 560.942 167.763 560.66 167.948ZM565.216 160.994C564.928 160.739 564.818 160.326 565.045 159.934C565.83 158.731 566.587 157.426 567.008 156.099C567.332 155.239 567.552 154.407 567.773 153.575C567.897 153.211 568.255 152.895 568.619 153.019C568.983 153.144 569.299 153.502 569.175 153.866C568.982 154.801 568.685 155.764 568.362 156.623C567.865 158.081 567.108 159.386 566.145 160.747C566.069 160.878 566.069 160.878 565.966 160.905C565.814 161.166 565.505 161.248 565.216 160.994ZM552.822 170.029C550.347 170.687 547.865 170.904 545.377 170.68C544.937 170.687 544.724 170.301 544.718 169.861C544.711 169.421 545.096 169.208 545.536 169.202C547.791 169.377 550.169 169.187 552.541 168.557C552.954 168.448 553.345 168.675 553.455 169.088C553.537 169.398 553.386 169.659 553.207 169.817C553.028 169.975 552.925 170.002 552.822 170.029ZM568.965 150.165C568.525 150.172 568.21 149.814 568.231 149.477C568.274 147.145 567.877 144.82 567.041 142.501C566.931 142.088 567.158 141.696 567.468 141.614C567.88 141.505 568.272 141.732 568.354 142.042C569.115 144.491 569.539 146.92 569.55 149.458C569.502 149.691 569.454 149.925 569.275 150.083C569.275 150.083 569.199 150.214 568.965 150.165ZM540.965 169.863C540.367 169.691 539.741 169.415 539.116 169.139C537.371 168.387 535.75 167.271 534.411 165.969C534.122 165.714 534.116 165.274 534.37 164.985C534.625 164.697 535.065 164.691 535.353 164.945C536.562 166.171 538.025 167.108 539.64 167.785C540.135 167.985 540.76 168.261 541.358 168.433C541.722 168.557 541.935 168.943 541.811 169.307C541.735 169.438 541.659 169.568 541.583 169.699C541.405 169.857 541.198 169.912 540.965 169.863ZM552.296 158.9C550.4 156.752 548.697 155.326 546.973 154.237C546.581 154.01 546.574 153.569 546.699 153.205C546.926 152.813 547.366 152.807 547.73 152.931C549.585 154.096 551.316 155.625 553.341 157.849C553.63 158.104 553.533 158.572 553.279 158.86C553.279 158.86 553.279 158.86 553.175 158.888C553.024 159.149 552.584 159.155 552.296 158.9ZM566.418 138.91C566.033 139.122 565.669 138.998 565.456 138.613C564.976 137.635 564.317 136.816 563.734 135.866C563.02 134.841 562.099 133.87 561.207 133.002C560.918 132.747 560.912 132.307 561.166 132.018C561.421 131.73 561.861 131.723 562.149 131.978C563.173 132.922 563.99 133.92 564.834 135.022C565.521 135.944 566.104 136.894 566.715 137.947C566.9 138.229 566.804 138.697 566.418 138.91C566.522 138.882 566.418 138.91 566.418 138.91ZM532.757 162.652C532.372 162.865 531.98 162.637 531.767 162.252C530.91 160.27 530.726 158.33 531.346 156.508C531.595 155.779 531.897 155.257 532.276 154.604C532.531 154.315 532.943 154.206 533.335 154.433C533.623 154.688 533.733 155.101 533.506 155.493C533.175 155.912 532.872 156.434 532.803 157.005C532.334 158.566 532.409 160.093 533.184 161.765C533.266 162.075 533.245 162.412 532.963 162.597C532.86 162.624 532.757 162.652 532.757 162.652ZM543.194 152.479C541.063 151.939 538.554 152.053 536.601 153.014C536.216 153.226 535.824 152.999 535.612 152.613C535.399 152.228 535.626 151.836 536.011 151.624C538.377 150.554 541.092 150.385 543.587 151.048C543.951 151.173 544.164 151.558 544.04 151.922C543.964 152.053 543.888 152.184 543.812 152.314C543.633 152.472 543.427 152.527 543.194 152.479Z" fill="#58C4C5"/>
<path d="M558.186 212.687C558.468 212.501 558.592 212.137 558.38 211.752C558.167 211.366 557.803 211.242 557.418 211.455C556.338 211.962 555.334 212.339 554.2 212.641C553.787 212.75 553.56 213.142 553.669 213.555C553.779 213.968 554.171 214.195 554.583 214.085C555.821 213.757 557.031 213.325 558.111 212.817C558.186 212.687 558.186 212.687 558.186 212.687Z" fill="#58C4C5"/>
<path d="M248.367 134.223H120.961V450.293H248.367V134.223Z" fill="#6680A1"/>
<path d="M233.428 305.392H219.983V322.05H233.428V305.392Z" fill="#475B73"/>
<path d="M194.695 270.261H181.25V286.492H194.695V270.261Z" fill="#475B73"/>
<path d="M194.695 305.392H181.25V322.05H194.695V305.392Z" fill="#475B73"/>
<path d="M155.854 270.261H142.409V286.492H155.854V270.261Z" fill="#475B73"/>
<path d="M155.854 305.392H142.409V322.05H155.854V305.392Z" fill="#475B73"/>
<path d="M233.428 342.125H219.983V358.355H233.428V342.125Z" fill="#475B73"/>
<path d="M194.695 342.125H181.25V358.355H194.695V342.125Z" fill="#475B73"/>
<path d="M194.695 378.003H181.25V394.233H194.695V378.003Z" fill="#475B73"/>
<path d="M335.864 271.115H214.648V450.293H335.864V271.115Z" fill="#ACC1D6"/>
<path d="M249.647 285.21H223.932V292.258H249.647V285.21Z" fill="url(#paint6_linear)"/>
<path d="M306.094 285.21H279.738V292.258H306.094V285.21Z" fill="url(#paint7_linear)"/>
<path d="M249.647 305.392H223.932V312.439H249.647V305.392Z" fill="url(#paint8_linear)"/>
<path d="M306.094 305.392H279.738V312.439H306.094V305.392Z" fill="url(#paint9_linear)"/>
<path d="M249.647 325.573H223.932V332.621H249.647V325.573Z" fill="url(#paint10_linear)"/>
<path d="M306.094 325.573H279.738V332.621H306.094V325.573Z" fill="url(#paint11_linear)"/>
<path d="M249.647 345.862H223.932V352.909H249.647V345.862Z" fill="url(#paint12_linear)"/>
<path d="M306.094 345.862H279.738V352.909H306.094V345.862Z" fill="url(#paint13_linear)"/>
<path d="M249.647 365.83H223.932V372.877H249.647V365.83Z" fill="url(#paint14_linear)"/>
<path d="M306.094 365.83H279.738V372.877H306.094V365.83Z" fill="url(#paint15_linear)"/>
<path d="M249.647 386.118H223.932V393.166H249.647V386.118Z" fill="url(#paint16_linear)"/>
<path d="M306.094 386.118H279.738V393.166H306.094V386.118Z" fill="url(#paint17_linear)"/>
<path d="M249.647 406.3H223.932V413.347H249.647V406.3Z" fill="url(#paint18_linear)"/>
<path d="M306.094 406.3H279.738V413.347H306.094V406.3Z" fill="url(#paint19_linear)"/>
<path d="M249.647 426.588H223.932V433.635H249.647V426.588Z" fill="url(#paint20_linear)"/>
<path d="M306.094 426.588H279.738V433.635H306.094V426.588Z" fill="url(#paint21_linear)"/>
<path d="M424.536 152.589H314.523V450.293H424.536V152.589Z" fill="#043C5E"/>
<path d="M410.558 362.626H328.396V367.859H410.558V362.626Z" fill="#ACC1D6"/>
<path d="M410.558 377.683H328.396V382.915H410.558V377.683Z" fill="#ACC1D6"/>
<path d="M410.558 392.632H328.396V397.864H410.558V392.632Z" fill="#ACC1D6"/>
<path d="M410.558 407.688H328.396V412.92H410.558V407.688Z" fill="#ACC1D6"/>
<path d="M354.111 176.294H328.396V181.527H354.111V176.294Z" fill="#ACC1D6"/>
<path d="M410.558 176.294H384.202V181.527H410.558V176.294Z" fill="#ACC1D6"/>
<path d="M354.111 191.351H328.396V196.583H354.111V191.351Z" fill="#ACC1D6"/>
<path d="M410.558 191.351H384.202V196.583H410.558V191.351Z" fill="#ACC1D6"/>
<path d="M354.111 206.3H328.396V211.532H354.111V206.3Z" fill="#ACC1D6"/>
<path d="M410.558 206.3H384.202V211.532H410.558V206.3Z" fill="#ACC1D6"/>
<path d="M354.111 221.356H328.396V226.588H354.111V221.356Z" fill="#ACC1D6"/>
<path d="M410.558 221.356H384.202V226.588H410.558V221.356Z" fill="#ACC1D6"/>
<path d="M354.111 236.198H328.396V241.43H354.111V236.198Z" fill="#ACC1D6"/>
<path d="M410.558 236.198H384.202V241.43H410.558V236.198Z" fill="#ACC1D6"/>
<path d="M354.111 251.254H328.396V256.487H354.111V251.254Z" fill="#ACC1D6"/>
<path d="M410.558 251.254H384.202V256.487H410.558V251.254Z" fill="#ACC1D6"/>
<path d="M354.111 266.31H328.396V271.543H354.111V266.31Z" fill="#ACC1D6"/>
<path d="M410.558 266.31H384.202V271.543H410.558V266.31Z" fill="#ACC1D6"/>
<path d="M354.111 281.366H328.396V286.599H354.111V281.366Z" fill="#ACC1D6"/>
<path d="M410.558 281.366H384.202V286.599H410.558V281.366Z" fill="#ACC1D6"/>
<path d="M233.428 159.103H219.983V175.333H233.428V159.103Z" fill="#475B73"/>
<path d="M233.428 194.234H219.983V210.891H233.428V194.234Z" fill="#475B73"/>
<path d="M194.695 159.103H181.25V175.333H194.695V159.103Z" fill="#475B73"/>
<path d="M194.695 194.234H181.25V210.891H194.695V194.234Z" fill="#475B73"/>
<path d="M155.854 159.103H142.409V175.333H155.854V159.103Z" fill="#475B73"/>
<path d="M155.854 194.234H142.409V210.891H155.854V194.234Z" fill="#475B73"/>
<path d="M233.428 230.859H219.983V247.09H233.428V230.859Z" fill="#475B73"/>
<path d="M194.695 230.859H181.25V247.09H194.695V230.859Z" fill="#475B73"/>
<path d="M155.854 230.859H142.409V247.09H155.854V230.859Z" fill="#475B73"/>
<path d="M117.654 173.839L117.12 176.722C117.974 177.362 119.254 177.362 120.215 176.828L120.428 176.722L121.175 173.839H117.654Z" fill="#FAB08A"/>
<path d="M141.022 106.353C138.461 114.896 129.711 128.03 129.711 128.03L136.541 125.253L141.342 114.041C141.449 114.041 143.69 97.8108 141.022 106.353Z" fill="#A2D7C5"/>
<path d="M122.349 140.737L116.907 174.159H121.708C121.708 174.159 132.486 144.047 133.659 135.291C133.659 130.272 122.775 135.291 122.775 135.291L122.349 140.737Z" fill="#1C2C57"/>
<path d="M140.382 92.7922L142.089 97.4905L146.037 94.7142L143.37 89.1616L140.382 92.7922Z" fill="#F79C82"/>
<path d="M138.888 93.6464C138.248 93.7532 137.714 93.7532 137.394 93.6464C135.153 91.5108 135.687 84.2497 135.687 84.2497L138.248 82.5413L142.196 84.0362L143.37 88.521C143.69 89.6956 143.37 90.9769 142.409 91.9379C141.342 92.7922 140.168 93.3261 138.888 93.6464Z" fill="#FAB08A"/>
<path d="M141.449 85.4244C141.129 84.6769 140.275 84.3566 139.528 84.6769C138.995 84.8905 138.354 85.1041 137.714 85.2108C136.114 85.5312 133.233 85.5312 132.806 83.182C132.272 80.8329 135.367 81.0464 135.367 81.0464L139.421 81.3667C140.595 81.4735 141.876 81.1532 142.943 80.7261C143.903 80.2989 144.757 81.26 144.97 81.7939C145.397 83.182 144.97 85.4244 144.543 86.9193C144.33 87.7736 143.903 88.521 143.369 89.2685L141.449 85.4244Z" fill="#1C2C57"/>
<path d="M143.69 86.4922C143.263 86.2787 142.623 86.4922 142.302 86.9194C141.876 87.3465 141.982 87.9872 142.409 88.2007C142.836 88.4143 143.476 88.2007 143.796 87.7736C144.223 87.2397 144.116 86.7058 143.69 86.4922Z" fill="#FAB08A"/>
<path d="M117.12 176.508C117.12 176.508 117.12 179.605 110.931 181.527C109.651 181.954 110.078 182.274 109.864 182.808C111.892 182.808 117.013 182.808 117.013 182.808L119.788 179.605L120.641 180.352L122.669 178.323C122.669 178.323 122.349 175.44 120.748 175.44C119.468 175.867 117.12 176.508 117.12 176.508Z" fill="#1C2C57"/>
<path d="M134.833 172.984L136.007 175.654C137.074 175.974 138.248 175.654 138.888 174.8L138.995 174.693L138.034 171.917L134.833 172.984Z" fill="#FAB08A"/>
<path d="M141.235 96.2092C141.235 96.2092 140.702 95.4617 145.183 93.1125C151.799 99.7329 154.04 125.147 154.04 125.147C154.04 125.147 138.568 125.147 136.647 125.147C136.007 110.731 141.235 96.2092 141.235 96.2092Z" fill="#58C4C5"/>
<path d="M124.163 124.506C124.056 124.186 124.269 123.865 124.483 123.652L127.364 122.05C128.111 121.623 128.858 121.516 129.711 121.623L132.806 121.73L133.233 122.264L133.873 124.933C133.233 124.826 132.912 124.72 132.912 124.72L130.992 124.826C130.992 124.826 127.364 128.243 125.443 125.254C125.336 128.457 124.483 128.137 124.483 128.137L124.163 124.506Z" fill="#FAB08A"/>
<path d="M154.04 125.253L154.253 127.389V127.496C154.68 131.66 152.013 135.398 148.065 136.572C148.065 136.572 140.168 139.242 130.138 139.776C136.647 148.211 138.461 171.81 138.461 171.81L134.193 173.305L117.867 134.437C116.8 131.981 118.294 129.098 120.962 128.564L136.541 125.253H154.04Z" fill="#004060"/>
<path d="M143.156 104.538C143.156 104.538 146.357 107.528 148.278 110.518C148.812 111.372 148.705 112.44 148.065 113.187C144.437 117.352 131.525 121.409 131.525 121.409L132.379 126.108C132.379 126.108 150.626 122.477 157.134 115.964C163.75 109.343 146.571 95.355 146.571 95.355" fill="#58C4C5"/>
<path d="M148.064 110.625C148.491 111.372 148.491 112.333 147.851 112.974C146.25 114.896 141.769 116.925 137.927 118.419C137.927 118.633 137.927 118.633 137.927 118.953C141.982 117.458 146.357 115.43 148.171 113.401C148.918 112.547 149.025 111.372 148.385 110.411C146.464 107.421 143.263 104.431 143.156 104.324L142.943 104.645C143.049 104.752 146.25 107.635 148.064 110.625Z" fill="url(#paint22_linear)"/>
<path d="M153.4 118.526C146.357 122.37 136.114 125.04 132.379 125.787C132.379 126.001 132.486 126.215 132.486 126.321C136.007 125.574 146.251 123.011 153.4 119.167C153.4 118.953 153.4 118.74 153.4 118.526Z" fill="url(#paint23_linear)"/>
<path d="M117.334 130.165L111.892 110.838L112.852 110.625L118.08 128.991L133.553 126.321L133.766 127.389L117.334 130.165Z" fill="#118C8C"/>
<path d="M135.687 175.013C135.687 175.013 135.9 178.11 129.711 180.032C128.431 180.459 128.858 180.779 128.644 181.313C130.672 181.313 135.794 181.313 135.794 181.313L138.568 178.11L139.421 178.857L141.449 176.828C141.449 176.828 140.489 173.945 138.995 173.945C137.714 174.479 135.687 175.013 135.687 175.013Z" fill="#1C2C57"/>
<path d="M446.563 364.869C446.883 364.014 445.496 360.597 443.255 357.287C445.496 354.618 447.31 351.735 448.697 348.638C452.112 349.386 455.846 349.813 457.02 348.638C459.581 346.182 460.115 336.572 459.474 335.291C459.048 334.436 455.633 333.048 451.578 332.194C451.365 328.884 450.725 325.573 449.444 322.263C452.432 320.341 455.313 318.099 455.42 316.284C455.526 312.76 449.124 305.606 447.737 305.072C446.883 304.751 443.575 306.139 440.161 308.382C437.6 306.033 434.612 304.111 431.518 302.616C432.265 299.306 432.585 295.782 431.411 294.607C428.957 292.044 419.353 291.511 418.073 292.151C417.326 292.578 416.046 295.568 415.192 299.199C411.564 299.306 408.043 299.946 404.521 301.228C402.707 298.558 400.68 296.209 399.186 296.209C395.665 296.102 388.516 302.509 387.982 303.897C387.769 304.751 388.836 307.421 390.65 310.411C388.089 313.187 385.955 316.39 384.461 319.807C381.473 319.273 378.592 319.06 377.525 320.128C374.964 322.584 374.431 332.194 375.071 333.475C375.498 334.223 378.059 335.397 381.367 336.145C381.58 339.882 382.327 343.619 383.821 347.25C381.367 348.958 379.232 350.88 379.232 352.375C379.126 355.899 385.528 363.053 386.915 363.587C387.769 363.801 390.436 362.733 393.424 360.918C396.305 363.374 399.506 365.296 402.814 366.791C402.174 369.887 401.961 372.984 403.028 374.052C405.482 376.615 415.085 377.148 416.366 376.508C417.113 376.081 418.5 373.091 419.247 369.353C422.768 369.033 426.182 368.286 429.597 366.898C431.411 369.674 433.652 372.45 435.252 372.45C438.987 372.664 446.136 366.257 446.563 364.869ZM403.668 343.513C398.759 336.358 400.467 326.641 407.616 321.623C414.765 316.711 424.475 318.419 429.49 325.573C434.399 332.728 432.691 342.445 425.542 347.463C418.393 352.375 408.576 350.56 403.668 343.513Z" fill="white"/>
<path d="M403.241 352.375C401.427 350.987 399.72 349.279 398.439 347.25C395.025 342.338 393.744 336.358 394.811 330.379C395.878 324.506 399.186 319.273 404.095 315.856C409.003 312.44 414.979 311.158 420.954 312.226C426.823 313.294 432.051 316.604 435.466 321.516C438.88 326.428 440.161 332.407 439.094 338.387C438.027 344.26 434.719 349.492 429.811 352.909C424.902 356.326 418.927 357.608 412.951 356.54C409.323 356.006 406.122 354.511 403.241 352.375ZM430.131 317.031C427.463 315.002 424.262 313.507 420.741 312.867C414.979 311.799 409.217 313.08 404.415 316.39C399.613 319.701 396.412 324.719 395.345 330.485C394.278 336.252 395.558 342.018 398.866 346.823C402.174 351.628 407.189 354.831 412.951 355.899C418.713 356.967 424.475 355.686 429.277 352.375C434.079 349.065 437.28 344.047 438.347 338.28C439.414 332.514 438.133 326.748 434.826 321.943C433.545 320.128 431.945 318.419 430.131 317.031Z" fill="#004060"/>
<path d="M440.268 356.86C440.161 356.753 440.161 356.647 440.054 356.433C438.454 358.141 436.746 359.636 434.826 361.025C420.314 371.062 400.36 367.431 390.223 352.909C383.607 343.406 382.967 331.553 387.235 321.623C387.129 321.516 387.022 321.409 386.915 321.302C382.434 331.34 383.074 343.406 389.796 353.123C399.933 367.859 420.207 371.489 434.932 361.345C436.96 360.064 438.774 358.462 440.268 356.86Z" fill="#004060"/>
<path d="M426.289 304.111C432.798 306.139 438.774 310.304 442.935 316.39C443.042 316.497 443.042 316.604 443.149 316.711C443.255 316.604 443.362 316.497 443.362 316.39C443.255 316.284 443.255 316.177 443.255 316.177C438.987 310.09 433.012 305.819 426.503 303.79C426.396 303.897 426.289 304.004 426.289 304.111Z" fill="#004060"/>
<path d="M519.87 327.068H421.062V452.001H519.87V327.068Z" fill="#ACC1D6"/>
<path d="M506.638 343.513H496.501V359.743H506.638V343.513Z" fill="#6680A1"/>
<path d="M506.638 378.75H496.501V395.408H506.638V378.75Z" fill="#6680A1"/>
<path d="M477.294 343.513H467.157V359.743H477.294V343.513Z" fill="#6680A1"/>
<path d="M477.294 378.75H467.157V395.408H477.294V378.75Z" fill="#6680A1"/>
<path d="M447.95 343.513H437.813V359.743H447.95V343.513Z" fill="#6680A1"/>
<path d="M447.95 378.75H437.813V395.408H447.95V378.75Z" fill="#6680A1"/>
<path d="M506.638 415.376H496.501V431.607H506.638V415.376Z" fill="#6680A1"/>
<path d="M447.95 415.376H437.813V431.607H447.95V415.376Z" fill="#6680A1"/>
<path d="M251.046 460.726C251.046 460.726 252.967 462.541 257.235 463.609C258.195 463.822 259.262 463.502 259.262 465.104C257.235 465.104 254.034 465.104 254.034 465.104L249.659 464.356V465.104H247.311C247.311 465.104 246.671 461.259 248.058 460.726C249.339 460.726 251.046 460.726 251.046 460.726Z" fill="#1C2C57"/>
<path d="M250.833 457.949L251.046 460.726C250.192 461.366 249.019 461.366 248.165 460.832L247.952 460.726L246.991 457.949H250.833Z" fill="#FAB08A"/>
<path d="M237.921 460.726C237.921 460.726 239.842 462.541 244.11 463.609C245.071 463.822 246.138 463.502 246.138 465.104C244.11 465.104 240.909 465.104 240.909 465.104L236.534 464.356V465.104H234.187C234.187 465.104 233.547 461.259 234.934 460.726C236.107 460.726 237.921 460.726 237.921 460.726Z" fill="#1C2C57"/>
<path d="M237.601 457.949L237.815 460.726C236.961 461.366 235.787 461.366 234.934 460.832L234.72 460.726L233.76 457.949H237.601Z" fill="#FAB08A"/>
<path d="M242.403 366.652L241.656 371.137L237.601 369.428L238.988 363.982L242.403 366.652Z" fill="#F79C82"/>
<path d="M243.897 367.079C244.43 367.079 244.964 366.972 245.284 366.759C246.885 364.409 245.071 358.003 245.071 358.003L242.51 356.935L239.202 358.964L238.989 363.235C238.989 364.409 239.522 365.477 240.482 366.225C241.443 366.759 242.616 367.079 243.897 367.079Z" fill="#FAB08A"/>
<path d="M239.949 360.245C240.162 359.498 240.802 359.07 241.549 359.177C242.083 359.284 242.723 359.391 243.363 359.391C244.857 359.391 246.671 358.857 246.671 356.615C246.671 354.372 243.897 355.12 243.897 355.12C243.897 355.12 238.242 355.974 236.107 357.576C235.04 358.323 236.854 360.886 237.495 362.06C237.815 362.808 238.348 363.448 238.988 363.982L239.949 360.245Z" fill="#1C2C57"/>
<path d="M238.135 361.526C238.455 361.206 239.095 361.313 239.522 361.633C239.949 361.954 240.056 362.487 239.735 362.808C239.415 363.128 238.775 363.021 238.348 362.701C237.921 362.381 237.815 361.847 238.135 361.526Z" fill="#FAB08A"/>
<path d="M241.656 371.137C241.656 371.137 247.738 381.067 251.366 404.345C244.004 406.695 232.906 409.151 232.906 409.151C232.906 409.151 226.291 384.057 237.708 369.428C239.949 369.428 241.656 371.137 241.656 371.137Z" fill="url(#paint24_linear)"/>
<path d="M251.366 404.345C251.366 404.345 256.488 421.43 256.488 429.225C256.488 437.02 251.366 458.803 251.366 458.803H246.671C246.671 458.803 245.604 443.534 246.885 434.991C247.311 432.429 247.098 429.866 246.351 427.41C243.897 418.868 241.123 407.229 241.123 407.229L251.366 404.345Z" fill="#1C2C57"/>
<path d="M247.845 405.733C247.845 405.733 249.125 424.313 247.098 430.934C244.964 437.661 237.921 458.696 237.921 458.696H233.76C233.76 458.696 232.693 447.164 236.001 434.991C236.854 432.001 236.641 428.905 235.681 426.022C232.48 416.518 232.8 409.044 232.8 409.044L247.845 405.733Z" fill="#004060"/>
<path d="M262.57 382.562C274.521 387.154 273.241 390.357 274.414 394.522C275.588 398.686 276.015 406.161 262.57 407.549C249.019 408.83 249.766 400.822 246.671 394.522C243.577 388.222 253.18 382.562 253.18 382.562C253.18 382.562 258.622 384.591 262.57 382.562Z" fill="#FF7B7C"/>
<path d="M258.195 406.908C258.409 407.015 259.156 407.442 260.863 407.335C262.357 407.228 265.451 406.16 265.024 407.762C263.744 408.723 262.25 410.005 262.25 410.005C261.396 410.538 259.689 410.325 258.729 410.005L255.741 408.616C255.741 408.616 255.314 407.121 255.314 407.015L255.954 406.694C256.595 406.908 257.342 407.015 258.195 406.908Z" fill="#FAB08A"/>
<path d="M258.729 407.549C258.729 407.549 258.835 407.655 258.942 407.655C258.729 407.762 258.622 407.869 258.409 407.976C257.662 408.083 256.808 408.296 256.061 408.403C256.061 407.976 256.061 407.335 256.061 407.228L260.969 405.413C260.969 405.413 261.396 405.947 260.649 406.588C259.689 407.335 258.729 407.549 258.729 407.549Z" fill="#FAB08A"/>
<path d="M242.403 379.145L243.79 390.25C244.004 392.386 244.964 394.415 246.458 396.017L256.488 406.588L255.528 409.044C255.528 409.044 240.482 401.889 237.708 397.725C234.934 393.561 233.547 380.64 233.547 380.64L242.403 379.145Z" fill="url(#paint25_linear)"/>
<path d="M234.187 385.018C234.827 389.183 236.001 395.055 237.708 397.725C240.269 401.569 253.5 408.083 255.314 408.937L256.168 406.801L246.244 396.23C244.751 394.628 243.79 392.6 243.47 390.357L242.83 385.338C242.937 385.232 243.043 385.232 243.15 385.125L243.79 390.25C244.004 392.386 244.964 394.308 246.458 395.91L256.488 406.481L256.595 406.588L255.528 409.364L255.314 409.257C254.674 408.937 240.162 402.103 237.388 397.832C235.574 395.055 234.4 388.862 233.76 384.698C233.973 384.911 234.08 385.018 234.187 385.018Z" fill="#58C4C5"/>
<path d="M262.57 382.562C262.144 381.815 262.143 380.96 262.784 380.32L264.278 378.718C264.278 378.718 261.717 375.194 257.875 377.757C254.888 379.679 252.22 378.398 251.046 377.65C250.939 377.543 250.726 377.757 250.833 377.864C251.366 378.932 252.007 379.893 252.753 380.854C253.18 381.388 253.607 382.028 253.287 382.562L257.982 384.271L262.57 382.562Z" fill="#FF7B7C"/>
<path d="M263.104 382.776C263.104 382.776 261.397 384.804 257.555 384.804C253.714 384.804 252.54 382.989 252.54 382.989L253.394 381.921C253.394 381.921 254.354 383.31 257.555 383.523C260.116 383.63 262.357 381.921 262.357 381.921L263.104 382.776Z" fill="#F04637"/>
<path d="M259.689 400.715C262.813 400.715 265.345 398.181 265.345 395.055C265.345 391.93 262.813 389.396 259.689 389.396C256.566 389.396 254.034 391.93 254.034 395.055C254.034 398.181 256.566 400.715 259.689 400.715Z" fill="#F04637"/>
<path d="M241.87 369.748L237.921 367.613L237.601 369.428L241.87 371.564V369.748Z" fill="white"/>
<path d="M382.601 149.065C382.601 149.065 384.308 150.56 388.043 151.521C388.897 151.735 389.75 151.415 389.75 152.803C387.936 152.803 385.162 152.803 385.162 152.803L381.321 152.162V152.803H379.293C379.293 152.803 378.76 149.493 379.934 149.065C381.001 149.065 382.601 149.065 382.601 149.065Z" fill="#1C2C57"/>
<path d="M382.388 146.716L382.601 149.065C381.854 149.599 380.894 149.599 380.04 149.172L379.934 149.065L379.507 146.716H382.388Z" fill="#FAB08A"/>
<path d="M402.128 149.065C402.128 149.065 403.836 150.56 407.57 151.521C408.424 151.735 409.278 151.415 409.278 152.803C407.464 152.803 404.689 152.803 404.689 152.803L400.848 152.162V152.803H398.82C398.82 152.803 398.287 149.493 399.461 149.065C400.528 149.065 402.128 149.065 402.128 149.065Z" fill="#1C2C57"/>
<path d="M401.168 146.716L402.128 149.065C401.381 149.599 400.421 149.599 399.567 149.172L399.461 149.065L397.967 146.716H401.168Z" fill="#FAB08A"/>
<path d="M334.798 152.803L342.16 127.709L341.093 127.389L333.73 152.803H334.798Z" fill="#FF7B7C"/>
<path d="M369.263 152.803L361.794 127.389L360.727 127.709L368.089 152.803H369.263Z" fill="#FF7B7C"/>
<path d="M341.627 84.7837L340.346 89.0549L335.865 87.3464L339.493 81.3667L341.627 84.7837Z" fill="#F79C82"/>
<path d="M342.694 86.0651C343.227 86.2786 343.761 86.3854 344.081 86.2786C346.429 84.7837 347.175 78.3769 347.175 78.3769L345.255 76.4548L341.52 77.0955L339.706 80.8328C339.279 81.7939 339.279 83.0752 339.92 84.0362C340.56 84.8905 341.52 85.6379 342.694 86.0651Z" fill="#FAB08A"/>
<path d="M340.987 79.3379C341.413 78.804 341.947 77.2022 342.587 77.6294C343.014 77.9497 344.614 78.6972 345.148 78.9107C346.428 79.4446 348.989 79.9785 349.843 77.9497C350.27 76.9887 349.63 75.7073 349.096 75.1734C348.563 74.6395 347.922 74.426 347.175 74.3192C345.468 74.2124 343.121 74.5327 342.374 73.9988C341.2 73.1446 339.599 73.3582 339.173 74.5327C338.746 75.7073 338.532 77.7362 338.639 79.1243C338.746 79.8718 338.852 80.726 339.279 81.3667L340.987 79.3379Z" fill="#1C2C57"/>
<path d="M339.599 78.9107C340.026 78.8039 340.56 79.0175 340.773 79.5514C340.987 80.0853 340.88 80.5124 340.453 80.6192C340.026 80.726 339.493 80.5124 339.279 79.9785C339.066 79.5514 339.173 79.1243 339.599 78.9107Z" fill="#FAB08A"/>
<path d="M333.197 90.7634L319.432 97.1703C319.432 97.1703 330.103 127.816 348.669 130.913C367.342 134.009 378.44 125.36 379.4 124.933C352.724 117.245 333.197 90.7634 333.197 90.7634Z" fill="#F04637"/>
<path d="M333.197 90.7634L319.432 97.1703C319.432 97.1703 331.596 124.826 350.163 127.923C368.836 131.02 378.76 125.36 379.4 124.826C351.657 117.138 333.197 90.7634 333.197 90.7634Z" fill="#FF7B7C"/>
<path d="M354.645 111.692L375.345 111.372C377.266 111.372 378.867 112.76 379.08 114.575L382.601 147.357H379.507C379.507 147.357 372.144 131.66 373.318 123.545C374.492 115.323 344.615 116.711 344.615 116.711L354.645 111.692Z" fill="#1C2C57"/>
<path d="M336.078 86.8125C323.7 99.5194 339.599 121.516 339.599 121.516L354.751 111.692C348.989 101.548 348.669 100.908 340.666 87.3464C339.599 85.7447 337.359 85.4244 336.078 86.8125Z" fill="url(#paint26_linear)"/>
<path d="M364.462 104.538C364.462 104.218 364.248 104.004 364.035 103.897L361.474 103.15C360.834 102.936 360.193 103.043 359.553 103.257L357.206 104.324H356.885V106.674C357.312 106.46 357.632 106.246 357.632 106.246L359.126 105.499C359.126 105.499 362.861 107.955 363.715 105.285C364.355 107.848 365.102 107.421 365.102 107.421L364.462 104.538Z" fill="#FAB08A"/>
<path d="M337.145 89.3752C330.423 89.3752 330.849 104.431 331.596 111.692C331.81 113.828 333.837 115.43 335.971 115.109C345.895 113.508 358.059 106.46 358.059 106.46L357.206 104.325L339.599 107.848C339.493 107.848 345.895 89.3752 337.145 89.3752Z" fill="url(#paint27_linear)"/>
<path d="M357.312 104.111L339.813 107.528C340.24 106.14 341.947 100.694 341.947 96.1023C341.84 96.2091 341.734 96.2091 341.52 96.3159C341.413 101.441 339.386 107.635 339.279 107.635L339.173 107.955L356.992 104.431L357.739 106.246C356.352 106.994 345.041 113.294 335.865 114.789C334.904 114.896 333.944 114.682 333.09 114.041C332.237 113.401 331.81 112.546 331.703 111.479C331.49 109.557 331.17 105.392 331.383 101.228C331.276 101.228 331.17 101.335 331.063 101.335C330.85 105.499 331.17 109.557 331.383 111.479C331.49 112.546 332.023 113.614 332.877 114.255C333.624 114.789 334.371 115.109 335.331 115.109C335.545 115.109 335.758 115.109 335.971 115.109C345.895 113.508 358.059 106.567 358.166 106.46L358.273 106.353L357.312 104.111Z" fill="#58C4C5"/>
<path d="M339.493 121.516C339.493 121.516 342.801 128.884 356.779 128.884C370.757 128.884 380.254 123.865 380.254 123.865C380.254 123.865 384.415 134.437 398.287 147.357C401.595 147.357 401.595 147.357 401.595 147.357L387.616 118.313C386.336 115.75 383.668 114.148 380.787 114.362L347.816 116.177L339.493 121.516Z" fill="#004060"/>
<path d="M337.892 84.0361L341.093 86.7056L340.88 87.8802L336.292 86.5989L337.892 84.0361Z" fill="white"/>
<path d="M370.224 112.44H353.898V111.372H369.477L377.906 93.9668L378.867 94.5007L370.224 112.44Z" fill="#58C4C5"/>
<path d="M362.297 131.155L334.914 149.148L335.324 149.773L362.707 131.779L362.297 131.155Z" fill="#FF7B7C"/>
<path d="M340.787 131.212L340.377 131.837L367.763 149.827L368.173 149.202L340.787 131.212Z" fill="#FF7B7C"/>
<path d="M384.842 452.963C384.842 452.963 383.135 454.458 379.4 455.419C378.547 455.632 377.693 455.312 377.693 456.7C379.507 456.7 382.281 456.7 382.281 456.7L386.123 456.059V456.7H388.15C388.15 456.7 388.684 453.283 387.51 452.856C386.336 452.963 384.842 452.963 384.842 452.963Z" fill="#1C2C57"/>
<path d="M385.056 450.507L384.842 452.963C385.589 453.497 386.55 453.497 387.403 453.07L387.51 452.963L388.364 450.507H385.056Z" fill="#FAB08A"/>
<path d="M403.089 452.963C403.089 452.963 401.381 454.458 397.647 455.419C396.793 455.632 395.939 455.312 395.939 456.7C397.753 456.7 400.528 456.7 400.528 456.7L404.369 456.059V456.7H406.397C406.397 456.7 406.93 453.283 405.756 452.856C404.689 452.963 403.089 452.963 403.089 452.963Z" fill="#1C2C57"/>
<path d="M403.302 450.507L403.089 452.963C403.836 453.497 404.796 453.497 405.65 453.07L405.756 452.963L406.61 450.507H403.302Z" fill="#FAB08A"/>
<path d="M392.098 390.069H386.87L384.949 451.147H388.577L399.034 401.388L392.098 390.069Z" fill="#1C2C57"/>
<path d="M390.391 390.069L402.662 451.147H406.61L405.009 390.069H390.391Z" fill="#004060"/>
<path d="M400.634 405.125L401.808 405.018C401.808 405.018 401.808 404.164 402.342 403.63C402.768 403.203 403.515 402.883 404.476 402.883C405.543 402.883 406.396 403.096 406.823 403.63C407.25 404.057 407.25 404.591 407.25 404.591L408.424 404.698C408.424 404.591 408.424 403.63 407.677 402.883C407.037 402.135 405.863 401.815 404.476 401.815C403.089 401.815 402.128 402.135 401.381 402.883C400.528 403.844 400.634 405.125 400.634 405.125Z" fill="#F04637"/>
<path d="M395.804 417.851H413.41V406.532H395.804V417.851Z" fill="#1C2C57"/>
<path d="M403.942 414.201C403.942 414.842 404.262 414.949 404.689 414.949C405.116 414.949 405.436 414.842 405.436 414.201V411.745C410.558 411.211 413.439 410.357 413.439 410.357V410.678V419.327C413.439 420.074 413.119 420.822 412.692 420.822H396.58C396.153 420.822 395.833 420.181 395.833 419.327V410.357C399.567 411.211 399.781 411.211 404.049 411.745V414.201H403.942Z" fill="#FF5C5D"/>
<path d="M396.58 404.057H412.692C413.119 404.057 413.439 404.698 413.439 405.552V409.93C410.665 410.891 407.89 411.211 405.436 411.318V410.678C405.436 410.037 405.116 409.93 404.689 409.93C404.262 409.93 403.942 410.037 403.942 410.678V411.211C399.141 411.105 395.726 409.823 395.726 409.823V405.445C395.726 404.698 396.046 404.057 396.58 404.057Z" fill="#F04637"/>
<path d="M403.729 413.133V412.386C403.729 412.172 403.836 412.066 404.049 412.066H405.33C405.543 412.066 405.65 412.172 405.65 412.386V413.133C405.65 413.347 405.543 413.454 405.33 413.454H404.049C403.836 413.454 403.729 413.347 403.729 413.133ZM404.049 412.172C403.942 412.172 403.836 412.279 403.836 412.386V413.133C403.836 413.24 403.942 413.347 404.049 413.347H405.33C405.436 413.347 405.543 413.24 405.543 413.133V412.386C405.543 412.279 405.436 412.172 405.33 412.172H404.049Z" fill="white"/>
<path d="M404.583 412.706C404.689 412.813 404.796 412.706 404.796 412.706V411.639C404.796 411.639 404.796 411.532 404.689 411.532C404.689 411.532 404.583 411.532 404.583 411.639V412.706Z" fill="white"/>
<path d="M361.047 382.915C360.834 383.021 360.194 383.449 358.593 383.662C357.099 383.769 354.005 383.128 354.645 384.623C356.032 385.371 357.633 386.438 357.633 386.438C358.486 386.866 360.087 386.438 361.047 386.011L363.821 384.303C363.821 384.303 364.035 382.808 364.035 382.701L363.395 382.488C362.541 382.701 361.794 382.915 361.047 382.915Z" fill="#FAB08A"/>
<path d="M360.514 383.555C360.514 383.555 360.514 383.662 360.3 383.769C360.514 383.876 360.727 383.983 360.834 383.983C361.581 383.983 362.328 384.089 363.181 384.089C363.181 383.662 363.074 383.022 363.074 383.022L358.059 381.847C358.059 381.847 357.633 382.381 358.593 382.915C359.553 383.449 360.514 383.555 360.514 383.555Z" fill="#FAB08A"/>
<path d="M404.156 397.117L402.448 400.747C402.448 400.747 402.769 402.776 403.516 403.523C403.729 403.737 404.049 403.844 404.369 403.737C405.009 403.417 406.61 402.776 406.93 402.349C407.037 402.135 407.037 401.922 407.037 401.708L406.503 400.106L406.397 396.369L404.156 397.117Z" fill="#FAB08A"/>
<path d="M394.446 353.23L394.339 358.142L398.714 357.928L399.034 350.347L394.446 353.23Z" fill="#F79C82"/>
<path d="M393.699 353.764C393.059 353.764 392.525 353.657 392.205 353.443C390.498 350.881 392.418 344.047 392.418 344.047L395.193 342.872L398.714 345.114L398.927 349.706C399.034 350.987 398.394 352.162 397.327 352.909C396.366 353.443 394.979 353.764 393.699 353.764Z" fill="#FAB08A"/>
<path d="M397.86 347.57C397.647 346.823 398.18 345.008 397.433 345.114C396.9 345.221 394.873 345.328 394.232 345.328C392.632 345.328 389.857 344.687 389.857 342.338C389.857 341.164 390.604 340.523 391.351 340.203C392.098 339.882 392.845 340.736 393.592 341.057C395.299 341.697 398.927 342.125 399.888 342.018C400.955 341.804 402.022 342.872 402.128 343.513C402.342 344.901 401.382 347.036 400.635 348.425C400.208 349.172 399.674 349.92 399.034 350.453L397.86 347.57Z" fill="#1C2C57"/>
<path d="M399.888 347.784C399.567 347.464 398.927 347.57 398.394 347.891C397.967 348.318 397.86 348.852 398.18 349.172C398.5 349.492 399.141 349.386 399.674 349.065C400.101 348.638 400.208 348.104 399.888 347.784Z" fill="#FAB08A"/>
<path d="M396.687 356.647C398.714 356.647 400.314 357.074 401.808 357.715C405.33 359.209 407.784 362.52 408.637 366.257C410.025 372.13 412.372 386.118 407.037 398.291C405.436 398.398 403.516 398.291 403.516 398.291L402.982 369.46L403.409 390.069H386.87V376.828C386.87 376.828 386.443 379.818 382.495 382.594C378.547 385.371 362.541 385.584 362.541 385.584V382.488C362.541 382.488 376.733 377.576 378.867 375.974C381.001 374.372 385.589 362.626 385.589 362.626C387.083 359.743 389.644 357.715 392.845 357.074C393.805 356.754 395.193 356.647 396.687 356.647Z" fill="url(#paint28_linear)"/>
<path d="M403.089 390.176L402.662 370.314H403.089L403.516 390.176H403.089Z" fill="#58C4C5"/>
<path d="M398.821 355.259L399.034 356.86H394.125L394.446 355.259H398.821Z" fill="#FCB44F"/>
<path d="M333.624 368.286C333.624 368.286 333.731 386.545 338.532 386.332C343.334 386.118 346.429 371.703 346.429 371.703L344.508 371.169L339.92 379.925C339.92 379.925 340.56 377.042 339.493 371.809C338.212 366.577 333.624 368.286 333.624 368.286Z" fill="#FAB08A"/>
<path d="M334.584 366.577L334.371 366.898C334.371 366.898 339.706 370.421 339.706 376.188V399.679H330.103L330.423 381.633C330.316 381.74 330.21 381.847 329.996 381.954L329.676 400.106H340.026V376.294C340.026 370.208 334.584 366.577 334.584 366.577Z" fill="#FF5C5D"/>
<path d="M338.853 404.698H330.956C329.676 404.698 328.609 403.63 328.609 402.349V397.65C328.609 396.369 329.676 395.301 330.956 395.301H338.853C340.133 395.301 341.2 396.369 341.2 397.65V402.349C341.2 403.63 340.133 404.698 338.853 404.698Z" fill="#FF5C5D"/>
<path d="M341.201 399.786V396.903C341.201 396.049 340.454 395.301 339.6 395.301H330.317C329.463 395.301 328.716 396.049 328.716 396.903V399.786H341.201Z" fill="#F04637"/>
<path d="M339.813 404.698C339.066 404.698 338.426 404.378 338.426 403.63V396.476C338.426 395.728 339.066 395.408 339.813 395.408C340.56 395.408 341.2 396.049 341.2 396.476V403.31C341.2 404.378 340.56 404.698 339.813 404.698Z" fill="#FF5C5D"/>
<path d="M333.411 401.388C333.197 401.388 332.984 401.174 332.984 400.961V398.825C332.984 398.612 333.197 398.398 333.411 398.398C333.624 398.398 333.837 398.612 333.837 398.825V400.961C333.837 401.174 333.624 401.388 333.411 401.388Z" fill="#004060"/>
<path d="M344.401 371.489L343.548 367.966C343.548 367.966 344.188 366.257 344.935 365.723C345.148 365.51 345.468 365.51 345.682 365.723C346.215 366.044 347.496 367.005 347.709 367.325C347.816 367.538 347.816 367.752 347.709 367.859L347.069 369.14L346.429 371.596L344.401 371.489Z" fill="#FAB08A"/>
<path d="M329.356 363.694C332.664 363.694 333.517 364.228 333.517 364.228C333.517 364.228 337.785 369.567 339.279 372.984C339.813 374.266 339.813 375.761 339.279 377.042C336.612 382.701 336.932 393.7 336.932 393.7C336.932 393.7 329.783 393.7 327.115 393.7C327.542 385.584 319.112 365.296 329.356 363.694Z" fill="white"/>
<path d="M341.413 451.468L342.054 453.497C342.16 454.031 342.48 454.564 343.014 454.885C343.548 455.205 344.401 455.632 345.575 456.059C343.868 457.448 341.52 456.059 340.24 455.098C339.599 454.564 339.173 453.924 339.066 453.069L338.853 451.575H341.413V451.468Z" fill="#FAB08A"/>
<path d="M338.746 452.536C338.746 452.536 337.572 453.39 337.679 454.458C337.785 455.526 337.785 457.981 337.785 457.981H338.852L339.066 455.632C339.066 455.526 341.2 457.981 341.627 457.981H347.389C347.389 457.981 347.922 456.38 344.615 455.953C341.307 455.419 338.746 452.536 338.746 452.536Z" fill="#004060"/>
<path d="M336.932 393.806L341.627 451.681L338.426 451.788C338.426 451.788 332.45 439.615 332.343 429.578C332.343 427.869 332.343 426.268 331.383 424.986C323.914 415.269 327.755 399.893 327.755 399.893L332.77 393.913H336.932V393.806Z" fill="#1C2C57"/>
<path d="M324.021 451.468L324.768 453.497C324.981 454.031 325.301 454.564 325.835 454.885C326.368 455.205 327.222 455.632 328.502 456.059C326.902 457.448 324.447 456.059 323.06 455.098C322.42 454.671 321.887 453.924 321.673 453.069L321.353 451.575H324.021V451.468Z" fill="#FAB08A"/>
<path d="M321.566 452.536C321.566 452.536 320.499 453.39 320.713 454.458C320.926 455.526 321.14 457.981 321.14 457.981H322.207V455.632C322.207 455.526 324.554 457.981 324.981 457.981H330.743C330.743 457.981 331.17 456.38 327.755 455.953C324.341 455.419 321.566 452.536 321.566 452.536Z" fill="#004060"/>
<path d="M333.944 361.452L334.051 367.859L330.103 363.694L330.53 357.715L333.944 361.452Z" fill="#F79C82"/>
<path d="M334.584 352.055C331.917 352.376 330.53 355.899 330.53 355.899V366.043L325.941 361.986C325.941 361.986 325.621 357.394 326.795 352.376C327.755 349.279 331.81 348.425 334.584 349.92C335.971 350.667 336.718 352.162 337.252 353.55C337.892 355.472 337.999 357.608 337.572 359.637L335.971 367.111L333.944 365.189C333.944 365.189 333.411 363.267 333.944 361.452C335.011 357.715 336.398 351.735 334.584 352.055Z" fill="#1C2C57"/>
<path d="M329.889 356.006C330.209 355.686 330.743 355.793 331.17 356.113C331.597 356.433 331.597 356.967 331.383 357.288C331.063 357.608 330.53 357.501 330.103 357.181C329.569 356.754 329.569 356.22 329.889 356.006Z" fill="#FAB08A"/>
<path d="M335.118 361.559C335.651 361.559 336.078 361.452 336.398 361.238C337.892 358.889 336.185 352.482 336.185 352.482L333.837 351.415L330.85 353.443L330.636 357.715C330.636 358.889 331.063 359.957 332.023 360.704C332.877 361.238 333.944 361.559 335.118 361.559Z" fill="#FAB08A"/>
<path d="M335.118 351.628C335.651 353.55 330.636 355.793 330.636 355.793L329.356 353.443L331.703 350.56L334.691 350.987C334.584 350.987 335.011 351.308 335.118 351.628Z" fill="#1C2C57"/>
<path d="M335.118 352.055C335.224 352.803 336.398 353.764 336.398 353.764L336.505 352.909L336.185 352.269L335.545 351.948C335.651 351.842 335.011 351.308 335.118 352.055Z" fill="#1C2C57"/>
<path d="M327.115 393.806C327.115 393.806 317.512 397.864 322.42 423.064C322.74 424.559 322.527 426.054 322.1 427.549C320.073 434.597 321.246 451.788 321.246 451.788H324.448C324.448 451.788 335.225 406.94 335.972 393.806C329.463 393.806 327.115 393.806 327.115 393.806Z" fill="#004060"/>
<path d="M356.886 382.808C357.099 382.915 357.632 383.128 358.913 382.915C359.98 382.701 362.221 381.634 362.007 382.915C361.154 383.769 360.193 384.944 360.193 384.944C359.66 385.371 358.379 385.371 357.632 385.264L355.285 384.517L354.751 383.342L355.178 383.022C355.712 382.915 356.245 382.915 356.886 382.808Z" fill="#FAB08A"/>
<path d="M357.312 383.235C357.312 383.235 357.312 383.235 357.419 383.342C357.312 383.449 357.206 383.556 357.099 383.662C356.565 383.876 356.032 383.983 355.392 384.196C355.285 383.876 355.285 383.342 355.285 383.342L358.699 381.42C358.699 381.42 359.126 381.74 358.593 382.381C358.059 382.915 357.312 383.235 357.312 383.235Z" fill="#FAB08A"/>
<path d="M326.155 367.432C329.676 363.801 336.398 372.771 338.746 375.44C339.173 375.974 339.706 376.294 340.346 376.615L356.459 382.915L355.498 384.623L337.786 380.779C337.145 380.566 336.398 380.245 335.865 379.925C332.344 377.576 322.633 370.955 326.155 367.432Z" fill="#FAB08A"/>
<path d="M338.212 380.459L346.108 382.167L345.895 382.488L338.106 380.779C337.359 380.566 336.718 380.352 336.078 379.925C334.264 378.857 331.49 376.721 328.822 374.586C328.929 374.479 329.036 374.372 329.036 374.372C331.703 376.615 334.798 378.75 336.185 379.605C336.825 380.032 337.465 380.245 338.212 380.459Z" fill="#F79C82"/>
<path d="M463.636 323.011C463.636 323.011 462.036 324.506 458.408 325.467C457.554 325.68 456.701 325.36 456.701 326.748C458.408 326.748 461.076 326.748 461.076 326.748L464.704 326.107V326.748H466.731C466.731 326.748 467.264 323.545 466.091 323.118C465.13 323.011 463.636 323.011 463.636 323.011Z" fill="#1C2C57"/>
<path d="M463.957 320.662L463.743 323.011C464.49 323.545 465.45 323.545 466.197 323.118L466.304 323.011L466.731 320.662H463.957Z" fill="#FAB08A"/>
<path d="M479.749 323.011C479.749 323.011 478.148 324.506 474.52 325.467C473.667 325.68 472.813 325.36 472.813 326.748C474.52 326.748 477.188 326.748 477.188 326.748L480.816 326.107V326.748H482.843C482.843 326.748 483.377 323.545 482.203 323.118C481.243 323.011 479.749 323.011 479.749 323.011Z" fill="#1C2C57"/>
<path d="M479.962 320.662L479.749 323.011C480.496 323.545 481.456 323.545 482.203 323.118L482.31 323.011L482.736 320.662H479.962Z" fill="#FAB08A"/>
<path d="M439.948 234.276C439.735 234.383 438.881 234.49 437.174 233.956C435.68 233.422 432.906 231.393 432.799 233.102C433.759 234.49 434.826 236.305 434.826 236.305C435.466 237.052 437.28 237.373 438.347 237.373L441.762 236.839C441.762 236.839 442.722 235.344 442.829 235.237L442.296 234.703C441.549 234.703 440.802 234.597 439.948 234.276Z" fill="#FAB08A"/>
<path d="M439.201 234.703C439.201 234.703 439.094 234.703 438.988 234.81C439.094 235.024 439.308 235.13 439.414 235.344C440.161 235.664 440.908 236.092 441.655 236.412C441.869 235.878 442.082 235.237 442.082 235.237L437.814 231.82C437.814 231.82 437.174 232.141 437.814 233.208C438.241 234.169 439.201 234.703 439.201 234.703Z" fill="#FAB08A"/>
<path d="M473.24 221.676L472.813 226.161L477.721 226.374L476.761 219.327L473.24 221.676Z" fill="#F79C82"/>
<path d="M471.746 222.424C471.212 222.424 470.679 222.317 470.359 222.103C468.758 219.754 470.572 213.24 470.572 213.24L473.24 212.173L476.548 214.201L476.761 218.473C476.761 219.647 476.227 220.715 475.267 221.463C474.2 222.21 473.026 222.53 471.746 222.424Z" fill="#FAB08A"/>
<path d="M476.014 216.764C475.801 216.017 475.907 214.415 475.16 214.522C474.627 214.629 472.813 214.735 472.173 214.735C470.679 214.735 468.011 214.201 468.011 211.959C468.011 210.784 469.078 209.823 469.825 209.61C470.465 209.29 471.319 209.29 471.959 209.61C473.56 210.144 475.694 211.425 476.654 211.212C478.148 210.891 479.535 211.745 479.535 213.027C479.535 214.308 478.788 216.337 478.148 217.618C477.721 218.366 477.295 219.007 476.654 219.54L476.014 216.764Z" fill="#1C2C57"/>
<path d="M477.508 216.871C477.188 216.551 476.548 216.657 476.121 216.978C475.694 217.298 475.587 217.832 475.907 218.152C476.227 218.473 476.868 218.366 477.294 218.045C477.828 217.725 477.935 217.191 477.508 216.871Z" fill="#FAB08A"/>
<path d="M468.545 228.296C459.368 235.451 441.442 233.529 441.442 233.529L440.588 238.227C440.588 238.227 463.316 244.954 466.091 239.615C468.972 234.169 477.828 221.035 468.545 228.296Z" fill="url(#paint29_linear)"/>
<path d="M475.267 224.879C475.054 224.879 474.947 224.879 474.734 224.879C469.292 225.093 465.13 232.568 465.13 237.907V257.447H485.938V235.024C485.938 230.005 482.417 225.734 477.508 224.986C476.868 224.986 476.014 224.879 475.267 224.879Z" fill="url(#paint30_linear)"/>
<path d="M468.652 253.71L464.063 254.244C462.143 254.351 460.649 251.681 460.115 249.546C460.008 249.226 460.329 249.012 460.649 249.012C462.249 249.439 466.411 250.507 467.585 251.041L468.652 253.71Z" fill="#FAB08A"/>
<path d="M484.764 230.219C484.764 230.219 495.328 244.314 488.712 251.041C482.096 257.875 467.264 254.992 467.264 254.992V250.614C467.264 250.614 481.243 250.614 482.096 245.915C482.95 241.11 478.789 235.985 478.789 235.985" fill="url(#paint31_linear)"/>
<path d="M485.938 252.856C479.322 256.7 468.865 255.098 467.371 254.778V250.934C469.185 250.934 481.456 250.614 482.203 246.022C483.057 241.217 479.002 236.091 478.789 235.878L478.468 236.092C478.468 236.092 482.523 241.217 481.776 245.809C481.029 250.293 467.371 250.4 467.158 250.4H466.944V255.098H467.158C467.264 255.098 470.359 255.739 474.307 255.739C478.042 255.739 482.523 255.205 485.938 253.283V252.856Z" fill="#58C4C5"/>
<path d="M465.13 257.554C462.783 269.086 462.356 281.58 462.356 292.044C462.249 308.916 463.636 321.195 463.636 321.195H467.051L474.2 273.037C474.2 273.037 474.947 280.192 476.014 292.365C476.868 301.868 477.188 309.983 479.429 321.195C482.843 321.195 482.843 321.195 482.843 321.195C482.843 321.195 485.831 286.492 485.831 257.554C477.935 257.554 469.292 257.554 465.13 257.554Z" fill="#1C2C57"/>
<path d="M473.026 223.598H477.401L478.042 225.2H472.493L473.026 223.598Z" fill="white"/>
<path d="M116.44 315.798C116.44 315.798 139.385 388.012 142.237 411.105C168.977 405.843 185.769 399.511 185.769 399.511C185.769 399.511 169.94 306.752 162.527 303.568C154.056 303.698 154.246 303.705 116.44 315.798Z" fill="#475B73"/>
<path d="M147.366 312.051C149.177 317.471 156.104 320.919 160.763 318.966C170.116 325.186 178.272 387.017 178.272 387.017L178.195 387.052C172.938 388.203 169.725 394.157 170.981 399.175L155.604 403.289C154.018 397.954 148.512 395.171 143.255 396.322C143.199 396.301 143.178 396.357 143.121 396.336L123.692 328.264C124.037 328.202 124.381 328.14 124.726 328.078C129.983 326.927 134.118 320.745 132.883 315.671L147.45 311.827C147.352 311.918 147.33 311.974 147.366 312.051Z" fill="url(#paint32_linear)"/>
<path d="M147.191 341.866C148.729 341.457 149.64 339.882 149.225 338.347C148.81 336.812 147.226 335.9 145.687 336.309C144.148 336.718 143.238 338.294 143.653 339.829C144.068 341.363 145.652 342.276 147.191 341.866Z" fill="#475B73"/>
<path d="M144.896 333.462C146.435 333.053 147.346 331.478 146.931 329.943C146.515 328.408 144.931 327.496 143.393 327.905C141.854 328.314 140.944 329.89 141.359 331.425C141.774 332.959 143.358 333.872 144.896 333.462Z" fill="#475B73"/>
<path d="M160.067 389.42C161.605 389.011 162.516 387.435 162.101 385.9C161.686 384.366 160.102 383.454 158.563 383.863C157.025 384.272 156.114 385.848 156.529 387.382C156.944 388.917 158.528 389.829 160.067 389.42Z" fill="#043C5E"/>
<path d="M157.841 381.222C159.38 380.813 160.291 379.237 159.875 377.702C159.46 376.168 157.876 375.255 156.338 375.664C154.799 376.074 153.888 377.649 154.304 379.184C154.719 380.718 156.303 381.631 157.841 381.222Z" fill="#01898C"/>
<path d="M55.9799 314.791C55.9799 314.791 102.094 374.975 112.587 395.705C135.891 381.74 149.587 370.054 149.587 370.054C149.587 370.054 103.264 288.145 95.2249 287.611C87.3141 290.636 87.4544 290.54 55.9799 314.791Z" fill="#6680A1"/>
<path d="M83.8346 300.704C87.4067 305.151 95.062 306.1 98.7683 302.652C109.702 305.373 138.346 360.819 138.346 360.819L138.276 360.867C133.701 363.725 132.76 370.371 135.612 374.743L122.53 383.803C119.276 379.294 113.11 378.564 108.535 381.422C108.464 381.47 108.464 381.47 108.394 381.517L66.9738 324.041C67.2434 323.909 67.5831 323.729 67.8637 323.538C72.4386 320.68 74.221 313.46 71.3102 309.077L83.6904 300.495C83.7274 300.623 83.7755 300.693 83.8346 300.704Z" fill="url(#paint33_linear)"/>
<path d="M110.857 353.003C116.305 349.229 117.642 341.766 113.842 336.335C110.043 330.903 102.546 329.56 97.0975 333.334C91.6492 337.109 90.3125 344.572 94.1121 350.003C97.9116 355.434 105.408 356.778 110.857 353.003Z" fill="white"/>
<path d="M93.7559 328.87C95.0635 327.964 95.3843 326.173 94.4724 324.869C93.5605 323.566 91.7613 323.243 90.4537 324.149C89.1461 325.055 88.8253 326.846 89.7372 328.15C90.6491 329.453 92.4483 329.776 93.7559 328.87Z" fill="#6680A1"/>
<path d="M88.7786 321.708C90.0862 320.802 90.407 319.011 89.4951 317.707C88.5833 316.404 86.784 316.081 85.4764 316.987C84.1688 317.893 83.848 319.684 84.7599 320.988C85.6718 322.291 87.471 322.614 88.7786 321.708Z" fill="#6680A1"/>
<path d="M122.008 369.276C123.315 368.371 123.636 366.58 122.724 365.276C121.812 363.972 120.013 363.65 118.706 364.556C117.398 365.462 117.077 367.253 117.989 368.556C118.901 369.86 120.7 370.182 122.008 369.276Z" fill="#043C5E"/>
<path d="M117.157 362.311C118.465 361.405 118.785 359.614 117.873 358.311C116.962 357.007 115.162 356.685 113.855 357.591C112.547 358.496 112.226 360.287 113.138 361.591C114.05 362.895 115.849 363.217 117.157 362.311Z" fill="#6680A1"/>
<path d="M43.6281 378.691C43.6281 378.691 113.255 409.111 132.531 422.168C146.122 398.645 152.393 381.85 152.393 381.85C152.393 381.85 71.9196 332.583 64.6631 336.034C59.1674 342.496 59.3188 342.342 43.6281 378.691Z" fill="#475B73"/>
<path d="M61.1187 352.975C66.3958 355.183 73.553 352.261 75.1193 347.498C86.004 344.606 138.005 379.274 138.005 379.274C137.994 379.332 137.994 379.332 137.924 379.38C135.331 384.072 137.759 390.375 142.39 392.767L135.367 407.044C130.301 404.693 124.61 406.976 122.005 411.726C121.994 411.785 121.983 411.844 121.924 411.833L57.7829 381.528C57.9563 381.256 58.1297 380.984 58.3141 380.653C60.9075 375.961 58.9514 368.772 54.2615 366.369L60.8932 352.871C60.9413 352.941 61.0004 352.952 61.1187 352.975Z" fill="url(#paint34_linear)"/>
<path d="M110.167 385.656C113.088 379.721 110.62 372.542 104.654 369.624C98.6878 366.705 91.4831 369.15 88.5616 375.086C85.6402 381.022 88.1083 388.2 94.0743 391.119C100.04 394.038 107.245 391.592 110.167 385.656Z" fill="white"/>
<path d="M83.4941 372.796C84.1952 371.372 83.6028 369.649 82.171 368.948C80.7391 368.248 79.01 368.835 78.3089 370.259C77.6077 371.684 78.2001 373.407 79.6319 374.107C81.0638 374.808 82.7929 374.221 83.4941 372.796Z" fill="#6680A1"/>
<path d="M75.642 368.965C76.3432 367.541 75.7508 365.818 74.3189 365.118C72.8871 364.417 71.1579 365.004 70.4568 366.429C69.7556 367.853 70.348 369.576 71.7799 370.276C73.2117 370.977 74.9409 370.39 75.642 368.965Z" fill="#6680A1"/>
<path d="M127.901 394.542C128.602 393.118 128.01 391.395 126.578 390.694C125.146 389.994 123.417 390.581 122.716 392.005C122.014 393.43 122.607 395.153 124.039 395.853C125.47 396.554 127.2 395.967 127.901 394.542Z" fill="#043C5E"/>
<path d="M120.225 390.795C120.926 389.37 120.334 387.648 118.902 386.947C117.47 386.247 115.741 386.834 115.04 388.258C114.339 389.683 114.931 391.406 116.363 392.106C117.795 392.807 119.524 392.22 120.225 390.795Z" fill="#01898C"/>
<path d="M130.563 436.786H91.2003V452.985H130.563V436.786Z" fill="#F04637"/>
<path d="M185.813 436.786H153.861V452.985H185.813V436.786Z" fill="#FF7B7C"/>
<path d="M161.211 436.786H130.563V452.985H161.211V436.786Z" fill="#FF5C5D"/>
<path d="M186.465 453.691H90.5482V436.197H186.465V453.691ZM91.8524 452.395H185.22V437.434H91.8524V452.395Z" fill="#F04637"/>
<path d="M141.234 420.587H101.871V436.786H141.234V420.587Z" fill="#F04637"/>
<path d="M196.543 420.587H164.59V436.786H196.543V420.587Z" fill="#FF7B7C"/>
<path d="M171.882 420.587H141.234V436.786H171.882V420.587Z" fill="#FF5C5D"/>
<path d="M197.136 437.433H101.219V419.938H197.136V437.433ZM102.523 436.196H195.891V421.234H102.523V436.196Z" fill="#F04637"/>
<path d="M122.738 404.329H83.3752V420.528H122.738V404.329Z" fill="#F04637"/>
<path d="M177.988 404.329H146.036V420.528H177.988V404.329Z" fill="#FF7B7C"/>
<path d="M153.386 404.329H122.738V420.528H153.386V404.329Z" fill="#FF5C5D"/>
<path d="M178.64 421.235H82.7231V403.74H178.64V421.235ZM83.9681 419.939H177.336V404.977H83.9681V419.939Z" fill="#F04637"/>
<path d="M129.496 388.13H90.1333V404.329H129.496V388.13Z" fill="#F04637"/>
<path d="M184.806 388.13H152.853V404.329H184.806V388.13Z" fill="#FF7B7C"/>
<path d="M160.145 388.13H129.496V404.329H160.145V388.13Z" fill="#FF5C5D"/>
<path d="M185.398 404.977H89.4812V387.482H185.398V404.977ZM90.7854 403.74H184.153V388.778H90.7854V403.74Z" fill="#F04637"/>
<path d="M137.914 371.872H98.5513V388.071H137.914V371.872Z" fill="#F04637"/>
<path d="M193.224 371.872H161.271V388.071H193.224V371.872Z" fill="#FF7B7C"/>
<path d="M168.622 371.872H137.973V388.071H168.622V371.872Z" fill="#FF5C5D"/>
<path d="M193.876 388.778H97.9584V371.283H193.876V388.778ZM99.2033 387.482H192.571V372.52H99.2033V387.482Z" fill="#F04637"/>
<path d="M168.795 367.604C168.795 367.604 169.649 368.779 173.597 369.74C174.45 369.953 175.411 370.06 175.411 371.555C173.597 371.555 171.569 371.555 171.569 371.555L167.621 370.914V371.555H165.487C165.487 371.555 164.847 368.031 166.127 367.604C167.194 367.604 168.795 367.604 168.795 367.604Z" fill="#1C2C57"/>
<path d="M169.008 365.042L168.795 367.604C168.048 368.138 166.981 368.138 166.127 367.711L166.021 367.604V365.042H169.008Z" fill="#FAB08A"/>
<path d="M148.948 368.031C148.948 368.031 149.802 369.206 153.75 370.167C154.603 370.38 155.564 370.487 155.564 371.982C153.75 371.982 151.722 371.982 151.722 371.982L147.774 371.341V371.982H145.64C145.64 371.982 145 368.458 146.281 368.031C147.241 368.031 148.948 368.031 148.948 368.031Z" fill="#1C2C57"/>
<path d="M149.055 365.575L148.841 368.138C148.095 368.672 147.027 368.672 146.174 368.245L146.067 368.138V365.575H149.055Z" fill="#FAB08A"/>
<path d="M170.609 303.216L169.649 366.43H165.061C165.061 366.43 158.018 315.389 159.512 303.216C161.006 291.043 170.609 303.216 170.609 303.216Z" fill="#1C2C57"/>
<path d="M165.701 303.216C165.701 303.216 164.1 322.65 160.365 333.434C156.738 344.219 150.015 366.536 150.015 366.536H145.213C145.213 366.536 153.216 319.873 151.402 303.322H165.701V303.216Z" fill="#083B5E"/>
<path d="M169.862 270.968C169.862 270.968 175.518 284.209 177.011 284.209C178.185 284.209 176.585 273.424 176.585 273.424H181.386C181.386 273.424 187.362 291.897 182.56 295.314C177.758 298.731 167.408 285.704 167.408 285.704L169.862 270.968Z" fill="url(#paint35_linear)"/>
<path d="M152.896 304.817L154.604 309.089C155.457 310.797 158.445 310.797 160.472 310.263C160.792 310.156 160.899 309.836 160.686 309.622C159.619 308.448 156.738 305.244 155.671 304.604L152.896 304.817Z" fill="#FAB08A"/>
<path d="M165.167 268.192C166.981 268.192 168.795 269.153 169.756 270.754C170.076 271.288 170.289 271.929 170.289 272.57C170.289 274.919 170.289 303.216 170.289 303.216H152.896V274.598C152.896 274.598 153.216 268.192 159.512 268.192C162.18 268.192 163.994 268.192 165.167 268.192Z" fill="url(#paint36_linear)"/>
<path d="M169.969 303.216V275.666L170.609 275.773V303.216H169.969Z" fill="#85CFC5"/>
<path d="M158.765 262.426L160.579 269.366C160.579 269.366 162.179 270.648 164.207 270.114C166.341 269.58 165.914 268.085 165.914 268.085L164.74 263.6H161.433L158.765 262.426Z" fill="#F79C82"/>
<path d="M165.487 264.775C166.127 264.561 166.661 264.348 166.981 263.92C168.048 260.503 163.78 253.029 163.78 253.029L157.378 256.019L158.551 261.464C158.872 262.959 159.832 264.134 161.219 264.668C162.606 265.202 164.1 265.202 165.487 264.775Z" fill="#FAB08A"/>
<path d="M160.472 255.378C160.472 255.378 162.82 255.164 165.061 254.203C167.301 253.136 165.061 251 165.061 251C165.061 251 163.567 252.281 160.259 252.602C158.125 252.815 157.378 252.602 156.311 253.67C154.71 255.164 156.097 258.261 156.097 258.261L158.978 264.988L159.405 264.881C159.405 264.881 158.445 260.717 158.018 259.329C158.231 258.581 158.658 258.475 159.085 258.581C159.512 258.688 159.832 259.009 159.939 259.436L161.859 266.697C161.859 266.697 166.981 267.444 168.048 266.803C169.115 266.163 166.875 260.931 166.875 260.931C166.875 260.931 165.381 260.717 164.634 262.105C163.887 263.493 162.286 262.639 162.286 262.639L160.472 255.378Z" fill="#1C2C57"/>
<path d="M180.319 273.424L180.106 272.463C179.786 270.434 177.758 267.978 175.838 267.231H173.81L174.451 271.502L177.332 273.317H180.319V273.424Z" fill="#FAB08A"/>
<path d="M158.445 258.474C158.978 258.261 159.619 258.688 159.832 259.329C160.152 259.969 159.939 260.61 159.405 260.824C158.872 261.037 158.231 260.61 158.018 259.969C157.698 259.329 157.911 258.688 158.445 258.474Z" fill="#FAB08A"/>
<path d="M175.411 271.181L179.359 273.424H176.905L172.743 269.9C172.743 269.9 173.063 269.259 174.024 269.793C174.877 270.327 175.411 271.181 175.411 271.181Z" fill="#FAB08A"/>
<path d="M154.817 270.114C154.817 270.114 145 281.005 145 287.519C145 294.033 153.003 305.565 153.003 305.565L156.951 304.39C156.951 304.39 153.43 290.082 153.43 286.344C153.43 282.5 160.686 276.948 160.686 276.948" fill="url(#paint37_linear)"/>
<path d="M153.643 286.451C153.643 289.761 156.524 301.614 157.164 304.39C156.951 304.39 156.844 304.497 156.631 304.497C155.777 301.08 153.11 289.548 153.11 286.344C153.11 282.5 160.259 276.948 160.472 276.734L160.792 277.161C160.686 277.375 153.643 282.821 153.643 286.451Z" fill="#85CFC5"/>
<path d="M172.85 264.668C172.85 264.668 172.53 268.939 175.624 272.036C175.838 272.249 176.051 272.356 176.371 272.356C177.011 272.356 177.332 272.143 177.652 271.929C178.078 271.715 178.292 271.502 178.399 271.288C178.505 271.075 178.399 270.861 178.292 270.754C177.652 270.007 175.731 267.551 176.158 265.095C174.557 264.027 172.85 264.668 172.85 264.668Z" fill="#006769"/>
<path d="M177.972 271.715C178.292 271.502 178.292 271.395 178.399 271.182C178.505 270.968 178.399 270.754 178.292 270.648C177.652 269.9 175.731 267.444 176.158 264.988C175.624 264.668 175.091 264.561 174.557 264.454C174.771 267.124 175.518 268.726 177.972 271.715Z" fill="#118C8C"/>
<path d="M176.288 268.673C176.512 268.597 176.539 268.083 176.35 267.525C176.16 266.966 175.826 266.575 175.602 266.651C175.379 266.727 175.352 267.241 175.541 267.799C175.731 268.358 176.065 268.749 176.288 268.673Z" fill="#006769"/>
<path d="M175.624 266.59H175.838V266.697L175.624 266.804V266.59Z" fill="#F89B4B"/>
<path d="M176.264 268.726L176.585 268.619H176.264V268.726Z" fill="#EF4366"/>
<path d="M176.478 268.565C176.701 268.489 176.729 267.975 176.539 267.416C176.35 266.858 176.015 266.467 175.792 266.542C175.569 266.618 175.541 267.132 175.731 267.691C175.92 268.249 176.255 268.64 176.478 268.565Z" fill="#58C4C5"/>
<path d="M171.356 261.251L170.929 261.358C170.076 261.465 169.435 262.212 169.542 263.066L169.649 264.241C169.756 265.095 170.609 265.629 171.463 265.522L171.89 265.415L171.356 261.251Z" fill="#006769"/>
<path d="M184.595 266.973C185.531 266.856 185.951 264.057 185.533 260.721C185.115 257.386 184.018 254.778 183.082 254.895C182.147 255.012 181.727 257.811 182.145 261.146C182.563 264.482 183.66 267.09 184.595 266.973Z" fill="#1C2C57"/>
<path d="M181.813 258.902L183.307 259.649L183.521 261.571L182.347 262.959L181.493 260.503L181.813 258.902Z" fill="white"/>
<path d="M182.24 261.144C181.92 258.368 182.133 255.912 182.774 255.164C177.652 259.969 171.143 261.358 171.143 261.358L171.676 265.629C171.676 265.629 180.533 264.027 184.268 266.803C183.414 266.163 182.56 263.92 182.24 261.144Z" fill="#F04637"/>
<path d="M183.54 261.551C183.657 261.536 183.698 261.097 183.632 260.571C183.566 260.044 183.418 259.629 183.301 259.644C183.184 259.658 183.142 260.097 183.208 260.624C183.274 261.15 183.423 261.565 183.54 261.551Z" fill="#FFD052"/>
<path d="M178.185 270.327C178.079 270.327 177.545 270.648 175.944 270.648C174.771 270.648 174.237 269.259 174.13 268.512C174.024 268.192 174.024 267.871 174.344 267.658L176.158 267.444L178.185 270.327Z" fill="#FAB08A"/>
<path d="M103.723 346.235C105.375 348.161 108.273 348.394 110.182 346.755C112.138 345.076 112.265 342.176 110.648 340.292L107.611 336.753C107.297 336.388 106.75 336.344 106.388 336.655L101.429 340.912L100.781 340.157C100.468 339.792 99.9209 339.748 99.5591 340.059C99.1972 340.369 99.1578 340.917 99.471 341.282L100.119 342.036L98.6219 343.321L97.9742 342.567C97.661 342.202 97.1137 342.158 96.7519 342.468C96.3901 342.779 96.3506 343.327 96.6638 343.691L97.3115 344.446L95.8614 345.691C95.4995 346.001 95.4601 346.549 95.7733 346.914C96.0864 347.279 96.6337 347.323 96.9955 347.012L98.4457 345.767L100.916 348.645C101.229 349.01 101.776 349.054 102.138 348.743C102.5 348.433 102.539 347.885 102.226 347.52L99.7561 344.643L101.253 343.358L103.723 346.235L103.723 346.235ZM106.867 338.539L109.337 341.416C110.355 342.602 110.252 344.4 109.048 345.434C107.861 346.452 106.06 346.307 105.033 345.111L102.563 342.233L106.867 338.539Z" fill="#6680A1" stroke="#6680A1" stroke-width="0.5"/>
<path d="M260.466 396.042C261.312 396.042 262 395.36 262 394.521C262 393.662 261.294 393 260.466 393H258.912C258.752 393 258.622 393.129 258.622 393.288V395.466H258.29C258.13 395.466 258 395.595 258 395.754C258 395.913 258.13 396.042 258.29 396.042H258.622V396.699H258.29C258.13 396.699 258 396.828 258 396.987C258 397.146 258.13 397.275 258.29 397.275H258.622V397.912C258.622 398.071 258.752 398.2 258.912 398.2C259.072 398.2 259.202 398.071 259.202 397.912V397.275H260.466C260.627 397.275 260.757 397.146 260.757 396.987C260.757 396.828 260.627 396.699 260.466 396.699H259.202V396.042H260.466V396.042ZM259.202 393.576H260.466C260.987 393.576 261.42 393.992 261.42 394.521C261.42 395.042 260.992 395.466 260.466 395.466H259.202V393.576Z" fill="#FF7B7C"/>
<defs>
<linearGradient id="paint0_linear" x1="508.936" y1="55.5933" x2="395.913" y2="55.5933" gradientUnits="userSpaceOnUse">
<stop stop-color="#D6EDE5"/>
<stop offset="1" stop-color="#B1E1EA"/>
</linearGradient>
<linearGradient id="paint1_linear" x1="43.6993" y1="116.823" x2="254.581" y2="116.823" gradientUnits="userSpaceOnUse">
<stop stop-color="#D6EDE5"/>
<stop offset="1" stop-color="#B1E1EA"/>
</linearGradient>
<linearGradient id="paint2_linear" x1="67.8677" y1="47.1437" x2="116.113" y2="47.1437" gradientUnits="userSpaceOnUse">
<stop stop-color="#D6EDE5"/>
<stop offset="1" stop-color="#B1E1EA"/>
</linearGradient>
<linearGradient id="paint3_linear" x1="62.2616" y1="52.8955" x2="115.812" y2="52.8955" gradientUnits="userSpaceOnUse">
<stop stop-color="#D6EDE5"/>
<stop offset="1" stop-color="#B1E1EA"/>
</linearGradient>
<linearGradient id="paint4_linear" x1="519.753" y1="118.857" x2="557.09" y2="109.159" gradientUnits="userSpaceOnUse">
<stop stop-color="#D6EDE5"/>
<stop offset="1" stop-color="#B1E1EA"/>
</linearGradient>
<linearGradient id="paint5_linear" x1="522.157" y1="128.111" x2="551.16" y2="120.577" gradientUnits="userSpaceOnUse">
<stop stop-color="#D6EDE5"/>
<stop offset="1" stop-color="#B1E1EA"/>
</linearGradient>
<linearGradient id="paint6_linear" x1="223.951" y1="288.66" x2="249.678" y2="288.66" gradientUnits="userSpaceOnUse">
<stop stop-color="#D6EDE5"/>
<stop offset="1" stop-color="#B1E1EA"/>
</linearGradient>
<linearGradient id="paint7_linear" x1="279.755" y1="288.66" x2="306.085" y2="288.66" gradientUnits="userSpaceOnUse">
<stop stop-color="#D6EDE5"/>
<stop offset="1" stop-color="#B1E1EA"/>
</linearGradient>
<linearGradient id="paint8_linear" x1="223.951" y1="308.923" x2="249.678" y2="308.923" gradientUnits="userSpaceOnUse">
<stop stop-color="#D6EDE5"/>
<stop offset="1" stop-color="#B1E1EA"/>
</linearGradient>
<linearGradient id="paint9_linear" x1="279.755" y1="308.923" x2="306.085" y2="308.923" gradientUnits="userSpaceOnUse">
<stop stop-color="#D6EDE5"/>
<stop offset="1" stop-color="#B1E1EA"/>
</linearGradient>
<linearGradient id="paint10_linear" x1="223.951" y1="329.113" x2="249.678" y2="329.113" gradientUnits="userSpaceOnUse">
<stop stop-color="#D6EDE5"/>
<stop offset="1" stop-color="#B1E1EA"/>
</linearGradient>
<linearGradient id="paint11_linear" x1="279.755" y1="329.113" x2="306.085" y2="329.113" gradientUnits="userSpaceOnUse">
<stop stop-color="#D6EDE5"/>
<stop offset="1" stop-color="#B1E1EA"/>
</linearGradient>
<linearGradient id="paint12_linear" x1="223.951" y1="349.377" x2="249.678" y2="349.377" gradientUnits="userSpaceOnUse">
<stop stop-color="#D6EDE5"/>
<stop offset="1" stop-color="#B1E1EA"/>
</linearGradient>
<linearGradient id="paint13_linear" x1="279.755" y1="349.377" x2="306.085" y2="349.377" gradientUnits="userSpaceOnUse">
<stop stop-color="#D6EDE5"/>
<stop offset="1" stop-color="#B1E1EA"/>
</linearGradient>
<linearGradient id="paint14_linear" x1="223.951" y1="369.374" x2="249.678" y2="369.374" gradientUnits="userSpaceOnUse">
<stop stop-color="#D6EDE5"/>
<stop offset="1" stop-color="#B1E1EA"/>
</linearGradient>
<linearGradient id="paint15_linear" x1="279.755" y1="369.374" x2="306.085" y2="369.374" gradientUnits="userSpaceOnUse">
<stop stop-color="#D6EDE5"/>
<stop offset="1" stop-color="#B1E1EA"/>
</linearGradient>
<linearGradient id="paint16_linear" x1="223.951" y1="389.637" x2="249.678" y2="389.637" gradientUnits="userSpaceOnUse">
<stop stop-color="#D6EDE5"/>
<stop offset="1" stop-color="#B1E1EA"/>
</linearGradient>
<linearGradient id="paint17_linear" x1="279.755" y1="389.637" x2="306.085" y2="389.637" gradientUnits="userSpaceOnUse">
<stop stop-color="#D6EDE5"/>
<stop offset="1" stop-color="#B1E1EA"/>
</linearGradient>
<linearGradient id="paint18_linear" x1="223.951" y1="409.828" x2="249.678" y2="409.828" gradientUnits="userSpaceOnUse">
<stop stop-color="#D6EDE5"/>
<stop offset="1" stop-color="#B1E1EA"/>
</linearGradient>
<linearGradient id="paint19_linear" x1="279.755" y1="409.828" x2="306.085" y2="409.828" gradientUnits="userSpaceOnUse">
<stop stop-color="#D6EDE5"/>
<stop offset="1" stop-color="#B1E1EA"/>
</linearGradient>
<linearGradient id="paint20_linear" x1="223.951" y1="430.091" x2="249.678" y2="430.091" gradientUnits="userSpaceOnUse">
<stop stop-color="#D6EDE5"/>
<stop offset="1" stop-color="#B1E1EA"/>
</linearGradient>
<linearGradient id="paint21_linear" x1="279.755" y1="430.091" x2="306.085" y2="430.091" gradientUnits="userSpaceOnUse">
<stop stop-color="#D6EDE5"/>
<stop offset="1" stop-color="#B1E1EA"/>
</linearGradient>
<linearGradient id="paint22_linear" x1="148.895" y1="111.635" x2="137.996" y2="111.635" gradientUnits="userSpaceOnUse">
<stop stop-color="#D6EDE5"/>
<stop offset="1" stop-color="#B1E1EA"/>
</linearGradient>
<linearGradient id="paint23_linear" x1="153.434" y1="122.465" x2="132.38" y2="122.465" gradientUnits="userSpaceOnUse">
<stop stop-color="#D6EDE5"/>
<stop offset="1" stop-color="#B1E1EA"/>
</linearGradient>
<linearGradient id="paint24_linear" x1="251.357" y1="389.266" x2="230.943" y2="389.266" gradientUnits="userSpaceOnUse">
<stop stop-color="#D6EDE5"/>
<stop offset="1" stop-color="#B1E1EA"/>
</linearGradient>
<linearGradient id="paint25_linear" x1="256.446" y1="394.168" x2="233.448" y2="394.168" gradientUnits="userSpaceOnUse">
<stop stop-color="#D6EDE5"/>
<stop offset="1" stop-color="#B1E1EA"/>
</linearGradient>
<linearGradient id="paint26_linear" x1="331.315" y1="103.744" x2="354.69" y2="103.744" gradientUnits="userSpaceOnUse">
<stop stop-color="#B1E1EA"/>
<stop offset="1" stop-color="#D6EDE5"/>
</linearGradient>
<linearGradient id="paint27_linear" x1="331.185" y1="102.276" x2="358.044" y2="102.276" gradientUnits="userSpaceOnUse">
<stop stop-color="#B1E1EA"/>
<stop offset="1" stop-color="#D6EDE5"/>
</linearGradient>
<linearGradient id="paint28_linear" x1="379.338" y1="353.513" x2="395.739" y2="412.374" gradientUnits="userSpaceOnUse">
<stop stop-color="#D6EDE5"/>
<stop offset="1" stop-color="#B1E1EA"/>
</linearGradient>
<linearGradient id="paint29_linear" x1="442.095" y1="229.977" x2="471.249" y2="235.113" gradientUnits="userSpaceOnUse">
<stop stop-color="#D6EDE5"/>
<stop offset="1" stop-color="#B1E1EA"/>
</linearGradient>
<linearGradient id="paint30_linear" x1="465.146" y1="241.188" x2="485.988" y2="241.188" gradientUnits="userSpaceOnUse">
<stop stop-color="#D6EDE5"/>
<stop offset="1" stop-color="#B1E1EA"/>
</linearGradient>
<linearGradient id="paint31_linear" x1="467.21" y1="242.934" x2="490.849" y2="242.934" gradientUnits="userSpaceOnUse">
<stop stop-color="#D6EDE5"/>
<stop offset="1" stop-color="#B1E1EA"/>
</linearGradient>
<linearGradient id="paint32_linear" x1="164.678" y1="400.84" x2="141.43" y2="313.384" gradientUnits="userSpaceOnUse">
<stop stop-color="#C0E4EF"/>
<stop offset="0.3314" stop-color="#DFEFEB"/>
</linearGradient>
<linearGradient id="paint33_linear" x1="130.276" y1="378.45" x2="78.7052" y2="304.006" gradientUnits="userSpaceOnUse">
<stop stop-color="#E0F0EB"/>
<stop offset="1" stop-color="#C0E4EF"/>
</linearGradient>
<linearGradient id="paint34_linear" x1="139.536" y1="398.582" x2="58.1263" y2="358.511" gradientUnits="userSpaceOnUse">
<stop stop-color="#C0E4EF"/>
<stop offset="0.3314" stop-color="#DFEFEB"/>
</linearGradient>
<linearGradient id="paint35_linear" x1="167.317" y1="283.455" x2="184.339" y2="283.455" gradientUnits="userSpaceOnUse">
<stop stop-color="#D6EDE5"/>
<stop offset="1" stop-color="#B1E1EA"/>
</linearGradient>
<linearGradient id="paint36_linear" x1="152.921" y1="285.698" x2="170.28" y2="285.698" gradientUnits="userSpaceOnUse">
<stop stop-color="#D6EDE5"/>
<stop offset="1" stop-color="#B1E1EA"/>
</linearGradient>
<linearGradient id="paint37_linear" x1="144.955" y1="287.887" x2="160.599" y2="287.887" gradientUnits="userSpaceOnUse">
<stop stop-color="#D6EDE5"/>
<stop offset="1" stop-color="#B1E1EA"/>
</linearGradient>
</defs>
</svg>
