<svg width="597" height="440" viewBox="0 0 597 440" fill="none" xmlns="http://www.w3.org/2000/svg">
<path d="M431.417 110.42C431.417 110.42 426.117 98.2815 420.169 95C417.384 96.4662 416.027 100.436 416.027 100.436C416.027 100.436 418.572 106.59 414.61 110.909C410.638 115.227 431.417 110.42 431.417 110.42Z" fill="#ACC1D6"/>
<path d="M424.081 112.046C427.884 111.397 431.297 110.599 431.297 110.599C431.297 110.599 425.997 98.4609 420.049 95.1794C419.4 95.5186 418.832 95.9973 418.343 96.5259C422.684 100.216 423.812 108.914 424.081 112.046Z" fill="#6680A1"/>
<path d="M470.749 135.205C467.795 112.105 447.595 109.383 447.595 109.383C447.595 109.383 439.62 108.146 436.706 109.702C433.792 111.248 427.794 109.961 427.794 109.961C427.794 109.961 425.688 109.582 423.203 109.343V109.283C423.123 109.293 423.043 109.303 422.963 109.313C422.883 109.303 422.804 109.303 422.724 109.293V109.353C420.259 109.732 418.183 110.24 418.183 110.24C418.183 110.24 412.274 111.876 409.27 110.5C406.266 109.123 399.27 110.789 399.27 110.789C399.27 110.789 379.699 116.215 378.601 139.474C377.483 163.013 399.1 176.049 399.559 176.308C399.559 176.308 411.725 177.376 424.72 177.326V177.336C424.8 177.336 424.88 177.326 424.959 177.326C425.039 177.326 425.119 177.326 425.199 177.326V177.316C438.173 176.608 454.681 174.713 454.681 174.713C454.681 174.713 474.103 161.447 470.749 135.205Z" fill="#FF6D6E"/>
<path d="M470.749 135.205C467.795 112.105 447.595 109.383 447.595 109.383C447.595 109.383 439.621 108.146 436.706 109.702C433.792 111.248 427.794 109.961 427.794 109.961C427.794 109.961 425.688 109.582 423.203 109.343V109.283C423.123 109.293 423.043 109.303 422.963 109.313C422.884 109.303 422.804 109.303 422.724 109.293V109.353C420.259 109.732 418.183 110.24 418.183 110.24C418.183 110.24 412.444 111.826 409.41 110.559C406.985 114.529 404.919 118.708 403.152 123.007C402.574 124.603 402.025 126.209 401.516 127.825C399.09 135.535 397.454 143.474 396.446 151.483C396.246 153.568 396.086 155.662 395.967 157.757C395.667 163.083 395.647 168.429 395.917 173.765C397.993 175.391 399.43 176.259 399.55 176.328C399.55 176.328 411.716 177.396 424.71 177.346V177.356C424.79 177.356 424.87 177.346 424.95 177.346C425.029 177.346 425.109 177.346 425.189 177.346V177.336C438.163 176.628 454.671 174.733 454.671 174.733C454.671 174.733 474.103 161.447 470.749 135.205Z" fill="#FF8889"/>
<path d="M470.749 135.205C467.795 112.105 447.595 109.383 447.595 109.383C447.595 109.383 439.621 108.146 436.706 109.702C433.792 111.248 427.794 109.961 427.794 109.961C427.794 109.961 425.688 109.582 423.203 109.343V109.283C423.123 109.293 423.043 109.303 422.963 109.313C422.884 109.303 422.804 109.303 422.724 109.293V109.353C420.259 109.732 418.183 110.24 418.183 110.24C418.183 110.24 415.279 111.048 412.514 111.048C413.123 113.113 413.632 115.207 414.041 117.322C414.61 120.284 415.039 123.286 415.378 126.279C415.568 127.934 415.688 129.59 415.748 131.256C415.907 135.914 415.428 140.472 414.889 145.1C414.52 148.331 413.911 151.543 413.093 154.695C411.925 159.223 410.258 163.552 408.562 167.9C407.394 170.893 406.057 173.825 404.59 176.688C409.34 176.987 416.865 177.366 424.7 177.336V177.346C424.78 177.346 424.86 177.336 424.939 177.336C425.019 177.336 425.099 177.336 425.179 177.336V177.326C438.153 176.618 454.661 174.723 454.661 174.723C454.661 174.723 474.103 161.447 470.749 135.205Z" fill="#FF7B7C"/>
<path d="M383.701 141.848C384.809 118.589 404.38 113.153 404.38 113.153C404.38 113.153 419.69 110.35 422.684 111.736C425.688 113.113 425.359 111.926 427.824 111.547V111.667C427.904 111.677 427.983 111.687 428.063 111.687C428.143 111.677 428.223 111.667 428.303 111.647V111.707C430.788 111.946 432.894 112.325 432.894 112.325C432.894 112.325 438.892 113.612 441.806 112.066C444.72 110.51 452.695 111.746 452.695 111.746C452.695 111.746 453.613 111.866 455.09 112.285C450.679 109.961 447.046 109.462 447.046 109.462C447.046 109.462 439.072 108.226 436.157 109.782C433.243 111.338 427.245 110.041 427.245 110.041C427.245 110.041 425.139 109.652 422.654 109.422V109.363C422.574 109.373 422.494 109.383 422.414 109.403C422.335 109.393 422.255 109.383 422.175 109.383V109.442C419.71 109.821 417.634 110.33 417.634 110.33C417.634 110.33 411.726 111.966 408.721 110.589C405.727 109.213 398.721 110.879 398.721 110.879C398.721 110.879 379.15 116.305 378.042 139.564C376.924 163.103 398.541 176.139 399.001 176.398C399.001 176.398 399.969 176.478 401.665 176.598C395.657 172.05 382.832 160.111 383.701 141.848Z" fill="#F14539"/>
<path d="M470.54 134.936C467.595 111.836 447.385 109.113 447.385 109.113C447.385 109.113 439.411 107.876 436.497 109.432C433.582 110.978 427.584 109.692 427.584 109.692C427.584 109.692 425.488 109.303 422.993 109.073V109.014C422.913 109.024 422.834 109.033 422.754 109.053C422.674 109.043 422.594 109.043 422.514 109.033V109.093C420.049 109.472 417.973 109.981 417.973 109.981C417.973 109.981 416.007 110.53 413.761 110.719C455.31 120.673 426.896 176.947 426.896 176.947C439.511 176.169 454.451 174.453 454.451 174.453C454.451 174.453 473.883 161.178 470.54 134.936Z" fill="#FF6D6E"/>
<path d="M464.172 135.804C461.228 112.704 441.018 109.981 441.018 109.981C441.018 109.981 433.044 108.744 430.129 110.3C427.215 111.846 421.217 110.559 421.217 110.559C421.217 110.559 420.947 110.51 420.498 110.44C422.744 111.008 425.488 111.647 428.802 112.365C466.577 120.573 442.615 175.909 442.615 175.909C445.958 175.56 448.094 175.311 448.094 175.311C448.094 175.311 467.526 162.046 464.172 135.804Z" fill="#FF5C5D"/>
<path d="M470.59 135.295C467.636 112.195 447.435 109.472 447.435 109.472C447.435 109.472 439.461 108.236 436.547 109.792C433.633 111.348 427.634 110.051 427.634 110.051C427.634 110.051 425.528 109.662 423.043 109.433V109.373C422.964 109.383 422.884 109.393 422.804 109.413C422.724 109.403 422.644 109.403 422.564 109.393V109.452C420.099 109.831 418.023 110.34 418.023 110.34C418.023 110.34 416.866 110.659 415.319 110.899C417.804 111.727 423.163 112.245 432.924 112.175C474.712 111.876 446.467 175.211 446.467 175.211L446.477 175.67C451.238 175.192 454.501 174.822 454.501 174.822C454.501 174.822 473.933 161.537 470.59 135.295Z" fill="#F04637"/>
<path d="M397.094 207.168H549.684V191.15H397.094V207.168Z" fill="url(#paint0_linear)"/>
<path d="M503.045 152.431C476.827 144.84 460.549 156.779 460.549 156.779L499.403 157.248C499.403 157.248 499.403 155.184 503.045 152.431Z" fill="#053C5E"/>
<path d="M394.06 175.161H548.097C548.097 175.161 555.722 175.161 560.672 185.056C564.963 193.623 561.82 209.921 560.901 213.811H549.284V213.542C549.284 202.5 540.322 193.544 529.274 193.544C518.226 193.544 509.263 202.5 509.263 213.542V213.811H437.085V213.542C437.085 202.5 428.123 193.544 417.075 193.544C406.027 193.544 397.064 202.5 397.064 213.542V213.811H394.05C394.05 213.811 394.05 205.193 394.05 193.085C394.06 180.976 394.06 175.161 394.06 175.161Z" fill="#475B73"/>
<path d="M508.714 175.162H478.104L480.29 155.174H498.035L508.714 175.162Z" fill="white"/>
<path d="M457.964 175.7C457.296 176.618 455.868 178.543 454.611 180.109C452.904 182.253 452.794 186.662 452.794 186.662V213.771L509.263 213.881V175.7H457.964Z" fill="#25374B"/>
<path d="M521.729 175.161C521.729 175.161 508.425 152.43 503.035 152.43C499.592 154.405 499.393 155.173 499.393 155.173L508.704 175.161H521.729Z" fill="url(#paint1_linear)"/>
<path d="M499.403 155.183C488.085 151.154 474.771 152.381 466.298 153.717C461.458 154.485 457.895 158.654 457.895 163.552V175.161H478.115H508.714L499.403 155.183Z" fill="#212B53"/>
<path d="M495.52 157.258C486.927 154.196 476.827 155.134 470.39 156.151C466.717 156.729 464.012 159.901 464.012 163.622V172.439H479.362H502.586L495.52 157.258Z" fill="url(#paint2_linear)"/>
<path d="M464.791 188.267C467.133 188.267 469.032 187.79 469.032 187.2C469.032 186.611 467.133 186.133 464.791 186.133C462.448 186.133 460.549 186.611 460.549 187.2C460.549 187.79 462.448 188.267 464.791 188.267Z" fill="url(#paint3_linear)"/>
<path d="M529.354 229.999C538.592 229.999 546.081 222.515 546.081 213.282C546.081 204.05 538.592 196.566 529.354 196.566C520.116 196.566 512.627 204.05 512.627 213.282C512.627 222.515 520.116 229.999 529.354 229.999Z" fill="#212B53"/>
<path d="M416.925 229.999C426.163 229.999 433.652 222.515 433.652 213.282C433.652 204.05 426.163 196.566 416.925 196.566C407.687 196.566 400.198 204.05 400.198 213.282C400.198 222.515 407.687 229.999 416.925 229.999Z" fill="#212B53"/>
<path d="M552.059 181.575C552.418 181.276 552.877 181.156 553.396 181.166L558.885 187.839C558.805 188.347 558.586 188.776 558.227 189.076C557.009 190.073 554.654 189.195 552.947 187.131C551.24 185.066 550.841 182.572 552.059 181.575Z" fill="url(#paint4_linear)"/>
<path d="M529.274 223.845C535.111 223.845 539.843 219.116 539.843 213.282C539.843 207.449 535.111 202.72 529.274 202.72C523.437 202.72 518.705 207.449 518.705 213.282C518.705 219.116 523.437 223.845 529.274 223.845Z" fill="#01888B"/>
<path d="M529.274 223.845C535.111 223.845 539.843 219.116 539.843 213.282C539.843 207.449 535.111 202.72 529.274 202.72C523.437 202.72 518.705 207.449 518.705 213.282C518.705 219.116 523.437 223.845 529.274 223.845Z" fill="#ACC1D6"/>
<path d="M416.925 223.845C422.762 223.845 427.494 219.116 427.494 213.282C427.494 207.449 422.762 202.72 416.925 202.72C411.088 202.72 406.356 207.449 406.356 213.282C406.356 219.116 411.088 223.845 416.925 223.845Z" fill="#ACC1D6"/>
<path d="M509.533 175.162L499.602 154.406L498.315 154.954L507.846 175.162H509.533Z" fill="#053C5E"/>
<path d="M504.236 176.366C504.391 173.787 502.96 171.603 501.039 171.488C499.119 171.373 497.437 173.37 497.282 175.949C497.128 178.528 498.559 180.712 500.479 180.827C502.4 180.942 504.082 178.945 504.236 176.366Z" fill="#63C0C4"/>
<path d="M567.598 215.387H550.163C549.654 215.387 549.234 214.968 549.234 214.46V210.829C549.234 210.32 549.654 209.901 550.163 209.901H567.598C568.107 209.901 568.526 210.32 568.526 210.829V214.46C568.526 214.968 568.107 215.387 567.598 215.387Z" fill="#212B53"/>
<path d="M584.352 237.314L579.188 237.302C578.502 237.373 577.734 237.574 577.604 238.165C577.604 238.165 577.51 238.554 577.533 238.956C577.711 239.169 584.565 238.932 584.565 238.932L584.6 238.909C585.31 238.023 584.352 237.314 584.352 237.314Z" fill="#12375A"/>
<path d="M577.522 238.956L584.553 238.92L584.494 239.192H577.51L577.522 238.956Z" fill="#212B53"/>
<path d="M582.296 237.302H581.835L581.977 237.94H582.438L582.296 237.302Z" fill="white"/>
<path d="M581.303 237.302H580.842L580.984 237.94H581.433L581.303 237.302Z" fill="white"/>
<path d="M584.707 235.59L584.352 237.314C583.939 237.527 583.395 237.539 582.97 237.35L582.887 237.314L582.639 235.59H584.707Z" fill="#F7B58E"/>
<path d="M596.43 237.314L591.266 237.302C590.58 237.373 589.812 237.574 589.682 238.165C589.682 238.165 589.588 238.554 589.611 238.956C589.788 239.169 596.643 238.932 596.643 238.932L596.678 238.909C597.387 238.023 596.43 237.314 596.43 237.314Z" fill="#212B53"/>
<path d="M589.599 238.956L596.631 238.92L596.572 239.192H589.588L589.599 238.956Z" fill="#212B53"/>
<path d="M594.374 237.302H593.913L594.055 237.94H594.516L594.374 237.302Z" fill="white"/>
<path d="M593.381 237.302H592.92L593.062 237.94H593.511L593.381 237.302Z" fill="white"/>
<path d="M596.206 235.59L596.43 237.314C596.016 237.527 595.473 237.539 595.047 237.35L594.965 237.314L594.137 235.59H596.206Z" fill="#F7B58E"/>
<path d="M588.489 177.742L592.743 180.518L591.431 183.884C591.408 183.931 591.384 183.978 591.372 184.025C591.278 184.025 591.183 184.014 591.089 184.014C591.077 184.014 591.053 184.014 591.041 184.014C591.03 184.014 591.018 184.014 590.994 184.014C589.86 184.014 588.879 184.71 588.276 185.655C587.591 185.608 586.905 185.431 586.267 185.136C585.83 184.935 585.452 184.687 585.322 184.415C584.872 182.018 588.489 177.742 588.489 177.742Z" fill="#F7B58E"/>
<path d="M583.076 178.604C583.076 178.604 582.556 183.541 583.608 186.683C583.123 187.108 581.327 189.021 580.772 186.541C580.204 184.061 581.398 177.73 581.398 177.73L583.076 178.604Z" fill="#F7B58E"/>
<path d="M585.629 178.262L586.633 178.899L586.279 179.655L585.203 179.183L585.629 178.262Z" fill="#212B53"/>
<path d="M586.552 179.31C586.652 179.083 586.66 178.867 586.57 178.828C586.48 178.788 586.327 178.94 586.227 179.167C586.127 179.394 586.119 179.61 586.209 179.649C586.299 179.689 586.452 179.537 586.552 179.31Z" fill="#212B53"/>
<path d="M573.551 174.624C573.551 174.612 573.551 174.601 573.551 174.601C573.74 174.175 574.071 173.49 574.52 172.864C575.241 171.849 575.454 171.341 575.454 171.341L585.794 178.108L585.121 179.372L573.551 175.097C573.563 174.931 573.563 174.778 573.551 174.624Z" fill="#053C5E"/>
<path d="M589.434 185.643L589.8 187.97H586.515L586.279 185.124L589.434 185.643Z" fill="#F39F85"/>
<path d="M580.937 191.407C580.937 191.407 577.049 190.167 575.832 188.501C574.614 186.836 576.671 177.742 576.671 177.742L576.399 176.1C576.245 175.179 576.954 174.341 577.888 174.329L578.928 174.317C579.365 174.317 579.649 174.754 579.471 175.155L578.101 178.226C578.101 178.226 577.072 185.124 578.514 185.643C580.228 186.257 582.166 186.399 582.166 186.399L580.937 191.407Z" fill="#F7B58E"/>
<path d="M588.229 185.643L589.233 183.423L588.583 183.01C588.099 182.714 587.898 182.112 588.075 181.581L588.784 179.49C588.784 179.49 586.763 179.242 586.823 177.352C586.823 176.384 588.158 176.372 588.158 176.372C588.158 176.372 588.56 177.234 589.801 177.341C590.332 177.27 591.798 177.47 592.779 179.195C593.441 180.352 593.157 182.159 592.578 183.529C592.058 184.746 590.734 185.431 589.434 185.632H588.229V185.643Z" fill="#12375A"/>
<path d="M592.188 204.257C592.188 204.257 591.987 208.981 590.959 214.107C590.663 215.618 590.77 217.177 591.266 218.63C593.582 225.515 596.844 235.885 596.844 235.885H593.949C593.949 235.885 587.39 223.638 585.7 217.567C584.01 211.496 583.726 209.56 583.726 209.56L585.735 204.257H592.188Z" fill="#475B73"/>
<path d="M589.765 182.396C589.883 182.75 589.647 183.211 589.221 183.423C588.808 183.648 588.37 183.541 588.252 183.187C588.134 182.833 588.37 182.372 588.796 182.159C589.221 181.947 589.647 182.053 589.765 182.396Z" fill="#F7B58E"/>
<path d="M582.745 204.256H592.176V192.163C592.176 189.517 590.155 187.297 587.519 187.049L580.961 186.257C580.961 186.257 580.192 187.438 578.042 190.178C580.63 191.773 583.62 192.505 583.62 192.505L582.745 204.256Z" fill="#ACC1D6"/>
<path d="M592.188 204.257C592.188 204.257 590.852 209.075 585.936 214.484C585.12 215.299 583.927 217 584.104 219.398L585.12 235.885H582.19C582.19 235.885 578.609 222.197 579.389 215.441C580.157 208.697 582.769 204.257 582.769 204.257H592.188Z" fill="#6680A1"/>
<path d="M575.119 173.499C575.627 172.448 575.761 171.462 575.42 171.297C575.079 171.133 574.392 171.853 573.884 172.904C573.377 173.956 573.242 174.942 573.583 175.106C573.924 175.271 574.612 174.551 575.119 173.499Z" fill="#63C0C4"/>
<path d="M583.49 176.596L583.407 176.644C583.1 176.785 582.745 176.809 582.426 176.703L582.367 176.679C581.835 176.502 581.422 176.077 581.244 175.545C581.173 175.309 581.374 175.073 581.623 175.132L582.273 175.274C582.533 175.333 582.745 175.474 582.899 175.699L583.49 176.596Z" fill="#F7B58E"/>
<path d="M483.073 187.887L485.969 193.332L482.778 193.178L482.553 187.71L483.073 187.887Z" fill="#F7B58E"/>
<path d="M478.535 185.466H481.206L482.317 202.721H477.531L478.535 185.466Z" fill="white"/>
<path d="M473.631 236.133C473.631 236.133 472.969 236.653 473.087 237.314C473.206 237.975 473.383 239.523 473.383 239.523H474.056L474.033 238.082C474.033 237.987 475.486 239.523 475.735 239.523H479.327C479.327 239.523 479.564 238.554 477.46 238.235C475.356 237.916 473.631 236.133 473.631 236.133Z" fill="#053C5E"/>
<path d="M475.191 235.472L475.676 236.735C475.794 237.078 476.03 237.373 476.337 237.574C476.68 237.798 477.212 238.094 478.016 238.33C477.035 239.168 475.487 238.294 474.6 237.68C474.163 237.385 473.856 236.936 473.738 236.428L473.537 235.472H475.191Z" fill="#F7B58E"/>
<path d="M480.473 236.133C480.473 236.133 479.811 236.653 479.93 237.314C480.048 237.975 480.225 239.523 480.225 239.523H480.899L480.875 238.082C480.875 237.987 482.329 239.523 482.577 239.523H486.17C486.17 239.523 486.406 238.554 484.302 238.235C482.199 237.916 480.473 236.133 480.473 236.133Z" fill="#053C5E"/>
<path d="M482.033 235.472L482.518 236.735C482.636 237.078 482.872 237.373 483.179 237.574C483.522 237.798 484.054 238.094 484.858 238.33C483.877 239.168 482.329 238.294 481.442 237.68C481.005 237.385 480.698 236.936 480.58 236.428L480.379 235.472H482.033Z" fill="#F7B58E"/>
<path d="M476.491 202.721C476.491 202.721 476.042 205.296 478.618 217.98C476.526 224.582 479.871 235.637 479.871 235.637H482.317L483.983 202.721H476.491Z" fill="#475B73"/>
<path d="M480.911 185.466L481.773 206.406L484.645 205.178C484.645 205.178 483.357 201.245 483.475 195.788C483.038 191.844 485.283 193.922 482.53 186.316C481.513 185.466 480.911 185.466 480.911 185.466Z" fill="#00666B"/>
<path d="M481.289 183.305L480.958 185.064C480.804 185.844 479.93 186.222 479.256 185.809L478.074 185.064L480.178 180.317L481.289 183.305Z" fill="#F39F85"/>
<path d="M474.139 202.721C474.139 202.721 470.948 205.296 473.525 217.98C471.433 224.582 473.276 235.637 473.276 235.637H475.463L481.62 202.721H474.139Z" fill="#6680A1"/>
<path d="M478.535 183.695C478.535 183.695 475.841 185.206 475.002 186.565C474.198 187.852 473.926 190.793 473.844 193.403C473.737 196.993 472 206.418 472 206.418H479.244L479.422 185.903L478.535 183.695Z" fill="#00666B"/>
<path d="M483.853 178.014C482.222 177.6 480.639 179.277 480.639 179.277L479.41 185.903L477.519 182.986C477.519 182.986 477.413 179.029 479.244 176.407C480.556 174.825 483.073 175.274 484.338 176.821C484.952 177.577 485.082 178.604 485.023 179.561C484.941 180.836 484.574 188.194 484.574 188.194L480.828 185.419C480.828 185.419 480.923 184.675 481.277 183.317C481.903 180.966 484.952 178.285 483.853 178.014Z" fill="#212B53"/>
<path d="M480.154 179.171C480.391 179.077 480.71 179.23 480.852 179.537C480.993 179.833 480.911 180.163 480.674 180.258C480.438 180.352 480.119 180.199 479.977 179.892C479.835 179.596 479.918 179.266 480.154 179.171Z" fill="#F7B58E"/>
<path d="M481.915 183.624C482.222 183.73 482.518 183.801 482.719 183.73C484.137 182.702 484.657 178.581 484.657 178.581L483.534 177.388L481.289 177.884L480.178 180.34C479.882 180.99 479.918 181.746 480.272 182.372C480.686 182.927 481.253 183.376 481.915 183.624Z" fill="#F7B58E"/>
<path d="M484.231 177.931C484.113 179.171 480.651 179.277 480.651 179.277L480.473 177.588L482.494 176.478L484.09 177.435C484.09 177.435 484.255 177.718 484.231 177.931Z" fill="#212B53"/>
<path d="M484.161 178.167C484.042 178.628 484.515 179.443 484.515 179.443L484.787 178.947L484.775 178.521L484.503 178.191C484.503 178.179 484.267 177.706 484.161 178.167Z" fill="#212B53"/>
<path d="M475.735 186.564C472.236 186.978 473.891 195.989 474.635 199.698C474.825 200.607 475.758 201.162 476.645 200.89C479.694 199.934 484.137 195.942 484.137 195.942L483.428 195.056L477.519 196.438C477.531 196.426 479.788 186.092 475.735 186.564Z" fill="#F7B58E"/>
<path d="M482.731 192.93L481.584 199.993C481.549 200.194 481.714 200.383 481.915 200.383H486.453C486.619 200.383 486.761 200.265 486.784 200.099L487.907 193.036C487.942 192.836 487.777 192.647 487.576 192.647H483.073C482.908 192.647 482.766 192.777 482.731 192.93Z" fill="#F04637"/>
<path d="M487.753 196.06C487.777 195.812 487.753 195.659 487.67 195.139C487.564 194.466 487.588 193.426 486.902 193.946C486.252 194.761 486.181 195.611 486.181 195.611C486.051 196.084 486.335 196.745 486.607 197.099L487.08 198.127C487.091 198.139 487.907 197.194 487.753 196.06Z" fill="#F7B58E"/>
<path d="M485.142 195.741C485.331 195.741 485.484 195.588 485.484 195.399C485.484 195.209 485.331 195.056 485.142 195.056C484.952 195.056 484.799 195.209 484.799 195.399C484.799 195.588 484.952 195.741 485.142 195.741Z" fill="white"/>
<path d="M273.248 381.677H324.834C324.834 381.677 321.798 129.535 299.041 129.535C276.284 129.535 273.248 381.677 273.248 381.677Z" fill="#ACC1D6"/>
<path d="M330.934 118.707H269.934C264.53 118.707 260.101 123.133 260.101 128.533C260.101 133.934 264.53 138.36 269.934 138.36H330.934V118.707Z" fill="#ACC1D6"/>
<path d="M327.657 138.251C333.086 138.163 337.417 133.693 337.33 128.267C337.242 122.841 332.77 118.513 327.34 118.6C321.91 118.688 317.579 123.157 317.667 128.584C317.754 134.01 322.227 138.338 327.657 138.251Z" fill="#475B73"/>
<path d="M327.703 131.066C327.786 111.581 316.115 90.5363 295.587 76.9521C275.059 63.368 251.132 60.8627 233.222 68.5177L327.703 131.066Z" fill="#475B73"/>
<path d="M330.015 129.312C314.444 141.031 304.723 163.022 306.283 187.574C307.843 212.125 320.321 232.697 337.257 242.328L330.015 129.312Z" fill="#475B73"/>
<path d="M328.288 128.728C345.669 137.552 369.734 136.578 391.07 124.357C412.434 112.137 425.442 91.8724 426.612 72.4426L328.288 128.728Z" fill="#475B73"/>
<path d="M144.508 381.649H206.26C206.26 381.649 202.639 79.8469 175.37 79.8469C148.101 79.8469 144.508 381.649 144.508 381.649Z" fill="#ACC1D6"/>
<path d="M213.557 66.9036H140.552C134.063 66.9036 128.77 72.1925 128.77 78.6783C128.77 85.1642 134.063 90.4531 140.552 90.4531H213.557V66.9036Z" fill="#ACC1D6"/>
<path d="M212.666 90.4248C219.158 90.4248 224.42 85.1655 224.42 78.6779C224.42 72.1902 219.158 66.9309 212.666 66.9309C206.174 66.9309 200.912 72.1902 200.912 78.6779C200.912 85.1655 206.174 90.4248 212.666 90.4248Z" fill="#6680A1"/>
<path d="M212.889 81.8515C213.362 58.5525 199.798 33.1379 175.481 16.4917C151.193 -0.154434 122.587 -3.63398 101 5.21799L212.889 81.8515Z" fill="#6680A1"/>
<path d="M215.674 79.7913C196.817 93.5146 184.756 119.653 186.149 149.076C187.57 178.499 202.082 203.357 222.164 215.215L215.674 79.7913Z" fill="#6680A1"/>
<path d="M213.613 79.0676C234.253 89.9516 263.054 89.2557 288.847 75.0313C314.639 60.8069 330.599 36.8398 332.41 13.5964L213.613 79.0676Z" fill="#6680A1"/>
<path d="M11.7189 124.529H136.531C137.114 122.763 137.2 120.808 136.702 118.664C130.799 92.9899 100.544 109.711 100.544 109.711C100.544 109.711 100.681 83.6431 66.6512 91.4636C32.621 99.2841 35.1436 111.135 35.1436 111.135C35.1436 111.135 15.1511 100.193 8.49263 115.885C7.17124 118.99 8.5956 121.871 11.7189 124.529Z" fill="url(#paint5_linear)"/>
<path d="M385 48.3082H507.186C507.186 48.3082 513.81 39.9389 507.186 34.2965C503.531 31.1923 499.206 31.501 496.083 32.4272C494.041 33.0274 491.999 31.6382 491.552 29.5631C490.815 26.1159 488.515 21.6054 481.942 18.9471C475.473 16.3231 471.371 20.3363 469.003 24.4352C468.231 25.79 466.154 25.5842 465.674 24.0922C463.614 17.6094 456.475 9 432.982 9C403.105 9 406.434 24.8639 409.094 31.4667C409.557 32.6158 408.579 33.7992 407.361 33.5419C402.762 32.5644 394.198 31.2781 390.371 34.2965C385 38.5155 385 48.3082 385 48.3082Z" fill="url(#paint6_linear)"/>
<path d="M533.147 86.6648L535.584 91.4325L530.47 90.2663L513 84.7783L533.147 86.6648Z" fill="#AFD8C7"/>
<path d="M535.584 91.4324L526.901 90.9008L529.029 89.8203L535.584 91.4324Z" fill="#63C0C4"/>
<path d="M533.147 86.6648L534.657 82L513 84.7783L533.147 86.6648Z" fill="url(#paint7_linear)"/>
<path d="M513 84.7783L530.47 90.2664L527.861 96.9892L513 84.7783Z" fill="url(#paint8_linear)"/>
<path d="M533.662 96.2518C533.713 96.2346 533.748 96.2003 533.782 96.1489C533.937 95.9774 533.919 95.7201 533.748 95.5658C533.216 95.1027 532.632 94.6911 532.032 94.331C531.843 94.2109 531.585 94.2795 531.465 94.4682C531.345 94.6568 531.414 94.9141 531.603 95.0341C532.169 95.36 532.701 95.7544 533.199 96.1832C533.336 96.3032 533.525 96.3204 533.662 96.2518Z" fill="#63C0C4"/>
<path d="M527.312 140.825C527.192 140.637 527.261 140.379 527.45 140.259C528.548 139.608 529.56 138.733 530.436 137.67C530.573 137.498 530.83 137.464 531.002 137.618C531.174 137.755 531.208 138.013 531.053 138.184C530.11 139.333 529.028 140.259 527.844 140.962C527.844 140.962 527.827 140.962 527.827 140.98C527.656 141.082 527.415 141.014 527.312 140.825ZM531.963 136.246C531.774 136.143 531.706 135.886 531.809 135.697C532.478 134.531 532.975 133.279 533.284 131.993C533.336 131.77 533.559 131.633 533.782 131.701C534.005 131.753 534.142 131.976 534.074 132.199C533.731 133.571 533.216 134.891 532.512 136.126C532.478 136.195 532.409 136.246 532.34 136.28C532.238 136.315 532.083 136.315 531.963 136.246ZM534.039 130.055C533.816 130.038 533.645 129.849 533.662 129.626L533.679 129.438C533.748 128.203 533.679 126.899 533.473 125.596C533.439 125.373 533.593 125.167 533.816 125.133C534.039 125.099 534.245 125.253 534.28 125.476C534.486 126.831 534.554 128.186 534.486 129.472L534.469 129.678C534.451 129.832 534.366 129.952 534.245 130.021C534.194 130.038 534.125 130.055 534.039 130.055ZM533.473 123.504C533.25 123.555 533.027 123.435 532.975 123.212C532.649 121.977 532.203 120.691 531.654 119.37C531.568 119.165 531.671 118.924 531.877 118.839C532.083 118.753 532.323 118.856 532.409 119.062C532.976 120.417 533.439 121.737 533.765 123.006C533.816 123.195 533.731 123.383 533.559 123.469C533.525 123.486 533.507 123.504 533.473 123.504ZM531.174 117.347C530.968 117.45 530.727 117.364 530.624 117.158C530.573 117.055 530.521 116.952 530.47 116.849C530.041 117.021 529.595 117.158 529.149 117.295C528.926 117.364 528.702 117.227 528.651 117.004C528.582 116.781 528.72 116.558 528.943 116.506C529.337 116.403 529.732 116.266 530.11 116.129C529.681 115.323 529.217 114.483 528.685 113.574C528.565 113.385 528.634 113.128 528.84 113.025C529.028 112.905 529.286 112.973 529.389 113.179C529.938 114.122 530.419 114.997 530.865 115.837C531.465 115.563 532.032 115.254 532.564 114.894C532.752 114.774 533.01 114.826 533.13 115.014C533.25 115.203 533.199 115.46 533.01 115.58C532.444 115.957 531.843 116.283 531.225 116.575C531.277 116.661 531.311 116.746 531.362 116.849C531.465 117.004 531.38 117.244 531.174 117.347C531.191 117.347 531.191 117.347 531.174 117.347ZM534.4 113.917C534.245 113.762 534.228 113.505 534.4 113.333C534.983 112.733 535.481 112.099 535.893 111.396C536.15 110.967 536.373 110.504 536.562 110.041C536.648 109.835 536.888 109.732 537.094 109.818C537.3 109.903 537.403 110.144 537.317 110.349C537.111 110.864 536.871 111.344 536.579 111.807C536.133 112.562 535.601 113.248 534.966 113.899C534.932 113.934 534.898 113.951 534.863 113.985C534.726 114.054 534.537 114.037 534.4 113.917ZM526.66 117.741C525.202 117.861 523.794 117.758 522.439 117.415C522.216 117.364 522.095 117.141 522.147 116.918C522.198 116.695 522.421 116.575 522.645 116.626C523.914 116.952 525.236 117.055 526.609 116.935C526.832 116.918 527.038 117.089 527.055 117.312C527.072 117.484 526.969 117.638 526.832 117.707C526.763 117.724 526.712 117.741 526.66 117.741ZM537.557 108.223C537.334 108.188 537.18 107.965 537.231 107.743C537.454 106.456 537.472 105.119 537.266 103.764C537.231 103.541 537.386 103.335 537.609 103.301C537.832 103.266 538.038 103.421 538.072 103.644C538.278 105.084 538.278 106.508 538.038 107.88C538.021 108.017 537.935 108.12 537.815 108.171C537.729 108.223 537.643 108.24 537.557 108.223ZM520.036 116.506C519.71 116.335 519.384 116.146 519.075 115.957C518.183 115.374 517.393 114.62 516.776 113.762C516.638 113.574 516.69 113.316 516.861 113.196C517.05 113.059 517.307 113.111 517.428 113.282C517.994 114.071 518.715 114.757 519.521 115.271C519.796 115.46 520.105 115.632 520.414 115.786C520.62 115.889 520.688 116.129 520.585 116.335C520.551 116.421 520.482 116.472 520.414 116.506C520.293 116.575 520.156 116.575 520.036 116.506ZM527.415 111.464C526.54 110.109 525.734 109.115 524.893 108.36C524.721 108.206 524.704 107.948 524.858 107.777C525.013 107.605 525.27 107.605 525.442 107.743C526.334 108.549 527.192 109.595 528.102 111.018C528.222 111.207 528.17 111.464 527.982 111.584C527.964 111.584 527.965 111.601 527.947 111.601C527.759 111.687 527.535 111.636 527.415 111.464ZM537.214 101.706C537.008 101.774 536.768 101.671 536.699 101.448C536.494 100.882 536.27 100.316 535.996 99.7677C535.67 99.116 535.275 98.4986 534.846 97.9326C534.709 97.7611 534.743 97.5039 534.932 97.3667C535.121 97.2295 535.361 97.2638 535.498 97.4524C535.962 98.0698 536.373 98.7215 536.717 99.4075C537.008 99.9735 537.266 100.574 537.472 101.191C537.54 101.38 537.454 101.603 537.266 101.688C537.249 101.688 537.231 101.706 537.214 101.706ZM516.141 111.687C515.917 111.739 515.694 111.601 515.643 111.396C515.351 110.229 515.471 109.115 515.969 108.137C516.158 107.794 516.381 107.468 516.673 107.177C516.827 107.022 517.084 107.005 517.256 107.177C517.41 107.331 517.428 107.588 517.256 107.76C517.033 107.983 516.844 108.24 516.69 108.531C516.278 109.337 516.175 110.229 516.432 111.207C516.484 111.396 516.381 111.584 516.226 111.67C516.192 111.67 516.175 111.687 516.141 111.687ZM522.953 107.039C521.804 106.508 520.397 106.388 519.195 106.679C518.972 106.731 518.749 106.611 518.698 106.388C518.646 106.165 518.783 105.942 518.989 105.89C520.396 105.53 521.958 105.684 523.297 106.302C523.503 106.388 523.588 106.645 523.503 106.851C523.468 106.936 523.4 107.005 523.314 107.039C523.211 107.091 523.074 107.091 522.953 107.039Z" fill="#63C0C4"/>
<path d="M525.545 141.974C525.717 141.889 525.802 141.683 525.751 141.494C525.682 141.271 525.459 141.151 525.253 141.22C524.635 141.391 523.983 141.511 523.331 141.546C523.108 141.563 522.936 141.751 522.954 141.974C522.971 142.197 523.16 142.369 523.383 142.352C524.086 142.317 524.79 142.197 525.476 141.991C525.494 141.991 525.528 141.991 525.545 141.974Z" fill="#63C0C4"/>
<path d="M121.037 214.228L106.914 206.442L99.7062 205.001L94.249 205.79L121.037 214.228Z" fill="url(#paint9_linear)"/>
<path d="M121.037 214.228L94.5922 207.436L94.249 205.79" fill="#AFD8C7"/>
<path d="M93.8372 211.964L93.8715 212.015L94.9698 216.131L120.969 214.228L93.8372 211.964Z" fill="#63C0C4"/>
<path d="M88.7747 209.563L92.5501 206.493L120.866 214.176L96.4971 213.456L88.7747 209.563Z" fill="url(#paint10_linear)"/>
<path d="M29.2776 261.94C30.1357 261.631 30.9937 261.271 31.8174 260.842C32.0062 260.739 32.2293 260.825 32.3323 261.014C32.4352 261.202 32.3494 261.425 32.1607 261.528C31.3026 261.974 30.4102 262.351 29.5179 262.677C29.1918 262.797 28.8658 262.9 28.5397 263.003C28.4196 263.037 28.2994 263.02 28.1965 262.952C28.1278 262.9 28.0763 262.831 28.0592 262.746C27.9905 262.54 28.1107 262.334 28.3166 262.266C28.6598 262.145 28.9687 262.043 29.2776 261.94Z" fill="#63C0C4"/>
<path d="M81.0523 206.699C82.2535 206.853 83.5063 207.042 84.862 207.299C85.0679 207.334 85.2052 207.539 85.1709 207.745C85.1366 207.951 84.9306 208.088 84.7247 208.054C83.369 207.797 82.1334 207.608 80.9493 207.454C80.8806 207.437 80.8292 207.419 80.7777 207.385C80.6747 207.299 80.6061 207.162 80.6232 207.025C80.6576 206.819 80.8463 206.665 81.0523 206.699Z" fill="#63C0C4"/>
<path d="M74.6339 206.991C74.5481 206.922 74.4795 206.819 74.4795 206.682C74.4795 206.476 74.6511 206.305 74.857 206.287C76.0926 206.27 77.3969 206.322 78.7354 206.442C78.9413 206.459 79.1129 206.648 79.0786 206.853C79.0615 207.059 78.8727 207.231 78.6668 207.196C77.3454 207.093 76.0755 207.042 74.857 207.042C74.7884 207.076 74.7026 207.042 74.6339 206.991Z" fill="#63C0C4"/>
<path d="M36.6913 257.309C36.8457 257.155 37.086 257.155 37.2404 257.309C37.3949 257.463 37.3777 257.704 37.2404 257.858C36.3137 258.767 35.2841 259.59 34.2029 260.328C34.0656 260.413 33.894 260.413 33.7567 260.31C33.7224 260.293 33.6881 260.259 33.6709 260.208C33.5508 260.036 33.6023 259.796 33.7739 259.676C34.8207 258.99 35.7989 258.184 36.6913 257.309Z" fill="#63C0C4"/>
<path d="M38.2871 256.177C38.1154 256.04 38.0983 255.8 38.2356 255.629C38.4587 255.371 38.6646 255.097 38.8705 254.823C39.4197 254.085 39.9173 253.313 40.3464 252.507C40.4493 252.319 40.6724 252.25 40.8612 252.353C41.05 252.456 41.1186 252.696 41.0156 252.867C40.5695 253.691 40.0546 254.497 39.4883 255.269C39.2824 255.56 39.0593 255.834 38.8362 256.109C38.6989 256.28 38.4587 256.315 38.2871 256.177C38.2871 256.195 38.2871 256.195 38.2871 256.177Z" fill="#63C0C4"/>
<path d="M41.5133 250.981C41.479 250.964 41.4618 250.947 41.4275 250.929C41.2902 250.827 41.2387 250.638 41.3074 250.466C41.7707 249.352 42.1483 248.185 42.4743 246.865C42.5258 246.659 42.7317 246.539 42.9377 246.59C43.1436 246.642 43.2637 246.848 43.2122 247.054C42.869 248.408 42.4743 249.609 42.011 250.758C41.9423 250.964 41.7192 251.067 41.5133 250.981Z" fill="#63C0C4"/>
<path d="M51.707 218.207C51.381 218.601 51.0721 218.996 50.7804 219.407C50.3342 220.025 49.888 220.659 49.4933 221.294C49.3732 221.465 49.1501 221.534 48.9613 221.414L48.9441 221.397C48.7897 221.277 48.7382 221.054 48.8412 220.882C49.253 220.231 49.6992 219.579 50.1626 218.944C50.4715 218.533 50.7804 218.121 51.1236 217.727C51.2609 217.555 51.4839 217.521 51.6727 217.675C51.81 217.812 51.8443 218.053 51.707 218.207Z" fill="#63C0C4"/>
<path d="M48.3605 223.266C47.777 224.398 47.2622 225.564 46.8332 226.73C46.7645 226.936 46.5414 227.039 46.3355 226.953C46.3012 226.936 46.2669 226.919 46.2326 226.902C46.0953 226.799 46.0438 226.627 46.0953 226.456C46.5243 225.255 47.0563 224.055 47.6569 222.889C47.7599 222.7 47.983 222.631 48.1717 222.734C48.3777 222.837 48.4463 223.077 48.3605 223.266Z" fill="#63C0C4"/>
<path d="M55.9971 213.936C55.0189 214.742 54.0751 215.6 53.217 216.509C53.0797 216.646 52.8567 216.663 52.7022 216.56C52.685 216.543 52.685 216.543 52.6679 216.526C52.5134 216.372 52.5134 216.132 52.6507 215.977C53.5431 215.051 54.5041 214.159 55.4994 213.336C55.6711 213.199 55.9113 213.216 56.0486 213.388C56.1859 213.559 56.1687 213.799 55.9971 213.936Z" fill="#63C0C4"/>
<path d="M63.0847 209.563C62.9474 209.614 62.8101 209.597 62.7072 209.529C62.6557 209.494 62.6042 209.443 62.587 209.374C62.5012 209.186 62.5871 208.946 62.7758 208.86C63.9599 208.328 65.1955 207.882 66.4311 207.522C66.637 207.471 66.843 207.574 66.9116 207.779C66.9803 207.985 66.8601 208.191 66.6542 208.26C65.4358 208.603 64.2345 209.048 63.0847 209.563Z" fill="#63C0C4"/>
<path d="M44.1391 239.027C44.0704 239.027 44.0018 238.993 43.9503 238.958C43.8473 238.873 43.7787 238.753 43.7958 238.598L43.8473 238.118C43.9675 237.003 44.1047 235.889 44.242 234.774C44.2764 234.568 44.4651 234.414 44.6711 234.448C44.877 234.482 45.0314 234.671 44.9971 234.877C44.8427 235.974 44.7225 237.089 44.6024 238.204L44.5509 238.684C44.5509 238.89 44.3622 239.044 44.1391 239.027Z" fill="#63C0C4"/>
<path d="M57.8162 212.547C57.679 212.65 57.4902 212.633 57.3701 212.547C57.3357 212.53 57.3014 212.496 57.2843 212.462C57.1641 212.29 57.1984 212.05 57.3701 211.93C58.434 211.175 59.5495 210.489 60.6821 209.889C60.8709 209.786 61.094 209.855 61.1969 210.043C61.2999 210.232 61.2313 210.455 61.0425 210.558C59.927 211.158 58.8459 211.827 57.8162 212.547Z" fill="#63C0C4"/>
<path d="M43.9674 240.553C44.1733 240.588 44.3278 240.776 44.2934 240.982C44.1047 242.474 43.9159 243.692 43.71 244.807C43.6756 245.012 43.4697 245.15 43.2638 245.115C43.2123 245.098 43.1436 245.081 43.1093 245.047C42.9892 244.961 42.9377 244.824 42.9549 244.669C43.1608 243.572 43.3496 242.371 43.5384 240.896C43.5555 240.673 43.7614 240.519 43.9674 240.553Z" fill="#63C0C4"/>
<path d="M26.1371 262.78C26.343 262.746 26.549 262.883 26.5833 263.089C26.6176 263.295 26.4803 263.5 26.2744 263.535C25.0731 263.775 23.8204 263.929 22.4132 264.032C22.3102 264.032 22.2244 264.015 22.1557 263.964C22.0699 263.895 22.0013 263.792 22.0013 263.689C21.9841 263.483 22.1386 263.295 22.3617 263.278C23.7346 263.175 24.9701 263.02 26.1371 262.78Z" fill="#63C0C4"/>
<path d="M45.8894 228.428C46.0953 228.48 46.2155 228.685 46.164 228.891C45.8551 230.023 45.5977 231.241 45.3746 232.613C45.3403 232.819 45.1343 232.956 44.9284 232.922C44.8598 232.904 44.8083 232.887 44.7568 232.853C44.6367 232.767 44.5852 232.63 44.6023 232.476C44.8426 231.086 45.1 229.835 45.4089 228.685C45.4604 228.497 45.6835 228.377 45.8894 228.428Z" fill="#63C0C4"/>
<path d="M71.1846 206.528C71.6308 206.476 72.077 206.425 72.5403 206.39C72.7463 206.373 72.935 206.528 72.9522 206.751C72.9694 206.956 72.8149 207.145 72.5918 207.162C72.1456 207.197 71.7166 207.231 71.2704 207.282C70.4639 207.385 69.6401 207.505 68.8336 207.677C68.7134 207.694 68.6105 207.677 68.5247 207.608C68.456 207.557 68.4046 207.471 68.3702 207.385C68.3187 207.179 68.456 206.974 68.662 206.922C69.52 206.768 70.3609 206.631 71.1846 206.528Z" fill="#63C0C4"/>
<path d="M157.949 326.421C157.949 326.421 175.912 270.401 142.68 242.84C77.8839 278.99 113.554 342.574 113.554 342.574L157.949 326.421Z" fill="#D2DEEC"/>
<path d="M142.809 242.84C142.552 242.968 142.424 243.096 142.167 243.224L138.189 312.448L107.267 282.195C107.138 282.708 107.01 283.092 106.882 283.605L138.189 314.115L137.035 334.113L138.318 333.6L140.627 293.732L162.183 281.041C162.183 280.528 162.055 280.144 162.055 279.631L140.756 292.194L143.578 243.352C143.193 243.096 142.937 242.968 142.809 242.84Z" fill="white"/>
<path d="M142.68 313.602C142.68 313.602 121.637 258.864 80.7066 253.479C51.0671 293.219 90.4581 333.087 90.4581 333.087L137.804 352.957L142.68 313.602Z" fill="#475B73"/>
<path d="M120.098 276.811L108.293 300.013L81.733 253.608C81.3481 253.608 81.0915 253.479 80.7065 253.479C80.5782 253.608 80.4499 253.736 80.3216 253.992L94.564 278.862L70.8267 273.99C70.8267 274.247 70.6984 274.375 70.6984 274.631L70.5701 275.272L95.3338 280.4L119.328 321.678L77.4988 314.499C77.7554 315.012 78.012 315.525 78.2686 315.909L120.226 323.088L137.163 352.573L137.933 352.957L138.061 351.675L109.063 301.295L120.996 277.836C120.739 277.452 120.482 277.067 120.098 276.811Z" fill="white"/>
<path d="M128.694 337.83C128.694 337.83 87.892 310.654 60.947 329.626C64.7963 396.671 150.507 396.415 150.507 396.415L128.694 337.83Z" fill="#6680A1"/>
<path d="M60.947 329.626C60.947 329.882 60.947 330.139 60.947 330.395L118.815 362.828L85.3258 376.416C85.7108 376.673 86.0957 377.057 86.4806 377.314L120.226 363.597L142.809 376.288L142.167 374.365L98.1568 349.752L90.5865 323.344C90.0733 323.344 89.6884 323.216 89.1751 323.216L96.4888 348.855L61.5886 329.241C61.332 329.37 61.0753 329.498 60.947 329.626Z" fill="#00666A"/>
<path d="M452.035 325.652H449.212C448.699 325.652 448.314 325.268 448.314 324.755V287.579C448.314 287.066 448.699 286.682 449.212 286.682H452.035C452.548 286.682 452.933 287.066 452.933 287.579V324.755C452.933 325.268 452.548 325.652 452.035 325.652Z" fill="#043C5E"/>
<path d="M420.051 391.44V382.338L261.332 382.338V391.44H420.051Z" fill="#043C5E"/>
<path d="M359.395 252.454L346.949 325.652H442.027L432.66 252.198L359.395 252.454Z" fill="url(#paint11_linear)"/>
<path d="M349.259 325.909L344.768 325.396L358.24 247.455L362.731 247.967L349.259 325.909Z" fill="#043C5E"/>
<path d="M427.399 331.036L422.908 331.293L416.75 252.71L421.24 252.454L427.399 331.036Z" fill="#043C5E"/>
<path d="M443.181 330.78L438.691 331.164L428.682 252.839L433.173 252.454L443.181 330.78Z" fill="#043C5E"/>
<path d="M499.766 355.521H327.061V395.645H499.766V355.521Z" fill="#043C5E"/>
<path d="M500.92 375.647C500.92 375.647 503.872 365.264 504.128 353.214C504.513 334.754 489.501 319.499 471.024 319.499H349.643C338.224 319.499 328.216 327.447 325.906 338.6C322.827 353.214 326.035 370.648 326.035 375.519V375.647H500.92Z" fill="#6680A1"/>
<path d="M353.749 430.898C378.41 430.898 398.401 410.925 398.401 386.287C398.401 361.649 378.41 341.676 353.749 341.676C329.089 341.676 309.098 361.649 309.098 386.287C309.098 410.925 329.089 430.898 353.749 430.898Z" fill="#25374B"/>
<path d="M353.75 396.927C359.631 396.927 364.399 392.164 364.399 386.287C364.399 380.411 359.631 375.647 353.75 375.647C347.868 375.647 343.1 380.411 343.1 386.287C343.1 392.164 347.868 396.927 353.75 396.927Z" fill="#6680A1"/>
<path d="M483.342 430.898C500.137 430.898 513.752 417.296 513.752 400.517C513.752 383.737 500.137 370.135 483.342 370.135C466.548 370.135 452.933 383.737 452.933 400.517C452.933 417.296 466.548 430.898 483.342 430.898Z" fill="#25374B"/>
<path d="M483.342 407.824C487.381 407.824 490.656 404.552 490.656 400.517C490.656 396.481 487.381 393.21 483.342 393.21C479.303 393.21 476.029 396.481 476.029 400.517C476.029 404.552 479.303 407.824 483.342 407.824Z" fill="#6680A1"/>
<path d="M433.43 259.248H359.395C355.802 259.248 352.851 256.3 352.851 252.71V252.582C352.851 248.993 355.802 246.044 359.395 246.044H433.43C437.022 246.044 439.974 248.993 439.974 252.582V252.71C439.974 256.428 437.022 259.248 433.43 259.248Z" fill="#475B73"/>
<path d="M496.43 331.293C489.629 331.293 476.029 331.293 476.029 331.293L480.006 344.112H503.102C503.102 344.112 502.204 336.677 496.43 331.293Z" fill="url(#paint12_linear)"/>
<path d="M452.676 288.989H448.699V281.682C448.699 276.554 452.805 272.452 457.937 272.452V276.426C454.986 276.426 452.676 278.734 452.676 281.682V288.989Z" fill="#043C5E"/>
<path d="M279.33 390.774H126.385V398.081H279.33V390.774Z" fill="#043C5E"/>
<path d="M128.097 388.893L70.1826 405.216L72.1683 412.248L130.083 395.925L128.097 388.893Z" fill="#043C5E"/>
<path d="M271.246 389.62C267.397 389.62 264.189 386.415 264.189 382.57C264.189 378.724 267.397 375.519 271.246 375.519C275.096 375.519 278.304 378.724 278.304 382.57C278.175 386.415 275.096 389.62 271.246 389.62Z" fill="#043C5E"/>
<path d="M78.1405 432.18C88.4157 432.18 96.7454 423.858 96.7454 413.592C96.7454 403.327 88.4157 395.004 78.1405 395.004C67.8653 395.004 59.5356 403.327 59.5356 413.592C59.5356 423.858 67.8653 432.18 78.1405 432.18Z" fill="#212B53"/>
<path d="M78.1405 418.079C80.6207 418.079 82.6313 416.07 82.6313 413.592C82.6313 411.114 80.6207 409.105 78.1405 409.105C75.6603 409.105 73.6497 411.114 73.6497 413.592C73.6497 416.07 75.6603 418.079 78.1405 418.079Z" fill="#6680A1"/>
<path d="M268.937 432.18C279.212 432.18 287.542 423.858 287.542 413.592C287.542 403.327 279.212 395.004 268.937 395.004C258.662 395.004 250.332 403.327 250.332 413.592C250.332 423.858 258.662 432.18 268.937 432.18Z" fill="#212B53"/>
<path d="M268.937 418.079C271.417 418.079 273.428 416.07 273.428 413.592C273.428 411.114 271.417 409.105 268.937 409.105C266.457 409.105 264.446 411.114 264.446 413.592C264.446 416.07 266.457 418.079 268.937 418.079Z" fill="#6680A1"/>
<path d="M388.521 282.708L386.34 288.476L380.31 285.784L385.699 277.836L388.521 282.708Z" fill="#F4A086"/>
<path d="M389.804 284.502C390.446 284.759 391.216 285.015 391.601 284.887C395.065 282.964 396.605 274.119 396.605 274.119L394.039 271.17L388.778 271.683L385.955 276.811C385.185 278.221 385.185 279.888 385.955 281.298C387.11 282.708 388.393 283.861 389.804 284.502Z" fill="#F8B68F"/>
<path d="M388.008 275.016C388.65 274.247 389.548 272.196 390.318 272.709C390.959 273.093 393.141 274.375 393.91 274.632C395.707 275.529 399.299 276.426 400.583 273.606C401.224 272.196 400.454 270.401 399.813 269.632C399.171 268.863 398.273 268.478 397.246 268.35C394.937 268.094 391.601 268.35 390.574 267.581C389.035 266.427 386.725 266.555 386.083 268.094C385.314 269.76 384.929 272.452 385.057 274.375C385.057 275.529 385.314 276.554 385.699 277.58L388.008 275.016Z" fill="#212B53"/>
<path d="M386.212 274.375C386.725 274.247 387.495 274.632 387.752 275.401C388.008 276.042 387.88 276.811 387.238 276.939C386.725 277.067 385.955 276.683 385.699 275.913C385.314 275.272 385.57 274.503 386.212 274.375Z" fill="#F8B68F"/>
<path d="M390.318 320.909C390.831 312.577 391.088 295.911 386.468 286.81C385.057 283.99 381.464 282.964 378.77 284.631C369.275 290.271 368.762 311.295 369.018 321.037H390.318V320.909Z" fill="#00666A"/>
<path d="M383.261 307.192C383.261 307.192 387.623 314.115 392.627 317.448C397.631 320.781 416.236 322.319 416.236 322.319L418.802 325.139C419.187 325.652 419.829 325.78 420.471 325.524L420.984 325.268C422.267 324.755 422.78 323.217 422.01 322.063L420.855 320.525C420.471 319.884 419.829 319.627 419.059 319.499L413.927 318.986C413.927 318.986 400.198 314.884 397.118 311.551C393.91 308.218 389.676 298.347 389.676 298.347L383.261 307.192Z" fill="#F8B68F"/>
<path d="M169.882 370.263H120.996V390.518H169.882V370.263Z" fill="#F04637"/>
<path d="M238.528 370.263H198.88V390.518H238.528V370.263Z" fill="#FF8889"/>
<path d="M207.862 370.263H169.882V390.518H207.862V370.263Z" fill="#FF6D6E"/>
<path d="M239.297 391.287H120.226V369.494H239.169V391.287H239.297ZM121.766 389.748H237.629V371.032H121.766V389.748Z" fill="#F04637"/>
<path d="M183.226 350.009H134.34V370.263H183.226V350.009Z" fill="#F04637"/>
<path d="M251.744 350.009H212.096V370.263H251.744V350.009Z" fill="#FF8889"/>
<path d="M221.078 350.009H183.098V370.263H221.078V350.009Z" fill="#FF6D6E"/>
<path d="M252.513 371.032H133.57V349.24H252.513V371.032ZM135.11 369.494H250.974V350.778H135.11V369.494Z" fill="#F04637"/>
<path d="M160.259 329.754H111.373V350.009H160.259V329.754Z" fill="#F04637"/>
<path d="M228.776 329.754H189.128V350.009H228.776V329.754Z" fill="#FF8889"/>
<path d="M198.11 329.754H160.13V350.009H198.11V329.754Z" fill="#FF6D6E"/>
<path d="M229.546 350.778H110.475V328.985H229.418V350.778H229.546ZM112.143 349.24H228.006V330.523H112.143V349.24Z" fill="#F04637"/>
<path d="M168.599 309.5H119.713V329.754H168.599V309.5Z" fill="#F04637"/>
<path d="M237.116 309.5H197.469V329.754H237.116V309.5Z" fill="#FF8889"/>
<path d="M206.579 309.5H168.599V329.754H206.579V309.5Z" fill="#FF6D6E"/>
<path d="M237.886 330.523H118.943V308.73H237.886V330.523ZM120.483 328.985H236.346V310.269H120.483V328.985Z" fill="#F04637"/>
<path d="M179.12 289.245H130.234V309.5H179.12V289.245Z" fill="#F04637"/>
<path d="M247.637 289.245H207.99V309.5H247.637V289.245Z" fill="#FF8889"/>
<path d="M216.971 289.245H178.992V309.5H216.971V289.245Z" fill="#FF6D6E"/>
<path d="M248.407 310.269H129.464V288.476H248.407V310.269ZM131.004 308.731H246.868V290.014H131.004V308.731Z" fill="#F04637"/>
<path d="M191.566 271.042H142.68V291.296H191.566V271.042Z" fill="#F04637"/>
<path d="M260.083 271.042H220.436V291.296H260.083V271.042Z" fill="#FF8889"/>
<path d="M229.546 271.042H191.566V291.296H229.546V271.042Z" fill="#FF6D6E"/>
<path d="M260.853 292.065H141.91V270.145H260.853V292.065ZM143.45 290.399H259.314V271.811H143.45V290.399Z" fill="#F04637"/>
<path d="M201.959 250.788H153.073V271.042H201.959V250.788Z" fill="#F04637"/>
<path d="M270.605 250.788H230.957V271.042H270.605V250.788Z" fill="#FF8889"/>
<path d="M239.939 250.788H201.959V271.042H239.939V250.788Z" fill="#FF6D6E"/>
<path d="M271.375 271.811H152.432V250.018H271.375V271.811ZM153.972 270.145H269.835V251.557H153.972V270.145Z" fill="#F04637"/>
<path d="M183.226 230.021H134.34V250.275H183.226V230.021Z" fill="#F04637"/>
<path d="M251.744 230.021H212.096V250.275H251.744V230.021Z" fill="#FF8889"/>
<path d="M221.078 230.021H183.098V250.275H221.078V230.021Z" fill="#FF6D6E"/>
<path d="M252.513 251.044H133.57V229.251H252.513V251.044ZM135.11 249.506H250.974V230.79H135.11V249.506Z" fill="#F04637"/>
<path d="M304.992 435H294.727C293.316 435.129 291.776 435.513 291.519 436.667C291.519 436.667 291.391 437.436 291.391 438.205C291.776 438.59 305.377 438.205 305.377 438.205C306.917 436.411 304.992 435 304.992 435Z" fill="#11375B"/>
<path d="M291.391 438.205H305.505L305.377 438.718H291.391V438.205Z" fill="#212B53"/>
<path d="M301.014 435H299.988L300.373 436.154H301.271L301.014 435Z" fill="white"/>
<path d="M298.961 435H298.063L298.32 436.154H299.218L298.961 435Z" fill="white"/>
<path d="M305.762 431.539L304.992 435.001C304.222 435.385 303.067 435.385 302.169 435.129L302.041 435.001L301.528 431.539H305.762Z" fill="#F8B68F"/>
<path d="M329.114 435H318.849C317.438 435.129 315.898 435.513 315.642 436.667C315.642 436.667 315.513 437.436 315.513 438.205C315.898 438.59 329.499 438.205 329.499 438.205C331.039 436.411 329.114 435 329.114 435Z" fill="#212B53"/>
<path d="M315.513 438.205H329.499L329.371 438.718H315.513V438.205Z" fill="#212B53"/>
<path d="M325.008 435H324.11L324.366 436.154H325.265L325.008 435Z" fill="white"/>
<path d="M323.083 435H322.185L322.442 436.154H323.34L323.083 435Z" fill="white"/>
<path d="M328.729 431.539L329.114 435.001C328.344 435.385 327.189 435.385 326.291 435.129L326.163 435.001L324.495 431.539H328.729Z" fill="#F8B68F"/>
<path d="M313.332 316.294L321.801 321.806L319.234 328.472C319.234 328.6 319.106 328.6 319.106 328.729C318.978 328.729 318.721 328.729 318.593 328.729C318.593 328.729 318.593 328.729 318.465 328.729C318.465 328.729 318.465 328.729 318.336 328.729C316.027 328.729 314.102 330.139 312.947 332.062C311.536 331.933 310.253 331.677 308.97 331.036C308.071 330.652 307.302 330.139 307.045 329.626C306.147 324.755 313.332 316.294 313.332 316.294Z" fill="#F8B68F"/>
<path d="M302.554 317.96C302.554 317.96 301.528 327.831 303.581 334.113C302.554 335.01 299.09 338.728 297.935 333.856C296.78 328.985 299.218 316.294 299.218 316.294L302.554 317.96Z" fill="#F8B68F"/>
<path d="M307.558 317.32L309.611 318.602L308.841 320.012L306.788 319.114L307.558 317.32Z" fill="#212B53"/>
<path d="M309.503 319.386C309.702 318.932 309.706 318.495 309.512 318.41C309.317 318.324 308.997 318.623 308.798 319.077C308.599 319.531 308.595 319.968 308.79 320.053C308.984 320.139 309.304 319.84 309.503 319.386Z" fill="#212B53"/>
<path d="M283.564 310.013C283.949 309.115 284.591 307.705 285.489 306.551C286.9 304.5 287.285 303.475 287.285 303.475L307.943 316.935L306.66 319.499L283.564 311.038C283.564 310.654 283.564 310.397 283.564 310.013Z" fill="#043C5E"/>
<path d="M315.128 331.933L315.898 336.677H309.355L308.841 330.908L315.128 331.933Z" fill="#F4A086"/>
<path d="M298.191 343.471C298.191 343.471 290.493 341.035 288.055 337.702C285.617 334.369 289.723 316.294 289.723 316.294L289.21 313.089C288.953 311.294 290.365 309.628 292.161 309.5H294.214C295.112 309.5 295.625 310.397 295.369 311.166L292.674 317.32C292.674 317.32 290.621 331.036 293.444 332.062C296.908 333.215 300.758 333.6 300.758 333.6L298.191 343.471Z" fill="#F8B68F"/>
<path d="M312.819 331.934L314.872 327.575L313.589 326.806C312.691 326.165 312.177 325.011 312.562 323.986L313.974 319.883C313.974 319.883 309.996 319.371 309.996 315.653C309.996 313.73 312.691 313.73 312.691 313.73C312.691 313.73 313.46 315.397 315.898 315.653C316.925 315.525 319.876 315.91 321.801 319.371C323.084 321.678 322.57 325.268 321.416 327.96C320.389 330.395 317.695 331.805 315.128 332.19H312.819V331.934Z" fill="#212B53"/>
<path d="M320.646 369.109C320.646 369.109 320.261 378.467 318.208 388.723C317.566 391.671 317.823 394.876 318.849 397.696C323.469 411.413 330.012 432.052 330.012 432.052H324.238C324.238 432.052 311.151 407.695 307.815 395.517C304.479 383.467 303.837 379.621 303.837 379.621L307.815 369.109H320.646Z" fill="#475B73"/>
<path d="M315.898 325.524C316.155 326.165 315.642 327.191 314.872 327.575C314.102 327.96 313.204 327.832 312.947 327.062C312.691 326.421 313.204 325.396 313.974 325.011C314.743 324.627 315.642 324.883 315.898 325.524Z" fill="#F8B68F"/>
<path d="M301.913 369.11H320.774V345.009C320.774 339.753 316.797 335.267 311.536 334.882L298.448 333.344C298.448 333.344 296.909 335.651 292.674 341.163C297.807 344.368 303.837 345.778 303.837 345.778L301.913 369.11Z" fill="#F04637"/>
<path d="M320.646 369.109C320.646 369.109 317.951 378.724 308.2 389.492C306.532 391.159 304.222 394.492 304.479 399.235L306.532 432.052H300.63C300.63 432.052 293.444 404.747 294.984 391.287C296.524 377.826 301.656 368.981 301.656 368.981H320.646V369.109Z" fill="#6680A1"/>
<path d="M286.73 307.773C287.745 305.668 287.999 303.688 287.297 303.35C286.595 303.012 285.202 304.444 284.187 306.548C283.172 308.653 282.918 310.633 283.62 310.971C284.322 311.309 285.714 309.877 286.73 307.773Z" fill="#F04637"/>
<path d="M303.324 313.987L303.196 314.115C302.554 314.371 301.913 314.499 301.271 314.243H301.143C300.116 313.858 299.218 313.089 298.961 311.936C298.833 311.423 299.218 311.038 299.731 311.166L301.014 311.423C301.528 311.551 301.913 311.807 302.297 312.32L303.324 313.987Z" fill="#F8B68F"/>
<path d="M544.674 333.344L538.9 344.24L545.316 343.984L545.701 332.959L544.674 333.344Z" fill="#F8B68F"/>
<path d="M553.913 328.472H548.524L546.214 363.213H555.837L553.913 328.472Z" fill="white"/>
<path d="M563.792 430.386C563.792 430.386 565.076 431.411 564.819 432.821C564.562 434.103 564.177 437.308 564.177 437.308H562.766V434.36C562.766 434.232 559.815 437.308 559.302 437.308H552.116C552.116 437.308 551.603 435.385 555.837 434.744C560.2 433.975 563.792 430.386 563.792 430.386Z" fill="#043C5E"/>
<path d="M560.585 429.104L559.558 431.668C559.301 432.309 558.788 432.95 558.275 433.334C557.633 433.719 556.479 434.36 554.939 434.872C556.864 436.539 560.071 434.744 561.868 433.591C562.766 432.95 563.407 432.052 563.664 431.027L564.049 429.104H560.585Z" fill="#F8B68F"/>
<path d="M549.935 430.386C549.935 430.386 551.218 431.411 550.961 432.821C550.705 434.103 550.32 437.308 550.32 437.308H548.909V434.36C548.909 434.232 545.957 437.308 545.444 437.308H538.259C538.259 437.308 537.746 435.385 541.98 434.744C546.471 433.975 549.935 430.386 549.935 430.386Z" fill="#043C5E"/>
<path d="M546.856 429.104L545.829 431.668C545.572 432.309 545.059 432.95 544.546 433.334C543.904 433.719 542.75 434.36 541.21 434.872C543.135 436.539 546.342 434.744 548.139 433.591C549.037 432.95 549.678 432.052 549.935 431.027L550.32 429.104H546.856Z" fill="#F8B68F"/>
<path d="M558.019 363.213C558.019 363.213 558.917 368.34 553.784 393.979C558.019 407.311 551.218 429.488 551.218 429.488H546.342L543.006 363.213H558.019Z" fill="#475B73"/>
<path d="M549.037 328.472L547.24 370.648L541.467 368.212C541.467 368.212 544.033 360.264 543.776 349.368C544.674 341.42 540.183 345.65 545.701 330.267C547.882 328.472 549.037 328.472 549.037 328.472Z" fill="#212B53"/>
<path d="M548.267 324.114L548.908 327.703C549.165 329.241 550.961 330.011 552.373 329.241L554.682 327.703L550.448 318.089L548.267 324.114Z" fill="#F4A086"/>
<path d="M562.766 363.213C562.766 363.213 569.182 368.34 564.049 393.979C568.283 407.311 564.562 429.488 564.562 429.488H560.2L547.754 363.213H562.766Z" fill="#6680A1"/>
<path d="M553.913 324.883C553.913 324.883 559.302 327.959 560.97 330.651C562.638 333.215 563.151 339.112 563.279 344.368C563.536 351.547 567 370.519 567 370.519H552.501L552.116 329.241L553.913 324.883Z" fill="#043C5E"/>
<path d="M543.134 313.474C546.47 312.576 549.55 316.038 549.55 316.038L551.988 329.37L555.837 323.473C555.837 323.473 556.094 315.525 552.373 310.269C549.678 307.064 544.674 307.961 542.108 311.038C540.825 312.576 540.568 314.627 540.697 316.55C540.825 319.114 541.595 333.985 541.595 333.985L549.165 328.344C549.165 328.344 549.037 326.806 548.267 324.114C547.112 319.371 540.953 313.987 543.134 313.474Z" fill="#212B53"/>
<path d="M550.577 315.781C550.063 315.525 549.422 315.909 549.165 316.55C548.909 317.191 549.037 317.832 549.55 317.961C550.063 318.217 550.705 317.832 550.961 317.191C551.218 316.55 551.09 315.909 550.577 315.781Z" fill="#F8B68F"/>
<path d="M547.112 324.755C546.471 325.011 545.957 325.139 545.444 325.011C542.621 322.96 541.595 314.628 541.595 314.628L543.904 312.192L548.395 313.217L550.576 318.089C551.218 319.371 551.09 320.909 550.448 322.191C549.55 323.345 548.395 324.242 547.112 324.755Z" fill="#F8B68F"/>
<path d="M542.365 313.217C542.621 315.781 549.55 315.91 549.55 315.91L549.935 312.576L545.829 310.397L542.621 312.32C542.621 312.32 542.365 312.833 542.365 313.217Z" fill="#212B53"/>
<path d="M542.493 313.73C542.75 314.627 541.723 316.294 541.723 316.294L541.21 315.268V314.371L541.723 313.73C541.852 313.73 542.365 312.833 542.493 313.73Z" fill="#212B53"/>
<path d="M559.43 330.652C566.487 331.421 563.151 349.624 561.611 357.059C561.226 358.854 559.302 360.008 557.634 359.495C551.475 357.572 542.493 349.496 542.493 349.496L543.905 347.701L555.837 350.521C555.837 350.521 551.347 329.626 559.43 330.652Z" fill="#F8B68F"/>
<path d="M545.444 343.471L547.754 357.7C547.882 358.085 547.497 358.469 547.112 358.469H538.002C537.617 358.469 537.361 358.213 537.361 357.957L535.051 343.727C534.923 343.343 535.308 342.958 535.693 342.958H544.803C545.059 342.83 545.316 343.086 545.444 343.471Z" fill="#F04637"/>
<path d="M535.308 349.752C535.308 349.24 535.308 348.983 535.436 347.958C535.693 346.676 535.564 344.497 536.976 345.522C538.259 347.189 538.387 348.855 538.387 348.855C538.644 349.752 538.002 351.163 537.489 351.804L536.591 353.855C536.591 353.983 535.051 352.06 535.308 349.752Z" fill="#F8B68F"/>
<path d="M540.568 349.111C540.923 349.111 541.21 348.824 541.21 348.47C541.21 348.116 540.923 347.829 540.568 347.829C540.214 347.829 539.927 348.116 539.927 348.47C539.927 348.824 540.214 349.111 540.568 349.111Z" fill="url(#paint13_linear)"/>
<path d="M25.1487 434.36C25.1487 434.36 26.0469 435.642 30.1528 436.667C31.0509 436.923 32.0774 437.052 32.0774 438.59C30.1528 438.59 27.9715 438.59 27.9715 438.59L23.7373 437.821V438.59H21.4277C21.4277 438.59 20.7862 434.872 22.0693 434.36C23.4807 434.36 25.1487 434.36 25.1487 434.36Z" fill="#212B53"/>
<path d="M25.4053 431.667L25.1486 434.36C24.3788 434.872 23.224 435 22.3258 434.488L22.1975 434.36V431.667H25.4053Z" fill="#F8B68F"/>
<path d="M4.23415 434.872C4.23415 434.872 5.13231 436.154 9.23822 437.18C10.1364 437.436 11.1629 437.564 11.1629 439.103C9.23822 439.103 7.05696 439.103 7.05696 439.103L2.82274 438.334V439.103H0.51317C0.51317 439.103 -0.128378 435.385 1.15472 434.872C2.43781 434.872 4.23415 434.872 4.23415 434.872Z" fill="#212B53"/>
<path d="M4.36239 432.18L4.10577 434.872C3.33591 435.385 2.18113 435.513 1.28296 435V434.872V432.18H4.36239Z" fill="#F8B68F"/>
<path d="M27.0734 366.289L26.0469 433.078H21.1712C21.1712 433.078 13.7292 379.109 15.3972 366.289C16.937 353.47 27.0734 366.289 27.0734 366.289Z" fill="#212B53"/>
<path d="M21.941 366.289C21.941 366.289 20.273 386.8 16.2954 398.209C12.4461 409.618 5.38908 433.078 5.38908 433.078H0.38501C0.38501 433.078 8.85344 383.851 6.9288 366.289H21.941Z" fill="#11375B"/>
<path d="M26.3035 332.318C26.3035 332.318 32.334 346.291 33.8738 346.291C35.0285 346.291 33.3605 334.882 33.3605 334.882H38.4929C38.4929 334.882 44.7801 354.495 39.776 358.085C34.7719 361.674 23.7373 347.958 23.7373 347.958L26.3035 332.318Z" fill="url(#paint14_linear)"/>
<path d="M8.46851 368.084L10.2648 372.571C11.163 374.365 14.3707 374.365 16.552 373.853C16.9369 373.724 16.9369 373.34 16.8086 373.084C15.6538 371.802 12.5744 368.469 11.5479 367.828L8.46851 368.084Z" fill="#F8B68F"/>
<path d="M23.609 329.37C23.609 329.37 26.6885 331.549 26.6885 333.985C26.6885 336.42 26.6885 366.289 26.6885 366.289H8.46851V336.036C8.46851 336.036 8.85343 329.37 15.3972 329.37C21.941 329.37 23.609 329.37 23.609 329.37Z" fill="url(#paint15_linear)"/>
<path d="M26.4319 366.289V337.318H27.0734V366.289H26.4319Z" fill="#93CFC7"/>
<path d="M17.0652 322.191V329.754C17.0652 329.754 18.3483 331.549 20.6579 331.549C22.9674 331.549 22.9674 329.882 22.9674 329.882V325.011L19.6314 324.114L17.0652 322.191Z" fill="#F4A086"/>
<path d="M23.0958 326.421C23.7373 326.421 24.5072 326.293 24.7638 326.037C26.8167 322.832 24.5072 314.115 24.5072 314.115L17.0652 315.397L16.8086 321.294C16.8086 322.832 17.4501 324.37 18.6049 325.268C20.1446 326.037 21.556 326.549 23.0958 326.421Z" fill="#F8B68F"/>
<path d="M20.6578 315.525C20.6578 315.525 23.0957 316.038 25.6619 315.525C28.2281 315.012 26.56 312.192 26.56 312.192C26.56 312.192 24.6354 313.089 21.2994 312.576C18.9898 312.192 18.3482 311.807 16.9368 312.576C14.8839 313.602 15.3971 317.191 15.3971 317.191L16.5519 324.755H16.9368C16.9368 324.755 17.0651 320.268 17.0651 318.73C17.4501 318.089 17.9633 318.089 18.3482 318.217C18.7332 318.345 18.9898 318.858 18.9898 319.242V327.19C18.9898 327.19 23.9939 329.37 25.277 328.985C26.56 328.6 25.6619 322.704 25.6619 322.704C25.6619 322.704 24.1222 322.063 23.0957 323.345C21.9409 324.627 20.5295 323.345 20.5295 323.345L20.6578 315.525Z" fill="#212B53"/>
<path d="M37.4664 334.882L37.3381 333.857C36.9532 331.677 34.9002 329.113 32.8473 328.344H30.666L31.3076 332.959L34.2587 334.882H37.4664Z" fill="#F8B68F"/>
<path d="M17.7067 318.089C18.2199 318.089 18.8615 318.601 18.8615 319.242C18.9898 320.012 18.6049 320.524 17.9633 320.652C17.4501 320.652 16.8085 320.14 16.8085 319.499C16.6802 318.73 17.0651 318.089 17.7067 318.089Z" fill="#F8B68F"/>
<path d="M32.2058 332.446L36.3117 334.882C36.3117 334.882 33.7455 334.882 33.6172 334.882L29.2546 331.164C29.2546 331.164 29.5113 330.523 30.5377 331.036C31.5642 331.677 32.2058 332.446 32.2058 332.446Z" fill="#F8B68F"/>
<path d="M10.3931 331.421C10.3931 331.421 0 342.958 0 349.88C0 356.803 8.46843 368.981 8.46843 368.981L12.5743 367.827C12.5743 367.827 8.85336 352.701 8.85336 348.727C8.85336 344.753 16.5519 338.856 16.5519 338.856" fill="url(#paint16_linear)"/>
<path d="M9.11005 348.599C9.11005 352.06 12.1895 364.623 12.831 367.571C12.5744 367.571 12.5744 367.699 12.1895 367.699C11.2913 364.11 8.46851 351.932 8.46851 348.599C8.46851 344.496 16.0388 338.728 16.2954 338.471L16.6803 338.984C16.6803 338.984 9.11005 344.753 9.11005 348.599Z" fill="#93CFC7"/>
<path d="M29.3829 324.883C29.3829 324.883 28.4847 329.37 31.3075 332.959C31.4359 333.215 31.8208 333.344 32.0774 333.344C32.719 333.472 33.1039 333.215 33.4888 333.087C34.002 332.959 34.2587 332.703 34.387 332.446C34.5153 332.318 34.5153 332.062 34.387 331.805C33.8737 331.036 32.0774 328.088 32.8473 325.524C31.4359 324.498 29.3829 324.883 29.3829 324.883Z" fill="#F04637"/>
<path d="M33.8737 332.959C34.1303 332.831 34.2586 332.703 34.3869 332.446C34.5152 332.318 34.5152 332.062 34.3869 331.805C33.8737 331.036 32.0774 328.088 32.8472 325.524C32.334 325.139 31.6924 324.883 31.1792 324.755C31.1792 327.703 31.6924 329.626 33.8737 332.959Z" fill="#F04637"/>
<path d="M32.5621 329.599C32.8398 329.542 32.9608 328.989 32.8324 328.365C32.704 327.741 32.3748 327.281 32.0972 327.338C31.8196 327.395 31.6986 327.948 31.8269 328.572C31.9553 329.196 32.2845 329.656 32.5621 329.599Z" fill="#F59C42"/>
<path d="M32.0774 327.319H32.334V327.447L32.0774 327.575V327.319Z" fill="#F59C42"/>
<path d="M32.4622 329.626H32.8471L32.4622 329.498V329.626Z" fill="#E8375E"/>
<path d="M32.8185 329.603C33.0962 329.546 33.2173 328.993 33.0891 328.369C32.9608 327.745 32.6318 327.285 32.3541 327.342C32.0764 327.399 31.9553 327.951 32.0835 328.576C32.2118 329.2 32.5409 329.66 32.8185 329.603Z" fill="#FFD247"/>
<path d="M28.3563 321.165H27.8431C26.9449 321.165 26.175 321.934 26.175 322.832V324.114C26.175 325.011 26.9449 325.78 27.8431 325.78H28.3563V321.165Z" fill="#F04637"/>
<path d="M41.5722 328.857C42.5643 328.857 43.3685 325.987 43.3685 322.447C43.3685 318.907 42.5643 316.038 41.5722 316.038C40.5801 316.038 39.7759 318.907 39.7759 322.447C39.7759 325.987 40.5801 328.857 41.5722 328.857Z" fill="#212B53"/>
<path d="M39.6475 320.14L41.0589 321.037V323.088L39.6475 324.37L39.1343 321.806L39.6475 320.14Z" fill="white"/>
<path d="M39.7758 322.447C39.7758 319.499 40.289 316.935 41.1872 316.294C35.1566 320.652 28.0996 321.293 28.0996 321.293V325.78C28.0996 325.78 37.5945 325.267 41.1872 328.729C40.289 327.959 39.7758 325.396 39.7758 322.447Z" fill="#475B73"/>
<path d="M41.0589 323.088C41.2006 323.088 41.3155 322.629 41.3155 322.063C41.3155 321.496 41.2006 321.037 41.0589 321.037C40.9171 321.037 40.8022 321.496 40.8022 322.063C40.8022 322.629 40.9171 323.088 41.0589 323.088Z" fill="#FFD247"/>
<path d="M35.1569 331.549C35.0286 331.549 34.5154 331.933 32.8473 331.933C31.6925 331.933 31.051 330.395 30.9227 329.626C30.7944 329.37 30.7944 328.985 31.1793 328.729L33.1039 328.472L35.1569 331.549Z" fill="#F8B68F"/>
<path d="M167.701 434.744C167.701 434.744 165.391 436.923 160.13 438.205C158.975 438.462 157.692 438.077 157.692 440C160.13 440 164.108 440 164.108 440L169.369 439.103V440H172.191C172.191 440 172.961 435.385 171.293 434.744C169.753 434.744 167.701 434.744 167.701 434.744Z" fill="#212B53"/>
<path d="M167.957 431.411L167.572 434.744C168.599 435.513 170.01 435.513 171.037 434.872L171.293 434.744L172.448 431.411H167.957Z" fill="#F8B68F"/>
<path d="M183.611 434.744C183.611 434.744 181.301 436.923 176.041 438.205C174.886 438.462 173.603 438.077 173.603 440C176.041 440 180.018 440 180.018 440L185.279 439.103V440H188.102C188.102 440 188.872 435.385 187.204 434.744C185.792 434.744 183.611 434.744 183.611 434.744Z" fill="#212B53"/>
<path d="M183.868 431.411L183.483 434.744C184.509 435.513 185.921 435.513 186.947 434.872L187.204 434.744L188.358 431.411H183.868Z" fill="#F8B68F"/>
<path d="M178.222 321.037L179.12 326.549L183.996 324.37L182.328 317.704L178.222 321.037Z" fill="#F4A086"/>
<path d="M176.425 321.55C175.784 321.55 175.142 321.421 174.757 321.165C172.833 318.345 175.014 310.525 175.014 310.525L178.222 309.243L182.199 311.679L182.456 316.807C182.456 318.217 181.814 319.499 180.66 320.396C179.377 321.165 177.837 321.55 176.425 321.55Z" fill="#F8B68F"/>
<path d="M181.045 313.217C180.788 312.32 180.018 311.807 179.12 311.935C178.479 312.063 177.709 312.192 176.939 312.192C175.142 312.192 172.961 311.551 172.961 308.859C172.961 306.167 176.297 307.064 176.297 307.064C176.297 307.064 183.098 308.09 185.792 310.012C187.075 310.91 184.894 313.986 184.124 315.525C183.739 316.422 183.098 317.191 182.328 317.832L181.045 313.217Z" fill="#212B53"/>
<path d="M183.354 314.884C182.969 314.499 182.199 314.627 181.686 315.012C181.173 315.397 181.045 316.038 181.43 316.422C181.815 316.807 182.584 316.679 183.098 316.294C183.611 315.781 183.739 315.14 183.354 314.884Z" fill="#F8B68F"/>
<path d="M179.12 326.549C179.12 326.549 171.806 338.6 167.315 366.674C176.169 369.494 189.77 372.442 189.77 372.442C189.77 372.442 197.725 342.061 183.996 324.37C181.045 324.37 179.12 326.549 179.12 326.549Z" fill="url(#paint17_linear)"/>
<path d="M167.316 366.545C167.316 366.545 161.157 387.184 161.157 396.543C161.157 405.901 167.316 432.308 167.316 432.308H172.961C172.961 432.308 174.244 413.849 172.705 403.465C172.191 400.388 172.448 397.312 173.346 394.363C176.426 383.98 179.633 369.878 179.633 369.878L167.316 366.545Z" fill="#475B73"/>
<path d="M171.55 368.212C171.55 368.212 170.01 390.646 172.448 398.722C175.014 406.798 183.483 432.308 183.483 432.308H188.487C188.487 432.308 189.77 418.463 185.664 403.721C184.637 400.132 184.894 396.414 186.049 392.825C189.898 381.416 189.641 372.314 189.641 372.314L171.55 368.212Z" fill="#6680A1"/>
<path d="M153.715 340.266C139.216 345.778 140.756 349.624 139.344 354.623C137.933 359.623 137.419 368.725 153.715 370.263C170.138 371.801 169.24 362.187 172.961 354.623C176.682 347.06 165.006 340.266 165.006 340.266C165.006 340.266 158.591 342.702 153.715 340.266Z" fill="#FF8889"/>
<path d="M159.104 369.75C158.847 369.878 157.949 370.391 155.896 370.263C154.1 370.135 150.379 368.853 150.892 370.776C152.56 371.93 154.228 373.468 154.228 373.468C155.254 374.109 157.307 373.852 158.462 373.468L162.055 371.801C162.055 371.801 162.568 370.007 162.568 369.878L161.798 369.494C161.028 369.75 160.002 369.75 159.104 369.75Z" fill="#F8B68F"/>
<path d="M158.334 370.391C158.334 370.391 158.206 370.519 158.077 370.519C158.334 370.648 158.462 370.776 158.719 370.904C159.617 371.032 160.643 371.289 161.542 371.417C161.542 370.904 161.542 370.135 161.542 370.007L155.639 367.699C155.639 367.699 154.998 368.34 156.153 369.109C157.179 370.135 158.334 370.391 158.334 370.391Z" fill="#F8B68F"/>
<path d="M178.222 336.164L176.554 349.624C176.297 352.188 175.143 354.624 173.346 356.546L161.285 369.366L162.44 372.314C162.44 372.314 180.66 363.725 183.996 358.598C187.332 353.47 189 337.959 189 337.959L178.222 336.164Z" fill="url(#paint18_linear)"/>
<path d="M188.102 343.214C187.332 348.214 185.92 355.393 183.867 358.469C180.788 363.084 164.749 370.904 162.568 371.93L161.542 369.366L173.603 356.675C175.399 354.752 176.554 352.316 176.939 349.624L177.709 343.599C177.58 343.471 177.452 343.471 177.195 343.343L176.425 349.624C176.169 352.188 175.014 354.495 173.218 356.418L161.157 369.238L161.028 369.366L162.44 372.699L162.696 372.571C163.466 372.186 181.045 363.853 184.381 358.854C186.562 355.521 187.973 347.958 188.743 342.958C188.358 343.086 188.23 343.214 188.102 343.214Z" fill="#63C1C5"/>
<path d="M153.715 340.266C154.228 339.369 154.228 338.343 153.458 337.574L151.662 335.651C151.662 335.651 154.741 331.292 159.489 334.497C163.081 336.933 166.417 335.266 167.701 334.369C167.829 334.241 168.085 334.497 167.957 334.625C167.316 335.907 166.546 337.061 165.648 338.215C165.006 338.856 164.621 339.625 165.006 340.394L159.36 342.445L153.715 340.266Z" fill="#FF8889"/>
<path d="M153.073 340.522C153.073 340.522 155.126 342.958 159.745 342.958C164.364 342.958 165.776 340.779 165.776 340.779L164.749 339.497C164.749 339.497 163.595 341.163 159.617 341.42C156.409 341.548 153.843 339.497 153.843 339.497L153.073 340.522Z" fill="#F04637"/>
<path d="M157.179 362.187C160.935 362.187 163.979 359.145 163.979 355.393C163.979 351.64 160.935 348.598 157.179 348.598C153.423 348.598 150.379 351.64 150.379 355.393C150.379 359.145 153.423 362.187 157.179 362.187Z" fill="#F04637"/>
<path d="M178.735 324.755L183.611 322.062L183.996 324.37L178.735 326.934V324.755Z" fill="white"/>
<defs>
<linearGradient id="paint0_linear" x1="397.094" y1="199.155" x2="549.68" y2="199.155" gradientUnits="userSpaceOnUse">
<stop stop-color="#DFEFEA"/>
<stop offset="1" stop-color="#BFE3EE"/>
</linearGradient>
<linearGradient id="paint1_linear" x1="499.399" y1="163.799" x2="521.733" y2="163.799" gradientUnits="userSpaceOnUse">
<stop stop-color="#BFE3EE"/>
<stop offset="1" stop-color="#DFEFEA"/>
</linearGradient>
<linearGradient id="paint2_linear" x1="464.012" y1="163.799" x2="502.587" y2="163.799" gradientUnits="userSpaceOnUse">
<stop stop-color="#BFE3EE"/>
<stop offset="1" stop-color="#DFEFEA"/>
</linearGradient>
<linearGradient id="paint3_linear" x1="460.544" y1="187.202" x2="469.032" y2="187.202" gradientUnits="userSpaceOnUse">
<stop stop-color="#DFEFEA"/>
<stop offset="1" stop-color="#BFE3EE"/>
</linearGradient>
<linearGradient id="paint4_linear" x1="551.356" y1="185.333" x2="558.883" y2="185.333" gradientUnits="userSpaceOnUse">
<stop stop-color="#DFEFEA"/>
<stop offset="1" stop-color="#BFE3EE"/>
</linearGradient>
<linearGradient id="paint5_linear" x1="137.024" y1="107.261" x2="8.00243" y2="107.261" gradientUnits="userSpaceOnUse">
<stop stop-color="#DFEFEA"/>
<stop offset="1" stop-color="#BFE3EE"/>
</linearGradient>
<linearGradient id="paint6_linear" x1="384.996" y1="28.6594" x2="510.12" y2="28.6594" gradientUnits="userSpaceOnUse">
<stop stop-color="#DFEFEA"/>
<stop offset="1" stop-color="#BFE3EE"/>
</linearGradient>
<linearGradient id="paint7_linear" x1="513.001" y1="84.3308" x2="534.665" y2="84.3308" gradientUnits="userSpaceOnUse">
<stop offset="6.3e-07" stop-color="#F1F8F7"/>
<stop offset="1" stop-color="#BFE3EE"/>
</linearGradient>
<linearGradient id="paint8_linear" x1="513.001" y1="90.8797" x2="530.472" y2="90.8797" gradientUnits="userSpaceOnUse">
<stop offset="6.3e-07" stop-color="#F1F8F7"/>
<stop offset="1" stop-color="#BFE3EE"/>
</linearGradient>
<linearGradient id="paint9_linear" x1="94.2522" y1="209.611" x2="121.04" y2="209.611" gradientUnits="userSpaceOnUse">
<stop offset="6.3e-07" stop-color="#F1F8F7"/>
<stop offset="1" stop-color="#BFE3EE"/>
</linearGradient>
<linearGradient id="paint10_linear" x1="88.7814" y1="210.342" x2="120.868" y2="210.342" gradientUnits="userSpaceOnUse">
<stop offset="6.3e-07" stop-color="#F1F8F7"/>
<stop offset="1" stop-color="#BFE3EE"/>
</linearGradient>
<linearGradient id="paint11_linear" x1="346.998" y1="288.941" x2="442.04" y2="288.941" gradientUnits="userSpaceOnUse">
<stop stop-color="#E0F0EB"/>
<stop offset="1" stop-color="#C0E4EF"/>
</linearGradient>
<linearGradient id="paint12_linear" x1="476.037" y1="337.668" x2="503.131" y2="337.668" gradientUnits="userSpaceOnUse">
<stop stop-color="#E0F0EB"/>
<stop offset="1" stop-color="#C0E4EF"/>
</linearGradient>
<linearGradient id="paint13_linear" x1="541.247" y1="348.42" x2="539.857" y2="348.42" gradientUnits="userSpaceOnUse">
<stop stop-color="#E0F0EB"/>
<stop offset="1" stop-color="#C0E4EF"/>
</linearGradient>
<linearGradient id="paint14_linear" x1="41.6704" y1="345.464" x2="23.6597" y2="345.464" gradientUnits="userSpaceOnUse">
<stop stop-color="#E0F0EB"/>
<stop offset="1" stop-color="#C0E4EF"/>
</linearGradient>
<linearGradient id="paint15_linear" x1="26.7946" y1="347.834" x2="8.42822" y2="347.834" gradientUnits="userSpaceOnUse">
<stop stop-color="#E0F0EB"/>
<stop offset="1" stop-color="#C0E4EF"/>
</linearGradient>
<linearGradient id="paint16_linear" x1="16.5515" y1="350.146" x2="0" y2="350.146" gradientUnits="userSpaceOnUse">
<stop stop-color="#C0E4EF"/>
<stop offset="1" stop-color="#E0F0EB"/>
</linearGradient>
<linearGradient id="paint17_linear" x1="167.316" y1="348.347" x2="192.033" y2="348.347" gradientUnits="userSpaceOnUse">
<stop stop-color="#E0F0EB"/>
<stop offset="1" stop-color="#C0E4EF"/>
</linearGradient>
<linearGradient id="paint18_linear" x1="161.155" y1="354.272" x2="189" y2="354.272" gradientUnits="userSpaceOnUse">
<stop stop-color="#E0F0EB"/>
<stop offset="1" stop-color="#C0E4EF"/>
</linearGradient>
</defs>
</svg>
