<svg width="560" height="376" viewBox="0 0 560 376" fill="none" xmlns="http://www.w3.org/2000/svg">
<path d="M226.761 1.36953V21.1206H255.901V48.4743H254.982V248.883C254.982 264.564 267.913 277.408 283.703 277.408C286.201 277.408 438.58 277.547 438.58 277.547V47.2038C438.58 21.8749 417.914 1.34969 392.411 1.34969H226.761V1.36953Z" fill="#D2DEEC"/>
<path d="M206.874 39.4821V21.1603C206.874 9.74638 216.288 0.377043 227.78 0.357193C243.57 0.357193 256.501 13.0812 256.501 28.6438V39.5019H206.874V39.4821Z" fill="#6680A1"/>
<path d="M402.144 52.3649H303.03V56.4938H402.144V52.3649Z" fill="#25374B"/>
<path d="M402.144 68.9003H303.03V73.0292H402.144V68.9003Z" fill="#25374B"/>
<path d="M402.144 87.4999H303.03V91.6288H402.144V87.4999Z" fill="#25374B"/>
<path d="M402.144 104.016H303.03V108.144H402.144V104.016Z" fill="#25374B"/>
<path d="M402.144 122.039H303.03V126.168H402.144V122.039Z" fill="#25374B"/>
<path d="M402.144 138.575H303.03V142.704H402.144V138.575Z" fill="#25374B"/>
<path d="M402.144 157.155H303.03V161.283H402.144V157.155Z" fill="#25374B"/>
<path d="M402.144 173.69H303.03V177.819H402.144V173.69Z" fill="#25374B"/>
<path d="M445.995 277.547C414.456 277.547 292.078 277.547 292.078 277.547C292.078 277.547 323.197 271.194 312.824 233.082C360.532 233.082 476.675 233.082 476.675 233.082C476.675 233.082 487.048 277.547 445.995 277.547Z" fill="#D2DEEC"/>
<path d="M377.428 177.444C376.901 176.398 372.77 174.635 367.849 173.606C367.553 169.311 366.631 165.146 365.133 161.226C368.869 158.924 372.573 156.115 372.622 153.959C372.737 149.582 364.886 140.567 363.109 139.979C361.973 139.604 357.661 141.335 353.365 144.127C350.255 141.351 346.733 138.983 342.848 137.17C343.852 132.908 344.478 128.319 342.98 126.734C339.952 123.55 327.97 122.701 326.291 123.533C325.238 124.056 323.477 128.139 322.423 132.989C318.029 133.136 313.733 133.953 309.684 135.325C307.413 131.765 304.714 128.351 302.607 128.286C298.196 128.172 289.111 135.962 288.518 137.725C288.173 138.771 289.638 142.543 292.123 146.495C289.029 149.713 286.395 153.42 284.404 157.536C280.503 156.719 276.602 156.36 275.187 157.699C271.978 160.704 271.122 172.593 271.961 174.259C272.438 175.19 275.812 176.709 280.042 177.754C280.174 182.523 281.079 187.144 282.676 191.489C279.548 193.563 276.816 195.898 276.767 197.744C276.652 202.12 284.503 211.135 286.28 211.723C287.251 212.05 290.592 210.809 294.23 208.686C297.686 211.854 301.702 214.483 306.129 216.427C305.405 220.085 305.142 223.613 306.409 224.952C309.437 228.136 321.419 228.986 323.098 228.153C324.036 227.679 325.567 224.315 326.637 220.101C331.344 219.824 335.919 218.778 340.182 217.096C342.338 220.379 344.823 223.335 346.766 223.384C351.176 223.498 360.262 215.708 360.854 213.944C361.2 212.883 359.718 209.078 357.2 205.109C360.081 201.826 362.484 198.086 364.278 193.971C368.392 194.886 372.671 195.375 374.186 193.955C377.411 190.982 378.267 179.109 377.428 177.444ZM320.251 195.735C309.602 193.693 302.624 183.454 304.697 172.871C306.755 162.304 317.074 155.38 327.739 157.438C338.405 159.479 345.367 169.719 343.293 180.302C341.219 190.868 330.916 197.776 320.251 195.735Z" fill="#ACC1D6"/>
<path d="M318.901 203.443C303.759 200.536 293.835 185.936 296.764 170.911C299.694 155.886 314.408 146.038 329.55 148.945C344.692 151.852 354.616 166.453 351.687 181.478C348.757 196.502 334.043 206.35 318.901 203.443ZM329.467 149.337C314.539 146.463 300.039 156.18 297.159 170.993C294.262 185.805 304.055 200.193 318.983 203.051C333.911 205.926 348.411 196.208 351.292 181.396C354.188 166.583 344.395 152.195 329.467 149.337Z" fill="white"/>
<path d="M364.738 175.81C364.557 175.761 364.393 175.696 364.212 175.631C364.294 178.472 364.064 181.363 363.504 184.27C359.291 205.811 338.207 219.938 316.498 215.773C302.278 213.046 291.267 203.133 286.543 190.558C286.362 190.558 286.181 190.558 285.984 190.558C290.74 203.378 301.932 213.503 316.399 216.28C338.388 220.51 359.751 206.187 364.014 184.368C364.574 181.494 364.804 178.619 364.738 175.81Z" fill="white"/>
<path d="M306.096 141.188C313.749 137.35 322.703 135.897 331.771 137.628C331.952 137.66 332.117 137.709 332.298 137.742C332.265 137.562 332.249 137.383 332.232 137.203C332.117 137.187 332.002 137.154 331.87 137.121C322.736 135.358 313.7 136.811 305.964 140.682C305.997 140.845 306.047 141.025 306.096 141.188Z" fill="white"/>
<path d="M289.917 165.179C289.111 163.692 283.087 161.308 275.944 159.985C275.351 153.812 273.854 147.835 271.549 142.233C276.849 138.771 282.083 134.59 282.083 131.471C282.099 125.15 270.414 112.444 267.83 111.661C266.167 111.171 260.012 113.816 253.922 118.03C249.33 114.143 244.146 110.86 238.484 108.378C239.784 102.205 240.492 95.5415 238.27 93.3204C233.777 88.8456 216.462 88.0453 214.076 89.3192C212.578 90.1194 210.192 96.0641 208.859 103.119C202.506 103.495 196.366 104.818 190.573 106.973C187.166 101.911 183.134 97.0929 180.105 97.0766C173.736 97.0603 160.931 108.656 160.141 111.22C159.68 112.738 161.951 118.144 165.688 123.746C161.342 128.515 157.689 133.969 154.957 139.979C149.311 138.95 143.666 138.558 141.658 140.551C137.148 145.009 136.342 162.19 137.626 164.558C138.35 165.881 143.271 167.955 149.41 169.311C149.772 176.17 151.253 182.817 153.722 189.039C149.278 192.142 145.443 195.604 145.443 198.282C145.427 204.603 157.113 217.309 159.697 218.092C161.112 218.517 165.869 216.623 171.053 213.405C176.172 217.848 182.047 221.489 188.516 224.135C187.594 229.426 187.364 234.555 189.256 236.433C193.75 240.907 211.064 241.708 213.45 240.434C214.8 239.715 216.874 234.816 218.24 228.692C225.037 228.12 231.571 226.438 237.678 223.841C240.92 228.496 244.607 232.66 247.421 232.66C253.791 232.676 266.595 221.081 267.385 218.517C267.846 216.982 265.558 211.544 261.789 205.909C265.822 201.059 269.13 195.571 271.582 189.578C277.557 190.754 283.762 191.293 285.885 189.186C290.395 184.727 291.201 167.547 289.917 165.179ZM208.118 193.71C192.663 191.146 182.228 176.643 184.796 161.308C187.38 145.973 201.995 135.619 217.45 138.166C232.905 140.731 243.339 155.233 240.772 170.568C238.188 185.903 223.573 196.257 208.118 193.71Z" fill="#475B73"/>
<path d="M206.472 204.88C184.5 201.239 169.621 180.563 173.275 158.777C176.945 136.991 197.782 122.211 219.738 125.853C241.693 129.495 256.589 150.17 252.918 171.956C249.264 193.742 228.428 208.506 206.472 204.88ZM219.655 126.408C198.012 122.831 177.455 137.383 173.851 158.875C170.247 180.351 184.911 200.749 206.571 204.325C228.214 207.902 248.771 193.35 252.375 171.858C255.98 150.383 241.298 129.985 219.655 126.408Z" fill="white"/>
<path d="M271.55 163.284C271.286 163.219 271.039 163.137 270.776 163.056C270.99 167.155 270.792 171.336 270.085 175.549C264.834 206.791 234.946 227.973 203.46 222.763C182.837 219.35 166.576 205.452 159.285 187.504C159.022 187.52 158.758 187.52 158.495 187.52C165.836 205.844 182.377 220.036 203.361 223.498C235.258 228.773 265.526 207.33 270.842 175.68C271.533 171.499 271.747 167.351 271.55 163.284Z" fill="white"/>
<path d="M185.603 115.531C196.515 109.701 209.369 107.267 222.503 109.439C222.766 109.488 223.013 109.537 223.26 109.586C223.211 109.325 223.178 109.064 223.145 108.803C222.964 108.77 222.799 108.737 222.635 108.705C209.385 106.516 196.4 108.95 185.389 114.796C185.455 115.041 185.537 115.286 185.603 115.531Z" fill="white"/>
<path d="M355.834 245.382C355.834 245.382 345.959 176.872 390.151 151.395C458.75 205.975 404.47 272.77 404.47 272.77L355.834 245.382Z" fill="#617B9B"/>
<path d="M390.134 151.395C390.381 151.591 390.611 151.771 390.842 151.967L381.773 233.02L423.891 204.031C423.989 204.586 424.072 205.142 424.138 205.713L381.543 235.028L378.926 258.415L377.477 257.598L382.695 210.972L359.965 191.995C360.13 191.472 360.295 190.95 360.459 190.427L382.909 209.159L389.311 151.901C389.591 151.722 389.854 151.558 390.134 151.395Z" fill="#00666A"/>
<path d="M376.275 233.51C376.275 233.51 411.628 174.063 460.526 175.876C487.321 227.875 433.419 266.352 433.419 266.352L374.185 280.07L376.275 233.51Z" fill="#F04637"/>
<path d="M409.884 195.278L419.085 224.495L459.375 175.86C459.754 175.86 460.149 175.86 460.527 175.877C460.626 176.089 460.725 176.285 460.824 176.481L439.246 202.53L467.884 201.566C467.901 201.844 467.901 202.105 467.917 202.366L467.934 203.085L437.946 204.097L401.984 247.506L452.298 247.408C451.903 247.931 451.508 248.437 451.113 248.927L400.717 249.025L375.173 279.843L374.169 280.071L374.235 278.569L417.883 225.884L408.568 196.307C409.028 195.964 409.456 195.621 409.884 195.278Z" fill="white"/>
<path d="M106.817 49.6755L99.4881 56.3945L109.146 57.7024L143.212 59.4869L106.817 49.6755Z" fill="#AFD8C7"/>
<path d="M99.4881 56.3944L114.987 61.0928L111.974 57.8513L99.4881 56.3944Z" fill="#63C0C4"/>
<path d="M106.817 49.6754L107.163 40.6269L143.213 59.4869L106.817 49.6754Z" fill="url(#paint0_linear)"/>
<path d="M143.212 59.4869L109.146 57.7024L109.366 71.0459L143.212 59.4869Z" fill="url(#paint1_linear)"/>
<path d="M99.7334 66.0074C99.6803 65.9346 99.6039 65.8531 99.5829 65.7658C99.4375 65.3669 99.6255 64.9329 100.026 64.7898C101.267 64.3228 102.544 63.9751 103.825 63.7614C104.231 63.6737 104.633 63.9558 104.715 64.3838C104.781 64.7798 104.523 65.1878 104.093 65.2668C102.9 65.46 101.71 65.7872 100.557 66.2338C100.262 66.3098 99.9481 66.2198 99.7334 66.0074Z" fill="#63C0C4"/>
<path d="M82.0755 147.503C82.4079 147.256 82.4551 146.769 82.1812 146.429C80.6735 144.595 79.4773 142.427 78.622 139.987C78.4766 139.588 78.0483 139.376 77.6481 139.519C77.2479 139.662 77.0365 140.087 77.1819 140.486C78.1111 143.086 79.3814 145.415 80.9951 147.394C81.0186 147.402 81.0099 147.426 81.0334 147.434C81.3011 147.72 81.7432 147.751 82.0755 147.503ZM76.8896 136.532C77.3107 136.476 77.5925 136.077 77.5026 135.672C77.1067 133.218 77.0443 130.728 77.3214 128.258C77.3661 127.85 77.054 127.469 76.6441 127.423C76.2341 127.376 75.8524 127.685 75.8076 128.093C75.5107 130.688 75.5767 133.312 75.9997 135.909C76.0267 136.052 76.0859 136.18 76.2007 136.302C76.3771 136.474 76.6352 136.57 76.8896 136.532ZM77.2784 124.423C77.6858 124.547 78.0972 124.302 78.2123 123.921L78.3101 123.586C78.9895 121.398 79.9382 119.204 81.1387 117.051C81.3563 116.681 81.2048 116.227 80.8554 116.018C80.4827 115.8 80.0269 115.949 79.818 116.295C78.5915 118.518 77.5848 120.797 76.862 123.101L76.7555 123.459C76.6837 123.724 76.7465 123.986 76.9378 124.19C77.0056 124.295 77.1377 124.37 77.2784 124.423ZM82.4811 113.439C82.8217 113.672 83.2985 113.61 83.5395 113.249C84.8992 111.314 86.5046 109.364 88.3384 107.446C88.6325 107.158 88.6094 106.645 88.3095 106.375C88.0183 106.081 87.5268 106.11 87.2327 106.399C85.3729 108.387 83.7181 110.398 82.3176 112.37C82.1026 112.662 82.1368 113.072 82.3898 113.325C82.3959 113.381 82.4342 113.422 82.4811 113.439ZM90.467 104.232C90.7583 104.526 91.2324 104.543 91.55 104.263C91.7131 104.112 91.8675 103.984 92.0072 103.823C92.6452 104.405 93.3326 104.926 94.02 105.447C94.3607 105.679 94.8374 105.618 95.0697 105.28C95.3256 104.95 95.2383 104.467 94.8976 104.234C94.2867 103.795 93.693 103.309 93.1081 102.8C94.3783 101.681 95.7214 100.509 97.2485 99.2728C97.5574 99.0162 97.6281 98.5386 97.3542 98.1981C97.0951 97.8896 96.6148 97.8172 96.2738 98.0884C94.7059 99.3624 93.2986 100.563 92.0025 101.753C91.1436 100.903 90.3429 99.969 89.6385 98.9912C89.3967 98.6361 88.9164 98.5637 88.584 98.8115C88.2517 99.0593 88.1575 99.5283 88.408 99.8601C89.1506 100.879 89.9662 101.845 90.8867 102.744C90.7557 102.881 90.6099 102.986 90.4789 103.123C90.1762 103.435 90.161 103.906 90.467 104.232C90.4436 104.224 90.4436 104.224 90.467 104.232ZM87.0547 96.1744C87.4401 95.9993 87.6047 95.5565 87.4506 95.181C86.8231 93.7808 86.3795 92.3163 86.0941 90.8575C85.9256 89.9462 85.8212 89.0056 85.796 88.0679C85.7851 87.666 85.4322 87.3227 85.005 87.3231C84.5777 87.3235 84.2577 87.6819 84.2598 88.1071C84.2826 89.1235 84.4165 90.128 84.5825 91.118C84.8715 92.7108 85.3594 94.2713 86.0548 95.7763C86.0844 95.8403 86.1374 95.9131 86.1905 95.9859C86.3965 96.2216 86.7422 96.297 87.0547 96.1744ZM98.097 107.837C100.552 108.988 103.108 109.725 105.702 110C106.112 110.046 106.494 109.737 106.538 109.329C106.583 108.922 106.271 108.54 105.861 108.494C103.448 108.234 101.057 107.558 98.7426 106.459C98.3525 106.287 97.9202 106.445 97.726 106.824C97.59 107.118 97.6589 107.435 97.865 107.671C97.9415 107.753 98.0032 107.802 98.097 107.837ZM85.2059 84.268C85.6307 84.3463 86.0272 84.0693 86.0954 83.6702C86.5281 81.2848 87.3706 78.9455 88.5885 76.7457C88.7826 76.367 88.6546 75.9215 88.2818 75.7035C87.9004 75.5087 87.4533 75.6343 87.2357 76.0043C85.9337 78.3585 85.0392 80.8376 84.578 83.3716C84.5383 83.6221 84.6098 83.8608 84.7628 84.0238C84.901 84.1547 85.0565 84.239 85.2059 84.268ZM110.449 110.013C111.148 109.928 111.823 109.834 112.469 109.676C114.39 109.25 116.267 108.435 117.924 107.354C118.28 107.114 118.374 106.646 118.123 106.314C117.881 105.959 117.41 105.863 117.078 106.111C115.59 107.096 113.873 107.838 112.152 108.232C111.538 108.376 110.909 108.487 110.274 108.543C109.853 108.598 109.557 108.966 109.614 109.385C109.633 109.551 109.715 109.688 109.807 109.801C109.968 109.941 110.203 110.028 110.449 110.013ZM100.836 96.4419C103.236 94.6546 105.284 93.453 107.247 92.6971C107.623 92.5453 107.811 92.1112 107.666 91.7124C107.512 91.3368 107.075 91.1479 106.675 91.291C104.584 92.1053 102.43 93.374 99.9173 95.2516C99.585 95.4995 99.5143 95.9771 99.7647 96.3089C99.7795 96.3409 99.803 96.3496 99.8178 96.3817C100.071 96.6348 100.504 96.6897 100.836 96.4419ZM90.0247 73.1683C90.3567 73.4243 90.8247 73.386 91.104 73.0654C91.8282 72.194 92.5907 71.3634 93.4297 70.6142C94.4317 69.7135 95.4955 68.8622 96.6098 68.1623C96.957 67.9465 97.0511 67.4775 96.8415 67.1079C96.6232 66.7615 96.1515 66.6658 95.7809 66.8729C94.5937 67.6253 93.4336 68.5204 92.3821 69.4823C91.4937 70.2927 90.667 71.1525 89.9167 72.0938C89.6782 72.3765 89.7039 72.8104 89.9482 73.0868C89.963 73.1188 90.0012 73.1596 90.0247 73.1683ZM120.36 104.174C120.7 104.407 121.186 104.322 121.418 103.984C122.679 102.172 123.195 100.135 122.928 98.1263C122.824 97.3983 122.633 96.6908 122.323 96.0184C122.145 95.6341 121.7 95.4685 121.323 95.6203C120.937 95.7953 120.773 96.2381 120.927 96.6137C121.179 97.158 121.342 97.7228 121.418 98.3081C121.626 99.9766 121.21 101.599 120.164 103.12C119.973 103.42 119.992 103.799 120.245 104.052C120.275 104.116 120.322 104.134 120.36 104.174ZM111.473 91.6683C113.804 91.5002 116.354 92.1824 118.266 93.5029C118.606 93.7355 119.092 93.6507 119.324 93.3126C119.556 92.9746 119.469 92.4913 119.128 92.2586C116.891 90.7375 114.075 89.9827 111.363 90.1686C110.95 90.201 110.63 90.5595 110.665 90.97C110.683 91.136 110.757 91.2961 110.872 91.4184C110.993 91.5959 111.227 91.683 111.473 91.6683Z" fill="#63C0C4"/>
<path d="M84.4034 150.649C84.1504 150.396 84.1396 149.994 84.3547 149.703C84.6105 149.374 85.0638 149.303 85.4279 149.545C86.4177 150.257 87.4743 150.862 88.5742 151.35C88.9643 151.522 89.1479 151.962 88.9772 152.349C88.8066 152.737 88.3656 152.917 87.9755 152.746C86.7584 152.214 85.6166 151.551 84.5417 150.78C84.4886 150.708 84.4503 150.667 84.4034 150.649Z" fill="#63C0C4"/>
<path d="M226.228 324.164C220.913 291.589 210.611 252.059 190.568 218.359L192.394 217.259C212.343 250.817 222.716 290.067 228.124 322.642L226.228 324.164Z" fill="#00666B"/>
<path d="M184.972 191.241C195.298 198.594 199.208 210.842 193.682 218.57C188.156 226.298 175.325 226.626 165 219.249C154.674 211.896 152.051 200.444 157.577 192.693C163.08 184.988 174.646 183.887 184.972 191.241Z" fill="#FF7B7C"/>
<path d="M214.006 195.55C214.591 208.219 207.379 218.851 197.873 219.273C188.39 219.718 180.219 209.788 179.633 197.119C179.048 184.449 186.775 175.902 196.257 175.457C205.764 175.035 213.42 182.88 214.006 195.55Z" fill="#FF7B7C"/>
<path d="M201.9 241.637C191.575 234.284 187.665 222.036 193.19 214.308C198.716 206.58 211.547 206.252 221.873 213.629C232.199 220.982 234.821 232.434 229.295 240.185C223.793 247.89 212.226 248.991 201.9 241.637Z" fill="#FF7B7C"/>
<path d="M217.284 225.104C205.577 229.998 193.121 226.86 189.468 218.078C185.815 209.32 192.324 198.243 204.008 193.348C215.716 188.454 226.088 192.107 229.741 200.866C233.417 209.648 228.992 220.209 217.284 225.104Z" fill="#FF7B7C"/>
<path d="M181.834 239.975C170.127 244.869 159.755 241.216 156.102 232.457C152.449 223.699 156.875 213.114 168.582 208.219C180.289 203.325 192.746 206.486 196.398 215.245C200.051 224.027 193.542 235.104 181.834 239.975Z" fill="#FF7B7C"/>
<path d="M171.345 237.703C170.759 225.034 177.971 214.402 187.477 213.98C196.96 213.535 205.132 223.465 205.717 236.134C206.302 248.803 198.576 257.351 189.093 257.796C179.587 258.194 171.93 250.372 171.345 237.703Z" fill="#FF7B7C"/>
<path d="M196.056 230.138C203.876 228.254 208.688 220.386 206.804 212.565C204.921 204.744 197.054 199.931 189.235 201.815C181.415 203.699 176.603 211.567 178.487 219.388C180.37 227.209 188.237 232.022 196.056 230.138Z" fill="#F04637"/>
<path d="M87.9892 239.928C87.9892 239.928 90.0263 228.289 87.0293 221.872C87.0059 221.802 86.959 221.755 86.9356 221.685C83.3064 214.284 72.0442 219.109 74.7368 226.907C74.8773 227.329 75.0646 227.75 75.2519 228.172C78.366 234.799 87.9892 239.928 87.9892 239.928Z" fill="#6680A1"/>
<path d="M78.4274 218.58L77.7275 218.907L87.6261 240.077L88.326 239.75L78.4274 218.58Z" fill="#00666B"/>
<path d="M87.8717 239.951C87.8717 239.951 84.8513 251.379 79.4192 255.945C79.3724 255.992 79.3021 256.039 79.2553 256.086C72.8631 261.285 64.6447 252.175 70.3578 246.227C70.6622 245.899 71.0135 245.594 71.3413 245.29C76.9607 240.559 87.8717 239.951 87.8717 239.951Z" fill="#6680A1"/>
<path d="M87.6133 239.632L69.7559 254.707L70.2542 255.297L88.1117 240.223L87.6133 239.632Z" fill="#00666B"/>
<path d="M110.654 248.358C110.654 248.358 113.042 234.659 109.53 227.118C109.483 227.048 109.46 226.977 109.413 226.884C105.128 218.172 91.8991 223.863 95.0601 233.019C95.224 233.534 95.4347 234.026 95.6689 234.495C99.3215 242.316 110.654 248.358 110.654 248.358Z" fill="#6680A1"/>
<path d="M99.3719 223.276L98.5659 223.653L110.21 248.557L111.016 248.18L99.3719 223.276Z" fill="#00666B"/>
<path d="M110.491 248.358C110.491 248.358 106.932 261.8 100.563 267.163C100.493 267.21 100.446 267.28 100.376 267.327C92.8361 273.439 83.1894 262.714 89.9327 255.735C90.3074 255.36 90.682 254.986 91.1034 254.634C97.6595 249.084 110.491 248.358 110.491 248.358Z" fill="#6680A1"/>
<path d="M110.228 248.032L89.2188 265.763L89.7925 266.443L110.802 248.712L110.228 248.032Z" fill="#00666B"/>
<path d="M132.313 260.091C132.313 260.091 137.183 247.07 135.122 239.014C135.099 238.944 135.076 238.851 135.052 238.78C132.453 229.436 118.381 232.574 119.81 242.176C119.88 242.715 119.997 243.23 120.114 243.745C122.291 252.059 132.313 260.091 132.313 260.091Z" fill="#6680A1"/>
<path d="M125.883 233.358L125.021 233.58L131.876 260.204L132.738 259.982L125.883 233.358Z" fill="#00666B"/>
<path d="M132.172 260.068C132.172 260.068 126.201 272.621 118.943 276.719C118.873 276.766 118.802 276.789 118.732 276.836C110.209 281.449 102.693 269.155 110.607 263.511C111.052 263.206 111.497 262.902 111.942 262.644C119.411 258.429 132.172 260.068 132.172 260.068Z" fill="#6680A1"/>
<path d="M131.971 259.664L108.056 273.221L108.494 273.995L132.409 260.438L131.971 259.664Z" fill="#00666B"/>
<path d="M154.112 276.062C154.112 276.062 161.557 261.847 160.34 252.316C160.316 252.222 160.316 252.129 160.293 252.035C158.654 240.958 142.1 242.551 142.357 253.745C142.381 254.354 142.428 254.986 142.498 255.595C143.762 265.43 154.112 276.062 154.112 276.062Z" fill="#6680A1"/>
<path d="M150.577 244.495L149.555 244.626L153.601 276.098L154.623 275.967L150.577 244.495Z" fill="#00666B"/>
<path d="M153.924 276.016C153.924 276.016 145.284 289.528 136.387 293.205C136.293 293.252 136.2 293.275 136.129 293.322C125.71 297.397 118.873 282.222 128.707 276.906C129.246 276.624 129.807 276.343 130.369 276.109C139.571 272.315 153.924 276.016 153.924 276.016Z" fill="#6680A1"/>
<path d="M153.727 275.554L124.399 287.656L124.792 288.609L154.12 276.506L153.727 275.554Z" fill="#00666B"/>
<path d="M177.034 295.031C176.847 294.844 157.226 275.43 130.603 258.78C105.948 243.37 70.0539 227.258 39.0767 238.007L39.662 239.693C69.9602 229.179 105.316 245.103 129.644 260.302C156.102 276.835 175.559 296.109 175.77 296.296L177.034 295.031Z" fill="#F04637"/>
<path d="M28.9848 236.719L28.6102 236.134C28.4697 236.228 15.3108 244.377 3.43974 240.818L3.229 241.497C15.4045 245.15 28.8443 236.813 28.9848 236.719Z" fill="#F04637"/>
<path d="M35.3303 250.607C35.1899 250.653 20.0876 255.36 14.8896 266.953L15.5218 267.234C20.5793 255.946 35.3771 251.309 35.541 251.262L35.3303 250.607Z" fill="#F04637"/>
<path d="M30.0152 246.532C29.1957 246.743 9.6916 251.637 5.94531 256.625L6.50723 257.047C10.113 252.246 29.9918 247.258 30.2025 247.211L30.0152 246.532Z" fill="#F04637"/>
<path d="M31.4202 257.117C37.4143 248.71 30.507 250.279 27.1119 250.56L14.9364 251.52L23.6466 242.925C26.0817 240.537 31.7714 236.345 21.4924 235.385C11.2135 234.424 9.87891 230.841 9.87891 230.841C9.87891 230.841 30.1324 221.778 39.9664 222.832C46.5459 223.535 50.9712 227.891 53.1721 230.701C53.8043 231.52 55.5136 235.244 55.7009 236.251C56.3799 239.764 56.8014 245.946 53.0083 251.379C47.342 259.506 27.2524 268.896 27.2524 268.896C27.2524 268.896 25.4495 265.524 31.4202 257.117Z" fill="#ACC1D6"/>
<path d="M3.60092 243.225C4.57709 242.779 5.00666 241.626 4.56038 240.649C4.1141 239.673 2.96097 239.243 1.98479 239.69C1.00862 240.136 0.579061 241.289 1.02534 242.266C1.47163 243.242 2.62474 243.672 3.60092 243.225Z" fill="#F04637"/>
<path d="M6.80411 258.513C7.75678 258.078 8.17599 256.952 7.74046 256C7.30492 255.047 6.17957 254.627 5.2269 255.063C4.27424 255.499 3.85502 256.624 4.29056 257.577C4.72609 258.53 5.85144 258.949 6.80411 258.513Z" fill="#F04637"/>
<path d="M15.4752 268.737C16.3456 268.339 16.7285 267.311 16.3307 266.441C15.9328 265.57 14.9047 265.187 14.0344 265.585C13.164 265.983 12.7811 267.011 13.1789 267.882C13.5768 268.752 14.6049 269.135 15.4752 268.737Z" fill="#F04637"/>
<path d="M195.11 269.107C195.11 269.107 183.075 263.651 159.333 283.931C191.059 308.942 204.054 279.201 204.054 279.201L195.11 269.107Z" fill="#ACC1D6"/>
<path d="M162.025 284.61C180.195 276.109 199.114 276.39 199.114 276.39L162.025 284.61Z" fill="#475B73"/>
<path d="M194.361 269.763C194.361 269.763 190.38 257.164 213.326 235.994C234.376 270.489 203.305 279.833 203.305 279.833L194.361 269.763Z" fill="#ACC1D6"/>
<path d="M213.538 238.78C202.931 255.829 200.964 274.634 200.964 274.634L213.538 238.78Z" fill="#00666B"/>
<path d="M233.674 317.911L230.138 319.457C230.021 319.176 216.769 289.926 162.002 242.761L164.531 239.834C220.093 287.678 233.159 316.694 233.674 317.911Z" fill="#475B73"/>
<path d="M168.98 255.876C168.98 255.876 146.315 262.129 137.581 225.76C177.386 223.043 178.861 254.354 178.861 254.354L168.98 255.876Z" fill="#ACC1D6"/>
<path d="M137.581 225.76C156.289 233.441 177.245 253.745 177.245 253.745L137.581 225.76Z" fill="#475B73"/>
<path d="M226.696 296.952C233.158 285.664 239.972 272.901 247.066 258.499L242.383 256.204C235.429 270.349 228.709 282.901 222.317 294.025C223.792 295.008 225.244 295.992 226.696 296.952Z" fill="#00666B"/>
<path d="M227.703 269.693C227.703 269.693 211.898 242.246 256.362 218.641C273.314 269.623 232.994 282.081 232.994 282.081L227.703 269.693Z" fill="#6680A1"/>
<path d="M256.362 218.641C252.662 245.595 233.252 279.739 233.252 279.739L256.362 218.641Z" fill="#2D2C45"/>
<path d="M487.485 218.57H484.137C483.552 218.57 483.06 218.078 483.06 217.493V173.747C483.06 173.162 483.552 172.67 484.137 172.67H487.485C488.071 172.67 488.562 173.162 488.562 173.747V217.493C488.539 218.078 488.071 218.57 487.485 218.57Z" fill="#053C5E"/>
<path d="M449.777 296.038V285.359L263.024 285.359V296.038L449.777 296.038Z" fill="#053C5E"/>
<path d="M378.468 132.273L363.834 218.57H475.685L464.704 132.086L378.468 132.273Z" fill="url(#paint2_linear)"/>
<path d="M366.41 218.898L361.235 218.219L377.11 126.442L382.308 127.121L366.41 218.898Z" fill="#475B73"/>
<path d="M458.381 224.87L453.137 225.174L445.902 132.578L451.146 132.273L458.381 224.87Z" fill="#475B73"/>
<path d="M477.019 224.589L471.798 225.104L459.95 132.859L465.172 132.367L477.019 224.589Z" fill="#475B73"/>
<path d="M543.727 253.792H340.396V301.074H543.727V253.792Z" fill="#25374B"/>
<path d="M545.015 277.421C545.015 277.421 548.527 265.173 548.855 250.958C549.346 229.132 531.692 211.217 509.87 211.217H367.066C353.579 211.217 341.801 220.584 339.062 233.769C335.48 251.028 339.226 271.473 339.226 277.234V277.421H545.015Z" fill="#6680A1"/>
<path d="M371.725 342.595C400.743 342.595 424.267 319.067 424.267 290.044C424.267 261.02 400.743 237.492 371.725 237.492C342.707 237.492 319.183 261.02 319.183 290.044C319.183 319.067 342.707 342.595 371.725 342.595Z" fill="#2D2C45"/>
<path d="M371.725 302.666C378.695 302.666 384.345 297.015 384.345 290.044C384.345 283.072 378.695 277.421 371.725 277.421C364.755 277.421 359.104 283.072 359.104 290.044C359.104 297.015 364.755 302.666 371.725 302.666Z" fill="#6680A1"/>
<path d="M524.27 342.595C544.003 342.595 560 326.595 560 306.858C560 287.121 544.003 271.121 524.27 271.121C504.536 271.121 488.539 287.121 488.539 306.858C488.539 326.595 504.536 342.595 524.27 342.595Z" fill="#2D2C45"/>
<path d="M524.269 315.429C529.002 315.429 532.839 311.592 532.839 306.858C532.839 302.124 529.002 298.287 524.269 298.287C519.537 298.287 515.7 302.124 515.7 306.858C515.7 311.592 519.537 315.429 524.269 315.429Z" fill="#6680A1"/>
<path d="M465.546 140.399H378.445C374.23 140.399 370.788 136.957 370.788 132.742V132.624C370.788 128.409 374.23 124.967 378.445 124.967H465.546C469.761 124.967 473.202 128.409 473.202 132.624V132.742C473.202 136.957 469.761 140.399 465.546 140.399Z" fill="#475B73"/>
<path d="M539.77 225.174C531.809 225.174 515.7 225.174 515.7 225.174L520.43 240.279H547.59C547.59 240.279 546.466 231.614 539.77 225.174Z" fill="url(#paint3_linear)"/>
<path d="M488.165 175.316H483.458V166.675C483.458 160.68 488.328 155.785 494.346 155.785V160.492C490.951 160.492 488.188 163.256 488.188 166.651V175.316H488.165Z" fill="#053C5E"/>
<path d="M284.155 295.289H104.215V303.86H284.155V295.289Z" fill="#25374B"/>
<path d="M106.156 293.125L37.9683 312.365L40.2949 320.614L108.483 301.374L106.156 293.125Z" fill="#25374B"/>
<path d="M274.626 293.954C270.083 293.954 266.36 290.231 266.36 285.688C266.36 281.145 270.083 277.421 274.626 277.421C279.168 277.421 282.891 281.145 282.891 285.688C282.867 290.231 279.168 293.954 274.626 293.954Z" fill="#053C5E"/>
<path d="M208.176 283.276C210.096 300.418 219.087 340.885 261.678 340.885C243.274 314.469 240.441 293.767 240.511 283.276H208.176Z" fill="#25374B"/>
<path d="M150.951 283.276C152.871 300.418 161.862 340.885 204.453 340.885C186.049 314.469 183.216 293.767 183.286 283.276H150.951Z" fill="#25374B"/>
<path d="M97.8936 283.276C99.8135 300.418 108.805 340.885 151.395 340.885C132.992 314.469 130.159 293.767 130.229 283.276H97.8936Z" fill="#25374B"/>
<path d="M47.3422 344.117C59.4072 344.117 69.1878 334.335 69.1878 322.267C69.1878 310.2 59.4072 300.418 47.3422 300.418C35.2772 300.418 25.4966 310.2 25.4966 322.267C25.4966 334.335 35.2772 344.117 47.3422 344.117Z" fill="#2D2C45"/>
<path d="M47.342 327.513C50.2386 327.513 52.5868 325.165 52.5868 322.267C52.5868 319.37 50.2386 317.022 47.342 317.022C44.4453 317.022 42.0972 319.37 42.0972 322.267C42.0972 325.165 44.4453 327.513 47.342 327.513Z" fill="#6680A1"/>
<path d="M292.085 370.552C292.085 370.552 291.171 371.817 286.816 372.941C285.856 373.175 284.826 373.339 284.826 374.931C286.863 374.931 289.111 374.931 289.111 374.931L293.489 374.182V374.931H295.854C295.854 374.931 296.51 371.067 295.128 370.576C293.864 370.552 292.085 370.552 292.085 370.552Z" fill="#212B53"/>
<path d="M291.851 367.765L292.085 370.552C292.951 371.161 294.075 371.184 294.988 370.646L295.152 370.552V367.765H291.851Z" fill="#F7B58E"/>
<path d="M314.047 371.114C314.047 371.114 313.134 372.379 308.779 373.503C307.819 373.737 306.789 373.901 306.789 375.494C308.826 375.494 311.073 375.494 311.073 375.494L315.452 374.744V375.494H317.817C317.817 375.494 318.472 371.629 317.091 371.138C315.827 371.114 314.047 371.114 314.047 371.114Z" fill="#212B53"/>
<path d="M313.813 368.327L314.047 371.114C314.913 371.723 316.037 371.747 316.951 371.208L317.114 371.114V368.327H313.813Z" fill="#F7B58E"/>
<path d="M290.118 299.5L291.195 369.288H296.276C296.276 369.288 304.002 312.943 302.363 299.5C300.701 286.058 290.118 299.5 290.118 299.5Z" fill="#212B53"/>
<path d="M295.479 299.477C295.479 299.477 297.259 320.905 301.31 332.778C305.384 344.651 312.713 369.264 312.713 369.264H317.981C317.981 369.264 309.2 317.79 311.214 299.454H295.479V299.477Z" fill="#12375A"/>
<path d="M290.914 263.951C290.914 263.951 284.638 278.564 283.07 278.564C281.805 278.564 283.538 266.621 283.538 266.621H278.293C278.293 266.621 271.69 287.065 276.935 290.812C282.18 294.559 293.7 280.227 293.7 280.227L290.914 263.951Z" fill="url(#paint4_linear)"/>
<path d="M309.575 301.327L307.678 306.011C306.765 307.861 303.393 307.908 301.169 307.322C300.841 307.229 300.724 306.807 300.958 306.573C302.176 305.238 305.36 301.795 306.461 301.023L309.575 301.327Z" fill="#F7B58E"/>
<path d="M293.7 260.954C293.7 260.954 290.422 263.178 290.422 265.708C290.422 268.26 290.422 299.477 290.422 299.477H309.598V267.909C309.598 267.909 309.2 260.883 302.34 260.883C295.479 260.883 293.7 260.954 293.7 260.954Z" fill="url(#paint5_linear)"/>
<path d="M290.75 299.5V269.15L290.118 269.174V299.5H290.75Z" fill="#63C0C4"/>
<path d="M300.654 253.389V261.352C300.654 261.352 299.32 263.178 296.931 263.178C294.543 263.178 294.543 261.445 294.543 261.445V256.34L298.079 255.427L300.654 253.389Z" fill="#F39F85"/>
<path d="M294.238 257.862C293.513 257.839 292.81 257.722 292.459 257.394C290.328 253.998 292.763 244.889 292.763 244.889L300.467 246.27L300.701 252.382C300.771 254.022 300.045 255.591 298.781 256.598C297.423 257.441 295.831 257.909 294.238 257.862Z" fill="#F7B58E"/>
<path d="M296.837 246.434C296.837 246.434 294.285 246.903 291.593 246.434C288.9 245.966 290.633 242.992 290.633 242.992C290.633 242.992 292.623 243.905 296.158 243.366C298.547 243.015 299.179 242.547 300.724 243.366C302.808 244.467 302.293 248.237 302.293 248.237L301.146 256.2H300.724C300.724 256.2 300.607 251.469 300.607 249.853C300.162 249.127 299.671 249.127 299.296 249.315C298.898 249.502 298.664 249.947 298.664 250.415V258.682C298.664 258.682 293.396 260.954 292.061 260.532C290.726 260.111 291.616 253.998 291.616 253.998C291.616 253.998 293.161 253.319 294.355 254.677C295.55 256.012 296.978 254.631 296.978 254.631L296.837 246.434Z" fill="#212B53"/>
<path d="M279.277 266.644L279.464 265.637C279.862 263.413 282.016 260.626 284.147 259.9H286.372L285.693 264.654L282.555 266.644H279.277Z" fill="#F7B58E"/>
<path d="M299.975 249.104C299.39 249.057 298.805 249.619 298.711 250.369C298.594 251.118 298.992 251.75 299.577 251.821C300.163 251.867 300.748 251.305 300.842 250.556C300.959 249.806 300.561 249.151 299.975 249.104Z" fill="#F7B58E"/>
<path d="M284.779 264.139L280.447 266.644C280.447 266.644 283.163 266.621 283.21 266.644L287.799 262.804C287.799 262.804 287.471 262.125 286.418 262.71C285.388 263.249 284.779 264.139 284.779 264.139Z" fill="#F7B58E"/>
<path d="M307.561 262.991C307.561 262.991 318.402 275.028 318.402 282.241C318.402 289.454 309.598 302.17 309.598 302.17L305.243 300.906C305.243 300.906 309.177 285.168 309.177 280.976C309.177 276.785 301.122 270.649 301.122 270.649" fill="url(#paint6_linear)"/>
<path d="M308.849 281C308.849 284.606 305.665 297.791 304.916 300.859C305.126 300.906 305.22 300.929 305.571 301.023C306.484 297.229 309.505 284.536 309.505 281C309.505 276.714 301.661 270.672 301.333 270.415L300.958 270.93C301.005 270.977 308.849 277.019 308.849 281Z" fill="#63C0C4"/>
<path d="M287.682 256.247C287.682 256.247 288.572 260.907 285.692 264.654C285.505 264.888 285.2 265.052 284.873 265.099C284.194 265.192 283.725 264.958 283.374 264.841C282.836 264.701 282.578 264.42 282.461 264.185C282.367 263.998 282.391 263.764 282.531 263.553C283.117 262.687 284.919 259.689 284.1 257.043C285.645 255.825 287.682 256.247 287.682 256.247Z" fill="#F49B42"/>
<path d="M282.999 264.701C282.671 264.537 282.601 264.42 282.484 264.209C282.39 264.021 282.414 263.787 282.554 263.576C283.14 262.71 284.943 259.712 284.123 257.066C284.662 256.621 285.27 256.387 285.832 256.293C285.903 259.197 285.294 261.141 282.999 264.701Z" fill="#F9B646"/>
<path d="M285.104 260.047C285.242 259.375 285.138 258.786 284.872 258.732C284.606 258.677 284.278 259.177 284.141 259.849C284.003 260.52 284.107 261.109 284.373 261.164C284.639 261.218 284.966 260.718 285.104 260.047Z" fill="#F49B42"/>
<path d="M284.942 258.799L284.662 258.729L284.685 258.869L284.872 258.939L284.942 258.799Z" fill="#F49B42"/>
<path d="M284.45 261.211L284.123 261.141L284.497 261.094L284.45 261.211Z" fill="#E7365E"/>
<path d="M284.927 260.031C285.065 259.359 284.961 258.771 284.695 258.716C284.429 258.661 284.102 259.161 283.964 259.833C283.826 260.504 283.93 261.093 284.196 261.148C284.462 261.202 284.789 260.702 284.927 260.031Z" fill="#FFD147"/>
<path d="M288.853 252.312H289.368C290.352 252.312 291.148 253.085 291.148 254.022V255.38C291.148 256.317 290.352 257.09 289.368 257.09H288.853V252.312Z" fill="#FFD147"/>
<path d="M275.039 260.321C276.086 260.321 276.935 257.333 276.935 253.647C276.935 249.961 276.086 246.973 275.039 246.973C273.991 246.973 273.142 249.961 273.142 253.647C273.142 257.333 273.991 260.321 275.039 260.321Z" fill="#212B53"/>
<path d="M277.029 251.188L275.53 252.172V254.326L277.052 255.731L277.591 252.921L277.029 251.188Z" fill="white"/>
<path d="M276.935 253.647C276.935 250.556 276.326 247.956 275.53 247.184C281.805 251.703 289.157 252.359 289.157 252.359V257.066C289.157 257.066 279.206 256.504 275.53 260.087C276.326 259.361 276.935 256.762 276.935 253.647Z" fill="#F6A505"/>
<path d="M275.531 254.326C275.647 254.326 275.741 253.844 275.741 253.249C275.741 252.654 275.647 252.172 275.531 252.172C275.414 252.172 275.32 252.654 275.32 253.249C275.32 253.844 275.414 254.326 275.531 254.326Z" fill="#FFD147"/>
<path d="M281.688 263.178C281.852 263.225 282.367 263.576 284.124 263.576C285.388 263.576 285.95 262.031 286.161 261.188C286.231 260.883 286.301 260.462 285.927 260.275L283.889 259.993L281.688 263.178Z" fill="#F7B58E"/>
<path d="M477.675 366.947C477.675 366.947 477.651 370.132 471.259 372.052C469.948 372.451 470.369 372.825 470.135 373.387C472.243 373.387 477.487 373.387 477.487 373.387L480.367 370.156L481.257 370.928L483.341 368.891C483.341 368.891 482.381 365.94 480.789 365.917C479.501 366.338 477.675 366.947 477.675 366.947Z" fill="#212B53"/>
<path d="M476.48 364.207L477.675 366.971C478.775 367.275 479.922 366.924 480.671 366.057L480.812 365.893L479.852 363.06L476.48 364.207Z" fill="#F7B58E"/>
<path d="M445.269 368.212C445.269 368.212 442.975 370.343 437.73 371.678C436.583 371.982 435.342 371.584 435.342 373.481C437.777 373.481 441.687 373.481 441.687 373.481L446.978 372.568V373.481H449.835C449.835 373.481 450.631 368.821 448.969 368.212C447.423 368.212 445.269 368.212 445.269 368.212Z" fill="#212B53"/>
<path d="M445.831 364.863L445.269 368.212C446.3 368.938 447.681 368.985 448.758 368.329L448.945 368.212L448.664 364.863H445.831Z" fill="#F7B58E"/>
<path d="M457.304 296.083C457.304 296.083 463.298 308.073 465.57 324.583C466.061 328.143 467.349 331.562 469.409 334.513C475.263 342.849 480.438 363.739 480.438 363.739L476.41 364.886L447.775 318.986L447.962 296.832L457.304 296.083Z" fill="#212B53"/>
<path d="M454.143 296.34C454.143 296.34 456.602 311.375 452.645 326.152C451.919 328.845 451.825 331.632 452.293 334.372C454.003 344.676 449.203 365.87 449.203 365.87H445.363L438.737 297.582L454.143 296.34Z" fill="#053C5E"/>
<path d="M453.511 268.894C453.511 268.894 459.622 267.676 458.639 263.812C457.632 259.948 446.206 245.874 446.206 245.874L437.261 244.89C437.261 244.89 437.823 247.044 443.466 248.028C449.109 249.012 453.511 268.894 453.511 268.894Z" fill="#F7B58E"/>
<path d="M444.614 248.496C445.152 247.63 445.667 246.763 446.206 245.874L437.261 244.89C437.261 244.89 437.823 247.044 443.466 248.028C443.841 248.075 444.239 248.262 444.614 248.496Z" fill="#F39F85"/>
<path d="M444.45 255.616L445.012 262.103L451.287 260.112L449.671 254.936L444.45 255.616Z" fill="#F39F85"/>
<path d="M444.379 244.375C444.379 244.375 439.58 251.611 440.891 255.85C442.389 257.981 448.524 255.03 448.524 255.03V245.218L444.379 244.375Z" fill="#F7B58E"/>
<path d="M443.466 244.585C443.466 244.585 445.035 244.82 446.206 245.873C447.377 246.927 446.37 251.119 446.37 251.119L446.323 252.595C446.253 254.421 447.728 255.943 449.554 255.943H449.671C449.671 255.943 457.632 248.028 454.307 244.375C448.524 239.059 443.466 244.585 443.466 244.585Z" fill="#212B53"/>
<path d="M445.035 250.932C444.918 250.417 445.34 249.808 445.948 249.55C446.581 249.293 447.166 249.527 447.283 250.042C447.4 250.557 446.979 251.166 446.37 251.424C445.761 251.658 445.152 251.447 445.035 250.932Z" fill="#F7B58E"/>
<path d="M441.897 243.04C441.897 244.141 443.115 245.03 444.614 245.03C446.112 245.03 451.31 244.141 451.31 243.04C451.31 241.939 446.112 241.049 444.614 241.049C443.115 241.049 441.897 241.939 441.897 243.04Z" fill="#212B53"/>
<path d="M457.304 296.083C457.304 296.083 463.673 256.271 447.517 259.527C431.759 262.688 438.737 297.581 438.737 297.581L457.304 296.083Z" fill="#ACC1D6"/>
<path d="M449.016 262.875C449.016 262.875 459.341 275.615 457.773 279.175C456.204 282.734 442.811 297.113 442.062 297.909C440.891 299.572 442.881 306.012 438.901 303.647C434.92 301.282 438.151 296.762 439.065 295.732L449.062 279.339L443.115 271.329L449.016 262.875Z" fill="#F7B58E"/>
<path d="M452.27 266.903L445.457 274.631L442.694 271.821C440.914 269.995 440.165 267.348 440.961 264.913C441.242 264.093 441.664 263.297 442.343 262.641C442.366 262.618 442.39 262.594 442.436 262.571C444.38 260.721 447.517 261.002 449.203 263.086L452.27 266.903Z" fill="#ACC1D6"/>
<path d="M429.16 99.7449L426.959 98.3632L433.843 95.2953L430.986 88.8084C429.675 86.045 426.257 83.7968 423.025 83.7968H408.836C405.582 83.7968 402.187 86.045 400.875 88.8084L398.019 95.2953L404.903 98.3632L402.702 99.7449L401.484 110.283L415.931 110.049L430.377 110.283L429.16 99.7449Z" fill="white"/>
<path d="M433.819 95.2719L435.248 99.9556C436.278 103.375 435.177 107.051 432.391 109.487L425.952 114.522L423.868 108.878L427.427 105.553C428.598 104.452 428.949 102.813 428.317 101.384L426.959 98.3163L433.819 95.2719Z" fill="#F7B58E"/>
<path d="M405.675 125.505L399.939 126.301L398.838 125.084L399.377 122.882L404.903 122.086L405.675 125.505Z" fill="#F7B58E"/>
<path d="M399.941 126.301L392.706 127.191C392.706 127.191 385.588 128.105 386.618 124.194C387.601 120.4 393.994 122.086 393.994 122.086L399.941 122.812C399.238 123.796 399.192 125.177 399.847 126.184L399.941 126.301Z" fill="#01888B"/>
<path d="M386.616 124.194C387.014 122.672 388.279 122.04 389.66 121.806V127.215C387.881 127.005 386.054 126.302 386.616 124.194Z" fill="white"/>
<path d="M397.012 123.187H396.427V125.505H397.012V123.187Z" fill="white"/>
<path d="M395.537 123.187H394.951V125.505H395.537V123.187Z" fill="white"/>
<path d="M398.089 95.2719L396.661 99.9556C395.631 103.375 396.731 107.051 399.517 109.487L405.956 114.522L408.04 108.878L404.481 105.553C403.311 104.452 402.959 102.813 403.592 101.384L404.95 98.3163L398.089 95.2719Z" fill="#F7B58E"/>
<path d="M426.772 125.949L432.625 126.301L433.726 125.083L433.164 122.882L427.638 122.085L426.772 125.949Z" fill="#F7B58E"/>
<path d="M432.625 126.301L439.861 127.191C439.861 127.191 446.979 128.105 445.948 124.194C444.965 120.4 438.573 122.086 438.573 122.086L432.625 122.812C433.328 123.796 433.375 125.177 432.719 126.184L432.625 126.301Z" fill="#01888B"/>
<path d="M445.948 124.194C445.55 122.672 444.286 122.039 442.905 121.805V127.215C444.684 127.004 446.487 126.301 445.948 124.194Z" fill="white"/>
<path d="M436.114 123.187H435.529V125.505H436.114V123.187Z" fill="white"/>
<path d="M437.589 123.187H437.004V125.505H437.589V123.187Z" fill="white"/>
<path d="M428.809 102.157H404.996V116.419H428.809V102.157Z" fill="url(#paint7_linear)"/>
<path d="M428.809 115.81H404.996V117.004H428.809V115.81Z" fill="#CAB7CC"/>
<path d="M416.914 108.925C417.444 108.925 417.874 108.495 417.874 107.965C417.874 107.434 417.444 107.005 416.914 107.005C416.384 107.005 415.954 107.434 415.954 107.965C415.954 108.495 416.384 108.925 416.914 108.925Z" fill="white"/>
<path d="M445.878 112.602C450.631 121.079 402.702 126.278 402.702 126.278L401.882 122.508C401.882 122.508 440.001 102.157 445.878 112.602Z" fill="#212B53"/>
<path d="M386.686 112.602C382.636 121.454 430.261 126.746 430.261 126.746L430.612 122.508C430.612 122.508 391.463 102.157 386.686 112.602Z" fill="#053C5E"/>
<path d="M418.436 83.75C417.991 82.4152 417.195 78.4574 417.195 78.4574L412.091 79.4645V83.7969C412.091 83.7969 413.777 84.9912 415.205 85.0146C416.75 84.9912 418.483 83.8905 418.436 83.75Z" fill="#F39F85"/>
<path d="M418.437 71.4319L417.477 65.7646L407.666 66.9355L408.251 73.4693C408.251 73.4693 409 81.5487 414.222 80.5885C419.888 79.5347 418.694 71.3616 418.437 71.4319Z" fill="#F7B58E"/>
<path d="M420.731 70.6591C420.59 69.9799 420.778 68.9027 421.152 68.2938C422.838 65.5304 420.286 64.7108 419.396 64.4766C418.413 64.219 418.085 62.6734 416.774 62.1816C414.737 61.4322 413.613 63.2354 412.512 63.3759C411.412 63.5164 410.335 62.3455 409.047 63.5633C407.783 64.781 408.321 65.9051 407.993 66.5608C407.666 67.2166 406.331 66.1159 405.371 68.1767C404.645 69.7458 405.441 70.6591 406.448 71.1743C407.619 71.7832 409 71.7832 410.194 71.268C411.225 70.823 412.676 70.0736 414.128 68.8793C414.503 68.5748 417.5 68.3641 417.757 68.7856C418.6 70.2375 418.67 75.0149 418.67 75.0149L419.537 73.7972C419.513 73.7972 421.129 72.7433 420.731 70.6591Z" fill="#212B53"/>
<path d="M419.211 72.729C419.476 72.0409 419.318 71.34 418.86 71.1636C418.401 70.9872 417.815 71.4019 417.55 72.0901C417.285 72.7782 417.443 73.4791 417.901 73.6555C418.36 73.832 418.946 73.4171 419.211 72.729Z" fill="#F7B58E"/>
<defs>
<linearGradient id="paint0_linear" x1="143.496" y1="58.7175" x2="105.671" y2="44.6616" gradientUnits="userSpaceOnUse">
<stop offset="6.3e-07" stop-color="#F1F8F7"/>
<stop offset="1" stop-color="#BFE3EE"/>
</linearGradient>
<linearGradient id="paint1_linear" x1="139.272" y1="70.0851" x2="108.768" y2="58.75" gradientUnits="userSpaceOnUse">
<stop offset="6.3e-07" stop-color="#F1F8F7"/>
<stop offset="1" stop-color="#BFE3EE"/>
</linearGradient>
<linearGradient id="paint2_linear" x1="363.823" y1="175.325" x2="475.681" y2="175.325" gradientUnits="userSpaceOnUse">
<stop stop-color="#DFEFEA"/>
<stop offset="1" stop-color="#BFE3EE"/>
</linearGradient>
<linearGradient id="paint3_linear" x1="515.693" y1="232.735" x2="547.58" y2="232.735" gradientUnits="userSpaceOnUse">
<stop stop-color="#DFEFEA"/>
<stop offset="1" stop-color="#BFE3EE"/>
</linearGradient>
<linearGradient id="paint4_linear" x1="274.901" y1="277.705" x2="293.702" y2="277.705" gradientUnits="userSpaceOnUse">
<stop stop-color="#DFEFEA"/>
<stop offset="1" stop-color="#BFE3EE"/>
</linearGradient>
<linearGradient id="paint5_linear" x1="290.43" y1="280.182" x2="309.602" y2="280.182" gradientUnits="userSpaceOnUse">
<stop stop-color="#DFEFEA"/>
<stop offset="1" stop-color="#BFE3EE"/>
</linearGradient>
<linearGradient id="paint6_linear" x1="301.122" y1="282.597" x2="318.4" y2="282.597" gradientUnits="userSpaceOnUse">
<stop stop-color="#DFEFEA"/>
<stop offset="1" stop-color="#BFE3EE"/>
</linearGradient>
<linearGradient id="paint7_linear" x1="404.997" y1="109.283" x2="428.819" y2="109.283" gradientUnits="userSpaceOnUse">
<stop stop-color="#DFEFEA"/>
<stop offset="1" stop-color="#BFE3EE"/>
</linearGradient>
</defs>
</svg>
