<svg width="389" height="346" viewBox="0 0 389 346" fill="none" xmlns="http://www.w3.org/2000/svg">
<path d="M196.5 65.7785L213.911 47.6629L223.914 42.2397L232.451 40.9109L196.5 65.7785Z" fill="url(#paint0_linear)"/>
<path d="M196.5 65.7786L232.69 43.4304L232.451 40.911" fill="#B0D9C8"/>
<path d="M235.897 49.861L235.844 49.9689L236.041 56.5402L196.58 65.7508L235.897 49.861Z" fill="#63C1C5"/>
<path d="M242.32 43.9676L235.222 41.1218L196.714 65.6152L232.596 53.3319L242.32 43.9676Z" fill="url(#paint1_linear)"/>
<path d="M354.911 94.235C353.459 94.1974 352.06 94.0519 350.605 93.7461C350.308 93.6689 349.934 93.8877 349.884 94.2638C349.806 94.5598 350.025 94.933 350.402 94.9825C351.856 95.2884 353.336 95.4061 354.896 95.4962C355.434 95.4902 355.972 95.4843 356.509 95.4783C356.698 95.5031 356.831 95.3674 356.964 95.2318C357.017 95.1239 357.069 95.016 357.094 94.8279C357.064 94.4795 356.793 94.2142 356.524 94.2171C355.906 94.2508 355.368 94.2568 354.911 94.235Z" fill="#63C1C5"/>
<path d="M252.489 36.1547C250.776 36.9249 249.009 37.803 247.11 38.8168C246.816 39.0079 246.739 39.3039 246.849 39.6246C247.04 39.9176 247.337 39.9948 247.658 39.8839C249.557 38.8702 251.323 37.992 252.956 37.2495C253.037 37.2218 253.089 37.1139 253.17 37.0862C253.303 36.9506 253.3 36.6823 253.245 36.5219C253.107 36.121 252.783 35.9636 252.489 36.1547Z" fill="#63C1C5"/>
<path d="M262.144 33.6331C262.277 33.4974 262.302 33.3093 262.219 33.0688C262.108 32.748 261.784 32.5907 261.463 32.7015C259.586 33.2589 257.737 33.8965 255.782 34.7499C255.461 34.8608 255.33 35.2647 255.413 35.5052C255.524 35.826 255.928 35.9557 256.169 35.8725C258.071 35.127 260.001 34.4617 261.769 33.8518C261.93 33.7964 262.091 33.741 262.144 33.6331Z" fill="#63C1C5"/>
<path d="M341.758 90.7854C341.434 90.628 341.113 90.7389 340.954 91.0626C340.796 91.3863 340.907 91.7071 341.231 91.8645C343.068 92.7564 344.957 93.5404 346.872 94.1363C347.088 94.2412 347.409 94.1303 347.515 93.9145C347.595 93.8868 347.567 93.8066 347.62 93.6987C347.698 93.4027 347.56 93.0018 347.183 92.9523C345.296 92.4366 343.515 91.705 341.758 90.7854Z" fill="#63C1C5"/>
<path d="M338.819 89.8252C339.004 89.5817 338.947 89.1531 338.622 88.9957C338.163 88.7056 337.703 88.4156 337.323 88.0978C336.132 87.2525 335.102 86.3516 334.044 85.3706C333.801 85.1855 333.424 85.136 333.238 85.3795C333.052 85.6231 333.002 85.9993 333.245 86.1844C334.303 87.1654 335.442 88.1187 336.66 89.0442C337.12 89.3343 337.608 89.7045 338.067 89.9945C338.311 90.1797 338.66 90.149 338.819 89.8252C338.846 89.9054 338.819 89.8252 338.819 89.8252Z" fill="#63C1C5"/>
<path d="M331.635 83.5997C331.715 83.5719 331.715 83.5719 331.768 83.464C331.954 83.2205 331.951 82.9522 331.788 82.7394C330.564 81.2773 329.501 79.7597 328.408 77.8937C328.217 77.6006 327.84 77.5511 327.627 77.7145C327.333 77.9056 327.282 78.2817 327.446 78.4946C328.539 80.3606 329.71 81.9306 330.934 83.3928C330.992 83.8214 331.368 83.8709 331.635 83.5997Z" fill="#63C1C5"/>
<path d="M301.373 39.6646C302.049 40.0596 302.672 40.5625 303.268 40.9852C304.215 41.6454 305.109 42.4136 306.004 43.1818C306.248 43.3669 306.597 43.3362 306.891 43.1451C307.077 42.9016 307.046 42.5531 306.803 42.368C305.908 41.5998 304.933 40.8594 303.958 40.1189C303.335 39.6161 302.659 39.2211 301.956 38.7459C301.712 38.5608 301.282 38.6192 301.124 38.943C301.019 39.1588 301.129 39.4795 301.373 39.6646Z" fill="#63C1C5"/>
<path d="M308.743 45.6467C310.127 47.0534 311.459 48.5679 312.603 50.0578C312.794 50.3508 313.171 50.4003 313.464 50.2092C313.545 50.1815 313.517 50.1013 313.598 50.0736C313.703 49.8578 313.781 49.5618 313.618 49.3489C312.447 47.7789 311.087 46.1841 309.622 44.8052C309.351 44.5399 309.001 44.5706 308.816 44.8141C308.522 45.0052 308.472 45.3814 308.743 45.6467Z" fill="#63C1C5"/>
<path d="M293.024 35.2764C294.805 36.0079 296.642 36.8998 298.318 37.8471C298.562 38.0322 298.883 37.9213 299.069 37.6778C299.069 37.6778 299.069 37.6778 299.122 37.5699C299.28 37.2462 299.169 36.9254 298.926 36.7403C297.142 35.7405 295.333 34.9288 293.443 34.1448C293.119 33.9874 292.825 34.1785 292.667 34.5022C292.589 34.7982 292.727 35.1991 293.024 35.2764Z" fill="#63C1C5"/>
<path d="M280.491 32.0614C280.68 32.0862 280.921 32.003 281.026 31.7872C281.079 31.6793 281.132 31.5714 281.104 31.4912C281.154 31.115 280.883 30.8497 280.614 30.8527C278.649 30.633 276.552 30.5489 274.562 30.5173C274.213 30.548 273.946 30.8192 273.949 31.0875C273.979 31.436 274.25 31.7013 274.519 31.6983C276.537 31.8101 278.527 31.8417 280.491 32.0614Z" fill="#63C1C5"/>
<path d="M322.256 67.0955C322.336 67.0678 322.389 66.9599 322.469 66.9322C322.602 66.7965 322.6 66.5283 322.544 66.3679L322.215 65.674C321.501 64.1257 320.84 62.4695 320.127 60.9213C320.016 60.6005 319.611 60.4709 319.318 60.6619C318.996 60.7728 318.865 61.1767 319.056 61.4698C319.77 63.018 320.512 64.6465 321.145 66.2224L321.474 66.9164C321.529 67.0767 321.934 67.2064 322.256 67.0955Z" fill="#63C1C5"/>
<path d="M289.732 34.0786C289.948 34.1836 290.27 34.0727 290.375 33.8569C290.456 33.8291 290.428 33.749 290.481 33.6411C290.559 33.3451 290.42 32.9441 290.124 32.8669C288.209 32.271 286.215 31.7029 284.303 31.3752C284.006 31.298 283.632 31.5168 283.582 31.893C283.504 32.189 283.722 32.5622 284.099 32.6117C285.931 32.967 287.818 33.4827 289.732 34.0786Z" fill="#63C1C5"/>
<path d="M323.191 69.2852C322.869 69.3961 322.739 69.8 322.93 70.093C323.945 72.255 324.714 73.9636 325.508 75.4842C325.699 75.7772 325.996 75.8544 326.317 75.7435C326.398 75.7158 326.45 75.6079 326.531 75.5802C326.664 75.4445 326.661 75.1763 326.578 74.9357C325.784 73.4152 324.935 71.7343 324.027 69.6247C323.809 69.2515 323.512 69.1743 323.191 69.2852Z" fill="#63C1C5"/>
<path d="M359.964 94.018C359.614 94.0487 359.348 94.3199 359.459 94.6407C359.489 94.9891 359.76 95.2544 360.082 95.1436C361.989 94.9346 363.948 94.6178 366.013 94.0851C366.174 94.0297 366.255 94.002 366.388 93.8663C366.521 93.7307 366.546 93.5426 366.491 93.3822C366.38 93.0615 366.136 92.8764 365.787 92.9071C363.669 93.5476 361.79 93.8368 359.964 94.018Z" fill="#63C1C5"/>
<path d="M314.774 52.1801C314.48 52.3712 314.43 52.7474 314.593 52.9602C315.576 54.5055 316.506 56.1587 317.466 58.1603C317.657 58.4534 317.981 58.6107 318.275 58.4197C318.355 58.392 318.408 58.2841 318.488 58.2563C318.621 58.1207 318.619 57.8524 318.536 57.6119C317.576 55.6102 316.538 53.9046 315.555 52.3593C315.445 52.0385 315.068 51.9891 314.774 52.1801Z" fill="#63C1C5"/>
<path d="M267.015 31.3253C266.344 31.4669 265.673 31.6084 264.922 31.7777C264.6 31.8886 264.415 32.1322 264.445 32.4806C264.555 32.8014 264.799 32.9865 265.148 32.9558C265.819 32.8142 266.49 32.6726 267.161 32.531C268.422 32.2756 269.711 32.1003 270.947 32.033C271.108 31.9775 271.268 31.9221 271.402 31.7865C271.454 31.6785 271.507 31.5706 271.532 31.3826C271.502 31.0341 271.231 30.7688 270.881 30.7995C269.673 30.947 268.356 31.0421 267.015 31.3253Z" fill="#63C1C5"/>
<path d="M369.221 92.1716C368.9 92.2824 368.742 92.6062 368.852 92.9269C368.963 93.2476 369.287 93.405 369.609 93.2941C371.646 92.6813 373.764 92.0408 375.372 91.4863C375.532 91.4309 375.613 91.4032 375.666 91.2953C375.799 91.1597 375.824 90.9716 375.741 90.731C375.63 90.4103 375.306 90.2529 374.985 90.3638C373.349 90.838 371.259 91.5587 369.221 92.1716Z" fill="#63C1C5"/>
<path d="M357.46 163.489L354.197 161.841L345.173 179.625L348.435 181.272L357.46 163.489Z" fill="#F04637"/>
<path opacity="0.33" d="M347.783 180.952L347.868 181.037C347.868 181.037 356.797 164.752 356.882 163.225C356.967 161.698 355.947 159.663 355.776 162.631C355.606 165.685 347.783 180.952 347.783 180.952Z" fill="white"/>
<path d="M387.155 134.472C384.349 131.249 381.543 128.026 378.311 125.227C377.801 124.803 375.76 122.682 377.121 124.124C376.695 123.87 376.185 123.615 375.76 123.361C373.889 122.937 371.933 122.937 370.063 122.343C368.277 121.834 366.661 121.071 365.301 120.138C356.967 120.307 348.973 124.887 344.892 132.86C339.959 142.53 342.511 153.98 350.334 160.85C351.184 161.105 352.035 161.444 352.885 161.868C353.225 161.953 353.48 162.123 353.821 162.292C355.096 162.716 356.457 163.14 357.647 163.734C358.923 164.328 360.028 165.176 361.049 166.109C371.083 168.145 381.628 163.395 386.475 153.895C389.621 147.534 389.621 140.579 387.155 134.472Z" fill="#BFCFDF"/>
<path d="M348.548 158.136C350.164 158.645 351.61 159.493 352.885 160.765C353.651 161.614 354.501 162.377 355.351 163.056C355.436 163.056 355.436 163.14 355.521 163.14L376.1 122.597C364.96 117.847 351.865 122.512 346.252 133.454C342.171 141.766 343.361 151.266 348.548 158.136Z" fill="#ACC1D6"/>
<path d="M376.184 122.68C364.704 116.912 350.758 121.492 344.891 132.858C339.108 144.308 343.7 158.219 355.095 164.071C366.575 169.839 380.521 165.259 386.389 153.893C392.256 142.442 387.664 128.447 376.184 122.68ZM356.286 161.696C346.081 156.522 341.999 144.139 347.187 133.961C352.374 123.782 364.789 119.711 374.994 124.885C385.198 130.059 389.28 142.442 384.093 152.621C378.906 162.799 366.49 166.87 356.286 161.696Z" fill="#6680A1"/>
<path d="M330.18 216.406C330.776 216.661 331.456 216.491 331.796 215.897L351.44 177.305C351.695 176.711 351.525 176.033 351.014 175.778L348.293 174.421C347.783 174.167 347.103 174.421 346.848 174.93L327.119 213.522C326.864 214.116 327.034 214.795 327.629 215.134L330.18 216.406Z" fill="#617B9B"/>
<path d="M351.099 175.778C350.334 176.711 329.075 212.42 329.415 214.71C329.67 217.085 331.541 216.491 331.881 215.812L351.525 177.22C351.695 176.711 351.525 176.118 351.099 175.778Z" fill="#ACC1D6"/>
<path d="M380.759 142.633C381.503 141.171 380.917 139.385 379.451 138.643C377.985 137.901 376.194 138.485 375.45 139.947C374.707 141.41 375.292 143.196 376.758 143.938C378.224 144.68 380.015 144.096 380.759 142.633Z" fill="white"/>
<path d="M379.317 147.952C379.678 147.242 379.394 146.374 378.682 146.014C377.97 145.654 377.1 145.937 376.738 146.648C376.377 147.358 376.662 148.226 377.374 148.586C378.086 148.946 378.956 148.662 379.317 147.952Z" fill="white"/>
<path d="M101.515 217.933L52.1085 111.91C47.9417 109.875 48.1968 108.517 45.8158 109.62L40.8836 115.642C38.5026 116.745 34.6759 117.084 35.7814 119.459L85.273 225.482L101.515 217.933Z" fill="#F04637"/>
<path d="M106.447 239.562C108.828 238.459 109.849 235.66 108.743 233.285L104.747 224.718C103.641 222.344 100.835 221.326 98.4539 222.428L90.7155 225.991C88.3345 227.093 87.314 229.892 88.4195 232.267L92.4163 240.834C93.5217 243.209 96.328 244.227 98.709 243.124L106.447 239.562Z" fill="#F7A605"/>
<path d="M101.515 217.933L52.1086 111.91C51.0031 109.535 42.3293 111.232 42.3293 111.232L93.7769 221.495L101.515 217.933Z" fill="#FF7B7C"/>
<path d="M102.961 241.173L106.362 239.562C108.743 238.459 109.764 235.66 108.658 233.285L104.662 224.718C103.556 222.344 100.75 221.326 98.3688 222.428L94.9673 224.04L102.961 241.173Z" fill="#FFD247"/>
<path d="M101.331 217.42L84.9871 225.01L87.7868 231.008L104.131 223.418L101.331 217.42Z" fill="#F2E1F0"/>
<path d="M37.142 104.277L37.057 100.205L40.1183 103.089L39.353 104.785L37.142 104.277Z" fill="#212B53"/>
<path d="M40.1183 103.089C39.7782 103.428 39.353 103.768 38.9278 103.937C38.3325 104.192 37.7373 104.277 37.142 104.277L35.4413 118.865L51.7684 111.316L40.1183 103.089Z" fill="#DEEFEA"/>
<path d="M287.066 226.584C287.066 226.584 336.813 173.743 386.22 186.805C401.526 246.177 337.749 273.319 337.749 273.319L274.226 273.828L287.066 226.584Z" fill="#212B53"/>
<path d="M361.303 258.391L309.006 246.771L355.691 210.554L386.474 216.321L386.815 214.795L357.392 209.197L386.304 186.72L384.689 185.956L331.71 227.093L329.074 194.099L327.544 195.541L330.265 228.281L271.334 273.998L272.27 275.27L307.39 248.043L359.348 259.579L361.303 258.391Z" fill="#00666A"/>
<path d="M295.06 265.77C295.06 265.77 354.501 253.811 376.44 287.993C340.555 362.803 243.953 321.242 243.953 321.242L295.06 265.77Z" fill="#C1D5F0"/>
<path d="M326.837 328.636L294.563 298.679L375.669 289.277L375.417 287.763L326.249 293.5L347.009 268.562L344.992 268.482L323.98 293.739L257.246 301.547L257.414 302.981L292.546 298.918L324.652 328.715L326.837 328.636Z" fill="white"/>
<path d="M257.643 228.111C257.643 228.111 269.974 156.44 322.102 145.159C372.699 221.665 294.635 267.043 294.635 267.043L257.643 228.111Z" fill="#6680A1"/>
<path d="M337.896 203.979V202.362L297.942 222.075L321.925 147.458L320.588 146.996L303.525 199.975L285.124 177.567L284.81 179.492L302.974 201.592L289.213 244.56L290.235 246.023L297.391 223.923L337.896 203.979Z" fill="#475B73"/>
<path d="M96.668 192.742C96.668 192.742 54.9998 135.999 5.8483 142.699C-16.0063 198.086 42.2442 231.758 42.2442 231.758L103.386 239.816L96.668 192.742Z" fill="#043C5E"/>
<path d="M20.388 214.456L72.1756 209.451L31.5279 169.078L1.16959 171.029L0.999512 169.502L29.9972 167.551L4.82619 142.53L6.44189 141.936L52.6171 187.823L59.165 156.44L60.3555 157.882L53.8926 189.18L105.17 240.24L104.15 241.258L73.5362 210.893L22.0887 215.897L20.388 214.456Z" fill="#00666A"/>
<path d="M88.1644 225.312C88.1644 225.312 32.2949 206.737 7.1239 237.102C32.8051 313.438 131.959 286.212 131.959 286.212L88.1644 225.312Z" fill="#C1D5F0"/>
<path d="M88.1644 225.312C88.1644 225.312 32.2949 206.737 7.1239 237.102C32.8051 313.438 131.959 286.212 131.959 286.212L88.1644 225.312Z" fill="#F04637"/>
<path d="M49.4723 281.965L84.6777 257.204L6.86865 237.865L7.29384 236.339L54.4895 248.128L37.397 220.054L39.3529 220.223L56.6154 248.637L120.733 264.583L120.308 266.11L86.6335 257.713L51.5132 282.389L49.4723 281.965Z" fill="white"/>
<path d="M117.927 205.126C117.927 205.126 149.476 142.021 115.121 103.259C31.6145 134.303 75.1536 229.723 75.1536 229.723L117.927 205.126Z" fill="#C1D5F0"/>
<path d="M68.073 151.65L68.9234 150.123L96.9231 184.939L114.356 103.174L115.886 103.513L103.556 161.444L132.129 150.078L131.448 152.029L103.131 163.31L93.0964 210.384L91.3957 211.148L96.4979 186.974L68.073 151.65Z" fill="white"/>
<path d="M92.9255 30.7623L86.4626 35.5122L94.116 37.3782L121.243 41.7039L92.9255 30.7623Z" fill="#B0D9C8"/>
<path d="M86.4626 35.5121L98.4529 40.6012L96.327 37.7174L86.4626 35.5121Z" fill="#359FA8"/>
<path d="M92.9255 30.7623L94.031 23.468L121.243 41.7039L92.9255 30.7623Z" fill="url(#paint2_linear)"/>
<path d="M121.243 41.7038L94.1162 37.3781L93.0957 48.15L121.243 41.7038Z" fill="url(#paint3_linear)"/>
<path d="M85.7822 43.2306C85.6972 43.1458 85.6972 43.061 85.6972 43.061C85.6122 42.7217 85.7822 42.3824 86.1224 42.2976C87.1428 42.0432 88.2483 41.8735 89.2688 41.7887C89.6089 41.7887 89.864 42.0431 89.9491 42.3824C89.9491 42.7217 89.694 42.9761 89.3538 43.061C88.4184 43.1458 87.398 43.3154 86.4625 43.5699C86.2074 43.5699 85.9523 43.4851 85.7822 43.2306Z" fill="#B0D9C8"/>
<path d="M63.4175 107.184C63.4175 107.184 63.4175 107.099 63.4175 107.184C62.312 105.402 61.4617 103.452 60.9515 101.246C60.8664 100.907 61.1215 100.568 61.3766 100.483C61.7168 100.398 62.0569 100.653 62.142 100.907C62.6522 102.943 63.4175 104.809 64.438 106.42C64.608 106.675 64.523 107.099 64.2679 107.268C64.0128 107.438 63.6726 107.438 63.4175 107.184ZM60.6113 97.7687C60.5263 97.6839 60.5263 97.5991 60.5263 97.4295C60.4412 95.309 60.6113 93.1885 61.0365 91.1529C61.1215 90.8136 61.4617 90.644 61.8018 90.7288C62.142 90.8136 62.312 91.1529 62.227 91.4922C61.8018 93.443 61.6317 95.4786 61.7168 97.4295C61.7168 97.7687 61.4617 98.0232 61.1215 98.108C60.8664 98.0232 60.6963 97.9384 60.6113 97.7687ZM62.227 88.0994C62.142 87.9298 62.0569 87.6754 62.142 87.5057L62.227 87.2513C62.9923 85.4701 64.0128 83.6889 65.2033 81.9925C65.3734 81.7381 65.7986 81.6533 66.0537 81.8229C66.3088 81.9925 66.3938 82.4166 66.2238 82.6711C65.1183 84.2826 64.0978 85.979 63.3325 87.6754L63.2475 87.9298C63.0774 88.2691 62.7372 88.3539 62.4821 88.2691C62.3971 88.2691 62.312 88.1843 62.227 88.0994ZM67.5843 79.8721C67.4143 79.6176 67.4143 79.3632 67.5843 79.1087C68.8599 77.6668 70.3906 76.1401 72.0913 74.6982C72.3464 74.4437 72.7716 74.5285 72.9417 74.783C73.1968 75.0374 73.1118 75.4615 72.8567 75.6312C71.241 76.9883 69.7953 78.4302 68.5198 79.8721C68.2647 80.1265 67.9245 80.1265 67.6694 79.9569C67.5844 79.8721 67.5843 79.8721 67.5843 79.8721ZM74.8976 73.1714C74.7275 72.917 74.7275 72.4929 74.9826 72.3232C75.0676 72.2384 75.2377 72.1536 75.3227 72.0688C74.6424 71.3054 74.1322 70.4572 73.622 69.5242C73.4519 69.2698 73.537 68.8457 73.8771 68.6761C74.1322 68.5064 74.5574 68.5912 74.7275 68.9305C75.2377 69.7787 75.7479 70.5421 76.3432 71.3054C77.5337 70.4572 78.7242 69.6091 80.0848 68.7609C80.3399 68.5912 80.7651 68.6761 80.9352 68.9305C81.1053 69.185 81.0202 69.6091 80.7651 69.7787C79.4045 70.6269 78.214 71.4751 77.1085 72.2384C77.5337 72.6625 77.9589 73.0866 78.3841 73.5107C78.6392 73.7652 78.6392 74.1044 78.4691 74.3589C78.214 74.6133 77.8739 74.6133 77.6187 74.4437C77.1085 73.9348 76.5983 73.5107 76.1731 73.0018C76.003 73.0866 75.918 73.1714 75.7479 73.3411C75.4928 73.5107 75.0676 73.5107 74.8976 73.1714ZM72.1764 66.2163C72.1764 66.1315 72.0913 66.1315 72.0913 66.0467C71.6661 64.7744 71.411 63.5021 71.326 62.1451C71.241 61.2969 71.241 60.5335 71.326 59.6853C71.326 59.3461 71.6661 59.0916 72.0063 59.0916C72.3464 59.0916 72.6015 59.4309 72.6015 59.7701C72.5165 60.5335 72.5165 61.2969 72.6015 62.0602C72.6866 63.2477 72.9417 64.4351 73.2818 65.6226C73.3669 65.9619 73.1968 66.3011 72.8567 66.386C72.6015 66.5556 72.3464 66.386 72.1764 66.2163ZM80.51 76.649C80.3399 76.4793 80.3399 76.2249 80.51 75.9704C80.6801 75.716 81.1053 75.6312 81.3604 75.8008C83.1462 76.9034 84.9319 77.6668 86.8878 78.0061C87.2279 78.0909 87.398 78.4302 87.313 78.7694C87.2279 79.1087 86.8878 79.2783 86.5476 79.1935C84.5068 78.7694 82.5509 77.9213 80.6801 76.8186C80.6801 76.7338 80.595 76.649 80.51 76.649ZM72.1764 56.4622C72.0913 56.2926 72.0063 56.123 72.0913 55.9533C72.6866 53.9177 73.622 52.0517 74.8976 50.2705C75.0676 50.016 75.4928 49.9312 75.7479 50.1009C76.003 50.2705 76.0881 50.6946 75.918 50.949C74.7275 52.6454 73.8771 54.4266 73.2818 56.2926C73.1968 56.6319 72.8567 56.8015 72.5165 56.7167C72.3464 56.6319 72.2614 56.547 72.1764 56.4622ZM89.9491 79.3632C89.8641 79.2784 89.8641 79.1087 89.8641 79.0239C89.8641 78.6846 90.1192 78.4302 90.4594 78.4302C90.9696 78.4302 91.4798 78.4302 91.99 78.3453C93.4357 78.1757 94.8813 77.7516 96.1569 77.0731C96.497 76.9034 96.8372 77.0731 97.0072 77.3275C97.1773 77.6668 97.0072 78.0061 96.7521 78.1757C95.3065 78.9391 93.7758 79.3632 92.1601 79.6176C91.6499 79.7024 91.0546 79.7024 90.4594 79.7024C90.2042 79.6176 90.0342 79.448 89.9491 79.3632ZM83.1462 67.6582C83.0611 67.6582 83.0611 67.6582 83.1462 67.6582C82.9761 67.319 83.0611 66.9797 83.3162 66.7252C85.5272 65.453 87.313 64.6048 89.0988 64.0959C89.4389 64.0111 89.7791 64.1807 89.8641 64.52C89.9491 64.8592 89.7791 65.1985 89.4389 65.2833C87.8232 65.7074 86.0374 66.5556 83.9965 67.7431C83.6564 67.9975 83.3162 67.9127 83.1462 67.6582ZM77.2786 48.15C77.1085 47.8956 77.1085 47.5563 77.3636 47.3867C78.0439 46.7081 78.8093 46.1144 79.5746 45.5207C80.51 44.8421 81.5305 44.2484 82.5509 43.7395C82.8911 43.5699 83.2312 43.7395 83.4013 43.9939C83.5713 44.3332 83.4013 44.6725 83.1462 44.8421C82.2108 45.351 81.2753 45.8599 80.3399 46.5385C79.5746 47.0474 78.8943 47.6411 78.299 48.3197C77.9589 48.4045 77.5337 48.4045 77.2786 48.15ZM98.793 75.6312C98.6229 75.3767 98.6229 75.1223 98.793 74.8678C99.8135 73.6803 100.239 72.4929 100.239 71.1358C100.239 70.6269 100.154 70.2028 99.9835 69.6939C99.8985 69.3546 100.069 69.0153 100.409 68.9305C100.749 68.8457 101.089 69.0153 101.174 69.3546C101.344 69.9483 101.429 70.5421 101.429 71.1358C101.429 72.7473 100.834 74.3589 99.7284 75.716C99.4733 75.9704 99.1332 75.9704 98.878 75.8008C98.878 75.716 98.878 75.6312 98.793 75.6312ZM92.4152 64.6896C92.3302 64.6048 92.3302 64.4351 92.3302 64.2655C92.3302 63.9262 92.5853 63.6718 92.9254 63.6718C95.1364 63.7566 97.3474 64.6048 98.9631 66.0467C99.2182 66.3011 99.2182 66.6404 99.0481 66.8949C98.793 67.1493 98.4529 67.1493 98.1977 66.9797C96.7521 65.7922 94.7963 65.0289 92.9254 64.9441C92.6703 64.8592 92.5003 64.7744 92.4152 64.6896Z" fill="#B0D9C8"/>
<path d="M65.8837 110.067C65.7136 109.813 65.7136 109.474 65.8837 109.304C66.1388 109.05 66.4789 109.05 66.734 109.304C67.4143 109.983 68.2647 110.576 69.1151 111C69.3702 111.17 69.5403 111.509 69.3702 111.849C69.2001 112.103 68.86 112.273 68.5198 112.103C67.5844 111.594 66.734 110.916 65.9687 110.237C65.9687 110.067 65.8837 110.067 65.8837 110.067Z" fill="#B0D9C8"/>
<path d="M96.9231 151.011L97.0932 225.143L97.6884 338.12C97.6884 342.446 101.175 345.924 105.427 345.924L277.032 345.245C289.617 345.16 299.822 335.746 299.822 324.041L299.567 151.011H96.9231Z" fill="#F04637"/>
<path d="M159 261.614L290.893 262.547C290.893 262.547 294.209 115.218 281.709 112.843C269.209 110.468 264.021 117.084 264.021 117.084C264.021 117.084 251.096 95.7947 229.411 92.826C207.642 89.8574 160.191 89.0092 160.191 89.0092L159 261.614Z" fill="#ACC1D6"/>
<path d="M233.068 93.5046C241.146 94.7769 276.692 102.326 284.6 114.794C274.141 110.299 264.021 117.084 264.021 117.084C264.021 117.084 251.096 97.5759 233.068 93.5046Z" fill="#617B9B"/>
<path d="M263.44 146.863L188.267 146.344L188.25 148.889L263.423 149.407L263.44 146.863Z" fill="white"/>
<path d="M263.355 160.519L188.182 160L188.165 162.545L263.338 163.063L263.355 160.519Z" fill="white"/>
<path d="M263.27 174.175L188.097 173.657L188.079 176.201L263.252 176.719L263.27 174.175Z" fill="white"/>
<path d="M72.9427 225.143L73.453 331.59H276.012L275.331 189.18C275.331 184.854 271.845 181.376 267.593 181.376L181.025 181.716L165.293 167.805C161.211 164.243 156.109 162.292 150.752 162.292L84.933 162.632C78.13 162.632 72.6876 168.23 72.6876 175.1L72.7727 189.943L72.9427 225.143Z" fill="#FF7B7C"/>
<path d="M73.4529 331.589V333.964C73.5379 340.58 78.8953 345.924 85.5282 345.839L287.662 345.076L275.926 331.589H73.4529Z" fill="#FF7B7C"/>
<path d="M276.011 313.523V333.201C276.011 339.732 281.369 345.076 287.917 345.076C294.465 345.076 299.822 339.732 299.822 333.201V307.84C292.934 312.166 284.515 313.354 276.011 313.523Z" fill="#F04637"/>
<defs>
<linearGradient id="paint0_linear" x1="194.309" y1="60.6824" x2="233.743" y2="44.0435" gradientUnits="userSpaceOnUse">
<stop stop-color="#E0F0EB"/>
<stop offset="1" stop-color="#C0E4EF"/>
</linearGradient>
<linearGradient id="paint1_linear" x1="195.721" y1="63.3287" x2="242.184" y2="43.7243" gradientUnits="userSpaceOnUse">
<stop offset="0.2157" stop-color="#E0F0EB"/>
<stop offset="0.7647" stop-color="#C0E4EF"/>
</linearGradient>
<linearGradient id="paint2_linear" x1="96.3672" y1="21.7389" x2="114.672" y2="46.5902" gradientUnits="userSpaceOnUse">
<stop stop-color="#E0F0EB"/>
<stop offset="1" stop-color="#C0E4EF"/>
</linearGradient>
<linearGradient id="paint3_linear" x1="98.9323" y1="33.8081" x2="110.572" y2="49.6103" gradientUnits="userSpaceOnUse">
<stop offset="0.2353" stop-color="#E0F0EB"/>
<stop offset="0.4895" stop-color="#DAEEEB"/>
<stop offset="0.8469" stop-color="#CAE7EE"/>
<stop offset="1" stop-color="#C0E4EF"/>
</linearGradient>
</defs>
</svg>
