<svg xmlns="http://www.w3.org/2000/svg" xmlns:xlink="http://www.w3.org/1999/xlink" viewBox="0 0 371.08 396"><defs><style>.cls-1{fill:#6680a1;}.cls-2{fill:#25374b;}.cls-3{fill:#f04637;}.cls-28,.cls-4{fill:#fff;}.cls-5{fill:#617b9b;}.cls-6{fill:#475b73;}.cls-7{fill:#004060;}.cls-8{fill:#acc1d6;}.cls-9{fill:url(#linear-gradient);}.cls-10{fill:url(#linear-gradient-2);}.cls-11{fill:#a2d7c5;}.cls-12{fill:#58c4c5;}.cls-13{fill:url(#linear-gradient-3);}.cls-14{fill:#f79c82;}.cls-15{fill:#fab08a;}.cls-16{fill:#1c2c57;}.cls-17{fill:#d2deec;}.cls-18{fill:#118c8c;}.cls-19{fill:url(#linear-gradient-4);}.cls-20{fill:url(#linear-gradient-5);}.cls-21{fill:url(#linear-gradient-6);}.cls-22{fill:url(#linear-gradient-7);}.cls-23{fill:#f4a086;}.cls-24{fill:#00666a;}.cls-25{fill:#f8b68f;}.cls-26{fill:#043c5e;}.cls-27{fill:#212b53;}.cls-28{opacity:0.33;isolation:isolate;}.cls-29{fill:#bfcfdf;}.cls-30{fill:url(#linear-gradient-8);}.cls-31{fill:url(#linear-gradient-9);}</style><linearGradient id="linear-gradient" x1="329" y1="342" x2="188" y2="342" gradientTransform="matrix(1, 0, 0, -1, 0, 364)" gradientUnits="userSpaceOnUse"><stop offset="0" stop-color="#d6ede5"/><stop offset="1" stop-color="#b1e1ea"/></linearGradient><linearGradient id="linear-gradient-2" x1="51.89" y1="332.59" x2="80.73" y2="350.63" gradientTransform="matrix(1, 0, 0, -1, 0, 364)" gradientUnits="userSpaceOnUse"><stop offset="0" stop-color="#eaf6f3"/><stop offset="1" stop-color="#b1e1ea"/></linearGradient><linearGradient id="linear-gradient-3" x1="46.45" y1="328.12" x2="81" y2="349.73" xlink:href="#linear-gradient-2"/><linearGradient id="linear-gradient-4" x1="173.79" y1="108.28" x2="159.04" y2="108.28" xlink:href="#linear-gradient"/><linearGradient id="linear-gradient-5" x1="165.94" y1="97.45" x2="145.31" y2="97.45" xlink:href="#linear-gradient"/><linearGradient id="linear-gradient-6" x1="181" y1="92.88" x2="135.76" y2="120.86" xlink:href="#linear-gradient"/><linearGradient id="linear-gradient-7" x1="184.19" y1="98.03" x2="138.95" y2="126.02" xlink:href="#linear-gradient"/><linearGradient id="linear-gradient-8" x1="332.36" y1="248.78" x2="365.67" y2="248.78" xlink:href="#linear-gradient-2"/><linearGradient id="linear-gradient-9" x1="332.36" y1="238.75" x2="359.18" y2="238.75" xlink:href="#linear-gradient-2"/></defs><title>Asset 1</title><g id="Layer_2" data-name="Layer 2"><g id="Layer_1-2" data-name="Layer 1"><path class="cls-1" d="M74.8,215.29S46.57,166.74,7,168c-21.9,42.21,21.5,73.81,21.5,73.81l47.76,11.49Z"/><path class="cls-2" d="M47.85,184.08l-7.53,23.78L8,168.12H7.13c-.1.2-.2.3-.2.5l17.14,21.2L1,188.93v1.29l24.18,1L54,226.68l-40.62-.3c.3.4.59.79,1,1.29l40.72.3L75.6,253.13l.79.2v-1.19l-35-43.1L49,185Q48.3,184.37,47.85,184.08Z"/><path class="cls-3" d="M41.71,233.61c-13.57-2.18-30.22-1.68-41.71,9.51,14.07,62.72,87.49,49.34,87.49,49.34L74.21,256.3A45.65,45.65,0,0,0,41.71,233.61Z"/><path class="cls-4" d="M.1,243.13c.1.2.1.49.2.69l59.64,21.7-29.52,18c.4.2.89.49,1.29.69l29.72-18.13,23.28,8.52-1-1.68L38.34,256.4l-11.2-23.78a5.66,5.66,0,0,0-1.29.1l10.9,23.09L.59,242.63Z"/><path class="cls-5" d="M192.81,173.32s-20.58-67.43,19.6-100c77.16,44.3,33.31,119.94,33.31,119.94Z"/><path class="cls-6" d="M212.4,73.46c.24.12.49.37.73.49l3.55,83,37.6-35.74c.12.49.37,1.1.49,1.59l-38,36.1,1,24-1.59-.61-2.08-47.73L188.52,119c.12-.61.12-1.1.25-1.71l25.35,15.42-2.57-58.62A5.17,5.17,0,0,0,212.4,73.46Z"/><path class="cls-7" d="M210.32,155.09s28.41-71.23,82.06-77.47c38.09,52.5-14.09,103.9-14.09,103.9l-62.22,25.09Z"/><path class="cls-1" d="M240.45,107.48,255.39,138,291,77.74c.37,0,.86-.12,1.22-.12a2.17,2.17,0,0,0,.49.61l-19.11,32.19,31.11-5.87a2.07,2.07,0,0,1,.12.86l.12.74-32.58,6.12L240.57,166l54.87-8.57a13.32,13.32,0,0,0-1,1.84l-54.87,8.57L217.06,206l-1.1.37-.12-1.71,38.58-65.23-15.19-30.84A9.9,9.9,0,0,0,240.45,107.48Z"/><path class="cls-3" d="M228.2,187.15s53.77-34.76,88.55-9.55c-6.25,87.5-118.19,85.67-118.19,85.67Z"/><path class="cls-4" d="M316.88,177.6a2.7,2.7,0,0,1-.12,1l-76.18,41.37,43.48,18.36c-.49.37-1.1.73-1.59,1.1l-43.73-18.48L209,237.08l1-2.45,57.93-31.45,10.41-34.27a9.3,9.3,0,0,1,1.84-.12l-10,33.41,46.17-25.09C316.26,177.24,316.51,177.36,316.88,177.6Z"/><path class="cls-1" d="M228.77,266.27c.54,1.19,4.87,3.14,10.18,4.44a46.11,46.11,0,0,0,2.6,13.42c-4.11,2.38-8.12,5.3-8.23,7.57-.22,4.76,7.9,14.72,9.74,15.36,1.19.43,5.85-1.3,10.61-4.22a44.29,44.29,0,0,0,11,7.79c-1.19,4.55-2.06,9.52-.43,11.25,3.14,3.57,16,4.76,17.76,4,1.19-.54,3.14-4.87,4.44-10.06a45.15,45.15,0,0,0,13.75-2.16c2.27,3.9,5.09,7.68,7.36,7.79,4.77.22,14.73-7.9,15.38-9.74.43-1.08-1.08-5.19-3.57-9.63a46.18,46.18,0,0,0,8.66-11.69c4.11,1,8.34,1.51,9.85.11,3.57-3.14,4.77-16,4-17.75-.43-1-4-2.81-8.55-4A49,49,0,0,0,331,253.82c3.46-2.16,6.39-4.54,6.5-6.6.22-4.76-7.91-14.72-9.75-15.36-1.08-.33-4.66.86-8.66,3a45.11,45.11,0,0,0-12.56-8.76c.87-3.89,1.3-7.79,0-9.2-3.14-3.57-16-4.76-17.76-4-1,.43-2.82,4.11-4,8.55a47.36,47.36,0,0,0-14.62,2.81c-2.17-3.57-4.77-6.93-6.93-7-4.76-.22-14.73,7.9-15.38,9.74-.43,1.08,1.08,5.3,3.68,9.63a48.86,48.86,0,0,0-7.9,11.79c-4.33-1.08-9-1.73-10.61-.33C229.2,251.66,227.9,264.43,228.77,266.27ZM290.6,248.2a21.06,21.06,0,1,1-25.12,16A21.05,21.05,0,0,1,290.6,248.2Z"/><path class="cls-4" d="M292.33,240a30,30,0,1,1-35.84,22.72A30,30,0,0,1,292.33,240Zm-13,58.11a29.55,29.55,0,1,0-22.41-35.27A29.59,29.59,0,0,0,279.34,298.08Z"/><path class="cls-4" d="M242.3,268.43c.22.11.33.11.54.22a46.12,46.12,0,0,1,1-9.31,43,43,0,0,1,82.73-4.54h.54a43.62,43.62,0,0,0-83.92,4.44A52.81,52.81,0,0,0,242.3,268.43Z"/><path class="cls-4" d="M304.24,307.6a42.86,42.86,0,0,1-27.61,3c-.22,0-.32-.11-.54-.11a.81.81,0,0,0,.11.54c.11,0,.22.11.43.11a43.84,43.84,0,0,0,27.94-3A1,1,0,0,1,304.24,307.6Z"/><path class="cls-7" d="M118.57,191.11c-1.35.37-4.53,4.9-7,10.4a51,51,0,0,0-15.55.24c-1.84-5-4.29-10-6.86-10.65-5.27-1.22-17.88,5.88-19.11,7.83-.73,1.22.25,6.85,2.57,12.61a53.4,53.4,0,0,0-10.9,10.77c-4.9-2.2-10.17-4.16-12.49-2.69-4.53,2.82-8.45,16.89-8,19.09.37,1.35,4.78,4.53,10.41,7a51.76,51.76,0,0,0-.24,15.67c-4.78,1.83-9.55,4.16-10.17,6.73-1.23,5.26,5.88,17.87,7.84,19.09,1.23.73,6-.12,11.39-2.08A49.81,49.81,0,0,0,71.9,297c-2,4.41-3.31,8.93-2.08,11,2.82,4.53,16.9,8.45,19.11,8,1.23-.37,3.92-3.92,6.12-8.69a53.79,53.79,0,0,0,17.15.25c1.71,4.28,3.8,8.08,6,8.57,5.27,1.22,17.88-5.87,19.11-7.83.61-1.1,0-5.38-1.71-10.16a52.8,52.8,0,0,0,12.25-12.24c4.17,1.71,8.33,2.94,10.29,1.71,4.53-2.82,8.45-16.89,8-19.09-.37-1.22-4-3.92-8.82-6.12a52,52,0,0,0-.24-16.89c4.41-1.71,8.57-4,9.19-6.24,1.23-5.26-5.88-17.87-7.84-19.09-1.22-.74-6.12.12-11.51,2.2a50.38,50.38,0,0,0-11.64-11.14c2.08-4.65,3.8-9.67,2.45-11.75C134.73,194.42,120.77,190.5,118.57,191.11Zm8,72.45a23.88,23.88,0,1,1-12.86-31.21A23.93,23.93,0,0,1,126.53,263.57Z"/><path class="cls-4" d="M135.47,267a33.93,33.93,0,1,1-18.37-44.3A34.08,34.08,0,0,1,135.47,267ZM73.13,241.17a33.47,33.47,0,1,0,43.72-18.11A33.38,33.38,0,0,0,73.13,241.17Z"/><path class="cls-4" d="M113.55,205.8c-.12.25-.24.37-.37.61a50.56,50.56,0,0,1,10.17,2.94,48.63,48.63,0,0,1-11.15,93,5.33,5.33,0,0,1-.12.61,49.29,49.29,0,0,0,11.64-94.24A55.69,55.69,0,0,0,113.55,205.8Z"/><path class="cls-4" d="M57.7,267a48.54,48.54,0,0,1,2-31.33c.12-.24.12-.37.24-.61h-.61c0,.12-.12.24-.12.37a49.7,49.7,0,0,0-2.08,31.7A1.1,1.1,0,0,1,57.7,267Z"/><path class="cls-8" d="M91.09,167c.49-.49.49-3.05.1-5.9a26.27,26.27,0,0,0,6.11-4c2,1.48,4.33,2.85,5.52,2.46,2.36-.89,5.61-6.89,5.51-8,0-.69-1.87-2.66-4.23-4.33a24.69,24.69,0,0,0,1.58-7.09c2.46-.39,5.12-1,5.61-2.17,1.08-2.26-1-8.86-1.77-9.54-.49-.49-3.05-.49-5.91-.1a24.25,24.25,0,0,0-3.94-6.3c1.48-2,2.76-4.13,2.27-5.22-.89-2.36-6.89-5.61-8-5.51-.59,0-2.36,1.57-3.94,3.74a24.38,24.38,0,0,0-7.58-1.77c-.39-2.26-1-4.43-2-4.92-2.26-1.08-8.86,1-9.55,1.77-.39.49-.49,2.56-.2,5a24.27,24.27,0,0,0-6.8,4.33c-1.77-1.28-3.55-2.17-4.63-1.87-2.36.88-5.61,6.89-5.52,8,0,.59,1.38,2.07,3.25,3.64a24.54,24.54,0,0,0-1.67,8c-2.07.39-4,1-4.53,2-1.08,2.26,1,8.86,1.77,9.55.49.39,2.56.49,5,.2A27.64,27.64,0,0,0,62,155.45c-1.28,1.87-2.36,3.74-2,4.82.89,2.36,6.89,5.61,8,5.51.59,0,2.36-1.67,3.94-3.84a24.07,24.07,0,0,0,7.49,1.48c.39,2.36,1,4.72,2.07,5.31C83.8,169.71,90.4,167.75,91.09,167ZM69.32,140.29a11.26,11.26,0,1,1,13.1,9.05A11.28,11.28,0,0,1,69.32,140.29Z"/><path class="cls-4" d="M64.89,141.18A16,16,0,1,1,83.5,154.07,16,16,0,0,1,64.89,141.18Zm31.32-5.71a15.82,15.82,0,1,0-12.7,18.4A15.85,15.85,0,0,0,96.21,135.47Z"/><path class="cls-4" d="M89.31,159.77v-.29A34.66,34.66,0,0,1,84.49,161a22.93,22.93,0,0,1-19.4-39.66c0-.1-.1-.2-.1-.29a23.28,23.28,0,0,0,19.6,40.35A24.25,24.25,0,0,0,89.31,159.77Z"/><path class="cls-4" d="M95.72,121.3A23.2,23.2,0,0,1,103,134.19v.29c.1-.1.2-.1.3-.2v-.2A23.74,23.74,0,0,0,96,121C95.91,121.2,95.81,121.2,95.72,121.3Z"/><path class="cls-9" d="M329,44H191.32s-7.47-9.34,0-15.69c4.09-3.49,9-3.14,12.5-2.07a4.12,4.12,0,0,0,5.1-3.21c.86-3.85,3.45-8.91,10.85-11.91s11.92,1.57,14.58,6.13a2.08,2.08,0,0,0,3.74-.36C240.37,9.63,248.42,0,274.92,0c33.68,0,29.88,17.76,26.93,25.17a1.73,1.73,0,0,0,1.94,2.35c5.17-1.07,14.8-2.5,19.18.86C329,33,329,44,329,44Z"/><path class="cls-10" d="M83.84,18.34l-20.45,1.1-8.78,3.34-5.3,4.51Z"/><path class="cls-11" d="M83.84,18.34,50.73,28.79l-1.42-1.5"/><path class="cls-12" d="M53,34.16l.05.09,4,3.71L83.75,18.39Z"/><path class="cls-13" d="M45.91,35,48,29.19,83.61,18.36,56.86,34Z"/><path class="cls-12" d="M17.18,131.52a18.53,18.53,0,0,0,2-2.92.67.67,0,0,1,.71-.2.67.67,0,0,1,.2.71,23.59,23.59,0,0,1-2.08,3c-.29.3-.53.69-.82,1-.17.11-.26.16-.4.13l-.28-.06a.49.49,0,0,1-.07-.68A3.61,3.61,0,0,1,17.18,131.52Z"/><path class="cls-12" d="M35.65,37.15a48.62,48.62,0,0,1,4.55-1.89c.26-.16.5,0,.67.3s0,.5-.3.67a45.28,45.28,0,0,0-4.41,1.92c-.09.05-.17.11-.22,0a.76.76,0,0,1-.39-.24A.57.57,0,0,1,35.65,37.15Z"/><path class="cls-12" d="M29,41.78a.52.52,0,0,1-.39-.24.48.48,0,0,1,.16-.7c1.29-.81,2.8-1.63,4.31-2.46a.46.46,0,0,1,.4.83c-1.43.77-2.94,1.6-4.23,2.41C29.23,41.76,29.09,41.73,29,41.78Z"/><path class="cls-12" d="M22.05,121.55a.5.5,0,0,1,1,.22,28.9,28.9,0,0,1-1.6,4.7.65.65,0,0,1-.51.32l-.14,0a.62.62,0,0,1-.29-.65A27.27,27.27,0,0,0,22.05,121.55Z"/><path class="cls-12" d="M23,119.19a.62.62,0,0,1-.46-.55c.1-.42.05-.87.15-1.29a29.41,29.41,0,0,0,.07-3.51.52.52,0,0,1,1-.05c0,1.18,0,2.36,0,3.59,0,.5-.05.87-.1,1.37a.61.61,0,0,1-.69.43Z"/><path class="cls-12" d="M22.91,111.46a.1.1,0,0,1-.14,0c-.23,0-.39-.24-.49-.41a30,30,0,0,0-1.13-4.67.56.56,0,0,1,.3-.67A.42.42,0,0,1,22,106a28,28,0,0,1,1.18,4.75C23.43,111.14,23.22,111.39,22.91,111.46Z"/><path class="cls-12" d="M11.85,69.34l-.22,1.93c-.09,1-.09,2-.09,2.92a.58.58,0,0,1-.49.55.38.38,0,0,1-.41-.46c0-1,.08-2,.17-3L11,69.37c.07-.28.27-.53.55-.46C11.75,68.81,11.91,69.06,11.85,69.34Z"/><path class="cls-12" d="M11.62,77a34.61,34.61,0,0,0,.73,4.79.45.45,0,0,1-.35.58.1.1,0,0,1-.14,0c-.22,0-.33-.15-.49-.41a29.8,29.8,0,0,1-.7-4.93.58.58,0,0,1,.49-.55C11.35,76.57,11.6,76.78,11.62,77Z"/><path class="cls-12" d="M13.58,61.81c-.49,1.5-.93,3.09-1.29,4.62a.48.48,0,0,1-.46.41.49.49,0,0,1-.38-.6,28.53,28.53,0,0,1,1.32-4.76c.06-.28.38-.35.65-.29A.85.85,0,0,1,13.58,61.81Z"/><path class="cls-12" d="M18.27,52.31c-.12.19-.26.16-.48.18s-.14,0-.28-.06a.49.49,0,0,1-.15-.62,36.6,36.6,0,0,1,3-3.93.48.48,0,0,1,.74.61C20.12,49.73,19.15,51,18.27,52.31Z"/><path class="cls-12" d="M17.7,96.83c-.09.05-.17.11-.23,0a.77.77,0,0,1-.39-.24L16.85,96c-.58-1.31-1.24-2.56-1.82-3.87a.46.46,0,0,1,.83-.4c.58,1.31,1.24,2.56,1.82,3.87l.24.57A.46.46,0,0,1,17.7,96.83Z"/><path class="cls-12" d="M14.65,59.12a.65.65,0,0,1-.51.32l-.14,0c-.28-.06-.35-.38-.29-.65a43.15,43.15,0,0,1,2.21-4.49.67.67,0,0,1,.71-.2.67.67,0,0,1,.2.71A21.65,21.65,0,0,0,14.65,59.12Z"/><path class="cls-12" d="M18.54,98.57a.4.4,0,0,1,.61.21c.85,1.74,1.39,3.18,2,4.49.16.26,0,.5-.3.66-.09.05-.09.05-.23,0a.77.77,0,0,1-.44-.32c-.49-1.36-1.13-2.76-1.92-4.41A.68.68,0,0,1,18.54,98.57Z"/><path class="cls-12" d="M14.29,134.52c.2-.25.48-.18.73,0s.18.48,0,.73a35.42,35.42,0,0,1-3.8,3.09.37.37,0,0,1-.31.08.52.52,0,0,1-.39-.24.46.46,0,0,1,.07-.64A32.07,32.07,0,0,0,14.29,134.52Z"/><path class="cls-12" d="M12.45,84.24a.42.42,0,0,1,.58.35,42.93,42.93,0,0,0,1.66,4.57c.16.26,0,.5-.3.66-.09.05-.09.05-.23,0a.77.77,0,0,1-.44-.32c-.71-1.7-1.26-3.15-1.72-4.65C12.07,84.59,12.22,84.26,12.45,84.24Z"/><path class="cls-12" d="M25,43.58c.46-.41.89-.68,1.35-1.08a.46.46,0,1,1,.57.72,7.84,7.84,0,0,0-1.27,1c-.81.62-1.56,1.33-2.39,2.09a.61.61,0,0,1-.4.13c-.14,0-.28-.06-.33-.15-.25-.2-.18-.48,0-.73C23.35,45,24.1,44.26,25,43.58Z"/><path class="cls-14" d="M158.09,131.34,154.54,166l37.23,1.47-7.47-53.73Z"/><path class="cls-15" d="M146.58,137.71h-.12a15.15,15.15,0,0,1-14.08-11.5c-5-21.66,5.51-57.89,5.51-57.89l20-8.44L183.2,75.54l1.47,32.8A26.85,26.85,0,0,1,173.4,131,53.59,53.59,0,0,1,146.58,137.71Z"/><path class="cls-16" d="M179.16,94.14c-1.35-5.51-.61-18.24-6.25-17.26-4,.61-18.13,1.22-22.78,1.22-11.27,0-31.23-4.41-31.23-21.54,0-8.57,8.33-15.91,13.6-18.11a22.66,22.66,0,0,1,16.29-.24c12.37,4.28,28.78,13.83,35.27,12.48,11-2.2,22,4.28,21.8,13.58-.12,10-5.39,25-10.29,34.51a50.58,50.58,0,0,1-11.27,14.69Z"/><path class="cls-15" d="M190.55,95.36c-2.45-2.2-7.23-1.84-10.41,1s-3.92,6.73-1.35,8.93,7.23,1.84,10.41-1S193.12,97.57,190.55,95.36Z"/><path class="cls-8" d="M254.73,331.81V233.66c0-37.82-27.07-70.74-64.42-76.49a107.72,107.72,0,0,0-17.15-1.22c-1.23,0-2.57,0-3.8.12-41,1.47-66.51,58.13-66.51,99.13v76.61Z"/><path class="cls-17" d="M210.14,331.81V255.2a118.62,118.62,0,0,1,2.94-25.46h-2.33a121.86,121.86,0,0,0-2.82,25.46v76.61Z"/><path class="cls-17" d="M156.13,146.52h33.19l8.57,12.24-46.05,1.1Z"/><path class="cls-18" d="M240.89,302.51l-21.07,70.62h2.45l21.07-70.62Z"/><path class="cls-18" d="M263.05,302.51l-21.19,70.62h2.45l21.19-70.62Z"/><path class="cls-18" d="M241,302.51v1.83h22.9l.37-1.83Z"/><path class="cls-18" d="M237.09,316.34v2.08H260l.37-2.08Z"/><path class="cls-18" d="M233,330.9l-.86,2.08H255l.49-2.08Z"/><path class="cls-18" d="M228.76,345.47l-1,2.2h22.9l.49-2.2Z"/><path class="cls-18" d="M224.72,359.79l-.86,2.08h22.9l.37-2.08Z"/><path class="cls-7" d="M339.36,302.51l21.07,70.62h2.45l-21.07-70.62Z"/><path class="cls-7" d="M317.19,302.51l21.19,70.62h2.45l-21.19-70.62Z"/><path class="cls-7" d="M318.41,302.51l.37,1.83h22.9v-1.83Z"/><path class="cls-7" d="M345.6,316.34v2.08H322.7l-.37-2.08Z"/><path class="cls-7" d="M349.65,330.9l.86,2.08H327.72l-.49-2.08Z"/><path class="cls-7" d="M353.93,345.47l1,2.2H332l-.49-2.2Z"/><path class="cls-7" d="M358,359.79l.86,2.08h-22.9l-.37-2.08Z"/><path class="cls-7" d="M348.42,300.92H236.72v3.55h111.7Z"/><path class="cls-14" d="M158.48,245.38l-.37,5.39-5.39.24,2.21-8.44Z"/><path class="cls-15" d="M160.81,246.36a2.53,2.53,0,0,0,1.59-.37c2-2.82-.24-10.52-.24-10.52L159,234.12l-4,2.45-.24,5.14a4.3,4.3,0,0,0,1.84,3.55A8.94,8.94,0,0,0,160.81,246.36Z"/><path class="cls-16" d="M155.66,239.5c.25-.86.12-2.82,1-2.69a32.24,32.24,0,0,0,3.55.24c1.71,0,4.9-.73,4.9-3.43a3.68,3.68,0,0,0-2.08-2.81,3.13,3.13,0,0,0-2.57,0c-2,.73-4.53,2.2-5.51,2-1.71-.37-3.43.61-3.43,2.08a14.35,14.35,0,0,0,1.59,5.39,16.34,16.34,0,0,0,1.71,2.33Z"/><path class="cls-15" d="M153.82,239.75a1.31,1.31,0,0,1,1.59.12c.49.49.61,1.1.24,1.35a1.31,1.31,0,0,1-1.59-.12C153.58,240.73,153.46,240,153.82,239.75Z"/><path class="cls-15" d="M173.54,249.54a5.71,5.71,0,0,1,2-2.2c1.35-1,4.78-2.33,3.31-3.43-1.84.12-4,.12-4,.12a6.24,6.24,0,0,0-3.06,2.57l-1.59,3.31s.73,1.59.73,1.71l.74-.12C172.2,250.76,172.93,250.15,173.54,249.54Z"/><path class="cls-15" d="M173.67,248.68v-.25c-.24,0-.49.12-.73.12-.73.49-1.47.86-2.33,1.35.37.37.73,1,.86,1l5.63-2s.12-.74-1.23-.74A5.46,5.46,0,0,0,173.67,248.68Z"/><path class="cls-19" d="M165.21,260.92l8.57-8.08-2.94-4.41-11.76,5.63,5,8.93Z"/><path class="cls-20" d="M155.66,247.58c-12.25-2.57-10.17,38.06-10.17,38.06H165s.24-7.1,1-16C166.44,262,162.28,253.46,155.66,247.58Z"/><path class="cls-16" d="M162,352.83a17.31,17.31,0,0,0,6.25,2.94c1,.25,2-.12,2,1.47H165l-4.41-.73v.73h-2.33s-.61-3.92.73-4.41Z"/><path class="cls-15" d="M161.79,350l.24,2.82a2.81,2.81,0,0,1-2.94.12l-.12-.12-.49-2.82Z"/><path class="cls-15" d="M189.59,260.31a5.93,5.93,0,0,0,2.69-1.35c1.35-1.1,3.43-4.16,4-2.45a27.16,27.16,0,0,0-1,3.92,6.21,6.21,0,0,1-3.18,2.32l-3.55.86-1.47-1.1.37-.73C188.12,261.29,188.85,260.8,189.59,260.31Z"/><path class="cls-15" d="M190.45,260.43h.24c-.12.24-.12.49-.24.61-.61.61-1.22,1.35-1.84,2-.37-.37-.74-1-.86-1l3.18-5s.74.12.49,1.35A5,5,0,0,1,190.45,260.43Z"/><path class="cls-16" d="M143.29,348.92a17.32,17.32,0,0,0,6.25,2.94c1,.24,2-.12,2,1.47h-5.27l-4.41-.73v.73h-2.33s-.61-3.92.73-4.41Z"/><path class="cls-15" d="M143,346.1l.24,2.82a2.81,2.81,0,0,1-2.94.12l-.12-.12-.49-2.82Z"/><path class="cls-16" d="M145.5,285.64s1.59,8.2.12,25.21a30.79,30.79,0,0,1-2.08,8.81c-3.8,9.55-4.29,27.29-4.29,27.29h4.29l15.07-43.08Z"/><path class="cls-21" d="M152.72,260.92s3.31,12.48,12.49,13.71,24.13-10.4,24.13-10.4l-1.59-3.31L172,265.33a5.22,5.22,0,0,1-6.12-2.57l-4.78-8.81Z"/><path class="cls-7" d="M164.85,285.64,162,350.75h-3.8s-4.29-15.18-3.92-27.17a26.77,26.77,0,0,0-2-11.14,100.29,100.29,0,0,1-6.86-26.93h19.35Z"/><path class="cls-4" d="M198.28,254.07l-13.72,10.28-15.68-12.24,12.74-9.55Z"/><path class="cls-22" d="M180,266.92a9,9,0,0,0-.86-3.67l8.45-2.33,1.59,3.31a77.25,77.25,0,0,1-9.55,6.12A16.29,16.29,0,0,0,180,266.92Z"/><path class="cls-12" d="M153,260.92c0,.12,3.43,12.36,12.25,13.46,8.21,1.1,21.56-8.57,23.64-10.16l.37.37c-2,1.47-14.09,10.28-22.66,10.28a4.61,4.61,0,0,1-1.35-.12C156,273.65,152.6,261,152.6,260.92Z"/><path class="cls-15" d="M191.92,262.76l-2.94.61a6.21,6.21,0,0,0-1.1-2c.61-.37,1.23-.73,1.72-1.1a5.93,5.93,0,0,0,2.69-1.35,15.18,15.18,0,0,0-.37,3.3C191.79,262.39,191.92,262.51,191.92,262.76Z"/><path class="cls-15" d="M188,261.66l2.94-4.65s.74.12.49,1.35a5,5,0,0,1-1,2.08h.24c-.12.24-.12.49-.24.61a23.59,23.59,0,0,0-1.71,1.84A10.89,10.89,0,0,1,188,261.66Z"/><path class="cls-15" d="M174.52,246.85h0a7.19,7.19,0,0,0-1.1,1.59,3.31,3.31,0,0,0-1,.86c0-.25-.12-.61-.12-.86A7.26,7.26,0,0,0,174.52,246.85Z"/><path class="cls-15" d="M174,247.34a6,6,0,0,1,1.84-.37c1.23,0,1.23.74,1.23.74l-4.53,1.59c0-.37-.12-.61-.12-.86C172.93,248.07,173.54,247.7,174,247.34Z"/><path class="cls-4" d="M158.48,250.52v-2.69l-4.41-2-1.71,2.08Z"/><path class="cls-14" d="M309.8,192.73l2.2,4.77,3.55-3.18-2.57-7Z"/><path class="cls-15" d="M308.57,193a1.93,1.93,0,0,1-1.47-.12c-2.08-2.45-1.35-9.55-1.35-9.55l2.45-2.2,3.8,1.84,1,3.92a6.41,6.41,0,0,1-1,4.53A6,6,0,0,1,308.57,193Z"/><path class="cls-15" d="M308,218.55a5.66,5.66,0,0,1-2.57,1.84c-1.71.61-14.7-2.08-14.7-2.08l-2.57.24a6.94,6.94,0,0,1-4.16-.24l-3.8-1.47,22.29-.49L311,205.82Z"/><path class="cls-18" d="M315.55,194.32s5.14,6.61,6.37,10.89,1.59,16.28,1.59,16.28H312.74s-3.06-5.63-5.51-10.77a6.19,6.19,0,0,1-.12-4.89c1.71-4,4.41-9.55,4.41-9.55Z"/><path class="cls-15" d="M310,293.57l-.86,2.2a2.86,2.86,0,0,1-1.22,1.47,11.17,11.17,0,0,1-2.94,1.35c1.72,1.47,4.41-.12,6-1.1a3.41,3.41,0,0,0,1.47-2.2l.37-1.71Z"/><path class="cls-7" d="M312.74,294.68a2.29,2.29,0,0,1,1,2.08c-.24,1.22-.49,3.92-.49,3.92H312V298.1c0-.12-2.57,2.57-2.94,2.57h-6.37s-.37-1.71,3.31-2.33S312.74,294.68,312.74,294.68Z"/><path class="cls-15" d="M322.29,293.57l-.86,2.2a2.86,2.86,0,0,1-1.22,1.47,11.17,11.17,0,0,1-2.94,1.35c1.72,1.47,4.41-.12,6-1.1a3.41,3.41,0,0,0,1.47-2.2l.37-1.71Z"/><path class="cls-7" d="M325.11,294.68a2.29,2.29,0,0,1,1,2.08c-.24,1.22-.49,3.92-.49,3.92h-1.22V298.1c0-.12-2.57,2.57-2.94,2.57h-6.37s-.37-1.71,3.31-2.33S325.11,294.68,325.11,294.68Z"/><path class="cls-16" d="M312.74,221.73s-5.39,8.08-.73,40.14c-.73,12.12-2.08,32.06-2.08,32.06H313s8.45-21.3,5.63-31.82c-.61-10.52,2-40.51,2-40.51Z"/><path class="cls-7" d="M323.52,221.49s5.63,4.53,5.63,11.26c0,5.26-2.57,16.15-4,23.25a17.16,17.16,0,0,0,.73,7.83c2.94,10.4-.61,30-.61,30h-3.06s-.12-10.16-4.29-32.8c-4.78-26.07-5.14-39.53-5.14-39.53Z"/><path class="cls-4" d="M279.67,217H297.3v-1.35H280.4l-7.47-14.2-1.1.61Z"/><path class="cls-15" d="M320.45,206.44s-5.63,13.1-8.33,13.1-17.76-6.36-17.76-6.36l.37-2.2L310,213.53a76.73,76.73,0,0,0,2.33-7.83,4.35,4.35,0,0,1,3.31-3.3C319.35,201.66,320.45,206.44,320.45,206.44Z"/><path class="cls-16" d="M313,185.51s-1.71,1-6.86-2.32c-.73.24.49-7.22,7.1-5,4.65,1.47,4.41,6,4.16,8.44-.24,2.69,1.23,4.41,3.06,6.36,1.59,1.59,1.47,4.65,2.57,6.36,1.22,2,2.57,1.84,3.67,3.92a6.14,6.14,0,0,1-.24,6.61c-.86,1.1-2.7,3.67-5.63,2.81-1.71-.49-2.08-3.43-2.2-5.87a7.39,7.39,0,0,0-2.82-5.51c-1.59-1.22-3.31-3.06-3.8-4.77C311,193,313,185.51,313,185.51Z"/><path class="cls-15" d="M313.59,185.75a1,1,0,0,0-1.35.37,1,1,0,0,0,0,1.35,1,1,0,0,0,1.35-.37C314,186.61,314,186,313.59,185.75Z"/><path class="cls-15" d="M286.28,212.07a.67.67,0,0,1,.49-.74l2.94-1.22a2.77,2.77,0,0,1,2.2-.12l2.82,1h.37l.37,2.69c-.61-.24-.86-.37-.86-.37l-1.84-.61s-3.92,3.3-5.39.37c-.37,3.06-1.23,2.69-1.23,2.69Z"/><path class="cls-16" d="M315.43,182.94c-.61,2.08-3.55,3.06-6.49,2.2s-4.65-3.06-4.53-5.26c.24-2.82,3.55-3.06,6.49-2.2C314.08,178.53,316,180.86,315.43,182.94Z"/><path class="cls-23" d="M92.74,254.78l-8.29,22.06L79,273l12-20.12Z"/><path class="cls-23" d="M91.68,248.08a2.78,2.78,0,0,0-.71,2.29l-.35,3.18.35.53,1.41,1.41c0-.71-.18,0-.18,0l2.47-4.24s2.82-1.94-.71-4.59c-.35-.18-.88-.35-1.24,0A3.71,3.71,0,0,0,91.68,248.08Z"/><path class="cls-24" d="M74.21,292.73a154.93,154.93,0,0,0,10.24-15.89l-4.59-5.3-5.65,6.53Z"/><path class="cls-23" d="M61.33,388.53l2.59.53c.52-3.37,8.82-19.18,9.34-27.52A179.36,179.36,0,0,1,76,342.19l-8.82-2.66s-2.25,0,.17,18.64C62,365.45,60.64,382.32,61.33,388.53Z"/><path class="cls-25" d="M68.1,333.58s2,12.6,4.73,26.08c-2.77,8.05,1.47,30.8,1.63,30.8.33-.35,1.79,1.57,1.79,1.57s3.1-20.13,3.91-29.05c.65-9.1.82-20.13.82-20.13Z"/><path class="cls-26" d="M74.11,389.07a3.07,3.07,0,0,0-1,2.43c.18,1.39.52,4.51.52,4.51h1.22v-2.95c0-.17,2.79,2.95,3.31,2.95h6.8s.52-2.08-3.66-2.6C77.42,392.71,74.11,389.07,74.11,389.07Z"/><path class="cls-23" d="M64,386.45l-.18,2.82a3.4,3.4,0,0,0,.53,1.77,11.64,11.64,0,0,0,2.12,2.12c-1.94.71-3.88-1.59-4.77-3.18a3.06,3.06,0,0,1-.53-2.47l.35-2.29Z"/><path class="cls-27" d="M61,388s-1.77.18-2.12,1.59-1.06,4.06-1.06,4.06l.88.71,1.41-2.65s3,3.88,3.35,4.24H71s0-2.47-4.77-2.65C62,393.16,61,388,61,388Z"/><path class="cls-23" d="M76.72,281.07H70.08l2.57-6.93L78,276.95Z"/><path class="cls-3" d="M106.55,219.4l-10.7,27.47,5,1.93,10.7-27.47Z"/><path class="cls-28" d="M96.87,247.24h-.12s9.06-25.85,10.75-27.54,4.83-2.54,1.69.72S96.87,247.24,96.87,247.24Z"/><path class="cls-29" d="M109.32,158.21a165.77,165.77,0,0,1,19,.6c1,.12,5.32.24,2.42.24l2.17.73c2.3,1.69,4.23,3.74,6.77,5.19a28.51,28.51,0,0,0,7.13,3.14,34.32,34.32,0,0,1-30.08,56.54,16.91,16.91,0,0,0-3.62-1.81c-.48-.24-.85-.36-1.33-.6a44.37,44.37,0,0,0-5.32-2.78A21.21,21.21,0,0,0,100.5,218,34.23,34.23,0,0,1,89,178,33.27,33.27,0,0,1,109.32,158.21Z"/><path class="cls-8" d="M121.28,223.93a16.4,16.4,0,0,0-7.25-2.17,32.73,32.73,0,0,1-5-.48c-.12,0-.12,0-.24-.12s5.22-19.15,12.44-30.65,20-22.93,20-22.93c16.19,7.61,16,17.58,9.39,34.49A34.43,34.43,0,0,1,121.28,223.93Z"/><path class="cls-6" d="M88.78,178.14a34.35,34.35,0,1,0,44.46-19.57A34.39,34.39,0,0,0,88.78,178.14Zm3.5,1.33a30.44,30.44,0,1,1,17.4,39.38A30.47,30.47,0,0,1,92.28,179.47Z"/><path class="cls-27" d="M85.64,274.79l11.72-35a1.61,1.61,0,0,1,2.05-1l4.23,1.69a1.64,1.64,0,0,1,.85,2.17l-9.42,24.16C93.85,264.4,88.66,275.39,85.64,274.79Z"/><path class="cls-24" d="M81.77,278.17l15.7-38.54a1.8,1.8,0,0,1,1.93-1.09c-.12.73-10,30-14.13,42.65C84.31,280.71,82.86,278.41,81.77,278.17Z"/><path class="cls-4" d="M114.89,176.5A4.47,4.47,0,1,0,109.1,179,4.47,4.47,0,0,0,114.89,176.5Z"/><path class="cls-4" d="M106.11,181.67a2.05,2.05,0,1,0-2.66,1.17A2.05,2.05,0,0,0,106.11,181.67Z"/><path class="cls-4" d="M83,288.37a.62.62,0,0,0-.18-.52c5.55-6.71,10-11.53,10-11.53l-4.65-5.16L77.66,280.8h-3a6.5,6.5,0,0,0-7.87,1c-1.25,1.38-2.15,5-1.25,8.78,2.51,10.5.54,16,.54,16l14.32,5.16s.36-9.12.54-15.49A7.8,7.8,0,0,1,82,292.85,5.85,5.85,0,0,0,83,288.37Z"/><path class="cls-25" d="M101.75,253.72l-8.47,22.06L88,271.73,99.8,251.78Z"/><path class="cls-25" d="M100.69,247a2.78,2.78,0,0,0-.71,2.29l-.35,3.18.35.53,1.41,1.41c0-.71-.18,0-.18,0l2.47-4.24s2.82-1.94-.71-4.59c-.35-.18-.88-.35-1.23,0A2.33,2.33,0,0,0,100.69,247Z"/><path class="cls-27" d="M81.92,306.83s2,9.48,2,15.1c0,3.16-.74,22.66-.74,22.66s-14,.88-16.62.88c-.74-16-4.43-16.51-4.43-23.89,0-3.16,1.66-6.85,3.14-9.31a14.05,14.05,0,0,0,1.85-5.09v-.35Z"/><path class="cls-25" d="M78.1,263.26l-9,3.18.88,6.71v.35a.65.65,0,0,1,.53.18,6.36,6.36,0,0,1,4.24,4.24,14.34,14.34,0,0,0,3.88,0,4,4,0,0,0,1.94-.88C82.68,272.61,78.1,263.26,78.1,263.26Z"/><path class="cls-27" d="M78.17,269.07c-2.57,1.25-1.83,13.77-2.38,22.35a9.82,9.82,0,0,1-8.43,9.12c-3.3.54-7,.54-9.16-.54,1.47-1.07,9.16-12.34,6.78-27.18-.37-2-.37-7.33,2.93-10.37,3.67-3.22,11.37,1.07,11.37,1.07S81.47,267.46,78.17,269.07Z"/><path class="cls-11" d="M363.35,118.83l3.67,7.34-7.84-1.84-26.82-8.44Z"/><path class="cls-12" d="M367,126.17l-13.35-.86L357,123.6Z"/><path class="cls-30" d="M363.35,118.83l2.33-7.22-33.31,4.28Z"/><path class="cls-31" d="M332.36,115.89l26.82,8.44-3.92,10.28Z"/><path class="cls-12" d="M364.08,133.51c.12,0,.12-.12.25-.12a.52.52,0,0,0-.12-.86,21.65,21.65,0,0,0-2.69-2c-.24-.12-.73-.12-.86.24s-.12.73.24.86a17.47,17.47,0,0,1,2.45,1.71A.58.58,0,0,0,364.08,133.51Z"/><path class="cls-12" d="M354.41,202.05c-.12-.24-.12-.73.24-.86a17.82,17.82,0,0,0,4.65-4,.61.61,0,1,1,1,.73,20.23,20.23,0,0,1-4.9,4.28C354.9,202.42,354.53,202.3,354.41,202.05Zm7.1-7.1a.76.76,0,0,1-.24-.86,23.6,23.6,0,0,0,2.33-5.75.62.62,0,0,1,1.23.25,21.33,21.33,0,0,1-2.45,6c-.12.12-.12.24-.24.24C361.88,195.07,361.63,195.07,361.51,195Zm3.18-9.55a.66.66,0,0,1-.61-.61v-.24a23.75,23.75,0,0,0-.37-5.87.62.62,0,1,1,1.22-.24,34.85,34.85,0,0,1,.37,6.12v.24c0,.24-.12.37-.37.49C364.94,185.41,364.82,185.41,364.69,185.41Zm-.86-10a.54.54,0,0,1-.73-.49A42.46,42.46,0,0,0,361,169a.66.66,0,1,1,1.22-.49,45.23,45.23,0,0,1,2.08,6.12c.12.25-.12.61-.37.73Zm-3.55-9.42a.7.7,0,0,1-.86-.24c-.12-.12-.12-.37-.24-.49-.61.24-1.35.49-2.08.74a.62.62,0,1,1-.24-1.22,10.9,10.9,0,0,0,1.84-.61,43.68,43.68,0,0,0-2.21-3.92c-.12-.24-.12-.73.24-.86s.74-.12.86.24q1.29,2.2,2.2,4a10.76,10.76,0,0,0,2.57-1.47.61.61,0,1,1,.73,1,31.08,31.08,0,0,1-2.69,1.59c.12.12.12.24.24.37A.63.63,0,0,1,360.28,165.95Zm5-5.26a.59.59,0,0,1,0-.86,17.54,17.54,0,0,0,2.33-2.94,10.86,10.86,0,0,0,1-2.08.66.66,0,1,1,1.22.49c-.37.73-.73,1.59-1.1,2.2a20.12,20.12,0,0,1-2.45,3.18l-.12.12A.93.93,0,0,1,365.31,160.68Zm-12,5.87a19.2,19.2,0,0,1-6.49-.49.62.62,0,0,1,.24-1.22,20.41,20.41,0,0,0,6.12.49.77.77,0,0,1,.73.61.67.67,0,0,1-.37.61Zm16.78-14.69a.54.54,0,0,1-.49-.73,17.09,17.09,0,0,0,0-6.12.62.62,0,1,1,1.22-.25,16.47,16.47,0,0,1-.12,6.49c0,.24-.12.37-.37.49C370.33,151.87,370.21,152,370.08,151.87ZM343.14,164.6a9.16,9.16,0,0,1-1.47-.86,13.48,13.48,0,0,1-3.55-3.43.6.6,0,0,1,.12-.86c.24-.24.61-.12.86.12a10.81,10.81,0,0,0,3.18,3.06c.49.24.86.49,1.35.73a.53.53,0,0,1,.24.86c-.12.12-.12.25-.24.25C343.51,164.72,343.38,164.72,343.14,164.6Zm11.39-7.71a23.33,23.33,0,0,0-3.92-4.77.61.61,0,0,1,.86-.86,22.47,22.47,0,0,1,4,5,.54.54,0,0,1-.24.86A.59.59,0,0,1,354.53,156.89ZM369.59,142a.75.75,0,0,1-.86-.37,11.59,11.59,0,0,0-1.1-2.57,21.56,21.56,0,0,0-1.71-2.82c-.24-.24-.12-.61.12-.86s.61-.12.86.12a15.65,15.65,0,0,1,1.84,3.06,12.48,12.48,0,0,1,1.1,2.69c.24.24.12.49-.24.73Zm-32.46,15.3a.54.54,0,0,1-.74-.49,7,7,0,0,1,.49-5,5.75,5.75,0,0,1,1.1-1.47.61.61,0,0,1,.86.86,4.4,4.4,0,0,0-.86,1.22,5.94,5.94,0,0,0-.37,4.16c.12.24-.12.61-.37.73ZM347.67,150a8.49,8.49,0,0,0-5.76-.49.62.62,0,0,1-.24-1.22,10.25,10.25,0,0,1,6.61.61.63.63,0,0,1,.37.86.26.26,0,0,1-.24.24Q347.85,150.22,347.67,150Z"/><path class="cls-12" d="M351.59,203.76A.87.87,0,0,0,352,203a.76.76,0,0,0-.73-.49,12.3,12.3,0,0,1-2.94.49.61.61,0,0,0,0,1.22A10.32,10.32,0,0,0,351.59,203.76Z"/></g></g></svg>