<svg width="514" height="378" viewBox="0 0 514 378" fill="none" xmlns="http://www.w3.org/2000/svg">
<path d="M196.761 1.90216V21.7951H225.902V49.3452H224.982V251.193C224.982 266.988 237.914 279.923 253.703 279.923C256.201 279.923 408.58 280.063 408.58 280.063V48.0657C408.58 22.5548 387.914 1.88217 362.411 1.88217H196.761V1.90216Z" fill="#D2DEEC"/>
<path d="M176.874 40.2885V21.8351C176.874 10.3392 186.288 0.902561 197.78 0.882568C213.57 0.882568 226.501 13.698 226.501 29.3724V40.3084H176.874V40.2885Z" fill="#6680A1"/>
<path d="M372.144 53.2638H273.03V57.4224H372.144V53.2638Z" fill="#25374B"/>
<path d="M372.144 69.9179H273.03V74.0764H372.144V69.9179Z" fill="#25374B"/>
<path d="M372.144 88.6512H273.03V92.8097H372.144V88.6512Z" fill="#25374B"/>
<path d="M372.144 105.285H273.03V109.444H372.144V105.285Z" fill="#25374B"/>
<path d="M372.144 123.439H273.03V127.597H372.144V123.439Z" fill="#25374B"/>
<path d="M372.144 140.093H273.03V144.251H372.144V140.093Z" fill="#25374B"/>
<path d="M372.144 158.806H273.03V162.965H372.144V158.806Z" fill="#25374B"/>
<path d="M372.144 175.46H273.03V179.619H372.144V175.46Z" fill="#25374B"/>
<path d="M415.995 280.063C384.456 280.063 262.077 280.063 262.077 280.063C262.077 280.063 293.197 273.665 282.824 235.279C330.532 235.279 446.675 235.279 446.675 235.279C446.675 235.279 457.048 280.063 415.995 280.063Z" fill="#63C0C4"/>
<path d="M132.048 227.306C132.048 227.306 156.456 151.066 111.343 113.546C23.1244 162.662 71.6938 249.232 71.6938 249.232L132.048 227.306Z" fill="#C1D5F0"/>
<path d="M111.343 113.546C111.03 113.711 110.734 113.891 110.437 114.056L105.039 208.225L62.9542 167.103C62.7402 167.728 62.5427 168.337 62.3452 168.962L104.907 210.544L103.344 237.718L105.138 237.06L108.232 182.894L137.644 165.606C137.561 164.981 137.479 164.34 137.397 163.715L108.364 180.788L112.166 114.27C111.902 114.023 111.639 113.776 111.343 113.546Z" fill="white"/>
<path d="M111.178 209.853C111.178 209.853 82.6389 135.291 26.91 128.004C-13.4795 182.17 40.1262 236.368 40.1262 236.368L104.545 263.361L111.178 209.853Z" fill="#6680A1"/>
<path d="M80.5157 159.8L64.4521 191.349L28.2266 128.185C27.7822 128.12 27.3543 128.037 26.9099 127.988C26.7453 128.202 26.6137 128.416 26.4491 128.63L45.8538 162.465L13.6114 155.885C13.5455 156.198 13.4797 156.494 13.4139 156.79L13.2493 157.596L47.0224 164.488L79.3636 220.874L22.4167 211.136C22.7624 211.794 23.108 212.452 23.4536 213.094L80.4993 222.848L103.459 262.884L104.545 263.345L104.759 261.618L65.5054 193.191L81.7666 161.247C81.3551 160.754 80.9272 160.277 80.5157 159.8Z" fill="#25374B"/>
<path d="M92.119 242.948C92.119 242.948 36.6369 205.988 0 231.73C5.29968 322.955 121.777 322.675 121.777 322.675L92.119 242.948Z" fill="#F04637"/>
<path d="M0 231.73C0.0164586 232.076 0.0493759 232.421 0.0658345 232.783L78.8369 276.882L33.2958 295.37C33.839 295.782 34.3986 296.193 34.9417 296.604L80.7954 278L111.557 295.239L110.602 292.689L50.7091 259.134L40.3895 223.243C39.7641 223.16 39.1222 223.095 38.4967 223.029L48.5201 257.917L0.822932 231.171C0.543135 231.352 0.279797 231.533 0 231.73Z" fill="white"/>
<path d="M345.834 286.732C345.834 286.732 335.959 217.73 380.151 192.07C448.75 247.042 394.47 314.317 394.47 314.317L345.834 286.732Z" fill="#617B9B"/>
<path d="M380.134 192.07C380.381 192.267 380.611 192.448 380.842 192.646L371.773 274.281L413.891 245.084C413.989 245.643 414.072 246.203 414.138 246.778L371.543 276.304L368.926 299.858L367.477 299.036L372.695 252.075L349.965 232.961C350.13 232.435 350.295 231.909 350.459 231.382L372.909 250.249L379.311 192.58C379.591 192.399 379.854 192.234 380.134 192.07Z" fill="#053C5E"/>
<path d="M366.275 274.774C366.275 274.774 401.628 214.901 450.527 216.726C477.321 269.099 423.419 307.853 423.419 307.853L364.185 321.67L366.275 274.774Z" fill="#F04637"/>
<path d="M399.884 236.268L409.085 265.695L449.376 216.711C449.754 216.711 450.149 216.711 450.528 216.727C450.626 216.941 450.725 217.138 450.824 217.336L429.247 243.572L457.885 242.601C457.901 242.881 457.901 243.144 457.918 243.407L457.934 244.131L427.946 245.151L391.984 288.871L442.298 288.773C441.903 289.299 441.508 289.809 441.113 290.302L390.717 290.401L365.173 321.44L364.169 321.67L364.235 320.157L407.883 267.093L398.568 237.305C399.029 236.959 399.457 236.614 399.884 236.268Z" fill="white"/>
<path d="M153.317 50.5776L131.618 38.5993L120.531 36.3895L112.149 37.6079L153.317 50.5776Z" fill="url(#paint0_linear)"/>
<path d="M153.317 50.5776L112.665 40.1276L112.149 37.608" fill="#AFD8C7"/>
<path d="M111.509 47.1079L111.55 47.1906L113.264 53.5102L153.214 50.5775L111.509 47.1079Z" fill="#63C0C4"/>
<path d="M103.746 43.4112L109.548 38.7025L153.049 50.5156L115.597 49.4004L103.746 43.4112Z" fill="url(#paint1_linear)"/>
<path d="M12.3058 123.975C13.6272 123.5 14.9485 122.943 16.2079 122.282C16.497 122.137 16.8479 122.241 17.0131 122.53C17.1576 122.819 17.0544 123.17 16.7654 123.335C15.444 124.017 14.0814 124.616 12.6981 125.091C12.2026 125.277 11.6865 125.421 11.191 125.586C11.0052 125.648 10.8193 125.607 10.6748 125.504C10.5716 125.421 10.489 125.318 10.4684 125.194C10.3651 124.884 10.551 124.554 10.8606 124.45C11.3355 124.306 11.831 124.141 12.3058 123.975Z" fill="#63C0C4"/>
<path d="M91.875 39.0124C93.7124 39.2395 95.6325 39.5493 97.7384 39.9417C98.0687 40.0037 98.2752 40.3134 98.2132 40.6232C98.1513 40.9537 97.8416 41.1602 97.5319 41.0983C95.4467 40.7059 93.5473 40.4167 91.7304 40.1895C91.6272 40.1689 91.524 40.1276 91.462 40.0863C91.2969 39.9624 91.1936 39.7558 91.2349 39.5287C91.2556 39.1982 91.5446 38.971 91.875 39.0124Z" fill="#63C0C4"/>
<path d="M82.0062 39.4667C81.8616 39.3634 81.7791 39.1982 81.7584 38.9917C81.7584 38.6612 82.0268 38.3927 82.3365 38.3927C84.2359 38.3721 86.2386 38.4547 88.2825 38.6199C88.6129 38.6406 88.8606 38.9297 88.8193 39.2602C88.7987 39.5906 88.5096 39.8178 88.1793 39.7971C86.156 39.6319 84.1946 39.5493 82.3365 39.5699C82.2333 39.5699 82.1094 39.5286 82.0062 39.4667Z" fill="#63C0C4"/>
<path d="M23.7024 116.85C23.9295 116.623 24.3011 116.623 24.5282 116.871C24.7553 117.098 24.7553 117.47 24.5075 117.697C23.083 119.102 21.5139 120.361 19.8416 121.477C19.6351 121.621 19.3461 121.6 19.1603 121.456C19.0983 121.415 19.057 121.373 19.0157 121.311C18.8299 121.043 18.9125 120.671 19.1809 120.485C20.8119 119.432 22.3191 118.193 23.7024 116.85Z" fill="#63C0C4"/>
<path d="M26.1386 115.116C25.8909 114.909 25.8496 114.537 26.056 114.29C26.3864 113.877 26.7167 113.464 27.0264 113.05C27.8728 111.915 28.6367 110.717 29.2974 109.498C29.4626 109.209 29.8136 109.106 30.1026 109.271C30.371 109.436 30.4949 109.787 30.3297 110.077C29.6484 111.336 28.8432 112.596 27.9761 113.773C27.6457 114.207 27.3154 114.641 26.9644 115.074C26.758 115.322 26.407 115.364 26.1592 115.178C26.1592 115.136 26.1386 115.136 26.1386 115.116Z" fill="#63C0C4"/>
<path d="M31.1142 107.123C31.0729 107.103 31.0316 107.082 30.9903 107.061C30.7838 106.896 30.6806 106.607 30.8045 106.359C31.5065 104.645 32.0845 102.848 32.6007 100.824C32.6833 100.515 32.9929 100.308 33.3233 100.391C33.633 100.473 33.8394 100.783 33.7568 101.113C33.2407 103.179 32.6213 105.058 31.8987 106.813C31.7542 107.103 31.4032 107.247 31.1142 107.123Z" fill="#63C0C4"/>
<path d="M46.7638 56.7112C46.2683 57.3101 45.7934 57.9297 45.3392 58.5493C44.6373 59.4993 43.9766 60.47 43.3572 61.4406C43.1921 61.7091 42.8204 61.7917 42.552 61.6265C42.5314 61.6265 42.5314 61.6058 42.5107 61.6058C42.263 61.42 42.2011 61.0895 42.3662 60.8211C43.0063 59.8091 43.6876 58.8178 44.3895 57.8471C44.8644 57.2069 45.3599 56.5873 45.8554 55.9677C46.0618 55.7199 46.4128 55.6373 46.6812 55.8851C46.929 56.0916 46.9703 56.4634 46.7638 56.7112Z" fill="#63C0C4"/>
<path d="M41.6229 64.4765C40.7145 66.2112 39.93 68.008 39.29 69.8047C39.1867 70.1145 38.8357 70.2797 38.5261 70.1558C38.4641 70.1351 38.4228 70.1145 38.3815 70.0732C38.1751 69.9286 38.0925 69.6395 38.1751 69.3917C38.8357 67.533 39.6616 65.6949 40.57 63.9189C40.7145 63.6297 41.0861 63.5265 41.3752 63.671C41.6642 63.8363 41.7675 64.1873 41.6229 64.4765Z" fill="#63C0C4"/>
<path d="M53.3705 50.1232C51.8633 51.3623 50.4388 52.6841 49.0968 54.0884C48.8904 54.3156 48.56 54.3362 48.3123 54.1504C48.2916 54.1297 48.271 54.1091 48.2503 54.1091C48.0232 53.8819 48.0026 53.5102 48.2297 53.283C49.5923 51.858 51.0788 50.4743 52.6066 49.2145C52.8543 49.008 53.226 49.0493 53.4324 49.2971C53.6595 49.5449 53.6182 49.9167 53.3705 50.1232Z" fill="#63C0C4"/>
<path d="M64.2508 43.4112C64.0444 43.4939 63.8173 43.4732 63.6521 43.3493C63.5695 43.2873 63.5076 43.2047 63.4663 43.1221C63.3424 42.833 63.4663 42.4819 63.776 42.3373C65.6134 41.5319 67.4922 40.8297 69.3916 40.2721C69.7013 40.1895 70.0316 40.3547 70.1349 40.6645C70.2174 40.9743 70.0523 41.3047 69.7426 41.408C67.8638 41.945 66.0264 42.6265 64.2508 43.4112Z" fill="#63C0C4"/>
<path d="M35.1609 88.7222C35.0576 88.7015 34.9544 88.6602 34.8718 88.6189C34.7067 88.495 34.6034 88.2885 34.6447 88.082L34.7273 87.3385C34.9131 85.6243 35.1196 83.9102 35.3467 82.1961C35.388 81.8656 35.677 81.6384 36.0074 81.6797C36.3377 81.7211 36.5648 82.0102 36.5235 82.3406C36.2964 84.0341 36.1106 85.7483 35.9041 87.4624L35.8215 88.2059C35.7596 88.5363 35.4706 88.7635 35.1609 88.7222Z" fill="#63C0C4"/>
<path d="M56.137 48.0167C55.9305 48.1613 55.6415 48.1613 55.435 48.0167C55.3937 47.9754 55.3318 47.9341 55.3112 47.8721C55.1253 47.6037 55.1873 47.2319 55.4557 47.0461C57.0867 45.8895 58.8003 44.8363 60.5346 43.9069C60.8236 43.7623 61.1746 43.8656 61.3397 44.1547C61.4843 44.4439 61.381 44.7949 61.092 44.9602C59.399 45.8482 57.7267 46.8808 56.137 48.0167Z" fill="#63C0C4"/>
<path d="M34.8718 91.0765C35.2021 91.1178 35.4292 91.4069 35.388 91.7374C35.0989 94.0297 34.8099 95.9091 34.5002 97.6232C34.4383 97.9536 34.1286 98.1602 33.8189 98.0982C33.7363 98.0776 33.6537 98.0363 33.5711 97.995C33.3853 97.871 33.3027 97.6439 33.344 97.4167C33.6537 95.7232 33.9428 93.8852 34.2318 91.6134C34.2525 91.2624 34.5415 91.0352 34.8718 91.0765Z" fill="#63C0C4"/>
<path d="M7.47474 125.276C7.78442 125.215 8.11476 125.421 8.17669 125.751C8.23863 126.061 8.03217 126.392 7.70184 126.454C5.86436 126.825 3.92365 127.073 1.77648 127.218C1.63196 127.238 1.48744 127.176 1.38421 127.094C1.26033 126.991 1.1571 126.846 1.13646 126.66C1.11581 126.33 1.36356 126.061 1.6939 126.02C3.77913 125.875 5.67855 125.628 7.47474 125.276Z" fill="#63C0C4"/>
<path d="M37.8241 72.4276C38.1338 72.5102 38.3196 72.8406 38.237 73.1504C37.7622 74.8852 37.3699 76.7645 37.0189 78.8711C36.957 79.2015 36.6679 79.408 36.3376 79.3667C36.2344 79.3461 36.1518 79.3048 36.0898 79.2635C35.9247 79.1396 35.8215 78.9124 35.8627 78.6852C36.2137 76.5374 36.6266 74.6374 37.1015 72.8613C37.1841 72.5308 37.5144 72.345 37.8241 72.4276Z" fill="#63C0C4"/>
<path d="M76.7209 38.7439C77.4022 38.6613 78.1041 38.5993 78.7855 38.5374C79.1158 38.5167 79.4048 38.7645 79.4255 39.0743C79.4461 39.4047 79.1984 39.6939 78.8887 39.7145C78.2074 39.7558 77.5467 39.8384 76.8654 39.9004C75.6266 40.045 74.3466 40.2515 73.1285 40.52C72.9633 40.5613 72.7775 40.52 72.6536 40.4167C72.5504 40.3341 72.4678 40.2102 72.4265 40.0656C72.3646 39.7558 72.571 39.4254 72.8807 39.3634C74.1401 39.1156 75.4202 38.8884 76.7209 38.7439Z" fill="#63C0C4"/>
<path d="M470.414 246.453C470.892 247.515 470.975 248.721 470.621 249.845L469.998 254.236L469.249 254.735L466.442 255.901C466.733 255.047 466.442 254.153 466.442 254.153L465.215 249.616C465.215 249.616 463.302 241.959 468.5 242.292C468.48 236.049 470.206 237.089 470.206 237.089L470.33 242.479L470.414 246.453Z" fill="#F7B58E"/>
<path d="M483.327 261.623C483.327 261.623 479.688 275.503 476.589 275.753C473.491 276.002 470.268 253.778 470.268 253.778L466.047 254.278C466.047 254.278 464.404 286.24 473.865 286.823C483.327 287.406 484.574 280.331 484.574 280.331L483.327 261.623Z" fill="#FF7B7C"/>
<path d="M483.722 299.558H508.446C508.446 299.558 508.446 281.517 508.446 261.977C501.376 251.198 492.58 254.132 492.58 254.132C492.58 254.132 484.574 254.278 483.327 261.623C483.327 266.93 483.722 299.558 483.722 299.558Z" fill="#F04637"/>
<path d="M495.47 249.138L495.845 254.444L495.678 254.61C493.932 256.275 491.208 256.317 489.419 254.694L489.336 250.698L495.47 249.138Z" fill="#F39F85"/>
<path d="M497.425 238.047L496.967 246.828C496.094 246.786 495.574 247.723 495.741 248.555C495.657 248.763 495.595 248.971 495.595 249.2C494.077 250.282 491.332 251.697 487.777 251.031C482.225 249.97 485.572 239.233 485.572 239.233L497.425 238.047Z" fill="#F7B58E"/>
<path d="M500.211 244.643C500.253 243.998 501.126 242.625 501.625 242.208C504.765 239.482 501.958 237.506 500.96 236.86C499.858 236.153 500.066 234.155 498.652 233.032C496.468 231.325 494.368 233.094 492.975 232.844C491.582 232.595 490.708 230.722 488.671 231.721C486.633 232.699 486.862 234.301 486.217 234.967C485.572 235.633 484.366 233.781 482.391 235.903C479.376 239.129 485.281 240.523 485.281 240.523C485.281 240.523 488.525 241.855 492.809 240.19C493.391 239.961 494.098 240.086 494.472 240.606C495.491 242 495.512 249.325 495.512 249.325L496.947 248.139C496.905 248.097 500.024 247.577 500.211 244.643Z" fill="#212B53"/>
<path d="M496.875 245.363C497.158 244.672 496.827 243.882 496.136 243.599C495.445 243.316 494.656 243.647 494.373 244.338C494.09 245.029 494.421 245.819 495.112 246.102C495.803 246.385 496.592 246.054 496.875 245.363Z" fill="#F7B58E"/>
<path d="M489.336 370.413C489.336 370.413 487.943 372.348 481.372 374.013C479.916 374.387 478.357 374.637 478.357 377.03C481.434 377.03 484.845 377.03 484.845 377.03L491.478 375.886V377.03H495.054C495.054 377.03 496.052 371.162 493.952 370.413C492.039 370.413 489.336 370.413 489.336 370.413Z" fill="#212B53"/>
<path d="M489.003 366.209L489.336 370.413C490.646 371.328 492.351 371.37 493.724 370.559L493.973 370.413V366.209H489.003Z" fill="#F7B58E"/>
<path d="M507.759 370.413C507.759 370.413 506.366 372.348 499.795 374.013C498.34 374.387 496.78 374.637 496.78 377.03C499.858 377.03 503.268 377.03 503.268 377.03L509.901 375.886V377.03H513.478C513.478 377.03 514.476 371.162 512.376 370.413C510.442 370.413 507.759 370.413 507.759 370.413Z" fill="#212B53"/>
<path d="M507.406 366.209L507.739 370.413C509.049 371.328 510.754 371.37 512.126 370.559L512.376 370.413V366.209H507.406Z" fill="#F7B58E"/>
<path d="M508.446 261.977C508.446 261.977 515.848 279.103 506.408 287.843C496.947 296.582 484.117 295.105 484.117 295.105V290.173C484.117 290.173 495.72 289.195 499.442 281.433C503.164 273.672 497.945 266.95 497.945 266.95" fill="#F04637"/>
<path d="M484.865 294.418L478.939 294.543C476.527 294.418 474.947 290.818 474.531 288.155C474.468 287.759 474.863 287.426 475.238 287.572C477.255 288.279 482.412 290.111 483.742 290.922L484.865 294.418Z" fill="#F7B58E"/>
<path d="M483.722 299.558C476.34 320.388 487.88 366.542 487.88 366.542H494.451C494.451 366.542 491.353 301.119 499.899 299.558C486.841 299.558 489.336 299.558 483.722 299.558Z" fill="#212B53"/>
<path d="M500.752 276.231C500.669 277.854 500.294 279.602 499.442 281.412C495.72 289.174 483.514 290.194 483.514 290.194V295.167C483.514 295.167 496.947 296.562 506.408 287.822C509.839 284.659 511.045 280.372 511.19 276.231H500.752Z" fill="#FF7B7C"/>
<path d="M500.689 277.001C500.939 276.876 501.209 276.772 501.459 276.647C501.895 270.904 498.548 266.596 498.506 266.534L497.924 266.992C497.966 267.033 501.313 271.362 500.689 277.001Z" fill="#F04637"/>
<path d="M469.27 247.099C469.27 247.099 470.642 246.682 470.85 244.206C471.058 241.709 472.243 242.479 472.243 242.479C472.243 242.479 471.64 252.301 470.06 252.675C468.5 253.05 469.27 247.099 469.27 247.099Z" fill="#F7B58E"/>
<path d="M491 299.558C488.982 325.112 505.285 366.542 505.285 366.542H513.104C513.104 366.542 507.801 340.052 507.697 315.186C507.676 309.796 507.884 304.511 508.467 299.558C503.06 299.558 495.886 299.558 491 299.558Z" fill="#053C5E"/>
<path d="M475.191 93.1999L478.955 100.608L471.053 98.8184L444 90.2867L475.191 93.1999Z" fill="#AFD8C7"/>
<path d="M478.955 100.608L465.522 99.7756L468.807 98.1109L478.955 100.608Z" fill="#63C0C4"/>
<path d="M475.191 93.1999L477.541 86L444 90.2866L475.191 93.1999Z" fill="url(#paint2_linear)"/>
<path d="M444 90.2867L471.053 98.8184L467.019 109.223L444 90.2867Z" fill="url(#paint3_linear)"/>
<path d="M475.981 108.078C476.044 108.037 476.127 107.995 476.168 107.933C476.397 107.662 476.376 107.267 476.106 107.038C475.274 106.31 474.38 105.665 473.444 105.123C473.153 104.936 472.758 105.04 472.571 105.352C472.405 105.644 472.488 106.039 472.8 106.226C473.673 106.726 474.505 107.329 475.274 108.016C475.482 108.162 475.752 108.182 475.981 108.078Z" fill="#63C0C4"/>
<path d="M466.146 177.164C465.959 176.873 466.063 176.478 466.374 176.29C468.08 175.292 469.639 173.939 471.011 172.274C471.24 172.004 471.635 171.962 471.906 172.191C472.176 172.42 472.218 172.815 471.989 173.086C470.512 174.855 468.849 176.311 467.019 177.393C466.998 177.393 466.998 177.414 466.977 177.414C466.686 177.56 466.333 177.456 466.146 177.164ZM473.361 170.069C473.049 169.902 472.945 169.507 473.132 169.215C474.151 167.405 474.921 165.47 475.42 163.451C475.503 163.118 475.856 162.91 476.189 162.993C476.522 163.077 476.73 163.43 476.647 163.763C476.127 165.886 475.316 167.925 474.235 169.84C474.172 169.944 474.089 170.027 473.964 170.089C473.777 170.173 473.548 170.173 473.361 170.069ZM476.563 160.455C476.21 160.434 475.96 160.122 475.981 159.789L476.002 159.498C476.106 157.583 476.002 155.585 475.69 153.546C475.628 153.192 475.877 152.88 476.21 152.818C476.563 152.755 476.875 153.005 476.938 153.338C477.25 155.44 477.374 157.521 477.27 159.539L477.25 159.851C477.229 160.08 477.104 160.267 476.896 160.372C476.813 160.434 476.688 160.455 476.563 160.455ZM475.69 150.321C475.357 150.404 475.004 150.217 474.921 149.863C474.422 147.949 473.735 145.951 472.862 143.912C472.717 143.599 472.883 143.204 473.195 143.079C473.507 142.934 473.881 143.1 474.027 143.412C474.9 145.514 475.607 147.574 476.127 149.53C476.21 149.821 476.064 150.133 475.794 150.258C475.773 150.3 475.732 150.321 475.69 150.321ZM472.134 140.769C471.822 140.915 471.448 140.79 471.282 140.478C471.199 140.312 471.115 140.166 471.053 139.999C470.388 140.27 469.701 140.478 469.015 140.686C468.683 140.769 468.329 140.582 468.246 140.249C468.142 139.916 468.35 139.562 468.683 139.479C469.286 139.313 469.889 139.105 470.492 138.876C469.826 137.627 469.119 136.316 468.287 134.901C468.121 134.61 468.204 134.215 468.516 134.027C468.807 133.861 469.202 133.944 469.39 134.256C470.242 135.713 470.991 137.065 471.656 138.376C472.571 137.96 473.465 137.461 474.297 136.899C474.588 136.691 474.983 136.774 475.17 137.065C475.357 137.357 475.295 137.752 475.004 137.939C474.131 138.522 473.216 139.042 472.238 139.479C472.301 139.625 472.384 139.75 472.446 139.895C472.592 140.228 472.467 140.603 472.134 140.769C472.155 140.769 472.155 140.769 472.134 140.769ZM477.125 135.442C476.875 135.193 476.875 134.797 477.104 134.547C477.998 133.632 478.768 132.612 479.412 131.551C479.807 130.885 480.161 130.178 480.452 129.449C480.577 129.137 480.951 128.971 481.284 129.096C481.616 129.22 481.762 129.595 481.637 129.928C481.325 130.719 480.93 131.468 480.514 132.196C479.828 133.361 478.996 134.443 478.019 135.421C477.977 135.463 477.915 135.505 477.853 135.546C477.624 135.671 477.333 135.63 477.125 135.442ZM465.148 141.373C462.902 141.56 460.698 141.394 458.597 140.853C458.265 140.769 458.057 140.416 458.14 140.083C458.223 139.75 458.577 139.542 458.909 139.625C460.864 140.124 462.923 140.291 465.044 140.103C465.397 140.083 465.688 140.332 465.73 140.686C465.751 140.957 465.605 141.186 465.376 141.31C465.293 141.352 465.231 141.373 465.148 141.373ZM482.011 126.64C481.658 126.578 481.429 126.245 481.492 125.912C481.845 123.914 481.866 121.833 481.554 119.752C481.512 119.398 481.741 119.086 482.095 119.024C482.448 118.982 482.76 119.211 482.822 119.565C483.155 121.792 483.134 123.997 482.76 126.12C482.719 126.328 482.594 126.494 482.427 126.578C482.282 126.64 482.136 126.661 482.011 126.64ZM454.896 139.479C454.376 139.209 453.877 138.938 453.42 138.626C452.047 137.731 450.821 136.545 449.843 135.213C449.635 134.922 449.698 134.527 449.989 134.339C450.28 134.131 450.675 134.194 450.862 134.485C451.735 135.692 452.858 136.774 454.085 137.586C454.522 137.877 454.979 138.147 455.458 138.376C455.769 138.543 455.894 138.917 455.728 139.23C455.666 139.354 455.562 139.438 455.458 139.5C455.291 139.562 455.083 139.562 454.896 139.479ZM466.312 131.634C464.96 129.533 463.713 127.993 462.403 126.827C462.153 126.598 462.132 126.203 462.361 125.933C462.59 125.683 462.985 125.662 463.255 125.891C464.649 127.139 465.959 128.763 467.373 130.968C467.56 131.26 467.476 131.655 467.185 131.842C467.165 131.863 467.144 131.863 467.123 131.884C466.853 132.009 466.499 131.926 466.312 131.634ZM481.471 116.527C481.138 116.631 480.785 116.464 480.66 116.131C480.348 115.237 479.994 114.363 479.558 113.53C479.038 112.532 478.456 111.553 477.79 110.68C477.582 110.409 477.645 110.014 477.915 109.785C478.185 109.577 478.581 109.639 478.809 109.91C479.516 110.846 480.161 111.886 480.701 112.948C481.159 113.842 481.554 114.758 481.866 115.715C481.97 116.007 481.824 116.34 481.554 116.485C481.533 116.506 481.492 116.527 481.471 116.527ZM448.866 132.009C448.533 132.092 448.18 131.884 448.096 131.551C447.639 129.761 447.826 128.013 448.616 126.515C448.907 125.974 449.261 125.475 449.698 125.038C449.947 124.788 450.342 124.788 450.592 125.017C450.841 125.267 450.841 125.662 450.613 125.912C450.259 126.265 449.968 126.661 449.739 127.098C449.095 128.346 448.949 129.741 449.323 131.239C449.386 131.53 449.261 131.821 448.991 131.946C448.949 131.988 448.907 131.988 448.866 132.009ZM459.408 124.788C457.641 123.976 455.458 123.768 453.586 124.247C453.253 124.33 452.9 124.122 452.817 123.789C452.734 123.456 452.941 123.102 453.274 123.019C455.458 122.478 457.87 122.707 459.928 123.644C460.24 123.789 460.386 124.164 460.24 124.476C460.178 124.601 460.074 124.705 459.949 124.767C459.803 124.871 459.596 124.871 459.408 124.788Z" fill="#63C0C4"/>
<path d="M463.422 178.954C463.692 178.829 463.817 178.517 463.734 178.226C463.63 177.893 463.297 177.705 462.943 177.789C461.966 178.059 460.968 178.226 459.97 178.288C459.616 178.309 459.346 178.6 459.367 178.954C459.388 179.308 459.679 179.578 460.032 179.557C461.134 179.495 462.216 179.308 463.276 179.016C463.338 178.975 463.38 178.954 463.422 178.954Z" fill="#63C0C4"/>
<path d="M281.978 112.611H265.171V85.5707H281.978V112.611Z" fill="#617B9B"/>
<path d="M348.448 347L96.3734 347L96.3734 204.754L348.448 204.754V347Z" fill="#053C5E"/>
<path d="M300.912 103.492H222.21H143.507L64.0002 204.741H222.21H380.419L300.912 103.492Z" fill="#475B73"/>
<path d="M268.942 146.132L223.216 92.4542L177.525 146.534V346.986H268.942V146.132Z" fill="#ACC1D6"/>
<path d="M391.904 346.989H348.46V296.163H391.904V346.989Z" fill="#6680A1"/>
<path d="M348.449 246.14L402.561 296.161H348.449V246.14Z" fill="#475B73"/>
<path d="M155.383 299.046V247.616C155.383 235.337 147.466 225.273 137.771 225.273H136.966C127.271 225.273 119.354 235.337 119.354 247.616V299.046H155.383Z" fill="white"/>
<path d="M155.383 259.257H139.817V225.239H134.886V259.257H119.32V263.786H134.886V299.046H139.817V263.786H155.383V259.257Z" fill="#475B73"/>
<path d="M325.905 299.046V247.616C325.905 235.337 317.987 225.273 308.292 225.273H307.487C297.792 225.273 289.875 235.337 289.875 247.616V299.046H325.905Z" fill="white"/>
<path d="M325.905 259.257H310.339V225.239H305.407V259.257H289.841V263.786H305.407V299.046H310.339V263.786H325.905V259.257Z" fill="#475B73"/>
<path d="M236.333 187.43V154.687C236.333 146.87 231.301 140.462 225.128 140.462H224.592C218.419 140.462 213.387 146.87 213.387 154.687V187.43H236.333Z" fill="white"/>
<path d="M236.333 162.134H226.437V140.462H223.317V162.134H213.387V164.986H223.317V187.43H226.437V164.986H236.333V162.134Z" fill="#475B73"/>
<path d="M278.067 149.654L222.613 84L167.126 149.654L172.46 154.116L222.613 94.3329L272.733 154.116L278.067 149.654Z" fill="#053C5E"/>
<path d="M213 347H236V293H213V347Z" fill="#617B9B"/>
<path d="M219 315C220.105 315 221 313.881 221 312.5C221 311.119 220.105 310 219 310C217.895 310 217 311.119 217 312.5C217 313.881 217.895 315 219 315Z" fill="#053C5E"/>
<path d="M410.901 373.076C410.901 373.076 408.801 375.032 404.019 376.239C402.958 376.51 401.835 376.156 401.835 377.883C404.06 377.883 407.637 377.883 407.637 377.883L412.461 377.051V377.883H415.06C415.06 377.883 415.788 373.617 414.27 373.056C412.856 373.076 410.901 373.076 410.901 373.076Z" fill="#212B53"/>
<path d="M411.192 369.997L410.901 373.056C411.858 373.722 413.106 373.763 414.104 373.16L414.291 373.056L415.372 369.997H411.192Z" fill="#F7B58E"/>
<path d="M434.107 373.076C434.107 373.076 432.007 375.032 427.225 376.239C426.164 376.51 425.041 376.156 425.041 377.883C427.287 377.883 430.843 377.883 430.843 377.883L435.667 377.051V377.883H438.266C438.266 377.883 438.994 373.617 437.476 373.056C436.083 373.076 434.107 373.076 434.107 373.076Z" fill="#212B53"/>
<path d="M434.399 369.997L434.107 373.056C435.064 373.722 436.312 373.763 437.31 373.16L437.497 373.056L438.578 369.997H434.399Z" fill="#F7B58E"/>
<path d="M420.154 293.211H413.459L411.109 370.725H415.621L428.909 307.653L420.154 293.211Z" fill="#212B53"/>
<path d="M417.971 293.211L433.608 370.725H438.578L436.54 293.211H417.971Z" fill="#053C5E"/>
<path d="M431.55 310.254L433.047 310.15C433.047 310.15 432.985 309.089 433.733 308.319C434.315 307.736 435.251 307.424 436.499 307.424C437.871 307.424 438.911 307.736 439.493 308.298C440.055 308.86 440.034 309.526 440.034 309.567L441.531 309.65C441.531 309.526 441.593 308.36 440.595 307.341C439.722 306.446 438.329 305.988 436.499 305.988C434.794 305.988 433.484 306.446 432.61 307.361C431.446 308.589 431.55 310.191 431.55 310.254Z" fill="#212B53"/>
<path d="M425.144 326.41H447.519V312.01H425.144V326.41Z" fill="#212B53"/>
<path d="M435.521 321.72C435.521 322.594 435.937 322.698 436.457 322.698C436.977 322.698 437.393 322.594 437.393 321.72V318.661C443.839 317.995 447.52 316.85 447.52 316.85V317.246V328.212C447.52 329.232 447.124 330.043 446.521 330.043H426.123C425.519 330.043 425.124 329.211 425.124 328.212V316.892C429.803 317.974 430.094 317.995 435.48 318.64V321.72H435.521Z" fill="#FF7B7C"/>
<path d="M429.657 317.849C430.697 319.888 431.778 321.865 433.13 323.717C434.752 325.944 436.582 328.025 438.495 330.043H426.143C425.54 330.043 425.145 329.211 425.145 328.212V316.892C427.266 317.371 428.472 317.641 429.657 317.849Z" fill="#F04637"/>
<path d="M426.143 308.922H446.542C447.145 308.922 447.54 309.754 447.54 310.753V316.268C443.964 317.454 440.512 317.912 437.414 317.995V317.246C437.414 316.372 436.998 316.268 436.478 316.268C435.958 316.268 435.542 316.372 435.542 317.246V317.995C429.429 317.828 425.187 316.268 425.187 316.268V310.753C425.166 309.734 425.561 308.922 426.143 308.922Z" fill="#63C0C4"/>
<path d="M435.23 320.388V319.451C435.23 319.223 435.417 319.056 435.625 319.056H437.247C437.476 319.056 437.642 319.243 437.642 319.451V320.388C437.642 320.617 437.455 320.783 437.247 320.783H435.625C435.417 320.804 435.23 320.617 435.23 320.388ZM435.646 319.16C435.48 319.16 435.355 319.285 435.355 319.451V320.388C435.355 320.554 435.48 320.679 435.646 320.679H437.268C437.434 320.679 437.559 320.554 437.559 320.388V319.451C437.559 319.285 437.434 319.16 437.268 319.16H435.646Z" fill="white"/>
<path d="M436.332 319.805C436.332 319.868 436.374 319.909 436.436 319.909C436.499 319.909 436.54 319.868 436.54 319.805V318.494C436.54 318.432 436.499 318.39 436.436 318.39C436.374 318.39 436.332 318.432 436.332 318.494V319.805Z" fill="white"/>
<path d="M381.311 281.704C381.083 281.891 380.23 282.453 378.151 282.619C376.3 282.765 372.328 281.954 373.098 283.806C374.886 284.763 376.861 286.115 376.861 286.115C378.005 286.594 380.001 286.095 381.207 285.554L384.68 283.431C384.68 283.431 384.971 281.475 385.013 281.392L384.222 281.059C383.266 281.412 382.289 281.621 381.311 281.704Z" fill="#F7B58E"/>
<path d="M380.687 282.515C380.687 282.515 380.625 282.599 380.48 282.744C380.729 282.848 380.958 282.952 381.207 283.077C382.185 283.098 383.162 283.161 384.118 283.202C384.056 282.64 383.973 281.85 383.973 281.787L377.652 280.289C377.652 280.289 377.132 280.955 378.296 281.662C379.44 282.37 380.687 282.515 380.687 282.515Z" fill="#F7B58E"/>
<path d="M435.48 302.242L433.38 306.862C433.38 306.862 433.837 309.401 434.752 310.4C435.022 310.691 435.48 310.774 435.854 310.628C436.727 310.275 438.744 309.401 439.077 308.901C439.243 308.672 439.264 308.36 439.181 308.069L438.578 306.03L438.495 301.285L435.48 302.242Z" fill="#F7B58E"/>
<path d="M423.107 246.641L423.024 252.821L428.555 252.53L428.909 242.916L423.107 246.641Z" fill="#F39F85"/>
<path d="M422.192 247.202C421.423 247.182 420.716 247.057 420.342 246.765C418.117 243.519 420.654 234.8 420.654 234.8L424.209 233.302L428.722 236.111L428.971 241.959C429.034 243.519 428.285 245.018 426.954 245.996C425.52 246.807 423.856 247.244 422.192 247.202Z" fill="#F7B58E"/>
<path d="M427.453 239.441C427.204 238.463 427.869 236.195 426.871 236.361C426.143 236.486 423.648 236.59 422.795 236.59C420.799 236.59 417.223 235.799 417.223 232.761C417.223 231.242 418.158 230.472 419.094 230.077C420.009 229.702 421.049 230.805 421.984 231.117C424.189 231.887 428.743 232.511 429.907 232.262C431.238 231.991 432.61 233.344 432.714 234.155C432.943 235.924 431.758 238.629 430.884 240.315C430.385 241.293 429.699 242.188 428.888 242.937L427.453 239.441Z" fill="#212B53"/>
<path d="M430.032 239.67C429.595 239.274 428.743 239.357 428.16 239.836C427.578 240.315 427.474 241.043 427.911 241.438C428.347 241.834 429.2 241.75 429.782 241.272C430.364 240.772 430.468 240.044 430.032 239.67Z" fill="#F7B58E"/>
<path d="M425.956 250.886C428.472 250.886 430.635 251.427 432.423 252.217C436.873 254.174 440.034 258.252 441.136 262.997C442.882 270.446 445.835 288.155 439.077 303.678C437.081 303.865 434.565 303.678 434.565 303.678L433.837 267.096L434.357 293.211H413.438V276.356C413.438 276.356 412.897 280.164 407.844 283.681C402.792 287.197 383.827 284.867 383.827 284.867V280.913C383.827 280.913 400.442 277.417 403.145 275.357C405.848 273.297 411.712 258.481 411.712 258.481C413.542 254.86 416.89 252.197 420.862 251.364C422.317 251.073 424.001 250.886 425.956 250.886Z" fill="#01888B"/>
<path d="M434.107 293.357L433.608 268.199L434.149 268.178L434.648 293.357H434.107Z" fill="#63C0C4"/>
<path d="M428.659 249.117L428.992 251.156L422.65 251.135L423.066 249.117H428.659Z" fill="white"/>
<defs>
<linearGradient id="paint0_linear" x1="112.151" y1="43.4834" x2="153.317" y2="43.4834" gradientUnits="userSpaceOnUse">
<stop offset="6.3e-07" stop-color="#F1F8F7"/>
<stop offset="1" stop-color="#BFE3EE"/>
</linearGradient>
<linearGradient id="paint1_linear" x1="103.744" y1="44.6086" x2="153.053" y2="44.6086" gradientUnits="userSpaceOnUse">
<stop offset="6.3e-07" stop-color="#F1F8F7"/>
<stop offset="1" stop-color="#BFE3EE"/>
</linearGradient>
<linearGradient id="paint2_linear" x1="444.002" y1="89.6004" x2="477.535" y2="89.6004" gradientUnits="userSpaceOnUse">
<stop offset="6.3e-07" stop-color="#F1F8F7"/>
<stop offset="1" stop-color="#BFE3EE"/>
</linearGradient>
<linearGradient id="paint3_linear" x1="444.002" y1="99.7504" x2="471.044" y2="99.7504" gradientUnits="userSpaceOnUse">
<stop offset="6.3e-07" stop-color="#F1F8F7"/>
<stop offset="1" stop-color="#BFE3EE"/>
</linearGradient>
</defs>
</svg>
