<svg width="512" height="348" viewBox="0 0 512 348" fill="none" xmlns="http://www.w3.org/2000/svg">
<path d="M195.761 1.90216V21.7951H224.902V49.3452H223.982V251.193C223.982 266.988 236.914 279.923 252.703 279.923C255.201 279.923 407.58 280.063 407.58 280.063V48.0657C407.58 22.5548 386.914 1.88217 361.411 1.88217H195.761V1.90216Z" fill="#D2DEEC"/>
<path d="M175.874 40.2885V21.8351C175.874 10.3392 185.288 0.902561 196.78 0.882568C212.57 0.882568 225.501 13.698 225.501 29.3724V40.3084H175.874V40.2885Z" fill="#6680A1"/>
<path d="M371.144 53.2638H272.03V57.4224H371.144V53.2638Z" fill="#25374B"/>
<path d="M371.144 69.9179H272.03V74.0764H371.144V69.9179Z" fill="#25374B"/>
<path d="M371.144 88.6512H272.03V92.8097H371.144V88.6512Z" fill="#25374B"/>
<path d="M371.144 105.285H272.03V109.444H371.144V105.285Z" fill="#25374B"/>
<path d="M371.144 123.439H272.03V127.597H371.144V123.439Z" fill="#25374B"/>
<path d="M371.144 140.093H272.03V144.251H371.144V140.093Z" fill="#25374B"/>
<path d="M371.144 158.806H272.03V162.965H371.144V158.806Z" fill="#25374B"/>
<path d="M371.144 175.46H272.03V179.619H371.144V175.46Z" fill="#25374B"/>
<path d="M414.995 280.063C383.456 280.063 261.078 280.063 261.078 280.063C261.078 280.063 292.197 273.665 281.824 235.279C329.532 235.279 445.675 235.279 445.675 235.279C445.675 235.279 456.048 280.063 414.995 280.063Z" fill="#63C0C4"/>
<path d="M346.428 188.306C345.901 187.253 341.77 185.476 336.849 184.44C336.553 180.114 335.631 175.92 334.133 171.972C337.87 169.653 341.573 166.824 341.622 164.652C341.737 160.244 333.887 151.164 332.109 150.572C330.973 150.194 326.661 151.937 322.366 154.75C319.255 151.954 315.733 149.569 311.848 147.743C312.852 143.45 313.478 138.828 311.98 137.232C308.952 134.025 296.97 133.169 295.291 134.008C294.238 134.535 292.477 138.647 291.423 143.532C287.029 143.68 282.733 144.503 278.684 145.884C276.413 142.298 273.714 138.861 271.607 138.795C267.196 138.68 258.111 146.526 257.519 148.302C257.173 149.355 258.638 153.155 261.123 157.135C258.029 160.376 255.395 164.109 253.404 168.255C249.503 167.432 245.602 167.07 244.187 168.419C240.978 171.446 240.122 183.42 240.961 185.098C241.438 186.036 244.812 187.565 249.042 188.618C249.174 193.421 250.079 198.076 251.676 202.451C248.549 204.54 245.816 206.893 245.767 208.751C245.652 213.16 253.503 222.239 255.28 222.831C256.251 223.16 259.592 221.91 263.23 219.772C266.686 222.963 270.702 225.611 275.129 227.569C274.405 231.253 274.142 234.806 275.409 236.155C278.437 239.362 290.419 240.218 292.098 239.379C293.036 238.902 294.567 235.513 295.637 231.27C300.344 230.99 304.919 229.937 309.182 228.243C311.338 231.549 313.824 234.527 315.766 234.576C320.177 234.691 329.262 226.845 329.854 225.068C330.2 223.999 328.719 220.167 326.2 216.17C329.081 212.864 331.484 209.097 333.278 204.952C337.392 205.873 341.672 206.366 343.186 204.935C346.412 201.942 347.267 189.983 346.428 188.306ZM289.251 206.728C278.602 204.672 271.624 194.359 273.697 183.7C275.755 173.058 286.074 166.083 296.739 168.156C307.405 170.212 314.367 180.525 312.293 191.184C310.219 201.826 299.916 208.784 289.251 206.728Z" fill="#ACC1D6"/>
<path d="M287.901 214.492C272.759 211.564 262.835 196.859 265.764 181.726C268.694 166.593 283.408 156.675 298.55 159.603C313.692 162.53 323.616 177.236 320.687 192.368C317.757 207.501 303.043 217.42 287.901 214.492ZM298.468 159.997C283.54 157.102 269.04 166.889 266.159 181.808C263.263 196.727 273.056 211.219 287.984 214.097C302.912 216.992 317.412 207.205 320.292 192.286C323.189 177.367 313.396 162.876 298.468 159.997Z" fill="white"/>
<path d="M333.739 186.661C333.557 186.611 333.393 186.545 333.212 186.48C333.294 189.342 333.064 192.253 332.504 195.181C328.291 216.877 307.207 231.105 285.498 226.911C271.278 224.164 260.267 214.179 255.544 201.514C255.363 201.514 255.182 201.514 254.984 201.514C259.741 214.426 270.932 224.624 285.4 227.421C307.388 231.681 328.752 217.255 333.014 195.28C333.574 192.385 333.804 189.49 333.739 186.661Z" fill="white"/>
<path d="M275.096 151.789C282.75 147.924 291.703 146.46 300.772 148.204C300.953 148.236 301.117 148.286 301.298 148.319C301.266 148.138 301.249 147.957 301.233 147.776C301.117 147.759 301.002 147.727 300.871 147.694C291.736 145.917 282.7 147.381 274.965 151.279C274.998 151.444 275.047 151.625 275.096 151.789Z" fill="white"/>
<path d="M258.917 175.953C258.111 174.456 252.087 172.054 244.944 170.722C244.352 164.504 242.854 158.484 240.55 152.842C245.849 149.355 251.083 145.144 251.083 142.002C251.1 135.637 239.414 122.84 236.83 122.05C235.168 121.557 229.012 124.221 222.922 128.465C218.331 124.55 213.146 121.244 207.484 118.744C208.785 112.526 209.492 105.815 207.27 103.578C202.777 99.0712 185.463 98.2652 183.076 99.5482C181.578 100.354 179.192 106.342 177.859 113.447C171.506 113.826 165.367 115.158 159.573 117.329C156.166 112.23 152.134 107.378 149.106 107.361C142.736 107.345 129.931 119.023 129.141 121.606C128.68 123.136 130.952 128.58 134.688 134.222C130.343 139.025 126.689 144.519 123.957 150.572C118.311 149.536 112.666 149.141 110.658 151.148C106.149 155.638 105.342 172.942 106.626 175.327C107.35 176.66 112.271 178.749 118.41 180.114C118.772 187.023 120.254 193.717 122.722 199.984C118.279 203.109 114.444 206.597 114.444 209.294C114.427 215.66 126.113 228.457 128.697 229.246C130.112 229.674 134.869 227.766 140.053 224.526C145.172 229 151.048 232.668 157.516 235.332C156.594 240.662 156.364 245.827 158.257 247.718C162.75 252.225 180.064 253.031 182.451 251.748C183.8 251.025 185.874 246.09 187.24 239.922C194.038 239.346 200.572 237.652 206.678 235.036C209.92 239.724 213.607 243.919 216.421 243.919C222.791 243.935 235.596 232.257 236.386 229.674C236.846 228.128 234.559 222.65 230.79 216.976C234.822 212.09 238.13 206.564 240.583 200.527C246.557 201.711 252.762 202.254 254.885 200.132C259.395 195.642 260.201 178.338 258.917 175.953ZM177.118 204.688C161.663 202.106 151.229 187.5 153.796 172.054C156.38 156.609 170.996 146.18 186.45 148.746C201.905 151.329 212.34 165.935 209.772 181.381C207.188 196.826 192.573 207.254 177.118 204.688Z" fill="#475B73"/>
<path d="M175.472 215.939C153.5 212.271 138.621 191.447 142.275 169.505C145.946 147.562 166.782 132.676 188.738 136.344C210.694 140.012 225.589 160.836 221.919 182.779C218.265 204.721 197.428 219.591 175.472 215.939ZM188.656 136.903C167.013 133.301 146.456 147.957 142.851 169.603C139.247 191.233 153.912 211.778 175.571 215.38C197.214 218.982 217.771 204.327 221.375 182.68C224.98 161.05 210.299 140.505 188.656 136.903Z" fill="white"/>
<path d="M240.55 174.044C240.287 173.979 240.04 173.896 239.776 173.814C239.99 177.943 239.793 182.154 239.085 186.397C233.835 217.864 203.946 239.198 172.46 233.951C151.838 230.513 135.577 216.515 128.285 198.438C128.022 198.454 127.759 198.454 127.495 198.454C134.836 216.91 151.377 231.204 172.362 234.691C204.259 240.004 234.526 218.407 239.842 186.529C240.533 182.318 240.747 178.14 240.55 174.044Z" fill="white"/>
<path d="M154.603 125.948C165.515 120.076 178.369 117.625 191.503 119.813C191.766 119.862 192.013 119.912 192.26 119.961C192.211 119.698 192.178 119.435 192.145 119.171C191.964 119.139 191.799 119.106 191.635 119.073C178.386 116.869 165.4 119.319 154.389 125.208C154.455 125.455 154.537 125.702 154.603 125.948Z" fill="white"/>
<path d="M151.048 227.306C151.048 227.306 175.456 151.066 130.343 113.546C42.1243 162.662 90.6938 249.232 90.6938 249.232L151.048 227.306Z" fill="#C1D5F0"/>
<path d="M130.343 113.546C130.03 113.711 129.734 113.891 129.437 114.056L124.039 208.225L81.9542 167.103C81.7402 167.728 81.5427 168.337 81.3452 168.962L123.907 210.544L122.344 237.718L124.138 237.06L127.232 182.894L156.644 165.606C156.561 164.981 156.479 164.34 156.397 163.715L127.364 180.788L131.166 114.27C130.902 114.023 130.639 113.776 130.343 113.546Z" fill="white"/>
<path d="M130.178 209.853C130.178 209.853 101.639 135.291 45.9099 128.004C5.52041 182.17 59.1262 236.368 59.1262 236.368L123.545 263.361L130.178 209.853Z" fill="#6680A1"/>
<path d="M99.5157 159.8L83.452 191.349L47.2266 128.185C46.7822 128.12 46.3543 128.037 45.9099 127.988C45.7453 128.202 45.6136 128.416 45.449 128.63L64.8538 162.465L32.6113 155.885C32.5455 156.198 32.4796 156.494 32.4138 156.79L32.2492 157.596L66.0223 164.488L98.3635 220.874L41.4167 211.136C41.7623 211.794 42.1079 212.452 42.4536 213.094L99.4992 222.848L122.459 262.884L123.545 263.345L123.759 261.618L84.5054 193.191L100.767 161.247C100.355 160.754 99.9271 160.277 99.5157 159.8Z" fill="#25374B"/>
<path d="M111.119 242.948C111.119 242.948 55.6369 205.988 19 231.73C24.2997 322.955 140.777 322.675 140.777 322.675L111.119 242.948Z" fill="#F04637"/>
<path d="M19 231.73C19.0165 232.076 19.0494 232.421 19.0658 232.783L97.8369 276.882L52.2958 295.37C52.839 295.782 53.3986 296.193 53.9417 296.604L99.7954 278L130.557 295.239L129.602 292.689L69.7091 259.134L59.3895 223.243C58.7641 223.16 58.1222 223.095 57.4967 223.029L67.5201 257.917L19.8229 231.171C19.5431 231.352 19.2798 231.533 19 231.73Z" fill="white"/>
<path d="M324.834 256.732C324.834 256.732 314.959 187.73 359.151 162.07C427.75 217.042 373.47 284.317 373.47 284.317L324.834 256.732Z" fill="#617B9B"/>
<path d="M359.134 162.07C359.381 162.267 359.611 162.448 359.842 162.646L350.773 244.281L392.891 215.084C392.99 215.643 393.072 216.203 393.138 216.778L350.543 246.304L347.926 269.858L346.477 269.036L351.695 222.075L328.966 202.961C329.13 202.435 329.295 201.909 329.459 201.382L351.909 220.249L358.311 162.58C358.591 162.399 358.854 162.234 359.134 162.07Z" fill="#00666A"/>
<path d="M345.275 244.774C345.275 244.774 380.628 184.901 429.527 186.726C456.322 239.099 402.42 277.853 402.42 277.853L343.185 291.67L345.275 244.774Z" fill="#F04637"/>
<path d="M378.885 206.268L388.085 235.695L428.376 186.711C428.754 186.711 429.149 186.711 429.528 186.727C429.627 186.941 429.725 187.138 429.824 187.336L408.247 213.572L436.885 212.601C436.901 212.881 436.901 213.144 436.918 213.407L436.934 214.131L406.947 215.151L370.984 258.871L421.298 258.773C420.903 259.299 420.508 259.809 420.113 260.302L369.717 260.401L344.173 291.44L343.169 291.67L343.235 290.157L386.883 237.093L377.568 207.305C378.029 206.959 378.457 206.614 378.885 206.268Z" fill="white"/>
<path d="M67.6681 296.818H393.335V262.621H67.6681V296.818Z" fill="url(#paint0_linear)"/>
<path d="M88.3237 228.506H389.961C389.961 228.506 406.239 228.506 416.805 249.626C425.956 267.917 419.258 302.707 417.299 310.997H392.496V310.421C392.496 286.85 373.371 267.736 349.786 267.736C326.2 267.736 307.075 286.85 307.075 310.421V310.997H153.023V310.421C153.023 286.85 133.898 267.736 110.312 267.736C86.7272 267.736 67.6023 286.85 67.6023 310.421V310.997H61.1834C61.1834 310.997 61.1834 292.607 61.1834 266.75C61.1834 240.909 88.3237 228.506 88.3237 228.506Z" fill="#475B73"/>
<path d="M292.839 228.506H176.015L184.343 185.838H252.071L292.839 228.506Z" fill="white"/>
<path d="M292.839 311.161V228.523L257.288 185.855L184.294 185.838L176.015 228.506C176.015 228.506 170.584 234.494 166.025 239.066C161.449 243.639 161.17 253.048 161.17 253.048V310.898L292.839 311.161Z" fill="#25374B"/>
<path d="M176.015 228.506L184.294 185.838L257.288 185.855L292.822 228.506H176.015Z" fill="#CDD9E4"/>
<path d="M342.527 228.506C342.527 228.506 285.679 177.4 265.122 177.4C260.843 181.677 257.272 185.838 257.272 185.838L292.822 228.506H342.527Z" fill="url(#paint1_linear)"/>
<path d="M265.122 177.416H125.158L114.164 185.838H257.42L265.122 177.416Z" fill="#212B53"/>
<path d="M88.3237 228.506C88.3237 228.506 91.1875 202.961 114.18 185.822C133.75 185.822 179.159 185.822 179.159 185.822L170.88 228.506H88.3237Z" fill="url(#paint2_linear)"/>
<path d="M183.438 256.486C190.219 256.486 195.716 255.462 195.716 254.199C195.716 252.936 190.219 251.913 183.438 251.913C176.657 251.913 171.16 252.936 171.16 254.199C171.16 255.462 176.657 256.486 183.438 256.486Z" fill="url(#paint3_linear)"/>
<path d="M109.457 258.377C114.974 258.377 119.447 253.907 119.447 248.393C119.447 242.879 114.974 238.409 109.457 238.409C103.939 238.409 99.4662 242.879 99.4662 248.393C99.4662 253.907 103.939 258.377 109.457 258.377Z" fill="url(#paint4_linear)"/>
<path d="M349.967 345.539C369.683 345.539 385.665 329.566 385.665 309.862C385.665 290.158 369.683 274.184 349.967 274.184C330.251 274.184 314.268 290.158 314.268 309.862C314.268 329.566 330.251 345.539 349.967 345.539Z" fill="#212B53"/>
<path d="M109.983 345.539C129.699 345.539 145.682 329.566 145.682 309.862C145.682 290.158 129.699 274.184 109.983 274.184C90.2674 274.184 74.2845 290.158 74.2845 309.862C74.2845 329.566 90.2674 345.539 109.983 345.539Z" fill="#212B53"/>
<path d="M398.421 242.208C399.194 241.583 400.182 241.303 401.268 241.336L412.987 255.581C412.806 256.667 412.345 257.588 411.588 258.213C409.004 260.335 403.951 258.476 400.314 254.051C396.676 249.626 395.837 244.33 398.421 242.208Z" fill="url(#paint5_linear)"/>
<path d="M349.786 332.413C362.248 332.413 372.35 322.316 372.35 309.862C372.35 297.407 362.248 287.31 349.786 287.31C337.323 287.31 327.221 297.407 327.221 309.862C327.221 322.316 337.323 332.413 349.786 332.413Z" fill="#01898C"/>
<path d="M349.786 332.413C362.248 332.413 372.35 322.316 372.35 309.862C372.35 297.407 362.248 287.31 349.786 287.31C337.323 287.31 327.221 297.407 327.221 309.862C327.221 322.316 337.323 332.413 349.786 332.413Z" fill="#ACC1D6"/>
<path d="M109.983 332.413C122.445 332.413 132.548 322.316 132.548 309.862C132.548 297.407 122.445 287.31 109.983 287.31C97.5211 287.31 87.4185 297.407 87.4185 309.862C87.4185 322.316 97.5211 332.413 109.983 332.413Z" fill="#ACC1D6"/>
<path d="M179.06 185.838H184.343L176.015 228.506H170.864L179.06 185.838Z" fill="#043C5E"/>
<path d="M295.966 228.506L258.045 184.193L253.157 185.378L289.547 228.506H295.966Z" fill="#043C5E"/>
<path d="M281.515 230.168C281.186 235.678 284.231 240.333 288.329 240.58C292.427 240.826 296.015 236.566 296.344 231.056C296.674 225.545 293.629 220.891 289.531 220.644C285.432 220.397 281.844 224.657 281.515 230.168Z" fill="url(#paint6_linear)"/>
<path d="M152.317 50.5776L130.618 38.5993L119.531 36.3895L111.149 37.6079L152.317 50.5776Z" fill="url(#paint7_linear)"/>
<path d="M152.317 50.5776L111.665 40.1276L111.149 37.608" fill="#AFD8C7"/>
<path d="M110.509 47.1079L110.551 47.1906L112.264 53.5102L152.214 50.5775L110.509 47.1079Z" fill="#63C0C4"/>
<path d="M102.746 43.4112L108.548 38.7025L152.049 50.5156L114.597 49.4004L102.746 43.4112Z" fill="url(#paint8_linear)"/>
<path d="M11.306 123.975C12.6273 123.5 13.9486 122.943 15.208 122.282C15.4971 122.137 15.8481 122.241 16.0132 122.53C16.1577 122.819 16.0545 123.17 15.7655 123.335C14.4441 124.017 13.0815 124.616 11.6982 125.091C11.2027 125.277 10.6866 125.421 10.1911 125.586C10.0053 125.648 9.81947 125.607 9.67495 125.504C9.57172 125.421 9.48914 125.318 9.46849 125.194C9.36526 124.884 9.55107 124.554 9.86076 124.45C10.3356 124.306 10.8311 124.141 11.306 123.975Z" fill="#63C0C4"/>
<path d="M90.8751 39.0124C92.7125 39.2395 94.6326 39.5493 96.7385 39.9417C97.0688 40.0037 97.2752 40.3134 97.2133 40.6232C97.1514 40.9537 96.8417 41.1602 96.532 41.0983C94.4468 40.7059 92.5474 40.4167 90.7305 40.1895C90.6273 40.1689 90.5241 40.1276 90.4621 40.0863C90.297 39.9624 90.1937 39.7558 90.235 39.5287C90.2557 39.1982 90.5447 38.971 90.8751 39.0124Z" fill="#63C0C4"/>
<path d="M81.0063 39.4667C80.8618 39.3634 80.7793 39.1982 80.7586 38.9917C80.7586 38.6612 81.027 38.3927 81.3367 38.3927C83.2361 38.3721 85.2388 38.4547 87.2827 38.6199C87.613 38.6406 87.8608 38.9297 87.8195 39.2602C87.7988 39.5906 87.5098 39.8178 87.1795 39.7971C85.1562 39.6319 83.1948 39.5493 81.3367 39.5699C81.2335 39.5699 81.1096 39.5286 81.0063 39.4667Z" fill="#63C0C4"/>
<path d="M22.7025 116.85C22.9296 116.623 23.3012 116.623 23.5283 116.871C23.7554 117.098 23.7554 117.47 23.5077 117.697C22.0831 119.102 20.514 120.361 18.8417 121.477C18.6352 121.621 18.3462 121.6 18.1604 121.456C18.0984 121.415 18.0572 121.373 18.0159 121.311C17.83 121.043 17.9126 120.671 18.181 120.485C19.8121 119.432 21.3192 118.193 22.7025 116.85Z" fill="#63C0C4"/>
<path d="M25.1387 115.116C24.891 114.909 24.8497 114.537 25.0561 114.29C25.3865 113.877 25.7168 113.464 26.0265 113.05C26.873 111.915 27.6369 110.717 28.2975 109.498C28.4627 109.209 28.8137 109.106 29.1027 109.271C29.3711 109.436 29.495 109.787 29.3298 110.077C28.6485 111.336 27.8433 112.596 26.9762 113.773C26.6459 114.207 26.3155 114.641 25.9646 115.074C25.7581 115.322 25.4071 115.364 25.1594 115.178C25.1594 115.136 25.1387 115.136 25.1387 115.116Z" fill="#63C0C4"/>
<path d="M30.1143 107.123C30.073 107.103 30.0317 107.082 29.9904 107.061C29.784 106.896 29.6807 106.607 29.8046 106.359C30.5066 104.645 31.0847 102.848 31.6008 100.824C31.6834 100.515 31.9931 100.308 32.3234 100.391C32.6331 100.473 32.8396 100.783 32.757 101.113C32.2408 103.179 31.6214 105.058 30.8988 106.813C30.7543 107.103 30.4033 107.247 30.1143 107.123Z" fill="#63C0C4"/>
<path d="M45.7639 56.7112C45.2684 57.3101 44.7936 57.9297 44.3394 58.5493C43.6374 59.4993 42.9767 60.47 42.3574 61.4406C42.1922 61.7091 41.8206 61.7917 41.5522 61.6265C41.5315 61.6265 41.5315 61.6058 41.5109 61.6058C41.2631 61.42 41.2012 61.0895 41.3664 60.8211C42.0064 59.8091 42.6877 58.8178 43.3896 57.8471C43.8645 57.2069 44.36 56.5873 44.8555 55.9677C45.062 55.7199 45.4129 55.6373 45.6813 55.8851C45.9291 56.0916 45.9704 56.4634 45.7639 56.7112Z" fill="#63C0C4"/>
<path d="M40.6231 64.4765C39.7146 66.2112 38.9301 68.008 38.2901 69.8047C38.1869 70.1145 37.8359 70.2797 37.5262 70.1558C37.4642 70.1351 37.423 70.1145 37.3817 70.0732C37.1752 69.9286 37.0926 69.6395 37.1752 69.3917C37.8359 67.533 38.6617 65.6949 39.5701 63.9189C39.7146 63.6297 40.0863 63.5265 40.3753 63.671C40.6643 63.8363 40.7676 64.1873 40.6231 64.4765Z" fill="#63C0C4"/>
<path d="M52.3706 50.1232C50.8635 51.3623 49.4389 52.6841 48.0969 54.0884C47.8905 54.3156 47.5601 54.3362 47.3124 54.1504C47.2917 54.1297 47.2711 54.1091 47.2505 54.1091C47.0234 53.8819 47.0027 53.5102 47.2298 53.283C48.5924 51.858 50.0789 50.4743 51.6067 49.2145C51.8545 49.008 52.2261 49.0493 52.4325 49.2971C52.6596 49.5449 52.6183 49.9167 52.3706 50.1232Z" fill="#63C0C4"/>
<path d="M63.2509 43.4112C63.0444 43.4939 62.8173 43.4732 62.6522 43.3493C62.5696 43.2873 62.5076 43.2047 62.4664 43.1221C62.3425 42.833 62.4664 42.4819 62.776 42.3373C64.6135 41.5319 66.4923 40.8297 68.3917 40.2721C68.7014 40.1895 69.0317 40.3547 69.1349 40.6645C69.2175 40.9743 69.0523 41.3047 68.7427 41.408C66.8639 41.945 65.0264 42.6265 63.2509 43.4112Z" fill="#63C0C4"/>
<path d="M34.1609 88.7222C34.0577 88.7015 33.9545 88.6602 33.8719 88.6189C33.7067 88.495 33.6035 88.2885 33.6448 88.082L33.7274 87.3385C33.9132 85.6243 34.1196 83.9102 34.3468 82.1961C34.388 81.8656 34.6771 81.6384 35.0074 81.6797C35.3378 81.7211 35.5649 82.0102 35.5236 82.3406C35.2965 84.0341 35.1107 85.7483 34.9042 87.4624L34.8216 88.2059C34.7597 88.5363 34.4706 88.7635 34.1609 88.7222Z" fill="#63C0C4"/>
<path d="M55.1371 48.0167C54.9306 48.1613 54.6416 48.1613 54.4351 48.0167C54.3939 47.9754 54.3319 47.9341 54.3113 47.8721C54.1255 47.6037 54.1874 47.2319 54.4558 47.0461C56.0868 45.8895 57.8004 44.8363 59.5347 43.9069C59.8237 43.7623 60.1747 43.8656 60.3399 44.1547C60.4844 44.4439 60.3812 44.7949 60.0921 44.9602C58.3991 45.8482 56.7268 46.8808 55.1371 48.0167Z" fill="#63C0C4"/>
<path d="M33.8719 91.0765C34.2022 91.1178 34.4293 91.4069 34.388 91.7374C34.099 94.0297 33.8099 95.9091 33.5003 97.6232C33.4383 97.9536 33.1286 98.1602 32.819 98.0982C32.7364 98.0776 32.6538 98.0363 32.5712 97.995C32.3854 97.871 32.3028 97.6439 32.3441 97.4167C32.6538 95.7232 32.9428 93.8852 33.2319 91.6134C33.2525 91.2624 33.5415 91.0352 33.8719 91.0765Z" fill="#63C0C4"/>
<path d="M6.47486 125.276C6.78455 125.215 7.11488 125.421 7.17682 125.751C7.23875 126.061 7.03229 126.392 6.70196 126.454C4.86448 126.825 2.92377 127.073 0.776601 127.218C0.63208 127.238 0.48756 127.176 0.384331 127.094C0.260456 126.991 0.157224 126.846 0.136578 126.66C0.115932 126.33 0.363685 126.061 0.694018 126.02C2.77925 125.875 4.67867 125.628 6.47486 125.276Z" fill="#63C0C4"/>
<path d="M36.8242 72.4276C37.1339 72.5102 37.3197 72.8406 37.2371 73.1504C36.7623 74.8852 36.37 76.7645 36.019 78.8711C35.9571 79.2015 35.668 79.408 35.3377 79.3667C35.2345 79.3461 35.1519 79.3048 35.09 79.2635C34.9248 79.1396 34.8216 78.9124 34.8629 78.6852C35.2138 76.5374 35.6268 74.6374 36.1016 72.8613C36.1842 72.5308 36.5145 72.345 36.8242 72.4276Z" fill="#63C0C4"/>
<path d="M75.721 38.7439C76.4023 38.6613 77.1043 38.5993 77.7856 38.5374C78.1159 38.5167 78.405 38.7645 78.4256 39.0743C78.4462 39.4047 78.1985 39.6939 77.8888 39.7145C77.2075 39.7558 76.5468 39.8384 75.8655 39.9004C74.6268 40.045 73.3467 40.2515 72.1286 40.52C71.9634 40.5613 71.7776 40.52 71.6537 40.4167C71.5505 40.3341 71.4679 40.2102 71.4266 40.0656C71.3647 39.7558 71.5712 39.4254 71.8809 39.3634C73.1403 39.1156 74.4203 38.8884 75.721 38.7439Z" fill="#63C0C4"/>
<path d="M468.414 216.453C468.892 217.515 468.975 218.721 468.622 219.845L467.998 224.236L467.249 224.735L464.442 225.901C464.733 225.047 464.442 224.153 464.442 224.153L463.215 219.616C463.215 219.616 461.302 211.959 466.501 212.292C466.48 206.049 468.206 207.089 468.206 207.089L468.331 212.479L468.414 216.453Z" fill="#F7B58E"/>
<path d="M481.327 231.623C481.327 231.623 477.688 245.503 474.59 245.753C471.491 246.002 468.268 223.778 468.268 223.778L464.047 224.278C464.047 224.278 462.404 256.24 471.865 256.823C481.327 257.406 482.574 250.331 482.574 250.331L481.327 231.623Z" fill="#FF7B7C"/>
<path d="M481.722 269.558H506.446C506.446 269.558 506.446 251.517 506.446 231.977C499.376 221.198 490.58 224.132 490.58 224.132C490.58 224.132 482.574 224.278 481.327 231.623C481.327 236.93 481.722 269.558 481.722 269.558Z" fill="#F04637"/>
<path d="M493.471 219.138L493.845 224.444L493.678 224.61C491.932 226.275 489.208 226.317 487.419 224.694L487.336 220.698L493.471 219.138Z" fill="#F39F85"/>
<path d="M495.425 208.047L494.968 216.828C494.094 216.786 493.574 217.723 493.741 218.555C493.658 218.763 493.595 218.971 493.595 219.2C492.077 220.282 489.332 221.697 485.777 221.031C480.225 219.97 483.573 209.233 483.573 209.233L495.425 208.047Z" fill="#F7B58E"/>
<path d="M498.212 214.643C498.253 213.998 499.126 212.625 499.626 212.208C502.765 209.482 499.958 207.506 498.96 206.86C497.858 206.153 498.066 204.155 496.652 203.032C494.469 201.325 492.368 203.094 490.975 202.844C489.582 202.595 488.709 200.722 486.671 201.721C484.633 202.699 484.862 204.301 484.217 204.967C483.573 205.633 482.366 203.781 480.391 205.903C477.376 209.129 483.281 210.523 483.281 210.523C483.281 210.523 486.525 211.855 490.809 210.19C491.391 209.961 492.098 210.086 492.472 210.606C493.491 212 493.512 219.325 493.512 219.325L494.947 218.139C494.905 218.097 498.024 217.577 498.212 214.643Z" fill="#212B53"/>
<path d="M494.875 215.363C495.158 214.672 494.827 213.882 494.136 213.599C493.445 213.316 492.656 213.647 492.373 214.338C492.091 215.029 492.421 215.819 493.112 216.102C493.803 216.385 494.592 216.054 494.875 215.363Z" fill="#F7B58E"/>
<path d="M487.336 340.413C487.336 340.413 485.943 342.348 479.372 344.013C477.917 344.387 476.357 344.637 476.357 347.03C479.435 347.03 482.845 347.03 482.845 347.03L489.478 345.886V347.03H493.055C493.055 347.03 494.053 341.162 491.952 340.413C490.039 340.413 487.336 340.413 487.336 340.413Z" fill="#212B53"/>
<path d="M487.004 336.209L487.336 340.413C488.646 341.328 490.351 341.37 491.724 340.559L491.973 340.413V336.209H487.004Z" fill="#F7B58E"/>
<path d="M505.76 340.413C505.76 340.413 504.367 342.348 497.796 344.013C496.34 344.387 494.781 344.637 494.781 347.03C497.858 347.03 501.268 347.03 501.268 347.03L507.901 345.886V347.03H511.478C511.478 347.03 512.476 341.162 510.376 340.413C508.442 340.413 505.76 340.413 505.76 340.413Z" fill="#212B53"/>
<path d="M505.406 336.209L505.739 340.413C507.049 341.328 508.754 341.37 510.126 340.559L510.376 340.413V336.209H505.406Z" fill="#F7B58E"/>
<path d="M506.446 231.977C506.446 231.977 513.848 249.103 504.408 257.843C494.947 266.582 482.117 265.105 482.117 265.105V260.173C482.117 260.173 493.72 259.195 497.442 251.433C501.164 243.672 495.945 236.95 495.945 236.95" fill="#F04637"/>
<path d="M482.866 264.418L476.939 264.543C474.527 264.418 472.947 260.818 472.531 258.155C472.469 257.759 472.864 257.426 473.238 257.572C475.255 258.279 480.412 260.111 481.743 260.922L482.866 264.418Z" fill="#F7B58E"/>
<path d="M481.722 269.558C474.34 290.388 485.881 336.542 485.881 336.542H492.452C492.452 336.542 489.353 271.119 497.9 269.558C484.841 269.558 487.336 269.558 481.722 269.558Z" fill="#212B53"/>
<path d="M498.752 246.231C498.669 247.854 498.295 249.602 497.442 251.412C493.72 259.174 481.514 260.194 481.514 260.194V265.167C481.514 265.167 494.947 266.562 504.408 257.822C507.839 254.659 509.045 250.372 509.191 246.231H498.752Z" fill="#FF7B7C"/>
<path d="M498.69 247.001C498.939 246.876 499.21 246.772 499.459 246.647C499.896 240.904 496.548 236.596 496.506 236.534L495.924 236.992C495.966 237.033 499.314 241.362 498.69 247.001Z" fill="#F04637"/>
<path d="M467.27 217.099C467.27 217.099 468.642 216.682 468.85 214.206C469.058 211.709 470.243 212.479 470.243 212.479C470.243 212.479 469.64 222.301 468.06 222.675C466.501 223.05 467.27 217.099 467.27 217.099Z" fill="#F7B58E"/>
<path d="M489 269.558C486.983 295.112 503.285 336.542 503.285 336.542H511.104C511.104 336.542 505.801 310.052 505.697 285.186C505.677 279.796 505.885 274.511 506.467 269.558C501.06 269.558 493.886 269.558 489 269.558Z" fill="#053C5E"/>
<path d="M408.901 343.076C408.901 343.076 406.801 345.032 402.018 346.239C400.958 346.51 399.835 346.156 399.835 347.883C402.06 347.883 405.637 347.883 405.637 347.883L410.461 347.051V347.883H413.06C413.06 347.883 413.788 343.617 412.27 343.056C410.856 343.076 408.901 343.076 408.901 343.076Z" fill="#212B53"/>
<path d="M409.192 339.997L408.901 343.056C409.858 343.722 411.105 343.763 412.104 343.16L412.291 343.056L413.372 339.997H409.192Z" fill="#F7B58E"/>
<path d="M432.107 343.076C432.107 343.076 430.007 345.032 425.225 346.239C424.164 346.51 423.041 346.156 423.041 347.883C425.287 347.883 428.843 347.883 428.843 347.883L433.667 347.051V347.883H436.266C436.266 347.883 436.994 343.617 435.476 343.056C434.083 343.076 432.107 343.076 432.107 343.076Z" fill="#212B53"/>
<path d="M432.398 339.997L432.107 343.056C433.064 343.722 434.311 343.763 435.31 343.16L435.497 343.056L436.578 339.997H432.398Z" fill="#F7B58E"/>
<path d="M418.155 263.211H411.459L409.109 340.725H413.621L426.909 277.653L418.155 263.211Z" fill="#212B53"/>
<path d="M415.971 263.211L431.608 340.725H436.578L434.54 263.211H415.971Z" fill="#053C5E"/>
<path d="M429.55 280.254L431.047 280.15C431.047 280.15 430.984 279.089 431.733 278.319C432.315 277.736 433.251 277.424 434.499 277.424C435.871 277.424 436.911 277.736 437.493 278.298C438.054 278.86 438.034 279.526 438.034 279.567L439.531 279.65C439.531 279.526 439.593 278.36 438.595 277.341C437.722 276.446 436.329 275.988 434.499 275.988C432.794 275.988 431.484 276.446 430.61 277.361C429.446 278.589 429.55 280.191 429.55 280.254Z" fill="#212B53"/>
<path d="M423.144 296.41H445.519V282.01H423.144V296.41Z" fill="#212B53"/>
<path d="M433.521 291.72C433.521 292.594 433.937 292.698 434.457 292.698C434.977 292.698 435.393 292.594 435.393 291.72V288.661C441.839 287.995 445.52 286.85 445.52 286.85V287.246V298.212C445.52 299.232 445.124 300.043 444.521 300.043H424.122C423.519 300.043 423.124 299.211 423.124 298.212V286.892C427.803 287.974 428.094 287.995 433.48 288.64V291.72H433.521Z" fill="#FF7B7C"/>
<path d="M427.657 287.849C428.697 289.888 429.778 291.865 431.13 293.717C432.752 295.944 434.582 298.025 436.495 300.043H424.143C423.54 300.043 423.145 299.211 423.145 298.212V286.892C425.266 287.371 426.472 287.641 427.657 287.849Z" fill="#F04637"/>
<path d="M424.143 278.922H444.542C445.145 278.922 445.54 279.754 445.54 280.753V286.268C441.964 287.454 438.512 287.912 435.414 287.995V287.246C435.414 286.372 434.998 286.268 434.478 286.268C433.958 286.268 433.542 286.372 433.542 287.246V287.995C427.429 287.828 423.187 286.268 423.187 286.268V280.753C423.166 279.734 423.561 278.922 424.143 278.922Z" fill="#63C0C4"/>
<path d="M433.23 290.388V289.451C433.23 289.223 433.417 289.056 433.625 289.056H435.247C435.476 289.056 435.642 289.243 435.642 289.451V290.388C435.642 290.617 435.455 290.783 435.247 290.783H433.625C433.417 290.804 433.23 290.617 433.23 290.388ZM433.646 289.16C433.48 289.16 433.355 289.285 433.355 289.451V290.388C433.355 290.554 433.48 290.679 433.646 290.679H435.268C435.434 290.679 435.559 290.554 435.559 290.388V289.451C435.559 289.285 435.434 289.16 435.268 289.16H433.646Z" fill="white"/>
<path d="M434.332 289.805C434.332 289.868 434.374 289.909 434.436 289.909C434.499 289.909 434.54 289.868 434.54 289.805V288.494C434.54 288.432 434.499 288.39 434.436 288.39C434.374 288.39 434.332 288.432 434.332 288.494V289.805Z" fill="white"/>
<path d="M379.311 251.704C379.083 251.891 378.23 252.453 376.151 252.619C374.3 252.765 370.328 251.954 371.098 253.806C372.886 254.763 374.861 256.115 374.861 256.115C376.005 256.594 378.001 256.095 379.207 255.554L382.68 253.431C382.68 253.431 382.971 251.475 383.013 251.392L382.222 251.059C381.266 251.412 380.289 251.621 379.311 251.704Z" fill="#F7B58E"/>
<path d="M378.687 252.515C378.687 252.515 378.625 252.599 378.48 252.744C378.729 252.848 378.958 252.952 379.207 253.077C380.185 253.098 381.162 253.161 382.118 253.202C382.056 252.64 381.973 251.85 381.973 251.787L375.652 250.289C375.652 250.289 375.132 250.955 376.296 251.662C377.44 252.37 378.687 252.515 378.687 252.515Z" fill="#F7B58E"/>
<path d="M433.48 272.242L431.38 276.862C431.38 276.862 431.837 279.401 432.752 280.4C433.022 280.691 433.48 280.774 433.854 280.628C434.727 280.275 436.744 279.401 437.077 278.901C437.243 278.672 437.264 278.36 437.181 278.069L436.578 276.03L436.495 271.285L433.48 272.242Z" fill="#F7B58E"/>
<path d="M421.107 216.641L421.024 222.821L426.555 222.53L426.909 212.916L421.107 216.641Z" fill="#F39F85"/>
<path d="M420.192 217.202C419.423 217.182 418.716 217.057 418.342 216.765C416.117 213.519 418.654 204.8 418.654 204.8L422.209 203.302L426.722 206.111L426.971 211.959C427.034 213.519 426.285 215.018 424.954 215.996C423.52 216.807 421.856 217.244 420.192 217.202Z" fill="#F7B58E"/>
<path d="M425.453 209.441C425.204 208.463 425.869 206.195 424.871 206.361C424.143 206.486 421.648 206.59 420.795 206.59C418.799 206.59 415.223 205.799 415.223 202.761C415.223 201.242 416.158 200.472 417.094 200.077C418.009 199.702 419.049 200.805 419.984 201.117C422.189 201.887 426.743 202.511 427.907 202.262C429.238 201.991 430.61 203.344 430.714 204.155C430.943 205.924 429.758 208.629 428.884 210.315C428.385 211.293 427.699 212.188 426.888 212.937L425.453 209.441Z" fill="#212B53"/>
<path d="M428.032 209.67C427.595 209.274 426.742 209.357 426.16 209.836C425.578 210.315 425.474 211.043 425.911 211.438C426.347 211.834 427.2 211.75 427.782 211.272C428.364 210.772 428.468 210.044 428.032 209.67Z" fill="#F7B58E"/>
<path d="M423.956 220.886C426.472 220.886 428.635 221.427 430.423 222.217C434.873 224.174 438.034 228.252 439.136 232.997C440.882 240.446 443.835 258.155 437.077 273.678C435.081 273.865 432.565 273.678 432.565 273.678L431.837 237.096L432.357 263.211H411.438V246.356C411.438 246.356 410.897 250.164 405.844 253.681C400.792 257.197 381.827 254.867 381.827 254.867V250.913C381.827 250.913 398.442 247.417 401.145 245.357C403.848 243.297 409.712 228.481 409.712 228.481C411.542 224.86 414.89 222.197 418.862 221.364C420.317 221.073 422.001 220.886 423.956 220.886Z" fill="#01888B"/>
<path d="M432.107 263.357L431.608 238.199L432.149 238.178L432.648 263.357H432.107Z" fill="#63C0C4"/>
<path d="M426.659 219.117L426.992 221.156L420.65 221.135L421.066 219.117H426.659Z" fill="white"/>
<path d="M464.191 44.1999L467.955 51.6079L460.053 49.8184L433 41.2867L464.191 44.1999Z" fill="#AFD8C7"/>
<path d="M467.955 51.6079L454.522 50.7756L457.807 49.1109L467.955 51.6079Z" fill="#63C0C4"/>
<path d="M464.191 44.1999L466.541 37L433 41.2866L464.191 44.1999Z" fill="url(#paint9_linear)"/>
<path d="M433 41.2867L460.053 49.8184L456.019 60.2229L433 41.2867Z" fill="url(#paint10_linear)"/>
<path d="M464.981 59.0783C465.044 59.0367 465.127 58.9951 465.168 58.9327C465.397 58.6622 465.376 58.2668 465.106 58.0379C464.274 57.3096 463.38 56.6645 462.444 56.1235C462.153 55.9362 461.758 56.0402 461.571 56.3524C461.405 56.6437 461.488 57.0391 461.8 57.2264C462.673 57.7258 463.505 58.3292 464.274 59.0159C464.482 59.1616 464.752 59.1824 464.981 59.0783Z" fill="#63C0C4"/>
<path d="M455.146 128.164C454.958 127.873 455.062 127.478 455.374 127.29C457.079 126.292 458.639 124.939 460.011 123.274C460.24 123.004 460.635 122.962 460.906 123.191C461.176 123.42 461.217 123.815 460.989 124.086C459.512 125.855 457.849 127.311 456.019 128.393C455.998 128.393 455.998 128.414 455.977 128.414C455.686 128.56 455.333 128.456 455.146 128.164ZM462.361 121.069C462.049 120.902 461.945 120.507 462.132 120.215C463.151 118.405 463.921 116.47 464.42 114.451C464.503 114.118 464.856 113.91 465.189 113.993C465.522 114.077 465.73 114.43 465.647 114.763C465.127 116.886 464.316 118.925 463.235 120.84C463.172 120.944 463.089 121.027 462.964 121.089C462.777 121.173 462.548 121.173 462.361 121.069ZM465.563 111.455C465.21 111.434 464.96 111.122 464.981 110.789L465.002 110.498C465.106 108.583 465.002 106.585 464.69 104.546C464.628 104.192 464.877 103.88 465.21 103.818C465.563 103.755 465.875 104.005 465.938 104.338C466.25 106.44 466.374 108.521 466.27 110.539L466.25 110.851C466.229 111.08 466.104 111.267 465.896 111.372C465.813 111.434 465.688 111.455 465.563 111.455ZM464.69 101.321C464.357 101.404 464.004 101.217 463.921 100.863C463.422 98.9485 462.735 96.9508 461.862 94.9116C461.717 94.5994 461.883 94.204 462.195 94.0792C462.507 93.9335 462.881 94.1 463.027 94.4121C463.9 96.5138 464.607 98.574 465.127 100.53C465.21 100.821 465.064 101.133 464.794 101.258C464.773 101.3 464.732 101.321 464.69 101.321ZM461.134 91.7694C460.822 91.9151 460.448 91.7902 460.282 91.4781C460.199 91.3116 460.115 91.1659 460.053 90.9994C459.388 91.27 458.701 91.4781 458.015 91.6862C457.682 91.7694 457.329 91.5821 457.246 91.2492C457.142 90.9162 457.35 90.5625 457.682 90.4792C458.285 90.3127 458.889 90.1047 459.492 89.8758C458.826 88.6272 458.119 87.3162 457.287 85.9012C457.121 85.6099 457.204 85.2145 457.516 85.0273C457.807 84.8608 458.202 84.944 458.389 85.2562C459.242 86.7128 459.991 88.0654 460.656 89.3764C461.571 88.9602 462.465 88.4608 463.297 87.8989C463.588 87.6908 463.983 87.774 464.17 88.0654C464.357 88.3567 464.295 88.7521 464.004 88.9394C463.131 89.522 462.216 90.0422 461.238 90.4792C461.301 90.6249 461.384 90.7497 461.446 90.8954C461.592 91.2283 461.467 91.6029 461.134 91.7694C461.155 91.7694 461.155 91.7694 461.134 91.7694ZM466.125 86.4423C465.875 86.1926 465.875 85.7972 466.104 85.5475C466.998 84.6319 467.768 83.6122 468.412 82.551C468.807 81.8851 469.161 81.1776 469.452 80.4493C469.577 80.1371 469.951 79.9707 470.284 80.0955C470.616 80.2204 470.762 80.5949 470.637 80.9279C470.325 81.7186 469.93 82.4677 469.514 83.1961C468.828 84.3614 467.996 85.4434 467.019 86.4215C466.977 86.4631 466.915 86.5047 466.853 86.5463C466.624 86.6712 466.333 86.6296 466.125 86.4423ZM454.147 92.3729C451.902 92.5601 449.698 92.3937 447.597 91.8526C447.265 91.7694 447.057 91.4156 447.14 91.0827C447.223 90.7497 447.577 90.5417 447.909 90.6249C449.864 91.1243 451.923 91.2908 454.044 91.1035C454.397 91.0827 454.688 91.3324 454.73 91.6862C454.751 91.9567 454.605 92.1856 454.376 92.3104C454.293 92.352 454.231 92.3729 454.147 92.3729ZM471.011 77.64C470.658 77.5776 470.429 77.2447 470.492 76.9117C470.845 74.9141 470.866 72.8332 470.554 70.7523C470.512 70.3985 470.741 70.0864 471.095 70.0239C471.448 69.9823 471.76 70.2112 471.822 70.565C472.155 72.7915 472.134 74.9973 471.76 77.1198C471.718 77.3279 471.594 77.4944 471.427 77.5776C471.282 77.64 471.136 77.6609 471.011 77.64ZM443.896 90.4792C443.376 90.2087 442.877 89.9382 442.42 89.6261C441.047 88.7313 439.82 87.5451 438.843 86.2134C438.635 85.922 438.698 85.5267 438.989 85.3394C439.28 85.1313 439.675 85.1937 439.862 85.485C440.735 86.692 441.858 87.774 443.085 88.5856C443.522 88.8769 443.979 89.1475 444.458 89.3764C444.769 89.5428 444.894 89.9174 444.728 90.2295C444.665 90.3544 444.561 90.4376 444.458 90.5C444.291 90.5625 444.083 90.5625 443.896 90.4792ZM455.312 82.6342C453.96 80.5325 452.713 78.9926 451.403 77.8273C451.153 77.5984 451.132 77.203 451.361 76.9325C451.59 76.6828 451.985 76.662 452.255 76.8909C453.648 78.1395 454.958 79.7626 456.372 81.9683C456.56 82.2597 456.476 82.655 456.185 82.8423C456.165 82.8631 456.144 82.8631 456.123 82.8839C455.853 83.0088 455.499 82.9255 455.312 82.6342ZM470.471 67.5268C470.138 67.6309 469.785 67.4644 469.66 67.1315C469.348 66.2367 468.994 65.3627 468.558 64.5303C468.038 63.5315 467.456 62.5535 466.79 61.6795C466.582 61.409 466.645 61.0136 466.915 60.7847C467.185 60.5766 467.58 60.639 467.809 60.9096C468.516 61.846 469.161 62.8864 469.701 63.9477C470.159 64.8425 470.554 65.7581 470.866 66.7153C470.97 67.0066 470.824 67.3396 470.554 67.4852C470.533 67.506 470.492 67.5268 470.471 67.5268ZM437.866 83.0088C437.533 83.092 437.18 82.8839 437.096 82.551C436.639 80.7614 436.826 79.0134 437.616 77.5152C437.907 76.9742 438.261 76.4747 438.698 76.0378C438.947 75.788 439.342 75.788 439.592 76.0169C439.841 76.2666 439.841 76.662 439.612 76.9117C439.259 77.2655 438.968 77.6608 438.739 78.0978C438.095 79.3464 437.949 80.7406 438.323 82.2388C438.386 82.5302 438.261 82.8215 437.991 82.9464C437.949 82.988 437.907 82.988 437.866 83.0088ZM448.408 75.788C446.641 74.9765 444.458 74.7684 442.586 75.247C442.253 75.3302 441.9 75.1222 441.817 74.7892C441.733 74.4563 441.941 74.1025 442.274 74.0193C444.458 73.4782 446.87 73.7071 448.928 74.6435C449.24 74.7892 449.386 75.1638 449.24 75.4759C449.178 75.6008 449.074 75.7048 448.949 75.7672C448.803 75.8713 448.596 75.8713 448.408 75.788Z" fill="#63C0C4"/>
<path d="M452.422 129.954C452.692 129.829 452.817 129.517 452.734 129.226C452.63 128.893 452.297 128.705 451.943 128.789C450.966 129.059 449.968 129.226 448.97 129.288C448.616 129.309 448.346 129.6 448.367 129.954C448.388 130.308 448.679 130.578 449.032 130.557C450.134 130.495 451.216 130.308 452.276 130.016C452.338 129.975 452.38 129.954 452.422 129.954Z" fill="#63C0C4"/>
<defs>
<linearGradient id="paint0_linear" x1="67.6623" y1="279.716" x2="393.341" y2="279.716" gradientUnits="userSpaceOnUse">
<stop stop-color="#E0F0EB"/>
<stop offset="1" stop-color="#C0E4EF"/>
</linearGradient>
<linearGradient id="paint1_linear" x1="257.284" y1="202.962" x2="342.535" y2="202.962" gradientUnits="userSpaceOnUse">
<stop stop-color="#C0E4EF"/>
<stop offset="1" stop-color="#E0F0EB"/>
</linearGradient>
<linearGradient id="paint2_linear" x1="88.3177" y1="207.173" x2="179.15" y2="207.173" gradientUnits="userSpaceOnUse">
<stop stop-color="#C0E4EF"/>
<stop offset="1" stop-color="#E0F0EB"/>
</linearGradient>
<linearGradient id="paint3_linear" x1="171.153" y1="254.203" x2="195.717" y2="254.203" gradientUnits="userSpaceOnUse">
<stop stop-color="#E0F0EB"/>
<stop offset="1" stop-color="#C0E4EF"/>
</linearGradient>
<linearGradient id="paint4_linear" x1="99.4575" y1="248.391" x2="119.452" y2="248.391" gradientUnits="userSpaceOnUse">
<stop stop-color="#E0F0EB"/>
<stop offset="1" stop-color="#C0E4EF"/>
</linearGradient>
<linearGradient id="paint5_linear" x1="396.92" y1="250.212" x2="412.986" y2="250.212" gradientUnits="userSpaceOnUse">
<stop stop-color="#E0F0EB"/>
<stop offset="1" stop-color="#C0E4EF"/>
</linearGradient>
<linearGradient id="paint6_linear" x1="281.498" y1="230.617" x2="296.375" y2="230.617" gradientUnits="userSpaceOnUse">
<stop stop-color="#E0F0EB"/>
<stop offset="1" stop-color="#C0E4EF"/>
</linearGradient>
<linearGradient id="paint7_linear" x1="111.151" y1="43.4834" x2="152.318" y2="43.4834" gradientUnits="userSpaceOnUse">
<stop offset="6.3e-07" stop-color="#F1F8F7"/>
<stop offset="1" stop-color="#BFE3EE"/>
</linearGradient>
<linearGradient id="paint8_linear" x1="102.744" y1="44.6086" x2="152.053" y2="44.6086" gradientUnits="userSpaceOnUse">
<stop offset="6.3e-07" stop-color="#F1F8F7"/>
<stop offset="1" stop-color="#BFE3EE"/>
</linearGradient>
<linearGradient id="paint9_linear" x1="433.002" y1="40.6004" x2="466.535" y2="40.6004" gradientUnits="userSpaceOnUse">
<stop offset="6.3e-07" stop-color="#F1F8F7"/>
<stop offset="1" stop-color="#BFE3EE"/>
</linearGradient>
<linearGradient id="paint10_linear" x1="433.002" y1="50.7504" x2="460.044" y2="50.7504" gradientUnits="userSpaceOnUse">
<stop offset="6.3e-07" stop-color="#F1F8F7"/>
<stop offset="1" stop-color="#BFE3EE"/>
</linearGradient>
</defs>
</svg>
