<svg width="522" height="386" viewBox="0 0 522 386" fill="none" xmlns="http://www.w3.org/2000/svg">
<path d="M195.626 35.9021V55.795H224.766V83.3452H223.847V285.193C223.847 300.988 236.778 313.923 252.568 313.923C255.066 313.923 407.445 314.063 407.445 314.063V82.0656C407.445 56.5547 386.779 35.8821 361.276 35.8821H195.626V35.9021Z" fill="#D2DEEC"/>
<path d="M175.739 74.2884V55.835C175.739 44.3391 185.153 34.9025 196.645 34.8825C212.435 34.8825 225.366 47.6979 225.366 63.3723V74.3084H175.739V74.2884Z" fill="#6680A1"/>
<path d="M371.009 87.2638H271.895V91.4223H371.009V87.2638Z" fill="#25374B"/>
<path d="M371.009 103.918H271.895V108.076H371.009V103.918Z" fill="#25374B"/>
<path d="M371.009 122.651H271.895V126.81H371.009V122.651Z" fill="#25374B"/>
<path d="M371.009 139.285H271.895V143.444H371.009V139.285Z" fill="#25374B"/>
<path d="M371.009 157.439H271.895V161.597H371.009V157.439Z" fill="#25374B"/>
<path d="M371.009 174.093H271.895V178.251H371.009V174.093Z" fill="#25374B"/>
<path d="M371.009 192.806H271.895V196.965H371.009V192.806Z" fill="#25374B"/>
<path d="M371.009 209.46H271.895V213.619H371.009V209.46Z" fill="#25374B"/>
<path d="M414.86 314.063C383.321 314.063 260.942 314.063 260.942 314.063C260.942 314.063 292.062 307.665 281.689 269.279C329.397 269.279 445.54 269.279 445.54 269.279C445.54 269.279 455.913 314.063 414.86 314.063Z" fill="#D2DEEC"/>
<path d="M160.913 320.305C160.913 320.305 185.321 244.066 140.208 206.546C51.99 255.662 100.559 342.232 100.559 342.232L160.913 320.305Z" fill="#C1D5F0"/>
<path d="M140.208 206.546C139.896 206.71 139.599 206.891 139.303 207.056L133.905 301.225L91.8199 260.103C91.6059 260.728 91.4084 261.337 91.2109 261.962L133.773 303.544L132.209 330.717L134.003 330.06L137.098 275.894L166.509 258.606C166.427 257.981 166.345 257.34 166.262 256.715L137.229 273.788L141.031 207.27C140.768 207.023 140.505 206.776 140.208 206.546Z" fill="white"/>
<path d="M140.044 302.853C140.044 302.853 111.505 228.291 55.7756 221.004C15.3861 275.169 68.9918 329.368 68.9918 329.368L133.411 356.36L140.044 302.853Z" fill="#F04637"/>
<path d="M109.381 252.8L93.3176 284.349L57.0921 221.185C56.6477 221.12 56.2198 221.037 55.7754 220.988C55.6108 221.202 55.4792 221.416 55.3146 221.629L74.7193 255.465L42.4768 248.885C42.411 249.198 42.3452 249.494 42.2793 249.79L42.1147 250.596L75.8879 257.488L108.229 313.874L51.2822 304.136C51.6278 304.794 51.9735 305.452 52.3191 306.094L109.365 315.848L132.325 355.884L133.411 356.345L133.625 354.618L94.3709 286.191L110.632 254.247C110.221 253.754 109.793 253.277 109.381 252.8Z" fill="white"/>
<path d="M110.985 285.948C110.985 285.948 55.5027 248.988 18.8657 274.73C24.1654 365.955 140.643 365.675 140.643 365.675L110.985 285.948Z" fill="#CDE9F1"/>
<path d="M18.8657 274.73C18.8822 275.076 18.9151 275.421 18.9316 275.783L97.7026 319.882L52.1615 338.37C52.7047 338.782 53.2643 339.193 53.8074 339.604L99.6612 321L130.422 338.239L129.468 335.689L69.5748 302.134L59.2552 266.243C58.6298 266.16 57.9879 266.095 57.3625 266.029L67.3858 300.917L19.6887 274.171C19.4089 274.352 19.1455 274.533 18.8657 274.73Z" fill="white"/>
<path d="M321.699 311.732C321.699 311.732 311.824 242.73 356.015 217.07C424.615 272.041 370.334 339.317 370.334 339.317L321.699 311.732Z" fill="#617B9B"/>
<path d="M355.999 217.07C356.246 217.267 356.476 217.448 356.706 217.645L347.638 299.281L389.755 270.084C389.854 270.643 389.936 271.203 390.002 271.778L347.407 301.304L344.79 324.858L343.342 324.036L348.559 277.075L325.83 257.961C325.995 257.435 326.159 256.909 326.324 256.382L348.773 275.249L355.176 217.58C355.456 217.399 355.719 217.234 355.999 217.07Z" fill="#2D2C45"/>
<path d="M330.14 309.774C330.14 309.774 365.493 249.901 414.392 251.726C441.186 304.099 387.284 342.853 387.284 342.853L328.05 356.669L330.14 309.774Z" fill="#F04637"/>
<path d="M363.749 271.268L372.95 300.695L413.24 251.711C413.619 251.711 414.014 251.711 414.392 251.727C414.491 251.941 414.59 252.138 414.689 252.336L393.111 278.572L421.749 277.601C421.766 277.881 421.766 278.144 421.782 278.407L421.799 279.131L391.811 280.151L355.849 323.871L406.163 323.773C405.768 324.299 405.373 324.809 404.978 325.302L354.582 325.401L329.038 356.44L328.034 356.67L328.1 355.157L371.748 302.093L362.433 272.305C362.893 271.959 363.321 271.614 363.749 271.268Z" fill="white"/>
<path d="M145.322 13.7323L120.643 11.4403L109.599 13.8528L102.405 18.3245L145.322 13.7323Z" fill="url(#paint0_linear)"/>
<path d="M145.323 13.7323L103.887 20.4269L102.405 18.3245" fill="#AFD8C7"/>
<path d="M105.621 27.2865L105.692 27.3456L109.792 32.4511L145.228 13.7736L105.621 27.2865Z" fill="#63C0C4"/>
<path d="M97.0273 27.0059L100.459 20.3688L145.052 13.7829L110.284 27.7511L97.0273 27.0059Z" fill="url(#paint1_linear)"/>
<path d="M45.4772 137.435C46.4979 136.471 47.4856 135.431 48.3752 134.321C48.5822 134.073 48.9452 134.027 49.2123 134.226C49.4605 134.433 49.5064 134.796 49.3076 135.063C48.3695 136.216 47.3605 137.311 46.283 138.3C45.9034 138.668 45.4882 139.007 45.1003 139.357C44.9548 139.488 44.768 139.525 44.5942 139.488C44.4665 139.454 44.3495 139.392 44.281 139.287C44.0624 139.044 44.1004 138.667 44.3429 138.448C44.7202 138.126 45.1081 137.776 45.4772 137.435Z" fill="#63C0C4"/>
<path d="M84.3876 27.7263C86.1624 27.1991 88.0459 26.7144 90.1328 26.2311C90.4603 26.1557 90.7735 26.3569 90.8407 26.6656C90.9162 26.9932 90.7151 27.3065 90.4065 27.3736C88.3385 27.8487 86.4822 28.3439 84.7263 28.863C84.6234 28.8853 84.5123 28.8888 84.439 28.8757C84.2381 28.8283 84.0608 28.6804 84.0077 28.4556C83.8944 28.1446 84.0683 27.8207 84.3876 27.7263Z" fill="#63C0C4"/>
<path d="M75.5258 32.0927C75.352 32.0559 75.2102 31.9375 75.1087 31.7565C74.9764 31.4537 75.1149 31.1002 75.3987 30.9763C77.1311 30.1971 78.9994 29.4712 80.9386 28.8046C81.2496 28.6913 81.5923 28.8571 81.6867 29.1764C81.8001 29.4875 81.6261 29.8114 81.3151 29.9247C79.3949 30.5831 77.5644 31.2924 75.8699 32.0551C75.7753 32.0964 75.6452 32.1081 75.5258 32.0927Z" fill="#63C0C4"/>
<path d="M53.0691 126.344C53.1863 126.045 53.5269 125.896 53.8342 126.032C54.1332 126.149 54.282 126.49 54.1459 126.798C53.4025 128.655 52.4688 130.437 51.3827 132.128C51.2513 132.344 50.9782 132.44 50.7501 132.382C50.6768 132.369 50.6224 132.348 50.5598 132.308C50.282 132.136 50.2089 131.762 50.3805 131.485C51.4536 129.866 52.3388 128.128 53.0691 126.344Z" fill="#63C0C4"/>
<path d="M54.6073 123.779C54.2976 123.689 54.1109 123.365 54.2009 123.055C54.3383 122.544 54.4757 122.034 54.5942 121.531C54.9153 120.151 55.1359 118.748 55.2536 117.367C55.2892 117.036 55.5695 116.801 55.9006 116.836C56.2126 116.88 56.4667 117.153 56.431 117.484C56.3109 118.911 56.0773 120.388 55.7538 121.813C55.6247 122.343 55.4956 122.873 55.3475 123.411C55.2575 123.72 54.9524 123.899 54.651 123.828C54.6345 123.79 54.6155 123.798 54.6073 123.779Z" fill="#63C0C4"/>
<path d="M55.968 114.463C55.9219 114.461 55.8758 114.458 55.8297 114.456C55.5744 114.387 55.364 114.164 55.3784 113.887C55.3356 112.035 55.1462 110.157 54.8091 108.096C54.7608 107.779 54.9619 107.466 55.2977 107.409C55.6146 107.361 55.9277 107.562 55.9843 107.898C56.3379 109.997 56.5226 111.967 56.563 113.865C56.5463 114.188 56.2825 114.461 55.968 114.463Z" fill="#63C0C4"/>
<path d="M50.1317 62.0016C49.9173 62.7488 49.7301 63.5066 49.5619 64.2562C49.2989 65.4078 49.0819 66.5617 48.9029 67.6991C48.859 68.0113 48.5515 68.2357 48.2394 68.1917C48.2204 68.2 48.2122 68.1811 48.1933 68.1894C47.8918 68.1182 47.7028 67.8402 47.7467 67.528C47.9282 66.3445 48.1558 65.1633 48.4105 63.9928C48.5894 63.2161 48.7955 62.45 49.0016 61.6839C49.0916 61.3741 49.3802 61.1579 49.7253 61.2776C50.035 61.3677 50.2217 61.6919 50.1317 62.0016Z" fill="#63C0C4"/>
<path d="M48.5287 71.1753C48.3905 73.1287 48.3907 75.0893 48.5234 76.992C48.5528 77.3172 48.2973 77.609 47.9639 77.6194C47.8988 77.6253 47.8527 77.6229 47.7984 77.6016C47.5513 77.5517 47.3599 77.3198 47.3364 77.0597C47.1979 75.0919 47.219 73.077 47.3406 71.0858C47.3573 70.763 47.6565 70.5196 47.9793 70.5364C48.3103 70.5721 48.5454 70.8525 48.5287 71.1753Z" fill="#63C0C4"/>
<path d="M53.549 53.32C52.6639 55.0587 51.8874 56.8402 51.2197 58.6642C51.1215 58.9551 50.827 59.1062 50.5256 59.035C50.4984 59.0244 50.4712 59.0137 50.4523 59.022C50.1532 58.9047 49.9855 58.5723 50.1027 58.2732C50.7811 56.422 51.5895 54.5589 52.4853 52.793C52.6297 52.5046 52.9868 52.3937 53.2752 52.5381C53.5825 52.6743 53.6934 53.0315 53.549 53.32Z" fill="#63C0C4"/>
<path d="M60.8333 42.8142C60.6771 42.9725 60.4608 43.0445 60.2598 42.997C60.1593 42.9733 60.0695 42.9224 59.9986 42.8632C59.7694 42.6479 59.7423 42.2765 59.9683 42.0201C61.3298 40.5466 62.7704 39.1511 64.2879 37.8799C64.5386 37.6802 64.9074 37.6994 65.126 37.942C65.3257 38.1928 65.3066 38.5617 65.0641 38.7803C63.5574 40.0243 62.1463 41.3843 60.8333 42.8142Z" fill="#63C0C4"/>
<path d="M52.3111 95.9807C52.2082 96.0031 52.0971 96.0066 52.0049 96.0018C51.8039 95.9543 51.6267 95.8064 51.5818 95.6006L51.3599 94.8862C50.8441 93.241 50.3472 91.5875 49.8693 89.9258C49.7748 89.6064 49.9488 89.2825 50.268 89.1882C50.5873 89.0938 50.9111 89.2679 51.0056 89.5872C51.4753 91.23 51.9911 92.8753 52.488 94.5287L52.7099 95.2431C52.7854 95.5707 52.6114 95.8946 52.3111 95.9807Z" fill="#63C0C4"/>
<path d="M55.2412 50.2822C55.1099 50.4974 54.845 50.613 54.5979 50.5632C54.5435 50.5419 54.4702 50.5288 54.4265 50.4803C54.1488 50.3086 54.0568 49.9432 54.2283 49.6654C55.2601 47.9527 56.4089 46.3017 57.6262 44.7558C57.8332 44.5077 58.1962 44.4618 58.4632 44.6607C58.7114 44.8678 58.7573 45.2308 58.5586 45.4979C57.3626 46.9894 56.2434 48.605 55.2412 50.2822Z" fill="#63C0C4"/>
<path d="M52.9887 98.2539C53.3079 98.1595 53.6318 98.3336 53.7262 98.6529C54.3789 100.869 54.8662 102.707 55.2685 104.402C55.344 104.73 55.1429 105.043 54.8343 105.11C54.7503 105.124 54.6581 105.119 54.5659 105.115C54.346 105.075 54.1794 104.9 54.1263 104.676C53.7323 103 53.2615 101.2 52.6171 99.0021C52.4955 98.6721 52.6694 98.3483 52.9887 98.2539Z" fill="#63C0C4"/>
<path d="M41.5705 140.561C41.8295 140.38 42.2149 140.437 42.4039 140.715C42.5846 140.974 42.5277 141.36 42.2498 141.549C40.7147 142.625 39.0354 143.629 37.1256 144.62C37.0014 144.697 36.8442 144.698 36.7165 144.664C36.5617 144.619 36.4092 144.528 36.3159 144.366C36.1647 144.071 36.2843 143.726 36.5705 143.556C38.4235 142.589 40.065 141.601 41.5705 140.561Z" fill="#63C0C4"/>
<path d="M48.2298 79.9823C48.5467 79.934 48.8492 80.1624 48.8975 80.4794C49.1567 82.2592 49.5495 84.1385 50.071 86.2094C50.1465 86.537 49.9643 86.8419 49.645 86.9363C49.5421 86.9587 49.4499 86.9539 49.3766 86.9408C49.1757 86.8934 48.9902 86.7265 48.9371 86.5018C48.399 84.3931 48.0169 82.4866 47.7412 80.6689C47.6846 80.3331 47.913 80.0305 48.2298 79.9823Z" fill="#63C0C4"/>
<path d="M70.3928 33.5458C70.9841 33.1974 71.6026 32.8596 72.2022 32.5302C72.4966 32.379 72.8607 32.4904 73.0036 32.7661C73.1548 33.0606 73.0435 33.4247 72.7679 33.5676C72.1601 33.8782 71.5877 34.2183 70.9882 34.5478C69.9108 35.1761 68.8205 35.8777 67.8116 36.6113C67.6768 36.7152 67.49 36.7518 67.3351 36.7067C67.2075 36.6723 67.0822 36.5918 66.9865 36.4759C66.8058 36.2168 66.8627 35.8313 67.1217 35.6506C68.1766 34.9194 69.2587 34.1989 70.3928 33.5458Z" fill="#63C0C4"/>
<path d="M474.056 98.1999L477.819 105.608L469.918 103.818L442.865 95.2866L474.056 98.1999Z" fill="#AFD8C7"/>
<path d="M477.819 105.608L464.386 104.776L467.672 103.111L477.819 105.608Z" fill="#63C0C4"/>
<path d="M474.056 98.1999L476.406 90.9999L442.865 95.2866L474.056 98.1999Z" fill="url(#paint2_linear)"/>
<path d="M442.865 95.2866L469.918 103.818L465.884 114.223L442.865 95.2866Z" fill="url(#paint3_linear)"/>
<path d="M474.846 113.078C474.908 113.037 474.992 112.995 475.033 112.933C475.262 112.662 475.241 112.267 474.971 112.038C474.139 111.31 473.245 110.664 472.309 110.123C472.018 109.936 471.623 110.04 471.436 110.352C471.269 110.644 471.353 111.039 471.664 111.226C472.538 111.726 473.37 112.329 474.139 113.016C474.347 113.162 474.617 113.182 474.846 113.078Z" fill="#63C0C4"/>
<path d="M465.01 182.164C464.823 181.873 464.927 181.478 465.239 181.29C466.944 180.292 468.504 178.939 469.876 177.274C470.105 177.004 470.5 176.962 470.77 177.191C471.041 177.42 471.082 177.815 470.854 178.086C469.377 179.855 467.714 181.311 465.884 182.393C465.863 182.393 465.863 182.414 465.842 182.414C465.551 182.56 465.198 182.456 465.01 182.164ZM472.226 175.068C471.914 174.902 471.81 174.507 471.997 174.215C473.016 172.405 473.785 170.47 474.285 168.451C474.368 168.118 474.721 167.91 475.054 167.993C475.387 168.077 475.595 168.43 475.511 168.763C474.992 170.886 474.181 172.925 473.099 174.84C473.037 174.944 472.954 175.027 472.829 175.089C472.642 175.173 472.413 175.173 472.226 175.068ZM475.428 165.455C475.075 165.434 474.825 165.122 474.846 164.789L474.867 164.497C474.971 162.583 474.867 160.585 474.555 158.546C474.493 158.192 474.742 157.88 475.075 157.818C475.428 157.755 475.74 158.005 475.803 158.338C476.114 160.44 476.239 162.521 476.135 164.539L476.114 164.851C476.094 165.08 475.969 165.267 475.761 165.371C475.678 165.434 475.553 165.455 475.428 165.455ZM474.555 155.321C474.222 155.404 473.869 155.217 473.785 154.863C473.286 152.948 472.6 150.951 471.727 148.911C471.581 148.599 471.748 148.204 472.06 148.079C472.372 147.933 472.746 148.1 472.891 148.412C473.765 150.514 474.472 152.574 474.992 154.53C475.075 154.821 474.929 155.133 474.659 155.258C474.638 155.3 474.596 155.321 474.555 155.321ZM470.999 145.769C470.687 145.915 470.313 145.79 470.147 145.478C470.063 145.312 469.98 145.166 469.918 144.999C469.252 145.27 468.566 145.478 467.88 145.686C467.547 145.769 467.194 145.582 467.111 145.249C467.007 144.916 467.215 144.562 467.547 144.479C468.15 144.313 468.753 144.105 469.356 143.876C468.691 142.627 467.984 141.316 467.152 139.901C466.986 139.61 467.069 139.214 467.381 139.027C467.672 138.861 468.067 138.944 468.254 139.256C469.107 140.713 469.855 142.065 470.521 143.376C471.436 142.96 472.33 142.461 473.162 141.899C473.453 141.691 473.848 141.774 474.035 142.065C474.222 142.357 474.16 142.752 473.869 142.939C472.995 143.522 472.08 144.042 471.103 144.479C471.165 144.625 471.249 144.75 471.311 144.895C471.457 145.228 471.332 145.603 470.999 145.769C471.02 145.769 471.02 145.769 470.999 145.769ZM475.99 140.442C475.74 140.193 475.74 139.797 475.969 139.547C476.863 138.632 477.632 137.612 478.277 136.551C478.672 135.885 479.026 135.178 479.317 134.449C479.441 134.137 479.816 133.971 480.148 134.095C480.481 134.22 480.627 134.595 480.502 134.928C480.19 135.719 479.795 136.468 479.379 137.196C478.693 138.361 477.861 139.443 476.884 140.421C476.842 140.463 476.78 140.505 476.717 140.546C476.489 140.671 476.198 140.63 475.99 140.442ZM464.012 146.373C461.767 146.56 459.562 146.394 457.462 145.853C457.129 145.769 456.922 145.416 457.005 145.083C457.088 144.75 457.441 144.542 457.774 144.625C459.729 145.124 461.787 145.291 463.908 145.103C464.262 145.083 464.553 145.332 464.595 145.686C464.615 145.957 464.47 146.186 464.241 146.31C464.158 146.352 464.095 146.373 464.012 146.373ZM480.876 131.64C480.523 131.578 480.294 131.245 480.356 130.912C480.71 128.914 480.731 126.833 480.419 124.752C480.377 124.398 480.606 124.086 480.959 124.024C481.313 123.982 481.625 124.211 481.687 124.565C482.02 126.791 481.999 128.997 481.625 131.12C481.583 131.328 481.458 131.494 481.292 131.578C481.147 131.64 481.001 131.661 480.876 131.64ZM453.761 144.479C453.241 144.209 452.742 143.938 452.284 143.626C450.912 142.731 449.685 141.545 448.708 140.213C448.5 139.922 448.562 139.527 448.853 139.339C449.145 139.131 449.54 139.194 449.727 139.485C450.6 140.692 451.723 141.774 452.95 142.586C453.387 142.877 453.844 143.147 454.322 143.376C454.634 143.543 454.759 143.917 454.593 144.229C454.53 144.354 454.426 144.438 454.322 144.5C454.156 144.562 453.948 144.562 453.761 144.479ZM465.177 136.634C463.825 134.532 462.578 132.993 461.267 131.827C461.018 131.598 460.997 131.203 461.226 130.932C461.455 130.683 461.85 130.662 462.12 130.891C463.513 132.139 464.823 133.763 466.237 135.968C466.424 136.26 466.341 136.655 466.05 136.842C466.029 136.863 466.009 136.863 465.988 136.884C465.717 137.009 465.364 136.925 465.177 136.634ZM480.336 121.527C480.003 121.631 479.649 121.464 479.525 121.131C479.213 120.237 478.859 119.363 478.423 118.53C477.903 117.531 477.32 116.553 476.655 115.679C476.447 115.409 476.51 115.014 476.78 114.785C477.05 114.577 477.445 114.639 477.674 114.909C478.381 115.846 479.026 116.886 479.566 117.948C480.024 118.842 480.419 119.758 480.731 120.715C480.835 121.007 480.689 121.339 480.419 121.485C480.398 121.506 480.356 121.527 480.336 121.527ZM447.731 137.009C447.398 137.092 447.044 136.884 446.961 136.551C446.504 134.761 446.691 133.013 447.481 131.515C447.772 130.974 448.126 130.475 448.562 130.038C448.812 129.788 449.207 129.788 449.456 130.017C449.706 130.267 449.706 130.662 449.477 130.912C449.124 131.265 448.833 131.661 448.604 132.098C447.959 133.346 447.814 134.741 448.188 136.239C448.25 136.53 448.126 136.821 447.855 136.946C447.814 136.988 447.772 136.988 447.731 137.009ZM458.273 129.788C456.506 128.976 454.322 128.768 452.451 129.247C452.118 129.33 451.765 129.122 451.681 128.789C451.598 128.456 451.806 128.102 452.139 128.019C454.322 127.478 456.734 127.707 458.793 128.643C459.105 128.789 459.25 129.164 459.105 129.476C459.043 129.601 458.939 129.705 458.814 129.767C458.668 129.871 458.46 129.871 458.273 129.788Z" fill="#63C0C4"/>
<path d="M462.286 183.954C462.557 183.829 462.682 183.517 462.598 183.226C462.494 182.893 462.162 182.705 461.808 182.789C460.831 183.059 459.833 183.226 458.835 183.288C458.481 183.309 458.211 183.6 458.232 183.954C458.252 184.308 458.543 184.578 458.897 184.557C459.999 184.495 461.08 184.308 462.141 184.016C462.203 183.975 462.245 183.954 462.286 183.954Z" fill="#63C0C4"/>
<path d="M478.415 254.453C478.893 255.514 478.976 256.721 478.623 257.845L477.999 262.236L477.25 262.735L474.443 263.9C474.734 263.047 474.443 262.153 474.443 262.153L473.216 257.616C473.216 257.616 471.303 249.959 476.502 250.291C476.481 244.049 478.207 245.089 478.207 245.089L478.332 250.479L478.415 254.453Z" fill="#F7B58E"/>
<path d="M491.328 269.623C491.328 269.623 487.689 283.503 484.591 283.752C481.492 284.002 478.269 261.778 478.269 261.778L474.048 262.278C474.048 262.278 472.405 294.24 481.867 294.823C491.328 295.406 492.576 288.33 492.576 288.33L491.328 269.623Z" fill="#F7B58E"/>
<path d="M491.723 307.558H516.447C516.447 307.558 516.447 289.517 516.447 269.977C509.377 259.198 500.581 262.132 500.581 262.132C500.581 262.132 492.576 262.278 491.328 269.623C491.328 274.929 491.723 307.558 491.723 307.558Z" fill="#F04637"/>
<path d="M503.472 257.138L503.846 262.444L503.68 262.61C501.933 264.275 499.209 264.317 497.421 262.694L497.337 258.698L503.472 257.138Z" fill="#F39F85"/>
<path d="M505.426 246.046L504.969 254.828C504.096 254.786 503.576 255.723 503.742 256.555C503.659 256.763 503.596 256.971 503.596 257.2C502.078 258.282 499.334 259.697 495.778 259.031C490.226 257.97 493.574 247.233 493.574 247.233L505.426 246.046Z" fill="#F7B58E"/>
<path d="M508.213 252.643C508.254 251.998 509.128 250.624 509.627 250.208C512.767 247.482 509.96 245.505 508.961 244.86C507.859 244.153 508.067 242.155 506.653 241.032C504.47 239.325 502.37 241.094 500.977 240.844C499.583 240.595 498.71 238.722 496.672 239.721C494.634 240.699 494.863 242.301 494.218 242.967C493.574 243.633 492.368 241.781 490.392 243.903C487.377 247.129 493.283 248.523 493.283 248.523C493.283 248.523 496.527 249.855 500.81 248.19C501.392 247.961 502.099 248.086 502.474 248.606C503.493 250 503.513 257.325 503.513 257.325L504.948 256.139C504.907 256.097 508.026 255.577 508.213 252.643Z" fill="#212B53"/>
<path d="M504.876 253.363C505.159 252.672 504.828 251.882 504.138 251.599C503.447 251.316 502.657 251.647 502.375 252.338C502.092 253.029 502.423 253.819 503.113 254.102C503.804 254.385 504.593 254.054 504.876 253.363Z" fill="#F7B58E"/>
<path d="M497.337 378.413C497.337 378.413 495.944 380.348 489.373 382.013C487.918 382.387 486.358 382.637 486.358 385.03C489.436 385.03 492.846 385.03 492.846 385.03L499.479 383.885V385.03H503.056C503.056 385.03 504.054 379.162 501.954 378.413C500.041 378.413 497.337 378.413 497.337 378.413Z" fill="#212B53"/>
<path d="M497.005 374.209L497.337 378.413C498.647 379.328 500.352 379.37 501.725 378.558L501.974 378.413V374.209H497.005Z" fill="#F7B58E"/>
<path d="M515.761 378.413C515.761 378.413 514.368 380.348 507.797 382.013C506.341 382.387 504.782 382.637 504.782 385.03C507.859 385.03 511.269 385.03 511.269 385.03L517.903 383.885V385.03H521.479C521.479 385.03 522.477 379.162 520.377 378.413C518.443 378.413 515.761 378.413 515.761 378.413Z" fill="#212B53"/>
<path d="M515.407 374.209L515.74 378.413C517.05 379.328 518.755 379.37 520.128 378.558L520.377 378.413V374.209H515.407Z" fill="#F7B58E"/>
<path d="M516.447 269.977C516.447 269.977 523.85 287.103 514.409 295.842C504.948 304.582 492.118 303.105 492.118 303.105V298.173C492.118 298.173 503.721 297.195 507.443 289.433C511.165 281.672 505.946 274.95 505.946 274.95" fill="#F04637"/>
<path d="M492.867 302.418L486.941 302.543C484.528 302.418 482.948 298.818 482.532 296.154C482.47 295.759 482.865 295.426 483.239 295.572C485.256 296.279 490.413 298.111 491.744 298.922L492.867 302.418Z" fill="#F7B58E"/>
<path d="M491.723 307.558C484.341 328.388 495.882 374.542 495.882 374.542H502.453C502.453 374.542 499.354 309.119 507.901 307.558C494.842 307.558 497.337 307.558 491.723 307.558Z" fill="#212B53"/>
<path d="M508.753 284.231C508.67 285.854 508.296 287.602 507.443 289.412C503.721 297.174 491.515 298.194 491.515 298.194V303.167C491.515 303.167 504.948 304.562 514.409 295.822C517.84 292.659 519.046 288.372 519.192 284.231H508.753Z" fill="#F7B58E"/>
<path d="M508.691 285.001C508.94 284.876 509.211 284.772 509.46 284.647C509.897 278.904 506.549 274.596 506.508 274.534L505.925 274.992C505.967 275.033 509.315 279.362 508.691 285.001Z" fill="#F04637"/>
<path d="M477.271 255.098C477.271 255.098 478.644 254.682 478.852 252.206C479.06 249.709 480.245 250.479 480.245 250.479C480.245 250.479 479.642 260.301 478.061 260.675C476.502 261.05 477.271 255.098 477.271 255.098Z" fill="#F7B58E"/>
<path d="M499.001 307.558C496.984 333.111 513.287 374.542 513.287 374.542H521.105C521.105 374.542 515.803 348.052 515.699 323.186C515.678 317.796 515.886 312.511 516.468 307.558C511.062 307.558 503.888 307.558 499.001 307.558Z" fill="#053C5E"/>
<path d="M413.903 381.076C413.903 381.076 411.803 383.032 407.02 384.239C405.96 384.51 404.837 384.156 404.837 385.883C407.062 385.883 410.638 385.883 410.638 385.883L415.462 385.051V385.883H418.061C418.061 385.883 418.789 381.617 417.271 381.055C415.857 381.076 413.903 381.076 413.903 381.076Z" fill="#212B53"/>
<path d="M414.194 377.997L413.903 381.056C414.859 381.721 416.107 381.763 417.105 381.16L417.292 381.056L418.374 377.997H414.194Z" fill="#F7B58E"/>
<path d="M437.109 381.076C437.109 381.076 435.008 383.032 430.226 384.239C429.165 384.51 428.042 384.156 428.042 385.883C430.288 385.883 433.844 385.883 433.844 385.883L438.668 385.051V385.883H441.268C441.268 385.883 441.995 381.617 440.477 381.055C439.084 381.076 437.109 381.076 437.109 381.076Z" fill="#212B53"/>
<path d="M437.4 377.997L437.109 381.056C438.065 381.721 439.313 381.763 440.311 381.16L440.498 381.056L441.579 377.997H437.4Z" fill="#F7B58E"/>
<path d="M423.156 301.211H416.46L414.111 378.725H418.623L431.91 315.653L423.156 301.211Z" fill="#212B53"/>
<path d="M420.973 301.211L436.61 378.725H441.58L439.542 301.211H420.973Z" fill="#053C5E"/>
<path d="M434.551 318.254L436.048 318.15C436.048 318.15 435.986 317.089 436.734 316.319C437.317 315.736 438.252 315.424 439.5 315.424C440.872 315.424 441.912 315.736 442.494 316.298C443.056 316.86 443.035 317.526 443.035 317.567L444.532 317.65C444.532 317.525 444.595 316.36 443.596 315.341C442.723 314.446 441.33 313.988 439.5 313.988C437.795 313.988 436.485 314.446 435.611 315.361C434.447 316.589 434.551 318.191 434.551 318.254Z" fill="#212B53"/>
<path d="M428.146 334.41H450.52V320.01H428.146V334.41Z" fill="#212B53"/>
<path d="M438.523 329.72C438.523 330.594 438.939 330.698 439.458 330.698C439.978 330.698 440.394 330.594 440.394 329.72V326.661C446.84 325.995 450.521 324.85 450.521 324.85V325.246V336.212C450.521 337.232 450.126 338.043 449.523 338.043H429.124C428.521 338.043 428.126 337.211 428.126 336.212V324.892C432.804 325.974 433.096 325.995 438.481 326.64V329.72H438.523Z" fill="#FF7B7C"/>
<path d="M432.659 325.849C433.699 327.888 434.78 329.865 436.131 331.717C437.753 333.944 439.583 336.025 441.496 338.043H429.145C428.542 338.043 428.146 337.211 428.146 336.212V324.892C430.267 325.371 431.474 325.641 432.659 325.849Z" fill="#F04637"/>
<path d="M429.145 316.922H449.544C450.147 316.922 450.542 317.754 450.542 318.753V324.268C446.965 325.454 443.513 325.912 440.415 325.995V325.246C440.415 324.372 439.999 324.268 439.479 324.268C438.959 324.268 438.543 324.372 438.543 325.246V325.995C432.43 325.828 428.188 324.268 428.188 324.268V318.753C428.167 317.734 428.562 316.922 429.145 316.922Z" fill="#63C0C4"/>
<path d="M438.231 328.388V327.451C438.231 327.223 438.419 327.056 438.627 327.056H440.249C440.477 327.056 440.644 327.243 440.644 327.451V328.388C440.644 328.617 440.456 328.783 440.249 328.783H438.627C438.419 328.804 438.231 328.617 438.231 328.388ZM438.647 327.16C438.481 327.16 438.356 327.285 438.356 327.451V328.388C438.356 328.554 438.481 328.679 438.647 328.679H440.269C440.436 328.679 440.56 328.554 440.56 328.388V327.451C440.56 327.285 440.436 327.16 440.269 327.16H438.647Z" fill="white"/>
<path d="M439.333 327.805C439.333 327.868 439.375 327.909 439.437 327.909C439.5 327.909 439.541 327.868 439.541 327.805V326.494C439.541 326.432 439.5 326.39 439.437 326.39C439.375 326.39 439.333 326.432 439.333 326.494V327.805Z" fill="white"/>
<path d="M384.313 289.704C384.084 289.891 383.232 290.453 381.152 290.619C379.301 290.765 375.33 289.953 376.099 291.805C377.887 292.763 379.863 294.115 379.863 294.115C381.007 294.594 383.003 294.095 384.209 293.553L387.681 291.431C387.681 291.431 387.973 289.475 388.014 289.392L387.224 289.059C386.267 289.412 385.29 289.621 384.313 289.704Z" fill="#F7B58E"/>
<path d="M383.689 290.515C383.689 290.515 383.627 290.599 383.481 290.744C383.731 290.848 383.959 290.952 384.209 291.077C385.186 291.098 386.163 291.16 387.12 291.202C387.058 290.64 386.974 289.849 386.974 289.787L380.653 288.289C380.653 288.289 380.133 288.955 381.298 289.662C382.441 290.37 383.689 290.515 383.689 290.515Z" fill="#F7B58E"/>
<path d="M438.481 310.242L436.381 314.862C436.381 314.862 436.839 317.401 437.754 318.399C438.024 318.691 438.481 318.774 438.856 318.628C439.729 318.275 441.746 317.401 442.079 316.901C442.245 316.672 442.266 316.36 442.183 316.069L441.58 314.03L441.496 309.285L438.481 310.242Z" fill="#F7B58E"/>
<path d="M426.109 254.641L426.026 260.821L431.557 260.53L431.91 250.916L426.109 254.641Z" fill="#F39F85"/>
<path d="M425.194 255.202C424.425 255.182 423.718 255.057 423.343 254.765C421.118 251.519 423.655 242.8 423.655 242.8L427.211 241.302L431.723 244.111L431.973 249.959C432.035 251.519 431.287 253.017 429.956 253.995C428.521 254.807 426.857 255.244 425.194 255.202Z" fill="#F7B58E"/>
<path d="M430.455 247.441C430.205 246.463 430.871 244.194 429.873 244.361C429.145 244.486 426.649 244.59 425.797 244.59C423.801 244.59 420.224 243.799 420.224 240.761C420.224 239.242 421.16 238.472 422.096 238.077C423.011 237.702 424.05 238.805 424.986 239.117C427.19 239.887 431.744 240.511 432.908 240.262C434.239 239.991 435.612 241.344 435.716 242.155C435.944 243.924 434.759 246.629 433.886 248.315C433.387 249.293 432.701 250.187 431.89 250.937L430.455 247.441Z" fill="#212B53"/>
<path d="M433.033 247.67C432.596 247.274 431.744 247.357 431.162 247.836C430.579 248.315 430.475 249.043 430.912 249.438C431.349 249.834 432.201 249.75 432.784 249.272C433.366 248.772 433.47 248.044 433.033 247.67Z" fill="#F7B58E"/>
<path d="M428.958 258.886C431.474 258.886 433.636 259.427 435.424 260.217C439.874 262.173 443.035 266.252 444.137 270.996C445.884 278.446 448.837 296.155 442.079 311.678C440.082 311.865 437.566 311.678 437.566 311.678L436.838 275.096L437.358 301.211H416.44V284.356C416.44 284.356 415.899 288.164 410.846 291.681C405.793 295.197 386.829 292.867 386.829 292.867V288.913C386.829 288.913 403.443 285.417 406.146 283.357C408.85 281.297 414.714 266.481 414.714 266.481C416.544 262.86 419.891 260.197 423.863 259.364C425.319 259.073 427.003 258.886 428.958 258.886Z" fill="#01888B"/>
<path d="M437.109 301.357L436.61 276.199L437.15 276.178L437.65 301.357H437.109Z" fill="#63C0C4"/>
<path d="M431.661 257.117L431.994 259.156L425.651 259.135L426.067 257.117H431.661Z" fill="white"/>
<path d="M289.734 362.308C289.318 370.002 282.331 375.932 274.12 375.932H131.871C123.635 375.932 116.722 369.978 116.428 362.284L107.015 123.793C106.623 113.845 113.977 105.808 123.414 105.833L286.817 106.396C296.23 106.421 303.413 114.433 302.873 124.357L289.734 362.308Z" fill="#2D2C45"/>
<path d="M286.891 111.468L123.88 110.954C117.065 110.929 111.77 116.761 112.04 123.941L120.889 362.553C121.085 368.14 126.086 372.624 132.042 372.624H274.61C280.542 372.624 285.592 368.14 285.886 362.578L298.51 124.504C298.853 117.349 293.681 111.493 286.891 111.468Z" fill="#2D2C45"/>
<path d="M138.072 128.792C138.17 132.37 135.474 135.261 132.067 135.261C128.659 135.261 125.816 132.345 125.718 128.768C125.62 125.166 128.292 122.25 131.724 122.274C135.131 122.274 137.974 125.215 138.072 128.792Z" fill="#ACC1D6"/>
<path d="M284.758 129.233C284.586 132.811 281.718 135.702 278.335 135.678C274.952 135.678 272.33 132.762 272.477 129.184C272.624 125.582 275.492 122.691 278.924 122.691C282.306 122.715 284.929 125.656 284.758 129.233Z" fill="#ACC1D6"/>
<path d="M143.686 357.8C143.76 360.642 141.358 362.921 138.343 362.921C135.327 362.921 132.803 360.618 132.705 357.8C132.607 354.957 135.009 352.654 138.048 352.654C141.088 352.654 143.613 354.957 143.686 357.8Z" fill="#ACC1D6"/>
<path d="M274.121 357.849C273.999 360.667 271.449 362.97 268.434 362.97C265.419 362.97 263.066 360.691 263.189 357.849C263.311 355.006 265.861 352.703 268.876 352.703C271.915 352.703 274.244 355.006 274.121 357.849Z" fill="#ACC1D6"/>
<path d="M246.002 187.845C245.341 210.854 226.784 229.109 204.502 229.06C182.22 229.011 163.909 210.707 163.639 187.649C163.345 164.077 181.95 144.597 205.188 144.646C228.427 144.719 246.689 164.273 246.002 187.845Z" fill="#ACC1D6"/>
<path d="M239.556 187.82C239.066 207.276 223.402 222.738 204.551 222.688C185.701 222.664 170.258 207.129 170.086 187.649C169.89 167.801 185.603 151.457 205.14 151.506C224.652 151.58 240.071 167.997 239.556 187.82Z" fill="#2D2C45"/>
<path d="M231.614 187.796C231.296 202.817 219.211 214.823 204.625 214.799C190.04 214.774 178.127 202.719 178.053 187.674C177.98 172.408 190.065 159.887 205.067 159.936C220.069 159.96 231.933 172.555 231.614 187.796Z" fill="#ACC1D6"/>
<path d="M217.052 187.771C216.954 194.657 211.439 200.17 204.747 200.17C198.055 200.146 192.637 194.608 192.637 187.722C192.662 180.788 198.153 175.152 204.943 175.177C211.733 175.177 217.15 180.837 217.052 187.771Z" fill="#2D2C45"/>
<path d="M197.197 187.82C196.903 187.82 196.682 187.575 196.682 187.281C196.707 182.577 200.457 178.73 205.066 178.73C205.335 178.73 205.63 178.754 205.899 178.779C206.193 178.803 206.39 179.073 206.365 179.367C206.34 179.661 206.071 179.881 205.801 179.832C205.556 179.808 205.311 179.783 205.09 179.783C201.046 179.783 197.761 183.14 197.736 187.257C197.712 187.575 197.491 187.82 197.197 187.82Z" fill="#BDD0FB"/>
<path d="M260.809 296.713C259.682 326.632 234.066 350.204 203.547 350.179C173.004 350.179 147.731 326.558 147.069 296.591C146.383 265.643 172.072 239.865 204.429 239.914C236.762 239.988 261.986 265.814 260.809 296.713Z" fill="#ACC1D6"/>
<path d="M251.912 296.713C251.078 322.025 229.458 342.02 203.597 342.02C177.736 342.02 156.41 321.951 155.968 296.615C155.527 270.593 177.172 248.981 204.357 249.03C231.493 249.079 252.77 270.715 251.912 296.713Z" fill="#2D2C45"/>
<path d="M240.928 296.688C240.389 316.267 223.72 331.826 203.669 331.802C183.617 331.802 167.169 316.193 166.948 296.615C166.728 276.62 183.421 260.105 204.232 260.13C225.068 260.179 241.492 276.718 240.928 296.688Z" fill="#ACC1D6"/>
<path d="M220.829 296.689C220.682 305.657 213.083 312.861 203.842 312.861C194.625 312.861 187.124 305.632 187.124 296.664C187.124 287.598 194.723 280.198 204.111 280.223C213.5 280.223 220.976 287.623 220.829 296.689Z" fill="#2D2C45"/>
<path d="M193.423 296.762C193.031 296.762 192.712 296.444 192.712 296.076C192.737 289.901 197.934 284.878 204.307 284.878C204.699 284.878 205.067 284.903 205.435 284.927C205.827 284.976 206.121 285.295 206.072 285.687C206.023 286.079 205.68 286.348 205.288 286.299C204.969 286.275 204.626 286.25 204.283 286.25C198.694 286.25 194.134 290.661 194.134 296.052C194.134 296.468 193.815 296.762 193.423 296.762Z" fill="#BDD0FB"/>
<path d="M354.5 330C354.5 330 389.58 312.335 406.57 323.467C406.57 367.471 347.847 367.471 347.847 367.471L354.5 330Z" fill="#CDE9F1"/>
<path d="M406.562 323.469C406.554 323.63 406.554 323.783 406.546 323.943L371.378 344.961L392.309 352.696C392.067 352.888 391.824 353.081 391.574 353.274L370.498 345.483L356.762 353.692L357.157 352.527L383.903 336.544L388.102 320.184C388.384 320.144 388.675 320.096 388.958 320.064L384.88 335.966L406.182 323.236C406.311 323.317 406.441 323.389 406.562 323.469Z" fill="white"/>
<path d="M247.696 301.075C247.696 302.496 246.544 303.672 245.098 303.672H233.356C231.934 303.672 230.758 302.521 230.758 301.075V300.855C230.758 299.433 231.91 298.257 233.356 298.257H245.098C246.519 298.257 247.696 299.409 247.696 300.855V301.075Z" fill="url(#paint4_linear)"/>
<path d="M264.611 301.075C264.611 302.496 263.458 303.672 262.012 303.672H250.27C248.849 303.672 247.672 302.521 247.672 301.075V300.854C247.672 299.433 248.824 298.257 250.27 298.257H262.012C263.434 298.257 264.611 299.409 264.611 300.854V301.075Z" fill="url(#paint5_linear)"/>
<path d="M284.465 301.075C284.465 302.496 283.313 303.672 281.867 303.672H270.125C268.703 303.672 267.527 302.521 267.527 301.075V300.854C267.527 299.433 268.679 298.257 270.125 298.257H281.867C283.289 298.257 284.465 299.409 284.465 300.854V301.075Z" fill="url(#paint6_linear)"/>
<path d="M303.095 301.075C303.095 302.496 301.943 303.672 300.497 303.672H288.755C287.334 303.672 286.157 302.521 286.157 301.075V300.854C286.157 299.433 287.309 298.257 288.755 298.257H300.497C301.919 298.257 303.095 299.409 303.095 300.854V301.075Z" fill="url(#paint7_linear)"/>
<path d="M322.705 301.075C322.705 302.496 321.553 303.672 320.107 303.672H308.365C306.943 303.672 305.767 302.521 305.767 301.075V300.854C305.767 299.433 306.919 298.257 308.365 298.257H320.107C321.529 298.257 322.705 299.409 322.705 300.854V301.075Z" fill="url(#paint8_linear)"/>
<path d="M341.091 291.151H338.15V305.118H341.091V291.151Z" fill="url(#paint9_linear)"/>
<path d="M343.297 286.667C343.297 289.019 341.385 290.906 339.056 290.906H210.534C208.181 290.906 206.294 288.995 206.294 286.667V286.594C206.294 284.241 208.206 282.354 210.534 282.354H339.056C341.409 282.354 343.297 284.266 343.297 286.594V286.667Z" fill="url(#paint10_linear)"/>
<path d="M206.661 378.995C202.396 378.971 198.866 375.589 198.768 371.497L197.371 310.117C197.248 305.192 201.244 301.222 206.269 301.222L349.155 301.761C353.543 301.786 357.073 305.29 356.999 309.553L355.945 372.551C355.872 376.692 352.317 380.025 348.003 380L206.661 378.995Z" fill="url(#paint11_linear)"/>
<path d="M349.13 304.187L206.317 303.623C202.64 303.599 199.748 306.515 199.821 310.117L201.17 371.522C201.243 374.364 203.67 376.668 206.612 376.692L348.051 377.672C351.017 377.697 353.469 375.393 353.518 372.551L354.523 309.553C354.596 306.588 352.169 304.187 349.13 304.187Z" fill="url(#paint12_linear)"/>
<path d="M238.627 318.987C237.009 318.987 235.661 317.59 235.636 315.875L235.563 311.317C235.538 309.602 236.837 308.206 238.455 308.206L314.715 308.549C316.357 308.549 317.681 309.97 317.656 311.685L317.607 316.267C317.583 317.982 316.259 319.379 314.617 319.379L238.627 318.987Z" fill="url(#paint13_linear)"/>
<path d="M314.74 309.578L238.504 309.235C237.426 309.235 236.568 310.166 236.568 311.317L236.641 315.875C236.666 317.027 237.548 317.958 238.627 317.958L314.691 318.35C315.769 318.35 316.676 317.419 316.676 316.267L316.725 311.685C316.701 310.509 315.818 309.578 314.74 309.578Z" fill="url(#paint14_linear)"/>
<path d="M239.461 316.39C239.461 316.684 239.339 316.88 239.069 316.88H239.044C238.775 316.88 238.456 316.659 238.456 316.39L238.383 310.656C238.383 310.362 238.701 310.019 238.946 310.019H238.971C239.241 310.019 239.363 310.362 239.363 310.656L239.461 316.39Z" fill="url(#paint15_linear)"/>
<path d="M241.986 315.483C241.986 315.777 241.863 315.899 241.593 315.899H241.569C241.299 315.899 241.005 315.752 241.005 315.483L240.956 311.489C240.956 311.195 241.25 310.509 241.52 310.509H241.544C241.814 310.509 241.961 311.195 241.961 311.489L241.986 315.483Z" fill="url(#paint16_linear)"/>
<path d="M244.535 315.508C244.535 315.802 244.388 315.924 244.118 315.924H244.094C243.824 315.924 243.554 315.802 243.53 315.508L243.481 311.514C243.481 311.219 243.751 310.533 244.02 310.533H244.045C244.314 310.533 244.461 311.219 244.461 311.514L244.535 315.508Z" fill="url(#paint17_linear)"/>
<path d="M247.084 315.507C247.084 315.802 246.913 315.9 246.643 315.9H246.619C246.349 315.9 246.079 315.777 246.079 315.483L246.03 311.464C246.03 311.17 246.3 310.484 246.545 310.484H246.57C246.839 310.484 247.011 311.17 247.011 311.464L247.084 315.507Z" fill="url(#paint18_linear)"/>
<path d="M249.438 315.507C249.438 315.801 249.266 315.899 248.997 315.899H248.972C248.702 315.899 248.457 315.777 248.457 315.507L248.408 311.489C248.408 311.195 248.653 310.509 248.923 310.509H248.947C249.217 310.509 249.413 311.219 249.413 311.489L249.438 315.507Z" fill="url(#paint19_linear)"/>
<path d="M252.012 316.414C252.012 316.708 251.815 316.88 251.546 316.88H251.521C251.252 316.88 251.031 316.684 251.007 316.414L250.958 310.656C250.958 310.362 251.178 310.019 251.448 310.019H251.472C251.742 310.019 251.938 310.386 251.938 310.656L252.012 316.414Z" fill="url(#paint20_linear)"/>
<path d="M254.34 315.532C254.34 315.826 254.315 315.924 254.046 315.924H254.021C253.751 315.924 253.531 315.826 253.531 315.532L253.506 311.514C253.506 311.219 253.727 310.533 253.972 310.533H253.997C254.266 310.533 254.291 311.244 254.291 311.514L254.34 315.532Z" fill="url(#paint21_linear)"/>
<path d="M256.89 315.532C256.89 315.826 256.866 315.899 256.596 315.899H256.572C256.302 315.899 255.91 315.801 255.91 315.507L255.885 311.489C255.885 311.195 256.277 310.509 256.547 310.509H256.572C256.841 310.509 256.89 311.219 256.89 311.489V315.532Z" fill="url(#paint22_linear)"/>
<path d="M259.463 315.532C259.463 315.826 259.414 315.9 259.144 315.9H259.12C258.85 315.9 258.483 315.802 258.458 315.532L258.434 311.514C258.434 311.219 258.801 310.533 259.071 310.533H259.095C259.365 310.533 259.414 311.244 259.414 311.538L259.463 315.532Z" fill="url(#paint23_linear)"/>
<path d="M262.012 315.532C262.012 315.826 261.939 315.9 261.669 315.9H261.645C261.375 315.9 261.007 315.802 261.007 315.532L260.983 311.514C260.983 311.219 261.351 310.533 261.62 310.533H261.645C261.914 310.533 261.988 311.244 261.988 311.538L262.012 315.532Z" fill="url(#paint24_linear)"/>
<path d="M264.367 316.463C264.367 316.757 264.294 316.904 264.024 316.904H263.999C263.73 316.904 263.387 316.757 263.387 316.463L263.338 310.705C263.338 310.411 263.681 310.043 263.95 310.043H263.975C264.245 310.043 264.343 310.411 264.343 310.705L264.367 316.463Z" fill="url(#paint25_linear)"/>
<path d="M266.916 315.556C266.916 315.85 266.817 315.899 266.548 315.899H266.523C266.254 315.899 265.935 315.826 265.911 315.532L265.886 311.489C265.886 311.195 266.205 310.484 266.474 310.484H266.499C266.768 310.484 266.866 311.195 266.866 311.489L266.916 315.556Z" fill="url(#paint26_linear)"/>
<path d="M269.466 315.556C269.466 315.851 269.343 315.899 269.073 315.899H269.049C268.779 315.899 268.461 315.826 268.461 315.556L268.436 311.513C268.436 311.219 268.755 310.509 269.024 310.509H269.049C269.319 310.509 269.441 311.219 269.441 311.513L269.466 315.556Z" fill="url(#paint27_linear)"/>
<path d="M272.015 315.556C272.015 315.851 271.867 315.899 271.622 315.899H271.598C271.328 315.899 271.034 315.826 271.034 315.556L271.01 311.513C271.01 311.219 271.304 310.509 271.573 310.509H271.598C271.867 310.509 272.015 311.244 272.015 311.513V315.556Z" fill="url(#paint28_linear)"/>
<path d="M274.588 315.581C274.588 315.875 274.441 315.924 274.172 315.924H274.147C273.878 315.924 273.608 315.875 273.583 315.581L273.559 311.538C273.559 311.244 273.853 310.533 274.098 310.533H274.123C274.392 310.533 274.539 311.268 274.539 311.538L274.588 315.581Z" fill="url(#paint29_linear)"/>
<path d="M277.137 316.488C277.137 316.782 276.965 316.88 276.695 316.88H276.671C276.401 316.88 276.132 316.757 276.132 316.463L276.107 310.925C276.107 310.631 276.377 310.509 276.646 310.509H276.671C276.941 310.509 277.112 310.656 277.112 310.925L277.137 316.488Z" fill="url(#paint30_linear)"/>
<path d="M279.491 315.581C279.491 315.875 279.295 315.899 279.05 315.899H279.025C278.756 315.899 278.51 315.85 278.51 315.581V311.538C278.51 311.244 278.756 310.533 279.025 310.533H279.05C279.319 310.533 279.491 311.268 279.516 311.538L279.491 315.581Z" fill="url(#paint31_linear)"/>
<path d="M282.064 315.581C282.064 315.875 281.868 315.899 281.598 315.899H281.573C281.304 315.899 281.059 315.85 281.059 315.581V311.538C281.059 311.244 281.304 310.533 281.573 310.533H281.598C281.868 310.533 282.064 311.268 282.064 311.562V315.581Z" fill="url(#paint32_linear)"/>
<path d="M284.419 315.605C284.419 315.899 284.394 315.924 284.125 315.924H284.1C283.83 315.924 283.61 315.899 283.61 315.605V312.395C283.61 312.101 283.83 312.224 284.1 312.224H284.125C284.394 312.224 284.419 312.101 284.419 312.395V315.605Z" fill="url(#paint33_linear)"/>
<path d="M286.967 315.605C286.967 315.899 286.918 315.899 286.673 315.899H286.648C286.379 315.899 285.447 316.022 285.447 315.752V312.248C285.447 311.954 286.379 312.224 286.648 312.224H286.673C286.942 312.224 286.967 312.101 286.967 312.395V315.605Z" fill="url(#paint34_linear)"/>
<path d="M289.541 316.512C289.541 316.806 289.492 316.88 289.223 316.88H289.198C288.928 316.88 288.536 316.782 288.536 316.512V310.95C288.536 310.656 288.928 310.509 289.198 310.509H289.223C289.492 310.509 289.541 310.656 289.541 310.95V316.512Z" fill="url(#paint35_linear)"/>
<path d="M292.092 315.605C292.092 315.899 292.018 315.899 291.748 315.899H291.724C291.454 315.899 291.086 315.875 291.086 315.605V312.395C291.086 312.101 291.454 312.224 291.724 312.224H291.748C292.018 312.224 292.092 312.101 292.092 312.395V315.605Z" fill="url(#paint36_linear)"/>
<path d="M294.468 315.63C294.468 315.924 294.37 315.924 294.125 315.924H294.101C293.831 315.924 293.488 315.924 293.488 315.63V312.42C293.488 312.126 293.831 312.249 294.101 312.249H294.125C294.395 312.249 294.468 312.151 294.468 312.42V315.63Z" fill="url(#paint37_linear)"/>
<path d="M297.018 315.63C297.018 315.924 296.92 315.899 296.65 315.899H296.626C296.356 315.899 296.013 315.899 296.013 315.605V312.395C296.013 312.101 296.356 312.224 296.626 312.224H296.65C296.92 312.224 297.018 312.126 297.018 312.395V315.63Z" fill="url(#paint38_linear)"/>
<path d="M299.592 315.63C299.592 315.924 299.47 315.9 299.2 315.9H299.175C298.906 315.9 298.587 315.9 298.587 315.63L298.612 312.42C298.612 312.126 298.93 312.249 299.2 312.249H299.224C299.494 312.249 299.617 312.151 299.617 312.42L299.592 315.63Z" fill="url(#paint39_linear)"/>
<path d="M302.14 316.537C302.14 316.831 301.993 316.88 301.723 316.88H301.699C301.429 316.88 301.135 316.806 301.135 316.537L301.16 310.95C301.16 310.656 301.478 310.509 301.723 310.509H301.748C302.018 310.509 302.14 310.68 302.14 310.974V316.537Z" fill="url(#paint40_linear)"/>
<path d="M304.715 315.655C304.715 315.949 304.567 315.924 304.298 315.924H304.273C304.004 315.924 303.709 315.949 303.709 315.655L303.734 312.42C303.734 312.126 304.028 312.249 304.298 312.249H304.322C304.592 312.249 304.739 312.151 304.739 312.445L304.715 315.655Z" fill="url(#paint41_linear)"/>
<path d="M307.264 315.654C307.264 315.948 307.092 315.899 306.822 315.899H306.798C306.528 315.899 306.259 315.924 306.259 315.63L306.283 312.395C306.283 312.101 306.553 312.199 306.822 312.199H306.847C307.116 312.199 307.288 312.101 307.288 312.395L307.264 315.654Z" fill="url(#paint42_linear)"/>
<path d="M309.642 315.655C309.642 315.949 309.446 315.9 309.176 315.9H309.151C308.882 315.9 308.637 315.924 308.637 315.655L308.661 312.42C308.661 312.126 308.931 312.224 309.201 312.224H309.225C309.495 312.224 309.666 312.126 309.666 312.42L309.642 315.655Z" fill="url(#paint43_linear)"/>
<path d="M312.216 315.655C312.216 315.949 312.02 315.9 311.75 315.9H311.726C311.456 315.9 311.211 315.924 311.211 315.655L311.236 312.42C311.236 312.126 311.481 312.224 311.75 312.224H311.775C312.045 312.224 312.241 312.126 312.241 312.42L312.216 315.655Z" fill="url(#paint44_linear)"/>
<path d="M314.568 316.586C314.568 316.88 314.544 316.904 314.274 316.904H314.25C313.98 316.904 313.76 316.88 313.76 316.586L313.809 310.999C313.809 310.705 314.029 310.533 314.299 310.533H314.323C314.593 310.533 314.617 310.705 314.593 310.999L314.568 316.586Z" fill="url(#paint45_linear)"/>
<path d="M299.173 333.125C299.173 331.876 298.143 330.847 296.893 330.847H256.349C255.099 330.847 254.069 331.876 254.069 333.125V356.256C254.069 357.506 255.099 358.535 256.349 358.535H296.893C298.143 358.535 299.173 357.506 299.173 356.256V333.125Z" fill="#F04637"/>
<path d="M294.075 335.257H259.144C258.408 335.257 257.747 335.894 257.747 336.629V338.271C257.747 339.006 258.408 339.668 259.144 339.668H275.273C275.666 339.668 276.107 339.937 276.107 340.329V344.74C276.107 345.475 276.597 346.038 277.332 346.038H294.05C294.786 346.038 295.472 345.475 295.472 344.74V339.619V338.173V336.629C295.497 335.919 294.81 335.257 294.075 335.257Z" fill="url(#paint46_linear)"/>
<path d="M262.648 362.333C262.648 363.338 261.815 364.171 260.81 364.171H257.623C256.618 364.171 255.785 363.338 255.785 362.333C255.785 361.329 256.618 360.496 257.623 360.496H260.81C261.839 360.496 262.648 361.329 262.648 362.333Z" fill="#2D2C45"/>
<path d="M270.492 362.333C270.492 363.338 269.659 364.171 268.654 364.171H265.467C264.462 364.171 263.628 363.338 263.628 362.333C263.628 361.329 264.462 360.495 265.467 360.495H268.654C269.683 360.495 270.492 361.329 270.492 362.333Z" fill="#2D2C45"/>
<path d="M279.071 362.333C279.071 363.338 278.238 364.171 277.233 364.171H274.046C273.041 364.171 272.208 363.338 272.208 362.333C272.208 361.329 273.041 360.495 274.046 360.495H277.233C278.262 360.495 279.071 361.329 279.071 362.333Z" fill="#2D2C45"/>
<path d="M288.142 362.333C288.142 363.338 287.309 364.171 286.303 364.171H283.117C282.112 364.171 281.278 363.338 281.278 362.333C281.278 361.329 282.112 360.495 283.117 360.495H286.303C287.333 360.495 288.142 361.329 288.142 362.333Z" fill="#2D2C45"/>
<path d="M296.231 362.333C296.231 363.338 295.398 364.171 294.393 364.171H291.206C290.201 364.171 289.367 363.338 289.367 362.333C289.367 361.329 290.201 360.495 291.206 360.495H294.393C295.422 360.495 296.231 361.329 296.231 362.333Z" fill="#2D2C45"/>
<path d="M217.743 325.48C217.399 325.039 216.86 324.77 216.296 324.745C215.733 324.721 215.193 324.941 214.801 325.358L212.644 327.612C212.031 328.249 211.933 329.205 212.374 329.94L213.281 331.483L218.821 326.779L217.743 325.48Z" fill="#2D2C45"/>
<path d="M241.666 326.436C242.009 325.995 242.548 325.725 243.112 325.701C243.676 325.676 244.215 325.897 244.608 326.313L246.765 328.568C247.377 329.205 247.476 330.16 247.034 330.895L246.127 332.439L240.587 327.734L241.666 326.436Z" fill="#2D2C45"/>
<path d="M217.742 363.337C217.399 363.779 216.859 364.048 216.296 364.073C215.732 364.097 215.192 363.877 214.8 363.46L212.643 361.206C212.03 360.569 211.932 359.613 212.374 358.878L213.28 357.334L218.82 362.039L217.742 363.337Z" fill="#2D2C45"/>
<path d="M241.666 362.382C242.009 362.823 242.549 363.093 243.112 363.117C243.676 363.142 244.216 362.921 244.608 362.504L246.765 360.25C247.378 359.613 247.476 358.657 247.035 357.922L246.128 356.379L240.588 361.083L241.666 362.382Z" fill="#2D2C45"/>
<path d="M229.704 365.323C241.266 365.323 250.638 355.954 250.638 344.397C250.638 332.84 241.266 323.471 229.704 323.471C218.143 323.471 208.77 332.84 208.77 344.397C208.77 355.954 218.143 365.323 229.704 365.323Z" fill="#2D2C45"/>
<path d="M229.704 360.961C238.856 360.961 246.275 353.545 246.275 344.397C246.275 335.249 238.856 327.833 229.704 327.833C220.553 327.833 213.134 335.249 213.134 344.397C213.134 353.545 220.553 360.961 229.704 360.961Z" fill="url(#paint47_linear)"/>
<path d="M229.704 351.748C233.765 351.748 237.058 348.457 237.058 344.397C237.058 340.337 233.765 337.046 229.704 337.046C225.643 337.046 222.35 340.337 222.35 344.397C222.35 348.457 225.643 351.748 229.704 351.748Z" fill="#2D2C45"/>
<path d="M212.104 338.369H212.08C212.006 338.344 211.982 338.271 212.006 338.222C213.085 334.669 215.34 331.483 218.33 329.254C221.419 326.95 225.096 325.725 228.945 325.725C229.827 325.725 230.709 325.799 231.567 325.921C231.641 325.921 231.69 325.995 231.665 326.068C231.665 326.142 231.592 326.191 231.518 326.166C230.66 326.044 229.802 325.97 228.945 325.97C221.223 325.97 214.506 330.92 212.227 338.295C212.202 338.344 212.153 338.369 212.104 338.369Z" fill="url(#paint48_linear)"/>
<path d="M335.5 325.48C335.844 325.039 336.383 324.77 336.947 324.745C337.51 324.721 338.05 324.941 338.442 325.358L340.599 327.612C341.212 328.249 341.31 329.205 340.869 329.94L339.962 331.484L334.422 326.779L335.5 325.48Z" fill="#2D2C45"/>
<path d="M311.576 326.436C311.233 325.995 310.694 325.725 310.13 325.701C309.566 325.676 309.027 325.897 308.635 326.313L306.477 328.568C305.865 329.205 305.767 330.16 306.208 330.895L307.115 332.439L312.655 327.734L311.576 326.436Z" fill="#2D2C45"/>
<path d="M335.5 363.338C335.843 363.779 336.382 364.048 336.946 364.073C337.51 364.097 338.049 363.877 338.441 363.46L340.599 361.206C341.211 360.569 341.309 359.613 340.868 358.878L339.961 357.334L334.421 362.039L335.5 363.338Z" fill="#2D2C45"/>
<path d="M311.576 362.382C311.232 362.823 310.693 363.093 310.129 363.117C309.566 363.142 309.026 362.921 308.634 362.505L306.477 360.25C305.864 359.613 305.766 358.658 306.207 357.922L307.114 356.379L312.654 361.083L311.576 362.382Z" fill="#2D2C45"/>
<path d="M323.539 365.323C335.1 365.323 344.473 355.954 344.473 344.397C344.473 332.84 335.1 323.471 323.539 323.471C311.977 323.471 302.605 332.84 302.605 344.397C302.605 355.954 311.977 365.323 323.539 365.323Z" fill="#2D2C45"/>
<path d="M323.538 360.961C332.69 360.961 340.109 353.545 340.109 344.397C340.109 335.249 332.69 327.833 323.538 327.833C314.386 327.833 306.968 335.249 306.968 344.397C306.968 353.545 314.386 360.961 323.538 360.961Z" fill="url(#paint49_linear)"/>
<path d="M323.538 351.748C327.599 351.748 330.892 348.457 330.892 344.397C330.892 340.337 327.599 337.046 323.538 337.046C319.476 337.046 316.184 340.337 316.184 344.397C316.184 348.457 319.476 351.748 323.538 351.748Z" fill="#2D2C45"/>
<path d="M341.138 338.369H341.163C341.236 338.344 341.261 338.271 341.236 338.222C340.158 334.669 337.903 331.483 334.912 329.254C331.823 326.95 328.146 325.725 324.298 325.725C323.415 325.725 322.533 325.799 321.675 325.921C321.601 325.921 321.552 325.995 321.577 326.068C321.577 326.142 321.65 326.191 321.724 326.166C322.582 326.044 323.44 325.97 324.298 325.97C332.019 325.97 338.736 330.92 341.016 338.295C341.04 338.344 341.089 338.369 341.138 338.369Z" fill="url(#paint50_linear)"/>
<path d="M298.022 356.33H292.948C292.335 356.33 291.771 355.962 291.379 355.472L290.349 354.198C290.055 353.831 289.614 353.635 289.148 353.635H264.39C263.998 353.635 263.606 353.733 263.311 354.002L261.743 355.644C261.35 356.036 260.836 356.306 260.296 356.306H255.394C255.271 356.306 255.149 356.306 255.149 356.306C255.149 356.306 255.247 356.306 255.394 356.306H260.296C260.713 356.306 261.105 355.791 261.399 355.497L262.968 353.806C263.336 353.439 263.851 353.12 264.39 353.12H289.148C289.761 353.12 290.349 353.341 290.717 353.806L291.746 355.399C292.041 355.766 292.482 356.281 292.948 356.281H298.022C298.144 356.281 298.267 356.281 298.267 356.281C298.267 356.281 298.169 356.33 298.022 356.33Z" fill="url(#paint51_linear)"/>
<g opacity="0.79">
<path opacity="0.79" d="M312.116 286.251H274.366C274.072 286.251 273.827 285.932 273.827 285.638C273.827 285.344 274.072 285.025 274.366 285.025H312.116C312.41 285.025 312.656 285.344 312.656 285.638C312.656 285.932 312.41 286.251 312.116 286.251Z" fill="white"/>
<path opacity="0.79" d="M240.881 286.251H230.782C230.488 286.251 230.243 285.932 230.243 285.638C230.243 285.344 230.488 285.025 230.782 285.025H240.881C241.176 285.025 241.421 285.344 241.421 285.638C241.421 285.932 241.176 286.251 240.881 286.251Z" fill="white"/>
<path opacity="0.79" d="M226.002 286.251H214.309C214.015 286.251 213.77 285.932 213.77 285.638C213.77 285.344 214.015 285.026 214.309 285.026H226.002C226.296 285.026 226.541 285.344 226.541 285.638C226.541 285.932 226.296 286.251 226.002 286.251Z" fill="white"/>
</g>
<path opacity="0.77" d="M202.592 329.18C202.298 329.18 202.102 328.935 202.102 328.641V312.91C202.102 309.161 205.436 306.343 209.872 306.343H226.517C226.811 306.343 227.056 306.539 227.056 306.833C227.056 307.127 226.811 307.323 226.517 307.323H209.872C206.612 307.323 203.082 309.333 203.082 312.91V328.641C203.082 328.96 202.886 329.18 202.592 329.18Z" fill="white"/>
<defs>
<linearGradient id="paint0_linear" x1="104.759" y1="23.7079" x2="142.483" y2="7.23097" gradientUnits="userSpaceOnUse">
<stop offset="6.3e-07" stop-color="#F1F8F7"/>
<stop offset="1" stop-color="#BFE3EE"/>
</linearGradient>
<linearGradient id="paint1_linear" x1="97.5044" y1="28.1041" x2="142.692" y2="8.36781" gradientUnits="userSpaceOnUse">
<stop offset="6.3e-07" stop-color="#F1F8F7"/>
<stop offset="1" stop-color="#BFE3EE"/>
</linearGradient>
<linearGradient id="paint2_linear" x1="442.867" y1="94.6003" x2="476.4" y2="94.6003" gradientUnits="userSpaceOnUse">
<stop offset="6.3e-07" stop-color="#F1F8F7"/>
<stop offset="1" stop-color="#BFE3EE"/>
</linearGradient>
<linearGradient id="paint3_linear" x1="442.867" y1="104.75" x2="469.909" y2="104.75" gradientUnits="userSpaceOnUse">
<stop offset="6.3e-07" stop-color="#F1F8F7"/>
<stop offset="1" stop-color="#BFE3EE"/>
</linearGradient>
<linearGradient id="paint4_linear" x1="240.156" y1="297.513" x2="237.398" y2="307.96" gradientUnits="userSpaceOnUse">
<stop stop-color="#E1473D"/>
<stop offset="1" stop-color="#E9605A"/>
</linearGradient>
<linearGradient id="paint5_linear" x1="257.071" y1="297.513" x2="254.313" y2="307.959" gradientUnits="userSpaceOnUse">
<stop stop-color="#E1473D"/>
<stop offset="1" stop-color="#E9605A"/>
</linearGradient>
<linearGradient id="paint6_linear" x1="276.926" y1="297.513" x2="274.168" y2="307.959" gradientUnits="userSpaceOnUse">
<stop stop-color="#E1473D"/>
<stop offset="1" stop-color="#E9605A"/>
</linearGradient>
<linearGradient id="paint7_linear" x1="295.556" y1="297.513" x2="292.798" y2="307.959" gradientUnits="userSpaceOnUse">
<stop stop-color="#E1473D"/>
<stop offset="1" stop-color="#E9605A"/>
</linearGradient>
<linearGradient id="paint8_linear" x1="315.166" y1="297.513" x2="312.408" y2="307.959" gradientUnits="userSpaceOnUse">
<stop stop-color="#E1473D"/>
<stop offset="1" stop-color="#E9605A"/>
</linearGradient>
<linearGradient id="paint9_linear" x1="341.176" y1="292.28" x2="336.485" y2="310.049" gradientUnits="userSpaceOnUse">
<stop stop-color="#E1473D"/>
<stop offset="1" stop-color="#E9605A"/>
</linearGradient>
<linearGradient id="paint10_linear" x1="279.285" y1="269.61" x2="265.667" y2="321.192" gradientUnits="userSpaceOnUse">
<stop stop-color="#FE7062"/>
<stop offset="1" stop-color="#FF928E"/>
</linearGradient>
<linearGradient id="paint11_linear" x1="356.702" y1="125.311" x2="324.368" y2="212.55" gradientUnits="userSpaceOnUse">
<stop stop-color="#E1473D"/>
<stop offset="1" stop-color="#E9605A"/>
</linearGradient>
<linearGradient id="paint12_linear" x1="277.553" y1="275.443" x2="275.44" y2="472.722" gradientUnits="userSpaceOnUse">
<stop stop-color="#FE7062"/>
<stop offset="1" stop-color="#FF928E"/>
</linearGradient>
<linearGradient id="paint13_linear" x1="279.832" y1="301.518" x2="270.053" y2="338.561" gradientUnits="userSpaceOnUse">
<stop stop-color="#E1473D"/>
<stop offset="1" stop-color="#E9605A"/>
</linearGradient>
<linearGradient id="paint14_linear" x1="285.048" y1="257.92" x2="280.639" y2="287.079" gradientUnits="userSpaceOnUse">
<stop stop-color="#FF928E"/>
<stop offset="1" stop-color="#FEB3B1"/>
</linearGradient>
<linearGradient id="paint15_linear" x1="240.484" y1="275.105" x2="239.259" y2="305.489" gradientUnits="userSpaceOnUse">
<stop stop-color="#E1473D"/>
<stop offset="1" stop-color="#E9605A"/>
</linearGradient>
<linearGradient id="paint16_linear" x1="243.029" y1="275.207" x2="241.804" y2="305.592" gradientUnits="userSpaceOnUse">
<stop stop-color="#E1473D"/>
<stop offset="1" stop-color="#E9605A"/>
</linearGradient>
<linearGradient id="paint17_linear" x1="245.574" y1="275.31" x2="244.349" y2="305.694" gradientUnits="userSpaceOnUse">
<stop stop-color="#E1473D"/>
<stop offset="1" stop-color="#E9605A"/>
</linearGradient>
<linearGradient id="paint18_linear" x1="248.119" y1="275.413" x2="246.894" y2="305.797" gradientUnits="userSpaceOnUse">
<stop stop-color="#E1473D"/>
<stop offset="1" stop-color="#E9605A"/>
</linearGradient>
<linearGradient id="paint19_linear" x1="250.47" y1="275.507" x2="249.245" y2="305.892" gradientUnits="userSpaceOnUse">
<stop stop-color="#E1473D"/>
<stop offset="1" stop-color="#E9605A"/>
</linearGradient>
<linearGradient id="paint20_linear" x1="253.015" y1="275.61" x2="251.79" y2="305.994" gradientUnits="userSpaceOnUse">
<stop stop-color="#E1473D"/>
<stop offset="1" stop-color="#E9605A"/>
</linearGradient>
<linearGradient id="paint21_linear" x1="255.466" y1="275.709" x2="254.242" y2="306.093" gradientUnits="userSpaceOnUse">
<stop stop-color="#E1473D"/>
<stop offset="1" stop-color="#E9605A"/>
</linearGradient>
<linearGradient id="paint22_linear" x1="257.917" y1="275.808" x2="256.693" y2="306.192" gradientUnits="userSpaceOnUse">
<stop stop-color="#E1473D"/>
<stop offset="1" stop-color="#E9605A"/>
</linearGradient>
<linearGradient id="paint23_linear" x1="260.465" y1="275.911" x2="259.24" y2="306.295" gradientUnits="userSpaceOnUse">
<stop stop-color="#E1473D"/>
<stop offset="1" stop-color="#E9605A"/>
</linearGradient>
<linearGradient id="paint24_linear" x1="263.014" y1="276.013" x2="261.789" y2="306.397" gradientUnits="userSpaceOnUse">
<stop stop-color="#E1473D"/>
<stop offset="1" stop-color="#E9605A"/>
</linearGradient>
<linearGradient id="paint25_linear" x1="265.369" y1="276.108" x2="264.145" y2="306.492" gradientUnits="userSpaceOnUse">
<stop stop-color="#E1473D"/>
<stop offset="1" stop-color="#E9605A"/>
</linearGradient>
<linearGradient id="paint26_linear" x1="267.919" y1="276.211" x2="266.695" y2="306.595" gradientUnits="userSpaceOnUse">
<stop stop-color="#E1473D"/>
<stop offset="1" stop-color="#E9605A"/>
</linearGradient>
<linearGradient id="paint27_linear" x1="270.471" y1="276.314" x2="269.247" y2="306.698" gradientUnits="userSpaceOnUse">
<stop stop-color="#E1473D"/>
<stop offset="1" stop-color="#E9605A"/>
</linearGradient>
<linearGradient id="paint28_linear" x1="273.023" y1="276.416" x2="271.798" y2="306.801" gradientUnits="userSpaceOnUse">
<stop stop-color="#E1473D"/>
<stop offset="1" stop-color="#E9605A"/>
</linearGradient>
<linearGradient id="paint29_linear" x1="275.576" y1="276.519" x2="274.351" y2="306.903" gradientUnits="userSpaceOnUse">
<stop stop-color="#E1473D"/>
<stop offset="1" stop-color="#E9605A"/>
</linearGradient>
<linearGradient id="paint30_linear" x1="278.135" y1="276.622" x2="276.91" y2="307.007" gradientUnits="userSpaceOnUse">
<stop stop-color="#E1473D"/>
<stop offset="1" stop-color="#E9605A"/>
</linearGradient>
<linearGradient id="paint31_linear" x1="280.487" y1="276.717" x2="279.262" y2="307.101" gradientUnits="userSpaceOnUse">
<stop stop-color="#E1473D"/>
<stop offset="1" stop-color="#E9605A"/>
</linearGradient>
<linearGradient id="paint32_linear" x1="283.041" y1="276.82" x2="281.816" y2="307.204" gradientUnits="userSpaceOnUse">
<stop stop-color="#E1473D"/>
<stop offset="1" stop-color="#E9605A"/>
</linearGradient>
<linearGradient id="paint33_linear" x1="285.519" y1="276.92" x2="284.294" y2="307.304" gradientUnits="userSpaceOnUse">
<stop stop-color="#E1473D"/>
<stop offset="1" stop-color="#E9605A"/>
</linearGradient>
<linearGradient id="paint34_linear" x1="287.704" y1="277.008" x2="286.479" y2="307.392" gradientUnits="userSpaceOnUse">
<stop stop-color="#E1473D"/>
<stop offset="1" stop-color="#E9605A"/>
</linearGradient>
<linearGradient id="paint35_linear" x1="290.522" y1="277.122" x2="289.297" y2="307.506" gradientUnits="userSpaceOnUse">
<stop stop-color="#E1473D"/>
<stop offset="1" stop-color="#E9605A"/>
</linearGradient>
<linearGradient id="paint36_linear" x1="293.092" y1="277.225" x2="291.867" y2="307.609" gradientUnits="userSpaceOnUse">
<stop stop-color="#E1473D"/>
<stop offset="1" stop-color="#E9605A"/>
</linearGradient>
<linearGradient id="paint37_linear" x1="295.452" y1="277.32" x2="294.227" y2="307.705" gradientUnits="userSpaceOnUse">
<stop stop-color="#E1473D"/>
<stop offset="1" stop-color="#E9605A"/>
</linearGradient>
<linearGradient id="paint38_linear" x1="298.011" y1="277.424" x2="296.786" y2="307.808" gradientUnits="userSpaceOnUse">
<stop stop-color="#E1473D"/>
<stop offset="1" stop-color="#E9605A"/>
</linearGradient>
<linearGradient id="paint39_linear" x1="300.571" y1="277.527" x2="299.346" y2="307.911" gradientUnits="userSpaceOnUse">
<stop stop-color="#E1473D"/>
<stop offset="1" stop-color="#E9605A"/>
</linearGradient>
<linearGradient id="paint40_linear" x1="303.119" y1="277.63" x2="301.894" y2="308.014" gradientUnits="userSpaceOnUse">
<stop stop-color="#E1473D"/>
<stop offset="1" stop-color="#E9605A"/>
</linearGradient>
<linearGradient id="paint41_linear" x1="305.692" y1="277.733" x2="304.467" y2="308.118" gradientUnits="userSpaceOnUse">
<stop stop-color="#E1473D"/>
<stop offset="1" stop-color="#E9605A"/>
</linearGradient>
<linearGradient id="paint42_linear" x1="308.253" y1="277.836" x2="307.028" y2="308.221" gradientUnits="userSpaceOnUse">
<stop stop-color="#E1473D"/>
<stop offset="1" stop-color="#E9605A"/>
</linearGradient>
<linearGradient id="paint43_linear" x1="310.619" y1="277.931" x2="309.394" y2="308.316" gradientUnits="userSpaceOnUse">
<stop stop-color="#E1473D"/>
<stop offset="1" stop-color="#E9605A"/>
</linearGradient>
<linearGradient id="paint44_linear" x1="313.182" y1="278.035" x2="311.958" y2="308.419" gradientUnits="userSpaceOnUse">
<stop stop-color="#E1473D"/>
<stop offset="1" stop-color="#E9605A"/>
</linearGradient>
<linearGradient id="paint45_linear" x1="315.638" y1="278.134" x2="314.413" y2="308.518" gradientUnits="userSpaceOnUse">
<stop stop-color="#E1473D"/>
<stop offset="1" stop-color="#E9605A"/>
</linearGradient>
<linearGradient id="paint46_linear" x1="278.836" y1="332.336" x2="273.972" y2="350.761" gradientUnits="userSpaceOnUse">
<stop stop-color="#FF928E"/>
<stop offset="1" stop-color="#FEB3B1"/>
</linearGradient>
<linearGradient id="paint47_linear" x1="229.708" y1="344.471" x2="227.259" y2="281.498" gradientUnits="userSpaceOnUse">
<stop stop-color="#FE7062"/>
<stop offset="1" stop-color="#FF928E"/>
</linearGradient>
<linearGradient id="paint48_linear" x1="211.989" y1="332.041" x2="231.655" y2="332.041" gradientUnits="userSpaceOnUse">
<stop stop-color="#FF928E"/>
<stop offset="1" stop-color="#FEB3B1"/>
</linearGradient>
<linearGradient id="paint49_linear" x1="324.23" y1="326.688" x2="326.679" y2="263.715" gradientUnits="userSpaceOnUse">
<stop stop-color="#FE7062"/>
<stop offset="1" stop-color="#FF928E"/>
</linearGradient>
<linearGradient id="paint50_linear" x1="321.59" y1="332.041" x2="341.256" y2="332.041" gradientUnits="userSpaceOnUse">
<stop stop-color="#FF928E"/>
<stop offset="1" stop-color="#FEB3B1"/>
</linearGradient>
<linearGradient id="paint51_linear" x1="276.725" y1="311.495" x2="276.725" y2="339.184" gradientUnits="userSpaceOnUse">
<stop stop-color="#FF928E"/>
<stop offset="1" stop-color="#FEB3B1"/>
</linearGradient>
</defs>
</svg>
