<svg width="520" height="369" viewBox="0 0 520 369" fill="none" xmlns="http://www.w3.org/2000/svg">
<path d="M208.625 1.90216V21.7951H237.766V49.3452H236.847V251.193C236.847 266.988 249.778 279.923 265.568 279.923C268.066 279.923 420.445 280.063 420.445 280.063V48.0657C420.445 22.5548 399.779 1.88217 374.275 1.88217H208.625V1.90216Z" fill="#D2DEEC"/>
<path d="M188.739 40.2885V21.8351C188.739 10.3392 198.153 0.902561 209.645 0.882568C225.434 0.882568 238.366 13.698 238.366 29.3724V40.3084H188.739V40.2885Z" fill="#6680A1"/>
<path d="M384.009 53.2638H284.895V57.4224H384.009V53.2638Z" fill="#25374B"/>
<path d="M384.009 69.9179H284.895V74.0764H384.009V69.9179Z" fill="#25374B"/>
<path d="M384.009 88.6512H284.895V92.8097H384.009V88.6512Z" fill="#25374B"/>
<path d="M384.009 105.285H284.895V109.444H384.009V105.285Z" fill="#25374B"/>
<path d="M384.009 123.439H284.895V127.597H384.009V123.439Z" fill="#25374B"/>
<path d="M384.009 140.093H284.895V144.251H384.009V140.093Z" fill="#25374B"/>
<path d="M384.009 158.806H284.895V162.965H384.009V158.806Z" fill="#25374B"/>
<path d="M384.009 175.46H284.895V179.619H384.009V175.46Z" fill="#25374B"/>
<path d="M427.86 280.063C396.321 280.063 273.942 280.063 273.942 280.063C273.942 280.063 305.061 273.665 294.688 235.279C342.397 235.279 458.54 235.279 458.54 235.279C458.54 235.279 468.913 280.063 427.86 280.063Z" fill="#63C0C4"/>
<path d="M379.293 187.306C378.766 186.253 374.635 184.476 369.714 183.44C369.418 179.114 368.496 174.92 366.998 170.972C370.734 168.653 374.437 165.824 374.487 163.652C374.602 159.244 366.751 150.164 364.974 149.572C363.838 149.194 359.526 150.937 355.23 153.75C352.12 150.954 348.597 148.569 344.713 146.743C345.717 142.45 346.343 137.828 344.845 136.232C341.816 133.025 329.835 132.169 328.156 133.008C327.102 133.535 325.341 137.647 324.288 142.532C319.894 142.68 315.598 143.503 311.549 144.884C309.278 141.298 306.579 137.861 304.472 137.795C300.061 137.68 290.976 145.526 290.383 147.302C290.038 148.355 291.502 152.155 293.988 156.135C290.893 159.376 288.26 163.109 286.269 167.255C282.368 166.432 278.467 166.07 277.052 167.419C273.842 170.446 272.986 182.42 273.826 184.098C274.303 185.036 277.677 186.565 281.907 187.618C282.039 192.421 282.944 197.076 284.54 201.451C281.413 203.54 278.681 205.893 278.632 207.751C278.517 212.16 286.367 221.239 288.145 221.831C289.116 222.16 292.457 220.91 296.094 218.772C299.551 221.963 303.567 224.611 307.994 226.569C307.27 230.253 307.006 233.806 308.274 235.155C311.302 238.362 323.284 239.218 324.963 238.379C325.901 237.902 327.432 234.513 328.501 230.27C333.209 229.99 337.784 228.937 342.047 227.243C344.203 230.549 346.688 233.527 348.63 233.576C353.041 233.691 362.126 225.845 362.719 224.068C363.064 222.999 361.583 219.167 359.065 215.17C361.945 211.864 364.348 208.097 366.142 203.952C370.257 204.873 374.536 205.366 376.05 203.935C379.276 200.942 380.132 188.983 379.293 187.306ZM322.115 205.728C311.467 203.672 304.488 193.359 306.562 182.7C308.619 172.058 318.939 165.083 329.604 167.156C340.269 169.212 347.231 179.525 345.158 190.184C343.084 200.826 332.781 207.784 322.115 205.728Z" fill="#617B9B"/>
<path d="M320.766 213.492C305.624 210.564 295.699 195.859 298.629 180.726C301.559 165.593 316.273 155.675 331.414 158.603C346.556 161.53 356.481 176.236 353.551 191.368C350.622 206.501 335.908 216.42 320.766 213.492ZM331.332 158.997C316.404 156.102 301.904 165.889 299.024 180.808C296.127 195.727 305.92 210.219 320.848 213.097C335.776 215.992 350.276 206.205 353.156 191.286C356.053 176.367 346.26 161.876 331.332 158.997Z" fill="white"/>
<path d="M366.603 185.661C366.422 185.611 366.257 185.545 366.076 185.48C366.159 188.342 365.928 191.253 365.369 194.181C361.155 215.877 340.072 230.105 318.363 225.911C304.143 223.164 293.132 213.179 288.408 200.514C288.227 200.514 288.046 200.514 287.849 200.514C292.605 213.426 303.797 223.624 318.264 226.421C340.253 230.681 361.616 216.255 365.879 194.28C366.439 191.385 366.669 188.49 366.603 185.661Z" fill="white"/>
<path d="M307.961 150.789C315.614 146.924 324.568 145.46 333.636 147.204C333.817 147.236 333.982 147.286 334.163 147.319C334.13 147.138 334.114 146.957 334.097 146.776C333.982 146.759 333.867 146.727 333.735 146.694C324.601 144.917 315.565 146.381 307.829 150.279C307.862 150.444 307.912 150.625 307.961 150.789Z" fill="white"/>
<path d="M291.782 174.953C290.976 173.456 284.952 171.054 277.809 169.722C277.216 163.504 275.718 157.484 273.414 151.842C278.714 148.355 283.948 144.144 283.948 141.002C283.964 134.637 272.279 121.84 269.695 121.05C268.032 120.557 261.877 123.221 255.787 127.465C251.195 123.55 246.011 120.244 240.349 117.744C241.649 111.526 242.357 104.815 240.135 102.578C235.642 98.0712 218.327 97.2652 215.941 98.5482C214.443 99.3542 212.056 105.342 210.723 112.447C204.37 112.826 198.231 114.158 192.438 116.329C189.031 111.23 184.998 106.378 181.97 106.361C175.601 106.345 162.796 118.023 162.006 120.606C161.545 122.136 163.816 127.58 167.552 133.222C163.207 138.025 159.553 143.519 156.821 149.572C151.176 148.536 145.531 148.141 143.523 150.148C139.013 154.638 138.207 171.942 139.49 174.327C140.215 175.66 145.136 177.749 151.275 179.114C151.637 186.023 153.118 192.717 155.587 198.984C151.143 202.109 147.308 205.597 147.308 208.294C147.292 214.66 158.977 227.457 161.561 228.246C162.977 228.674 167.733 226.766 172.918 223.526C178.036 228 183.912 231.668 190.38 234.332C189.459 239.662 189.228 244.827 191.121 246.718C195.614 251.225 212.929 252.031 215.315 250.748C216.665 250.025 218.739 245.09 220.105 238.922C226.902 238.346 233.436 236.652 239.542 234.036C242.785 238.724 246.471 242.919 249.286 242.919C255.655 242.935 268.46 231.257 269.25 228.674C269.711 227.128 267.423 221.65 263.654 215.976C267.687 211.09 270.995 205.564 273.447 199.527C279.422 200.711 285.626 201.254 287.75 199.132C292.259 194.642 293.066 177.338 291.782 174.953ZM209.983 203.688C194.528 201.106 184.093 186.5 186.661 171.054C189.245 155.609 203.86 145.18 219.315 147.746C234.769 150.329 245.204 164.935 242.637 180.381C240.053 195.826 225.437 206.254 209.983 203.688Z" fill="#475B73"/>
<path d="M208.337 214.939C186.364 211.271 171.486 190.447 175.14 168.505C178.81 146.562 199.647 131.676 221.602 135.344C243.558 139.012 258.453 159.836 254.783 181.779C251.129 203.721 230.293 218.591 208.337 214.939ZM221.52 135.903C199.877 132.301 179.32 146.957 175.716 168.603C172.111 190.233 186.776 210.778 208.435 214.38C230.079 217.982 250.635 203.327 254.24 181.68C257.844 160.05 243.163 139.505 221.52 135.903Z" fill="white"/>
<path d="M273.414 173.044C273.151 172.979 272.904 172.896 272.641 172.814C272.855 176.943 272.657 181.154 271.949 185.397C266.699 216.864 236.81 238.198 205.325 232.951C184.702 229.513 168.441 215.515 161.15 197.438C160.887 197.454 160.623 197.454 160.36 197.454C167.7 215.91 184.241 230.204 205.226 233.691C237.123 239.004 267.39 217.407 272.707 185.529C273.398 181.318 273.612 177.14 273.414 173.044Z" fill="white"/>
<path d="M187.467 124.948C198.379 119.076 211.233 116.625 224.367 118.813C224.631 118.862 224.878 118.912 225.125 118.961C225.075 118.698 225.042 118.435 225.009 118.171C224.828 118.139 224.664 118.106 224.499 118.073C211.25 115.869 198.264 118.319 187.253 124.208C187.319 124.455 187.401 124.702 187.467 124.948Z" fill="white"/>
<path d="M193.912 226.306C193.912 226.306 218.32 150.066 173.207 112.546C84.989 161.662 133.558 248.232 133.558 248.232L193.912 226.306Z" fill="#C1D5F0"/>
<path d="M173.207 112.546C172.895 112.711 172.598 112.891 172.302 113.056L166.904 207.225L124.819 166.103C124.605 166.728 124.407 167.337 124.21 167.962L166.772 209.544L165.208 236.718L167.002 236.06L170.097 181.894L199.508 164.606C199.426 163.981 199.344 163.34 199.261 162.715L170.228 179.788L174.03 113.27C173.767 113.023 173.504 112.776 173.207 112.546Z" fill="white"/>
<path d="M173.043 208.853C173.043 208.853 144.504 134.291 88.7746 127.004C48.3851 181.17 101.991 235.368 101.991 235.368L166.41 262.361L173.043 208.853Z" fill="#6680A1"/>
<path d="M142.38 158.8L126.317 190.349L90.0911 127.185C89.6467 127.12 89.2188 127.037 88.7744 126.988C88.6099 127.202 88.4782 127.416 88.3136 127.63L107.718 161.465L75.4759 154.885C75.41 155.198 75.3442 155.494 75.2784 155.79L75.1138 156.596L108.887 163.488L141.228 219.874L84.2812 210.136C84.6269 210.794 84.9725 211.452 85.3181 212.094L142.364 221.848L165.324 261.884L166.41 262.345L166.624 260.618L127.37 192.191L143.631 160.247C143.22 159.754 142.792 159.277 142.38 158.8Z" fill="#25374B"/>
<path d="M153.984 241.948C153.984 241.948 98.5017 204.988 61.8647 230.73C67.1644 321.955 183.642 321.675 183.642 321.675L153.984 241.948Z" fill="#CDE9F1"/>
<path d="M61.8647 230.73C61.8812 231.076 61.9141 231.421 61.9306 231.783L140.702 275.882L95.1606 294.37C95.7037 294.782 96.2633 295.193 96.8064 295.604L142.66 277L173.421 294.239L172.467 291.689L112.574 258.134L102.254 222.243C101.629 222.16 100.987 222.095 100.361 222.029L110.385 256.917L62.6877 230.171C62.4079 230.352 62.1445 230.533 61.8647 230.73Z" fill="white"/>
<path d="M397.699 265.732C397.699 265.732 387.824 196.73 432.015 171.07C500.615 226.042 446.334 293.317 446.334 293.317L397.699 265.732Z" fill="#617B9B"/>
<path d="M431.999 171.07C432.246 171.267 432.476 171.448 432.706 171.646L423.638 253.281L465.755 224.084C465.854 224.643 465.936 225.203 466.002 225.778L423.407 255.304L420.79 278.858L419.342 278.036L424.559 231.075L401.83 211.961C401.995 211.435 402.159 210.909 402.324 210.382L424.773 229.249L431.176 171.58C431.456 171.399 431.719 171.234 431.999 171.07Z" fill="#00666A"/>
<path d="M406.14 263.774C406.14 263.774 441.493 203.901 490.392 205.726C517.186 258.099 463.284 296.853 463.284 296.853L404.05 310.67L406.14 263.774Z" fill="#F04637"/>
<path d="M439.749 225.268L448.95 254.695L489.24 205.711C489.619 205.711 490.014 205.711 490.392 205.727C490.491 205.941 490.59 206.138 490.689 206.336L469.111 232.572L497.749 231.601C497.766 231.881 497.766 232.144 497.782 232.407L497.799 233.131L467.811 234.151L431.849 277.871L482.163 277.773C481.768 278.299 481.373 278.809 480.978 279.302L430.582 279.401L405.038 310.44L404.034 310.67L404.1 309.157L447.748 256.093L438.433 226.305C438.893 225.959 439.321 225.614 439.749 225.268Z" fill="white"/>
<path d="M165.182 50.5776L143.483 38.5993L132.396 36.3895L124.014 37.6079L165.182 50.5776Z" fill="url(#paint0_linear)"/>
<path d="M165.182 50.5776L124.53 40.1276L124.014 37.608" fill="#AFD8C7"/>
<path d="M123.374 47.1079L123.415 47.1906L125.129 53.5102L165.079 50.5775L123.374 47.1079Z" fill="#63C0C4"/>
<path d="M115.611 43.4112L121.413 38.7025L164.913 50.5156L127.462 49.4004L115.611 43.4112Z" fill="url(#paint1_linear)"/>
<path d="M24.1706 123.975C25.4919 123.5 26.8133 122.943 28.0727 122.282C28.3617 122.137 28.7127 122.241 28.8778 122.53C29.0224 122.819 28.9191 123.17 28.6301 123.335C27.3088 124.017 25.9461 124.616 24.5629 125.091C24.0674 125.277 23.5512 125.421 23.0557 125.586C22.8699 125.648 22.6841 125.607 22.5396 125.504C22.4363 125.421 22.3538 125.318 22.3331 125.194C22.2299 124.884 22.4157 124.554 22.7254 124.45C23.2002 124.306 23.6957 124.141 24.1706 123.975Z" fill="#63C0C4"/>
<path d="M103.74 39.0124C105.577 39.2395 107.497 39.5493 109.603 39.9417C109.933 40.0037 110.14 40.3134 110.078 40.6232C110.016 40.9537 109.706 41.1602 109.397 41.0983C107.311 40.7059 105.412 40.4167 103.595 40.1895C103.492 40.1689 103.389 40.1276 103.327 40.0863C103.162 39.9624 103.058 39.7558 103.1 39.5287C103.12 39.1982 103.409 38.971 103.74 39.0124Z" fill="#63C0C4"/>
<path d="M93.871 39.4667C93.7265 39.3634 93.6439 39.1982 93.6233 38.9917C93.6233 38.6612 93.8917 38.3927 94.2014 38.3927C96.1008 38.3721 98.1034 38.4547 100.147 38.6199C100.478 38.6406 100.725 38.9297 100.684 39.2602C100.664 39.5906 100.374 39.8178 100.044 39.7971C98.0209 39.6319 96.0595 39.5493 94.2014 39.5699C94.0981 39.5699 93.9743 39.5286 93.871 39.4667Z" fill="#63C0C4"/>
<path d="M35.5671 116.85C35.7942 116.623 36.1658 116.623 36.3929 116.871C36.62 117.098 36.62 117.47 36.3723 117.697C34.9477 119.102 33.3786 120.361 31.7063 121.477C31.4999 121.621 31.2108 121.6 31.025 121.456C30.9631 121.415 30.9218 121.373 30.8805 121.311C30.6947 121.043 30.7773 120.671 31.0457 120.485C32.6767 119.432 34.1838 118.193 35.5671 116.85Z" fill="#63C0C4"/>
<path d="M38.0033 115.116C37.7556 114.909 37.7143 114.537 37.9208 114.29C38.2511 113.877 38.5814 113.464 38.8911 113.05C39.7376 111.915 40.5015 110.717 41.1622 109.498C41.3273 109.209 41.6783 109.106 41.9673 109.271C42.2357 109.436 42.3596 109.787 42.1944 110.077C41.5131 111.336 40.7079 112.596 39.8408 113.773C39.5105 114.207 39.1802 114.641 38.8292 115.074C38.6227 115.322 38.2717 115.364 38.024 115.178C38.024 115.136 38.0033 115.136 38.0033 115.116Z" fill="#63C0C4"/>
<path d="M42.9789 107.123C42.9376 107.103 42.8963 107.082 42.8551 107.061C42.6486 106.896 42.5454 106.607 42.6692 106.359C43.3712 104.645 43.9493 102.848 44.4654 100.824C44.548 100.515 44.8577 100.308 45.188 100.391C45.4977 100.473 45.7042 100.783 45.6216 101.113C45.1054 103.179 44.4861 105.058 43.7635 106.813C43.6189 107.103 43.268 107.247 42.9789 107.123Z" fill="#63C0C4"/>
<path d="M58.6284 56.7112C58.1329 57.3101 57.6581 57.9297 57.2039 58.5493C56.5019 59.4993 55.8412 60.47 55.2219 61.4406C55.0567 61.7091 54.6851 61.7917 54.4167 61.6265C54.396 61.6265 54.396 61.6058 54.3754 61.6058C54.1276 61.42 54.0657 61.0895 54.2309 60.8211C54.8709 59.8091 55.5522 58.8178 56.2541 57.8471C56.729 57.2069 57.2245 56.5873 57.72 55.9677C57.9265 55.7199 58.2774 55.6373 58.5458 55.8851C58.7936 56.0916 58.8349 56.4634 58.6284 56.7112Z" fill="#63C0C4"/>
<path d="M53.4876 64.4765C52.5791 66.2112 51.7946 68.008 51.1546 69.8047C51.0514 70.1145 50.7004 70.2797 50.3907 70.1558C50.3287 70.1351 50.2875 70.1145 50.2462 70.0732C50.0397 69.9286 49.9571 69.6395 50.0397 69.3917C50.7004 67.533 51.5262 65.6949 52.4346 63.9189C52.5791 63.6297 52.9508 63.5265 53.2398 63.671C53.5288 63.8363 53.6321 64.1873 53.4876 64.4765Z" fill="#63C0C4"/>
<path d="M65.2352 50.1232C63.7281 51.3623 62.3035 52.6841 60.9616 54.0884C60.7551 54.3156 60.4248 54.3362 60.177 54.1504C60.1564 54.1297 60.1357 54.1091 60.1151 54.1091C59.888 53.8819 59.8673 53.5102 60.0944 53.283C61.4571 51.858 62.9436 50.4743 64.4713 49.2145C64.7191 49.008 65.0907 49.0493 65.2972 49.2971C65.5243 49.5449 65.483 49.9167 65.2352 50.1232Z" fill="#63C0C4"/>
<path d="M76.1155 43.4112C75.909 43.4939 75.6819 43.4732 75.5167 43.3493C75.4342 43.2873 75.3722 43.2047 75.3309 43.1221C75.207 42.833 75.3309 42.4819 75.6406 42.3373C77.4781 41.5319 79.3568 40.8297 81.2562 40.2721C81.5659 40.1895 81.8963 40.3547 81.9995 40.6645C82.0821 40.9743 81.9169 41.3047 81.6072 41.408C79.7285 41.945 77.891 42.6265 76.1155 43.4112Z" fill="#63C0C4"/>
<path d="M47.0255 88.7222C46.9223 88.7015 46.819 88.6602 46.7365 88.6189C46.5713 88.495 46.4681 88.2885 46.5093 88.082L46.5919 87.3385C46.7777 85.6243 46.9842 83.9102 47.2113 82.1961C47.2526 81.8656 47.5416 81.6384 47.872 81.6797C48.2023 81.7211 48.4294 82.0102 48.3881 82.3406C48.161 84.0341 47.9752 85.7483 47.7688 87.4624L47.6862 88.2059C47.6242 88.5363 47.3352 88.7635 47.0255 88.7222Z" fill="#63C0C4"/>
<path d="M68.0017 48.0167C67.7953 48.1613 67.5062 48.1613 67.2998 48.0167C67.2585 47.9754 67.1965 47.9341 67.1759 47.8721C66.9901 47.6037 67.052 47.2319 67.3204 47.0461C68.9514 45.8895 70.665 44.8363 72.3993 43.9069C72.6883 43.7623 73.0393 43.8656 73.2045 44.1547C73.349 44.4439 73.2458 44.7949 72.9567 44.9602C71.2638 45.8482 69.5915 46.8808 68.0017 48.0167Z" fill="#63C0C4"/>
<path d="M46.7364 91.0765C47.0668 91.1178 47.2939 91.4069 47.2526 91.7374C46.9635 94.0297 46.6745 95.9091 46.3648 97.6232C46.3029 97.9536 45.9932 98.1602 45.6835 98.0982C45.6009 98.0776 45.5183 98.0363 45.4358 97.995C45.25 97.871 45.1674 97.6439 45.2087 97.4167C45.5183 95.7232 45.8074 93.8852 46.0964 91.6134C46.1171 91.2624 46.4061 91.0352 46.7364 91.0765Z" fill="#63C0C4"/>
<path d="M19.3395 125.276C19.6492 125.215 19.9795 125.421 20.0414 125.751C20.1034 126.061 19.8969 126.392 19.5666 126.454C17.7291 126.825 15.7884 127.073 13.6412 127.218C13.4967 127.238 13.3522 127.176 13.249 127.094C13.1251 126.991 13.0218 126.846 13.0012 126.66C12.9806 126.33 13.2283 126.061 13.5586 126.02C15.6439 125.875 17.5433 125.628 19.3395 125.276Z" fill="#63C0C4"/>
<path d="M49.689 72.4276C49.9987 72.5102 50.1845 72.8406 50.1019 73.1504C49.627 74.8852 49.2348 76.7645 48.8838 78.8711C48.8218 79.2015 48.5328 79.408 48.2025 79.3667C48.0992 79.3461 48.0167 79.3048 47.9547 79.2635C47.7895 79.1396 47.6863 78.9124 47.7276 78.6852C48.0786 76.5374 48.4915 74.6374 48.9664 72.8613C49.0489 72.5308 49.3793 72.345 49.689 72.4276Z" fill="#63C0C4"/>
<path d="M88.5856 38.7439C89.2669 38.6613 89.9689 38.5993 90.6502 38.5374C90.9805 38.5167 91.2696 38.7645 91.2902 39.0743C91.3109 39.4047 91.0631 39.6939 90.7534 39.7145C90.0721 39.7558 89.4114 39.8384 88.7301 39.9004C87.4914 40.045 86.2113 40.2515 84.9932 40.52C84.828 40.5613 84.6422 40.52 84.5184 40.4167C84.4151 40.3341 84.3326 40.2102 84.2913 40.0656C84.2293 39.7558 84.4358 39.4254 84.7455 39.3634C86.0049 39.1156 87.2849 38.8884 88.5856 38.7439Z" fill="#63C0C4"/>
<path d="M477.056 44.1999L480.819 51.6079L472.918 49.8184L445.865 41.2867L477.056 44.1999Z" fill="#AFD8C7"/>
<path d="M480.819 51.6079L467.386 50.7756L470.672 49.1109L480.819 51.6079Z" fill="#63C0C4"/>
<path d="M477.056 44.1999L479.406 37L445.865 41.2866L477.056 44.1999Z" fill="url(#paint2_linear)"/>
<path d="M445.865 41.2867L472.918 49.8184L468.884 60.2229L445.865 41.2867Z" fill="url(#paint3_linear)"/>
<path d="M477.846 59.0783C477.908 59.0367 477.992 58.9951 478.033 58.9327C478.262 58.6622 478.241 58.2668 477.971 58.0379C477.139 57.3096 476.245 56.6645 475.309 56.1235C475.018 55.9362 474.623 56.0402 474.436 56.3524C474.269 56.6437 474.353 57.0391 474.664 57.2264C475.538 57.7258 476.37 58.3292 477.139 59.0159C477.347 59.1616 477.617 59.1824 477.846 59.0783Z" fill="#63C0C4"/>
<path d="M468.01 128.164C467.823 127.873 467.927 127.478 468.239 127.29C469.944 126.292 471.504 124.939 472.876 123.274C473.105 123.004 473.5 122.962 473.77 123.191C474.041 123.42 474.082 123.815 473.854 124.086C472.377 125.855 470.714 127.311 468.884 128.393C468.863 128.393 468.863 128.414 468.842 128.414C468.551 128.56 468.198 128.456 468.01 128.164ZM475.226 121.069C474.914 120.902 474.81 120.507 474.997 120.215C476.016 118.405 476.785 116.47 477.285 114.451C477.368 114.118 477.721 113.91 478.054 113.993C478.387 114.077 478.595 114.43 478.511 114.763C477.992 116.886 477.181 118.925 476.099 120.84C476.037 120.944 475.954 121.027 475.829 121.089C475.642 121.173 475.413 121.173 475.226 121.069ZM478.428 111.455C478.075 111.434 477.825 111.122 477.846 110.789L477.867 110.498C477.971 108.583 477.867 106.585 477.555 104.546C477.493 104.192 477.742 103.88 478.075 103.818C478.428 103.755 478.74 104.005 478.803 104.338C479.114 106.44 479.239 108.521 479.135 110.539L479.114 110.851C479.094 111.08 478.969 111.267 478.761 111.372C478.678 111.434 478.553 111.455 478.428 111.455ZM477.555 101.321C477.222 101.404 476.869 101.217 476.785 100.863C476.286 98.9485 475.6 96.9508 474.727 94.9116C474.581 94.5994 474.748 94.204 475.06 94.0792C475.372 93.9335 475.746 94.1 475.891 94.4121C476.765 96.5138 477.472 98.574 477.992 100.53C478.075 100.821 477.929 101.133 477.659 101.258C477.638 101.3 477.596 101.321 477.555 101.321ZM473.999 91.7694C473.687 91.9151 473.313 91.7902 473.147 91.4781C473.063 91.3116 472.98 91.1659 472.918 90.9994C472.252 91.27 471.566 91.4781 470.88 91.6862C470.547 91.7694 470.194 91.5821 470.111 91.2492C470.007 90.9162 470.215 90.5625 470.547 90.4792C471.15 90.3127 471.753 90.1047 472.356 89.8758C471.691 88.6272 470.984 87.3162 470.152 85.9012C469.986 85.6099 470.069 85.2145 470.381 85.0273C470.672 84.8608 471.067 84.944 471.254 85.2562C472.107 86.7128 472.855 88.0654 473.521 89.3764C474.436 88.9602 475.33 88.4608 476.162 87.8989C476.453 87.6908 476.848 87.774 477.035 88.0654C477.222 88.3567 477.16 88.7521 476.869 88.9394C475.995 89.522 475.08 90.0422 474.103 90.4792C474.165 90.6249 474.249 90.7497 474.311 90.8954C474.457 91.2283 474.332 91.6029 473.999 91.7694C474.02 91.7694 474.02 91.7694 473.999 91.7694ZM478.99 86.4423C478.74 86.1926 478.74 85.7972 478.969 85.5475C479.863 84.6319 480.632 83.6122 481.277 82.551C481.672 81.8851 482.026 81.1776 482.317 80.4493C482.441 80.1371 482.816 79.9707 483.148 80.0955C483.481 80.2204 483.627 80.5949 483.502 80.9279C483.19 81.7186 482.795 82.4677 482.379 83.1961C481.693 84.3614 480.861 85.4434 479.884 86.4215C479.842 86.4631 479.78 86.5047 479.717 86.5463C479.489 86.6712 479.198 86.6296 478.99 86.4423ZM467.012 92.3729C464.767 92.5601 462.562 92.3937 460.462 91.8526C460.129 91.7694 459.922 91.4156 460.005 91.0827C460.088 90.7497 460.441 90.5417 460.774 90.6249C462.729 91.1243 464.787 91.2908 466.908 91.1035C467.262 91.0827 467.553 91.3324 467.595 91.6862C467.615 91.9567 467.47 92.1856 467.241 92.3104C467.158 92.352 467.095 92.3729 467.012 92.3729ZM483.876 77.64C483.523 77.5776 483.294 77.2447 483.356 76.9117C483.71 74.9141 483.731 72.8332 483.419 70.7523C483.377 70.3985 483.606 70.0864 483.959 70.0239C484.313 69.9823 484.625 70.2112 484.687 70.565C485.02 72.7915 484.999 74.9973 484.625 77.1198C484.583 77.3279 484.458 77.4944 484.292 77.5776C484.147 77.64 484.001 77.6609 483.876 77.64ZM456.761 90.4792C456.241 90.2087 455.742 89.9382 455.284 89.6261C453.912 88.7313 452.685 87.5451 451.708 86.2134C451.5 85.922 451.562 85.5267 451.853 85.3394C452.145 85.1313 452.54 85.1937 452.727 85.485C453.6 86.692 454.723 87.774 455.95 88.5856C456.387 88.8769 456.844 89.1475 457.322 89.3764C457.634 89.5428 457.759 89.9174 457.593 90.2295C457.53 90.3544 457.426 90.4376 457.322 90.5C457.156 90.5625 456.948 90.5625 456.761 90.4792ZM468.177 82.6342C466.825 80.5325 465.578 78.9926 464.267 77.8273C464.018 77.5984 463.997 77.203 464.226 76.9325C464.455 76.6828 464.85 76.662 465.12 76.8909C466.513 78.1395 467.823 79.7626 469.237 81.9683C469.424 82.2597 469.341 82.655 469.05 82.8423C469.029 82.8631 469.009 82.8631 468.988 82.8839C468.717 83.0088 468.364 82.9255 468.177 82.6342ZM483.336 67.5268C483.003 67.6309 482.649 67.4644 482.525 67.1315C482.213 66.2367 481.859 65.3627 481.423 64.5303C480.903 63.5315 480.32 62.5535 479.655 61.6795C479.447 61.409 479.51 61.0136 479.78 60.7847C480.05 60.5766 480.445 60.639 480.674 60.9096C481.381 61.846 482.026 62.8864 482.566 63.9477C483.024 64.8425 483.419 65.7581 483.731 66.7153C483.835 67.0066 483.689 67.3396 483.419 67.4852C483.398 67.506 483.356 67.5268 483.336 67.5268ZM450.731 83.0088C450.398 83.092 450.044 82.8839 449.961 82.551C449.504 80.7614 449.691 79.0134 450.481 77.5152C450.772 76.9742 451.126 76.4747 451.562 76.0378C451.812 75.788 452.207 75.788 452.456 76.0169C452.706 76.2666 452.706 76.662 452.477 76.9117C452.124 77.2655 451.833 77.6608 451.604 78.0978C450.959 79.3464 450.814 80.7406 451.188 82.2388C451.25 82.5302 451.126 82.8215 450.855 82.9464C450.814 82.988 450.772 82.988 450.731 83.0088ZM461.273 75.788C459.506 74.9765 457.322 74.7684 455.451 75.247C455.118 75.3302 454.765 75.1222 454.681 74.7892C454.598 74.4563 454.806 74.1025 455.139 74.0193C457.322 73.4782 459.734 73.7071 461.793 74.6435C462.105 74.7892 462.25 75.1638 462.105 75.4759C462.043 75.6008 461.939 75.7048 461.814 75.7672C461.668 75.8713 461.46 75.8713 461.273 75.788Z" fill="#63C0C4"/>
<path d="M465.286 129.954C465.557 129.829 465.682 129.517 465.598 129.226C465.494 128.893 465.162 128.705 464.808 128.789C463.831 129.059 462.833 129.226 461.835 129.288C461.481 129.309 461.211 129.6 461.232 129.954C461.252 130.308 461.543 130.578 461.897 130.557C462.999 130.495 464.08 130.308 465.141 130.016C465.203 129.975 465.245 129.954 465.286 129.954Z" fill="#63C0C4"/>
<path d="M203.772 299.038H219.872V305.051H203.772V299.038Z" fill="#1A2350"/>
<path d="M6.10352e-05 170.308C6.10352e-05 170.308 13.2735 170.308 21.0164 170.308C37.3624 170.308 77.9202 208.105 77.9202 208.105H306.15C306.15 220.131 237.57 293.761 225.526 293.761L193.448 251.301L74.2331 229.825C68.7025 229.825 58.7474 244.306 39.6975 244.306C27.0386 244.306 16.5919 235.716 13.5193 224.058L6.10352e-05 170.308Z" fill="#FF6D6E"/>
<path d="M87.9981 217.186L77.7972 208.105H281.323L264.363 217.186H87.9981Z" fill="#F04637"/>
<path d="M297.301 195.342C297.301 198.41 299.882 200.987 302.954 200.987C306.027 200.987 308.608 198.41 308.608 195.342V165.645C308.608 162.577 306.027 160 302.954 160C299.882 160 297.301 162.577 297.301 165.645V195.342Z" fill="#F04637"/>
<path d="M219.504 267.622C219.504 300.51 246.174 327.139 279.112 327.139H414.304C447.242 327.139 473.912 331.189 473.912 298.301C473.912 265.413 385.668 207.982 352.73 207.982H279.112C246.174 208.105 219.504 234.734 219.504 267.622Z" fill="#FF8889"/>
<path d="M85.9087 166.136C85.9087 167.731 86.6462 172.026 91.8081 172.026L302.954 168.958L514.101 172.026C519.508 172.026 520 167.731 520 166.136C520 164.541 518.648 160.245 514.101 160.245L302.954 163.313L91.8081 160.245C86.4004 160.245 85.9087 164.541 85.9087 166.136Z" fill="#25374B"/>
<path d="M291.402 178.776C291.402 181.966 294.106 184.666 297.301 184.666H308.608C311.804 184.666 314.508 182.089 314.508 178.776C314.508 175.585 311.927 172.885 308.608 172.885H297.301C294.106 172.885 291.402 175.585 291.402 178.776Z" fill="#25374B"/>
<path d="M212.867 238.17C208.658 238.17 205.247 234.764 205.247 230.562C205.247 226.36 208.658 222.953 212.867 222.953C217.075 222.953 220.487 226.36 220.487 230.562C220.487 234.764 217.075 238.17 212.867 238.17Z" fill="#F04637"/>
<path d="M385.668 217.554C424.382 235.225 473.912 273.635 473.912 298.301C473.912 302.228 473.543 305.541 472.806 308.487H425.857C383.579 308.487 349.289 313.641 349.289 271.304C349.289 255.964 364.406 236.33 385.668 217.554Z" fill="#ACC1D6"/>
<path d="M385.668 217.554C389.97 219.517 394.517 221.726 398.941 224.181C380.383 241.974 367.724 260.014 367.724 274.494C367.724 292.779 373.746 302.596 383.947 307.996C363.054 305.91 349.289 298.178 349.289 271.426C349.289 255.964 364.406 236.33 385.668 217.554Z" fill="#6680A1"/>
<path d="M462.604 308.609C462.604 308.609 469.487 297.074 456.459 288.606L440.605 282.471L428.561 295.479L434.214 300.633C434.214 300.633 442.94 301.123 440.851 308.609H462.604Z" fill="#6680A1"/>
<path d="M422.784 288.116C422.416 289.097 423.03 290.079 423.891 290.325L433.231 293.393C434.214 293.761 435.198 293.147 435.443 292.288C435.812 291.306 435.198 290.325 434.337 290.079L424.997 287.011C424.136 286.766 423.153 287.257 422.784 288.116Z" fill="#00A4CD"/>
<path d="M382.472 307.996C382.595 306.891 382.964 305.787 383.579 304.805L374.853 273.758C373.623 269.463 376.204 265.045 380.506 263.818C384.808 262.591 389.232 265.168 390.461 269.463L399.433 301.737C399.433 301.86 399.433 301.983 399.556 302.106H416.885C420.449 302.106 423.399 305.051 423.399 308.61V308.732C408.282 308.609 394.148 309.223 382.472 307.996Z" fill="#6680A1"/>
<path d="M421.678 288.484C421.309 289.711 421.924 291.184 423.276 291.552C424.505 291.92 425.98 291.306 426.348 289.957L431.51 274.617C431.879 273.39 431.265 271.917 429.913 271.549C428.684 271.181 427.209 271.795 426.84 273.144L421.678 288.484Z" fill="#6680A1"/>
<path d="M339.333 275.476C339.333 275.476 340.562 317.322 381.243 317.322H344.741C344.741 317.322 287.469 317.322 265.961 317.322C241.749 302.351 244.453 258.05 274.81 228.721L339.333 275.476Z" fill="#FF8889"/>
<path d="M339.579 273.144C339.579 275.599 338.227 280.262 331.591 280.262H301.111C285.379 280.262 271.86 257.437 271.86 241.852C271.86 216.818 292.139 218.045 317.211 218.045C317.211 218.045 338.596 218.045 346.708 218.045C358.506 218.045 359.367 228.967 354.942 234.243C343.512 248.11 339.579 261.609 339.579 273.144Z" fill="#6680A1"/>
<path d="M346.708 224.917C338.473 224.917 317.211 224.917 317.211 224.917C293.491 224.917 273.95 223.812 272.106 245.042C271.983 243.938 271.86 242.834 271.86 241.729C271.86 216.695 292.139 217.922 317.211 217.922C317.211 217.922 338.596 217.922 346.708 217.922C356.294 217.922 358.629 225.162 356.786 230.685C355.68 227.494 352.484 224.917 346.708 224.917Z" fill="#007D9E"/>
<path d="M340.317 264.309C338.227 265.291 335.892 265.781 333.434 265.781C323.971 265.781 316.228 258.05 316.228 248.601C316.228 239.152 323.971 231.421 333.434 231.421C340.562 231.421 346.708 235.716 349.289 241.975C344.372 249.828 341.546 257.314 340.317 264.309Z" fill="#ACC1D6"/>
<path d="M272.106 238.416C275.179 234.243 280.218 231.544 285.871 231.544C295.335 231.544 303.077 239.275 303.077 248.724C303.077 258.173 295.335 265.904 285.871 265.904C283.536 265.904 281.324 265.413 279.357 264.677C274.81 257.928 271.983 250.319 271.983 241.975C271.86 240.625 271.983 239.52 272.106 238.416Z" fill="#ACC1D6"/>
<path d="M310.697 288.238C310.697 289.834 312.049 291.061 313.524 291.061H330.362C331.959 291.061 333.188 289.711 333.188 288.238C333.188 286.643 331.837 285.416 330.362 285.416H313.524C311.926 285.416 310.697 286.643 310.697 288.238Z" fill="#F04637"/>
<path d="M468.75 317.322C459.409 329.348 438.516 327.262 414.181 327.262H278.988C266.821 327.262 255.514 323.581 246.05 317.322H468.75Z" fill="#F04637"/>
<path d="M269.402 361.5H433.6C481.654 361.5 502.671 330.821 503.531 329.471C504.883 327.385 504.391 324.44 502.302 323.09C500.213 321.617 497.386 322.231 495.911 324.317C495.174 325.422 476.493 352.174 433.6 352.174H269.402C266.821 352.174 264.732 354.26 264.732 356.837C264.732 359.537 266.821 361.5 269.402 361.5Z" fill="#25374B"/>
<path d="M312.418 326.894H321.881V352.296H312.418V326.894Z" fill="#25374B"/>
<path d="M431.264 326.894L452.158 352.296H461.621L440.728 326.894H431.264Z" fill="#25374B"/>
<path d="M92.6686 233.139L81.8532 249.092H89.2273L110.244 236.329L92.6686 233.139Z" fill="#1A2350"/>
<path d="M253.548 204.055C253.548 209.823 258.218 214.609 264.117 214.609H342.038C347.814 214.609 352.607 209.946 352.607 204.055C352.607 198.288 347.937 193.502 342.038 193.502H264.117C258.218 193.502 253.548 198.288 253.548 204.055Z" fill="#F04637"/>
<path d="M220.978 308.118H278.988C283.536 308.118 287.223 304.437 287.223 299.896C287.223 295.356 283.536 291.674 278.988 291.674H214.342C209.794 291.674 205.739 291.92 205.37 296.829C211.884 297.197 216.431 308.118 220.978 308.118Z" fill="#F04637"/>
<path d="M341.546 210.682C337.948 210.682 335.032 207.715 335.032 204.055C335.032 200.395 337.948 197.428 341.546 197.428C345.143 197.428 348.06 200.395 348.06 204.055C348.06 207.715 345.143 210.682 341.546 210.682Z" fill="#25374B"/>
<path d="M132.301 237.453C131.823 238.515 131.74 239.721 132.093 240.845L132.717 245.236L133.466 245.735L136.273 246.901C135.982 246.047 136.273 245.153 136.273 245.153L137.5 240.616C137.5 240.616 139.413 232.959 134.214 233.292C134.235 227.049 132.509 228.089 132.509 228.089L132.385 233.479L132.301 237.453Z" fill="#F7B58E"/>
<path d="M119.388 252.623C119.388 252.623 123.027 266.503 126.126 266.753C129.224 267.002 132.447 244.778 132.447 244.778L136.668 245.278C136.668 245.278 138.311 277.24 128.85 277.823C119.388 278.406 118.141 271.331 118.141 271.331L119.388 252.623Z" fill="#F7B58E"/>
<path d="M118.993 290.558H94.269C94.269 290.558 94.269 272.517 94.269 252.977C101.339 242.198 110.135 245.132 110.135 245.132C110.135 245.132 118.141 245.278 119.388 252.623C119.388 257.93 118.993 290.558 118.993 290.558Z" fill="#F04637"/>
<path d="M107.245 240.138L106.87 245.444L107.037 245.61C108.783 247.275 111.507 247.317 113.296 245.694L113.379 241.698L107.245 240.138Z" fill="#F39F85"/>
<path d="M105.29 229.047L105.747 237.828C106.621 237.786 107.141 238.723 106.974 239.555C107.057 239.763 107.12 239.971 107.12 240.2C108.638 241.282 111.383 242.697 114.938 242.031C120.49 240.97 117.143 230.233 117.143 230.233L105.29 229.047Z" fill="#F7B58E"/>
<path d="M102.503 235.643C102.462 234.998 101.589 233.625 101.089 233.208C97.9496 230.482 100.757 228.506 101.755 227.86C102.857 227.153 102.649 225.155 104.063 224.032C106.246 222.325 108.347 224.094 109.74 223.844C111.133 223.595 112.006 221.722 114.044 222.721C116.082 223.699 115.853 225.301 116.498 225.967C117.142 226.633 118.349 224.781 120.324 226.903C123.339 230.129 117.434 231.523 117.434 231.523C117.434 231.523 114.19 232.855 109.906 231.19C109.324 230.961 108.617 231.086 108.243 231.606C107.224 233 107.203 240.325 107.203 240.325L105.768 239.139C105.81 239.097 102.691 238.577 102.503 235.643Z" fill="#212B53"/>
<path d="M105.84 236.363C105.557 235.672 105.888 234.882 106.579 234.599C107.27 234.316 108.059 234.647 108.342 235.338C108.624 236.029 108.294 236.819 107.603 237.102C106.912 237.385 106.123 237.054 105.84 236.363Z" fill="#F7B58E"/>
<path d="M113.379 361.413C113.379 361.413 114.772 363.348 121.343 365.013C122.799 365.387 124.358 365.637 124.358 368.03C121.281 368.03 117.87 368.03 117.87 368.03L111.237 366.886V368.03H107.661C107.661 368.03 106.663 362.162 108.763 361.413C110.676 361.413 113.379 361.413 113.379 361.413Z" fill="#212B53"/>
<path d="M113.712 357.209L113.379 361.413C112.069 362.328 110.364 362.37 108.991 361.559L108.742 361.413V357.209H113.712Z" fill="#F7B58E"/>
<path d="M94.9554 361.413C94.9554 361.413 96.3486 363.348 102.919 365.013C104.375 365.387 105.935 365.637 105.935 368.03C102.857 368.03 99.4468 368.03 99.4468 368.03L92.8136 366.886V368.03H89.237C89.237 368.03 88.239 362.162 90.3391 361.413C92.273 361.413 94.9554 361.413 94.9554 361.413Z" fill="#212B53"/>
<path d="M95.3088 357.209L94.9761 361.413C93.6661 362.328 91.961 362.37 90.5886 361.559L90.3391 361.413V357.209H95.3088Z" fill="#F7B58E"/>
<path d="M94.2693 252.977C94.2693 252.977 86.8667 270.103 96.3071 278.843C105.768 287.582 118.598 286.105 118.598 286.105V281.173C118.598 281.173 106.995 280.195 103.273 272.433C99.5509 264.672 104.77 257.95 104.77 257.95" fill="#F04637"/>
<path d="M117.849 285.418L123.776 285.543C126.188 285.418 127.768 281.818 128.184 279.155C128.247 278.759 127.851 278.426 127.477 278.572C125.46 279.279 120.303 281.111 118.972 281.922L117.849 285.418Z" fill="#F7B58E"/>
<path d="M118.993 290.558C126.375 311.388 114.834 357.542 114.834 357.542H108.264C108.264 357.542 111.362 292.119 102.816 290.558C115.874 290.558 113.379 290.558 118.993 290.558Z" fill="#212B53"/>
<path d="M101.963 267.231C102.046 268.854 102.42 270.602 103.273 272.412C106.995 280.174 119.201 281.194 119.201 281.194V286.167C119.201 286.167 105.768 287.562 96.307 278.822C92.876 275.659 91.6699 271.372 91.5244 267.231H101.963Z" fill="#F7B58E"/>
<path d="M102.026 268.001C101.776 267.876 101.506 267.772 101.256 267.647C100.82 261.904 104.167 257.596 104.209 257.534L104.791 257.992C104.749 258.033 101.402 262.362 102.026 268.001Z" fill="#F04637"/>
<path d="M133.445 238.099C133.445 238.099 132.073 237.682 131.865 235.206C131.657 232.709 130.472 233.479 130.472 233.479C130.472 233.479 131.075 243.301 132.655 243.675C134.214 244.05 133.445 238.099 133.445 238.099Z" fill="#F7B58E"/>
<path d="M111.715 290.558C113.732 316.112 97.4298 357.542 97.4298 357.542H89.6112C89.6112 357.542 94.9137 331.052 95.0177 306.186C95.0385 300.796 94.8305 295.511 94.2483 290.558C99.6547 290.558 106.829 290.558 111.715 290.558Z" fill="#053C5E"/>
<path d="M191.814 364.076C191.814 364.076 193.914 366.032 198.696 367.239C199.757 367.51 200.88 367.156 200.88 368.883C198.655 368.883 195.078 368.883 195.078 368.883L190.254 368.051V368.883H187.655C187.655 368.883 186.927 364.617 188.445 364.056C189.859 364.076 191.814 364.076 191.814 364.076Z" fill="#212B53"/>
<path d="M191.522 360.997L191.813 364.056C190.857 364.722 189.609 364.763 188.611 364.16L188.424 364.056L187.343 360.997H191.522Z" fill="#F7B58E"/>
<path d="M168.608 364.076C168.608 364.076 170.708 366.032 175.49 367.239C176.551 367.51 177.674 367.156 177.674 368.883C175.428 368.883 171.872 368.883 171.872 368.883L167.048 368.051V368.883H164.449C164.449 368.883 163.721 364.617 165.239 364.056C166.632 364.076 168.608 364.076 168.608 364.076Z" fill="#212B53"/>
<path d="M168.317 360.997L168.608 364.056C167.651 364.722 166.404 364.763 165.405 364.16L165.218 364.056L164.137 360.997H168.317Z" fill="#F7B58E"/>
<path d="M182.56 284.211H189.256L191.606 361.725H187.093L173.806 298.653L182.56 284.211Z" fill="#212B53"/>
<path d="M184.744 284.211L169.107 361.725H164.137L166.175 284.211H184.744Z" fill="#053C5E"/>
<path d="M171.165 301.254L169.668 301.15C169.668 301.15 169.731 300.089 168.982 299.319C168.4 298.736 167.464 298.424 166.216 298.424C164.844 298.424 163.804 298.736 163.222 299.298C162.661 299.86 162.681 300.526 162.681 300.567L161.184 300.65C161.184 300.526 161.122 299.36 162.12 298.341C162.993 297.446 164.386 296.988 166.216 296.988C167.921 296.988 169.231 297.446 170.105 298.361C171.269 299.589 171.165 301.191 171.165 301.254Z" fill="#212B53"/>
<path d="M177.571 317.41H155.196V303.01H177.571V317.41Z" fill="#212B53"/>
<path d="M167.194 312.72C167.194 313.594 166.778 313.698 166.258 313.698C165.738 313.698 165.322 313.594 165.322 312.72V309.661C158.876 308.995 155.195 307.85 155.195 307.85V308.246V319.212C155.195 320.232 155.591 321.043 156.194 321.043H176.592C177.195 321.043 177.591 320.211 177.591 319.212V307.892C172.912 308.974 172.621 308.995 167.235 309.64V312.72H167.194Z" fill="#FF7B7C"/>
<path d="M173.057 308.849C172.018 310.888 170.936 312.865 169.585 314.717C167.963 316.944 166.133 319.025 164.22 321.043H176.572C177.175 321.043 177.57 320.211 177.57 319.212V307.892C175.449 308.371 174.243 308.641 173.057 308.849Z" fill="#F04637"/>
<path d="M176.572 299.922H156.173C155.57 299.922 155.175 300.754 155.175 301.753V307.268C158.751 308.454 162.203 308.912 165.301 308.995V308.246C165.301 307.372 165.717 307.268 166.237 307.268C166.757 307.268 167.173 307.372 167.173 308.246V308.995C173.286 308.828 177.528 307.268 177.528 307.268V301.753C177.549 300.734 177.154 299.922 176.572 299.922Z" fill="#63C0C4"/>
<path d="M167.485 311.388V310.451C167.485 310.223 167.298 310.056 167.09 310.056H165.468C165.239 310.056 165.073 310.243 165.073 310.451V311.388C165.073 311.617 165.26 311.783 165.468 311.783H167.09C167.298 311.804 167.485 311.617 167.485 311.388ZM167.069 310.16C167.235 310.16 167.36 310.285 167.36 310.451V311.388C167.36 311.554 167.235 311.679 167.069 311.679H165.447C165.281 311.679 165.156 311.554 165.156 311.388V310.451C165.156 310.285 165.281 310.16 165.447 310.16H167.069Z" fill="white"/>
<path d="M166.383 310.805C166.383 310.868 166.341 310.909 166.279 310.909C166.216 310.909 166.175 310.868 166.175 310.805V309.494C166.175 309.432 166.216 309.39 166.279 309.39C166.341 309.39 166.383 309.432 166.383 309.494V310.805Z" fill="white"/>
<path d="M221.404 272.704C221.632 272.891 222.485 273.453 224.564 273.619C226.415 273.765 230.387 272.954 229.617 274.806C227.829 275.763 225.853 277.115 225.853 277.115C224.71 277.594 222.714 277.095 221.507 276.554L218.035 274.431C218.035 274.431 217.744 272.475 217.702 272.392L218.492 272.059C219.449 272.412 220.426 272.621 221.404 272.704Z" fill="#F7B58E"/>
<path d="M222.027 273.515C222.027 273.515 222.09 273.599 222.235 273.744C221.986 273.848 221.757 273.952 221.508 274.077C220.53 274.098 219.553 274.161 218.596 274.202C218.659 273.64 218.742 272.85 218.742 272.787L225.063 271.289C225.063 271.289 225.583 271.955 224.419 272.662C223.275 273.37 222.027 273.515 222.027 273.515Z" fill="#F7B58E"/>
<path d="M167.235 293.242L169.335 297.862C169.335 297.862 168.878 300.401 167.963 301.4C167.692 301.691 167.235 301.774 166.861 301.628C165.987 301.275 163.97 300.401 163.638 299.901C163.471 299.672 163.451 299.36 163.534 299.069L164.137 297.03L164.22 292.285L167.235 293.242Z" fill="#F7B58E"/>
<path d="M179.607 237.641L179.691 243.821L174.159 243.53L173.806 233.916L179.607 237.641Z" fill="#F39F85"/>
<path d="M180.522 238.202C181.292 238.182 181.999 238.057 182.373 237.765C184.598 234.519 182.061 225.8 182.061 225.8L178.505 224.302L173.993 227.111L173.743 232.959C173.681 234.519 174.43 236.018 175.761 236.996C177.195 237.807 178.859 238.244 180.522 238.202Z" fill="#F7B58E"/>
<path d="M175.262 230.441C175.511 229.463 174.846 227.195 175.844 227.361C176.572 227.486 179.067 227.59 179.919 227.59C181.916 227.59 185.492 226.799 185.492 223.761C185.492 222.242 184.556 221.472 183.621 221.077C182.706 220.702 181.666 221.805 180.73 222.117C178.526 222.887 173.972 223.511 172.808 223.262C171.477 222.991 170.105 224.344 170.001 225.155C169.772 226.924 170.957 229.629 171.831 231.315C172.33 232.293 173.016 233.188 173.827 233.937L175.262 230.441Z" fill="#212B53"/>
<path d="M172.683 230.67C173.12 230.274 173.972 230.357 174.555 230.836C175.137 231.315 175.241 232.043 174.804 232.438C174.368 232.834 173.515 232.75 172.933 232.272C172.35 231.772 172.247 231.044 172.683 230.67Z" fill="#F7B58E"/>
<path d="M176.759 241.886C174.243 241.886 172.08 242.427 170.292 243.217C165.842 245.174 162.681 249.252 161.579 253.997C159.832 261.446 156.88 279.155 163.638 294.678C165.634 294.865 168.15 294.678 168.15 294.678L168.878 258.096L168.358 284.211H189.277V267.356C189.277 267.356 189.817 271.164 194.87 274.681C199.923 278.197 218.887 275.867 218.887 275.867V271.913C218.887 271.913 202.273 268.417 199.57 266.357C196.867 264.297 191.003 249.481 191.003 249.481C189.173 245.86 185.825 243.197 181.853 242.364C180.398 242.073 178.713 241.886 176.759 241.886Z" fill="#01888B"/>
<path d="M168.607 284.357L169.106 259.199L168.566 259.178L168.067 284.357H168.607Z" fill="#63C0C4"/>
<path d="M174.055 240.117L173.723 242.156L180.065 242.135L179.649 240.117H174.055Z" fill="white"/>
<defs>
<linearGradient id="paint0_linear" x1="124.016" y1="43.4834" x2="165.182" y2="43.4834" gradientUnits="userSpaceOnUse">
<stop offset="6.3e-07" stop-color="#F1F8F7"/>
<stop offset="1" stop-color="#BFE3EE"/>
</linearGradient>
<linearGradient id="paint1_linear" x1="115.609" y1="44.6086" x2="164.918" y2="44.6086" gradientUnits="userSpaceOnUse">
<stop offset="6.3e-07" stop-color="#F1F8F7"/>
<stop offset="1" stop-color="#BFE3EE"/>
</linearGradient>
<linearGradient id="paint2_linear" x1="445.867" y1="40.6004" x2="479.4" y2="40.6004" gradientUnits="userSpaceOnUse">
<stop offset="6.3e-07" stop-color="#F1F8F7"/>
<stop offset="1" stop-color="#BFE3EE"/>
</linearGradient>
<linearGradient id="paint3_linear" x1="445.867" y1="50.7504" x2="472.909" y2="50.7504" gradientUnits="userSpaceOnUse">
<stop offset="6.3e-07" stop-color="#F1F8F7"/>
<stop offset="1" stop-color="#BFE3EE"/>
</linearGradient>
</defs>
</svg>
