<svg width="500" height="438" viewBox="0 0 500 438" fill="none" xmlns="http://www.w3.org/2000/svg">
<path d="M191.626 69.9022V89.7951H220.766V117.345H219.847V319.193C219.847 334.988 232.778 347.923 248.568 347.923C251.066 347.923 403.445 348.063 403.445 348.063V116.066C403.445 90.5548 382.779 69.8822 357.276 69.8822H191.626V69.9022Z" fill="#D2DEEC"/>
<path d="M171.739 108.288V89.8351C171.739 78.3392 181.152 68.9026 192.645 68.8826C208.434 68.8826 221.366 81.698 221.366 97.3724V108.308H171.739V108.288Z" fill="#6680A1"/>
<path d="M367.009 121.264H267.895V125.422H367.009V121.264Z" fill="#25374B"/>
<path d="M367.009 137.918H267.895V142.076H367.009V137.918Z" fill="#25374B"/>
<path d="M367.009 156.651H267.895V160.81H367.009V156.651Z" fill="#25374B"/>
<path d="M367.009 173.285H267.895V177.444H367.009V173.285Z" fill="#25374B"/>
<path d="M367.009 191.439H267.895V195.597H367.009V191.439Z" fill="#25374B"/>
<path d="M367.009 208.093H267.895V212.251H367.009V208.093Z" fill="#25374B"/>
<path d="M367.009 226.806H267.895V230.965H367.009V226.806Z" fill="#25374B"/>
<path d="M367.009 243.46H267.895V247.619H367.009V243.46Z" fill="#25374B"/>
<path d="M410.86 348.063C379.321 348.063 256.942 348.063 256.942 348.063C256.942 348.063 288.062 341.665 277.688 303.279C325.397 303.279 441.54 303.279 441.54 303.279C441.54 303.279 451.913 348.063 410.86 348.063Z" fill="#D2DEEC"/>
<path d="M274.782 242.953C273.976 241.456 267.952 239.054 260.809 237.722C260.216 231.504 258.718 225.484 256.414 219.842C261.714 216.355 266.948 212.144 266.948 209.002C266.964 202.637 255.279 189.84 252.695 189.05C251.032 188.557 244.877 191.221 238.787 195.465C234.195 191.55 229.011 188.244 223.349 185.744C224.649 179.526 225.357 172.815 223.135 170.578C218.642 166.071 201.327 165.265 198.941 166.548C197.443 167.354 195.056 173.342 193.723 180.447C187.37 180.826 181.231 182.158 175.438 184.329C172.031 179.23 167.998 174.378 164.97 174.361C158.601 174.345 145.796 186.024 145.006 188.606C144.545 190.136 146.816 195.58 150.552 201.222C146.207 206.025 142.553 211.519 139.821 217.572C134.176 216.536 128.531 216.141 126.523 218.148C122.013 222.638 121.207 239.942 122.49 242.328C123.215 243.66 128.136 245.749 134.275 247.114C134.637 254.023 136.118 260.717 138.587 266.984C134.143 270.109 130.308 273.597 130.308 276.294C130.292 282.66 141.977 295.457 144.561 296.246C145.977 296.674 150.733 294.766 155.918 291.526C161.036 296 166.912 299.668 173.38 302.332C172.459 307.662 172.228 312.827 174.121 314.718C178.614 319.225 195.929 320.031 198.315 318.748C199.665 318.025 201.739 313.09 203.105 306.922C209.902 306.346 216.436 304.652 222.542 302.036C225.785 306.724 229.471 310.919 232.286 310.919C238.655 310.935 251.46 299.257 252.25 296.674C252.711 295.128 250.423 289.65 246.654 283.976C250.687 279.09 253.995 273.564 256.447 267.527C262.422 268.711 268.626 269.254 270.75 267.132C275.259 262.642 276.066 245.338 274.782 242.953ZM192.983 271.688C177.528 269.106 167.093 254.5 169.661 239.054C172.245 223.609 186.86 213.18 202.315 215.746C217.769 218.329 228.204 232.935 225.637 248.381C223.053 263.826 208.437 274.255 192.983 271.688Z" fill="#475B73"/>
<path d="M191.337 282.939C169.365 279.271 154.486 258.447 158.14 236.505C161.81 214.562 182.647 199.676 204.603 203.344C226.558 207.012 241.453 227.836 237.783 249.779C234.129 271.721 213.293 286.591 191.337 282.939ZM204.52 203.903C182.877 200.301 162.32 214.957 158.716 236.603C155.111 258.233 169.776 278.778 191.436 282.38C213.079 285.982 233.636 271.327 237.24 249.68C240.844 228.05 226.163 207.506 204.52 203.903Z" fill="white"/>
<path d="M256.414 241.044C256.151 240.979 255.904 240.896 255.641 240.814C255.855 244.943 255.657 249.154 254.95 253.397C249.699 284.864 219.81 306.198 188.325 300.951C167.702 297.513 151.441 283.515 144.15 265.438C143.887 265.454 143.623 265.454 143.36 265.454C150.7 283.91 167.241 298.204 188.226 301.691C220.123 307.004 250.39 285.407 255.707 253.529C256.398 249.318 256.612 245.14 256.414 241.044Z" fill="white"/>
<path d="M170.467 192.948C181.379 187.076 194.234 184.625 207.368 186.813C207.631 186.862 207.878 186.912 208.125 186.961C208.075 186.698 208.042 186.435 208.009 186.171C207.828 186.139 207.664 186.106 207.499 186.073C194.25 183.869 181.264 186.32 170.253 192.208C170.319 192.455 170.401 192.702 170.467 192.948Z" fill="white"/>
<path d="M176.912 354.306C176.912 354.306 201.32 278.066 156.207 240.546C67.989 289.662 116.558 376.232 116.558 376.232L176.912 354.306Z" fill="#C1D5F0"/>
<path d="M156.207 240.546C155.895 240.711 155.598 240.891 155.302 241.056L149.904 335.225L107.819 294.103C107.605 294.728 107.407 295.337 107.21 295.962L149.772 337.544L148.208 364.718L150.002 364.06L153.097 309.894L182.508 292.606C182.426 291.981 182.344 291.34 182.261 290.715L153.228 307.788L157.03 241.27C156.767 241.023 156.504 240.776 156.207 240.546Z" fill="white"/>
<path d="M156.043 336.853C156.043 336.853 127.504 262.291 71.7746 255.004C31.3851 309.17 84.9909 363.368 84.9909 363.368L149.41 390.361L156.043 336.853Z" fill="#6680A1"/>
<path d="M125.38 286.8L109.317 318.349L73.0913 255.185C72.6469 255.12 72.2189 255.037 71.7746 254.988C71.61 255.202 71.4783 255.416 71.3137 255.63L90.7185 289.465L58.476 282.885C58.4101 283.198 58.3443 283.494 58.2785 283.79L58.1139 284.596L91.887 291.488L124.228 347.874L67.2814 338.136C67.627 338.794 67.9726 339.452 68.3182 340.094L125.364 349.848L148.324 389.884L149.41 390.345L149.624 388.618L110.37 320.191L126.631 288.247C126.22 287.754 125.792 287.277 125.38 286.8Z" fill="#25374B"/>
<path d="M126.984 319.948C126.984 319.948 71.5017 282.988 34.8647 308.73C40.1644 399.955 156.642 399.675 156.642 399.675L126.984 319.948Z" fill="#CDE9F1"/>
<path d="M34.8647 308.73C34.8812 309.076 34.9141 309.421 34.9306 309.783L113.702 353.882L68.1606 372.37C68.7037 372.782 69.2633 373.193 69.8064 373.604L115.66 355.001L146.421 372.239L145.467 369.689L85.5738 336.134L75.2542 300.243C74.6288 300.16 73.9869 300.095 73.3615 300.029L83.3848 334.917L35.6877 308.171C35.4079 308.352 35.1445 308.533 34.8647 308.73Z" fill="white"/>
<path d="M375.699 337.732C375.699 337.732 365.824 268.73 410.015 243.07C478.615 298.042 424.334 365.317 424.334 365.317L375.699 337.732Z" fill="#617B9B"/>
<path d="M409.999 243.07C410.246 243.267 410.476 243.448 410.706 243.646L401.638 325.281L443.755 296.084C443.854 296.643 443.936 297.203 444.002 297.778L401.407 327.304L398.79 350.858L397.342 350.036L402.559 303.075L379.83 283.961C379.995 283.435 380.159 282.909 380.324 282.382L402.773 301.249L409.176 243.58C409.456 243.399 409.719 243.234 409.999 243.07Z" fill="#00666A"/>
<path d="M384.14 335.774C384.14 335.774 419.493 275.901 468.392 277.727C495.186 330.099 441.284 368.853 441.284 368.853L382.05 382.67L384.14 335.774Z" fill="#F04637"/>
<path d="M417.749 297.268L426.95 326.695L467.24 277.711C467.619 277.711 468.014 277.711 468.392 277.727C468.491 277.941 468.59 278.138 468.689 278.336L447.111 304.572L475.749 303.601C475.766 303.881 475.766 304.144 475.782 304.407L475.799 305.131L445.811 306.151L409.849 349.871L460.163 349.773C459.768 350.299 459.373 350.809 458.978 351.302L408.582 351.401L383.038 382.44L382.034 382.67L382.1 381.157L425.748 328.093L416.433 298.305C416.893 297.959 417.321 297.614 417.749 297.268Z" fill="white"/>
<path d="M188.182 28.5776L166.483 16.5993L155.396 14.3895L147.014 15.608L188.182 28.5776Z" fill="url(#paint0_linear)"/>
<path d="M188.182 28.5776L147.53 18.1276L147.014 15.608" fill="#AFD8C7"/>
<path d="M146.374 25.108L146.415 25.1906L148.129 31.5102L188.078 28.5776L146.374 25.108Z" fill="#63C0C4"/>
<path d="M138.611 21.4113L144.413 16.7026L187.913 28.5156L150.462 27.4004L138.611 21.4113Z" fill="url(#paint1_linear)"/>
<path d="M47.1706 101.975C48.492 101.5 49.8133 100.943 51.0727 100.282C51.3617 100.137 51.7127 100.241 51.8779 100.53C52.0224 100.819 51.9192 101.17 51.6301 101.335C50.3088 102.017 48.9462 102.616 47.5629 103.091C47.0674 103.277 46.5513 103.421 46.0558 103.586C45.8699 103.648 45.6841 103.607 45.5396 103.504C45.4364 103.421 45.3538 103.318 45.3331 103.194C45.2299 102.884 45.4157 102.554 45.7254 102.45C46.2003 102.306 46.6958 102.141 47.1706 101.975Z" fill="#63C0C4"/>
<path d="M126.74 17.0124C128.577 17.2396 130.497 17.5493 132.603 17.9417C132.933 18.0037 133.14 18.3135 133.078 18.6233C133.016 18.9537 132.706 19.1602 132.397 19.0983C130.311 18.7059 128.412 18.4167 126.595 18.1896C126.492 18.1689 126.389 18.1276 126.327 18.0863C126.162 17.9624 126.058 17.7559 126.1 17.5287C126.12 17.1983 126.409 16.9711 126.74 17.0124Z" fill="#63C0C4"/>
<path d="M116.871 17.4667C116.726 17.3634 116.644 17.1982 116.623 16.9917C116.623 16.6613 116.892 16.3928 117.201 16.3928C119.101 16.3721 121.103 16.4547 123.147 16.62C123.478 16.6406 123.725 16.9297 123.684 17.2602C123.663 17.5906 123.374 17.8178 123.044 17.7972C121.021 17.6319 119.059 17.5493 117.201 17.57C117.098 17.57 116.974 17.5287 116.871 17.4667Z" fill="#63C0C4"/>
<path d="M58.5671 94.8504C58.7942 94.6233 59.1658 94.6233 59.3929 94.8711C59.62 95.0983 59.62 95.47 59.3723 95.6972C57.9477 97.1015 56.3786 98.3613 54.7063 99.4765C54.4999 99.6211 54.2108 99.6005 54.025 99.4559C53.9631 99.4146 53.9218 99.3733 53.8805 99.3113C53.6947 99.0429 53.7773 98.6711 54.0457 98.4852C55.6767 97.432 57.1838 96.1928 58.5671 94.8504Z" fill="#63C0C4"/>
<path d="M61.0033 93.1157C60.7556 92.9092 60.7143 92.5374 60.9207 92.2896C61.2511 91.8766 61.5814 91.4635 61.8911 91.0505C62.7376 89.9146 63.5015 88.7167 64.1621 87.4983C64.3273 87.2091 64.6783 87.1059 64.9673 87.2711C65.2357 87.4363 65.3596 87.7874 65.1944 88.0765C64.5131 89.3363 63.7079 90.5961 62.8408 91.7733C62.5105 92.207 62.1801 92.6407 61.8291 93.0744C61.6227 93.3222 61.2717 93.3635 61.024 93.1777C61.024 93.1364 61.0033 93.1364 61.0033 93.1157Z" fill="#63C0C4"/>
<path d="M65.9789 85.1232C65.9376 85.1026 65.8963 85.0819 65.8551 85.0613C65.6486 84.8961 65.5454 84.6069 65.6692 84.3591C66.3712 82.645 66.9493 80.8482 67.4654 78.8243C67.548 78.5146 67.8577 78.3081 68.188 78.3907C68.4977 78.4733 68.7042 78.783 68.6216 79.1135C68.1054 81.1787 67.4861 83.058 66.7635 84.8134C66.6189 85.1026 66.268 85.2471 65.9789 85.1232Z" fill="#63C0C4"/>
<path d="M81.6285 34.7113C81.133 35.3102 80.6582 35.9297 80.204 36.5493C79.502 37.4993 78.8413 38.47 78.2219 39.4407C78.0568 39.7091 77.6852 39.7917 77.4168 39.6265C77.3961 39.6265 77.3961 39.6059 77.3755 39.6059C77.1277 39.42 77.0658 39.0896 77.2309 38.8211C77.871 37.8091 78.5523 36.8178 79.2542 35.8471C79.7291 35.2069 80.2246 34.5873 80.7201 33.9678C80.9266 33.7199 81.2775 33.6373 81.5459 33.8852C81.7937 34.0917 81.835 34.4634 81.6285 34.7113Z" fill="#63C0C4"/>
<path d="M76.4877 42.4765C75.5793 44.2113 74.7947 46.008 74.1547 47.8047C74.0515 48.1145 73.7005 48.2797 73.3908 48.1558C73.3289 48.1352 73.2876 48.1145 73.2463 48.0732C73.0398 47.9287 72.9572 47.6395 73.0398 47.3917C73.7005 45.533 74.5263 43.695 75.4347 41.9189C75.5793 41.6298 75.9509 41.5265 76.2399 41.6711C76.529 41.8363 76.6322 42.1874 76.4877 42.4765Z" fill="#63C0C4"/>
<path d="M88.2352 28.1232C86.7281 29.3624 85.3035 30.6841 83.9616 32.0884C83.7551 32.3156 83.4248 32.3363 83.177 32.1504C83.1564 32.1297 83.1357 32.1091 83.1151 32.1091C82.888 31.8819 82.8673 31.5102 83.0944 31.283C84.4571 29.858 85.9436 28.4743 87.4713 27.2145C87.7191 27.008 88.0907 27.0493 88.2972 27.2971C88.5243 27.545 88.483 27.9167 88.2352 28.1232Z" fill="#63C0C4"/>
<path d="M99.1155 21.4113C98.9091 21.4939 98.682 21.4732 98.5168 21.3493C98.4342 21.2874 98.3723 21.2048 98.331 21.1222C98.2071 20.833 98.331 20.4819 98.6407 20.3374C100.478 19.5319 102.357 18.8298 104.256 18.2722C104.566 18.1896 104.896 18.3548 105 18.6645C105.082 18.9743 104.917 19.3048 104.607 19.408C102.729 19.945 100.891 20.6265 99.1155 21.4113Z" fill="#63C0C4"/>
<path d="M70.0256 66.7222C69.9224 66.7016 69.8191 66.6602 69.7365 66.6189C69.5714 66.495 69.4681 66.2885 69.5094 66.082L69.592 65.3385C69.7778 63.6244 69.9843 61.9102 70.2114 60.1961C70.2527 59.8656 70.5417 59.6385 70.8721 59.6798C71.2024 59.7211 71.4295 60.0102 71.3882 60.3406C71.1611 62.0341 70.9753 63.7483 70.7688 65.4624L70.6863 66.2059C70.6243 66.5363 70.3353 66.7635 70.0256 66.7222Z" fill="#63C0C4"/>
<path d="M91.0017 26.0167C90.7953 26.1613 90.5062 26.1613 90.2998 26.0167C90.2585 25.9754 90.1965 25.9341 90.1759 25.8722C89.9901 25.6037 90.052 25.232 90.3204 25.0461C91.9514 23.8896 93.665 22.8363 95.3993 21.9069C95.6883 21.7624 96.0393 21.8656 96.2045 22.1548C96.349 22.4439 96.2458 22.795 95.9567 22.9602C94.2638 23.8482 92.5915 24.8809 91.0017 26.0167Z" fill="#63C0C4"/>
<path d="M69.7365 69.0765C70.0669 69.1178 70.294 69.4069 70.2527 69.7374C69.9636 72.0298 69.6746 73.9091 69.3649 75.6232C69.303 75.9537 68.9933 76.1602 68.6836 76.0982C68.601 76.0776 68.5184 76.0363 68.4359 75.995C68.25 75.8711 68.1675 75.6439 68.2088 75.4167C68.5184 73.7232 68.8075 71.8852 69.0965 69.6135C69.1172 69.2624 69.4062 69.0352 69.7365 69.0765Z" fill="#63C0C4"/>
<path d="M42.3395 103.277C42.6492 103.215 42.9795 103.421 43.0414 103.752C43.1034 104.061 42.8969 104.392 42.5666 104.454C40.7291 104.825 38.7884 105.073 36.6412 105.218C36.4967 105.238 36.3522 105.176 36.249 105.094C36.1251 104.991 36.0218 104.846 36.0012 104.66C35.9806 104.33 36.2283 104.061 36.5586 104.02C38.6439 103.875 40.5433 103.628 42.3395 103.277Z" fill="#63C0C4"/>
<path d="M72.6889 50.4276C72.9986 50.5102 73.1844 50.8406 73.1018 51.1504C72.6269 52.8852 72.2347 54.7646 71.8837 56.8711C71.8217 57.2015 71.5327 57.4081 71.2024 57.3667C71.0991 57.3461 71.0166 57.3048 70.9546 57.2635C70.7895 57.1396 70.6862 56.9124 70.7275 56.6852C71.0785 54.5374 71.4914 52.6374 71.9663 50.8613C72.0489 50.5309 72.3792 50.345 72.6889 50.4276Z" fill="#63C0C4"/>
<path d="M111.586 16.7439C112.267 16.6613 112.969 16.5993 113.65 16.5374C113.981 16.5167 114.27 16.7646 114.29 17.0743C114.311 17.4048 114.063 17.6939 113.753 17.7146C113.072 17.7559 112.411 17.8385 111.73 17.9004C110.491 18.045 109.211 18.2515 107.993 18.52C107.828 18.5613 107.642 18.52 107.518 18.4167C107.415 18.3341 107.333 18.2102 107.291 18.0657C107.229 17.7559 107.436 17.4254 107.746 17.3635C109.005 17.1156 110.285 16.8885 111.586 16.7439Z" fill="#63C0C4"/>
<path d="M460.056 112.2L463.819 119.608L455.918 117.818L428.865 109.287L460.056 112.2Z" fill="#AFD8C7"/>
<path d="M463.819 119.608L450.386 118.776L453.672 117.111L463.819 119.608Z" fill="#63C0C4"/>
<path d="M460.056 112.2L462.405 105L428.865 109.287L460.056 112.2Z" fill="url(#paint2_linear)"/>
<path d="M428.865 109.287L455.918 117.818L451.884 128.223L428.865 109.287Z" fill="url(#paint3_linear)"/>
<path d="M460.846 127.078C460.908 127.037 460.991 126.995 461.033 126.933C461.262 126.662 461.241 126.267 460.971 126.038C460.139 125.31 459.245 124.665 458.309 124.124C458.018 123.936 457.623 124.04 457.436 124.352C457.269 124.644 457.352 125.039 457.664 125.226C458.538 125.726 459.369 126.329 460.139 127.016C460.347 127.162 460.617 127.182 460.846 127.078Z" fill="#63C0C4"/>
<path d="M451.01 196.164C450.823 195.873 450.927 195.478 451.239 195.29C452.944 194.292 454.504 192.939 455.876 191.274C456.105 191.004 456.5 190.962 456.77 191.191C457.04 191.42 457.082 191.815 456.853 192.086C455.377 193.855 453.713 195.311 451.884 196.393C451.863 196.393 451.863 196.414 451.842 196.414C451.551 196.56 451.197 196.456 451.01 196.164ZM458.226 189.069C457.914 188.902 457.81 188.507 457.997 188.215C459.016 186.405 459.785 184.47 460.284 182.451C460.368 182.118 460.721 181.91 461.054 181.993C461.386 182.077 461.594 182.43 461.511 182.763C460.991 184.886 460.18 186.925 459.099 188.84C459.037 188.944 458.954 189.027 458.829 189.089C458.642 189.173 458.413 189.173 458.226 189.069ZM461.428 179.455C461.075 179.434 460.825 179.122 460.846 178.789L460.867 178.498C460.971 176.583 460.867 174.585 460.555 172.546C460.492 172.192 460.742 171.88 461.075 171.818C461.428 171.755 461.74 172.005 461.802 172.338C462.114 174.44 462.239 176.521 462.135 178.539L462.114 178.851C462.093 179.08 461.969 179.267 461.761 179.372C461.678 179.434 461.553 179.455 461.428 179.455ZM460.555 169.321C460.222 169.404 459.868 169.217 459.785 168.863C459.286 166.949 458.6 164.951 457.727 162.912C457.581 162.599 457.748 162.204 458.059 162.079C458.371 161.934 458.746 162.1 458.891 162.412C459.765 164.514 460.471 166.574 460.991 168.53C461.075 168.821 460.929 169.133 460.659 169.258C460.638 169.3 460.596 169.321 460.555 169.321ZM456.999 159.769C456.687 159.915 456.313 159.79 456.146 159.478C456.063 159.312 455.98 159.166 455.918 158.999C455.252 159.27 454.566 159.478 453.88 159.686C453.547 159.769 453.194 159.582 453.11 159.249C453.006 158.916 453.214 158.562 453.547 158.479C454.15 158.313 454.753 158.105 455.356 157.876C454.691 156.627 453.984 155.316 453.152 153.901C452.986 153.61 453.069 153.215 453.381 153.027C453.672 152.861 454.067 152.944 454.254 153.256C455.107 154.713 455.855 156.065 456.521 157.376C457.436 156.96 458.33 156.461 459.161 155.899C459.453 155.691 459.848 155.774 460.035 156.065C460.222 156.357 460.16 156.752 459.868 156.939C458.995 157.522 458.08 158.042 457.103 158.479C457.165 158.625 457.248 158.75 457.311 158.895C457.456 159.228 457.332 159.603 456.999 159.769C457.02 159.769 457.02 159.769 456.999 159.769ZM461.989 154.442C461.74 154.193 461.74 153.797 461.969 153.548C462.863 152.632 463.632 151.612 464.277 150.551C464.672 149.885 465.025 149.178 465.317 148.449C465.441 148.137 465.816 147.971 466.148 148.096C466.481 148.22 466.627 148.595 466.502 148.928C466.19 149.719 465.795 150.468 465.379 151.196C464.693 152.361 463.861 153.443 462.884 154.421C462.842 154.463 462.78 154.505 462.717 154.546C462.489 154.671 462.197 154.63 461.989 154.442ZM450.012 160.373C447.766 160.56 445.562 160.394 443.462 159.853C443.129 159.769 442.921 159.416 443.005 159.083C443.088 158.75 443.441 158.542 443.774 158.625C445.729 159.124 447.787 159.291 449.908 159.104C450.262 159.083 450.553 159.332 450.594 159.686C450.615 159.957 450.47 160.186 450.241 160.31C450.158 160.352 450.095 160.373 450.012 160.373ZM466.876 145.64C466.523 145.578 466.294 145.245 466.356 144.912C466.71 142.914 466.731 140.833 466.419 138.752C466.377 138.399 466.606 138.086 466.959 138.024C467.313 137.982 467.625 138.211 467.687 138.565C468.02 140.792 467.999 142.997 467.625 145.12C467.583 145.328 467.458 145.494 467.292 145.578C467.146 145.64 467.001 145.661 466.876 145.64ZM439.761 158.479C439.241 158.209 438.742 157.938 438.284 157.626C436.912 156.731 435.685 155.545 434.708 154.213C434.5 153.922 434.562 153.527 434.853 153.339C435.144 153.131 435.539 153.194 435.727 153.485C436.6 154.692 437.723 155.774 438.95 156.586C439.386 156.877 439.844 157.147 440.322 157.376C440.634 157.543 440.759 157.917 440.592 158.23C440.53 158.354 440.426 158.438 440.322 158.5C440.156 158.563 439.948 158.562 439.761 158.479ZM451.177 150.634C449.825 148.533 448.577 146.993 447.267 145.827C447.018 145.598 446.997 145.203 447.226 144.933C447.454 144.683 447.85 144.662 448.12 144.891C449.513 146.139 450.823 147.763 452.237 149.968C452.424 150.26 452.341 150.655 452.05 150.842C452.029 150.863 452.008 150.863 451.988 150.884C451.717 151.009 451.364 150.926 451.177 150.634ZM466.335 135.527C466.003 135.631 465.649 135.464 465.524 135.132C465.213 134.237 464.859 133.363 464.422 132.53C463.903 131.532 463.32 130.554 462.655 129.68C462.447 129.409 462.509 129.014 462.78 128.785C463.05 128.577 463.445 128.639 463.674 128.91C464.381 129.846 465.025 130.886 465.566 131.948C466.023 132.842 466.419 133.758 466.731 134.715C466.834 135.007 466.689 135.34 466.419 135.485C466.398 135.506 466.356 135.527 466.335 135.527ZM433.73 151.009C433.398 151.092 433.044 150.884 432.961 150.551C432.504 148.761 432.691 147.013 433.481 145.515C433.772 144.974 434.126 144.475 434.562 144.038C434.812 143.788 435.207 143.788 435.456 144.017C435.706 144.267 435.706 144.662 435.477 144.912C435.124 145.266 434.833 145.661 434.604 146.098C433.959 147.346 433.814 148.741 434.188 150.239C434.25 150.53 434.125 150.822 433.855 150.946C433.814 150.988 433.772 150.988 433.73 151.009ZM444.273 143.788C442.505 142.977 440.322 142.768 438.451 143.247C438.118 143.33 437.764 143.122 437.681 142.789C437.598 142.456 437.806 142.103 438.139 142.019C440.322 141.478 442.734 141.707 444.793 142.644C445.105 142.789 445.25 143.164 445.105 143.476C445.042 143.601 444.938 143.705 444.814 143.767C444.668 143.871 444.46 143.871 444.273 143.788Z" fill="#63C0C4"/>
<path d="M448.286 197.954C448.557 197.829 448.681 197.517 448.598 197.226C448.494 196.893 448.161 196.705 447.808 196.789C446.831 197.059 445.833 197.226 444.834 197.288C444.481 197.309 444.211 197.6 444.231 197.954C444.252 198.308 444.543 198.578 444.897 198.557C445.999 198.495 447.08 198.308 448.141 198.016C448.203 197.975 448.245 197.954 448.286 197.954Z" fill="#63C0C4"/>
<path d="M255.403 23.6325C248.995 27.8888 244.336 21.5679 237.295 24.1725C237.295 24.1725 238.682 23.156 239.783 22.8702C240.311 22.7272 243.824 22.4414 243.824 22.4414C240.507 20.6944 233.421 20.9485 234.521 20.5832C242.798 17.8515 255.523 23.2037 254.588 15.2469C254.392 13.7699 255.99 23.2355 255.403 23.6325Z" fill="#002A46"/>
<path d="M211.47 345.011C211.247 345.011 211.044 344.844 211.007 344.622L207.488 319.807C207.451 319.548 207.636 319.325 207.877 319.288C208.136 319.251 208.358 319.436 208.395 319.677L211.914 344.492C211.951 344.751 211.766 344.974 211.525 345.011C211.507 345.011 211.488 345.011 211.47 345.011Z" fill="#B3D8E5"/>
<path d="M381.939 352.696C381.81 352.696 381.68 352.641 381.587 352.53C381.421 352.344 381.439 352.048 381.643 351.881L391.273 343.548C391.458 343.381 391.754 343.4 391.921 343.603C392.088 343.789 392.069 344.085 391.866 344.252L382.236 352.585C382.161 352.659 382.05 352.696 381.939 352.696Z" fill="#B3D8E5"/>
<path d="M425.571 346.048C425.33 345.992 425.071 346.14 425.015 346.381L423.349 353.048C423.293 353.289 423.441 353.548 423.682 353.603C423.719 353.622 423.756 353.622 423.793 353.622C423.997 353.622 424.182 353.474 424.237 353.27L425.904 346.603C425.978 346.363 425.812 346.103 425.571 346.048Z" fill="#B3D8E5"/>
<path d="M439.164 352.696C439.016 352.696 438.868 352.622 438.775 352.493L434.146 345.64C433.997 345.437 434.053 345.14 434.275 344.992C434.479 344.844 434.775 344.9 434.923 345.122L439.553 351.974C439.701 352.178 439.646 352.474 439.424 352.622C439.349 352.678 439.257 352.696 439.164 352.696Z" fill="#B3D8E5"/>
<path d="M277.827 322.294L277.38 323.105L301.263 336.25L301.709 335.438L277.827 322.294Z" fill="#B3D8E5"/>
<path d="M273.582 321.393L273.046 322.149L295.276 337.894L295.811 337.138L273.582 321.393Z" fill="#B3D8E5"/>
<path d="M327.011 318.974L316.418 340.826L317.307 341.233L327.9 319.381L327.011 318.974Z" fill="#B3D8E5"/>
<path d="M225.082 339.177C225.082 339.177 225.063 339.177 225.082 339.177C224.804 339.177 224.619 338.955 224.619 338.696L225.174 321.288C225.174 321.029 225.397 320.825 225.656 320.844C225.915 320.844 226.119 321.066 226.1 321.325L225.545 338.733C225.545 338.974 225.322 339.177 225.082 339.177Z" fill="#B3D8E5"/>
<path d="M275.462 54.326C249.261 107.469 179.462 257.739 178.069 316.061C177.77 328.671 252.854 328.746 276.66 327.395L275.462 54.326Z" fill="#ACC1D6"/>
<path d="M275.654 92.5553C275.654 92.5553 394.825 340.19 385.834 345.627C366.92 357.042 298.621 325.051 298.621 325.051C278.131 233.66 324.965 191.006 275.654 92.5553Z" fill="#6680A1"/>
<path d="M278.672 340.008H273.139C272.619 343.186 273.306 109.783 272.636 45.8741C272.636 45.4244 274.648 45.8741 274.648 45.8741L275.486 0L276.325 45.8741C276.325 45.8741 278.169 45.4543 278.169 45.8741C278.169 115.285 278.672 340.008 278.672 340.008Z" fill="#002A46"/>
<path d="M193.506 365.659L126.373 365.011C126.373 365.011 142.078 353.789 148.134 351.77C149.8 351.215 186.617 352.326 187.95 351.77C198.691 347.326 222.025 339.177 222.025 339.177L193.506 365.659Z" fill="#71959E"/>
<path d="M407.681 403.715L130.263 399.271L130.355 381.4L127.762 376.585L126.373 365.011C126.373 365.011 207.303 367.789 278.602 366.863C344.919 365.993 439.164 353.344 439.164 353.344C439.164 353.344 428.386 373.456 424.163 380.196C420.515 386.048 407.681 403.715 407.681 403.715Z" fill="#002A46"/>
<path d="M439.35 353.529C439.35 353.529 370.847 364.233 275.917 367.696C193.432 370.696 126.466 365.104 126.466 365.104L140.634 355.566C140.634 355.566 154.282 355.844 179.117 356.066C184.376 356.122 219.081 338.863 225.081 338.9C247.434 339.011 265.379 337.437 293.881 336.955C330.864 336.325 329.901 348.326 356.013 347.789C363.476 347.64 383.921 353.659 390.329 353.529C421.312 352.863 439.164 352.418 439.164 352.418L439.35 353.529Z" fill="#A3C6D6"/>
<path d="M322.493 352.789C286.565 356.678 208.044 357.048 208.044 357.048C208.044 357.048 218.859 348.4 230.082 347.603C256.194 345.752 277.121 346.863 296.751 346.492C302.955 346.381 328.66 352.122 322.493 352.789Z" fill="#0B4B68"/>
<path d="M373.514 358.437C304.066 367.511 228.323 363.622 228.323 363.622C228.323 363.622 236.712 358.548 247.953 358.622C275.732 358.807 332.956 355.289 352.402 353.252C355.717 352.9 379.662 357.641 373.514 358.437Z" fill="#0B4B68"/>
<path d="M376.384 357.603C372.495 356.122 367.68 354.27 359.532 353.159C358.958 353.085 370.273 351.122 371.569 350.011C371.569 350.011 379.384 351.752 381.94 352.233C383.736 352.585 388.977 353.344 388.977 353.344C388.792 355.381 377.81 358.14 376.384 357.603Z" fill="#0B4B68"/>
<path d="M348.625 252.382C366.632 291.176 386.337 345.371 385.27 342.982C370.702 310.528 339.119 311.535 324.596 243.217C308.976 169.745 292.757 129.779 292.757 129.779C292.757 129.779 331.91 216.367 348.625 252.382Z" fill="#ACC1D6"/>
<path d="M278.51 367.326C207.21 368.252 126.466 365.103 126.466 365.103L127.763 376.585C149.245 376.585 212.025 376.585 286.658 376.585C368.976 376.585 414.775 374.881 416.478 391.771C420.553 386.104 421.645 384.548 424.071 380.659C428.294 373.918 439.072 353.807 439.072 353.807C439.072 353.807 344.827 366.455 278.51 367.326Z" fill="#034163"/>
<path d="M407.681 405.104L130.262 400.141V393.938C130.262 393.938 212.21 398.382 265.731 398.382C352.956 398.382 416.385 391.66 416.385 391.66L407.681 405.104Z" fill="#A3C6D6"/>
<path d="M255.533 185.358C255.533 250.799 273.058 326.962 273.058 326.962C273.058 326.962 273.642 250.799 273.642 185.358C273.642 119.917 272.328 62.3742 272.328 62.3742C272.328 62.3742 255.533 119.917 255.533 185.358Z" fill="#6680A1"/>
<path d="M296.973 346.529C277.49 346.9 256.712 345.789 230.803 347.641C229.229 347.752 227.655 348.011 226.137 348.4C249.545 347.066 268.768 347.992 286.861 347.641C292.528 347.529 314.603 352.363 313.307 353.641C316.603 353.381 319.696 353.085 322.529 352.789C328.659 352.122 303.14 346.418 296.973 346.529Z" fill="#065A7F"/>
<path d="M352.587 353.252C333.289 355.27 278.88 358.807 247.953 358.622C247.471 358.622 248.416 358.604 247.953 358.622C277.491 359.418 317.844 358.196 333.715 357.066C335.401 356.955 342.364 358.659 347.938 360.418C358.161 359.77 367.05 359.085 373.55 358.381C379.662 357.733 355.864 352.9 352.587 353.252Z" fill="#065A7F"/>
<path d="M381.903 352.233C379.366 351.752 371.606 350.029 371.606 350.029C370.329 351.141 359.087 353.066 359.662 353.159C359.958 353.196 360.273 353.252 360.569 353.289C363.847 352.863 369.347 352.159 370.273 351.492C370.273 351.492 377.866 353.826 380.366 354.492C381.403 354.77 383.644 355.307 385.274 355.696C387.274 354.955 388.829 354.103 388.903 353.344C388.885 353.344 383.681 352.585 381.903 352.233Z" fill="#065A7F"/>
<path opacity="0.35" d="M310.919 349.733C310.919 349.733 292.788 348.992 281.954 348.992C271.121 348.992 249.99 348.067 249.99 348.067C249.99 348.067 284.714 347.863 295.548 347.696C307.344 347.511 310.919 349.733 310.919 349.733Z" fill="white"/>
<path opacity="0.35" d="M362.031 355.659C362.031 355.659 345.79 358.159 331.697 358.474C317.604 358.789 290.102 358.511 290.102 358.511C290.102 358.511 322.289 357.863 336.29 356.215C356.661 353.807 362.031 355.659 362.031 355.659Z" fill="white"/>
<path opacity="0.35" d="M376.106 351.77C376.106 351.77 372.92 352.011 370.606 352.474C368.309 352.937 363.698 353.215 363.698 353.215C363.698 353.215 369.457 352.252 371.476 351.029C372.402 350.474 376.106 351.77 376.106 351.77Z" fill="white"/>
<path d="M275.566 18.1945C276.702 20.7675 266.507 17.3228 262.822 20.1207C262.822 20.1207 261.963 11.6568 263.452 10.1805C265.509 8.15595 276.718 9.30884 275.566 10.1805C273.862 11.46 274.399 15.5935 275.566 18.1945Z" fill="#002A46"/>
<path d="M263.067 21.1813C259.147 25.5857 251.955 21.1813 251.955 21.1813C251.955 21.1813 250.952 15.8992 251.955 14.6297C253.946 12.0748 261.91 19.5826 262.867 15.0529C263.191 13.3914 264.179 19.9274 263.067 21.1813Z" fill="#023856"/>
<path d="M389.81 353.437C385.365 359.178 352.679 360.807 324.992 362.696C308.195 363.845 292.824 363.696 279.083 363.659C244.989 364.493 227.581 363.622 227.581 363.622C227.581 363.622 234.859 359.641 242.582 358.622C261.842 356.956 291.473 354.733 296.102 354.733C279.435 356.585 206.654 357.141 206.654 357.141C206.654 357.141 215.358 347.881 231.1 346.4C242.1 345.363 242.508 345.678 251.841 345.659C260.175 341.215 271.101 338.807 307.399 337.511C301.658 335.474 242.1 339.085 221.84 338.992C216.395 338.974 186.653 356.363 179.06 356.77C162.208 357.696 141.837 356.77 141.837 356.77L127.132 364.604C127.132 364.604 184.653 365.548 260.73 365.659C346.864 365.771 385.18 357.696 385.18 357.696L392.773 355.659C392.773 355.659 400.033 353.196 389.81 353.437Z" fill="#8CB2BF"/>
<path d="M434.812 361.585C425.09 365.381 403.996 368.659 373.495 370.53C347.846 372.104 315.844 372.937 278.361 373.03C276.491 373.03 274.639 373.03 272.787 373.03C206.581 373.03 143.3 370.437 126.633 368.622L126.818 369.548C143.485 371.345 206.562 373.771 272.787 373.771C274.639 373.771 276.491 373.771 278.361 373.771C315.844 373.696 347.864 372.845 373.532 371.271C404.107 369.382 424.46 366.53 434.238 362.696L434.812 361.585Z" fill="#71959E"/>
<path d="M0 181.626C0 181.534 0 181.459 0 181.367C0 173.978 6.61138 167.996 14.7599 167.996C17.9267 167.996 20.8527 168.904 23.2602 170.441C22.3528 167.33 21.8527 164.052 21.8527 160.663C21.8527 139.718 40.6128 122.736 63.7434 122.736C86.7999 122.736 105.486 139.589 105.634 160.441C109.727 156.7 115.412 154.366 121.69 154.366C134.154 154.366 144.265 163.515 144.265 174.811C144.265 177.2 143.802 179.496 142.969 181.626H0Z" fill="#D6E0EC"/>
<path d="M95.3018 288.453C94.8235 289.515 94.7404 290.722 95.0939 291.845L95.7177 296.236L96.4663 296.735L99.2735 297.901C98.9824 297.047 99.2735 296.153 99.2735 296.153L100.5 291.616C100.5 291.616 102.413 283.959 97.2149 284.292C97.2357 278.049 95.5098 279.089 95.5098 279.089L95.385 284.479L95.3018 288.453Z" fill="#F7B58E"/>
<path d="M82.3888 303.623C82.3888 303.623 86.0278 317.503 89.1261 317.753C92.2244 318.002 95.4475 295.778 95.4475 295.778L99.6686 296.278C99.6686 296.278 101.311 328.24 91.8501 328.823C82.3888 329.406 81.1412 322.331 81.1412 322.331L82.3888 303.623Z" fill="#F7B58E"/>
<path d="M81.9937 341.558H57.2696C57.2696 341.558 57.2696 323.517 57.2696 303.977C64.3396 293.198 73.1355 296.132 73.1355 296.132C73.1355 296.132 81.1412 296.278 82.3888 303.623C82.3888 308.93 81.9937 341.558 81.9937 341.558Z" fill="#F04637"/>
<path d="M70.245 291.138L69.8708 296.444L70.0371 296.61C71.7838 298.275 74.5079 298.317 76.2961 296.694L76.3793 292.698L70.245 291.138Z" fill="#F39F85"/>
<path d="M68.2905 280.047L68.748 288.828C69.6213 288.786 70.1412 289.723 69.9748 290.555C70.058 290.763 70.1204 290.971 70.1204 291.2C71.6383 292.282 74.3831 293.697 77.9389 293.031C83.4908 291.97 80.143 281.233 80.143 281.233L68.2905 280.047Z" fill="#F7B58E"/>
<path d="M65.504 286.643C65.4625 285.998 64.5891 284.625 64.09 284.208C60.9501 281.482 63.7573 279.506 64.7554 278.861C65.8575 278.153 65.6496 276.155 67.0636 275.032C69.247 273.325 71.3471 275.094 72.7403 274.844C74.1335 274.595 75.0069 272.722 77.0447 273.721C79.0826 274.699 78.8538 276.301 79.4984 276.967C80.143 277.633 81.3491 275.781 83.3245 277.903C86.3397 281.129 80.4341 282.523 80.4341 282.523C80.4341 282.523 77.1903 283.855 72.9067 282.19C72.3245 281.961 71.6175 282.086 71.2432 282.606C70.2243 284 70.2035 291.325 70.2035 291.325L68.7687 290.139C68.8103 290.097 65.6912 289.577 65.504 286.643Z" fill="#212B53"/>
<path d="M68.8407 287.363C68.5579 286.672 68.8886 285.882 69.5793 285.599C70.2701 285.316 71.0593 285.647 71.3422 286.338C71.625 287.029 71.2943 287.819 70.6035 288.102C69.9128 288.385 69.1235 288.054 68.8407 287.363Z" fill="#F7B58E"/>
<path d="M76.3793 412.413C76.3793 412.413 77.7725 414.348 84.3434 416.013C85.799 416.387 87.3586 416.637 87.3586 419.03C84.281 419.03 80.8708 419.03 80.8708 419.03L74.2376 417.886V419.03H70.661C70.661 419.03 69.6629 413.162 71.7631 412.413C73.6761 412.413 76.3793 412.413 76.3793 412.413Z" fill="#212B53"/>
<path d="M76.712 408.209L76.3793 412.413C75.0693 413.328 73.3642 413.37 71.9918 412.559L71.7423 412.413V408.209H76.712Z" fill="#F7B58E"/>
<path d="M57.9559 412.413C57.9559 412.413 59.3491 414.348 65.9199 416.013C67.3755 416.387 68.9351 416.637 68.9351 419.03C65.8576 419.03 62.4473 419.03 62.4473 419.03L55.8141 417.886V419.03H52.2375C52.2375 419.03 51.2394 413.162 53.3396 412.413C55.2735 412.413 57.9559 412.413 57.9559 412.413Z" fill="#212B53"/>
<path d="M58.3093 408.209L57.9766 412.413C56.6666 413.328 54.9615 413.37 53.5891 412.559L53.3396 412.413V408.209H58.3093Z" fill="#F7B58E"/>
<path d="M57.2697 303.977C57.2697 303.977 49.8671 321.103 59.3076 329.843C68.7688 338.582 81.5986 337.105 81.5986 337.105V332.173C81.5986 332.173 69.9956 331.195 66.2735 323.433C62.5514 315.672 67.7707 308.95 67.7707 308.95" fill="#F04637"/>
<path d="M80.85 336.418L86.7763 336.543C89.1884 336.418 90.7688 332.818 91.1847 330.155C91.2471 329.759 90.8519 329.426 90.4777 329.572C88.4606 330.279 83.3038 332.111 81.9729 332.922L80.85 336.418Z" fill="#F7B58E"/>
<path d="M81.9937 341.558C89.3755 362.388 77.8349 408.542 77.8349 408.542H71.264C71.264 408.542 74.3623 343.119 65.816 341.558C78.8746 341.558 76.3793 341.558 81.9937 341.558Z" fill="#212B53"/>
<path d="M64.9634 318.231C65.0466 319.854 65.4209 321.602 66.2734 323.413C69.9956 331.174 82.2016 332.194 82.2016 332.194V337.167C82.2016 337.167 68.7687 338.562 59.3074 329.822C55.8764 326.659 54.6704 322.372 54.5248 318.231H64.9634Z" fill="#F7B58E"/>
<path d="M65.0259 319.001C64.7763 318.876 64.506 318.772 64.2565 318.647C63.8199 312.904 67.1676 308.597 67.2092 308.534L67.7914 308.992C67.7498 309.034 64.4021 313.362 65.0259 319.001Z" fill="#F04637"/>
<path d="M96.4456 289.099C96.4456 289.099 95.0732 288.682 94.8653 286.206C94.6574 283.709 93.4722 284.479 93.4722 284.479C93.4722 284.479 94.0752 294.301 95.6555 294.675C97.215 295.05 96.4456 289.099 96.4456 289.099Z" fill="#F7B58E"/>
<path d="M74.7158 341.558C76.7328 367.112 60.4302 408.542 60.4302 408.542H52.6117C52.6117 408.542 57.9142 382.052 58.0181 357.186C58.0389 351.796 57.831 346.511 57.2487 341.558C62.6552 341.558 69.8292 341.558 74.7158 341.558Z" fill="#053C5E"/>
<path d="M159.814 415.076C159.814 415.076 161.914 417.032 166.697 418.239C167.757 418.51 168.88 418.156 168.88 419.883C166.655 419.883 163.079 419.883 163.079 419.883L158.255 419.051V419.883H155.655C155.655 419.883 154.928 415.617 156.446 415.056C157.86 415.076 159.814 415.076 159.814 415.076Z" fill="#212B53"/>
<path d="M159.523 411.997L159.814 415.056C158.858 415.722 157.61 415.763 156.612 415.16L156.425 415.056L155.343 411.997H159.523Z" fill="#F7B58E"/>
<path d="M136.608 415.076C136.608 415.076 138.708 417.032 143.491 418.239C144.551 418.51 145.674 418.156 145.674 419.883C143.428 419.883 139.873 419.883 139.873 419.883L135.048 419.051V419.883H132.449C132.449 419.883 131.721 415.617 133.239 415.056C134.633 415.076 136.608 415.076 136.608 415.076Z" fill="#212B53"/>
<path d="M136.317 411.997L136.608 415.056C135.651 415.722 134.404 415.763 133.406 415.16L133.219 415.056L132.137 411.997H136.317Z" fill="#F7B58E"/>
<path d="M150.561 335.211H157.256L159.606 412.725H155.094L141.807 349.653L150.561 335.211Z" fill="#212B53"/>
<path d="M152.744 335.211L137.107 412.725H132.137L134.175 335.211H152.744Z" fill="#053C5E"/>
<path d="M139.166 352.254L137.668 352.15C137.668 352.15 137.731 351.089 136.982 350.319C136.4 349.736 135.464 349.424 134.217 349.424C132.844 349.424 131.805 349.736 131.222 350.298C130.661 350.86 130.682 351.526 130.682 351.567L129.184 351.65C129.184 351.526 129.122 350.36 130.12 349.341C130.994 348.446 132.387 347.988 134.217 347.988C135.922 347.988 137.232 348.446 138.105 349.361C139.27 350.589 139.166 352.192 139.166 352.254Z" fill="#212B53"/>
<path d="M145.571 368.41H123.197V354.011H145.571V368.41Z" fill="#212B53"/>
<path d="M135.194 363.72C135.194 364.594 134.778 364.698 134.258 364.698C133.738 364.698 133.323 364.594 133.323 363.72V360.661C126.876 359.995 123.196 358.85 123.196 358.85V359.246V370.212C123.196 371.232 123.591 372.043 124.194 372.043H144.593C145.196 372.043 145.591 371.211 145.591 370.212V358.892C140.912 359.974 140.621 359.995 135.236 360.64V363.72H135.194Z" fill="#FF7B7C"/>
<path d="M141.058 359.849C140.018 361.889 138.937 363.865 137.585 365.717C135.963 367.944 134.133 370.025 132.22 372.043H144.572C145.175 372.043 145.57 371.211 145.57 370.212V358.892C143.449 359.371 142.243 359.641 141.058 359.849Z" fill="#F04637"/>
<path d="M144.572 350.922H124.173C123.57 350.922 123.175 351.754 123.175 352.753V358.268C126.751 359.454 130.203 359.912 133.302 359.995V359.246C133.302 358.372 133.718 358.268 134.237 358.268C134.757 358.268 135.173 358.372 135.173 359.246V359.995C141.287 359.828 145.529 358.268 145.529 358.268V352.753C145.549 351.734 145.154 350.922 144.572 350.922Z" fill="#63C0C4"/>
<path d="M135.485 362.388V361.452C135.485 361.223 135.298 361.056 135.09 361.056H133.468C133.239 361.056 133.073 361.243 133.073 361.452V362.388C133.073 362.617 133.26 362.783 133.468 362.783H135.09C135.298 362.804 135.485 362.617 135.485 362.388ZM135.069 361.16C135.236 361.16 135.36 361.285 135.36 361.452V362.388C135.36 362.554 135.236 362.679 135.069 362.679H133.447C133.281 362.679 133.156 362.554 133.156 362.388V361.452C133.156 361.285 133.281 361.16 133.447 361.16H135.069Z" fill="white"/>
<path d="M134.383 361.805C134.383 361.868 134.341 361.909 134.279 361.909C134.217 361.909 134.175 361.868 134.175 361.805V360.494C134.175 360.432 134.217 360.39 134.279 360.39C134.341 360.39 134.383 360.432 134.383 360.494V361.805Z" fill="white"/>
<path d="M189.404 323.704C189.633 323.891 190.485 324.453 192.565 324.619C194.415 324.765 198.387 323.954 197.618 325.806C195.829 326.763 193.854 328.115 193.854 328.115C192.71 328.594 190.714 328.095 189.508 327.554L186.035 325.431C186.035 325.431 185.744 323.475 185.703 323.392L186.493 323.059C187.449 323.413 188.427 323.621 189.404 323.704Z" fill="#F7B58E"/>
<path d="M190.028 324.515C190.028 324.515 190.09 324.599 190.236 324.744C189.986 324.848 189.758 324.952 189.508 325.077C188.531 325.098 187.553 325.161 186.597 325.202C186.659 324.64 186.742 323.85 186.742 323.787L193.064 322.289C193.064 322.289 193.584 322.955 192.419 323.662C191.275 324.37 190.028 324.515 190.028 324.515Z" fill="#F7B58E"/>
<path d="M135.236 344.242L137.336 348.862C137.336 348.862 136.878 351.401 135.963 352.4C135.693 352.691 135.236 352.774 134.861 352.628C133.988 352.275 131.971 351.401 131.638 350.901C131.472 350.672 131.451 350.36 131.534 350.069L132.137 348.03L132.22 343.285L135.236 344.242Z" fill="#F7B58E"/>
<path d="M147.608 288.641L147.691 294.821L142.16 294.53L141.807 284.916L147.608 288.641Z" fill="#F39F85"/>
<path d="M148.523 289.202C149.292 289.182 149.999 289.057 150.374 288.765C152.599 285.519 150.062 276.8 150.062 276.8L146.506 275.302L141.994 278.111L141.744 283.959C141.682 285.519 142.43 287.018 143.761 287.996C145.196 288.807 146.859 289.244 148.523 289.202Z" fill="#F7B58E"/>
<path d="M143.262 281.441C143.512 280.463 142.846 278.195 143.844 278.361C144.572 278.486 147.067 278.59 147.92 278.59C149.916 278.59 153.493 277.799 153.493 274.761C153.493 273.242 152.557 272.472 151.621 272.077C150.706 271.702 149.667 272.805 148.731 273.117C146.527 273.887 141.973 274.511 140.808 274.262C139.478 273.991 138.105 275.344 138.001 276.155C137.772 277.924 138.958 280.629 139.831 282.315C140.33 283.293 141.016 284.188 141.827 284.937L143.262 281.441Z" fill="#212B53"/>
<path d="M140.684 281.67C141.12 281.274 141.973 281.358 142.555 281.836C143.137 282.315 143.241 283.043 142.805 283.438C142.368 283.834 141.515 283.751 140.933 283.272C140.351 282.773 140.247 282.044 140.684 281.67Z" fill="#F7B58E"/>
<path d="M144.759 292.886C142.243 292.886 140.081 293.427 138.292 294.218C133.842 296.174 130.682 300.252 129.58 304.997C127.833 312.446 124.88 330.155 131.638 345.678C133.635 345.865 136.151 345.678 136.151 345.678L136.878 309.096L136.359 335.211H157.277V318.356C157.277 318.356 157.818 322.164 162.871 325.681C167.924 329.197 186.888 326.867 186.888 326.867V322.913C186.888 322.913 170.274 319.417 167.57 317.357C164.867 315.297 159.003 300.481 159.003 300.481C157.173 296.86 153.825 294.197 149.854 293.364C148.398 293.073 146.714 292.886 144.759 292.886Z" fill="#01888B"/>
<path d="M136.608 335.357L137.107 310.199L136.566 310.178L136.067 335.357H136.608Z" fill="#63C0C4"/>
<path d="M142.056 291.117L141.723 293.156L148.065 293.135L147.65 291.117H142.056Z" fill="white"/>
<defs>
<linearGradient id="paint0_linear" x1="147.016" y1="21.4834" x2="188.182" y2="21.4834" gradientUnits="userSpaceOnUse">
<stop offset="6.3e-07" stop-color="#F1F8F7"/>
<stop offset="1" stop-color="#BFE3EE"/>
</linearGradient>
<linearGradient id="paint1_linear" x1="138.609" y1="22.6086" x2="187.918" y2="22.6086" gradientUnits="userSpaceOnUse">
<stop offset="6.3e-07" stop-color="#F1F8F7"/>
<stop offset="1" stop-color="#BFE3EE"/>
</linearGradient>
<linearGradient id="paint2_linear" x1="428.867" y1="108.6" x2="462.4" y2="108.6" gradientUnits="userSpaceOnUse">
<stop offset="6.3e-07" stop-color="#F1F8F7"/>
<stop offset="1" stop-color="#BFE3EE"/>
</linearGradient>
<linearGradient id="paint3_linear" x1="428.867" y1="118.75" x2="455.909" y2="118.75" gradientUnits="userSpaceOnUse">
<stop offset="6.3e-07" stop-color="#F1F8F7"/>
<stop offset="1" stop-color="#BFE3EE"/>
</linearGradient>
</defs>
</svg>
