<?xml version="1.0" encoding="utf-8"?>
<!-- Generator: Adobe Illustrator 23.0.3, SVG Export Plug-In . SVG Version: 6.00 Build 0)  -->
<svg version="1.1" id="Layer_1" xmlns="http://www.w3.org/2000/svg" xmlns:xlink="http://www.w3.org/1999/xlink" x="0px" y="0px"
	 viewBox="0 0 168 146" style="enable-background:new 0 0 168 146;" xml:space="preserve">
<style type="text/css">
	.st0{fill:#FFFFFF;}
	.st1{fill:#E0E0E0;}
	.st2{fill:#3E4447;}
	.st3{fill:#003000;}
	.st4{fill:#393C41;}
	.st5{fill:#2A2D30;}
	.st6{fill:#0C560C;}
	.st7{fill:#5B6366;}
	.st8{fill:#FFFBFF;}
</style>
<g>
	<g>
		<g>
			<path class="st0" d="M59,0C51.3,0,45,6.3,45,14v114.5c0,7.7,6.2,14,13.9,14h39.4V0H59z"/>
			<path class="st0" d="M137.8,0H98.4v142.5h39.4c7.7,0,13.9-6.3,13.9-14V14C151.7,6.3,145.5,0,137.8,0z"/>
		</g>
		<path class="st0" d="M45.1,130.3c0.9,6.9,6.7,12.2,13.8,12.2h78.8c7.1,0,12.9-5.3,13.8-12.2H45.1z"/>
		<path class="st1" d="M108.8,0h-3.9H41.9C34.9,0,29,5.3,28.1,12.2h76.7h3.9H124C124.8,5.3,130.7,0,137.8,0H108.8z"/>
		<path class="st1" d="M87.3,142.5h3.9h62.9c7.1,0,12.9-5.3,13.8-12.2H91.3h-3.9H72.2c-0.9,6.9-6.7,12.2-13.8,12.2H87.3z"/>
	</g>
	<rect x="53.9" y="36.6" class="st2" width="88.4" height="11.5"/>
	<rect x="54.2" y="15.9" class="st2" width="88.4" height="11.5"/>
	<rect x="53.9" y="56.7" class="st2" width="88.4" height="11.5"/>
	<rect x="53.9" y="76.8" class="st2" width="88.4" height="11.5"/>
	<g>
		<g>
			<g>
				<path class="st3" d="M126.3,100c-5.1,0.5-8.9,5-8.4,10.1c0.5,5.1,5,8.9,10.1,8.4c5.1-0.5,8.9-5,8.4-10.1
					C136,103.3,131.4,99.5,126.3,100z"/>
			</g>
			<g>
				<g>
					<g>
						<path class="st3" d="M140.8,109.2c0.1,7.1-5.3,13.1-12.4,13.8c-4.1,0.4-7.9-1.1-10.7-3.7L116,120c3.1,3.3,7.7,5.2,12.5,4.7
							c8.3-0.8,14.4-8,14-16.2L140.8,109.2z"/>
						<path class="st3" d="M113.5,109.4c-0.1-7.1,5.3-13.1,12.4-13.8c4.1-0.4,7.9,1.1,10.7,3.7l1.7-0.7c-3.1-3.3-7.7-5.2-12.5-4.7
							c-8.3,0.8-14.4,8-14,16.2L113.5,109.4z"/>
					</g>
				</g>
				<g>
					<polygon class="st3" points="146.4,105 110.9,120.4 108,113.6 143.4,98.2 					"/>
				</g>
			</g>
		</g>
	</g>
	<g>
		<g>
			<g>
				<path class="st4" d="M23.7,123.8v15.8c0,3.5-2.8,6.3-6.3,6.3h-5.3c-3.5,0-6.4-2.9-6.4-6.4v-15.8c0-3.5,2.8-6.4,6.4-6.4h5.2
					C20.9,117.5,23.7,120.3,23.7,123.8z"/>
				<g>
					<rect x="15.7" y="132.9" class="st5" width="1" height="13.1"/>
					<rect x="12.9" y="132.9" class="st5" width="1" height="13.1"/>
				</g>
				<g>
					<polygon class="st5" points="23.7,133.9 23.7,135.4 16.7,142.5 16.3,142.9 16.3,141.5 16.7,141.1 					"/>
					<polygon class="st5" points="23.7,138.3 23.7,139.7 17.5,146 16.3,146 16.3,145.8 16.7,145.4 					"/>
					<polygon class="st5" points="23.7,129.6 23.7,131 16.7,138.2 16.3,138.6 16.3,137.1 16.7,136.7 					"/>
				</g>
				<g>
					<polygon class="st5" points="5.9,133.9 5.9,135.4 12.9,142.5 13.3,142.9 13.3,141.5 12.9,141.1 					"/>
					<polygon class="st5" points="5.9,138.3 5.9,139.7 12.1,146 13.3,146 13.3,145.8 12.9,145.4 					"/>
					<polygon class="st5" points="5.9,129.6 5.9,131 12.9,138.2 13.3,138.6 13.3,137.1 12.9,136.7 					"/>
				</g>
			</g>
			<g>
				<path class="st4" d="M100.5,123.8v15.8c0,3.5-2.8,6.3-6.3,6.3H89c-3.5,0-6.4-2.9-6.4-6.4v-15.8c0-3.5,2.8-6.4,6.4-6.4h5.2
					C97.7,117.5,100.5,120.3,100.5,123.8z"/>
				<g>
					<rect x="92.5" y="132.9" class="st5" width="1" height="13.1"/>
					<rect x="89.7" y="132.9" class="st5" width="1" height="13.1"/>
				</g>
				<g>
					<polygon class="st5" points="100.5,133.9 100.5,135.4 93.5,142.5 93.1,142.9 93.1,141.5 93.5,141.1 					"/>
					<polygon class="st5" points="100.5,138.3 100.5,139.7 94.3,146 93.1,146 93.1,145.8 93.5,145.4 					"/>
					<polygon class="st5" points="100.5,129.6 100.5,131 93.5,138.2 93.1,138.6 93.1,137.1 93.5,136.7 					"/>
				</g>
				<g>
					<polygon class="st5" points="82.7,133.9 82.7,135.4 89.7,142.5 90.1,142.9 90.1,141.5 89.7,141.1 					"/>
					<polygon class="st5" points="82.7,138.3 82.7,139.7 88.9,146 90.1,146 90.1,145.8 89.7,145.4 					"/>
					<polygon class="st5" points="82.7,129.6 82.7,131 89.7,138.2 90.1,138.6 90.1,137.1 89.7,136.7 					"/>
				</g>
			</g>
		</g>
		<path class="st5" d="M100.6,84L94,84c-2,0-3.6,1.6-3.6,3.6c0,0.1,0,0.1,0,0.2l-5,3.8l0.8,1.1l4.6-3.4c0.6,1.2,1.8,2,3.2,2l6.6,0
			c2,0,3.6-1.6,3.6-3.6C104.2,85.7,102.6,84,100.6,84z"/>
		<path class="st5" d="M5.5,84l6.6,0c2,0,3.6,1.6,3.6,3.6c0,0.1,0,0.1,0,0.2l5,3.8l-0.8,1.1l-4.5-3.5c-0.6,1.2-1.8,2-3.2,2l-6.6,0
			c-2,0-3.6-1.6-3.6-3.6C1.9,85.6,3.5,84,5.5,84z"/>
		<g>
			<g>
				<path class="st6" d="M106.3,109.7c-0.1-1.3-0.8-3.1-1.7-4.1c-2.9-3.4-5.9-6.8-8.9-10.2c-0.9-1-2.6-1.8-3.9-1.8
					c-13.1,0-26.1,0-39.2,0c-12.7,0-25.4,0-38.1,0c-1.2,0-3,0.8-3.9,1.8c-3,3.4-6,6.7-8.9,10.2c-0.9,1-1.6,2.9-1.7,4.1
					C0.1,111,0,111.7,0,113.1c0,0,0,0,0,0c0,6.6,0.4,13,1.1,19.5c0.4,3.1,3.9,5.7,7.5,5.7c14.7,0,29.3,0,44,0c15,0,30,0,45.1,0
					c3.6,0,7.1-2.5,7.5-5.7c0.1-0.8,0.2-1.3,0.3-2.1c0,0,0,0,0,0C106.4,123.6,106.6,116.6,106.3,109.7z"/>
			</g>
		</g>
		<g>
			<g>
				<g>
					<path class="st6" d="M85.6,68.3c0,0,0-0.1,0-0.1c0-2.3-14.6-4.2-32.7-4.2c-0.1,0-0.2,0-0.3,0v30.9l42.2,0L85.6,68.3z"/>
				</g>
				<g>
					<path class="st6" d="M20.3,68.1c0,0,0,0.1,0,0.1l-9,26.6l41.4,0V64C34.7,64,20.3,65.8,20.3,68.1z"/>
				</g>
			</g>
		</g>
		<path class="st7" d="M83.6,69.1c-2.5-1.3-13.8-2.8-30.5-2.9c-0.1,0-0.3,0-0.4,0c-16.4,0-27.6,1.6-30.1,2.8l-7.1,22.2l37.2,0
			l38.1,0L83.6,69.1z"/>
		<path class="st5" d="M72,123.8c0,1.1-0.9,2-2,2H36.4c-1.1,0-2-0.9-2-2v-9.3c0-1.1,0.9-2,2-2H70c1.1,0,2,0.9,2,2V123.8z"/>
		<g>
			<g>
				<path class="st3" d="M15.8,100.7C15.8,100.7,15.8,100.7,15.8,100.7l-0.1,11.8h-1v5h12.5v-5C27.2,105.9,22.1,100.7,15.8,100.7z"
					/>
				<g>
					<path class="st3" d="M11.1,123.1c-3.9,0-7.1-3.2-7.1-7.1v-0.2c0-3.9,3.2-7.1,7.1-7.1h0.1l0.1,0c4.1,1.2,17.3,5.5,16.5,9
						c-0.8,3.6-2.7,5.3-6.1,5.3H11.1z"/>
					<path class="st8" d="M27.2,117.6c-0.7,3.1-2.2,4.8-5.4,4.8H11.1c-3.5,0-6.4-2.9-6.4-6.4v-0.2c0-3.5,2.9-6.4,6.4-6.4
						C11.1,109.4,27.9,114.4,27.2,117.6z"/>
				</g>
			</g>
			<g>
				<path class="st3" d="M90.6,100.7C90.6,100.7,90.7,100.7,90.6,100.7l0.1,11.8h1v5H79.2v-5C79.2,105.9,84.3,100.7,90.6,100.7z"/>
				<g>
					<path class="st3" d="M95.3,123.1c3.9,0,7.1-3.2,7.1-7.1v-0.2c0-3.9-3.2-7.1-7.1-7.1h-0.1l-0.1,0c-4.1,1.2-17.3,5.5-16.5,9
						c0.8,3.6,2.7,5.3,6.1,5.3H95.3z"/>
					<path class="st8" d="M79.2,117.6c0.7,3.1,2.2,4.8,5.4,4.8h10.6c3.5,0,6.4-2.9,6.4-6.4v-0.2c0-3.5-2.9-6.4-6.4-6.4
						C95.3,109.4,78.5,114.4,79.2,117.6z"/>
				</g>
			</g>
		</g>
		<g>
			<polygon class="st7" points="17.4,85.1 15.4,91.3 52.6,91.3 90.7,91.3 85.2,74.2 			"/>
			<path class="st2" d="M83.6,69.1c-2.5-1.3-13.8-2.8-30.5-2.9c-0.1,0-0.3,0-0.4,0c-16.4,0-27.6,1.6-30.1,2.8l-5.2,16.1l67.8-10.9
				L83.6,69.1z"/>
		</g>
		<path class="st5" d="M88.2,127.1l-1.7,2.5H19.9l-1.7-2.5H0.6c0.2,1.8,0.3,3.6,0.5,5.5c0.4,3.1,3.9,5.7,7.5,5.7c14.7,0,29.3,0,44,0
			l45.1,0c3.6,0,7.1-2.5,7.5-5.7c0.1-0.8,0.2-1.3,0.3-2.1h0c0.1-1.1,0.3-2.3,0.4-3.4H88.2z"/>
		<path class="st8" d="M70,135.2c0,0.9-0.8,1.7-1.7,1.7H38.1c-0.9,0-1.7-0.8-1.7-1.7v-2.8c0-0.9,0.8-1.7,1.7-1.7h30.1
			c0.9,0,1.7,0.8,1.7,1.7V135.2z"/>
	</g>
</g>
</svg>
