<?xml version="1.0" encoding="utf-8"?>
<!-- Generator: Adobe Illustrator 23.0.3, SVG Export Plug-In . SVG Version: 6.00 Build 0)  -->
<svg version="1.1" id="Layer_1" xmlns="http://www.w3.org/2000/svg" xmlns:xlink="http://www.w3.org/1999/xlink" x="0px" y="0px"
	 viewBox="0 0 167 130" style="enable-background:new 0 0 167 130;" xml:space="preserve">
<style type="text/css">
	.st0{fill:#0C560C;}
	.st1{fill:#1A681A;}
	.st2{fill:#E0E0E0;}
	.st3{fill:#2A2D30;}
	.st4{fill:#5B6366;}
</style>
<g id="XMLID_468_">
	<g id="XMLID_789_">
		<path id="XMLID_765_" class="st0" d="M45.1,0l7.6,0c0.8,0,1.5,0.7,1.5,1.5v107.1c0,0.8-0.7,1.5-1.5,1.5h-7.6
			c-0.8,0-1.5-0.7-1.5-1.5V1.5C43.6,0.7,44.2,0,45.1,0z"/>
		<path id="XMLID_802_" class="st1" d="M48.9,0l-3.6,0c-1,0-1.8,0.8-1.8,1.8v106.7c0,1,0.8,1.8,1.8,1.8h3.6V0z"/>
		
			<rect id="XMLID_770_" x="-2.7" y="53.3" transform="matrix(4.488816e-11 -1 1 4.488816e-11 -6.186 103.9916)" class="st0" width="103.1" height="3.6"/>
		<path id="XMLID_801_" class="st1" d="M44.8,106.4c0-1.7,0-96.3,0-100.8c0-4.5,1.8-5.6,4.1-5.6l-3.6,0c-1,0-1.8,0.8-1.8,1.8v106.7
			c0,1,0.8,1.8,1.8,1.8h3.6C45.3,110.2,44.8,108.1,44.8,106.4z"/>
	</g>
	<g id="XMLID_791_">
		<path id="XMLID_808_" class="st0" d="M28.7,48.3h7.6c0.8,0,1.5,0.7,1.5,1.5v68.3c0,0.8-0.7,1.5-1.5,1.5h-7.6
			c-0.8,0-1.5-0.7-1.5-1.5V49.8C27.2,48.9,27.9,48.3,28.7,48.3z"/>
		<path id="XMLID_807_" class="st1" d="M32.5,48.3H29c-1,0-1.8,0.8-1.8,1.8v67.9c0,1,0.8,1.8,1.8,1.8h3.6V48.3z"/>
		
			<rect id="XMLID_794_" x="0.4" y="82.1" transform="matrix(4.487705e-11 -1 1 4.487705e-11 -51.4254 116.5011)" class="st0" width="64.4" height="3.6"/>
		<path id="XMLID_793_" class="st1" d="M28.5,115.9c0-1.7,0-57.5,0-62c0-4.5,1.8-5.6,4.1-5.6H29c-1,0-1.8,0.8-1.8,1.8v67.9
			c0,1,0.8,1.8,1.8,1.8h3.6C29,119.7,28.5,117.6,28.5,115.9z"/>
	</g>
	<path id="XMLID_751_" class="st0" d="M54.2,98.1H113V28.8H81.6c-1.6,0-3.1,0.9-3.8,2.3l-23,41.2c-0.4,0.7-0.6,1.4-0.6,2.1V98.1z"/>
	<path id="XMLID_777_" class="st1" d="M111.1,28.8H81.6c-1.6,0-3.1,0.9-3.8,2.3l-23,41.2c-0.4,0.7-0.6,1.4-0.6,2.1v2.2h53.5
		c1.9,0,3.4-1.5,3.4-3.4V28.8z"/>
	<g id="XMLID_470_">
		<path id="XMLID_756_" class="st2" d="M62.6,92h-8.4V79.4h8.4c0.8,0,1.5,0.7,1.5,1.5v9.5C64.2,91.3,63.5,92,62.6,92z"/>
		<path id="XMLID_800_" class="st1" d="M61.7,80.2c-1.1-0.2-5.7-0.5-7.5-0.7V92h8.2c0.4,0,0.8-0.1,1.1-0.4v-9.7
			C63.5,80.9,63,80.4,61.7,80.2z"/>
	</g>
	<rect id="XMLID_745_" x="54.2" y="98.1" class="st0" width="79.3" height="11.3"/>
	<rect id="XMLID_773_" x="54.2" y="98.1" class="st0" width="79.3" height="3.5"/>
	<path id="XMLID_749_" class="st0" d="M114.8,28.8h14.9c2.1,0,3.8,1.7,3.8,3.8v65.5h-18.7V28.8z"/>
	<path id="XMLID_775_" class="st0" d="M114.8,28.8h14.9c2.1,0,3.8,1.7,3.8,3.8v65.5h-18.7V28.8z"/>
	<path id="XMLID_779_" class="st1" d="M131.7,29.7c-0.7-0.6-1.6-0.9-2.6-0.9h-14.3v50.6h17V29.7z"/>
	<path id="XMLID_639_" class="st0" d="M133.5,58h24.2c2.1,0,3.8,1.7,3.8,3.8v47.5h-28V58z"/>
	<rect id="XMLID_782_" x="133.5" y="84.9" class="st1" width="17.5" height="24.5"/>
	<path id="XMLID_784_" class="st1" d="M151,83.9V59.5c0,0,3.3,0,6.3,0c3,0,4.2,2.4,4.2,4.3v-1.4c0-2.4-2-4.4-4.4-4.4h-23.6v25.9"/>
	<rect id="XMLID_750_" x="133.5" y="58" class="st0" width="1.8" height="51.2"/>
	<rect id="XMLID_753_" x="113" y="28.8" class="st0" width="1.8" height="80.4"/>
	<path id="XMLID_743_" class="st0" d="M161.5,92.9c-3.9-3.5-9.1-5.6-14.8-5.6c-5,0-9.6,1.6-13.3,4.4v17.6h28V92.9z"/>
	<g id="XMLID_653_">
		
			<ellipse id="XMLID_469_" transform="matrix(0.9999 -1.027413e-02 1.027413e-02 0.9999 -1.0842 0.7413)" class="st3" cx="71.6" cy="105.9" rx="24.1" ry="24.1"/>
		<path id="XMLID_687_" class="st4" d="M71.6,81.8c-4,0-7.8,1-11.1,2.7c-6.1,4.2-10.1,11.3-10.1,19.2c0,12.9,10.5,23.4,23.4,23.4
			c8,0,15-4,19.2-10.1c1.7-3.3,2.7-7.1,2.7-11.1C95.7,92.6,84.9,81.8,71.6,81.8z"/>
		
			<ellipse id="XMLID_637_" transform="matrix(0.9998 -1.894754e-02 1.894754e-02 0.9998 -1.9936 1.3758)" class="st3" cx="71.6" cy="105.9" rx="13.1" ry="13.1"/>
		<circle id="XMLID_640_" class="st4" cx="71.6" cy="105.9" r="10.6"/>
		<path id="XMLID_643_" class="st4" d="M67.3,105.9c0-2.4,1.9-4.3,4.3-4.3s4.3,1.9,4.3,4.3c0,2.4-1.9,4.3-4.3,4.3
			S67.3,108.3,67.3,105.9z"/>
	</g>
	<rect id="XMLID_641_" x="133.5" y="82.1" class="st0" width="28" height="1.8"/>
	<rect id="XMLID_752_" x="114.8" y="82.1" class="st0" width="20.5" height="1.8"/>
	<path id="XMLID_654_" class="st0" d="M155.2,75.1h-15.3c-0.4,0-0.7,0.3-0.7,0.7V76c0,0.4,0.3,0.7,0.7,0.7h15.3
		c0.4,0,0.7-0.3,0.7-0.7v-0.2C155.8,75.4,155.5,75.1,155.2,75.1z"/>
	<path id="XMLID_741_" class="st0" d="M155.2,69.1h-15.3c-0.4,0-0.7,0.3-0.7,0.7v0.2c0,0.4,0.3,0.7,0.7,0.7h15.3
		c0.4,0,0.7-0.3,0.7-0.7v-0.2C155.8,69.4,155.5,69.1,155.2,69.1z"/>
	<path id="XMLID_742_" class="st0" d="M155.2,63h-15.3c-0.4,0-0.7,0.3-0.7,0.7v0.2c0,0.4,0.3,0.7,0.7,0.7h15.3
		c0.4,0,0.7-0.3,0.7-0.7v-0.2C155.8,63.3,155.5,63,155.2,63z"/>
	<rect id="XMLID_740_" x="146.5" y="53.5" class="st4" width="2" height="4.6"/>
	<path id="XMLID_748_" class="st4" d="M151,53.3v0.3c0,0.5-0.4,0.9-0.9,0.9h-5.3c-0.5,0-0.9-0.4-0.9-0.9v-0.3c0-0.5,0.4-0.9,0.9-0.9
		h5.3C150.6,52.5,151,52.9,151,53.3z"/>
	<path id="XMLID_754_" class="st3" d="M117.4,75.2V33.9c0-0.8,0.7-1.5,1.5-1.5h8.6c0.8,0,1.5,0.7,1.5,1.5v41.3
		c0,0.8-0.7,1.5-1.5,1.5H119C118.1,76.8,117.4,76.1,117.4,75.2z"/>
	<path id="XMLID_778_" class="st4" d="M119.2,32.4c-1,0-1.8,0.8-1.8,1.8V75c0,0.2,0,0.4,0.1,0.5c0.2,0.1,0.4,0.1,0.7,0.1h8.7
		c0.7,0,1.2-0.6,1.2-1.2V33c0-0.2,0-0.4-0.1-0.5c-0.2-0.1-0.4-0.1-0.7-0.1H119.2z"/>
	<path id="XMLID_764_" class="st3" d="M106.9,32.6H83.8c-1,0-1.9,0.5-2.3,1.4L62.4,69.4c-0.9,1.8,0.3,3.9,2.3,3.9h42.2
		c1.5,0,2.6-1.2,2.6-2.6V35.2C109.5,33.8,108.3,32.6,106.9,32.6z"/>
	<path id="XMLID_780_" class="st4" d="M83.8,32.6c-1,0-1.9,0.5-2.3,1.4L62.4,69.4C62,70.2,62,71,62.2,71.7c0.4,0.2,0.9,0.4,1.4,0.4
		h42.9c1.1,0,1.9-0.9,1.9-1.9V33.9c0-0.3-0.1-0.7-0.2-1c-0.4-0.3-0.9-0.4-1.4-0.4H83.8z"/>
	<polyline id="XMLID_766_" class="st0" points="113.9,98.1 113.9,105.4 102.1,105.4 102.1,98.1 	"/>
	<path id="XMLID_767_" class="st4" d="M62.8,4.2h-8.5V1.8h8.5c0.2,0,0.4,0.2,0.4,0.4v1.7C63.2,4.1,63,4.2,62.8,4.2z"/>
	<path id="XMLID_769_" class="st4" d="M59.1,11.1h-4.9V8.7h4.9c0.2,0,0.4,0.2,0.4,0.4v1.7C59.5,11,59.3,11.1,59.1,11.1z"/>
	<rect id="XMLID_768_" x="37.9" y="58" class="st4" width="5.7" height="40.1"/>
	<rect id="XMLID_771_" x="0" y="112.6" class="st4" width="27.2" height="3.9"/>
	<rect id="XMLID_755_" x="114.8" y="83.9" class="st1" width="17" height="8.5"/>
	<rect id="XMLID_774_" x="135.3" y="81.3" class="st1" width="26.3" height="0.9"/>
	<rect id="XMLID_788_" x="114.8" y="81.3" class="st1" width="18.7" height="0.9"/>
	<rect id="XMLID_776_" x="37.9" y="78" class="st3" width="5.7" height="20.1"/>
	<rect id="XMLID_772_" x="0" y="114.5" class="st3" width="27.2" height="1.9"/>
	<path id="XMLID_786_" class="st1" d="M83.6,28.8h-2c-1.6,0-3.1,0.9-3.8,2.3l-23,41.2c-0.4,0.7-0.6,1.4-0.6,2.1v1.4
		c0,0,20.5-37,23-41.3C79.7,30.3,80.4,28.8,83.6,28.8z"/>
	<g id="XMLID_783_">
		<circle id="XMLID_946_" class="st3" cx="146.8" cy="109.8" r="20.2"/>
		<path id="XMLID_900_" class="st4" d="M146.8,89.6c-3.4,0-6.5,0.8-9.3,2.3c-5.1,3.5-8.4,9.4-8.4,16.1c0,10.8,8.8,19.6,19.6,19.6
			c6.7,0,12.6-3.3,16.1-8.4c1.5-2.8,2.3-6,2.3-9.3C167,98.6,158,89.6,146.8,89.6z"/>
		<circle id="XMLID_898_" class="st3" cx="146.8" cy="109.8" r="11"/>
		
			<ellipse id="XMLID_894_" transform="matrix(2.786793e-02 -0.9996 0.9996 2.786793e-02 32.9508 253.4581)" class="st4" cx="146.8" cy="109.8" rx="8.9" ry="8.9"/>
		<circle id="XMLID_822_" class="st4" cx="146.8" cy="109.8" r="3.6"/>
	</g>
	<path id="XMLID_739_" class="st2" d="M108.2,33c-0.4-0.3-0.9-0.4-1.4-0.4H83.8c-1,0-1.9,0.5-2.3,1.4L62.4,69.4
		C62,70.2,62,71,62.2,71.7c0.4,0.2,0.9,0.4,1.4,0.4h2.1c-2.6,0-2.9-0.8-2.3-2.2s16.6-30.9,17.8-33.3c1.2-2.3,1.7-3.2,3.2-3.2
		c1.5,0,13.7,0,18.5,0s5.4,0,5.4,1.9v-1.4C108.4,33.6,108.4,33.3,108.2,33z"/>
	<path id="XMLID_781_" class="st2" d="M128,32.5c-0.2-0.1-0.4-0.1-0.7-0.1h-8.2c-1,0-1.8,0.8-1.8,1.8V75c0,0.2,0,0.4,0.1,0.5
		c0.2,0.1,0.4,0.1,0.7,0.1h2.1c-1.5,0-1.9-1.1-1.9-1.9c0-0.8,0-38,0-38.9c0-0.9,0.6-1.5,1.3-1.5c0.7,0,4.8,0,6.3,0
		c1.5,0,2.1,0.3,2.1,1.1V33C128.1,32.8,128.1,32.7,128,32.5z"/>
</g>
</svg>
