<?xml version="1.0" encoding="utf-8"?>
<!-- Generator: Adobe Illustrator 23.0.3, SVG Export Plug-In . SVG Version: 6.00 Build 0)  -->
<svg version="1.1" id="Layer_1" xmlns="http://www.w3.org/2000/svg" xmlns:xlink="http://www.w3.org/1999/xlink" x="0px" y="0px"
	 viewBox="0 0 145 138" style="enable-background:new 0 0 145 138;" xml:space="preserve">
<style type="text/css">
	.st0{fill:#5B6366;}
	.st1{fill:#3E4447;}
	.st2{fill:#FAFBFD;}
	.st3{fill:#E6E7E8;}
	.st4{fill:#F5F5F5;}
	.st5{fill:#E0E0E0;}
</style>
<g>
	<g>
		<g>
			<g>
				<polygon class="st0" points="42.9,55.7 39,93.9 62,93.9 62,55.7 				"/>
				<polygon class="st1" points="81.1,55.7 62,55.7 62,93.9 84.9,93.9 				"/>
			</g>
			<g>
				<rect x="33.5" y="93.9" class="st1" width="28.5" height="3.3"/>
				<rect x="62" y="93.9" class="st0" width="28.5" height="3.3"/>
			</g>
			<g>
				<path class="st0" d="M118.4,0H62v82.1h56.4c3.1,0,5.6-2.5,5.6-5.5v-6.1V11.6V5.5C123.9,2.5,121.4,0,118.4,0z"/>
				<path class="st1" d="M5.6,0C2.5,0,0,2.5,0,5.5v6.1v58.9v6.1c0,3,2.5,5.5,5.6,5.5H62V0H5.6z"/>
			</g>
			<g>
				<path class="st2" d="M7.8,5.9C6,5.9,4.5,7.4,4.5,9.2v59.5C4.5,70.5,6,72,7.8,72H62V32.9v-27H7.8z"/>
				<path class="st3" d="M116.1,5.9H62V72h54.1c1.8,0,3.3-1.5,3.3-3.3V9.2C119.5,7.4,117.9,5.9,116.1,5.9z"/>
			</g>
		</g>
		<g>
			<g>
				<path class="st0" d="M26.4,106c-2.7,0-4.9,2.2-4.9,4.8v22.3c0,2.7,2.2,4.9,4.9,4.9H63v-32H26.4z"/>
				<path class="st1" d="M99.7,106H63v32h36.6c2.7,0,4.9-2.2,4.9-4.9v-22.3C104.5,108.2,102.3,106,99.7,106z"/>
			</g>
			<g>
				<path class="st0" d="M99.7,107.6H63v28.9h36.6c1.8,0,3.3-1.5,3.3-3.3v-22.3C103,109,101.5,107.6,99.7,107.6z"/>
				<path class="st1" d="M26.4,107.6c-1.8,0-3.3,1.5-3.3,3.3v22.3c0,1.8,1.5,3.3,3.3,3.3H63v-28.9H26.4z"/>
			</g>
			<path class="st4" d="M32.3,116c0,0.2-0.2,0.4-0.4,0.4h-5.2c-0.2,0-0.4-0.2-0.4-0.4v-5.1c0-0.2,0.2-0.4,0.4-0.4h5.2
				c0.2,0,0.4,0.2,0.4,0.4V116z"/>
			<path class="st4" d="M32.3,124.6c0,0.2-0.2,0.4-0.4,0.4h-5.2c-0.2,0-0.4-0.2-0.4-0.4v-5.1c0-0.2,0.2-0.4,0.4-0.4h5.2
				c0.2,0,0.4,0.2,0.4,0.4V124.6z"/>
			<path class="st4" d="M32.3,133.1c0,0.2-0.2,0.4-0.4,0.4h-5.2c-0.2,0-0.4-0.2-0.4-0.4V128c0-0.2,0.2-0.4,0.4-0.4h5.2
				c0.2,0,0.4,0.2,0.4,0.4V133.1z"/>
			<path class="st4" d="M40.8,116c0,0.2-0.2,0.4-0.4,0.4h-5.2c-0.2,0-0.4-0.2-0.4-0.4v-5.1c0-0.2,0.2-0.4,0.4-0.4h5.2
				c0.2,0,0.4,0.2,0.4,0.4V116z"/>
			<path class="st4" d="M40.8,124.6c0,0.2-0.2,0.4-0.4,0.4h-5.2c-0.2,0-0.4-0.2-0.4-0.4v-5.1c0-0.2,0.2-0.4,0.4-0.4h5.2
				c0.2,0,0.4,0.2,0.4,0.4V124.6z"/>
			<path class="st4" d="M49.1,116c0,0.2-0.2,0.4-0.4,0.4h-5.2c-0.2,0-0.4-0.2-0.4-0.4v-5.1c0-0.2,0.2-0.4,0.4-0.4h5.2
				c0.2,0,0.4,0.2,0.4,0.4V116z"/>
			<path class="st4" d="M49.1,124.6c0,0.2-0.2,0.4-0.4,0.4h-5.2c-0.2,0-0.4-0.2-0.4-0.4v-5.1c0-0.2,0.2-0.4,0.4-0.4h5.2
				c0.2,0,0.4,0.2,0.4,0.4V124.6z"/>
			<path class="st4" d="M57.6,116c0,0.2-0.2,0.4-0.4,0.4h-5.2c-0.2,0-0.4-0.2-0.4-0.4v-5.1c0-0.2,0.2-0.4,0.4-0.4h5.2
				c0.2,0,0.4,0.2,0.4,0.4V116z"/>
			<path class="st4" d="M57.6,124.6c0,0.2-0.2,0.4-0.4,0.4h-5.2c-0.2,0-0.4-0.2-0.4-0.4v-5.1c0-0.2,0.2-0.4,0.4-0.4h5.2
				c0.2,0,0.4,0.2,0.4,0.4V124.6z"/>
			<g>
				<path class="st4" d="M60.4,110.5c-0.2,0-0.4,0.2-0.4,0.4v5.1c0,0.2,0.2,0.4,0.4,0.4H63v-5.9H60.4z"/>
				<path class="st5" d="M65.5,110.5H63v5.9h2.6c0.2,0,0.4-0.2,0.4-0.4v-5.1C65.9,110.7,65.7,110.5,65.5,110.5z"/>
			</g>
			<path class="st5" d="M74.4,116c0,0.2-0.2,0.4-0.4,0.4h-5.2c-0.2,0-0.4-0.2-0.4-0.4v-5.1c0-0.2,0.2-0.4,0.4-0.4h5.2
				c0.2,0,0.4,0.2,0.4,0.4V116z"/>
			<path class="st5" d="M74.4,124.6c0,0.2-0.2,0.4-0.4,0.4h-5.2c-0.2,0-0.4-0.2-0.4-0.4v-5.1c0-0.2,0.2-0.4,0.4-0.4h5.2
				c0.2,0,0.4,0.2,0.4,0.4V124.6z"/>
			<g>
				<path class="st4" d="M60.4,119.1c-0.2,0-0.4,0.2-0.4,0.4v5.1c0,0.2,0.2,0.4,0.4,0.4H63v-5.9H60.4z"/>
				<path class="st5" d="M65.5,119.1H63v5.9h2.6c0.2,0,0.4-0.2,0.4-0.4v-5.1C65.9,119.2,65.7,119.1,65.5,119.1z"/>
			</g>
			<path class="st5" d="M90.8,110.5h-5.2c-0.2,0-0.4,0.2-0.4,0.4v8.2h-8.1c-0.2,0-0.4,0.2-0.4,0.4v5.1c0,0.2,0.2,0.4,0.4,0.4h13.7
				c0.2,0,0.4-0.2,0.4-0.4v-13.7C91.1,110.7,91,110.5,90.8,110.5z"/>
			<path class="st4" d="M40.8,133.1c0,0.2-0.2,0.4-0.4,0.4h-5.2c-0.2,0-0.4-0.2-0.4-0.4V128c0-0.2,0.2-0.4,0.4-0.4h5.2
				c0.2,0,0.4,0.2,0.4,0.4V133.1z"/>
			<path class="st5" d="M99.7,124.6c0,0.2-0.2,0.4-0.4,0.4h-5.2c-0.2,0-0.4-0.2-0.4-0.4v-5.1c0-0.2,0.2-0.4,0.4-0.4h5.2
				c0.2,0,0.4,0.2,0.4,0.4V124.6z"/>
			<path class="st5" d="M99.7,116c0,0.2-0.2,0.4-0.4,0.4h-5.2c-0.2,0-0.4-0.2-0.4-0.4v-5.1c0-0.2,0.2-0.4,0.4-0.4h5.2
				c0.2,0,0.4,0.2,0.4,0.4V116z"/>
			<path class="st5" d="M91.1,133.1c0,0.2-0.2,0.4-0.4,0.4h-5.2c-0.2,0-0.4-0.2-0.4-0.4V128c0-0.2,0.2-0.4,0.4-0.4h5.2
				c0.2,0,0.4,0.2,0.4,0.4V133.1z"/>
			<path class="st5" d="M99.7,133.1c0,0.2-0.2,0.4-0.4,0.4h-5.2c-0.2,0-0.4-0.2-0.4-0.4V128c0-0.2,0.2-0.4,0.4-0.4h5.2
				c0.2,0,0.4,0.2,0.4,0.4V133.1z"/>
			<g>
				<path class="st5" d="M82.4,127.6h-2.1H68.7h-3.1H63v5.9h2.6h3.1h11.6h2.1c0.2,0,0.4-0.2,0.4-0.4V128
					C82.8,127.8,82.6,127.6,82.4,127.6z"/>
				<path class="st4" d="M60.4,127.6h-3.4h-5.2h-8.3c-0.2,0-0.4,0.2-0.4,0.4v5.1c0,0.2,0.2,0.4,0.4,0.4h8.3h5.2h3.4H63v-5.9H60.4z"
					/>
			</g>
		</g>
		<g>
			<g>
				<path class="st0" d="M119.9,137.7h9.3v-31.4h-9.3c-3.6,0-6.4,2.9-6.4,6.4v18.6C113.5,134.8,116.3,137.7,119.9,137.7z"/>
				<path class="st1" d="M138.6,137.7c3.6,0,6.4-2.9,6.4-6.4v-18.6c0-3.5-2.9-6.4-6.4-6.4h-9.3v31.4H138.6z"/>
			</g>
			<g>
				<path class="st0" d="M137.8,107.6h-8.6v28.9h8.6c3.3,0,5.9-2.6,5.9-5.9v-17.1C143.8,110.2,141.1,107.6,137.8,107.6z"/>
				<path class="st1" d="M120.6,107.6c-3.3,0-5.9,2.6-5.9,5.9v17.1c0,3.3,2.7,5.9,5.9,5.9h8.6v-28.9H120.6z"/>
			</g>
			<g>
				<g>
					<path class="st5" d="M129.2,111.4h-0.9c-3.5,0-6.3,2.8-6.3,6.3v2.2h7.2V111.4z"/>
					<path class="st5" d="M122,119.8v6.6c0,3.5,2.8,6.3,6.3,6.3h0.9v-12.9H122z"/>
					<path class="st5" d="M136.4,119.8v-2.2c0-3.5-2.8-6.3-6.3-6.3h-0.9v8.4H136.4z"/>
					<path class="st4" d="M129.2,119.8v12.9h0.9c3.5,0,6.3-2.8,6.3-6.3v-6.6H129.2z"/>
				</g>
				<g>
					<path class="st4" d="M122,117.6c0-3.5,2.8-6.3,6.3-6.3h0.9v8.4H122V117.6z"/>
				</g>
			</g>
		</g>
		<g>
			<path class="st5" d="M128.1,114.9v2.6c0,0.6,0.5,1.1,1.1,1.1v-4.9C128.6,113.7,128.1,114.2,128.1,114.9z"/>
			<path class="st4" d="M129.2,113.7v4.9c0.6,0,1.1-0.5,1.1-1.1v-2.6C130.4,114.2,129.9,113.7,129.2,113.7z"/>
		</g>
		<g>
			<rect x="129.2" y="119.8" class="st5" width="7.2" height="0.9"/>
			<rect x="122" y="119.8" class="st5" width="7.2" height="0.9"/>
		</g>
	</g>
</g>
</svg>
