<?xml version="1.0" encoding="utf-8"?>
<!-- Generator: Adobe Illustrator 23.0.3, SVG Export Plug-In . SVG Version: 6.00 Build 0)  -->
<svg version="1.1" id="Layer_1" xmlns="http://www.w3.org/2000/svg" xmlns:xlink="http://www.w3.org/1999/xlink" x="0px" y="0px"
	 viewBox="0 0 221 325" style="enable-background:new 0 0 221 325;" xml:space="preserve">
<style type="text/css">
	.st0{fill:#FFFFFF;}
	.st1{fill:#E6E7E8;}
	.st2{fill:#A7A9AC;}
	.st3{fill:#0C560C;}
	.st4{fill:#2A2D30;}
	.st5{fill:#414042;}
	.st6{fill:#FAC69A;}
	.st7{fill:#58595B;}
	.st8{fill:#F9DDC7;}
</style>
<g id="_x36_">
	<g>
		<g>
			<polygon class="st0" points="112.7,106.4 0,106.4 0,300.6 157.4,300.6 157.4,151 			"/>
			<polygon class="st1" points="112.7,151 157.4,151 112.7,106.4 			"/>
			<polygon class="st2" points="157.4,151 112.7,151 157.4,195.7 			"/>
		</g>
		<g>
			<g>
				<rect x="9.9" y="121.3" class="st2" width="98.9" height="5.3"/>
				<rect x="9.9" y="131.6" class="st2" width="98.9" height="5.3"/>
				<rect x="9.9" y="141.8" class="st2" width="98.9" height="5.3"/>
			</g>
			<rect x="9.9" y="181.2" class="st2" width="133.7" height="6.6"/>
			<rect x="9.9" y="200.2" class="st2" width="133.7" height="6.6"/>
			<rect x="9.9" y="219.2" class="st2" width="133.7" height="6.6"/>
			<rect x="9.9" y="238.2" class="st2" width="133.7" height="6.6"/>
			<rect x="9.9" y="257.2" class="st2" width="133.7" height="6.6"/>
			<rect x="9.9" y="276.2" class="st2" width="133.7" height="6.6"/>
		</g>
	</g>
	<g>
		<g>
			<polygon class="st1" points="160.8,130.8 48,130.8 48,325 205.4,325 205.4,175.4 			"/>
			<polygon class="st1" points="160.8,175.4 205.4,175.4 160.8,130.8 			"/>
			<polygon class="st2" points="205.4,175.4 160.8,175.4 205.4,220.1 			"/>
		</g>
		<g>
			<g>
				<rect x="57.9" y="145.7" class="st2" width="98.9" height="5.3"/>
				<rect x="57.9" y="156" class="st2" width="98.9" height="5.3"/>
				<rect x="57.9" y="166.2" class="st2" width="98.9" height="5.3"/>
			</g>
			<rect x="57.9" y="205.6" class="st2" width="133.7" height="6.6"/>
			<rect x="57.9" y="224.6" class="st2" width="133.7" height="6.6"/>
			<rect x="57.9" y="243.6" class="st2" width="133.7" height="6.6"/>
			<rect x="57.9" y="262.6" class="st2" width="133.7" height="6.6"/>
			<rect x="57.9" y="281.6" class="st2" width="133.7" height="6.6"/>
			<rect x="57.9" y="300.6" class="st2" width="133.7" height="6.6"/>
		</g>
	</g>
	<g>
		<path class="st3" d="M106.4,174.9c2.4-2.6,6.2-6.6,12.9-13.8c-3.5-2.4-7.1-4.8-10.6-7.2c-4.2,8.9-6.6,13.9-8.2,17.1L106.4,174.9z"
			/>
		<polygon class="st3" points="196,16.2 207,0 221,21.4 213,33 		"/>
		<path class="st4" d="M181.6,80.2l-20.4-13.9c-1.3,2.1-2.6,4.1-3.9,6.2l20.1,13.7C178.7,84.2,180.1,82.2,181.6,80.2z"/>
		<path class="st5" d="M152.5,80c-13.4,21.5-25.8,43-44.7,74.1c3.9,2.6,7.7,5.3,11.6,7.9c22.1-29,37.5-48.4,52.6-68.7L152.5,80z"/>
		<path class="st4" d="M195.9,20.2c-0.1-0.1-3-3-8.4-1.3c-6,2-12.7,8.8-19.8,20.3c-14.6,22.9-34.4,50.4-34.6,50.7
			c0,0,12.1,1.6,15.9-12.7c5.4-7.9,29.7-40.9,29.9-41.2c0,0,1.8-2.4,3.9-3c1.1-0.3,2.6-0.5,4.2,2.3c1.3,2.3,2.6,2.4,3.4,2.2
			c3.5-1.1,5.2-13,5.7-16.6l0.1-0.5L195.9,20.2z"/>
		<path class="st3" d="M177.3,86.1l-20.1-13.7c-1.6,2.5-3.2,5-4.7,7.6L172,93.3C173.8,90.9,175.5,88.5,177.3,86.1z"/>
		<path class="st5" d="M216.9,28.5c-6.8-4.7-13.7-9.3-20.5-14c-14.6,20.4-25.5,36.6-35.2,51.8l20.4,13.9
			C192.2,65.6,203.2,49.5,216.9,28.5z"/>
		<path class="st5" d="M100.5,170.9c-0.6,1.1-1.2,2.5-1.7,4.1c-0.8,2.5-1,4.7-1.1,6.4c1.4-0.7,3.1-1.7,4.9-3
			c1.5-1.2,2.8-2.4,3.8-3.4C104.4,173.6,102.5,172.3,100.5,170.9z"/>
	</g>
	<g>
		<g>
			<path class="st6" d="M154.1,228.1l2.9,7.1c1.2,3.1,0.9,6.7,0.3,9.9c-0.2,0.8,0.4,7.4,0.6,8.2c0.1,0.4,3.5,8.8,4.1,10.3
				c0.2,0.4,0.4,0.8,0.3,1c-0.2,0.3-1.1,0.5-1.4,0.6l-2.7,1.1c-2.7,1.1-1.9,2-4.7,3.1c-6.7,2.7-13.8,4.4-20.4,7.1l-7.4,3
				c-0.4,0.2-2.3,1.2-2.7,1c-0.2-0.1-0.5-1-0.7-1.3c-0.4-0.7-3.2-5.6-4.6-7.1c-0.6-0.7-13.8-10.6-14.7-12.4
				c-1.1-2.2-1.9-4.6-2.8-6.9l-3.8-9.5c-0.3-0.7-0.7-1.4-0.9-2.2c-0.7-2.2-0.6-4.8,0.9-6.5c0.9-1.1,2.7-2,4.2-1.5
				c1.2,0.4,2,1.7,2.6,2.7c0.9,1.4,1.6,3.1,2.2,4.7c0.8,2.1,1.6,2.6,2,2.1c0.4-0.7-0.6-2.4-0.9-3.1l-17.6-43.5
				c-0.5-1.2-1.1-2.5-1.5-3.8c-0.2-0.6,0-1.3,0.3-1.9c0.1-0.3,0.3-0.6,0.5-0.9c1.5-2.3,4.2-3.5,6.9-2.9c0.3,0.1,0.6,0.1,0.9,0.2
				c0.8,0.3,1.5,0.7,1.8,1.5c0.3,0.7,0.6,1.4,0.8,2.1c1.1,2.6,12.1,30.5,13,32c0.6,1.1,1.9,0.5,1.5-0.7c-0.3-1.2-1-2.4-1.4-3.6
				c-0.7-1.6-3-7-3-8.1c0-3,4.1-5.3,6.8-4.7c1.8,0.4,3,1.7,3.7,3.3l1.9,4.6c0.5,1.1,0.8,2.4,1.4,3.5c0.6,1,1.3,0.8,1.9,0
				c0.5-0.7-0.9-5.2-1.5-6.7c-0.7-1.7-1-3.5-0.1-5.3c1.2-2.4,4-3.4,6.6-2.7c1.9,0.5,2.6,1.8,3.2,3.4c0.6,1.6,2.7,7.8,4.1,7.4
				c0.6-0.2,0-2.3-0.2-2.9c-0.8-2.4,0.4-5.1,2.8-6c1.9-0.8,4.1-0.2,5.6,1c0,0,0,0,0,0c0,0,0.1,0,0.1,0.1c0,0,0.1,0,0.1,0.1
				c0,0,0,0,0,0l0,0C145.5,206.3,151.5,221.7,154.1,228.1z"/>
			
				<rect x="118" y="268.6" transform="matrix(0.9269 -0.3754 0.3754 0.9269 -92.1924 73.5737)" class="st0" width="49.6" height="9.7"/>
			<polygon class="st7" points="197.4,323.9 173.3,264.5 115.7,287.8 130.4,323.9 			"/>
		</g>
		<path class="st8" d="M95.3,186.9l1.5,3.3c1,2.1,0,4.6-2.1,5.6c-2.1,1-4.7,0-5.6-2.1l-1.5-3.2c0.1-0.3,0.3-0.6,0.4-0.8
			c1.3-2.3,3.8-3.4,6.4-3C94.7,186.7,95,186.8,95.3,186.9z"/>
	</g>
</g>
</svg>
