<?xml version="1.0" encoding="utf-8"?>
<!-- Generator: Adobe Illustrator 23.0.3, SVG Export Plug-In . SVG Version: 6.00 Build 0)  -->
<svg version="1.1" id="Layer_1" xmlns="http://www.w3.org/2000/svg" xmlns:xlink="http://www.w3.org/1999/xlink" x="0px" y="0px"
	 viewBox="0 0 182 149" style="enable-background:new 0 0 182 149;" xml:space="preserve">
<style type="text/css">
	.st0{fill:#A2A4A5;}
	.st1{fill:#FAFBFD;}
	.st2{fill:#C8C8CA;}
	.st3{fill:#E6E7E8;}
	.st4{fill:#CDD1D3;}
	.st5{fill:#E5E5E5;}
	.st6{fill:#003000;}
	.st7{fill:#0C560C;}
	.st8{fill:#FFFFFF;}
</style>
<g>
	<g>
		<rect x="26.4" y="62.2" class="st0" width="121.7" height="73.8"/>
		<g>
			<polygon class="st1" points="161,58.4 87.2,0 12.5,59.2 12.5,62 161,62 			"/>
		</g>
		<g>
			<g>
				<g>
					<polygon class="st2" points="144.5,53.9 87.1,8.4 28.9,54.5 28.9,56.6 144.5,56.7 					"/>
				</g>
			</g>
		</g>
		<g>
			<g>
				<g>
					<rect x="23.5" y="65.4" class="st1" width="7.1" height="61.8"/>
					<rect x="30.6" y="65.4" class="st3" width="8.2" height="61.8"/>
				</g>
				<g>
					<rect x="20.4" y="127.2" class="st3" width="10.2" height="8.2"/>
					<rect x="30.6" y="127.2" class="st1" width="11.7" height="8.2"/>
				</g>
				<g>
					<rect x="57.9" y="127.2" class="st3" width="10.2" height="8.2"/>
					<rect x="68" y="127.2" class="st1" width="11.7" height="8.2"/>
				</g>
				<g>
					<rect x="95.3" y="127.2" class="st3" width="10.2" height="8.2"/>
					<rect x="105.4" y="127.2" class="st1" width="11.7" height="8.2"/>
				</g>
				<g>
					<rect x="132.7" y="127.2" class="st3" width="10.2" height="8.2"/>
					<rect x="142.8" y="127.2" class="st1" width="11.7" height="8.2"/>
				</g>
				<g>
					<rect x="22.8" y="62" class="st3" width="15.6" height="6"/>
					<g>
						<path class="st4" d="M25.7,65c0,2.7-2.2,4.9-4.9,4.9c-2.7,0-4.9-2.2-4.9-4.9c0-2.7,2.2-4.9,4.9-4.9
							C23.5,60.1,25.7,62.3,25.7,65z"/>
						<path class="st3" d="M23.7,65c0,1.6-1.3,2.9-2.9,2.9c-1.6,0-2.9-1.3-2.9-2.9s1.3-2.9,2.9-2.9C22.4,62.2,23.7,63.4,23.7,65z"/>
					</g>
					<g>
						<path class="st4" d="M46.3,65c0,2.7-2.2,4.9-4.9,4.9c-2.7,0-4.9-2.2-4.9-4.9c0-2.7,2.2-4.9,4.9-4.9
							C44.1,60.1,46.3,62.3,46.3,65z"/>
						<path class="st3" d="M44.3,65c0,1.6-1.3,2.9-2.9,2.9c-1.6,0-2.9-1.3-2.9-2.9s1.3-2.9,2.9-2.9C43,62.2,44.3,63.4,44.3,65z"/>
					</g>
				</g>
			</g>
			<g>
				<g>
					<rect x="60.9" y="65.4" class="st1" width="7.1" height="61.8"/>
					<rect x="68" y="65.4" class="st3" width="8.2" height="61.8"/>
				</g>
				<g>
					<rect x="60.2" y="62" class="st3" width="15.6" height="6"/>
					<g>
						<path class="st4" d="M63.1,65c0,2.7-2.2,4.9-4.9,4.9c-2.7,0-4.9-2.2-4.9-4.9c0-2.7,2.2-4.9,4.9-4.9
							C60.9,60.1,63.1,62.3,63.1,65z"/>
						<path class="st3" d="M61.1,65c0,1.6-1.3,2.9-2.9,2.9c-1.6,0-2.9-1.3-2.9-2.9s1.3-2.9,2.9-2.9C59.8,62.2,61.1,63.4,61.1,65z"/>
					</g>
					<g>
						<path class="st4" d="M83.7,65c0,2.7-2.2,4.9-4.9,4.9c-2.7,0-4.9-2.2-4.9-4.9c0-2.7,2.2-4.9,4.9-4.9
							C81.5,60.1,83.7,62.3,83.7,65z"/>
						<path class="st3" d="M81.7,65c0,1.6-1.3,2.9-2.9,2.9c-1.6,0-2.9-1.3-2.9-2.9s1.3-2.9,2.9-2.9C80.4,62.2,81.7,63.4,81.7,65z"/>
					</g>
				</g>
			</g>
			<g>
				<g>
					<rect x="98.3" y="65.4" class="st1" width="7.1" height="61.8"/>
					<rect x="105.4" y="65.4" class="st3" width="8.2" height="61.8"/>
				</g>
				<g>
					<rect x="97.6" y="62" class="st3" width="15.6" height="6"/>
					<g>
						<path class="st4" d="M100.5,65c0,2.7-2.2,4.9-4.9,4.9c-2.7,0-4.9-2.2-4.9-4.9c0-2.7,2.2-4.9,4.9-4.9
							C98.3,60.1,100.5,62.3,100.5,65z"/>
						<path class="st3" d="M98.5,65c0,1.6-1.3,2.9-2.9,2.9c-1.6,0-2.9-1.3-2.9-2.9s1.3-2.9,2.9-2.9C97.2,62.2,98.5,63.4,98.5,65z"/>
					</g>
					<g>
						<path class="st4" d="M121.1,65c0,2.7-2.2,4.9-4.9,4.9c-2.7,0-4.9-2.2-4.9-4.9c0-2.7,2.2-4.9,4.9-4.9
							C118.9,60.1,121.1,62.3,121.1,65z"/>
						<path class="st3" d="M119.1,65c0,1.6-1.3,2.9-2.9,2.9c-1.6,0-2.9-1.3-2.9-2.9s1.3-2.9,2.9-2.9C117.8,62.2,119.1,63.4,119.1,65
							z"/>
					</g>
				</g>
			</g>
			<g>
				<g>
					<rect x="135.7" y="65.4" class="st1" width="7.1" height="61.8"/>
					<rect x="142.8" y="65.4" class="st3" width="8.2" height="61.8"/>
				</g>
				<g>
					<rect x="135" y="62" class="st3" width="15.6" height="6"/>
					<g>
						<path class="st4" d="M137.9,65c0,2.7-2.2,4.9-4.9,4.9c-2.7,0-4.9-2.2-4.9-4.9c0-2.7,2.2-4.9,4.9-4.9
							C135.7,60.1,137.9,62.3,137.9,65z"/>
						<path class="st3" d="M135.9,65c0,1.6-1.3,2.9-2.9,2.9c-1.6,0-2.9-1.3-2.9-2.9s1.3-2.9,2.9-2.9C134.6,62.2,135.9,63.4,135.9,65
							z"/>
					</g>
					<g>
						<path class="st4" d="M158.5,65c0,2.7-2.2,4.9-4.9,4.9c-2.7,0-4.9-2.2-4.9-4.9c0-2.7,2.2-4.9,4.9-4.9
							C156.3,60.1,158.5,62.3,158.5,65z"/>
						<path class="st3" d="M156.5,65c0,1.6-1.3,2.9-2.9,2.9c-1.6,0-2.9-1.3-2.9-2.9s1.3-2.9,2.9-2.9C155.2,62.2,156.5,63.4,156.5,65
							z"/>
					</g>
				</g>
			</g>
		</g>
		<polygon class="st1" points="11.4,135.4 11.4,137.6 11.4,139.9 163.1,139.9 163.1,137.6 163.1,135.4 		"/>
		<polygon class="st5" points="5.3,139.9 5.3,142.1 5.3,144.5 169.2,144.5 169.2,142.1 169.2,139.9 		"/>
		<polygon class="st1" points="0,144.5 0,146.6 0,149 174.5,149 174.5,146.6 174.5,144.5 		"/>
	</g>
	<g>
		<g>
			<g>
				<path class="st6" d="M120,44.3c0,17.2,13.9,31.1,31,31.1V13.2C133.9,13.2,120,27.1,120,44.3z"/>
				<path class="st7" d="M151,13.2v62.1c17.1,0,31-13.9,31-31.1C182,27.1,168.1,13.2,151,13.2z"/>
			</g>
			<g>
				<path class="st7" d="M125.1,44.3c0,14.3,11.6,26,25.9,26v-52C136.7,18.3,125.1,29.9,125.1,44.3z"/>
				<path class="st6" d="M151,18.3v52c14.3,0,25.9-11.6,25.9-26C176.9,29.9,165.3,18.3,151,18.3z"/>
			</g>
		</g>
		<g>
			<path class="st8" d="M133.1,35.3c0-3.3,1.5-5.3,5.4-5.3h3.9c3.8,0,5.3,2,5.3,5.3v4.4c0,3.3-1.5,5.3-5.4,5.3h-3.9
				c-3.8,0-5.3-2-5.3-5.3V35.3z M139.4,40.1h2c1.3,0,1.5-0.7,1.5-1.6v-2.1c0-1.3-0.5-1.6-1.4-1.6h-2c-0.9,0-1.5,0.2-1.5,1.6v2.1
				C137.9,39.4,138.1,40.1,139.4,40.1z M157.3,30h4.8l-17.4,28.6h-5.1L157.3,30z M154.2,48.8c0-3.3,1.4-5.3,5.4-5.3h4
				c3.8,0,5.3,2,5.3,5.3v4.4c0,3.3-1.5,5.3-5.4,5.3h-4c-3.8,0-5.3-2-5.3-5.3V48.8z M160.6,53.6h1.9c1.3,0,1.6-0.7,1.6-1.6v-2.1
				c0-1.3-0.5-1.6-1.5-1.6h-1.9c-0.9,0-1.5,0.2-1.5,1.6V52C159.1,52.9,159.3,53.6,160.6,53.6z"/>
		</g>
	</g>
</g>
</svg>
