<svg xmlns="http://www.w3.org/2000/svg" xmlns:xlink="http://www.w3.org/1999/xlink" viewBox="0 0 244.64 218.26"><defs><style>.cls-1{fill:none;stroke:#f04637;stroke-width:2px;}.cls-2{fill:#f04637;}.cls-3{fill:#fff;}.cls-4{fill:#053c5e;}.cls-5{fill:#00666b;}.cls-6{fill:#01888b;}.cls-7{fill:#475b73;}.cls-8{fill:#acc1d6;}.cls-9{fill:#12375a;}.cls-10{fill:#212b53;}.cls-11{fill:#f7b58e;}.cls-12{fill:#63c0c4;}.cls-13{fill:#f39f85;}.cls-14{fill:#6680a1;}.cls-15{fill:#ff7b7c;}.cls-16{fill:#afd8c7;}.cls-17{fill:url(#linear-gradient);}.cls-18{fill:url(#linear-gradient-2);}.cls-19{fill:url(#linear-gradient-3);}.cls-20{fill:url(#linear-gradient-4);}</style><linearGradient id="linear-gradient" x1="49.31" y1="174.87" x2="65.05" y2="179.23" gradientTransform="matrix(1, 0, 0, -1, 0, 180.92)" gradientUnits="userSpaceOnUse"><stop offset="0" stop-color="#f1f8f7"/><stop offset="1" stop-color="#bfe3ee"/></linearGradient><linearGradient id="linear-gradient-2" x1="50.63" y1="170.09" x2="63.33" y2="173.6" xlink:href="#linear-gradient"/><linearGradient id="linear-gradient-3" x1="219.29" y1="97.47" x2="239.49" y2="97.47" xlink:href="#linear-gradient"/><linearGradient id="linear-gradient-4" x1="215.16" y1="96.92" x2="239.36" y2="96.92" xlink:href="#linear-gradient"/></defs><title>Asset 1</title><g id="Layer_2" data-name="Layer 2"><g id="Layer_1-2" data-name="Layer 1"><rect class="cls-1" x="1.94" y="27.71" width="116.03" height="34.04" rx="6" ry="6" transform="matrix(0.96, -0.29, 0.29, 0.96, -10.5, 19.6)"/><path class="cls-2" d="M26.09,60.21q-.76.23-1.54.42a10.6,10.6,0,0,1-1.63.27l-2.77-9a12.92,12.92,0,0,1,1.35-.61q.74-.3,1.4-.5a9.49,9.49,0,0,1,1.66-.36,3.93,3.93,0,0,1,1.42,0,2.31,2.31,0,0,1,1.08.56,2.4,2.4,0,0,1,.69,1.14,2.06,2.06,0,0,1-.53,2.08,2.29,2.29,0,0,1,1.48.54,2.74,2.74,0,0,1,.72,1.2A2.6,2.6,0,0,1,29,58.5,5.8,5.8,0,0,1,26.09,60.21Zm-2.34-3.84.74,2.4.51-.11.59-.17A3.79,3.79,0,0,0,27,57.75a1,1,0,0,0,.27-1.17,1,1,0,0,0-.76-.76,2.89,2.89,0,0,0-1.46.14Zm-.49-1.59,1-.31a3,3,0,0,0,1.3-.66.91.91,0,0,0,.17-.93.86.86,0,0,0-.67-.66,2.88,2.88,0,0,0-1.33.16l-.57.19a5.25,5.25,0,0,0-.54.2Zm16.1-2.11a3,3,0,0,1,.11,1.46,2.8,2.8,0,0,1-.55,1.25,4,4,0,0,1-1.17,1,7.51,7.51,0,0,1-1.7.74,12.32,12.32,0,0,1-1.31.31,12.88,12.88,0,0,1-1.52.19l-2.79-9.06,2.09-.64L33.47,51l.26-.1.28-.09a5.94,5.94,0,0,1,3.52-.23A2.86,2.86,0,0,1,39.37,52.67Zm-.75-6.59,2.09-.64,2.85,9.27-2.09.64Zm-4.19,6.58-.19.06-.22.08.85,2.77.34-.09.45-.14a4.46,4.46,0,0,0,.76-.31A2,2,0,0,0,37,54.6a1.15,1.15,0,0,0,.3-.56,1.34,1.34,0,0,0,0-.72,1.17,1.17,0,0,0-1-.92A4.3,4.3,0,0,0,34.42,52.65ZM49.12,53,47,53.63l-2.85-9.27,6.33-1.95L51,44.18l-4.24,1.3Zm7.19-7.3a4.58,4.58,0,0,0,.54,1.18,3.21,3.21,0,0,0,.77.8,2.33,2.33,0,0,0,1,.36,2.54,2.54,0,0,0,1.11-.11,2.5,2.5,0,0,0,1-.53,2.17,2.17,0,0,0,.59-.84,2.86,2.86,0,0,0,.19-1.1A4.65,4.65,0,0,0,60.68,43a2.7,2.7,0,0,0-.77-.8,2.11,2.11,0,0,0-1-.38,2.5,2.5,0,0,0-1.1.1,2.41,2.41,0,0,0-1,.55,2.26,2.26,0,0,0-.59.85,3,3,0,0,0-.19,1.1A4.52,4.52,0,0,0,56.31,45.7Zm7.08-2.18a5.93,5.93,0,0,1,.28,2.21,4.51,4.51,0,0,1-.5,1.81A4.2,4.2,0,0,1,62,48.9a5.51,5.51,0,0,1-1.73.87,5.43,5.43,0,0,1-1.89.24,4.36,4.36,0,0,1-1.75-.46,4.57,4.57,0,0,1-1.46-1.21,5.92,5.92,0,0,1-1-2,5.63,5.63,0,0,1-.27-2.2,4.71,4.71,0,0,1,.53-1.83,4.43,4.43,0,0,1,1.19-1.38,5.35,5.35,0,0,1,1.67-.85,5.43,5.43,0,0,1,1.89-.24,4.27,4.27,0,0,1,1.76.47,4.54,4.54,0,0,1,1.46,1.22A5.82,5.82,0,0,1,63.39,43.52Zm3.16,2.18,1.34-.41a9.67,9.67,0,0,0,.25-1.94A10.9,10.9,0,0,0,68,41.51a13.6,13.6,0,0,0-.38-1.85q-.24-.94-.56-2L67,37.35l6.13-1.89L75.42,43,77,42.48l1.3,4.24-2,.62-.76-2.48-6.45,2,.76,2.48-2,.62Zm2.94-7.19q.2.73.36,1.51t.26,1.57a11.94,11.94,0,0,1,.08,1.56,7.06,7.06,0,0,1-.15,1.47l3.33-1-1.77-5.74ZM83,32.43l2.09-.64,2.85,9.27-2.09.64-1.21-3.93-3.51,1.08,1.21,3.93-2.09.64-2.85-9.27,2.09-.64,1.09,3.55L84.07,36Zm8.75,2.38A4.58,4.58,0,0,0,92.26,36a3.21,3.21,0,0,0,.77.8,2.33,2.33,0,0,0,1,.36A2.54,2.54,0,0,0,95.11,37a2.5,2.5,0,0,0,1-.53,2.17,2.17,0,0,0,.59-.84,2.86,2.86,0,0,0,.19-1.1,4.65,4.65,0,0,0-.76-2.46,2.7,2.7,0,0,0-.77-.8,2.11,2.11,0,0,0-1-.38,2.5,2.5,0,0,0-1.1.1,2.41,2.41,0,0,0-1,.55,2.26,2.26,0,0,0-.59.85,3,3,0,0,0-.19,1.1A4.52,4.52,0,0,0,91.72,34.8Zm7.08-2.18a5.9,5.9,0,0,1,.28,2.21,4.51,4.51,0,0,1-.5,1.81A4.2,4.2,0,0,1,97.4,38a5.51,5.51,0,0,1-1.73.87,5.43,5.43,0,0,1-1.89.24A4.36,4.36,0,0,1,92,38.66a4.57,4.57,0,0,1-1.46-1.21,5.92,5.92,0,0,1-1-2,5.63,5.63,0,0,1-.27-2.2,4.71,4.71,0,0,1,.53-1.83A4.43,4.43,0,0,1,91,30.05a5.35,5.35,0,0,1,1.67-.85A5.43,5.43,0,0,1,94.58,29a4.27,4.27,0,0,1,1.76.47,4.54,4.54,0,0,1,1.46,1.22A5.81,5.81,0,0,1,98.8,32.63Z"/><path class="cls-3" d="M121.2,52.84l-.53.36,1.57,58.56L94.11,88.51c-.1.4-.19.79-.27,1.18l28.44,23.52.45,16.9,1.07-.5-.9-33.69,17.25-12.24c-.08-.39-.16-.77-.25-1.16l-17,12.09-1.11-41.38C121.57,53.11,121.39,53,121.2,52.84Z"/><path class="cls-4" d="M126.12,112.45S104.62,67.8,69.84,66.18c-22.11,35.63,13.8,66.38,13.8,66.38l41.17,13.35Z"/><path class="cls-5" d="M104.58,83.08l-8.27,20.37L70.66,66.24l-.82-.06c-.09.14-.16.28-.25.42L83.33,86.53l-20.24-2.4-.07.57-.06.51,21.2,2.51L107,120.94l-35.66-3.06.74,1.16,35.72,3.07,16.26,23.58.69.23,0-1.08L97,104.52l8.38-20.63Z"/><path class="cls-2" d="M92.53,125.56c-11.14-2.18-24.1-2-33.91,6.22,8,56.19,79.9,49.94,79.9,49.94l-14.95-31.8A43.68,43.68,0,0,0,92.53,125.56Z"/><path class="cls-3" d="M58.62,131.78l.1.65,50.91,23.2L82.49,169.45l1.08.67,27.33-13.91,19.89,9.06-.72-1.53L91.36,146.1l-8.24-21.68-1.18,0,8,21.06L59.1,131.4Z"/><path class="cls-4" d="M145.77,135.45S157.72,101.11,182.93,97c19.08,24.12-4.52,49.53-4.52,49.53l-28.89,13.17Z"/><path class="cls-5" d="M159,112.24l7.73,14.15,15.59-29.27.6-.11.22.28L174.8,113l14.55-3.44c0,.14.06.28.1.41l.09.36-15.25,3.6L160.39,140l25.74-5.22c-.15.31-.3.61-.45.91L159.9,141,150,159.5l-.48.23-.12-.79,16.89-31.71-7.82-14.32C158.64,112.69,158.83,112.47,159,112.24Z"/><path class="cls-2" d="M154.89,150.27s24.7-17.59,41.69-6.38c0,44.34-58.72,44.34-58.72,44.34Z"/><path class="cls-3" d="M196.57,143.89c0,.16,0,.32,0,.48l-35.17,21.18,20.93,7.79-.74.58-21.08-7.85-13.74,8.27.4-1.17,26.75-16.1,4.2-16.48.86-.12-4.08,16,21.3-12.83Z"/><path class="cls-6" d="M128.56,213.62h7.17l2.95-6.34-10.12-1.61Z"/><path class="cls-6" d="M178.78,159.63H186l-8.52,6.87-2-3.32Z"/><path class="cls-6" d="M80,159.87h7.18l9.29,2.52-7.22,4.11Z"/><path class="cls-7" d="M153.9,53.43H117.57V187.9H153.9Z"/><path class="cls-7" d="M87.19,159.87l48.55,53.76,50.23-54-33.76,8.6H118Z"/><path class="cls-8" d="M146.72,53.43H110.39V187.9h36.33Z"/><path class="cls-8" d="M80,159.87l48.56,53.76,50.22-54L145,168.23H110.8Z"/><path class="cls-9" d="M197.4,215.82h-6.66c-.89.09-1.87.35-2,1.12a4.68,4.68,0,0,0-.1,1c.23.27,9.08,0,9.08,0l0,0A1.41,1.41,0,0,0,197.4,215.82Z"/><path class="cls-10" d="M188.6,217.94l9.08,0-.08.36h-9Z"/><path class="cls-3" d="M194.76,215.81h-.6l.19.82h.58Z"/><path class="cls-3" d="M193.47,215.81h-.6l.19.82h.58Z"/><path class="cls-11" d="M197.86,213.59l-.46,2.23a2.12,2.12,0,0,1-1.79,0l-.1,0-.32-2.23h2.67Z"/><path class="cls-10" d="M213,215.82h-6.66c-.89.09-1.87.35-2,1.12a4.72,4.72,0,0,0-.1,1c.23.27,9.08,0,9.08,0l0,0A1.41,1.41,0,0,0,213,215.82Z"/><path class="cls-10" d="M204.17,217.94l9.08,0-.08.36h-9Z"/><path class="cls-3" d="M210.33,215.81h-.6l.18.82h.58Z"/><path class="cls-3" d="M209,215.81h-.6l.18.82h.58Z"/><path class="cls-11" d="M212.68,213.59l.29,2.23a2.12,2.12,0,0,1-1.78,0l-.11,0L210,213.58h2.66Z"/><path class="cls-11" d="M202.73,138.78l5.49,3.59-1.7,4.35c0,.06-.06.12-.08.18l-.36,0H206a4.23,4.23,0,0,0-3.5,2.13,7.31,7.31,0,0,1-2.59-.67,2.73,2.73,0,0,1-1.22-.92C198.08,144.32,202.73,138.78,202.73,138.78Z"/><path class="cls-11" d="M195.76,139.9s-.67,6.39.68,10.45c-.63.55-2.93,3-3.66-.19s.82-11.39.82-11.39Z"/><path class="cls-10" d="M199.05,139.45l1.29.83-.46,1-1.39-.61Z"/><path class="cls-10" d="M200.24,140.79c.13-.29.14-.58,0-.63s-.32.14-.45.44-.14.58,0,.63S200.11,141.09,200.24,140.79Z"/><path class="cls-12" d="M183.47,134.75a.07.07,0,0,0,0,0,12.79,12.79,0,0,1,1.25-2.25,11.29,11.29,0,0,0,1.2-2l13.33,8.75-.86,1.64-14.91-5.53A3.75,3.75,0,0,0,183.47,134.75Z"/><path class="cls-13" d="M203.95,149l.48,3h-4.25l-.3-3.68Z"/><path class="cls-11" d="M193,156.45s-5-1.6-6.58-3.75,1.09-13.92,1.09-13.92l-.35-2.12a2,2,0,0,1,1.92-2.29h1.34a.77.77,0,0,1,.71,1.08l-1.76,4s-1.32,8.92.53,9.59a21,21,0,0,0,4.71,1Z"/><path class="cls-9" d="M202.4,149l1.29-2.87-.84-.53a1.58,1.58,0,0,1-.65-1.84l.92-2.7s-2.61-.32-2.54-2.76c0-1.26,1.72-1.26,1.72-1.26a2.5,2.5,0,0,0,2.12,1.26,4.16,4.16,0,0,1,3.84,2.39c.86,1.5.48,3.84-.27,5.6a5.12,5.12,0,0,1-4.06,2.72H202.4Z"/><path class="cls-10" d="M207.51,173.07a94.91,94.91,0,0,1-1.58,12.73,11.46,11.46,0,0,0,.39,5.86c3,8.91,7.19,22.31,7.19,22.31h-3.73s-8.46-15.84-10.63-23.69-2.55-10.35-2.55-10.35l2.59-6.85h8.33Z"/><path class="cls-11" d="M204.39,144.81a1.21,1.21,0,0,1-.69,1.33c-.53.28-1.1.15-1.25-.3a1.21,1.21,0,0,1,.69-1.33C203.68,144.21,204.24,144.35,204.39,144.81Z"/><path class="cls-14" d="M195.34,173.07h12.17V157.43a6.63,6.63,0,0,0-6-6.61l-8.46-1s-1,1.53-3.77,5.07a28.51,28.51,0,0,0,7.19,3Z"/><path class="cls-4" d="M207.51,173.07s-1.72,6.23-8.06,13.22a8.18,8.18,0,0,0-2.37,6.35L198.39,214H194.6S190,196.26,191,187.53a40.1,40.1,0,0,1,4.35-14.46Z"/><path class="cls-3" d="M185.51,133.29c.65-1.36.83-2.64.39-2.85s-1.33.72-2,2.08-.83,2.64-.39,2.85S184.85,134.65,185.51,133.29Z"/><path class="cls-11" d="M196.28,137.29l-.11.06a1.68,1.68,0,0,1-1.27.08l-.07,0a2.29,2.29,0,0,1-1.45-1.47.42.42,0,0,1,.49-.54l.84.18a1.3,1.3,0,0,1,.8.54Z"/><path class="cls-13" d="M76.78,143.45l-.69,3.3-3.46-1L74.88,141Z"/><path class="cls-11" d="M77.64,144.37a1.83,1.83,0,0,0,1,.08c1.68-1.3,1.81-6.22,1.81-6.22l-1.58-1.36-2.79.71-1.09,3A2.56,2.56,0,0,0,75.4,143,5,5,0,0,0,77.64,144.37Z"/><path class="cls-10" d="M75.92,139.4c.29-.47.6-1.66,1.08-1.41s1.62.65,2.06.78c1,.33,3,.52,3.5-1.06a2.12,2.12,0,0,0-2.2-2.56c-1.26,0-3.05.43-3.62.11a1.63,1.63,0,0,0-2.41.61,9,9,0,0,0-.06,3.49,5.24,5.24,0,0,0,.6,1.68Z"/><path class="cls-11" d="M74.84,139.17a.82.82,0,0,1,.94.4c.22.35.16.74-.14.87a.82.82,0,0,1-.94-.4A.58.58,0,0,1,74.84,139.17Z"/><path class="cls-14" d="M74.12,145.06c-6.44-.36-7,5.39-7.53,11.63a118.25,118.25,0,0,0-.15,15h15s0-6.66-.16-13.32C81.13,151.89,80.94,145.44,74.12,145.06Z"/><path class="cls-13" d="M80.64,168.38s1.47-1,2-.78.11,1.27.11,1.27Z"/><path class="cls-11" d="M70.09,157.49l-.7,4.77L80.88,168l-1.25,1.25s-12.9-2.33-14.72-4-.56-8.54-.56-8.54Z"/><path class="cls-13" d="M83,165c2.63-.93,1-10,1-10l-1.56,0S80.32,166,83,165Z"/><path class="cls-11" d="M78.92,169l2.71,1.74c1.09.5,2.05-.28,2.83-1.39a1,1,0,0,0-.85-1.61c-1,0-2.16.21-2.74.25Z"/><path class="cls-14" d="M84.39,155l-1.83,1.11s-7.75-12.57-3.92-9.26A22.59,22.59,0,0,1,84.39,155Z"/><path class="cls-10" d="M75.27,213.79s0,1.8,3.62,2.88c.74.22.5.44.64.75H75.38l-1.62-1.83-.51.44-1.18-1.17s.55-1.67,1.44-1.68Z"/><path class="cls-11" d="M75.94,212.23l-.68,1.56a1.63,1.63,0,0,1-1.69-.51l-.07-.09.55-1.6Z"/><path class="cls-14" d="M64.34,156.67s2.46-11.47,8.28-11.21-2.53,12-2.53,12Z"/><path class="cls-11" d="M82.91,165.21c3.64-3-3.51-18.37-3.51-18.37l-1.74.18S77.8,167.46,82.91,165.21Z"/><path class="cls-3" d="M76.78,145.62l-.23-1.13-3-.59-1,1.19Z"/><path class="cls-11" d="M79.4,146.84l.22-2.94s-1.46-2.25-2.85-1.64a3.53,3.53,0,0,0,.19,1.86l.7,2.9Z"/><path class="cls-10" d="M81.44,171.67s2.09,13.14,1.6,19.22-7.14,22-7.14,22L73,212s-.22-10.62,2.62-17.59a6.5,6.5,0,0,0,0-4.79,80.89,80.89,0,0,1-3.25-10.07l.22-7.87h8.83Z"/><path class="cls-13" d="M79.22,146.72h0l.21-2.78c-.19-.28-1.44-2-2.59-1.58a3.48,3.48,0,0,0,.22,1.72v0l-.31,0a3.36,3.36,0,0,1-.15-1.86l0,0,0,0c1.48-.64,3,1.6,3,1.7l0,0L79.53,147l-.17,0A2.16,2.16,0,0,0,79.22,146.72Z"/><path class="cls-10" d="M69.64,214.74a10.28,10.28,0,0,0,4.25,2c.65.17,1.35-.06,1.35,1H71.65l-3-.52v.52H67.06s-.45-2.64.49-3Z"/><path class="cls-11" d="M69.32,212.85l.31,1.89a1.81,1.81,0,0,1-2,.06l-.11-.06.16-1.89Z"/><path class="cls-4" d="M77,171.67l-7,41.73H67.28s-2.4-11.24-.55-20.32a13.64,13.64,0,0,0,.12-4.79c-1.76-11.72-.42-16.62-.42-16.62Z"/><path class="cls-2" d="M180.21,65.91h13.41c.59,0,1.23,0,1.92-.05a13.08,13.08,0,0,0,2-.27,8.18,8.18,0,0,0,4.72-2.7q2.09-2.26,2.09-8.2V38.26c0-.59,0-1.27-.11-2a13.93,13.93,0,0,0-.44-2.37A9.19,9.19,0,0,0,201,29.44q-2.18-2-7.24-2H181.43q-5.17,0-7.37,2a9.19,9.19,0,0,0-2.86,4.41,10.68,10.68,0,0,0-.38,2.37c0,.77-.05,1.45-.05,2V54.67q0,6.83,2.53,8.87a9.89,9.89,0,0,0,5.61,2.26A8.18,8.18,0,0,0,180.21,65.91Zm5.17-29.08a2.85,2.85,0,0,1,.6-1.71,2.63,2.63,0,0,1,1.59-1,2.71,2.71,0,0,1,1.59,1,2.78,2.78,0,0,1,.6,1.76V56.44a2.38,2.38,0,0,1-.66,1.76,3.23,3.23,0,0,1-1.54.88.55.55,0,0,1-.22-.05.46.46,0,0,0-.22-.05,4.11,4.11,0,0,1-1.21-.94,2.27,2.27,0,0,1-.55-1.6V36.82Z"/><path class="cls-2" d="M242.55,86.95a9.73,9.73,0,0,0-4.62-2.86,14.75,14.75,0,0,0-2.08-.27c-.66,0-1.29-.05-1.87-.05H221.66q-5.5,0-7.69,2.09a9,9,0,0,0-2.75,4.52,14.13,14.13,0,0,0-.27,2.2c0,.74-.05,1.39-.05,2V111q0,6.72,2.53,8.76A9.89,9.89,0,0,0,219,122a8.27,8.27,0,0,0,1.32.11,8.15,8.15,0,0,1,1.32.11h11.21l1.1-.11c.59,0,1.19,0,1.81-.05a12.78,12.78,0,0,0,1.92-.27,8.6,8.6,0,0,0,4.78-2.64q2.14-2.2,2.14-8.15V94.56Q244.63,89.15,242.55,86.95ZM230,112.62a2.38,2.38,0,0,1-.66,1.76,3.38,3.38,0,0,1-1.32.88c-.07.07-.13.11-.16.11h-.16a3.24,3.24,0,0,1-1.48-1,2.53,2.53,0,0,1-.72-1.76V92.84a.91.91,0,0,1,.11-.38,2.48,2.48,0,0,1,.66-1.27,2.85,2.85,0,0,1,1.54-.83,2.61,2.61,0,0,1,1.59,1,2.86,2.86,0,0,1,.6,1.71v19.5Z"/><path class="cls-2" d="M221.77,28h-1.1l-42.1,92.53h16.49L237.27,28Z"/><path class="cls-15" d="M175.27,65.91h13.41c.59,0,1.23,0,1.92-.05a13.1,13.1,0,0,0,2-.27,8.18,8.18,0,0,0,4.72-2.7q2.08-2.26,2.09-8.2V38.26c0-.59,0-1.27-.11-2a13.83,13.83,0,0,0-.44-2.37A9.18,9.18,0,0,0,196,29.44q-2.18-2-7.25-2H176.48q-5.16,0-7.37,2a9.18,9.18,0,0,0-2.86,4.41,10.68,10.68,0,0,0-.38,2.37c0,.77-.05,1.45-.05,2V54.67q0,6.83,2.53,8.87A9.89,9.89,0,0,0,174,65.8,8.26,8.26,0,0,0,175.27,65.91Zm5.16-29.08a2.85,2.85,0,0,1,.6-1.71,2.63,2.63,0,0,1,1.59-1,2.7,2.7,0,0,1,1.59,1,2.78,2.78,0,0,1,.6,1.76V56.44a2.38,2.38,0,0,1-.66,1.76,3.23,3.23,0,0,1-1.54.88.54.54,0,0,1-.22-.05.46.46,0,0,0-.22-.05A4.1,4.1,0,0,1,181,58a2.27,2.27,0,0,1-.55-1.6V36.82Z"/><path class="cls-15" d="M216.83,28h-1.11l-42.1,92.53h16.49L232.32,28Z"/><path class="cls-15" d="M237.6,86.95A9.73,9.73,0,0,0,233,84.08a14.78,14.78,0,0,0-2.09-.27c-.66,0-1.29-.05-1.87-.05H216.71q-5.5,0-7.69,2.09a9,9,0,0,0-2.75,4.52,14.13,14.13,0,0,0-.27,2.2c0,.74-.05,1.39-.05,2V111q0,6.72,2.53,8.76a9.89,9.89,0,0,0,5.61,2.26,8.27,8.27,0,0,0,1.32.11,8.15,8.15,0,0,1,1.32.11h11.21l1.1-.11c.59,0,1.19,0,1.81-.05a12.78,12.78,0,0,0,1.92-.27,8.6,8.6,0,0,0,4.78-2.64q2.14-2.2,2.14-8.15V94.56Q239.69,89.15,237.6,86.95Zm-12.53,25.67a2.38,2.38,0,0,1-.66,1.76,3.38,3.38,0,0,1-1.32.88c-.07.07-.13.11-.16.11h-.16a3.24,3.24,0,0,1-1.48-1,2.52,2.52,0,0,1-.72-1.76V92.84a.93.93,0,0,1,.11-.38,2.49,2.49,0,0,1,.66-1.27,2.85,2.85,0,0,1,1.54-.83,2.61,2.61,0,0,1,1.59,1,2.86,2.86,0,0,1,.6,1.71v19.5Z"/><path class="cls-16" d="M64.42,3.7l2.73,3-3.95.18L49.4,6.39Z"/><path class="cls-12" d="M67.15,6.69,60.74,8.05l1.32-1.22Z"/><path class="cls-17" d="M64.42,3.7,64.58,0,49.4,6.39Z"/><path class="cls-18" d="M49.4,6.39l13.8.48-.54,5.42Z"/><path class="cls-12" d="M66.73,10.58a.31.31,0,0,0,.07-.1.31.31,0,0,0-.15-.41,7.91,7.91,0,0,0-1.49-.55.31.31,0,0,0-.38.22.32.32,0,0,0,.22.38,8,8,0,0,1,1.39.52A.33.33,0,0,0,66.73,10.58Z"/><path class="cls-12" d="M71.11,44.34a.31.31,0,0,1,0-.44,8.88,8.88,0,0,0,1.66-2.49.31.31,0,1,1,.56.25,9.26,9.26,0,0,1-1.77,2.67l0,0A.31.31,0,0,1,71.11,44.34Zm2.45-4.27a.31.31,0,0,1-.23-.37,11,11,0,0,0,.32-3,.31.31,0,1,1,.61,0,11.66,11.66,0,0,1-.35,3.17.32.32,0,0,1-.09.15A.27.27,0,0,1,73.56,40.07Zm.26-4.94a.31.31,0,0,1-.36-.24l0-.14A14,14,0,0,0,72.5,32a.31.31,0,1,1,.56-.25,15,15,0,0,1,1,2.87l0,.15a.3.3,0,0,1-.1.29A.25.25,0,0,1,73.82,35.13Zm-1.73-4.65a.3.3,0,0,1-.42-.11,21.82,21.82,0,0,0-1.74-2.53.32.32,0,0,1,0-.44.31.31,0,0,1,.43,0A23.77,23.77,0,0,1,72.2,30a.31.31,0,0,1-.06.38A.17.17,0,0,1,72.09,30.48Zm-2.92-4a.31.31,0,0,1-.44,0l-.17-.19c-.28.21-.57.4-.87.59a.31.31,0,0,1-.32-.53,8.51,8.51,0,0,0,.77-.52c-.47-.5-1-1-1.55-1.58a.31.31,0,0,1,.43-.45c.59.57,1.11,1.12,1.6,1.63a8.4,8.4,0,0,0,1-1,.31.31,0,1,1,.47.4A9.85,9.85,0,0,1,69,25.84l.15.17A.31.31,0,0,1,69.18,26.45Zm1.65-3.15a.31.31,0,0,1-.12-.42,8.15,8.15,0,0,0,.69-1.71A8.64,8.64,0,0,0,71.62,20a.3.3,0,1,1,.61.07A8.7,8.7,0,0,1,72,21.33a8.4,8.4,0,0,1-.74,1.85.31.31,0,0,1-.42.12ZM66,27.65a9.71,9.71,0,0,1-3.14.62.31.31,0,0,1-.31-.3.31.31,0,0,1,.3-.32,9.16,9.16,0,0,0,2.94-.57.31.31,0,0,1,.4.18.3.3,0,0,1-.08.33A.21.21,0,0,1,66,27.65Zm6-9.13a.31.31,0,0,1-.34-.28,9.4,9.4,0,0,0-.78-2.91.31.31,0,1,1,.56-.25,10.09,10.09,0,0,1,.82,3.09.34.34,0,0,1-.1.26A.3.3,0,0,1,72,18.52ZM60.91,28.1c-.27-.06-.55-.13-.81-.21A6.59,6.59,0,0,1,58,26.75a.31.31,0,0,1,.39-.49,5.89,5.89,0,0,0,1.92,1c.24.07.49.15.74.19a.31.31,0,0,1,.24.36.3.3,0,0,1-.1.16A.27.27,0,0,1,60.91,28.1Zm4.35-5.17a11.36,11.36,0,0,0-2.45-1.76.31.31,0,0,1,.27-.55,11.89,11.89,0,0,1,2.59,1.85.31.31,0,0,1,0,.44l0,0A.32.32,0,0,1,65.26,22.93Zm5.14-9.08a.31.31,0,0,1-.43-.08,9.26,9.26,0,0,0-.86-1.08,9.72,9.72,0,0,0-1.2-1.11.31.31,0,0,1,.37-.49,9.85,9.85,0,0,1,1.28,1.18,11.22,11.22,0,0,1,.9,1.14.31.31,0,0,1,0,.4ZM57.11,25.38a.31.31,0,0,1-.42-.11,3.41,3.41,0,0,1-.41-2.44,3.21,3.21,0,0,1,.31-.84.31.31,0,0,1,.42-.12.31.31,0,0,1,.12.42,2.5,2.5,0,0,0-.25.67,2.78,2.78,0,0,0,.35,2,.32.32,0,0,1-.06.38Zm4-4.77a4.37,4.37,0,0,0-2.8.5.31.31,0,0,1-.31-.53A5,5,0,0,1,61.22,20a.31.31,0,0,1-.1.61Z"/><path class="cls-12" d="M70,45.54a.32.32,0,0,0,.06-.39.3.3,0,0,0-.42-.11,6.24,6.24,0,0,1-1.33.62.31.31,0,0,0,.19.58A7,7,0,0,0,70,45.57.07.07,0,0,0,70,45.54Z"/><path class="cls-19" d="M239.49,86.94l-10.66-5.89L223.4,80l-4.11.61Z"/><path class="cls-16" d="M239.49,86.94l-19.95-5.14-.26-1.24"/><path class="cls-12" d="M219,85.24l0,0,.84,3.1,19.6-1.43Z"/><path class="cls-20" d="M215.16,83.42,218,81.1l21.34,5.81L221,86.36Z"/><path class="cls-12" d="M170.3,123a14.27,14.27,0,0,0,1.92-.83.29.29,0,1,1,.27.51,14.47,14.47,0,0,1-2,.87c-.24.09-.49.17-.74.24a.32.32,0,0,1-.26,0,.26.26,0,0,1-.1-.15.29.29,0,0,1,.19-.36Z"/><path class="cls-12" d="M209.34,81.25c.9.11,1.85.27,2.88.45a.29.29,0,0,1-.11.57c-1-.19-2-.34-2.84-.45a.29.29,0,0,1-.14-.06.28.28,0,0,1-.11-.27A.29.29,0,0,1,209.34,81.25Z"/><path class="cls-12" d="M204.5,81.47a.3.3,0,0,1-.12-.24.29.29,0,0,1,.29-.29c.93,0,1.91,0,2.92.11a.29.29,0,0,1,.27.32.3.3,0,0,1-.31.27c-1-.08-2-.12-2.87-.11A.33.33,0,0,1,204.5,81.47Z"/><path class="cls-12" d="M175.89,119.52a.29.29,0,0,1,.4.42A16.4,16.4,0,0,1,174,121.8a.28.28,0,0,1-.33,0,.18.18,0,0,1-.07-.07.29.29,0,0,1,.08-.4A16.59,16.59,0,0,0,175.89,119.52Z"/><path class="cls-12" d="M177.09,118.67a.3.3,0,0,1,0-.41c.16-.2.32-.41.48-.62a15.16,15.16,0,0,0,1.11-1.75.29.29,0,1,1,.51.28A16,16,0,0,1,178,118c-.16.22-.32.43-.49.63a.29.29,0,0,1-.4,0Z"/><path class="cls-12" d="M179.53,114.73l-.07,0a.29.29,0,0,1-.1-.34,19.67,19.67,0,0,0,.88-2.72.29.29,0,1,1,.57.15,20.68,20.68,0,0,1-.9,2.8A.29.29,0,0,1,179.53,114.73Z"/><path class="cls-12" d="M187.21,90c-.24.29-.48.6-.7.91-.34.46-.67.94-1,1.43a.28.28,0,0,1-.4.09l0,0a.29.29,0,0,1-.07-.39c.31-.49.65-1,1-1.46.23-.32.47-.62.72-.92a.28.28,0,0,1,.41,0A.28.28,0,0,1,187.21,90Z"/><path class="cls-12" d="M184.69,93.78a20.29,20.29,0,0,0-1.15,2.62.29.29,0,0,1-.37.18l-.07,0a.29.29,0,0,1-.1-.33,22.76,22.76,0,0,1,1.18-2.7.28.28,0,0,1,.39-.12A.29.29,0,0,1,184.69,93.78Z"/><path class="cls-12" d="M190.44,86.72a23.93,23.93,0,0,0-2.1,2,.29.29,0,0,1-.38,0l0,0a.29.29,0,0,1,0-.41,25.24,25.24,0,0,1,2.15-2,.29.29,0,0,1,.41,0A.3.3,0,0,1,190.44,86.72Z"/><path class="cls-12" d="M195.79,83.42a.31.31,0,0,1-.29,0,.25.25,0,0,1-.09-.11.29.29,0,0,1,.15-.38,23,23,0,0,1,2.75-1,.29.29,0,0,1,.17.56A20.21,20.21,0,0,0,195.79,83.42Z"/><path class="cls-12" d="M181.51,105.7a.27.27,0,0,1-.14-.06.28.28,0,0,1-.11-.27l0-.36c.1-.84.19-1.68.3-2.52a.29.29,0,1,1,.57.07c-.11.83-.21,1.68-.3,2.52l0,.36A.3.3,0,0,1,181.51,105.7Z"/><path class="cls-12" d="M191.81,85.67a.29.29,0,0,1-.34,0l-.06-.06a.29.29,0,0,1,.07-.4,24,24,0,0,1,2.5-1.55.29.29,0,0,1,.4.12.3.3,0,0,1-.12.4A21.76,21.76,0,0,0,191.81,85.67Z"/><path class="cls-12" d="M181.38,106.84a.28.28,0,0,1,.25.32c-.15,1.13-.28,2-.44,2.89a.3.3,0,0,1-.34.24.33.33,0,0,1-.12,0,.28.28,0,0,1-.11-.28c.15-.82.29-1.73.44-2.86A.29.29,0,0,1,181.38,106.84Z"/><path class="cls-12" d="M167.92,123.66a.29.29,0,0,1,.11.57,23.17,23.17,0,0,1-2.91.37.28.28,0,0,1-.19-.06.26.26,0,0,1-.11-.21.28.28,0,0,1,.27-.31A23.5,23.5,0,0,0,167.92,123.66Z"/><path class="cls-12" d="M182.82,97.67a.29.29,0,0,1,.2.36c-.23.86-.43,1.77-.6,2.81a.28.28,0,0,1-.33.24A.21.21,0,0,1,182,101a.31.31,0,0,1-.11-.28c.18-1.06.38-2,.61-2.87A.28.28,0,0,1,182.82,97.67Z"/><path class="cls-12" d="M201.9,81.12l1-.1a.28.28,0,0,1,.31.27.3.3,0,0,1-.27.32l-1,.1c-.61.07-1.23.18-1.84.31a.3.3,0,0,1-.23,0,.28.28,0,0,1-.11-.17.3.3,0,0,1,.23-.35C200.64,81.3,201.27,81.2,201.9,81.12Z"/></g></g></svg>