<svg xmlns="http://www.w3.org/2000/svg" xmlns:xlink="http://www.w3.org/1999/xlink" viewBox="0 0 287.58 223.43"><defs><style>.cls-1{fill:#f04637;}.cls-2{fill:none;stroke:#f04637;stroke-width:2px;}.cls-3{fill:#acc1d6;}.cls-4{fill:#475b73;}.cls-5{fill:#6680a1;}.cls-6{fill:#f14539;}.cls-7{fill:#ff7b7c;}.cls-8{fill:#f2e1f0;}.cls-9{fill:#2d2c45;}.cls-10{fill:#fff;}.cls-11{fill:#63c1c5;}.cls-12{fill:url(#linear-gradient);}.cls-13{fill:#b0d9c8;}.cls-14{fill:url(#linear-gradient-2);}.cls-15{fill:url(#linear-gradient-3);}.cls-16{fill:url(#linear-gradient-4);}.cls-17{fill:#f8b68f;}.cls-18{fill:#f4a086;}.cls-19{fill:#212b53;}</style><linearGradient id="linear-gradient" x1="153.89" y1="190.62" x2="184.86" y2="190.62" gradientTransform="matrix(1, 0, 0, -1, 0, 207.9)" gradientUnits="userSpaceOnUse"><stop offset="0" stop-color="#f1f8f8"/><stop offset="1" stop-color="#c0e4ef"/></linearGradient><linearGradient id="linear-gradient-2" x1="147.62" y1="189.78" x2="184.68" y2="189.78" xlink:href="#linear-gradient"/><linearGradient id="linear-gradient-3" x1="117.3" y1="104.4" x2="92.26" y2="104.4" xlink:href="#linear-gradient"/><linearGradient id="linear-gradient-4" x1="117.3" y1="96.84" x2="97.11" y2="96.84" xlink:href="#linear-gradient"/></defs><title>Asset 1</title><g id="Layer_2" data-name="Layer 2"><g id="Layer_1-2" data-name="Layer 1"><path class="cls-1" d="M223.82,48l4.86,8.4-1.89,1.09-3.93-6.8-3.13,1.81,3.93,6.8-1.89,1.09L216.91,52Zm5.62-3.38a6,6,0,0,1,3.27-1A2.75,2.75,0,0,1,235,45.17a2.82,2.82,0,0,1,.25,2.78,6.13,6.13,0,0,1-2.52,2.35l-.59.34,1.63,2.81-1.89,1.09L227,46.27a12.4,12.4,0,0,1,1.21-.93Q228.92,44.9,229.44,44.59Zm1.05,1.54-.4.25-.32.22,1.4,2.42.59-.34a3.72,3.72,0,0,0,1.32-1.12,1.19,1.19,0,0,0-.08-1.28,1.33,1.33,0,0,0-.47-.5,1,1,0,0,0-.57-.15,1.66,1.66,0,0,0-.68.14A5,5,0,0,0,230.49,46.14ZM240,44.21a4.56,4.56,0,0,0,.79,1,3.21,3.21,0,0,0,.93.61,2.33,2.33,0,0,0,1,.14,2.54,2.54,0,0,0,1.06-.35,2.5,2.5,0,0,0,.82-.73,2.17,2.17,0,0,0,.39-1,2.84,2.84,0,0,0-.06-1.11,4.65,4.65,0,0,0-1.29-2.23,2.7,2.7,0,0,0-.93-.61,2.11,2.11,0,0,0-1-.15,2.5,2.5,0,0,0-1,.35,2.41,2.41,0,0,0-.83.75,2.27,2.27,0,0,0-.38,1,3,3,0,0,0,.06,1.11A4.49,4.49,0,0,0,240,44.21Zm6.41-3.71a5.91,5.91,0,0,1,.77,2.09,4.51,4.51,0,0,1-.08,1.87,4.19,4.19,0,0,1-.86,1.59,5.5,5.5,0,0,1-1.49,1.23A5.42,5.42,0,0,1,243,48a4.36,4.36,0,0,1-1.81-.05,4.57,4.57,0,0,1-1.69-.85A5.93,5.93,0,0,1,238,45.34a5.63,5.63,0,0,1-.75-2.09,4.69,4.69,0,0,1,.11-1.91,4.42,4.42,0,0,1,.85-1.61,5.34,5.34,0,0,1,1.44-1.2,5.43,5.43,0,0,1,1.79-.66,4.26,4.26,0,0,1,1.82.07,4.54,4.54,0,0,1,1.7.86A5.81,5.81,0,0,1,246.41,40.51Zm9.15.55a4.74,4.74,0,0,1-3.79.67,5.26,5.26,0,0,1-2.94-2.62,5.69,5.69,0,0,1-.74-2,4.57,4.57,0,0,1,.1-1.9,4.3,4.3,0,0,1,.86-1.65,5.67,5.67,0,0,1,1.54-1.28,6.94,6.94,0,0,1,1.89-.74,3.91,3.91,0,0,1,.66-.11h.41l.34,1.84a5.24,5.24,0,0,0-1.11.17,4.89,4.89,0,0,0-1.25.53,3,3,0,0,0-.78.64,2.26,2.26,0,0,0-.47.9,2.68,2.68,0,0,0,0,1.12,4,4,0,0,0,.52,1.35,5.42,5.42,0,0,0,.75,1,2.82,2.82,0,0,0,.91.62,2.42,2.42,0,0,0,1.09.15,3.14,3.14,0,0,0,1.23-.44,5.8,5.8,0,0,0,.71-.48q.3-.24.52-.45a4,4,0,0,0,.36-.42l.26-.36L258,38.8a5.11,5.11,0,0,1-.87,1.09A7.6,7.6,0,0,1,255.56,41.06Zm6.78-15.35.93,1.61-2.53,1.46,3.92,6.79-1.89,1.09-3.92-6.79-2.53,1.46-.93-1.61Zm6.15,2a4.62,4.62,0,0,0,.79,1,3.22,3.22,0,0,0,.93.61,2.33,2.33,0,0,0,1,.14,2.53,2.53,0,0,0,1.06-.35,2.5,2.5,0,0,0,.82-.73,2.17,2.17,0,0,0,.39-1,2.86,2.86,0,0,0-.06-1.11,4.65,4.65,0,0,0-1.29-2.23,2.71,2.71,0,0,0-.93-.61,2.12,2.12,0,0,0-1-.15,2.51,2.51,0,0,0-1,.35,2.41,2.41,0,0,0-.83.75,2.27,2.27,0,0,0-.38,1,3,3,0,0,0,.06,1.11A4.56,4.56,0,0,0,268.49,27.74ZM274.9,24a5.91,5.91,0,0,1,.77,2.09,4.51,4.51,0,0,1-.08,1.87,4.19,4.19,0,0,1-.86,1.59,5.5,5.5,0,0,1-1.49,1.23,5.43,5.43,0,0,1-1.79.66,4.36,4.36,0,0,1-1.81-.05,4.57,4.57,0,0,1-1.69-.85,5.94,5.94,0,0,1-1.43-1.71,5.63,5.63,0,0,1-.75-2.09,4.71,4.71,0,0,1,.11-1.91,4.44,4.44,0,0,1,.85-1.61,5.36,5.36,0,0,1,1.44-1.2,5.43,5.43,0,0,1,1.79-.66,4.26,4.26,0,0,1,1.82.07,4.54,4.54,0,0,1,1.7.86A5.82,5.82,0,0,1,274.9,24Z"/><path class="cls-2" d="M224.1,9.24a6,6,0,0,1,6.29-3.64l3.73.47A8,8,0,0,0,240,4.51l3-2.28a6,6,0,0,1,7.26,0l3,2.28a8,8,0,0,0,5.85,1.57l3.73-.48a6,6,0,0,1,6.29,3.63l1.46,3.47A8,8,0,0,0,274.87,17l3.47,1.45A6,6,0,0,1,282,24.71l-.47,3.73a8,8,0,0,0,1.57,5.85l2.28,3a6,6,0,0,1,0,7.26l-2.28,3a8,8,0,0,0-1.57,5.85l.48,3.73a6,6,0,0,1-3.63,6.29l-3.47,1.46a8,8,0,0,0-4.28,4.29l-1.45,3.47a6,6,0,0,1-6.29,3.64l-3.73-.47a8,8,0,0,0-5.85,1.57l-3,2.28a6,6,0,0,1-7.26,0l-3-2.28a8,8,0,0,0-5.86-1.57l-3.73.48a6,6,0,0,1-6.29-3.63l-1.46-3.47a8,8,0,0,0-4.29-4.28l-3.47-1.45a6,6,0,0,1-3.64-6.29l.47-3.73a8,8,0,0,0-1.57-5.85l-2.28-3a6,6,0,0,1,0-7.26l2.28-3a8,8,0,0,0,1.57-5.85l-.48-3.73a6,6,0,0,1,3.63-6.29L218.37,17a8,8,0,0,0,4.28-4.29Z"/><path class="cls-3" d="M8.21,67.37,11.4,78.25l16-4.69,4.41,15.11-.52.17L63.8,199.45a16.46,16.46,0,0,0,20.39,11.12l85.22-24.78L132.11,58.68A26.48,26.48,0,0,0,99.29,40.79Z"/><path class="cls-4" d="M3.45,91.57l-3-10.13A12,12,0,0,1,8.62,66.61,16.46,16.46,0,0,1,29,77.62l1.74,6Z"/><path class="cls-5" d="M173.53,184.57c-17.37,5-84.63,24.73-84.63,24.73s16.09-8.51,4.18-27.85c26.26-7.64,90.09-26.29,90.09-26.29S196.07,178,173.53,184.57Z"/><path class="cls-6" d="M131.76,79.93,126,78.31l-3.08,6.25L129.61,88l2.73-5.85Z"/><path class="cls-7" d="M127.46,75.65l-5.29,11.12-8-4.75,4.76-9.15Z"/><path class="cls-6" d="M190.78,64.88,195,60.71l5.69,4.05L196.59,71l-5.23-3.82Z"/><path class="cls-7" d="M192.52,59.09l9.93,7.24,4.76-8-8.6-5.79Z"/><path class="cls-6" d="M163.36,72.23l-3.72.93A3,3,0,0,1,156,71l-4.42-17.26a3,3,0,0,1,2.15-3.65l3.72-.93a3,3,0,0,1,3.66,2.14l4.41,17.26A3,3,0,0,1,163.36,72.23Z"/><path class="cls-4" d="M181.15,151.67a47,47,0,1,0-57.32-33.86A47,47,0,0,0,181.15,151.67Z"/><path class="cls-8" d="M210.24,90.12l-.17-.17c-.29-.23-.58-.52-.93-.75a41.75,41.75,0,0,1,2.15,6.25,42.76,42.76,0,0,1-67.38,44.47l-.17.7a43.42,43.42,0,0,0,68.19-45.34A53.56,53.56,0,0,0,210.24,90.12Z"/><path class="cls-8" d="M133.45,83.52A42.56,42.56,0,0,1,159.18,64.7q2.18-.52,4.36-.87a2.59,2.59,0,0,1-.06-.64c-1.51.23-3,.52-4.47.87a43,43,0,0,0-25.85,18.7A6.5,6.5,0,0,1,133.45,83.52Z"/><path class="cls-9" d="M179.52,143.86a39,39,0,1,0-47.63-28.14A39,39,0,0,0,179.52,143.86Z"/><path class="cls-7" d="M147.21,50.11l.52,5.85,18-4.92-2-5Z"/><path class="cls-6" d="M156.86,114.27l29.45-33.93L164,121.39Z"/><path class="cls-7" d="M181.25,88.39c-1.63,2.08-3.19,4.17-4.88,6.25-3.54,4.23-7.14,8.4-10.57,12.74a105.71,105.71,0,0,0-6.27,9.61l4.47,4.46,19.11-35.27Z"/><path class="cls-10" d="M169.61,109.3a3.42,3.42,0,1,0-4.17-2.46A3.42,3.42,0,0,0,169.61,109.3Z"/><path class="cls-11" d="M169.14,107.45a1.51,1.51,0,1,0-1.84-1.08A1.5,1.5,0,0,0,169.14,107.45Z"/><path class="cls-10" d="M160.84,69.11l-1,.24,2.13,8.3,1-.24Z"/><path class="cls-10" d="M177.56,134.32l-1,.24,2.13,8.3,1-.24Z"/><path class="cls-10" d="M206.56,96.08l-8.33,2.13.24,1L206.8,97Z"/><path class="cls-10" d="M141.1,112.82l-8.33,2.13.24,1,8.33-2.12Z"/><path class="cls-10" d="M197.45,122l-.33.55,4.85,2.86.32-.55Z"/><path class="cls-10" d="M137.2,86.38l-.32.55,4.85,2.86.33-.55Z"/><path class="cls-10" d="M188.62,73.28l-2.87,4.83.55.32,2.87-4.83Z"/><path class="cls-10" d="M152.89,133.36,150,138.19l.55.32,2.87-4.83Z"/><path class="cls-10" d="M198.78,81.9l-4.38,3.53.4.49,4.38-3.53Z"/><path class="cls-10" d="M144.36,125.82,140,129.35l.4.49,4.38-3.53Z"/><path class="cls-10" d="M174.84,68.55,174,74.1l.63.09.83-5.56Z"/><path class="cls-10" d="M164.54,137.58l-.83,5.56.63.09.83-5.55Z"/><path class="cls-10" d="M146.76,75.79l-.51.39,3.44,4.45.51-.39Z"/><path class="cls-10" d="M189.46,131.14l-.51.39,3.44,4.45.51-.39Z"/><path class="cls-10" d="M132.21,100l-.09.63,5.57.83.09-.63Z"/><path class="cls-10" d="M201.47,110.29l-.09.63,5.57.83.09-.63Z"/><path class="cls-10" d="M195.18,101.35a4.59,4.59,0,1,0-5,4.13A4.58,4.58,0,0,0,195.18,101.35Z"/><path class="cls-10" d="M186.57,96.76A2.32,2.32,0,1,0,184,98.85,2.32,2.32,0,0,0,186.57,96.76Z"/><path class="cls-12" d="M184.86,22.6l-16.32-9-8.31-1.68-6.33.93Z"/><path class="cls-13" d="M184.86,22.6,154.3,14.79l-.41-1.91"/><path class="cls-11" d="M153.43,20l.06.06,1.28,4.75,30-2.2Z"/><path class="cls-14" d="M147.62,17.22,152,13.69l32.7,8.86-28.17-.81Z"/><path class="cls-13" d="M78.84,77.62a21.75,21.75,0,0,0,3-1.27.43.43,0,1,1,.41.75,20.59,20.59,0,0,1-3.08,1.33c-.35.12-.76.23-1.16.35a.51.51,0,0,1-.41-.06.8.8,0,0,1-.17-.23.51.51,0,0,1,.29-.58A6.81,6.81,0,0,0,78.84,77.62Z"/><path class="cls-13" d="M138.68,13.92c1.39.17,2.85.41,4.41.69a.44.44,0,1,1-.18.87q-2.35-.43-4.36-.69c-.06,0-.17-.06-.23-.06a.53.53,0,0,1-.17-.41A.45.45,0,0,1,138.68,13.92Z"/><path class="cls-13" d="M131.24,14.27a.41.41,0,0,1-.17-.35.46.46,0,0,1,.46-.46c1.45,0,2.9.06,4.47.17a.44.44,0,1,1-.06.87c-1.51-.12-3-.17-4.41-.17A.52.52,0,0,1,131.24,14.27Z"/><path class="cls-13" d="M87.38,72.23a.45.45,0,0,1,.64.64,26.66,26.66,0,0,1-3.49,2.84.44.44,0,0,1-.52,0l-.12-.12A.53.53,0,0,1,84,75,16.91,16.91,0,0,0,87.38,72.23Z"/><path class="cls-13" d="M89.24,71a.45.45,0,0,1-.06-.64l.76-.93a18.61,18.61,0,0,0,1.68-2.66.43.43,0,0,1,.76.41,25,25,0,0,1-1.8,2.78c-.23.35-.52.64-.76,1A.39.39,0,0,1,89.24,71Z"/><path class="cls-13" d="M93,64.93c-.06,0-.06-.06-.12-.06a.47.47,0,0,1-.17-.52A25.14,25.14,0,0,0,94,60.19a.44.44,0,0,1,.87.17,37.16,37.16,0,0,1-1.39,4.29A.34.34,0,0,1,93,64.93Z"/><path class="cls-13" d="M104.75,27.18c-.35.46-.76.93-1.1,1.39-.52.69-1,1.45-1.51,2.14a.41.41,0,0,1-.64.12.45.45,0,0,1-.12-.58c.46-.75,1-1.51,1.51-2.2.35-.46.7-.93,1.1-1.39a.45.45,0,0,1,.64-.06A.36.36,0,0,1,104.75,27.18Z"/><path class="cls-13" d="M100.86,33a26.87,26.87,0,0,0-1.74,4,.48.48,0,0,1-.58.29c-.06,0-.06-.06-.12-.06a.44.44,0,0,1-.17-.52,36.86,36.86,0,0,1,1.8-4.11.42.42,0,0,1,.58-.17A.38.38,0,0,1,100.86,33Z"/><path class="cls-13" d="M109.69,22.26a38.58,38.58,0,0,0-3.19,3,.45.45,0,0,1-.58.06.06.06,0,0,1-.06-.06.45.45,0,0,1,0-.64,41.69,41.69,0,0,1,3.31-3.07.46.46,0,0,1,.64.06A.53.53,0,0,1,109.69,22.26Z"/><path class="cls-13" d="M117.88,17.22a.44.44,0,0,1-.46-.06c-.06-.06-.12-.12-.12-.17a.42.42,0,0,1,.23-.58c1.39-.58,2.79-1.1,4.24-1.56a.46.46,0,1,1,.29.87A32.5,32.5,0,0,0,117.88,17.22Z"/><path class="cls-13" d="M96,51.15c-.06,0-.17-.06-.23-.06a.53.53,0,0,1-.17-.41l.06-.58c.17-1.27.29-2.55.46-3.82a.47.47,0,0,1,.93.12c-.17,1.27-.29,2.55-.46,3.82l-.06.58A.45.45,0,0,1,96,51.15Z"/><path class="cls-13" d="M111.78,20.64a.44.44,0,0,1-.52,0c-.06,0-.06-.06-.12-.12a.47.47,0,0,1,.12-.64,32.51,32.51,0,0,1,3.83-2.37.43.43,0,1,1,.41.75C114.28,19.07,113,19.82,111.78,20.64Z"/><path class="cls-13" d="M95.81,52.95a.51.51,0,0,1,.41.52c-.23,1.74-.41,3.13-.7,4.4a.45.45,0,0,1-.52.35c-.06,0-.12-.06-.17-.06a.48.48,0,0,1-.17-.46c.23-1.27.46-2.66.64-4.34A.45.45,0,0,1,95.81,52.95Z"/><path class="cls-13" d="M75.19,78.54a.44.44,0,1,1,.17.87,33.57,33.57,0,0,1-4.47.58.44.44,0,0,1-.29-.06.35.35,0,0,1-.17-.35.45.45,0,0,1,.41-.46A30.57,30.57,0,0,0,75.19,78.54Z"/><path class="cls-13" d="M98,38.93a.38.38,0,0,1,.29.52c-.35,1.27-.64,2.72-.93,4.29a.45.45,0,0,1-.52.35c-.06,0-.12-.06-.17-.06a.53.53,0,0,1-.17-.41c.29-1.62.58-3,.93-4.34A.55.55,0,0,1,98,38.93Z"/><path class="cls-13" d="M127.29,13.74l1.57-.17a.44.44,0,1,1,.06.87,13.4,13.4,0,0,0-1.51.17c-.93.12-1.86.29-2.79.46a.74.74,0,0,1-.35-.06.49.49,0,0,1-.17-.29.45.45,0,0,1,.35-.52A20.88,20.88,0,0,1,127.29,13.74Z"/><path class="cls-13" d="M94,106.17l-2.79,5.5,5.87-1.33L117.3,104Z"/><path class="cls-11" d="M91.22,111.67l10-.58-2.44-1.27Z"/><path class="cls-15" d="M94,106.17l-1.74-5.33,25,3.18Z"/><path class="cls-16" d="M117.3,104l-20.21,6.31,3,7.76Z"/><path class="cls-13" d="M93.42,117.23a.12.12,0,0,1-.12-.12.41.41,0,0,1,.06-.64,15.65,15.65,0,0,1,2-1.45.47.47,0,1,1,.46.81,13.72,13.72,0,0,0-1.86,1.33A.44.44,0,0,1,93.42,117.23Z"/><path class="cls-13" d="M100.11,168.82h0a14.87,14.87,0,0,1-3.72-3.18.45.45,0,0,1,.7-.58,14.17,14.17,0,0,0,3.49,3,.46.46,0,0,1,.17.64A.76.76,0,0,1,100.11,168.82Zm-5.17-5.44c-.06-.06-.17-.12-.17-.17a17.92,17.92,0,0,1-1.8-4.52.48.48,0,0,1,.93-.23,16.07,16.07,0,0,0,1.68,4.29.47.47,0,0,1-.17.64A.65.65,0,0,1,94.94,163.38Zm-2.21-7.24a.49.49,0,0,1-.23-.4v-.23a25,25,0,0,1,.23-4.63.47.47,0,0,1,.93.12,22.85,22.85,0,0,0-.23,4.4v.23a.55.55,0,0,1-.46.52A.18.18,0,0,1,92.73,156.14Zm.81-7.53a.5.5,0,0,1-.23-.52,42.79,42.79,0,0,1,1.57-4.58.48.48,0,0,1,.87.41,30.4,30.4,0,0,0-1.51,4.4.52.52,0,0,1-.58.35A.2.2,0,0,1,93.54,148.61Zm2.73-7.07a.49.49,0,0,1-.23-.64,1.28,1.28,0,0,1,.17-.29,14.21,14.21,0,0,1-2-1.16.46.46,0,1,1,.52-.75,21.59,21.59,0,0,0,2,1.1c.52-1,1-2,1.68-3.07a.47.47,0,0,1,.81.46c-.58,1-1.16,2-1.63,3,.46.17.87.29,1.34.46a.48.48,0,1,1-.23.93,6.59,6.59,0,0,1-1.51-.52l-.17.35A.64.64,0,0,1,96.27,141.55ZM92,137.67a.12.12,0,0,1-.12-.12,15,15,0,0,1-1.86-2.43,15.35,15.35,0,0,1-.87-1.68.48.48,0,0,1,.87-.4c.23.52.46,1,.76,1.56a10.69,10.69,0,0,0,1.74,2.26.45.45,0,0,1,0,.64Q92.29,137.84,92,137.67Zm9.29,4.29a.39.39,0,0,1-.23-.46.43.43,0,0,1,.52-.4,15.09,15.09,0,0,0,4.59-.35.48.48,0,1,1,.23.93,15.21,15.21,0,0,1-4.88.4C101.44,142,101.38,142,101.32,142ZM88.6,131a.39.39,0,0,1-.23-.35,15.17,15.17,0,0,1-.06-4.87.47.47,0,0,1,.93.12,13.43,13.43,0,0,0,.06,4.57.43.43,0,0,1-.41.52A.26.26,0,0,1,88.6,131Zm20.16,9.56c-.06-.06-.17-.12-.23-.23a.49.49,0,0,1,.23-.64c.35-.17.7-.4,1-.58a9.23,9.23,0,0,0,2.44-2.32.46.46,0,0,1,.76.52,10.18,10.18,0,0,1-2.67,2.55,6.81,6.81,0,0,1-1.1.64C109.05,140.68,108.88,140.68,108.76,140.56ZM100,134.95c-.06,0-.06-.06,0,0a.5.5,0,0,1-.17-.7,17.87,17.87,0,0,1,3.08-3.76.45.45,0,1,1,.58.69,16.22,16.22,0,0,0-2.9,3.59A.47.47,0,0,1,100,134.95Zm-10.8-11.47a.47.47,0,0,1-.23-.58,12.54,12.54,0,0,1,.87-2,14.76,14.76,0,0,1,1.39-2.26.46.46,0,0,1,.76.52,13.32,13.32,0,0,0-1.34,2.14c-.29.64-.58,1.27-.81,1.91a.43.43,0,0,1-.58.29C89.3,123.54,89.3,123.54,89.24,123.48ZM113.58,135a.47.47,0,0,1-.23-.52,4.27,4.27,0,0,0-.29-3.07,3.35,3.35,0,0,0-.64-.87.45.45,0,0,1,.64-.64,4.87,4.87,0,0,1,.81,1.1,5.53,5.53,0,0,1,.41,3.76.48.48,0,0,1-.58.35C113.64,135,113.58,135,113.58,135Zm-8.19-5.33a.45.45,0,0,1-.23-.23.49.49,0,0,1,.23-.64,7.79,7.79,0,0,1,5-.46.48.48,0,1,1-.23.93,7,7,0,0,0-4.36.4A.49.49,0,0,1,105.39,129.68Z"/><path class="cls-13" d="M102.78,169.92a.5.5,0,0,1-.23-.52.51.51,0,0,1,.58-.35,7.06,7.06,0,0,0,2.21.35.49.49,0,1,1-.06,1,11.9,11.9,0,0,1-2.44-.4Z"/><path class="cls-17" d="M170.1,129.56l2.09-1.74a.69.69,0,0,0,.23-.64l-.12-.58a.59.59,0,0,0-.29-.46l-2.15-1.56a.71.71,0,0,0-.87.06l-.23.23a.71.71,0,0,0-.23.46l-.35,3.36Z"/><path class="cls-18" d="M168.18,128.69l-.41-2.37a.66.66,0,0,1,.7-.75l1,.06c.29,0,.93,1.39.93,1.39s-.81.75-1.28-.58a1.19,1.19,0,0,1-.52.12,2.94,2.94,0,0,1,.87,2.78Z"/><path class="cls-10" d="M170.51,129.62s-4.88,13.2-7.61,18-11.21,12.57-11.21,12.57l-3.95-10.71s7.61-3.71,11.38-7.64S168,128.11,168,128.11Z"/><path class="cls-17" d="M126.19,121.8,125,119.37a.61.61,0,0,1,.06-.7l.29-.46a.67.67,0,0,1,.41-.29l2.61-.58a.67.67,0,0,1,.76.35l.17.29a.82.82,0,0,1,.06.52l-1,3.18Z"/><path class="cls-17" d="M128.22,121.74l1.28-2a.67.67,0,0,0-.35-1l-1-.35c-.29-.12-1.39.87-1.39.87s.46,1,1.45,0a1,1,0,0,0,.41.29,2.85,2.85,0,0,0-1.92,2.2Z"/><path class="cls-19" d="M112.07,206.87a13.58,13.58,0,0,0-2.61,5.68c-.23.87.06,1.79-1.39,1.79v-4.81l.7-4h-.7v-2.14s3.54-.58,4,.64Z"/><path class="cls-17" d="M114.63,206.64l-2.56.23a2.58,2.58,0,0,1-.12-2.66l.12-.17,2.56-.87Z"/><path class="cls-19" d="M137.28,171.95a51.53,51.53,0,0,0-2.15,18.47,5.07,5.07,0,0,1-4.18,5.39c-7.84,1.45-16.79,7.18-16.79,7.18v4s24.22-2.2,29.28-5.62,7.44-25.88,7.44-25.88Z"/><path class="cls-10" d="M148.67,147.74c5.52,3.65,3,25.88,3,25.88l-16.79-2,1.8-16.5s-7.61-9.27-9.06-16a159.9,159.9,0,0,1-2.21-17.49h3.08s3.43,14,5.63,17.49,9.47,8.51,9.47,8.51Z"/><path class="cls-11" d="M151.51,173.28c.23-2.43,1.63-17.43-1.34-23.39.06-.12.12-.29.18-.4,3.31,6.2,1.68,22.41,1.51,24.09C151.75,173.45,151.63,173.4,151.51,173.28Z"/><path class="cls-19" d="M170.74,219.43a13.65,13.65,0,0,0,5.69,2.61c.87.23,1.8-.06,1.8,1.39h-4.82l-4-.7v.7h-2.15s-.58-3.53.64-4Z"/><path class="cls-17" d="M170.51,216.94l.23,2.55a2.6,2.6,0,0,1-2.67.12l-.17-.12-.87-2.55Z"/><path class="cls-18" d="M145,147.4l.75-3.13,3.6.4.29,3.71-.06.06A11.54,11.54,0,0,0,145,147.4Z"/><path class="cls-17" d="M143.79,138.19l.93,4.92c.46-.12.87.4.81.87a.83.83,0,0,1,.12.35,5.68,5.68,0,0,0,4.53.4c3.08-1,.29-6.83.29-6.83Z"/><path class="cls-19" d="M142.74,142.13a3.46,3.46,0,0,0-1-1.27c-2-1.27-.58-2.6-.06-3.07s.29-1.62,1-2.32c1.1-1.16,2.44-.29,3.19-.58s1.1-1.39,2.32-1,1.22,1.33,1.63,1.62.93-.81,2.21.23c2,1.56-1.28,2.84-1.28,2.84a6.29,6.29,0,0,1-4.24.4.92.92,0,0,0-.93.35c-.46.87.12,5,.12,5l-.87-.58A2.08,2.08,0,0,1,142.74,142.13Z"/><path class="cls-17" d="M145.69,142.56a.75.75,0,1,0-1-.27A.75.75,0,0,0,145.69,142.56Z"/><path class="cls-4" d="M151.69,173.63s12.14,11.52,13.24,14.36,5.63,29.13,5.63,29.13h-3.43s-6.91-11.23-9.06-20a9.11,9.11,0,0,0-6.16-6.54c-19.11-5.91-17-18.88-17-18.88Z"/><path class="cls-10" d="M149.54,147l.06,1.74-5.52-1.16,1.16-1.79Z"/></g></g></svg>