<svg xmlns="http://www.w3.org/2000/svg" xmlns:xlink="http://www.w3.org/1999/xlink" viewBox="0 0 273.09 220.69"><defs><style>.cls-1{fill:#f04637;}.cls-2{fill:none;stroke:#f04637;stroke-width:2px;}.cls-3{fill:#00666a;}.cls-4{fill:url(#linear-gradient);}.cls-5{fill:#fff;}.cls-6{fill:#01898c;}.cls-7{fill:#043c5e;}.cls-8{fill:#475b73;}.cls-9{fill:url(#linear-gradient-2);}.cls-10{fill:#6680a1;}.cls-11{fill:url(#linear-gradient-3);}.cls-12{fill:#ff7b7c;}.cls-13{fill:#ff5c5d;}.cls-14{fill:#f7a605;}.cls-15{fill:#2d2c45;}.cls-16{fill:url(#linear-gradient-4);}</style><linearGradient id="linear-gradient" x1="133.89" y1="12.92" x2="81.6" y2="85.62" gradientTransform="matrix(1, 0, 0, -1, 0, 201.48)" gradientUnits="userSpaceOnUse"><stop offset="0" stop-color="#c0e4ef"/><stop offset="0.33" stop-color="#dfefeb"/></linearGradient><linearGradient id="linear-gradient-2" x1="83.95" y1="23.04" x2="20.08" y2="85.81" gradientTransform="matrix(1, 0, 0, -1, 0, 201.48)" gradientUnits="userSpaceOnUse"><stop offset="0" stop-color="#e0f0eb"/><stop offset="1" stop-color="#c0e4ef"/></linearGradient><linearGradient id="linear-gradient-3" x1="96.47" y1="5.11" x2="10.25" y2="29.01" xlink:href="#linear-gradient"/><linearGradient id="linear-gradient-4" x1="110.42" y1="59.14" x2="128.83" y2="59.14" xlink:href="#linear-gradient-2"/></defs><title>Asset 1</title><g id="Layer_2" data-name="Layer 2"><g id="Layer_1-2" data-name="Layer 1"><path class="cls-1" d="M182,26.85l2.11.57-2.51,9.37-2.11-.57,1.07-4L177,31.3l-1.07,4-2.11-.57,2.51-9.37,2.11.57-1,3.58,3.54.95Zm9.39,12.56q0-.53-.07-1.09l-.08-1.12-3.65-1-.64.93q-.31.47-.59.91l-2.19-.59q.93-1.37,1.75-2.53t1.57-2.17q.76-1,1.47-1.91t1.46-1.76l2,.54q.2,1.1.37,2.24t.32,2.39q.16,1.26.29,2.67t.25,3.07Zm-.59-7.93-.35.5-.53.73-.66.91-.73,1.05,2.66.71c0-.44-.07-.87-.11-1.28S191,33.33,191,33l-.09-.89Q190.85,31.71,190.82,31.49Zm5.33,7.28,1.35.36a9.65,9.65,0,0,0,1.24-1.51,10.84,10.84,0,0,0,.88-1.62,13.52,13.52,0,0,0,.66-1.77q.29-.92.57-1.95l.1-.37,6.19,1.66-2,7.59,1.61.43-1.15,4.29-2-.54.67-2.5L197.7,41.1,197,43.6l-2-.54Zm6.31-4.53q-.22.72-.5,1.48t-.61,1.47a12,12,0,0,1-.76,1.36,7.08,7.08,0,0,1-.91,1.16l3.37.9,1.55-5.8ZM209,44.11l2.51-9.37,6.33,1.7-.47,1.77-4.22-1.13-.49,1.84,3.75,1-.46,1.73-3.75-1-.6,2.26,4.53,1.21-.48,1.77Zm8.77,2.35q.58-.58,1.21-1.15t1.26-1.08q.65-.52,1.28-.95a12.31,12.31,0,0,1,1.27-.75q-.41-.73-.75-1.42t-.64-1.35l-.56-1.31-.55-1.36,2.54.68q.25.68.48,1.24l.46,1.11.47,1.07.51,1.12,1-3.76,2.06.55-1,3.76,1-.74,1-.71.95-.72,1-.81,2.53.68-1.24.94q-.57.44-1.14.85l-1.18.82q-.59.41-1.28.84a15.37,15.37,0,0,1,1.39,2.82,29.26,29.26,0,0,1,1,3.1l-2.35-.63-.47-1.39q-.22-.64-.45-1.24t-.5-1.18q-.26-.59-.6-1.23l-1.12,4.19-2.06-.55,1.12-4.19-1.16.82-1,.77-1,.82q-.5.42-1.09.94Zm23.76-3.68,2.11.57-2.51,9.37L239,52.16l1.06-4-3.54-.95-1.06,4-2.11-.57,2.51-9.37,2.11.57-1,3.58,3.54.95Zm6.15,6.66a4.59,4.59,0,0,0-.17,1.29,3.23,3.23,0,0,0,.23,1.09,2.34,2.34,0,0,0,.62.82,2.54,2.54,0,0,0,1,.5,2.5,2.5,0,0,0,1.1.06,2.17,2.17,0,0,0,.95-.4,2.85,2.85,0,0,0,.74-.83,4.66,4.66,0,0,0,.67-2.49,2.69,2.69,0,0,0-.23-1.09,2.1,2.1,0,0,0-.62-.83,2.51,2.51,0,0,0-1-.5,2.41,2.41,0,0,0-1.12-.05,2.26,2.26,0,0,0-1,.41,3,3,0,0,0-.74.83A4.54,4.54,0,0,0,247.63,49.45Zm7.15,1.92a5.94,5.94,0,0,1-.93,2,4.53,4.53,0,0,1-1.38,1.27,4.21,4.21,0,0,1-1.73.52,5.51,5.51,0,0,1-1.92-.18,5.44,5.44,0,0,1-1.73-.8,4.37,4.37,0,0,1-1.24-1.32,4.59,4.59,0,0,1-.59-1.8,5.93,5.93,0,0,1,.2-2.22,5.62,5.62,0,0,1,.94-2,4.69,4.69,0,0,1,1.43-1.27,4.43,4.43,0,0,1,1.74-.53,5.34,5.34,0,0,1,1.87.17,5.44,5.44,0,0,1,1.73.8,4.26,4.26,0,0,1,1.24,1.33,4.54,4.54,0,0,1,.59,1.81A5.83,5.83,0,0,1,254.78,51.36Z"/><path class="cls-2" d="M203.9,82.41,155,24.84l73.9-23.67L271.48,56Z"/><path class="cls-3" d="M59.7,126.68s46.3,58.94,57,79.35c22.82-14.25,36.1-26,36.1-26S105.88,99.56,97.93,99.2C90.17,102.29,90.34,102.23,59.7,126.68Z"/><path class="cls-4" d="M86.91,112.32c3.56,4.39,11.14,5.16,14.76,1.72,10.79,2.49,39.84,57,39.84,57l-.06.06c-4.45,2.91-5.34,9.56-2.43,13.77L126.27,194a10.2,10.2,0,0,0-13.81-2.14c-.06,0-.06.06-.12.06L70.72,135.64l.89-.53c4.45-2.91,6.11-10.09,3.2-14.36l12-8.61C86.85,112.2,86.85,112.32,86.91,112.32Z"/><path class="cls-5" d="M114.27,163.69A11.87,11.87,0,1,0,97.73,161,11.88,11.88,0,0,0,114.27,163.69Z"/><path class="cls-3" d="M98.11,157.37l2.08-1.07a10.11,10.11,0,0,1-.95-4.63h2a8.09,8.09,0,0,0,.95,4.15c.95,1.9,2.37,2.79,3.62,2.14s1.42-2,1.07-4.33c-.47-3.15-.36-5.34,1.54-6.29s4,0,5.51,2.26l2.19-1.13.83,1.66-2.13,1.07a8.78,8.78,0,0,1,.95,3.86l-2.07.06a8.32,8.32,0,0,0-1-3.56c-1-2.08-2-2.49-2.9-2.08-1.13.59-1.18,1.84-.83,4.57.47,3.21,0,5.16-1.9,6.11-1.72.89-4.21.3-5.93-2.26L98.94,159Z"/><path class="cls-3" d="M116,148.36l-17.85,9,1,1.91,17.85-9Z"/><path class="cls-6" d="M97.09,140a2.85,2.85,0,1,0-4-.65A2.85,2.85,0,0,0,97.09,140Z"/><path class="cls-6" d="M92.09,133.09a2.85,2.85,0,1,0-4-.65A2.85,2.85,0,0,0,92.09,133.09Z"/><path class="cls-7" d="M125.56,179.67a2.85,2.85,0,1,0-4-.65A2.85,2.85,0,0,0,125.56,179.67Z"/><path class="cls-6" d="M120.65,172.85a2.85,2.85,0,1,0-4-.65A2.85,2.85,0,0,0,120.65,172.85Z"/><path class="cls-8" d="M.36,130S56,180.22,69.89,198.5c20-17.86,31.18-31.75,31.18-31.75S41.26,95.46,33.38,96.41C26.26,100.8,26.44,100.68.36,130Z"/><path class="cls-9" d="M24.78,111.25c4.27,3.68,11.86,3.21,14.82-.83,11.09.65,48.91,49.44,48.91,49.44l-.06.06c-3.91,3.62-3.62,10.27-.06,14l-11,11.22a10.19,10.19,0,0,0-14,.24l-.12.12L12.69,137.07a7.55,7.55,0,0,0,.77-.65c3.91-3.62,4.33-11,.71-14.72L24.6,111.07C24.66,111.19,24.72,111.25,24.78,111.25Z"/><path class="cls-10" d="M39.51,136.87a2.85,2.85,0,1,0-4,0A2.85,2.85,0,0,0,39.51,136.87Z"/><path class="cls-10" d="M33.38,130.8a2.85,2.85,0,1,0-4,0A2.85,2.85,0,0,0,33.38,130.8Z"/><path class="cls-7" d="M74.21,171.07a2.85,2.85,0,1,0-4,0A2.85,2.85,0,0,0,74.21,171.07Z"/><path class="cls-10" d="M68.25,165.17a2.85,2.85,0,1,0-4,0A2.85,2.85,0,0,0,68.25,165.17Z"/><path class="cls-8" d="M0,194.58s73,16.91,94,26.11c8.89-25.4,11.92-42.91,11.92-42.91S19,144.49,12.57,149.17C8.48,156.48,8.6,156.3,0,194.58Z"/><path class="cls-11" d="M12.21,166.33c5.51,1.19,11.92-3,12.57-7.89,10-4.81,66.69,19.47,66.69,19.47s0,.06-.06.12c-1.66,5,1.84,10.74,6.76,12.23L94,205.44a10.14,10.14,0,0,0-12.09,7c0,.06,0,.12-.06.12L14.17,194.76c.12-.3.24-.59.36-.95,1.66-5-1.54-11.69-6.52-13.18l4-14.36A.45.45,0,0,0,12.21,166.33Z"/><path class="cls-10" d="M37.55,181.53a2.85,2.85,0,1,0-3.5,2A2.85,2.85,0,0,0,37.55,181.53Z"/><path class="cls-10" d="M29.24,179.24a2.85,2.85,0,1,0-3.5,2A2.85,2.85,0,0,0,29.24,179.24Z"/><path class="cls-7" d="M84.51,194.61a2.85,2.85,0,1,0-3.5,2A2.85,2.85,0,0,0,84.51,194.61Z"/><path class="cls-10" d="M76.4,192.36a2.85,2.85,0,1,0-3.5,2A2.85,2.85,0,0,0,76.4,192.36Z"/><path class="cls-12" d="M87.87,56.68C43.77,82,50.7,93.83,48.57,110.87s.83,46.95,54.78,43.56,68.23-38,59.1-65.64c-8.77-26.47-37.82-38-37.82-38S104.95,62,87.87,56.68Z"/><path class="cls-12" d="M87.87,56.68A7.23,7.23,0,0,0,85.8,48l-6.94-5.46s7.88-15.61,24.66-7.89c12.8,5.88,22.65-1,26.62-4.63a.69.69,0,0,1,1.13.71,55.35,55.35,0,0,1-5.69,12.88c-1.48,2.55-2.43,5.28-.95,7.24l-17.37,9.56Z"/><path class="cls-1" d="M86.15,57.75s7.94,7,23.06,4.63,18.61-10.09,18.61-10.09l-3.91-3.68s-3,6.17-15.53,8.84c-10.14,2.14-19.86-3.26-19.86-3.26Z"/><path class="cls-1" d="M153.56,191.86H114.2v16.32h39.36Z"/><path class="cls-12" d="M208.81,191.86h-32v16.32h32Z"/><path class="cls-13" d="M184.21,191.86H153.56v16.32h30.65Z"/><path class="cls-1" d="M209.47,208.89H113.55V191.26h95.92Zm-94.61-1.31h93.37V192.51H114.85Z"/><path class="cls-1" d="M164.23,175.53H124.87v16.32h39.36Z"/><path class="cls-12" d="M219.54,175.53h-32v16.32h32Z"/><path class="cls-13" d="M194.88,175.53H164.23v16.32h30.65Z"/><path class="cls-1" d="M220.14,192.51H124.22V174.88h95.92Zm-94.61-1.25h93.37V176.19H125.52Z"/><path class="cls-14" d="M145.74,159.15H106.38v16.32h39.36Z"/><path class="cls-12" d="M201,159.15H169v16.32h32Z"/><path class="cls-13" d="M176.39,159.15H145.74v16.32h30.65Z"/><path class="cls-1" d="M201.64,176.19H105.72V158.56h95.92ZM107,174.88h93.37V159.81H107Z"/><path class="cls-14" d="M152.5,142.83H113.13v16.32H152.5Z"/><path class="cls-12" d="M207.81,142.83h-32v16.32h32Z"/><path class="cls-13" d="M183.14,142.83H152.5v16.32h30.65Z"/><path class="cls-1" d="M208.4,159.81H112.48V142.18H208.4Zm-94.61-1.25h93.37V143.48H113.79Z"/><path class="cls-14" d="M160.91,126.45H121.55v16.32h39.36Z"/><path class="cls-12" d="M216.22,126.45h-32v16.32h32Z"/><path class="cls-13" d="M191.62,126.45H161v16.32h30.65Z"/><path class="cls-1" d="M216.88,143.48H121V125.86h95.92Zm-94.67-1.31h93.37V127.1H122.2Z"/><path class="cls-10" d="M175.95,100.7S151.52,100.7,120,92c-.12-.06-.29-.06-.4-.12-35.26,11.77-57.9,8.83-57.9,8.83s-7.83,58.26,57.09,106l1.21-.86C186.95,158.84,175.95,100.7,175.95,100.7Z"/><path class="cls-8" d="M66.95,104.5s20.57,2.65,52.65-8c28.81,8,51.22,8,51.22,8s10.14,53.47-52,96.38C59.81,157.51,66.95,104.5,66.95,104.5Z"/><path class="cls-15" d="M170.82,104.5s-22.18,0-50.87-7.9V200.13C180.78,157.39,170.82,104.5,170.82,104.5Z"/><path class="cls-16" d="M128.82,134.09a9.22,9.22,0,1,0-14.11,7.79v13a4.9,4.9,0,1,0,9.79,0v-13A9.16,9.16,0,0,0,128.82,134.09Z"/><path class="cls-5" d="M132.15,82.59l16.78-2.32-16.6-3.21L130,60.27l-3.2,16.62L110,79.21l16.6,3.2L129,99.21Z"/></g></g></svg>