<?xml version="1.0" encoding="utf-8"?>
<!-- Generator: Adobe Illustrator 21.1.0, SVG Export Plug-In . SVG Version: 6.00 Build 0)  -->
<svg version="1.1" id="Layer_1" xmlns="http://www.w3.org/2000/svg" xmlns:xlink="http://www.w3.org/1999/xlink" x="0px" y="0px"
	 viewBox="0 0 200 43" style="enable-background:new 0 0 200 43;" xml:space="preserve">
<style type="text/css">
	.st0{fill:#2F86C1;}
	.st1{fill:#FFFFFF;}
</style>
<g>
	<ellipse class="st0" cx="22.2" cy="21.5" rx="22.2" ry="22"/>
	<g>
		<g>
			<path class="st0" d="M61.6,31.1c-0.5-0.3-1-0.8-1.6-1.7l-3.4-5.1H56h-1.4v7h-3.3v-16c0-0.8,0.2-1.2,0.5-1.4
				c0.3-0.2,1.3-0.2,2.7-0.2v7.8h1.6c0.7,0,1.3-0.2,1.8-0.6c0.5-0.4,0.8-0.9,1-1.5l0.7-1.9c0.2-0.7,0.5-1.3,0.7-1.9
				c0.2-0.6,0.6-1.1,1.2-1.5c0.6-0.4,1.2-0.6,2.1-0.6c1.5,0,2.2,0.6,2.2,1.9v0.5h-0.4c-0.7,0-1.3,0.2-1.7,0.5
				c-0.4,0.4-0.8,0.8-1,1.4c-0.2,0.6-0.5,1.2-0.7,1.8c-0.2,0.6-0.5,1.3-0.9,2c-0.4,0.7-0.9,1.2-1.5,1.6l3.2,4.4
				c0.7,0.9,1.6,1.4,2.6,1.4H66v0.5c0,0.6-0.3,1.1-0.8,1.4c-0.5,0.3-1.1,0.5-1.8,0.5C62.6,31.5,62,31.3,61.6,31.1z"/>
			<path class="st0" d="M68.6,35.7V19.6c0-0.8,0.2-1.2,0.5-1.4c0.3-0.1,1.2-0.2,2.6-0.2v2.7c1.1-1.9,2.7-2.9,4.8-2.9
				c1.7,0,2.9,0.6,3.8,1.7c0.9,1.1,1.3,2.7,1.3,4.5c0,2-0.6,3.8-1.7,5.2c-1.2,1.4-2.6,2.2-4.4,2.2c-1.7,0-3-0.6-3.9-1.8v6H68.6z
				 M77.7,21.4c-0.5-0.7-1.2-1.1-2.2-1.1c-1.1,0-2,0.5-2.6,1.4c-0.6,1-1,2.2-1,3.7c0,0.9,0.3,1.7,0.8,2.4c0.5,0.7,1.2,1,2.1,1
				c1.1,0,2-0.5,2.7-1.4c0.6-0.9,1-2,1-3.3C78.4,23.1,78.2,22.2,77.7,21.4z"/>
			<path class="st0" d="M96.4,31.1c-0.3,0.2-1.1,0.2-2.5,0.2v-8.7L87,31.5c-1-0.1-1.9-0.3-2.6-0.7V19.6c0-0.8,0.2-1.2,0.5-1.4
				C85.2,18,86,18,87.4,18v8.7l6.8-8.8c0.9,0.1,1.8,0.3,2.6,0.7v11.1C96.9,30.5,96.7,30.9,96.4,31.1z"/>
			<path class="st0" d="M111.9,31.1c-0.3,0.2-1.2,0.2-2.6,0.2v-8.8c0-0.7-0.1-1.1-0.4-1.4c-0.3-0.3-0.7-0.4-1.3-0.4h-4.3v10.5h-3.1
				V19.7c0-0.8,0.2-1.2,0.5-1.4c0.3-0.1,1.2-0.2,2.6-0.2h4.9c1.6,0,2.6,0.3,3.2,0.9c0.6,0.6,0.9,1.6,0.9,3.1v7.7
				C112.4,30.5,112.3,30.9,111.9,31.1z"/>
			<path class="st0" d="M118.9,31.2V20.8h-4.4v-2.7h11c0.5,0,0.8,0.2,0.9,0.5c0.1,0.4,0.2,1.1,0.2,2.1h-4.6v10.4H118.9z"/>
			<path class="st0" d="M139,29.5c-1.2,1.3-2.8,2-4.8,2c-2,0-3.6-0.7-4.8-2c-1.2-1.3-1.8-3-1.8-5.1c0-2.1,0.6-3.7,1.7-4.8
				c1.2-1.2,2.8-1.7,4.8-1.7c2.1,0,3.7,0.6,4.8,1.7c1.2,1.2,1.7,2.8,1.7,4.8C140.8,26.5,140.2,28.2,139,29.5z M136.8,21.4
				c-0.5-0.7-1.4-1.1-2.5-1.1c-1.1,0-2,0.4-2.5,1.1c-0.5,0.7-0.8,1.7-0.8,2.9c0,1.3,0.3,2.3,0.9,3.2c0.6,0.9,1.4,1.3,2.5,1.3
				c1.1,0,1.9-0.4,2.5-1.3s0.9-1.9,0.9-3.2C137.6,23.1,137.3,22.1,136.8,21.4z"/>
			<path class="st0" d="M150.5,30.4c-1.1,0.7-2.3,1.1-3.7,1.1c-2.5,0-3.8-0.8-3.8-2.3v-0.9c0.9,0.4,2,0.7,3.2,0.7
				c0.8,0,1.4-0.2,2-0.5c0.5-0.3,0.8-0.7,0.8-1.2c0-0.6-0.3-0.9-0.8-1.1c-0.6-0.2-1.5-0.3-2.9-0.3c-0.1-0.8,0-1.4,0.2-2
				c1,0,1.9-0.2,2.6-0.6c0.7-0.4,1-0.9,1-1.5c0-0.5-0.2-0.9-0.6-1.2c-0.4-0.3-0.9-0.4-1.5-0.4c-0.7,0-1.2,0.2-1.6,0.5
				c-0.4,0.3-0.6,0.7-0.6,1.2v0.4h-0.7c-0.5,0-0.9-0.1-1.2-0.3c-0.3-0.2-0.5-0.6-0.5-1c0-1,0.5-1.7,1.4-2.3c0.9-0.6,2.1-0.9,3.5-0.9
				c1.4,0,2.6,0.3,3.5,1c0.9,0.6,1.3,1.5,1.3,2.7c0,1.4-0.9,2.5-2.8,3.3c1.8,0.4,2.6,1.4,2.6,2.8C152.1,28.8,151.6,29.7,150.5,30.4z
				"/>
			<path class="st0" d="M159.2,23.7l3.4-0.4v-0.1c-0.1-2-1.3-3-3.6-3c-0.9,0-2,0.3-3.3,0.8v-0.9c0-0.5,0.3-0.9,0.8-1.3
				c0.5-0.4,1.1-0.6,1.8-0.8c0.7-0.2,1.4-0.2,2-0.2c3.4,0,5.2,1.7,5.5,5.2l0.5,6.9c0,0.3,0,0.6-0.1,0.8c-0.1,0.2-0.3,0.3-0.6,0.4
				c-0.3,0.1-0.6,0.1-0.9,0.1c-0.3,0-0.8,0-1.5,0l-0.1-2.3c-1.1,1.6-2.6,2.5-4.6,2.5c-1.3,0-2.3-0.4-3-1.2c-0.7-0.8-1-1.7-1-2.8
				C154.4,25.3,156,24,159.2,23.7z M158.3,28.7c0.3,0.4,0.8,0.5,1.3,0.5c0.9,0,1.6-0.4,2.1-1.2c0.6-0.8,0.9-1.7,0.9-2.8l-3,0.4
				c-0.6,0.1-1,0.3-1.3,0.6c-0.3,0.3-0.5,0.7-0.5,1.1C157.8,27.9,158,28.4,158.3,28.7z"/>
			<path class="st0" d="M181.3,31.1c-0.3,0.2-1.1,0.2-2.5,0.2v-8.7l-6.8,8.9c-1-0.1-1.9-0.3-2.6-0.7V19.6c0-0.8,0.2-1.2,0.5-1.4
				c0.3-0.1,1.1-0.2,2.5-0.2v8.7l6.8-8.8c0.9,0.1,1.8,0.3,2.6,0.7v11.1C181.7,30.5,181.6,30.9,181.3,31.1z M172.5,14.8
				c-0.8-0.7-1.2-1.6-1.2-2.6c0-0.9,0.6-1.3,1.7-1.3c0,0.8,0.3,1.4,0.8,1.8c0.5,0.4,1.2,0.6,1.9,0.6c0.7,0,1.4-0.2,1.9-0.6
				c0.5-0.4,0.8-1,0.8-1.8c1.1,0,1.6,0.4,1.6,1.3c0,1-0.4,1.9-1.2,2.6c-0.8,0.7-1.9,1-3.2,1C174.3,15.9,173.3,15.5,172.5,14.8z"/>
			<path class="st0" d="M199.5,31.1c-0.3,0.1-1.1,0.2-2.3,0.2v-8.8c-0.9,2.3-2,4.6-3.3,6.9c-0.7,0.3-1.6,0.5-2.7,0.5
				c-1.4-2.8-2.5-5.3-3.3-7.4v8.7h-2.8V18.8c1-0.5,2.3-0.8,3.8-0.9c0.8,2.4,2,5.3,3.7,8.6c1.6-3.3,2.8-5.9,3.5-7.8
				c1-0.5,2.3-0.8,3.9-0.8v12C200,30.6,199.8,31,199.5,31.1z"/>
		</g>
	</g>
	<g>
		<g>
			<path class="st1" d="M22.1,43C10.5,43.2,0.4,33.4,0.5,21.4C0.6,9.6,10.3-0.2,22.6,0c11.6,0.2,21.3,9.5,21.2,21.6
				C43.8,33.5,33.9,43.2,22.1,43z M22.2,42.5c11.6,0,21.2-9.2,21.2-21c0-11.9-9.5-20.7-20.4-21C10.5,0.1,1,10,1,21.5
				C1,33.1,10.6,42.6,22.2,42.5z"/>
			<path class="st1" d="M22.2,42.1C10.9,42.2,1.4,32.9,1.4,21.5c0-11.3,9.4-21,21.4-20.6c10.9,0.3,20.1,9,20.1,20.6
				C43,33.1,33.4,42.2,22.2,42.1z M22.2,39c9.8,0,17.6-7.8,17.6-17.4c0-9.5-7.7-17.5-17.6-17.5c-9.9,0-17.6,7.8-17.6,17.3
				C4.5,31.2,12.4,39,22.2,39z M40,18.6c0.1,0.9,0.2,1.7,0.2,2.6c0.6,0,1.2,0,1.8,0c-0.1-1,0-1.9-0.4-2.8
				C41.1,18.5,40.6,18.5,40,18.6z M21.9,3.5c0-0.6,0-1.1,0-1.8C21,1.8,20.1,1.9,19.3,2C19.2,2,19,2.3,19,2.4
				c0.1,0.5,0.2,0.9,0.3,1.4C20.2,3.7,21,3.6,21.9,3.5z M21.9,41.3c0-0.6,0-1,0-1.5c0-0.1-0.2-0.3-0.3-0.3c-0.7-0.1-1.5-0.1-2.3-0.1
				c-0.1,0.6-0.2,1.1-0.3,1.6C19.9,41.3,20.9,41.2,21.9,41.3z M22.5,3.5c0.8,0.1,1.4,0.2,2.1,0.3c0.2,0,0.5-0.1,0.6-0.2
				c0.1-0.4,0.2-0.9,0.2-1.3c0-0.1-0.1-0.2-0.2-0.2c-0.8-0.1-1.7-0.4-2.6-0.2C22.5,2.4,22.5,2.9,22.5,3.5z M25.3,41
				c0-0.4,0-0.8-0.1-1.2c0-0.2-0.3-0.4-0.4-0.4c-0.7,0-1.3,0.1-2,0.1c-0.1,0-0.3,0.2-0.3,0.4c0,0.5,0,0.9,0,1.5
				C23.5,41.2,24.4,41.3,25.3,41z M25.6,3.9c0.9,0.2,1.7,0.4,2.5,0.7c0.2-0.6,0.6-1,0.5-1.7c-0.9-0.2-1.7-0.5-2.7-0.7
				C25.8,2.7,25.7,3.3,25.6,3.9z M39.5,11.9c-0.6,0.3-1.1,0.6-1.6,0.9c0.4,0.8,0.8,1.6,1.1,2.4c0.4-0.1,0.8-0.3,1.2-0.4
				c0.4-0.1,0.5-0.3,0.3-0.7C40.2,13.3,39.9,12.6,39.5,11.9z M40,24.4c0.6,0.1,1.1,0.2,1.8,0.3c0.1-1,0.2-1.9,0.3-2.9
				c-0.7,0-1.2,0-1.8,0C40.2,22.7,40.1,23.5,40,24.4z M25.9,40.9c0.9-0.2,1.7-0.4,2.4-0.6c0.3-0.1,0.4-0.3,0.3-0.6
				c-0.2-0.4-0.3-0.8-0.5-1.2c-0.9,0.2-1.7,0.5-2.5,0.7C25.7,39.8,25.7,40.3,25.9,40.9z M4.9,11.9c-0.6,0.7-0.9,1.6-1.2,2.4
				c0,0.1,0.1,0.3,0.3,0.4c0.4,0.2,0.8,0.3,1.3,0.4c0.4-0.8,0.7-1.6,1.1-2.4C5.8,12.4,5.4,12.2,4.9,11.9z M40,18.1
				c0.5-0.1,1-0.1,1.4-0.3c0.1,0,0.3-0.3,0.3-0.4c-0.2-0.8-0.4-1.5-0.7-2.4c-0.6,0.2-1.2,0.4-1.7,0.6C39.5,16.5,39.7,17.2,40,18.1z
				 M5.2,27.9c-0.6,0.2-1.1,0.4-1.7,0.6c0.4,0.9,0.9,1.8,1.3,2.7c0.6-0.3,1-0.6,1.5-0.9C5.9,29.5,5.6,28.7,5.2,27.9z M6.7,34
				c0.5-0.5,0.9-0.8,1.4-1.2c-0.5-0.8-1-1.4-1.5-2.2c-0.5,0.3-1,0.6-1.5,0.9C5.6,32.5,6.2,33.2,6.7,34z M15.7,38.3
				c-0.8-0.4-1.6-0.7-2.4-1.1c-0.3,0.5-0.6,1-0.9,1.5c0.9,0.4,1.8,0.8,2.7,1.3C15.3,39.4,15.5,38.9,15.7,38.3z M37.7,30.7
				c-0.5,0.7-1,1.4-1.5,2.2c0.5,0.4,0.9,0.7,1.4,1.1c0.6-0.8,1.1-1.6,1.7-2.4C38.7,31.3,38.2,31,37.7,30.7z M40.8,28.5
				c-0.6-0.2-1.1-0.4-1.7-0.6c-0.4,0.8-0.7,1.6-1.1,2.4c0.5,0.3,1,0.6,1.6,0.9C40,30.3,40.4,29.4,40.8,28.5z M12,4.5
				c-0.8,0.6-1.6,1.1-2.4,1.7c0.4,0.5,0.8,0.9,1.1,1.3c0.8-0.5,1.5-1,2.2-1.5C12.6,5.6,12.3,5.1,12,4.5z M10.3,8
				c-0.1-0.2-0.2-0.2-0.2-0.3C9,6.3,9.3,6.5,8.2,7.5C7.8,7.9,7.5,8.3,7.1,8.7c0.4,0.3,0.7,0.6,1,0.8c0.2,0.2,0.4,0.2,0.6,0
				C9.3,9,9.8,8.5,10.3,8z M32.4,4.5c-0.3,0.5-0.5,0.8-0.7,1.2c-0.1,0.2-0.1,0.4,0.2,0.6c0.6,0.4,1.2,0.8,1.8,1.2
				c0.4-0.4,0.7-0.9,1.1-1.4C33.9,5.6,33.2,5.1,32.4,4.5z M18.4,2.1c-1,0.3-1.8,0.5-2.8,0.8C15.8,3.5,16,4,16.2,4.5
				c0.9-0.3,1.7-0.5,2.6-0.7C18.7,3.2,18.5,2.7,18.4,2.1z M4.3,18.6c-0.6-0.1-1.1-0.2-1.6-0.2c-0.4,0.9-0.2,1.9-0.3,2.8
				c0.6,0,1.2,0,1.7,0C4.1,20.3,4.2,19.5,4.3,18.6z M39.3,27.4c0.5,0.2,0.9,0.3,1.3,0.4c0.1,0,0.4-0.1,0.4-0.2
				c0.3-0.8,0.5-1.6,0.7-2.5c-0.5-0.1-1-0.3-1.4-0.3c-0.1,0-0.4,0.1-0.4,0.3C39.7,25.9,39.5,26.6,39.3,27.4z M13.3,5.8
				C14.2,5.4,15,5,15.7,4.7c-0.2-0.6-0.4-1.1-0.6-1.6c-0.9,0.4-1.8,0.8-2.7,1.3C12.8,4.9,13,5.3,13.3,5.8z M10.3,35.1
				c-0.7-0.6-1.3-1.1-2-1.7C8,33.6,7.6,34,7.1,34.4c0.6,0.8,1.3,1.5,2.1,2C9.6,36,9.9,35.6,10.3,35.1z M39.3,11.4
				c-0.6-0.8-1.1-1.6-1.7-2.4c-0.5,0.4-0.9,0.8-1.4,1.1c0.5,0.7,0.9,1.3,1.3,1.8c0.1,0.1,0.3,0.2,0.4,0.2
				C38.4,12,38.8,11.7,39.3,11.4z M10.7,35.5c-0.4,0.5-0.7,0.9-1.1,1.3c0.8,0.6,1.6,1.1,2.4,1.7c0.3-0.6,0.6-1,0.9-1.5
				C12.2,36.5,11.5,36,10.7,35.5z M33.6,35.5c-0.7,0.5-1.3,0.9-1.8,1.2c-0.3,0.2-0.3,0.5-0.1,0.6c0.3,0.3,0.2,1,0.9,1c0,0,0,0,0.1,0
				c0.7-0.4,1.5-0.9,2.1-1.5C34.3,36.3,34,35.9,33.6,35.5z M29.2,40c0.9-0.4,1.8-0.7,2.6-1.3c-0.3-0.5-0.6-0.9-0.9-1.4
				c-0.8,0.4-1.6,0.7-2.4,1.1C28.8,38.9,29,39.4,29.2,40z M18.8,39.2c-0.8-0.2-1.5-0.4-2.1-0.6c-0.1,0-0.4,0-0.4,0.1
				c-0.2,0.4-0.4,0.9-0.5,1.3c0,0.1,0.2,0.3,0.3,0.3c0.8,0.2,1.6,0.4,2.4,0.6C18.6,40.3,18.7,39.8,18.8,39.2z M3.4,28
				c0.4-0.1,0.7-0.2,0.9-0.3c0.2-0.1,0.5-0.2,0.7-0.3c-0.1-0.4-0.2-0.8-0.3-1.2c-0.1-0.4-0.2-1.1-0.4-1.2c-0.4-0.2-0.9,0.1-1.4,0.2
				c0,0-0.1,0.1-0.2,0.2C2.9,26.2,3.1,27.1,3.4,28z M28.6,4.7c0.8,0.4,1.6,0.7,2.4,1.1c0.3-0.5,0.5-1,0.9-1.5
				c-0.8-0.4-1.5-0.7-2.3-1c-0.3-0.1-0.5,0-0.6,0.2C28.9,3.9,28.8,4.2,28.6,4.7z M5,15.6c-0.4-0.2-0.8-0.3-1.3-0.4
				c-0.1,0-0.4,0.1-0.5,0.1c-0.2,0.8-0.7,1.6-0.5,2.6c0.5,0.1,1.1,0.2,1.6,0.2C4.6,17.2,4.8,16.5,5,15.6z M8.1,10.2
				C7.7,9.8,7.2,9.4,6.7,9c-0.6,0.8-1.1,1.6-1.7,2.4c0.5,0.3,0.9,0.6,1.3,0.8c0.1,0.1,0.4,0,0.5-0.1C7.2,11.4,7.6,10.8,8.1,10.2z
				 M35.2,36.4c0.6-0.6,1.2-1.2,1.8-1.8c0.1-0.1,0.1-0.4,0-0.5c-0.3-0.3-0.7-0.6-1.1-0.9c-0.3,0.4-0.6,0.7-1,1c-1,1-1,1,0,1.9
				C35,36.3,35,36.3,35.2,36.4z M4,21.8c-0.6,0-1.1,0-1.7,0c0.1,1-0.1,1.9,0.3,2.9c0.6-0.1,1.1-0.2,1.6-0.3
				C4.2,23.5,4.1,22.6,4,21.8z M37.1,8.7C37,8.5,37,8.4,36.9,8.3C36.6,8,36.3,7.7,36,7.4c-1.1-1-0.9-0.8-1.6,0.1
				C34,7.9,34,8,34.5,8.4c0.3,0.3,0.6,0.6,0.9,0.9c0.4,0.5,0.5,0.5,0.9,0.1c0.2-0.1,0.4-0.3,0.5-0.5C37,8.9,37,8.8,37.1,8.7z"/>
		</g>
	</g>
	<g>
		<g>
			<path class="st1" d="M24.4,28.5c-1,1.2-2.1,2.2-3.5,2.9c-0.7,0.4-1.5,0.8-2.3,1.1c-0.2,0.1-0.4,0.1-0.6,0
				c-1.9-0.7-3.6-1.9-4.9-3.4c-0.8-0.9-1.4-1.9-1.9-3c-0.1-0.1-0.1-0.4,0-0.5c0.5-0.9,1-1.8,1.5-2.7c0.1-0.2,0.3-0.3,0.6-0.2
				c0.2,0,0.5,0,0.7,0c0.2-0.1,0.3,0,0.5,0.1c1.2,1.1,2.5,2,3.8,2.9c0.9,0.6,2,1,3,1.4c0.7,0.3,1.5,0.4,2.2,0.6
				c0.4,0.1,0.6,0.2,0.7,0.6C24.3,28.3,24.3,28.4,24.4,28.5z"/>
			<path class="st1" d="M34,21.8c0,1-0.2,2.2-0.6,3.4c-0.1,0.3-0.2,0.4-0.5,0.6c-1.1,0.6-2.3,1-3.5,1.2c-0.8,0.2-1.6,0.2-2.4,0.3
				c-0.3,0-0.4-0.1-0.5-0.3c-0.1-0.2,0-0.3,0.1-0.5c0.6-1.1,1.1-2.3,1.5-3.6c0.6-2,0.8-4,0.8-6c0-0.3,0.1-0.5,0.3-0.6
				c0.1-0.1,0.3-0.2,0.4-0.3c0.1-0.2,0.3-0.2,0.6-0.2c0.9,0.2,1.7,0.4,2.6,0.6c0.2,0,0.3,0.1,0.4,0.3C33.7,18.3,34,19.8,34,21.8z"/>
			<path class="st1" d="M14.6,20.6c0.5-0.5,1-1,1.6-1.4c0.9-0.8,1.9-1.4,3-2c0.2-0.1,0.3-0.1,0.4,0c0.2,0.1,0.5,0.2,0.7,0.2
				c0.2,0,0.3,0.1,0.4,0.3c0.8,1.7,1.7,3.4,2.5,5.1c0.5,1.1,0.9,2.3,1.4,3.5c0.2,0.5-0.1,0.8-0.6,0.7c-0.6-0.1-1.1-0.2-1.6-0.4
				c-0.6-0.2-1.2-0.4-1.8-0.6c-0.5-0.2-0.9-0.4-1.4-0.6c-1.5-0.8-2.9-1.9-4.2-3c-0.2-0.2-0.4-0.4-0.3-0.8c0.1-0.3-0.1-0.6-0.1-1
				C14.7,20.6,14.7,20.6,14.6,20.6z"/>
			<path class="st1" d="M28.2,16.6c0,0.4,0,0.9,0,1.3c-0.1,1.9-0.3,3.7-1,5.5c-0.3,0.9-0.8,1.9-1.2,2.8c-0.1,0.2-0.1,0.4-0.4,0.3
				c-0.2,0-0.3-0.2-0.3-0.4c-0.2-0.5-0.4-1-0.6-1.6c-0.4-0.9-0.7-1.9-1.2-2.8c-0.7-1.5-1.4-2.9-2.2-4.4c-0.1-0.2-0.1-0.3,0-0.5
				c0.1-0.1,0.2-0.2,0.2-0.4c0.1-0.3,0.3-0.5,0.6-0.6c1.5-0.4,3-0.5,4.5-0.5c0.3,0,0.5,0.1,0.7,0.4C27.5,16.1,27.9,16.3,28.2,16.6z"
				/>
			<path class="st1" d="M17.4,10.6c0.7-0.2,1.3-0.5,2-0.6c1.1-0.3,2.2-0.3,3.4-0.3c1.4,0.1,2.7,0.4,4,0.9c0.7,0.3,1,0.6,1,1.4
				c0,0.5,0.1,1,0.2,1.5c0,0.2,0,0.4-0.3,0.6c-0.2,0.1-0.3,0.3-0.4,0.5c-0.1,0.2-0.2,0.2-0.4,0.2c-0.9,0-1.7,0-2.6,0.1
				c-0.8,0.1-1.5,0.3-2.2,0.4c-0.3,0.1-0.6,0.1-0.8-0.2c-0.2-0.3-0.6-0.4-1-0.3c-0.2,0-0.3,0-0.4-0.2c-0.8-1.3-1.6-2.5-2.3-3.8
				C17.5,10.8,17.5,10.8,17.4,10.6z"/>
			<path class="st1" d="M16.8,11.1c0.8,1.3,1.6,2.6,2.4,4c0.1,0.2,0.1,0.3,0,0.5c-0.1,0.2-0.2,0.4-0.1,0.6c0,0.3-0.1,0.4-0.4,0.5
				c-0.8,0.5-1.7,1-2.5,1.6c-0.7,0.5-1.3,1.1-1.9,1.7c-0.2,0.2-0.3,0.3-0.6,0.2c-0.1,0-0.3,0-0.5,0c-0.2,0.1-0.4,0-0.5-0.2
				c-0.6-0.7-1.1-1.4-1.7-2.1c-0.1-0.1-0.2-0.2-0.1-0.4c1.1-2.9,3-5,5.7-6.4C16.7,11,16.7,11.1,16.8,11.1z"/>
			<path class="st1" d="M26.9,32.3c-0.1-0.1-0.1-0.2-0.1-0.2c-0.2-0.9-0.3-1.8-0.5-2.7c-0.1-0.3-0.1-0.6,0.2-0.8
				c0.1-0.1,0.2-0.2,0.2-0.3c0.1-0.4,0.4-0.4,0.7-0.4c1.4-0.1,2.8-0.3,4.1-0.8c0.4-0.2,0.9-0.3,1.3-0.4
				C31.5,29.3,29.5,31.1,26.9,32.3z"/>
			<path class="st1" d="M19.5,32.9c2.1-0.9,3.9-2.3,5.4-4c0.1,0,0.2,0.1,0.3,0.1c0.1,0,0.2,0,0.3,0.1c0.2,0.8,0.3,1.6,0.5,2.4
				c0.1,0.3,0.1,0.5,0.1,0.8c0,0.2-0.1,0.3-0.3,0.4c-1.7,0.6-3.5,0.6-5.2,0.5C20.3,33.2,19.9,33.2,19.5,32.9z"/>
			<path class="st1" d="M10.8,24.8c-0.5-0.9-0.8-4.4-0.1-6.2c0.1,0.1,0.3,0.3,0.4,0.4c0.4,0.5,0.8,1,1.2,1.5
				c0.1,0.1,0.2,0.2,0.1,0.4c-0.2,0.3-0.1,0.7,0,1c0,0.1,0,0.3,0,0.4C11.9,23.1,11.3,23.9,10.8,24.8z"/>
			<path class="st1" d="M28.5,11.5c1.7,1,2.9,2.4,3.9,4c0,0,0,0.1-0.1,0.1c-0.3-0.1-0.7-0.1-1-0.2c-0.4-0.1-0.8-0.2-1.2-0.2
				c-0.2,0-0.3-0.1-0.4-0.3c-0.1-0.4-0.4-0.7-0.8-0.9c-0.1-0.1-0.2-0.2-0.3-0.3C28.6,13,28.5,12.3,28.5,11.5z"/>
		</g>
	</g>
</g>
</svg>
