<?xml version="1.0" encoding="utf-8"?>
<!-- Generator: Adobe Illustrator 21.1.0, SVG Export Plug-In . SVG Version: 6.00 Build 0)  -->
<svg version="1.1" id="Layer_1" xmlns="http://www.w3.org/2000/svg" xmlns:xlink="http://www.w3.org/1999/xlink" x="0px" y="0px"
	 viewBox="0 0 175 60" style="enable-background:new 0 0 175 60;" xml:space="preserve">
<style type="text/css">
	.st0{fill:#6D5B7C;}
	.st1{fill:#FFFFFF;}
	.st2{fill:none;stroke:#F27280;stroke-width:2;stroke-linecap:round;stroke-miterlimit:10;}
</style>
<rect y="0" class="st0" width="175" height="60"/>
<g>
	<g>
		<path class="st1" d="M175,27.9c0,1.1-0.1,1.2-1,1.2c-2.3-0.1-4.6-0.2-6.9-0.2c-4.5,0-8.9,0-13.4,0c-2.7,0-5.3,0.1-8,0.2
			c-3.8,0.1-7.5,0.2-11.3,0.3c-2.7,0.1-5.5,0.4-8.2,0.6c-1.6,0.1-3.2,0-4.8,0.1c-4.2,0.2-8.5,0.4-12.7,0.7c-0.7,0-1.3,0-2,0.1
			c-5.2,0.2-10.5,0.4-15.7,0.6c-3.7,0.1-7.4,0.2-11.2,0.3c-0.1,0-0.2,0-0.2,0c-0.4,0-0.8,0-0.9-0.5c-0.1-0.4,0.2-0.9,0.7-1
			c0.2-0.1,0.4-0.1,0.6-0.1c2.9-0.2,5.7-0.3,8.6-0.5c3.3-0.2,6.5-0.2,9.8-0.4c5-0.4,10-0.7,15.1-0.8c3.1,0,6.2-0.3,9.3-0.4
			c2.1-0.1,4.3-0.2,6.4-0.3c3.8-0.2,7.5-0.4,11.3-0.6c1-0.1,2-0.1,3.1-0.1c6.6,0,13.3,0,19.9,0c3.2,0,6.4,0.2,9.6,0.3
			C173.7,27.4,174.4,27.4,175,27.9z"/>
		<path class="st1" d="M86.4,51c-0.5,0.1-0.9,0.2-1.3,0.2c-0.3,0-0.6,0-0.8-0.1c-0.4-0.2-0.5-0.6-0.1-0.9c0.8-0.8,1.8-0.9,2.7-0.7
			c0.7,0.2,1.1,0.9,1.2,1.8c0.2,1.4,0.4,2.8,0.7,4.2c0.1,0.5,0.4,0.9,0.7,1.5c0.5-0.6,0.7-1.2,0.7-1.8c0.3-3.1,0.7-6.1,0.5-9.2
			c-0.1-1-0.2-2-0.3-3.1c-0.1-1.3-0.3-2.5,0.5-3.7c0.5-0.7,1.2-1.2,2-1.4c1.9-0.5,4-0.7,6-0.7c5.9-0.1,11.7,0,17.6-0.1
			c2.2,0,4.4-0.3,6.6-0.4c0.6,0,1.2-0.1,1.8-0.1c0.3,0,0.3,0,0.7,0.6c0.9-0.4,1.7-0.9,2.8-0.8c0.4,0,0.7,0,1.1,0
			c3.3,0,6.6-0.4,9.9-0.7c0.3,0,0.7,0,1,0c5.2,0,10.3-0.1,15.5,0c1.5,0,3,0.3,4.5,0.6c1.7,0.3,2.5,1.5,2.7,3.2
			c0.2,2,0.3,4.1,0.4,6.2c0,0.2-0.1,0.5-0.2,0.8c-0.4,0-0.8,0-1.3,0c-0.1-0.6-0.2-1.1-0.3-1.7c-0.1-1.5-0.2-3-0.2-4.5
			c0-0.2,0-0.3,0-0.5c-0.1-1.3-0.3-1.5-1.5-1.8c-1.2-0.3-2.5-0.6-3.7-0.6c-4.3-0.1-8.5-0.1-12.8,0c-2.3,0.1-4.6,0.4-7,0.6
			c-0.2,0-0.4,0-0.6,0c-1.4,0.1-2.8,0.2-4.2,0.3c-0.6,0-1.2,0.4-1.7-0.4c-0.1-0.1-0.6,0-0.7,0.1c-0.3,0.5-0.8,0.5-1.3,0.5
			c-2.8,0.1-5.6,0.1-8.3,0.3c-3.9,0.3-7.8,0.1-11.7,0.2c-3.5,0-7,0-10.6,0.1c-1.3,0-2.6,0.2-3.9,0.4c-1.1,0.2-1.7,1.1-1.5,2.3
			c0.4,2.5,0.6,4.9,0.6,7.4c0,2.4-0.4,4.7-0.8,7c-0.1,0.6-0.4,1.1-0.7,1.6c-0.7,1-2.1,0.9-2.9-0.2c-0.8-1-0.9-2.2-1.1-3.3
			C86.7,53.3,86.6,52.3,86.4,51z"/>
		<path class="st1" d="M25.5,44.1c0.8-0.2,1.1-0.7,1.4-1.3c0.5-0.8,0.7-1.8,0.9-2.8c0.4-1.7,0.7-3.3,0.5-5.1
			c-0.2,0.3-0.4,0.5-0.5,0.7c-0.6,0.7-1.3,0.9-1.8,0.6c-0.5-0.3-0.8-1.2-0.7-1.9c0.2-1,0.7-1.8,1.4-2.5c0.2-0.1,0.4-0.2,0.5-0.4
			c1.2-1.1,2.3-0.3,2.6,1.1c0.4,1.7,0.5,3.5,0.2,5.4c-0.2,1.4-0.4,2.8-0.9,4.1c-0.4,1.3-1.1,2.5-2.2,3.2c-1.4,1-3-0.2-3-1.6
			c-0.1-1.7,0.8-2.9,1.7-4.1c0.3-0.3,1-0.3,1.2-0.1c0.2,0.2,0.2,0.9-0.1,1.3c-0.3,0.4-0.6,0.9-1,1.3C25.3,42.7,25.3,43.3,25.5,44.1z
			 M28.2,33.6c0-0.3,0-0.6-0.1-0.9c-0.2,0.1-0.4,0.2-0.5,0.3C27.8,33.3,28,33.4,28.2,33.6z"/>
		<path class="st1" d="M2.5,34.9c0,1.8,0,3.5,0,5.3c0,0.3,0,0.7-0.1,1c-0.1,0.5-0.5,0.6-1,0.6c-0.5,0-0.8-0.1-0.9-0.7
			c-0.1-0.4-0.1-0.8-0.1-1.3c0-2.4,0-4.9,0-7.3c0-2.1,0-4.2-0.1-6.3c0-1.2-0.2-2.3-0.2-3.5c0-0.2,0-0.4,0-0.6c0.1-0.5,0.5-0.7,1-0.4
			C1.5,22,1.6,22.4,1.7,23C2.2,27,2.7,31,2.5,34.9z"/>
		<path class="st1" d="M52.2,22.4c-0.3,4.5-0.3,9-1,13.5c-0.1,0.5,0,0.9-0.1,1.4c0,0.7-0.4,1.1-0.9,1.1c-0.5,0-1-0.5-1-1.2
			c0-1.4,0.2-2.8,0.3-4.2c0-0.6,0.1-1.1,0.2-1.7c0.2-2.3,0.4-4.6,0.6-6.9c0.1-0.7,0.1-1.5,0.1-2.2c0.1-1.1,0.2-2.1,0.3-3.2
			c0.1-0.7,0.3-1,0.7-1c0.4,0,0.7,0.3,0.7,1c0.1,0.9,0,1.9,0.1,2.8C52.2,22,52.2,22.2,52.2,22.4z"/>
		<path class="st1" d="M20.3,31.7c0.9,0,1.7,0,2.6,0c0.5,0.5,0.6,1,0.1,1.6c-0.8,0.1-1.8,0.2-2.8,0.4c0,0.8-0.1,1.6,0,2.4
			c0.1,0.8,0.6,1.1,1.4,1.2c0,0.5,0,0.9,0,1.3c-1.6,0.4-2.7-0.4-2.9-1.9c-0.2-1-0.3-1.9-0.4-3c-0.5,0-0.9,0.1-1.3,0.1
			c-0.5,0-0.7-0.3-0.7-0.7c0-0.2,0.2-0.6,0.4-0.7c0.3-0.2,0.7-0.3,1-0.3c0.5-0.1,0.7-0.3,0.7-0.9c0.1-1.2,0.1-2.5,0.3-3.7
			c0-0.4,0.2-0.8,0.4-1.2c0.1-0.2,0.5-0.3,0.7-0.3c0.2,0,0.4,0.3,0.4,0.5c0.1,0.3,0,0.7,0,1c0,1.2,0,2.5,0,3.7
			C20.2,31.4,20.3,31.4,20.3,31.7z"/>
		<path class="st1" d="M96.9,5.5c1-0.5,1.4-0.3,1.4,0.7c0,0.3,0,0.7,0,1c0,4.7,0,9.4,0,14.1c0,0.3,0,0.5,0,0.8
			c0,0.5-0.4,0.8-0.8,0.9c-0.5,0.1-0.8-0.3-0.9-0.7c-0.1-0.2-0.1-0.5-0.1-0.8c0-4.1,0-8.3,0-12.4C96.7,7.9,96.8,6.7,96.9,5.5z"/>
		<path class="st1" d="M147.1,11.5c0,1.8,0,3.3,0,4.7c0,0.3-0.1,0.7-0.3,0.9c-0.4,0.4-1,0.3-1.2-0.2c-0.1-0.3-0.2-0.7-0.2-1.1
			c-0.1-4.3-0.1-8.6-0.2-12.9c0-0.4,0.1-0.8,0.3-1.1c0.3-0.5,0.8-0.5,1,0c0.2,0.3,0.2,0.6,0.2,1C146.9,5.9,147,8.9,147.1,11.5z"/>
		<path class="st1" d="M13.4,38.8c-1.2,0-2.4-0.3-3.4-0.8c-1.2-0.6-1.9-1.7-1.9-3c0-1.8,0.6-3.2,1.9-4.4c0.7-0.6,1.9-0.6,2.5,0
			c0.2,0.2,0.3,0.5,0.3,0.8c0.1,0.4-0.3,0.8-0.7,0.7c-0.4-0.1-0.9-0.5-1.3-0.1c-0.4,0.5-0.9,1.2-1,1.8c-0.4,2,0.2,2.8,2.2,3.1
			c1.2,0.2,2.3,0,3.4-0.3c0.3-0.1,0.7-0.1,1,0c0.3,0.2,0.6,0.6,0.4,1c-0.2,0.3-0.5,0.7-0.8,0.8C15.2,38.5,14.3,38.6,13.4,38.8z"/>
		<path class="st1" d="M149.9,52.4c-0.3-1.1-0.6-2-0.9-3c-0.1-0.3-0.1-0.7,0-1c0.2-0.6,0.8-0.7,1.1-0.1c0.3,0.4,0.4,0.9,0.6,1.4
			c0.2,0.4,0.3,0.8,0.5,1.2c0.6-0.6,1.2-1.2,1.8-1.8c0.5-0.5,0.9-0.6,1.3-0.3c0.4,0.3,0.4,1-0.1,1.6c-0.6,0.7-1.2,1.5-1.9,2.3
			c0.4,0.4,0.8,0.8,1.2,1.2c0.4,0.4,0.4,0.8,0.1,1.1c-0.3,0.4-0.7,0.5-1.1,0.2c-0.3-0.3-0.6-0.5-0.9-0.8c-0.3-0.3-0.5-0.3-0.8,0
			c-0.5,0.6-1,1.1-1.5,1.7c-0.3,0.3-0.7,0.6-1,0.8c-0.9-0.6-1-0.7-0.5-1.4C148.4,54.4,149.2,53.4,149.9,52.4z"/>
		<path class="st1" d="M97.6,45c0.3,3.3,0.1,6.6-0.4,9.8c-0.1,0.5-0.2,0.9-0.3,1.4c-0.1,0.4-0.3,0.7-0.8,0.7
			c-0.4-0.1-0.8-0.3-0.8-0.8c0-0.6,0.1-1.1,0.1-1.7c0.3-2.3,0.7-4.7,0.6-7.2c-0.5,0.7-1,1.2-1.4,1.8c-0.2,0.3-0.4,0.5-0.8,0.3
			c-0.4-0.2-0.6-0.7-0.4-1.1c0.5-0.9,1-1.7,1.5-2.5c0.1-0.1,0.2-0.2,0.3-0.4C96.2,44.2,96.4,44.1,97.6,45z"/>
		<path class="st1" d="M136.4,16.2c-0.3-0.9-0.6-1.6-0.8-2.4c-0.2-0.7-0.1-0.7,0.6-1.4c1,0.4,1,1.6,1.5,2.4c0.4-0.3,0.8-0.7,1.2-1
			c0.6-0.5,1.1-0.6,1.4-0.2c0.3,0.4,0.2,1.1-0.3,1.6c-0.4,0.4-0.8,0.7-1.3,1.2c0.2,0.3,0.3,0.5,0.5,0.8c0.2,0.2,0.4,0.5,0.5,0.7
			c0,0.3-0.1,0.7-0.3,0.9c-0.1,0.1-0.6,0.1-0.8,0c-0.4-0.3-0.7-0.7-1.2-1.1c-0.1,0.1-0.4,0.2-0.5,0.3c-0.6,0.6-1.3,1.2-1.9,1.8
			c-0.1,0.1-0.3,0.3-0.5,0.3c-0.3,0-0.6,0-0.8-0.2c-0.3-0.2-0.3-0.5,0-0.8c0.4-0.5,0.8-1,1.2-1.4C135.3,17.2,135.9,16.7,136.4,16.2z
			"/>
		<path class="st1" d="M124.7,49.5c-1.1,0.9-1.4,2-1.7,3.2c-0.1,0.6,0.2,1,0.8,1.1c0.4,0,0.7,0,1.1-0.1c0.7-0.2,1.4-0.4,2.1-0.6
			c0.6-0.2,1,0,1.2,0.5c0.2,0.4-0.2,1.1-0.7,1.2c-0.9,0.3-1.9,0.6-2.8,0.7c-1.2,0.1-2.9-0.4-3.3-2.1c0-0.2-0.1-0.3-0.1-0.5
			c0.4-1.9,0.9-3.7,2.6-4.7c0.7-0.4,1.4-0.3,2,0.3c0.3,0.3,0.4,0.6,0.2,0.9c-0.2,0.4-0.5,0.5-0.9,0.3
			C125,49.7,124.8,49.6,124.7,49.5z"/>
		<path class="st1" d="M41.4,34.2c-0.4-0.8-0.7-1.6-1-2.2c0.7-1,0.9-1,1.5-0.3c0.2,0.3,0.4,0.5,0.6,0.8c0.6,0.1,0.9-0.5,1.3-0.8
			c0.3-0.2,0.5-0.5,0.8-0.7c0.5-0.4,0.9-0.3,1.2,0c0.3,0.3,0.2,1-0.1,1.4c-0.6,0.7-1.3,1.3-1.9,1.9c-0.2,0.8,0.5,1,0.8,1.4
			c0,0.5-0.2,0.8-0.7,0.7c-0.4-0.1-0.8-0.7-0.7-1.6c-0.8,1.1-1.6,2-2.3,2.9c-0.1,0.1-0.1,0.2-0.2,0.3c-0.3,0.5-0.7,0.5-1,0.3
			c-0.5-0.3-0.5-0.7-0.3-1.1c0.3-0.6,0.7-1.3,1-1.9C40.7,34.9,41.1,34.5,41.4,34.2z"/>
		<path class="st1" d="M106.7,16.5c1.1,0.1,2.1,0.1,3,0.2c0.3,0,0.6,0,0.8,0.1c0.4,0.1,0.5,0.5,0.4,0.8c0,0.4-0.2,0.7-0.6,0.6
			c-1.4-0.1-2.8,0.2-4.1-0.4c-0.7-0.3-1.1-1-0.9-1.8c0.4-1.9,3-3.9,4.9-3.7c0.3,0,0.7,0.1,0.8,0.5c0.1,0.3,0,0.7,0,1.1
			C108.8,13.5,107.8,14.9,106.7,16.5z"/>
		<path class="st1" d="M119.2,17.2c0.8-0.8,1.3-1.5,1.3-2.5c0-0.8,0.1-1.6,0.3-2.4c0.4-1.7,1.6-2,2.8-1.8c0.4,0.1,0.8,0.2,1.2,0.3
			c0,0.3,0.1,0.6,0.1,0.9c-0.1,0.4-0.3,0.6-0.7,0.5c-0.3,0-0.6-0.2-0.8-0.2c-0.5-0.1-0.9,0.2-1,0.7c-0.1,0.7-0.3,1.4-0.3,2.2
			c0,1.5-0.7,2.5-1.7,3.4c-0.9,0.8-2.1,0.5-2.6-0.4c-0.2-0.4-0.2-0.8,0.2-1.1c0.4-0.3,0.8-0.3,1.1,0.1C119,16.9,119.1,17,119.2,17.2
			z"/>
		<path class="st1" d="M116.3,12.3c1.4-0.1,2,0.3,2.2,1.4c0.1,0.4-0.1,0.8-0.2,1.2c-0.4,1.4-2.9,2.6-4,2.2c-0.7-0.3-1.1-0.7-1.2-1.4
			c0-0.3,0-0.6-0.1-0.9c-0.2-0.8-0.1-1.1,0.5-1.5C114.4,12.8,115.3,12.2,116.3,12.3z M117,14c-0.9-0.2-1.6,0.1-2.4,0.6
			c0,0.3,0,0.7,0.1,1.1C115.7,15.5,116.6,15.2,117,14z"/>
		<path class="st1" d="M70.9,32.6c0.4,1.4,0.2,1.7-1,1.8c-2.5,0.2-5,0.2-7.4-0.3c-0.2,0-0.4,0-0.6-0.1c-0.4-0.2-0.5-0.5-0.4-0.8
			c0.1-0.2,0.4-0.4,0.6-0.6c0.1,0,0.2,0,0.2,0c2.7,0,5.5,0,8.2,0C70.6,32.5,70.7,32.5,70.9,32.6z"/>
		<path class="st1" d="M132.3,49.5c1.3-0.2,2.4,1.5,2.1,2.7c-0.3,1.1-0.8,1.9-1.7,2.5c-0.7,0.4-1.4,0.3-1.8-0.4
			c-0.3-0.5-0.5-1.1-0.6-1.6c-0.1-0.3-0.1-0.6-0.2-0.9c-0.2-0.7-0.1-1.1,0.4-1.5C131,49.9,131.6,49.3,132.3,49.5z M132.1,53.3
			c1.1-1.4,1.1-1.8,0.1-2.2C132.1,51.8,131.5,52.5,132.1,53.3z"/>
		<path class="st1" d="M136.6,54.9c0.1-1.3,0.2-2.4-0.2-3.5c-0.6-1.5,0.3-3.2,1.3-3.7c0.6-0.3,1.1-0.3,1.5,0.1
			c0.3,0.4,0.3,0.7-0.1,1c-0.1,0.1-0.2,0.1-0.3,0.2c-0.9,0.5-1.1,1-0.8,2c0.4,1.3,0.7,2.6,0.2,4c-0.3,1.1-1.1,1.7-2.2,1.5
			c-0.5-0.1-0.8-0.3-0.8-0.8c0-0.5,0.2-0.7,0.9-0.8C136.2,54.9,136.4,54.9,136.6,54.9z"/>
		<path class="st1" d="M65.2,30.3c-1,0-2,0-3.1,0c-0.5,0-0.9,0-1.1-0.6c-0.1-0.4,0.2-0.7,0.9-0.9c0.4-0.1,0.7-0.2,1.1-0.2
			c1.7,0,3.3,0,5,0c0.3,0,0.6,0,0.8,0.1c0.4,0.2,0.7,0.4,0.7,0.9c0,0.4-0.5,0.8-1,0.8c-0.8,0-1.6-0.1-2.4-0.1
			C65.8,30.4,65.5,30.4,65.2,30.3C65.2,30.4,65.2,30.4,65.2,30.3z"/>
		<path class="st1" d="M143.9,46.6c0.3,0.4,0.8,0.6,0.5,1.2c-0.2,0.4-0.6,0.4-1.3,0.2c-1.1-0.3-1.6-1.2-0.7-2.3
			c0.2-0.3,0.4-0.6,0.6-1c0.1-0.2,0.2-0.5,0.2-0.7c-0.2-0.3-0.4-0.5-0.7-0.2c-0.5,0.4-0.8,0-1-0.3c-0.2-0.4-0.1-0.7,0.4-1
			c0.6-0.4,1.3-0.7,2-0.2c0.6,0.4,1,1.4,0.8,2.3C144.5,45.2,144.2,45.8,143.9,46.6z"/>
		<path class="st1" d="M105.9,51.9c-0.4-1.2-0.2-1.6,0.7-1.6c1.5-0.1,3.1-0.1,4.6,0c0.6,0,0.9,0.3,0.9,0.8c0,0.5-0.3,0.8-0.9,0.8
			c-0.7,0-1.5,0-2.2,0C107.9,51.9,106.9,51.9,105.9,51.9z"/>
	</g>
	<line class="st2" x1="49.9" y1="60" x2="125.9" y2="0"/>
</g>
</svg>
