<?xml version="1.0" encoding="utf-8"?>
<!-- Generator: Adobe Illustrator 21.1.0, SVG Export Plug-In . SVG Version: 6.00 Build 0)  -->
<svg version="1.1" id="Layer_1" xmlns="http://www.w3.org/2000/svg" xmlns:xlink="http://www.w3.org/1999/xlink" x="0px" y="0px"
	 viewBox="0 0 75 70" style="enable-background:new 0 0 75 70;" xml:space="preserve">
<style type="text/css">
	.st0{fill:#6D5B7C;}
	.st1{fill:#FFFFFF;}
	.st2{fill:none;stroke:#F27280;stroke-width:2;stroke-linecap:round;stroke-miterlimit:10;}
</style>
<rect class="st0" width="75" height="70"/>
<g>
	<g>
		<path class="st1" d="M10.2,70c-0.6-0.3-1.3-0.6-1.8-1c-0.8-0.6-1.1-1.5-1.1-2.5c0-18.4,0-36.8,0-55.3c0-2,1.5-3.5,3.5-3.5
			c2.9,0,5.8,0,8.6,0c0.2,0,0.5,0,0.8,0c0-1.3,0-2.6,0-3.8c0-2.5,1.4-3.9,3.8-3.9c8.2,0,16.4,0,24.6,0c0.7,0,1.2,0.2,1.8,0.7
			c5.5,4.9,11,9.8,16.5,14.7c0.5,0.5,0.8,1,0.8,1.7c0,13.4,0,26.9,0,40.3c0,2.4-1.4,3.9-3.8,3.9c-2.8,0-5.6,0-8.4,0
			c-0.2,0-0.4,0-0.7,0c0,0.3,0,0.5,0,0.8c0,1.4,0,2.8,0,4.2c0,1.9-0.9,3.1-2.7,3.7c-0.1,0-0.2,0.1-0.2,0.1C37.9,70,24.1,70,10.2,70z
			 M48.3,2.1c-0.3,0-0.6,0-0.8,0c-7.9,0-15.9,0-23.8,0c-1.2,0-1.4,0.2-1.4,1.4c0,18.1,0,36.1,0,54.2c0,1.1,0.3,1.4,1.4,1.4
			c13.5,0,27.1,0,40.6,0c1.1,0,1.3-0.3,1.3-1.3c0-12.9,0-25.7,0-38.6c0-0.6-0.2-0.9-0.8-0.8c-4.3,0-8.6,0-13,0
			c-1.8,0-3.6-1.5-3.5-3.6c0-4,0-7.9,0-11.9C48.3,2.7,48.3,2.4,48.3,2.1z M16,49.2c1.4,0,2.8,0,4.2,0c0-2.6,0-5.1,0-7.8
			c-1.4,0-2.8,0-4.3,0c0-0.5,0-0.9,0-1.3c-0.1-0.6,0.1-0.8,0.8-0.8c1.2,0.1,2.3,0,3.5,0c0-1.9,0-3.7,0-5.6c-1.4,0-2.8,0-4.3,0
			c0-0.5,0-0.9,0-1.3c-0.1-0.6,0.2-0.8,0.8-0.8c1.2,0.1,2.3,0,3.5,0c0-2.6,0-5.2,0-7.8c-1.3,0-2.5,0-3.7,0c-0.2,0-0.5-0.2-0.5-0.3
			c-0.1-0.6,0-1.2,0-1.8c1.5,0,2.9,0,4.3,0c0-4.1,0-8.1,0-12.1c-0.3,0-0.5,0-0.7,0c-2.9,0-5.8,0-8.8,0c-1.1,0-1.3,0.3-1.3,1.4
			c0,18.4,0,36.9,0,55.3c0,1.2,0.2,1.4,1.4,1.4c13.5,0,26.9,0,40.4,0c0.2,0,0.4,0,0.6,0c0.6,0,0.9-0.4,1-1c0-0.7,0-1.3,0-2
			c0-1.2,0-2.4,0-3.7c-0.4,0-0.7,0-1,0c-9.3,0-18.6,0-27.9,0c-1.5,0-2.7-0.8-3.3-2.2c-0.1-0.3-0.2-0.7-0.3-1.1c-1.4,0-2.8,0-4.2,0
			c0-0.7,0-1.4,0-2.1c1.4,0,2.8,0,4.2,0c0-1.5,0-3,0-4.5c-1.4,0-2.8,0-4.2,0C16,50.6,16,50,16,49.2z M50.5,3.5
			c-0.1,0.2-0.1,0.2-0.1,0.3c0,3.9,0,7.7,0,11.6c0,0.5,0.3,0.9,0.8,0.9c0.3,0,0.5,0.1,0.8,0.1c4,0,8.1,0,12.1,0c0.2,0,0.4,0,0.8-0.1
			C60.1,12,55.3,7.8,50.5,3.5z"/>
		<path class="st1" d="M28.9,24.1c10.1,0,20.1,0,30.1,0c0,0.6,0,1.2,0,1.8c0,0.1-0.4,0.3-0.6,0.3c-2.7,0-5.5,0-8.2,0
			c-6.8,0-13.7,0-20.5,0c-0.6,0-0.8-0.2-0.8-0.8C28.9,25,28.9,24.6,28.9,24.1z"/>
		<path class="st1" d="M28.9,33.8c0-0.7,0-1.3,0-2c10,0,20,0,30,0c0,0.6,0,1.3,0,2C49,33.8,39,33.8,28.9,33.8z"/>
		<path class="st1" d="M28.9,41.6c10.1,0,20.1,0,30.1,0c0,0.6,0,1.2,0,1.8c0,0.1-0.4,0.3-0.6,0.3c-2.2,0-4.3,0-6.5,0
			c-7.4,0-14.8,0-22.2,0c-0.7,0-0.9-0.2-0.8-0.9C28.9,42.4,28.9,42.1,28.9,41.6z"/>
		<path class="st1" d="M28.9,50.2c0-0.7,0-1.3,0-2c10,0,20,0,30,0c0,0.6,0,1.3,0,2C49,50.2,39,50.2,28.9,50.2z"/>
		<path class="st1" d="M42.8,14.3c0,0.7,0,1.3,0,2c-4.6,0-9.2,0-13.8,0c0-0.6,0-1.3,0-2C33.6,14.3,38.1,14.3,42.8,14.3z"/>
	</g>
	<line class="st2" x1="0" y1="68" x2="75" y2="8.3"/>
</g>
</svg>
