<?xml version="1.0" encoding="utf-8"?>
<!-- Generator: Adobe Illustrator 21.1.0, SVG Export Plug-In . SVG Version: 6.00 Build 0)  -->
<svg version="1.1" id="Layer_1" xmlns="http://www.w3.org/2000/svg" xmlns:xlink="http://www.w3.org/1999/xlink" x="0px" y="0px"
	 viewBox="0 0 55 55" style="enable-background:new 0 0 55 55;" xml:space="preserve">
<style type="text/css">
	.st0{fill:#E7E4E5;}
	.st1{fill:#FFFFFF;}
</style>
<g>
	<circle class="st0" cx="27.5" cy="27.5" r="27.5"/>
	<g>
		<path class="st1" d="M18.6,25.8c1.8,0,3.6,0,5.3,0c5.8,0,11.7,0,17.5,0c0.9,0,1.6,0.6,1.8,1.5c0.1,0.8-0.4,1.6-1.3,1.9
			c-0.2,0.1-0.5,0.1-0.7,0.1c-7.4,0-14.8,0-22.2,0c-0.1,0-0.3,0-0.5,0c0.1,0.1,0.2,0.2,0.3,0.3c2.5,2.5,5,5,7.5,7.5
			c0.9,0.9,0.6,2.5-0.6,2.9c-0.7,0.2-1.3,0-1.8-0.5c-2.3-2.3-4.6-4.6-6.9-6.9c-1.2-1.2-2.4-2.4-3.6-3.6c-0.4-0.4-0.7-0.8-0.7-1.4
			c0-0.4,0.1-0.7,0.3-1c0.1-0.2,0.3-0.3,0.4-0.5c3.5-3.5,6.9-6.9,10.4-10.4c0.4-0.4,0.9-0.6,1.5-0.6c0.7,0.1,1.2,0.4,1.5,1.1
			c0.2,0.7,0.1,1.3-0.4,1.9c-2.5,2.5-5,5-7.5,7.5C18.8,25.5,18.7,25.6,18.6,25.8z"/>
	</g>
</g>
</svg>
