<?xml version="1.0" encoding="utf-8"?>
<!-- Generator: Adobe Illustrator 21.1.0, SVG Export Plug-In . SVG Version: 6.00 Build 0)  -->
<svg version="1.1" id="Layer_1" xmlns="http://www.w3.org/2000/svg" xmlns:xlink="http://www.w3.org/1999/xlink" x="0px" y="0px"
	 viewBox="0 0 55 55" style="enable-background:new 0 0 55 55;" xml:space="preserve">
<style type="text/css">
	.st0{fill:url(#SVGID_1_);}
	.st1{fill:#FFFFFF;}
</style>
<g>
	
		<linearGradient id="SVGID_1_" gradientUnits="userSpaceOnUse" x1="0" y1="27.5" x2="55" y2="27.5" gradientTransform="matrix(-1 0 0 -1 55 55)">
		<stop  offset="0" style="stop-color:#665675"/>
		<stop  offset="1" style="stop-color:#766184"/>
	</linearGradient>
	<circle class="st0" cx="27.5" cy="27.5" r="27.5"/>
	<g>
		<path class="st1" d="M36.4,29.2c-1.8,0-3.6,0-5.3,0c-5.8,0-11.7,0-17.5,0c-0.9,0-1.6-0.6-1.8-1.5c-0.1-0.8,0.4-1.6,1.3-1.9
			c0.2-0.1,0.5-0.1,0.7-0.1c7.4,0,14.8,0,22.2,0c0.1,0,0.3,0,0.5,0c-0.1-0.1-0.2-0.2-0.3-0.3c-2.5-2.5-5-5-7.5-7.5
			c-0.9-0.9-0.6-2.5,0.6-2.9c0.7-0.2,1.3,0,1.8,0.5c2.3,2.3,4.6,4.6,6.9,6.9c1.2,1.2,2.4,2.4,3.6,3.6c0.4,0.4,0.7,0.8,0.7,1.4
			c0,0.4-0.1,0.7-0.3,1c-0.1,0.2-0.3,0.3-0.4,0.5c-3.5,3.5-6.9,6.9-10.4,10.4c-0.4,0.4-0.9,0.6-1.5,0.6c-0.7-0.1-1.2-0.4-1.5-1.1
			c-0.2-0.7-0.1-1.3,0.4-1.9c2.5-2.5,5-5,7.5-7.5C36.2,29.5,36.3,29.4,36.4,29.2z"/>
	</g>
</g>
</svg>
