<?xml version="1.0" encoding="utf-8"?>
<!-- Generator: Adobe Illustrator 21.1.0, SVG Export Plug-In . SVG Version: 6.00 Build 0)  -->
<svg version="1.1" id="Layer_1" xmlns="http://www.w3.org/2000/svg" xmlns:xlink="http://www.w3.org/1999/xlink" x="0px" y="0px"
	 viewBox="0 0 15 73" style="enable-background:new 0 0 15 73;" xml:space="preserve">
<style type="text/css">
	.st0{fill:#FFFFFF;}
</style>
<path class="st0" d="M14.2,3c-1,0-1.9,0-2.9,0c-0.3,0-0.5-0.1-0.5-0.4C10.4,1,9.1,0,7.4,0C6,0,4.7,0,3.3,0C1.2,0-0.2,1.3-0.2,3.3
	c-0.1,19.3-0.2,38.6-0.3,57.9c0,0.4,0.1,0.8,0.3,1.1c0.9,1.7,1.8,3.4,2.7,5.2c0.3,0.6,0.6,1.1,1.5,1.1c0,1.1,0,2.2,0,3.3
	c0,0.4,0.1,0.8,0.6,1c0.8,0.4,1.6-0.1,1.6-1c0-1.1,0-2.2,0-3.4c0.8,0,1.1-0.4,1.4-1c0.9-1.7,1.8-3.4,2.7-5.1c0.2-0.5,0.4-1,0.4-1.5
	c0.1-18.4,0.2-36.8,0.3-55.2c0-0.2,0-0.5,0-0.7c0.9,0,1.7,0,2.6,0c0,0.2-0.1,0.4-0.1,0.7c0,6.3-0.1,12.5-0.1,18.8
	c0,0.8,0.4,1.3,1.1,1.3c0.7,0,1.1-0.4,1.1-1.2c0-6.8,0.1-13.6,0.1-20.5C15.5,3.4,15.1,3,14.2,3z M5.7,66.2c-0.2,0.3-1.3,0.4-1.5,0.1
	c-0.7-1.2-1.3-2.4-1.9-3.6c1.8,0,3.5,0.1,5.2,0.1C7,63.9,6.4,65.1,5.7,66.2z M8.4,60.4c-2.2,0-4.4,0-6.5-0.1c0-13,0.1-26.1,0.1-39.1
	c2.2,0,4.4,0,6.5,0C8.4,34.3,8.4,47.4,8.4,60.4z M8.6,18.8c0,0.1,0,0.1,0,0.2c-2.2,0-4.4,0-6.7,0c0-0.2,0-0.4,0-0.6c0-5,0-10,0.1-15
	C1.9,2.4,2.3,2,3.5,2c1.3,0,2.6,0,4,0c0.8,0,1.3,0.4,1.3,1.2C8.7,8.4,8.6,13.6,8.6,18.8z"/>
</svg>
