<?xml version="1.0" encoding="utf-8"?>
<!-- Generator: Adobe Illustrator 21.1.0, SVG Export Plug-In . SVG Version: 6.00 Build 0)  -->
<svg version="1.1" id="Layer_1" xmlns="http://www.w3.org/2000/svg" xmlns:xlink="http://www.w3.org/1999/xlink" x="0px" y="0px"
	 viewBox="0 0 65 60" style="enable-background:new 0 0 65 60;" xml:space="preserve">
<style type="text/css">
	.st0{fill:#695878;}
	.st1{fill:#FFFFFF;}
</style>
<rect x="0" class="st0" width="65" height="60"/>
<g>
	<path class="st1" d="M-0.5,58.5c0.5-0.8,1.4-0.7,2.2-0.7c0-0.3,0-0.6,0-0.9c0-8,0-16,0-24c0-0.1,0-0.3,0-0.4c0-1,0.4-1.3,1.3-1.4
		c2.5,0,4.9,0,7.5,0c0-0.9,0-1.7,0-2.6c0-0.3,0-0.6,0-0.8c0.1-0.6,0.5-1,1.1-1.1c0.6,0,1.1,0.4,1.1,1.1c0,1.1,0,2.2,0,3.4
		c0.3,0,0.5,0,0.8,0c1.1,0,1.4,0.4,1.5,1.4c0,4,0,8.1,0,12.1c0,4.1,0,8.3,0,12.4c0,0.2,0,0.4,0,0.6c1.5,0,2.9,0,4.4,0
		c0-0.2,0-0.4,0-0.6c0-16.3,0-32.5,0-48.8c0-1.3,0.3-1.6,1.6-1.6c1.6,0,3.3,0,5,0c0-1.7,0-3.4,0-5.1c0-1.2,0.3-1.6,1.5-1.6
		c3.4,0,6.8,0,10.2,0c1,0,1.4,0.4,1.4,1.4c0,1.7,0,3.4,0,5.2c0.4,0,0.8,0,1.2,0c1.3,0,2.6,0,3.9,0c1.1,0,1.5,0.4,1.5,1.5
		c0,16.2,0,32.4,0,48.6c0,0.3,0,0.6,0,1c1.5,0,2.9,0,4.4,0c0-0.2,0-0.5,0-0.7c0-8,0-16.1,0-24.1c0-1.5,0.2-1.8,1.7-1.8
		c0.1,0,0.3,0,0.5,0c0-1,0-2.1,0-3.1c0-0.9,0.4-1.4,1.1-1.4c0.7,0,1.1,0.5,1.1,1.3c0,1,0,2,0,3.1c1.5,0,2.9,0,4.3,0c1,0,2.1,0,3.1,0
		c1,0,1.4,0.4,1.4,1.4c0,8.1,0,16.2,0,24.4c0,0.3,0,0.5,0,0.8c0.8,0.1,1.7-0.2,2.2,0.7c0,0.3,0,0.6,0,0.8C65.1,59.8,64.6,60,64,60
		c-21,0-42,0-63,0c-0.7,0-1.2-0.2-1.5-0.7C-0.5,59-0.5,58.7-0.5,58.5z M21.5,57.7c7.3,0,14.6,0,21.9,0c0-16.3,0-32.6,0-48.8
		c-7.3,0-14.6,0-21.9,0C21.5,25.2,21.5,41.4,21.5,57.7z M12.7,33.4c-2.9,0-5.8,0-8.7,0c0,8.2,0,16.3,0,24.3c2.9,0,5.8,0,8.7,0
		C12.7,49.6,12.7,41.5,12.7,33.4z M52.3,57.7c3,0,5.8,0,8.7,0c0-8.1,0-16.2,0-24.4c-2.9,0-5.8,0-8.7,0
		C52.3,41.5,52.3,49.6,52.3,57.7z M36.9,2.3c-2.9,0-5.8,0-8.7,0c0,1.5,0,2.9,0,4.4c2.9,0,5.8,0,8.7,0C36.9,5.2,36.9,3.7,36.9,2.3z"
		/>
	<path class="st1" d="M32.5,15.6c-2.5,0-5,0-7.6,0c-0.7,0-1.2-0.5-1.2-1.1c0-0.6,0.5-1.1,1.2-1.1c0.1,0,0.2,0,0.3,0
		c4.9,0,9.8,0,14.8,0c0.9,0,1.4,0.4,1.4,1.1c0,0.7-0.5,1.1-1.4,1.1C37.4,15.6,35,15.6,32.5,15.6z"/>
	<path class="st1" d="M32.4,22.2c-2.4,0-4.9,0-7.3,0c-0.9,0-1.4-0.4-1.4-1.1c0-0.7,0.5-1.1,1.4-1.1c5,0,9.9,0,14.9,0
		c0.8,0,1.4,0.4,1.3,1.1c0,0.7-0.5,1.1-1.3,1.1C37.5,22.2,34.9,22.2,32.4,22.2z"/>
	<path class="st1" d="M32.6,26.7c2.4,0,4.9,0,7.3,0c0.9,0,1.4,0.4,1.5,1.1c0,0.7-0.5,1.1-1.5,1.1c-4.9,0-9.8,0-14.7,0
		c-0.9,0-1.4-0.4-1.4-1.1c0-0.7,0.5-1.1,1.4-1.1C27.6,26.7,30.1,26.7,32.6,26.7z"/>
	<path class="st1" d="M32.4,35.5c-2.4,0-4.9,0-7.3,0c-0.9,0-1.4-0.4-1.4-1.1c0-0.7,0.5-1.1,1.3-1.1c5,0,10,0,15,0
		c0.8,0,1.3,0.5,1.3,1.1c0,0.7-0.5,1.1-1.3,1.1c-0.1,0-0.1,0-0.2,0C37.3,35.6,34.9,35.6,32.4,35.5z"/>
	<path class="st1" d="M32.6,40c2.4,0,4.9,0,7.3,0c0.9,0,1.4,0.4,1.4,1.1c0,0.7-0.5,1.1-1.4,1.1c-4.9,0-9.9,0-14.8,0
		c-0.9,0-1.4-0.4-1.4-1.1c0-0.7,0.5-1.1,1.5-1.1C27.6,40,30.1,40,32.6,40z"/>
	<path class="st1" d="M32.6,46.7c2.4,0,4.9,0,7.3,0c0.9,0,1.4,0.4,1.4,1.1c0,0.7-0.5,1.1-1.3,1.1c-5,0-9.9,0-14.9,0
		c-0.9,0-1.4-0.4-1.3-1.1c0-0.7,0.5-1.1,1.4-1.1C27.6,46.7,30.1,46.7,32.6,46.7z"/>
</g>
</svg>
