<?xml version="1.0" encoding="utf-8"?>
<!-- Generator: Adobe Illustrator 21.1.0, SVG Export Plug-In . SVG Version: 6.00 Build 0)  -->
<svg version="1.1" id="Layer_1" xmlns="http://www.w3.org/2000/svg" xmlns:xlink="http://www.w3.org/1999/xlink" x="0px" y="0px"
	 viewBox="0 0 25 62" style="enable-background:new 0 0 25 62;" xml:space="preserve">
<style type="text/css">
	.st0{fill:#695878;}
	.st1{fill:#FFFFFF;}
</style>
<rect x="0" class="st0" width="25" height="62"/>
<path class="st1" d="M23.8,47.9c-0.5-1.3-1.5-2.2-2.9-2.5c-1.3-0.2-2.6-0.4-3.8-0.6c-0.9-0.1-1.8-0.3-2.7-0.5
	c-0.8-0.2-1.3-0.7-1.4-1.5c-0.2-0.8-0.4-1.7-0.5-2.5c-0.6-4.5-0.7-9-0.5-13.6c0.1-2.5,0.5-4.9,0.7-7.3c0.1-0.8,0.6-1.3,1.4-1.5
	c0.8-0.2,1.6-0.4,2.5-0.6c1.3-0.3,2.7-0.5,4-0.8c1.4-0.3,2.3-1.2,2.8-2.5c1.2-3.3,1.3-6.6,0.4-10c-0.6-2-1.9-3.2-4-3.7
	c-2.8-0.6-5.5-0.4-8.1,0.5C10,1.3,8.5,2.2,7.2,3.3c-2.3,2.1-3.9,4.7-5,7.7c-1.2,3.2-1.8,6.5-2,9.9C0,25.2,0,29.4,0,33.7
	c0,4.6,0.4,9.1,1.4,13.6c0.9,3.6,2.2,6.9,5.3,10.6c3.2,3.6,8.2,4.8,13.8,3.7c2.1-0.4,3.4-1.8,3.9-3.9C25.3,54.4,25.1,51.1,23.8,47.9
	z M23,56.9c-0.4,1.8-1.4,2.9-3.2,3.2c-3.9,0.6-7.5,0-10.6-2.4c-0.6-0.5-1.2-1.1-1.8-1.7C5,53.1,3.7,49.8,3,46.3
	C1.9,41.6,1.7,36.8,1.7,32c0-3.9-0.1-7.8,0.3-11.7C2.3,16.6,3,13,4.6,9.7C5.5,7.9,6.6,6.3,8,5c2.4-2.3,5.4-3.2,8.7-3.2
	c1,0,2,0.2,3,0.3c1.2,0.2,2,1,2.4,2.2c1,3.1,0.8,6.2-0.3,9.3c-0.3,0.7-0.8,1.2-1.6,1.4c-1.2,0.2-2.4,0.4-3.6,0.7
	c-1.1,0.2-2.3,0.5-3.4,0.8c-1.1,0.4-1.9,1.2-2,2.4c-0.3,1.8-0.6,3.6-0.7,5.4c-0.4,5.7-0.3,11.4,0.6,17c0.1,0.7,0.3,1.4,0.4,2.1
	c0.3,1.2,1,2,2.1,2.4c0.9,0.3,1.7,0.5,2.6,0.6c1.3,0.2,2.6,0.4,3.8,0.5c1.3,0.2,2,0.9,2.4,2.1C23.3,51.6,23.5,54.2,23,56.9z"/>
</svg>
