<svg width="198" height="197" viewBox="0 0 198 197" fill="none" xmlns="http://www.w3.org/2000/svg">
<path d="M164.966 64.8312C164.966 64.8312 104.018 108.448 83.1444 118.195C96.3539 141.632 107.5 155.423 107.5 155.423C107.5 155.423 189.998 112.178 190.709 104.258C187.973 96.3623 188.024 96.5426 164.966 64.8312Z" fill="#475B73"/>
<path d="M178.098 92.6565C173.552 96.0134 172.441 103.559 175.719 107.326C172.746 117.993 117.016 144.575 117.016 144.575L116.96 144.513C114.253 139.941 107.652 138.756 103.312 141.469L94.692 128.325C99.2281 125.205 100.151 119.193 97.4442 114.622C97.4469 114.562 97.3876 114.56 97.3902 114.501L155.52 75.4457C155.685 75.7498 155.849 76.0538 156.014 76.3579C158.72 80.9296 165.821 82.909 170.22 80.1983L178.282 92.546C178.22 92.6026 178.101 92.5972 178.098 92.6565Z" fill="url(#paint0_linear)"/>
<path d="M149.955 101.595C150.816 102.911 152.581 103.281 153.899 102.422C155.216 101.563 155.587 99.7996 154.727 98.4836C153.866 97.1676 152.101 96.7971 150.783 97.6562C149.466 98.5153 149.095 100.279 149.955 101.595Z" fill="#6680A1"/>
<path d="M157.115 96.9034C157.975 98.2195 159.74 98.5899 161.058 97.7308C162.375 96.8717 162.746 95.1084 161.886 93.7924C161.025 92.4764 159.26 92.106 157.943 92.965C156.625 93.8241 156.254 95.5874 157.115 96.9034Z" fill="#6680A1"/>
<path d="M109.083 128.258C109.944 129.574 111.709 129.944 113.027 129.085C114.344 128.226 114.715 126.463 113.854 125.147C112.994 123.831 111.229 123.46 109.911 124.319C108.594 125.178 108.223 126.942 109.083 128.258Z" fill="#043C5E"/>
<path d="M116.119 123.661C116.979 124.977 118.744 125.347 120.062 124.488C121.379 123.629 121.75 121.866 120.89 120.55C120.029 119.234 118.264 118.864 116.946 119.723C115.629 120.582 115.258 122.345 116.119 123.661Z" fill="#01898C"/>
<path d="M164.3 5.40137C164.3 5.40137 111.652 58.706 92.7665 71.8056C109.717 92.6216 123.094 104.376 123.094 104.376C123.094 104.376 196.979 47.8094 196.383 39.8904C192.314 32.5873 192.424 32.7703 164.3 5.40137Z" fill="#475B73"/>
<path d="M181.944 30.6396C178.077 34.739 178.212 42.3406 182.112 45.4822C180.964 56.5276 130.534 92.1293 130.534 92.1293L130.477 92.0674C127.035 87.9968 120.381 87.9957 116.487 91.3817L105.774 79.8648C109.746 76.0668 109.604 69.9483 106.162 65.8778C106.105 65.8159 106.105 65.8159 106.049 65.754L156.693 17.4036C156.86 17.6485 157.084 17.9552 157.311 18.2027C160.753 22.2733 168.086 23.017 171.984 19.5717L182.13 30.4699C182.009 30.5238 181.947 30.5804 181.944 30.6396Z" fill="url(#paint1_linear)"/>
<path d="M155.694 44.2051C156.765 45.3563 158.568 45.4223 159.72 44.3526C160.872 43.2829 160.938 41.4825 159.867 40.3313C158.796 39.1802 156.994 39.1141 155.841 40.1838C154.689 41.2536 154.623 43.0539 155.694 44.2051Z" fill="#6680A1"/>
<path d="M162.031 38.3598C163.102 39.5109 164.904 39.577 166.057 38.5073C167.209 37.4375 167.275 35.6372 166.204 34.486C165.133 33.3348 163.33 33.2688 162.178 34.3385C161.026 35.4082 160.96 37.2086 162.031 38.3598Z" fill="#6680A1"/>
<path d="M119.969 77.3495C121.04 78.5007 122.843 78.5667 123.995 77.497C125.148 76.4273 125.214 74.6269 124.143 73.4757C123.071 72.3246 121.269 72.2585 120.116 73.3282C118.964 74.398 118.898 76.1983 119.969 77.3495Z" fill="#043C5E"/>
<path d="M126.131 71.6549C127.202 72.8061 129.005 72.8721 130.157 71.8024C131.31 70.7327 131.376 68.9323 130.305 67.7812C129.234 66.63 127.431 66.564 126.279 67.6337C125.126 68.7034 125.06 70.5038 126.131 71.6549Z" fill="#6680A1"/>
<path d="M99.8053 2.15802C99.8053 2.15802 79.6432 74.3038 69.5117 94.9162C94.4913 104.936 111.847 108.739 111.847 108.739C111.847 108.739 148.997 23.4086 144.602 16.7437C137.492 12.3309 137.665 12.4573 99.8053 2.15802Z" fill="#475B73"/>
<path d="M127.483 15.6213C126.05 21.0758 129.915 27.6576 134.807 28.5294C139.161 38.7529 112.376 94.2835 112.376 94.2835C112.317 94.2808 112.317 94.2808 112.26 94.2189C107.294 92.3351 101.446 95.5744 99.7436 100.423L84.7529 95.5392C86.3552 90.2702 83.3221 85.0311 78.2972 83.1447C78.2379 83.142 78.1786 83.1394 78.1813 83.0801L98.9941 16.3041C99.2853 16.4359 99.5764 16.5676 99.9269 16.7019C104.893 18.5858 111.676 15.6851 113.381 10.7768L127.553 15.387C127.488 15.5028 127.485 15.562 127.483 15.6213Z" fill="url(#paint2_linear)"/>
<path d="M111.158 40.2491C112.654 40.7368 114.262 39.9211 114.751 38.4272C115.239 36.9332 114.422 35.3266 112.926 34.8389C111.43 34.3511 109.822 35.1668 109.334 36.6608C108.846 38.1548 109.662 39.7613 111.158 40.2491Z" fill="#6680A1"/>
<path d="M113.825 32.0577C115.321 32.5454 116.929 31.7297 117.418 30.2358C117.906 28.7418 117.089 27.1352 115.593 26.6475C114.097 26.1597 112.489 26.9754 112.001 28.4694C111.513 29.9634 112.329 31.5699 113.825 32.0577Z" fill="#6680A1"/>
<path d="M95.9991 86.5854C97.4949 87.0732 99.1033 86.2574 99.5915 84.7635C100.08 83.2695 99.2628 81.6629 97.767 81.1752C96.2712 80.6874 94.6628 81.5031 94.1746 82.9971C93.6865 84.4911 94.5033 86.0976 95.9991 86.5854Z" fill="#043C5E"/>
<path d="M98.6065 78.5779C100.102 79.0657 101.711 78.25 102.199 76.756C102.687 75.262 101.87 73.6555 100.374 73.1677C98.8786 72.68 97.2703 73.4957 96.7821 74.9897C96.2939 76.4836 97.1107 78.0902 98.6065 78.5779Z" fill="#6680A1"/>
<path d="M67.2974 143.386H106.66V159.708H67.2974V143.386Z" fill="#F04637"/>
<path d="M12.0474 143.386H44V159.708H12.0474V143.386Z" fill="#FF7B7C"/>
<path d="M36.6494 143.386H67.2979V159.708H36.6494V143.386Z" fill="#FF5C5D"/>
<path d="M11.3953 160.42H107.312V142.792H11.3953V160.42ZM106.008 159.114H12.6402V144.039H106.008V159.114Z" fill="#F04637"/>
<path d="M56.6265 127.064H95.9893V143.386H56.6265V127.064Z" fill="#F04637"/>
<path d="M1.31689 127.064H33.2695V143.386H1.31689V127.064Z" fill="#FF7B7C"/>
<path d="M25.9785 127.064H56.627V143.386H25.9785V127.064Z" fill="#FF5C5D"/>
<path d="M0.724442 144.039H96.6416V126.411H0.724442V144.039ZM95.3374 142.792H1.96935V127.717H95.3374V142.792Z" fill="#F04637"/>
<path d="M75.1226 110.683H114.485V127.005H75.1226V110.683Z" fill="#F7A605"/>
<path d="M19.8726 110.683H51.8252V127.005H19.8726V110.683Z" fill="#FF7B7C"/>
<path d="M44.4746 110.683H75.123V127.005H44.4746V110.683Z" fill="#FF5C5D"/>
<path d="M19.2206 127.717H115.138V110.089H19.2206V127.717ZM113.893 126.411H20.5247V111.336H113.893V126.411Z" fill="#F04637"/>
<path d="M68.3647 94.3608H107.728V110.683H68.3647V94.3608Z" fill="#F7A605"/>
<path d="M13.0552 94.3608H45.0078V110.683H13.0552V94.3608Z" fill="#FF7B7C"/>
<path d="M37.7168 94.3608H68.3652V110.683H37.7168V94.3608Z" fill="#FF5C5D"/>
<path d="M12.4627 111.336H108.38V93.708H12.4627V111.336ZM107.076 110.089H13.7076V95.0137H107.076V110.089Z" fill="#F04637"/>
<path d="M59.9468 77.9797H99.3096V94.3016H59.9468V77.9797Z" fill="#F7A605"/>
<path d="M4.63721 77.9797H36.5898V94.3016H4.63721V77.9797Z" fill="#FF7B7C"/>
<path d="M29.2393 77.9797H59.8877V94.3016H29.2393V77.9797Z" fill="#FF5C5D"/>
<path d="M3.98518 95.0138H99.9023V77.3862H3.98518V95.0138ZM98.6574 93.708H5.28938V78.6326H98.6574V93.708Z" fill="#F04637"/>
<path d="M32.2744 35.1617V45.4311H47.3306V59.6533H46.8556V163.843C46.8556 171.997 53.537 178.674 61.695 178.674C62.9858 178.674 141.716 178.747 141.716 178.747V59.0031C141.716 45.8336 131.038 35.1617 117.862 35.1617H32.2744Z" fill="#ACC1D6"/>
<path d="M22 54.9884V45.4622C22 39.5277 26.8638 34.6562 32.8017 34.6459C40.9597 34.6459 47.641 41.2616 47.641 49.3532V54.9988H22V54.9884Z" fill="#475B73"/>
<path d="M122.89 61.6866H71.6807V63.8334H122.89V61.6866Z" fill="#475B73"/>
<path d="M122.889 70.2737H71.6797V72.4204H122.889V70.2737Z" fill="#475B73"/>
<path d="M122.89 79.9445H71.6807V82.0912H122.89V79.9445Z" fill="#475B73"/>
<path d="M122.889 88.5415H71.6797V90.6883H122.889V88.5415Z" fill="#475B73"/>
<path d="M122.89 97.9133H71.6807V100.06H122.89V97.9133Z" fill="#475B73"/>
<path d="M122.889 106.5H71.6797V108.647H122.889V106.5Z" fill="#475B73"/>
<path d="M122.89 116.171H71.6807V118.318H122.89V116.171Z" fill="#475B73"/>
<path d="M122.889 124.768H71.6797V126.915H122.889V124.768Z" fill="#475B73"/>
<path d="M145.547 178.757C129.251 178.757 66.0215 178.757 66.0215 178.757C66.0215 178.757 82.1001 175.454 76.7405 155.638C101.39 155.638 161.398 155.638 161.398 155.638C161.398 155.638 166.747 178.757 145.547 178.757Z" fill="#6680A1"/>
<path d="M28.6616 166.544C26.8004 179.867 28.8428 193.672 28.8428 193.552C28.8428 193.431 30.3293 193.552 30.3293 193.552C30.3293 193.552 32.3838 177.354 32.8672 171.943C33.3506 166.532 32.8672 166.17 32.8672 166.17C32.8672 166.17 30.5227 153.21 28.6616 166.544Z" fill="#F39F85"/>
<path d="M28.1661 132.157L23.61 135.056L21.6885 131.058L27.5739 124.306L28.1661 132.157Z" fill="#6680A1"/>
<path d="M52.2285 105.476L46.6452 120.042L43.0801 117.397L51.0441 103.978L52.2285 105.476Z" fill="#F7B58E"/>
<path d="M52.5546 100.523C52.1195 100.886 51.8174 101.381 51.7328 101.949L51.0439 103.978L51.2615 104.364L52.2283 105.476C52.2887 105.041 52.615 104.715 52.615 104.715L54.1377 103.012C54.1377 103.012 56.6272 100.113 54.3069 99.1223C55.6725 96.4288 54.6936 96.4892 54.6936 96.4892L53.473 98.7962L52.5546 100.523Z" fill="#F7B58E"/>
<path d="M52.9048 101.055C52.9048 101.055 52.3972 100.584 52.8444 99.4606C53.2916 98.3373 52.6148 98.4098 52.6148 98.4098C52.6148 98.4098 50.7537 102.794 51.3458 103.289C51.9501 103.797 52.9048 101.055 52.9048 101.055Z" fill="#F7B58E"/>
<path d="M36.2275 123.05L37.8952 123.183L43.5753 116.564L46.6449 120.054C46.6449 120.054 43.829 125.369 39.708 130.864C39.4784 131.988 38.2578 143.233 38.2578 143.233H28.4084C28.4084 143.233 29.9795 134.983 27.212 130.393C24.4445 125.779 36.2275 123.05 36.2275 123.05Z" fill="#6680A1"/>
<path d="M33.0004 166.544C31.1393 179.867 33.1817 193.672 33.1817 193.552C33.1817 193.431 34.6682 193.552 34.6682 193.552C34.6682 193.552 36.7227 177.354 37.2061 171.943C37.6895 166.532 37.2061 166.17 37.2061 166.17C37.2061 166.17 34.8736 153.21 33.0004 166.544Z" fill="#F7B58E"/>
<path d="M36.5898 112.759L30.9219 114.74L31.4778 118.967C31.4899 119.028 31.502 119.088 31.514 119.148C31.6228 119.173 31.7316 119.185 31.8403 119.221C31.8524 119.221 31.8766 119.233 31.8887 119.233C31.9008 119.233 31.9249 119.245 31.937 119.245C33.2422 119.571 34.1728 120.646 34.5837 121.902C35.3934 122.035 36.2272 122.035 37.0369 121.866C37.5929 121.757 38.1004 121.576 38.3301 121.31C39.5386 118.689 36.5898 112.759 36.5898 112.759Z" fill="#F7B58E"/>
<path d="M36.7349 116.322C36.2273 117.349 36.1306 118.545 36.614 119.583C37.3875 121.214 37.315 123.05 36.8074 124.052C36.4569 124.741 35.5385 125.417 34.7288 125.924C33.8707 126.456 33.3148 127.35 33.2181 128.352C33.0973 129.729 32.9643 131.42 31.78 131.819C28.3599 133.002 27.103 132.882 26.6438 130.031C26.523 129.306 26.5713 128.231 26.9338 127.241C27.381 126.033 27.3447 124.68 26.8251 123.497C26.4867 122.712 26.1846 121.854 26.1846 121.262C26.1846 120.61 26.7767 119.704 27.3931 118.931C28.1665 117.965 28.5049 116.733 28.3961 115.501C28.2874 114.269 28.4566 112.686 29.7134 111.624C32.0579 109.631 37.2425 112.771 37.2425 112.771C37.2425 112.771 37.7621 114.269 36.7349 116.322Z" fill="#212B53"/>
<path d="M21.6888 131.058L19.5014 133.328C18.0512 134.838 17.592 136.928 19.3443 138.075L26.4987 143.752L25.8461 144.984C25.2902 146.023 25.399 147.291 26.112 148.221L26.8734 149.212L28.5532 143.474L23.3687 137C22.8128 136.421 22.9457 135.478 23.6345 135.068L21.6888 131.058Z" fill="#F7B58E"/>
<path d="M38.2692 143.221C38.2692 143.221 39.7073 146.965 39.7073 150.746C39.7073 152.823 37.9067 168.525 37.9067 168.525C37.9067 168.525 30.2689 168.525 28.5286 168.525C29.1691 156.93 25.6523 155.517 25.6523 150.504C25.6523 146.965 28.4198 143.221 28.4198 143.221H38.2692Z" fill="#053C5E"/>
<path d="M28.8311 191.812C28.8311 191.812 28.0093 192.452 28.1664 193.274C28.3115 194.095 28.529 196.016 28.529 196.016H29.375L29.3508 194.228C29.3508 194.107 31.1636 196.016 31.4657 196.016H35.9251C35.9251 196.016 36.2272 194.808 33.6048 194.421C30.9823 194.035 28.8311 191.812 28.8311 191.812Z" fill="#212B53"/>
<path d="M33.5928 191.812C33.5928 191.812 32.7711 192.452 32.9282 193.274C33.0732 194.095 33.2907 196.016 33.2907 196.016H34.1367L34.1125 194.228C34.1125 194.107 35.9253 196.016 36.2274 196.016H40.6868C40.6868 196.016 40.9889 194.808 38.3664 194.421C35.744 194.035 33.5928 191.812 33.5928 191.812Z" fill="#12375A"/>
<defs>
<linearGradient id="paint0_linear" x1="99.7458" y1="136.06" x2="174.69" y2="87.0799" gradientUnits="userSpaceOnUse">
<stop stop-color="#C0E4EF"/>
<stop offset="0.3314" stop-color="#DFEFEB"/>
</linearGradient>
<linearGradient id="paint1_linear" x1="112.112" y1="86.6729" x2="177.644" y2="25.6986" gradientUnits="userSpaceOnUse">
<stop stop-color="#E0F0EB"/>
<stop offset="1" stop-color="#DFEFEB"/>
</linearGradient>
<linearGradient id="paint2_linear" x1="93.6423" y1="98.4864" x2="121.381" y2="13.4282" gradientUnits="userSpaceOnUse">
<stop stop-color="#C0E4EF"/>
<stop offset="0.3314" stop-color="#DFEFEB"/>
</linearGradient>
</defs>
</svg>
