<svg width="232" height="206" viewBox="0 0 232 206" fill="none" xmlns="http://www.w3.org/2000/svg">
<path d="M61.5143 39.3224L49.3619 38.5169L43.9779 39.8364L40.5146 42.1318L61.5143 39.3224Z" fill="url(#paint0_linear)"/>
<path d="M61.5143 39.3224L41.2745 43.1429L40.5146 42.1318" fill="#AFD8C7"/>
<path d="M42.2129 46.4928L42.252 46.5191L44.3289 48.9683L61.463 39.3465L42.2129 46.4928Z" fill="#63C0C4"/>
<path d="M37.989 46.4635L39.5865 43.1574L61.3763 39.3515L44.5111 46.657L37.989 46.4635Z" fill="url(#paint1_linear)"/>
<path d="M23.2477 97.1274C23.7436 96.6444 24.2081 96.1136 24.6335 95.5564C24.7342 95.4288 24.9118 95.408 25.036 95.5017C25.1637 95.6027 25.1847 95.7805 25.0913 95.9048C24.6509 96.4869 24.1679 97.0354 23.6535 97.5359C23.472 97.7194 23.2797 97.899 23.084 98.0713C23.0139 98.131 22.9193 98.1575 22.8329 98.1444C22.7753 98.1357 22.7147 98.1016 22.6726 98.0499C22.5634 97.9312 22.575 97.747 22.6933 97.6378C22.889 97.4656 23.0701 97.3002 23.2477 97.1274Z" fill="#63C0C4"/>
<path d="M40.8496 42.7255C41.7165 42.4439 42.6372 42.1818 43.6447 41.9146C43.7973 41.8787 43.9542 41.966 44.001 42.1228C44.0371 42.2757 43.9502 42.4327 43.7937 42.4793C42.7862 42.7465 41.8801 43.0018 41.0279 43.2765C40.9806 43.2898 40.9298 43.2957 40.8795 43.2836C40.7823 43.2666 40.6938 43.1919 40.6637 43.0899C40.613 42.9438 40.6965 42.7795 40.8496 42.7255Z" fill="#63C0C4"/>
<path d="M36.5669 44.9853C36.4805 44.9722 36.4061 44.9088 36.3576 44.8243C36.2888 44.6778 36.3508 44.5057 36.497 44.4371C37.3343 44.0353 38.2434 43.6535 39.1916 43.2979C39.3447 43.244 39.5128 43.3171 39.5669 43.4704C39.621 43.6238 39.5448 43.7847 39.3952 43.8459C38.4616 44.1946 37.5745 44.5662 36.7518 44.9611C36.6933 44.9886 36.6245 44.994 36.5669 44.9853Z" fill="#63C0C4"/>
<path d="M26.8258 91.5781C26.88 91.4275 27.0481 91.3486 27.2021 91.4105C27.3525 91.465 27.4316 91.6335 27.37 91.7876C27.0262 92.7087 26.5964 93.5987 26.0918 94.4433C26.0277 94.5538 25.9 94.6048 25.7887 94.5766C25.7599 94.5723 25.7276 94.5606 25.6993 94.5381C25.5638 94.4586 25.514 94.2764 25.6005 94.1375C26.0754 93.3247 26.4936 92.467 26.8258 91.5781Z" fill="#63C0C4"/>
<path d="M27.5467 90.3012C27.3923 90.2574 27.2948 90.1066 27.3348 89.9448C27.3951 89.693 27.4553 89.4412 27.5049 89.1856C27.6405 88.5052 27.7293 87.8199 27.7712 87.1298C27.7786 86.9744 27.9153 86.8476 28.0813 86.8591C28.2365 86.8668 28.3633 87.0039 28.3521 87.1701C28.3097 87.8783 28.2166 88.5924 28.0767 89.3017C28.0233 89.5681 27.9665 89.8272 27.8989 90.0823C27.8627 90.2334 27.7087 90.3235 27.5613 90.2944C27.5574 90.3051 27.5467 90.3012 27.5467 90.3012Z" fill="#63C0C4"/>
<path d="M28.0837 85.7049C28.0584 85.7079 28.0369 85.7001 28.0115 85.7031C27.8821 85.6744 27.7871 85.567 27.7794 85.4365C27.7362 84.5271 27.6174 83.6085 27.4212 82.6011C27.3925 82.4447 27.4901 82.2916 27.6535 82.2597C27.8096 82.2311 27.9626 82.3291 27.9948 82.4928C28.194 83.5257 28.3193 84.477 28.3655 85.4118C28.3654 85.5638 28.2428 85.7018 28.0837 85.7049Z" fill="#63C0C4"/>
<path d="M24.5106 60.0105C24.415 60.3771 24.3336 60.755 24.2595 61.1294C24.1484 61.6911 24.0515 62.2639 23.9873 62.8304C23.9653 62.9927 23.8217 63.1048 23.6669 63.0791C23.6596 63.0825 23.6488 63.0786 23.6454 63.0713C23.4979 63.0422 23.3965 62.902 23.4146 62.7505C23.4827 62.1733 23.5801 61.5823 23.695 61.0099C23.773 60.6247 23.8544 60.2469 23.9538 59.8695C23.9973 59.715 24.1336 59.6063 24.3094 59.6579C24.4603 59.6944 24.554 59.856 24.5106 60.0105Z" fill="#63C0C4"/>
<path d="M23.8522 64.5386C23.8111 65.4964 23.8349 66.4596 23.9279 67.3993C23.942 67.5625 23.8268 67.697 23.6672 67.7182C23.6419 67.7212 23.6131 67.7168 23.5843 67.7125C23.4656 67.6877 23.3633 67.5837 23.3556 67.4533C23.2669 66.4848 23.2401 65.4962 23.2782 64.5129C23.2822 64.3502 23.4224 64.2307 23.5776 64.2384C23.7294 64.2387 23.8562 64.3758 23.8522 64.5386Z" fill="#63C0C4"/>
<path d="M26.0667 55.7045C25.6592 56.5661 25.2943 57.4614 24.9944 58.362C24.944 58.5018 24.8047 58.5851 24.6645 58.5525C24.6538 58.5486 24.643 58.5447 24.6323 58.5408C24.4818 58.4863 24.3989 58.3285 24.4496 58.1706C24.7574 57.2485 25.13 56.3317 25.5452 55.4486C25.6102 55.3019 25.7852 55.2377 25.9352 55.3103C26.0779 55.3864 26.1316 55.5578 26.0667 55.7045Z" fill="#63C0C4"/>
<path d="M29.5045 50.4448C29.434 50.5225 29.3248 50.5559 29.2276 50.5389C29.1773 50.5268 29.1343 50.5112 29.0991 50.4741C28.9787 50.3697 28.965 50.1884 29.0691 50.068C29.7121 49.3283 30.4084 48.6262 31.1323 47.9826C31.2505 47.8735 31.4346 47.8855 31.5437 48.0041C31.6529 48.1227 31.6412 48.3069 31.523 48.4161C30.8069 49.0381 30.129 49.7226 29.5045 50.4448Z" fill="#63C0C4"/>
<path d="M26.0422 76.6778C25.9875 76.6945 25.9441 76.697 25.8938 76.6849C25.7966 76.6679 25.7081 76.5932 25.678 76.4911L25.5599 76.1443C25.2901 75.3413 25.0204 74.5382 24.7579 73.7317C24.7111 73.5749 24.798 73.418 24.9438 73.3674C25.1003 73.3208 25.2573 73.4081 25.3079 73.5541C25.5596 74.3567 25.8294 75.1598 26.1065 75.9594L26.2246 76.3062C26.2714 76.463 26.1879 76.6273 26.0422 76.6778Z" fill="#63C0C4"/>
<path d="M26.8592 54.1799C26.7951 54.2904 26.6709 54.3487 26.5522 54.324C26.5234 54.3196 26.4911 54.3079 26.4662 54.2928C26.3308 54.2133 26.2737 54.0345 26.3601 53.8956C26.8433 53.0432 27.3836 52.2176 27.9626 51.4364C28.0632 51.3087 28.2374 51.2806 28.3723 51.3782C28.4966 51.4719 28.5283 51.6536 28.4311 51.7886C27.8564 52.541 27.3346 53.349 26.8592 54.1799Z" fill="#63C0C4"/>
<path d="M26.4064 77.7764C26.5629 77.7298 26.7237 77.8063 26.7705 77.9631C27.1201 79.0505 27.3843 79.9366 27.6029 80.7637C27.639 80.9166 27.5521 81.0736 27.3955 81.1202C27.3482 81.1335 27.3121 81.1326 27.2653 81.1277C27.1573 81.1069 27.0688 81.0322 27.0426 80.9194C26.8309 80.1069 26.5702 79.2281 26.2239 78.148C26.1698 77.9947 26.2533 77.8304 26.4064 77.7764Z" fill="#63C0C4"/>
<path d="M21.3696 98.7147C21.4948 98.6202 21.6784 98.6503 21.7729 98.7757C21.8675 98.9012 21.8377 99.085 21.7126 99.1794C20.9694 99.7248 20.1584 100.239 19.2389 100.751C19.1766 100.789 19.1078 100.795 19.0394 100.782C18.9603 100.766 18.8855 100.72 18.8477 100.64C18.7717 100.497 18.8156 100.324 18.9584 100.248C19.8632 99.7433 20.645 99.2424 21.3696 98.7147Z" fill="#63C0C4"/>
<path d="M23.8203 68.862C23.9764 68.8335 24.1328 68.9388 24.1543 69.0986C24.314 69.9712 24.5196 70.8848 24.8061 71.8946C24.8529 72.0514 24.7587 72.2118 24.6061 72.2477C24.5588 72.261 24.5153 72.2635 24.4723 72.2479C24.3717 72.2236 24.2832 72.1489 24.2497 72.0395C23.9602 71.0043 23.7477 70.0761 23.5884 69.1854C23.5558 69.0398 23.6642 68.8906 23.8203 68.862Z" fill="#63C0C4"/>
<path d="M34.0615 45.7675C34.3513 45.5868 34.6446 45.4134 34.9413 45.2474C35.0841 45.1715 35.2565 45.2157 35.3325 45.3588C35.4086 45.5019 35.3647 45.6745 35.2253 45.7577C34.9359 45.9203 34.65 46.0903 34.3674 46.2675C33.8428 46.5942 33.3319 46.9501 32.8313 47.328C32.7651 47.3769 32.6778 47.4 32.5987 47.3835C32.5303 47.3709 32.4697 47.3368 32.4241 47.2777C32.3296 47.1522 32.352 46.9719 32.481 46.8666C32.9928 46.4745 33.5256 46.1083 34.0615 45.7675Z" fill="#63C0C4"/>
<path d="M168.33 50.5388C168.33 50.5388 143.265 114.07 132.104 131.753C153.776 143.212 169.125 148.342 169.125 148.342C169.125 148.342 210.87 74.5403 207.534 68.0748C201.498 63.4118 201.65 63.5046 168.33 50.5388Z" fill="#475B73"/>
<path d="M192.095 65.442C190.305 70.2564 193.157 76.6195 197.542 77.8513C200.524 87.5357 171.03 135.347 171.03 135.347L170.965 135.323C166.628 133.142 161.037 135.525 159.021 139.736L145.946 133.875C147.885 129.264 145.638 124.201 141.256 122.041C141.19 122.017 141.19 122.017 141.125 121.993L166.297 63.3747C166.536 63.5363 166.819 63.6772 167.103 63.818C171.44 65.9994 177.86 63.994 179.855 59.7384L192.232 65.269C192.143 65.3107 192.119 65.3763 192.095 65.442Z" fill="url(#paint2_linear)"/>
<path d="M178.43 84.831C179.008 83.535 178.427 82.0143 177.131 81.4343C175.836 80.8544 174.317 81.4349 173.739 82.7309C173.161 84.0269 173.743 85.5476 175.038 86.1276C176.333 86.7075 177.852 86.127 178.43 84.831Z" fill="#6680A1"/>
<path d="M181.63 77.6628C182.208 76.3668 181.627 74.846 180.331 74.2661C179.036 73.6862 177.517 74.2667 176.939 75.5627C176.361 76.8587 176.943 78.3794 178.238 78.9594C179.534 79.5393 181.052 78.9588 181.63 77.6628Z" fill="#6680A1"/>
<path d="M160.303 125.399C160.881 124.103 160.3 122.583 159.004 122.003C157.709 121.423 156.19 122.003 155.612 123.299C155.034 124.595 155.616 126.116 156.911 126.696C158.207 127.276 159.725 126.696 160.303 125.399Z" fill="#043C5E"/>
<path d="M163.402 118.399C163.98 117.103 163.399 115.582 162.103 115.003C160.808 114.423 159.289 115.003 158.711 116.299C158.134 117.595 158.715 119.116 160.011 119.696C161.306 120.276 162.825 119.695 163.402 118.399Z" fill="#01898C"/>
<path d="M138.462 18.3146C138.462 18.3146 124.531 85.1732 116.55 104.54C139.808 112.152 155.806 114.58 155.806 114.58C155.806 114.58 184.437 34.7178 180.066 28.9525C173.337 25.3755 173.534 25.4475 138.462 18.3146Z" fill="#475B73"/>
<path d="M164.443 28.9685C163.485 34.0501 167.414 39.8028 171.887 40.285C176.456 49.2851 155.482 101.477 155.482 101.477L155.417 101.453C150.772 100.015 145.664 103.318 144.391 107.838L130.479 104.276C131.585 99.3978 128.509 94.7755 123.885 93.3821C123.819 93.3581 123.819 93.3581 123.753 93.3341L138.613 31.2795C138.896 31.4203 139.203 31.4955 139.466 31.5915C144.111 33.0297 150.075 29.9275 151.348 25.4079L164.469 28.7924C164.49 28.8372 164.446 28.858 164.443 28.9685Z" fill="url(#paint3_linear)"/>
<path d="M154.206 50.3977C154.556 49.0222 153.725 47.6221 152.351 47.2704C150.976 46.9187 149.578 47.7486 149.228 49.1241C148.878 50.4996 149.709 51.8997 151.084 52.2514C152.458 52.6031 153.856 51.7732 154.206 50.3977Z" fill="#6680A1"/>
<path d="M156.128 42.8172C156.478 41.4417 155.647 40.0415 154.273 39.6898C152.898 39.3381 151.5 40.1681 151.15 41.5435C150.8 42.919 151.631 44.3192 153.006 44.6709C154.38 45.0226 155.778 44.1926 156.128 42.8172Z" fill="#6680A1"/>
<path d="M143.227 93.5047C143.577 92.1292 142.746 90.729 141.371 90.3773C139.997 90.0256 138.599 90.8556 138.249 92.231C137.899 93.6065 138.73 95.0067 140.104 95.3584C141.479 95.7101 142.877 94.8801 143.227 93.5047Z" fill="#043C5E"/>
<path d="M145.143 86.0344C145.493 84.659 144.662 83.2588 143.287 82.9071C141.913 82.5554 140.515 83.3853 140.165 84.7608C139.815 86.1363 140.646 87.5365 142.02 87.8882C143.395 88.2398 144.793 87.4099 145.143 86.0344Z" fill="#01898C"/>
<path d="M87.5384 34.574C87.5384 34.574 107.771 99.8253 110.158 120.64C134.196 115.999 149.333 110.374 149.333 110.374C149.333 110.374 135.643 26.6431 129.03 23.6665C121.424 23.8242 121.624 23.7857 87.5384 34.574Z" fill="#475B73"/>
<path d="M115.383 31.3257C117.015 36.2383 123.205 39.3575 127.407 37.6203C135.759 43.2787 142.662 99.0794 142.662 99.0794C142.617 99.1002 142.617 99.1002 142.572 99.121C137.815 100.135 134.971 105.494 136.061 110.059L122.217 113.665C120.847 108.848 115.901 106.296 111.165 107.354C111.12 107.375 111.075 107.396 111.031 107.417L93.9441 45.8829C94.2544 45.8475 94.5648 45.8122 94.8542 45.7321C99.6111 44.7185 103.344 39.1636 102.234 34.5535L115.344 31.1255C115.365 31.1704 115.341 31.236 115.383 31.3257Z" fill="url(#paint4_linear)"/>
<path d="M116.842 55.0594C116.481 53.686 115.076 52.8642 113.705 53.2238C112.333 53.5835 111.513 54.9884 111.874 56.3618C112.235 57.7352 113.639 58.557 115.011 58.1973C116.383 57.8376 117.202 56.4328 116.842 55.0594Z" fill="#6680A1"/>
<path d="M114.858 47.4787C114.497 46.1053 113.093 45.2835 111.721 45.6431C110.349 46.0028 109.53 47.4077 109.891 48.7811C110.251 50.1545 111.656 50.9763 113.028 50.6166C114.4 50.257 115.219 48.852 114.858 47.4787Z" fill="#6680A1"/>
<path d="M128.14 98.0681C127.78 96.6947 126.375 95.873 125.003 96.2326C123.632 96.5923 122.812 97.9972 123.173 99.3706C123.534 100.744 124.938 101.566 126.31 101.206C127.682 100.846 128.501 99.4415 128.14 98.0681Z" fill="#043C5E"/>
<path d="M126.181 90.6212C125.821 89.2479 124.416 88.4261 123.044 88.7857C121.673 89.1454 120.853 90.5503 121.214 91.9237C121.575 93.297 122.979 94.1188 124.351 93.7592C125.723 93.3995 126.542 91.9946 126.181 90.6212Z" fill="#01898C"/>
<path d="M153.251 99.2279C154.587 99.2279 155.67 98.143 155.67 96.8048C155.67 95.4667 154.587 94.3818 153.251 94.3818C151.914 94.3818 150.831 95.4667 150.831 96.8048C150.831 98.143 151.914 99.2279 153.251 99.2279Z" fill="white"/>
<path d="M89.156 125.238L103.13 123.31L89.3041 120.639L87.3783 106.645L84.7118 120.491L70.7373 122.42L84.5637 125.09L86.4895 139.084L89.156 125.238Z" fill="white"/>
<path d="M138.827 77.1326L130.636 76.4208C130.636 76.4208 130.992 70.7266 126.719 66.4559C123.514 63.2529 118.528 61.8294 111.761 61.8294C104.283 61.8294 98.9406 63.6088 95.7354 66.4559C92.5302 69.6589 92.8863 73.2178 92.8863 73.2178L84.6954 73.5737C84.6954 72.8619 84.3392 66.4559 89.6812 61.1176C94.3109 56.1352 101.79 53.9999 111.761 53.9999C121.021 53.9999 127.787 56.4911 132.773 61.4735C139.539 68.2354 138.827 76.7767 138.827 77.1326Z" fill="#212B53"/>
<path d="M173.016 86.7417H53V163.969H173.016V86.7417Z" fill="#212B53"/>
<path d="M117.46 138.701C117.46 143.328 115.323 144.04 112.474 144.04C109.625 144.04 107.488 143.328 107.488 138.701V122.33C72.9433 118.772 53 112.721 53 112.721V114.857V173.578C53 178.917 55.1368 183.543 58.342 183.543H168.03C171.235 183.543 173.372 179.272 173.372 173.578V112.721C148.443 118.416 146.662 118.772 117.816 121.975V138.701H117.46Z" fill="#FF8889"/>
<path d="M149.155 118.059C143.457 129.092 137.759 139.768 130.637 149.377C121.733 161.477 112.118 172.51 101.79 183.187H168.03C171.235 183.187 173.372 178.916 173.372 173.222V112.365C161.976 115.212 155.566 116.992 149.155 118.059Z" fill="#F04637"/>
<path d="M168.03 70.0148H58.342C55.1368 70.0148 53 74.2854 53 79.9796V109.518C72.231 115.924 90.7498 118.415 107.488 118.771V114.857C107.488 110.23 109.625 109.518 112.474 109.518C115.323 109.518 117.46 110.23 117.46 114.857V118.771C150.224 118.06 173.016 109.518 173.016 109.518V79.9796C173.372 74.2854 171.235 70.0148 168.03 70.0148Z" fill="#6680A1"/>
<path d="M117.105 133.719H108.558C107.489 133.719 106.421 132.651 106.421 131.584V126.601C106.421 125.533 107.489 124.466 108.558 124.466H117.105C118.173 124.466 119.242 125.533 119.242 126.601V131.584C119.242 132.651 118.173 133.719 117.105 133.719ZM108.202 124.822C107.489 124.822 106.777 125.533 106.777 126.245V131.228C106.777 131.939 107.489 132.651 108.202 132.651H116.749C117.461 132.651 118.173 131.939 118.173 131.228V126.245C118.173 125.533 117.461 124.822 116.749 124.822H108.202Z" fill="white"/>
<path d="M113.186 128.381C113.186 128.737 112.83 128.737 112.474 128.737C112.118 128.737 111.762 128.381 111.762 128.381V121.263C111.762 120.907 112.118 120.907 112.474 120.907C112.83 120.907 113.186 121.263 113.186 121.263V128.381Z" fill="white"/>
<path d="M170.287 156.65L172.262 157.639C172.459 157.738 172.558 157.886 172.558 158.084L172.607 158.529C172.607 158.677 172.558 158.826 172.459 158.924L171.027 160.606C170.879 160.804 170.583 160.853 170.336 160.754L170.089 160.606C169.941 160.556 169.842 160.408 169.793 160.309L168.854 157.688L170.287 156.65Z" fill="#F8B68F"/>
<path d="M189.841 200.214L169.102 161.644C168.608 160.754 168.904 159.666 169.694 159.073L170.83 158.232C171.274 157.886 171.867 157.787 172.46 157.886C173.003 158.034 173.497 158.38 173.793 158.875L195.026 198.533L194.779 198.681L173.546 159.023C173.299 158.578 172.904 158.282 172.41 158.183C171.916 158.084 171.423 158.183 171.028 158.479L169.892 159.32C169.201 159.814 169.003 160.754 169.398 161.496L190.138 200.066L189.841 200.214Z" fill="#63C1C5"/>
<path d="M166.879 150.122L170.533 156.402L168.706 157.935L165.2 154.029L166.879 150.122Z" fill="#475B73"/>
<path d="M152.214 134.497L153.745 137.562L156.214 135.387L154.09 131.777L152.214 134.497Z" fill="#F4A086"/>
<path d="M151.275 135.09C150.88 135.189 150.485 135.238 150.238 135.139C148.559 133.804 148.51 128.81 148.51 128.81L150.139 127.475L152.954 128.217L154.04 131.233C154.337 132.024 154.188 132.964 153.645 133.656C152.954 134.348 152.164 134.843 151.275 135.09Z" fill="#F8B68F"/>
<path d="M152.51 129.354C152.214 128.859 151.621 128.711 151.127 128.958C150.782 129.156 150.337 129.354 149.893 129.453C148.856 129.749 147.424 129.749 146.93 128.167C146.436 126.585 148.559 126.535 148.559 126.535C148.559 126.535 152.757 125.942 154.683 126.634C155.621 126.98 154.88 129.107 154.683 130.145C154.584 130.738 154.337 131.332 154.041 131.826L152.51 129.354Z" fill="#212B53"/>
<path d="M154.14 129.898C153.843 129.75 153.399 129.947 153.201 130.293C152.955 130.64 153.053 131.035 153.35 131.184C153.646 131.332 154.09 131.134 154.288 130.788C154.535 130.442 154.436 130.046 154.14 129.898Z" fill="#F8B68F"/>
<path d="M154.436 135.288C146.436 139.54 152.214 158.924 152.214 158.924L167.719 157.144C167.768 157.144 166.583 132.37 154.436 135.288Z" fill="#6680A1"/>
<path d="M163.324 142.804C163.324 142.804 161.349 155.76 158.09 156.254C154.831 156.749 145.054 145.573 145.054 145.573L146.881 144.09C146.881 144.09 152.214 147.65 154.436 149.134C155.177 145.277 156.263 139.936 156.263 139.936L163.324 142.804Z" fill="#6680A1"/>
<path d="M146.684 144.238L154.535 149.381L154.584 149.183C155.128 146.315 155.868 142.606 156.214 140.876C156.115 140.826 156.066 140.777 155.967 140.727C156.066 140.777 156.115 140.826 156.214 140.876C156.214 140.876 156.214 140.876 156.214 140.826C156.115 140.777 156.016 140.727 155.967 140.678C155.671 142.26 154.93 145.969 154.337 148.886L146.881 144.09L146.684 144.238Z" fill="#212B53"/>
<path d="M162.781 144.881C162.041 148.54 160.362 155.71 158.041 156.056C155.819 156.403 150.436 150.914 147.375 147.699C147.276 147.848 147.276 147.798 147.227 147.947C150.239 151.111 155.374 156.402 157.843 156.402C157.942 156.402 157.991 156.402 158.09 156.402C160.609 156.007 162.337 148.738 163.077 144.98C162.979 144.93 162.88 144.93 162.781 144.881Z" fill="#212B53"/>
<path d="M171.67 200.313C171.67 200.313 171.67 202.291 167.67 203.527C166.83 203.775 167.127 204.022 166.979 204.368C168.312 204.368 171.571 204.368 171.571 204.368L173.398 202.341L173.941 202.835L175.225 201.549C175.225 201.549 174.632 199.72 173.645 199.67C172.805 199.918 171.67 200.313 171.67 200.313Z" fill="#043C5E"/>
<path d="M170.929 198.583L171.669 200.313C172.361 200.511 173.101 200.264 173.546 199.72L173.645 199.621L173.052 197.841L170.929 198.583Z" fill="#F8B68F"/>
<path d="M167.621 158.924C167.621 158.924 167.522 164.512 165.547 172.127C164.757 175.292 165.3 178.655 167.176 181.275C171.768 187.803 173.201 198.335 173.201 198.335L170.929 198.879L156.214 178.407L167.621 158.924Z" fill="#212B53"/>
<path d="M152.757 135.584L155.473 134.101L156.609 135.04L152.658 136.672L152.757 135.584Z" fill="white"/>
<path d="M152.806 201.401C152.806 201.401 151.522 202.588 148.609 203.33C147.967 203.478 147.275 203.28 147.275 204.319C148.658 204.319 150.831 204.319 150.831 204.319L153.794 203.824V204.319H155.374C155.374 204.319 155.818 201.698 154.88 201.352C153.991 201.401 152.806 201.401 152.806 201.401Z" fill="#043C5E"/>
<path d="M153.102 199.522L152.806 201.401C153.398 201.797 154.139 201.846 154.781 201.451L154.88 201.401L155.324 199.522H153.102Z" fill="#F8B68F"/>
<path d="M167.768 157.144C167.768 157.144 167.768 165.6 161.003 175.391C159.818 177.122 159.126 179.248 159.126 181.374C159.028 190.671 155.324 199.671 155.324 199.671H153.102L152.263 158.924L167.768 157.144Z" fill="#043C5E"/>
<path d="M141.33 137.444L140.853 137.796L145.335 143.887L145.812 143.535L141.33 137.444Z" fill="white"/>
<path d="M145.252 145.375L144.066 144.634C143.128 143.793 142.486 142.606 142.338 141.321L142.141 139.491C142.536 139.639 142.832 140.233 143.079 140.628L144.708 142.705L146.684 144.189L145.252 145.375Z" fill="#F8B68F"/>
<path d="M144.658 143.595C144.855 143.348 145.991 144.337 145.991 143.892C145.991 143.892 145.497 142.013 145.053 141.568C144.559 141.123 144.213 139.936 144.213 139.936C144.213 139.936 143.769 139.985 143.868 140.678C143.917 141.024 144.213 141.469 144.312 141.963C144.411 142.458 144.312 143.051 144.658 143.595Z" fill="#F8B68F"/>
<path d="M208.507 194.627H200.606V198.682H208.507V194.627Z" fill="#D8E5ED"/>
<path d="M202.434 194.627H194.829V198.682H202.434V194.627Z" fill="#ACC1D6"/>
<path d="M208.803 198.978H184.805V194.33H208.803V198.978ZM185.397 198.385H208.211V194.923H185.397V198.385Z" fill="#6680A1"/>
<path d="M211.173 190.572H203.272V194.627H211.173V190.572Z" fill="#D8E5ED"/>
<path d="M205.1 190.572H197.495V194.627H205.1V190.572Z" fill="#ACC1D6"/>
<path d="M211.469 194.923H187.471V190.275H211.469V194.923ZM188.063 194.33H210.877V190.869H188.063V194.33Z" fill="#6680A1"/>
<path d="M205.05 186.517H197.149V190.572H205.05V186.517Z" fill="#D8E5ED"/>
<path d="M198.977 186.517H191.372V190.572H198.977V186.517Z" fill="#ACC1D6"/>
<path d="M205.346 190.869H181.348V186.22H205.346V190.869ZM181.94 190.275H204.754V186.814H181.94V190.275Z" fill="#6680A1"/>
<path d="M206.877 182.462H198.977V186.517H206.877V182.462Z" fill="#D8E5ED"/>
<path d="M200.804 182.462H193.199V186.517H200.804V182.462Z" fill="#ACC1D6"/>
<path d="M207.173 186.814H183.175V182.166H207.173V186.814ZM183.767 186.22H206.581V182.759H183.767V186.22Z" fill="#6680A1"/>
<path d="M210.333 178.457H202.433V182.512H210.333V178.457Z" fill="#D8E5ED"/>
<path d="M204.26 178.457H196.655V182.512H204.26V178.457Z" fill="#ACC1D6"/>
<path d="M210.629 182.759H186.631V178.111H210.629V182.759ZM187.223 182.166H210.037V178.704H187.223V182.166Z" fill="#6680A1"/>
<path d="M184.606 201.401H208.21C208.605 201.401 208.901 201.104 208.901 200.709V199.572C208.901 199.176 208.605 198.879 208.21 198.879H184.606C184.211 198.879 183.915 199.176 183.915 199.572V200.709C183.915 201.104 184.211 201.401 184.606 201.401Z" fill="#F04637"/>
<path d="M188.458 206C190.067 206 191.372 204.694 191.372 203.082C191.372 201.471 190.067 200.165 188.458 200.165C186.849 200.165 185.545 201.471 185.545 203.082C185.545 204.694 186.849 206 188.458 206Z" fill="#043C5E"/>
<path d="M188.458 204.566C189.276 204.566 189.939 203.902 189.939 203.082C189.939 202.263 189.276 201.599 188.458 201.599C187.64 201.599 186.977 202.263 186.977 203.082C186.977 203.902 187.64 204.566 188.458 204.566Z" fill="white"/>
<path d="M204.457 206C206.066 206 207.371 204.694 207.371 203.082C207.371 201.471 206.066 200.165 204.457 200.165C202.848 200.165 201.544 201.471 201.544 203.082C201.544 204.694 202.848 206 204.457 206Z" fill="#043C5E"/>
<path d="M204.457 204.566C205.275 204.566 205.938 203.902 205.938 203.082C205.938 202.263 205.275 201.599 204.457 201.599C203.639 201.599 202.976 202.263 202.976 203.082C202.976 203.902 203.639 204.566 204.457 204.566Z" fill="white"/>
<path d="M168.954 157.688L169.102 159.666C169.152 160.012 169.448 160.26 169.794 160.111L170.584 159.864C170.781 159.814 171.028 158.578 171.028 158.578C171.028 158.578 170.238 158.183 170.09 159.271C169.942 159.221 169.645 159.271 169.645 159.271C169.645 159.271 170.436 158.183 169.794 156.848L168.954 157.688Z" fill="#F4A086"/>
<path d="M177.051 175.836C176.952 175.836 176.854 175.885 176.755 175.885L189.841 200.264L190.087 200.115L177.051 175.836Z" fill="#63C1C5"/>
<path d="M189.841 200.214C189.495 199.077 188.606 198.236 188.063 197.099C184.656 189.978 180.36 183.154 176.903 176.133" fill="#63C1C5"/>
<path d="M194.828 198.681V194.627H185.101V198.681H194.828Z" fill="#6680A1"/>
<path d="M197.494 194.627V190.572H187.767V194.627H197.494Z" fill="#6680A1"/>
<path d="M191.372 186.517H181.645V190.572H191.372V186.517Z" fill="#6680A1"/>
<path d="M193.199 186.517V182.462H183.471V186.517H193.199Z" fill="#6680A1"/>
<path d="M196.656 178.457H186.928V182.462H196.656" fill="#6680A1"/>
<path d="M57.5175 202.203C57.5175 202.203 58.9001 203.489 61.9617 204.28C62.653 204.478 63.3937 204.231 63.3937 205.368C61.9617 205.368 59.6408 205.368 59.6408 205.368L56.5299 204.824V205.368H54.851C54.851 205.368 54.3572 202.599 55.3448 202.253C56.2336 202.203 57.5175 202.203 57.5175 202.203Z" fill="#212B53"/>
<path d="M57.3198 200.225L57.5173 202.203C56.8754 202.648 56.0853 202.648 55.4434 202.253L55.3446 202.203L54.6533 200.225H57.3198Z" fill="#F8B68F"/>
<path d="M48.0864 202.203C48.0864 202.203 49.469 203.489 52.5306 204.28C53.2219 204.478 53.9626 204.231 53.9626 205.368C52.5306 205.368 50.2097 205.368 50.2097 205.368L47.0988 204.824V205.368H45.3705C45.3705 205.368 44.8767 202.599 45.8643 202.253C46.8025 202.203 48.0864 202.203 48.0864 202.203Z" fill="#212B53"/>
<path d="M47.8892 200.225L48.0867 202.203C47.4447 202.648 46.6547 202.648 46.0127 202.253L45.914 202.203L45.2227 200.225H47.8892Z" fill="#F8B68F"/>
<path d="M51.2955 134.804L50.7523 138.068L47.8389 136.733L48.8265 132.876L51.2955 134.804Z" fill="#F4A086"/>
<path d="M52.3319 135.101C52.727 135.101 53.122 135.052 53.3195 134.854C54.5047 133.173 53.1714 128.574 53.1714 128.574L51.295 127.832L48.9247 129.316L48.7766 132.381C48.7272 133.222 49.1223 133.964 49.8136 134.508C50.6037 134.903 51.4431 135.101 52.3319 135.101Z" fill="#F8B68F"/>
<path d="M49.5671 130.156C49.7152 129.662 50.209 129.316 50.7028 129.414C51.0979 129.464 51.5423 129.513 51.9867 129.513C53.0237 129.513 54.357 129.118 54.357 127.486C54.357 125.854 52.3818 126.447 52.3818 126.447C52.3818 126.447 48.3326 127.041 46.8018 128.228C46.0611 128.772 47.2956 130.552 47.7401 131.442C47.987 131.936 48.382 132.431 48.777 132.826L49.5671 130.156Z" fill="#212B53"/>
<path d="M48.2334 131.145C48.4803 130.947 48.9247 130.997 49.221 131.244C49.5173 131.491 49.5667 131.887 49.3692 132.085C49.1223 132.282 48.6778 132.233 48.3816 131.986C48.0359 131.739 47.9865 131.343 48.2334 131.145Z" fill="#F8B68F"/>
<path d="M50.7526 138.068C50.7526 138.068 55.0981 145.238 57.7152 161.853C52.4809 163.485 44.4814 165.265 44.4814 165.265C44.4814 165.265 39.7409 147.266 47.8392 136.733C49.5675 136.733 50.7526 138.068 50.7526 138.068Z" fill="#6680A1"/>
<path d="M57.7153 161.804C57.7153 161.804 61.3694 174.067 61.3694 179.605C61.3694 185.144 57.7153 200.769 57.7153 200.769H54.3575C54.3575 200.769 53.5674 189.841 54.555 183.71C54.8513 181.88 54.7031 180.05 54.2093 178.32C52.4317 172.138 50.5059 163.831 50.5059 163.831L57.7153 161.804Z" fill="#212B53"/>
<path d="M55.1972 162.793C55.1972 162.793 56.1354 176.094 54.6046 180.891C53.0739 185.688 48.0371 200.819 48.0371 200.819H45.0743C45.0743 200.819 44.3336 192.61 46.7039 183.858C47.2964 181.732 47.1977 179.506 46.5064 177.43C44.1855 170.655 44.4324 165.265 44.4324 165.265L55.1972 162.793Z" fill="#043C5E"/>
<path d="M65.7639 146.178C74.3066 149.441 73.4178 151.765 74.3066 154.732C75.1461 157.699 75.4918 163.089 65.7639 164.029C56.0855 164.968 56.5793 159.232 54.3572 154.732C52.1351 150.232 59.0483 146.178 59.0483 146.178C59.0483 146.178 62.8505 147.612 65.7639 146.178Z" fill="#ACC1D6"/>
<path d="M62.6042 163.683C62.7524 163.782 63.2955 164.029 64.4807 163.979C65.567 163.93 67.7891 163.188 67.4928 164.276C66.5546 164.968 65.5176 165.858 65.5176 165.858C64.9251 166.205 63.6906 166.106 62.9993 165.858L60.8759 164.919C60.8759 164.919 60.5797 163.831 60.5303 163.782L60.9747 163.534C61.4191 163.633 62.0117 163.683 62.6042 163.683Z" fill="#F8B68F"/>
<path d="M62.9996 164.078C62.9996 164.078 63.049 164.128 63.1477 164.177C62.9996 164.276 62.9008 164.325 62.7527 164.424C62.2095 164.523 61.6664 164.622 61.0738 164.721C61.0738 164.375 61.0738 163.93 61.0244 163.88L64.5304 162.545C64.5304 162.545 64.876 162.891 64.2835 163.386C63.6909 163.93 62.9996 164.078 62.9996 164.078Z" fill="#F8B68F"/>
<path d="M51.2958 143.804L52.2834 151.765C52.4809 153.298 53.1228 154.732 54.2092 155.87L61.3693 163.485L60.6779 165.265C60.6779 165.265 49.8638 160.172 47.8886 157.155C45.9134 154.139 44.9258 144.941 44.9258 144.941L51.2958 143.804Z" fill="#6680A1"/>
<path d="M45.4195 148.007C45.8639 150.974 46.7527 155.227 47.9378 157.106C49.7649 159.875 59.2458 164.523 60.5297 165.117L61.1716 163.584L54.0609 156.018C52.9746 154.881 52.2832 153.397 52.0857 151.815L51.6413 148.255C51.7401 148.205 51.8388 148.156 51.8882 148.106L52.3326 151.815C52.5301 153.348 53.1721 154.732 54.2091 155.87L61.3691 163.485L61.4185 163.534L60.6284 165.562L60.4803 165.512C60.0359 165.314 49.6167 160.37 47.6415 157.353C46.3577 155.375 45.4688 150.925 45.0244 147.958C45.2219 147.859 45.3207 147.908 45.4195 148.007Z" fill="#359E95"/>
<path d="M65.7643 146.178C65.4186 145.683 65.468 144.991 65.9124 144.595L66.9988 143.409C66.9988 143.409 65.1717 140.837 62.4065 142.716C60.2831 144.15 58.3573 143.161 57.5179 142.667C57.4191 142.617 57.271 142.716 57.3204 142.815C57.666 143.606 58.1598 144.299 58.703 144.941C59.0486 145.337 59.2955 145.832 59.0486 146.227L62.4065 147.414L65.7643 146.178Z" fill="#ACC1D6"/>
<path d="M66.1098 146.326C66.1098 146.326 64.8753 147.81 62.1594 147.81C59.3941 147.81 58.5547 146.524 58.5547 146.524L59.1472 145.782C59.1472 145.782 59.8386 146.821 62.1594 146.919C64.0358 147.018 65.616 145.782 65.616 145.782L66.1098 146.326Z" fill="#475B73"/>
<path d="M50.9004 137.03L48.0858 135.447L47.8389 136.733L50.9004 138.365V137.03Z" fill="white"/>
<defs>
<linearGradient id="paint0_linear" x1="41.741" y1="44.7416" x2="60.0269" y2="36.1616" gradientUnits="userSpaceOnUse">
<stop offset="6.3e-07" stop-color="#F1F8F7"/>
<stop offset="1" stop-color="#BFE3EE"/>
</linearGradient>
<linearGradient id="paint1_linear" x1="38.2414" y1="46.9947" x2="60.1446" y2="36.7174" gradientUnits="userSpaceOnUse">
<stop offset="6.3e-07" stop-color="#F1F8F7"/>
<stop offset="1" stop-color="#BFE3EE"/>
</linearGradient>
<linearGradient id="paint2_linear" x1="153.633" y1="137.336" x2="186.958" y2="62.9117" gradientUnits="userSpaceOnUse">
<stop stop-color="#D5E1ED"/>
<stop offset="1" stop-color="#D5E1ED"/>
</linearGradient>
<linearGradient id="paint3_linear" x1="138.704" y1="106.36" x2="158.922" y2="27.3422" gradientUnits="userSpaceOnUse">
<stop stop-color="#DFEFEB"/>
<stop offset="1" stop-color="#D5E1ED"/>
</linearGradient>
<linearGradient id="paint4_linear" x1="130.412" y1="111.524" x2="109.716" y2="32.5871" gradientUnits="userSpaceOnUse">
<stop stop-color="#E0F0EB"/>
<stop offset="1" stop-color="#D5E1ED"/>
</linearGradient>
</defs>
</svg>
