<svg xmlns="http://www.w3.org/2000/svg" width="106" height="21" viewBox="0 0 106 21"><g><g><g><path fill="#3963ff" d="M29.482 5.853h1.277V19.09h-1.42L18.442 7.274V19.09h-1.277V5.853h1.448l10.87 11.835z"/></g><g><path fill="#3963ff" d="M30.379 19.988l-.003-.003h-1.428l-9.61-10.417v10.417h-3.07V4.957h2.737l9.58 10.428V4.957h3.07v15.028z"/></g><g><path fill="#3963ff" d="M41.782 18.21c-3.121 0-5.676-2.3-5.676-5.792 0-3.433 2.555-5.704 5.676-5.704 3.094 0 5.677 2.27 5.677 5.704 0 3.492-2.587 5.791-5.677 5.791zm0 1.22c3.775 0 6.926-2.782 6.926-7.012 0-4.2-3.151-6.925-6.926-6.925-3.803 0-6.925 2.726-6.925 6.925 0 4.23 3.122 7.012 6.925 7.012z"/></g><g><path fill="#3963ff" d="M46.564 12.418c0 2.836-2.01 4.894-4.782 4.894-2.772 0-4.782-2.058-4.782-4.894 0-2.785 2.012-4.808 4.782-4.808s4.78 2.023 4.782 4.808zm-4.782 7.908c4.46 0 7.823-3.4 7.823-7.912 0-2.231-.826-4.251-2.324-5.686-1.435-1.377-3.38-2.136-5.5-2.136-2.118 0-4.074.759-5.509 2.137-1.49 1.432-2.312 3.432-2.312 5.685 0 2.252.819 4.288 2.307 5.738 1.438 1.402 3.398 2.174 5.515 2.174z"/></g><g><path fill="#3963ff" d="M62.417 5.834h1.362l-5.647 13.255h-1.425L51.088 5.834h1.363l4.938 11.835z"/></g><g><path fill="#3963ff" d="M58.723 19.985H56.12l-6.38-15.048h3.312l4.35 10.42 4.422-10.42h3.313z"/></g><g><path fill="#3963ff" d="M67.413 11.883c.281-3.236 2.47-5.166 5.421-5.166 2.923 0 5.052 2.016 5.25 5.166zm11.92.535c0-4.175-2.725-6.925-6.499-6.925-3.714 0-6.694 2.753-6.694 6.925 0 4.201 2.975 7.012 6.694 7.012 2.44 0 4.623-1.221 5.818-3.265l-1.106-.54c-.965 1.59-2.697 2.584-4.684 2.584-3.008 0-5.194-2.044-5.449-5.25h11.921z"/></g><g><path fill="#3963ff" d="M72.834 7.61c2.166 0 3.742 1.295 4.22 3.373h-8.587c.53-2.104 2.135-3.373 4.367-3.373zm0 12.716c2.774 0 5.239-1.387 6.593-3.714l.487-.837-2.712-1.315-.423.698c-.817 1.348-2.282 2.152-3.917 2.152-2.232 0-3.88-1.328-4.402-3.457h11.772v-1.435c0-4.604-3.043-7.821-7.397-7.821-2.076 0-3.985.767-5.379 2.161-1.425 1.435-2.217 3.43-2.217 5.66s.792 4.262 2.216 5.71c1.394 1.418 3.305 2.198 5.38 2.198z"/></g><g><path fill="#3963ff" d="M88.729 5.834V6.94h-3.212v12.148h-1.244V6.94h-2.412V5.834h2.412V.9a1.247 1.247 0 0 1 1.244 1.244v3.69z"/></g><g><path fill="#3963ff" d="M86.418 19.985h-3.041V7.834h-2.413V4.937h2.413V0h.896a2.152 2.152 0 0 1 2.145 2.145v2.793h3.207v2.897h-3.207z"/></g><g><path fill="#3963ff" d="M97.87 18.21c-3.123 0-5.678-2.3-5.678-5.792 0-3.433 2.555-5.704 5.677-5.704 3.093 0 5.676 2.27 5.676 5.704 0 3.492-2.583 5.791-5.676 5.791zm0 1.22c3.773 0 6.924-2.782 6.924-7.012 0-4.2-3.15-6.925-6.925-6.925-3.804 0-6.926 2.726-6.926 6.925 0 4.23 3.122 7.012 6.926 7.012z"/></g><g><path fill="#3963ff" d="M102.65 12.418c0 2.836-2.01 4.894-4.781 4.894s-4.782-2.058-4.782-4.894c0-2.785 2.012-4.808 4.782-4.808s4.78 2.023 4.782 4.808zm-4.781 7.908c4.459 0 7.822-3.4 7.823-7.912 0-2.231-.826-4.251-2.324-5.686-1.434-1.377-3.38-2.136-5.499-2.136-2.118 0-4.076.759-5.51 2.137-1.492 1.432-2.313 3.432-2.313 5.685 0 2.252.82 4.288 2.307 5.738 1.44 1.402 3.398 2.174 5.516 2.174z"/></g><g><path fill="#3963ff" d="M1.434 16.813a1.435 1.435 0 0 1-1.435-1.435V10.21a1.435 1.435 0 0 1 2.87 0v5.168c0 .792-.643 1.435-1.435 1.435z"/></g><g><path fill="#3963ff" d="M6.746 18.705a1.435 1.435 0 0 1-1.434-1.434V8.202a1.435 1.435 0 0 1 2.869 0v9.069c0 .792-.643 1.434-1.435 1.434z"/></g><g><path fill="#3963ff" d="M12.059 20.219a1.435 1.435 0 0 1-1.435-1.435V6.31a1.435 1.435 0 0 1 2.87 0v12.474c0 .792-.643 1.435-1.435 1.435z"/></g></g></g></svg>