<?xml version="1.0" encoding="utf-8"?>
<!-- Generator: Adobe Illustrator 21.1.0, SVG Export Plug-In . SVG Version: 6.00 Build 0)  -->
<svg version="1.1" id="Layer_1" xmlns="http://www.w3.org/2000/svg" xmlns:xlink="http://www.w3.org/1999/xlink" x="0px" y="0px"
	 viewBox="0 0 80 80" style="enable-background:new 0 0 80 80;" xml:space="preserve">
<style type="text/css">
	.st0{fill:#FFFFFF;}
	.st1{fill:url(#SVGID_1_);}
	.st2{fill:#FFFFFF;stroke:#FFFFFF;stroke-width:0.3;stroke-miterlimit:10;}
</style>
<g>
	<path class="st0" d="M40,43.2c-0.1,0.2-0.2,0.3-0.2,0.4c-2.4,2.4-4.8,4.8-7.2,7.2c-0.7,0.7-1.6,0.9-2.5,0.5
		c-0.9-0.4-1.5-1.3-1.5-2.3c0-0.6,0.3-1.1,0.7-1.5c2.4-2.4,4.8-4.8,7.2-7.2c0.1-0.1,0.2-0.1,0.3-0.2c0,0,0-0.1,0-0.1
		c-0.1-0.1-0.2-0.1-0.3-0.2c-2.4-2.4-4.8-4.8-7.2-7.3c-0.9-0.9-1-2.2-0.3-3.1c0.8-1.1,2.5-1.2,3.5-0.2c1.2,1.2,2.3,2.3,3.5,3.5
		c1.3,1.3,2.7,2.7,4,4c0.1-0.1,0.2-0.2,0.3-0.3c2.4-2.4,4.8-4.8,7.3-7.3c0.7-0.7,1.6-0.9,2.5-0.5c0.9,0.4,1.5,1.3,1.5,2.3
		c0,0.6-0.3,1-0.7,1.5c-2.4,2.4-4.9,4.9-7.3,7.3c-0.1,0.1-0.1,0.2-0.3,0.3c0.2,0.1,0.3,0.3,0.4,0.4c2.4,2.4,4.7,4.7,7.1,7.1
		c1,1,0.9,2.2,0,3.2c-0.9,0.9-2.3,1-3.2,0c-2.4-2.4-4.8-4.8-7.2-7.2C40.2,43.5,40.1,43.4,40,43.2z"/>
</g>
<linearGradient id="SVGID_1_" gradientUnits="userSpaceOnUse" x1="0" y1="40" x2="80" y2="40">
	<stop  offset="0" style="stop-color:#713A76"/>
	<stop  offset="1" style="stop-color:#AA769D"/>
</linearGradient>
<rect class="st1" width="80" height="80"/>
<g>
	<path class="st2" d="M21.6,23.9c0-1.4,0-2.8,0-4.1c0-0.8,0.2-1,1.1-1c9.5,0,18.9,0,28.4,0c0.8,0,1,0.2,1,1.1c0,11.8,0,23.5,0,35.3
		c0,0.8-0.2,1.1-1,1.1c-1.3,0-2.7,0-4.1,0c0,1.1,0,2.2,0,3.3c0,0.3,0,0.6,0,0.9c0,0.7-0.2,0.9-1,0.9c-2.3,0-4.6,0-6.9,0
		c-7.2,0-14.3,0-21.5,0c-1,0-1.2-0.2-1.2-1.2c0-11.7,0-23.4,0-35.1c0-1,0.2-1.2,1.2-1.2C19,23.9,20.3,23.9,21.6,23.9z M50.6,20.2
		c-9.2,0-18.4,0-27.5,0c0,11.5,0,22.9,0,34.4c9.2,0,18.3,0,27.5,0C50.6,43.1,50.6,31.7,50.6,20.2z M45.5,56.2c-0.3,0-0.5,0-0.7,0
		c-7.4,0-14.7,0-22.1,0c-0.9,0-1.1-0.2-1.1-1.1c0-9.6,0-19.3,0-28.9c0-0.2,0-0.5,0-0.7c-1.3,0-2.5,0-3.6,0c0,11.5,0,23,0,34.4
		c9.2,0,18.3,0,27.5,0C45.5,58.6,45.5,57.4,45.5,56.2z"/>
	<path class="st2" d="M55.4,29.4c0-0.4,0-0.7,0-1.1c0-1.2,1-2.1,2.1-2.1c0.9,0,1.8,0,2.6,0c1.4,0,2.3,0.9,2.3,2.4c0,0.3,0,0.6,0,0.8
		c0.9,0.4,1,0.4,1,1.4c0,7.6,0,15.3,0,22.9c0,0.2-0.1,0.5-0.2,0.7c-1.1,1.9-2.2,3.7-3.4,5.6c-0.5,0.9-1.1,0.9-1.6,0
		c-1.2-1.9-2.4-3.8-3.7-5.6c-0.1-0.2-0.2-0.5-0.2-0.7c0-7.7,0-15.3,0-23C54.5,29.8,54.6,29.6,55.4,29.4z M56,53.1c2,0,4,0,6,0
		c0-4.6,0-9.3,0-13.9c-2,0-4,0-6,0C56,43.8,56,48.4,56,53.1z M62,35.1c-2,0-4,0-6,0c0,0.9,0,1.7,0,2.5c2,0,4,0,6,0
		C62,36.8,62,35.9,62,35.1z M62,31c-2,0-4,0-6,0c0,0.9,0,1.7,0,2.5c2,0,4,0,6,0C62,32.7,62,31.8,62,31z M56.6,54.6
		c0.9,1.3,1.7,2.6,2.5,3.9c0.8-1.3,1.5-2.6,2.3-3.8c-0.1,0-0.2-0.1-0.2-0.1C59.7,54.6,58.2,54.6,56.6,54.6z M61.1,29.4
		c0-0.3,0-0.6,0-0.9c0-0.7-0.2-1-0.9-1c-0.5,0-1.1,0-1.6,0c-1.6,0-1.7,0.1-1.6,1.7c0,0,0,0.1,0.1,0.1C58.3,29.4,59.7,29.4,61.1,29.4
		z"/>
	<path class="st2" d="M36.8,31c-3.2,0-6.4,0-9.6,0c-0.2,0-0.4,0.1-0.5,0c-0.2-0.2-0.6-0.4-0.6-0.6c0-0.2,0.3-0.6,0.5-0.7
		c0.1-0.1,0.4-0.1,0.7-0.1c6.4,0,12.9,0,19.3,0c0.2,0,0.5-0.1,0.6,0c0.2,0.2,0.5,0.5,0.5,0.7c0,0.2-0.4,0.5-0.6,0.7
		c-0.1,0.1-0.4,0-0.5,0C43.3,31,40.1,31,36.8,31z"/>
	<path class="st2" d="M36.9,43.9c3.3,0,6.6,0,9.8,0c0.7,0,1,0.2,1,0.7c0,0.5-0.3,0.8-1,0.8c-6.6,0-13.2,0-19.8,0
		c-0.5,0-0.9-0.2-0.9-0.7c0-0.5,0.3-0.7,0.9-0.7c0.2,0,0.4,0,0.7,0C30.7,43.9,33.8,43.9,36.9,43.9z"/>
	<path class="st2" d="M36.9,26.2c-3.3,0-6.6,0-9.8,0c-0.4,0-0.8-0.1-0.9-0.5c-0.2-0.5,0.2-1,0.9-1c2.4,0,4.9,0,7.3,0
		c4.1,0,8.2,0,12.2,0c0.2,0,0.4-0.1,0.5,0c0.2,0.2,0.6,0.5,0.6,0.7c0,0.2-0.3,0.5-0.6,0.7c-0.1,0.1-0.3,0-0.5,0
		C43.4,26.2,40.1,26.2,36.9,26.2z"/>
	<path class="st2" d="M36.9,48.7c3.3,0,6.6,0,9.8,0c0.7,0,1,0.2,1,0.7c0,0.5-0.3,0.7-1,0.7c-6.6,0-13.1,0-19.7,0c-0.7,0-1-0.3-1-0.7
		c0-0.5,0.3-0.7,1-0.7C30.3,48.7,33.6,48.7,36.9,48.7z"/>
	<path class="st2" d="M36.9,35.8c-3.2,0-6.4,0-9.7,0c-0.2,0-0.4,0.1-0.5,0c-0.3-0.2-0.6-0.4-0.6-0.7c0-0.2,0.3-0.5,0.6-0.7
		c0.1-0.1,0.4-0.1,0.6-0.1c6.4,0,12.9,0,19.3,0c0.2,0,0.5,0,0.6,0.1c0.2,0.2,0.5,0.5,0.5,0.7c0,0.2-0.3,0.5-0.5,0.6
		c-0.1,0.1-0.4,0-0.6,0C43.3,35.8,40.1,35.8,36.9,35.8z"/>
	<path class="st2" d="M42.3,40.6c-1.1,0-2.1,0-3.2,0c-0.7,0-1.1-0.5-0.8-1c0.1-0.2,0.5-0.4,0.7-0.4c2.2,0,4.4,0,6.6,0
		c0.4,0,0.7,0.2,0.8,0.7c0,0.5-0.3,0.8-0.8,0.8C44.5,40.6,43.4,40.6,42.3,40.6z"/>
	<path class="st2" d="M31.5,39.1c1,0,2.1,0,3.1,0c0.6,0,1,0.3,1,0.8c-0.1,0.6-0.4,0.7-1,0.7c-2.1,0-4.2,0-6.3,0
		c-0.5,0-0.9-0.1-0.9-0.7c0-0.5,0.3-0.7,0.9-0.7C29.4,39.1,30.4,39.1,31.5,39.1C31.5,39.1,31.5,39.1,31.5,39.1z"/>
</g>
</svg>
