<?xml version="1.0" encoding="utf-8"?>
<!-- Generator: Adobe Illustrator 21.1.0, SVG Export Plug-In . SVG Version: 6.00 Build 0)  -->
<svg version="1.1" id="Layer_1" xmlns="http://www.w3.org/2000/svg" xmlns:xlink="http://www.w3.org/1999/xlink" x="0px" y="0px"
	 viewBox="0 0 47 47" style="enable-background:new 0 0 47 47;" xml:space="preserve">
<style type="text/css">
	.st0{fill:#EBEBEB;}
	.st1{fill:#FFFFFF;}
</style>
<g>
	<circle class="st0" cx="23.5" cy="23.5" r="23.5"/>
	<g>
		<path class="st1" d="M9.4,33.3c0-0.4,0-0.8,0-1.2c0.1-0.5,0.1-1,0.2-1.5c0.8-4.8,3.4-8.2,7.6-10.5c0.2-0.1,0.3-0.1,0.5,0.1
			c1.8,2,4,2.9,6.7,2.6c1.9-0.2,3.6-1.1,4.8-2.6c0.1-0.2,0.3-0.2,0.5-0.1c0.7,0.4,1.5,0.8,2.2,1.3c3.1,2.3,4.9,5.4,5.5,9.1
			c0.1,0.5,0.1,1,0.2,1.5c0,0.4,0,0.8,0,1.2c0,0.4-0.1,0.8-0.1,1.2c-0.1,1.5-1,2-2.2,2c-2.1-0.1-4.2,0-6.4,0c-5.8,0-11.6,0-17.4,0
			c-1.1,0-1.8-0.6-1.9-1.7C9.5,34.3,9.5,33.8,9.4,33.3z"/>
		<path class="st1" d="M23.5,20.3c-3.8-0.1-6.9-2.8-7.5-6.5c-0.7-4.3,2.1-7.9,5.8-8.8c3.4-0.8,6.9,0.9,8.4,4.1
			c2.1,4.4-0.2,9.6-4.9,10.9C24.8,20.2,24.1,20.2,23.5,20.3z"/>
	</g>
</g>
</svg>
