<?xml version="1.0" encoding="utf-8"?>
<!-- Generator: Adobe Illustrator 21.1.0, SVG Export Plug-In . SVG Version: 6.00 Build 0)  -->
<svg version="1.1" id="Layer_1" xmlns="http://www.w3.org/2000/svg" xmlns:xlink="http://www.w3.org/1999/xlink" x="0px" y="0px"
	 viewBox="0 0 80 80" style="enable-background:new 0 0 80 80;" xml:space="preserve">
<style type="text/css">
	.st0{fill:#FFFFFF;}
	.st1{fill:url(#SVGID_1_);}
	.st2{fill:#FFFFFF;stroke:#FFFFFF;stroke-width:0.3;stroke-miterlimit:10;}
</style>
<g>
	<path class="st0" d="M40,43.2c-0.1,0.2-0.2,0.3-0.2,0.4c-2.4,2.4-4.8,4.8-7.2,7.2c-0.7,0.7-1.6,0.9-2.5,0.5
		c-0.9-0.4-1.5-1.3-1.5-2.3c0-0.6,0.3-1.1,0.7-1.5c2.4-2.4,4.8-4.8,7.2-7.2c0.1-0.1,0.2-0.1,0.3-0.2c0,0,0-0.1,0-0.1
		c-0.1-0.1-0.2-0.1-0.3-0.2c-2.4-2.4-4.8-4.8-7.2-7.3c-0.9-0.9-1-2.2-0.3-3.1c0.8-1.1,2.5-1.2,3.5-0.2c1.2,1.2,2.3,2.3,3.5,3.5
		c1.3,1.3,2.7,2.7,4,4c0.1-0.1,0.2-0.2,0.3-0.3c2.4-2.4,4.8-4.8,7.3-7.3c0.7-0.7,1.6-0.9,2.5-0.5c0.9,0.4,1.5,1.3,1.5,2.3
		c0,0.6-0.3,1-0.7,1.5c-2.4,2.4-4.9,4.9-7.3,7.3c-0.1,0.1-0.1,0.2-0.3,0.3c0.2,0.1,0.3,0.3,0.4,0.4c2.4,2.4,4.7,4.7,7.1,7.1
		c1,1,0.9,2.2,0,3.2c-0.9,0.9-2.3,1-3.2,0c-2.4-2.4-4.8-4.8-7.2-7.2C40.2,43.5,40.1,43.4,40,43.2z"/>
</g>
<linearGradient id="SVGID_1_" gradientUnits="userSpaceOnUse" x1="0" y1="40" x2="80" y2="40">
	<stop  offset="0" style="stop-color:#713A76"/>
	<stop  offset="1" style="stop-color:#AA769D"/>
</linearGradient>
<rect class="st1" width="80" height="80"/>
<g>
	<path class="st2" d="M26.6,24.4c0-0.6,0-1.1,0-1.7c0-1.6,1.2-2.8,2.8-2.8c9.3,0,18.6,0,27.9,0c1.7,0,2.9,1.2,2.9,2.9
		c0,11.6,0,23.1,0,34.7c0,1.7-1.3,2.8-3.1,2.8c-5.3,0-10.6,0-15.9,0c-3.8,0-7.7,0-11.5,0c-0.6,0-1.2-0.1-1.7-0.4
		c-1-0.5-1.5-1.4-1.5-2.6c0-4.6,0-9.1,0-13.7c0-0.5-0.1-1-0.4-1.3c-3.3-5.8-6.7-11.6-10.1-17.5c-0.5-0.8-0.4-1,0.4-1.5
		c2-1.2,4-2.3,6-3.5c0.8-0.4,1-0.4,1.4,0.4c0.7,1.3,1.5,2.6,2.2,3.8c0.1,0.1,0.2,0.2,0.2,0.4C26.5,24.5,26.6,24.4,26.6,24.4z
		 M28,45.6c0,0.2,0,0.3,0,0.4c0,3.8,0,7.5,0,11.3c0,1.2,0.6,1.7,1.7,1.7c9.1,0,18.3,0,27.4,0c1.1,0,1.7-0.6,1.7-1.7
		c0-11.4,0-22.8,0-34.2c0-1.2-0.5-1.8-1.8-1.8c-9.1,0-18.3,0-27.4,0c-1.1,0-1.6,0.6-1.6,1.6c0,1.2,0,2.4,0,3.6c0,0.3,0.1,0.7,0.3,1
		c3,5.1,5.9,10.3,8.9,15.4c0.3,0.5,0.4,1,0.5,1.5c0.1,0.7,0.2,1.4,0.3,2.2c0.3,2.3,0.5,4.5,0.8,6.8c0,0.4,0.1,0.7-0.3,0.9
		c-0.4,0.2-0.7,0-1-0.2c-1.6-1.2-3.1-2.4-4.7-3.6c-1.9-1.3-3.6-2.7-4.5-4.9C28.1,45.7,28.1,45.7,28,45.6z M19.6,28.1
		c3.5,6.1,7,12.1,10.5,18.1c1.9-1.1,3.7-2.1,5.5-3.2c-3.5-6.1-7-12.1-10.5-18.1C23.3,26,21.5,27,19.6,28.1z M30.8,47.4
		c2.1,1.6,4.2,3.2,6.3,4.8c-0.3-2.7-0.6-5.3-0.9-7.9C34.4,45.3,32.6,46.4,30.8,47.4z M17.5,24.4c0.5,0.8,0.9,1.6,1.4,2.5
		c1.9-1.1,3.7-2.1,5.5-3.2c-0.5-0.8-1-1.6-1.4-2.5C21.1,22.3,19.3,23.4,17.5,24.4z"/>
	<path class="st2" d="M43.3,26.4c-3.5,0-7,0-10.4,0c-0.3,0-0.7-0.1-0.9-0.2c-0.4-0.2-0.4-0.7,0-1c0.3-0.1,0.6-0.2,0.9-0.2
		c7.1,0,14.1,0,21.2,0c0.7,0,1.2,0.3,1.1,0.7c0,0.4-0.4,0.7-1.1,0.7C50.4,26.4,46.9,26.4,43.3,26.4z"/>
	<path class="st2" d="M47,54.1c0.4-0.2,0.8-0.5,1.2-0.7c0.2-0.1,0.4-0.2,0.6-0.3c1.4-0.7,2.2-0.2,2.3,1.3c0,0.1,0,0.2,0,0.3
		c0.3-0.1,0.6-0.3,1-0.4c0.6-0.3,1.3-0.4,2-0.2c0.4,0.1,0.7,0.4,0.6,0.9c-0.1,0.5-0.5,0.5-0.9,0.5c-0.5,0-1.1,0.1-1.6,0.3
		c-0.4,0.1-0.8,0.4-1.2,0.5c-0.8,0.2-1.3-0.2-1.3-1c0-0.3,0-0.7,0.1-1.1c-0.3,0.2-0.6,0.3-0.8,0.4c-0.6,0.3-1.1,0.7-1.6,1.1
		c-0.7,0.4-1.4,0.4-1.9-0.1c-0.4-0.4-0.4-1,0-1.7c0.2-0.4,0.4-0.7,0.6-1c0.1-0.2,0.2-0.4,0.2-0.7c-0.9,0.7-1.6,1.7-2.2,2.7
		c0.1,0,0.1,0,0.2,0c0,0.4,0.2,0.8,0,1c-0.2,0.2-0.7,0.3-1,0.3c-0.5-0.1-0.7-0.5-0.6-1c0-0.3,0.1-0.6,0.2-0.8
		c0.6-1.4,1.6-2.5,2.8-3.4c0.4-0.3,0.8-0.6,1.3-0.3c0.5,0.3,0.8,0.8,0.7,1.4C47.4,52.7,47.2,53.4,47,54.1z"/>
	<path class="st2" d="M44.5,31.6c3.2,0,6.4,0,9.6,0c0.8,0,1.2,0.3,1.2,0.7c0,0.4-0.5,0.7-1.2,0.7c-6.5,0-12.9,0-19.4,0
		c-0.7,0-1.2-0.3-1.2-0.7c0-0.4,0.4-0.7,1.2-0.7C38,31.6,41.3,31.6,44.5,31.6z"/>
	<path class="st2" d="M47.6,38.1c2.1,0,4.2,0,6.3,0c0.3,0,0.7,0.1,0.9,0.2c0.4,0.2,0.4,0.7,0,1c-0.3,0.1-0.6,0.2-0.9,0.2
		c-4.2,0-8.3,0-12.5,0c-0.3,0-0.7-0.1-0.9-0.2c-0.5-0.2-0.5-0.7,0-1c0.3-0.1,0.6-0.2,0.9-0.2C43.4,38.1,45.5,38.1,47.6,38.1z"/>
	<path class="st2" d="M49.9,46c-1.4,0-2.7,0-4.1,0c-0.7,0-1.2-0.2-1.2-0.7c0-0.4,0.4-0.7,1.2-0.7c2.7,0,5.5,0,8.2,0
		c0.7,0,1.2,0.3,1.2,0.7c0,0.4-0.4,0.7-1.2,0.7C52.6,46,51.2,46,49.9,46z"/>
</g>
</svg>
