<?xml version="1.0" encoding="utf-8"?>
<!-- Generator: Adobe Illustrator 21.1.0, SVG Export Plug-In . SVG Version: 6.00 Build 0)  -->
<svg version="1.1" id="Layer_1" xmlns="http://www.w3.org/2000/svg" xmlns:xlink="http://www.w3.org/1999/xlink" x="0px" y="0px"
	 viewBox="0 0 80 80" style="enable-background:new 0 0 80 80;" xml:space="preserve">
<style type="text/css">
	.st0{fill:#FFFFFF;}
	.st1{fill:url(#SVGID_1_);}
</style>
<g>
	<path class="st0" d="M40,43.2c-0.1,0.2-0.2,0.3-0.2,0.4c-2.4,2.4-4.8,4.8-7.2,7.2c-0.7,0.7-1.6,0.9-2.5,0.5
		c-0.9-0.4-1.5-1.3-1.5-2.3c0-0.6,0.3-1.1,0.7-1.5c2.4-2.4,4.8-4.8,7.2-7.2c0.1-0.1,0.2-0.1,0.3-0.2c0,0,0-0.1,0-0.1
		c-0.1-0.1-0.2-0.1-0.3-0.2c-2.4-2.4-4.8-4.8-7.2-7.3c-0.9-0.9-1-2.2-0.3-3.1c0.8-1.1,2.5-1.2,3.5-0.2c1.2,1.2,2.3,2.3,3.5,3.5
		c1.3,1.3,2.7,2.7,4,4c0.1-0.1,0.2-0.2,0.3-0.3c2.4-2.4,4.8-4.8,7.3-7.3c0.7-0.7,1.6-0.9,2.5-0.5c0.9,0.4,1.5,1.3,1.5,2.3
		c0,0.6-0.3,1-0.7,1.5c-2.4,2.4-4.9,4.9-7.3,7.3c-0.1,0.1-0.1,0.2-0.3,0.3c0.2,0.1,0.3,0.3,0.4,0.4c2.4,2.4,4.7,4.7,7.1,7.1
		c1,1,0.9,2.2,0,3.2c-0.9,0.9-2.3,1-3.2,0c-2.4-2.4-4.8-4.8-7.2-7.2C40.2,43.5,40.1,43.4,40,43.2z"/>
</g>
<linearGradient id="SVGID_1_" gradientUnits="userSpaceOnUse" x1="0" y1="40" x2="80" y2="40">
	<stop  offset="0" style="stop-color:#713A76"/>
	<stop  offset="1" style="stop-color:#AA769D"/>
</linearGradient>
<rect class="st1" width="80" height="80"/>
<g>
	<path class="st0" d="M16.1,42c0-0.8,0-1.6,0-2.4c0-0.2,0.1-0.3,0.1-0.5c0.1-0.8,0.2-1.7,0.3-2.5c2-10.6,11.2-18.6,22-18.9
		c5.1-0.2,9.8,1.3,14.1,4.2c0.8,0.6,1.6,1.2,2.5,1.9c0-0.7,0-1.4,0-2c0-0.5,0.2-0.8,0.5-1.2c1.3-1.3,2.6-2.6,3.9-3.9
		c0.2-0.2,0.4-0.4,0.6-0.5c0.1,0,0.2,0,0.4,0c0.4,0.2,0.6,0.6,0.6,1c0,0.6,0,1.3,0,2c0.7,0,1.4,0,2.1,0c0.4,0,0.7,0.1,0.9,0.5
		c0.2,0.4,0,0.7-0.3,0.9c-1.4,1.4-2.8,2.7-4.1,4.1c-0.3,0.3-0.6,0.4-1,0.4c-0.7,0-1.4,0-2.2,0c0.2,0.2,0.3,0.3,0.4,0.5
		c0.8,1,1.6,2,2.3,3.1c3.1,5.1,4.2,10.6,3.1,16.4c-1.3,6.7-4.9,11.9-10.7,15.5c-4.8,3-10.1,4.1-15.8,3.1c-4.4-0.7-8.4-2.6-11.7-5.6
		c-4.1-3.7-6.7-8.3-7.5-13.8C16.2,43.4,16.2,42.7,16.1,42z M55.2,26c-1.4,1.4-2.9,2.9-4.3,4.3c6.2,6.9,4.9,16.7-1.2,22.1
		c-6.1,5.4-15,5.4-21-0.1c-5.9-5.4-6.8-14.4-2-20.8c2.5-3.4,5.9-5.5,10-6.2c5-0.8,9.3,0.6,13,3.8c1.5-1.5,2.9-2.9,4.3-4.3
		c-7.6-7.3-21.2-8.1-30,0.4c-8.9,8.7-8.6,23.2,0.5,31.6c9,8.3,23.5,7.4,31.3-2C63.6,45.6,61.9,32.7,55.2,26z M45.5,35.5
		c3.5,4.5,1.7,9.5-1.3,11.8c-3.3,2.5-7.8,2.2-10.7-0.7c-3-3-3.2-7.4-0.7-10.7c2.3-3,7.3-4.8,11.7-1.4c1.4-1.4,2.9-2.9,4.3-4.3
		c-4.5-4.3-13.2-5.3-19.1,0.1c-6,5.4-6.2,15-0.5,20.7c5.7,5.7,15.3,5.5,20.7-0.5c5.3-5.9,4.4-14.6,0-19.2C48.4,32.6,47,34,45.5,35.5
		z M43.5,35.5c-2-1.8-6.3-2.2-9,0.4c-2.6,2.6-2.7,7.1-0.1,9.7c2.6,2.6,7.1,2.6,9.7,0c2.7-2.7,2.3-7,0.5-9c-0.4,0.4-0.8,0.8-1.3,1.2
		c0.3,0.2,0.5,0.5,0.8,0.8c0.6,0.6,0.5,1.2-0.3,1.4c-1.4,0.5-2.7,0.9-4.1,1.4c-0.3,0.1-0.7,0.2-1-0.1c-0.3-0.3-0.2-0.6-0.1-1
		c0.5-1.4,0.9-2.7,1.4-4.1c0.3-0.8,0.9-0.9,1.5-0.3c0.2,0.3,0.5,0.6,0.7,0.8C42.7,36.2,43.1,35.8,43.5,35.5z M59.5,18.6
		c-1,1-2,2-2.9,2.9c-0.1,0.1-0.1,0.2-0.1,0.2c0,0.6,0,1.2,0,1.9c0.6,0,1.2,0,1.7,0c0.1,0,0.3-0.1,0.4-0.2c0.9-0.9,1.7-1.7,2.6-2.6
		c0,0,0.1-0.1,0.1-0.2c-0.3,0-0.6,0-0.9,0c-0.7,0-1-0.3-1-1C59.5,19.3,59.5,19,59.5,18.6z M41.1,37.7c-0.2,0.6-0.4,1.2-0.6,1.9
		c0.7-0.2,1.3-0.4,1.9-0.6C41.9,38.5,41.5,38.1,41.1,37.7z"/>
	<path class="st0" d="M39.3,45.8c-2.1-0.1-3.7-0.9-4.6-2.8c-0.9-1.9-0.7-3.8,0.5-5.6c0.1-0.2,0.3-0.3,0.4-0.4c0.3-0.2,0.6-0.2,0.9,0
		c0.3,0.2,0.4,0.5,0.2,0.9c-0.1,0.1-0.2,0.2-0.3,0.4c-1.3,1.6-1.2,3.6,0.3,5c1.4,1.4,3.5,1.5,5,0.3c0.1,0,0.1-0.1,0.2-0.2
		c0.4-0.3,0.8-0.3,1.1,0c0.3,0.3,0.2,0.8-0.2,1.1c-0.9,0.8-1.9,1.2-3.1,1.2C39.6,45.8,39.5,45.8,39.3,45.8z"/>
</g>
</svg>
