<?xml version="1.0" encoding="utf-8"?>
<!-- Generator: Adobe Illustrator 21.1.0, SVG Export Plug-In . SVG Version: 6.00 Build 0)  -->
<svg version="1.1" id="Layer_1" xmlns="http://www.w3.org/2000/svg" xmlns:xlink="http://www.w3.org/1999/xlink" x="0px" y="0px"
	 viewBox="0 0 32 32" style="enable-background:new 0 0 32 32;" xml:space="preserve">
<style type="text/css">
	.st0{fill:#6D4B71;}
	.st1{fill:#FFFFFF;}
</style>
<circle class="st0" cx="16" cy="16" r="16"/>
<g>
	<path class="st1" d="M16,17.7c-0.1,0.1-0.1,0.2-0.1,0.2c-1.3,1.3-2.6,2.6-3.9,3.9c-0.4,0.4-0.9,0.5-1.3,0.3
		c-0.5-0.2-0.8-0.7-0.8-1.2c0-0.3,0.2-0.6,0.4-0.8c1.3-1.3,2.6-2.6,3.9-3.9c0.1-0.1,0.1-0.1,0.2-0.1V16c-0.1-0.1-0.1-0.1-0.2-0.1
		c-1.3-1.3-2.6-2.6-3.9-3.9c-0.5-0.5-0.5-1.2-0.2-1.7c0.4-0.6,1.3-0.6,1.9-0.1c0.6,0.6,1.2,1.2,1.9,1.9c0.7,0.7,1.4,1.4,2.1,2.1
		c0.1-0.1,0.1-0.1,0.2-0.2c1.3-1.3,2.6-2.6,3.9-3.9c0.4-0.4,0.9-0.5,1.3-0.3c0.4,0.3,0.7,0.8,0.7,1.3c0,0.3-0.2,0.5-0.4,0.8
		c-1.3,1.3-2.6,2.6-3.9,3.9c-0.1,0.1-0.1,0.1-0.2,0.2c0.1,0.1,0.2,0.2,0.2,0.2c1.3,1.3,2.5,2.5,3.8,3.8c0.5,0.5,0.5,1.2,0,1.7
		c-0.5,0.5-1.2,0.5-1.7,0c-1.3-1.3-2.6-2.6-3.9-3.9C16.1,17.9,16.1,17.8,16,17.7z"/>
</g>
</svg>
