<?xml version="1.0" encoding="utf-8"?>
<!-- Generator: Adobe Illustrator 21.1.0, SVG Export Plug-In . SVG Version: 6.00 Build 0)  -->
<svg version="1.1" id="Layer_1" xmlns="http://www.w3.org/2000/svg" xmlns:xlink="http://www.w3.org/1999/xlink" x="0px" y="0px"
	 viewBox="0 0 80 80" style="enable-background:new 0 0 80 80;" xml:space="preserve">
<style type="text/css">
	.st0{fill:#FFFFFF;}
	.st1{fill:url(#SVGID_1_);}
</style>
<g>
	<path class="st0" d="M40,43.2c-0.1,0.2-0.2,0.3-0.2,0.4c-2.4,2.4-4.8,4.8-7.2,7.2c-0.7,0.7-1.6,0.9-2.5,0.5
		c-0.9-0.4-1.5-1.3-1.5-2.3c0-0.6,0.3-1.1,0.7-1.5c2.4-2.4,4.8-4.8,7.2-7.2c0.1-0.1,0.2-0.1,0.3-0.2c0,0,0-0.1,0-0.1
		c-0.1-0.1-0.2-0.1-0.3-0.2c-2.4-2.4-4.8-4.8-7.2-7.3c-0.9-0.9-1-2.2-0.3-3.1c0.8-1.1,2.5-1.2,3.5-0.2c1.2,1.2,2.3,2.3,3.5,3.5
		c1.3,1.3,2.7,2.7,4,4c0.1-0.1,0.2-0.2,0.3-0.3c2.4-2.4,4.8-4.8,7.3-7.3c0.7-0.7,1.6-0.9,2.5-0.5c0.9,0.4,1.5,1.3,1.5,2.3
		c0,0.6-0.3,1-0.7,1.5c-2.4,2.4-4.9,4.9-7.3,7.3c-0.1,0.1-0.1,0.2-0.3,0.3c0.2,0.1,0.3,0.3,0.4,0.4c2.4,2.4,4.7,4.7,7.1,7.1
		c1,1,0.9,2.2,0,3.2c-0.9,0.9-2.3,1-3.2,0c-2.4-2.4-4.8-4.8-7.2-7.2C40.2,43.5,40.1,43.4,40,43.2z"/>
</g>
<linearGradient id="SVGID_1_" gradientUnits="userSpaceOnUse" x1="0" y1="40" x2="80" y2="40">
	<stop  offset="0" style="stop-color:#713A76"/>
	<stop  offset="1" style="stop-color:#AA769D"/>
</linearGradient>
<rect class="st1" width="80" height="80"/>
<g>
	<path class="st0" d="M41.3,16.7c0.9,0.1,1.8,0.2,2.7,0.4c5.8,1.1,10.5,4,14.2,8.6c2.8,3.5,4.4,7.6,4.9,12c0.1,0.7,0.1,1.4,0.1,2.1
		c0,0.6-0.3,1-0.8,1c-0.5,0-0.8-0.4-0.8-0.9c0-3.2-0.7-6.2-2-9.1c-3.2-6.6-8.5-10.7-15.7-12.1c-1.2-0.2-2.5-0.3-3.7-0.4
		c-0.4,0-0.9-0.1-1-0.5c-0.2-0.5,0.1-0.7,0.4-1C40.2,16.7,40.8,16.7,41.3,16.7z"/>
	<path class="st0" d="M30.7,37.5c3.6,4.3,7.5,8.2,11.8,11.8c0.3-0.3,0.5-0.6,0.8-0.9c1.8-1.8,4.8-1.8,6.7,0c1.4,1.4,2.8,2.7,4.1,4.1
		c1.8,1.8,1.8,4.8,0,6.6c-0.7,0.8-1.5,1.5-2.2,2.2c-2.3,2.3-5.8,2.7-8.6,0.9c-4.7-3.1-9.1-6.7-13.2-10.6c-4.6-4.4-8.6-9.3-12.2-14.6
		c-2-3-1.7-6.5,0.9-9.1c0.6-0.6,1.3-1.3,1.9-1.9c1.9-1.9,4.9-1.9,6.8,0c1.3,1.3,2.6,2.6,3.9,4c1.9,1.9,1.9,4.9,0,6.8
		C31.3,37,31,37.2,30.7,37.5z M47.2,61.8c1.3,0,2.5-0.5,3.5-1.4c0.8-0.8,1.6-1.6,2.4-2.4c1.2-1.3,1.3-3,0-4.3
		c-1.4-1.5-2.9-2.9-4.3-4.3c-1.3-1.2-3-1.2-4.3,0c-0.5,0.4-0.9,0.9-1.3,1.3c-0.4,0.4-0.8,0.4-1.2,0.1c-0.7-0.6-1.4-1.2-2.1-1.8
		C36,45.6,32.5,42,29.3,38.2c-0.4-0.5-0.4-0.9,0.1-1.3c0.4-0.4,0.9-0.8,1.3-1.3c1.3-1.3,1.3-3,0-4.3c-1.4-1.4-2.8-2.9-4.3-4.3
		c-1.3-1.3-3.1-1.3-4.4,0c-0.7,0.7-1.5,1.4-2.2,2.2c-0.4,0.4-0.7,0.8-1,1.3c-1,1.9-0.8,3.7,0.4,5.5c2.8,4.2,6,8.2,9.5,11.9
		c4.7,5,9.9,9.4,15.7,13.2C45.2,61.5,46.1,61.8,47.2,61.8z"/>
	<path class="st0" d="M40.6,24.6c5.8,0.5,10.2,3.2,13.1,8.3c1.2,2.1,1.8,4.4,1.8,6.9c0,0.7-0.2,1-0.7,1c-0.5,0-0.8-0.4-0.8-1
		c-0.1-3.9-1.5-7.2-4.3-9.9c-2.5-2.4-5.6-3.7-9.1-3.8c-0.2,0-0.5,0-0.7-0.1c-0.4-0.1-0.6-0.4-0.6-0.8c0-0.4,0.3-0.7,0.7-0.7
		C40.2,24.6,40.4,24.6,40.6,24.6z"/>
	<path class="st0" d="M40.4,32.4c3.9,0.3,7,3.5,7.2,7.4c0,0.4-0.1,0.8-0.5,0.9c-0.3,0.1-0.7,0-0.8-0.3c-0.1-0.2-0.1-0.5-0.2-0.7
		c-0.2-2.6-1.4-4.4-3.8-5.4c-0.6-0.3-1.4-0.3-2.1-0.4c-0.7-0.1-1-0.3-1-0.8c0-0.5,0.4-0.7,1.1-0.7C40.3,32.4,40.4,32.4,40.4,32.4z"
		/>
</g>
</svg>
