<?xml version="1.0" encoding="utf-8"?>
<!-- Generator: Adobe Illustrator 21.1.0, SVG Export Plug-In . SVG Version: 6.00 Build 0)  -->
<svg version="1.1" id="Layer_1" xmlns="http://www.w3.org/2000/svg" xmlns:xlink="http://www.w3.org/1999/xlink" x="0px" y="0px"
	 viewBox="0 0 80 80" style="enable-background:new 0 0 80 80;" xml:space="preserve">
<style type="text/css">
	.st0{fill:#FFFFFF;}
	.st1{fill:url(#SVGID_1_);}
	.st2{fill:#FFFFFF;stroke:#FFFFFF;stroke-width:0.3;stroke-miterlimit:10;}
</style>
<g>
	<path class="st0" d="M40,43.2c-0.1,0.2-0.2,0.3-0.2,0.4c-2.4,2.4-4.8,4.8-7.2,7.2c-0.7,0.7-1.6,0.9-2.5,0.5
		c-0.9-0.4-1.5-1.3-1.5-2.3c0-0.6,0.3-1.1,0.7-1.5c2.4-2.4,4.8-4.8,7.2-7.2c0.1-0.1,0.2-0.1,0.3-0.2c0,0,0-0.1,0-0.1
		c-0.1-0.1-0.2-0.1-0.3-0.2c-2.4-2.4-4.8-4.8-7.2-7.3c-0.9-0.9-1-2.2-0.3-3.1c0.8-1.1,2.5-1.2,3.5-0.2c1.2,1.2,2.3,2.3,3.5,3.5
		c1.3,1.3,2.7,2.7,4,4c0.1-0.1,0.2-0.2,0.3-0.3c2.4-2.4,4.8-4.8,7.3-7.3c0.7-0.7,1.6-0.9,2.5-0.5c0.9,0.4,1.5,1.3,1.5,2.3
		c0,0.6-0.3,1-0.7,1.5c-2.4,2.4-4.9,4.9-7.3,7.3c-0.1,0.1-0.1,0.2-0.3,0.3c0.2,0.1,0.3,0.3,0.4,0.4c2.4,2.4,4.7,4.7,7.1,7.1
		c1,1,0.9,2.2,0,3.2c-0.9,0.9-2.3,1-3.2,0c-2.4-2.4-4.8-4.8-7.2-7.2C40.2,43.5,40.1,43.4,40,43.2z"/>
</g>
<linearGradient id="SVGID_1_" gradientUnits="userSpaceOnUse" x1="0" y1="40" x2="80" y2="40">
	<stop  offset="0" style="stop-color:#713A76"/>
	<stop  offset="1" style="stop-color:#AA769D"/>
</linearGradient>
<rect class="st1" width="80" height="80"/>
<g>
	<path class="st2" d="M17.2,63.4c0-3.4,0-6.8,0-10.2c0-1,0-2.1,0-3.1c0-2.2,1.4-3.9,3.6-4.4c4-0.9,8-1.7,12-2.6
		c0.8-0.2,1.2-0.8,1.2-1.5c0-0.3,0-0.6,0-0.9c0.1-1.2,0-2.4-0.9-3.4c-0.3-0.4-0.4-0.9-0.6-1.4c-0.8-2-1.6-4-2.5-6
		c-0.1-0.2-0.2-0.3-0.4-0.4c-0.9-0.9-1.4-2-1.3-3.3c0.2-4.3,1.6-8.1,5.1-10.9c0.8-0.7,1.8-1.1,2.7-1.6c0.4-0.2,0.8-0.3,0.6-1
		c2.1,0,4.2,0,6.3,0c0.2,0.7,0.2,0.7,1,1.1c3.3,1.5,5.4,4.2,6.6,7.6c0.6,1.6,0.8,3.2,0.9,4.9c0,1.2-0.4,2.3-1.3,3.1
		c-0.2,0.2-0.4,0.5-0.6,0.8c-0.6,1.4-1.2,2.8-1.7,4.2c-0.1,0.3-0.2,0.6-0.3,0.8c-0.2,1.1-0.7,2.1-1.4,3c-0.1,0.2-0.2,0.5-0.2,0.7
		c0,0.9,0,1.7,0,2.6c0,0.7,0.5,1.4,1.2,1.5c4,0.9,8,1.8,12,2.6c2.2,0.5,3.6,2.1,3.6,4.4c0,4.3,0,8.5,0,12.8c0,0.2,0,0.3,0,0.6
		C47.6,63.4,32.4,63.4,17.2,63.4z M36.7,14.5c0,0-0.1-0.1-0.1-0.1c-0.9,0.5-1.8,1-2.6,1.6c-3.2,2.6-4.6,6.2-4.7,10.2
		c0,1,0.3,1.9,1.1,2.4c0.8,0.6,1.7,1.2,2.6,1.5c4,1.5,8.1,1.5,12.2,0.6c1.4-0.3,2.8-0.8,3.9-1.7c1-0.8,1.6-1.8,1.5-3.2
		c-0.1-1-0.2-1.9-0.4-2.9c-0.8-3.3-2.5-6.1-5.6-7.9c-0.4-0.3-0.9-0.5-1.4-0.7c0,5,0,9.9,0,14.9c0.4,0,0.8,0,1.2,0c0,0.4,0,0.6,0,0.9
		c-0.7,0-1.5,0-2.3,0c0-5.5,0-11,0-16.5c-1.5,0-2.9,0-4.4,0c0,5.5,0,11,0,16.5c-0.9,0-1.7,0-2.6,0c0-0.3,0-0.6,0-0.9
		c0.5,0,1.1,0,1.6,0C36.7,24.2,36.7,19.3,36.7,14.5z M48.8,53.2c-2.8,1.1-5.7,2.2-8.5,3.3c-0.2,0.1-0.5,0-0.7-0.1
		c-2.6-1-5.1-2-7.7-3.1c-0.3-0.1-0.5-0.3-0.5-0.7c0-2.6,0-5.2,0-7.7c0-0.2,0-0.4,0-0.7c-1.6,0.3-3.1,0.7-4.6,1c0,5.7,0,11.4,0,17.1
		c8.8,0,17.5,0,26.3,0c0-5.7,0-11.4,0-17.1c-1.5-0.3-2.9-0.6-4.4-0.9C48.8,47.4,48.8,50.3,48.8,53.2z M61.8,62.4c0-0.1,0-0.2,0-0.3
		c0-4.1,0-8.2,0-12.3c0-1.2-0.6-2.1-1.6-2.7c-0.6-0.3-1.3-0.5-2-0.7c-1.3-0.3-2.6-0.6-4-0.9c0,0.2,0,0.4,0,0.5c0,5.3,0,10.6,0,15.8
		c0,0.4,0.1,0.6,0.6,0.6c2.2,0,4.4,0,6.6,0C61.4,62.4,61.6,62.4,61.8,62.4z M18.2,62.4c0.3,0,0.5,0,0.7,0c2.1,0,4.2,0,6.3,0
		c0.5,0,0.6-0.1,0.6-0.6c0-5.2,0-10.5,0-15.7c0-0.2,0-0.4,0-0.6c-1.9,0.4-3.6,0.7-5.4,1.2c-1.6,0.5-2.3,1.6-2.3,3.3
		c0,3.9,0,7.8,0,11.7C18.2,62,18.2,62.2,18.2,62.4z M32.7,31.2c0.3,1.6,0.4,3.1,0.9,4.4c0.8,2.4,2.6,4.1,4.6,5.5
		c1.2,0.9,2.5,0.9,3.7,0c2.7-1.9,4.8-4.2,5.1-7.6c0.1-0.8,0.2-1.6,0.3-2.4C42.4,32.7,37.6,32.7,32.7,31.2z M35,39.8
		c0,0.9,0,1.7,0,2.5c0,0.2,0,0.4-0.1,0.5c-0.6,0.5-1.1,1.2-2,1.3c-0.3,0-0.4,0.2-0.4,0.5c0,0.6,0,1.3,0,1.9c0,0.4,0.1,0.5,0.5,0.6
		c1.2,0.3,2.5,0.5,3.7,0.8c2,0.5,3.9,0.6,5.9,0.2c1.7-0.4,3.5-0.8,5.2-1.2c0-0.9,0-1.7,0-2.6c0-0.1-0.2-0.3-0.3-0.3
		c-0.8-0.1-1.4-0.5-1.9-1C45.1,42.8,45,42.4,45,42c0-0.7,0-1.4,0-2.2c-0.7,0.6-1.3,1.2-2,1.7c-2.4,1.7-3.8,1.7-6.1,0
		C36.3,41,35.7,40.4,35,39.8z M32.4,48c0,1.5,0,2.9,0,4.3c0,0.2,0.2,0.4,0.4,0.4c2.3,0.9,4.5,1.8,6.8,2.7c0.2,0.1,0.6,0.1,0.8,0
		c2.3-0.9,4.6-1.8,6.9-2.7c0.3-0.1,0.4-0.3,0.4-0.6c0-1.2,0-2.4,0-3.6c0-0.2,0-0.3,0-0.5c-0.8,0.2-1.6,0.4-2.4,0.5
		c-1.3,0.3-2.6,0.7-3.9,0.8c-1.8,0.2-3.6,0-5.3-0.5C35,48.5,33.7,48.3,32.4,48z"/>
	<path class="st2" d="M45.7,60.6c0,0.3,0,0.6,0,0.9c-3.8,0-7.6,0-11.4,0c0-0.3,0-0.6,0-0.9C38.1,60.6,41.9,60.6,45.7,60.6z"/>
	<path class="st2" d="M50.3,58.9c-1.3,0-2.4-1.1-2.4-2.4c0-1.3,1.1-2.3,2.4-2.4c1.3,0,2.4,1.1,2.4,2.4
		C52.6,57.9,51.6,58.9,50.3,58.9z M48.9,56.5c0,0.8,0.6,1.4,1.4,1.4c0.8,0,1.4-0.6,1.4-1.4c0-0.8-0.6-1.4-1.4-1.4
		C49.5,55.1,48.9,55.7,48.9,56.5z"/>
	<path class="st2" d="M29.7,58.9c-1.3,0-2.4-1.1-2.4-2.4c0-1.3,1.1-2.3,2.4-2.4c1.3,0,2.4,1.1,2.4,2.4C32,57.9,31,58.9,29.7,58.9z
		 M28.3,56.5c0,0.8,0.6,1.4,1.4,1.4c0.8,0,1.4-0.7,1.4-1.4c0-0.8-0.6-1.4-1.4-1.4C28.9,55.1,28.3,55.8,28.3,56.5z"/>
	<path class="st2" d="M45.7,58.7c0,0.3,0,0.6,0,0.9c-3.8,0-7.6,0-11.4,0c0-0.3,0-0.6,0-0.9C38.1,58.7,41.9,58.7,45.7,58.7z"/>
</g>
</svg>
