<?xml version="1.0" encoding="utf-8"?>
<!-- Generator: Adobe Illustrator 21.1.0, SVG Export Plug-In . SVG Version: 6.00 Build 0)  -->
<svg version="1.1" id="Layer_1" xmlns="http://www.w3.org/2000/svg" xmlns:xlink="http://www.w3.org/1999/xlink" x="0px" y="0px"
	 viewBox="0 0 80 80" style="enable-background:new 0 0 80 80;" xml:space="preserve">
<style type="text/css">
	.st0{fill:#FFFFFF;}
	.st1{fill:url(#SVGID_1_);}
	.st2{fill:#FFFFFF;stroke:#FFFFFF;stroke-width:0.3;stroke-miterlimit:10;}
</style>
<g>
	<path class="st0" d="M40,43.2c-0.1,0.2-0.2,0.3-0.2,0.4c-2.4,2.4-4.8,4.8-7.2,7.2c-0.7,0.7-1.6,0.9-2.5,0.5
		c-0.9-0.4-1.5-1.3-1.5-2.3c0-0.6,0.3-1.1,0.7-1.5c2.4-2.4,4.8-4.8,7.2-7.2c0.1-0.1,0.2-0.1,0.3-0.2c0,0,0-0.1,0-0.1
		c-0.1-0.1-0.2-0.1-0.3-0.2c-2.4-2.4-4.8-4.8-7.2-7.3c-0.9-0.9-1-2.2-0.3-3.1c0.8-1.1,2.5-1.2,3.5-0.2c1.2,1.2,2.3,2.3,3.5,3.5
		c1.3,1.3,2.7,2.7,4,4c0.1-0.1,0.2-0.2,0.3-0.3c2.4-2.4,4.8-4.8,7.3-7.3c0.7-0.7,1.6-0.9,2.5-0.5c0.9,0.4,1.5,1.3,1.5,2.3
		c0,0.6-0.3,1-0.7,1.5c-2.4,2.4-4.9,4.9-7.3,7.3c-0.1,0.1-0.1,0.2-0.3,0.3c0.2,0.1,0.3,0.3,0.4,0.4c2.4,2.4,4.7,4.7,7.1,7.1
		c1,1,0.9,2.2,0,3.2c-0.9,0.9-2.3,1-3.2,0c-2.4-2.4-4.8-4.8-7.2-7.2C40.2,43.5,40.1,43.4,40,43.2z"/>
</g>
<linearGradient id="SVGID_1_" gradientUnits="userSpaceOnUse" x1="0" y1="40" x2="80" y2="40">
	<stop  offset="0" style="stop-color:#713A76"/>
	<stop  offset="1" style="stop-color:#AA769D"/>
</linearGradient>
<rect class="st1" width="80" height="80"/>
<g>
	<path class="st2" d="M38.6,63.1c-0.9-0.1-1.8-0.2-2.7-0.4c-5.8-1.1-10.5-3.9-14.1-8.5c-2.8-3.5-4.5-7.5-4.9-11.9
		c-0.7-8.2,2.2-14.9,8.5-20.2c3.5-3,7.6-4.7,12.2-5.1c6.9-0.6,12.9,1.4,18,6.1c4,3.7,6.4,8.3,7.2,13.7c0.1,0.6,0.2,1.2,0.2,1.9
		c0,0.9,0,1.8,0,2.7c0,0.3-0.1,0.7-0.1,1c-0.5,4.5-2.2,8.6-5,12.1c-3.6,4.4-8.3,7.2-13.9,8.3c-0.9,0.2-1.8,0.3-2.7,0.4
		C40.4,63.1,39.5,63.1,38.6,63.1z M39.9,61.6c11.9,0.1,21.5-9.4,21.6-21.4c0.1-12.1-9.4-21.7-21.5-21.8
		c-11.9-0.1-21.5,9.4-21.7,21.4C18.3,51.9,27.8,61.5,39.9,61.6z"/>
	<path class="st2" d="M40,57.3c-5.5-0.2-9.7-2.7-12.8-7.3c-1.7-2.5-2.5-5.3-2.6-8.3c0-0.4,0.1-0.7,0.4-0.9c0.5-0.3,1.1,0.1,1.1,0.8
		c0,1.6,0.2,3.1,0.8,4.6c2.1,5.5,5.9,8.8,11.8,9.4c5.6,0.6,10.9-2.4,13.6-7.5c1-2,1.6-4.2,1.6-6.5c0-0.6,0.3-1,0.8-1
		c0.5,0,0.8,0.4,0.8,1c0,7.4-5.9,14.2-13.2,15.4C41.4,57.2,40.7,57.2,40,57.3z"/>
	<path class="st2" d="M31.4,36.9c-2.4,0-4.8-1.8-5.2-4c0-0.1,0-0.2,0-0.2c-0.1-0.6,0.2-1,0.7-1.1c0.5,0,0.8,0.3,0.8,0.9
		c0.1,0.9,0.5,1.5,1.1,2c1.3,0.9,2.6,1.1,4.1,0.5c1.1-0.5,1.7-1.4,1.7-2.6c0-0.6,0.3-0.9,0.8-0.9c0.5,0,0.8,0.4,0.7,1
		c-0.1,2-2,4-4.2,4.3C31.7,36.8,31.5,36.9,31.4,36.9z"/>
	<path class="st2" d="M48.7,36.9c-2.3-0.1-4.4-1.8-4.8-4c0-0.1,0-0.2,0-0.3c0-0.6,0.2-1,0.7-1c0.5,0,0.8,0.3,0.8,0.9
		c0.1,1.4,1,2.5,2.4,2.8c1.2,0.3,2.3,0.1,3.2-0.6c0.8-0.5,1.2-1.3,1.3-2.3c0-0.5,0.4-0.9,0.8-0.8c0.4,0,0.8,0.4,0.7,0.9
		c0,0.4-0.1,0.9-0.3,1.3C52.8,35.5,50.6,36.9,48.7,36.9z"/>
</g>
</svg>
