<?xml version="1.0" encoding="utf-8"?>
<!-- Generator: Adobe Illustrator 21.1.0, SVG Export Plug-In . SVG Version: 6.00 Build 0)  -->
<svg version="1.1" id="Layer_1" xmlns="http://www.w3.org/2000/svg" xmlns:xlink="http://www.w3.org/1999/xlink" x="0px" y="0px"
	 viewBox="0 0 12 8" style="enable-background:new 0 0 12 8;" xml:space="preserve">
<style type="text/css">
	.st0{fill:#6F3A75;}
</style>
<g>
	<g>
		<path class="st0" d="M12.5,0.4c-0.1,0.3-0.3,0.4-0.4,0.6C9.7,3.4,7.3,5.8,4.9,8.2c-0.4,0.4-0.9,0.4-1.3,0C2.4,6.9,1.1,5.6-0.2,4.3
			C-0.4,4.2-0.4,4-0.5,3.8c0-0.1,0-0.2,0-0.3c0,0,0,0,0-0.1c0.2-0.6,0.9-0.8,1.4-0.4C1.3,3.6,1.8,4,2.2,4.5c0.7,0.7,1.3,1.4,2,2.1
			c0.1-0.1,0.1-0.1,0.2-0.1C6.6,4.2,8.9,2,11.1-0.2c0.5-0.5,1.3-0.2,1.4,0.4c0,0,0,0,0,0C12.5,0.3,12.5,0.3,12.5,0.4z"/>
	</g>
</g>
</svg>
