<?xml version="1.0" encoding="utf-8"?>
<!-- Generator: Adobe Illustrator 21.1.0, SVG Export Plug-In . SVG Version: 6.00 Build 0)  -->
<svg version="1.1" id="Layer_1" xmlns="http://www.w3.org/2000/svg" xmlns:xlink="http://www.w3.org/1999/xlink" x="0px" y="0px"
	 viewBox="0 0 80 80" style="enable-background:new 0 0 80 80;" xml:space="preserve">
<style type="text/css">
	.st0{fill:#FFFFFF;}
	.st1{fill:url(#SVGID_1_);}
</style>
<g>
	<path class="st0" d="M40,43.2c-0.1,0.2-0.2,0.3-0.2,0.4c-2.4,2.4-4.8,4.8-7.2,7.2c-0.7,0.7-1.6,0.9-2.5,0.5
		c-0.9-0.4-1.5-1.3-1.5-2.3c0-0.6,0.3-1.1,0.7-1.5c2.4-2.4,4.8-4.8,7.2-7.2c0.1-0.1,0.2-0.1,0.3-0.2c0,0,0-0.1,0-0.1
		c-0.1-0.1-0.2-0.1-0.3-0.2c-2.4-2.4-4.8-4.8-7.2-7.3c-0.9-0.9-1-2.2-0.3-3.1c0.8-1.1,2.5-1.2,3.5-0.2c1.2,1.2,2.3,2.3,3.5,3.5
		c1.3,1.3,2.7,2.7,4,4c0.1-0.1,0.2-0.2,0.3-0.3c2.4-2.4,4.8-4.8,7.3-7.3c0.7-0.7,1.6-0.9,2.5-0.5c0.9,0.4,1.5,1.3,1.5,2.3
		c0,0.6-0.3,1-0.7,1.5c-2.4,2.4-4.9,4.9-7.3,7.3c-0.1,0.1-0.1,0.2-0.3,0.3c0.2,0.1,0.3,0.3,0.4,0.4c2.4,2.4,4.7,4.7,7.1,7.1
		c1,1,0.9,2.2,0,3.2c-0.9,0.9-2.3,1-3.2,0c-2.4-2.4-4.8-4.8-7.2-7.2C40.2,43.5,40.1,43.4,40,43.2z"/>
</g>
<linearGradient id="SVGID_1_" gradientUnits="userSpaceOnUse" x1="0" y1="40" x2="80" y2="40">
	<stop  offset="0" style="stop-color:#713A76"/>
	<stop  offset="1" style="stop-color:#AA769D"/>
</linearGradient>
<rect class="st1" width="80" height="80"/>
<g>
	<path class="st0" d="M13.9,59.3c0.1-0.3,0.2-0.6,0.3-0.9c0.5-1.5,1.4-2.7,2.8-3.6c2.9-1.8,5.8-3.6,8.7-5.4c2.5-1.6,4.3-3.7,5.3-6.5
		c0.7-2,0.4-4-0.5-5.9c-1-2-1.1-4-0.2-6.1c0.1-0.2,0.2-0.4,0.4-0.6c4.6-4.6,9.2-9.2,13.7-13.7c0.8-0.8,1.6-1.6,2.4-2.3
		c0.5-0.4,0.9-0.4,1.3,0c3.1,3.1,6.1,6.2,9.2,9.2c2.8,2.8,5.6,5.6,8.4,8.4c0.7,0.7,0.7,1,0,1.7c-4.3,4.3-8.5,8.5-12.8,12.8
		c-1.1,1.1-2.1,2.1-3.2,3.2c-0.1,0.1-0.2,0.2-0.4,0.3c-2,0.9-4,0.9-6,0c-2.9-1.4-5.6-1.3-8.4,0.5c-1.8,1.2-3.3,2.7-4.5,4.5
		c-1.7,2.8-3.5,5.6-5.2,8.4c-1,1.6-2.4,2.6-4.2,2.9c-0.1,0-0.2,0.1-0.2,0.1c-0.4,0-0.9,0-1.3,0c-0.1,0-0.3-0.1-0.4-0.1
		c-2.5-0.5-4.1-1.9-4.9-4.4c-0.1-0.3-0.2-0.7-0.2-1C13.9,60.2,13.9,59.7,13.9,59.3z M31.3,32.6c0,0.1-0.1,0.2-0.1,0.3
		c-0.2,1.2,0,2.3,0.6,3.3c1,2,1.2,4.2,0.8,6.4c-0.5,2.4-1.8,4.2-3.4,5.9c-1.3,1.4-2.9,2.3-4.4,3.3c-2.4,1.5-4.7,2.9-7.1,4.4
		c-1.7,1-2.5,3-2.1,4.8c0.4,1.8,1.9,3.2,3.6,3.5c1.9,0.3,3.5-0.4,4.6-2.1c1.8-2.8,3.6-5.7,5.3-8.6c1.2-2,2.9-3.7,4.9-4.9
		c3.2-2,6.5-2.2,10-0.6c0.4,0.2,0.8,0.3,1.2,0.5c0.8,0.2,1.5,0.2,2.2,0C42,43.3,36.7,37.9,31.3,32.6z M52.2,44.4
		c3.1-3.1,6.2-6.2,9.4-9.4c0,0-0.1-0.1-0.2-0.2c-0.9-0.9-1-0.9-2,0c-1.6,1.6-3.3,3.3-4.9,4.9c-1.4,1.4-3.6,1.3-4.7-0.2
		c-1-1.3-0.9-3,0.3-4.1c0.4-0.4,0.8-0.9,1.3-1.3c-0.1-0.1-0.2-0.1-0.2-0.1c-2.1-0.7-2.8-3.6-0.9-5.3c0.6-0.6,1.2-1.2,1.7-1.7
		c0.7-0.7,0.7-0.9,0-1.6c-2.2-2.2-4.4-4.4-6.7-6.7c-0.1-0.1-0.2-0.2-0.3-0.3c-3.2,3.2-6.3,6.3-9.4,9.4
		C41.1,33.3,46.7,38.9,52.2,44.4z M46,17.2c0.2,0.1,0.4,0.3,0.5,0.4c2.2,2.2,4.4,4.4,6.6,6.6c1.1,1.1,1.1,2.7,0,3.8
		c-0.6,0.6-1.3,1.3-1.9,1.9c-0.6,0.7-0.6,1.5,0,2.2c0.6,0.6,1.4,0.6,2.1-0.1c0.5-0.5,1.1-1.1,1.6-1.6c0.3-0.3,0.6-0.3,1-0.1
		c0.4,0.2,0.5,0.5,0.4,0.9c0,0.2-0.2,0.4-0.4,0.5c-1.5,1.6-3.1,3.1-4.7,4.6c-0.4,0.4-0.6,0.8-0.5,1.4c0.1,0.6,0.5,1,1,1.2
		c0.6,0.2,1.1,0.1,1.6-0.4c1.7-1.7,3.4-3.4,5.2-5.2c1.1-1.1,2.7-1.2,3.8,0c0.2,0.2,0.3,0.4,0.4,0.6c0.6-0.6,1-1,1.4-1.3
		C58.5,27.1,52.9,21.5,47.3,16C46.9,16.3,46.5,16.7,46,17.2z M32.3,31c5.6,5.6,11.2,11.2,16.7,16.7c0.7-0.7,1.3-1.3,2-2
		C45.4,40.2,39.8,34.6,34.2,29C33.6,29.6,32.9,30.3,32.3,31z"/>
</g>
</svg>
