<?xml version="1.0" encoding="utf-8"?>
<!-- Generator: Adobe Illustrator 21.1.0, SVG Export Plug-In . SVG Version: 6.00 Build 0)  -->
<svg version="1.1" id="Layer_1" xmlns="http://www.w3.org/2000/svg" xmlns:xlink="http://www.w3.org/1999/xlink" x="0px" y="0px"
	 viewBox="0 0 80 80" style="enable-background:new 0 0 80 80;" xml:space="preserve">
<style type="text/css">
	.st0{fill:#FFFFFF;}
	.st1{fill:url(#SVGID_1_);}
	.st2{fill:#FFFFFF;stroke:#FFFFFF;stroke-width:0.3;stroke-miterlimit:10;}
</style>
<g>
	<path class="st0" d="M40,43.2c-0.1,0.2-0.2,0.3-0.2,0.4c-2.4,2.4-4.8,4.8-7.2,7.2c-0.7,0.7-1.6,0.9-2.5,0.5
		c-0.9-0.4-1.5-1.3-1.5-2.3c0-0.6,0.3-1.1,0.7-1.5c2.4-2.4,4.8-4.8,7.2-7.2c0.1-0.1,0.2-0.1,0.3-0.2c0,0,0-0.1,0-0.1
		c-0.1-0.1-0.2-0.1-0.3-0.2c-2.4-2.4-4.8-4.8-7.2-7.3c-0.9-0.9-1-2.2-0.3-3.1c0.8-1.1,2.5-1.2,3.5-0.2c1.2,1.2,2.3,2.3,3.5,3.5
		c1.3,1.3,2.7,2.7,4,4c0.1-0.1,0.2-0.2,0.3-0.3c2.4-2.4,4.8-4.8,7.3-7.3c0.7-0.7,1.6-0.9,2.5-0.5c0.9,0.4,1.5,1.3,1.5,2.3
		c0,0.6-0.3,1-0.7,1.5c-2.4,2.4-4.9,4.9-7.3,7.3c-0.1,0.1-0.1,0.2-0.3,0.3c0.2,0.1,0.3,0.3,0.4,0.4c2.4,2.4,4.7,4.7,7.1,7.1
		c1,1,0.9,2.2,0,3.2c-0.9,0.9-2.3,1-3.2,0c-2.4-2.4-4.8-4.8-7.2-7.2C40.2,43.5,40.1,43.4,40,43.2z"/>
</g>
<linearGradient id="SVGID_1_" gradientUnits="userSpaceOnUse" x1="0" y1="40" x2="80" y2="40">
	<stop  offset="0" style="stop-color:#713A76"/>
	<stop  offset="1" style="stop-color:#AA769D"/>
</linearGradient>
<rect class="st1" width="80" height="80"/>
<g>
	<path class="st2" d="M17.7,55.2c0-10.5,0-21.1,0-31.6c0,0,0.1-0.1,0.1-0.1c0.5-1.8,1.8-2.9,3.7-2.9c4.9,0,9.7,0,14.6,0
		c0.3,0,0.5-0.1,0.8-0.1c2.1-0.8,4.2-1.7,6.3-2.5c0.6-0.3,0.9-0.1,1.1,0.5c0.2,0.7,0.5,1.4,0.7,2.1c1.1-0.4,2.2-0.8,3.3-1.1
		c1.2-0.4,1.2-0.4,1.7,0.8c0.1,0.3,0.3,0.4,0.6,0.4c1.3,0,2.7,0,4,0c2,0,3.6,1.6,3.6,3.6c0,0.7,0,1.4,0,2c0.1,0,0.2,0.1,0.2,0.1
		c1.7,0.6,2.6,1.9,2.6,3.6c0,1.8,0,3.6,0,5.4c0,0.2,0,0.3,0,0.5C62,36,62,36,62.3,36.4c0,3.4,0,6.7,0,10.1c-0.3,0.6-0.9,0.5-1.4,0.5
		c0,0.2,0,0.4,0,0.5c0,2.3,0,4.6,0,6.9c0,2.1-1.6,3.7-3.7,3.7c-12,0-24,0-36,0c-1.6,0-3.1-1.1-3.5-2.7
		C17.7,55.4,17.7,55.3,17.7,55.2z M59.5,47.1c-1.4,0-2.7,0-4,0c-0.8,0-1.6,0-2.4-0.1c-2.7-0.4-4.8-3-4.7-5.7
		c0.1-2.9,2.7-5.3,5.6-5.3c1.7,0,3.4,0,5.1,0c0.2,0,0.3,0,0.5,0c0-0.2,0-0.4,0-0.5c0-1.9,0-3.7,0-5.6c0-1.5-0.8-2.3-2.3-2.3
		c-12,0-24,0-36,0c-0.6,0-1.2-0.2-1.8-0.5c-0.1-0.1-0.2-0.1-0.4-0.2c0,0.2,0,0.3,0,0.4c0,9.2,0,18.3,0,27.5c0,1.4,0.8,2.2,2.2,2.2
		c12,0,24.1,0,36.1,0c1.4,0,2.2-0.8,2.2-2.2c0-2.4,0-4.8,0-7.2C59.6,47.3,59.5,47.2,59.5,47.1z M43.1,19.3
		c-5.6,2.3-11.2,4.5-16.7,6.7c0,0,0,0,0,0.1c6.3,0,12.6,0,19,0C44.6,23.8,43.8,21.6,43.1,19.3z M60.9,37.3c-0.1,0-0.2,0-0.3,0
		c-2.3,0-4.6,0-6.9,0c-0.3,0-0.7,0.1-1,0.2c-2,0.6-3.3,2.5-3,4.6c0.3,2.1,1.9,3.6,4.1,3.6c2.3,0,4.5,0,6.8,0c0.1,0,0.2,0,0.3,0
		C60.9,42.9,60.9,40.1,60.9,37.3z M32.7,22C32.7,22,32.7,22,32.7,22c-0.2-0.1-0.3-0.1-0.4-0.1c-1.4,0-2.7,0-4.1,0
		c-2.4,0-4.8,0-7.2,0c-1,0-1.8,0.6-2,1.6c-0.2,1,0.2,2,1.1,2.4c0.8,0.3,1.8,0.4,2.6,0.1c2.3-0.9,4.6-1.8,6.9-2.7
		C30.7,22.8,31.7,22.4,32.7,22z M50.7,21.9c0,0.1,0,0.2,0,0.2c0.5,1.3,1,2.5,1.5,3.8c0.1,0.1,0.3,0.2,0.4,0.2c1.2,0,2.5,0,3.7,0
		c0.1,0,0.2,0,0.4,0c0-0.2,0-0.3,0-0.4c0-0.6,0-1.3,0-1.9c-0.1-1-0.8-1.8-1.8-1.8C53.5,21.9,52.1,21.9,50.7,21.9z M45.3,21.8
		c0.5,1.4,0.9,2.7,1.4,4.1c0,0.1,0.2,0.2,0.3,0.2c1.3,0,2.6,0,3.9,0c-0.7-1.8-1.5-3.6-2.2-5.4C47.5,21.1,46.5,21.5,45.3,21.8z"/>
	<path class="st2" d="M21.8,30.3c-0.2,0-0.5,0-0.7,0c-0.4,0-0.7-0.3-0.7-0.7c0-0.4,0.3-0.7,0.7-0.7c0.5,0,1,0,1.4,0
		c0.4,0,0.7,0.3,0.7,0.7c0,0.4-0.3,0.6-0.7,0.7C22.3,30.3,22.1,30.3,21.8,30.3L21.8,30.3z"/>
	<path class="st2" d="M27.4,30.3c-0.2,0-0.5,0-0.7,0c-0.4,0-0.7-0.3-0.7-0.7c0-0.3,0.3-0.7,0.6-0.7c0.5,0,1,0,1.5,0
		c0.4,0,0.6,0.3,0.6,0.7c0,0.3-0.3,0.7-0.6,0.7c-0.1,0-0.3,0-0.4,0C27.7,30.3,27.5,30.3,27.4,30.3L27.4,30.3z"/>
	<path class="st2" d="M33,30.3c-0.2,0-0.5,0-0.7,0c-0.4,0-0.7-0.3-0.6-0.7c0-0.4,0.3-0.6,0.6-0.7c0.5,0,1,0,1.5,0
		c0.4,0,0.6,0.3,0.6,0.6c0,0.3-0.3,0.7-0.6,0.7C33.5,30.3,33.3,30.3,33,30.3z"/>
	<path class="st2" d="M38.6,30.3c-0.2,0-0.5,0-0.7,0c-0.4,0-0.7-0.3-0.7-0.7c0-0.4,0.3-0.7,0.7-0.7c0.5,0,1,0,1.4,0
		c0.4,0,0.7,0.3,0.7,0.7c0,0.4-0.3,0.7-0.7,0.7C39.1,30.3,38.8,30.3,38.6,30.3z"/>
	<path class="st2" d="M44.2,30.3c-0.2,0-0.5,0-0.7,0c-0.4,0-0.7-0.3-0.7-0.7c0-0.4,0.3-0.7,0.7-0.7c0.5,0,1,0,1.4,0
		c0.4,0,0.7,0.3,0.7,0.7c0,0.4-0.3,0.6-0.7,0.7C44.7,30.3,44.4,30.3,44.2,30.3z"/>
	<path class="st2" d="M49.7,30.3c-0.2,0-0.4,0-0.7,0c-0.4,0-0.7-0.3-0.7-0.7c0-0.4,0.3-0.6,0.7-0.7c0.5,0,0.9,0,1.4,0
		c0.4,0,0.7,0.3,0.7,0.7c0,0.4-0.3,0.6-0.7,0.7C50.2,30.3,50,30.3,49.7,30.3L49.7,30.3z"/>
	<path class="st2" d="M55.3,30.3c-0.2,0-0.5,0-0.7,0c-0.4,0-0.7-0.3-0.6-0.7c0-0.4,0.3-0.6,0.6-0.7c0.5,0,1,0,1.5,0
		c0.4,0,0.7,0.3,0.6,0.7c0,0.4-0.3,0.6-0.7,0.7c-0.1,0-0.3,0-0.4,0C55.5,30.3,55.4,30.3,55.3,30.3C55.3,30.3,55.3,30.3,55.3,30.3z"
		/>
	<path class="st2" d="M21.8,55.4c-0.2,0-0.4,0-0.7,0c-0.4,0-0.7-0.3-0.7-0.7c0-0.4,0.3-0.6,0.7-0.7c0.5,0,0.9,0,1.4,0
		c0.4,0,0.7,0.3,0.7,0.7c0,0.4-0.3,0.6-0.7,0.7c-0.1,0-0.3,0-0.4,0C22,55.4,21.9,55.4,21.8,55.4C21.8,55.4,21.8,55.4,21.8,55.4z"/>
	<path class="st2" d="M27.4,55.4c-0.2,0-0.5,0-0.7,0c-0.4,0-0.7-0.3-0.7-0.7c0-0.4,0.3-0.7,0.6-0.7c0.5,0,1,0,1.5,0
		c0.4,0,0.6,0.3,0.6,0.7c0,0.3-0.3,0.7-0.6,0.7C27.9,55.4,27.7,55.4,27.4,55.4L27.4,55.4z"/>
	<path class="st2" d="M33.1,54.1c0.2,0,0.4,0,0.7,0c0.4,0,0.7,0.3,0.7,0.7c0,0.4-0.3,0.7-0.7,0.7c-0.5,0-1,0-1.4,0
		c-0.4,0-0.7-0.3-0.7-0.7c0-0.4,0.3-0.6,0.7-0.7c0.1,0,0.3,0,0.4,0C32.8,54.1,32.9,54.1,33.1,54.1z"/>
	<path class="st2" d="M38.6,55.4c-0.2,0-0.4,0-0.7,0c-0.4,0-0.7-0.3-0.7-0.7c0-0.4,0.3-0.6,0.7-0.7c0.5,0,0.9,0,1.4,0
		c0.4,0,0.7,0.3,0.7,0.7c0,0.4-0.3,0.6-0.7,0.7C39,55.4,38.8,55.4,38.6,55.4z"/>
	<path class="st2" d="M44.2,55.4c-0.2,0-0.5,0-0.7,0c-0.4,0-0.7-0.3-0.7-0.7c0-0.4,0.3-0.7,0.6-0.7c0.5,0,1,0,1.5,0
		c0.4,0,0.6,0.3,0.6,0.7c0,0.3-0.3,0.7-0.6,0.7C44.7,55.4,44.4,55.4,44.2,55.4z"/>
	<path class="st2" d="M49.8,54.1c0.2,0,0.4,0,0.7,0c0.4,0,0.7,0.3,0.7,0.7c0,0.4-0.3,0.7-0.7,0.7c-0.5,0-0.9,0-1.4,0
		c-0.4,0-0.7-0.3-0.7-0.7c0-0.4,0.3-0.7,0.7-0.7C49.3,54,49.5,54.1,49.8,54.1z"/>
	<path class="st2" d="M55.3,55.4c-0.2,0-0.5,0-0.7,0c-0.4,0-0.7-0.3-0.7-0.7c0-0.4,0.3-0.7,0.7-0.7c0.5,0,1,0,1.4,0
		c0.4,0,0.7,0.3,0.7,0.7c0,0.4-0.3,0.6-0.7,0.7c0,0-0.1,0-0.1,0C55.8,55.4,55.6,55.4,55.3,55.4C55.3,55.4,55.3,55.4,55.3,55.4z"/>
	<path class="st2" d="M56.7,41.5c0,1.4-1.4,2.8-2.8,2.8c-1.4,0-2.8-1.3-2.8-2.8c0-1.4,1.4-2.8,2.8-2.8
		C55.4,38.7,56.7,40.1,56.7,41.5z M54,40.1c-0.9,0-1.4,0.5-1.4,1.4c0,0.9,0.5,1.4,1.4,1.4c0.9,0,1.4-0.5,1.4-1.4
		C55.4,40.6,54.8,40.1,54,40.1z"/>
</g>
</svg>
