<svg width="205" height="211" viewBox="0 0 205 211" fill="none" xmlns="http://www.w3.org/2000/svg">
<path d="M7.00001 211H198C201.866 211 205 207.866 205 204V28.6616C205 26.7036 204.18 24.8351 202.739 23.5095L179.188 1.8479C177.896 0.659544 176.204 0 174.449 0H7C3.13401 0 0 3.13401 0 7V204C0 207.866 3.13401 211 7.00001 211Z" fill="white"/>
<path d="M198 210.5H7.00001C3.41015 210.5 0.5 207.59 0.5 204V7C0.5 3.41015 3.41015 0.5 7 0.5H174.449C176.079 0.5 177.649 1.11243 178.849 2.2159L202.4 23.8775C203.738 25.1084 204.5 26.8435 204.5 28.6616V204C204.5 207.59 201.59 210.5 198 210.5Z" stroke="#231D1A" stroke-opacity="0.2"/>
</svg>
