<svg width="106" height="65" viewBox="0 0 106 65" fill="none" xmlns="http://www.w3.org/2000/svg">
<rect x="1.31914" y="30.3459" width="97.1505" height="34.0389" rx="6" transform="rotate(-17.0974 1.31914 30.3459)" stroke="#F04637" stroke-width="2"/>
<path d="M33.9346 42.8964L31.7696 35.8579L33.7635 35.2446L35.4263 40.6506L37.2595 40.0867L35.5967 34.6807L37.5905 34.0674L39.2533 39.4735L41.0732 38.9137L39.4104 33.5077L41.4042 32.8944L43.5692 39.9329L33.9346 42.8964ZM49.047 36.7247C49.2432 36.6643 49.4292 36.6022 49.6049 36.5384C49.7805 36.4746 49.9191 36.4174 50.0207 36.3666L49.5556 34.8545C49.4698 34.8614 49.3439 34.8806 49.1778 34.9121C49.0118 34.9437 48.8618 34.98 48.728 35.0212C48.5407 35.0788 48.3664 35.1471 48.2051 35.226C48.05 35.2932 47.9197 35.3772 47.814 35.4781C47.7083 35.579 47.6362 35.6939 47.5978 35.8229C47.5593 35.9519 47.5648 36.0967 47.6142 36.2573C47.7102 36.5695 47.8801 36.7565 48.1237 36.8183C48.3734 36.8684 48.6812 36.8372 49.047 36.7247ZM47.0918 30.9398C47.6806 30.7587 48.1918 30.6747 48.6255 30.6878C49.0592 30.7009 49.4304 30.7967 49.7392 30.9751C50.0569 31.1508 50.3197 31.402 50.5276 31.7286C50.7354 32.0553 50.9066 32.4372 51.0411 32.8743L52.317 37.0225C52.0508 37.1727 51.6757 37.3662 51.1919 37.6029C50.7109 37.8485 50.1091 38.0824 49.3865 38.3047C48.9315 38.4447 48.5043 38.5321 48.105 38.5671C47.7145 38.5993 47.358 38.5673 47.0355 38.4712C46.7103 38.3662 46.431 38.1885 46.1977 37.938C45.9644 37.6875 45.782 37.3482 45.6502 36.9199C45.524 36.5096 45.4973 36.137 45.5701 35.8021C45.6518 35.4645 45.8048 35.1684 46.0292 34.9139C46.2536 34.6593 46.5333 34.4415 46.8682 34.2604C47.2003 34.0703 47.5582 33.9163 47.9418 33.7983C48.2005 33.7187 48.4321 33.6621 48.6366 33.6285C48.8472 33.5833 49.0205 33.5593 49.1564 33.5565L49.0987 33.3692C48.9945 33.0302 48.8082 32.7897 48.5399 32.6476C48.2716 32.5055 47.8832 32.5127 47.3747 32.6691C47.0357 32.7734 46.7094 32.903 46.3958 33.0581C46.0795 33.2042 45.8146 33.3589 45.6012 33.5222L44.853 31.9947C44.958 31.9233 45.0897 31.8437 45.2483 31.7559C45.413 31.6564 45.5938 31.5617 45.7907 31.4719C45.9849 31.3731 46.1908 31.2805 46.4083 31.194C46.6321 31.0959 46.8599 31.0112 47.0918 30.9398ZM58.8482 29.3157L55.8508 30.2377L57.5136 35.6438L55.5198 36.257L53.3548 29.2185L58.346 27.6832L58.8482 29.3157ZM65.2144 25.2337C65.4402 25.0471 65.6708 24.8443 65.9062 24.6254C66.1478 24.3949 66.3777 24.1582 66.5959 23.9153C66.8114 23.6635 67.0121 23.4113 67.1981 23.1588C67.3903 22.8946 67.5529 22.6298 67.6861 22.3642L69.0777 21.9362L71.9301 31.2094L69.9363 31.8227L67.8824 25.1454C67.6697 25.4062 67.4216 25.6631 67.1381 25.9163C66.852 26.1606 66.5692 26.3842 66.2899 26.5873L65.2144 25.2337Z" fill="#F04637"/>
</svg>
