<svg width="105" height="105" viewBox="0 0 105 105" fill="none" xmlns="http://www.w3.org/2000/svg">
<path d="M37.0117 66.4872L33.3263 60.1118L35.1322 59.0679L37.9629 63.9646L39.6234 63.0047L36.7927 58.108L38.5987 57.064L41.4294 61.9607L43.0778 61.0078L40.2471 56.1111L42.053 55.0671L45.7385 61.4425L37.0117 66.4872ZM50.3593 57.0896C50.537 56.9868 50.7044 56.8847 50.8613 56.7832C51.0182 56.6817 51.1405 56.5948 51.2281 56.5226L50.4364 55.153C50.3543 55.1789 50.2359 55.2258 50.0811 55.2937C49.9263 55.3616 49.7883 55.4306 49.6671 55.5007C49.4974 55.5987 49.3428 55.7043 49.2033 55.8173C49.0672 55.9175 48.959 56.0286 48.8785 56.1506C48.7981 56.2725 48.7536 56.4007 48.745 56.535C48.7364 56.6693 48.7742 56.8092 48.8582 56.9547C49.0217 57.2375 49.2291 57.3817 49.4803 57.3874C49.735 57.3804 50.028 57.2811 50.3593 57.0896ZM47.1589 51.8891C47.6922 51.5808 48.1717 51.3845 48.5973 51.3002C49.0229 51.2159 49.4061 51.2261 49.747 51.3309C50.096 51.431 50.4083 51.617 50.684 51.8888C50.9598 52.1607 51.2121 52.4946 51.441 52.8905L53.613 56.6479C53.3871 56.8539 53.0649 57.1264 52.6464 57.4654C52.2325 57.8124 51.6983 58.1751 51.0438 58.5535C50.6317 58.7917 50.235 58.9726 49.8535 59.096C49.4802 59.2148 49.1256 59.2635 48.7898 59.242C48.4493 59.2125 48.1373 59.1017 47.8539 58.9098C47.5705 58.7179 47.3166 58.428 47.0924 58.0401C46.8776 57.6684 46.7681 57.3113 46.7641 56.9686C46.7681 56.6213 46.851 56.2985 47.0128 56.0001C47.1745 55.7018 47.3983 55.4269 47.6841 55.1754C47.9653 54.9159 48.2796 54.6856 48.6271 54.4848C48.8614 54.3493 49.0745 54.2423 49.2663 54.1638C49.4615 54.0725 49.625 54.0104 49.7568 53.9773L49.6587 53.8076C49.4812 53.5005 49.2458 53.3078 48.9525 53.2294C48.6592 53.151 48.2823 53.2449 47.8217 53.5112C47.5146 53.6887 47.2256 53.8881 46.9547 54.1094C46.6791 54.3226 46.4555 54.5327 46.2841 54.7396L45.213 53.4183C45.2994 53.3252 45.41 53.2182 45.5448 53.0971C45.6831 52.9633 45.8381 52.8305 46.0099 52.6988C46.1771 52.5591 46.357 52.4227 46.5497 52.2898C46.7458 52.1441 46.9488 52.0105 47.1589 51.8891ZM58.2535 47.6748L55.5385 49.2443L58.3692 54.141L56.5632 55.185L52.8777 48.8096L57.3987 46.1961L58.2535 47.6748ZM69.4113 48.0003C69.1932 48.1264 68.9535 48.2434 68.6924 48.3512C68.436 48.4671 68.1807 48.5662 67.9264 48.6485C67.6721 48.7308 67.4357 48.7974 67.2172 48.8483C66.9986 48.8992 66.8228 48.9307 66.6897 48.943L66.1724 47.2368C66.4339 47.2043 66.7566 47.1471 67.1405 47.0653C67.5279 46.9707 67.964 46.7833 68.4488 46.5031C69.0063 46.1808 69.3537 45.8398 69.4908 45.4803C69.6279 45.1207 69.5937 44.7631 69.3882 44.4076C69.2621 44.1894 69.1085 44.0357 68.9274 43.9463C68.7498 43.8441 68.5545 43.7953 68.3415 43.7998C68.1238 43.7963 67.8925 43.8438 67.6476 43.9422C67.4061 44.028 67.1601 44.1432 66.9096 44.288L66.2066 44.6944L65.3658 43.2399L66.1658 42.7775C66.3435 42.6747 66.5039 42.5605 66.6468 42.4347C66.7978 42.3043 66.9169 42.1654 67.0042 42.0179C67.0867 41.8624 67.127 41.699 67.125 41.5276C67.1264 41.3436 67.0687 41.1505 66.9519 40.9485C66.8632 40.795 66.7538 40.6803 66.6237 40.6046C66.4937 40.5288 66.3552 40.4849 66.2081 40.4729C66.0691 40.4563 65.9215 40.4715 65.7655 40.5186C65.6128 40.5529 65.4678 40.6098 65.3305 40.6892C64.983 40.89 64.6902 41.1294 64.4519 41.4073C64.2217 41.6805 64.0298 41.9639 63.8762 42.2576L62.4701 41.3078C62.5526 41.1522 62.6531 40.981 62.7714 40.794C62.8978 40.6024 63.045 40.4095 63.213 40.2153C63.3811 40.0211 63.5683 39.8321 63.7746 39.6481C63.989 39.4595 64.2295 39.2881 64.4961 39.134C64.989 38.849 65.4483 38.6644 65.8739 38.5801C66.3029 38.483 66.6976 38.4758 67.0581 38.5585C67.4138 38.6332 67.7324 38.7832 68.0137 39.0087C68.2903 39.2261 68.5267 39.5045 68.7229 39.8439C68.9144 40.1752 69.0083 40.5521 69.0046 40.9747C68.9963 41.3892 68.8812 41.7683 68.6595 42.1121C69.1986 42.0376 69.6881 42.1104 70.128 42.3305C70.5712 42.5378 70.9353 42.888 71.2203 43.3809C71.4445 43.7687 71.5877 44.1657 71.6499 44.5717C71.7075 44.9696 71.669 45.3692 71.5344 45.7705C71.3951 46.1636 71.151 46.5526 70.8022 46.9376C70.4567 47.3098 69.9931 47.664 69.4113 48.0003Z" fill="#F04637"/>
<path d="M32.0982 24.6016C33.1394 22.1139 35.7124 20.6265 38.3878 20.9657L40.8408 21.2768C42.9224 21.5407 45.0244 20.9762 46.6938 19.705L48.661 18.207C50.8065 16.5732 53.7784 16.5716 55.9258 18.2031L57.8946 19.6989C59.5654 20.9683 61.668 21.5305 63.7493 21.2643L66.202 20.9506C68.877 20.6084 71.4516 22.093 72.4955 24.5795L73.4526 26.8594C74.2648 28.7941 75.8046 30.3323 77.7402 31.1424L80.0212 32.097C82.5088 33.1382 83.9962 35.7112 83.657 38.3865L83.346 40.8395C83.082 42.9212 83.6465 45.0232 84.9177 46.6925L86.4157 48.6597C88.0495 50.8053 88.0511 53.7772 86.4197 55.9245L84.9238 57.8934C83.6544 59.5642 83.0922 61.6668 83.3585 63.7481L83.6722 66.2008C84.0143 68.8757 82.5297 71.4503 80.0432 72.4942L77.7633 73.4514C75.8286 74.2636 74.2905 75.8034 73.4803 77.739L72.5257 80.0199C71.4845 82.5076 68.9115 83.995 66.2362 83.6558L63.7832 83.3448C61.7016 83.0808 59.5996 83.6453 57.9302 84.9165L55.963 86.4145C53.8174 88.0483 50.8455 88.0499 48.6982 86.4184L46.7293 84.9226C45.0586 83.6532 42.956 83.091 40.8746 83.3572L38.422 83.6709C35.747 84.0131 33.1724 82.5285 32.1285 80.042L31.1713 77.7621C30.3591 75.8274 28.8193 74.2892 26.8837 73.4791L24.6028 72.5245C22.1151 71.4833 20.6277 68.9103 20.9669 66.235L21.278 63.782C21.5419 61.7003 20.9775 59.5983 19.7062 57.929L18.2082 55.9618C16.5744 53.8162 16.5728 50.8443 18.2043 48.697L19.7001 46.7281C20.9695 45.0573 21.5317 42.9547 21.2655 40.8734L20.9518 38.4207C20.6096 35.7458 22.0942 33.1712 24.5807 32.1273L26.8606 31.1701C28.7953 30.3579 30.3335 28.8181 31.1436 26.8825L32.0982 24.6016Z" stroke="#F04637" stroke-width="2"/>
</svg>
