<svg width="97" height="97" viewBox="0 0 97 97" fill="none" xmlns="http://www.w3.org/2000/svg">
<path d="M29.3045 47.9297L31.2104 40.8166L33.2254 41.3565L31.7615 46.8198L33.6141 47.3162L35.078 41.8529L37.0929 42.3928L35.629 47.8561L37.4682 48.3489L38.9321 42.8856L40.947 43.4255L39.041 50.5386L29.3045 47.9297ZM45.3862 50.7314C45.5846 50.7846 45.7751 50.8308 45.9578 50.8701C46.1406 50.9094 46.2884 50.9345 46.4014 50.9455L46.8109 49.4174C46.7346 49.3776 46.6177 49.327 46.4603 49.2654C46.3028 49.2039 46.1565 49.1551 46.0213 49.1188C45.8319 49.0681 45.648 49.0333 45.4695 49.0145C45.3024 48.989 45.1472 48.9909 45.0041 49.0202C44.861 49.0495 44.7389 49.1086 44.6378 49.1974C44.5367 49.2863 44.4644 49.4119 44.4209 49.5741C44.3363 49.8897 44.3808 50.1383 44.5544 50.3201C44.7393 50.4953 45.0166 50.6324 45.3862 50.7314ZM46.8038 44.7919C47.3988 44.9514 47.8765 45.1518 48.237 45.3934C48.5974 45.6349 48.861 45.9132 49.0278 46.2285C49.2036 46.5461 49.2927 46.8986 49.2953 47.2857C49.2978 47.6729 49.2399 48.0874 49.1215 48.5291L47.9982 52.7213C47.6928 52.7071 47.2723 52.6717 46.7367 52.6151C46.1987 52.5676 45.5646 52.446 44.8343 52.2503C44.3745 52.1271 43.9662 51.9742 43.6093 51.7916C43.2614 51.6115 42.9764 51.395 42.7542 51.1422C42.5345 50.8804 42.3924 50.5814 42.3279 50.2453C42.2633 49.9091 42.289 49.5247 42.405 49.092C42.5161 48.6772 42.6915 48.3474 42.931 48.1024C43.1796 47.8598 43.4666 47.6903 43.792 47.5939C44.1174 47.4975 44.47 47.4615 44.8499 47.486C45.2323 47.5015 45.6173 47.5612 46.005 47.6651C46.2664 47.7351 46.4927 47.8102 46.6838 47.8904C46.8863 47.964 47.0458 48.0358 47.1624 48.1056L47.2131 47.9163C47.3049 47.5737 47.2749 47.271 47.1231 47.0081C46.9713 46.7452 46.6385 46.5449 46.1246 46.4072C45.782 46.3154 45.4367 46.2518 45.0886 46.2166C44.743 46.1723 44.4364 46.1626 44.1688 46.1875L44.3467 44.4959C44.4736 44.4912 44.6275 44.4938 44.8084 44.5037C45.0008 44.5069 45.2043 44.5228 45.4189 44.5513C45.6359 44.5708 45.8595 44.6017 46.0897 44.6441C46.3314 44.6798 46.5694 44.7291 46.8038 44.7919ZM57.6261 49.6629L54.597 48.8513L53.1331 54.3146L51.1182 53.7747L53.0241 46.6616L58.0682 48.0131L57.6261 49.6629ZM70.8114 51.6451C70.7196 51.9877 70.5639 52.2986 70.3441 52.5779C70.1243 52.8572 69.8664 53.1166 69.5703 53.3561C69.2766 53.5867 68.9583 53.8009 68.6154 53.9989C68.2725 54.1969 67.9377 54.3826 67.611 54.5559C67.4419 54.6459 67.2545 54.7503 67.0488 54.8691C66.8545 54.9813 66.6634 55.0992 66.4757 55.2228C66.288 55.3464 66.1162 55.4647 65.9603 55.5775C65.8159 55.6838 65.7181 55.7783 65.6669 55.8612L69.6968 56.941L69.2438 58.6314L62.9962 56.9574C63.0048 56.8534 63.0296 56.7247 63.0706 56.5715C63.1117 56.4182 63.1407 56.31 63.1576 56.2469C63.2735 55.8142 63.4474 55.4356 63.6793 55.1113C63.9202 54.7893 64.1944 54.5052 64.5019 54.2591C64.8118 54.004 65.1427 53.7786 65.4947 53.583C65.8556 53.3899 66.2121 53.1955 66.564 52.9999C66.836 52.8506 67.0907 52.7111 67.3284 52.5815C67.5684 52.4429 67.7835 52.3073 67.9737 52.1747C68.1662 52.033 68.326 51.8874 68.4531 51.7378C68.5825 51.5793 68.6714 51.4098 68.7197 51.2295C68.826 50.8329 68.7882 50.5232 68.6063 50.3005C68.4244 50.0779 68.1667 49.9218 67.8331 49.8325C67.5897 49.7672 67.3489 49.7462 67.1108 49.7694C66.8841 49.7859 66.6661 49.8241 66.4568 49.884C66.259 49.9373 66.0825 50.0011 65.9272 50.0755C65.7745 50.1408 65.6581 50.1966 65.578 50.2428L64.9542 48.5683C65.4499 48.3049 65.9906 48.1261 66.5763 48.0318C67.1734 47.9309 67.774 47.9614 68.378 48.1233C68.928 48.2706 69.3844 48.4605 69.7472 48.693C70.1101 48.9255 70.3863 49.1928 70.5759 49.4949C70.777 49.7903 70.8914 50.1205 70.9192 50.4855C70.9585 50.8438 70.9226 51.2304 70.8114 51.6451Z" fill="#F04637"/>
<path d="M41.3822 81.7776L2.54 36.0981L61.192 17.3084L95.0128 60.8334L41.3822 81.7776Z" stroke="#F04637" stroke-width="2"/>
</svg>
