<svg width="110" height="110" viewBox="0 0 110 110" fill="none" xmlns="http://www.w3.org/2000/svg">
<path d="M16.018 63.8269C17.2728 63.107 18.3654 62.7761 19.2957 62.8342C20.2213 62.8842 20.9753 63.4092 21.5578 64.4093C22.145 65.4174 22.2301 66.3423 21.8132 67.1841C21.3915 68.0178 20.5492 68.797 19.2863 69.5216L18.6913 69.8629L20.326 72.6695L18.4317 73.7564L13.619 65.4938C13.9849 65.1763 14.3892 64.869 14.8318 64.572C15.2745 64.275 15.6699 64.0267 16.018 63.8269ZM17.0766 65.3662C16.939 65.4452 16.8037 65.5282 16.6708 65.6152C16.5459 65.6976 16.4373 65.7707 16.3448 65.8345L17.7541 68.254L18.3491 67.9126C19.0049 67.5364 19.447 67.1643 19.6756 66.7965C19.9042 66.4286 19.8775 66.0027 19.5957 65.5188C19.4595 65.285 19.3022 65.1169 19.1239 65.0148C18.9537 64.908 18.7618 64.8567 18.5482 64.8609C18.338 64.8523 18.1102 64.897 17.8647 64.9948C17.6145 65.0845 17.3518 65.2083 17.0766 65.3662ZM32.2654 65.8197C32.0072 65.5804 31.7322 65.3401 31.4403 65.0986C31.1566 64.8526 30.8728 64.6065 30.5891 64.3604L27.3104 66.2414C27.3836 66.6083 27.4529 66.9775 27.518 67.349C27.5913 67.7158 27.668 68.07 27.748 68.4114L25.7808 69.54C25.5704 68.4556 25.3837 67.449 25.2208 66.5203C25.0579 65.5916 24.9127 64.7118 24.7853 63.8811C24.6659 63.0457 24.5596 62.2513 24.4663 61.4978C24.3765 60.7316 24.3041 59.9768 24.2492 59.2336L26.0586 58.1955C26.6721 58.6183 27.2909 59.0595 27.9151 59.5192C28.5345 59.9708 29.1751 60.4587 29.8369 60.9829C30.5067 61.5024 31.2065 62.064 31.9361 62.6676C32.6657 63.2712 33.4514 63.9341 34.2933 64.6562L32.2654 65.8197ZM26.2177 60.6383C26.2477 60.7825 26.2833 60.9826 26.3244 61.2388C26.3656 61.4949 26.4134 61.7903 26.4679 62.1248C26.5224 62.4594 26.5812 62.8292 26.6442 63.2342C26.7154 63.6345 26.7919 64.0533 26.8738 64.4906L29.266 63.1181C28.9251 62.8295 28.5976 62.5547 28.2836 62.2937C27.9696 62.0327 27.676 61.7976 27.403 61.5884C27.138 61.3746 26.904 61.186 26.7009 61.0228C26.4978 60.8595 26.3367 60.7314 26.2177 60.6383ZM34.4533 55.5098L35.2566 56.8889L35.8759 56.5336C36.4992 56.176 37.082 55.9062 37.6241 55.7243C38.1743 55.5378 38.6788 55.4581 39.1375 55.4855C39.6044 55.5081 40.0278 55.6418 40.4079 55.8864C40.788 56.131 41.1237 56.5033 41.415 57.0034C41.9552 57.9308 42.0192 58.8195 41.6069 59.6694C41.198 60.5065 40.3662 61.285 39.1114 62.0049C38.7714 62.2 38.371 62.4028 37.9104 62.6133C37.4578 62.8191 36.9824 62.995 36.4842 63.141L31.7138 54.951L37.2998 51.7462L38.2299 53.3431L34.4533 55.5098ZM38.2713 60.3402C38.5223 60.1963 38.7517 60.0431 38.9596 59.8808C39.1675 59.7185 39.333 59.5483 39.456 59.3701C39.5824 59.1792 39.656 58.9809 39.6767 58.7754C39.6974 58.5698 39.6396 58.3501 39.5034 58.1162C39.3624 57.8743 39.1988 57.7046 39.0124 57.6071C38.826 57.5096 38.6179 57.4676 38.3881 57.481C38.1583 57.4945 37.9045 57.5594 37.6267 57.6758C37.3488 57.7921 37.048 57.9432 36.7242 58.129L36.1656 58.4495L37.5044 60.748C37.5981 60.705 37.7081 60.6527 37.8342 60.5911C37.9637 60.5167 38.1094 60.4331 38.2713 60.3402ZM44.8549 52.9961C45.0945 53.4074 45.3592 53.7506 45.6489 54.0255C45.9467 54.2958 46.2592 54.4985 46.5864 54.6336C46.9169 54.756 47.2573 54.8028 47.6078 54.7739C47.9582 54.745 48.3115 54.6284 48.6677 54.4241C49.0158 54.2243 49.2899 53.981 49.49 53.694C49.6982 53.4024 49.8272 53.0863 49.8772 52.7456C49.9306 52.3921 49.9095 52.0222 49.8141 51.6358C49.7267 51.2448 49.5633 50.8436 49.3237 50.4323C49.0841 50.021 48.8154 49.6802 48.5175 49.4099C48.2231 49.1269 47.9106 48.9242 47.5801 48.8018C47.253 48.6667 46.9102 48.6159 46.5516 48.6494C46.2012 48.6783 45.852 48.7926 45.5039 48.9923C45.1477 49.1967 44.8719 49.4463 44.6765 49.7414C44.4764 50.0283 44.3497 50.3485 44.2963 50.7019C44.2463 51.0426 44.2674 51.4126 44.3594 51.8117C44.4549 52.1981 44.62 52.5929 44.8549 52.9961ZM51.2788 49.3106C51.6968 50.0284 51.9563 50.7242 52.0572 51.398C52.1614 52.0591 52.1354 52.682 51.9791 53.2667C51.8181 53.8432 51.5325 54.3729 51.1225 54.8557C50.7205 55.3338 50.224 55.7423 49.633 56.0814C49.0582 56.4112 48.4618 56.6296 47.8438 56.7367C47.2257 56.8439 46.6207 56.8251 46.0288 56.6805C45.4322 56.5278 44.8673 56.244 44.334 55.829C43.796 55.406 43.3179 54.8356 42.8998 54.1178C42.4817 53.4 42.2287 52.7059 42.1406 52.0355C42.0479 51.3571 42.0837 50.7232 42.2481 50.1339C42.4206 49.54 42.7038 49.0063 43.0977 48.5328C43.4996 48.0547 43.9799 47.6554 44.5385 47.3349C45.1133 47.0052 45.7097 46.7867 46.3278 46.6796C46.9459 46.5725 47.5532 46.5953 48.1498 46.748C48.7463 46.9007 49.3136 47.1885 49.8517 47.6115C50.385 48.0265 50.8607 48.5928 51.2788 49.3106ZM57.5913 40.1045L58.5284 41.7135L55.9905 43.1696L59.9364 49.9442L58.0421 51.031L54.0961 44.2564L51.5581 45.7125L50.621 44.1035L57.5913 40.1045ZM69.5446 44.4317C69.2864 44.1925 69.0114 43.9521 68.7196 43.7107C68.4358 43.4646 68.1521 43.2185 67.8683 42.9724L64.5896 44.8535C64.6629 45.2203 64.7321 45.5895 64.7973 45.961C64.8705 46.3279 64.9472 46.682 65.0273 47.0234L63.06 48.1521C62.8496 47.0677 62.663 46.0611 62.5 45.1323C62.3371 44.2036 62.1919 43.3239 62.0645 42.4931C61.9451 41.6578 61.8388 40.8633 61.7456 40.1098C61.6557 39.3436 61.5834 38.5889 61.5285 37.8456L63.3378 36.8076C63.9513 37.2303 64.5701 37.6715 65.1943 38.1312C65.8138 38.5828 66.4544 39.0707 67.1161 39.5949C67.786 40.1144 68.4857 40.676 69.2153 41.2796C69.9449 41.8832 70.7307 42.5461 71.5725 43.2682L69.5446 44.4317ZM63.4969 39.2503C63.5269 39.3945 63.5625 39.5947 63.6037 39.8508C63.6449 40.1069 63.6927 40.4023 63.7472 40.7369C63.8016 41.0715 63.8604 41.4413 63.9235 41.8462C63.9946 42.2466 64.0712 42.6654 64.153 43.1026L66.5453 41.7301C66.2044 41.4415 65.8769 41.1667 65.5628 40.9057C65.2488 40.6447 64.9553 40.4096 64.6822 40.2004C64.4172 39.9866 64.1832 39.7981 63.9801 39.6348C63.777 39.4716 63.616 39.3434 63.4969 39.2503ZM73.8762 41.9466L68.9931 33.563L74.6762 30.3025L75.5992 31.8873L71.8105 34.061L72.7688 35.7062L76.1325 33.7764L77.0344 35.3249L73.6707 37.2547L74.8475 39.275L78.9155 36.9411L79.8386 38.5258L73.8762 41.9466ZM79.8061 27.3594C80.1068 27.5419 80.4654 27.7774 80.8817 28.0657C81.3015 28.3414 81.7465 28.651 82.2166 28.9946C82.6902 29.3255 83.1667 29.6707 83.6463 30.0305C84.1258 30.3902 84.5768 30.7286 84.9992 31.0458C84.933 30.5243 84.8625 29.9675 84.7878 29.3756C84.713 28.7836 84.6453 28.2038 84.5846 27.636C84.5273 27.0556 84.479 26.5183 84.4398 26.0244C84.4039 25.5177 84.3813 25.0895 84.372 24.7398L86.0963 23.7505C86.5014 24.2605 86.9383 24.8438 87.4071 25.5002C87.8793 26.1439 88.3581 26.8269 88.8435 27.549C89.3324 28.2585 89.8155 28.9767 90.2928 29.7035C90.7783 30.4256 91.2298 31.1081 91.6474 31.7509L89.8016 32.8098C89.3028 32.0092 88.7537 31.1406 88.1542 30.2041C87.5547 29.2676 86.9303 28.3347 86.2809 27.4052C86.3325 27.8276 86.389 28.2955 86.4505 28.809C86.512 29.3225 86.5735 29.836 86.6349 30.3495C86.7045 30.8583 86.7687 31.3487 86.8276 31.8207C86.8818 32.2845 86.9297 32.6821 86.9714 33.0132L85.6478 33.7726C85.3794 33.5715 85.0562 33.3319 84.6782 33.0538C84.2955 32.7677 83.8953 32.47 83.4776 32.1609C83.0681 31.8471 82.6544 31.5356 82.2368 31.2265C81.8191 30.9174 81.4387 30.6352 81.0957 30.3801C81.5832 31.4024 82.0862 32.4051 82.6047 33.388C83.1232 34.371 83.6076 35.2767 84.0577 36.1052L82.2119 37.1642C81.8591 36.4843 81.4845 35.7577 81.0881 34.9844C80.6998 34.2065 80.3139 33.4326 79.9303 32.6628C79.5501 31.8802 79.1927 31.1276 78.8582 30.4049C78.527 29.6695 78.2399 29.0004 77.9967 28.3974L79.8061 27.3594ZM41.5881 84.9071C40.22 85.6921 38.9549 85.9122 37.7928 85.5675C36.6388 85.2181 35.6555 84.3458 34.8428 82.9505C34.4388 82.2569 34.1887 81.5773 34.0926 80.9115C33.9917 80.2377 34.0235 79.6061 34.1879 79.0168C34.3476 78.4195 34.6342 77.8731 35.0477 77.3776C35.4611 76.8822 35.9755 76.4579 36.5908 76.1049C36.947 75.9006 37.2872 75.743 37.6116 75.6323C37.9312 75.5134 38.2214 75.4276 38.4823 75.3748C38.7385 75.3139 38.9605 75.278 39.1485 75.267C39.3365 75.2559 39.4747 75.252 39.5629 75.2552L39.9043 77.093C39.5654 77.1045 39.1937 77.1617 38.7892 77.2647C38.3928 77.363 37.976 77.5375 37.5389 77.7883C37.2474 77.9555 36.9882 78.1688 36.7613 78.4281C36.5424 78.6828 36.3871 78.9818 36.2953 79.3249C36.207 79.6554 36.1967 80.0271 36.2644 80.4402C36.3322 80.8532 36.507 81.3017 36.7889 81.7856C37.0144 82.1727 37.2662 82.5124 37.5445 82.8047C37.8261 83.0843 38.1305 83.2916 38.4577 83.4267C38.7929 83.5572 39.1566 83.6068 39.5488 83.5755C39.9363 83.5361 40.3486 83.391 40.7857 83.1402C41.061 82.9822 41.2985 82.8244 41.4983 82.6668C41.6981 82.5091 41.8713 82.3614 42.0178 82.2235C42.1596 82.0776 42.2788 81.9392 42.3755 81.8084C42.4721 81.6777 42.559 81.5579 42.636 81.4491L44.039 82.6617C43.8658 82.9763 43.5739 83.3375 43.1633 83.7452C42.7528 84.1529 42.2277 84.5402 41.5881 84.9071ZM52.3233 70.2746C52.5018 70.581 52.6125 70.9102 52.6555 71.2622C52.6985 71.6141 52.7004 71.9789 52.6611 72.3565C52.6171 72.7261 52.5442 73.1015 52.4422 73.4828C52.3403 73.8641 52.2353 74.2309 52.1274 74.5834C52.0717 74.766 52.0133 74.9716 51.9522 75.2004C51.8944 75.4165 51.843 75.6343 51.798 75.8537C51.7531 76.0732 51.7155 76.2777 51.6855 76.4671C51.6588 76.6438 51.6568 76.7794 51.6795 76.874L55.2982 74.7979L56.179 76.3101L50.5688 79.5288C50.5009 79.4494 50.427 79.3411 50.3472 79.204C50.2673 79.0669 50.2109 78.9701 50.1781 78.9137C49.9526 78.5265 49.8066 78.1368 49.7401 77.7446C49.6818 77.3477 49.6739 76.954 49.7166 76.5637C49.7546 76.1653 49.8286 75.7732 49.9386 75.3872C50.0567 74.9967 50.1708 74.6084 50.2808 74.2225C50.3671 73.9255 50.4482 73.6476 50.5243 73.3888C50.5957 73.1219 50.6515 72.8746 50.6918 72.6471C50.7273 72.4115 50.7369 72.1962 50.7205 72.0011C50.6994 71.798 50.6419 71.6158 50.548 71.4545C50.3413 71.0997 50.0945 70.9077 49.8075 70.8786C49.5206 70.8496 49.2273 70.921 48.9278 71.0928C48.7092 71.2182 48.5239 71.373 48.3719 71.557C48.2233 71.7284 48.0962 71.9089 47.9906 72.0986C47.8885 72.2755 47.809 72.4449 47.752 72.6067C47.6903 72.7605 47.6476 72.8818 47.6238 72.9708L45.9924 72.2282C46.156 71.6932 46.4115 71.1861 46.7589 70.707C47.1097 70.2152 47.5563 69.8138 48.0987 69.5026C48.5925 69.2192 49.0504 69.0319 49.4724 68.9404C49.8944 68.8489 50.2798 68.843 50.6286 68.9227C50.9808 68.9896 51.2964 69.1421 51.5755 69.3801C51.8579 69.6054 52.1072 69.9036 52.3233 70.2746ZM62.0494 67.3253C62.8715 68.7367 63.2321 69.977 63.1313 71.0463C63.0339 72.1029 62.5116 72.9029 61.5644 73.4463C60.6172 73.9897 59.654 74.042 58.6747 73.6032C57.6988 73.1516 56.7998 72.2201 55.9778 70.8088C55.5691 70.1071 55.2762 69.4466 55.0991 68.8273C54.93 68.2034 54.8711 67.6292 54.9221 67.105C54.9732 66.5807 55.1286 66.115 55.3882 65.7078C55.6479 65.3006 56.0084 64.9646 56.4699 64.6998C57.417 64.1564 58.3786 64.1105 59.3545 64.5621C60.3337 65.0009 61.2321 65.922 62.0494 67.3253ZM60.2037 68.3843C59.9594 67.9649 59.7184 67.5974 59.4806 67.2819C59.2381 66.9584 58.9995 66.6971 58.7649 66.4982C58.5302 66.2993 58.296 66.1754 58.0623 66.1265C57.8287 66.0777 57.5985 66.1183 57.3718 66.2483C57.1451 66.3784 56.9948 66.5561 56.9208 66.7814C56.855 67.0021 56.8463 67.2654 56.8948 67.5711C56.9513 67.8722 57.0604 68.2078 57.2219 68.5778C57.3787 68.9397 57.5793 69.3304 57.8235 69.7498C58.0678 70.1692 58.3112 70.5406 58.5537 70.8642C58.7961 71.1878 59.0347 71.449 59.2694 71.648C59.5122 71.8422 59.7463 71.9661 59.9719 72.0196C60.2056 72.0685 60.4358 72.0279 60.6624 71.8978C60.8891 71.7678 61.0394 71.5901 61.1134 71.3647C61.1874 71.1394 61.1961 70.8761 61.1395 70.575C61.0829 70.2739 60.9739 69.9384 60.8123 69.5684C60.6508 69.1983 60.4479 68.8036 60.2037 68.3843ZM63.1147 63.4699C63.2931 63.2385 63.4726 62.9903 63.6531 62.7253C63.837 62.4476 64.0081 62.1665 64.1664 61.882C64.32 61.5895 64.4591 61.2998 64.5838 61.0131C64.7118 60.7137 64.8108 60.4202 64.8809 60.1325L66.1438 59.4079L71.0269 67.7915L69.2176 68.8295L65.7014 62.7929C65.5525 63.0935 65.3682 63.3983 65.1486 63.7073C64.9242 64.0082 64.6985 64.2883 64.4715 64.5476L63.1147 63.4699ZM75.2795 60.09C75.1014 60.1922 74.9205 60.3175 74.7369 60.4658C74.5533 60.6142 74.4213 60.7491 74.3408 60.8706C74.3596 60.9029 74.3838 60.9536 74.4133 61.0228C74.4508 61.0873 74.4837 61.1437 74.5119 61.1921C74.681 61.4825 74.861 61.7451 75.0518 61.9799C75.2426 62.2148 75.4429 62.4011 75.6528 62.5389C75.8627 62.6768 76.0815 62.7557 76.3092 62.7757C76.5321 62.7877 76.7651 62.724 77.0079 62.5846C77.2103 62.4685 77.3568 62.3306 77.4475 62.171C77.5415 61.9987 77.5955 61.8225 77.6094 61.6424C77.6314 61.4576 77.618 61.277 77.5692 61.1005C77.5238 60.9113 77.4589 60.7442 77.3743 60.599C77.1347 60.1877 76.8463 59.9335 76.509 59.8365C76.175 59.7268 75.7652 59.8113 75.2795 60.09ZM74.6928 58.5543C75.219 58.2524 75.7066 58.0696 76.1554 58.0057C76.6077 57.9292 77.0217 57.9445 77.3974 58.0518C77.7731 58.159 78.1075 58.3438 78.4006 58.606C78.6938 58.8682 78.946 59.1808 79.1574 59.5437C79.3453 59.8663 79.4772 60.2318 79.5531 60.6402C79.637 61.044 79.6374 61.4526 79.5543 61.8662C79.4792 62.2751 79.3072 62.675 79.0381 63.0661C78.7772 63.4526 78.3957 63.7898 77.8938 64.0777C76.8819 64.6583 75.9272 64.781 75.0299 64.4458C74.1326 64.1105 73.3574 63.3824 72.7045 62.2614C72.2347 61.4549 71.9445 60.6691 71.8337 59.9041C71.723 59.1391 71.7762 58.4146 71.9934 57.7305C72.2139 57.0336 72.5887 56.3882 73.1176 55.7943C73.6499 55.1876 74.3266 54.6433 75.1476 54.1615C75.3094 54.4022 75.4689 54.6389 75.626 54.8716C75.7784 55.0962 75.9379 55.3329 76.1044 55.5817C75.6962 55.8266 75.3311 56.0899 75.0091 56.3715C74.6905 56.6404 74.4237 56.9333 74.2087 57.2503C74.0018 57.5627 73.8572 57.8985 73.7749 58.2578C73.6878 58.6091 73.6799 58.9848 73.751 59.3852C73.8822 59.2023 74.0314 59.0414 74.1988 58.9023C74.3663 58.7632 74.5309 58.6472 74.6928 58.5543ZM89.0298 50.9422L86.3097 52.5028L89.1564 57.3901L87.3471 58.4282L83.6407 52.065L88.1702 49.4663L89.0298 50.9422ZM94.5923 52.9964C94.8037 53.3593 94.8484 53.7049 94.7264 54.0331C94.6078 54.3487 94.4027 54.5901 94.1113 54.7573C93.8198 54.9245 93.5027 54.9827 93.1599 54.9319C92.8205 54.8684 92.5451 54.6552 92.3337 54.2922C92.1223 53.9293 92.0759 53.5901 92.1945 53.2745C92.3166 52.9463 92.5233 52.6985 92.8147 52.5313C93.1062 52.3641 93.4216 52.3123 93.761 52.3758C94.1039 52.4266 94.381 52.6335 94.5923 52.9964Z" fill="#F04637"/>
<circle cx="55" cy="55" r="54" stroke="#F04637" stroke-width="2"/>
</svg>
