<svg width="203" height="133" viewBox="0 0 203 133" fill="none" xmlns="http://www.w3.org/2000/svg">
<path d="M53.2947 82.597L33 59.5317L93.7218 16L154.444 59.5317L133.824 82.597H53.2947Z" fill="#6C63FF"/>
<path d="M53.2947 82.597L33 59.5317L93.7218 16L154.444 59.5317L133.824 82.597H53.2947Z" fill="#25374B"/>
<path d="M151.521 62.4554H33V114.271H151.521V62.4554Z" fill="#475B73"/>
<path d="M151.521 62.4554H33V114.271H151.521V62.4554Z" fill="url(#paint0_linear)"/>
<path d="M154.444 132.788H33V59.5317L93.7218 96.2412L154.444 59.5317V132.788Z" fill="#ACC1D6"/>
<path d="M138.952 34.9749L126.072 25.0945L91.9543 69.6092L73.0053 55.0729L63.1293 67.9585L88.5164 87.4046L95.0266 92.2858L138.952 34.9749Z" fill="#F04637"/>
<path d="M191.71 82.4665L192.781 86.3738L189.183 84.7386L177.105 78.0444L191.71 82.4665Z" fill="#AFD8C7"/>
<path d="M192.781 86.3738L186.452 84.6724L188.187 84.1854L192.781 86.3738Z" fill="#63C0C4"/>
<path d="M191.71 82.4665L193.534 79.2452L177.105 78.0444L191.71 82.4665Z" fill="url(#paint1_linear)"/>
<path d="M177.105 78.0444L189.183 84.7386L186.238 89.3231L177.105 78.0444Z" fill="url(#paint2_linear)"/>
<path d="M190.639 89.6507C190.679 89.6438 190.708 89.6223 190.748 89.5972C190.883 89.4933 190.91 89.2981 190.806 89.1635C190.481 88.7344 190.12 88.3411 189.725 87.9947C189.603 87.8781 189.404 87.8948 189.288 88.0169C189.178 88.1428 189.187 88.3382 189.309 88.4548C189.675 88.7866 190.008 89.1471 190.311 89.5471C190.39 89.6417 190.516 89.6788 190.639 89.6507Z" fill="#63C0C4"/>
<path d="M179.206 121.709C179.153 121.546 179.234 121.369 179.397 121.316C180.311 121 181.182 120.5 182.004 119.847C182.139 119.743 182.33 119.759 182.434 119.894C182.537 120.028 182.521 120.22 182.387 120.324C181.51 121.031 180.577 121.563 179.598 121.9C179.587 121.903 179.587 121.903 179.576 121.907C179.421 121.946 179.255 121.861 179.206 121.709ZM183.334 119.018C183.208 118.908 183.192 118.709 183.302 118.583C183.962 117.821 184.522 116.971 184.953 116.055C185.023 115.9 185.212 115.833 185.363 115.91C185.517 115.98 185.584 116.168 185.507 116.32C185.051 117.286 184.458 118.183 183.757 118.988C183.713 119.038 183.662 119.067 183.608 119.085C183.521 119.113 183.413 119.094 183.334 119.018ZM185.806 114.737C185.641 114.689 185.545 114.522 185.593 114.356L185.627 114.219C185.862 113.312 186.012 112.344 186.056 111.349C186.061 111.179 186.211 111.047 186.377 111.059C186.547 111.063 186.679 111.213 186.667 111.379C186.618 112.417 186.461 113.418 186.218 114.375L186.18 114.519C186.151 114.631 186.067 114.707 185.962 114.735C185.918 114.749 185.86 114.756 185.806 114.737ZM186.377 109.814C186.207 109.827 186.056 109.696 186.054 109.522C186.001 108.56 185.869 107.539 185.658 106.477C185.627 106.307 185.737 106.145 185.9 106.11C186.07 106.079 186.224 106.185 186.259 106.348C186.474 107.438 186.609 108.488 186.669 109.472C186.675 109.621 186.58 109.754 186.446 109.786C186.417 109.807 186.399 109.807 186.377 109.814ZM185.614 104.892C185.448 104.935 185.279 104.839 185.237 104.673C185.216 104.589 185.195 104.506 185.174 104.423C184.826 104.482 184.479 104.523 184.129 104.553C183.959 104.566 183.815 104.438 183.802 104.268C183.789 104.098 183.917 103.954 184.087 103.941C184.398 103.918 184.705 103.884 185.006 103.828C184.816 103.169 184.602 102.469 184.341 101.718C184.288 101.555 184.377 101.382 184.532 101.325C184.688 101.268 184.868 101.36 184.925 101.516C185.189 102.296 185.41 103.017 185.606 103.699C186.088 103.59 186.555 103.438 187.005 103.249C187.165 103.185 187.345 103.259 187.408 103.418C187.472 103.578 187.398 103.758 187.239 103.822C186.767 104.018 186.271 104.174 185.775 104.293C185.792 104.366 185.81 104.438 185.834 104.514C185.876 104.681 185.781 104.85 185.614 104.892ZM188.512 102.836C188.419 102.698 188.453 102.507 188.595 102.406C189.111 102.052 189.581 101.646 189.989 101.201C190.241 100.92 190.478 100.615 190.694 100.298C190.786 100.154 190.978 100.115 191.118 100.214C191.262 100.305 191.3 100.497 191.201 100.638C190.97 100.983 190.715 101.307 190.441 101.613C190.003 102.098 189.497 102.539 188.941 102.919C188.912 102.94 188.879 102.951 188.847 102.962C188.731 102.993 188.59 102.949 188.512 102.836ZM182.21 104.51C181.117 104.38 180.086 104.09 179.133 103.631C178.981 103.554 178.918 103.377 178.988 103.222C179.065 103.07 179.246 102.999 179.398 103.076C180.286 103.502 181.252 103.777 182.277 103.899C182.447 103.922 182.568 104.075 182.549 104.238C182.537 104.368 182.442 104.465 182.326 104.497C182.29 104.515 182.254 104.514 182.21 104.51ZM191.702 99.1038C191.544 99.0411 191.462 98.8633 191.525 98.7046C191.887 97.781 192.098 96.7985 192.154 95.7643C192.159 95.5943 192.308 95.4615 192.474 95.4735C192.644 95.4783 192.777 95.6276 192.764 95.7939C192.704 96.8896 192.478 97.9371 192.094 98.922C192.057 99.0122 191.977 99.0804 191.89 99.1087C191.836 99.1264 191.763 99.1259 191.702 99.1038ZM177.498 102.607C177.279 102.432 177.067 102.242 176.874 102.053C176.308 101.492 175.83 100.812 175.5 100.071C175.433 99.9191 175.499 99.735 175.655 99.6602C175.808 99.5925 175.991 99.6589 176.066 99.815C176.364 100.475 176.795 101.104 177.311 101.604C177.494 101.779 177.684 101.957 177.885 102.114C178.021 102.22 178.041 102.412 177.935 102.549C177.891 102.599 177.837 102.635 177.775 102.649C177.681 102.691 177.584 102.669 177.498 102.607ZM183.724 99.9774C183.282 98.8347 182.838 97.9815 182.335 97.2978C182.231 97.1632 182.265 96.9718 182.4 96.8678C182.534 96.7638 182.726 96.7977 182.829 96.9323C183.372 97.6633 183.838 98.5637 184.3 99.7535C184.364 99.9131 184.283 100.09 184.124 100.154C184.113 100.157 184.102 100.161 184.091 100.164C183.939 100.196 183.777 100.122 183.724 99.9774ZM192.431 94.2252C192.265 94.2493 192.11 94.1252 192.087 93.9587C192.029 93.5024 191.936 93.046 191.813 92.611C191.666 92.0818 191.475 91.5668 191.245 91.0768C191.17 90.9207 191.237 90.7367 191.389 90.669C191.545 90.5941 191.729 90.6605 191.796 90.8129C192.048 91.332 192.246 91.8869 192.403 92.4487C192.529 92.9127 192.626 93.3981 192.691 93.8761C192.711 94.0318 192.612 94.1722 192.464 94.2145C192.464 94.2145 192.442 94.2216 192.431 94.2252ZM175.344 98.4569C175.178 98.463 175.027 98.3317 175.022 98.1653C174.983 97.2642 175.235 96.4484 175.761 95.8082C175.951 95.578 176.173 95.3734 176.424 95.2015C176.566 95.1012 176.753 95.1423 176.853 95.2841C176.946 95.4222 176.912 95.6137 176.77 95.714C176.574 95.8501 176.392 96.0116 176.242 96.1986C175.811 96.7238 175.61 97.3844 175.643 98.1371C175.649 98.2854 175.551 98.4077 175.42 98.4502C175.395 98.4464 175.373 98.4535 175.344 98.4569ZM181.096 96.0302C180.331 95.4677 179.311 95.1567 178.371 95.2043C178.205 95.2104 178.055 95.0791 178.049 94.9126C178.043 94.7462 178.174 94.5952 178.341 94.5891C179.436 94.5389 180.567 94.8797 181.458 95.5335C181.598 95.6322 181.625 95.8277 181.519 95.9644C181.479 96.0257 181.417 96.0578 181.352 96.079C181.269 96.1001 181.175 96.0886 181.096 96.0302Z" fill="#63C0C4"/>
<path d="M177.72 122.295C177.857 122.257 177.952 122.123 177.946 121.975C177.933 121.805 177.79 121.677 177.62 121.691C177.128 121.731 176.637 121.716 176.15 121.64C175.98 121.618 175.824 121.729 175.801 121.898C175.778 122.068 175.888 122.225 176.058 122.248C176.588 122.327 177.123 122.345 177.662 122.302C177.687 122.306 177.705 122.306 177.72 122.295Z" fill="#63C0C4"/>
<path d="M7.15374 69.7995L3.49756 58.1822L3.50655 52.6389L4.91795 48.7311L7.15374 69.7995Z" fill="url(#paint3_linear)"/>
<path d="M7.15375 69.7995L6.08008 49.2303L4.91797 48.7311" fill="#AFD8C7"/>
<path d="M9.55688 49.3501L9.59173 49.3818L12.4625 50.8207L7.1651 69.7441L9.55688 49.3501Z" fill="#63C0C4"/>
<path d="M8.52966 45.2528L5.69504 47.5867L7.1495 69.6586L10.2599 51.5442L8.52966 45.2528Z" fill="url(#paint4_linear)"/>
<path d="M55.5688 14.2011C55.2168 14.7972 54.8109 15.374 54.3701 15.9191C54.2698 16.0471 54.2916 16.2246 54.412 16.3231C54.5404 16.4233 54.7182 16.4017 54.8168 16.2816C55.2783 15.716 55.6969 15.117 56.0617 14.4988C56.1971 14.279 56.3261 14.0498 56.4472 13.8189C56.4887 13.7367 56.4921 13.6385 56.4589 13.5576C56.4368 13.5037 56.3893 13.4529 56.3291 13.4242C56.188 13.3461 56.0117 13.401 55.9337 13.5418C55.8126 13.7726 55.6947 13.9877 55.5688 14.2011Z" fill="#63C0C4"/>
<path d="M6.8719 44.168C6.80325 45.0769 6.76624 46.0334 6.7449 47.0755C6.74614 47.2323 6.86804 47.3641 7.03147 47.3726C7.18858 47.3714 7.32056 47.2499 7.32885 47.0868C7.35019 46.0447 7.38399 45.104 7.44943 44.2109C7.45113 44.1618 7.44489 44.1111 7.42118 44.0651C7.38171 43.9747 7.28824 43.9063 7.18193 43.9012C7.02804 43.8865 6.88813 44.0065 6.8719 44.168Z" fill="#63C0C4"/>
<path d="M8.0549 39.4723C8.02176 39.3914 7.94254 39.3341 7.84898 39.3069C7.69038 39.2748 7.53783 39.3757 7.50574 39.534C7.31332 40.4425 7.15725 41.4161 7.03601 42.4215C7.01979 42.583 7.13054 42.7291 7.29235 42.7454C7.45417 42.7617 7.59246 42.6497 7.61661 42.4898C7.73464 41.5002 7.88591 40.5504 8.07512 39.6576C8.08796 39.5943 8.07699 39.5262 8.0549 39.4723Z" fill="#63C0C4"/>
<path d="M51.0229 18.9896C50.8894 19.0779 50.8525 19.2599 50.949 19.3948C51.0376 19.5281 51.22 19.5651 51.3551 19.4689C52.1688 18.917 52.9319 18.289 53.6333 17.5989C53.7255 17.5105 53.7449 17.3744 53.6911 17.2729C53.6801 17.2459 53.6611 17.2173 53.6326 17.1951C53.5233 17.0823 53.3345 17.077 53.22 17.1938C52.5425 17.8475 51.808 18.4566 51.0229 18.9896Z" fill="#63C0C4"/>
<path d="M49.9527 19.9921C49.8737 19.8525 49.704 19.7934 49.5563 19.8706C49.3259 19.9887 49.0955 20.1068 48.8588 20.2153C48.2298 20.508 47.5849 20.7563 46.9243 20.9602C46.7751 21.0041 46.6842 21.167 46.7347 21.3255C46.7788 21.4745 46.942 21.5653 47.1008 21.5151C47.7789 21.3065 48.4508 21.0472 49.1068 20.7435C49.3531 20.6286 49.5914 20.5121 49.8233 20.3861C49.9615 20.3153 50.0127 20.1444 49.9495 20.008C49.9591 20.0016 49.9527 19.9921 49.9527 19.9921Z" fill="#63C0C4"/>
<path d="M45.6137 21.6009C45.6106 21.5756 45.5979 21.5565 45.5948 21.5312C45.5364 21.4122 45.4096 21.3453 45.281 21.3687C44.3871 21.5418 43.4665 21.6435 42.4412 21.6911C42.2825 21.7002 42.1569 21.8313 42.1644 21.9976C42.1736 22.156 42.305 22.2815 42.4717 22.2741C43.5223 22.2234 44.4763 22.1202 45.3956 21.944C45.5432 21.908 45.6483 21.7562 45.6137 21.6009Z" fill="#63C0C4"/>
<path d="M19.8031 24.2047C20.1367 24.0252 20.4846 23.8567 20.8309 23.6962C21.3504 23.4555 21.8841 23.2258 22.4193 23.0295C22.5718 22.9697 22.6467 22.8037 22.5852 22.6594C22.5868 22.6514 22.5804 22.6419 22.5725 22.6403C22.5093 22.5039 22.3492 22.4385 22.2062 22.4919C21.6615 22.6946 21.1103 22.9289 20.5813 23.176C20.2255 23.3428 19.8776 23.5112 19.5344 23.6971C19.3946 23.7759 19.3212 23.934 19.4129 24.0927C19.484 24.2307 19.6632 24.2835 19.8031 24.2047Z" fill="#63C0C4"/>
<path d="M24.0471 22.4942C24.9681 22.2278 25.9096 22.0231 26.8446 21.8913C27.0065 21.8665 27.11 21.7226 27.0928 21.5626C27.0897 21.5373 27.0787 21.5103 27.0676 21.4834C27.0155 21.3739 26.8903 21.2991 26.7617 21.3225C25.7997 21.4653 24.8328 21.673 23.8864 21.9426C23.7292 21.9849 23.6463 22.1493 23.6904 22.2984C23.7266 22.4458 23.8899 22.5365 24.0471 22.4942Z" fill="#63C0C4"/>
<path d="M15.9873 26.7353C16.7281 26.1357 17.5117 25.5694 18.3158 25.065C18.4398 24.983 18.4877 24.828 18.423 24.6995C18.4166 24.6899 18.4103 24.6804 18.404 24.6709C18.3154 24.5376 18.1425 24.4943 18.0011 24.581C17.1779 25.098 16.3753 25.6769 15.6154 26.2891C15.4882 26.3869 15.4671 26.5722 15.5732 26.7008C15.6808 26.8215 15.8601 26.8331 15.9873 26.7353Z" fill="#63C0C4"/>
<path d="M11.6894 31.3187C11.7483 31.2317 11.7549 31.1177 11.7154 31.0273C11.6917 30.9813 11.6664 30.9432 11.6221 30.9178C11.4921 30.8255 11.3128 30.855 11.2204 30.9846C10.6537 31.7843 10.1361 32.627 9.68199 33.4824C9.60392 33.6232 9.65908 33.7991 9.80015 33.8772C9.94121 33.9552 10.1175 33.9003 10.1955 33.7596C10.6306 32.9167 11.1355 32.0962 11.6894 31.3187Z" fill="#63C0C4"/>
<path d="M36.3599 21.7521C36.3632 21.6951 36.3554 21.6523 36.3317 21.6063C36.2922 21.5159 36.1988 21.4475 36.0924 21.4424L35.7275 21.4096C34.8835 21.3374 34.0394 21.2652 33.1937 21.2009C33.0303 21.1925 32.8983 21.3141 32.8837 21.4676C32.8754 21.6308 32.9973 21.7626 33.1512 21.7773C33.9906 21.8321 34.8346 21.9043 35.6771 21.9844L36.042 22.0172C36.2054 22.0256 36.3453 21.9057 36.3599 21.7521Z" fill="#63C0C4"/>
<path d="M14.6932 27.8654C14.7854 27.7769 14.8127 27.6424 14.7605 27.533C14.7495 27.506 14.7305 27.4774 14.7099 27.4568C14.6007 27.344 14.4134 27.3308 14.2989 27.4476C13.5849 28.1186 12.9105 28.8388 12.2884 29.5861C12.1881 29.7141 12.202 29.89 12.3287 29.998C12.4491 30.0966 12.6332 30.0845 12.7414 29.9581C13.3365 29.2218 13.9982 28.5237 14.6932 27.8654Z" fill="#63C0C4"/>
<path d="M37.5135 21.8458C37.5052 22.0089 37.6176 22.1471 37.781 22.1555C38.9203 22.2381 39.8437 22.2852 40.6991 22.3021C40.8562 22.3009 40.9881 22.1794 40.9964 22.0163C40.9981 21.9672 40.9887 21.9323 40.9729 21.8879C40.9271 21.788 40.8336 21.7196 40.7178 21.7208C39.8783 21.7072 38.9628 21.6617 37.8315 21.5807C37.6697 21.5644 37.5298 21.6843 37.5135 21.8458Z" fill="#63C0C4"/>
<path d="M56.667 12.0013C56.6048 12.1452 56.6774 12.3165 56.8217 12.3787C56.9659 12.4409 57.1374 12.3686 57.1996 12.2246C57.5538 11.3736 57.8621 10.4638 58.142 9.44945C58.1644 9.37983 58.1534 9.31169 58.125 9.24825C58.0902 9.17529 58.0285 9.11334 57.9412 9.09565C57.7842 9.05559 57.627 9.13906 57.5869 9.29574C57.3102 10.2943 57.0084 11.1724 56.667 12.0013Z" fill="#63C0C4"/>
<path d="M28.2404 21.441C28.2496 21.5994 28.389 21.7265 28.5493 21.7096C29.4349 21.6584 30.3712 21.6422 31.4201 21.6818C31.5835 21.6902 31.7171 21.5607 31.7159 21.4039C31.7176 21.3548 31.7097 21.312 31.6844 21.2739C31.637 21.1819 31.5435 21.1135 31.4293 21.1069C30.355 21.0704 29.4028 21.0833 28.4998 21.1392C28.3506 21.142 28.2313 21.2826 28.2404 21.441Z" fill="#63C0C4"/>
<path d="M8.22247 36.8531C8.11544 37.1775 8.01634 37.5034 7.92517 37.831C7.88515 37.9877 7.96892 38.1447 8.12593 38.1848C8.28295 38.2249 8.44023 38.1414 8.48817 37.9863C8.57774 37.6667 8.67524 37.3486 8.78067 37.0322C8.97397 36.4452 9.19899 35.8646 9.44781 35.2888C9.47971 35.2129 9.4815 35.1226 9.44675 35.0497C9.41832 34.9863 9.37083 34.9354 9.30266 34.9051C9.15839 34.8429 8.98844 34.9074 8.9167 35.0576C8.65675 35.6476 8.42691 36.2519 8.22247 36.8531Z" fill="#63C0C4"/>
<defs>
<linearGradient id="paint0_linear" x1="92.2606" y1="114.271" x2="92.2606" y2="62.4554" gradientUnits="userSpaceOnUse">
<stop stop-opacity="0.12"/>
<stop offset="0.55135" stop-opacity="0.09"/>
<stop offset="1" stop-opacity="0.02"/>
</linearGradient>
<linearGradient id="paint1_linear" x1="177.169" y1="77.7158" x2="193.177" y2="80.9855" gradientUnits="userSpaceOnUse">
<stop offset="6.3e-07" stop-color="#F1F8F7"/>
<stop offset="1" stop-color="#BFE3EE"/>
</linearGradient>
<linearGradient id="paint2_linear" x1="176.178" y1="82.5669" x2="189.088" y2="85.2038" gradientUnits="userSpaceOnUse">
<stop offset="6.3e-07" stop-color="#F1F8F7"/>
<stop offset="1" stop-color="#BFE3EE"/>
</linearGradient>
<linearGradient id="paint3_linear" x1="7.74368" y1="49.3055" x2="3.73088" y2="69.1017" gradientUnits="userSpaceOnUse">
<stop offset="6.3e-07" stop-color="#F1F8F7"/>
<stop offset="1" stop-color="#BFE3EE"/>
</linearGradient>
<linearGradient id="paint4_linear" x1="9.10547" y1="45.3724" x2="4.29886" y2="69.0846" gradientUnits="userSpaceOnUse">
<stop offset="6.3e-07" stop-color="#F1F8F7"/>
<stop offset="1" stop-color="#BFE3EE"/>
</linearGradient>
</defs>
</svg>
