<?xml version="1.0" encoding="utf-8"?>
<!-- Generator: Adobe Illustrator 21.1.0, SVG Export Plug-In . SVG Version: 6.00 Build 0)  -->
<svg version="1.1" id="Layer_1" xmlns="http://www.w3.org/2000/svg" xmlns:xlink="http://www.w3.org/1999/xlink" x="0px" y="0px"
	 viewBox="0 0 254 75" style="enable-background:new 0 0 254 75;" xml:space="preserve">
<style type="text/css">
	.st0{fill:#F9951F;}
</style>
<g>
	<g>
		<path class="st0" d="M194.7,3.7c0.2-0.3,0.4-0.6,0.6-0.9c1.4-2.3,4.1-3.3,6.6-2.6c5.8,1.7,11.6,3.4,17.5,5.1c0.5,0.1,1,0.1,1.5,0
			c5.7-1.4,11.5-2.7,17.2-4.1c1.4-0.3,1.7-0.1,2,1.3c0.7,3,1.5,6,2.2,9c0.1,0.5,0.3,0.7,0.8,0.9c1.6,0.4,3.3,0.9,4.9,1.4
			c3.1,0.9,4.8,4.2,3.9,7.2c-0.3,1-0.6,2.1-0.9,3.1c-0.1,0.4-0.1,0.6,0.3,0.9c2.4,1.7,3.2,4.1,2.4,6.9c-1.1,4-2.3,7.9-3.5,11.9
			c-0.2,0.5-0.1,0.9,0.3,1.3c1,1,1.2,2.2,0.8,3.6c-0.6,2.2-1.3,4.4-1.9,6.6c-0.4,1.4-1.3,2.4-2.9,2.7c-0.5,0.1-0.5,0.4-0.6,0.7
			c-1.2,4-2.3,8-3.5,12.1c-1,3.4-4.1,5.1-7.5,4.2c-16.8-4.9-33.6-9.8-50.4-14.8c-2.8-0.8-4.5-3.4-4.2-6.3c0-0.2,0-0.3,0-0.5
			C185.1,36.7,189.9,20.2,194.7,3.7z M195.4,9.5c-0.1,0.5-0.3,0.9-0.4,1.2c-2.9,9.9-5.8,19.8-8.6,29.7c-1.2,4.2-2.5,8.4-3.7,12.6
			c-0.7,2.4,0.4,4.2,2.7,4.9c16.7,4.9,33.4,9.8,50,14.7c2.2,0.6,4.1-0.4,4.7-2.6c1.1-3.9,2.3-7.8,3.4-11.7c0.2-0.7,0-0.9-0.6-1.1
			c-3.2-0.9-6.3-1.8-9.5-2.8c-2-0.6-3-2.5-2.4-4.5c0.6-2.2,1.3-4.4,1.9-6.6c0.7-2.2,2.4-3.2,4.6-2.6c3.1,0.9,6.2,1.8,9.3,2.7
			c0.7,0.2,0.9,0.1,1.1-0.6c1.1-3.9,2.2-7.7,3.4-11.6c0.7-2.4-0.3-4.2-2.7-4.9c-16.6-4.9-33.1-9.7-49.7-14.5
			c-1.3-0.4-2.4-0.9-3.3-1.9C195.8,9.8,195.6,9.7,195.4,9.5z M238,3.6c-10.7,2.6-21.2,5.1-31.8,7.7c0,0.1,0,0.1,0,0.2
			c1.2,0.4,2.4,0.7,3.6,1c0.5,0.1,1,0.1,1.5,0c6.3-1.5,12.5-3,18.8-4.5c1.1-0.3,1.5,0,1.8,1c0.6,1.8,2.2,2.7,4.1,2.5
			c1.1-0.1,1.4,0.1,1.7,1.2c0.7,2.7,1.3,5.3,2,8c0.1,0.3,0.2,0.7,0.4,0.8c0.7,0.3,1.5,0.5,2.5,0.8C241,15.9,239.5,9.8,238,3.6z
			 M239.9,53.8c1.9,0.5,3.7,1.1,5.6,1.6c1,0.3,1.5,0,1.8-0.9c0.7-2.2,1.3-4.4,1.9-6.6c0.3-0.9-0.1-1.5-1-1.8
			c-3.7-1.1-7.4-2.2-11.1-3.2c-1-0.3-1.6,0-1.9,1c-0.6,2.1-1.3,4.3-1.9,6.4c-0.3,1,0.1,1.5,1,1.8C236.2,52.7,238,53.3,239.9,53.8z
			 M215.1,14c7.5,2.2,14.7,4.3,22.1,6.5c-0.1-0.3-0.1-0.6-0.2-0.8c-0.4-1.7-0.9-3.5-1.3-5.2c-0.1-0.5-0.4-0.7-0.9-0.7
			c-2-0.1-3.5-1.1-4.6-2.8c-0.3-0.5-0.6-0.6-1.1-0.4c-4.4,1.1-8.9,2.2-13.4,3.2C215.7,13.9,215.5,13.9,215.1,14z M215.2,6.7
			c0-0.1,0-0.1,0-0.2c-4.7-1.4-9.5-2.8-14.2-4.1c-2-0.5-4,1.1-4.3,3c-0.4,3.2,2.6,4.9,5.1,4.5c4.3-0.7,8.5-2,12.8-3
			C214.8,6.8,215,6.7,215.2,6.7z M243.1,14.7c0.7,2.7,1.3,5.3,2,7.9c0,0.2,0.3,0.4,0.5,0.4c0.8,0.3,1.7,0.5,2.6,0.8
			c0.4,0.1,0.6,0,0.7-0.4c0.3-1,0.6-2,0.9-3c0.5-1.8-0.3-3.7-2-4.3C246.2,15.5,244.7,15.2,243.1,14.7z"/>
		<path class="st0" d="M247.1,33.5c0.6,0.2,0.9,0.8,0.7,1.4c-0.2,0.6-0.8,0.9-1.4,0.7c-0.6-0.2-1-0.8-0.8-1.4
			C245.9,33.6,246.5,33.3,247.1,33.5z"/>
		<path class="st0" d="M249.2,30.2c-0.2,0.6-0.8,1-1.4,0.8c-0.6-0.2-0.9-0.8-0.8-1.3c0.1-0.6,0.7-1,1.4-0.8
			C249,29,249.3,29.6,249.2,30.2z"/>
		<path class="st0" d="M234,27c-0.6-0.2-1-0.8-0.8-1.4c0.2-0.6,0.8-0.9,1.4-0.7c0.6,0.2,0.9,0.8,0.7,1.4
			C235.2,26.8,234.6,27.2,234,27z"/>
		<path class="st0" d="M245.7,38.1c0.6,0.2,1,0.8,0.8,1.4c-0.2,0.6-0.8,1-1.4,0.8c-0.6-0.2-0.9-0.8-0.8-1.4
			C244.5,38.2,245.1,37.9,245.7,38.1z"/>
		<path class="st0" d="M244.6,28.9c-0.2,0.6-0.8,0.9-1.4,0.8c-0.6-0.2-0.9-0.9-0.7-1.5c0.2-0.6,0.8-0.9,1.4-0.7
			C244.4,27.7,244.8,28.3,244.6,28.9z"/>
		<path class="st0" d="M238.6,28.3c-0.6-0.2-1-0.8-0.8-1.4c0.2-0.6,0.8-0.9,1.4-0.8c0.6,0.2,1,0.7,0.8,1.4
			C239.8,28.2,239.2,28.5,238.6,28.3z"/>
		<path class="st0" d="M201.9,17.6c-0.6-0.2-1-0.8-0.8-1.4c0.2-0.6,0.8-0.9,1.4-0.8c0.6,0.2,1,0.7,0.8,1.4
			C203.1,17.4,202.5,17.8,201.9,17.6z"/>
		<path class="st0" d="M221.6,22.2c-0.2,0.6-0.8,1-1.4,0.8c-0.6-0.2-1-0.8-0.8-1.4c0.2-0.6,0.8-0.9,1.4-0.8
			C221.5,20.9,221.8,21.5,221.6,22.2z"/>
		<path class="st0" d="M225.5,22.1c0.6,0.2,0.9,0.8,0.7,1.4c-0.2,0.6-0.8,0.9-1.4,0.7c-0.6-0.2-1-0.8-0.8-1.4
			C224.2,22.3,224.9,22,225.5,22.1z"/>
		<path class="st0" d="M230.8,24.9c-0.2,0.6-0.8,0.9-1.4,0.8c-0.6-0.2-0.9-0.9-0.7-1.5c0.2-0.6,0.8-0.9,1.4-0.7
			C230.7,23.7,231,24.3,230.8,24.9z"/>
		<path class="st0" d="M190.5,56.7c-0.6-0.2-1-0.8-0.8-1.4c0.2-0.6,0.9-1,1.4-0.8c0.6,0.2,0.9,0.8,0.7,1.4
			C191.7,56.6,191.1,56.9,190.5,56.7z"/>
		<path class="st0" d="M196.4,57.3c-0.2,0.6-0.8,0.9-1.4,0.7c-0.6-0.2-0.9-0.8-0.7-1.4c0.2-0.6,0.9-1,1.4-0.8
			C196.3,56.1,196.6,56.7,196.4,57.3z"/>
		<path class="st0" d="M201,58.6c-0.2,0.6-0.7,1-1.4,0.8c-0.6-0.2-0.9-0.8-0.8-1.3c0.1-0.6,0.8-1,1.4-0.8
			C200.9,57.4,201.2,58,201,58.6z"/>
		<path class="st0" d="M197.9,14.1c0.6,0.2,0.9,0.8,0.7,1.4c-0.2,0.6-0.8,0.9-1.4,0.7c-0.6-0.2-1-0.8-0.8-1.4
			C196.7,14.2,197.3,13.9,197.9,14.1z"/>
		<path class="st0" d="M206.4,18.9c-0.6-0.2-0.9-0.9-0.8-1.5c0.2-0.6,0.9-0.9,1.5-0.7c0.6,0.2,0.9,0.8,0.7,1.5
			C207.6,18.8,207,19.1,206.4,18.9z"/>
		<path class="st0" d="M211.7,18.1c0.6,0.2,1,0.8,0.8,1.4c-0.2,0.6-0.7,0.9-1.3,0.8c-0.6-0.1-1-0.8-0.8-1.4
			C210.4,18.3,211.1,17.9,211.7,18.1z"/>
		<path class="st0" d="M217,20.8c-0.2,0.6-0.8,1-1.4,0.8c-0.6-0.2-1-0.8-0.8-1.4c0.2-0.6,0.8-0.9,1.4-0.8
			C216.9,19.6,217.2,20.2,217,20.8z"/>
		<path class="st0" d="M187.3,54.6c-0.2,0.7-0.7,1-1.4,0.8c-0.6-0.2-1-0.8-0.8-1.4c0.2-0.6,0.9-0.9,1.4-0.8
			C187.1,53.4,187.4,54,187.3,54.6z"/>
		<path class="st0" d="M209.5,59.9c0.6,0.2,0.9,0.8,0.7,1.4c-0.2,0.6-0.7,0.9-1.4,0.7c-0.6-0.2-1-0.8-0.8-1.4
			C208.2,60.1,208.9,59.7,209.5,59.9z"/>
		<path class="st0" d="M214.8,62.6c-0.2,0.6-0.7,1-1.4,0.8c-0.6-0.2-1-0.8-0.8-1.4c0.2-0.6,0.8-0.9,1.4-0.8
			C214.6,61.4,215,62,214.8,62.6z"/>
		<path class="st0" d="M219.4,64c-0.2,0.6-0.8,0.9-1.4,0.7c-0.6-0.2-0.9-0.8-0.7-1.4c0.2-0.6,0.8-1,1.4-0.8
			C219.2,62.8,219.6,63.4,219.4,64z"/>
		<path class="st0" d="M224,65.4c-0.2,0.6-0.8,0.9-1.4,0.7c-0.6-0.2-0.9-0.8-0.8-1.4c0.2-0.6,0.8-1,1.4-0.8
			C223.8,64.1,224.2,64.8,224,65.4z"/>
		<path class="st0" d="M232.4,66.6c0.6,0.2,0.9,0.8,0.8,1.4c-0.2,0.6-0.8,0.9-1.4,0.7c-0.6-0.2-0.9-0.8-0.7-1.4
			C231.2,66.8,231.8,66.5,232.4,66.6z"/>
		<path class="st0" d="M238.4,63.4c0.6,0.2,0.9,0.9,0.7,1.5c-0.2,0.6-0.8,0.9-1.5,0.7c-0.6-0.2-0.9-0.8-0.7-1.4
			C237.2,63.5,237.8,63.2,238.4,63.4z"/>
		<path class="st0" d="M204.9,58.6c0.6,0.2,0.9,0.8,0.8,1.4c-0.2,0.6-0.8,0.9-1.4,0.7c-0.6-0.2-0.9-0.8-0.8-1.4
			C203.6,58.8,204.3,58.4,204.9,58.6z"/>
		<path class="st0" d="M227.8,65.3c0.6,0.2,1,0.8,0.8,1.4c-0.2,0.6-0.7,0.9-1.3,0.8c-0.6-0.2-1-0.7-0.8-1.4
			C226.6,65.5,227.2,65.1,227.8,65.3z"/>
		<path class="st0" d="M237.8,69.4c-0.2,0.6-0.8,0.9-1.4,0.7c-0.6-0.2-0.9-0.8-0.7-1.4c0.2-0.6,0.8-1,1.4-0.8
			C237.6,68.2,238,68.8,237.8,69.4z"/>
		<path class="st0" d="M239.7,58.8c0.6,0.2,0.9,0.8,0.7,1.4c-0.2,0.6-0.8,0.9-1.4,0.7c-0.6-0.2-0.9-0.8-0.7-1.4
			C238.5,58.9,239.1,58.6,239.7,58.8z"/>
		<path class="st0" d="M238.3,50.7c-1.3-0.4-1.9-1.7-1.5-2.9c0.4-1.2,1.7-1.9,2.9-1.5c1.2,0.4,1.9,1.7,1.5,2.9
			C240.8,50.4,239.5,51.1,238.3,50.7z"/>
	</g>
	<g>
		<path class="st0" d="M23.8,35.5c-0.2,0-0.4,0-0.6,0l0.1-3c0.2,0,0.4,0,0.5,0c0.3,0,0.5,0,0.8,0c0.2,0,0.3,0,0.5,0l0.2,3
			c-0.2,0-0.4,0-0.6,0C24.5,35.5,24.1,35.5,23.8,35.5z M21.1,35.4c-0.7-0.1-1.4-0.2-2.1-0.4l0.7-2.9c0.6,0.1,1.2,0.2,1.8,0.3
			L21.1,35.4z M27.5,35.3l-0.4-3c0.6-0.1,1.2-0.2,1.9-0.3l0.6,2.9C28.9,35.1,28.2,35.2,27.5,35.3z M16.9,34.4
			c-0.7-0.2-1.3-0.5-2-0.8l1.2-2.7c0.6,0.3,1.1,0.5,1.7,0.7L16.9,34.4z M31.6,34.4l-0.8-2.9c0.6-0.2,1.2-0.4,1.8-0.6l1,2.8
			C32.9,34,32.3,34.2,31.6,34.4z M35.5,33l-1.2-2.8c0.6-0.2,1.2-0.5,1.8-0.8l1.3,2.7C36.8,32.5,36.2,32.8,35.5,33z M13,32.7
			c-0.6-0.3-1.2-0.7-1.8-1.1l1.7-2.5c0.5,0.4,1.1,0.7,1.6,1L13,32.7z M84.8,32.1c-0.7,0-1.4-0.1-2.2-0.2l0.4-3
			c0.6,0.1,1.2,0.1,1.8,0.1L84.8,32.1z M87,32l-0.3-3c0.6-0.1,1.2-0.2,1.8-0.3l0.7,2.9C88.4,31.8,87.7,31.9,87,32z M80.6,31.6
			c-0.7-0.2-1.4-0.3-2.1-0.6l0.9-2.9c0.6,0.2,1.2,0.4,1.8,0.5L80.6,31.6z M165.6,31.6c-0.3-0.6-0.7-1.1-1-1.7l2.5-1.6
			c0.4,0.6,0.7,1.2,1.1,1.8L165.6,31.6z M39.3,31.2l-1.4-2.6c0.6-0.3,1.1-0.6,1.7-1l1.5,2.6C40.5,30.6,39.9,30.9,39.3,31.2z
			 M91.2,31l-1-2.8c0.6-0.2,1.1-0.4,1.7-0.7l1.3,2.7C92.6,30.5,91.9,30.8,91.2,31z M9.5,30.3C9,29.9,8.4,29.4,7.9,29l2-2.2
			c0.5,0.4,1,0.8,1.5,1.2L9.5,30.3z M76.5,30.2c-0.6-0.3-1.3-0.6-1.9-0.9l1.4-2.7c0.6,0.3,1.1,0.6,1.7,0.8L76.5,30.2z M42.8,29.1
			l-1.6-2.5c0.5-0.4,1.1-0.7,1.6-1.1l1.7,2.4C44,28.3,43.4,28.7,42.8,29.1z M95.1,29.1l-1.6-2.5c0.3-0.2,0.7-0.4,1-0.7
			c0.2-0.1,0.3-0.3,0.5-0.4l1.9,2.3c-0.2,0.2-0.4,0.3-0.6,0.5C95.9,28.6,95.5,28.8,95.1,29.1z M72.8,28.3c-0.6-0.4-1.2-0.8-1.7-1.2
			l1.8-2.4c0.5,0.4,1,0.7,1.6,1.1L72.8,28.3z M163.5,28.3c-0.4-0.5-0.7-1.1-1.1-1.6l2.4-1.8c0.4,0.6,0.8,1.1,1.2,1.7L163.5,28.3z
			 M6.4,27.5c-0.5-0.5-1-1-1.4-1.5l2.2-2c0.4,0.5,0.9,1,1.3,1.4L6.4,27.5z M46.2,26.7l-1.9-2.3c0.5-0.4,1-0.8,1.4-1.2l2,2.2
			C47.2,25.8,46.7,26.2,46.2,26.7z M98.5,26.4l-2.1-2.1c0.4-0.4,0.9-0.9,1.3-1.4l2.3,2C99.4,25.4,99,25.9,98.5,26.4z M69.4,25.8
			c-0.3-0.2-0.5-0.4-0.8-0.6c-0.2-0.2-0.5-0.4-0.8-0.9l2.2-2.1c0.3,0.3,0.5,0.5,0.6,0.7c0.2,0.2,0.5,0.4,0.7,0.6L69.4,25.8z
			 M161.2,25.1c-0.4-0.5-0.8-1-1.2-1.5l2.3-1.9c0.4,0.5,0.9,1.1,1.3,1.6L161.2,25.1z M3.7,24.4c-0.4-0.5-0.9-1.1-1.3-1.6L4.8,21
			c0.4,0.5,0.8,1,1.2,1.5L3.7,24.4z M49.2,23.8l-2.2-2.1c0.4-0.5,0.9-0.9,1.3-1.4l2.3,1.9C50.2,22.8,49.7,23.3,49.2,23.8z
			 M101.2,23.2l-2.4-1.8c0.4-0.5,0.8-1,1.2-1.6l2.4,1.7C102.1,22.1,101.7,22.7,101.2,23.2z M66.4,22.8c-0.4-0.5-0.9-1-1.3-1.5l2.3-2
			c0.5,0.5,0.9,1,1.3,1.5L66.4,22.8z M158.7,22.1c-0.4-0.5-0.9-1-1.3-1.4l2.2-2.1c0.5,0.5,0.9,1,1.4,1.5L158.7,22.1z M1.2,21.2
			c-0.4-0.6-0.8-1.1-1.2-1.7l2.5-1.7c0.4,0.5,0.7,1.1,1.1,1.6L1.2,21.2z M51.9,20.6l-2.4-1.8c0.4-0.5,0.8-1,1.1-1.6l2.5,1.7
			C52.7,19.5,52.3,20.1,51.9,20.6z M103.6,19.9l-2.5-1.7c0.4-0.5,0.7-1.1,1.1-1.7l2.5,1.6C104.4,18.8,104,19.3,103.6,19.9z
			 M63.7,19.7c-0.4-0.5-0.9-1-1.3-1.6l2.3-1.9c0.4,0.5,0.9,1,1.3,1.5L63.7,19.7z M156,19.3c-0.5-0.5-0.9-0.9-1.4-1.4l2-2.2
			c0.5,0.5,1,0.9,1.5,1.4L156,19.3z M54.2,17.2l-2.5-1.6c0.3-0.6,0.7-1.1,1-1.7l2.6,1.5C55,16.1,54.6,16.6,54.2,17.2z M153.1,16.6
			c-0.5-0.4-1-0.8-1.5-1.3l1.9-2.3c0.5,0.4,1.1,0.9,1.6,1.3L153.1,16.6z M61.2,16.6c-0.4-0.5-0.9-1.1-1.3-1.6l2.4-1.8
			c0.4,0.5,0.8,1,1.2,1.6L61.2,16.6z M105.8,16.5l-2.5-1.6c0.4-0.6,0.7-1.1,1.1-1.7l2.5,1.7C106.5,15.4,106.2,15.9,105.8,16.5z
			 M150.1,14.2c-0.5-0.4-1-0.8-1.6-1.2l1.7-2.5c0.6,0.4,1.1,0.8,1.7,1.2L150.1,14.2z M56.3,13.7l-2.6-1.5c0.3-0.6,0.7-1.2,1-1.7
			l2.6,1.5C57,12.5,56.7,13.1,56.3,13.7z M58.7,13.4c-0.4-0.6-0.9-1.2-1.2-1.7L60,10c0.3,0.5,0.7,1,1.1,1.6L58.7,13.4z M108,13.2
			l-2.5-1.7c0.4-0.6,0.8-1.1,1.2-1.7l2.4,1.8C108.8,12.1,108.4,12.7,108,13.2z M146.9,11.9c-0.5-0.4-1.1-0.7-1.6-1l1.5-2.6
			c0.6,0.4,1.2,0.7,1.7,1.1L146.9,11.9z M58.3,10.2l-1.3-0.7l-0.6,0.3c-0.1-0.3-0.2-0.5-0.2-0.7l-0.4-0.2l0.6-1.1l2.1,1.2l0,0
			l0.5,0.3L58.3,10.2z M110.3,10.2l-2.3-2c0.5-0.6,1-1.1,1.5-1.5l2.1,2.2C111.2,9.2,110.8,9.7,110.3,10.2z M143.6,9.9
			c-0.6-0.3-1.1-0.6-1.7-0.9l1.4-2.7c0.6,0.3,1.2,0.6,1.8,1L143.6,9.9z M59,8.5c0-0.1,0-0.2,0-0.2C59,8.4,59.1,8.5,59,8.5L59,8.5z
			 M140.1,8.1c-0.6-0.3-1.2-0.5-1.8-0.8l1.1-2.8c0.6,0.3,1.3,0.5,1.9,0.8L140.1,8.1z M113,7.6l-1.8-2.4c0.6-0.5,1.2-0.9,1.8-1.2
			l1.5,2.6C114,6.9,113.5,7.2,113,7.6z M136.6,6.7c-0.6-0.2-1.2-0.4-1.8-0.6l0.9-2.9c0.7,0.2,1.3,0.4,2,0.7L136.6,6.7z M116.1,5.8
			L114.9,3c0.7-0.3,1.4-0.5,2.1-0.7l0.2,0l0.4,3l-0.2-1.5l0.4,1.4C117.2,5.4,116.6,5.5,116.1,5.8z M132.9,5.5
			c-0.6-0.2-1.3-0.3-1.9-0.4l0.6-2.9c0.7,0.1,1.3,0.3,2,0.5L132.9,5.5z M119.6,4.8l-0.5-3c0.7-0.1,1.4-0.2,2.1-0.3l0.3,3
			C120.9,4.6,120.2,4.7,119.6,4.8z M129.1,4.8c-0.6-0.1-1.3-0.2-1.9-0.2l0.3-3c0.7,0.1,1.4,0.1,2.1,0.2L129.1,4.8z M123.4,4.4
			l-0.1-3c0.7,0,1.4,0,2.1,0l-0.1,3C124.7,4.4,124,4.4,123.4,4.4z"/>
	</g>
	<g>
		<path class="st0" d="M175.3,45.2c-0.2,0-0.4,0-0.6-0.1l-21-9.1c-0.8-0.3-1.1-1.2-0.8-2s1.2-1.1,2-0.8l18.6,8.1l-2.7-20.3
			c-0.1-0.8,0.5-1.6,1.3-1.7c0.8-0.1,1.6,0.5,1.7,1.3l3,22.9c0.1,0.5-0.2,1.1-0.6,1.4C175.9,45.1,175.6,45.2,175.3,45.2z"/>
	</g>
</g>
</svg>
