<?xml version="1.0" encoding="utf-8"?>
<!-- Generator: Adobe Illustrator 21.1.0, SVG Export Plug-In . SVG Version: 6.00 Build 0)  -->
<svg version="1.1" id="Layer_1" xmlns="http://www.w3.org/2000/svg" xmlns:xlink="http://www.w3.org/1999/xlink" x="0px" y="0px"
	 viewBox="0 0 246 87" style="enable-background:new 0 0 246 87;" xml:space="preserve">
<style type="text/css">
	.st0{fill:#F9951F;}
</style>
<g>
	<g>
		<path class="st0" d="M188.3,86.5c-6.6-22-13.2-44-19.8-66c0.1-0.9,0.7-1.3,1.5-1.5c3.6-1,7.1-2.1,10.7-3.2
			c0.4-0.1,0.8-0.2,0.9-0.8c0.3-1.7,1.4-2.8,3.1-3.3c1.2-0.3,2.4-0.7,3.7-1.1c-0.5-2.2-0.4-4.3,0.6-6.2c1.1-2,2.7-3.3,4.8-4
			c1.7-0.5,3.4-0.5,5,0.1c2.6,0.9,4.3,2.8,5.2,5.4c1.4-0.4,2.7-0.8,4-1.2c1.5-0.4,2.8-0.1,3.9,1c0.4,0.4,0.8,0.5,1.4,0.3
			c3.6-1.1,7.1-2.1,10.7-3.2c0.8-0.3,1.5-0.3,2.1,0.4c6.6,22,13.2,44,19.8,66c-0.2,0.8-0.7,1.2-1.5,1.5c-18,5.4-36.1,10.7-54.1,16.1
			C189.6,87.1,188.9,87.1,188.3,86.5z M236.1,64.7c-0.1-0.4-0.2-0.8-0.3-1.1c-3-9.9-5.9-19.8-8.9-29.7c-2.1-6.9-4.2-13.9-6.2-20.8
			c-0.2-0.6-0.4-0.8-1.1-0.6c-1.1,0.4-2.3,0.7-3.4,1c-1.1,0.3-1.1,0.3-0.8,1.4c0.3,1.1,0,1.7-1.1,2c-2.4,0.7-4.8,1.5-7.3,2.2
			c-7,2.1-14,4.2-21,6.3c-1.1,0.3-1.7,0.1-2-1.1c-0.1-0.3-0.2-0.6-0.4-1.1c-1.5,0.5-3,0.9-4.5,1.3c-0.7,0.2-0.8,0.4-0.6,1.1
			c5.1,16.9,10.1,33.8,15.2,50.6c0.1,0.3,0.2,0.6,0.3,0.9C208.1,73.1,222.1,68.9,236.1,64.7z M171.5,21.2c0.1,0.4,0.2,0.8,0.3,1.1
			c1.2,3.9,2.3,7.8,3.5,11.7c4.9,16.4,9.8,32.8,14.7,49.2c0.2,0.6,0.4,0.9,1.2,0.7c16.9-5.1,33.9-10.1,50.8-15.2
			c0.7-0.2,0.8-0.5,0.6-1.1c-6.1-20.4-12.3-40.8-18.4-61.2c-0.1-0.3-0.2-0.5-0.3-0.8c-3.5,1.1-7,2.1-10.5,3.1
			c0.3,0.9,0.5,1.8,0.8,2.7c2.1-0.6,4.1-1.2,6.1-1.8c1.4-0.4,1.8-0.2,2.2,1.2c5.4,18,10.8,36.1,16.2,54.1c0.4,1.3,0.1,1.8-1.2,2.2
			c-2.7,0.8-5.4,1.6-8.1,2.4c-11.9,3.5-23.7,7.1-35.6,10.6c-1.3,0.4-1.8,0.1-2.2-1.2c-0.8-2.6-1.5-5.1-2.3-7.7
			c-4.7-15.5-9.3-31-14-46.5c-0.3-1.1-0.1-1.7,1.1-2c1.5-0.5,3-0.9,4.5-1.4c0.6-0.2,1.1-0.3,1.7-0.5c-0.3-1-0.5-1.8-0.8-2.7
			C178.5,19.1,175.1,20.2,171.5,21.2z M199.4,18.7C199.4,18.7,199.4,18.7,199.4,18.7c4.1-1.2,8.3-2.5,12.4-3.7
			c0.6-0.2,0.7-0.4,0.5-1c-0.6-1.8-1.1-3.7-1.7-5.5c-0.4-1.2-1.1-1.6-2.3-1.2c-7.6,2.3-15.2,4.5-22.8,6.8c-1.3,0.4-1.6,1-1.2,2.3
			c0.5,1.7,1.1,3.5,1.5,5.2c0.2,0.8,0.6,0.9,1.3,0.7C191.3,21.1,195.3,19.9,199.4,18.7z M201.5,6.6c-0.1-0.3-0.1-0.5-0.2-0.7
			c-1-2.4-3.9-3.8-6.5-3.1c-2.8,0.8-4.5,3.5-4.1,6.1c0.1,0.7,0.4,0.8,1,0.6c3-0.9,6-1.8,9-2.7C201,6.8,201.2,6.7,201.5,6.6z"/>
		<path class="st0" d="M218.5,58.5c-2.6,0.8-5.1,1.5-7.7,2.3c-1,0.3-1.7-0.1-1.9-1c-0.1-0.7,0.3-1.3,1.2-1.6c1.6-0.5,3.3-1,4.9-1.5
			c3.2-1,6.5-1.9,9.7-2.9c0.2-0.1,0.5-0.1,0.7-0.2c0.9-0.2,1.6,0.2,1.7,0.9c0.2,0.7-0.2,1.4-1.1,1.6c-2.4,0.7-4.7,1.4-7.1,2.1
			C218.9,58.4,218.7,58.5,218.5,58.5z"/>
		<path class="st0" d="M210.5,32.3c-2.6,0.8-5.2,1.6-7.8,2.3c-0.4,0.1-1.1-0.1-1.4-0.4c-0.3-0.3-0.2-1-0.1-1.4
			c0.1-0.3,0.5-0.5,0.8-0.6c5.2-1.6,10.4-3.1,15.6-4.7c0.8-0.2,1.4,0.1,1.6,0.8c0.2,0.7-0.1,1.4-0.9,1.6
			C215.8,30.8,213.2,31.5,210.5,32.3z"/>
		<path class="st0" d="M214.5,45.4c-2.5,0.8-5.1,1.5-7.6,2.3c-0.9,0.3-1.6,0-1.8-0.7c-0.3-0.8,0.1-1.4,1.1-1.7
			c3.1-0.9,6.1-1.8,9.2-2.8c2-0.6,4-1.2,5.9-1.8c0.5-0.1,1.1-0.1,1.4,0.1c0.3,0.2,0.6,0.8,0.5,1.1c-0.1,0.4-0.6,1-1,1.1
			c-2.1,0.7-4.2,1.3-6.3,1.9C215.5,45.1,215,45.3,214.5,45.4z"/>
		<path class="st0" d="M195.7,50.5c0.5-2.1,1-3.9,1.4-5.6c0.1-0.2,0.1-0.5,0.2-0.7c0.3-0.7,0.9-1.1,1.6-0.9c0.6,0.2,1.1,0.8,0.9,1.5
			c-0.6,2.6-1.3,5.3-2,7.9c-0.2,0.8-1.1,1.1-1.9,0.7c-1.1-0.6-2.3-1.2-3.4-1.8c-0.7-0.4-0.9-1.1-0.5-1.8c0.3-0.6,1.1-0.8,1.8-0.5
			C194.4,49.6,195,50,195.7,50.5z"/>
		<path class="st0" d="M191.8,37.4c0.6-2.2,1-4,1.5-5.9c0.1-0.4,0.3-0.9,0.6-1c0.4-0.2,1.1-0.3,1.4-0.1c0.4,0.2,0.7,0.9,0.6,1.3
			c-0.6,2.6-1.3,5.3-2,7.9c-0.2,0.8-1,1.1-1.8,0.7c-1.2-0.6-2.4-1.2-3.5-1.9c-0.7-0.4-0.8-1.1-0.5-1.8c0.3-0.6,1.1-0.8,1.8-0.5
			C190.5,36.5,191,36.9,191.8,37.4z"/>
		<path class="st0" d="M199.6,63.6c0.6-2.2,1.1-4.1,1.6-6c0.2-0.9,0.7-1.3,1.4-1.2c0.9,0.1,1.4,0.8,1.1,1.9
			c-0.5,2.1-1.1,4.3-1.6,6.4c-0.1,0.4-0.2,0.7-0.3,1.1c-0.3,0.8-1.1,1.2-1.9,0.8c-1.1-0.6-2.3-1.2-3.4-1.8c-0.7-0.4-0.9-1.1-0.5-1.8
			c0.4-0.6,1.1-0.8,1.8-0.4C198.4,62.7,198.9,63.1,199.6,63.6z"/>
		<path class="st0" d="M196.7,5.2c0.2,0.7-0.2,1.4-0.9,1.6c-0.7,0.2-1.5-0.2-1.7-0.9c-0.2-0.7,0.2-1.3,0.9-1.5
			C195.8,4.1,196.5,4.5,196.7,5.2z"/>
	</g>
	<g>
		<path class="st0" d="M60.8,49.6c-0.2,0-0.4,0-0.7,0l0.1-3c0.6,0,1.2,0,1.8,0l0.3,3C61.8,49.5,61.3,49.6,60.8,49.6z M57.9,49.3
			c-0.7-0.1-1.4-0.3-2.1-0.5l0.9-2.8c0.6,0.2,1.1,0.3,1.7,0.4L57.9,49.3z M64.4,49.2l-0.6-2.9c0.6-0.1,1.2-0.3,1.8-0.5l0.9,2.9
			C65.8,48.9,65.1,49.1,64.4,49.2z M68.5,48l-1.1-2.8c0.5-0.2,1.1-0.5,1.6-0.8l1.5,2.6C69.8,47.4,69.2,47.7,68.5,48z M53.8,47.9
			c-0.6-0.3-1.3-0.7-1.9-1.1l1.6-2.5c0.5,0.3,1.1,0.6,1.6,0.9L53.8,47.9z M0.1,47.3c0-0.5-0.1-1-0.1-1.5c0-0.2,0-0.4,0-0.6l3,0.1
			c0,0.2,0,0.3,0,0.5c0,0.4,0,0.9,0,1.3L0.1,47.3z M159,46c-0.4,0-0.7,0-1.1,0l0.3-3c0.6,0,1.1,0.1,1.7,0l0.3,3
			C159.7,45.9,159.4,46,159,46z M72.3,45.9l-1.7-2.4c0.5-0.3,1-0.7,1.5-1.1l1.9,2.3C73.4,45.1,72.9,45.5,72.3,45.9z M50.1,45.7
			c-0.5-0.4-1.1-0.9-1.6-1.3l2-2.2c0.5,0.4,1,0.8,1.4,1.2L50.1,45.7z M162.3,45.6l-0.7-2.9c0.4-0.1,0.7-0.2,1.1-0.3l0.9,2.8
			C163.2,45.3,162.7,45.4,162.3,45.6z M155.7,45.5c-0.7-0.2-1.4-0.4-2.1-0.7l1.2-2.7c0.6,0.2,1.1,0.4,1.7,0.6L155.7,45.5z
			 M151.6,43.8c-0.6-0.4-1.2-0.8-1.8-1.2l1.8-2.4c0.5,0.4,1,0.7,1.5,1L151.6,43.8z M3.2,43.4l-3-0.4c0.1-0.7,0.2-1.4,0.4-2.1
			l2.9,0.7C3.3,42.2,3.2,42.8,3.2,43.4z M75.6,43.2l-2.1-2.2c0.5-0.4,0.9-0.9,1.3-1.4l2.2,2C76.6,42.2,76.1,42.7,75.6,43.2z
			 M47,42.9c-0.5-0.5-1-1-1.4-1.5l2.2-2c0.4,0.5,0.9,0.9,1.3,1.4L47,42.9z M148.2,41.3c-0.5-0.5-1-0.9-1.5-1.4l2.1-2.1
			c0.5,0.5,0.9,0.9,1.4,1.3L148.2,41.3z M78.4,40.2l-2.3-1.9c0.4-0.5,0.8-1,1.2-1.5l2.4,1.8C79.3,39.1,78.8,39.7,78.4,40.2z
			 M44.2,39.9c-0.4-0.5-0.9-1-1.3-1.5l2.3-2c0.4,0.5,0.9,1,1.3,1.5L44.2,39.9z M4,39.8l-2.8-1c0.2-0.7,0.5-1.3,0.8-2l2.7,1.3
			C4.4,38.7,4.2,39.2,4,39.8z M145.2,38.3c-0.5-0.5-0.9-1-1.4-1.5l2.3-1.9c0.4,0.5,0.9,1,1.3,1.5L145.2,38.3z M41.6,36.9
			c-0.4-0.5-0.9-1-1.3-1.5l2.2-2c0.5,0.5,0.9,1,1.4,1.5L41.6,36.9z M80.9,36.9l-2.5-1.7c0.4-0.5,0.7-1.1,1-1.6l2.6,1.6
			C81.7,35.7,81.3,36.3,80.9,36.9z M5.6,36.5L3,34.9c0.4-0.6,0.8-1.2,1.2-1.8l2.4,1.8C6.2,35.4,5.9,36,5.6,36.5z M142.6,35.3
			c-0.4-0.5-0.8-1-1.3-1.6l2.3-1.9c0.4,0.5,0.8,1,1.3,1.5L142.6,35.3z M38.9,34c-0.4-0.5-0.9-0.9-1.4-1.4l2.1-2.2
			c0.5,0.5,1,1,1.5,1.4L38.9,34z M7.8,33.5l-2.2-2C6,31,6.5,30.5,7,30l2,2.2C8.6,32.6,8.2,33,7.8,33.5z M83.1,33.3l-2.6-1.4
			c0.3-0.6,0.6-1.1,0.9-1.7l0.6,0.3l-0.1-0.8c0.6-0.1,1.3-0.2,1.9-0.3l0.5,2.9c-0.2,0-0.5,0.1-0.7,0.1
			C83.4,32.8,83.2,33.1,83.1,33.3z M78.9,32.9c-0.3,0-0.6,0-0.9,0l0.1-3c0.3,0,0.6,0,0.9,0c0.3,0,0.7,0,1,0l0.1,3
			C79.7,32.9,79.3,32.9,78.9,32.9z M75.8,32.7c-0.7-0.1-1.3-0.2-2-0.3l-0.1,0l0.6-2.9l0.1,0c0.6,0.1,1.1,0.2,1.7,0.3L75.8,32.7z
			 M140.1,32.1c-0.4-0.5-0.8-1-1.2-1.5l2.3-1.9c0.4,0.5,0.8,1,1.3,1.6L140.1,32.1z M86.2,32l-0.7-2.9c0.6-0.1,1.2-0.3,1.9-0.5
			l0.8,2.9C87.6,31.7,86.9,31.8,86.2,32z M71.7,31.8c-0.7-0.2-1.3-0.4-2-0.7l1.1-2.8c0.6,0.2,1.2,0.4,1.8,0.6L71.7,31.8z M36.1,31.4
			c-0.5-0.4-1-0.8-1.5-1.2l1.8-2.4c0.5,0.4,1.1,0.8,1.6,1.3L36.1,31.4z M10.5,31l-1.8-2.4c0.6-0.4,1.1-0.8,1.7-1.2l1.6,2.5
			C11.5,30.2,11,30.6,10.5,31z M90.2,30.9L89.3,28c0.6-0.2,1.2-0.4,1.8-0.6l1,2.8C91.5,30.4,90.9,30.7,90.2,30.9z M67.7,30.3
			c-0.6-0.3-1.3-0.7-1.9-1l1.6-2.5c0.5,0.3,1.1,0.6,1.6,0.9L67.7,30.3z M84.9,29.6l-2.8-1.1c0.2-0.6,0.5-1.2,0.7-1.8l2.8,1
			C85.4,28.3,85.1,29,84.9,29.6z M94.1,29.5L93,26.7c0.6-0.2,1.2-0.5,1.8-0.7l1.1,2.8C95.3,29,94.7,29.3,94.1,29.5z M33.1,29.2
			c-0.5-0.3-1.1-0.6-1.6-0.9l1.3-2.7c0.6,0.3,1.3,0.7,1.9,1L33.1,29.2z M137.6,29.1c-0.4-0.5-0.9-1-1.3-1.5l2.2-2
			c0.4,0.5,0.9,1,1.3,1.5L137.6,29.1z M13.6,28.9l-1.4-2.6c0.6-0.3,1.3-0.6,1.9-0.9l1.2,2.7C14.7,28.4,14.2,28.6,13.6,28.9z
			 M64.1,28c-0.6-0.4-1.1-0.9-1.7-1.4l2-2.2c0.5,0.4,0.9,0.8,1.4,1.2L64.1,28z M97.8,28l-1.2-2.8c0.6-0.3,1.2-0.5,1.8-0.8l1.2,2.7
			C99,27.5,98.4,27.7,97.8,28z M29.8,27.5c-0.6-0.2-1.2-0.4-1.8-0.5l0.7-2.9c0.7,0.2,1.4,0.4,2.1,0.6L29.8,27.5z M17.1,27.5
			l-0.9-2.8c0.7-0.2,1.4-0.4,2-0.6l0.7,2.9C18.2,27.1,17.6,27.3,17.1,27.5z M26.2,26.6c-0.6-0.1-1.2-0.2-1.8-0.2l0.1-3
			c0.7,0,1.4,0.1,2.1,0.2L26.2,26.6z M20.7,26.6l-0.4-3c0.7-0.1,1.4-0.2,2.1-0.2l0.1,3C21.9,26.5,21.3,26.5,20.7,26.6z M101.5,26.4
			l-1.2-2.7l1.8-0.8l1.2,2.7L101.5,26.4z M134.9,26.2c-0.5-0.5-0.9-0.9-1.4-1.3l2-2.2c0.5,0.5,1,0.9,1.5,1.4L134.9,26.2z M86.2,25.7
			l-2.9-0.8c0.2-0.6,0.3-1.2,0.4-1.8l3,0.5C86.6,24.3,86.4,25,86.2,25.7z M60.9,25.2c-0.5-0.5-0.9-1.1-1.4-1.7l2.4-1.8
			c0.4,0.5,0.7,1,1.2,1.4L60.9,25.2z M105.1,24.8l-1.2-2.8c0.6-0.3,1.2-0.5,1.9-0.8l1.1,2.8C106.4,24.3,105.7,24.6,105.1,24.8z
			 M132.1,23.7c-0.5-0.4-1-0.7-1.5-1l1.5-2.6c0.6,0.3,1.2,0.8,1.8,1.2L132.1,23.7z M108.8,23.3l-1.1-2.8c0.6-0.2,1.3-0.5,1.9-0.7
			l1,2.8C110,22.9,109.4,23.1,108.8,23.3z M112.5,22l-0.9-2.9c0.7-0.2,1.3-0.4,2-0.6l0.8,2.9C113.7,21.7,113.1,21.8,112.5,22z
			 M129,21.9c-0.6-0.2-1.2-0.4-1.7-0.6l0.9-2.9c0.7,0.2,1.4,0.5,2,0.7L129,21.9z M58.4,21.7c-0.4-0.6-0.7-1.3-1-2l2.8-1.1
			c0.2,0.6,0.5,1.1,0.8,1.6L58.4,21.7z M85.4,21.3l-1.5-0.1l0-0.1c0-0.2,0-0.4,0-0.6c0-0.4,0-0.7-0.1-1.1l3-0.3
			c0,0.5,0.1,0.9,0.1,1.4c0,0.3,0,0.5,0,0.8L85.4,21.3z M116.2,21.1l-0.6-2.9c0.7-0.1,1.4-0.3,2.1-0.4l0.4,3
			C117.4,20.8,116.8,20.9,116.2,21.1z M125.5,20.8c-0.6-0.1-1.2-0.2-1.8-0.3l0.3-3c0.7,0.1,1.4,0.2,2.1,0.3L125.5,20.8z M119.9,20.5
			l-0.2-3c0.6,0,1.3-0.1,1.9-0.1l0.2,0l0,3l-0.2,0C121.1,20.4,120.5,20.5,119.9,20.5z M83.6,17.7c-0.1-0.6-0.3-1.2-0.5-1.7l2.8-1
			c0.3,0.7,0.5,1.4,0.6,2.1L83.6,17.7z M56.7,17.7c-0.2-0.7-0.4-1.4-0.5-2.1l2.9-0.6c0.1,0.6,0.3,1.2,0.4,1.8L56.7,17.7z M82.4,14.3
			c-0.3-0.5-0.6-1.1-0.9-1.6l2.5-1.6c0.4,0.6,0.8,1.2,1.1,1.9L82.4,14.3z M55.9,13.5c-0.1-0.6-0.1-1.1-0.1-1.7c0-0.2,0-0.3,0-0.5
			l3,0.1c0,0.1,0,0.3,0,0.4c0,0.4,0,0.9,0.1,1.4L55.9,13.5z M80.4,11.2c-0.4-0.5-0.8-1-1.2-1.4l2.2-2c0.5,0.5,1,1.1,1.4,1.6
			L80.4,11.2z M59.1,9.7l-2.9-0.6c0.2-0.8,0.4-1.5,0.7-2.2l2.8,1.2C59.3,8.6,59.2,9.1,59.1,9.7z M77.8,8.5c-0.5-0.4-0.9-0.8-1.4-1.2
			L78.1,5c0.6,0.4,1.1,0.9,1.7,1.3L77.8,8.5z M60.3,6.7l-2.4-1.8c0.5-0.6,1-1.2,1.7-1.7l1.9,2.3C61,5.9,60.7,6.2,60.3,6.7z
			 M74.8,6.3c-0.5-0.3-1.1-0.6-1.6-0.9l1.3-2.7c0.6,0.3,1.3,0.6,1.9,1L74.8,6.3z M71.5,4.8c-0.6-0.2-1.2-0.4-1.8-0.5l0.7-2.9
			c0.7,0.2,1.4,0.4,2.1,0.6L71.5,4.8z M62.8,4.7L61.6,2c0.7-0.3,1.4-0.6,2.2-0.7l0.6,2.9C63.9,4.3,63.3,4.5,62.8,4.7z M67.9,4
			c-0.6-0.1-1.2-0.1-1.8-0.1l-0.1-3c0.7,0,1.5,0,2.2,0.1L67.9,4z"/>
	</g>
</g>
</svg>
