<?xml version="1.0" encoding="utf-8"?>
<!-- Generator: Adobe Illustrator 21.1.0, SVG Export Plug-In . SVG Version: 6.00 Build 0)  -->
<svg version="1.1" id="Layer_1" xmlns="http://www.w3.org/2000/svg" xmlns:xlink="http://www.w3.org/1999/xlink" x="0px" y="0px"
	 viewBox="0 0 269 50" style="enable-background:new 0 0 269 50;" xml:space="preserve">
<style type="text/css">
	.st0{fill:#F9951F;}
</style>
<g>
	<g>
		<g>
			<path class="st0" d="M2.1,16.8L0,14.7c0.2-0.2,0.5-0.5,0.7-0.7l2.1,2.2C2.6,16.4,2.4,16.6,2.1,16.8z"/>
		</g>
		<g>
			<path class="st0" d="M121.9,50c-0.7,0-1.4-0.1-2.2-0.2l0.4-3c0.6,0.1,1.2,0.1,1.8,0.2L121.9,50z M124.1,49.9l-0.3-3
				c0.6-0.1,1.2-0.1,1.8-0.3l0.6,2.9C125.6,49.8,124.8,49.9,124.1,49.9z M117.6,49.4c-0.7-0.2-1.4-0.3-2.1-0.6l0.9-2.8
				c0.6,0.2,1.2,0.4,1.8,0.5L117.6,49.4z M128.4,49l-1-2.8c0.6-0.2,1.1-0.4,1.7-0.7l1.3,2.7C129.8,48.5,129.1,48.8,128.4,49z
				 M56,48.2c-0.7,0-1.5-0.2-2.2-0.3l0.6-2.9c0.6,0.1,1.2,0.2,1.8,0.2L56,48.2z M58.3,48.2l-0.3-3c0.6,0,1.2-0.1,1.8-0.3l0.7,2.9
				C59.8,48,59,48.1,58.3,48.2z M113.6,48.2c-0.6-0.2-1.3-0.5-1.9-0.8l1.2-2.7c0.6,0.3,1.2,0.5,1.8,0.7L113.6,48.2z M51.7,47.3
				c-0.7-0.3-1.4-0.6-2-0.9l1.4-2.6c0.5,0.3,1.1,0.5,1.7,0.7L51.7,47.3z M62.6,47.2l-1.1-2.8c0.5-0.2,1.1-0.5,1.6-0.8l1.5,2.6
				C64,46.6,63.3,46.9,62.6,47.2z M132.3,47.1l-1.6-2.5c0.5-0.3,1-0.7,1.5-1.1l1.9,2.3C133.5,46.2,132.9,46.7,132.3,47.1z
				 M109.8,46.5c-0.6-0.3-1.2-0.6-1.8-1l1.5-2.6c0.6,0.3,1.2,0.6,1.7,0.9L109.8,46.5z M47.8,45.2c-0.6-0.4-1.2-0.9-1.7-1.4l2-2.2
				c0.4,0.4,0.9,0.8,1.4,1.1L47.8,45.2z M66.5,45l-1.8-2.4c0.5-0.4,0.9-0.8,1.4-1.2l2.1,2.1C67.6,44,67,44.5,66.5,45z M106.2,44.5
				c-0.6-0.3-1.2-0.7-1.7-1.1l1.6-2.5c0.6,0.4,1.1,0.7,1.7,1L106.2,44.5z M102.7,42.3c-0.6-0.4-1.1-0.8-1.7-1.1l1.7-2.5
				c0.6,0.4,1.1,0.7,1.7,1.1L102.7,42.3z M44.6,42.2c-0.5-0.6-0.9-1.2-1.3-1.8l2.6-1.5c0.3,0.5,0.6,1,1,1.5L44.6,42.2z M69.6,41.9
				L67.3,40c0.2-0.2,0.3-0.4,0.5-0.6c0.2-0.3,0.5-0.6,0.7-0.9l2.5,1.7c-0.2,0.4-0.5,0.7-0.8,1.1C69.9,41.5,69.8,41.7,69.6,41.9z
				 M99.3,40c-0.6-0.4-1.1-0.8-1.7-1.2l1.8-2.4c0.5,0.4,1.1,0.8,1.6,1.2L99.3,40z M72,38.4L69.4,37c0.3-0.5,0.6-1.1,0.8-1.6l2.8,1.1
				C72.7,37.1,72.4,37.7,72,38.4z M42.3,38.4c-0.3-0.7-0.5-1.4-0.6-2.2l2.9-0.6c0.1,0.6,0.3,1.1,0.5,1.7L42.3,38.4z M96,37.6
				l-1.6-1.2l1.8-2.4l1.6,1.2L96,37.6z M92.8,35.2l-1.6-1.2l1.8-2.4l1.6,1.2L92.8,35.2z M73.6,34.3l-2.9-0.7
				c0.1-0.6,0.2-1.2,0.3-1.7l3,0.2C73.9,32.8,73.8,33.5,73.6,34.3z M41.4,33.9l0-0.2c0-0.7,0.1-1.4,0.2-2.1l3,0.5
				c-0.1,0.5-0.1,1-0.1,1.5l0,0.2L41.4,33.9z M89.5,32.9c-0.5-0.4-1.1-0.8-1.6-1.2l1.7-2.4c0.5,0.4,1.1,0.8,1.6,1.2L89.5,32.9z
				 M86.3,30.6c-0.5-0.4-1.1-0.8-1.6-1.1l1.7-2.5c0.6,0.4,1.1,0.8,1.7,1.2L86.3,30.6z M45,30.5l-2.8-1c0.3-0.7,0.6-1.4,1-2l2.6,1.5
				C45.4,29.5,45.2,30,45,30.5z M70.9,30.1c-0.1-0.6-0.2-1.2-0.3-1.7l2.9-0.7c0.2,0.7,0.3,1.5,0.4,2.2L70.9,30.1z M83,28.3
				c-0.6-0.4-1.1-0.7-1.7-1.1l1.6-2.5c0.6,0.4,1.1,0.7,1.7,1.1L83,28.3z M46.8,27.5l-2.3-1.9c0.4-0.6,0.9-1.1,1.5-1.6l2.1,2.2
				C47.5,26.6,47.1,27,46.8,27.5z M70,26.7c-0.2-0.5-0.5-1.1-0.8-1.6l2.6-1.4c0.4,0.6,0.7,1.3,1,2L70,26.7z M79.6,26.2
				c-0.6-0.3-1.1-0.7-1.7-1l1.5-2.6c0.6,0.3,1.2,0.7,1.8,1L79.6,26.2z M49.4,24.9l-1.8-2.4c0.1-0.1,0.3-0.2,0.5-0.3
				c0.4-0.3,0.9-0.6,1.3-0.9l1.7,2.5c-0.4,0.3-0.8,0.5-1.2,0.8C49.6,24.7,49.5,24.8,49.4,24.9z M76.2,24.3c-0.6-0.3-1.2-0.6-1.8-0.9
				l1.3-2.7c0.6,0.3,1.2,0.6,1.9,0.9L76.2,24.3z M68.3,23.4c-0.3-0.5-0.7-1-1.1-1.5l1-0.8c-0.3-0.1-0.6-0.2-0.9-0.2l0.5-2.1
				l-1.7,1.6c-0.2-0.2-0.3-0.3-0.5-0.5l-0.1,0.6c-0.6-0.1-1.3-0.2-1.9-0.2l0.2-3c0.7,0,1.4,0.1,2.1,0.2l0,0.3l0.9-1
				c0.4,0.4,0.8,0.8,1.2,1.2l0-0.1c0.7,0.1,1.4,0.3,2,0.5l-0.5,1.6l0.1-0.1c0.5,0.6,0.9,1.1,1.3,1.7L68.3,23.4z M52.6,22.9l-1.4-2.6
				c0.6-0.3,1.3-0.7,1.9-0.9l1.2,2.7C53.7,22.3,53.1,22.6,52.6,22.9z M72.6,22.7c-0.6-0.2-1.2-0.5-1.8-0.7l1-2.8
				c0.7,0.2,1.3,0.5,2,0.8L72.6,22.7z M56,21.3l-1-2.8c0.7-0.2,1.4-0.4,2.1-0.6l0.7,2.9C57.2,21,56.6,21.2,56,21.3z M59.6,20.5
				l-0.4-3c0.7-0.1,1.4-0.1,2.2-0.2l0.1,3C60.9,20.4,60.2,20.4,59.6,20.5z M63,17.9c-0.5-0.4-1-0.8-1.5-1.2l1.8-2.4
				c0.5,0.4,1.1,0.9,1.6,1.3L63,17.9z M59.9,15.5c-0.5-0.4-1.1-0.8-1.6-1.1l1.7-2.5c0.6,0.4,1.1,0.8,1.7,1.2L59.9,15.5z M4.3,14.9
				l-2-2.3c0.5-0.5,1.1-0.9,1.6-1.3l1.9,2.3C5.2,14,4.7,14.4,4.3,14.9z M56.7,13.3c-0.6-0.4-1.1-0.7-1.7-1l1.5-2.6
				c0.6,0.3,1.2,0.7,1.8,1.1L56.7,13.3z M7.3,12.5L5.6,10c0.6-0.4,1.1-0.8,1.7-1.2l1.6,2.5C8.4,11.7,7.8,12.1,7.3,12.5z M53.3,11.3
				c-0.6-0.3-1.2-0.6-1.7-0.9l1.4-2.6c0.6,0.3,1.2,0.6,1.8,1L53.3,11.3z M10.6,10.4L9.1,7.8c0.6-0.3,1.2-0.7,1.8-1l1.4,2.7
				C11.7,9.8,11.1,10.1,10.6,10.4z M49.8,9.4L48.9,9c-0.3-0.1-0.6-0.3-0.9-0.4l1.3-2.7c0.3,0.2,0.7,0.3,1,0.5
				c0.3,0.1,0.6,0.3,0.9,0.4L49.8,9.4z M14,8.6l-1.2-2.7c0.6-0.3,1.3-0.6,1.9-0.8l1.1,2.8C15.2,8.1,14.6,8.4,14,8.6z M46.2,7.8
				c-0.6-0.2-1.2-0.5-1.8-0.7l1-2.8c0.7,0.2,1.3,0.5,2,0.7L46.2,7.8z M17.6,7.2l-1-2.8c0.7-0.2,1.3-0.4,2-0.6l0.8,2.9
				C18.9,6.8,18.3,7,17.6,7.2z M42.5,6.5c-0.6-0.2-1.2-0.3-1.9-0.5l0.7-2.9c0.7,0.2,1.3,0.3,2,0.5L42.5,6.5z M21.4,6.1l-0.7-2.9
				c0.7-0.2,1.4-0.3,2-0.4l0.6,2.9C22.6,5.8,22,6,21.4,6.1z M38.8,5.7c-0.6-0.1-1.3-0.2-1.9-0.3l0.4-3c0.7,0.1,1.4,0.2,2.1,0.3
				L38.8,5.7z M25.2,5.4l-0.4-3c0.7-0.1,1.4-0.2,2.1-0.2l0.3,3C26.5,5.2,25.8,5.3,25.2,5.4z M34.9,5.1C34.3,5.1,33.6,5,33,5l0.1-3
				c0.7,0,1.4,0.1,2.1,0.1L34.9,5.1z M29.1,5l-0.2-3C29.6,2,30.3,2,31,2l0,3C30.4,5,29.7,5,29.1,5z"/>
		</g>
		<g>
			<path class="st0" d="M135.7,44.3l-2.1-2.2c0.2-0.2,0.4-0.4,0.7-0.7l2.2,2.1C136.2,43.8,136,44.1,135.7,44.3z"/>
		</g>
	</g>
	<g>
		<g>
			<path class="st0" d="M206.5,8.3l-1.3-2.7c0.3-0.1,0.6-0.3,0.9-0.4l1.3,2.7C207.1,8,206.8,8.2,206.5,8.3z"/>
		</g>
		<g>
			<path class="st0" d="M265.9,33.9c-0.7,0-1.4-0.1-2-0.2l0.4-3c0.6,0.1,1.2,0.1,1.9,0.2L265.9,33.9z M261.8,33.4
				c-0.7-0.1-1.4-0.3-2-0.5l0.8-2.9c0.6,0.2,1.2,0.3,1.8,0.4L261.8,33.4z M257.8,32.3c-0.7-0.2-1.3-0.5-1.9-0.8l1.3-2.7
				c0.5,0.3,1.1,0.5,1.7,0.7L257.8,32.3z M253.9,30.4c-0.6-0.4-1.2-0.8-1.8-1.2l1.9-2.3c0.5,0.4,1,0.7,1.5,1L253.9,30.4z
				 M250.6,27.8c-0.5-0.5-1-1.1-1.4-1.6l2.4-1.8c0.4,0.5,0.8,0.9,1.2,1.3L250.6,27.8z M248,24.4c-0.3-0.6-0.7-1.2-1-1.8l2.7-1.3
				c0.3,0.6,0.6,1.1,0.9,1.6L248,24.4z M246.1,20.7c-0.3-0.6-0.5-1.2-0.7-1.9l2.8-1c0.2,0.6,0.5,1.2,0.7,1.8L246.1,20.7z
				 M244.7,16.9c-0.2-0.6-0.4-1.2-0.7-1.8l2.8-1.1c0.2,0.6,0.5,1.2,0.7,1.9L244.7,16.9z M243.3,13.4c-0.3-0.6-0.5-1.1-0.8-1.7
				l2.6-1.4c0.3,0.6,0.6,1.2,0.9,1.9L243.3,13.4z M241.6,10.1c-0.3-0.5-0.7-1-1.1-1.4l2.3-1.9c0.5,0.5,0.9,1.1,1.3,1.7L241.6,10.1z
				 M239.2,7.4c-0.4-0.4-0.9-0.8-1.4-1.1l1.8-2.4c0.6,0.4,1.1,0.9,1.7,1.4L239.2,7.4z M209.1,7.1l-1.2-2.7c0.6-0.3,1.2-0.5,1.9-0.8
				l1.1,2.8C210.3,6.6,209.7,6.8,209.1,7.1z M212.7,5.7l-1-2.8c0.6-0.2,1.3-0.4,1.9-0.6l0.9,2.8C213.9,5.3,213.3,5.5,212.7,5.7z
				 M236.3,5.3c-0.5-0.3-1.1-0.6-1.6-0.8l1.2-2.7c0.7,0.3,1.3,0.6,1.9,0.9L236.3,5.3z M216.3,4.5l-0.8-2.9c0.7-0.2,1.3-0.4,2-0.5
				l0.7,2.9C217.6,4.2,217,4.3,216.3,4.5z M233,3.9c-0.6-0.2-1.2-0.3-1.8-0.4l0.6-2.9c0.7,0.1,1.4,0.3,2.1,0.5L233,3.9z M220.1,3.6
				l-0.6-2.9c0.7-0.1,1.3-0.2,2-0.3l0.4,3C221.3,3.4,220.7,3.5,220.1,3.6z M229.4,3.1c-0.6-0.1-1.2-0.1-1.9-0.1l0.1-3
				c0.7,0,1.4,0.1,2.1,0.2L229.4,3.1z M223.8,3.1l-0.3-3c0.7-0.1,1.4-0.1,2.1-0.1l0.1,3C225.1,3,224.5,3,223.8,3.1z"/>
		</g>
		<g>
			<path class="st0" d="M269,34c-0.3,0-0.7,0-1,0l0.1-3c0.3,0,0.6,0,1,0V34z"/>
		</g>
	</g>
	<g>
		<g>
			<path class="st0" d="M148.2,39.8c-0.1,0-0.1-0.1-0.2-0.1c-1.8-0.6-2.5-1.9-2-3.8c1.7-6.4,3.4-12.8,5.2-19.2
				c0.6-2.1,1.1-4.3,1.7-6.4c0.6-2,2.3-3.3,4.3-3.3c13.2,0,26.4,0,39.6,0c2.3,0,3.6,1.7,3,3.9c-2.3,8.5-4.5,17-6.8,25.4
				c-0.5,1.7-1.6,2.8-3.3,3.3c-0.1,0-0.2,0.1-0.3,0.2C175.6,39.8,161.9,39.8,148.2,39.8z M157.1,9.3c0.1,0.2,0.1,0.2,0.2,0.3
				c4.7,5,9.3,10,14,15.1c0.4,0.4,0.8,0.4,1.3,0.2c0.3-0.1,0.5-0.3,0.8-0.5c7.2-4.9,14.3-9.7,21.5-14.6c0.2-0.1,0.4-0.3,0.7-0.6
				C182.7,9.3,170,9.3,157.1,9.3z M150,37.4c12.9,0,25.6,0,38.4,0c-0.1-0.2-0.1-0.2-0.2-0.3c-3.7-4-7.4-8-11.1-11.9
				c-0.1-0.1-0.5-0.2-0.7-0.1c-0.7,0.4-1.4,1-2.2,1.4c-0.9,0.6-1.8,0.8-2.9,0.7c-1.1-0.2-1.8-1-2.4-1.8c-0.4-0.5-0.8-0.5-1.3-0.1
				c-5.6,3.9-11.3,7.7-16.9,11.5C150.6,37,150.4,37.2,150,37.4z M190.6,36.3c2.3-8.5,4.5-16.8,6.8-25.2c0,0-0.1-0.1-0.1-0.1
				c-6.1,4.2-12.2,8.3-18.5,12.6C182.7,27.8,186.5,32,190.6,36.3z M148.3,35.6c0,0,0.1,0.1,0.1,0.1c6.1-4.2,12.2-8.3,18.4-12.5
				c-3.9-4.2-7.8-8.4-11.8-12.7C152.8,19,150.6,27.3,148.3,35.6z"/>
		</g>
		<g>
			<path class="st0" d="M129.2,31.3c0.4-0.6,1-0.8,1.8-0.8c3.6,0,7.3,0,10.9,0c0.8,0,1.3,0.4,1.4,1.1c0,0.7-0.4,1.1-1.3,1.1
				c-2.7,0-5.4,0-8.1,0c-1,0-2,0-3,0c-0.7,0-1.3-0.2-1.7-0.9C129.2,31.7,129.2,31.5,129.2,31.3z"/>
		</g>
		<g>
			<path class="st0" d="M139.8,23.3c-1.5,0-3,0-4.5,0c-0.9,0-1.3-0.4-1.3-1.1c0-0.7,0.5-1.1,1.3-1.1c3,0,6,0,9,0
				c0.8,0,1.3,0.4,1.3,1.1c0,0.7-0.4,1.1-1.3,1.1C142.9,23.3,141.4,23.3,139.8,23.3C139.8,23.3,139.8,23.3,139.8,23.3z"/>
		</g>
		<g>
			<path class="st0" d="M143.9,13.9c-0.9,0-1.9,0-2.8,0c-0.7,0-1.2-0.4-1.2-1.1c0-0.7,0.4-1.1,1.1-1.1c1.9,0,3.9,0,5.8,0
				c0.7,0,1.2,0.5,1.1,1.1c0,0.7-0.4,1.1-1.2,1.1C145.9,13.9,144.9,13.9,143.9,13.9z"/>
		</g>
	</g>
</g>
</svg>
