<?xml version="1.0" encoding="utf-8"?>
<!-- Generator: Adobe Illustrator 23.0.3, SVG Export Plug-In . SVG Version: 6.00 Build 0)  -->
<svg version="1.1" id="Layer_1" xmlns="http://www.w3.org/2000/svg" xmlns:xlink="http://www.w3.org/1999/xlink" x="0px" y="0px"
	 viewBox="0 0 238 104" style="enable-background:new 0 0 238 104;" xml:space="preserve">
<style type="text/css">
	.st0{fill:#E0E0E0;}
</style>
<g>
	<g>
		<path class="st0" d="M3,29c-1.2,0.4-2.5-0.3-2.9-1.6c-0.4-1.3,0.4-2.6,1.7-2.9C3,24.3,4.3,25,4.6,26.2C4.9,27.3,4.2,28.6,3,29z"/>
	</g>
	<g>
		<path class="st0" d="M6.4,37.6c-1.2,0.6-2.6,0.1-3.1-1.1c-0.6-1.2,0.1-2.6,1.2-3.1c1.2-0.5,2.5,0.1,3,1.2
			C8.1,35.6,7.6,37,6.4,37.6z"/>
	</g>
	<g>
		<path class="st0" d="M11.1,45.6C10,46.3,8.6,46,7.8,44.9c-0.7-1.1-0.3-2.6,0.8-3.3c1.1-0.6,2.5-0.3,3.1,0.8
			C12.5,43.4,12.2,44.8,11.1,45.6z"/>
	</g>
	<g>
		<path class="st0" d="M16.8,52.9c-0.9,0.9-2.5,0.8-3.3-0.2c-0.8-1-0.7-2.5,0.3-3.3c1-0.8,2.5-0.7,3.2,0.3
			C17.8,50.6,17.8,52,16.8,52.9z"/>
	</g>
	<g>
		<path class="st0" d="M23.5,59.3c-0.4,0.5-1,0.8-1.6,0.8c-0.6,0-1.2-0.2-1.7-0.6c-1-0.9-1-2.4-0.1-3.3c0.9-0.9,2.4-1,3.3-0.2
			c0.5,0.4,0.7,1,0.7,1.6C24.1,58.2,23.9,58.8,23.5,59.3z"/>
	</g>
	<g>
		<path class="st0" d="M30.9,64.8c-0.7,1.1-2.1,1.4-3.2,0.6c-1.1-0.8-1.4-2.2-0.6-3.2c0.8-1,2.2-1.3,3.2-0.6
			C31.3,62.2,31.6,63.7,30.9,64.8z"/>
	</g>
	<g>
		<path class="st0" d="M39.1,69.2c-0.5,1.2-1.9,1.7-3.1,1.1c-0.6-0.3-1-0.8-1.2-1.3c-0.2-0.6-0.1-1.2,0.2-1.8c0.3-0.6,0.8-1,1.4-1.1
			c0.6-0.2,1.2-0.2,1.7,0.1C39.1,66.6,39.6,68,39.1,69.2z"/>
	</g>
	<g>
		<path class="st0" d="M47.8,72.4c-0.3,1.2-1.7,1.9-2.9,1.6c-1.3-0.4-1.9-1.8-1.5-3c0.5-1.2,1.7-1.8,2.9-1.4
			C47.4,69.8,48.1,71.1,47.8,72.4z"/>
	</g>
	<g>
		<path class="st0" d="M56.8,74.3c-0.1,1.3-1.4,2.2-2.7,2c-1.3-0.3-2.2-1.5-1.9-2.8c0.3-1.3,1.5-2.1,2.6-1.8
			C56.1,71.8,56.9,73,56.8,74.3z"/>
	</g>
	<g>
		<path class="st0" d="M66,74.4c0.2,1.3-0.8,2.5-2.2,2.5c-1.4,0.1-2.5-1-2.4-2.3c0-1.3,1-2.3,2.2-2.4C64.8,72.2,65.9,73.1,66,74.4z"
			/>
	</g>
	<g>
		<path class="st0" d="M74.7,71.4c0.4,0.5,0.5,1.2,0.3,1.8c-0.1,0.3-0.2,0.6-0.5,0.9c-0.2,0.3-0.5,0.5-0.9,0.7
			c-1.4,0.6-2.8-0.1-3.1-1.3c-0.4-1.2,0.2-2.5,1.2-3C72.6,70,73.9,70.3,74.7,71.4z"/>
	</g>
	<g>
		<path class="st0" d="M80.3,64.1c0.6,0.3,1,0.8,1.2,1.3c0.2,0.6,0.1,1.3-0.3,1.9c-0.7,1.2-2.3,1.5-3.3,0.7c-1-0.8-1.3-2.2-0.7-3.1
			C77.8,64,79.1,63.6,80.3,64.1z"/>
	</g>
	<g>
		<path class="st0" d="M82.3,55.2c1.3-0.1,2.4,1.1,2.2,2.6c-0.2,1.5-1.5,2.4-2.7,2c-1.3-0.3-2.1-1.4-1.9-2.5
			C80,56.2,81,55.2,82.3,55.2z"/>
	</g>
	<g>
		<path class="st0" d="M78.1,47.3c0.3-0.6,0.8-0.9,1.5-1c0.3,0,0.7,0,1,0.2c0.3,0.1,0.7,0.3,1,0.7c0.6,0.6,0.8,1.4,0.7,2.1
			c-0.1,0.7-0.5,1.2-1.1,1.4C80.7,51,80,51,79.5,50.9c-0.6-0.1-1-0.2-1.3-0.6c-0.1-0.2-0.3-0.3-0.3-0.6c-0.1-0.2-0.1-0.5-0.1-0.7
			C77.7,48.5,77.8,47.9,78.1,47.3z"/>
	</g>
	<g>
		<path class="st0" d="M69.2,46.9c-0.3-0.6-0.2-1.2,0.1-1.8c0.2-0.3,0.4-0.5,0.7-0.8c0.3-0.2,0.7-0.3,1.1-0.4
			c0.8-0.1,1.5,0.1,1.9,0.6c0.5,0.4,0.7,1,0.7,1.7c0,0.6-0.3,1.2-0.7,1.6c-0.4,0.4-0.9,0.7-1.3,0.8c-0.2,0-0.5,0-0.7-0.1
			c-0.2,0-0.5-0.1-0.7-0.3C69.9,47.9,69.4,47.4,69.2,46.9z"/>
	</g>
	<g>
		<path class="st0" d="M63.2,53.6c-0.6-0.2-1.1-0.7-1.3-1.3c-0.2-0.6-0.2-1.3,0.2-2c0.4-0.7,1-1.1,1.6-1.2c0.6-0.1,1.2,0,1.7,0.5
			c0.5,0.4,0.8,1,0.9,1.5c0.1,0.5,0.1,1.1-0.2,1.5C65.7,53.6,64.4,54,63.2,53.6z"/>
	</g>
	<g>
		<path class="st0" d="M62.5,62.7c-0.6,0.1-1.2,0-1.7-0.4c-0.5-0.4-0.9-1-0.9-1.8c0-0.4,0-0.7,0.1-1c0.1-0.3,0.3-0.6,0.5-0.8
			c0.4-0.4,1-0.7,1.7-0.6c0.6,0,1.2,0.3,1.6,0.7c0.2,0.2,0.4,0.4,0.5,0.7c0.1,0.2,0.2,0.5,0.2,0.8c0,0.5-0.2,1.1-0.5,1.5
			C63.7,62.2,63.1,62.6,62.5,62.7z"/>
	</g>
	<g>
		<path class="st0" d="M66.6,71c-1.1,0.7-2.5,0.4-3.3-0.7c-0.7-1.2-0.3-2.6,0.9-3.2c1.2-0.6,2.5-0.2,3.1,0.8
			C68,68.8,67.7,70.2,66.6,71z"/>
	</g>
	<g>
		<path class="st0" d="M72.5,78.1C71.6,79,70,79,69.1,78c-0.9-1-0.8-2.5,0.2-3.3c1-0.8,2.5-0.7,3.3,0.2
			C73.4,75.8,73.4,77.2,72.5,78.1z"/>
	</g>
	<g>
		<path class="st0" d="M79.4,84.2c-0.8,1.1-2.2,1.2-3.3,0.4c-0.5-0.4-0.8-1-0.9-1.6c0-0.6,0.1-1.2,0.6-1.7c0.4-0.5,1-0.8,1.6-0.8
			c0.6-0.1,1.2,0.1,1.7,0.5C80,81.7,80.2,83.2,79.4,84.2z"/>
	</g>
	<g>
		<path class="st0" d="M87.3,89.2c-0.6,1.1-2.1,1.5-3.2,0.9c-1.1-0.7-1.5-2.2-0.8-3.2c0.7-1.1,2.1-1.4,3.2-0.8
			C87.5,86.6,87.9,88.1,87.3,89.2z"/>
	</g>
	<g>
		<path class="st0" d="M95.6,93.2c-0.5,1.2-1.9,1.8-3.1,1.2c-1.2-0.5-1.7-1.9-1.2-3.1c0.6-1.1,1.9-1.7,3.1-1.2
			C95.5,90.7,96.1,92,95.6,93.2z"/>
	</g>
	<g>
		<path class="st0" d="M104.3,96.3c-0.4,1.2-1.7,1.9-2.9,1.5c-1.2-0.4-1.9-1.8-1.4-3c0.4-1.2,1.7-1.9,2.9-1.4
			C104,93.8,104.7,95.1,104.3,96.3z"/>
	</g>
	<g>
		<path class="st0" d="M113.2,98.7c-0.3,1.3-1.5,2-2.8,1.7c-1.3-0.3-2-1.6-1.7-2.8c0.3-1.2,1.6-2,2.8-1.7
			C112.8,96.2,113.5,97.5,113.2,98.7z"/>
	</g>
	<g>
		<path class="st0" d="M122.4,100.4c-0.2,1.3-1.4,2.2-2.7,2c-1.3-0.2-2.1-1.4-1.9-2.7c0.2-1.3,1.4-2.1,2.7-1.9
			C121.7,97.9,122.5,99.1,122.4,100.4z"/>
	</g>
	<g>
		<path class="st0" d="M131.6,101.4c-0.1,1.3-1.2,2.2-2.5,2.1c-1.3-0.1-2.2-1.3-2.1-2.6c0.1-1.3,1.3-2.2,2.5-2.1
			C130.7,98.9,131.7,100.1,131.6,101.4z"/>
	</g>
	<g>
		<path class="st0" d="M140.8,101.7c0,1.3-1,2.4-2.4,2.3c-1.3,0-2.3-1.1-2.3-2.4c0-1.3,1.1-2.3,2.4-2.3
			C139.8,99.4,140.8,100.4,140.8,101.7z"/>
	</g>
	<g>
		<path class="st0" d="M150.1,101.3c0.1,1.3-0.9,2.4-2.2,2.5c-1.3,0.1-2.4-0.9-2.5-2.2c0-1.3,0.9-2.4,2.2-2.5
			C148.9,99,150,100,150.1,101.3z"/>
	</g>
	<g>
		<path class="st0" d="M159.3,100.2c0.2,1.3-0.6,2.5-1.9,2.7c-1.3,0.2-2.5-0.7-2.6-2c-0.2-1.3,0.7-2.5,2-2.6
			C157.9,98,159,98.9,159.3,100.2z"/>
	</g>
	<g>
		<path class="st0" d="M168.3,98.1c0.4,1.2-0.4,2.6-1.6,2.9c-1.3,0.3-2.6-0.5-2.8-1.7c-0.3-1.3,0.5-2.5,1.7-2.8
			C166.7,96.1,167.9,96.8,168.3,98.1z"/>
	</g>
	<g>
		<path class="st0" d="M177,95c0.5,1.2-0.1,2.6-1.3,3c-1.2,0.5-2.6-0.2-3-1.4c-0.4-1.2,0.2-2.5,1.3-3C175.2,93.2,176.5,93.8,177,95z
			"/>
	</g>
	<g>
		<path class="st0" d="M185.4,91.1c0.6,1.1,0.1,2.5-1,3.1c-1.2,0.6-2.6,0.1-3.1-1.1c-0.5-1.2-0.1-2.5,1-3.1
			C183.4,89.5,184.8,89.9,185.4,91.1z"/>
	</g>
	<g>
		<path class="st0" d="M193.4,86.4c0.7,1.1,0.4,2.5-0.7,3.2c-1.1,0.7-2.6,0.3-3.2-0.8c-0.6-1.1-0.3-2.6,0.7-3.2
			C191.2,85,192.7,85.3,193.4,86.4z"/>
	</g>
	<g>
		<path class="st0" d="M200.9,81c0.8,1,0.6,2.5-0.4,3.3c-1.1,0.8-2.5,0.6-3.3-0.5c-0.7-1.1-0.5-2.5,0.5-3.2
			C198.7,79.8,200.1,80,200.9,81z"/>
	</g>
	<g>
		<path class="st0" d="M207.9,75c0.9,0.9,0.8,2.5-0.2,3.3c-1,0.9-2.5,0.8-3.3-0.2c-0.8-1-0.7-2.4,0.2-3.3
			C205.6,74,207.1,74,207.9,75z"/>
	</g>
	<g>
		<path class="st0" d="M214.4,68.4c1,0.9,1,2.4,0.1,3.3c-0.9,0.9-2.4,1-3.3,0.1c-0.9-0.9-1-2.4-0.1-3.3
			C212,67.6,213.5,67.5,214.4,68.4z"/>
	</g>
	<g>
		<path class="st0" d="M220.3,61.2c1,0.8,1.2,2.2,0.5,3.3c-0.8,1-2.3,1.2-3.3,0.4c-1-0.8-1.1-2.3-0.4-3.2
			C217.8,60.6,219.3,60.5,220.3,61.2z"/>
	</g>
	<g>
		<path class="st0" d="M225.4,53.5c1.1,0.7,1.5,2.1,0.8,3.2c-0.7,1.1-2.2,1.4-3.2,0.7c-1.1-0.7-1.3-2.1-0.7-3.2
			C222.9,53.2,224.3,52.9,225.4,53.5z"/>
	</g>
	<g>
		<path class="st0" d="M229.7,45.3c1.2,0.5,1.7,1.9,1.1,3.1c-0.6,1.2-2,1.7-3.1,1.1c-1.1-0.6-1.6-2-1.1-3.1
			C227.2,45.2,228.5,44.8,229.7,45.3z"/>
	</g>
	<g>
		<path class="st0" d="M233,36.6c0.6,0.2,1.1,0.6,1.4,1.1c0.3,0.5,0.3,1.2,0.1,1.8c-0.4,1.3-1.8,1.9-3,1.4c-1.2-0.5-1.9-1.8-1.5-2.9
			c0.2-0.6,0.6-1,1.2-1.3C231.7,36.5,232.3,36.4,233,36.6z"/>
	</g>
	<g>
		<path class="st0" d="M235,27.6c1.3,0.2,2.2,1.4,1.9,2.7c-0.3,1.3-1.5,2.1-2.8,1.8c-1.3-0.3-2.1-1.5-1.8-2.7
			C232.6,28.2,233.7,27.4,235,27.6z"/>
	</g>
	<g>
		<path class="st0" d="M235.7,18.3c1.3,0,2.3,1.1,2.3,2.4c-0.1,1.3-1.2,2.3-2.5,2.2c-1.3-0.1-2.2-1.2-2.2-2.4
			C233.3,19.4,234.4,18.4,235.7,18.3z"/>
	</g>
	<g>
		<path class="st0" d="M234.9,9.1c1.3-0.2,2.5,0.7,2.6,2c0.2,1.3-0.8,2.5-2.1,2.6c-1.3,0.1-2.4-0.8-2.6-2
			C232.8,10.5,233.6,9.3,234.9,9.1z"/>
	</g>
	<g>
		<path class="st0" d="M232.7,0.1c1.2-0.4,2.5,0.3,2.9,1.6c0.4,1.3-0.3,2.6-1.6,2.9c-1.2,0.3-2.5-0.4-2.9-1.6
			C230.8,1.8,231.5,0.5,232.7,0.1z"/>
	</g>
</g>
</svg>
