<?xml version="1.0" encoding="utf-8"?>
<!-- Generator: Adobe Illustrator 23.0.3, SVG Export Plug-In . SVG Version: 6.00 Build 0)  -->
<svg version="1.1" id="Layer_1" xmlns="http://www.w3.org/2000/svg" xmlns:xlink="http://www.w3.org/1999/xlink" x="0px" y="0px"
	 viewBox="0 0 190 90" style="enable-background:new 0 0 190 90;" xml:space="preserve">
<style type="text/css">
	.st0{fill:#E0E0E0;}
</style>
<g>
	<g>
		<path class="st0" d="M3.4,44.1c1.2,0.6,1.7,2,1.1,3.1c-0.6,1.1-1.8,1.7-3.1,1.2c-1.2-0.5-1.8-1.9-1.2-3.1
			C0.8,44.1,2.2,43.6,3.4,44.1z"/>
	</g>
	<g>
		<path class="st0" d="M8,36c1.1,0.7,1.3,2.1,0.7,3.2c-0.6,1.1-2,1.4-3.2,0.8c-1.1-0.6-1.5-2.1-0.8-3.3C5.4,35.6,6.9,35.3,8,36z"/>
	</g>
	<g>
		<path class="st0" d="M13.6,28.6c1,0.9,1.1,2.3,0.3,3.3c-0.8,1-2.3,1.1-3.3,0.3c-1.1-0.8-1.2-2.3-0.4-3.3
			C11.2,27.9,12.6,27.7,13.6,28.6z"/>
	</g>
	<g>
		<path class="st0" d="M20.1,21.9c0.9,1,0.8,2.4-0.1,3.3c-0.9,0.9-2.3,0.9-3.2,0c-0.9-0.9-0.9-2.4,0-3.4
			C17.7,20.8,19.2,20.9,20.1,21.9z"/>
	</g>
	<g>
		<path class="st0" d="M27.3,15.9c0.7,1.1,0.6,2.5-0.4,3.3c-1,0.8-2.4,0.6-3.3-0.5c-0.8-1-0.6-2.5,0.4-3.3
			C25,14.7,26.5,14.9,27.3,15.9z"/>
	</g>
	<g>
		<path class="st0" d="M35.1,11c0.6,1.1,0.2,2.6-0.9,3.2c-1.1,0.6-2.5,0.3-3.2-0.8c-0.7-1.1-0.4-2.6,0.8-3.3
			C33.1,9.4,34.5,9.8,35.1,11z"/>
	</g>
	<g>
		<path class="st0" d="M43.5,7c0.5,1.2-0.1,2.6-1.2,3.1c-1.1,0.5-2.5,0-3-1.2c-0.6-1.2,0-2.6,1.2-3.1C41.7,5.2,43,5.7,43.5,7z"/>
	</g>
	<g>
		<path class="st0" d="M52.4,4.2C52.7,5.4,52,6.7,50.8,7c-1.2,0.3-2.5-0.4-2.9-1.6c-0.4-1.2,0.3-2.6,1.6-2.9
			C50.8,2.2,52.1,2.9,52.4,4.2z"/>
	</g>
	<g>
		<path class="st0" d="M61.5,2.6c0.1,1.3-0.8,2.3-2,2.6c-1.2,0.2-2.4-0.7-2.6-2c-0.2-1.3,0.7-2.5,2-2.7C60.2,0.3,61.4,1.3,61.5,2.6z
			"/>
	</g>
	<g>
		<path class="st0" d="M70.8,2.4c-0.1,1.3-1.1,2.3-2.4,2.3c-1.2,0-2.2-1.1-2.3-2.4c0-1.3,1-2.3,2.4-2.3C69.9,0,70.9,1.1,70.8,2.4z"
			/>
	</g>
	<g>
		<path class="st0" d="M80,3.9c-0.4,1.3-1.6,2-2.7,1.7c-1.2-0.2-2-1.5-1.8-2.7c0.2-1.3,1.4-2.1,2.8-1.9C79.6,1.3,80.3,2.7,80,3.9z"
			/>
	</g>
	<g>
		<path class="st0" d="M88.6,7.2c-0.6,1.2-1.9,1.6-3,1.2c-1.1-0.5-1.6-1.9-1.2-3.1c0.5-1.2,1.8-1.8,3.1-1.3
			C88.8,4.6,89.2,6.1,88.6,7.2z"/>
	</g>
	<g>
		<path class="st0" d="M96.5,12.2c-0.4,0.5-1,0.8-1.5,0.9c-0.6,0.1-1.2,0-1.7-0.4c-0.5-0.4-0.8-0.9-0.9-1.5c-0.1-0.6,0-1.2,0.3-1.7
			c0.3-0.6,0.9-0.9,1.5-1c0.6-0.1,1.2,0,1.8,0.4c0.6,0.4,0.9,1,1,1.6C97,11.1,96.9,11.7,96.5,12.2z"/>
	</g>
	<g>
		<path class="st0" d="M102.9,18.9c-1,0.7-2.5,0.6-3.2-0.3c-0.7-0.9-0.7-2.3,0.2-3.3c0.9-0.9,2.5-0.9,3.3,0.2
			C104.1,16.6,104,18.1,102.9,18.9z"/>
	</g>
	<g>
		<path class="st0" d="M108.5,36.4c-1.3-0.2-2.2-1.2-2.3-2.2c-0.1-1.1,0.8-2.2,2.1-2.5c1.3-0.2,2.5,0.7,2.6,2.2
			C111,35.4,109.8,36.5,108.5,36.4z"/>
	</g>
	<g>
		<path class="st0" d="M105.3,45c-0.5-0.4-0.9-0.9-1-1.5c-0.2-0.6-0.1-1.2,0.1-1.7c0.3-0.5,0.7-0.9,1.3-1.1c0.5-0.2,1.2-0.2,1.8,0
			c0.6,0.2,1.1,0.7,1.3,1.3c0.2,0.6,0.2,1.3-0.2,1.9c-0.3,0.6-0.9,1.1-1.5,1.2C106.5,45.5,105.8,45.4,105.3,45z"/>
	</g>
	<g>
		<path class="st0" d="M98.9,51.8c-0.7-1.1-0.6-2.5,0.3-3.2c0.9-0.8,2.3-0.7,3.2,0.1c0.9,0.9,0.9,2.5-0.1,3.4
			C101.2,53,99.7,52.9,98.9,51.8z"/>
	</g>
	<g>
		<path class="st0" d="M90.6,55.8c-0.1-0.6,0-1.3,0.2-1.8c0.3-0.5,0.7-0.9,1.2-1.1c0.5-0.2,1.1-0.1,1.6,0.1c0.5,0.2,1,0.7,1.3,1.2
			c0.3,0.6,0.3,1.2,0.1,1.8c-0.2,0.6-0.7,1.1-1.4,1.3c-0.7,0.3-1.4,0.2-1.9-0.1C91.1,57,90.7,56.4,90.6,55.8z"/>
	</g>
	<g>
		<path class="st0" d="M81.7,54.4c0.4-0.5,0.9-0.9,1.4-1.1c0.3-0.1,0.5-0.2,0.7-0.2c0.2,0,0.5,0,0.7,0.1c0.4,0.2,0.8,0.5,1.1,1
			c0.3,0.5,0.4,1.1,0.4,1.7c-0.1,0.6-0.4,1.2-1,1.5c-0.5,0.3-1.3,0.4-2.1,0.1c-0.4-0.2-0.7-0.3-1-0.6c-0.2-0.3-0.4-0.6-0.5-0.9
			C81.2,55.6,81.3,55,81.7,54.4z"/>
	</g>
	<g>
		<path class="st0" d="M77.1,46.5c1.2-0.2,2.5,0.4,2.8,1.5c0.2,0.5,0.1,1.1-0.1,1.6c-0.2,0.5-0.6,1-1.2,1.3
			c-0.6,0.3-1.2,0.4-1.8,0.1c-0.6-0.2-1.1-0.8-1.3-1.5C75,48.1,75.8,46.8,77.1,46.5z"/>
	</g>
	<g>
		<path class="st0" d="M79.1,37.6c1.1,0.8,1.4,2.1,1,3c-0.4,0.9-1.6,1.5-2.9,1.2c-0.6-0.2-1.1-0.6-1.4-1.2c-0.3-0.6-0.3-1.3,0-2
			C76.5,37.3,78.1,36.9,79.1,37.6z"/>
	</g>
	<g>
		<path class="st0" d="M85.9,31.3c0.7,1.1,0.6,2.6-0.4,3.3c-1,0.8-2.4,0.6-3.3-0.4c-0.8-1-0.7-2.5,0.4-3.3
			C83.7,30,85.1,30.2,85.9,31.3z"/>
	</g>
	<g>
		<path class="st0" d="M94,26.7c0.5,1.2,0.1,2.6-1,3.2c-1.1,0.5-2.5,0.1-3.1-1.1c-0.7-1.1-0.2-2.5,1-3.2C92,25,93.4,25.5,94,26.7z"
			/>
	</g>
	<g>
		<path class="st0" d="M102.8,23.7c0.3,1.2-0.4,2.6-1.6,2.9c-1.2,0.3-2.4-0.4-2.9-1.6c-0.4-1.2,0.3-2.5,1.6-2.9
			C101.2,21.7,102.5,22.4,102.8,23.7z"/>
	</g>
	<g>
		<path class="st0" d="M112,22.5c0,0.7-0.2,1.2-0.6,1.7c-0.4,0.5-0.9,0.8-1.5,0.9c-1.2,0.1-2.3-0.8-2.5-2.1
			c-0.2-1.3,0.8-2.4,2.1-2.6c0.7-0.1,1.3,0.1,1.7,0.5C111.6,21.2,111.9,21.8,112,22.5z"/>
	</g>
	<g>
		<path class="st0" d="M121.2,22.8c-0.1,0.6-0.4,1.2-0.8,1.6c-0.4,0.4-1,0.6-1.6,0.6c-1.2-0.1-2.2-1.2-2.2-2.5
			c0-1.3,1.1-2.3,2.5-2.2c0.7,0,1.2,0.3,1.6,0.8C121.1,21.5,121.3,22.1,121.2,22.8z"/>
	</g>
	<g>
		<path class="st0" d="M130.4,24.4c-0.2,0.6-0.5,1.1-1,1.4c-0.5,0.3-1.1,0.5-1.7,0.3c-1.2-0.2-2-1.5-1.8-2.8
			c0.2-1.3,1.5-2.1,2.8-1.8c0.7,0.1,1.2,0.5,1.5,1C130.4,23.1,130.5,23.8,130.4,24.4z"/>
	</g>
	<g>
		<path class="st0" d="M139.2,27.2c-0.2,0.6-0.7,1.1-1.2,1.3c-0.5,0.3-1.2,0.3-1.7,0.1c-1.2-0.4-1.8-1.7-1.4-3
			c0.4-1.2,1.7-1.9,3-1.5c0.6,0.2,1.1,0.7,1.4,1.2C139.4,26,139.5,26.6,139.2,27.2z"/>
	</g>
	<g>
		<path class="st0" d="M147.7,31.1c-0.6,1.1-2,1.6-3.1,1.1c-1.1-0.5-1.6-2-1.1-3.1c0.5-1.2,1.9-1.7,3.1-1.1
			C147.8,28.5,148.3,30,147.7,31.1z"/>
	</g>
	<g>
		<path class="st0" d="M155.7,35.9c-0.7,1.1-2.2,1.4-3.2,0.7c-1-0.7-1.4-2.1-0.7-3.2c0.7-1.1,2.1-1.4,3.2-0.7
			C156.1,33.4,156.4,34.9,155.7,35.9z"/>
	</g>
	<g>
		<path class="st0" d="M163.1,41.6c-0.8,1-2.3,1.2-3.3,0.4c-1-0.8-1.1-2.3-0.3-3.3c0.8-1.1,2.2-1.2,3.3-0.4
			C163.7,39.1,163.9,40.6,163.1,41.6z"/>
	</g>
	<g>
		<path class="st0" d="M169.8,48.1c-0.9,0.9-2.4,0.9-3.3,0c-0.9-0.9-0.9-2.4,0-3.3c0.9-1,2.4-1,3.3,0
			C170.7,45.7,170.7,47.2,169.8,48.1z"/>
	</g>
	<g>
		<path class="st0" d="M175.7,55.2c-1,0.8-2.5,0.6-3.3-0.4c-0.4-0.5-0.5-1.1-0.4-1.7c0.1-0.6,0.3-1.2,0.8-1.6
			c0.5-0.4,1.1-0.6,1.7-0.5c0.6,0.1,1.2,0.4,1.6,0.9C177,53,176.8,54.5,175.7,55.2z"/>
	</g>
	<g>
		<path class="st0" d="M180.7,63.1c-1.1,0.6-2.6,0.2-3.2-0.8c-0.6-1.1-0.3-2.5,0.8-3.2c1.1-0.7,2.6-0.4,3.2,0.8
			C182.2,61.1,181.8,62.5,180.7,63.1z"/>
	</g>
	<g>
		<path class="st0" d="M184.5,71.7c-1.2,0.4-2.6-0.1-3-1.3c-0.2-0.6-0.2-1.2,0-1.8c0.2-0.5,0.6-1,1.2-1.3c0.6-0.3,1.2-0.3,1.8-0.1
			c0.6,0.2,1,0.7,1.3,1.3C186.3,69.9,185.7,71.2,184.5,71.7z"/>
	</g>
	<g>
		<path class="st0" d="M186.9,80.7c-1.3,0.2-2.5-0.6-2.8-1.8c-0.1-0.6,0-1.2,0.3-1.7c0.3-0.5,0.8-0.9,1.4-1.1
			c0.6-0.2,1.3-0.1,1.8,0.2c0.5,0.3,0.9,0.9,1,1.5C189,79.2,188.2,80.5,186.9,80.7z"/>
	</g>
	<g>
		<path class="st0" d="M187.7,90c-1.3,0-2.4-1-2.4-2.3c0-1.2,1-2.3,2.2-2.4c1.3-0.1,2.4,0.9,2.4,2.3C190,88.9,189,90,187.7,90z"/>
	</g>
</g>
</svg>
