<?xml version="1.0" encoding="utf-8"?>
<!-- Generator: Adobe Illustrator 23.0.3, SVG Export Plug-In . SVG Version: 6.00 Build 0)  -->
<svg version="1.1" id="Layer_1" xmlns="http://www.w3.org/2000/svg" xmlns:xlink="http://www.w3.org/1999/xlink" x="0px" y="0px"
	 viewBox="0 0 189 117" style="enable-background:new 0 0 189 117;" xml:space="preserve">
<style type="text/css">
	.st0{fill:#E0E0E0;}
</style>
<g>
	<g>
		<path class="st0" d="M3.9,30.2c1,0.8,1.1,2.3,0.3,3.3c-0.8,1-2.2,1.3-3.3,0.5s-1.2-2.3-0.4-3.4C1.4,29.5,2.9,29.3,3.9,30.2z"/>
	</g>
	<g>
		<path class="st0" d="M10.4,23.1c0.9,0.9,0.8,2.4,0,3.3c-0.9,0.9-2.4,1-3.3,0.1c-1-0.9-1-2.4,0-3.4C8,22.2,9.5,22.1,10.4,23.1z"/>
	</g>
	<g>
		<path class="st0" d="M17.8,16.9c0.8,1,0.6,2.5-0.5,3.3c-1,0.8-2.5,0.7-3.3-0.3c-0.8-1-0.7-2.5,0.4-3.4
			C15.5,15.7,17,15.8,17.8,16.9z"/>
	</g>
	<g>
		<path class="st0" d="M25.9,11.6c0.6,1.1,0.2,2.5-0.9,3.2c-1.1,0.7-2.6,0.4-3.3-0.7c-0.7-1.1-0.3-2.5,0.8-3.3
			C23.7,10.1,25.2,10.5,25.9,11.6z"/>
	</g>
	<g>
		<path class="st0" d="M34.5,7.3c0.5,1.2-0.1,2.6-1.2,3.1c-1.2,0.5-2.6,0.1-3.1-1.1c-0.6-1.1-0.1-2.6,1.2-3.2
			C32.6,5.6,34,6.1,34.5,7.3z"/>
	</g>
	<g>
		<path class="st0" d="M43.6,4.2C44,5.4,43.2,6.7,42,7.1c-1.2,0.4-2.6-0.3-3-1.5c-0.4-1.2,0.3-2.6,1.6-3C41.9,2.2,43.3,2.9,43.6,4.2
			z"/>
	</g>
	<g>
		<path class="st0" d="M53.1,2.3c0.1,1.3-0.8,2.4-2,2.6c-1.2,0.2-2.5-0.6-2.7-1.9c-0.3-1.3,0.6-2.5,2-2.7C51.7,0.1,53,1,53.1,2.3z"
			/>
	</g>
	<g>
		<path class="st0" d="M62.7,2.7c-0.3,1.3-1.5,2.1-2.6,2c-1.2-0.1-2.2-1.2-2.1-2.5c0-1.3,1.2-2.3,2.7-2.1c0.7,0.1,1.3,0.4,1.7,0.9
			C62.6,1.5,62.8,2.1,62.7,2.7z"/>
	</g>
	<g>
		<path class="st0" d="M71.4,6.7c-0.8,1-2.2,1.2-3.2,0.6c-1-0.6-1.4-1.9-0.9-3.1c0.5-1.2,2-1.7,3.3-0.9C71.9,4.1,72.2,5.7,71.4,6.7z
			"/>
	</g>
	<g>
		<path class="st0" d="M77.2,14.2c-1.2,0.5-2.5,0-3.1-0.9c-0.3-0.5-0.3-1.1-0.3-1.7c0.1-0.6,0.4-1.1,0.9-1.5s1.1-0.5,1.8-0.4
			c0.7,0.1,1.2,0.6,1.6,1.2C78.9,12.1,78.4,13.7,77.2,14.2z"/>
	</g>
	<g>
		<path class="st0" d="M79.5,23.5c-1.3,0.1-2.4-0.9-2.6-2.1c-0.2-1.2,0.6-2.4,1.9-2.7c0.6-0.2,1.3,0,1.8,0.4c0.5,0.4,0.9,1,1,1.7
			C81.7,22.2,80.8,23.5,79.5,23.5z"/>
	</g>
	<g>
		<path class="st0" d="M78.8,33.1c-0.6-0.1-1.2-0.5-1.5-1c-0.3-0.5-0.5-1.1-0.4-1.7c0.2-1.2,1.3-2.2,2.6-2.1
			c1.3,0.1,2.2,1.3,2.1,2.7c-0.1,0.7-0.5,1.3-1,1.7C80.1,33.1,79.4,33.3,78.8,33.1z"/>
	</g>
	<g>
		<path class="st0" d="M89.3,36.1c0.6,1.2,0.1,2.5-1.1,3.1c-1.1,0.6-2.6,0.1-3.2-1c-0.6-1.1-0.1-2.6,1.1-3.2
			C87.3,34.4,88.8,34.9,89.3,36.1z"/>
	</g>
	<g>
		<path class="st0" d="M98.1,32.3c0.4,1.2-0.2,2.6-1.4,3c-1.2,0.5-2.5-0.1-3.1-1.2c-0.5-1.2,0.1-2.6,1.3-3.1
			C96.3,30.5,97.7,31.1,98.1,32.3z"/>
	</g>
	<g>
		<path class="st0" d="M107.2,29.5c0.3,1.3-0.4,2.6-1.6,2.9c-1.2,0.3-2.5-0.3-2.9-1.6c-0.4-1.2,0.3-2.6,1.6-2.9
			C105.5,27.5,106.9,28.2,107.2,29.5z"/>
	</g>
	<g>
		<path class="st0" d="M116.5,27.6c0.2,1.3-0.7,2.4-2,2.7c-1.3,0.2-2.5-0.6-2.7-1.9c-0.3-1.3,0.6-2.5,1.9-2.7
			C115.1,25.4,116.3,26.3,116.5,27.6z"/>
	</g>
	<g>
		<path class="st0" d="M126,26.8c0,1.3-1,2.4-2.3,2.4c-1.3,0.1-2.4-0.9-2.5-2.2c-0.1-1.3,0.9-2.4,2.3-2.5
			C124.9,24.5,126,25.5,126,26.8z"/>
	</g>
	<g>
		<path class="st0" d="M135.5,27.3c-0.2,1.3-1.3,2.2-2.6,2.1c-1.3-0.1-2.2-1.2-2.2-2.5c0.1-1.3,1.2-2.3,2.6-2.2
			C134.7,24.8,135.7,26,135.5,27.3z"/>
	</g>
	<g>
		<path class="st0" d="M144.8,29.1c-0.4,1.3-1.6,1.9-2.8,1.7c-1.2-0.3-2-1.5-1.8-2.8c0.2-1.3,1.5-2.1,2.9-1.8
			C144.4,26.5,145.2,27.9,144.8,29.1z"/>
	</g>
	<g>
		<path class="st0" d="M153.8,32.3c-0.5,1.2-1.9,1.7-3.1,1.3c-1.2-0.5-1.8-1.8-1.4-3c0.4-1.2,1.8-1.9,3.1-1.4
			C153.7,29.7,154.3,31.1,153.8,32.3z"/>
	</g>
	<g>
		<path class="st0" d="M162.2,36.7c-0.7,1.1-2.1,1.4-3.2,0.8c-1.1-0.6-1.5-2.1-0.9-3.2c0.6-1.2,2.1-1.5,3.2-0.9
			C162.5,34.2,162.9,35.6,162.2,36.7z"/>
	</g>
	<g>
		<path class="st0" d="M169.8,42.4c-0.9,1-2.3,1-3.3,0.3c-1-0.8-1.2-2.2-0.4-3.3c0.8-1,2.3-1.2,3.4-0.4
			C170.6,39.9,170.7,41.5,169.8,42.4z"/>
	</g>
	<g>
		<path class="st0" d="M176.4,49.3c-1,0.8-2.5,0.7-3.3-0.3c-0.4-0.5-0.6-1.1-0.6-1.7c0-0.6,0.3-1.2,0.7-1.6c0.5-0.4,1.1-0.7,1.7-0.6
			c0.6,0,1.2,0.3,1.7,0.8C177.5,47,177.4,48.5,176.4,49.3z"/>
	</g>
	<g>
		<path class="st0" d="M181.6,57.2c-0.6,0.3-1.2,0.3-1.8,0.2c-0.6-0.2-1.1-0.5-1.4-1c-0.6-1.1-0.3-2.5,0.8-3.2
			c1.1-0.7,2.5-0.4,3.2,0.8c0.4,0.6,0.5,1.2,0.3,1.8C182.6,56.4,182.2,56.9,181.6,57.2z"/>
	</g>
	<g>
		<path class="st0" d="M185.2,66c-1.2,0.3-2.5-0.3-2.9-1.5c-0.5-1.1,0.1-2.5,1.3-3s2.6,0.1,3.1,1.4C187.2,64.3,186.5,65.7,185.2,66z
			"/>
	</g>
	<g>
		<path class="st0" d="M186.8,75.4c-1.3,0.1-2.4-0.9-2.6-2.1c-0.1-1.2,0.7-2.4,2-2.6c1.3-0.2,2.5,0.7,2.6,2.1
			C189.1,74.2,188.1,75.4,186.8,75.4z"/>
	</g>
	<g>
		<path class="st0" d="M186.4,84.9c-1.3-0.2-2.1-1.4-2-2.6c0.1-1.2,1.2-2.2,2.5-2.1c1.3,0,2.2,1.2,2.1,2.6
			C188.9,84.2,187.6,85.1,186.4,84.9z"/>
	</g>
	<g>
		<path class="st0" d="M184,94.1c-1.2-0.5-1.9-1.8-1.4-2.9c0.3-1.2,1.6-1.9,2.8-1.6c1.2,0.3,2,1.7,1.6,3
			C186.6,93.9,185.3,94.6,184,94.1z"/>
	</g>
	<g>
		<path class="st0" d="M179.9,102.7c-1.1-0.7-1.5-2.1-0.9-3.2c0.3-0.5,0.8-0.9,1.4-1.1c0.5-0.2,1.2-0.2,1.8,0.1
			c0.6,0.3,1,0.8,1.2,1.4c0.2,0.6,0.1,1.3-0.3,1.9C182.5,103,181,103.4,179.9,102.7z"/>
	</g>
	<g>
		<path class="st0" d="M174,110.1c-0.5-0.5-0.7-1.1-0.7-1.6c0-0.6,0.2-1.1,0.6-1.6c0.8-0.9,2.3-1.1,3.3-0.3c1,0.8,1.1,2.3,0.2,3.4
			c-0.4,0.5-1.1,0.8-1.7,0.8C175,110.8,174.4,110.6,174,110.1z"/>
	</g>
	<g>
		<path class="st0" d="M166.4,115.9c-0.6-1.1-0.3-2.6,0.7-3.2c0.3-0.2,0.6-0.2,0.8-0.3c0.3-0.1,0.6-0.1,0.9,0
			c0.6,0.1,1.1,0.4,1.5,0.9c0.4,0.5,0.5,1.1,0.4,1.8c-0.1,0.3-0.2,0.6-0.3,0.9c-0.2,0.3-0.4,0.5-0.7,0.7
			C168.5,117.3,167,117,166.4,115.9z"/>
	</g>
</g>
</svg>
