<?xml version="1.0" encoding="utf-8"?>
<!-- Generator: Adobe Illustrator 23.0.3, SVG Export Plug-In . SVG Version: 6.00 Build 0)  -->
<svg version="1.1" id="Layer_1" xmlns="http://www.w3.org/2000/svg" xmlns:xlink="http://www.w3.org/1999/xlink" x="0px" y="0px"
	 viewBox="0 0 80 169" style="enable-background:new 0 0 80 169;" xml:space="preserve">
<style type="text/css">
	.st0{fill:#E0E0E0;}
</style>
<g>
	<g>
		<path class="st0" d="M68.7,166.3c0.2-1.3,1.3-2.2,2.6-2c0.3,0,0.6,0.2,0.8,0.3c0.3,0.1,0.5,0.3,0.7,0.5c0.4,0.4,0.6,1,0.5,1.7
			c-0.1,0.6-0.4,1.2-0.8,1.6c-0.2,0.2-0.5,0.4-0.8,0.4c-0.3,0.1-0.6,0.1-0.9,0C69.4,168.8,68.5,167.6,68.7,166.3z"/>
	</g>
	<g>
		<path class="st0" d="M59.6,164.4c0.2-0.6,0.6-1.1,1.1-1.4c0.5-0.3,1.1-0.4,1.7-0.3c1.2,0.3,2,1.5,1.7,2.8s-1.5,2-2.8,1.7
			c-0.6-0.2-1.2-0.5-1.5-1.1C59.5,165.6,59.4,165,59.6,164.4z"/>
	</g>
	<g>
		<path class="st0" d="M50.9,161.2c0.5-1.2,1.9-1.7,3-1.3c1.1,0.5,1.7,1.8,1.3,3c-0.4,1.2-1.8,1.8-3,1.3
			C50.9,163.8,50.4,162.4,50.9,161.2z"/>
	</g>
	<g>
		<path class="st0" d="M42.7,156.9c0.7-1.1,2.1-1.5,3.1-0.8c1.1,0.6,1.5,1.9,0.9,3.1c-0.6,1.1-2,1.6-3.2,1
			C42.4,159.5,42,158,42.7,156.9z"/>
	</g>
	<g>
		<path class="st0" d="M35,151.6c0.4-0.5,1-0.8,1.5-0.9c0.6-0.1,1.2,0,1.7,0.4c1,0.7,1.2,2.2,0.5,3.2c-0.7,1.1-2.2,1.3-3.3,0.5
			c-0.5-0.4-0.9-0.9-0.9-1.5C34.5,152.8,34.6,152.1,35,151.6z"/>
	</g>
	<g>
		<path class="st0" d="M28.2,145.4c0.9-0.9,2.4-0.9,3.3-0.1c0.9,0.9,0.9,2.3,0.1,3.3c-0.9,1-2.3,1-3.3,0.1
			C27.3,147.8,27.2,146.3,28.2,145.4z"/>
	</g>
	<g>
		<path class="st0" d="M22,138.5c1-0.8,2.5-0.6,3.2,0.3c0.8,0.9,0.7,2.4-0.3,3.2c-1,0.9-2.5,0.8-3.3-0.2
			C20.8,140.7,21,139.3,22,138.5z"/>
	</g>
	<g>
		<path class="st0" d="M16.7,130.9c0.5-0.3,1.2-0.4,1.7-0.3c0.6,0.1,1.1,0.4,1.5,1c0.7,1,0.4,2.5-0.6,3.2c-1.1,0.7-2.5,0.5-3.3-0.6
			c-0.4-0.5-0.5-1.2-0.4-1.8C15.8,131.8,16.1,131.2,16.7,130.9z"/>
	</g>
	<g>
		<path class="st0" d="M12.2,122.8c1.2-0.6,2.6-0.1,3.1,1c0.6,1.1,0.1,2.5-1,3.1c-1.1,0.6-2.5,0.2-3.1-1
			C10.5,124.8,11,123.4,12.2,122.8z"/>
	</g>
	<g>
		<path class="st0" d="M8.5,114.3c1.2-0.4,2.5,0.1,3,1.3c0.5,1.1-0.1,2.5-1.2,3s-2.6,0-3.1-1.3C6.7,116.1,7.3,114.7,8.5,114.3z"/>
	</g>
	<g>
		<path class="st0" d="M5.6,105.5c1.2-0.3,2.5,0.4,2.9,1.6c0.4,1.2-0.3,2.5-1.6,2.9c-1.2,0.4-2.5-0.3-2.9-1.6
			C3.6,107.1,4.3,105.8,5.6,105.5z"/>
	</g>
	<g>
		<path class="st0" d="M3.7,96.4c1.3-0.2,2.5,0.6,2.7,1.8c0.2,1.2-0.6,2.4-1.8,2.7c-1.3,0.3-2.5-0.5-2.8-1.8
			C1.5,97.9,2.4,96.6,3.7,96.4z"/>
	</g>
	<g>
		<path class="st0" d="M2.6,87.2c1.3-0.1,2.3,0.9,2.5,2.1c0.1,1.2-0.8,2.4-2.1,2.5s-2.4-0.8-2.6-2.1C0.2,88.4,1.3,87.3,2.6,87.2z"/>
	</g>
	<g>
		<path class="st0" d="M2.3,78c1.3,0,2.3,1.1,2.3,2.3c0,1.2-1.1,2.3-2.3,2.3c-1.3,0-2.3-1-2.3-2.3C0,79,1.1,77.9,2.3,78z"/>
	</g>
	<g>
		<path class="st0" d="M3.1,68.7c1.3,0.2,2.2,1.3,2,2.5c-0.2,1.2-1.2,2.2-2.5,2.1c-1.3-0.1-2.3-1.3-2.1-2.6
			C0.7,69.5,1.9,68.6,3.1,68.7z"/>
	</g>
	<g>
		<path class="st0" d="M4.9,59.6c1.3,0.3,2,1.5,1.8,2.8c-0.2,1.2-1.5,2-2.7,1.8c-1.3-0.2-2.1-1.5-1.8-2.8
			C2.3,60.1,3.6,59.3,4.9,59.6z"/>
	</g>
	<g>
		<path class="st0" d="M7.6,50.8c1.2,0.5,1.9,1.8,1.4,2.9c-0.4,1.2-1.7,1.8-3,1.4c-1.2-0.4-1.9-1.7-1.5-2.9
			C5.1,51,6.4,50.3,7.6,50.8z"/>
	</g>
	<g>
		<path class="st0" d="M11.4,42.3c1.1,0.6,1.6,2,1,3.1c-0.5,1.1-1.8,1.6-3,1.1c-1.2-0.5-1.7-1.9-1.2-3.1
			C8.8,42.2,10.2,41.7,11.4,42.3z"/>
	</g>
	<g>
		<path class="st0" d="M16.1,34.3c1.1,0.7,1.4,2.2,0.7,3.2c-0.7,1-2.1,1.4-3.2,0.7c-1.1-0.7-1.4-2.1-0.7-3.2
			C13.6,33.9,15,33.6,16.1,34.3z"/>
	</g>
	<g>
		<path class="st0" d="M21.8,27c1,0.9,1.1,2.3,0.3,3.2c-0.8,0.9-2.2,1.1-3.2,0.3c-1-0.8-1.3-2.3-0.4-3.3
			C19.3,26.3,20.8,26.2,21.8,27z"/>
	</g>
	<g>
		<path class="st0" d="M28.4,20.5c0.8,1,0.8,2.4-0.2,3.2c-0.9,0.8-2.3,0.8-3.3-0.1c-0.9-0.9-0.9-2.5,0.1-3.3
			C26.1,19.4,27.6,19.5,28.4,20.5z"/>
	</g>
	<g>
		<path class="st0" d="M35.8,15c0.7,1.1,0.4,2.5-0.6,3.2c-1,0.6-2.4,0.5-3.2-0.6c-0.8-1-0.6-2.6,0.6-3.3
			C33.7,13.6,35.2,13.9,35.8,15z"/>
	</g>
	<g>
		<path class="st0" d="M44,10.6c0.5,1.2,0.1,2.6-1,3.1c-1.1,0.5-2.5,0.1-3.1-1c-0.6-1.1-0.2-2.6,1-3.1C42.1,8.9,43.5,9.4,44,10.6z"
			/>
	</g>
	<g>
		<path class="st0" d="M52.7,7.2c0.4,1.2-0.2,2.6-1.4,3c-1.2,0.4-2.5-0.2-3-1.4c-0.5-1.2,0.1-2.6,1.4-3C50.9,5.4,52.3,6,52.7,7.2z"
			/>
	</g>
	<g>
		<path class="st0" d="M61.6,4.8c0.3,1.3-0.5,2.5-1.7,2.8c-1.2,0.3-2.5-0.5-2.8-1.7c-0.3-1.3,0.4-2.5,1.7-2.8
			C60.1,2.8,61.3,3.5,61.6,4.8z"/>
	</g>
	<g>
		<path class="st0" d="M70.8,3.2c0.2,1.3-0.7,2.5-1.9,2.7c-1.2,0.2-2.4-0.7-2.7-1.9c-0.2-1.3,0.6-2.5,1.9-2.7
			C69.4,1,70.6,1.9,70.8,3.2z"/>
	</g>
	<g>
		<path class="st0" d="M80,2.1c0.1,1.3-0.8,2.4-2.1,2.5c-1.3,0.1-2.4-0.8-2.5-2.1c-0.1-1.3,0.8-2.4,2.1-2.5
			C78.7-0.1,79.9,0.8,80,2.1z"/>
	</g>
</g>
</svg>
