<?xml version="1.0" encoding="utf-8"?>
<!-- Generator: Adobe Illustrator 23.0.3, SVG Export Plug-In . SVG Version: 6.00 Build 0)  -->
<svg version="1.1" id="Layer_1" xmlns="http://www.w3.org/2000/svg" xmlns:xlink="http://www.w3.org/1999/xlink" x="0px" y="0px"
	 viewBox="0 0 290 307" style="enable-background:new 0 0 290 307;" xml:space="preserve">
<style type="text/css">
	.st0{fill:#0C560C;}
	.st1{fill:#FFFFFF;}
	.st2{fill:#B9D3E3;}
	.st3{opacity:0.25;fill:#808080;}
	.st4{fill:#003000;}
	.st5{fill:#627C8C;}
	.st6{fill:#8A9DA9;}
	.st7{fill:#FFCD0D;}
	.st8{fill:#FDFFAB;}
	.st9{fill:#FEBC30;}
	.st10{fill:#D8DEE2;}
	.st11{opacity:0.2;fill:#9E9E9E;}
	.st12{fill:#FDC3BB;}
	.st13{fill:#F2BAB2;}
	.st14{fill:#3B5B6F;}
	.st15{fill:url(#SVGID_1_);}
	.st16{fill:#7A6B5E;}
	.st17{fill:#FFE2DE;}
	.st18{fill:#2F6A46;}
	.st19{font-family:'MyriadPro-BoldSemiExt';}
	.st20{font-size:14.0032px;}
	.st21{letter-spacing:1;}
</style>
<g>
	<g>
		<rect x="121.8" class="st0" width="168.2" height="222.3"/>
		<rect x="126.5" y="6.3" class="st1" width="158.7" height="209.8"/>
		<g>
			<path class="st2" d="M135.8,23.6v77.7H276V23.6H135.8z M274.9,36.4h-77.7V24.7h77.7V36.4z M160,63v11.7h-15.5V63H160z M144.5,62
				V50.3H160V62H144.5z M161,63h35.1v11.7H161V63z M161,62V50.3h35.1V62H161z M161,49.2V37.5h35.1v11.7H161z M161,36.4V24.7h35.1
				v11.7H161z M160,36.4h-15.5V24.7H160V36.4z M160,37.5v11.7h-15.5V37.5H160z M143.4,49.2h-6.6V37.5h6.6V49.2z M143.4,50.3V62h-6.6
				V50.3H143.4z M143.4,63v11.7h-6.6V63H143.4z M143.4,75.8v11.7h-6.6V75.8H143.4z M144.5,75.8H160v11.7h-15.5V75.8z M160,88.6v11.7
				h-15.5V88.6H160z M161,88.6h35.1v11.7H161V88.6z M161,87.5V75.8h35.1v11.7H161z M197.2,75.8h77.7v11.7h-77.7V75.8z M197.2,74.7
				V63h77.7v11.7H197.2z M197.2,62V50.3h77.7V62H197.2z M197.2,49.2V37.5h77.7v11.7H197.2z M143.4,24.7v11.7h-6.6V24.7H143.4z
				 M136.9,88.6h6.6v11.7h-6.6V88.6z M197.2,100.3V88.6h77.7v11.7H197.2z"/>
		</g>
		<g>
			<path class="st2" d="M272.3,120.9H139.5c-2,0-3.7-1.7-3.7-3.7l0,0c0-2,1.7-3.7,3.7-3.7h132.8c2,0,3.7,1.7,3.7,3.7l0,0
				C276,119.2,274.3,120.9,272.3,120.9z"/>
			<path class="st2" d="M272.3,133.5H139.5c-2,0-3.7-1.7-3.7-3.7l0,0c0-2,1.7-3.7,3.7-3.7h132.8c2,0,3.7,1.7,3.7,3.7l0,0
				C276,131.8,274.3,133.5,272.3,133.5z"/>
			<path class="st2" d="M272.3,146H139.5c-2,0-3.7-1.7-3.7-3.7l0,0c0-2,1.7-3.7,3.7-3.7h132.8c2,0,3.7,1.7,3.7,3.7l0,0
				C276,144.4,274.3,146,272.3,146z"/>
			<path class="st2" d="M272.3,158.6H139.5c-2,0-3.7-1.7-3.7-3.7l0,0c0-2,1.7-3.7,3.7-3.7h132.8c2,0,3.7,1.7,3.7,3.7l0,0
				C276,157,274.3,158.6,272.3,158.6z"/>
			<path class="st2" d="M272.3,171.2H139.5c-2,0-3.7-1.7-3.7-3.7l0,0c0-2,1.7-3.7,3.7-3.7h132.8c2,0,3.7,1.7,3.7,3.7l0,0
				C276,169.5,274.3,171.2,272.3,171.2z"/>
		</g>
		<g>
			<g>
				<g>
					<g>
						<path class="st0" d="M235.5,111.5l-78.7-78.7l19.3-19.3l78.7,78.7L235.5,111.5z M160.7,32.9l74.9,74.9l15.5-15.5l-74.9-74.9
							L160.7,32.9z"/>
					</g>
				</g>
			</g>
		</g>
	</g>
	<g>
		<path class="st3" d="M253.6,298.3H87c-5.8,0-10.5-4.7-10.5-10.5v-7.6c0-5.8,4.7-10.5,10.5-10.5h166.6c5.8,0,10.5,4.7,10.5,10.5
			v7.6C264.1,293.6,259.4,298.3,253.6,298.3z"/>
		<path class="st4" d="M249.6,284.6H107.3c-4.3,0-7.8-3.5-7.8-7.8V134.4h157.9v142.4C257.4,281.1,253.9,284.6,249.6,284.6z"/>
		<path class="st0" d="M230.9,284.6H88.6c-4.3,0-7.8-3.5-7.8-7.8V134.4h157.9v142.4C238.8,281.1,235.3,284.6,230.9,284.6z"/>
		<path class="st5" d="M249.9,99.3H107c-4.2,0-7.5,3.4-7.5,7.5v34h157.9v-34C257.4,102.6,254,99.3,249.9,99.3z"/>
		<path class="st6" d="M231.2,99.3H88.4c-4.2,0-7.5,3.4-7.5,7.5v34h157.9v-34C238.8,102.6,235.4,99.3,231.2,99.3z"/>
		<path class="st7" d="M224.2,277.3H95.4c-5.7,0-10.3-4.6-10.3-10.3V154.5c0-5.7,4.6-10.3,10.3-10.3h128.8c5.7,0,10.3,4.6,10.3,10.3
			V267C234.5,272.7,229.9,277.3,224.2,277.3z"/>
		<path class="st8" d="M87.3,266.5V155c0-4.8,3.9-8.7,8.7-8.7h127.7c4.8,0,8.7,3.9,8.7,8.7v111.4c0,4.8-3.9,8.7-8.7,8.7H96
			C91.2,275.1,87.3,271.2,87.3,266.5z"/>
		<g>
			<g>
				<g>
					<g>
						<path class="st5" d="M125.7,162.1c0,5.4-4.9,9.8-11,9.8h-7.4c-6,0-11-4.4-11-9.8s4.9-9.8,11-9.8h7.4
							C120.8,152.3,125.7,156.7,125.7,162.1z"/>
					</g>
					<g>
						<path class="st5" d="M159.7,162.1c0,5.4-4.9,9.8-11,9.8h-7.4c-6,0-11-4.4-11-9.8s4.9-9.8,11-9.8h7.4
							C154.7,152.3,159.7,156.7,159.7,162.1z"/>
					</g>
					<g>
						<path class="st5" d="M193.6,162.1c0,5.4-4.9,9.8-11,9.8h-7.4c-6,0-11-4.4-11-9.8s4.9-9.8,11-9.8h7.4
							C188.7,152.3,193.6,156.7,193.6,162.1z"/>
					</g>
					<g>
						<path class="st5" d="M227.5,162.1c0,5.4-4.9,9.8-11,9.8h-7.4c-6,0-11-4.4-11-9.8s4.9-9.8,11-9.8h7.4
							C222.6,152.3,227.5,156.7,227.5,162.1z"/>
					</g>
				</g>
				<g>
					<g>
						<g>
							<path class="st4" d="M125.7,186.4c0,5.4-4.9,9.8-11,9.8h-7.4c-6,0-11-4.4-11-9.8c0-5.4,4.9-9.8,11-9.8h7.4
								C120.8,176.6,125.7,181,125.7,186.4z"/>
						</g>
					</g>
					<g>
						<g>
							<path class="st4" d="M159.7,186.4c0,5.4-4.9,9.8-11,9.8h-7.4c-6,0-11-4.4-11-9.8c0-5.4,4.9-9.8,11-9.8h7.4
								C154.7,176.6,159.7,181,159.7,186.4z"/>
						</g>
					</g>
					<g>
						<g>
							<path class="st4" d="M193.6,186.4c0,5.4-4.9,9.8-11,9.8h-7.4c-6,0-11-4.4-11-9.8c0-5.4,4.9-9.8,11-9.8h7.4
								C188.7,176.6,193.6,181,193.6,186.4z"/>
						</g>
					</g>
					<g>
						<g>
							<path class="st7" d="M227.5,186.4c0,5.4-4.9,9.8-11,9.8h-7.4c-6,0-11-4.4-11-9.8c0-5.4,4.9-9.8,11-9.8h7.4
								C222.6,176.6,227.5,181,227.5,186.4z"/>
						</g>
					</g>
				</g>
				<g>
					<g>
						<g>
							<path class="st4" d="M125.7,210.8c0,5.4-4.9,9.8-11,9.8h-7.4c-6,0-11-4.4-11-9.8c0-5.4,4.9-9.8,11-9.8h7.4
								C120.8,200.9,125.7,205.3,125.7,210.8z"/>
						</g>
					</g>
					<g>
						<g>
							<path class="st4" d="M159.7,210.8c0,5.4-4.9,9.8-11,9.8h-7.4c-6,0-11-4.4-11-9.8c0-5.4,4.9-9.8,11-9.8h7.4
								C154.7,200.9,159.7,205.3,159.7,210.8z"/>
						</g>
					</g>
					<g>
						<g>
							<path class="st4" d="M193.6,210.8c0,5.4-4.9,9.8-11,9.8h-7.4c-6,0-11-4.4-11-9.8c0-5.4,4.9-9.8,11-9.8h7.4
								C188.7,200.9,193.6,205.3,193.6,210.8z"/>
						</g>
					</g>
					<g>
						<g>
							<path class="st7" d="M227.5,210.8c0,5.4-4.9,9.8-11,9.8h-7.4c-6,0-11-4.4-11-9.8c0-5.4,4.9-9.8,11-9.8h7.4
								C222.6,200.9,227.5,205.3,227.5,210.8z"/>
						</g>
					</g>
				</g>
				<g>
					<g>
						<g>
							<path class="st4" d="M125.7,235.1c0,5.4-4.9,9.8-11,9.8h-7.4c-6,0-11-4.4-11-9.8c0-5.4,4.9-9.8,11-9.8h7.4
								C120.8,225.2,125.7,229.6,125.7,235.1z"/>
						</g>
					</g>
					<g>
						<g>
							<path class="st4" d="M159.7,235.1c0,5.4-4.9,9.8-11,9.8h-7.4c-6,0-11-4.4-11-9.8c0-5.4,4.9-9.8,11-9.8h7.4
								C154.7,225.2,159.7,229.6,159.7,235.1z"/>
						</g>
					</g>
					<g>
						<g>
							<path class="st7" d="M125.7,259.4c0,5.4-4.9,9.8-11,9.8h-7.4c-6,0-11-4.4-11-9.8s4.9-9.8,11-9.8h7.4
								C120.8,249.5,125.7,253.9,125.7,259.4z"/>
						</g>
					</g>
					<g>
						<g>
							<path class="st4" d="M159.7,259.4c0,5.4-4.9,9.8-11,9.8h-7.4c-6,0-11-4.4-11-9.8s4.9-9.8,11-9.8h7.4
								C154.7,249.5,159.7,253.9,159.7,259.4z"/>
						</g>
					</g>
					<g>
						<g>
							<path class="st4" d="M193.6,235.1c0,5.4-4.9,9.8-11,9.8h-7.4c-6,0-11-4.4-11-9.8c0-5.4,4.9-9.8,11-9.8h7.4
								C188.7,225.2,193.6,229.6,193.6,235.1z"/>
						</g>
					</g>
				</g>
				<g>
					<g>
						<g>
							<path class="st7" d="M193.6,259.4c0,5.4-4.9,9.8-11,9.8h-7.4c-6,0-11-4.4-11-9.8s4.9-9.8,11-9.8h7.4
								C188.7,249.5,193.6,253.9,193.6,259.4z"/>
						</g>
					</g>
					<g>
						<path class="st5" d="M209.2,225.2c-6,0-11,4.9-11,11v22c0,6,4.9,11,11,11h7.4c6,0,11-4.9,11-11v-22c0-6-4.9-11-11-11H209.2z"
							/>
					</g>
				</g>
			</g>
			<g>
				<g>
					<g>
						<path class="st6" d="M123.5,162.1c0,5.4-4.9,9.8-11,9.8h-7.4c-6,0-11-4.4-11-9.8s4.9-9.8,11-9.8h7.4
							C118.6,152.3,123.5,156.7,123.5,162.1z"/>
					</g>
					<g>
						<path class="st6" d="M157.5,162.1c0,5.4-4.9,9.8-11,9.8h-7.4c-6,0-11-4.4-11-9.8s4.9-9.8,11-9.8h7.4
							C152.5,152.3,157.5,156.7,157.5,162.1z"/>
					</g>
					<g>
						<path class="st6" d="M191.4,162.1c0,5.4-4.9,9.8-11,9.8h-7.4c-6,0-11-4.4-11-9.8s4.9-9.8,11-9.8h7.4
							C186.5,152.3,191.4,156.7,191.4,162.1z"/>
					</g>
					<g>
						<path class="st6" d="M225.4,162.1c0,5.4-4.9,9.8-11,9.8H207c-6,0-11-4.4-11-9.8s4.9-9.8,11-9.8h7.4
							C220.4,152.3,225.4,156.7,225.4,162.1z"/>
					</g>
				</g>
				<g>
					<g>
						<g>
							<path class="st0" d="M123.5,186.4c0,5.4-4.9,9.8-11,9.8h-7.4c-6,0-11-4.4-11-9.8c0-5.4,4.9-9.8,11-9.8h7.4
								C118.6,176.6,123.5,181,123.5,186.4z"/>
						</g>
					</g>
					<g>
						<g>
							<path class="st0" d="M157.5,186.4c0,5.4-4.9,9.8-11,9.8h-7.4c-6,0-11-4.4-11-9.8c0-5.4,4.9-9.8,11-9.8h7.4
								C152.5,176.6,157.5,181,157.5,186.4z"/>
						</g>
					</g>
					<g>
						<g>
							<path class="st0" d="M191.4,186.4c0,5.4-4.9,9.8-11,9.8h-7.4c-6,0-11-4.4-11-9.8c0-5.4,4.9-9.8,11-9.8h7.4
								C186.5,176.6,191.4,181,191.4,186.4z"/>
						</g>
					</g>
					<g>
						<path class="st9" d="M225.4,186.4c0,5.4-4.9,9.8-11,9.8H207c-6,0-11-4.4-11-9.8c0-5.4,4.9-9.8,11-9.8h7.4
							C220.4,176.6,225.4,181,225.4,186.4z"/>
					</g>
				</g>
				<g>
					<g>
						<g>
							<path class="st0" d="M123.5,210.8c0,5.4-4.9,9.8-11,9.8h-7.4c-6,0-11-4.4-11-9.8c0-5.4,4.9-9.8,11-9.8h7.4
								C118.6,200.9,123.5,205.3,123.5,210.8z"/>
						</g>
					</g>
					<g>
						<g>
							<path class="st0" d="M157.5,210.8c0,5.4-4.9,9.8-11,9.8h-7.4c-6,0-11-4.4-11-9.8c0-5.4,4.9-9.8,11-9.8h7.4
								C152.5,200.9,157.5,205.3,157.5,210.8z"/>
						</g>
					</g>
					<g>
						<g>
							<path class="st0" d="M191.4,210.8c0,5.4-4.9,9.8-11,9.8h-7.4c-6,0-11-4.4-11-9.8c0-5.4,4.9-9.8,11-9.8h7.4
								C186.5,200.9,191.4,205.3,191.4,210.8z"/>
						</g>
					</g>
					<g>
						<path class="st9" d="M225.4,210.8c0,5.4-4.9,9.8-11,9.8H207c-6,0-11-4.4-11-9.8c0-5.4,4.9-9.8,11-9.8h7.4
							C220.4,200.9,225.4,205.3,225.4,210.8z"/>
					</g>
				</g>
				<g>
					<g>
						<g>
							<path class="st0" d="M123.5,235.1c0,5.4-4.9,9.8-11,9.8h-7.4c-6,0-11-4.4-11-9.8c0-5.4,4.9-9.8,11-9.8h7.4
								C118.6,225.2,123.5,229.6,123.5,235.1z"/>
						</g>
					</g>
					<g>
						<g>
							<path class="st0" d="M157.5,235.1c0,5.4-4.9,9.8-11,9.8h-7.4c-6,0-11-4.4-11-9.8c0-5.4,4.9-9.8,11-9.8h7.4
								C152.5,225.2,157.5,229.6,157.5,235.1z"/>
						</g>
					</g>
					<g>
						<path class="st9" d="M123.5,259.4c0,5.4-4.9,9.8-11,9.8h-7.4c-6,0-11-4.4-11-9.8s4.9-9.8,11-9.8h7.4
							C118.6,249.5,123.5,253.9,123.5,259.4z"/>
					</g>
					<g>
						<g>
							<path class="st0" d="M157.5,259.4c0,5.4-4.9,9.8-11,9.8h-7.4c-6,0-11-4.4-11-9.8s4.9-9.8,11-9.8h7.4
								C152.5,249.5,157.5,253.9,157.5,259.4z"/>
						</g>
					</g>
					<g>
						<g>
							<path class="st0" d="M191.4,235.1c0,5.4-4.9,9.8-11,9.8h-7.4c-6,0-11-4.4-11-9.8c0-5.4,4.9-9.8,11-9.8h7.4
								C186.5,225.2,191.4,229.6,191.4,235.1z"/>
						</g>
					</g>
				</g>
				<g>
					<g>
						<path class="st9" d="M191.4,259.4c0,5.4-4.9,9.8-11,9.8h-7.4c-6,0-11-4.4-11-9.8s4.9-9.8,11-9.8h7.4
							C186.5,249.5,191.4,253.9,191.4,259.4z"/>
					</g>
					<g>
						<path class="st6" d="M207,225.2c-6,0-11,4.9-11,11v22c0,6,4.9,11,11,11h7.4c6,0,11-4.9,11-11v-22c0-6-4.9-11-11-11H207z"/>
					</g>
				</g>
			</g>
			<g>
				<g>
					<path class="st1" d="M111.8,238.6v1.2h-5.2v-1.2h1.9v-5.5c0-0.2,0-0.4,0-0.7l-1.4,1.1c-0.1,0.1-0.2,0.1-0.2,0.1
						c-0.1,0-0.1,0-0.2,0c-0.1,0-0.1,0-0.2-0.1c-0.1,0-0.1-0.1-0.1-0.1l-0.5-0.7l2.9-2.5h1.3v8.3H111.8z"/>
					<path class="st1" d="M145.5,238.3c0.2,0,0.3,0,0.4,0.1c0.1,0.1,0.2,0.2,0.2,0.4v1h-6.5v-0.5c0-0.1,0-0.2,0.1-0.3
						c0-0.1,0.1-0.2,0.2-0.3l2.9-2.9c0.2-0.2,0.5-0.5,0.6-0.7c0.2-0.2,0.3-0.4,0.5-0.7c0.1-0.2,0.2-0.4,0.3-0.7
						c0.1-0.2,0.1-0.5,0.1-0.7c0-0.2,0-0.4-0.1-0.6c-0.1-0.2-0.2-0.3-0.3-0.4c-0.1-0.1-0.3-0.2-0.4-0.3c-0.2-0.1-0.4-0.1-0.6-0.1
						c-0.2,0-0.4,0-0.5,0.1c-0.2,0.1-0.3,0.1-0.4,0.2c-0.1,0.1-0.2,0.2-0.3,0.3c-0.1,0.1-0.2,0.3-0.2,0.4c-0.1,0.2-0.2,0.3-0.3,0.4
						c-0.1,0.1-0.3,0.1-0.5,0l-0.9-0.2c0.1-0.5,0.2-0.9,0.4-1.2c0.2-0.3,0.4-0.6,0.7-0.9c0.3-0.2,0.6-0.4,1-0.5
						c0.4-0.1,0.8-0.2,1.2-0.2c0.4,0,0.8,0.1,1.2,0.2c0.4,0.1,0.7,0.3,0.9,0.5c0.3,0.2,0.5,0.5,0.6,0.9c0.1,0.3,0.2,0.7,0.2,1.1
						c0,0.3-0.1,0.7-0.2,1c-0.1,0.3-0.2,0.6-0.4,0.9c-0.2,0.3-0.4,0.5-0.6,0.8c-0.2,0.3-0.5,0.5-0.7,0.8l-2.1,2.2
						c0.2-0.1,0.4-0.1,0.6-0.1c0.2,0,0.4,0,0.6,0H145.5z"/>
					<path class="st1" d="M173.8,233c0.1-0.5,0.2-0.9,0.4-1.2c0.2-0.3,0.4-0.6,0.7-0.9c0.3-0.2,0.6-0.4,1-0.5
						c0.4-0.1,0.8-0.2,1.2-0.2c0.4,0,0.8,0.1,1.2,0.2c0.4,0.1,0.7,0.3,0.9,0.5c0.2,0.2,0.4,0.5,0.6,0.8c0.1,0.3,0.2,0.6,0.2,1
						c0,0.3,0,0.6-0.1,0.8c-0.1,0.2-0.2,0.4-0.3,0.6c-0.1,0.2-0.3,0.3-0.5,0.4c-0.2,0.1-0.4,0.2-0.6,0.3c0.6,0.2,1,0.5,1.3,0.8
						c0.3,0.4,0.4,0.8,0.4,1.4c0,0.5-0.1,0.9-0.3,1.3c-0.2,0.4-0.4,0.7-0.7,0.9c-0.3,0.2-0.6,0.4-1,0.6c-0.4,0.1-0.8,0.2-1.2,0.2
						c-0.5,0-0.9-0.1-1.2-0.2c-0.4-0.1-0.7-0.3-0.9-0.5c-0.3-0.2-0.5-0.5-0.7-0.8c-0.2-0.3-0.3-0.7-0.5-1.1l0.7-0.3
						c0.2-0.1,0.4-0.1,0.5-0.1c0.2,0,0.3,0.1,0.4,0.3c0.1,0.2,0.2,0.3,0.3,0.5c0.1,0.1,0.2,0.3,0.3,0.4c0.1,0.1,0.3,0.2,0.5,0.3
						c0.2,0.1,0.4,0.1,0.6,0.1c0.3,0,0.5,0,0.7-0.1c0.2-0.1,0.4-0.2,0.5-0.4c0.1-0.1,0.2-0.3,0.3-0.5c0.1-0.2,0.1-0.4,0.1-0.5
						c0-0.2,0-0.4-0.1-0.6c0-0.2-0.1-0.3-0.3-0.5c-0.2-0.1-0.4-0.2-0.7-0.3c-0.3-0.1-0.7-0.1-1.2-0.1v-1.2c0.4,0,0.7,0,1-0.1
						c0.3-0.1,0.5-0.2,0.6-0.3c0.2-0.1,0.3-0.3,0.3-0.4c0.1-0.2,0.1-0.4,0.1-0.6c0-0.4-0.1-0.8-0.4-1c-0.2-0.2-0.6-0.3-1-0.3
						c-0.2,0-0.4,0-0.5,0.1c-0.2,0.1-0.3,0.1-0.4,0.2c-0.1,0.1-0.2,0.2-0.3,0.3c-0.1,0.1-0.2,0.3-0.2,0.4c-0.1,0.2-0.2,0.3-0.3,0.4
						c-0.1,0.1-0.3,0.1-0.5,0L173.8,233z"/>
					<path class="st1" d="M112.5,211.9v0.9c0,0.1,0,0.2-0.1,0.2c-0.1,0.1-0.1,0.1-0.2,0.1h-0.9v2.3h-1.4v-2.3h-4
						c-0.1,0-0.2,0-0.3-0.1c-0.1-0.1-0.1-0.2-0.2-0.3l-0.2-0.8l4.5-6h1.5v5.9H112.5z M109.9,211.9v-3.1c0-0.3,0-0.6,0.1-1l-2.9,4.1
						H109.9z"/>
					<path class="st1" d="M141.8,209.4c0.2,0,0.4-0.1,0.6-0.1c0.2,0,0.4,0,0.6,0c0.5,0,0.9,0.1,1.3,0.2c0.4,0.1,0.7,0.4,1,0.6
						c0.3,0.3,0.5,0.6,0.6,0.9c0.1,0.4,0.2,0.7,0.2,1.1c0,0.5-0.1,1-0.3,1.4c-0.2,0.4-0.4,0.8-0.7,1.1c-0.3,0.3-0.7,0.5-1.1,0.7
						c-0.4,0.2-0.9,0.2-1.4,0.2c-0.3,0-0.6,0-0.8-0.1c-0.3-0.1-0.5-0.1-0.8-0.2c-0.2-0.1-0.4-0.2-0.6-0.4c-0.2-0.1-0.4-0.3-0.5-0.4
						l0.5-0.7c0.1-0.1,0.2-0.2,0.4-0.2c0.1,0,0.2,0,0.3,0.1c0.1,0.1,0.2,0.1,0.4,0.2c0.1,0.1,0.3,0.2,0.5,0.2
						c0.2,0.1,0.4,0.1,0.7,0.1c0.3,0,0.6,0,0.8-0.1c0.2-0.1,0.4-0.2,0.6-0.4c0.2-0.2,0.3-0.4,0.3-0.6c0.1-0.2,0.1-0.5,0.1-0.8
						c0-0.5-0.1-0.9-0.4-1.2c-0.3-0.3-0.7-0.4-1.3-0.4c-0.5,0-0.9,0.1-1.4,0.2l-1-0.3l0.8-4.6h4.7v0.7c0,0.2-0.1,0.4-0.2,0.6
						c-0.1,0.1-0.4,0.2-0.7,0.2h-2.6L141.8,209.4z"/>
					<path class="st1" d="M176.3,209.4l-0.3,0.4c0.2-0.1,0.4-0.2,0.6-0.2c0.2,0,0.4-0.1,0.7-0.1c0.4,0,0.7,0.1,1,0.2
						c0.3,0.1,0.6,0.3,0.9,0.5c0.3,0.2,0.5,0.5,0.6,0.9c0.2,0.4,0.2,0.8,0.2,1.2c0,0.4-0.1,0.9-0.2,1.2c-0.2,0.4-0.4,0.7-0.7,1
						c-0.3,0.3-0.6,0.5-1.1,0.7c-0.4,0.2-0.9,0.2-1.4,0.2c-0.5,0-1-0.1-1.4-0.2c-0.4-0.2-0.7-0.4-1-0.7c-0.3-0.3-0.5-0.6-0.7-1
						c-0.2-0.4-0.2-0.9-0.2-1.4c0-0.4,0.1-0.9,0.3-1.4c0.2-0.5,0.5-1,0.8-1.5l2.3-3c0.1-0.1,0.2-0.2,0.3-0.3
						c0.2-0.1,0.3-0.1,0.5-0.1h1.4L176.3,209.4z M176.7,214.2c0.3,0,0.5,0,0.7-0.1c0.2-0.1,0.4-0.2,0.6-0.4c0.2-0.2,0.3-0.3,0.4-0.6
						c0.1-0.2,0.1-0.4,0.1-0.7c0-0.3,0-0.5-0.1-0.7c-0.1-0.2-0.2-0.4-0.4-0.6c-0.2-0.2-0.3-0.3-0.6-0.3c-0.2-0.1-0.5-0.1-0.7-0.1
						c-0.3,0-0.5,0-0.7,0.1c-0.2,0.1-0.4,0.2-0.5,0.4c-0.1,0.2-0.3,0.3-0.3,0.6c-0.1,0.2-0.1,0.4-0.1,0.7c0,0.3,0,0.5,0.1,0.7
						c0.1,0.2,0.2,0.4,0.3,0.6c0.1,0.2,0.3,0.3,0.5,0.4C176.2,214.2,176.4,214.2,176.7,214.2z"/>
					<path class="st1" d="M113.2,181.7v0.7c0,0.2,0,0.4-0.1,0.5c0,0.1-0.1,0.2-0.1,0.3l-3.6,7.4c-0.1,0.2-0.2,0.3-0.3,0.4
						c-0.1,0.1-0.3,0.2-0.5,0.2h-1.2l3.7-7.2c0.1-0.1,0.2-0.3,0.2-0.4c0.1-0.1,0.2-0.2,0.3-0.4H107c-0.1,0-0.2,0-0.3-0.1
						c-0.1-0.1-0.1-0.2-0.1-0.3v-1.1H113.2z"/>
					<path class="st1" d="M144.4,186.2c0.6,0.2,1,0.5,1.3,0.9c0.3,0.4,0.4,0.9,0.4,1.4c0,0.4-0.1,0.8-0.2,1.1
						c-0.2,0.3-0.4,0.6-0.7,0.9c-0.3,0.2-0.6,0.4-1,0.6c-0.4,0.1-0.9,0.2-1.3,0.2s-0.9-0.1-1.3-0.2c-0.4-0.1-0.8-0.3-1-0.6
						c-0.3-0.2-0.5-0.5-0.7-0.9c-0.2-0.3-0.2-0.7-0.2-1.1c0-0.6,0.1-1,0.4-1.4c0.3-0.4,0.7-0.7,1.3-0.9c-0.5-0.2-0.8-0.5-1-0.8
						c-0.2-0.4-0.3-0.8-0.3-1.3c0-0.4,0.1-0.7,0.2-1c0.1-0.3,0.4-0.6,0.6-0.8c0.3-0.2,0.6-0.4,0.9-0.5c0.4-0.1,0.8-0.2,1.2-0.2
						c0.4,0,0.8,0.1,1.2,0.2c0.4,0.1,0.7,0.3,0.9,0.5c0.3,0.2,0.5,0.5,0.6,0.8c0.1,0.3,0.2,0.6,0.2,1c0,0.5-0.1,0.9-0.3,1.3
						C145.2,185.8,144.9,186.1,144.4,186.2z M142.8,190c0.3,0,0.5,0,0.7-0.1c0.2-0.1,0.4-0.2,0.5-0.3c0.1-0.1,0.2-0.3,0.3-0.5
						c0.1-0.2,0.1-0.4,0.1-0.6c0-0.5-0.1-0.9-0.4-1.2c-0.3-0.3-0.7-0.4-1.2-0.4c-0.5,0-0.9,0.1-1.2,0.4c-0.3,0.3-0.4,0.7-0.4,1.2
						c0,0.2,0,0.4,0.1,0.6c0.1,0.2,0.2,0.3,0.3,0.5c0.1,0.1,0.3,0.2,0.5,0.3C142.3,190,142.6,190,142.8,190z M142.8,182.8
						c-0.2,0-0.4,0-0.6,0.1c-0.2,0.1-0.3,0.2-0.4,0.3c-0.1,0.1-0.2,0.3-0.3,0.4c-0.1,0.2-0.1,0.3-0.1,0.5c0,0.2,0,0.4,0.1,0.5
						c0,0.2,0.1,0.3,0.2,0.5c0.1,0.1,0.3,0.2,0.4,0.3c0.2,0.1,0.4,0.1,0.7,0.1c0.3,0,0.5,0,0.7-0.1c0.2-0.1,0.3-0.2,0.4-0.3
						c0.1-0.1,0.2-0.3,0.2-0.5c0-0.2,0.1-0.4,0.1-0.5c0-0.2,0-0.3-0.1-0.5c-0.1-0.2-0.1-0.3-0.3-0.4c-0.1-0.1-0.3-0.2-0.4-0.3
						C143.3,182.9,143.1,182.8,142.8,182.8z"/>
					<path class="st1" d="M177.3,187.6c0.1-0.1,0.1-0.2,0.2-0.3c0.1-0.1,0.1-0.2,0.2-0.3c-0.2,0.1-0.5,0.2-0.7,0.3
						c-0.3,0.1-0.5,0.1-0.8,0.1c-0.3,0-0.6-0.1-1-0.2c-0.3-0.1-0.6-0.3-0.8-0.5c-0.2-0.2-0.4-0.5-0.6-0.9c-0.2-0.3-0.2-0.7-0.2-1.2
						c0-0.4,0.1-0.8,0.2-1.2c0.2-0.4,0.4-0.7,0.7-1c0.3-0.3,0.6-0.5,1-0.7c0.4-0.2,0.8-0.2,1.3-0.2c0.5,0,0.9,0.1,1.3,0.2
						c0.4,0.2,0.7,0.4,1,0.6c0.3,0.3,0.5,0.6,0.6,1c0.1,0.4,0.2,0.8,0.2,1.3c0,0.3,0,0.6-0.1,0.8c-0.1,0.3-0.1,0.5-0.2,0.8
						c-0.1,0.2-0.2,0.5-0.3,0.7c-0.1,0.2-0.3,0.5-0.4,0.7l-2.2,3.1c-0.1,0.1-0.2,0.2-0.3,0.3c-0.1,0.1-0.3,0.1-0.5,0.1h-1.5
						L177.3,187.6z M175.2,184.6c0,0.5,0.1,0.9,0.4,1.2c0.3,0.3,0.7,0.4,1.2,0.4c0.3,0,0.5,0,0.7-0.1c0.2-0.1,0.4-0.2,0.5-0.3
						c0.1-0.1,0.2-0.3,0.3-0.5c0.1-0.2,0.1-0.4,0.1-0.6c0-0.3,0-0.5-0.1-0.7c-0.1-0.2-0.2-0.4-0.3-0.5c-0.1-0.1-0.3-0.2-0.5-0.3
						c-0.2-0.1-0.4-0.1-0.7-0.1c-0.2,0-0.5,0-0.7,0.1c-0.2,0.1-0.4,0.2-0.5,0.3c-0.1,0.1-0.2,0.3-0.3,0.5
						C175.2,184.2,175.2,184.4,175.2,184.6z"/>
					<path class="st1" d="M146.3,259.4c0,0.8-0.1,1.5-0.3,2.2c-0.2,0.6-0.4,1.1-0.7,1.5c-0.3,0.4-0.7,0.7-1.1,0.9
						c-0.4,0.2-0.9,0.3-1.4,0.3c-0.5,0-1-0.1-1.4-0.3c-0.4-0.2-0.8-0.5-1.1-0.9c-0.3-0.4-0.6-0.9-0.7-1.5c-0.2-0.6-0.3-1.3-0.3-2.2
						c0-0.8,0.1-1.5,0.3-2.2c0.2-0.6,0.4-1.1,0.7-1.5c0.3-0.4,0.7-0.7,1.1-0.9c0.4-0.2,0.9-0.3,1.4-0.3c0.5,0,1,0.1,1.4,0.3
						c0.4,0.2,0.8,0.5,1.1,0.9c0.3,0.4,0.6,0.9,0.7,1.5C146.2,257.8,146.3,258.5,146.3,259.4z M144.6,259.4c0-0.7-0.1-1.3-0.2-1.7
						c-0.1-0.5-0.2-0.8-0.4-1.1c-0.2-0.3-0.4-0.5-0.6-0.6c-0.2-0.1-0.4-0.2-0.7-0.2c-0.2,0-0.5,0.1-0.7,0.2
						c-0.2,0.1-0.4,0.3-0.6,0.6c-0.2,0.3-0.3,0.6-0.4,1.1c-0.1,0.5-0.1,1-0.1,1.7c0,0.7,0,1.3,0.1,1.7c0.1,0.5,0.2,0.8,0.4,1.1
						c0.2,0.3,0.4,0.5,0.6,0.6c0.2,0.1,0.4,0.2,0.7,0.2c0.2,0,0.5-0.1,0.7-0.2c0.2-0.1,0.4-0.3,0.6-0.6c0.2-0.3,0.3-0.6,0.4-1.1
						C144.6,260.6,144.6,260,144.6,259.4z"/>
					<path class="st1" d="M107.9,259.4c0-0.1,0-0.3,0.1-0.4c0-0.1,0.1-0.2,0.2-0.3c0.1-0.1,0.2-0.2,0.3-0.2c0.1-0.1,0.3-0.1,0.4-0.1
						c0.1,0,0.3,0,0.4,0.1c0.1,0.1,0.2,0.1,0.3,0.2c0.1,0.1,0.2,0.2,0.2,0.3c0.1,0.1,0.1,0.3,0.1,0.4c0,0.1,0,0.3-0.1,0.4
						c-0.1,0.1-0.1,0.2-0.2,0.3c-0.1,0.1-0.2,0.2-0.3,0.2c-0.1,0-0.3,0.1-0.4,0.1c-0.1,0-0.3,0-0.4-0.1c-0.1-0.1-0.2-0.1-0.3-0.2
						c-0.1-0.1-0.2-0.2-0.2-0.3C107.9,259.6,107.9,259.5,107.9,259.4z"/>
					<path class="st1" d="M210.2,208.3c0,0.4-0.1,0.7-0.2,1c-0.1,0.3-0.3,0.5-0.5,0.7c-0.2,0.2-0.4,0.4-0.7,0.5
						c-0.3,0.1-0.5,0.2-0.8,0.2c-0.3,0-0.6-0.1-0.9-0.2c-0.3-0.1-0.5-0.3-0.7-0.5c-0.2-0.2-0.3-0.4-0.5-0.7c-0.1-0.3-0.2-0.6-0.2-1
						c0-0.4,0.1-0.7,0.2-1c0.1-0.3,0.3-0.5,0.5-0.8c0.2-0.2,0.4-0.4,0.7-0.5c0.3-0.1,0.6-0.2,0.9-0.2c0.3,0,0.6,0.1,0.9,0.2
						c0.3,0.1,0.5,0.3,0.7,0.5c0.2,0.2,0.3,0.5,0.5,0.8C210.2,207.6,210.2,207.9,210.2,208.3z M213.4,206.3c0.1-0.1,0.1-0.1,0.2-0.2
						c0.1-0.1,0.2-0.1,0.3-0.1h1.2l-7,9.2c-0.1,0.1-0.1,0.1-0.2,0.2c-0.1,0-0.2,0.1-0.3,0.1h-1.2L213.4,206.3z M209,208.3
						c0-0.3,0-0.5-0.1-0.6c-0.1-0.2-0.1-0.3-0.2-0.4c-0.1-0.1-0.2-0.2-0.3-0.2c-0.1,0-0.2-0.1-0.4-0.1c-0.1,0-0.3,0-0.4,0.1
						c-0.1,0-0.2,0.1-0.3,0.2c-0.1,0.1-0.1,0.2-0.2,0.4c0,0.2-0.1,0.4-0.1,0.6c0,0.2,0,0.4,0.1,0.6c0,0.2,0.1,0.3,0.2,0.4
						c0.1,0.1,0.2,0.2,0.3,0.2c0.1,0,0.2,0.1,0.4,0.1c0.1,0,0.3,0,0.4-0.1c0.1,0,0.2-0.1,0.3-0.2c0.1-0.1,0.2-0.2,0.2-0.4
						C208.9,208.7,209,208.5,209,208.3z M215.6,213.3c0,0.4-0.1,0.7-0.2,1c-0.1,0.3-0.3,0.5-0.5,0.7c-0.2,0.2-0.4,0.4-0.7,0.5
						c-0.3,0.1-0.5,0.2-0.8,0.2c-0.3,0-0.6-0.1-0.9-0.2s-0.5-0.3-0.7-0.5c-0.2-0.2-0.3-0.4-0.5-0.7c-0.1-0.3-0.2-0.6-0.2-1
						c0-0.4,0.1-0.7,0.2-1c0.1-0.3,0.3-0.5,0.5-0.8c0.2-0.2,0.4-0.4,0.7-0.5c0.3-0.1,0.6-0.2,0.9-0.2c0.3,0,0.6,0.1,0.9,0.2
						c0.3,0.1,0.5,0.3,0.7,0.5c0.2,0.2,0.3,0.5,0.5,0.8C215.5,212.6,215.6,212.9,215.6,213.3z M214.3,213.3c0-0.3,0-0.5-0.1-0.6
						c0-0.2-0.1-0.3-0.2-0.4c-0.1-0.1-0.2-0.2-0.3-0.2c-0.1,0-0.2-0.1-0.4-0.1c-0.1,0-0.3,0-0.4,0.1c-0.1,0-0.2,0.1-0.3,0.2
						c-0.1,0.1-0.1,0.2-0.2,0.4c0,0.2-0.1,0.4-0.1,0.6c0,0.2,0,0.4,0.1,0.6c0,0.2,0.1,0.3,0.2,0.4c0.1,0.1,0.2,0.2,0.3,0.2
						c0.1,0,0.2,0.1,0.4,0.1c0.1,0,0.3,0,0.4-0.1c0.1,0,0.2-0.1,0.3-0.2c0.1-0.1,0.2-0.2,0.2-0.4
						C214.3,213.7,214.3,213.5,214.3,213.3z"/>
				</g>
				<g>
					<path class="st1" d="M173.6,161.5h6.4v1.2h-6.4V161.5z M175.8,159.8c0-0.1,0-0.3,0.1-0.4c0-0.1,0.1-0.2,0.2-0.3
						c0.1-0.1,0.2-0.2,0.3-0.2c0.1-0.1,0.3-0.1,0.4-0.1c0.1,0,0.3,0,0.4,0.1c0.1,0.1,0.2,0.1,0.3,0.2s0.2,0.2,0.2,0.3
						c0.1,0.1,0.1,0.3,0.1,0.4c0,0.1,0,0.3-0.1,0.4c-0.1,0.1-0.1,0.2-0.2,0.3s-0.2,0.2-0.3,0.2c-0.1,0.1-0.3,0.1-0.4,0.1
						c-0.1,0-0.3,0-0.4-0.1c-0.1,0-0.2-0.1-0.3-0.2c-0.1-0.1-0.2-0.2-0.2-0.3C175.8,160.1,175.8,160,175.8,159.8z M175.8,164.5
						c0-0.1,0-0.3,0.1-0.4c0-0.1,0.1-0.2,0.2-0.3c0.1-0.1,0.2-0.2,0.3-0.2c0.1-0.1,0.3-0.1,0.4-0.1c0.1,0,0.3,0,0.4,0.1
						c0.1,0.1,0.2,0.1,0.3,0.2c0.1,0.1,0.2,0.2,0.2,0.3c0.1,0.1,0.1,0.3,0.1,0.4c0,0.1,0,0.3-0.1,0.4c-0.1,0.1-0.1,0.2-0.2,0.3
						c-0.1,0.1-0.2,0.2-0.3,0.2c-0.1,0.1-0.3,0.1-0.4,0.1c-0.1,0-0.3,0-0.4-0.1c-0.1-0.1-0.2-0.1-0.3-0.2c-0.1-0.1-0.2-0.2-0.2-0.3
						C175.8,164.8,175.8,164.6,175.8,164.5z"/>
					<g>
						<path class="st1" d="M172.7,259.1c-0.2,0.1-0.4,0.2-0.7,0.2c0.2,0.1,0.5,0.1,0.7,0.2l2.4,1.2c0.1,0,0.2,0.1,0.2,0.2
							c0,0.1,0.1,0.2,0.1,0.2v1.2l-5.2-2.7V259l5.2-2.7v1.2c0,0.1,0,0.2-0.1,0.2c0,0.1-0.1,0.1-0.2,0.2L172.7,259.1z"/>
						<path class="st1" d="M183.4,259v0.7l-5.2,2.7v-1.2c0-0.1,0-0.2,0.1-0.2c0-0.1,0.1-0.1,0.2-0.2l2.4-1.2
							c0.2-0.1,0.4-0.2,0.7-0.2c-0.2-0.1-0.5-0.1-0.7-0.2l-2.4-1.2c-0.1-0.1-0.2-0.1-0.2-0.2c0-0.1-0.1-0.2-0.1-0.2v-1.2L183.4,259z
							"/>
					</g>
					<g>
						<path class="st1" d="M207.8,245.4h5.8v1.2h-5.8V245.4z M207.8,247.8h5.8v1.2h-5.8V247.8z"/>
					</g>
					<path class="st1" d="M139.9,161.5h5.8v1.2h-5.8V161.5z"/>
					<path class="st1" d="M212.9,165.2l-2.2-2.2l-2.2,2.2l-0.9-0.8l2.2-2.2l-2.1-2.1l0.9-0.9l2.1,2.1l2.1-2.1l0.9,0.9l-2.1,2.1
						l2.2,2.2L212.9,165.2z"/>
					<path class="st1" d="M112.1,162.7h-2.5v2.7h-1.3v-2.7h-2.5v-1.2h2.5v-2.7h1.3v2.7h2.5V162.7z"/>
					<path class="st1" d="M214.7,180.9l-3.6,11.2h-1.4l-1.6-4.2h-0.8c-0.2,0-0.3,0-0.4-0.1c-0.1-0.1-0.2-0.3-0.2-0.5v-0.5h2.3
						c0.1,0,0.2,0,0.3,0.1c0.1,0.1,0.1,0.1,0.2,0.2l0.7,2c0.1,0.2,0.1,0.4,0.1,0.6c0,0.2,0.1,0.4,0.1,0.6c0-0.1,0.1-0.3,0.1-0.4
						c0-0.2,0.1-0.3,0.1-0.5l2.5-8.1c0-0.1,0.1-0.2,0.2-0.2c0.1-0.1,0.2-0.1,0.3-0.1H214.7z"/>
				</g>
			</g>
		</g>
		<path class="st10" d="M228.2,137.3H91.4c-3.5,0-6.3-2.8-6.3-6.3v-19.6c0-3.5,2.8-6.3,6.3-6.3h136.8c3.5,0,6.3,2.8,6.3,6.3V131
			C234.5,134.4,231.7,137.3,228.2,137.3z"/>
		<path class="st1" d="M87.3,130.4V112c0-2.6,2.1-4.7,4.7-4.7h135.6c2.6,0,4.7,2.1,4.7,4.7v18.4c0,2.6-2.1,4.7-4.7,4.7H92
			C89.4,135.1,87.3,133,87.3,130.4z"/>
		<g>
			<g>
				<path class="st0" d="M103.9,128.3v2.5H93.3v-2.5h3.9v-11.2c0-0.4,0-0.9,0-1.4l-2.8,2.3c-0.2,0.1-0.3,0.2-0.5,0.2
					c-0.2,0-0.3,0-0.4,0c-0.1,0-0.3-0.1-0.4-0.1c-0.1-0.1-0.2-0.1-0.2-0.2l-1-1.4l5.9-5h2.7v16.8H103.9z"/>
				<path class="st0" d="M118.7,127.7c0.4,0,0.6,0.1,0.8,0.3c0.2,0.2,0.3,0.5,0.3,0.8v2h-13.2v-1.1c0-0.2,0-0.5,0.1-0.7
					c0.1-0.2,0.2-0.5,0.4-0.7l5.8-5.9c0.5-0.5,0.9-1,1.3-1.4c0.4-0.5,0.7-0.9,1-1.3c0.3-0.4,0.5-0.9,0.6-1.3
					c0.1-0.5,0.2-0.9,0.2-1.4c0-0.5-0.1-0.9-0.2-1.2c-0.1-0.4-0.3-0.6-0.6-0.9c-0.2-0.2-0.5-0.4-0.9-0.5c-0.3-0.1-0.7-0.2-1.2-0.2
					c-0.4,0-0.8,0.1-1.1,0.2c-0.3,0.1-0.6,0.3-0.9,0.5c-0.3,0.2-0.5,0.4-0.7,0.7c-0.2,0.3-0.3,0.6-0.4,0.9c-0.2,0.4-0.3,0.7-0.6,0.8
					c-0.2,0.1-0.6,0.2-1,0.1l-1.7-0.3c0.1-0.9,0.4-1.7,0.8-2.4c0.4-0.7,0.9-1.3,1.4-1.7c0.6-0.5,1.2-0.8,2-1.1
					c0.7-0.2,1.5-0.4,2.4-0.4c0.9,0,1.7,0.1,2.4,0.4c0.7,0.3,1.4,0.6,1.9,1.1c0.5,0.5,0.9,1.1,1.2,1.7c0.3,0.7,0.4,1.4,0.4,2.2
					c0,0.7-0.1,1.4-0.3,2c-0.2,0.6-0.5,1.2-0.8,1.7c-0.4,0.5-0.8,1.1-1.2,1.6c-0.5,0.5-1,1-1.5,1.6l-4.3,4.4
					c0.4-0.1,0.8-0.2,1.2-0.3c0.4-0.1,0.8-0.1,1.2-0.1H118.7z"/>
				<path class="st0" d="M122.5,116.9c0.1-0.9,0.4-1.7,0.8-2.4c0.4-0.7,0.9-1.3,1.4-1.7c0.6-0.5,1.2-0.8,2-1.1
					c0.7-0.2,1.5-0.4,2.4-0.4c0.9,0,1.7,0.1,2.4,0.4c0.7,0.3,1.3,0.6,1.8,1c0.5,0.4,0.9,1,1.2,1.6c0.3,0.6,0.4,1.3,0.4,2
					c0,0.6-0.1,1.2-0.2,1.6c-0.1,0.5-0.3,0.9-0.6,1.2c-0.3,0.3-0.6,0.6-1,0.9c-0.4,0.2-0.8,0.4-1.3,0.6c1.2,0.4,2,0.9,2.6,1.7
					c0.6,0.7,0.9,1.7,0.9,2.8c0,1-0.2,1.8-0.5,2.5c-0.4,0.7-0.8,1.4-1.4,1.9c-0.6,0.5-1.3,0.9-2.1,1.1c-0.8,0.3-1.6,0.4-2.5,0.4
					c-1,0-1.8-0.1-2.5-0.3c-0.7-0.2-1.3-0.6-1.9-1c-0.5-0.4-1-1-1.4-1.6c-0.4-0.6-0.7-1.4-1-2.2l1.5-0.6c0.4-0.2,0.7-0.2,1.1-0.1
					c0.3,0.1,0.6,0.3,0.7,0.5c0.2,0.3,0.3,0.6,0.5,0.9c0.2,0.3,0.4,0.6,0.7,0.8c0.3,0.2,0.6,0.4,0.9,0.6c0.4,0.1,0.8,0.2,1.3,0.2
					c0.6,0,1-0.1,1.5-0.3c0.4-0.2,0.8-0.4,1-0.7c0.3-0.3,0.5-0.6,0.6-1c0.1-0.4,0.2-0.7,0.2-1.1c0-0.5,0-0.9-0.1-1.3
					c-0.1-0.4-0.3-0.7-0.6-1c-0.3-0.3-0.8-0.5-1.3-0.6c-0.6-0.2-1.4-0.2-2.3-0.2v-2.3c0.8,0,1.5-0.1,2-0.2c0.5-0.1,1-0.3,1.3-0.6
					c0.3-0.3,0.5-0.6,0.7-0.9c0.1-0.4,0.2-0.7,0.2-1.2c0-0.9-0.3-1.6-0.8-2.1c-0.5-0.5-1.2-0.7-2-0.7c-0.4,0-0.7,0.1-1.1,0.2
					c-0.3,0.1-0.6,0.3-0.9,0.5c-0.3,0.2-0.5,0.4-0.7,0.7c-0.2,0.3-0.3,0.6-0.4,0.9c-0.1,0.4-0.3,0.7-0.6,0.8c-0.2,0.1-0.6,0.2-1,0.1
					L122.5,116.9z"/>
				<path class="st0" d="M151.2,123.6v1.9c0,0.2-0.1,0.3-0.2,0.5c-0.1,0.1-0.3,0.2-0.5,0.2h-1.8v4.7h-2.9v-4.7h-8.1
					c-0.2,0-0.4-0.1-0.6-0.2c-0.2-0.1-0.3-0.3-0.3-0.5l-0.3-1.7l9.1-12.2h3.1v12H151.2z M145.9,123.6v-6.3c0-0.6,0-1.3,0.1-2l-6,8.3
					H145.9z"/>
				<path class="st0" d="M157.3,118.6c0.4-0.1,0.8-0.2,1.2-0.2c0.4,0,0.8-0.1,1.1-0.1c1,0,1.9,0.2,2.7,0.5c0.8,0.3,1.4,0.7,1.9,1.3
					c0.5,0.5,0.9,1.2,1.2,1.9c0.3,0.7,0.4,1.5,0.4,2.3c0,1-0.2,2-0.5,2.8c-0.4,0.8-0.9,1.6-1.5,2.2c-0.6,0.6-1.4,1.1-2.3,1.4
					c-0.9,0.3-1.8,0.5-2.9,0.5c-0.6,0-1.2-0.1-1.7-0.2c-0.5-0.1-1-0.3-1.5-0.5c-0.5-0.2-0.9-0.4-1.3-0.7c-0.4-0.3-0.8-0.6-1.1-0.9
					l1-1.4c0.2-0.3,0.5-0.5,0.8-0.5c0.2,0,0.4,0.1,0.7,0.2c0.2,0.1,0.5,0.3,0.8,0.5c0.3,0.2,0.6,0.3,1.1,0.5
					c0.4,0.1,0.9,0.2,1.5,0.2c0.6,0,1.1-0.1,1.6-0.3c0.5-0.2,0.8-0.5,1.2-0.8c0.3-0.4,0.5-0.8,0.7-1.3c0.2-0.5,0.2-1,0.2-1.6
					c0-1-0.3-1.9-0.9-2.5c-0.6-0.6-1.5-0.9-2.7-0.9c-0.9,0-1.8,0.2-2.8,0.5l-2-0.6l1.6-9.3h9.5v1.4c0,0.5-0.1,0.9-0.4,1.1
					c-0.3,0.3-0.8,0.4-1.5,0.4H158L157.3,118.6z"/>
				<path class="st0" d="M174.3,118.6l-0.7,0.8c0.4-0.2,0.8-0.3,1.2-0.4c0.4-0.1,0.9-0.2,1.4-0.2c0.7,0,1.4,0.1,2.1,0.4
					c0.7,0.2,1.3,0.6,1.8,1.1c0.5,0.5,0.9,1.1,1.3,1.8c0.3,0.7,0.5,1.6,0.5,2.5c0,0.9-0.2,1.7-0.5,2.5c-0.3,0.8-0.8,1.5-1.4,2.1
					c-0.6,0.6-1.3,1-2.1,1.4c-0.8,0.3-1.8,0.5-2.8,0.5c-1,0-1.9-0.2-2.8-0.5c-0.8-0.3-1.5-0.8-2.1-1.4c-0.6-0.6-1-1.3-1.3-2.1
					c-0.3-0.8-0.5-1.8-0.5-2.8c0-0.9,0.2-1.8,0.6-2.8c0.4-1,0.9-1.9,1.7-3l4.6-6.2c0.2-0.2,0.4-0.4,0.7-0.5c0.3-0.2,0.7-0.2,1.1-0.2
					h2.9L174.3,118.6z M175,128.3c0.5,0,1-0.1,1.4-0.3c0.4-0.2,0.8-0.4,1.1-0.7c0.3-0.3,0.6-0.7,0.7-1.1c0.2-0.4,0.3-0.9,0.3-1.4
					c0-0.6-0.1-1-0.3-1.5c-0.2-0.4-0.4-0.8-0.7-1.1c-0.3-0.3-0.7-0.5-1.1-0.7c-0.4-0.2-0.9-0.2-1.4-0.2c-0.5,0-1,0.1-1.4,0.3
					c-0.4,0.2-0.8,0.4-1.1,0.7c-0.3,0.3-0.5,0.7-0.7,1.1c-0.2,0.4-0.3,0.9-0.3,1.4c0,0.5,0.1,1,0.2,1.5c0.1,0.4,0.4,0.8,0.7,1.1
					c0.3,0.3,0.6,0.6,1.1,0.7C174,128.2,174.4,128.3,175,128.3z"/>
				<path class="st0" d="M197.3,111.6v1.4c0,0.4,0,0.8-0.1,1c-0.1,0.3-0.2,0.5-0.3,0.7l-7.3,15c-0.2,0.3-0.4,0.6-0.6,0.8
					c-0.3,0.2-0.6,0.3-1.1,0.3h-2.4l7.4-14.7c0.2-0.3,0.3-0.6,0.5-0.8c0.2-0.3,0.3-0.5,0.6-0.7h-9.2c-0.2,0-0.4-0.1-0.5-0.2
					c-0.2-0.2-0.2-0.3-0.2-0.5v-2.2H197.3z"/>
				<path class="st0" d="M209.1,120.8c1.2,0.4,2,1,2.6,1.8c0.6,0.8,0.8,1.7,0.8,2.9c0,0.9-0.2,1.6-0.5,2.3c-0.3,0.7-0.8,1.3-1.4,1.8
					c-0.6,0.5-1.3,0.9-2.1,1.1c-0.8,0.3-1.7,0.4-2.7,0.4c-1,0-1.9-0.1-2.7-0.4c-0.8-0.3-1.5-0.6-2.1-1.1c-0.6-0.5-1-1.1-1.4-1.8
					c-0.3-0.7-0.5-1.5-0.5-2.3c0-1.1,0.3-2.1,0.8-2.9c0.6-0.8,1.4-1.4,2.6-1.8c-0.9-0.4-1.6-0.9-2.1-1.7c-0.5-0.7-0.7-1.6-0.7-2.6
					c0-0.7,0.1-1.4,0.4-2c0.3-0.6,0.7-1.2,1.2-1.6c0.5-0.5,1.2-0.8,1.9-1.1c0.7-0.3,1.6-0.4,2.4-0.4c0.9,0,1.7,0.1,2.4,0.4
					c0.7,0.3,1.4,0.6,1.9,1.1c0.5,0.5,0.9,1,1.2,1.6c0.3,0.6,0.4,1.3,0.4,2c0,1-0.2,1.9-0.7,2.6
					C210.8,119.8,210.1,120.4,209.1,120.8z M205.9,128.5c0.5,0,1-0.1,1.4-0.2c0.4-0.2,0.8-0.4,1-0.6c0.3-0.3,0.5-0.6,0.6-1
					c0.1-0.4,0.2-0.8,0.2-1.2c0-1.1-0.3-1.9-0.9-2.4c-0.6-0.5-1.4-0.8-2.4-0.8c-1,0-1.8,0.3-2.4,0.8c-0.6,0.5-0.9,1.3-0.9,2.4
					c0,0.4,0.1,0.9,0.2,1.2c0.1,0.4,0.4,0.7,0.6,1c0.3,0.3,0.6,0.5,1,0.6C204.9,128.4,205.4,128.5,205.9,128.5z M205.9,113.8
					c-0.5,0-0.9,0.1-1.3,0.2c-0.4,0.1-0.6,0.4-0.9,0.6c-0.2,0.3-0.4,0.5-0.5,0.9c-0.1,0.3-0.2,0.7-0.2,1c0,0.4,0,0.8,0.1,1.1
					c0.1,0.4,0.3,0.7,0.5,1c0.2,0.3,0.5,0.5,0.9,0.7c0.4,0.2,0.8,0.3,1.3,0.3c0.5,0,1-0.1,1.3-0.3c0.4-0.2,0.7-0.4,0.9-0.7
					c0.2-0.3,0.4-0.6,0.5-1c0.1-0.4,0.1-0.7,0.1-1.1c0-0.4-0.1-0.7-0.2-1c-0.1-0.3-0.3-0.6-0.5-0.9c-0.2-0.3-0.5-0.5-0.9-0.6
					C206.8,113.9,206.4,113.8,205.9,113.8z"/>
				<path class="st0" d="M222.4,123.3c0.2-0.2,0.3-0.4,0.4-0.5c0.1-0.2,0.3-0.4,0.4-0.5c-0.4,0.3-0.9,0.5-1.5,0.6
					c-0.5,0.1-1.1,0.2-1.7,0.2c-0.7,0-1.3-0.1-2-0.3c-0.6-0.2-1.2-0.6-1.7-1c-0.5-0.5-0.9-1-1.2-1.7c-0.3-0.7-0.5-1.5-0.5-2.4
					c0-0.9,0.2-1.7,0.5-2.4c0.3-0.8,0.8-1.4,1.3-2c0.6-0.6,1.3-1,2.1-1.3c0.8-0.3,1.7-0.5,2.7-0.5c1,0,1.9,0.2,2.7,0.5
					c0.8,0.3,1.5,0.7,2,1.3c0.6,0.6,1,1.2,1.3,2c0.3,0.8,0.4,1.6,0.4,2.6c0,0.6-0.1,1.2-0.2,1.7c-0.1,0.5-0.2,1-0.4,1.5
					c-0.2,0.5-0.4,1-0.7,1.4c-0.3,0.5-0.6,0.9-0.9,1.4l-4.4,6.3c-0.2,0.2-0.4,0.4-0.7,0.5c-0.3,0.1-0.6,0.2-1,0.2h-3L222.4,123.3z
					 M218,117.3c0,1.1,0.3,1.9,0.8,2.5c0.6,0.6,1.3,0.8,2.4,0.8c0.5,0,1-0.1,1.4-0.3c0.4-0.2,0.8-0.4,1-0.7c0.3-0.3,0.5-0.6,0.6-1
					c0.1-0.4,0.2-0.8,0.2-1.3c0-0.5-0.1-1-0.2-1.4c-0.2-0.4-0.4-0.8-0.7-1c-0.3-0.3-0.6-0.5-1-0.7c-0.4-0.2-0.8-0.2-1.3-0.2
					c-0.5,0-0.9,0.1-1.3,0.2c-0.4,0.2-0.7,0.4-1,0.7c-0.3,0.3-0.5,0.6-0.7,1C218.1,116.4,218,116.9,218,117.3z"/>
			</g>
		</g>
	</g>
	<g>
		<ellipse class="st11" cx="41.8" cy="297.2" rx="41.8" ry="9.8"/>
		<g>
			<g>
				<g>
					<path class="st12" d="M79,179.6l-5.6-2.4c-1.8-0.8-2.7-3-2-5.1l0.1-0.4c0.7-2,2.6-3.1,4.4-2.3l5.6,2.4c1.8,0.8,2.7,3,2,5.1
						l-0.1,0.4C82.7,179.3,80.7,180.3,79,179.6z"/>
					<path class="st9" d="M44.7,162.1l-12-33.2c-0.7-3.4,1.8-4.5,5.8-7c2.6-1.7,8.9,0,9.5,3.4l7,30.7l21.4,12.1
						c2.8,1.3,2.2,3.1,1,6.3c-1.2,3.2-1.8,5.1-4.5,3.8l-24.6-11.8C46.6,165.6,45.7,164.4,44.7,162.1z"/>
				</g>
				<g>
					<path class="st13" d="M82.8,181.8l8.7,1.5c0,0,3.1-4.4,0.4-6.1c-2.6-1.6-7-3.7-7.7-3.9C80.8,173.3,77.2,181,82.8,181.8z"/>
					
						<rect x="84" y="162.7" transform="matrix(-0.8845 -0.4666 0.4666 -0.8845 98.3098 386.6393)" class="st14" width="26.1" height="36.9"/>
					<path class="st12" d="M86.9,175.8c-0.3,0.9-4.9,2.7-5.8,2.3c-3.4-1.9-0.7-8,2.6-7.4c4,1.8,8.8,3.5,8.6,4.8
						C92.1,177.4,87.6,173.9,86.9,175.8z"/>
				</g>
			</g>
			<g>
				<path class="st4" d="M22.4,290.3l3.2,4.7l6.4,1.5c0.5,0.7,0.4,1.7-0.2,2.2c-0.1,0.1-8.9-0.2-8.9-0.2c-6.3-4.6-4.1-3-10-7.2
					c0,0-0.6-1,0.6-2.5C15.7,286,19.8,287.7,22.4,290.3z"/>
				<path class="st5" d="M43.7,238.6l-18.6,53.6l-11.9-3.7l15.5-56c6.1-29.8,5-22.6,6.1-56.1l15.4-6.7
					C53.7,176.5,47.8,232.9,43.7,238.6z"/>
			</g>
			<g>
				<path class="st4" d="M67.8,292.1l11.6,4.1c0.8,0.3,1.4,1.1,1.2,2c0,0.1-0.1,0.2-0.1,0.3l-7.2,0l-6.5,0l-6.1,0.1
					c0,0-1.1-0.5-1-2.4c0.1-1.9,1.2-2.7,2.1-3.4C63.9,291.5,67.8,292.1,67.8,292.1z"/>
				<path class="st6" d="M70.7,293.4l-10.9,0.8L36.8,192c-6.6-6.1-9.5-16.8-2.6-17.4l15.9-2.6c3.3-0.3,4.4,2.6,4.5,5.3l1.1,11.6
					L70.7,293.4z"/>
			</g>
			
				<linearGradient id="SVGID_1_" gradientUnits="userSpaceOnUse" x1="-896.5974" y1="105.3772" x2="-897.2084" y2="125.2329" gradientTransform="matrix(1 0 0 1 942.7201 0)">
				<stop  offset="0" style="stop-color:#C79993"/>
				<stop  offset="0.2211" style="stop-color:#D7A59F"/>
				<stop  offset="0.6154" style="stop-color:#FDC3BB"/>
			</linearGradient>
			<path class="st15" d="M42.3,118.6l6.9,2.4c2.4,0,3.6-0.2,3.6-2.5l0.5-18.7c0-2.3-2-4.2-4.4-4.2h-6.7c-2.4,0-2.8,1.6-2.8,3.9
				l-0.9,14.9C38.7,116.7,39.8,117.5,42.3,118.6z"/>
			<g>
				<path class="st7" d="M37.3,113.1c0,0-10.5,7.7-7.4,22c3.2,14.3,1.2,26.3,1,32c-0.3,6.4-1.9,15.2-1.9,15.2c5,2.7,28,0,28,0
					s-2.9-25.7-2.4-32c0.5-6.3,5.1-9.3,3.8-18.6c-1.4-9.3-5.4-14-5.4-14L37.3,113.1z"/>
				<path class="st9" d="M52.9,117.7c-1.9,1.6-2.9,2.7-2.3,5.2c0,0-15.4-4.3-13.7-9.9l2-2.2C39.8,114,48.8,116.6,52.9,117.7z"/>
			</g>
			<g>
				<path class="st12" d="M43.6,82.6l7.1-1.3c2.6-0.4,7.5-0.6,8,2.3c0.4,20.7,0.9,25.7-3,26.4c0,0-12.4-1.9-12.9-4.8l-3-16.6
					C39.4,85.6,41.2,83,43.6,82.6z"/>
				<path class="st16" d="M62,84.3c-0.6,1.3-2.1,1.7-3.3,1.1c-8-4-6.6,4.3-9.9,4.2l-3.3-0.5c0.2,0.3,0.4,2.5,0.5,4.8
					c-1.2,1.1-2.2,2.4-2.9,3.9l-0.2-0.2c-2.3,1.6-1.4,6.9-3,6.9c-1,0-2.2-3.5-3.3-7.7c-1.9-4.2-4.4-7.9-4.4-12.3
					c0-2.2,0.1-4.1,1.2-5.6c-0.2-3.7,3.4-6.5,6.9-6.5c1.3,0,2.5,0.4,3.5,1c0.6,0.4,1.3,0.4,1.9,0c0.7-0.6,1.7-1,2.7-1
					c1.4,0,2.6,0.7,3.4,1.7c0.4,0.5,1.1,0.7,1.6,0.4s1.2-0.4,1.8-0.4c2.3,0,6.9,4.1,6.9,6.3C62.6,81.6,62.6,83,62,84.3z"/>
				<path class="st12" d="M41.4,95.3c0.5,1.5,1.5,2.5,2.4,2.3c0.8-0.3,1.1-1.7,0.6-3.2c-0.5-1.5-1.5-2.5-2.4-2.3
					C41.2,92.3,40.9,93.8,41.4,95.3z"/>
			</g>
			<g>
				<g>
					<g>
						<path class="st12" d="M107,125.3l-7.2,3.2c-4.1,1.5-1.6,8.3,2,6.9c7.3-5.2,12-6.9,11.2-9.1C112.3,124.5,108.9,124.6,107,125.3
							z"/>
					</g>
				</g>
				<path class="st9" d="M77.6,152.1c-1.2,0.4-2.6,0.4-3.8-0.1l-35.1-13.4c-3-1.2-4.9-8.4-2.6-11.9c1.8-2.7,7-2.1,10-1l29.5,14.4
					l28.1-14.2c2.9-1.5,6.5,5.7,3.6,7.1l-28.8,18.7C78.2,151.9,77.9,152,77.6,152.1z"/>
				<path class="st17" d="M108.5,130.4l3-1.7c1.4,0.3,6.6-4.5,6.6-4.5c1.2-1.1,0.6-3.1,0.6-4.8c0-0.7-0.8-1.2-1.4-0.8l-6,3.3l0-2.5
					c0,0,2.1-2.1,1.6-2.6c-0.4-0.4-1.9,0.9-1.9,0.9l-2.1,2.6l-0.7,2.3l-1.2,2.8L108.5,130.4z"/>
			</g>
		</g>
	</g>
	<g>
		<text transform="matrix(0.6991 0.715 -0.7149 0.6993 170.2718 33.1258)" class="st18 st19 st20 st21">ОДОБРЕНО</text>
	</g>
</g>
</svg>
