<?xml version="1.0" encoding="utf-8"?>
<!-- Generator: Adobe Illustrator 23.0.3, SVG Export Plug-In . SVG Version: 6.00 Build 0)  -->
<svg version="1.1" id="Layer_1" xmlns="http://www.w3.org/2000/svg" xmlns:xlink="http://www.w3.org/1999/xlink" x="0px" y="0px"
	 viewBox="0 0 292 246" style="enable-background:new 0 0 292 246;" xml:space="preserve">
<style type="text/css">
	.st0{opacity:0.25;fill:#808080;}
	.st1{fill:#0C560C;}
	.st2{fill:#003000;}
	.st3{fill:#B9E82E;}
	.st4{fill:#6F9C0F;}
	.st5{fill:#FFCD0D;}
	.st6{fill:#FEBC30;}
	.st7{fill:#F09B07;}
	.st8{fill:#EBECF1;}
	.st9{fill:#FDC3BB;}
	.st10{fill:#F2BAB2;}
	.st11{fill:#627C8C;}
	.st12{fill:#8A9DA9;}
	.st13{fill:url(#SVGID_1_);}
	.st14{fill:#7A6B5E;}
	.st15{fill:#FDCEC8;}
	.st16{fill:#FE9308;}
	.st17{fill:#96E1DF;}
	.st18{opacity:0.5;fill:#FFFFFF;}
	.st19{opacity:0.65;fill:#FFFFFF;}
	.st20{fill:#039990;}
	.st21{opacity:0.85;fill:#FFFFFF;}
</style>
<g>
	<g>
		<g>
			<path class="st0" d="M277.2,246H14.8C6.7,246,0,240.6,0,234l0,0c0-6.6,6.7-12,14.8-12h262.4c8.1,0,14.8,5.4,14.8,12l0,0
				C292,240.6,285.3,246,277.2,246z"/>
			<g>
				<path class="st1" d="M243,229.5H72.8c-4.6,0-8.3-3.7-8.3-8.3V50.4c0-4.6,3.7-8.3,8.3-8.3H243c4.6,0,8.3,3.7,8.3,8.3v170.8
					C251.3,225.8,247.6,229.5,243,229.5z"/>
				<path class="st1" d="M74.7,213.8v-156c0-3,2.4-5.4,5.4-5.4h155.5c3,0,5.4,2.4,5.4,5.4v156c0,3-2.4,5.4-5.4,5.4H80.2
					C77.2,219.2,74.7,216.8,74.7,213.8z"/>
				<rect x="84.5" y="62.2" class="st2" width="146.8" height="147.3"/>
				<g>
					<g>
						<g>
							<rect x="84.5" y="130.4" class="st1" width="146.8" height="10.3"/>
						</g>
					</g>
				</g>
			</g>
			<g>
				<rect x="87.6" y="117.6" class="st3" width="60.9" height="12.7"/>
				<g>
					<rect x="87.6" y="118.1" class="st4" width="60.9" height="0.9"/>
					<rect x="87.6" y="119.9" class="st4" width="60.9" height="0.9"/>
					<rect x="87.6" y="121.7" class="st4" width="60.9" height="0.9"/>
					<rect x="87.6" y="123.5" class="st4" width="60.9" height="0.9"/>
					<rect x="87.6" y="125.3" class="st4" width="60.9" height="0.9"/>
					<rect x="87.6" y="127.1" class="st4" width="60.9" height="0.9"/>
					<rect x="87.6" y="128.9" class="st4" width="60.9" height="0.9"/>
				</g>
				<rect x="112.5" y="117.6" class="st5" width="11" height="12.7"/>
				<rect x="116.2" y="117.6" class="st6" width="3.6" height="12.7"/>
			</g>
			<g>
				<rect x="87.6" y="104.3" class="st3" width="60.9" height="12.7"/>
				<g>
					<rect x="87.6" y="104.8" class="st4" width="60.9" height="0.9"/>
					<rect x="87.6" y="106.6" class="st4" width="60.9" height="0.9"/>
					<rect x="87.6" y="108.4" class="st4" width="60.9" height="0.9"/>
					<rect x="87.6" y="110.2" class="st4" width="60.9" height="0.9"/>
					<rect x="87.6" y="112" class="st4" width="60.9" height="0.9"/>
					<rect x="87.6" y="113.8" class="st4" width="60.9" height="0.9"/>
					<rect x="87.6" y="115.6" class="st4" width="60.9" height="0.9"/>
				</g>
				<rect x="112.5" y="104.3" class="st5" width="11" height="12.7"/>
				<rect x="116.2" y="104.3" class="st6" width="3.6" height="12.7"/>
			</g>
			<g>
				<rect x="87.6" y="91" class="st3" width="60.9" height="12.7"/>
				<g>
					<rect x="87.6" y="91.5" class="st4" width="60.9" height="0.9"/>
					<rect x="87.6" y="93.3" class="st4" width="60.9" height="0.9"/>
					<rect x="87.6" y="95.1" class="st4" width="60.9" height="0.9"/>
					<rect x="87.6" y="96.9" class="st4" width="60.9" height="0.9"/>
					<rect x="87.6" y="98.7" class="st4" width="60.9" height="0.9"/>
					<rect x="87.6" y="100.5" class="st4" width="60.9" height="0.9"/>
					<rect x="87.6" y="102.3" class="st4" width="60.9" height="0.9"/>
				</g>
				<rect x="112.5" y="91" class="st5" width="11" height="12.7"/>
				<rect x="116.2" y="91" class="st6" width="3.6" height="12.7"/>
			</g>
			<g>
				<rect x="87.6" y="77.7" class="st3" width="60.9" height="12.7"/>
				<g>
					<rect x="87.6" y="78.2" class="st4" width="60.9" height="0.9"/>
					<rect x="87.6" y="80" class="st4" width="60.9" height="0.9"/>
					<rect x="87.6" y="81.8" class="st4" width="60.9" height="0.9"/>
					<rect x="87.6" y="83.6" class="st4" width="60.9" height="0.9"/>
					<rect x="87.6" y="85.4" class="st4" width="60.9" height="0.9"/>
					<rect x="87.6" y="87.2" class="st4" width="60.9" height="0.9"/>
					<rect x="87.6" y="89" class="st4" width="60.9" height="0.9"/>
				</g>
				<rect x="112.5" y="77.7" class="st5" width="11" height="12.7"/>
				<rect x="116.2" y="77.7" class="st6" width="3.6" height="12.7"/>
			</g>
			<g>
				<rect x="87.6" y="64.4" class="st3" width="60.9" height="12.7"/>
				<g>
					<rect x="87.6" y="64.9" class="st4" width="60.9" height="0.9"/>
					<rect x="87.6" y="66.7" class="st4" width="60.9" height="0.9"/>
					<rect x="87.6" y="68.5" class="st4" width="60.9" height="0.9"/>
					<rect x="87.6" y="70.3" class="st4" width="60.9" height="0.9"/>
					<rect x="87.6" y="72.1" class="st4" width="60.9" height="0.9"/>
					<rect x="87.6" y="73.9" class="st4" width="60.9" height="0.9"/>
					<rect x="87.6" y="75.7" class="st4" width="60.9" height="0.9"/>
				</g>
				<rect x="112.5" y="64.4" class="st5" width="11" height="12.7"/>
				<rect x="116.2" y="64.4" class="st6" width="3.6" height="12.7"/>
			</g>
			<g>
				<rect x="87.6" y="196.6" class="st3" width="60.9" height="12.7"/>
				<g>
					<rect x="87.6" y="197" class="st4" width="60.9" height="0.9"/>
					<rect x="87.6" y="198.8" class="st4" width="60.9" height="0.9"/>
					<rect x="87.6" y="200.6" class="st4" width="60.9" height="0.9"/>
					<rect x="87.6" y="202.4" class="st4" width="60.9" height="0.9"/>
					<rect x="87.6" y="204.2" class="st4" width="60.9" height="0.9"/>
					<rect x="87.6" y="206.1" class="st4" width="60.9" height="0.9"/>
					<rect x="87.6" y="207.9" class="st4" width="60.9" height="0.9"/>
				</g>
				<rect x="112.5" y="196.6" class="st5" width="11" height="12.7"/>
				<rect x="116.2" y="196.6" class="st6" width="3.6" height="12.7"/>
			</g>
			<g>
				<rect x="87.6" y="183.3" class="st3" width="60.9" height="12.7"/>
				<g>
					<rect x="87.6" y="183.7" class="st4" width="60.9" height="0.9"/>
					<rect x="87.6" y="185.5" class="st4" width="60.9" height="0.9"/>
					<rect x="87.6" y="187.3" class="st4" width="60.9" height="0.9"/>
					<rect x="87.6" y="189.1" class="st4" width="60.9" height="0.9"/>
					<rect x="87.6" y="190.9" class="st4" width="60.9" height="0.9"/>
					<rect x="87.6" y="192.7" class="st4" width="60.9" height="0.9"/>
					<rect x="87.6" y="194.6" class="st4" width="60.9" height="0.9"/>
				</g>
				<rect x="112.5" y="183.3" class="st5" width="11" height="12.7"/>
				<rect x="116.2" y="183.3" class="st6" width="3.6" height="12.7"/>
			</g>
			<g>
				<rect x="87.6" y="170" class="st3" width="60.9" height="12.7"/>
				<g>
					<rect x="87.6" y="170.4" class="st4" width="60.9" height="0.9"/>
					<rect x="87.6" y="172.2" class="st4" width="60.9" height="0.9"/>
					<rect x="87.6" y="174" class="st4" width="60.9" height="0.9"/>
					<rect x="87.6" y="175.8" class="st4" width="60.9" height="0.9"/>
					<rect x="87.6" y="177.6" class="st4" width="60.9" height="0.9"/>
					<rect x="87.6" y="179.4" class="st4" width="60.9" height="0.9"/>
					<rect x="87.6" y="181.2" class="st4" width="60.9" height="0.9"/>
				</g>
				<rect x="112.5" y="170" class="st5" width="11" height="12.7"/>
				<rect x="116.2" y="170" class="st6" width="3.6" height="12.7"/>
			</g>
			<g>
				<rect x="150.7" y="196.6" class="st3" width="60.9" height="12.7"/>
				<g>
					<rect x="150.7" y="197" class="st4" width="60.9" height="0.9"/>
					<rect x="150.7" y="198.8" class="st4" width="60.9" height="0.9"/>
					<rect x="150.7" y="200.6" class="st4" width="60.9" height="0.9"/>
					<rect x="150.7" y="202.4" class="st4" width="60.9" height="0.9"/>
					<rect x="150.7" y="204.2" class="st4" width="60.9" height="0.9"/>
					<rect x="150.7" y="206.1" class="st4" width="60.9" height="0.9"/>
					<rect x="150.7" y="207.9" class="st4" width="60.9" height="0.9"/>
				</g>
				<rect x="175.6" y="196.6" class="st5" width="11" height="12.7"/>
				<rect x="179.3" y="196.6" class="st6" width="3.6" height="12.7"/>
			</g>
			<g>
				<rect x="150.7" y="183.3" class="st3" width="60.9" height="12.7"/>
				<g>
					<rect x="150.7" y="183.7" class="st4" width="60.9" height="0.9"/>
					<rect x="150.7" y="185.5" class="st4" width="60.9" height="0.9"/>
					<rect x="150.7" y="187.3" class="st4" width="60.9" height="0.9"/>
					<rect x="150.7" y="189.1" class="st4" width="60.9" height="0.9"/>
					<rect x="150.7" y="190.9" class="st4" width="60.9" height="0.9"/>
					<rect x="150.7" y="192.7" class="st4" width="60.9" height="0.9"/>
					<rect x="150.7" y="194.6" class="st4" width="60.9" height="0.9"/>
				</g>
				<rect x="175.6" y="183.3" class="st5" width="11" height="12.7"/>
				<rect x="179.3" y="183.3" class="st6" width="3.6" height="12.7"/>
			</g>
			<g>
				<rect x="150.7" y="170" class="st3" width="60.9" height="12.7"/>
				<g>
					<rect x="150.7" y="170.4" class="st4" width="60.9" height="0.9"/>
					<rect x="150.7" y="172.2" class="st4" width="60.9" height="0.9"/>
					<rect x="150.7" y="174" class="st4" width="60.9" height="0.9"/>
					<rect x="150.7" y="175.8" class="st4" width="60.9" height="0.9"/>
					<rect x="150.7" y="177.6" class="st4" width="60.9" height="0.9"/>
					<rect x="150.7" y="179.4" class="st4" width="60.9" height="0.9"/>
					<rect x="150.7" y="181.2" class="st4" width="60.9" height="0.9"/>
				</g>
				<rect x="175.6" y="170" class="st5" width="11" height="12.7"/>
				<rect x="179.3" y="170" class="st6" width="3.6" height="12.7"/>
			</g>
			<g>
				<rect x="150.7" y="156.6" class="st3" width="60.9" height="12.7"/>
				<g>
					<rect x="150.7" y="157" class="st4" width="60.9" height="0.9"/>
					<rect x="150.7" y="158.8" class="st4" width="60.9" height="0.9"/>
					<rect x="150.7" y="160.7" class="st4" width="60.9" height="0.9"/>
					<rect x="150.7" y="162.5" class="st4" width="60.9" height="0.9"/>
					<rect x="150.7" y="164.3" class="st4" width="60.9" height="0.9"/>
					<rect x="150.7" y="166.1" class="st4" width="60.9" height="0.9"/>
					<rect x="150.7" y="167.9" class="st4" width="60.9" height="0.9"/>
				</g>
				<rect x="175.6" y="156.6" class="st5" width="11" height="12.7"/>
				<rect x="179.3" y="156.6" class="st6" width="3.6" height="12.7"/>
			</g>
			<g>
				<path class="st6" d="M169.2,128.9v0.8c0,0.4-0.3,0.7-0.7,0.7h-15.2c-0.4,0-0.7-0.3-0.7-0.7v-0.8c0-0.4,0.3-0.7,0.7-0.7h15.2
					C168.9,128.2,169.2,128.5,169.2,128.9z"/>
				<rect x="155.4" y="128.2" class="st5" width="2.5" height="2.2"/>
				<path class="st7" d="M169.2,128.9v0.8c0,0.4-0.3,0.7-0.7,0.7h-5.7v-2.2h5.7C168.9,128.2,169.2,128.5,169.2,128.9z"/>
				<path class="st6" d="M169.2,126.6v0.8c0,0.4-0.3,0.7-0.7,0.7h-15.2c-0.4,0-0.7-0.3-0.7-0.7v-0.8c0-0.4,0.3-0.7,0.7-0.7h15.2
					C168.9,125.9,169.2,126.2,169.2,126.6z"/>
				<rect x="155.4" y="125.9" class="st5" width="2.5" height="2.2"/>
				<path class="st7" d="M169.2,126.6v0.8c0,0.4-0.3,0.7-0.7,0.7h-5.7v-2.2h5.7C168.9,125.9,169.2,126.2,169.2,126.6z"/>
				<path class="st6" d="M169.2,124.3v0.8c0,0.4-0.3,0.7-0.7,0.7h-15.2c-0.4,0-0.7-0.3-0.7-0.7v-0.8c0-0.4,0.3-0.7,0.7-0.7h15.2
					C168.9,123.6,169.2,123.9,169.2,124.3z"/>
				<rect x="155.4" y="123.6" class="st5" width="2.5" height="2.2"/>
				<path class="st7" d="M169.2,124.3v0.8c0,0.4-0.3,0.7-0.7,0.7h-5.7v-2.2h5.7C168.9,123.6,169.2,123.9,169.2,124.3z"/>
				<path class="st6" d="M169.2,122v0.8c0,0.4-0.3,0.7-0.7,0.7h-15.2c-0.4,0-0.7-0.3-0.7-0.7V122c0-0.4,0.3-0.7,0.7-0.7h15.2
					C168.9,121.3,169.2,121.6,169.2,122z"/>
				<rect x="155.4" y="121.3" class="st5" width="2.5" height="2.2"/>
				<path class="st7" d="M169.2,122v0.8c0,0.4-0.3,0.7-0.7,0.7h-5.7v-2.2h5.7C168.9,121.3,169.2,121.6,169.2,122z"/>
				<path class="st6" d="M169.2,119.7v0.8c0,0.4-0.3,0.7-0.7,0.7h-15.2c-0.4,0-0.7-0.3-0.7-0.7v-0.8c0-0.4,0.3-0.7,0.7-0.7h15.2
					C168.9,119,169.2,119.3,169.2,119.7z"/>
				<rect x="155.4" y="119" class="st5" width="2.5" height="2.2"/>
				<path class="st7" d="M169.2,119.7v0.8c0,0.4-0.3,0.7-0.7,0.7h-5.7V119h5.7C168.9,119,169.2,119.3,169.2,119.7z"/>
				<path class="st6" d="M169.2,117.4v0.8c0,0.4-0.3,0.7-0.7,0.7h-15.2c-0.4,0-0.7-0.3-0.7-0.7v-0.8c0-0.4,0.3-0.7,0.7-0.7h15.2
					C168.9,116.7,169.2,117,169.2,117.4z"/>
				<rect x="155.4" y="116.7" class="st5" width="2.5" height="2.2"/>
				<path class="st7" d="M169.2,117.4v0.8c0,0.4-0.3,0.7-0.7,0.7h-5.7v-2.2h5.7C168.9,116.7,169.2,117,169.2,117.4z"/>
				<path class="st6" d="M169.2,115.1v0.8c0,0.4-0.3,0.7-0.7,0.7h-15.2c-0.4,0-0.7-0.3-0.7-0.7v-0.8c0-0.4,0.3-0.7,0.7-0.7h15.2
					C168.9,114.4,169.2,114.8,169.2,115.1z"/>
				<rect x="155.4" y="114.4" class="st5" width="2.5" height="2.2"/>
				<path class="st7" d="M169.2,115.1v0.8c0,0.4-0.3,0.7-0.7,0.7h-5.7v-2.2h5.7C168.9,114.4,169.2,114.8,169.2,115.1z"/>
				<path class="st6" d="M169.2,112.8v0.8c0,0.4-0.3,0.7-0.7,0.7h-15.2c-0.4,0-0.7-0.3-0.7-0.7v-0.8c0-0.4,0.3-0.7,0.7-0.7h15.2
					C168.9,112.2,169.2,112.5,169.2,112.8z"/>
				<rect x="155.4" y="112.2" class="st5" width="2.5" height="2.2"/>
				<path class="st7" d="M169.2,112.8v0.8c0,0.4-0.3,0.7-0.7,0.7h-5.7v-2.2h5.7C168.9,112.2,169.2,112.5,169.2,112.8z"/>
				<path class="st6" d="M169.2,110.6v0.8c0,0.4-0.3,0.7-0.7,0.7h-15.2c-0.4,0-0.7-0.3-0.7-0.7v-0.8c0-0.4,0.3-0.7,0.7-0.7h15.2
					C168.9,109.9,169.2,110.2,169.2,110.6z"/>
				<rect x="155.4" y="109.9" class="st5" width="2.5" height="2.2"/>
				<path class="st7" d="M169.2,110.6v0.8c0,0.4-0.3,0.7-0.7,0.7h-5.7v-2.2h5.7C168.9,109.9,169.2,110.2,169.2,110.6z"/>
				<path class="st6" d="M169.2,108.3v0.8c0,0.4-0.3,0.7-0.7,0.7h-15.2c-0.4,0-0.7-0.3-0.7-0.7v-0.8c0-0.4,0.3-0.7,0.7-0.7h15.2
					C168.9,107.6,169.2,107.9,169.2,108.3z"/>
				<rect x="155.4" y="107.6" class="st5" width="2.5" height="2.2"/>
				<path class="st7" d="M169.2,108.3v0.8c0,0.4-0.3,0.7-0.7,0.7h-5.7v-2.2h5.7C168.9,107.6,169.2,107.9,169.2,108.3z"/>
				<path class="st6" d="M169.2,106v0.8c0,0.4-0.3,0.7-0.7,0.7h-15.2c-0.4,0-0.7-0.3-0.7-0.7V106c0-0.4,0.3-0.7,0.7-0.7h15.2
					C168.9,105.3,169.2,105.6,169.2,106z"/>
				<rect x="155.4" y="105.3" class="st5" width="2.5" height="2.2"/>
				<path class="st7" d="M169.2,106v0.8c0,0.4-0.3,0.7-0.7,0.7h-5.7v-2.2h5.7C168.9,105.3,169.2,105.6,169.2,106z"/>
				<path class="st6" d="M169.2,103.7v0.8c0,0.4-0.3,0.7-0.7,0.7h-15.2c-0.4,0-0.7-0.3-0.7-0.7v-0.8c0-0.4,0.3-0.7,0.7-0.7h15.2
					C168.9,103,169.2,103.3,169.2,103.7z"/>
				<rect x="155.4" y="103" class="st5" width="2.5" height="2.2"/>
				<path class="st7" d="M169.2,103.7v0.8c0,0.4-0.3,0.7-0.7,0.7h-5.7V103h5.7C168.9,103,169.2,103.3,169.2,103.7z"/>
				<path class="st6" d="M169.2,101.4v0.8c0,0.4-0.3,0.7-0.7,0.7h-15.2c-0.4,0-0.7-0.3-0.7-0.7v-0.8c0-0.4,0.3-0.7,0.7-0.7h15.2
					C168.9,100.7,169.2,101,169.2,101.4z"/>
				<rect x="155.4" y="100.7" class="st5" width="2.5" height="2.2"/>
				<path class="st7" d="M169.2,101.4v0.8c0,0.4-0.3,0.7-0.7,0.7h-5.7v-2.2h5.7C168.9,100.7,169.2,101,169.2,101.4z"/>
				<path class="st6" d="M169.2,99.1v0.8c0,0.4-0.3,0.7-0.7,0.7h-15.2c-0.4,0-0.7-0.3-0.7-0.7v-0.8c0-0.4,0.3-0.7,0.7-0.7h15.2
					C168.9,98.4,169.2,98.7,169.2,99.1z"/>
				<rect x="155.4" y="98.4" class="st5" width="2.5" height="2.2"/>
				<path class="st7" d="M169.2,99.1v0.8c0,0.4-0.3,0.7-0.7,0.7h-5.7v-2.2h5.7C168.9,98.4,169.2,98.7,169.2,99.1z"/>
				<path class="st6" d="M169.2,96.8v0.8c0,0.4-0.3,0.7-0.7,0.7h-15.2c-0.4,0-0.7-0.3-0.7-0.7v-0.8c0-0.4,0.3-0.7,0.7-0.7h15.2
					C168.9,96.1,169.2,96.4,169.2,96.8z"/>
				<rect x="155.4" y="96.1" class="st5" width="2.5" height="2.2"/>
				<path class="st7" d="M169.2,96.8v0.8c0,0.4-0.3,0.7-0.7,0.7h-5.7v-2.2h5.7C168.9,96.1,169.2,96.4,169.2,96.8z"/>
				<path class="st6" d="M169.2,94.5v0.8c0,0.4-0.3,0.7-0.7,0.7h-15.2c-0.4,0-0.7-0.3-0.7-0.7v-0.8c0-0.4,0.3-0.7,0.7-0.7h15.2
					C168.9,93.8,169.2,94.1,169.2,94.5z"/>
				<rect x="155.4" y="93.8" class="st5" width="2.5" height="2.2"/>
				<path class="st7" d="M169.2,94.5v0.8c0,0.4-0.3,0.7-0.7,0.7h-5.7v-2.2h5.7C168.9,93.8,169.2,94.1,169.2,94.5z"/>
				<path class="st6" d="M169.2,92.2v0.8c0,0.4-0.3,0.7-0.7,0.7h-15.2c-0.4,0-0.7-0.3-0.7-0.7v-0.8c0-0.4,0.3-0.7,0.7-0.7h15.2
					C168.9,91.5,169.2,91.9,169.2,92.2z"/>
				<rect x="155.4" y="91.5" class="st5" width="2.5" height="2.2"/>
				<path class="st7" d="M169.2,92.2v0.8c0,0.4-0.3,0.7-0.7,0.7h-5.7v-2.2h5.7C168.9,91.5,169.2,91.9,169.2,92.2z"/>
			</g>
			<g>
				<path class="st6" d="M189.6,128.9v0.8c0,0.4-0.3,0.7-0.7,0.7h-15.2c-0.4,0-0.7-0.3-0.7-0.7v-0.8c0-0.4,0.3-0.7,0.7-0.7h15.2
					C189.3,128.2,189.6,128.5,189.6,128.9z"/>
				<rect x="175.8" y="128.2" class="st5" width="2.5" height="2.2"/>
				<path class="st7" d="M189.6,128.9v0.8c0,0.4-0.3,0.7-0.7,0.7h-5.7v-2.2h5.7C189.3,128.2,189.6,128.5,189.6,128.9z"/>
				<path class="st6" d="M189.6,126.6v0.8c0,0.4-0.3,0.7-0.7,0.7h-15.2c-0.4,0-0.7-0.3-0.7-0.7v-0.8c0-0.4,0.3-0.7,0.7-0.7h15.2
					C189.3,125.9,189.6,126.2,189.6,126.6z"/>
				<rect x="175.8" y="125.9" class="st5" width="2.5" height="2.2"/>
				<path class="st7" d="M189.6,126.6v0.8c0,0.4-0.3,0.7-0.7,0.7h-5.7v-2.2h5.7C189.3,125.9,189.6,126.2,189.6,126.6z"/>
				<path class="st6" d="M189.6,124.3v0.8c0,0.4-0.3,0.7-0.7,0.7h-15.2c-0.4,0-0.7-0.3-0.7-0.7v-0.8c0-0.4,0.3-0.7,0.7-0.7h15.2
					C189.3,123.6,189.6,123.9,189.6,124.3z"/>
				<rect x="175.8" y="123.6" class="st5" width="2.5" height="2.2"/>
				<path class="st7" d="M189.6,124.3v0.8c0,0.4-0.3,0.7-0.7,0.7h-5.7v-2.2h5.7C189.3,123.6,189.6,123.9,189.6,124.3z"/>
				<path class="st6" d="M189.6,122v0.8c0,0.4-0.3,0.7-0.7,0.7h-15.2c-0.4,0-0.7-0.3-0.7-0.7V122c0-0.4,0.3-0.7,0.7-0.7h15.2
					C189.3,121.3,189.6,121.6,189.6,122z"/>
				<rect x="175.8" y="121.3" class="st5" width="2.5" height="2.2"/>
				<path class="st7" d="M189.6,122v0.8c0,0.4-0.3,0.7-0.7,0.7h-5.7v-2.2h5.7C189.3,121.3,189.6,121.6,189.6,122z"/>
				<path class="st6" d="M189.6,119.7v0.8c0,0.4-0.3,0.7-0.7,0.7h-15.2c-0.4,0-0.7-0.3-0.7-0.7v-0.8c0-0.4,0.3-0.7,0.7-0.7h15.2
					C189.3,119,189.6,119.3,189.6,119.7z"/>
				<rect x="175.8" y="119" class="st5" width="2.5" height="2.2"/>
				<path class="st7" d="M189.6,119.7v0.8c0,0.4-0.3,0.7-0.7,0.7h-5.7V119h5.7C189.3,119,189.6,119.3,189.6,119.7z"/>
				<path class="st6" d="M189.6,117.4v0.8c0,0.4-0.3,0.7-0.7,0.7h-15.2c-0.4,0-0.7-0.3-0.7-0.7v-0.8c0-0.4,0.3-0.7,0.7-0.7h15.2
					C189.3,116.7,189.6,117,189.6,117.4z"/>
				<rect x="175.8" y="116.7" class="st5" width="2.5" height="2.2"/>
				<path class="st7" d="M189.6,117.4v0.8c0,0.4-0.3,0.7-0.7,0.7h-5.7v-2.2h5.7C189.3,116.7,189.6,117,189.6,117.4z"/>
				<path class="st6" d="M189.6,115.1v0.8c0,0.4-0.3,0.7-0.7,0.7h-15.2c-0.4,0-0.7-0.3-0.7-0.7v-0.8c0-0.4,0.3-0.7,0.7-0.7h15.2
					C189.3,114.4,189.6,114.8,189.6,115.1z"/>
				<rect x="175.8" y="114.4" class="st5" width="2.5" height="2.2"/>
				<path class="st7" d="M189.6,115.1v0.8c0,0.4-0.3,0.7-0.7,0.7h-5.7v-2.2h5.7C189.3,114.4,189.6,114.8,189.6,115.1z"/>
				<path class="st6" d="M189.6,112.8v0.8c0,0.4-0.3,0.7-0.7,0.7h-15.2c-0.4,0-0.7-0.3-0.7-0.7v-0.8c0-0.4,0.3-0.7,0.7-0.7h15.2
					C189.3,112.2,189.6,112.5,189.6,112.8z"/>
				<rect x="175.8" y="112.2" class="st5" width="2.5" height="2.2"/>
				<path class="st7" d="M189.6,112.8v0.8c0,0.4-0.3,0.7-0.7,0.7h-5.7v-2.2h5.7C189.3,112.2,189.6,112.5,189.6,112.8z"/>
				<path class="st6" d="M189.6,110.6v0.8c0,0.4-0.3,0.7-0.7,0.7h-15.2c-0.4,0-0.7-0.3-0.7-0.7v-0.8c0-0.4,0.3-0.7,0.7-0.7h15.2
					C189.3,109.9,189.6,110.2,189.6,110.6z"/>
				<rect x="175.8" y="109.9" class="st5" width="2.5" height="2.2"/>
				<path class="st7" d="M189.6,110.6v0.8c0,0.4-0.3,0.7-0.7,0.7h-5.7v-2.2h5.7C189.3,109.9,189.6,110.2,189.6,110.6z"/>
				<path class="st6" d="M189.6,108.3v0.8c0,0.4-0.3,0.7-0.7,0.7h-15.2c-0.4,0-0.7-0.3-0.7-0.7v-0.8c0-0.4,0.3-0.7,0.7-0.7h15.2
					C189.3,107.6,189.6,107.9,189.6,108.3z"/>
				<rect x="175.8" y="107.6" class="st5" width="2.5" height="2.2"/>
				<path class="st7" d="M189.6,108.3v0.8c0,0.4-0.3,0.7-0.7,0.7h-5.7v-2.2h5.7C189.3,107.6,189.6,107.9,189.6,108.3z"/>
				<path class="st6" d="M189.6,106v0.8c0,0.4-0.3,0.7-0.7,0.7h-15.2c-0.4,0-0.7-0.3-0.7-0.7V106c0-0.4,0.3-0.7,0.7-0.7h15.2
					C189.3,105.3,189.6,105.6,189.6,106z"/>
				<rect x="175.8" y="105.3" class="st5" width="2.5" height="2.2"/>
				<path class="st7" d="M189.6,106v0.8c0,0.4-0.3,0.7-0.7,0.7h-5.7v-2.2h5.7C189.3,105.3,189.6,105.6,189.6,106z"/>
				<path class="st6" d="M189.6,103.7v0.8c0,0.4-0.3,0.7-0.7,0.7h-15.2c-0.4,0-0.7-0.3-0.7-0.7v-0.8c0-0.4,0.3-0.7,0.7-0.7h15.2
					C189.3,103,189.6,103.3,189.6,103.7z"/>
				<rect x="175.8" y="103" class="st5" width="2.5" height="2.2"/>
				<path class="st7" d="M189.6,103.7v0.8c0,0.4-0.3,0.7-0.7,0.7h-5.7V103h5.7C189.3,103,189.6,103.3,189.6,103.7z"/>
				<path class="st6" d="M189.6,101.4v0.8c0,0.4-0.3,0.7-0.7,0.7h-15.2c-0.4,0-0.7-0.3-0.7-0.7v-0.8c0-0.4,0.3-0.7,0.7-0.7h15.2
					C189.3,100.7,189.6,101,189.6,101.4z"/>
				<rect x="175.8" y="100.7" class="st5" width="2.5" height="2.2"/>
				<path class="st7" d="M189.6,101.4v0.8c0,0.4-0.3,0.7-0.7,0.7h-5.7v-2.2h5.7C189.3,100.7,189.6,101,189.6,101.4z"/>
				<path class="st6" d="M189.6,99.1v0.8c0,0.4-0.3,0.7-0.7,0.7h-15.2c-0.4,0-0.7-0.3-0.7-0.7v-0.8c0-0.4,0.3-0.7,0.7-0.7h15.2
					C189.3,98.4,189.6,98.7,189.6,99.1z"/>
				<rect x="175.8" y="98.4" class="st5" width="2.5" height="2.2"/>
				<path class="st7" d="M189.6,99.1v0.8c0,0.4-0.3,0.7-0.7,0.7h-5.7v-2.2h5.7C189.3,98.4,189.6,98.7,189.6,99.1z"/>
				<path class="st6" d="M189.6,96.8v0.8c0,0.4-0.3,0.7-0.7,0.7h-15.2c-0.4,0-0.7-0.3-0.7-0.7v-0.8c0-0.4,0.3-0.7,0.7-0.7h15.2
					C189.3,96.1,189.6,96.4,189.6,96.8z"/>
				<rect x="175.8" y="96.1" class="st5" width="2.5" height="2.2"/>
				<path class="st7" d="M189.6,96.8v0.8c0,0.4-0.3,0.7-0.7,0.7h-5.7v-2.2h5.7C189.3,96.1,189.6,96.4,189.6,96.8z"/>
				<path class="st6" d="M189.6,94.5v0.8c0,0.4-0.3,0.7-0.7,0.7h-15.2c-0.4,0-0.7-0.3-0.7-0.7v-0.8c0-0.4,0.3-0.7,0.7-0.7h15.2
					C189.3,93.8,189.6,94.1,189.6,94.5z"/>
				<rect x="175.8" y="93.8" class="st5" width="2.5" height="2.2"/>
				<path class="st7" d="M189.6,94.5v0.8c0,0.4-0.3,0.7-0.7,0.7h-5.7v-2.2h5.7C189.3,93.8,189.6,94.1,189.6,94.5z"/>
				<path class="st6" d="M189.6,92.2v0.8c0,0.4-0.3,0.7-0.7,0.7h-15.2c-0.4,0-0.7-0.3-0.7-0.7v-0.8c0-0.4,0.3-0.7,0.7-0.7h15.2
					C189.3,91.5,189.6,91.9,189.6,92.2z"/>
				<rect x="175.8" y="91.5" class="st5" width="2.5" height="2.2"/>
				<path class="st7" d="M189.6,92.2v0.8c0,0.4-0.3,0.7-0.7,0.7h-5.7v-2.2h5.7C189.3,91.5,189.6,91.9,189.6,92.2z"/>
				<path class="st6" d="M189.6,89.9v0.8c0,0.4-0.3,0.7-0.7,0.7h-15.2c-0.4,0-0.7-0.3-0.7-0.7v-0.8c0-0.4,0.3-0.7,0.7-0.7h15.2
					C189.3,89.3,189.6,89.6,189.6,89.9z"/>
				<rect x="175.8" y="89.3" class="st5" width="2.5" height="2.2"/>
				<path class="st7" d="M189.6,89.9v0.8c0,0.4-0.3,0.7-0.7,0.7h-5.7v-2.2h5.7C189.3,89.3,189.6,89.6,189.6,89.9z"/>
				<path class="st6" d="M189.6,87.6v0.8c0,0.4-0.3,0.7-0.7,0.7h-15.2c-0.4,0-0.7-0.3-0.7-0.7v-0.8c0-0.4,0.3-0.7,0.7-0.7h15.2
					C189.3,87,189.6,87.3,189.6,87.6z"/>
				<rect x="175.8" y="87" class="st5" width="2.5" height="2.2"/>
				<path class="st7" d="M189.6,87.6v0.8c0,0.4-0.3,0.7-0.7,0.7h-5.7V87h5.7C189.3,87,189.6,87.3,189.6,87.6z"/>
				<path class="st6" d="M189.6,85.4v0.8c0,0.4-0.3,0.7-0.7,0.7h-15.2c-0.4,0-0.7-0.3-0.7-0.7v-0.8c0-0.4,0.3-0.7,0.7-0.7h15.2
					C189.3,84.7,189.6,85,189.6,85.4z"/>
				<rect x="175.8" y="84.7" class="st5" width="2.5" height="2.2"/>
				<path class="st7" d="M189.6,85.4v0.8c0,0.4-0.3,0.7-0.7,0.7h-5.7v-2.2h5.7C189.3,84.7,189.6,85,189.6,85.4z"/>
			</g>
			<g>
				<path class="st6" d="M210,128.9v0.8c0,0.4-0.3,0.7-0.7,0.7h-15.2c-0.4,0-0.7-0.3-0.7-0.7v-0.8c0-0.4,0.3-0.7,0.7-0.7h15.2
					C209.7,128.2,210,128.5,210,128.9z"/>
				<rect x="196.2" y="128.2" class="st5" width="2.5" height="2.2"/>
				<path class="st7" d="M210,128.9v0.8c0,0.4-0.3,0.7-0.7,0.7h-5.7v-2.2h5.7C209.7,128.2,210,128.5,210,128.9z"/>
				<path class="st6" d="M210,126.6v0.8c0,0.4-0.3,0.7-0.7,0.7h-15.2c-0.4,0-0.7-0.3-0.7-0.7v-0.8c0-0.4,0.3-0.7,0.7-0.7h15.2
					C209.7,125.9,210,126.2,210,126.6z"/>
				<rect x="196.2" y="125.9" class="st5" width="2.5" height="2.2"/>
				<path class="st7" d="M210,126.6v0.8c0,0.4-0.3,0.7-0.7,0.7h-5.7v-2.2h5.7C209.7,125.9,210,126.2,210,126.6z"/>
				<path class="st6" d="M210,124.3v0.8c0,0.4-0.3,0.7-0.7,0.7h-15.2c-0.4,0-0.7-0.3-0.7-0.7v-0.8c0-0.4,0.3-0.7,0.7-0.7h15.2
					C209.7,123.6,210,123.9,210,124.3z"/>
				<rect x="196.2" y="123.6" class="st5" width="2.5" height="2.2"/>
				<path class="st7" d="M210,124.3v0.8c0,0.4-0.3,0.7-0.7,0.7h-5.7v-2.2h5.7C209.7,123.6,210,123.9,210,124.3z"/>
				<path class="st6" d="M210,122v0.8c0,0.4-0.3,0.7-0.7,0.7h-15.2c-0.4,0-0.7-0.3-0.7-0.7V122c0-0.4,0.3-0.7,0.7-0.7h15.2
					C209.7,121.3,210,121.6,210,122z"/>
				<rect x="196.2" y="121.3" class="st5" width="2.5" height="2.2"/>
				<path class="st7" d="M210,122v0.8c0,0.4-0.3,0.7-0.7,0.7h-5.7v-2.2h5.7C209.7,121.3,210,121.6,210,122z"/>
				<path class="st6" d="M210,119.7v0.8c0,0.4-0.3,0.7-0.7,0.7h-15.2c-0.4,0-0.7-0.3-0.7-0.7v-0.8c0-0.4,0.3-0.7,0.7-0.7h15.2
					C209.7,119,210,119.3,210,119.7z"/>
				<rect x="196.2" y="119" class="st5" width="2.5" height="2.2"/>
				<path class="st7" d="M210,119.7v0.8c0,0.4-0.3,0.7-0.7,0.7h-5.7V119h5.7C209.7,119,210,119.3,210,119.7z"/>
				<path class="st6" d="M210,117.4v0.8c0,0.4-0.3,0.7-0.7,0.7h-15.2c-0.4,0-0.7-0.3-0.7-0.7v-0.8c0-0.4,0.3-0.7,0.7-0.7h15.2
					C209.7,116.7,210,117,210,117.4z"/>
				<rect x="196.2" y="116.7" class="st5" width="2.5" height="2.2"/>
				<path class="st7" d="M210,117.4v0.8c0,0.4-0.3,0.7-0.7,0.7h-5.7v-2.2h5.7C209.7,116.7,210,117,210,117.4z"/>
				<path class="st6" d="M210,115.1v0.8c0,0.4-0.3,0.7-0.7,0.7h-15.2c-0.4,0-0.7-0.3-0.7-0.7v-0.8c0-0.4,0.3-0.7,0.7-0.7h15.2
					C209.7,114.4,210,114.8,210,115.1z"/>
				<rect x="196.2" y="114.4" class="st5" width="2.5" height="2.2"/>
				<path class="st7" d="M210,115.1v0.8c0,0.4-0.3,0.7-0.7,0.7h-5.7v-2.2h5.7C209.7,114.4,210,114.8,210,115.1z"/>
				<path class="st6" d="M210,112.8v0.8c0,0.4-0.3,0.7-0.7,0.7h-15.2c-0.4,0-0.7-0.3-0.7-0.7v-0.8c0-0.4,0.3-0.7,0.7-0.7h15.2
					C209.7,112.2,210,112.5,210,112.8z"/>
				<rect x="196.2" y="112.2" class="st5" width="2.5" height="2.2"/>
				<path class="st7" d="M210,112.8v0.8c0,0.4-0.3,0.7-0.7,0.7h-5.7v-2.2h5.7C209.7,112.2,210,112.5,210,112.8z"/>
			</g>
			<polygon class="st0" points="231.3,62.2 231.3,136.5 218.4,136.5 84.5,78 84.5,62.2 			"/>
			<polygon class="st0" points="231.3,140.7 231.3,209.4 205.7,209.4 84.5,156.5 84.5,140.7 			"/>
			<g>
				<polygon class="st2" points="259.6,42.2 259.6,229.3 213.4,209.2 213.4,62.3 				"/>
				<polygon class="st1" points="221.1,204.2 221.1,67.3 251.9,54 251.9,217.5 				"/>
				<rect x="259.6" y="42.2" class="st1" width="26.9" height="187.1"/>
				<g>
					<path class="st8" d="M277.8,106.9c0,2.7-2.1,4.8-4.8,4.8c-2.6,0-4.8-2.2-4.8-4.8c0-2.7,2.1-4.8,4.8-4.8
						C275.7,102.1,277.8,104.2,277.8,106.9z"/>
					<path class="st8" d="M277.8,121.3c0,2.7-2.1,4.8-4.8,4.8c-2.6,0-4.8-2.2-4.8-4.8c0-2.7,2.1-4.8,4.8-4.8
						C275.7,116.5,277.8,118.7,277.8,121.3z"/>
					<path class="st8" d="M277.8,135.7c0,2.7-2.1,4.8-4.8,4.8c-2.6,0-4.8-2.2-4.8-4.8c0-2.7,2.1-4.8,4.8-4.8
						C275.7,130.9,277.8,133.1,277.8,135.7z"/>
					<path class="st8" d="M277.8,150.1c0,2.7-2.1,4.8-4.8,4.8c-2.6,0-4.8-2.2-4.8-4.8c0-2.7,2.1-4.8,4.8-4.8
						C275.7,145.3,277.8,147.5,277.8,150.1z"/>
					<path class="st8" d="M277.8,164.6c0,2.7-2.1,4.8-4.8,4.8c-2.6,0-4.8-2.2-4.8-4.8c0-2.7,2.1-4.8,4.8-4.8
						C275.7,159.7,277.8,161.9,277.8,164.6z"/>
				</g>
			</g>
		</g>
	</g>
	<g>
		<g>
			<g>
				<g>
					<path class="st9" d="M232.8,120.5l3.1-5.6c1-1.7,0.3-4.2-1.6-5.5l-0.3-0.2c-1.8-1.3-4.1-0.9-5.1,0.9l-3.1,5.6
						c-1,1.7-0.3,4.2,1.6,5.5l0.3,0.2C229.6,122.6,231.8,122.2,232.8,120.5z"/>
					<path class="st6" d="M249.9,84.2l-11.3-35c-1.6-3.2-4.4-2.5-9.2-2.1c-3.2,0.3-7.3,5.7-5.7,8.9l13.8,29.8l-9.9,23.6
						c-1.4,2.9,0.2,3.9,3.2,5.8c3,1.9,4.7,3.1,6.1,0.2L249.6,90C250.5,88.3,250.5,86.7,249.9,84.2z"/>
				</g>
				<g>
					<path class="st10" d="M231.1,124.8l-6.2,6.8c0,0-5.4-1.6-4.2-4.7c1.2-3,3.4-7.5,3.8-8.2C227.3,116.5,235.1,120.5,231.1,124.8z"
						/>
					<path class="st9" d="M223.9,122.5c0.8,0.5,5.8-0.9,6.2-1.8c1.6-3.8-4.5-7.1-6.9-4.4c-2.1,4-5,8.5-4,9.5
						C220.6,127.1,222.1,121.3,223.9,122.5z"/>
				</g>
			</g>
			<g>
				<path class="st2" d="M231.4,228.7l-3.3,4.9l-6.7,1.5c-0.5,0.7-0.4,1.7,0.2,2.3c0.1,0.1,9.2-0.3,9.2-0.3
					c6.6-4.8,4.2-3.1,10.4-7.5c0,0,0.6-1-0.6-2.6C238.3,224.3,234.1,226.1,231.4,228.7z"/>
				<path class="st11" d="M205.3,172.7l23.2,57.2l11.3-4.3l-21.3-51c-0.5-31.7,11.5-24.7,16.8-59.4l-14.5-9.9
					C216.2,111.6,204.9,161.3,205.3,172.7z"/>
			</g>
			<g>
				<path class="st2" d="M223.4,233.7l-12,4.3c-0.8,0.3-1.4,1.2-1.2,2c0,0.1,0.1,0.2,0.1,0.3l7.5,0.1l6.8,0l6.3,0.1
					c0,0,1.1-0.5,1.1-2.5c-0.1-2-1.2-2.8-2.2-3.5C227.5,233.1,223.4,233.7,223.4,233.7z"/>
				<path class="st12" d="M220.5,234.1l11.4,0.9l4.9-111.3c6.8-6.3,9.9-17.6,2.7-18.1l-16.5-2.7c-3.4-0.3-4.6,2.7-4.6,5.5l-1.2,12.1
					L220.5,234.1z"/>
			</g>
			
				<linearGradient id="SVGID_1_" gradientUnits="userSpaceOnUse" x1="-1648.1292" y1="33.3071" x2="-1648.7665" y2="54.0213" gradientTransform="matrix(-1 0 0 1 -1421.101 0)">
				<stop  offset="0" style="stop-color:#C79993"/>
				<stop  offset="0.2211" style="stop-color:#D7A59F"/>
				<stop  offset="0.6154" style="stop-color:#FDC3BB"/>
			</linearGradient>
			<path class="st13" d="M231,47.1l-7.2,2.5c-2.5,0-3.7-0.2-3.7-2.6l-0.6-19.6c0-2.4,2-4.4,4.6-4.4h7c2.5,0,2.9,1.7,2.9,4.1
				l0.9,15.5C234.8,45.1,233.6,46,231,47.1z"/>
			<g>
				<path class="st5" d="M236.2,41.4c0,0,10.6,12.6,7.3,27.5c-3.3,14.9-0.9,22.9-0.6,28.9c0.3,6.7,2.6,17.2,2.6,17.2
					c-5.2,2.8-29.7,1-29.7,1s-0.5-27.5-0.9-34.1c-0.5-6.6-1.8-11.4-0.4-21.1c1.4-9.7,5.6-14.6,5.6-14.6L236.2,41.4z"/>
				<path class="st6" d="M220,46.1c2,1.7,3,2.8,2.4,5.4c0,0,16-4.4,14.2-10.3l-2-2.3C233.6,42.3,224.2,45,220,46.1z"/>
			</g>
			<g>
				<path class="st9" d="M227.3,10.2l-7.5-0.4c-2.7-0.1-7.9,0.4-8,3.4c2.2,21.5,2.3,26.8,6.3,27c0,0,12.5-3.6,12.7-6.6l1-17.5
					C232,12.8,229.8,10.3,227.3,10.2z"/>
				<path class="st14" d="M207.3,11.2c-2.2-3.6,1.3-6.7,5.5-7.2c0.8-0.1,3.3-1.6,3.8-1.8c2.4-1.1,9.6-4,16.5-0.5
					c6,3.1,5.3,9.1,5.2,9.8c-0.4,8.1-1.4,20.5-3.4,20.8c-1.8,0.3-2.3-5.7-4.9-7.3l-2.1-0.3c-0.3-1.6-1.3-8.5-1.2-8.4
					c0,0-3.3,0.5-3.3,0.5c-3.6,0.5-1.7-2.4-11.3-3.4C210.6,13.3,208.1,12.5,207.3,11.2z"/>
				<path class="st9" d="M233,23.8c-0.3,1.6-1.3,2.8-2.2,2.6c-0.9-0.2-1.4-1.6-1.1-3.2c0.3-1.6,1.3-2.8,2.2-2.6
					C232.9,20.7,233.3,22.2,233,23.8z"/>
			</g>
			<g>
				<g>
					<g>
						<path class="st9" d="M166.4,91.9l8.1-1.1c4.5-0.9,5.9,6.5,2,7.3c-9.3-0.7-14.4,0.4-14.8-2C161.3,94.1,164.4,92.3,166.4,91.9z"
							/>
					</g>
					<path class="st15" d="M167.9,97.3l-3.6,0.1c-1.1,1-8.3-0.4-8.3-0.4c-1.7-0.3-2.2-2.4-3.1-4c-0.4-0.6,0-1.5,0.8-1.5l7.1-0.4
						l-1.4-2.2c0,0-2.9-0.7-2.8-1.5c0.1-0.5,2.2-0.2,2.2-0.2l3.3,1.1l1.9,1.7l2.5,1.8L167.9,97.3z"/>
				</g>
				<path class="st6" d="M205.5,99.4c1.3-0.3,2.5-1.1,3.3-2.2l24.8-27.1c2.1-2.7,4.4-14.4-3.8-16.9c-3.2-1-8.7,2.8-10.7,5.5
					l-18.3,28.9l-32.7,2.7c-3.4,0.3-2.7,8.6,0.7,8.3l35.7,1C204.8,99.5,205.2,99.5,205.5,99.4z"/>
			</g>
		</g>
	</g>
	<g>
		<g>
			<g>
				<path class="st5" d="M62.7,133c-1.4,3.7-3,7.2-4.8,10.5c-5.8,10.4-12.7,16.8-19.5,17.9c-1,0.2-1.8,1.1-1.8,2.1
					c0,0.1,0,0.1,0,0.2l-0.8,0.2c0-0.1,0-0.2,0-0.3c0-1.1-0.8-2-1.8-2.1c-5.9-1-11.9-5.9-17.2-14c14.8-4,19.2-13.1,33.9-14.8
					C56.2,132.1,60.1,132.4,62.7,133z"/>
				<path class="st16" d="M67.4,214.1H5c0.5-6.2,2.1-13.1,4.6-19.7c0,0,0,0,0,0c0-0.1,0.1-0.2,0.2-0.5c0,0,0,0,0,0
					c0.8-1.8,4.1-7.1,15.6-6.8c13.7,0.4,13.9,6.2,25.9,6.5c4,0.1,7.6-0.5,10.6-1.4C64.9,199.4,66.8,207.2,67.4,214.1z"/>
				<path class="st5" d="M67.4,214.1H5c0.5-6.2,2.1-13.1,4.6-19.7c2.6,2.6,6.5,5.6,11.1,5.4c5.5-0.2,8.4-4.9,13.4-8.6
					c4.6-3.3,12.1-6.6,24.8-5.8C63.5,194.4,66.7,205,67.4,214.1z"/>
				<path class="st5" d="M36.2,197.9L35.6,158c0-1.5,1.2-1.6,1.2-0.1C36.9,158,36.2,197.8,36.2,197.9z"/>
			</g>
			<path class="st17" d="M38.6,164.6c-0.5-0.1-0.8-0.5-0.8-1c0-0.5,0.3-0.9,0.8-1c15.8-2.6,28.5-30.2,30-49.6c0-0.6-0.4-1.1-1-1.1
				H4.8c-0.6,0-1,0.5-1,1.1c1.5,19.4,14.2,47.1,30,49.6c0.5,0.1,0.8,0.5,0.8,1c0,0.5-0.3,0.9-0.8,1c-15.8,2.6-28.5,30.2-30,49.6
				c0,0.6,0.4,1.1,1,1.1h62.8c0.6,0,1-0.5,1-1.1C67.1,194.8,54.4,167.1,38.6,164.6z M67.4,214.1H5c0.8-9.8,4.3-21.1,9.5-30.5
				c5.8-10.4,12.7-16.8,19.5-17.9c1-0.2,1.8-1.1,1.8-2.1c0-1.1-0.8-2-1.8-2.1c-6.8-1.1-13.8-7.5-19.5-17.9
				c-5.1-9.3-8.7-20.7-9.5-30.5h62.4c-0.8,9.8-4.3,21.1-9.5,30.5c-5.8,10.4-12.7,16.8-19.5,17.9c-1,0.2-1.8,1.1-1.8,2.1
				c0,1.1,0.8,2,1.8,2.1c6.8,1.1,13.8,7.5,19.5,17.9C63.1,193,66.6,204.3,67.4,214.1z"/>
			<path class="st18" d="M62.4,192.1c2.9,7.3,4.9,15,5.5,22H5.5c0.5-6.2,2.1-13.1,4.6-19.7c0,0,0,0,0,0c0.1-0.2,0.1-0.3,0.2-0.5
				c0,0,0,0,0,0c1.3-3.5,2.9-7,4.7-10.2c5.8-10.4,12.7-16.8,19.5-17.9c1-0.2,1.8-1.1,1.8-2.1c0-1.1-0.8-2-1.8-2.1
				c-6.8-1.1-13.8-7.5-19.5-17.9c-5.1-9.3-8.7-20.7-9.5-30.5h62.4c-0.8,9.8-4.3,21.1-9.5,30.5c-5.8,10.4-12.7,16.8-19.5,17.9
				c-1,0.2-1.8,1.1-1.8,2.1c0,1.1,0.8,2,1.8,2.1c6.8,1.1,13.8,7.5,19.5,17.9C59.9,186.3,61.3,189.2,62.4,192.1z"/>
			<path class="st19" d="M25.6,174c-2.8,5-4.6,10.3-5.8,15.8c-1.2,5.4-1.8,10.9-1.8,16.4c0,2.1-1.7,3.7-3.8,3.7
				c-2,0-3.7-1.7-3.6-3.8c0-0.3,0-0.5,0.1-0.8l0,0c1.3-5.8,3.2-11.4,5.7-16.7C18.7,183.2,21.8,178.2,25.6,174z"/>
			<path class="st19" d="M16.2,119c0.2,5.5,0.9,11.1,2.4,16.6c1.4,5.4,3.6,10.8,6.7,15.6c-4-4.2-7.2-9.2-9.8-14.5
				c-2.6-5.3-4.5-11-5.8-16.9l0,0c-0.4-1.8,0.7-3.6,2.5-4c1.8-0.4,3.6,0.7,4,2.5C16.1,118.6,16.1,118.8,16.2,119z"/>
		</g>
		<g>
			<path class="st11" d="M59.2,107.3H13.3c-2.7,0-4.9-2.2-4.9-5l0,0c0-2.7,2.2-5,4.9-5h45.9c2.7,0,4.9,2.2,4.9,5l0,0
				C64.1,105.1,61.9,107.3,59.2,107.3z"/>
			<path class="st20" d="M64.1,102.3c0,1.4-0.6,2.6-1.4,3.5c-0.9,0.9-2.1,1.5-3.5,1.5H13.3c-2.6,0-4.7-2-4.9-4.5c0,0,0.1,0,0.1,0
				h45.9c1.4,0,2.6-0.6,3.5-1.4c0.9-0.9,1.4-2.1,1.4-3.5c0-0.1,0-0.3,0-0.4C62,97.4,64.1,99.6,64.1,102.3z"/>
			<path class="st12" d="M67.5,113.1H4.9c-2.7,0-4.9-2.2-4.9-5l0,0c0-2.7,2.2-5,4.9-5h62.5c2.7,0,4.9,2.2,4.9,5l0,0
				C72.4,110.9,70.2,113.1,67.5,113.1z"/>
			<path class="st11" d="M72.4,108.1c0,1.4-0.6,2.6-1.4,3.5c-0.9,0.9-2.1,1.5-3.5,1.5H4.9c-1.6,0-3-0.8-3.9-1.9h61.8
				c1.4,0,2.6-0.6,3.5-1.5c0.9-0.9,1.4-2.1,1.4-3.5c0-1.1-0.4-2.2-1-3h0.7C70.2,103.2,72.4,105.4,72.4,108.1z"/>
		</g>
		<g>
			<path class="st20" d="M59.2,219.8H13.3c-2.7,0-4.9,2.2-4.9,5l0,0c0,2.7,2.2,5,4.9,5h45.9c2.7,0,4.9-2.2,4.9-5l0,0
				C64.1,222,61.9,219.8,59.2,219.8z"/>
			<path class="st12" d="M67.5,213.9H4.9c-2.7,0-4.9,2.2-4.9,5l0,0c0,2.7,2.2,5,4.9,5h62.5c2.7,0,4.9-2.2,4.9-5l0,0
				C72.4,216.1,70.2,213.9,67.5,213.9z"/>
		</g>
		<path class="st11" d="M72.4,218.9c0,1.4-0.6,2.6-1.4,3.5c-0.9,0.9-2.1,1.5-3.5,1.5H4.9c-1.6,0-3-0.8-3.9-1.9h61.8
			c1.4,0,2.6-0.6,3.5-1.5c0.9-0.9,1.4-2.1,1.4-3.5c0-1.1-0.4-2.2-1-3h0.7C70.2,213.9,72.4,216.1,72.4,218.9z"/>
		<path class="st21" d="M48.5,109.1H4.1c-1.2,0-2.1-1-2.1-2.1c0-1.2,1-2.1,2.1-2.1h44.3c1.2,0,2.1,1,2.1,2.1
			C50.6,108.2,49.6,109.1,48.5,109.1z"/>
		<path class="st21" d="M48,221H3.6c-1.2,0-2.1-1-2.1-2.1c0-1.2,1-2.1,2.1-2.1H48c1.2,0,2.1,1,2.1,2.1C50.1,220.1,49.1,221,48,221z"
			/>
		<path class="st21" d="M44.6,101.8H12.4c-0.9,0-1.5-0.7-1.5-1.6c0-0.9,0.7-1.6,1.5-1.6h32.2c0.9,0,1.5,0.7,1.5,1.6
			C46.2,101.1,45.5,101.8,44.6,101.8z"/>
		<g>
			<g>
				<path class="st6" d="M39.7,181.7c-0.8,0-1.4,0.6-1.4,1.4c0,0.8,0.6,1.4,1.4,1.4c0.8,0,1.4-0.6,1.4-1.4
					C41.1,182.3,40.5,181.7,39.7,181.7z M39.7,184.3c-0.7,0-1.2-0.6-1.2-1.2c0-0.7,0.6-1.2,1.2-1.2c0.7,0,1.2,0.6,1.2,1.2
					C41,183.8,40.4,184.3,39.7,184.3z"/>
				<path class="st5" d="M41,183.1c0,0.7-0.6,1.2-1.2,1.2c-0.7,0-1.2-0.6-1.2-1.2c0-0.7,0.6-1.2,1.2-1.2
					C40.4,181.8,41,182.4,41,183.1z"/>
			</g>
			<path class="st6" d="M40.1,182.7C40.1,182.7,40.1,182.7,40.1,182.7c-0.1,0-0.1-0.1-0.1-0.1c0,0-0.1,0-0.1,0c0,0-0.1,0-0.1,0v0.4
				l0.1,0c0.1,0,0.1,0,0.2,0.1c0.1,0,0.1,0.1,0.2,0.1c0,0,0.1,0.1,0.1,0.1c0,0,0,0.1,0,0.2c0,0.1,0,0.1,0,0.2c0,0.1-0.1,0.1-0.1,0.1
				c0,0-0.1,0.1-0.2,0.1c-0.1,0-0.1,0-0.2,0v0.2h-0.1v-0.2c-0.1,0-0.2,0-0.3-0.1c-0.1,0-0.2-0.1-0.3-0.1l0.1-0.3c0,0,0,0,0.1,0
				c0,0,0.1,0,0.1,0.1c0,0,0.1,0,0.1,0c0,0,0.1,0,0.1,0v-0.4c0,0,0,0,0,0c0,0,0,0,0,0c-0.1,0-0.1,0-0.2-0.1c-0.1,0-0.1-0.1-0.1-0.1
				c0,0-0.1-0.1-0.1-0.1c0,0,0-0.1,0-0.1c0-0.1,0-0.1,0-0.2c0-0.1,0.1-0.1,0.1-0.1c0,0,0.1-0.1,0.2-0.1c0.1,0,0.1,0,0.2,0v-0.2h0.1
				v0.2c0.1,0,0.2,0,0.3,0.1c0.1,0,0.1,0.1,0.2,0.1L40.1,182.7z M39.5,182.7c0,0,0,0.1,0,0.1c0,0,0.1,0,0.2,0.1v-0.3
				C39.6,182.6,39.5,182.6,39.5,182.7z M40,183.4c0,0,0-0.1-0.1-0.1c0,0-0.1-0.1-0.2-0.1v0.3C39.9,183.6,40,183.5,40,183.4z"/>
		</g>
		<g>
			<g>
				<path class="st6" d="M32.8,169.1c-1.1,0-2.1,0.9-2.1,2.1c0,1.1,0.9,2.1,2.1,2.1c1.1,0,2.1-0.9,2.1-2.1
					C34.8,170,33.9,169.1,32.8,169.1z M32.8,173.1c-1,0-1.9-0.8-1.9-1.9c0-1,0.8-1.9,1.9-1.9c1,0,1.9,0.8,1.9,1.9
					C34.6,172.2,33.8,173.1,32.8,173.1z"/>
				<path class="st5" d="M34.6,171.2c0,1-0.8,1.9-1.9,1.9c-1,0-1.9-0.8-1.9-1.9c0-1,0.8-1.9,1.9-1.9
					C33.8,169.3,34.6,170.1,34.6,171.2z"/>
			</g>
			<path class="st6" d="M33.4,170.6C33.4,170.6,33.4,170.6,33.4,170.6c-0.1-0.1-0.1-0.1-0.2-0.1c0,0-0.1,0-0.2-0.1
				c-0.1,0-0.1,0-0.2,0v0.5l0.1,0c0.1,0,0.2,0.1,0.3,0.1c0.1,0,0.2,0.1,0.2,0.1c0.1,0.1,0.1,0.1,0.1,0.2c0,0.1,0.1,0.2,0.1,0.3
				c0,0.1,0,0.2-0.1,0.3c0,0.1-0.1,0.2-0.2,0.2c-0.1,0.1-0.2,0.1-0.2,0.1c-0.1,0-0.2,0-0.3,0v0.3h-0.2v-0.4c-0.1,0-0.3,0-0.4-0.1
				c-0.1,0-0.3-0.1-0.4-0.2l0.2-0.4c0,0,0,0,0.1,0.1c0,0,0.1,0.1,0.1,0.1s0.1,0.1,0.2,0.1s0.1,0,0.2,0v-0.5c0,0,0,0-0.1,0
				c0,0,0,0-0.1,0c-0.1,0-0.2-0.1-0.3-0.1c-0.1,0-0.1-0.1-0.2-0.1c-0.1,0-0.1-0.1-0.1-0.2c0-0.1,0-0.1,0-0.2c0-0.1,0-0.2,0.1-0.3
				c0-0.1,0.1-0.2,0.2-0.2c0.1-0.1,0.1-0.1,0.2-0.1c0.1,0,0.2-0.1,0.3-0.1v-0.3h0.2v0.3c0.1,0,0.3,0,0.4,0.1c0.1,0,0.2,0.1,0.3,0.2
				L33.4,170.6z M32.4,170.7c0,0.1,0,0.1,0.1,0.2c0,0,0.1,0.1,0.2,0.1v-0.5C32.5,170.4,32.4,170.5,32.4,170.7z M33.2,171.7
				c0-0.1,0-0.1-0.1-0.2c-0.1,0-0.1-0.1-0.2-0.1v0.5C33.1,171.9,33.2,171.8,33.2,171.7z"/>
		</g>
		<g>
			<g>
				<path class="st6" d="M43.5,174.3c-1.3,0-2.4,1.1-2.4,2.4c0,1.3,1.1,2.4,2.4,2.4c1.3,0,2.4-1.1,2.4-2.4
					C45.9,175.4,44.8,174.3,43.5,174.3z M43.5,178.9c-1.2,0-2.2-1-2.2-2.2c0-1.2,1-2.2,2.2-2.2s2.2,1,2.2,2.2
					C45.7,177.9,44.7,178.9,43.5,178.9z"/>
				<path class="st5" d="M45.7,176.7c0,1.2-1,2.2-2.2,2.2s-2.2-1-2.2-2.2c0-1.2,1-2.2,2.2-2.2S45.7,175.5,45.7,176.7z"/>
			</g>
			<path class="st6" d="M44.2,176.1C44.2,176.1,44.2,176,44.2,176.1c-0.1-0.1-0.2-0.1-0.2-0.1c-0.1,0-0.1,0-0.2-0.1
				c-0.1,0-0.1,0-0.2,0v0.6l0.1,0c0.1,0,0.2,0.1,0.3,0.1c0.1,0,0.2,0.1,0.3,0.1c0.1,0.1,0.1,0.1,0.2,0.2s0.1,0.2,0.1,0.3
				c0,0.1,0,0.2-0.1,0.3c0,0.1-0.1,0.2-0.2,0.2c-0.1,0.1-0.2,0.1-0.3,0.1c-0.1,0-0.2,0-0.3,0.1v0.4h-0.2V178c-0.2,0-0.3,0-0.5-0.1
				c-0.2-0.1-0.3-0.1-0.4-0.2l0.2-0.4c0,0,0.1,0,0.1,0.1c0,0,0.1,0.1,0.2,0.1c0.1,0,0.1,0.1,0.2,0.1c0.1,0,0.2,0,0.3,0.1v-0.6
				c0,0,0,0-0.1,0c0,0,0,0-0.1,0c-0.1,0-0.2-0.1-0.3-0.1c-0.1,0-0.2-0.1-0.2-0.1c-0.1-0.1-0.1-0.1-0.1-0.2c0-0.1,0-0.2,0-0.3
				c0-0.1,0-0.2,0.1-0.3c0-0.1,0.1-0.2,0.2-0.2c0.1-0.1,0.2-0.1,0.3-0.2c0.1,0,0.2-0.1,0.3-0.1V175h0.2v0.4c0.2,0,0.3,0,0.4,0.1
				c0.1,0.1,0.3,0.1,0.4,0.2L44.2,176.1z M43.1,176.1c0,0.1,0,0.1,0.1,0.2c0.1,0,0.1,0.1,0.3,0.1v-0.6
				C43.2,175.8,43.1,175.9,43.1,176.1z M44,177.3c0-0.1,0-0.1-0.1-0.2c-0.1,0-0.2-0.1-0.3-0.1v0.6C43.9,177.6,44,177.5,44,177.3z"/>
		</g>
		<g>
			<g>
				<path class="st6" d="M29.2,175.5c-1.4,0-2.6,1.2-2.6,2.6c0,1.4,1.2,2.6,2.6,2.6c1.4,0,2.6-1.2,2.6-2.6
					C31.8,176.7,30.6,175.5,29.2,175.5z M29.2,180.4c-1.3,0-2.3-1-2.3-2.3c0-1.3,1-2.3,2.3-2.3c1.3,0,2.3,1,2.3,2.3
					C31.5,179.4,30.5,180.4,29.2,180.4z"/>
				<path class="st5" d="M31.5,178.1c0,1.3-1,2.3-2.3,2.3c-1.3,0-2.3-1-2.3-2.3c0-1.3,1-2.3,2.3-2.3
					C30.5,175.8,31.5,176.8,31.5,178.1z"/>
			</g>
			<path class="st6" d="M29.9,177.4C29.9,177.4,29.9,177.4,29.9,177.4c-0.1-0.1-0.2-0.1-0.2-0.1c-0.1,0-0.1-0.1-0.2-0.1
				c-0.1,0-0.1,0-0.2,0v0.7l0.1,0c0.1,0,0.3,0.1,0.4,0.1c0.1,0,0.2,0.1,0.3,0.2c0.1,0.1,0.1,0.1,0.2,0.2c0,0.1,0.1,0.2,0.1,0.3
				c0,0.1,0,0.3-0.1,0.4c-0.1,0.1-0.1,0.2-0.2,0.3c-0.1,0.1-0.2,0.1-0.3,0.1c-0.1,0-0.2,0.1-0.4,0.1v0.4h-0.2v-0.4
				c-0.2,0-0.4-0.1-0.5-0.1c-0.2-0.1-0.3-0.1-0.5-0.2l0.2-0.5c0,0,0.1,0,0.1,0.1c0.1,0,0.1,0.1,0.2,0.1c0.1,0,0.2,0.1,0.2,0.1
				c0.1,0,0.2,0,0.3,0.1v-0.7c0,0,0,0-0.1,0s0,0-0.1,0c-0.1,0-0.2-0.1-0.3-0.1s-0.2-0.1-0.2-0.2c-0.1-0.1-0.1-0.1-0.1-0.2
				c0-0.1,0-0.2,0-0.3c0-0.1,0-0.2,0.1-0.4c0-0.1,0.1-0.2,0.2-0.3c0.1-0.1,0.2-0.1,0.3-0.2c0.1,0,0.2-0.1,0.4-0.1v-0.4h0.2v0.4
				c0.2,0,0.3,0,0.5,0.1c0.1,0.1,0.3,0.1,0.4,0.2L29.9,177.4z M28.8,177.4c0,0.1,0,0.2,0.1,0.2c0.1,0,0.2,0.1,0.3,0.1v-0.6
				C28.9,177.1,28.8,177.3,28.8,177.4z M29.7,178.7c0-0.1,0-0.2-0.1-0.2s-0.2-0.1-0.3-0.1v0.6C29.6,179,29.7,178.9,29.7,178.7z"/>
		</g>
		<g>
			<g>
				<path class="st6" d="M32.1,181.4c-0.7,0-1.3,0.6-1.3,1.3c0,0.7,0.6,1.3,1.3,1.3c0.7,0,1.3-0.6,1.3-1.3
					C33.4,182,32.8,181.4,32.1,181.4z M32.1,183.9c-0.7,0-1.2-0.5-1.2-1.2s0.5-1.2,1.2-1.2s1.2,0.5,1.2,1.2S32.7,183.9,32.1,183.9z"
					/>
				<ellipse class="st5" cx="32.1" cy="182.7" rx="1.2" ry="1.2"/>
			</g>
			<path class="st6" d="M32.5,182.4C32.5,182.4,32.4,182.4,32.5,182.4c-0.1,0-0.1-0.1-0.1-0.1c0,0-0.1,0-0.1,0c0,0-0.1,0-0.1,0v0.4
				l0.1,0c0.1,0,0.1,0,0.2,0.1c0.1,0,0.1,0,0.1,0.1c0,0,0.1,0.1,0.1,0.1c0,0,0,0.1,0,0.2c0,0.1,0,0.1,0,0.2c0,0.1-0.1,0.1-0.1,0.1
				c0,0-0.1,0.1-0.2,0.1c-0.1,0-0.1,0-0.2,0v0.2H32v-0.2c-0.1,0-0.2,0-0.3-0.1c-0.1,0-0.2-0.1-0.2-0.1l0.1-0.2c0,0,0,0,0.1,0
				c0,0,0.1,0,0.1,0.1c0,0,0.1,0,0.1,0c0,0,0.1,0,0.1,0v-0.4c0,0,0,0,0,0c0,0,0,0,0,0c-0.1,0-0.1,0-0.2-0.1c-0.1,0-0.1,0-0.1-0.1
				s-0.1-0.1-0.1-0.1c0,0,0-0.1,0-0.1c0-0.1,0-0.1,0-0.2c0-0.1,0.1-0.1,0.1-0.1c0,0,0.1-0.1,0.1-0.1c0.1,0,0.1,0,0.2,0v-0.2h0.1v0.2
				c0.1,0,0.2,0,0.2,0.1c0.1,0,0.1,0.1,0.2,0.1L32.5,182.4z M31.9,182.4c0,0,0,0.1,0,0.1c0,0,0.1,0,0.1,0.1v-0.3
				C31.9,182.2,31.9,182.3,31.9,182.4z M32.3,183.1c0,0,0-0.1-0.1-0.1c0,0-0.1,0-0.2-0.1v0.3C32.3,183.2,32.3,183.2,32.3,183.1z"/>
		</g>
		<g>
			<g>
				<path class="st6" d="M38.9,176.8c-0.6,0-1,0.5-1,1s0.5,1,1,1c0.6,0,1-0.5,1-1S39.5,176.8,38.9,176.8z M38.9,178.8
					c-0.5,0-0.9-0.4-0.9-0.9c0-0.5,0.4-0.9,0.9-0.9c0.5,0,0.9,0.4,0.9,0.9C39.9,178.4,39.4,178.8,38.9,178.8z"/>
				<path class="st5" d="M39.9,177.9c0,0.5-0.4,0.9-0.9,0.9c-0.5,0-0.9-0.4-0.9-0.9c0-0.5,0.4-0.9,0.9-0.9
					C39.4,176.9,39.9,177.4,39.9,177.9z"/>
			</g>
			<path class="st6" d="M39.2,177.6C39.2,177.6,39.2,177.6,39.2,177.6C39.2,177.6,39.2,177.5,39.2,177.6c-0.1-0.1-0.1-0.1-0.2-0.1
				c0,0-0.1,0-0.1,0v0.3l0,0c0.1,0,0.1,0,0.1,0c0,0,0.1,0,0.1,0.1c0,0,0.1,0.1,0.1,0.1s0,0.1,0,0.1c0,0.1,0,0.1,0,0.1
				c0,0,0,0.1-0.1,0.1c0,0-0.1,0-0.1,0.1c0,0-0.1,0-0.1,0v0.2h-0.1v-0.2c-0.1,0-0.1,0-0.2,0c-0.1,0-0.1-0.1-0.2-0.1l0.1-0.2
				c0,0,0,0,0,0c0,0,0,0,0.1,0c0,0,0.1,0,0.1,0c0,0,0.1,0,0.1,0V178c0,0,0,0,0,0c0,0,0,0,0,0c-0.1,0-0.1,0-0.1,0c0,0-0.1,0-0.1-0.1
				c0,0,0,0-0.1-0.1c0,0,0-0.1,0-0.1c0-0.1,0-0.1,0-0.1c0,0,0-0.1,0.1-0.1c0,0,0.1-0.1,0.1-0.1c0,0,0.1,0,0.1,0v-0.2H39v0.2
				c0.1,0,0.1,0,0.2,0c0.1,0,0.1,0,0.2,0.1L39.2,177.6z M38.8,177.6C38.8,177.6,38.8,177.7,38.8,177.6c0.1,0.1,0.1,0.1,0.1,0.1v-0.3
				C38.8,177.5,38.8,177.5,38.8,177.6z M39.1,178.1C39.1,178.1,39.1,178,39.1,178.1C39.1,178,39,178,39,178v0.2
				C39.1,178.2,39.1,178.2,39.1,178.1z"/>
		</g>
		<g>
			<g>
				<path class="st6" d="M34.5,185.3c-0.6,0-1,0.5-1,1c0,0.6,0.5,1,1,1s1-0.5,1-1C35.5,185.7,35.1,185.3,34.5,185.3z M34.5,187.2
					c-0.5,0-0.9-0.4-0.9-0.9c0-0.5,0.4-0.9,0.9-0.9c0.5,0,0.9,0.4,0.9,0.9C35.4,186.8,35,187.2,34.5,187.2z"/>
				<ellipse class="st5" cx="34.5" cy="186.3" rx="0.9" ry="0.9"/>
			</g>
			<path class="st6" d="M34.8,186C34.8,186,34.8,186,34.8,186C34.8,186,34.7,186,34.8,186c-0.1-0.1-0.1-0.1-0.2-0.1c0,0-0.1,0-0.1,0
				v0.3l0,0c0.1,0,0.1,0,0.1,0c0,0,0.1,0,0.1,0.1c0,0,0.1,0.1,0.1,0.1s0,0.1,0,0.1c0,0.1,0,0.1,0,0.1c0,0,0,0.1-0.1,0.1
				c0,0-0.1,0-0.1,0.1c0,0-0.1,0-0.1,0v0.2h-0.1v-0.2c-0.1,0-0.1,0-0.2,0c-0.1,0-0.1-0.1-0.2-0.1l0.1-0.2c0,0,0,0,0,0c0,0,0,0,0.1,0
				c0,0,0.1,0,0.1,0c0,0,0.1,0,0.1,0v-0.3c0,0,0,0,0,0c0,0,0,0,0,0c-0.1,0-0.1,0-0.1,0c0,0-0.1,0-0.1-0.1c0,0,0-0.1-0.1-0.1
				c0,0,0-0.1,0-0.1c0-0.1,0-0.1,0-0.1c0,0,0-0.1,0.1-0.1c0,0,0.1-0.1,0.1-0.1c0,0,0.1,0,0.1,0v-0.2h0.1v0.2c0.1,0,0.1,0,0.2,0
				c0.1,0,0.1,0,0.2,0.1L34.8,186z M34.3,186C34.3,186.1,34.4,186.1,34.3,186c0.1,0.1,0.1,0.1,0.1,0.1v-0.3
				C34.4,185.9,34.3,185.9,34.3,186z M34.7,186.5C34.7,186.5,34.7,186.5,34.7,186.5c-0.1-0.1-0.1-0.1-0.2-0.1v0.2
				C34.7,186.6,34.7,186.6,34.7,186.5z"/>
		</g>
		<g>
			<g>
				<path class="st6" d="M34.2,174.7c-0.4,0-0.7,0.3-0.7,0.7c0,0.4,0.3,0.7,0.7,0.7s0.7-0.3,0.7-0.7C34.9,175,34.6,174.7,34.2,174.7
					z M34.2,176c-0.4,0-0.7-0.3-0.7-0.7c0-0.4,0.3-0.7,0.7-0.7c0.4,0,0.7,0.3,0.7,0.7C34.9,175.7,34.6,176,34.2,176z"/>
				<path class="st5" d="M34.9,175.4c0,0.4-0.3,0.7-0.7,0.7c-0.4,0-0.7-0.3-0.7-0.7c0-0.4,0.3-0.7,0.7-0.7
					C34.6,174.7,34.9,175,34.9,175.4z"/>
			</g>
			<path class="st6" d="M34.4,175.2C34.4,175.2,34.4,175.2,34.4,175.2C34.4,175.2,34.4,175.2,34.4,175.2c-0.1,0-0.1-0.1-0.1-0.1
				c0,0,0,0-0.1,0v0.2l0,0c0,0,0.1,0,0.1,0c0,0,0.1,0,0.1,0c0,0,0,0,0,0.1c0,0,0,0.1,0,0.1c0,0,0,0.1,0,0.1c0,0,0,0.1-0.1,0.1
				c0,0-0.1,0-0.1,0c0,0-0.1,0-0.1,0v0.1h-0.1v-0.1c-0.1,0-0.1,0-0.2,0c0,0-0.1,0-0.1-0.1l0.1-0.1c0,0,0,0,0,0c0,0,0,0,0.1,0
				c0,0,0,0,0.1,0c0,0,0,0,0.1,0v-0.2c0,0,0,0,0,0c0,0,0,0,0,0c0,0-0.1,0-0.1,0c0,0-0.1,0-0.1,0c0,0,0,0,0-0.1c0,0,0,0,0-0.1
				c0,0,0-0.1,0-0.1c0,0,0-0.1,0.1-0.1c0,0,0,0,0.1,0c0,0,0.1,0,0.1,0v-0.1h0.1v0.1c0,0,0.1,0,0.1,0c0,0,0.1,0,0.1,0.1L34.4,175.2z
				 M34.1,175.2C34.1,175.2,34.1,175.2,34.1,175.2c0,0.1,0.1,0.1,0.1,0.1v-0.2C34.1,175.1,34.1,175.1,34.1,175.2z M34.4,175.6
				C34.4,175.5,34.4,175.5,34.4,175.6c-0.1-0.1-0.1-0.1-0.1-0.1v0.2C34.3,175.6,34.4,175.6,34.4,175.6z"/>
		</g>
		<g>
			<g>
				<path class="st6" d="M34.5,178.8c-0.4,0-0.7,0.3-0.7,0.7c0,0.4,0.3,0.7,0.7,0.7s0.7-0.3,0.7-0.7
					C35.2,179.1,34.9,178.8,34.5,178.8z M34.5,180.2c-0.4,0-0.7-0.3-0.7-0.7c0-0.4,0.3-0.7,0.7-0.7c0.4,0,0.7,0.3,0.7,0.7
					C35.2,179.9,34.9,180.2,34.5,180.2z"/>
				<path class="st5" d="M35.2,179.5c0,0.4-0.3,0.7-0.7,0.7c-0.4,0-0.7-0.3-0.7-0.7c0-0.4,0.3-0.7,0.7-0.7
					C34.9,178.9,35.2,179.1,35.2,179.5z"/>
			</g>
			<path class="st6" d="M34.7,179.3C34.7,179.3,34.7,179.3,34.7,179.3C34.7,179.3,34.7,179.3,34.7,179.3c-0.1,0-0.1-0.1-0.1-0.1
				c0,0,0,0-0.1,0v0.2l0,0c0,0,0.1,0,0.1,0c0,0,0.1,0,0.1,0c0,0,0,0,0,0.1s0,0.1,0,0.1c0,0,0,0.1,0,0.1c0,0,0,0.1-0.1,0.1
				c0,0-0.1,0-0.1,0c0,0-0.1,0-0.1,0v0.1h-0.1v-0.1c-0.1,0-0.1,0-0.1,0c0,0-0.1,0-0.1-0.1l0.1-0.1c0,0,0,0,0,0c0,0,0,0,0.1,0
				c0,0,0,0,0.1,0c0,0,0,0,0.1,0v-0.2c0,0,0,0,0,0c0,0,0,0,0,0c0,0-0.1,0-0.1,0c0,0-0.1,0-0.1,0c0,0,0,0,0-0.1c0,0,0,0,0-0.1
				c0,0,0-0.1,0-0.1c0,0,0-0.1,0.1-0.1c0,0,0,0,0.1,0c0,0,0.1,0,0.1,0V179h0.1v0.1c0,0,0.1,0,0.1,0c0,0,0.1,0,0.1,0.1L34.7,179.3z
				 M34.4,179.3C34.4,179.4,34.4,179.4,34.4,179.3c0,0.1,0.1,0.1,0.1,0.1v-0.2C34.4,179.2,34.4,179.3,34.4,179.3z M34.7,179.7
				C34.7,179.7,34.6,179.6,34.7,179.7c-0.1-0.1-0.1-0.1-0.1-0.1v0.2C34.6,179.8,34.7,179.7,34.7,179.7z"/>
		</g>
		<g>
			<g>
				<path class="st6" d="M39.5,171.1c-0.8,0-1.4,0.6-1.4,1.4c0,0.8,0.6,1.4,1.4,1.4c0.8,0,1.4-0.6,1.4-1.4
					C40.9,171.7,40.3,171.1,39.5,171.1z M39.5,173.8c-0.7,0-1.3-0.6-1.3-1.3c0-0.7,0.6-1.3,1.3-1.3c0.7,0,1.3,0.6,1.3,1.3
					C40.7,173.2,40.2,173.8,39.5,173.8z"/>
				<ellipse class="st5" cx="39.5" cy="172.5" rx="1.3" ry="1.3"/>
			</g>
			<path class="st6" d="M39.9,172.1C39.9,172.1,39.9,172.1,39.9,172.1c-0.1-0.1-0.1-0.1-0.1-0.1c0,0-0.1,0-0.1,0c0,0-0.1,0-0.1,0
				v0.4l0.1,0c0.1,0,0.1,0,0.2,0.1c0.1,0,0.1,0.1,0.2,0.1c0,0,0.1,0.1,0.1,0.1c0,0,0,0.1,0,0.2c0,0.1,0,0.1,0,0.2
				c0,0.1-0.1,0.1-0.1,0.1c0,0-0.1,0.1-0.2,0.1c-0.1,0-0.1,0-0.2,0v0.2h-0.1v-0.2c-0.1,0-0.2,0-0.3-0.1c-0.1,0-0.2-0.1-0.3-0.1
				l0.1-0.3c0,0,0,0,0.1,0c0,0,0.1,0,0.1,0.1c0,0,0.1,0,0.1,0.1c0,0,0.1,0,0.1,0v-0.4c0,0,0,0,0,0c0,0,0,0,0,0c-0.1,0-0.1,0-0.2-0.1
				c-0.1,0-0.1-0.1-0.1-0.1c0,0-0.1-0.1-0.1-0.1c0,0,0-0.1,0-0.2c0-0.1,0-0.1,0-0.2c0-0.1,0.1-0.1,0.1-0.1c0,0,0.1-0.1,0.2-0.1
				c0.1,0,0.1,0,0.2,0v-0.2h0.1v0.2c0.1,0,0.2,0,0.3,0.1c0.1,0,0.1,0.1,0.2,0.1L39.9,172.1z M39.2,172.2c0,0,0,0.1,0.1,0.1
				c0,0,0.1,0,0.2,0.1V172C39.3,172,39.2,172.1,39.2,172.2z M39.8,172.9c0,0,0-0.1-0.1-0.1c0,0-0.1-0.1-0.2-0.1v0.3
				C39.7,173,39.8,173,39.8,172.9z"/>
		</g>
	</g>
</g>
</svg>
