<?xml version="1.0" encoding="utf-8"?>
<!-- Generator: Adobe Illustrator 23.0.3, SVG Export Plug-In . SVG Version: 6.00 Build 0)  -->
<svg version="1.1" id="Layer_1" xmlns="http://www.w3.org/2000/svg" xmlns:xlink="http://www.w3.org/1999/xlink" x="0px" y="0px"
	 viewBox="0 0 280 318" style="enable-background:new 0 0 280 318;" xml:space="preserve">
<style type="text/css">
	.st0{opacity:0.25;fill:#808080;}
	.st1{fill:#0C560C;}
	.st2{fill:#FFFFFF;}
	.st3{fill:#9EB3DE;}
	.st4{fill:#F1A90F;}
	.st5{fill:#F1CE53;}
	.st6{fill:#FEBC30;}
	.st7{fill:#FFCD0D;}
	.st8{fill:#003000;}
	.st9{fill:#A2A4A5;}
	.st10{fill:#FDC3BB;}
	.st11{fill:url(#SVGID_1_);}
	.st12{fill:#7A6B5E;}
	.st13{fill:#998675;}
	.st14{fill:#FDFFAB;}
	.st15{fill:#799BDB;}
	.st16{fill:#3B5B6F;}
	.st17{opacity:0.2;}
	.st18{opacity:0.55;fill:#FFFFFF;}
</style>
<g>
	<g>
		<path class="st0" d="M272.3,286.9H69.3c-4.3,0-7.7-3.5-7.7-7.7l0,0c0-4.3,3.5-7.7,7.7-7.7h202.9c4.3,0,7.7,3.5,7.7,7.7l0,0
			C280,283.4,276.5,286.9,272.3,286.9z"/>
		
			<rect x="46.7" y="54.7" transform="matrix(-1.836970e-16 1 -1 -1.836970e-16 325.8581 -24.663)" class="st1" width="257.2" height="191.8"/>
		
			<rect x="38.5" y="54.7" transform="matrix(-1.836970e-16 1 -1 -1.836970e-16 317.6545 -16.4595)" class="st1" width="257.2" height="191.8"/>
		<rect x="81.3" y="34.3" class="st2" width="171.6" height="232.7"/>
		<g>
			<g>
				<g>
					<path class="st1" d="M99,105.5v54.9h136.2v-54.9H99z M120.9,158.9h-20.4v-11.4h20.4V158.9z M120.9,145.9h-20.4v-12.2h20.4
						V145.9z M120.9,132.2h-20.4V120h20.4V132.2z M120.9,118.5h-20.4v-11.4h20.4V118.5z M143.6,158.9h-21.2v-11.4h21.2V158.9z
						 M143.6,145.9h-21.2v-12.2h21.2V145.9z M143.6,132.2h-21.2V120h21.2V132.2z M143.6,118.5h-21.2v-11.4h21.2V118.5z M166.3,158.9
						h-21.2v-11.4h21.2V158.9z M166.3,145.9h-21.2v-12.2h21.2V145.9z M166.3,132.2h-21.2V120h21.2V132.2z M166.3,118.5h-21.2v-11.4
						h21.2V118.5z M189,158.9h-21.2v-11.4H189V158.9z M189,145.9h-21.2v-12.2H189V145.9z M189,132.2h-21.2V120H189V132.2z
						 M189,118.5h-21.2v-11.4H189V118.5z M211.7,158.9h-21.2v-11.4h21.2V158.9z M211.7,145.9h-21.2v-12.2h21.2V145.9z M211.7,132.2
						h-21.2V120h21.2V132.2z M211.7,118.5h-21.2v-11.4h21.2V118.5z M233.6,158.9h-20.4v-11.4h20.4V158.9z M233.6,145.9h-20.4v-12.2
						h20.4V145.9z M233.6,132.2h-20.4V120h20.4V132.2z M233.6,118.5h-20.4v-11.4h20.4V118.5z"/>
				</g>
			</g>
			<g>
				<g>
					<path class="st1" d="M99,195.8v54.9h136.2v-54.9H99z M145.1,197.3h21.2v11.4h-21.2V197.3z M145.1,210.3h21.2v12.2h-21.2V210.3z
						 M145.1,224h21.2v12.2h-21.2V224z M120.9,249.1h-20.4v-11.4h20.4V249.1z M120.9,236.2h-20.4V224h20.4V236.2z M120.9,222.5
						h-20.4v-12.2h20.4V222.5z M120.9,208.7h-20.4v-11.4h20.4V208.7z M143.6,249.1h-21.2v-11.4h21.2V249.1z M143.6,236.2h-21.2V224
						h21.2V236.2z M143.6,222.5h-21.2v-12.2h21.2V222.5z M143.6,208.7h-21.2v-11.4h21.2V208.7z M145.1,237.7h21.2v11.4h-21.2V237.7z
						 M189,249.1h-21.2v-11.4H189V249.1z M189,236.2h-21.2V224H189V236.2z M189,222.5h-21.2v-12.2H189V222.5z M189,208.7h-21.2
						v-11.4H189V208.7z M211.7,249.1h-21.2v-11.4h21.2V249.1z M211.7,236.2h-21.2V224h21.2V236.2z M211.7,222.5h-21.2v-12.2h21.2
						V222.5z M211.7,208.7h-21.2v-11.4h21.2V208.7z M233.6,249.1h-20.4v-11.4h20.4V249.1z M233.6,236.2h-20.4V224h20.4V236.2z
						 M233.6,222.5h-20.4v-12.2h20.4V222.5z M233.6,208.7h-20.4v-11.4h20.4V208.7z"/>
				</g>
			</g>
			<rect x="99" y="77.9" class="st3" width="136.2" height="6.1"/>
			<rect x="99" y="64" class="st3" width="136.2" height="6.1"/>
			<rect x="99" y="91.7" class="st3" width="136.2" height="6.1"/>
			<rect x="99" y="168.1" class="st3" width="64.2" height="6.1"/>
			<rect x="170.9" y="168.1" class="st3" width="64.2" height="6.1"/>
			<rect x="99" y="181.9" class="st3" width="64.2" height="6.1"/>
			<rect x="170.9" y="181.9" class="st3" width="64.2" height="6.1"/>
		</g>
		<g>
			<g>
				<path class="st4" d="M198.4,0H192v20.8h18.2v-8.9C210.3,5.3,205,0,198.4,0z"/>
				<path class="st5" d="M192,16.7V44h14.5c8.6,0,15.7-7,15.7-15.6V16.7H192z"/>
			</g>
			<path class="st6" d="M193.3,0h-52.4c-6.6,0-11.9,5.3-11.9,11.9v8.9h76.3v-8.9C205.2,5.3,199.9,0,193.3,0z M167.1,11.1
				c-2.1,0-3.8-1.7-3.8-3.7s1.7-3.7,3.8-3.7c2.1,0,3.8,1.7,3.8,3.7S169.1,11.1,167.1,11.1z"/>
			<path class="st7" d="M209.2,44h-84.3c-4.4,0-7.9-3.6-7.9-7.9V16.7h100.2v19.3C217.1,40.5,213.6,44,209.2,44z"/>
		</g>
	</g>
	<g>
		<path class="st0" d="M104.1,305.8c0,6.7-23.3,12.2-52.1,12.2C23.3,318,0,312.5,0,305.8c0-6.7,23.3-12.2,52.1-12.2
			C80.8,293.6,104.1,299.1,104.1,305.8z"/>
		<g>
			<path class="st8" d="M81.4,298.5l10.7,4.4c0.7,0.3,1.2,1.1,1,1.9c0,0.1-0.1,0.2-0.1,0.3l-6.8-0.3l-6.1-0.3l-5.7-0.2
				c0,0-1-0.5-0.8-2.3c0.2-1.8,1.2-2.5,2.2-3C77.7,297.8,81.4,298.5,81.4,298.5z"/>
			<path class="st8" d="M34.4,301.5c0,3.9,2.3,7.7,5.1,7.7c1.6,0,2.2-5.5,2.2-9.4c0-3.9-2.1-4.8-3.7-4.8
				C36.3,295,34.4,297.6,34.4,301.5z"/>
			<path class="st9" d="M65,207.7l-32.7,0.3v-11.6c0-3,3.5-2.2,6.5-2.2H59c3,0,2.8-2.5,2.8,0.5L65,207.7z"/>
			<polygon class="st9" points="32.9,301.7 43.6,302 48,208.1 32.4,199.3 			"/>
			<polygon class="st9" points="73.4,299.9 85.1,300 77.9,250.8 62.9,198.2 49.4,206 67.7,253.2 			"/>
		</g>
		<g>
			<g>
				<path class="st10" d="M117.7,123.8l-3.7,5.1c-1.3,1.3-3.5,1.4-4.8,0.2l-0.2-0.2c-1.3-1.2-1.4-3.3,0-4.6l5-3.8
					c1.3-1.3,2.7-1.9,4-0.7l0.2,0.2C119.4,121.2,119,122.4,117.7,123.8z"/>
				<path class="st6" d="M85.8,157.2l-25.6-6.6c-2.7-1.3-1.8-9-1-13.2c0.6-2.8,2-3.6,4.7-2.3l24.4,11.3l21.9-9.5
					c2.7-1.3,4.6-0.6,6,2c1.4,2.5,1.1,4.5-1.6,5.9l-23.9,12C89.4,157.5,88,157.6,85.8,157.2z"/>
			</g>
		</g>
		<path class="st7" d="M57.7,133.2l-5.2,5.2l-8.5-5.2l-19.1,10.2c0,3.4,4.1,16.4,9,32.9c2.6,8.6-5.2,19.5-1.6,22
			c3.4,2.4,22.9,0.9,30-0.9c2.3-0.6-0.1-6-0.9-9.4c-1.3-5.6-0.6-16.2,0.5-21.4c2.7-12.5,5.1-22,2-31.6L57.7,133.2z"/>
		
			<linearGradient id="SVGID_1_" gradientUnits="userSpaceOnUse" x1="628.7853" y1="121.2137" x2="628.0815" y2="144.0846" gradientTransform="matrix(1 0 0 1 -577.5086 0)">
			<stop  offset="0" style="stop-color:#C79993"/>
			<stop  offset="0.2211" style="stop-color:#D7A59F"/>
			<stop  offset="0.6154" style="stop-color:#FDC3BB"/>
		</linearGradient>
		<path class="st11" d="M54.7,139.2c2.4,0,3-3.1,3-6l0.7-18.1c0-2.9-1.9-5.2-4.3-5.2h-6.6c-2.4,0-2.7,2-2.7,4.9L44,133.2
			C44,137.4,51.4,139.2,54.7,139.2z"/>
		<path class="st10" d="M61.8,125.9c2.3-1,2.6-3.7,1.4-6.3l-4.8-18c-1.2-2.6-5.9-2.8-8.2-1.8l-6.5,2.9c-2.3,1-3.3,4-2.1,6.6
			l8.1,16.3C50.9,128.2,61.8,125.9,61.8,125.9z"/>
		<path class="st12" d="M58.7,95c-1.1-2.8-3.5-5.2-5.7-5.5c-0.9,0-1.2,0.7-1.9,1.8c-3.2-1.1-4.8,0.6-6.8,2.1
			c-6.8,1.7-12.2,6.1-10.1,12.8c-0.2,1.9,8.1,18.9,10.2,18.5c1.6-0.3-0.6-5.5,1.2-7.8l2.9,0.4c-0.2-1.5-4.2-3.2-2.9-7.4
			c0.2-0.8-0.4-2.7-0.8-3.7c0.4-0.4,2.5-1.9,3.2-2.3c2.8-1.4,2.8-0.8,4.1-1.7c2.8-0.6,5.9-0.6,6.6-2.1C60.5,98.6,60.9,96.7,58.7,95z
			"/>
		<path class="st13" d="M57.7,88.1c-1.7-0.8-1.9,5.3-13,9.9c-5.7,2.3-3,13.1,0.9,15c1.7,0.8-2.6-9,9.3-10.1
			C68.1,101.6,61.6,90,57.7,88.1z"/>
		<path class="st10" d="M43.2,116.6c0.8,1.3,2,2,2.8,1.6c0.7-0.4,0.7-1.9-0.1-3.2c-0.8-1.3-2-2-2.8-1.6
			C42.4,113.8,42.4,115.3,43.2,116.6z"/>
		<g>
			<g>
				<polygon class="st14" points="25.1,306.5 24.9,306.4 24.9,306.4 				"/>
				<path class="st1" d="M119.7,128c-0.2,0.5-0.4,1-0.7,1.5c-0.2,0.4-0.4,0.9-0.6,1.3c-0.1,0.3-0.2,0.5-0.4,0.8
					c-0.1,0.2-0.2,0.5-0.3,0.7c-0.8,1.7-1.6,3.5-2.5,5.4c-0.9,2-1.9,4.1-3,6.3c-0.9,1.9-1.9,3.9-3,6c-1,2-2,4.1-3.1,6.2
					c-6,11.9-13.2,25.7-21.9,41.5c-32.6,59.8-62.1,106.5-66,104.4c-3.8-2.1,19.5-52.2,52-112c8.6-15.8,16.3-29.4,23.1-40.9
					c1.2-2.1,2.4-4.1,3.6-6c1.2-2,2.4-3.9,3.5-5.7c1.3-2.1,2.5-4,3.7-5.9c1.1-1.8,2.2-3.4,3.2-5c0.2-0.2,0.3-0.5,0.4-0.7
					c0.2-0.2,0.3-0.5,0.5-0.7c0.3-0.4,0.5-0.8,0.8-1.2c0.3-0.5,0.6-0.9,0.9-1.4L119.7,128z"/>
				<g>
					<path class="st15" d="M127.4,103.4l-1.5,2.8l-0.7-0.4l1.5-2.8c0.1-0.2,0.4-0.3,0.6-0.2C127.4,102.9,127.5,103.1,127.4,103.4z"
						/>
					<path class="st16" d="M126.5,104.1c-1.7-0.9-6.8,4.4-14.8,16.2l9.2,5C126.4,112.2,128.2,105,126.5,104.1z"/>
					<path class="st1" d="M120.9,125.3c-0.2,0.5-0.4,1-0.6,1.5c-0.2,0.4-0.4,0.8-0.6,1.3l-9.6-5.2c0.3-0.4,0.5-0.8,0.8-1.2
						c0.3-0.4,0.6-0.9,0.9-1.3L120.9,125.3z"/>
					<path class="st6" d="M27.8,300.1l-12.6-6.8c-0.4,1.3-0.7,2.6-1,3.9c-0.4,1.5-0.6,3-0.9,4.4c-0.6,4.1-0.5,7.3,1.1,8.1
						s4.3-0.8,7.4-3.5c1.1-0.9,2.2-2,3.3-3.1C26,302.2,26.9,301.2,27.8,300.1z"/>
					<path class="st16" d="M21.8,306.2l-8.5-4.6c-0.6,4.1-0.5,7.3,1.1,8.1S18.7,308.9,21.8,306.2z"/>
					<path class="st16" d="M16.3,289.8c-0.3,1.1-0.7,2.3-1,3.5l12.6,6.8c0.8-0.9,1.6-1.9,2.4-2.8L16.3,289.8z"/>
					<path class="st16" d="M57.4,250l-26.5,48.6c0,0,0,0,0,0c-1.1,2.1-3.8,2.8-6,1.7l-2.3-1.2l-0.6-0.3l-0.5-0.3l-5.1-2.8
						c-2.1-1.2-3-3.8-1.8-5.9c0,0,0,0,0,0l26.5-48.6l9,4.9L57.4,250z"/>
				</g>
				<polygon class="st6" points="60.8,247.4 41.6,236.9 39.7,240.3 58.9,250.8 				"/>
				<path class="st6" d="M120.2,126.7c0.2-0.5,0.4-1,0.6-1.4l-9.2-5c-0.3,0.4-0.6,0.9-0.9,1.3L120.2,126.7z"/>
			</g>
			<g>
				<g class="st17">
					<path class="st0" d="M117.1,123.3l9.9-18.1c0.4,2.5-1.6,9.3-6.2,20.1L117.1,123.3z"/>
					<path class="st0" d="M120.9,125.3c-0.2,0.5-0.4,1-0.6,1.5c-0.2,0.4-0.4,0.8-0.6,1.3c-0.2,0.5-0.4,1-0.7,1.5
						c-0.2,0.4-0.4,0.9-0.6,1.3c-0.1,0.3-0.2,0.5-0.4,0.8c-0.1,0.2-0.2,0.5-0.3,0.7c-0.8,1.7-1.6,3.5-2.5,5.4c-0.9,2-1.9,4.1-3,6.3
						c-0.9,1.9-1.9,3.9-3,6c-1,2-2,4.1-3.1,6.2c-6,11.9-13.2,25.7-21.9,41.5c-9.4,17.3-18.6,33.5-26.9,47.7l3.4,1.9l-1.9,3.4
						l-1.5-0.8l-26.5,48.6c0,0,0,0,0,0c-0.7,1.4-2.2,2.2-3.7,2.2c-0.7,0.8-1.4,1.6-2.2,2.3c-1.1,1.1-2.2,2.2-3.3,3.1
						c-2.5,2.2-4.8,3.7-6.4,3.7l6.3-11.5c0,0-0.1,0-0.1,0v0L50.2,246l67-122.8L120.9,125.3z"/>
				</g>
			</g>
			<g>
				<path class="st18" d="M48.7,239.2c-0.2,0-0.5-0.1-0.7-0.2c-0.7-0.4-1-1.3-0.6-2l60.2-108.8c0.4-0.7,1.3-1,2-0.6
					c0.7,0.4,1,1.3,0.6,2L50,238.4C49.7,238.9,49.2,239.2,48.7,239.2z"/>
				<path class="st18" d="M18,293.8c-0.2,0-0.5-0.1-0.7-0.2c-0.7-0.4-1-1.3-0.6-2l26-45.9c0.4-0.7,1.3-1,2-0.6c0.7,0.4,1,1.3,0.6,2
					l-26,45.9C19,293.5,18.5,293.8,18,293.8z"/>
			</g>
		</g>
		<g>
			<g>
				<path class="st10" d="M78.1,191.8l-2.9-1.5c-2-0.4-4,0.8-4.4,2.8l-0.1,0.3c-0.4,2,0.8,4,2.8,4.4l4.3,0.9c2,0.4,5.7,0.5,6.1-1.5
					C83.9,197.4,80.1,192.3,78.1,191.8z"/>
				<path class="st10" d="M73,190.6l-6.2-2.1c-7.1-2.4-9.6,4.1-6.1,5.5c8.8,0.9,11.7,2.6,12.5,0.5C73.9,192.7,73.5,191,73,190.6z"/>
			</g>
			<path class="st6" d="M62,195.4l-28.6-5.3c-1.1-0.5-2-1.4-2.5-2.6l-5.9-25c-1.2-2.6-5.7-16.3-0.1-19.2c2.6-1.3,12.8-0.2,12.7,13
				l2,25.2l25.5,6.1c2.6,1.2,3,0.4,2,5.3C66.5,195.8,65.6,196,62,195.4z"/>
			<path class="st10" d="M78.3,192.5c-0.1,0.7-3.8,2.4-4.6,2.2c-3.2-1.1-1.6-5.7,1.3-5.6c3.6,0.9,7.9,1.7,7.9,2.7
				C82.9,193.2,78.6,191.1,78.3,192.5z"/>
		</g>
		<path class="st10" d="M115.7,142.4l-4.1,0.7c-1.7,0.5-3.1-0.6-3.6-2.3l0,0c-0.5-1.7,0.5-3.5,2.2-4l4.7-1.4
			c1.7-0.5,2.7-0.4,3.2,1.3l0.1,2.4C118,141.5,117.4,141.9,115.7,142.4z"/>
	</g>
</g>
</svg>
