<?xml version="1.0" encoding="utf-8"?>
<!-- Generator: Adobe Illustrator 23.0.3, SVG Export Plug-In . SVG Version: 6.00 Build 0)  -->
<svg version="1.1" id="Layer_1" xmlns="http://www.w3.org/2000/svg" xmlns:xlink="http://www.w3.org/1999/xlink" x="0px" y="0px"
	 viewBox="0 0 385 237" style="enable-background:new 0 0 385 237;" xml:space="preserve">
<style type="text/css">
	.st0{opacity:0.25;fill:#808080;}
	.st1{fill:#0C560C;}
	.st2{fill:#FFFFFF;}
	.st3{fill:#FFCD0D;}
	.st4{opacity:0.6;fill:#FFFFFF;}
	.st5{fill:#B1BDC5;}
	.st6{fill:#7A6B5E;}
	.st7{fill:#3B5B6F;}
	.st8{fill:#D8DEE2;}
	.st9{fill:#304774;}
	.st10{fill:#E0F7FA;}
	.st11{fill:#96E1DF;}
	.st12{fill:#1D3461;}
	.st13{fill:#385780;}
	.st14{opacity:0.4;fill:#0C560C;}
	.st15{fill:#FEBC30;}
	.st16{fill:#FDC3BB;}
	.st17{fill:#003000;}
	.st18{fill:#627C8C;}
	.st19{fill:#8A9DA9;}
	.st20{fill:url(#SVGID_1_);}
	.st21{fill:#4D4691;}
	.st22{fill:#393185;}
	.st23{fill:#5E81C3;}
	.st24{fill:#39537A;}
	.st25{fill:url(#SVGID_2_);}
	.st26{fill:#F2B5AC;}
</style>
<g>
	<g>
		<path class="st0" d="M374.1,186.5H12.6c-6,0-10.9,4.9-10.9,10.9l0,0c0,6,4.9,10.9,10.9,10.9h361.5c6,0,10.9-4.9,10.9-10.9l0,0
			C385,191.3,380.1,186.5,374.1,186.5z"/>
		<g>
			<g>
				<path class="st1" d="M379.8,147.3L379.8,147.3c1.9,0,3.4-1.5,3.4-3.4v-2.5c0-1.9-1.5-3.4-3.4-3.4l0,0c-1.9,0-3.4,1.5-3.4,3.4
					v2.5C376.4,145.8,377.9,147.3,379.8,147.3z"/>
				<path class="st2" d="M374.9,149.4h3c1.1,0,1.9-0.9,1.9-1.9v-9.8c0-1.1-0.9-1.9-1.9-1.9h-3c-1.1,0-1.9,0.9-1.9,1.9v9.8
					C373,148.6,373.8,149.4,374.9,149.4z"/>
			</g>
			<g>
				<path class="st3" d="M4.4,148.6L4.4,148.6c-2.4,0-4.4-2-4.4-4.4v-8.5c0-2.4,2-4.4,4.4-4.4l0,0c2.4,0,4.4,2,4.4,4.4v8.5
					C8.7,146.6,6.8,148.6,4.4,148.6z"/>
				<path class="st2" d="M13.1,152.3H8.2c-2.1,0-3.8-1.7-3.8-3.8v-17.1c0-2.1,1.7-3.8,3.8-3.8h4.9V152.3z"/>
			</g>
			<path class="st1" d="M375.8,124.3v42H10.9v-38.7c0-22.6,18.3-24.4,40.9-24.4h302.9C366.3,103.2,375.8,112.7,375.8,124.3z"/>
			<path class="st4" d="M17.8,146.4c-0.9,0-1.6-0.7-1.6-1.6v-11.7c0-24,19.2-26,42.5-26h299.3c0.9,0,1.6,0.7,1.6,1.6
				c0,0.9-0.7,1.6-1.6,1.6H58.7c-22.3,0-39.3,1.7-39.3,22.8v11.7C19.4,145.7,18.7,146.4,17.8,146.4z"/>
			<g>
				<g>
					<g>
						<path class="st1" d="M331.4,156.1H120.5V59c0-19.2,15.6-34.8,34.8-34.8h124.9c28.3,0,51.3,23,51.3,51.3V156.1z"/>
					</g>
					<g>
						<path class="st1" d="M232.5,152.9V29.5H260c36.5,0,66.1,29.7,66.1,66.2v16.7l-1.3-0.4c-4.9-1.4-10-2.1-15.2-2.1
							c-25.6,0-47.8,17.4-54,42.3l-0.2,0.8H232.5z"/>
					</g>
					<g>
						<path class="st1" d="M233.2,29.5v123.4h-88.6c-2.3-14-9.1-26.6-18.8-36.1V72.7c0-23.8,19.4-43.2,43.1-43.2H233.2z"/>
					</g>
					<g>
						<g>
							<g>
								<path class="st1" d="M325.1,95.7c0-35.9-29.2-65.2-65.1-65.2h-26.5v71.6h91.6V95.7z"/>
							</g>
							<g>
								<path class="st1" d="M233.5,102.1v49.7h21c6.1-24.7,28.4-43.1,55-43.1c5.4,0,10.6,0.8,15.5,2.1v-8.8H233.5z"/>
							</g>
							<g>
								<path class="st1" d="M168.9,30.5c-23.2,0-42.1,18.9-42.1,42.2v29.4h105.3V30.5H168.9z"/>
							</g>
							<g>
								<path class="st1" d="M126.8,116.4c9.8,9.7,16.2,21.9,18.7,35.5h86.6v-49.7H126.8V116.4z"/>
							</g>
						</g>
					</g>
				</g>
			</g>
			<rect x="10.9" y="137.9" class="st1" width="364.9" height="28.4"/>
			<g>
				<rect x="3.4" y="156.1" class="st2" width="379.8" height="5.7"/>
				<path class="st5" d="M383.3,158.9c0,0.7-0.6,1.2-1.3,1.2H3.4v-2.5H382C382.7,157.7,383.3,158.3,383.3,158.9z"/>
			</g>
			<g>
				<g>
					<path class="st1" d="M79.7,113.8C49.6,113.8,26,139.3,28,169c0.2,2.9,2.6,5.1,5.5,5.1l0,0c3.2,0,5.6-2.7,5.4-5.9
						C37.4,145.5,55,126,77.3,124.8c25-1.4,44.7,19.5,43.1,43.4c-0.2,3.2,2.3,5.8,5.4,5.8h0c2.9,0,5.3-2.2,5.5-5.1
						C133.3,139.3,109.7,113.8,79.7,113.8z"/>
					<path class="st6" d="M120.4,167.8c0-0.7,0.1-1.5,0.1-2.2c0-22.6-18.3-40.9-40.8-40.9S38.9,143,38.9,165.6c0,0.7,0,1.5,0.1,2.2
						H120.4z"/>
				</g>
				<ellipse class="st7" cx="79.7" cy="165.6" rx="38" ry="38"/>
				<ellipse class="st8" cx="79.7" cy="165.6" rx="25.3" ry="25.3"/>
				<ellipse class="st7" cx="79.7" cy="165.6" rx="20.8" ry="20.8"/>
				<ellipse class="st2" cx="79.7" cy="165.6" rx="11" ry="11"/>
				<path class="st9" d="M87.2,165.6c0,4.2-3.4,7.6-7.6,7.6s-7.6-3.4-7.6-7.6c0-4.2,3.4-7.6,7.6-7.6S87.2,161.4,87.2,165.6z"/>
				<g>
					<g>
						<g>
							<path class="st6" d="M97.1,169.9c-0.5-0.1-0.9-0.4-1.1-0.8c-0.2-0.4-0.4-0.8-0.3-1.2c0-0.2,0.1-0.4,0.2-0.6
								c0.1-0.2,0.2-0.4,0.4-0.5c0.3-0.3,0.8-0.5,1.3-0.4c0.5,0,0.9,0.2,1.2,0.6c0.2,0.2,0.3,0.4,0.3,0.7c0.1,0.2,0.1,0.5,0,0.8
								c-0.1,0.5-0.3,1-0.7,1.3C98.1,169.9,97.6,170,97.1,169.9z"/>
						</g>
						<g>
							<path class="st6" d="M95.6,174c-0.9-0.5-1.2-1.5-0.9-2.3c0.2-0.4,0.5-0.7,0.9-0.9c0.4-0.2,0.9-0.3,1.3-0.1
								c0.5,0.1,0.9,0.5,1,0.9c0.2,0.4,0.2,1,0,1.5C97.6,174,96.4,174.4,95.6,174z"/>
						</g>
						<g>
							<path class="st6" d="M93.1,177.5c-0.4-0.3-0.6-0.8-0.6-1.2c0-0.4,0-0.9,0.3-1.3c0.3-0.4,0.7-0.6,1.1-0.7
								c0.4-0.1,0.9,0,1.3,0.2c0.4,0.2,0.7,0.6,0.8,1.1c0.1,0.5,0,1-0.3,1.4c-0.3,0.4-0.8,0.7-1.3,0.8C94,178,93.5,177.9,93.1,177.5
								z"/>
						</g>
						<g>
							<path class="st6" d="M89.9,180.4c-0.6-0.8-0.4-1.9,0.3-2.5c0.3-0.3,0.8-0.4,1.2-0.4c0.5,0,0.9,0.2,1.2,0.5
								c0.4,0.3,0.5,0.8,0.5,1.3c0,0.5-0.3,1-0.7,1.3C91.6,181.4,90.4,181.2,89.9,180.4z"/>
						</g>
						<g>
							<path class="st6" d="M86,182.4c-0.2-0.5-0.1-0.9,0-1.3c0.2-0.4,0.4-0.8,0.8-1c0.4-0.2,0.9-0.2,1.3-0.1
								c0.4,0.1,0.8,0.4,1.1,0.8c0.3,0.4,0.3,0.9,0.2,1.4c-0.1,0.5-0.5,0.9-1,1.1c-0.5,0.2-1,0.3-1.5,0.1
								C86.6,183.2,86.2,182.9,86,182.4z"/>
						</g>
						<g>
							<path class="st6" d="M81.8,183.5c-0.1-1,0.5-1.9,1.4-2c0.4-0.1,0.9,0,1.3,0.2c0.4,0.2,0.7,0.6,0.9,1c0.2,0.5,0.1,1-0.1,1.4
								c-0.2,0.4-0.7,0.7-1.2,0.9C82.9,185.1,81.9,184.4,81.8,183.5z"/>
						</g>
						<g>
							<path class="st6" d="M77.5,183.5c0.1-0.5,0.3-0.9,0.6-1.2c0.3-0.3,0.8-0.5,1.2-0.5c0.9,0,1.7,0.7,1.8,1.7
								c0.1,1-0.7,1.9-1.8,1.8c-0.5,0-1-0.3-1.4-0.6C77.6,184.5,77.4,184,77.5,183.5z"/>
						</g>
						<g>
							<path class="st6" d="M73.3,182.4c0.2-0.5,0.5-0.8,0.9-1c0.2-0.1,0.4-0.2,0.6-0.2c0.2,0,0.4,0,0.7,0c0.8,0.3,1.4,1.1,1.3,2.1
								c-0.1,1-1.2,1.7-2.2,1.3c-0.3-0.1-0.5-0.2-0.7-0.3c-0.2-0.2-0.4-0.4-0.5-0.6C73.2,183.4,73.1,182.9,73.3,182.4z"/>
						</g>
						<g>
							<path class="st6" d="M69.4,180.4c0.6-0.8,1.6-1.1,2.4-0.6c0.8,0.4,1.1,1.4,0.8,2.4c-0.4,0.9-1.5,1.3-2.5,0.8
								C69.2,182.4,68.9,181.2,69.4,180.4z"/>
						</g>
						<g>
							<path class="st6" d="M66.2,177.5c0.4-0.3,0.8-0.5,1.3-0.5c0.2,0,0.4,0,0.6,0.1c0.2,0.1,0.4,0.2,0.6,0.3
								c0.6,0.6,0.8,1.7,0.2,2.5c-0.6,0.8-1.8,0.9-2.6,0.1c-0.2-0.2-0.4-0.4-0.5-0.6c-0.1-0.2-0.1-0.5-0.1-0.7
								C65.6,178.3,65.8,177.9,66.2,177.5z"/>
						</g>
						<g>
							<path class="st6" d="M63.7,174c0.9-0.4,1.9-0.2,2.4,0.6c0.5,0.7,0.3,1.8-0.4,2.4c-0.7,0.6-1.9,0.4-2.6-0.5
								C62.6,175.6,62.8,174.4,63.7,174z"/>
						</g>
						<g>
							<path class="st6" d="M62.2,169.9c0.5-0.1,1,0,1.3,0.2c0.2,0.1,0.4,0.2,0.5,0.4c0.2,0.2,0.3,0.3,0.4,0.6
								c0.3,0.8-0.1,1.8-1,2.3c-0.9,0.4-2,0-2.4-1.1c-0.1-0.3-0.1-0.5-0.1-0.8c0-0.3,0.1-0.5,0.2-0.7
								C61.3,170.3,61.7,170,62.2,169.9z"/>
						</g>
						<g>
							<path class="st6" d="M61.7,165.6c1,0,1.8,0.7,1.9,1.6c0.1,0.9-0.5,1.8-1.5,2c-1,0.2-1.9-0.5-2-1.6
								C59.9,166.5,60.7,165.6,61.7,165.6z"/>
						</g>
						<g>
							<path class="st6" d="M62.2,161.3c0.5,0.1,0.9,0.4,1.1,0.8c0.2,0.4,0.4,0.8,0.3,1.2c0,0.2-0.1,0.4-0.2,0.6
								c-0.1,0.2-0.2,0.4-0.4,0.5c-0.3,0.3-0.8,0.5-1.3,0.4c-0.5,0-0.9-0.2-1.2-0.6c-0.2-0.2-0.3-0.4-0.3-0.7
								c-0.1-0.2-0.1-0.5,0-0.8c0.1-0.5,0.3-1,0.7-1.3C61.2,161.3,61.7,161.2,62.2,161.3z"/>
						</g>
						<g>
							<path class="st6" d="M63.7,157.2c0.9,0.5,1.2,1.5,0.9,2.3c-0.2,0.4-0.5,0.7-0.9,0.9c-0.4,0.2-0.9,0.3-1.3,0.1
								c-0.5-0.1-0.9-0.5-1-0.9c-0.2-0.4-0.2-1,0-1.5C61.7,157.2,62.9,156.7,63.7,157.2z"/>
						</g>
						<g>
							<path class="st6" d="M66.2,153.6c0.4,0.3,0.6,0.8,0.6,1.2c0,0.4,0,0.9-0.3,1.3c-0.3,0.4-0.7,0.6-1.1,0.7
								c-0.4,0.1-0.9,0-1.3-0.2c-0.4-0.2-0.7-0.6-0.8-1.1c-0.1-0.5,0-1,0.3-1.4c0.3-0.4,0.8-0.7,1.3-0.8
								C65.4,153.2,65.8,153.3,66.2,153.6z"/>
						</g>
						<g>
							<path class="st6" d="M69.4,150.8c0.6,0.8,0.4,1.9-0.3,2.5c-0.3,0.3-0.8,0.4-1.2,0.4c-0.5,0-0.9-0.2-1.2-0.5
								c-0.3-0.3-0.5-0.8-0.5-1.3c0-0.5,0.3-1,0.7-1.3C67.7,149.8,68.9,149.9,69.4,150.8z"/>
						</g>
						<g>
							<path class="st6" d="M73.3,148.7c0.2,0.5,0.1,0.9,0,1.3c-0.2,0.4-0.4,0.8-0.8,1c-0.4,0.2-0.9,0.2-1.3,0.1
								c-0.4-0.1-0.8-0.4-1.1-0.8c-0.3-0.4-0.3-0.9-0.2-1.4c0.1-0.5,0.5-0.9,1-1.1c0.5-0.2,1-0.3,1.5-0.1
								C72.8,147.9,73.1,148.3,73.3,148.7z"/>
						</g>
						<g>
							<path class="st6" d="M77.5,147.7c0.1,1-0.5,1.9-1.4,2c-0.4,0.1-0.9,0-1.3-0.2c-0.4-0.2-0.7-0.6-0.9-1c-0.2-0.5-0.1-1,0.1-1.4
								c0.2-0.4,0.7-0.7,1.2-0.9C76.4,146,77.4,146.7,77.5,147.7z"/>
						</g>
						<g>
							<path class="st6" d="M81.8,147.7c-0.1,0.5-0.3,0.9-0.6,1.2c-0.3,0.3-0.8,0.5-1.2,0.5c-0.9,0-1.7-0.7-1.8-1.7
								c-0.1-1,0.7-1.9,1.8-1.8c0.5,0,1,0.3,1.4,0.6C81.7,146.7,81.9,147.2,81.8,147.7z"/>
						</g>
						<g>
							<path class="st6" d="M86,148.7c-0.2,0.5-0.5,0.8-0.9,1c-0.2,0.1-0.4,0.2-0.6,0.2c-0.2,0-0.4,0-0.7,0
								c-0.8-0.3-1.4-1.1-1.3-2.1c0.1-1,1.2-1.7,2.2-1.3c0.3,0.1,0.5,0.2,0.7,0.3c0.2,0.2,0.4,0.4,0.5,0.6
								C86.2,147.8,86.2,148.3,86,148.7z"/>
						</g>
						<g>
							<path class="st6" d="M89.9,150.8c-0.6,0.8-1.6,1.1-2.4,0.6c-0.8-0.4-1.1-1.4-0.8-2.4c0.4-0.9,1.5-1.3,2.5-0.8
								C90.2,148.8,90.5,149.9,89.9,150.8z"/>
						</g>
						<g>
							<path class="st6" d="M93.1,153.6c-0.4,0.3-0.8,0.5-1.3,0.5c-0.2,0-0.4,0-0.6-0.1c-0.2-0.1-0.4-0.2-0.6-0.3
								c-0.6-0.6-0.8-1.7-0.2-2.5c0.6-0.8,1.8-0.9,2.6-0.1c0.2,0.2,0.4,0.4,0.5,0.6c0.1,0.2,0.1,0.5,0.1,0.7
								C93.7,152.9,93.5,153.3,93.1,153.6z"/>
						</g>
						<g>
							<path class="st6" d="M95.6,157.2c-0.9,0.4-1.9,0.2-2.4-0.6c-0.5-0.7-0.3-1.8,0.4-2.4c0.7-0.6,1.9-0.4,2.6,0.5
								C96.7,155.6,96.5,156.8,95.6,157.2z"/>
						</g>
						<g>
							<path class="st6" d="M97.1,161.3c-0.5,0.1-1,0-1.3-0.2c-0.2-0.1-0.4-0.2-0.5-0.4c-0.2-0.2-0.3-0.3-0.4-0.6
								c-0.3-0.8,0.1-1.8,1-2.3c0.9-0.4,2,0,2.4,1.1c0.1,0.3,0.1,0.5,0.1,0.8c0,0.3-0.1,0.5-0.2,0.7C98,160.9,97.6,161.2,97.1,161.3
								z"/>
						</g>
						<g>
							<path class="st6" d="M97.7,165.6c-1,0-1.8-0.7-1.9-1.6c-0.1-0.9,0.5-1.8,1.5-2c1-0.2,1.9,0.5,2,1.6
								C99.4,164.7,98.6,165.6,97.7,165.6z"/>
						</g>
					</g>
				</g>
				<path class="st4" d="M33.6,168.8c-1.8,0-3.2-1.4-3.2-3.2c0-27.2,22.1-49.3,49.3-49.3c1.8,0,3.2,1.4,3.2,3.2
					c0,1.8-1.4,3.2-3.2,3.2c-23.7,0-42.9,19.3-42.9,43C36.7,167.3,35.3,168.8,33.6,168.8z"/>
			</g>
			<g>
				<g>
					<path class="st1" d="M309.6,113.8c-30.1,0-53.6,25.6-51.6,55.2c0.2,2.9,2.6,5.1,5.5,5.1l0,0c3.2,0,5.6-2.7,5.4-5.9
						c-1.5-22.7,16.1-42.2,38.4-43.4c25-1.4,44.7,19.5,43.1,43.4c-0.2,3.2,2.3,5.8,5.4,5.8h0c2.9,0,5.3-2.2,5.5-5.1
						C363.2,139.3,339.7,113.8,309.6,113.8z"/>
					<path class="st6" d="M350.3,167.8c0-0.7,0.1-1.5,0.1-2.2c0-22.6-18.3-40.9-40.8-40.9c-22.5,0-40.8,18.3-40.8,40.9
						c0,0.7,0,1.5,0.1,2.2H350.3z"/>
				</g>
				<ellipse class="st7" cx="309.6" cy="165.6" rx="38" ry="38"/>
				<ellipse class="st8" cx="309.6" cy="165.6" rx="25.3" ry="25.3"/>
				<ellipse class="st7" cx="309.6" cy="165.6" rx="20.8" ry="20.8"/>
				<ellipse class="st2" cx="309.6" cy="165.6" rx="11" ry="11"/>
				<ellipse class="st9" cx="309.6" cy="165.6" rx="7.6" ry="7.6"/>
				<g>
					<g>
						<g>
							<path class="st6" d="M327.1,169.9c-0.5-0.1-0.9-0.4-1.1-0.8c-0.2-0.4-0.4-0.8-0.3-1.2c0-0.2,0.1-0.4,0.2-0.6
								c0.1-0.2,0.2-0.4,0.4-0.5c0.3-0.3,0.8-0.5,1.3-0.4c0.5,0,0.9,0.2,1.2,0.6c0.2,0.2,0.3,0.4,0.3,0.7c0.1,0.2,0.1,0.5,0,0.8
								c-0.1,0.5-0.3,1-0.7,1.3C328,169.9,327.5,170,327.1,169.9z"/>
						</g>
						<g>
							<path class="st6" d="M325.5,174c-0.9-0.5-1.2-1.5-0.9-2.3c0.2-0.4,0.5-0.7,0.9-0.9c0.4-0.2,0.9-0.3,1.3-0.1
								c0.5,0.1,0.9,0.5,1,0.9c0.2,0.4,0.2,1,0,1.5C327.5,174,326.4,174.4,325.5,174z"/>
						</g>
						<g>
							<path class="st6" d="M323.1,177.5c-0.4-0.3-0.6-0.8-0.6-1.2c0-0.4,0-0.9,0.3-1.3c0.3-0.4,0.7-0.6,1.1-0.7
								c0.4-0.1,0.9,0,1.3,0.2c0.4,0.2,0.7,0.6,0.8,1.1c0.1,0.5,0,1-0.3,1.4c-0.3,0.4-0.8,0.7-1.3,0.8
								C323.9,178,323.4,177.9,323.1,177.5z"/>
						</g>
						<g>
							<path class="st6" d="M319.8,180.4c-0.6-0.8-0.4-1.9,0.3-2.5c0.3-0.3,0.8-0.4,1.2-0.4c0.5,0,0.9,0.2,1.2,0.5
								c0.4,0.3,0.5,0.8,0.5,1.3c0,0.5-0.3,1-0.7,1.3C321.5,181.4,320.4,181.2,319.8,180.4z"/>
						</g>
						<g>
							<path class="st6" d="M316,182.4c-0.2-0.5-0.1-0.9,0-1.3c0.2-0.4,0.4-0.8,0.8-1c0.4-0.2,0.9-0.2,1.3-0.1
								c0.4,0.1,0.8,0.4,1.1,0.8c0.3,0.4,0.3,0.9,0.2,1.4c-0.1,0.5-0.5,0.9-1,1.1c-0.5,0.2-1,0.3-1.5,0.1
								C316.5,183.2,316.1,182.9,316,182.4z"/>
						</g>
						<g>
							<path class="st6" d="M311.8,183.5c-0.1-1,0.5-1.9,1.4-2c0.4-0.1,0.9,0,1.3,0.2c0.4,0.2,0.7,0.6,0.9,1c0.2,0.5,0.1,1-0.1,1.4
								c-0.2,0.4-0.7,0.7-1.2,0.9C312.8,185.1,311.9,184.4,311.8,183.5z"/>
						</g>
						<g>
							<path class="st6" d="M307.4,183.5c0.1-0.5,0.3-0.9,0.6-1.2c0.3-0.3,0.8-0.5,1.2-0.5c0.9,0,1.7,0.7,1.8,1.7
								c0.1,1-0.7,1.9-1.8,1.8c-0.5,0-1-0.3-1.4-0.6C307.5,184.5,307.4,184,307.4,183.5z"/>
						</g>
						<g>
							<path class="st6" d="M303.2,182.4c0.2-0.5,0.5-0.8,0.9-1c0.2-0.1,0.4-0.2,0.6-0.2c0.2,0,0.4,0,0.7,0c0.8,0.3,1.4,1.1,1.3,2.1
								c-0.1,1-1.2,1.7-2.2,1.3c-0.3-0.1-0.5-0.2-0.7-0.3c-0.2-0.2-0.4-0.4-0.5-0.6C303.1,183.4,303,182.9,303.2,182.4z"/>
						</g>
						<g>
							<path class="st6" d="M299.4,180.4c0.6-0.8,1.6-1.1,2.4-0.6c0.8,0.4,1.1,1.4,0.8,2.4c-0.4,0.9-1.5,1.3-2.5,0.8
								C299.1,182.4,298.8,181.2,299.4,180.4z"/>
						</g>
						<g>
							<path class="st6" d="M296.1,177.5c0.4-0.3,0.8-0.5,1.3-0.5c0.2,0,0.4,0,0.6,0.1c0.2,0.1,0.4,0.2,0.6,0.3
								c0.6,0.6,0.8,1.7,0.2,2.5c-0.6,0.8-1.8,0.9-2.6,0.1c-0.2-0.2-0.4-0.4-0.5-0.6c-0.1-0.2-0.1-0.5-0.1-0.7
								C295.6,178.3,295.8,177.9,296.1,177.5z"/>
						</g>
						<g>
							<path class="st6" d="M293.7,174c0.9-0.4,1.9-0.2,2.4,0.6c0.5,0.7,0.3,1.8-0.4,2.4c-0.7,0.6-1.9,0.4-2.6-0.5
								C292.5,175.6,292.8,174.4,293.7,174z"/>
						</g>
						<g>
							<path class="st6" d="M292.1,169.9c0.5-0.1,1,0,1.3,0.2c0.2,0.1,0.4,0.2,0.5,0.4c0.2,0.2,0.3,0.3,0.4,0.6
								c0.3,0.8-0.1,1.8-1,2.3c-0.9,0.4-2,0-2.4-1.1c-0.1-0.3-0.1-0.5-0.1-0.8c0-0.3,0.1-0.5,0.2-0.7
								C291.3,170.3,291.7,170,292.1,169.9z"/>
						</g>
						<g>
							<path class="st6" d="M291.6,165.6c1,0,1.8,0.7,1.9,1.6c0.1,0.9-0.5,1.8-1.5,2c-1,0.2-1.9-0.5-2-1.6
								C289.9,166.5,290.6,165.6,291.6,165.6z"/>
						</g>
						<g>
							<path class="st6" d="M292.1,161.3c0.5,0.1,0.9,0.4,1.1,0.8c0.2,0.4,0.4,0.8,0.3,1.2c0,0.2-0.1,0.4-0.2,0.6
								c-0.1,0.2-0.2,0.4-0.4,0.5c-0.3,0.3-0.8,0.5-1.3,0.4c-0.5,0-0.9-0.2-1.2-0.6c-0.2-0.2-0.3-0.4-0.3-0.7
								c-0.1-0.2-0.1-0.5,0-0.8c0.1-0.5,0.3-1,0.7-1.3C291.2,161.3,291.7,161.2,292.1,161.3z"/>
						</g>
						<g>
							<path class="st6" d="M293.7,157.2c0.9,0.5,1.2,1.5,0.9,2.3c-0.2,0.4-0.5,0.7-0.9,0.9c-0.4,0.2-0.9,0.3-1.3,0.1
								c-0.5-0.1-0.9-0.5-1-0.9c-0.2-0.4-0.2-1,0-1.5C291.7,157.2,292.8,156.7,293.7,157.2z"/>
						</g>
						<g>
							<path class="st6" d="M296.1,153.6c0.4,0.3,0.6,0.8,0.6,1.2c0,0.4,0,0.9-0.3,1.3c-0.3,0.4-0.7,0.6-1.1,0.7
								c-0.4,0.1-0.9,0-1.3-0.2c-0.4-0.2-0.7-0.6-0.8-1.1c-0.1-0.5,0-1,0.3-1.4c0.3-0.4,0.8-0.7,1.3-0.8
								C295.3,153.2,295.8,153.3,296.1,153.6z"/>
						</g>
						<g>
							<path class="st6" d="M299.4,150.8c0.6,0.8,0.4,1.9-0.3,2.5c-0.3,0.3-0.8,0.4-1.2,0.4c-0.5,0-0.9-0.2-1.2-0.5
								c-0.4-0.3-0.5-0.8-0.5-1.3c0-0.5,0.3-1,0.7-1.3C297.6,149.8,298.8,149.9,299.4,150.8z"/>
						</g>
						<g>
							<path class="st6" d="M303.2,148.7c0.2,0.5,0.1,0.9,0,1.3c-0.2,0.4-0.4,0.8-0.8,1c-0.4,0.2-0.9,0.2-1.3,0.1
								c-0.4-0.1-0.8-0.4-1.1-0.8c-0.3-0.4-0.3-0.9-0.2-1.4c0.1-0.5,0.5-0.9,1-1.1c0.5-0.2,1-0.3,1.5-0.1
								C302.7,147.9,303,148.3,303.2,148.7z"/>
						</g>
						<g>
							<path class="st6" d="M307.4,147.7c0.1,1-0.5,1.9-1.4,2c-0.4,0.1-0.9,0-1.3-0.2c-0.4-0.2-0.7-0.6-0.9-1
								c-0.2-0.5-0.1-1,0.1-1.4c0.2-0.4,0.7-0.7,1.2-0.9C306.3,146,307.3,146.7,307.4,147.7z"/>
						</g>
						<g>
							<path class="st6" d="M311.8,147.7c-0.1,0.5-0.3,0.9-0.6,1.2c-0.3,0.3-0.8,0.5-1.2,0.5c-0.9,0-1.7-0.7-1.8-1.7
								c-0.1-1,0.7-1.9,1.8-1.8c0.5,0,1,0.3,1.4,0.6C311.7,146.7,311.8,147.2,311.8,147.7z"/>
						</g>
						<g>
							<path class="st6" d="M316,148.7c-0.2,0.5-0.5,0.8-0.9,1c-0.2,0.1-0.4,0.2-0.6,0.2c-0.2,0-0.4,0-0.7,0
								c-0.8-0.3-1.4-1.1-1.3-2.1c0.1-1,1.2-1.7,2.2-1.3c0.3,0.1,0.5,0.2,0.7,0.3c0.2,0.2,0.4,0.4,0.5,0.6
								C316.1,147.8,316.1,148.3,316,148.7z"/>
						</g>
						<g>
							<path class="st6" d="M319.8,150.8c-0.6,0.8-1.6,1.1-2.4,0.6c-0.8-0.4-1.1-1.4-0.8-2.4c0.4-0.9,1.5-1.3,2.5-0.8
								C320.1,148.8,320.4,149.9,319.8,150.8z"/>
						</g>
						<g>
							<path class="st6" d="M323.1,153.6c-0.4,0.3-0.8,0.5-1.3,0.5c-0.2,0-0.4,0-0.6-0.1c-0.2-0.1-0.4-0.2-0.6-0.3
								c-0.6-0.6-0.8-1.7-0.2-2.5c0.6-0.8,1.8-0.9,2.6-0.1c0.2,0.2,0.4,0.4,0.5,0.6c0.1,0.2,0.1,0.5,0.1,0.7
								C323.6,152.9,323.4,153.3,323.1,153.6z"/>
						</g>
						<g>
							<path class="st6" d="M325.5,157.2c-0.9,0.4-1.9,0.2-2.4-0.6c-0.5-0.7-0.3-1.8,0.4-2.4c0.7-0.6,1.9-0.4,2.6,0.5
								C326.7,155.6,326.4,156.8,325.5,157.2z"/>
						</g>
						<g>
							<path class="st6" d="M327.1,161.3c-0.5,0.1-1,0-1.3-0.2c-0.2-0.1-0.4-0.2-0.5-0.4c-0.2-0.2-0.3-0.3-0.4-0.6
								c-0.3-0.8,0.1-1.8,1-2.3c0.9-0.4,2,0,2.4,1.1c0.1,0.3,0.1,0.5,0.1,0.8c0,0.3-0.1,0.5-0.2,0.7
								C327.9,160.9,327.5,161.2,327.1,161.3z"/>
						</g>
						<g>
							<path class="st6" d="M327.6,165.6c-1,0-1.8-0.7-1.9-1.6c-0.1-0.9,0.5-1.8,1.5-2c1-0.2,1.9,0.5,2,1.6
								C329.3,164.7,328.6,165.6,327.6,165.6z"/>
						</g>
					</g>
				</g>
				<path class="st4" d="M263.5,168.8c-1.8,0-3.2-1.4-3.2-3.2c0-27.2,22.1-49.3,49.3-49.3c1.8,0,3.2,1.4,3.2,3.2
					c0,1.8-1.4,3.2-3.2,3.2c-23.7,0-42.9,19.3-42.9,43C266.7,167.3,265.3,168.8,263.5,168.8z"/>
			</g>
			<g>
				<path class="st7" d="M132.3,100V62.4c0-14.3,11.6-25.9,25.9-25.9h68V100H132.3z"/>
				<g>
					<polygon class="st10" points="178.1,39.7 135.5,74.8 135.5,96.8 147.6,96.8 216.9,39.7 					"/>
					<path class="st11" d="M168.3,39.7c-18.1,0-32.8,14.7-32.8,32.9v2.2l42.6-35.1H168.3z"/>
					<polygon class="st1" points="223,66.6 186.4,96.8 223,96.8 					"/>
					<polygon class="st11" points="223,39.7 216.9,39.7 147.6,96.8 186.4,96.8 223,66.6 					"/>
				</g>
			</g>
			<g>
				<path class="st7" d="M318.8,100v-4.3c0-32.4-26.3-58.8-58.7-58.8h-20.2V100H318.8z"/>
				<g>
					<path class="st11" d="M260.2,40H243v25.8l29.5-24.3C268.6,40.6,264.4,40.1,260.2,40z"/>
					<path class="st10" d="M272.6,41.5L272.6,41.5L243,65.8v31h1.2l52.2-43.1C289.7,47.8,281.6,43.6,272.6,41.5z"/>
					<path class="st1" d="M311.1,73.7L283,96.8h32.6v-1.2C315.6,87.9,314,80.4,311.1,73.7z"/>
					<path class="st11" d="M296.5,53.7l-52.2,43.1H283l28.1-23.1C307.7,66,302.7,59.2,296.5,53.7z"/>
				</g>
			</g>
			<g>
				<path class="st12" d="M317.4,107.8h-10.5c-1.2,0-2.2-1-2.2-2.2l0,0c0-1.2,1-2.2,2.2-2.2h10.5c1.2,0,2.2,1,2.2,2.2l0,0
					C319.6,106.8,318.6,107.8,317.4,107.8z"/>
				<path class="st13" d="M316.7,107.1h-10.5c-1.2,0-2.2-1-2.2-2.2l0,0c0-1.2,1-2.2,2.2-2.2h10.5c1.2,0,2.2,1,2.2,2.2l0,0
					C318.9,106.1,317.9,107.1,316.7,107.1z"/>
				<path class="st2" d="M315.9,104.5h-10.2c-0.3,0-0.5-0.2-0.5-0.5s0.2-0.5,0.5-0.5h10.2c0.3,0,0.5,0.2,0.5,0.5
					S316.2,104.5,315.9,104.5z"/>
			</g>
			<g>
				<path class="st12" d="M224.4,108.8h-10.5c-1.2,0-2.2-1-2.2-2.2l0,0c0-1.2,1-2.2,2.2-2.2h10.5c1.2,0,2.2,1,2.2,2.2l0,0
					C226.6,107.9,225.6,108.8,224.4,108.8z"/>
				<path class="st13" d="M223.8,108.2h-10.5c-1.2,0-2.2-1-2.2-2.2l0,0c0-1.2,1-2.2,2.2-2.2h10.5c1.2,0,2.2,1,2.2,2.2l0,0
					C226,107.2,225,108.2,223.8,108.2z"/>
				<path class="st2" d="M223,105.6h-10.2c-0.3,0-0.5-0.2-0.5-0.5s0.2-0.5,0.5-0.5H223c0.3,0,0.5,0.2,0.5,0.5S223.3,105.6,223,105.6
					z"/>
			</g>
			<g>
				<g>
					<path class="st14" d="M223.5,116.2H135c-1.5,0-2.6-1.2-2.6-2.6l0,0c0-1.5,1.2-2.6,2.6-2.6h88.5c1.5,0,2.6,1.2,2.6,2.6l0,0
						C226.1,115.1,225,116.2,223.5,116.2z"/>
					<path class="st1" d="M223.3,125.9h-78.7c-1.5,0-2.6-1.2-2.6-2.6l0,0c0-1.5,1.2-2.6,2.6-2.6h78.7c1.5,0,2.6,1.2,2.6,2.6l0,0
						C226,124.7,224.8,125.9,223.3,125.9z"/>
					<path class="st1" d="M223.3,135.6h-69c-1.5,0-2.6-1.2-2.6-2.6l0,0c0-1.5,1.2-2.6,2.6-2.6h69c1.5,0,2.6,1.2,2.6,2.6l0,0
						C226,134.4,224.8,135.6,223.3,135.6z"/>
				</g>
			</g>
			<g>
				<g>
					<path class="st14" d="M275,116.2h-32.5c-1.5,0-2.6-1.2-2.6-2.6l0,0c0-1.5,1.2-2.6,2.6-2.6H275c1.5,0,2.6,1.2,2.6,2.6l0,0
						C277.6,115.1,276.5,116.2,275,116.2z"/>
					<path class="st1" d="M262.8,125.9h-20.2c-1.5,0-2.6-1.2-2.6-2.6l0,0c0-1.5,1.2-2.6,2.6-2.6h20.2c1.5,0,2.6,1.2,2.6,2.6l0,0
						C265.4,124.7,264.2,125.9,262.8,125.9z"/>
					<path class="st1" d="M253.3,135.6h-10.7c-1.5,0-2.6-1.2-2.6-2.6l0,0c0-1.5,1.2-2.6,2.6-2.6h10.7c1.5,0,2.6,1.2,2.6,2.6l0,0
						C255.9,134.4,254.7,135.6,253.3,135.6z"/>
				</g>
			</g>
			<g>
				<path class="st1" d="M122.9,107.2L122.9,107.2c-0.7,0-1.2-0.6-1.2-1.2v-3.5c0-0.7,0.5-1.2,1.2-1.2l0,0c0.7,0,1.2,0.6,1.2,1.2
					v3.5C124.1,106.6,123.6,107.2,122.9,107.2z"/>
				<polygon class="st8" points="131.4,100.5 122.9,105.2 122.9,103.1 131.4,98.3 				"/>
				<g>
					<g>
						<path class="st14" d="M137.1,93.7v11.1c0,2.5-2,4.5-4.5,4.5c-2,0-3.8-1.4-4.3-3.3c-0.1-0.4-0.2-0.8-0.2-1.2V93.7
							c0-2.5,2-4.5,4.5-4.5c0.4,0,0.7,0,1.1,0.1c0.8,0.2,1.5,0.6,2.1,1.2C136.6,91.3,137.1,92.5,137.1,93.7z"/>
						<path class="st1" d="M133.9,90.6v11.1c0,2.5-2,4.5-4.5,4.5c-0.4,0-0.7,0-1.1-0.1c-0.1-0.4-0.2-0.8-0.2-1.2V93.7
							c0-2.5,2-4.5,4.5-4.5c0.4,0,0.7,0,1.1,0.1C133.8,89.7,133.9,90.2,133.9,90.6z"/>
					</g>
				</g>
			</g>
		</g>
	</g>
	<g>
		<ellipse class="st0" cx="329" cy="223.3" rx="34.2" ry="8.1"/>
		<g>
			<path class="st15" d="M290.5,84L290.5,84c-2-1.8-2.2-5-0.4-7L316,48.1c1.8-2,5-2.2,7-0.4l0,0c2,1.8,2.2,5,0.4,7l-25.8,28.9
				C295.7,85.6,292.5,85.8,290.5,84z"/>
			<g>
				<path class="st16" d="M263.5,85.1l-5-1.1c-1.7,0.2-9.4,2.2-9.8,3.8c-0.2,0.8,6.2,1.3,7.8,1.1l1.4,0.7c1,0.5,2.2,0.7,3.3,0.4
					c2.3-0.6,5.4-1.7,5.3-2.9l-0.1-0.7C266.3,84.7,265.1,85,263.5,85.1z"/>
				<path class="st15" d="M298.2,79.7L298.2,79.7c0.5,2.7-1.2,5.3-3.9,5.8l-28.2,5.6c-2.7,0.5-5.3-1.2-5.8-3.9l0,0
					c-0.5-2.7,1.2-5.3,3.9-5.8l28.2-5.6C295.1,75.3,297.7,77,298.2,79.7z"/>
			</g>
		</g>
		<g>
			<path class="st17" d="M351.7,217.9l-11,3.9c-0.8,0.3-1.3,1.1-1.1,1.9c0,0.1,0.1,0.2,0.1,0.3l6.9,0l6.2,0l5.8,0.1c0,0,1-0.4,1-2.3
				c-0.1-1.8-1.1-2.6-2-3.2C355.4,217.4,351.7,217.9,351.7,217.9z"/>
			<g>
				<path class="st17" d="M311.1,217l-11,3.9c-0.8,0.3-1.3,1.1-1.1,1.9c0,0.1,0.1,0.2,0.1,0.3l6.9,0l6.2,0l5.8,0.1c0,0,1-0.4,1-2.3
					c-0.1-1.8-1.1-2.6-2-3.2C314.9,216.4,311.1,217,311.1,217z"/>
				<path class="st18" d="M306.7,218.8l13,1.2l14.7-111l-14.4-4.9c0,0.1-0.1,0.4-0.2,0.6C317.8,113,306.7,218.8,306.7,218.8z"/>
			</g>
			<path class="st19" d="M347.2,219.5h12.4l-12.7-100.8c1.3-3.1,1.8-6.4,1.6-9.8l-0.1-1.9c0-2.7-2.2-4.9-4.9-4.9l-18.3-2.5
				c-3.2,0-4.5-0.7-5.5,5.1c-0.3,1.2-0.4,2-0.9,5.3l9.3,7.4L347.2,219.5z"/>
		</g>
		<path class="st3" d="M324,44.9l5,5l8.3-5l13.3,7.1c2.7,1.4,4.2,4.5,3.6,7.5c-1.2,6-3.7,16-7.1,27.3c-2.5,8.4,5,19.7,1.5,22.1
			c-3.3,2.3-21.5,0.2-28.4-1.6c-2.2-0.6-0.6-5.9,0.1-9.2c1.3-5.5,0.6-15.8-0.5-20.8c-2.6-12.1-5.6-21-2.7-30.3L324,44.9z"/>
		
			<linearGradient id="SVGID_1_" gradientUnits="userSpaceOnUse" x1="953.7535" y1="33.0295" x2="953.0817" y2="54.8635" gradientTransform="matrix(-1 0 0 1 1283.9933 0)">
			<stop  offset="0" style="stop-color:#C79993"/>
			<stop  offset="0.2211" style="stop-color:#D7A59F"/>
			<stop  offset="0.6154" style="stop-color:#FDC3BB"/>
		</linearGradient>
		<path class="st20" d="M333.9,50l-6.4,0.1c-2.3,0-3.4-2.4-3.4-5.2l-0.7-17.7c0-2.8,1.9-5,4.2-5h6.4c2.3,0,2.7,2,2.7,4.7l0.8,18
			C337.3,47.7,336.2,50,333.9,50z"/>
		<g>
			<path class="st16" d="M322.2,41.7c-2.4-0.5-3.2-2.9-2.7-5.6l0.5-18.1c0.5-2.7,4.9-4,7.3-3.5l6.7,1.3c2.4,0.5,4,3.1,3.5,5.8
				l-4,17.2C333,41.4,322.2,41.7,322.2,41.7z"/>
			<path class="st6" d="M311.7,11.1c0,0,7.4,0.7,9.5-0.7c4.5-3.2,13.3-5.7,19.2-1.6c5.1,3.5,3.7,8.8,3.6,9.5
				c-1.3,7.3-4.8,18.8-6.6,18.9c-1.6,0.1,0.4-5.8-1.8-7.5l-3.2-1.9c-0.1-1.5-1-6-0.6-6.7c0,0-2.1,0.3-2.1,0.3
				c-3.3,0-1.9-6.3-9.9-2.3C316,20.8,311.7,11.1,311.7,11.1z"/>
			<path class="st16" d="M336.8,28.7c-0.5,1.4-1.5,2.4-2.3,2.1s-1-1.6-0.6-3.1c0.5-1.4,1.5-2.4,2.3-2.1
				C337,25.9,337.3,27.3,336.8,28.7z"/>
		</g>
		<g>
			<g>
				<path class="st21" d="M327.5,52.8c0.2,0,0.9,0.1,1.1,0.1l0.5,40.5l-2.5,2.2l-2.1-2.6L327.5,52.8z"/>
				<polygon class="st21" points="327.5,52.7 325.1,51.2 326.6,50.7 327.7,50.7 				"/>
				<polygon class="st21" points="329.4,52.6 331.8,51.2 330.2,50.7 329.1,50.7 				"/>
				<path class="st22" d="M326.8,51.7c0,0.9,0.7,1.6,1.6,1.6c0.9,0,1.6-0.7,1.6-1.6c0-0.9-0.7-1.6-1.6-1.6
					C327.5,50.1,326.8,50.8,326.8,51.7z"/>
			</g>
			<path class="st15" d="M328.3,50.1c0,0-3.6,3.2-3.7,4.8c0,0-2.8-6.5-2.3-9.5c0.1-0.6,1.7-1,1.7-1
				C323.9,45.3,326.7,50.1,328.3,50.1z"/>
			<path class="st15" d="M328.3,50.1c2.1,1.1,2.1,2.5,4.1,4.8c0,0,7.9-4.7,6.2-10l-1.4-1.5C336.4,46.4,332.2,49.1,328.3,50.1z"/>
		</g>
		<g>
			<polygon class="st23" points="323.2,110 343.2,110 337.5,77.6 317.5,77.6 			"/>
			<path class="st16" d="M328.3,98.2h-6.1c-1.7,0-2.7-1.4-3-3c-0.5-2.9-0.9-4.5,0.7-4.5l8.4,0.8c1.7,0,3,1.4,3,3v0.8
				C331.4,96.8,330,98.2,328.3,98.2z"/>
			<path class="st15" d="M360.8,100L360.8,100c-2.6,0.7-5.3-0.9-6-3.5L345,58.9c-0.7-2.6,0.9-5.4,3.5-6l0,0c2.6-0.7,5.3,0.9,6,3.5
				l9.8,37.6C365,96.6,363.4,99.3,360.8,100z"/>
			<path class="st15" d="M364.2,95.3L364.2,95.3c0,2.7-2.2,4.9-5,4.9l-28.7-0.1c-2.7,0-4.9-2.3-4.9-5l0,0c0-2.7,2.2-4.9,5-4.9
				l28.7,0.1C362,90.3,364.2,92.5,364.2,95.3z"/>
		</g>
	</g>
	<g>
		<path class="st0" d="M172.7,228.9c0,4.4,15.3,8.1,34.2,8.1c18.9,0,34.2-3.6,34.2-8.1c0-4.5-15.3-8.1-34.2-8.1
			C188,220.9,172.7,224.5,172.7,228.9z"/>
		<path class="st16" d="M227.2,117.7h-9.3l2.7,11.6c0.8,3.3,2.9,2.3,5.2,1.8c0,0,4.5-0.5,3.7-3.8L227.2,117.7z"/>
		<path class="st15" d="M213.9,81.8l0.9-0.2c3.3-0.8,6.7,1.3,7.5,4.7l7.2,31.1c0.8,3.3-5.7,4.3-5.7,4.3c-3.3,0.8-6.5,2-7.3-1.3
			l-7.2-31.1C208.4,85.9,210.5,82.5,213.9,81.8z"/>
		<path class="st17" d="M192,234.6L192,234.6c-2.3,0-5.1-5.8-5.1-8.1l0.9-6.1c0-2.3,1.9-4.2,4.2-4.2l0,0c2.3,0,4.2,1.9,4.2,4.2v3.3
			C196.2,226,194.3,234.6,192,234.6z"/>
		<path class="st17" d="M221.3,221.1l11,3.9c0.8,0.3,1.3,1.1,1.1,1.9c0,0.1-0.1,0.2-0.1,0.3l-6.9,0l-6.2,0l-5.8,0.1c0,0-1-0.4-1-2.3
			c0.1-1.8,1.1-2.6,2-3.2C217.6,220.5,221.3,221.1,221.3,221.1z"/>
		<path class="st7" d="M203.1,124c3.6-6.1,9.6-10.8,14.5-15.9l-0.8-3.3c0,0-33.7-6.6-33.3,3.8c0.3,6.2,2.1,115.9,2.1,115.9l11.7-0.9
			l5.4-96.7l0.6,1.6C202.9,126.9,202.6,125.4,203.1,124z"/>
		<path class="st24" d="M217.6,108.2c-4.9,5.1-11,9.7-14.5,15.9c-0.5,1.4-0.1,2.9,0.3,4.6l13.9,38.3l-3.9,55.5l11.7-0.4l6.9-55.5
			L217.6,108.2z"/>
		<path class="st15" d="M216.8,113.2l-29.8,2.1c-2.4,0-4.9-0.7-4.9-3c0,0-0.1-7.2,2.2-7.2l33.3-0.5c2.4,0,1.3,5.5,1.3,5.5
			C219,112.5,219.2,113.2,216.8,113.2z"/>
		<path class="st15" d="M219.5,95.9L219.5,95.9c-3.6,0.7-7.1-1.7-7.8-5.3l-7.4-37.4c-0.7-3.6,1.7-7.1,5.3-7.8l0,0
			c3.6-0.7,7.1,1.7,7.8,5.3l7.4,37.4C225.5,91.7,223.1,95.2,219.5,95.9z"/>
		<path class="st3" d="M213.8,109.9l-28.2,1.8c-7,0-3-6.7-3-13.7l-8.7-42C173.2,46,186,44,193,44l16.2,0.5c7,0,11.6,19,11.6,26
			l-1.6,22.3C219.2,99.8,223.5,110,213.8,109.9z"/>
		
			<linearGradient id="SVGID_2_" gradientUnits="userSpaceOnUse" x1="1083.2715" y1="32.6659" x2="1082.5996" y2="54.4997" gradientTransform="matrix(-1 0 0 1 1283.9933 0)">
			<stop  offset="0" style="stop-color:#C79993"/>
			<stop  offset="0.2211" style="stop-color:#D7A59F"/>
			<stop  offset="0.6154" style="stop-color:#FDC3BB"/>
		</linearGradient>
		<path class="st25" d="M205.7,49.6l-6.4,0.1c-2.3,0-6.3-3-6.3-5.7l2.2-17.1c0-2.8,1.9-5,4.2-5h6.4c2.3,0,2.7,2,2.7,4.7l0.8,18
			C209.2,47.3,208,49.6,205.7,49.6z"/>
		<g>
			<path class="st16" d="M209.2,42c-5.4,0-11.9-2.3-11.9-7.7L197,20.7c0-5.4,4.4-9.9,9.9-9.9l0,0c5.4,0,9.9,4.5,9.9,9.9v11.4
				C216.8,37.5,214.6,42,209.2,42z"/>
			<path class="st6" d="M217.9,8.4c-0.9-0.5-1.6-1.2-2.1-2.1c-0.9-1.9-2.9-3.2-5.3-3.2c-0.3,0-0.7,0-1,0.1c-1.3,0.2-2.7-0.3-3.6-1.3
				c-1.2-1.2-2.9-1.9-4.7-1.9c-3.8,0-5.4,2.4-6.1,4c-0.3,0.9-1.1,1.5-2.1,1.7c-2,0.3-3.8,1.5-4.8,3.2c-2.9,5.2,0.6,3.6,4.1,19.8
				c0,0.1,0,0.2,0,0.2c0,0,0,0,0,0.1c0.3,2.6,4.2,3.1,5.2,0.7l0.8-1.9c0.2-0.4,0.4-0.7,0.8-1c2.9-2.3,2.6-2,2.4-4.3l-0.6-3.6
				c-0.2-1.2,0.6-2.5,1.9-2.8c4.7-1.3,11.4-1.4,12.6,0.7c2.2,3.4,4.8-2,4.8-4.5l0,0C220.4,10.6,219.4,9.1,217.9,8.4z"/>
			<path class="st16" d="M200.4,24.6c0.6,2,0.2,3.8-0.8,4.1c-1,0.3-2.3-1.1-2.9-3s-0.2-3.8,0.8-4.1
				C198.5,21.3,199.8,22.7,200.4,24.6z"/>
		</g>
		<path class="st26" d="M246.2,89.7c0,0,7.9,2.9,10,2.5c2.1-0.4,4.3-1.6,4.3-1.6s-7.3-2.3-4.9-6c1.9-3-9.7,0.4-9.7,0.4L246.2,89.7z"
			/>
		<path class="st15" d="M214,86.6L214,86.6c-2.5,2.7-6.8,2.8-9.4,0.3L178,64.2c-2.7-2.5-3.9-10.3-1.4-12.9l0,0
			c2.5-2.7,6.8-2.8,9.4-0.3l27.7,26.2C216.4,79.7,216.5,84,214,86.6z"/>
		<path class="st15" d="M201.9,80.5L201.9,80.5c0.6-3.6,4-6.1,7.7-5.5l37.9,7.5c3.6,0.6,2,3.2,1.4,6.9c0,0,0.8,3.8-2.8,3.2
			l-38.6-4.4C203.7,87.6,201.3,84.2,201.9,80.5z"/>
	</g>
</g>
</svg>
