<svg xmlns="http://www.w3.org/2000/svg" viewBox="0 0 70.87 62.91"><defs><style>.cls-1{fill:#552267;fill-rule:evenodd;}</style></defs><title>Asset 1</title><g id="Layer_2" data-name="Layer 2"><g id="Layer_1-2" data-name="Layer 1"><path class="cls-1" d="M44.43,55.42a2.32,2.32,0,0,1-1.79-3.87A2.3,2.3,0,0,1,46.69,53a2.27,2.27,0,0,1-2.26,2.43ZM67.82,44.76a12.33,12.33,0,0,0,.26,1.68,11.92,11.92,0,0,1-.9,6.67c-3.91,8.05-9.46,6.17-9.46,8.39,0,3.38,5.93-.3,6.88-1A15.18,15.18,0,0,0,70.87,49V47.48a16,16,0,0,0-.31-2.41c-.53-2.57-2.74-1.42-2.74-.31ZM0,16c.07.91.35,1.75,1.38,1.75,1.36,0,1.37-1.37,1.27-2.23A13.49,13.49,0,0,1,4.1,9.28C7.44,2.74,14,2.91,14.64,2.38S16.2-1.56,9.71.9a14.68,14.68,0,0,0-4.76,3,17.7,17.7,0,0,0-1.86,2A14.58,14.58,0,0,0,0,14.45V16ZM62.84,48.36A7.35,7.35,0,0,1,58.25,55c-1.28.52-2.06.37-2.06,2A1.36,1.36,0,0,0,57.56,58c1.63-.06,4.34-1.82,5.6-3.37a6.82,6.82,0,0,0,.54-.71,10,10,0,0,0,1.64-8.07,1.46,1.46,0,0,0-1.39-1.24c-1.77,0-1.11,2.21-1.11,3.74ZM5.26,15c0,3.56,2.51,2.64,2.74,1.22s-.32-2.72,1-4.79a7.73,7.73,0,0,1,3-2.84,8.41,8.41,0,0,1,2.21-.7c3-.56,1.35-2.71.75-2.71A9.58,9.58,0,0,0,8,8.32,10.61,10.61,0,0,0,5.26,15Zm24.22,7.7,5-2.12,4.22,9.84,3.63-4.22L40.76,40.9,28.05,33.46l6.09-.35L29.47,22.7Zm-12-6.59c0-1.08.49-1.05,2.16-1.72,2.2-.88,17.51-7.14,18.05-7.14.81,0,1.06,1.06,1.33,1.72l10,24.78C49.45,35,52.46,42.2,52.46,43s-.55.92-1.19,1.17l-1.78.71L35.37,50.51c-.78.33-2.89,1.41-3.62,1-.48-.29-2.77-6.37-3-7-1.9-4.77-3.76-9.39-5.65-14.14-.32-.81-5.66-13.78-5.66-14.28Zm-6.37-2.77c0,1.81,1.65,5.17,2.35,6.92L26,51.66c.63,1.59,3.09,8.16,3.93,9.35a3.68,3.68,0,0,0,1.21,1c1.93,1.06,3.62,0,5.54-.75l18-7.22c2-.8,5.66-1.68,5.66-4.45,0-1.92-.31-2.1-1.09-4L43,5.08C42,2.56,41.52.33,38.34.33,37.15.33,32.4,2.43,31,3c-2.38,1-4.79,1.94-7.2,2.91C21.67,6.75,15,9.32,13.1,10.25a3.6,3.6,0,0,0-1.36,1.13,4.27,4.27,0,0,0-.67,2Z"/></g></g></svg>