<svg xmlns="http://www.w3.org/2000/svg" viewBox="0 0 70.87 66.32"><defs><style>.cls-1{fill:#552267;fill-rule:evenodd;}</style></defs><title>Asset 1</title><g id="Layer_2" data-name="Layer 2"><g id="Layer_1-2" data-name="Layer 1"><path class="cls-1" d="M35.59,54.29V40.15H51.1a6,6,0,0,0,5.63-5.63V29.35H66.91c.51,0,1.06.27,1.06.76,0,3.45.24,23.57-.15,25.24-2.82,1.35-6.27-1.65-6.24,2.58,0,1,0,2,0,3a24.69,24.69,0,0,1-1.89-2.06l-2.94-3.14c-.64-.28-16.39-.12-18.44-.11-1.66,0-2.74.33-2.74-1.37ZM11.1,50.79V38.48c-.43-3.17-8.2,1.31-8.2-4.12V5.78A2.56,2.56,0,0,1,5.78,2.89h45a2.76,2.76,0,0,1,3,3V26.47c0,.88-.17,1.15-.16,2.12,0,2.53.48,7.25-1.08,8.2-1.41.86-6.48.48-8.8.48-2.11,0-17.55-.21-18.25.15l-7.18,6.66c-.84.85-1.6,1.44-2.43,2.28L11.1,50.79ZM0,5.47V34.37a5.87,5.87,0,0,0,5.63,5.78H8.21V54.29a1.38,1.38,0,0,0,1.52,1.37c1,0,2.67-2,3.38-2.7l5.35-5c.86-.66,1.34-1.3,2.1-2,.41-.38.64-.48,1.07-.91l3.19-3c2.51-2.51,1.59-1.86,7.87-1.86V54.59a4.29,4.29,0,0,0,1.91,3.26c1.34.93,2.52.69,4.63.69H49.73c1.64,0,3.58-.1,5.18,0,1,.05,1,.64,2.16,1.8l3.06,3.47c.43.56.76.77,1.22,1.37,1.67,2.17,3.13.76,3.13-.24V58.55c2.17,0,3.6.29,5.14-1.25a3.85,3.85,0,0,0,1.25-2.86V30.11c0-1.82-2-3.65-4.11-3.65h-10V5.63A6.06,6.06,0,0,0,51.1,0H5.47A5.9,5.9,0,0,0,0,5.47Z"/><path class="cls-1" d="M8.21,15.21a1.37,1.37,0,0,0,1.37,1.37H47.14c1.85,0,1.81-2.89-.15-2.89H9.73a1.5,1.5,0,0,0-1.52,1.52Z"/><path class="cls-1" d="M12.93,23a1.33,1.33,0,0,0,.71,1.42,3.93,3.93,0,0,0,1.42.25H42a2,2,0,0,0,1.19-.33,1.49,1.49,0,0,0-.89-2.72H14.45A1.45,1.45,0,0,0,12.93,23Z"/></g></g></svg>