<svg xmlns="http://www.w3.org/2000/svg" viewBox="0 0 70.87 48.02"><defs><style>.cls-1{fill:#552267;}</style></defs><title>Asset 1</title><g id="Layer_2" data-name="Layer 2"><g id="Layer_1-2" data-name="Layer 1"><path class="cls-1" d="M67.43,0h-64A3.44,3.44,0,0,0,0,3.43V44.58A3.43,3.43,0,0,0,3.43,48h64a3.43,3.43,0,0,0,3.43-3.43V3.43A3.44,3.44,0,0,0,67.43,0Zm-.88,2.29L35.43,28.24,4.3,2.29ZM2.29,44.43V3.59L26.78,24,2.29,44.43Zm2,1.3L28.57,25.5l6.86,5.72L42.3,25.5,66.57,45.73Zm64.3-1.3L44.08,24,68.59,3.59V44.43Z"/></g></g></svg>