<svg width="15" height="20" viewBox="0 0 15 20" fill="none" xmlns="http://www.w3.org/2000/svg">
<path fill-rule="evenodd" clip-rule="evenodd" d="M7.5 0C11.6423 0 15 3.38204 15 7.55443C15 11.2346 11.3619 16.4634 8.55595 19.5379C7.99355 20.154 7.00645 20.154 6.44405 19.5379C3.63813 16.4634 0 11.2346 0 7.55443C0 3.38204 3.35769 0 7.5 0V0ZM7.5 3.73501C9.71872 3.73501 11.5163 5.48798 11.5163 7.65168C11.5163 9.81537 9.71872 11.5683 7.5 11.5683C5.28128 11.5683 3.48373 9.81537 3.48373 7.65168C3.48373 5.48798 5.28128 3.73501 7.5 3.73501Z" fill="#C9B462"/>
</svg>
