<svg width="17" height="18" viewBox="0 0 17 18" fill="none" xmlns="http://www.w3.org/2000/svg">
<path fill-rule="evenodd" clip-rule="evenodd" d="M3.94478 0.1702L0.967268 0C0.738229 0 0.45193 0.1702 0.394671 0.397133C-2.0675 9.19079 7.43762 19.5162 16.4847 17.8142C16.7137 17.7575 16.9427 17.5306 16.9427 17.2469L17 14.2968C17 13.8997 16.8855 13.8429 16.5992 13.7295L12.3047 12.2544C12.0757 12.1977 11.7894 12.3111 11.6748 12.4246L10.1861 13.5025C7.55214 13.1621 4.28833 9.64466 4.17381 6.97819L5.37627 5.61659C5.49079 5.50313 5.66257 5.21946 5.60531 4.99253L4.51737 0.624066C4.46011 0.397133 4.34559 0.226933 3.94478 0.1702Z" fill="#C9B462"/>
</svg>
