<svg width="33" height="28" viewBox="0 0 33 28" fill="none" xmlns="http://www.w3.org/2000/svg">
<path d="M8.25 6.58824H24.75V8.23529H8.25V6.58824ZM8.25 13.1765H24.75V11.5294H8.25V13.1765ZM8.25 18.1176H24.75V16.4706H8.25V18.1176ZM33 0V4.94118H29.7V28L26.4 24.7059L23.1 28L19.8 24.7059L16.5 28L13.2 24.7059L9.9 28L6.6 24.7059L3.3 28V4.94118H0V0H33ZM3.3 1.64706H1.65V3.29412H3.3V1.64706ZM28.05 1.64706H4.95V24.0236L6.6 22.3766L9.9 25.6706L13.2 22.3766L16.5 25.6706L19.8 22.3766L23.1 25.6706L26.4 22.3766L28.05 24.0236V1.64706ZM31.35 1.64706H29.7V3.29412H31.35V1.64706Z" fill="#C9B462"/>
</svg>
