<svg width="27" height="40" viewBox="0 0 27 40" fill="none" xmlns="http://www.w3.org/2000/svg">
<path fill-rule="evenodd" clip-rule="evenodd" d="M1.69253 0C1.69253 4.11791 1.69253 8.2358 1.69253 12.3537H4.17648L3.405 30.7472H0C0 33.8314 0 36.9157 0 40H26.8013V30.7472H23.3963L22.626 12.3537H25.1087V0H18.477V4.96541H16.7159V0H10.0854V4.96541H8.3243V0H1.69253ZM3.28784 1.59531H6.72898V6.56073H11.6807V1.59531H15.1206V6.56073H20.0723V1.59531H23.5134V10.7584H3.28784V1.59531ZM5.7718 12.3587H21.0282L21.801 30.7434H5.00031L5.7718 12.3587ZM1.59531 32.3425H25.206V38.4047H1.59531V32.3425Z" fill="white"/>
</svg>
