<svg width="34" height="30" viewBox="0 0 34 30" fill="none" xmlns="http://www.w3.org/2000/svg">
<path d="M18.8935 22.9563C15.8648 27.7158 11.3939 29.3503 10.3843 29.0138C11.2496 29.3022 20.2686 32.1655 22.4992 26.562C24.5183 21.4895 29.2422 20.9017 28.9893 20.6487C26.6817 18.3412 21.729 18.5006 18.8935 22.9563Z" fill="#C9B462"/>
<path d="M13.7012 19.9291C10.6724 24.6885 6.20147 26.323 5.19189 25.9865C6.05724 26.275 15.0763 29.1382 17.3068 23.5347C19.3259 18.4622 24.0498 17.8744 23.7969 17.6215C21.4893 15.3139 16.5366 15.4733 13.7012 19.9291Z" fill="#C9B462"/>
<path d="M8.50926 16.7561C5.48054 21.5155 1.00957 23.1501 0 22.8135C0.865348 23.102 9.88436 25.9652 12.1149 20.3617C14.134 15.2892 18.8579 14.7014 18.605 14.4485C16.2974 12.1409 11.3447 12.3003 8.50926 16.7561Z" fill="#C9B462"/>
<path d="M30.8641 18.7492C31.8105 21.7779 29.566 23.9413 28.4122 24.687C30.7198 24.2544 34.9024 21.3699 33.3159 16.6105C31.7294 11.851 16.9208 8.65211 19.4703 4.06291C20.9853 1.33601 25.9604 3.17294 26.8258 4.47097C27.2584 5.04787 29.3436 6.75359 29.9892 6.86636L29.4218 2.04376C23.6528 -1.70609 15.9015 -0.119615 16.0089 5.36093C16.1531 12.7164 29.8274 15.432 30.8641 18.7492Z" fill="#C9B462"/>
</svg>
