<svg width="27" height="28" viewBox="0 0 27 28" fill="none" xmlns="http://www.w3.org/2000/svg">
<path d="M6.60535 16.9089C6.66665 17.669 6.58968 18.434 6.37833 19.1654C6.30365 19.4188 6.30339 19.689 6.37758 19.9425C6.45177 20.196 6.59714 20.4217 6.79567 20.5916C6.99419 20.7614 7.23714 20.868 7.49437 20.898C7.7516 20.9281 8.0118 20.8803 8.24271 20.7606C9.55657 20.0993 11.2989 18.9189 12.3631 17.112H13.2286C15.4488 17.112 17.578 16.2105 19.1479 14.606C20.7178 13.0014 21.5998 10.8252 21.5998 8.55598C21.5998 6.28679 20.7178 4.11055 19.1479 2.50599C17.578 0.901431 15.4488 3.38135e-08 13.2286 0H8.36189C6.29676 0.000934372 4.30496 0.782546 2.76985 2.19439C1.23474 3.60624 0.264816 5.54854 0.0467774 7.64744C-0.171261 9.74633 0.37799 11.8535 1.58881 13.5633C2.79964 15.2731 4.58646 16.4648 6.60535 16.9089ZM8.36189 1.46467H13.2371C15.081 1.46467 16.8493 2.21331 18.1532 3.54591C19.457 4.87851 20.1895 6.6859 20.1895 8.57048C20.1895 10.4551 19.457 12.2624 18.1532 13.595C16.8493 14.9276 15.081 15.6763 13.2371 15.6763H11.9573C11.8306 15.674 11.7056 15.7064 11.5953 15.7701C11.485 15.8339 11.3935 15.9267 11.3301 16.0388C10.5072 17.6398 8.99186 18.7187 7.79435 19.3655C8.06089 18.3244 8.11307 17.238 7.94758 16.1751C7.92485 16.0214 7.85438 15.8793 7.74657 15.7696C7.63876 15.6599 7.49933 15.5886 7.34883 15.5661C5.6412 15.2741 4.10179 14.3409 3.03225 12.9494C1.96271 11.5578 1.44014 9.80826 1.56692 8.04345C1.69371 6.27864 2.46072 4.62582 3.71765 3.40888C4.97459 2.19193 6.63085 1.49857 8.36189 1.46467ZM27 18.8087C26.9932 20.2505 26.5145 21.6485 25.6403 22.7802C24.7661 23.9118 23.5465 24.7119 22.1759 25.0531C22.1534 25.5351 22.211 26.0176 22.3461 26.48C22.4112 26.7013 22.4112 26.9373 22.3463 27.1586C22.2814 27.3799 22.1543 27.5769 21.9809 27.7251C21.8075 27.8733 21.5953 27.9663 21.3707 27.9924C21.1461 28.0186 20.9189 27.9768 20.7173 27.8722C19.761 27.3762 18.4982 26.5293 17.6894 25.2271H17.1673C15.9426 25.228 14.7444 24.8632 13.72 24.1773C12.6955 23.4915 11.8895 22.5146 11.4011 21.3667C11.3638 21.2793 11.3438 21.1853 11.3421 21.0899C11.3404 20.9946 11.357 20.8999 11.3912 20.8111C11.4253 20.7224 11.4762 20.6414 11.5409 20.5727C11.6057 20.5041 11.683 20.4492 11.7686 20.4111C11.9413 20.3342 12.1368 20.3305 12.3122 20.401C12.4875 20.4714 12.6283 20.6101 12.7036 20.7867C13.081 21.6761 13.7047 22.4333 14.4977 22.9651C15.2908 23.4969 16.2188 23.7801 17.1673 23.7798H18.0981C18.2265 23.7792 18.3526 23.8142 18.463 23.8812C18.5735 23.9481 18.6641 24.0444 18.7252 24.1598C19.2301 25.0518 19.9628 25.7866 20.845 26.2857C20.7326 25.6387 20.7258 24.9772 20.8251 24.328C20.8479 24.1743 20.9183 24.0321 21.0261 23.9224C21.1339 23.8128 21.2734 23.7414 21.4239 23.7189C22.4842 23.5605 23.4636 23.0486 24.21 22.2628C24.9564 21.477 25.428 20.4613 25.5516 19.3734C25.6752 18.2855 25.4438 17.1863 24.8934 16.2467C24.343 15.307 23.5044 14.5794 22.5079 14.1768C22.3636 14.0879 22.2549 13.9494 22.2014 13.7861C22.1479 13.6228 22.153 13.4453 22.2158 13.2855C22.2786 13.1257 22.3951 12.994 22.5442 12.9139C22.6934 12.8338 22.8656 12.8106 23.03 12.8485C24.2026 13.317 25.2092 14.1368 25.9176 15.2005C26.6261 16.2642 27.0034 17.5219 27 18.8087ZM7.17856 8.24274C7.2724 8.07636 7.42699 7.95482 7.6084 7.90479C7.78982 7.85477 7.98324 7.88034 8.14622 7.97591C8.76407 8.33868 9.3145 8.80994 9.77223 9.36807C10.8058 8.03082 12.028 6.85789 13.3988 5.88767C13.5535 5.77768 13.7446 5.73498 13.93 5.76897C14.1155 5.80297 14.2801 5.91087 14.3878 6.06894C14.4954 6.22702 14.5372 6.42231 14.5039 6.61187C14.4706 6.80142 14.3651 6.96971 14.2104 7.07971C12.7007 8.14851 11.3899 9.4843 10.3398 11.0242C10.2744 11.1199 10.1874 11.1982 10.0861 11.2522C9.98484 11.3062 9.87229 11.3345 9.75804 11.3345H9.72683C9.6074 11.3293 9.49119 11.2933 9.38899 11.23C9.28679 11.1666 9.20192 11.0778 9.14226 10.972C8.73444 10.2489 8.14712 9.64857 7.43963 9.23176C7.27684 9.13585 7.15792 8.97785 7.10898 8.79243C7.06003 8.60701 7.08506 8.40932 7.17856 8.24274Z" fill="#C9B462"/>
</svg>
