<svg width="41" height="41" viewBox="0 0 41 41" fill="none" xmlns="http://www.w3.org/2000/svg">
<path d="M40.5 38.7979H2.20213V0.5H0.5V40.5H40.5V38.7979Z" fill="white"/>
<path d="M8.4533 25.648C6.72749 25.648 5.32373 27.0522 5.32373 28.778C5.32373 30.5038 6.72749 31.9076 8.4533 31.9076C10.1791 31.9076 11.5833 30.5038 11.5833 28.778C11.5833 27.9075 11.2248 27.1203 10.6492 26.5524L14.322 19.8776C14.5488 19.9301 14.7824 19.964 15.0249 19.964C15.7439 19.964 16.3989 19.7106 16.9279 19.3016L22.0843 23.1185C21.954 23.4625 21.8738 23.8314 21.8738 24.2206C21.8738 25.9464 23.2775 27.3502 25.0033 27.3502C26.7291 27.3502 28.1333 25.9464 28.1333 24.2206C28.1333 23.7217 28.0051 23.2563 27.7966 22.8374L35.3363 16.0025C35.8172 16.3037 36.3807 16.4854 36.9889 16.4854C38.7147 16.4854 40.1184 15.0816 40.1184 13.3558C40.1184 11.63 38.7147 10.2258 36.9889 10.2258C35.2631 10.2258 33.8589 11.63 33.8589 13.3558C33.8589 13.8547 33.9871 14.3201 34.1956 14.7391L26.6559 21.574C26.175 21.2727 25.6115 21.091 25.0033 21.091C24.2844 21.091 23.6296 21.3444 23.1006 21.7534L17.9443 17.9366C18.0748 17.5925 18.1549 17.2237 18.1549 16.8345C18.1549 15.1086 16.7508 13.7049 15.0249 13.7049C13.2991 13.7049 11.8954 15.1086 11.8954 16.8345C11.8954 17.7051 12.2539 18.4922 12.8295 19.06L9.15679 25.7346C8.92979 25.682 8.69604 25.648 8.4533 25.648ZM36.9889 11.928C37.7759 11.928 38.4163 12.5683 38.4163 13.3558C38.4163 14.1429 37.7759 14.7833 36.9889 14.7833C36.2014 14.7833 35.561 14.1429 35.561 13.3558C35.561 12.5683 36.2014 11.928 36.9889 11.928ZM25.0033 22.7931C25.7908 22.7931 26.4312 23.4335 26.4312 24.2206C26.4312 25.0077 25.7908 25.648 25.0033 25.648C24.2163 25.648 23.5759 25.0077 23.5759 24.2206C23.5759 23.4335 24.2163 22.7931 25.0033 22.7931ZM15.0249 15.407C15.8124 15.407 16.4528 16.0474 16.4528 16.8345C16.4528 17.6215 15.8124 18.2619 15.0249 18.2619C14.2379 18.2619 13.5975 17.6215 13.5975 16.8345C13.5975 16.0474 14.2379 15.407 15.0249 15.407ZM8.4533 30.2055C7.66623 30.2055 7.02586 29.5651 7.02586 28.778C7.02586 27.9905 7.66623 27.3502 8.4533 27.3502C9.24079 27.3502 9.88116 27.9905 9.88116 28.778C9.88116 29.5651 9.24079 30.2055 8.4533 30.2055Z" fill="white"/>
</svg>
