<svg width="75" height="101" viewBox="0 0 75 101" fill="none" xmlns="http://www.w3.org/2000/svg">
<path d="M9.38688e-05 37.0421C0.0218403 27.8652 3.44124 19.0215 9.59866 12.217C15.7561 5.41244 24.2153 1.12922 33.3443 0.193574C42.4734 -0.742072 51.6256 1.73615 59.0353 7.15018C66.445 12.5642 71.5873 20.5304 73.4701 29.5121C74.5341 34.45 74.5636 39.5548 73.5568 44.5047C72.5499 49.4546 70.5286 54.1422 67.6201 58.2721C64.8101 62.4421 62.1401 66.7121 59.4001 70.9321C53.8201 79.5054 48.2368 88.0621 42.6501 96.6021C41.8909 97.941 40.7143 98.9946 39.3001 99.6021C38.0758 100.086 36.723 100.136 35.4661 99.745C34.2093 99.354 33.1239 98.5449 32.3901 97.4521C30.7001 94.9921 29.0901 92.4521 27.4501 89.9821C20.9768 80.1154 14.5001 70.2321 8.02009 60.3321C6.1582 57.7141 4.52549 54.9405 3.14009 52.0421C1.05807 47.316 -0.0115384 42.2064 9.38688e-05 37.0421ZM37.1401 6.8121C31.3834 6.81411 25.7564 8.52174 20.9695 11.7194C16.1826 14.917 12.4505 19.4613 10.2443 24.7785C8.03815 30.0956 7.4569 35.9473 8.57393 41.5945C9.69097 47.2418 12.4562 52.4315 16.5205 56.5083C20.5848 60.5852 25.7659 63.3664 31.4097 64.5009C37.0535 65.6353 42.9069 65.0721 48.2309 62.8824C53.5548 60.6926 58.1106 56.9745 61.323 52.1975C64.5354 47.4205 66.2603 41.7987 66.2801 36.0421C66.2893 32.2085 65.5425 28.4108 64.0825 24.8662C62.6224 21.3215 60.4777 18.0996 57.7712 15.3847C55.0646 12.6698 51.8493 10.5152 48.3092 9.04419C44.7691 7.57321 40.9737 6.81472 37.1401 6.8121Z" fill="#FF2525"/>
</svg>
