<svg width="40" height="40" viewBox="0 0 40 40" fill="none" xmlns="http://www.w3.org/2000/svg">
<path d="M4.60376 32.7356C4.71289 32.8673 4.87244 32.9468 5.04326 32.9545C5.05275 32.9551 5.06165 32.9551 5.07114 32.9551C5.23187 32.9551 5.38667 32.8916 5.50055 32.7772L18.6499 19.6278C18.7638 19.5139 18.8279 19.3597 18.8279 19.1984V0.607771C18.8279 0.436954 18.7561 0.273847 18.6298 0.158783C18.5034 0.0443117 18.3379 -0.0138136 18.1642 0.00279363C7.80896 0.963641 0 9.54246 0 19.9576C0 24.6218 1.63522 29.1598 4.60376 32.7356ZM17.6132 1.2857V18.9469L5.12155 31.4385C2.59725 28.1663 1.2147 24.1153 1.2147 19.9576C1.2147 10.3977 8.21821 2.48498 17.6132 1.2857Z" fill="white"/>
<path d="M39.3924 21.1721H20.7952C20.6339 21.1721 20.4797 21.2362 20.3658 21.3501L7.21703 34.4935C7.09603 34.6139 7.03198 34.78 7.03969 34.9508C7.0474 35.1216 7.12687 35.2811 7.25855 35.3903C10.8392 38.363 15.3789 40 20.0426 40C30.4571 40 39.0359 32.191 39.9973 21.8358C40.0127 21.6656 39.9564 21.4966 39.8413 21.3702C39.7263 21.2439 39.5632 21.1721 39.3924 21.1721ZM20.0426 38.7853C15.8854 38.7853 11.8327 37.4004 8.55569 34.8731L21.0467 22.3868H38.7144C37.5145 31.7818 29.6018 38.7853 20.0426 38.7853Z" fill="white"/>
<path d="M21.921 0.00263705C21.7466 -0.0133771 21.5818 0.0441552 21.4554 0.158626C21.3291 0.273691 21.2573 0.436798 21.2573 0.607615V18.1354C21.2573 18.4711 21.529 18.7427 21.8647 18.7427H39.3924C39.5632 18.7427 39.7263 18.6709 39.8414 18.5446C39.9565 18.4183 40.0128 18.2492 39.9974 18.079C39.1065 8.49546 31.5046 0.893496 21.921 0.00263705ZM22.472 17.528V1.28555C30.9387 2.37451 37.6255 9.06129 38.7145 17.528H22.472Z" fill="white"/>
</svg>
