<svg width="26" height="30" viewBox="0 0 26 30" fill="none" xmlns="http://www.w3.org/2000/svg">
<path d="M0.992647 0.887036C0.797715 0.908436 0.617878 1.002 0.488582 1.1493C0.359285 1.2966 0.289909 1.48695 0.294127 1.68282V28.323C0.292657 28.4268 0.311858 28.5299 0.350613 28.6262C0.389368 28.7226 0.446906 28.8103 0.519881 28.8842C0.592856 28.9581 0.679813 29.0168 0.7757 29.0569C0.871587 29.097 0.97449 29.1176 1.07843 29.1176C1.18237 29.1176 1.28527 29.097 1.38116 29.0569C1.47705 29.0168 1.564 28.9581 1.63698 28.8842C1.70995 28.8103 1.76749 28.7226 1.80625 28.6262C1.845 28.5299 1.8642 28.4268 1.86273 28.323V23.6218H6.1764V24.0135C6.1764 25.0852 7.06447 25.9724 8.13716 25.9724C9.20985 25.9724 10.0979 25.0852 10.0979 24.0135V23.6218H10.8822V24.0135C10.8822 25.0852 11.7703 25.9724 12.843 25.9724C13.9157 25.9724 14.8037 25.0852 14.8037 24.0135V23.6218H15.588V24.0135C15.588 25.0852 16.4761 25.9724 17.5488 25.9724C18.6215 25.9724 19.5096 25.0852 19.5096 24.0135V23.6218H23.8232V28.323C23.8218 28.4268 23.841 28.5299 23.8797 28.6262C23.9185 28.7226 23.976 28.8103 24.049 28.8842C24.122 28.9581 24.2089 29.0168 24.3048 29.0569C24.4007 29.097 24.5036 29.1176 24.6075 29.1176C24.7115 29.1176 24.8144 29.097 24.9103 29.0569C25.0061 29.0168 25.0931 28.9581 25.1661 28.8842C25.239 28.8103 25.2966 28.7226 25.3353 28.6262C25.3741 28.5299 25.3933 28.4268 25.3918 28.323V1.68282C25.3942 1.57127 25.3728 1.4605 25.3289 1.35792C25.285 1.25533 25.2197 1.16329 25.1373 1.08795C25.0549 1.01261 24.9574 0.955722 24.8512 0.921072C24.7451 0.886423 24.6327 0.87482 24.5217 0.887036C24.3268 0.908436 24.147 1.002 24.0177 1.1493C23.8884 1.2966 23.819 1.48695 23.8232 1.68282V6.38401H17.1566V5.99224C17.1566 4.9206 16.2686 4.03341 15.1959 4.03341C14.1232 4.03341 13.2351 4.9206 13.2351 5.99224V6.38401H12.4508V5.99224C12.4508 4.9206 11.5628 4.03341 10.4901 4.03341C9.41737 4.03341 8.52931 4.9206 8.52931 5.99224V6.38401H1.86273V1.68282C1.86514 1.57127 1.84367 1.4605 1.79978 1.35792C1.75588 1.25533 1.69056 1.16329 1.60819 1.08795C1.52582 1.01261 1.4283 0.955722 1.32214 0.921072C1.21599 0.886423 1.10365 0.87482 0.992647 0.887036ZM10.4901 5.60049C10.7209 5.60049 10.8822 5.76165 10.8822 5.99224V8.34283C10.8822 8.57342 10.7209 8.73461 10.4901 8.73461C10.2592 8.73461 10.0979 8.57342 10.0979 8.34283V5.99224C10.0979 5.76165 10.2592 5.60049 10.4901 5.60049ZM15.1959 5.60049C15.4267 5.60049 15.588 5.76165 15.588 5.99224V8.34283C15.588 8.57342 15.4267 8.73461 15.1959 8.73461C14.9651 8.73461 14.8037 8.57342 14.8037 8.34283V5.99224C14.8037 5.76165 14.9651 5.60049 15.1959 5.60049ZM1.86273 7.95108H8.52931V8.34283C8.52931 9.41448 9.41737 10.3017 10.4901 10.3017C11.5628 10.3017 12.4508 9.41448 12.4508 8.34283V7.95108H13.2351V8.34283C13.2351 9.41448 14.1232 10.3017 15.1959 10.3017C16.2686 10.3017 17.1566 9.41448 17.1566 8.34283V7.95108H23.8232V14.2194H21.8625V13.8276C21.8625 12.7559 20.9744 11.8687 19.9017 11.8687C18.829 11.8687 17.9409 12.7559 17.9409 13.8276V14.2194H17.1566V13.8276C17.1566 12.7559 16.2686 11.8687 15.1959 11.8687C14.1232 11.8687 13.2351 12.7559 13.2351 13.8276V14.2194H12.4508V13.8276C12.4508 12.7559 11.5628 11.8687 10.4901 11.8687C9.41737 11.8687 8.52931 12.7559 8.52931 13.8276V14.2194H7.74501V13.8276C7.74501 12.7559 6.85694 11.8687 5.78425 11.8687C4.71156 11.8687 3.82349 12.7559 3.82349 13.8276V14.2194H1.86273V7.95108ZM5.78425 13.4358C6.01507 13.4358 6.1764 13.597 6.1764 13.8276V16.1782C6.1764 16.4088 6.01507 16.57 5.78425 16.57C5.55343 16.57 5.3921 16.4088 5.3921 16.1782V13.8276C5.3921 13.597 5.55343 13.4358 5.78425 13.4358ZM10.4901 13.4358C10.7209 13.4358 10.8822 13.597 10.8822 13.8276V16.1782C10.8822 16.4088 10.7209 16.57 10.4901 16.57C10.2592 16.57 10.0979 16.4088 10.0979 16.1782V13.8276C10.0979 13.597 10.2592 13.4358 10.4901 13.4358ZM15.1959 13.4358C15.4267 13.4358 15.588 13.597 15.588 13.8276V16.1782C15.588 16.4088 15.4267 16.57 15.1959 16.57C14.9651 16.57 14.8037 16.4088 14.8037 16.1782V13.8276C14.8037 13.597 14.9651 13.4358 15.1959 13.4358ZM19.9017 13.4358C20.1325 13.4358 20.2939 13.597 20.2939 13.8276V16.1782C20.2939 16.4088 20.1325 16.57 19.9017 16.57C19.6709 16.57 19.5096 16.4088 19.5096 16.1782V13.8276C19.5096 13.597 19.6709 13.4358 19.9017 13.4358ZM1.86273 15.7864H3.82349V16.1782C3.82349 17.2498 4.71156 18.137 5.78425 18.137C6.85694 18.137 7.74501 17.2498 7.74501 16.1782V15.7864H8.52931V16.1782C8.52931 17.2498 9.41737 18.137 10.4901 18.137C11.5628 18.137 12.4508 17.2498 12.4508 16.1782V15.7864H13.2351V16.1782C13.2351 17.2498 14.1232 18.137 15.1959 18.137C16.2686 18.137 17.1566 17.2498 17.1566 16.1782V15.7864H17.9409V16.1782C17.9409 17.2498 18.829 18.137 19.9017 18.137C20.9744 18.137 21.8625 17.2498 21.8625 16.1782V15.7864H23.8232V22.0547H19.5096V21.6629C19.5096 20.5913 18.6215 19.7041 17.5488 19.7041C16.4761 19.7041 15.588 20.5913 15.588 21.6629V22.0547H14.8037V21.6629C14.8037 20.5913 13.9157 19.7041 12.843 19.7041C11.7703 19.7041 10.8822 20.5913 10.8822 21.6629V22.0547H10.0979V21.6629C10.0979 20.5913 9.20985 19.7041 8.13716 19.7041C7.06447 19.7041 6.1764 20.5913 6.1764 21.6629V22.0547H1.86273V15.7864ZM8.13716 21.2711C8.36798 21.2711 8.52931 21.4323 8.52931 21.6629V24.0135C8.52931 24.2441 8.36798 24.4053 8.13716 24.4053C7.90634 24.4053 7.74501 24.2441 7.74501 24.0135V21.6629C7.74501 21.4323 7.90634 21.2711 8.13716 21.2711ZM12.843 21.2711C13.0738 21.2711 13.2351 21.4323 13.2351 21.6629V24.0135C13.2351 24.2441 13.0738 24.4053 12.843 24.4053C12.6122 24.4053 12.4508 24.2441 12.4508 24.0135V21.6629C12.4508 21.4323 12.6122 21.2711 12.843 21.2711ZM17.5488 21.2711C17.7796 21.2711 17.9409 21.4323 17.9409 21.6629V24.0135C17.9409 24.2441 17.7796 24.4053 17.5488 24.4053C17.318 24.4053 17.1566 24.2441 17.1566 24.0135V21.6629C17.1566 21.4323 17.318 21.2711 17.5488 21.2711Z" fill="#C9B462"/>
</svg>
