<svg xmlns="http://www.w3.org/2000/svg" viewBox="0 0 63.96 52.91"><defs><style>.cls-1{fill:#532674;fill-rule:evenodd;}</style></defs><title>Asset 1</title><g id="Layer_2" data-name="Layer 2"><g id="Layer_1-2" data-name="Layer 1"><path class="cls-1" d="M30,27.45l-2.36-5.92-6.18-2.16,5,13.9-1.69,3.22L18.22,18.23l-7-2.43L21,42.7c-1.08-.19-2.75-.12-3.91-3.32L8.34,15,0,12.06,7.48,33.59C10.26,41.84,12.58,49.06,23,49.06c4.78,0,7.05-2.88,8.74-6.31L49.21,7.23C47.08,4.57,45.1,2.05,43.55,0L30,27.45Zm29-8.12-15.74,30a5.31,5.31,0,0,1-3,2.49c6.86,1.59,9.2,1.55,10.62-1.23L64,25.24c-1.16-1.39-2.89-3.47-4.91-5.92ZM29,50.06c5.67,1.32,9.16,2.46,11.22-1.48L56.9,16.71c-1.79-2.18-3.7-4.51-5.56-6.82L34,45a13.58,13.58,0,0,1-5,5Z"/></g></g></svg>