<?xml version="1.0" encoding="UTF-8" standalone="no"?>
<svg
   xmlns:dc="http://purl.org/dc/elements/1.1/"
   xmlns:cc="http://creativecommons.org/ns#"
   xmlns:rdf="http://www.w3.org/1999/02/22-rdf-syntax-ns#"
   xmlns:svg="http://www.w3.org/2000/svg"
   xmlns="http://www.w3.org/2000/svg"
   viewBox="0 0 280.53333 70.546669"
   height="70.546669"
   width="280.53333"
   xml:space="preserve"
   id="svg2"
   version="1.1"><metadata
     id="metadata8"><rdf:RDF><cc:Work
         rdf:about=""><dc:format>image/svg+xml</dc:format><dc:type
           rdf:resource="http://purl.org/dc/dcmitype/StillImage" /></cc:Work></rdf:RDF></metadata><defs
     id="defs6" /><g
     transform="matrix(1.3333333,0,0,-1.3333333,0,70.546667)"
     id="g10"><g
       transform="scale(0.1)"
       id="g12"><path
         id="path14"
         style="fill:#4b287c;fill-opacity:1;fill-rule:evenodd;stroke:none"
         d="M 290.004,28.4492 C 346.715,15.2305 381.578,3.84375 402.203,43.2461 L 569.039,361.969 c -17.875,21.758 -36.957,45.133 -55.578,68.195 L 340.445,78.6328 C 323.754,53.0508 310.016,39.6172 290.004,28.4492 Z M 590.559,335.832 433.152,35.5078 C 427.156,24.0664 417.273,15.8672 403.438,10.6016 472.059,-5.32813 495.461,-4.89063 509.664,22.8555 L 639.641,276.672 c -11.578,13.883 -28.922,34.73 -49.082,59.16 z m -290.391,-81.23 -23.648,59.214 -61.836,21.641 50.062,-138.977 -16.91,-32.175 -65.59,182.5 -69.598,24.351 97.711,-269.051 c -10.816,1.887 -27.496,1.161 -39.066,33.231 L 83.3789,378.895 0,408.445 74.7578,193.207 C 102.57,110.676 125.816,38.4492 230.004,38.4492 c 47.832,0 70.519,28.7539 87.406,63.0858 l 174.672,355.231 c -21.293,26.625 -41.051,51.777 -56.535,72.308 L 300.168,254.602 v 0" /><path
         id="path16"
         style="fill:#4b287c;fill-opacity:1;fill-rule:nonzero;stroke:none"
         d="M 881.746,291.781 826.395,105.207 H 784 l -56.961,186.574 h 38.34 l 40.496,-154.98 39.426,154.98 h 36.445" /><path
         id="path18"
         style="fill:#4b287c;fill-opacity:1;fill-rule:nonzero;stroke:none"
         d="M 936.012,248.039 V 105.207 h -34.559 v 142.832 z m -1.758,66.285 c 4.055,-4.054 6.074,-9.047 6.074,-14.984 0,-5.945 -2.019,-10.895 -6.074,-14.856 -4.051,-3.953 -9.316,-5.937 -15.789,-5.937 -6.309,0 -11.477,1.984 -15.527,5.937 -4.055,3.961 -6.075,8.911 -6.075,14.856 0,5.937 2.02,10.93 6.075,14.984 4.05,4.047 9.218,6.074 15.527,6.074 6.473,0 11.738,-2.027 15.789,-6.074" /><path
         id="path20"
         style="fill:#4b287c;fill-opacity:1;fill-rule:nonzero;stroke:none"
         d="m 1049.96,131.801 c 4.68,2.969 9.08,7.605 13.22,13.906 v 65.34 c -4.14,5.039 -8.32,8.82 -12.55,11.34 -4.24,2.519 -9.14,3.777 -14.72,3.777 -9.17,0 -16.42,-4.09 -21.73,-12.285 -5.32,-8.191 -7.96,-20.566 -7.96,-37.117 0,-17.649 2.33,-30.293 7.01,-37.942 4.69,-7.644 11.52,-11.472 20.53,-11.472 6.11,0 11.51,1.484 16.2,4.453 z m 47.78,173.476 v -200.07 h -30.51 l -2.43,18.086 c -4.5,-6.836 -10.21,-12.234 -17.14,-16.191 -6.93,-3.965 -14.81,-5.946 -23.63,-5.946 -17.46,0 -30.87,6.746 -40.225,20.254 -9.364,13.496 -14.043,31.856 -14.043,55.078 0,14.578 2.336,27.578 7.023,39.012 4.676,11.426 11.375,20.391 20.117,26.867 8.728,6.485 18.848,9.727 30.368,9.727 13.68,0 25.66,-5.137 35.91,-15.391 v 72.352 l 34.56,-3.778" /><path
         id="path22"
         style="fill:#4b287c;fill-opacity:1;fill-rule:nonzero;stroke:none"
         d="m 1210.88,143.82 v 28.887 h -14.32 c -22.32,0 -33.48,-8.281 -33.48,-24.844 0,-6.836 1.71,-12.148 5.13,-15.925 3.42,-3.782 8.46,-5.665 15.13,-5.665 11.69,0 20.87,5.84 27.54,17.547 z m 36.58,-13.093 c 1.71,-2.618 4.45,-4.641 8.23,-6.075 l -7.29,-22.949 c -8.1,0.711 -14.71,2.695 -19.84,5.938 -5.14,3.242 -9.05,8.183 -11.75,14.843 -4.86,-7.199 -10.93,-12.55 -18.22,-16.066 -7.29,-3.504 -15.44,-5.262 -24.44,-5.262 -14.22,0 -25.47,4.051 -33.75,12.149 -8.28,8.105 -12.41,18.718 -12.41,31.863 0,15.48 5.62,27.316 16.87,35.508 11.24,8.183 27.3,12.285 48.19,12.285 h 17.83 v 8.098 c 0,9.179 -2.12,15.613 -6.35,19.304 -4.23,3.684 -11.03,5.539 -20.39,5.539 -10.44,0 -23.04,-2.531 -37.8,-7.558 l -8.1,23.484 c 17.82,6.836 35.11,10.266 51.84,10.266 36.54,0 54.81,-16.387 54.81,-49.141 v -59.941 c 0,-5.586 0.86,-9.68 2.57,-12.285" /><path
         id="path24"
         style="fill:#4b287c;fill-opacity:1;fill-rule:nonzero;stroke:none"
         d="m 1371.52,249.926 -5.94,-33.477 c -4.31,1.082 -8.55,1.621 -12.68,1.621 -8.47,0 -15.13,-3.019 -19.98,-9.043 -4.87,-6.035 -8.74,-15.254 -11.61,-27.675 v -76.145 h -34.57 v 142.832 h 29.98 l 3.24,-28.086 c 3.42,10.266 8.37,18.137 14.84,23.633 6.49,5.488 13.95,8.234 22.41,8.234 5.22,0 9.99,-0.636 14.31,-1.894" /><path
         id="path26"
         style="fill:#5cc475;fill-opacity:1;fill-rule:nonzero;stroke:none"
         d="m 1502.07,290.293 c 9.45,-3.699 18.4,-9.137 26.86,-16.336 l -19.17,-19.98 c -6.66,5.214 -12.92,9.003 -18.77,11.339 -5.85,2.344 -12.64,3.516 -20.38,3.516 -14.4,0 -26.19,-5.762 -35.37,-17.285 -9.18,-11.524 -13.77,-29.16 -13.77,-52.922 0,-24.832 3.64,-42.754 10.94,-53.73 7.28,-10.977 18.4,-16.465 33.34,-16.465 11.34,0 21.24,2.433 29.7,7.285 v 48.605 h -28.08 l -3.78,26.453 h 66.96 v -91.257 c -20.16,-12.239 -41.58,-18.36 -64.25,-18.36 -26.65,0 -47.04,8.282 -61.17,24.844 -14.13,16.551 -21.19,40.77 -21.19,72.625 0,20.344 3.82,37.844 11.48,52.52 7.64,14.668 17.95,25.781 30.91,33.339 12.96,7.567 27.36,11.344 43.2,11.344 12.24,0 23.08,-1.848 32.54,-5.535" /><path
         id="path28"
         style="fill:#5cc475;fill-opacity:1;fill-rule:nonzero;stroke:none"
         d="m 1650.15,249.926 -5.93,-33.477 c -4.32,1.082 -8.56,1.621 -12.69,1.621 -8.47,0 -15.13,-3.019 -19.98,-9.043 -4.86,-6.035 -8.74,-15.254 -11.61,-27.675 v -76.145 h -34.56 v 142.832 h 29.97 l 3.24,-28.086 c 3.42,10.266 8.37,18.137 14.84,23.633 6.49,5.488 13.95,8.234 22.42,8.234 5.21,0 9.99,-0.636 14.3,-1.894" /><path
         id="path30"
         style="fill:#5cc475;fill-opacity:1;fill-rule:nonzero;stroke:none"
         d="m 1690.92,176.762 c 0,-16.926 2.57,-29.395 7.7,-37.403 5.14,-8.007 12.83,-12.011 23.09,-12.011 10.26,0 17.95,4.05 23.08,12.148 5.13,8.106 7.7,20.527 7.7,37.266 0,16.738 -2.57,29.109 -7.7,37.117 -5.13,8.008 -12.73,12.023 -22.81,12.023 -20.7,0 -31.06,-16.386 -31.06,-49.14 z m 80.34,55.215 c 11.78,-13.418 17.68,-31.817 17.68,-55.215 0,-14.942 -2.7,-28.125 -8.1,-39.563 -5.4,-11.426 -13.15,-20.293 -23.23,-26.59 -10.07,-6.3 -22.05,-9.453 -35.9,-9.453 -21.06,0 -37.53,6.707 -49.41,20.117 -11.88,13.407 -17.82,31.903 -17.82,55.489 0,14.929 2.69,28.074 8.09,39.414 5.41,11.347 13.19,20.156 23.36,26.465 10.17,6.297 22.18,9.453 36.05,9.453 21.05,0 37.48,-6.711 49.28,-20.117" /><path
         id="path32"
         style="fill:#5cc475;fill-opacity:1;fill-rule:nonzero;stroke:none"
         d="m 1935.54,105.207 h -29.97 l -1.88,19.981 c -5.23,-8.094 -11.39,-14.129 -18.5,-18.086 -7.12,-3.965 -15.53,-5.946 -25.24,-5.946 -12.79,0 -22.65,3.914 -29.57,11.746 -6.94,7.832 -10.39,18.672 -10.39,32.539 v 102.598 h 34.56 v -98.281 c 0,-8.106 1.38,-13.867 4.18,-17.285 2.79,-3.418 7.24,-5.125 13.37,-5.125 10.97,0 20.6,6.746 28.88,20.254 v 100.437 h 34.56 V 105.207" /><path
         id="path34"
         style="fill:#5cc475;fill-opacity:1;fill-rule:nonzero;stroke:none"
         d="m 2067.85,176.762 c 0,17.449 -2.26,30.058 -6.76,37.793 -4.5,7.742 -11.25,11.609 -20.24,11.609 -5.77,0 -11.17,-1.746 -16.2,-5.262 -5.04,-3.507 -9.37,-8.234 -12.96,-14.172 v -64.265 c 6.66,-9.895 15.39,-14.844 26.19,-14.844 19.98,0 29.97,16.375 29.97,49.141 z m 23.21,55.613 c 8.64,-13.133 12.96,-31.59 12.96,-55.352 0,-14.753 -2.2,-27.851 -6.61,-39.277 -4.42,-11.433 -10.89,-20.391 -19.44,-26.863 -8.55,-6.485 -18.68,-9.727 -30.38,-9.727 -15.11,0 -27.09,5.223 -35.9,15.664 V 50.1289 l -34.56,-3.7773 V 248.039 h 30.23 l 1.89,-17.547 c 5.58,7.196 11.98,12.598 19.17,16.199 7.2,3.594 14.76,5.403 22.68,5.403 18,0 31.33,-6.582 39.96,-19.719" /></g></g></svg>