<svg width="0" height="0" class="hidden">
    <symbol xmlns="http://www.w3.org/2000/svg" xmlns:xlink="http://www.w3.org/1999/xlink" viewBox="0 0 70.87 66.32" id="icon-chat">
        <path d="M35.59,54.29V40.15H51.1a6,6,0,0,0,5.63-5.63V29.35H66.91c.51,0,1.06.27,1.06.76,0,3.45.24,23.57-.15,25.24-2.82,1.35-6.27-1.65-6.24,2.58,0,1,0,2,0,3a24.69,24.69,0,0,1-1.89-2.06l-2.94-3.14c-.64-.28-16.39-.12-18.44-.11-1.66,0-2.74.33-2.74-1.37ZM11.1,50.79V38.48c-.43-3.17-8.2,1.31-8.2-4.12V5.78A2.56,2.56,0,0,1,5.78,2.89h45a2.76,2.76,0,0,1,3,3V26.47c0,.88-.17,1.15-.16,2.12,0,2.53.48,7.25-1.08,8.2-1.41.86-6.48.48-8.8.48-2.11,0-17.55-.21-18.25.15l-7.18,6.66c-.84.85-1.6,1.44-2.43,2.28L11.1,50.79ZM0,5.47V34.37a5.87,5.87,0,0,0,5.63,5.78H8.21V54.29a1.38,1.38,0,0,0,1.52,1.37c1,0,2.67-2,3.38-2.7l5.35-5c.86-.66,1.34-1.3,2.1-2,.41-.38.64-.48,1.07-.91l3.19-3c2.51-2.51,1.59-1.86,7.87-1.86V54.59a4.29,4.29,0,0,0,1.91,3.26c1.34.93,2.52.69,4.63.69H49.73c1.64,0,3.58-.1,5.18,0,1,.05,1,.64,2.16,1.8l3.06,3.47c.43.56.76.77,1.22,1.37,1.67,2.17,3.13.76,3.13-.24V58.55c2.17,0,3.6.29,5.14-1.25a3.85,3.85,0,0,0,1.25-2.86V30.11c0-1.82-2-3.65-4.11-3.65h-10V5.63A6.06,6.06,0,0,0,51.1,0H5.47A5.9,5.9,0,0,0,0,5.47Z"/>
        <path d="M8.21,15.21a1.37,1.37,0,0,0,1.37,1.37H47.14c1.85,0,1.81-2.89-.15-2.89H9.73a1.5,1.5,0,0,0-1.52,1.52Z"/>
        <path d="M12.93,23a1.33,1.33,0,0,0,.71,1.42,3.93,3.93,0,0,0,1.42.25H42a2,2,0,0,0,1.19-.33,1.49,1.49,0,0,0-.89-2.72H14.45A1.45,1.45,0,0,0,12.93,23Z"/>
    </symbol>

    <symbol xmlns="http://www.w3.org/2000/svg" xmlns:xlink="http://www.w3.org/1999/xlink" viewBox="0 0 70.87 48.02" id="icon-email">
        <path d="M67.43,0h-64A3.44,3.44,0,0,0,0,3.43V44.58A3.43,3.43,0,0,0,3.43,48h64a3.43,3.43,0,0,0,3.43-3.43V3.43A3.44,3.44,0,0,0,67.43,0Zm-.88,2.29L35.43,28.24,4.3,2.29ZM2.29,44.43V3.59L26.78,24,2.29,44.43Zm2,1.3L28.57,25.5l6.86,5.72L42.3,25.5,66.57,45.73Zm64.3-1.3L44.08,24,68.59,3.59V44.43Z"/>
    </symbol>

    <symbol xmlns="http://www.w3.org/2000/svg" xmlns:xlink="http://www.w3.org/1999/xlink" viewBox="0 0 70.87 62.91" id="icon-phone">
        <path d="M44.43,55.42a2.32,2.32,0,0,1-1.79-3.87A2.3,2.3,0,0,1,46.69,53a2.27,2.27,0,0,1-2.26,2.43ZM67.82,44.76a12.33,12.33,0,0,0,.26,1.68,11.92,11.92,0,0,1-.9,6.67c-3.91,8.05-9.46,6.17-9.46,8.39,0,3.38,5.93-.3,6.88-1A15.18,15.18,0,0,0,70.87,49V47.48a16,16,0,0,0-.31-2.41c-.53-2.57-2.74-1.42-2.74-.31ZM0,16c.07.91.35,1.75,1.38,1.75,1.36,0,1.37-1.37,1.27-2.23A13.49,13.49,0,0,1,4.1,9.28C7.44,2.74,14,2.91,14.64,2.38S16.2-1.56,9.71.9a14.68,14.68,0,0,0-4.76,3,17.7,17.7,0,0,0-1.86,2A14.58,14.58,0,0,0,0,14.45V16ZM62.84,48.36A7.35,7.35,0,0,1,58.25,55c-1.28.52-2.06.37-2.06,2A1.36,1.36,0,0,0,57.56,58c1.63-.06,4.34-1.82,5.6-3.37a6.82,6.82,0,0,0,.54-.71,10,10,0,0,0,1.64-8.07,1.46,1.46,0,0,0-1.39-1.24c-1.77,0-1.11,2.21-1.11,3.74ZM5.26,15c0,3.56,2.51,2.64,2.74,1.22s-.32-2.72,1-4.79a7.73,7.73,0,0,1,3-2.84,8.41,8.41,0,0,1,2.21-.7c3-.56,1.35-2.71.75-2.71A9.58,9.58,0,0,0,8,8.32,10.61,10.61,0,0,0,5.26,15Zm24.22,7.7,5-2.12,4.22,9.84,3.63-4.22L40.76,40.9,28.05,33.46l6.09-.35L29.47,22.7Zm-12-6.59c0-1.08.49-1.05,2.16-1.72,2.2-.88,17.51-7.14,18.05-7.14.81,0,1.06,1.06,1.33,1.72l10,24.78C49.45,35,52.46,42.2,52.46,43s-.55.92-1.19,1.17l-1.78.71L35.37,50.51c-.78.33-2.89,1.41-3.62,1-.48-.29-2.77-6.37-3-7-1.9-4.77-3.76-9.39-5.65-14.14-.32-.81-5.66-13.78-5.66-14.28Zm-6.37-2.77c0,1.81,1.65,5.17,2.35,6.92L26,51.66c.63,1.59,3.09,8.16,3.93,9.35a3.68,3.68,0,0,0,1.21,1c1.93,1.06,3.62,0,5.54-.75l18-7.22c2-.8,5.66-1.68,5.66-4.45,0-1.92-.31-2.1-1.09-4L43,5.08C42,2.56,41.52.33,38.34.33,37.15.33,32.4,2.43,31,3c-2.38,1-4.79,1.94-7.2,2.91C21.67,6.75,15,9.32,13.1,10.25a3.6,3.6,0,0,0-1.36,1.13,4.27,4.27,0,0,0-.67,2Z"/>
    </symbol>
</svg>