<?xml version="1.0" encoding="utf-8"?>
<!-- Generator: Adobe Illustrator 21.1.0, SVG Export Plug-In . SVG Version: 6.00 Build 0)  -->
<svg version="1.1" id="Layer_1" xmlns="http://www.w3.org/2000/svg" xmlns:xlink="http://www.w3.org/1999/xlink" x="0px" y="0px"
	 viewBox="0 0 32 32" style="enable-background:new 0 0 32 32;" xml:space="preserve">
<style type="text/css">
	.st0{fill:#FFFFFF;}
	.st1{fill:#F3F3F3;}
	.st2{fill:#274965;}
</style>
<g>
	<g>
		<rect x="0.5" y="0.5" class="st0" width="31" height="31"/>
		<path class="st1" d="M31,1v30H1V1H31 M32,0h-1H1H0v1v30v1h1h30h1v-1V1V0L32,0z"/>
	</g>
	<g>
		<g>
			<path class="st2" d="M13.2,19.3c1.2-1.5,2.4-2.9,3.6-4.3c1.8-2.2,3.7-4.4,5.5-6.6c0.8-1,2.1-1.1,3-0.4c0.9,0.7,1,2,0.2,2.9
				c-3.5,4.3-7.1,8.5-10.6,12.7c-1,1.1-2.4,1.1-3.3,0c-1.7-2-3.4-4-5-6.1c-0.8-0.9-0.7-2.2,0.2-2.9C7.6,13.9,8.9,14,9.7,15
				C10.8,16.4,12,17.8,13.2,19.3z"/>
		</g>
	</g>
</g>
</svg>
