<?xml version="1.0" encoding="utf-8"?>
<!-- Generator: Adobe Illustrator 21.1.0, SVG Export Plug-In . SVG Version: 6.00 Build 0)  -->
<svg version="1.1" id="Layer_1" xmlns="http://www.w3.org/2000/svg" xmlns:xlink="http://www.w3.org/1999/xlink" x="0px" y="0px"
	 viewBox="0 0 97 97" style="enable-background:new 0 0 97 97;" xml:space="preserve">
<style type="text/css">
	.st0{fill:#FFFFFF;}
	.st1{fill:#274966;}
	.st2{fill:#7DA1BA;}
	.st3{fill:#6BADD1;}
	.st4{fill:#ABB2C1;}
	.st5{fill:#D8DBE1;}
	.st6{fill:#2E3544;}
	.st7{fill:#0399AF;}
	.st8{fill:#E9F0F3;}
	.st9{fill:#E0DAD5;}
	.st10{fill:#C1BAB6;}
</style>
<g>
	<g>
		<rect x="12.1" class="st0" width="72.8" height="97"/>
		<rect x="18.2" y="84.9" class="st1" width="36.4" height="1.5"/>
		<rect x="18.2" y="81.1" class="st1" width="60.6" height="1.5"/>
		<rect x="18.2" y="77.3" class="st1" width="60.6" height="1.5"/>
		<rect x="18.2" y="73.5" class="st1" width="60.6" height="1.5"/>
		<rect x="18.2" y="69.7" class="st1" width="60.6" height="1.5"/>
		<rect x="18.2" y="65.9" class="st1" width="60.6" height="1.5"/>
		<rect x="18.2" y="62.1" class="st2" width="18.2" height="1.5"/>
		<rect x="18.2" y="54.6" class="st1" width="30.3" height="1.5"/>
		<rect x="18.2" y="50.8" class="st1" width="60.6" height="1.5"/>
		<rect x="18.2" y="47" class="st1" width="60.6" height="1.5"/>
		<rect x="18.2" y="43.2" class="st2" width="18.2" height="1.5"/>
		<rect x="48.5" y="34.1" class="st1" width="18.2" height="1.5"/>
		<rect x="48.5" y="30.3" class="st1" width="30.3" height="1.5"/>
		<rect x="48.5" y="26.5" class="st2" width="24.3" height="1.5"/>
		<rect x="48.5" y="18.9" class="st1" width="12.1" height="1.5"/>
		<rect x="48.5" y="15.2" class="st1" width="30.3" height="1.5"/>
		<rect x="48.5" y="11.4" class="st2" width="18.2" height="1.5"/>
		<rect x="18.2" y="6.1" class="st3" width="60.6" height="3"/>
		<rect x="18.2" y="11.4" class="st4" width="26.5" height="28"/>
	</g>
	<path class="st5" d="M12.1,12.1v36.4c5.5,7.4,14.3,12.1,24.3,12.1c7.3,0,14-2.6,19.3-6.9l3.7,3.7c-0.5,2,0,4.3,1.6,5.9l24,24.1
		V70.1L69.5,54.6c-1.6-1.6-3.8-2.1-5.9-1.6l-3.7-3.7c4.2-5.2,6.8-11.8,6.8-19.1C66.7,13.6,53.1,0,36.4,0C26.5,0,17.7,4.8,12.1,12.1z
		"/>
	<g>
		<polygon class="st6" points="61.3,50.8 55.2,50.8 56.8,52.3 62.8,52.3 		"/>
		<path class="st6" d="M60.2,35.6h6.1c0.1-0.5,0.2-1,0.2-1.5h-6.1C60.3,34.6,60.3,35.1,60.2,35.6z"/>
		<polygon class="st6" points="76.1,67.4 78.8,67.4 78.8,65.9 74.6,65.9 		"/>
		<polygon class="st6" points="78.4,69.7 78.8,70.1 78.8,69.7 		"/>
		<path class="st6" d="M60.6,18.9h-2.2c0.2,0.5,0.4,1,0.6,1.5h1.6V18.9z"/>
		<path class="st6" d="M61.7,47h-6.1c-0.3,0.5-0.7,1-1.1,1.5h6.1C61,48,61.4,47.5,61.7,47z"/>
		<path class="st6" d="M57.4,16.7h6.1c-0.3-0.5-0.5-1-0.8-1.5h-6.1C56.9,15.7,57.1,16.2,57.4,16.7z"/>
		<path class="st7" d="M52,9.1H58c-1.1-1.1-2.2-2.1-3.5-3h-6.1C49.7,7,50.9,8,52,9.1z"/>
		<path class="st6" d="M46.3,56.1h2.2v-1.5C47.8,55.1,47,55.6,46.3,56.1z"/>
		<path class="st7" d="M55.1,12.9h6.1c-0.4-0.5-0.7-1-1.1-1.5H54C54.4,11.9,54.7,12.4,55.1,12.9z"/>
		<path class="st7" d="M60.5,28h6.1c0-0.5-0.1-1-0.2-1.5h-6.1C60.5,27,60.5,27.5,60.5,28z"/>
		<path class="st6" d="M60.6,31.8h6.1c0-0.5,0-1,0-1.5h-6.1C60.6,30.8,60.6,31.3,60.6,31.8z"/>
	</g>
	<g>
		<path class="st1" d="M45.6,49.7c-1.2-1.2-1.2-3.1,0-4.3c1.2-1.2,3.1-1.2,4.3,0l11.4,11.4c1.2,1.2,1.2,3.1,0,4.3
			c-1.2,1.2-3.1,1.2-4.3,0L45.6,49.7z"/>
		<path class="st6" d="M45.1,46.1c-0.6,1.1-0.4,2.6,0.5,3.6L57,61.1c1,1,2.4,1.1,3.6,0.5L45.1,46.1z"/>
		<path class="st1" d="M54.8,63.2c-2.4-2.4-2.4-6.2,0-8.6s6.2-2.4,8.6,0l31.8,32c2.4,2.4,2.4,6.2,0,8.6c-2.4,2.4-6.2,2.4-8.6,0
			L54.8,63.2z"/>
		<path class="st6" d="M88.9,93l-31.8-32c-2-2-2.3-5-1-7.3c-0.5,0.3-0.9,0.6-1.3,1c-2.4,2.4-2.4,6.2,0,8.6l31.8,32
			c2.4,2.4,6.2,2.4,8.6,0c0.4-0.4,0.7-0.8,1-1.3C93.9,95.3,90.9,94.9,88.9,93z"/>
		<circle class="st1" cx="30.3" cy="30.3" r="30.3"/>
		<circle class="st2" cx="30.3" cy="30.3" r="27.3"/>
		<path class="st7" d="M6.1,30.3c0-14.6,11.4-26.5,25.8-27.2c-0.5,0-1,0-1.5,0C15.2,3,3,15.2,3,30.3s12.2,27.3,27.3,27.3
			c0.5,0,1,0,1.5,0C17.5,56.8,6.1,44.9,6.1,30.3z"/>
	</g>
	<g>
		<path class="st8" d="M30.3,57.6c8.9,0,16.9-4.3,21.8-10.9c-2.4-0.5-5.9-0.8-11-1.8l-1.7-4.5H21.2l-1.7,4.5c-5.1,1-8.6,1.3-11,1.8
			C13.4,53.3,21.4,57.6,30.3,57.6z"/>
		<path class="st5" d="M31.8,57.6c-8.5-0.5-16-4.8-20.7-11.3c-1,0.1-1.9,0.3-2.7,0.4C14.4,54.3,23,58,31.8,57.6z"/>
		<path class="st5" d="M31.4,45.2c-0.9,0.9-1.6,1.6-2.6,2.6c0.7,0.7,1.1,1.1,1.5,1.5L30,57.6c0.1,0,0.2,0,0.3,0c0.9,0,1.7,0,2.6-0.1
			l-0.4-8.2c0.4-0.4,0.8-0.8,1.5-1.5C33.1,46.8,32.4,46.1,31.4,45.2z"/>
		<path class="st3" d="M30.3,45.2c-0.9,0.9-1.6,1.6-2.6,2.6c0.7,0.7,1.1,1.1,1.5,1.5l-0.4,8.3c0.5,0,1,0,1.4,0s1,0,1.4,0l-0.4-8.3
			c0.4-0.4,0.8-0.8,1.5-1.5C31.9,46.8,31.2,46.1,30.3,45.2z"/>
		<polygon class="st8" points="30.3,45.2 34,48.9 41,44.6 39.4,40.4 38.8,40.4 		"/>
		<path class="st5" d="M52.2,46.6c-2.4-0.5-5.9-0.8-11.1-1.7l-1.7-4.5h-0.6l-1.8,1l1.8,4.6L34,48.9l1.1,0.3l6-3.4
			c4.5,0.7,7.5,1.5,9.6,2.6C51.3,47.8,51.7,47.2,52.2,46.6z"/>
		<polygon class="st9" points="21.8,33.5 21.8,40.4 30.3,45.2 38.8,40.4 38.8,33.5 		"/>
		<polygon class="st10" points="36.6,41.6 38.8,40.4 38.8,33.5 36.6,33.5 		"/>
		<path class="st9" d="M44,19.9c0-8.6-5.7-13.6-13.6-13.6c-7.5,0-13.6,4.7-13.6,13.5c0,0,0,0.1,0,0.1c0,9,6.1,18.8,13.6,18.8
			C37.9,38.6,44,28.8,44,19.9z"/>
		<path class="st10" d="M30.3,6.3c-0.6,0-1.1,0-1.7,0.1c7,0.7,11.9,5.6,11.9,13.6c0,8.2-5.2,17.3-11.9,18.6c0.6,0.1,1.1,0.2,1.7,0.2
			c7.5,0,13.6-9.8,13.6-18.8C44,11.3,38.3,6.3,30.3,6.3z"/>
		<path class="st1" d="M30.3,6.3c-7.5,0-13.6,4.7-13.6,13.5c6,3.5,13.9,1.9,18-4c1.6,3.4,5.1,5.8,9.2,5.9
			C44.6,11.8,38.6,6.3,30.3,6.3z"/>
		<path class="st1" d="M43.9,21.6c0.7-9.8-5.3-15.3-13.6-15.3c-0.6,0-1.1,0-1.7,0.1C36,7.1,41,12.5,40.5,21
			C41.6,21.4,42.7,21.6,43.9,21.6z"/>
	</g>
</g>
</svg>
