<?xml version="1.0" encoding="utf-8"?>
<!-- Generator: Adobe Illustrator 21.1.0, SVG Export Plug-In . SVG Version: 6.00 Build 0)  -->
<svg version="1.1" id="Layer_1" xmlns="http://www.w3.org/2000/svg" xmlns:xlink="http://www.w3.org/1999/xlink" x="0px" y="0px"
	 viewBox="0 0 108 108" style="enable-background:new 0 0 108 108;" xml:space="preserve">
<style type="text/css">
	.st0{fill:url(#SVGID_1_);}
	.st1{fill:url(#SVGID_2_);}
	.st2{fill:url(#SVGID_3_);}
	.st3{fill:url(#SVGID_4_);}
	.st4{fill:url(#SVGID_5_);}
	.st5{fill:url(#SVGID_6_);}
	.st6{fill:url(#SVGID_7_);}
	.st7{fill:url(#SVGID_8_);}
	.st8{fill:url(#SVGID_9_);}
	.st9{fill:url(#SVGID_10_);}
	.st10{fill:url(#SVGID_11_);}
	.st11{fill:url(#SVGID_12_);}
	.st12{fill:url(#SVGID_13_);}
	.st13{fill:url(#SVGID_14_);}
	.st14{fill:url(#SVGID_15_);}
</style>
<g>
	<linearGradient id="SVGID_1_" gradientUnits="userSpaceOnUse" x1="17.4475" y1="12.3301" x2="89.2736" y2="94.2814">
		<stop  offset="5.995873e-07" style="stop-color:#4F6B83"/>
		<stop  offset="1" style="stop-color:#284A67"/>
	</linearGradient>
	<path class="st0" d="M0,50.8c0.3-2,0.5-4,0.8-6C3.7,29.6,11.6,17.7,24.4,9c9.6-6.5,20.4-9.6,32-8.9C73.5,1,87.2,8.6,97.5,22.2
		c5.9,7.8,9.3,16.7,10.3,26.4c1.3,14-2.2,26.6-10.7,37.8C88.9,97.1,78.2,104,65,106.8c-2.2,0.5-4.5,0.6-6.8,1c-0.3,0-0.7,0.1-1,0.2
		c-2.1,0-4.2,0-6.3,0c-0.8-0.1-1.5-0.2-2.3-0.3c-9.7-1.1-18.5-4.4-26.4-10.3c-11.5-8.6-18.7-20-21.3-34.2c-0.4-2-0.6-4.1-0.8-6.1
		C0,55.1,0,52.9,0,50.8z M104.6,54c0-28.2-22.5-50.6-50.7-50.6C25.8,3.4,3.4,25.8,3.4,54c0,28.2,22.5,50.6,50.6,50.6
		C82.2,104.6,104.7,82.1,104.6,54z"/>
	<linearGradient id="SVGID_2_" gradientUnits="userSpaceOnUse" x1="17.3988" y1="12.3726" x2="89.225" y2="94.3241">
		<stop  offset="5.995873e-07" style="stop-color:#4F6B83"/>
		<stop  offset="1" style="stop-color:#284A67"/>
	</linearGradient>
	<path class="st1" d="M29,30.8c0.8,0.7,1.5,1.4,2.4,2.2c-6.8,7.8-9.7,16.8-7.5,27c1.5,7.3,5.4,13.1,11.2,17.7
		c11.3,9,27.5,8.5,38.4-1c11.3-9.9,13.8-25.6,6.4-38.3c-7.4-12.8-24.5-19.9-40.5-11.6c-0.5-0.9-1-1.9-1.5-2.8
		c12.5-7.2,32-4.9,42.9,9.6c10.8,14.5,7.9,35.4-6.3,46.7c-14.1,11.1-35.2,8.9-46.7-5C16.3,61.5,18.4,41.8,29,30.8z"/>
	<linearGradient id="SVGID_3_" gradientUnits="userSpaceOnUse" x1="21.5261" y1="8.7555" x2="93.3522" y2="90.7068">
		<stop  offset="5.995873e-07" style="stop-color:#4F6B83"/>
		<stop  offset="1" style="stop-color:#284A67"/>
	</linearGradient>
	<path class="st2" d="M30.7,26.3c0.9-0.7,1.7-1.3,2.7-2c7,9.2,13.9,18.3,20.8,27.4C60,47,65.7,42.3,71.5,37.5
		c0.7,0.8,1.4,1.7,2.2,2.6c-5.8,4.8-11.5,9.5-17.3,14.3c3,4,6.1,8,9.2,12.1c-0.9,0.7-1.8,1.3-2.7,2c-3-4-6-7.9-9.1-12
		c-2.9,2.4-5.8,4.7-8.7,7.2c-0.7-0.9-1.4-1.7-2.1-2.6c3-2.5,5.9-4.8,8.8-7.3C44.7,44.7,37.7,35.6,30.7,26.3z"/>
	<linearGradient id="SVGID_4_" gradientUnits="userSpaceOnUse" x1="51.0793" y1="-17.1464" x2="122.9073" y2="64.8072">
		<stop  offset="5.995873e-07" style="stop-color:#4F6B83"/>
		<stop  offset="1" style="stop-color:#284A67"/>
	</linearGradient>
	<path class="st3" d="M91.2,30.6c1-0.6,1.9-1.1,2.9-1.7c0.6,1,1.1,1.9,1.7,2.9c-1,0.6-1.9,1.1-2.9,1.7
		C92.3,32.6,91.8,31.6,91.2,30.6z"/>
	<linearGradient id="SVGID_5_" gradientUnits="userSpaceOnUse" x1="-14.9783" y1="40.7491" x2="56.8464" y2="122.6989">
		<stop  offset="5.995873e-07" style="stop-color:#4F6B83"/>
		<stop  offset="1" style="stop-color:#284A67"/>
	</linearGradient>
	<path class="st4" d="M30.6,91.2c1,0.6,1.9,1.1,2.9,1.7c-0.6,1-1.1,1.9-1.7,2.9c-1-0.6-1.9-1.1-2.9-1.7C29.5,93.1,30,92.2,30.6,91.2
		z"/>
	<linearGradient id="SVGID_6_" gradientUnits="userSpaceOnUse" x1="40.0662" y1="-7.4924" x2="111.8924" y2="74.4591">
		<stop  offset="5.995873e-07" style="stop-color:#4F6B83"/>
		<stop  offset="1" style="stop-color:#284A67"/>
	</linearGradient>
	<path class="st5" d="M55.7,6.8c0,1.1,0,2.1,0,3.3c-1.1,0-2.1,0-3.3,0c0-1.1,0-2.1,0-3.3C53.5,6.8,54.5,6.8,55.7,6.8z"/>
	<linearGradient id="SVGID_7_" gradientUnits="userSpaceOnUse" x1="24.1445" y1="6.4607" x2="95.9725" y2="88.4142">
		<stop  offset="5.995873e-07" style="stop-color:#4F6B83"/>
		<stop  offset="1" style="stop-color:#284A67"/>
	</linearGradient>
	<path class="st6" d="M30.6,16.8c-0.6-1-1.1-1.9-1.7-2.9c1-0.6,1.9-1.1,2.9-1.7c0.6,0.9,1.1,1.9,1.7,2.9
		C32.6,15.7,31.7,16.2,30.6,16.8z"/>
	<linearGradient id="SVGID_8_" gradientUnits="userSpaceOnUse" x1="49.9162" y1="-16.1237" x2="121.7409" y2="65.8261">
		<stop  offset="5.995873e-07" style="stop-color:#4F6B83"/>
		<stop  offset="1" style="stop-color:#284A67"/>
	</linearGradient>
	<path class="st7" d="M74.5,15.1c0.6-1,1.1-2,1.7-2.9c1,0.6,1.9,1.1,2.9,1.7c-0.5,1-1.1,1.9-1.7,2.9C76.4,16.3,75.5,15.7,74.5,15.1z
		"/>
	<linearGradient id="SVGID_9_" gradientUnits="userSpaceOnUse" x1="6.4428" y1="21.9747" x2="78.2675" y2="103.9244">
		<stop  offset="5.995873e-07" style="stop-color:#4F6B83"/>
		<stop  offset="1" style="stop-color:#284A67"/>
	</linearGradient>
	<path class="st8" d="M15.1,33.5c-1-0.6-1.9-1.1-2.9-1.7c0.6-1,1.1-1.9,1.7-2.9c1,0.6,1.9,1.1,2.9,1.7
		C16.3,31.6,15.7,32.5,15.1,33.5z"/>
	<linearGradient id="SVGID_10_" gradientUnits="userSpaceOnUse" x1="-8.2885" y1="34.8845" x2="63.5377" y2="116.836">
		<stop  offset="5.995873e-07" style="stop-color:#4F6B83"/>
		<stop  offset="1" style="stop-color:#284A67"/>
	</linearGradient>
	<path class="st9" d="M6.8,52.3c1.1,0,2.1,0,3.2,0c0,1.1,0,2.1,0,3.3c-1,0-2.1,0-3.2,0C6.8,54.5,6.8,53.4,6.8,52.3z"/>
	<linearGradient id="SVGID_11_" gradientUnits="userSpaceOnUse" x1="43.2486" y1="-10.2817" x2="115.0749" y2="71.6699">
		<stop  offset="5.995873e-07" style="stop-color:#4F6B83"/>
		<stop  offset="1" style="stop-color:#284A67"/>
	</linearGradient>
	<path class="st10" d="M101.2,52.4c0,1.1,0,2.1,0,3.2c-1.1,0-2.1,0-3.2,0c0-1,0-2.1,0-3.2C99,52.4,100.1,52.4,101.2,52.4z"/>
	<linearGradient id="SVGID_12_" gradientUnits="userSpaceOnUse" x1="-16.1417" y1="41.7652" x2="55.6863" y2="123.7188">
		<stop  offset="5.995873e-07" style="stop-color:#4F6B83"/>
		<stop  offset="1" style="stop-color:#284A67"/>
	</linearGradient>
	<path class="st11" d="M16.8,77.4c-1,0.6-1.9,1.1-2.9,1.7c-0.6-1-1.1-1.9-1.7-2.9c1-0.6,1.9-1.1,2.9-1.7
		C15.7,75.4,16.2,76.3,16.8,77.4z"/>
	<linearGradient id="SVGID_13_" gradientUnits="userSpaceOnUse" x1="28.4978" y1="2.6485" x2="100.3225" y2="84.5982">
		<stop  offset="5.995873e-07" style="stop-color:#4F6B83"/>
		<stop  offset="1" style="stop-color:#284A67"/>
	</linearGradient>
	<path class="st12" d="M92.9,74.5c1,0.6,1.9,1.1,2.9,1.7c-0.6,1-1.1,1.9-1.7,2.9c-1-0.6-1.9-1.1-2.9-1.7
		C91.8,76.4,92.3,75.5,92.9,74.5z"/>
	<linearGradient id="SVGID_14_" gradientUnits="userSpaceOnUse" x1="10.7921" y1="18.1591" x2="82.6201" y2="100.1127">
		<stop  offset="5.995873e-07" style="stop-color:#4F6B83"/>
		<stop  offset="1" style="stop-color:#284A67"/>
	</linearGradient>
	<path class="st13" d="M77.4,91.2c0.6,1,1.1,1.9,1.7,2.9c-0.9,0.6-1.9,1.1-2.9,1.7c-0.6-0.9-1.1-1.9-1.7-2.9
		C75.4,92.3,76.3,91.8,77.4,91.2z"/>
	<linearGradient id="SVGID_15_" gradientUnits="userSpaceOnUse" x1="-5.1264" y1="32.113" x2="66.6999" y2="114.0646">
		<stop  offset="5.995873e-07" style="stop-color:#4F6B83"/>
		<stop  offset="1" style="stop-color:#284A67"/>
	</linearGradient>
	<path class="st14" d="M52.4,101.2c0-1.1,0-2.1,0-3.2c1.1,0,2.1,0,3.3,0c0,1.1,0,2.1,0,3.2C54.5,101.2,53.5,101.2,52.4,101.2z"/>
</g>
</svg>
