<?xml version="1.0" encoding="utf-8"?>
<!-- Generator: Adobe Illustrator 21.1.0, SVG Export Plug-In . SVG Version: 6.00 Build 0)  -->
<svg version="1.1" id="Layer_1" xmlns="http://www.w3.org/2000/svg" xmlns:xlink="http://www.w3.org/1999/xlink" x="0px" y="0px"
	 viewBox="0 0 97 97" style="enable-background:new 0 0 97 97;" xml:space="preserve">
<style type="text/css">
	.st0{fill:#FFFFFF;}
	.st1{fill:#274966;}
	.st2{fill:#7DA1BA;}
	.st3{fill:#6BADD1;}
	.st4{fill:#2E3544;}
	.st5{fill:#E9F0F3;}
	.st6{fill:#D8DBE1;}
	.st7{fill:#0399AF;}
	.st8{fill:#606776;}
	.st9{fill:#3DCCE2;}
</style>
<g>
	<g>
		<rect x="12.1" y="0.1" class="st0" width="72.8" height="96.8"/>
		<g>
			<g>
				<rect x="37.1" y="83.3" class="st1" width="25" height="1.5"/>
				<rect x="37.1" y="79.5" class="st1" width="41.7" height="1.5"/>
				<rect x="37.1" y="75.7" class="st1" width="41.7" height="1.5"/>
				<rect x="37.1" y="71.9" class="st1" width="41.7" height="1.5"/>
				<path class="st1" d="M18.2,71.9v12.9h12.9V71.9H18.2z M29.6,83.3h-9.9v-9.8h9.9V83.3z"/>
			</g>
		</g>
		<polygon class="st2" points="23.5,81.9 20.3,78.7 21.4,77.6 23.5,79.8 27.9,75.4 29,76.4 		"/>
		<g>
			<g>
				<rect x="37.1" y="64.4" class="st1" width="25" height="1.5"/>
				<rect x="37.1" y="60.6" class="st1" width="41.7" height="1.5"/>
				<rect x="37.1" y="56.8" class="st1" width="41.7" height="1.5"/>
				<rect x="37.1" y="53" class="st1" width="41.7" height="1.5"/>
				<path class="st1" d="M18.2,53v12.9h12.9V53H18.2z M29.6,64.4h-9.9v-9.8h9.9V64.4z"/>
			</g>
		</g>
		<polygon class="st2" points="23.5,63 20.3,59.8 21.4,58.7 23.5,60.9 27.9,56.5 29,57.5 		"/>
		<g>
			<g>
				<rect x="37.1" y="45.5" class="st1" width="25" height="1.5"/>
				<rect x="37.1" y="41.7" class="st1" width="41.7" height="1.5"/>
				<rect x="37.1" y="37.9" class="st1" width="41.7" height="1.5"/>
				<rect x="37.1" y="34.1" class="st1" width="41.7" height="1.5"/>
				<path class="st1" d="M18.2,34.1V47h12.9V34.1H18.2z M29.6,45.5h-9.9v-9.8h9.9V45.5z"/>
			</g>
		</g>
		<polygon class="st2" points="23.5,44.1 20.3,40.9 21.4,39.8 23.5,41.9 27.9,37.6 29,38.6 		"/>
		<g>
			<g>
				<rect x="37.1" y="26.6" class="st1" width="25" height="1.5"/>
				<rect x="37.1" y="22.8" class="st1" width="41.7" height="1.5"/>
				<rect x="37.1" y="19" class="st1" width="41.7" height="1.5"/>
				<rect x="37.1" y="15.2" class="st1" width="41.7" height="1.5"/>
				<path class="st1" d="M18.2,15.2v12.9h12.9V15.2H18.2z M29.6,26.6h-9.9v-9.8h9.9V26.6z"/>
			</g>
		</g>
		<polygon class="st2" points="23.5,25.2 20.3,22 21.4,20.9 23.5,23 27.9,18.7 29,19.7 		"/>
		<rect x="18.2" y="6.2" class="st3" width="60.6" height="3"/>
	</g>
	<g>
		<path class="st1" d="M6.1,18.3H0v-4.5c0-0.8,0.7-1.5,1.5-1.5h3c0.8,0,1.5,0.7,1.5,1.5V18.3z"/>
		<path class="st4" d="M6.1,18.3H4.5v-6l0,0c0.8,0,1.5,0.7,1.5,1.5V18.3z"/>
		<rect y="18.3" class="st5" width="6.1" height="6"/>
		<rect x="4.5" y="18.3" class="st6" width="1.5" height="6"/>
		<rect y="24.3" class="st2" width="6.1" height="48.4"/>
		<rect x="4.5" y="24.3" class="st7" width="1.5" height="48.4"/>
		<polygon class="st5" points="1.5,78.7 0,72.7 6.1,72.7 4.5,78.7 		"/>
		<polygon class="st6" points="4.5,78.7 3.8,78.7 4.5,72.7 6.1,72.7 		"/>
		<polygon class="st1" points="3,84.8 1.5,78.7 4.5,78.7 		"/>
		<polygon class="st4" points="4.5,78.7 3,84.8 3.8,78.7 		"/>
		<path class="st8" d="M1.5,13c-0.4,0-0.8,0.3-0.8,0.8v4.5h1.1V13H1.5z"/>
		<rect x="0.8" y="18.3" class="st0" width="1.1" height="6"/>
		<polygon class="st9" points="1.9,72.7 1.9,24.3 0.8,24.3 0.8,72.7 1.9,72.7 		"/>
		<polygon class="st0" points="2.5,78.7 1.9,72.7 0.8,72.7 1.9,78.7 		"/>
		<polygon class="st8" points="3,84.8 3,84.8 2.5,78.7 1.9,78.7 		"/>
	</g>
	<g>
		<g>
			<polygon class="st1" points="49.2,96.9 47.8,96.1 49.5,91.8 50.4,90.2 53,91.7 52.1,93.3 			"/>
			<polygon class="st1" points="82.3,39.6 81,38.8 83.5,34.6 84.8,35.3 			"/>
			<path class="st1" d="M88.1,30.3l-2-1.1l0.6-1c0.3-0.5,1-0.7,1.6-0.4l0,0c0.5,0.3,0.7,1,0.4,1.5L88.1,30.3z"/>
			<path class="st3" d="M94.6,41l-21-12.1l0,0c1.7-2.9,5.4-3.9,8.3-2.2l10.5,6C95.3,34.4,96.3,38.1,94.6,41L94.6,41z"/>
		</g>
		<g>
			<polygon class="st1" points="85.5,96.1 84.2,96.9 81.3,93.3 80.3,91.7 83,90.2 83.9,91.8 			"/>
			<polygon class="st1" points="52.4,38.8 51.1,39.6 48.6,35.3 49.9,34.6 			"/>
			<path class="st1" d="M47.2,29.2l-2,1.1l-0.6-1c-0.3-0.5-0.1-1.2,0.4-1.5l0,0c0.5-0.3,1.2-0.1,1.6,0.4L47.2,29.2z"/>
			<path class="st3" d="M59.8,28.9L38.8,41l0,0c-1.7-2.9-0.7-6.6,2.2-8.3l10.5-6C54.4,25,58.1,26,59.8,28.9L59.8,28.9z"/>
		</g>
		<rect x="65.9" y="28" class="st1" width="1.5" height="9.1"/>
		<path class="st1" d="M68.2,29.5h-3c-0.8,0-1.5-0.7-1.5-1.5l0,0c0-0.8,0.7-1.5,1.5-1.5h3c0.8,0,1.5,0.7,1.5,1.5l0,0
			C69.7,28.9,69,29.5,68.2,29.5z"/>
		<ellipse class="st3" cx="66.7" cy="65.1" rx="30.3" ry="30.2"/>
		<ellipse class="st7" cx="66.7" cy="65.1" rx="27.3" ry="27.2"/>
		<path class="st5" d="M92.3,68.2c-1.7,14.1-14.6,24.1-28.7,22.4C49.4,88.9,39.4,76.1,41.1,62c1.7-14.1,14.6-24.1,28.7-22.4
			C83.9,41.3,94,54.1,92.3,68.2z"/>
		<g>
			<g>
				<polygon class="st1" points="66.7,87.8 65.9,89.3 67.4,89.3 				"/>
				<polygon class="st1" points="66.7,42.5 65.9,40.9 67.4,40.9 				"/>
				<polygon class="st1" points="78.1,84.7 78.2,86.4 79.5,85.7 				"/>
				<polygon class="st1" points="55.3,45.4 53.9,44.5 55.2,43.8 				"/>
				<polygon class="st1" points="86.4,76.4 87.3,77.8 88.1,76.5 				"/>
				<polygon class="st1" points="47,53.7 45.3,53.6 46.1,52.3 				"/>
				<polygon class="st1" points="89.4,65.1 90.9,65.8 90.9,64.3 				"/>
				<polygon class="st1" points="44,65.1 42.4,65.8 42.4,64.3 				"/>
				<polygon class="st1" points="86.4,53.7 88.1,53.6 87.3,52.3 				"/>
				<polygon class="st1" points="47,76.4 46.1,77.8 45.3,76.5 				"/>
				<polygon class="st1" points="78.1,45.4 79.5,44.5 78.2,43.8 				"/>
				<polygon class="st1" points="55.3,84.7 55.2,86.4 53.9,85.7 				"/>
			</g>
		</g>
		<g>
			<g>
				<rect x="65.9" y="50" class="st1" width="1.5" height="15.1"/>
				<polygon class="st1" points="66.7,47 65.2,50 68.2,50 				"/>
			</g>
		</g>
		<g>
			<g>
				<polygon class="st1" points="59.8,78.6 58.5,77.8 66,64.7 67.3,65.5 				"/>
				<polygon class="st1" points="57.6,80.8 60.4,78.9 57.8,77.4 				"/>
			</g>
		</g>
		<ellipse class="st3" cx="66.7" cy="65.1" rx="1.5" ry="1.5"/>
		<polygon class="st3" points="67.1,65.2 66.3,65 70.9,47.8 71.4,47.6 71.7,48 		"/>
	</g>
</g>
</svg>
