<?xml version="1.0" encoding="utf-8"?>
<!-- Generator: Adobe Illustrator 21.1.0, SVG Export Plug-In . SVG Version: 6.00 Build 0)  -->
<svg version="1.1" id="Layer_1" xmlns="http://www.w3.org/2000/svg" xmlns:xlink="http://www.w3.org/1999/xlink" x="0px" y="0px"
	 viewBox="0 0 94 98" style="enable-background:new 0 0 94 98;" xml:space="preserve">
<style type="text/css">
	.st0{fill:url(#SVGID_1_);}
	.st1{fill:url(#SVGID_2_);}
	.st2{fill:url(#SVGID_3_);}
	.st3{fill:url(#SVGID_4_);}
	.st4{fill:url(#SVGID_5_);}
	.st5{fill:url(#SVGID_6_);}
	.st6{fill:url(#SVGID_7_);}
	.st7{fill:url(#SVGID_8_);}
	.st8{fill:url(#SVGID_9_);}
	.st9{fill:url(#SVGID_10_);}
	.st10{fill:url(#SVGID_11_);}
	.st11{fill:url(#SVGID_12_);}
	.st12{fill:url(#SVGID_13_);}
	.st13{fill:url(#SVGID_14_);}
	.st14{fill:url(#SVGID_15_);}
	.st15{fill:url(#SVGID_16_);}
</style>
<g>
	<linearGradient id="SVGID_1_" gradientUnits="userSpaceOnUse" x1="-11.6002" y1="15.7911" x2="77.9728" y2="105.0476">
		<stop  offset="5.995873e-07" style="stop-color:#4F6B83"/>
		<stop  offset="1" style="stop-color:#284A67"/>
	</linearGradient>
	<path class="st0" d="M10,27c-1.1,0-2.2,0-3.3,0c0-6.8,0-13.5,0-20.2c13.4,0,26.7,0,40.2,0c0,27,0,54,0,81.1c-13.4,0-26.8,0-40.2,0
		c0-6.7,0-13.4,0-20.2c-1.1,0-2.2,0-3.3,0c0,7.8,0,15.6,0,23.6c4.4,0,8.8,0,13.4,0c0,1.2,0,2.3,0,3.4c2.3,0,4.4,0,6.7,0
		c0,1.1,0,2.2,0,3.4c-3.3,0-6.6,0-10,0c0-1.1,0-2.1,0-3.3c-4.5,0-8.9,0-13.4,0c0-10.2,0-20.2,0-30.4c3.3,0,6.6,0,10,0
		c0-2.4,0-4.6,0-6.8l0,0c1.1,0,2.2,0,3.3,0c0,3.5,0,6.8,0,10.2c-1.1,0-2.2,0-3.2,0c0,5.7,0,11.2,0,16.8c11.2,0,22.4,0,33.5,0
		c0-24.8,0-49.5,0-74.3c-11.2,0-22.3,0-33.6,0C10,15.8,10,21.4,10,27L10,27z"/>
	<linearGradient id="SVGID_2_" gradientUnits="userSpaceOnUse" x1="18.767" y1="-14.6734" x2="108.2398" y2="74.4833">
		<stop  offset="5.995873e-07" style="stop-color:#4F6B83"/>
		<stop  offset="1" style="stop-color:#284A67"/>
	</linearGradient>
	<path class="st1" d="M80.7,94.6c0-1.1,0-2.2,0-3.3c3.3,0,6.6,0,10,0c0-29.4,0-58.6,0-87.9c-29.1,0-58.1,0-87.3,0
		c0,7.8,0,15.7,0,23.5c-1.2,0-2.2,0-3.3,0C0,18,0,9,0,0c31.3,0,62.6,0,94,0c0,31.5,0,63.1,0,94.6C89.6,94.6,85.2,94.6,80.7,94.6z"/>
	<linearGradient id="SVGID_3_" gradientUnits="userSpaceOnUse" x1="11.7927" y1="-7.8817" x2="101.3783" y2="81.3873">
		<stop  offset="5.995873e-07" style="stop-color:#4F6B83"/>
		<stop  offset="1" style="stop-color:#284A67"/>
	</linearGradient>
	<path class="st2" d="M80.6,81.2c0-22.7,0-45.1,0-67.7c-10,0-20,0-30.1,0c0-1.1,0-2.2,0-3.4c11.1,0,22.3,0,33.5,0
		c0,24.8,0,49.5,0,74.3c-11.1,0-22.3,0-33.5,0c0-1,0-2.1,0-3.3C60.4,81.2,70.5,81.2,80.6,81.2z"/>
	<linearGradient id="SVGID_4_" gradientUnits="userSpaceOnUse" x1="-15.6674" y1="19.9567" x2="73.9255" y2="109.233">
		<stop  offset="5.995873e-07" style="stop-color:#4F6B83"/>
		<stop  offset="1" style="stop-color:#284A67"/>
	</linearGradient>
	<path class="st3" d="M10,57.4c-1.1,0-2.2,0-3.4,0c0-6.8,0-13.5,0-20.2c-1.1,0-2.2,0-3.3,0c0,6.7,0,13.4,0,20.2c-1.2,0-2.2,0-3.4,0
		c0-7.8,0-15.6,0-23.6c3.3,0,6.6,0,10,0c0-2.4,0-4.6,0-6.8l0,0c1.1,0,2.2,0,3.3,0c0,3.4,0,6.8,0,10.2c-1.1,0-2.2,0-3.3,0
		C10,44,10,50.8,10,57.4L10,57.4z"/>
	<linearGradient id="SVGID_5_" gradientUnits="userSpaceOnUse" x1="-19.0814" y1="23.8172" x2="70.1615" y2="112.7447">
		<stop  offset="5.995873e-07" style="stop-color:#4F6B83"/>
		<stop  offset="1" style="stop-color:#284A67"/>
	</linearGradient>
	<path class="st4" d="M70.5,91.4c0,1.1,0,2.2,0,3.3c2.2,0,4.4,0,6.6,0c0,1.1,0,2.2,0,3.4c-3.3,0-6.6,0-10,0c0-1.1,0-2.1,0-3.3
		c-13.5,0-26.8,0-40.3,0c0-1.2,0-2.2,0-3.4C41.4,91.4,55.9,91.4,70.5,91.4z"/>
	<linearGradient id="SVGID_6_" gradientUnits="userSpaceOnUse" x1="13.6812" y1="-9.4141" x2="102.9518" y2="79.5411">
		<stop  offset="5.995873e-07" style="stop-color:#4F6B83"/>
		<stop  offset="1" style="stop-color:#284A67"/>
	</linearGradient>
	<path class="st5" d="M73.8,40.6c0,1.1,0,2.1,0,3.3c-5.5,0-11.1,0-16.7,0c0-1.1,0-2.1,0-3.3C62.7,40.6,68.2,40.6,73.8,40.6z"/>
	<linearGradient id="SVGID_7_" gradientUnits="userSpaceOnUse" x1="10.3116" y1="-5.9948" x2="99.5824" y2="82.9606">
		<stop  offset="5.995873e-07" style="stop-color:#4F6B83"/>
		<stop  offset="1" style="stop-color:#284A67"/>
	</linearGradient>
	<path class="st6" d="M73.8,47.4c0,1.1,0,2.2,0,3.3c-5.6,0-11.1,0-16.7,0c0-1,0-2.1,0-3.3C62.7,47.4,68.2,47.4,73.8,47.4z"/>
	<linearGradient id="SVGID_8_" gradientUnits="userSpaceOnUse" x1="1.896" y1="2.4397" x2="91.2167" y2="91.4448">
		<stop  offset="5.995873e-07" style="stop-color:#4F6B83"/>
		<stop  offset="1" style="stop-color:#284A67"/>
	</linearGradient>
	<path class="st7" d="M60.4,54.1c0,1.1,0,2.2,0,3.3c-3.3,0-6.6,0-10,0c0-1.1,0-2.1,0-3.3C53.7,54.1,57,54.1,60.4,54.1z"/>
	<linearGradient id="SVGID_9_" gradientUnits="userSpaceOnUse" x1="8.5868" y1="-4.2964" x2="97.907" y2="84.7082">
		<stop  offset="5.995873e-07" style="stop-color:#4F6B83"/>
		<stop  offset="1" style="stop-color:#284A67"/>
	</linearGradient>
	<path class="st8" d="M73.8,54.1c0,1.1,0,2.2,0,3.3c-3.3,0-6.6,0-10,0c0-1,0-2.1,0-3.3C67.2,54.1,70.5,54.1,73.8,54.1z"/>
	<linearGradient id="SVGID_10_" gradientUnits="userSpaceOnUse" x1="-1.4736" y1="5.8547" x2="87.8477" y2="94.8603">
		<stop  offset="5.995873e-07" style="stop-color:#4F6B83"/>
		<stop  offset="1" style="stop-color:#284A67"/>
	</linearGradient>
	<path class="st9" d="M60.4,64.2c-3.3,0-6.6,0-10,0c0-1.1,0-2.2,0-3.3c3.3,0,6.6,0,10,0C60.4,62,60.4,63,60.4,64.2z"/>
	<linearGradient id="SVGID_11_" gradientUnits="userSpaceOnUse" x1="5.1968" y1="-0.8587" x2="94.516" y2="88.1449">
		<stop  offset="5.995873e-07" style="stop-color:#4F6B83"/>
		<stop  offset="1" style="stop-color:#284A67"/>
	</linearGradient>
	<path class="st10" d="M63.8,64.2c0-1.1,0-2.1,0-3.2c3.3,0,6.6,0,10,0c0,1,0,2.1,0,3.2C70.5,64.2,67.2,64.2,63.8,64.2z"/>
	<linearGradient id="SVGID_12_" gradientUnits="userSpaceOnUse" x1="-4.8349" y1="9.2632" x2="84.4854" y2="98.2679">
		<stop  offset="5.995873e-07" style="stop-color:#4F6B83"/>
		<stop  offset="1" style="stop-color:#284A67"/>
	</linearGradient>
	<path class="st11" d="M60.4,67.7c0,1.1,0,2.2,0,3.3c-3.3,0-6.6,0-10,0c0-1,0-2.1,0-3.3C53.7,67.7,57,67.7,60.4,67.7z"/>
	<linearGradient id="SVGID_13_" gradientUnits="userSpaceOnUse" x1="1.8434" y1="2.5391" x2="91.1637" y2="91.5437">
		<stop  offset="5.995873e-07" style="stop-color:#4F6B83"/>
		<stop  offset="1" style="stop-color:#284A67"/>
	</linearGradient>
	<path class="st12" d="M63.9,70.9c0-1.1,0-2.2,0-3.3c3.3,0,6.6,0,10,0c0,1,0,2.1,0,3.3C70.5,70.9,67.2,70.9,63.9,70.9z"/>
	<linearGradient id="SVGID_14_" gradientUnits="userSpaceOnUse" x1="-8.1982" y1="12.6705" x2="81.1235" y2="101.6766">
		<stop  offset="5.995873e-07" style="stop-color:#4F6B83"/>
		<stop  offset="1" style="stop-color:#284A67"/>
	</linearGradient>
	<path class="st13" d="M50.4,74.4c3.3,0,6.6,0,9.9,0c0,1.1,0,2.2,0,3.3c-3.3,0-6.6,0-9.9,0C50.4,76.7,50.4,75.6,50.4,74.4z"/>
	<linearGradient id="SVGID_15_" gradientUnits="userSpaceOnUse" x1="-8.2672" y1="12.3615" x2="81.4317" y2="101.7434">
		<stop  offset="5.995873e-07" style="stop-color:#4F6B83"/>
		<stop  offset="1" style="stop-color:#284A67"/>
	</linearGradient>
	<path class="st14" d="M23.5,40.5c3.4,0,6.6,0,10,0c0-1.1,0-2.2,0-3.3c1.1,0,2.2,0,3.3,0c0,2.2,0,4.4,0,6.6c-3.3,0-6.6,0-10,0
		c0,6.8,0,13.5,0,20.3c-1.2,0-2.2,0-3.3,0C23.5,56.3,23.5,48.5,23.5,40.5z"/>
	<linearGradient id="SVGID_16_" gradientUnits="userSpaceOnUse" x1="-5.7031" y1="9.9395" x2="83.7706" y2="99.097">
		<stop  offset="5.995873e-07" style="stop-color:#4F6B83"/>
		<stop  offset="1" style="stop-color:#284A67"/>
	</linearGradient>
	<path class="st15" d="M36.8,54c-1.1,0-2.1,0-3.2,0c0-1.1,0-2.2,0-3.3c-1.2,0-2.2,0-3.3,0c0-1.2,0-2.2,0-3.3c2.2,0,4.4,0,6.6,0
		C36.8,49.6,36.8,51.8,36.8,54z"/>
</g>
</svg>
