<?xml version="1.0" encoding="utf-8"?>
<!-- Generator: Adobe Illustrator 21.1.0, SVG Export Plug-In . SVG Version: 6.00 Build 0)  -->
<svg version="1.1" id="Layer_1" xmlns="http://www.w3.org/2000/svg" xmlns:xlink="http://www.w3.org/1999/xlink" x="0px" y="0px"
	 viewBox="0 0 91 97" style="enable-background:new 0 0 91 97;" xml:space="preserve">
<style type="text/css">
	.st0{fill:#FFFFFF;}
	.st1{fill:#6BADD1;}
	.st2{fill:#274966;}
	.st3{fill:#D8DBE1;}
	.st4{fill:#7DA1BA;}
	.st5{fill:#E9F0F3;}
</style>
<g>
	<g>
		<rect y="6.1" class="st0" width="84.9" height="90.9"/>
		<rect y="6.1" class="st1" width="84.9" height="24.3"/>
		<ellipse class="st0" cx="18.2" cy="18.2" rx="3" ry="3"/>
		<ellipse class="st0" cx="66.7" cy="18.2" rx="3" ry="3"/>
		<path class="st2" d="M18.2,19.7c-0.8,0-1.5-0.7-1.5-1.5V1.5c0-0.8,0.7-1.5,1.5-1.5c0.8,0,1.5,0.7,1.5,1.5v16.7
			C19.7,19,19,19.7,18.2,19.7z"/>
		<path class="st2" d="M66.7,19.7c-0.8,0-1.5-0.7-1.5-1.5V1.5c0-0.8,0.7-1.5,1.5-1.5c0.8,0,1.5,0.7,1.5,1.5v16.7
			C68.3,19,67.6,19.7,66.7,19.7z"/>
		<g>
			<rect x="7.6" y="81.8" class="st3" width="9.1" height="9.1"/>
			<rect x="22.8" y="81.8" class="st4" width="9.1" height="9.1"/>
			<rect x="37.9" y="81.8" class="st3" width="9.1" height="9.1"/>
		</g>
		<g>
			<rect x="7.6" y="66.7" class="st3" width="9.1" height="9.1"/>
			<rect x="22.8" y="66.7" class="st3" width="9.1" height="9.1"/>
			<rect x="37.9" y="66.7" class="st4" width="9.1" height="9.1"/>
		</g>
		<g>
			<rect x="7.6" y="51.5" class="st4" width="9.1" height="9.1"/>
			<rect x="22.8" y="51.5" class="st3" width="9.1" height="9.1"/>
			<rect x="37.9" y="51.5" class="st3" width="9.1" height="9.1"/>
		</g>
		<g>
			<rect x="37.9" y="36.4" class="st3" width="9.1" height="9.1"/>
			<rect x="53.1" y="36.4" class="st3" width="9.1" height="9.1"/>
			<rect x="68.3" y="36.4" class="st1" width="9.1" height="9.1"/>
		</g>
	</g>
	<g>
		<ellipse class="st2" cx="66.7" cy="72.8" rx="24.3" ry="24.3"/>
		<ellipse class="st5" cx="66.7" cy="72.8" rx="21.2" ry="21.2"/>
		<path class="st3" d="M47,72.8c0-11.5,9.1-20.8,20.5-21.2c-0.3,0-0.5,0-0.8,0C55,51.5,45.5,61,45.5,72.8S55,94,66.7,94
			c0.3,0,0.5,0,0.8,0C56.1,93.6,47,84.2,47,72.8z"/>
		<rect x="66" y="55.3" class="st2" width="1.5" height="17.4"/>
		
			<rect x="51.8" y="78.2" transform="matrix(0.7069 -0.7073 0.7073 0.7069 -38.0643 65.9739)" class="st2" width="17.4" height="1.5"/>
		<ellipse class="st2" cx="66.7" cy="72.8" rx="3" ry="3"/>
	</g>
</g>
</svg>
