<?xml version="1.0" encoding="utf-8"?>
<!-- Generator: Adobe Illustrator 21.1.0, SVG Export Plug-In . SVG Version: 6.00 Build 0)  -->
<svg version="1.1" id="Layer_1" xmlns="http://www.w3.org/2000/svg" xmlns:xlink="http://www.w3.org/1999/xlink" x="0px" y="0px"
	 viewBox="0 0 104 108" style="enable-background:new 0 0 104 108;" xml:space="preserve">
<style type="text/css">
	.st0{fill:url(#SVGID_1_);}
	.st1{fill:url(#SVGID_2_);}
	.st2{fill:url(#SVGID_3_);}
	.st3{fill:url(#SVGID_4_);}
	.st4{fill:url(#SVGID_5_);}
	.st5{fill:url(#SVGID_6_);}
	.st6{fill:url(#SVGID_7_);}
</style>
<g>
	<linearGradient id="SVGID_1_" gradientUnits="userSpaceOnUse" x1="9.1458" y1="16.3384" x2="99.4548" y2="102.2267">
		<stop  offset="5.995873e-07" style="stop-color:#4F6B83"/>
		<stop  offset="1" style="stop-color:#284A67"/>
	</linearGradient>
	<path class="st0" d="M73.8,108c0-2.2,0-4.4,0-6.7c-3.4,0-6.7,0-10,0c0-3.4,0-6.7,0-10.1c3.3,0,6.6,0,10,0c0-1.2,0-2.2,0-3.4
		c-3.3,0-6.6,0-9.9,0c0-7.9,0-15.7,0-23.6c3.3,0,6.6,0,9.9,0c0-2.3,0-4.5,0-6.7c3.4,0,6.7,0,10.1,0c0,2.2,0,4.3,0,6.6
		c3.4,0,6.7,0,10,0c0,3.4,0,6.7,0,10.2c-3.3,0-6.6,0-10,0c0,1.2,0,2.2,0,3.4c3.3,0,6.6,0,10,0c0,7.9,0,15.7,0,23.6
		c-3.3,0-6.6,0-10,0c0,2.3,0,4.5,0,6.8C80.6,108,77.2,108,73.8,108z M77.2,60.8c0,2.3,0,4.5,0,6.8c-3.4,0-6.7,0-10,0
		c0,5.6,0,11.2,0,16.9c3.4,0,6.7,0,10,0c0,3.4,0,6.7,0,10.1c-3.4,0-6.7,0-9.9,0c0,1.2,0,2.2,0,3.4c3.4,0,6.6,0,10,0
		c0,2.3,0,4.5,0,6.6c1.2,0,2.2,0,3.4,0c0-2.3,0-4.4,0-6.7c3.4,0,6.7,0,10,0c0-5.7,0-11.2,0-16.9c-3.4,0-6.6,0-9.9,0
		c0-3.4,0-6.7,0-10.1c3.4,0,6.7,0,10,0c0-1.2,0-2.2,0-3.4c-3.4,0-6.7,0-10.1,0c0-2.3,0-4.5,0-6.7C79.4,60.8,78.4,60.8,77.2,60.8z"/>
	<linearGradient id="SVGID_2_" gradientUnits="userSpaceOnUse" x1="36.2187" y1="-12.4175" x2="126.6527" y2="73.5896">
		<stop  offset="5.995873e-07" style="stop-color:#4F6B83"/>
		<stop  offset="1" style="stop-color:#284A67"/>
	</linearGradient>
	<path class="st1" d="M104,97.8c-2.2,0-4.4,0-6.6,0c0-1.1,0-2.1,0-3.3c1.1,0,2.1,0,3.2,0c0-30.4,0-60.7,0-91.1c-5.5,0-11,0-16.7,0
		c0,4.4,0,8.9,0,13.4c4.4,0,8.8,0,13.3,0c0,1.1,0,2.2,0,3.4c-4.4,0-8.8,0-13.3,0c0,11.3,0,22.5,0,33.7c-1.1,0-2.2,0-3.3,0
		c0-17.9,0-35.9,0-53.9c7.8,0,15.5,0,23.4,0C104,32.6,104,65.2,104,97.8z"/>
	<linearGradient id="SVGID_3_" gradientUnits="userSpaceOnUse" x1="-4.9392" y1="31.1836" x2="85.4338" y2="117.1328">
		<stop  offset="5.995873e-07" style="stop-color:#4F6B83"/>
		<stop  offset="1" style="stop-color:#284A67"/>
	</linearGradient>
	<path class="st2" d="M50.3,97.8c-7.8,0-15.6,0-23.4,0c0-16.8,0-33.6,0-50.5c7.8,0,15.5,0,23.4,0C50.3,64.1,50.3,80.9,50.3,97.8z
		 M43.6,67.5c-4.5,0-8.9,0-13.3,0c0,9.1,0,18,0,26.9c5.6,0,11.1,0,16.6,0c0-14.6,0-29.2,0-43.8c-5.6,0-11.1,0-16.7,0
		c0,4.5,0,9,0,13.5c4.5,0,8.9,0,13.3,0C43.6,65.3,43.6,66.3,43.6,67.5z"/>
	<linearGradient id="SVGID_4_" gradientUnits="userSpaceOnUse" x1="12.8029" y1="12.3183" x2="103.2907" y2="98.3767">
		<stop  offset="5.995873e-07" style="stop-color:#4F6B83"/>
		<stop  offset="1" style="stop-color:#284A67"/>
	</linearGradient>
	<path class="st3" d="M53.8,27c7.8,0,15.6,0,23.4,0c0,9,0,17.9,0,26.9c-1.1,0-2.1,0-3.3,0c0-7.8,0-15.6,0-23.5c-5.6,0-11.1,0-16.7,0
		c0,4.5,0,8.9,0,13.4c4.4,0,8.8,0,13.3,0c0,1.1,0,2.2,0,3.4c-4.4,0-8.8,0-13.3,0c0,15.8,0,31.5,0,47.2c1.1,0,2.1,0,3.2,0
		c0,1.2,0,2.2,0,3.3c-2.2,0-4.3,0-6.6,0C53.8,74.2,53.8,50.7,53.8,27z"/>
	<linearGradient id="SVGID_5_" gradientUnits="userSpaceOnUse" x1="-20.9941" y1="48.2028" x2="69.3444" y2="134.1191">
		<stop  offset="5.995873e-07" style="stop-color:#4F6B83"/>
		<stop  offset="1" style="stop-color:#284A67"/>
	</linearGradient>
	<path class="st4" d="M0,97.8c0-12.4,0-24.7,0-37c7.8,0,15.5,0,23.4,0c0,12.3,0,24.6,0,37C15.6,97.8,7.9,97.8,0,97.8z M16.7,81
		c-4.5,0-8.9,0-13.4,0c0,4.5,0,9,0,13.4c5.6,0,11.1,0,16.7,0c0-10.1,0-20.2,0-30.3c-5.6,0-11.1,0-16.6,0c0,4.5,0,8.9,0,13.5
		c4.5,0,8.9,0,13.3,0C16.7,78.8,16.7,79.8,16.7,81z"/>
	<linearGradient id="SVGID_6_" gradientUnits="userSpaceOnUse" x1="10.1043" y1="15.2938" x2="100.4384" y2="101.206">
		<stop  offset="5.995873e-07" style="stop-color:#4F6B83"/>
		<stop  offset="1" style="stop-color:#284A67"/>
	</linearGradient>
	<path class="st5" d="M77.2,70.9c0,1.1,0,2.1,0,3.3c-1.1,0-2.1,0-3.3,0c0,1.2,0,2.2,0,3.4c1,0,2.1,0,3.2,0c0,1.2,0,2.3,0,3.4
		c-2.2,0-4.3,0-6.6,0c0-3.3,0-6.6,0-10C72.7,70.9,74.9,70.9,77.2,70.9z"/>
	<linearGradient id="SVGID_7_" gradientUnits="userSpaceOnUse" x1="8.134" y1="17.3627" x2="98.4674" y2="103.2742">
		<stop  offset="5.995873e-07" style="stop-color:#4F6B83"/>
		<stop  offset="1" style="stop-color:#284A67"/>
	</linearGradient>
	<path class="st6" d="M80.6,91.1c1.1,0,2.1,0,3.2,0c0-1.1,0-2.2,0-3.4c-1.1,0-2.1,0-3.2,0c0-1.2,0-2.2,0-3.3c2.2,0,4.3,0,6.6,0
		c0,3.3,0,6.6,0,10c-2.2,0-4.3,0-6.6,0C80.6,93.3,80.6,92.3,80.6,91.1z"/>
</g>
</svg>
