<?xml version="1.0" encoding="utf-8"?>
<!-- Generator: Adobe Illustrator 21.1.0, SVG Export Plug-In . SVG Version: 6.00 Build 0)  -->
<svg version="1.1" id="Layer_1" xmlns="http://www.w3.org/2000/svg" xmlns:xlink="http://www.w3.org/1999/xlink" x="0px" y="0px"
	 viewBox="0 0 85 98" style="enable-background:new 0 0 85 98;" xml:space="preserve">
<style type="text/css">
	.st0{fill:url(#SVGID_1_);}
	.st1{fill:url(#SVGID_2_);}
	.st2{fill:#7DA1BA;}
</style>
<g>
	<linearGradient id="SVGID_1_" gradientUnits="userSpaceOnUse" x1="7.6852" y1="3.1469" x2="76.7025" y2="91.9692">
		<stop  offset="5.995873e-07" style="stop-color:#4F6B83"/>
		<stop  offset="1" style="stop-color:#284A67"/>
	</linearGradient>
	<path class="st0" d="M8.8,82c1.2,0,2.3,0,3.6,0c0,1.9,0,3.8,0,5.7c0,4.2,2.5,6.7,6.6,6.7c18.8,0,37.6,0,56.4,0c3.8,0,6-2.1,6-6
		c0-7.4,0-14.8,0-22.3c0-15.5,0-31.1,0-46.6c0-0.5,0-1,0-1.7c-1.8,0-3.5,0-5.2,0c-5.7,0-9-3.3-9-9c0-1.7,0-3.3,0-5.1
		c-0.4,0-0.8-0.1-1.2-0.1c-15.9,0-31.8,0-47.7,0c-1.9,0-3.6,0.6-4.9,2c-0.9,1-1.1,2.1-1.1,3.4c0,10.7,0,21.4,0,32c0,0.5,0,1,0,1.6
		c-1.2,0-2.3,0-3.6,0c0-1,0-1.9,0-2.8c0-10.2,0.1-20.3,0-30.5C8.6,3.2,13.7,0,18.1,0C27,0,35.8,0,44.7,0c7.7,0,15.5,0,23.2,0
		c1.3,0,2.2,0.4,3.1,1.3c4.3,4.4,8.6,8.7,12.9,13c0.7,0.7,1,1.4,1,2.5c0,23.8,0,47.6,0,71.4c0,2.3-0.5,4.3-1.8,6.2
		c-1.6,2.3-3.9,3.6-6.8,3.6c-19.5,0-39,0-58.4,0c-4.8,0-9.2-4.5-9.2-9.3C8.8,86.5,8.8,84.3,8.8,82z M78.2,14.2c-2.4-2.4-5-5-7.4-7.4
		C70.2,13.5,73.2,14.8,78.2,14.2z"/>
	<linearGradient id="SVGID_2_" gradientUnits="userSpaceOnUse" x1="-8.3548" y1="15.7609" x2="60.5944" y2="104.4955">
		<stop  offset="5.995873e-07" style="stop-color:#4F6B83"/>
		<stop  offset="1" style="stop-color:#284A67"/>
	</linearGradient>
	<path class="st1" d="M27.9,80.1c-6.3,0-12.5,0-18.8,0C3.9,80.1,0,76.2,0,71c0-5.7,0-11.5,0-17.2c0-5.1,3.9-9.1,9-9.1
		c12.5,0,25,0,37.5,0c5.3,0,9.1,3.8,9.1,9.2c0,5.7,0,11.4,0,17.1c0,5.3-3.9,9.2-9.2,9.2C40.3,80.1,34.1,80.1,27.9,80.1
		C27.9,80.1,27.9,80.1,27.9,80.1z M27.9,48.1c-6.3,0-12.6,0-18.9,0c-3.1,0-5.5,2.3-5.5,5.4c0,5.8,0,11.6,0,17.4
		c0,3.6,2.2,5.8,5.8,5.8c12.4,0,24.8,0,37.2,0c3.7,0,5.8-2.2,5.8-5.9c0-5.7,0-11.5,0-17.2c0-3.1-2.3-5.5-5.5-5.5
		C40.5,48.1,34.2,48.1,27.9,48.1z"/>
	<path class="st2" d="M20.4,62.3c0-2,0-3.9,0-5.9c0-0.8,0.2-1.2,1-1.1c2,0.1,4.1,0,6.1,0.2c1.8,0.2,2.9,1.4,3.2,3.2
		c0.2,1.1,0.3,2.2,0.1,3.3c-0.4,2.4-2.1,3.8-4.7,3.9c-2.3,0.1-2.4,0.1-2.3,2.4c0,1-0.3,1.3-1.3,1.2c-2.2-0.1-2.2,0-2.2-2.3
		C20.4,65.5,20.4,63.9,20.4,62.3z M23.8,60.6C23.8,60.6,23.8,60.6,23.8,60.6c0,0.7,0,1.3,0,2c0,0.2,0.1,0.5,0.3,0.6
		c1.6,0.9,3.9-0.3,4-2.1c0-0.3,0-0.7,0-1c-0.1-1.8-0.8-2.3-3.2-2.3c-1.8,0-0.9,1.3-1.1,2.1C23.8,60.1,23.8,60.4,23.8,60.6z"/>
	<path class="st2" d="M43.3,65.9c0,0.7-0.1,1.3,0,2c0.2,1.2-0.3,1.7-1.5,1.7c-1.3,0-2.6,0.3-4,0.2c-2.9-0.1-4.6-1.4-5-4.3
		c-0.3-2.2-0.2-4.4,0.2-6.6c0.3-2.4,1.9-3.6,4.3-3.6c1.6,0,3.2,0.2,4.7,0.3c1.1,0.1,1,0.9,0.9,1.6c-0.1,0.9-0.8,0.6-1.3,0.6
		c-1.2,0-2.4-0.2-3.6-0.1c-1.5,0-2.4,0.7-2.5,2.3c-0.1,1.7-0.2,3.4,0,5.1c0.1,1.7,1.1,2.5,2.8,2.5c2.9,0,2.2,0.1,2.3-2.2
		c0-0.9-0.2-1.3-1.1-1.3c-0.2,0-0.6-0.6-0.6-0.9c0-0.2,0.4-0.7,0.6-0.7c1-0.1,1.9-0.1,2.9,0c0.3,0,0.7,0.5,0.7,0.8
		C43.4,64.1,43.3,65,43.3,65.9z"/>
	<path class="st2" d="M13.4,71.1c-0.1-1.1-0.4-2.2,1.1-2.6c0.3-0.1,0.6-1,0.6-1.5c0-3.5,0-7,0-10.5c0-0.9,0.3-1.2,1.2-1.2
		c0.8,0,1.4,0,1.4,1.2c-0.1,3.7,0,7.3,0,11C17.6,70.2,16.3,71.4,13.4,71.1z"/>
</g>
</svg>
