<?xml version="1.0" encoding="utf-8"?>
<!-- Generator: Adobe Illustrator 21.1.0, SVG Export Plug-In . SVG Version: 6.00 Build 0)  -->
<svg version="1.1" id="Layer_1" xmlns="http://www.w3.org/2000/svg" xmlns:xlink="http://www.w3.org/1999/xlink" x="0px" y="0px"
	 viewBox="0 0 91 104" style="enable-background:new 0 0 91 104;" xml:space="preserve">
<style type="text/css">
	.st0{fill:url(#SVGID_1_);}
	.st1{fill:url(#SVGID_2_);}
	.st2{fill:url(#SVGID_3_);}
	.st3{fill:url(#SVGID_4_);}
	.st4{fill:url(#SVGID_5_);}
	.st5{fill:url(#SVGID_6_);}
	.st6{fill:url(#SVGID_7_);}
	.st7{fill:url(#SVGID_8_);}
	.st8{fill:url(#SVGID_9_);}
	.st9{fill:url(#SVGID_10_);}
	.st10{fill:url(#SVGID_11_);}
	.st11{fill:url(#SVGID_12_);}
	.st12{fill:url(#SVGID_13_);}
	.st13{fill:url(#SVGID_14_);}
	.st14{fill:url(#SVGID_15_);}
	.st15{fill:url(#SVGID_16_);}
	.st16{fill:url(#SVGID_17_);}
	.st17{fill:url(#SVGID_18_);}
	.st18{fill:url(#SVGID_19_);}
	.st19{fill:url(#SVGID_20_);}
	.st20{fill:url(#SVGID_21_);}
	.st21{fill:url(#SVGID_22_);}
	.st22{fill:url(#SVGID_23_);}
	.st23{fill:url(#SVGID_24_);}
	.st24{fill:url(#SVGID_25_);}
	.st25{fill:url(#SVGID_26_);}
	.st26{fill:url(#SVGID_27_);}
	.st27{fill:url(#SVGID_28_);}
	.st28{fill:url(#SVGID_29_);}
</style>
<g>
	<linearGradient id="SVGID_1_" gradientUnits="userSpaceOnUse" x1="-25.1812" y1="29.4953" x2="63.7736" y2="119.712">
		<stop  offset="5.995873e-07" style="stop-color:#4F6B83"/>
		<stop  offset="1" style="stop-color:#284A67"/>
	</linearGradient>
	<path class="st0" d="M0,47c13.5,0,26.9,0,40.4,0c0,19,0,38,0,57c-13.5,0-26.9,0-40.4,0C0,85,0,66.1,0,47z M3.3,100.6
		c11.3,0,22.5,0,33.6,0c0-16.8,0-33.5,0-50.2c-11.2,0-22.4,0-33.6,0C3.3,67.1,3.3,83.8,3.3,100.6z"/>
	<linearGradient id="SVGID_2_" gradientUnits="userSpaceOnUse" x1="4.805" y1="0.2943" x2="93.6082" y2="90.3571">
		<stop  offset="5.995873e-07" style="stop-color:#4F6B83"/>
		<stop  offset="1" style="stop-color:#284A67"/>
	</linearGradient>
	<path class="st1" d="M64,94c-1.2,0-2.2,0-3.3,0c0-19,0-38,0-57c-1.2,0-2.2,0-3.4,0c0,6.7,0,13.3,0,20c-1.1,0-2.2,0-3.3,0
		c0-7.8,0-15.6,0-23.4c2.2,0,4.4,0,6.7,0c0-2.3,0-4.4,0-6.7c3.4,0,6.7,0,10.1,0c0,22.3,0,44.6,0,67.1c-1,0-2.1,0-3.3,0
		c0,2.3,0,4.5,0,6.7c-1.2,0-2.2,0-3.4,0C64,98.4,64,96.2,64,94z M67.4,90.6c0-17.9,0-35.8,0-53.6c-1.1,0-2.2,0-3.2,0
		c0,17.9,0,35.8,0,53.6C65.2,90.6,66.3,90.6,67.4,90.6z M64.1,30.2c0,1.2,0,2.2,0,3.3c1.1,0,2.2,0,3.2,0c0-1.1,0-2.2,0-3.3
		C66.3,30.2,65.2,30.2,64.1,30.2z"/>
	<linearGradient id="SVGID_3_" gradientUnits="userSpaceOnUse" x1="20.1805" y1="-14.7082" x2="108.9617" y2="75.3322">
		<stop  offset="5.995873e-07" style="stop-color:#4F6B83"/>
		<stop  offset="1" style="stop-color:#284A67"/>
	</linearGradient>
	<path class="st2" d="M87.6,3.4c1.2,0,2.3,0,3.4,0c0,30.2,0,60.3,0,90.5c-5.5,0-11.1,0-16.8,0c0-1,0-2.1,0-3.2c4.4,0,8.9,0,13.4,0
		C87.6,61.5,87.6,32.5,87.6,3.4z"/>
	<linearGradient id="SVGID_4_" gradientUnits="userSpaceOnUse" x1="18.8029" y1="-13.8511" x2="108.0045" y2="76.6158">
		<stop  offset="5.995873e-07" style="stop-color:#4F6B83"/>
		<stop  offset="1" style="stop-color:#284A67"/>
	</linearGradient>
	<path class="st3" d="M80.9,20.2c0,1.1,0,2.2,0,3.2c-18,0-35.9,0-53.9,0c0-1.1,0-2.1,0-3.2C44.9,20.2,62.9,20.2,80.9,20.2z"/>
	<linearGradient id="SVGID_5_" gradientUnits="userSpaceOnUse" x1="0.9124" y1="3.9376" x2="89.712" y2="93.9968">
		<stop  offset="5.995873e-07" style="stop-color:#4F6B83"/>
		<stop  offset="1" style="stop-color:#284A67"/>
	</linearGradient>
	<path class="st4" d="M20.2,43.6c-1.2,0-2.2,0-3.3,0c0-13.4,0-26.7,0-40.2c2.2,0,4.3,0,6.6,0c0,1.1,0,2.1,0,3.3c-1.1,0-2.1,0-3.3,0
		C20.2,19,20.2,31.2,20.2,43.6z"/>
	<linearGradient id="SVGID_6_" gradientUnits="userSpaceOnUse" x1="4.3591" y1="0.3433" x2="93.5307" y2="90.7798">
		<stop  offset="5.995873e-07" style="stop-color:#4F6B83"/>
		<stop  offset="1" style="stop-color:#284A67"/>
	</linearGradient>
	<path class="st5" d="M50.5,33.6c0,1.1,0,2.1,0,3.2c-7.9,0-15.7,0-23.5,0c0-1.1,0-2.1,0-3.2C34.8,33.6,42.6,33.6,50.5,33.6z"/>
	<linearGradient id="SVGID_7_" gradientUnits="userSpaceOnUse" x1="24.7846" y1="-19.4936" x2="113.6652" y2="70.6477">
		<stop  offset="5.995873e-07" style="stop-color:#4F6B83"/>
		<stop  offset="1" style="stop-color:#284A67"/>
	</linearGradient>
	<path class="st6" d="M50.6,10c-1.2,0-2.3,0-3.4,0c0-3.3,0-6.6,0-9.9c1.1,0,2.1,0,3.3,0c0,1,0,2.1,0,3.2c1.2,0,2.2,0,3.3,0
		c0,1.1,0,2.2,0,3.3c-1,0-2.1,0-3.2,0C50.6,7.8,50.6,8.8,50.6,10z"/>
	<linearGradient id="SVGID_8_" gradientUnits="userSpaceOnUse" x1="29.9595" y1="-24.5567" x2="118.8393" y2="65.5838">
		<stop  offset="5.995873e-07" style="stop-color:#4F6B83"/>
		<stop  offset="1" style="stop-color:#284A67"/>
	</linearGradient>
	<path class="st7" d="M64,3.3c0,1.2,0,2.2,0,3.4c-1.1,0-2.2,0-3.3,0c0,1.2,0,2.2,0,3.3c-1.1,0-2.2,0-3.3,0c0-3.3,0-6.6,0-9.9
		c1.1,0,2.1,0,3.3,0c0,1.1,0,2.1,0,3.3C61.8,3.3,62.8,3.3,64,3.3z"/>
	<linearGradient id="SVGID_9_" gradientUnits="userSpaceOnUse" x1="35.0955" y1="-29.5818" x2="123.9751" y2="60.5585">
		<stop  offset="5.995873e-07" style="stop-color:#4F6B83"/>
		<stop  offset="1" style="stop-color:#284A67"/>
	</linearGradient>
	<path class="st8" d="M70.8,6.6c0,1.2,0,2.2,0,3.3c-1.1,0-2.2,0-3.3,0c0-3.3,0-6.6,0-9.9c1.1,0,2.1,0,3.3,0c0,1.1,0,2.1,0,3.3
		c1.2,0,2.2,0,3.3,0c0,1.1,0,2.2,0,3.3C73.1,6.6,72,6.6,70.8,6.6z"/>
	<linearGradient id="SVGID_10_" gradientUnits="userSpaceOnUse" x1="40.2612" y1="-34.6356" x2="129.1402" y2="55.5041">
		<stop  offset="5.995873e-07" style="stop-color:#4F6B83"/>
		<stop  offset="1" style="stop-color:#284A67"/>
	</linearGradient>
	<path class="st9" d="M77.6,0c1.1,0,2.1,0,3.3,0c0,1.1,0,2.1,0,3.3c1.1,0,2.2,0,3.3,0c0,1.2,0,2.2,0,3.4c-1.1,0-2.1,0-3.3,0
		c0,1.1,0,2.2,0,3.3c-1.2,0-2.2,0-3.3,0C77.6,6.7,77.6,3.4,77.6,0z"/>
	<linearGradient id="SVGID_11_" gradientUnits="userSpaceOnUse" x1="-18.2831" y1="22.4687" x2="70.8535" y2="112.8697">
		<stop  offset="5.995873e-07" style="stop-color:#4F6B83"/>
		<stop  offset="1" style="stop-color:#284A67"/>
	</linearGradient>
	<path class="st10" d="M57.3,90.7c0,1.1,0,2.1,0,3.2c-4.5,0-8.9,0-13.4,0c0-1,0-2.1,0-3.2C48.3,90.7,52.7,90.7,57.3,90.7z"/>
	<linearGradient id="SVGID_12_" gradientUnits="userSpaceOnUse" x1="14.4834" y1="-9.4138" x2="103.3623" y2="80.7258">
		<stop  offset="5.995873e-07" style="stop-color:#4F6B83"/>
		<stop  offset="1" style="stop-color:#284A67"/>
	</linearGradient>
	<path class="st11" d="M30.3,10c-1.2,0-2.2,0-3.3,0c0-3.3,0-6.6,0-10c1.1,0,2.1,0,3.3,0c0,1.1,0,2.1,0,3.3c1.1,0,2.2,0,3.3,0
		c0,1.2,0,2.2,0,3.4c-1.1,0-2.1,0-3.3,0C30.3,7.8,30.3,8.8,30.3,10z"/>
	<linearGradient id="SVGID_13_" gradientUnits="userSpaceOnUse" x1="-3.1138" y1="7.6381" x2="86.0228" y2="98.0391">
		<stop  offset="5.995873e-07" style="stop-color:#4F6B83"/>
		<stop  offset="1" style="stop-color:#284A67"/>
	</linearGradient>
	<path class="st12" d="M57.3,60.5c0,1.1,0,2.1,0,3.2c-4.5,0-8.9,0-13.4,0c0-1,0-2.1,0-3.2C48.3,60.5,52.7,60.5,57.3,60.5z"/>
	<linearGradient id="SVGID_14_" gradientUnits="userSpaceOnUse" x1="-9.8629" y1="14.2367" x2="79.2737" y2="104.6376">
		<stop  offset="5.995873e-07" style="stop-color:#4F6B83"/>
		<stop  offset="1" style="stop-color:#284A67"/>
	</linearGradient>
	<path class="st13" d="M43.9,77.1c0-1.1,0-2.1,0-3.2c4.5,0,8.9,0,13.4,0c0,1,0,2.1,0,3.2C52.8,77.1,48.4,77.1,43.9,77.1z"/>
	<linearGradient id="SVGID_15_" gradientUnits="userSpaceOnUse" x1="19.6367" y1="-14.4563" x2="108.5165" y2="75.6842">
		<stop  offset="5.995873e-07" style="stop-color:#4F6B83"/>
		<stop  offset="1" style="stop-color:#284A67"/>
	</linearGradient>
	<path class="st14" d="M40.4,6.6c0,1.2,0,2.2,0,3.3c-1.1,0-2.2,0-3.3,0c0-3.3,0-6.6,0-9.9c1.1,0,2.1,0,3.3,0c0,1,0,2.1,0,3.2
		c1.2,0,2.2,0,3.3,0c0,1.1,0,2.2,0,3.3C42.7,6.6,41.6,6.6,40.4,6.6z"/>
	<linearGradient id="SVGID_16_" gradientUnits="userSpaceOnUse" x1="24.1196" y1="-19" x2="113.1942" y2="71.3381">
		<stop  offset="5.995873e-07" style="stop-color:#4F6B83"/>
		<stop  offset="1" style="stop-color:#284A67"/>
	</linearGradient>
	<path class="st15" d="M80.9,33.6c0,1.1,0,2.1,0,3.2c-2.2,0-4.4,0-6.6,0c0-1.1,0-2.1,0-3.2C76.4,33.6,78.6,33.6,80.9,33.6z"/>
	<linearGradient id="SVGID_17_" gradientUnits="userSpaceOnUse" x1="10.6451" y1="-5.8074" x2="99.7195" y2="84.5305">
		<stop  offset="5.995873e-07" style="stop-color:#4F6B83"/>
		<stop  offset="1" style="stop-color:#284A67"/>
	</linearGradient>
	<path class="st16" d="M74.2,60.4c2.3,0,4.4,0,6.6,0c0,1.1,0,2.1,0,3.2c-2.2,0-4.4,0-6.6,0C74.2,62.6,74.2,61.6,74.2,60.4z"/>
	<linearGradient id="SVGID_18_" gradientUnits="userSpaceOnUse" x1="3.8859" y1="0.8101" x2="92.9605" y2="91.1481">
		<stop  offset="5.995873e-07" style="stop-color:#4F6B83"/>
		<stop  offset="1" style="stop-color:#284A67"/>
	</linearGradient>
	<path class="st17" d="M74.2,77.1c0-1.1,0-2.1,0-3.2c2.2,0,4.4,0,6.6,0c0,1.1,0,2.1,0,3.2C78.7,77.1,76.5,77.1,74.2,77.1z"/>
	<linearGradient id="SVGID_19_" gradientUnits="userSpaceOnUse" x1="17.3758" y1="-12.3969" x2="106.45" y2="77.9408">
		<stop  offset="5.995873e-07" style="stop-color:#4F6B83"/>
		<stop  offset="1" style="stop-color:#284A67"/>
	</linearGradient>
	<path class="st18" d="M80.9,47c0,1.1,0,2.1,0,3.2c-2.2,0-4.4,0-6.6,0c0-1,0-2.1,0-3.2C76.4,47,78.6,47,80.9,47z"/>
	<linearGradient id="SVGID_20_" gradientUnits="userSpaceOnUse" x1="1.9407" y1="2.7704" x2="91.015" y2="93.1082">
		<stop  offset="5.995873e-07" style="stop-color:#4F6B83"/>
		<stop  offset="1" style="stop-color:#284A67"/>
	</linearGradient>
	<path class="st19" d="M43.8,50.2c0-1.1,0-2.1,0-3.2c2.2,0,4.4,0,6.6,0c0,1,0,2.1,0,3.2C48.3,50.2,46.1,50.2,43.8,50.2z"/>
	<linearGradient id="SVGID_21_" gradientUnits="userSpaceOnUse" x1="-17.672" y1="22.0231" x2="71.4009" y2="112.3594">
		<stop  offset="5.995873e-07" style="stop-color:#4F6B83"/>
		<stop  offset="1" style="stop-color:#284A67"/>
	</linearGradient>
	<path class="st20" d="M6.7,67c0-4.5,0-8.9,0-13.3c9,0,17.9,0,26.9,0c0,4.4,0,8.8,0,13.3C24.7,67,15.7,67,6.7,67z M10.1,63.7
		c6.8,0,13.4,0,20.1,0c0-2.3,0-4.4,0-6.6c-6.7,0-13.4,0-20.1,0C10.1,59.3,10.1,61.4,10.1,63.7z"/>
	<linearGradient id="SVGID_22_" gradientUnits="userSpaceOnUse" x1="-26.6891" y1="31.1238" x2="62.1513" y2="121.2243">
		<stop  offset="5.995873e-07" style="stop-color:#4F6B83"/>
		<stop  offset="1" style="stop-color:#284A67"/>
	</linearGradient>
	<path class="st21" d="M27,80.6c2.2,0,4.4,0,6.6,0c0,1.1,0,2.1,0,3.3c-1.1,0-2.1,0-3.3,0c0,4.5,0,8.9,0,13.4c-1.2,0-2.2,0-3.3,0
		C27,91.7,27,86.2,27,80.6z"/>
	<linearGradient id="SVGID_23_" gradientUnits="userSpaceOnUse" x1="-29.4711" y1="33.7255" x2="59.4467" y2="123.9045">
		<stop  offset="5.995873e-07" style="stop-color:#4F6B83"/>
		<stop  offset="1" style="stop-color:#284A67"/>
	</linearGradient>
	<path class="st22" d="M13.4,70.5c0,1.1,0,2.1,0,3.3c-1.1,0-2.2,0-3.3,0c0,1.2,0,2.2,0,3.3c-1.2,0-2.2,0-3.3,0c0-2.2,0-4.4,0-6.6
		C8.9,70.5,11.1,70.5,13.4,70.5z"/>
	<linearGradient id="SVGID_24_" gradientUnits="userSpaceOnUse" x1="-24.3192" y1="28.6792" x2="64.6012" y2="118.8609">
		<stop  offset="5.995873e-07" style="stop-color:#4F6B83"/>
		<stop  offset="1" style="stop-color:#284A67"/>
	</linearGradient>
	<path class="st23" d="M23.5,70.5c0,1.1,0,2.1,0,3.3c-1.1,0-2.1,0-3.3,0c0,1.2,0,2.2,0,3.3c-1.1,0-2.2,0-3.3,0c0-2.2,0-4.3,0-6.6
		C19.1,70.5,21.2,70.5,23.5,70.5z"/>
	<linearGradient id="SVGID_25_" gradientUnits="userSpaceOnUse" x1="-19.1814" y1="23.6471" x2="69.7383" y2="113.828">
		<stop  offset="5.995873e-07" style="stop-color:#4F6B83"/>
		<stop  offset="1" style="stop-color:#284A67"/>
	</linearGradient>
	<path class="st24" d="M33.6,70.5c0,1.1,0,2.1,0,3.3c-1.1,0-2.1,0-3.3,0c0,1.1,0,2.2,0,3.3c-1.2,0-2.2,0-3.4,0c0-2.2,0-4.3,0-6.6
		C29.2,70.5,31.4,70.5,33.6,70.5z"/>
	<linearGradient id="SVGID_26_" gradientUnits="userSpaceOnUse" x1="-34.5205" y1="38.6863" x2="54.398" y2="128.866">
		<stop  offset="5.995873e-07" style="stop-color:#4F6B83"/>
		<stop  offset="1" style="stop-color:#284A67"/>
	</linearGradient>
	<path class="st25" d="M13.4,80.6c0,1.1,0,2.1,0,3.3c-1.1,0-2.1,0-3.3,0c0,1.1,0,2.2,0,3.3c-1.2,0-2.2,0-3.3,0c0-2.1,0-4.3,0-6.6
		C8.9,80.6,11.1,80.6,13.4,80.6z"/>
	<linearGradient id="SVGID_27_" gradientUnits="userSpaceOnUse" x1="-29.3724" y1="33.6447" x2="59.5462" y2="123.8246">
		<stop  offset="5.995873e-07" style="stop-color:#4F6B83"/>
		<stop  offset="1" style="stop-color:#284A67"/>
	</linearGradient>
	<path class="st26" d="M16.9,80.6c2.2,0,4.4,0,6.6,0c0,1.1,0,2.1,0,3.3c-1.1,0-2.1,0-3.3,0c0,1.1,0,2.2,0,3.3c-1.1,0-2.2,0-3.3,0
		C16.9,85,16.9,82.8,16.9,80.6z"/>
	<linearGradient id="SVGID_28_" gradientUnits="userSpaceOnUse" x1="-39.5592" y1="43.637" x2="49.3594" y2="133.8168">
		<stop  offset="5.995873e-07" style="stop-color:#4F6B83"/>
		<stop  offset="1" style="stop-color:#284A67"/>
	</linearGradient>
	<path class="st27" d="M6.7,90.6c2.2,0,4.4,0,6.6,0c0,1.1,0,2.1,0,3.3c-1,0-2.1,0-3.2,0c0,1.1,0,2.2,0,3.3c-1.1,0-2.2,0-3.3,0
		C6.7,95.1,6.7,92.9,6.7,90.6z"/>
	<linearGradient id="SVGID_29_" gradientUnits="userSpaceOnUse" x1="-34.4276" y1="38.6103" x2="54.4921" y2="128.7913">
		<stop  offset="5.995873e-07" style="stop-color:#4F6B83"/>
		<stop  offset="1" style="stop-color:#284A67"/>
	</linearGradient>
	<path class="st28" d="M16.9,97.3c0-2.2,0-4.3,0-6.6c2.2,0,4.4,0,6.6,0c0,1.1,0,2.1,0,3.3c-1.1,0-2.1,0-3.3,0c0,1.1,0,2.2,0,3.3
		C19,97.3,18,97.3,16.9,97.3z"/>
</g>
</svg>
