<?xml version="1.0" encoding="utf-8"?>
<!-- Generator: Adobe Illustrator 21.1.0, SVG Export Plug-In . SVG Version: 6.00 Build 0)  -->
<svg version="1.1" id="Layer_1" xmlns="http://www.w3.org/2000/svg" xmlns:xlink="http://www.w3.org/1999/xlink" x="0px" y="0px"
	 viewBox="0 0 85 98" style="enable-background:new 0 0 85 98;" xml:space="preserve">
<style type="text/css">
	.st0{fill:url(#SVGID_1_);}
	.st1{fill:url(#SVGID_2_);}
	.st2{fill:#7DA1BA;}
</style>
<g>
	<linearGradient id="SVGID_1_" gradientUnits="userSpaceOnUse" x1="5.6719" y1="4.1578" x2="80.0853" y2="93.574">
		<stop  offset="5.995873e-07" style="stop-color:#4F6B83"/>
		<stop  offset="1" style="stop-color:#284A67"/>
	</linearGradient>
	<path class="st0" d="M8.8,82c1.2,0,2.3,0,3.6,0c0,2.1,0,4.1,0,6.1c0,3.6,2.6,6.3,6.2,6.3c19,0,37.9,0,56.9,0c3.8,0,5.9-2.1,5.9-6
		c0-15.6,0-31.2,0-46.7c0-7.6,0-15.1,0-22.7c0-0.3,0-0.7-0.1-1.1c-1.7,0-3.4,0-5.1,0c-5.7,0-9-3.3-9-9c0-1.7,0-3.3,0-5.1
		c-0.4,0-0.7-0.1-1-0.1c-16,0-32,0-47.9,0c-3,0-5.3,1.6-5.8,4c-0.1,0.6-0.1,1.2-0.1,1.8c0,10.6,0,21.2,0,31.8c0,0.5,0,1,0,1.5
		c-1.2,0-2.3,0-3.6,0c0-1.4,0-2.8,0-4.2c0-9.7,0.1-19.4,0-29.1C8.6,3.5,13.4,0,18,0c8.3,0,16.5,0,24.8,0c8.6,0,17.1,0,25.7,0
		c0.9,0,1.6,0.3,2.3,0.9c4.5,4.5,9,9,13.4,13.6c0.5,0.5,0.8,1.3,0.8,2c0,24.1,0,48.1,0,72.2c0,4.5-3,8.4-7.1,9.1
		c-1.4,0.2-2.9,0.1-4.4,0.1c-18.3,0-36.5,0-54.8,0c-5.7,0-9.8-4.2-9.9-9.9C8.8,86.1,8.8,84.1,8.8,82z M70.9,6.5
		c-0.7,7.1,2.4,8.2,7.5,7.6C76,11.7,73.4,9.1,70.9,6.5z"/>
	<linearGradient id="SVGID_2_" gradientUnits="userSpaceOnUse" x1="-9.7712" y1="17.1554" x2="64.5731" y2="106.4885">
		<stop  offset="5.995873e-07" style="stop-color:#4F6B83"/>
		<stop  offset="1" style="stop-color:#284A67"/>
	</linearGradient>
	<path class="st1" d="M27.9,80.1c-6.2,0-12.3,0-18.5,0c-5.6,0-9.3-3.8-9.4-9.4c0-5.6,0-11.2,0-16.8c0-5.4,3.8-9.3,9.2-9.3
		c12.5,0,25,0,37.5,0c5.1,0,9,4,9,9c0,5.8,0,11.6,0,17.5c0,5.1-4,9-9,9C40.4,80.1,34.1,80.1,27.9,80.1
		C27.9,80.1,27.9,80.1,27.9,80.1z M27.9,76.6c6.3,0,12.6,0,18.9,0c3.1,0,5.4-2.3,5.4-5.4c0-5.8,0-11.6,0-17.5c0-3.6-2.2-5.7-5.7-5.8
		c-12.4,0-24.8,0-37.2,0c-3.8,0-5.9,2.1-5.9,5.9c0,5.7,0,11.3,0,17c0,3.3,2.3,5.6,5.5,5.6C15.3,76.7,21.6,76.6,27.9,76.6z"/>
	<path class="st2" d="M23.4,69.3c-2.7,0.3-2.7,0.3-3.9-1.8c-0.5-0.9-1-1.8-1.6-3c-0.7,1.2-1.2,2.1-1.7,3.1c-1.1,2-1.1,2-3.5,1.6
		c0.2-0.4,0.3-0.7,0.5-1.1c0.9-1.6,1.8-3.2,2.8-4.8c0.3-0.6,0.4-1,0-1.6c-0.9-1.7-1.8-3.4-2.7-5.1c-0.2-0.4-0.4-0.8-0.6-1.2
		c1.7-0.7,2.7-0.4,3.4,1.1c0.6,1.1,1.1,2.2,1.7,3.3c0,0.1,0.2,0.1,0.3,0.3c0.6-1.1,1.2-2.2,1.8-3.3c0.9-1.8,1.2-1.9,3.5-1.4
		c-0.8,1.6-1.7,3.1-2.5,4.6c-1.4,2.5-1.4,2.5,0.1,5C21.8,66.4,22.5,67.8,23.4,69.3z"/>
	<path class="st2" d="M39.1,55.4c1,0.1,2,0.3,3.1,0.4c1,0.1,0.9,0.8,0.9,1.5c0,0.9-0.6,0.6-1.1,0.6c-1.2-0.1-2.4-0.2-3.6-0.1
		c-0.8,0-1.4,0.4-1.5,1.3c-0.1,0.8,0.4,1.2,1.1,1.5c1.1,0.5,2.3,0.9,3.4,1.3c1.6,0.6,2.2,1.7,2.2,3.3c0,1.6-0.5,3-2,3.8
		c-2.2,1.1-4.5,0.5-6.7,0c-0.2-0.1-0.4-0.9-0.3-1.4c0-0.2,0.5-0.5,0.8-0.5c0.9,0,1.8,0.2,2.6,0.2c0.6,0,1.3,0,1.8-0.2
		c0.5-0.3,0.9-0.9,1-1.4c0-0.4-0.4-1-0.8-1.4c-0.3-0.3-0.9-0.4-1.3-0.5c-0.8-0.3-1.6-0.5-2.4-0.9c-1.8-0.9-2.4-2.2-2-4.3
		c0.3-1.6,1.5-2.7,3.3-2.9c0.5-0.1,1.1,0,1.7,0C39.1,55.5,39.1,55.4,39.1,55.4z"/>
	<path class="st2" d="M28.2,61.1c0,1.6,0,3.1,0,4.7c0,0.8,0.3,1.1,1.1,1.1c0.8-0.1,1.6,0,2.4,0c0.9-0.1,1,0.4,0.9,1.1
		c-0.1,0.6,0.4,1.5-0.9,1.5c-1.8,0-3.5,0-5.3,0c-0.6,0-0.8-0.3-0.8-0.9c0-4.1,0-8.2,0-12.3c0-1.2,0.8-0.9,1.4-1c0.7-0.1,1.2,0,1.2,1
		C28.2,57.9,28.2,59.5,28.2,61.1z"/>
</g>
</svg>
