<?xml version="1.0" encoding="utf-8"?>
<!-- Generator: Adobe Illustrator 21.1.0, SVG Export Plug-In . SVG Version: 6.00 Build 0)  -->
<svg version="1.1" id="Layer_1" xmlns="http://www.w3.org/2000/svg" xmlns:xlink="http://www.w3.org/1999/xlink" x="0px" y="0px"
	 viewBox="0 0 34 32" style="enable-background:new 0 0 34 32;" xml:space="preserve">
<style type="text/css">
	.st0{fill:#FFFFFF;}
</style>
<g>
	<path class="st0" d="M25.5,29.3c-5.7,3.6-11.4,3.6-17.1,0c-0.7,0.7-1.5,1.5-2.3,2.3c-0.4,0.4-0.9,0.5-1.4,0.3
		c-0.5-0.2-0.8-0.5-0.8-1.1c-0.1-0.4,0.1-0.8,0.4-1.1c0.6-0.6,1.3-1.3,1.9-1.9c0.1-0.1,0.2-0.2,0.3-0.3c-2.9-3.2-4.3-6.9-3.8-11.2
		c0.4-3.6,2-6.7,4.8-9.1c5.5-4.7,13.7-4.6,19.2,0.2c5.7,5,6.5,14.2,0.7,20.1c0.7,0.7,1.4,1.4,2.2,2.1c0.3,0.3,0.5,0.7,0.4,1.1
		c-0.1,0.5-0.3,0.9-0.8,1.1c-0.5,0.2-1,0.1-1.4-0.3c-0.7-0.7-1.4-1.3-2.1-2C25.7,29.5,25.6,29.4,25.5,29.3z M15.7,16.6
		c-0.2,0-0.3,0-0.4,0c-1.6,0-3.2,0-4.8,0c-0.6,0-1,0.2-1.2,0.7c-0.4,0.9,0.2,1.8,1.2,1.8c2.5,0,5.1,0,7.6,0c0.1,0,0.1,0,0.2,0
		c0-0.1,0-0.1,0-0.2c0-3.3,0-6.7,0-10c0-0.1,0-0.2,0-0.3c-0.2-0.6-0.8-1-1.4-0.9c-0.7,0.1-1.1,0.6-1.1,1.3c0,2.2,0,4.4,0,6.6
		C15.7,15.9,15.7,16.3,15.7,16.6z"/>
	<path class="st0" d="M11.3,1.6C8.1,4.8,4.9,7.9,1.7,11C0,9.4-1,5.5,1.5,2.5C4-0.4,8.5-0.9,11.3,1.6z"/>
	<path class="st0" d="M22.7,1.6c2.2-2,6.5-2.4,9.3,0.4c2.8,2.8,2.3,6.9,0.3,9C29.1,7.9,25.9,4.8,22.7,1.6z"/>
</g>
</svg>
