<?xml version="1.0" encoding="utf-8"?>
<!-- Generator: Adobe Illustrator 21.1.0, SVG Export Plug-In . SVG Version: 6.00 Build 0)  -->
<svg version="1.1" id="Layer_1" xmlns="http://www.w3.org/2000/svg" xmlns:xlink="http://www.w3.org/1999/xlink" x="0px" y="0px"
	 viewBox="0 0 70 70" style="enable-background:new 0 0 70 70;" xml:space="preserve">
<style type="text/css">
	.st0{fill:#F4F7F9;}
</style>
<g>
	<path class="st0" d="M48.9,52c-0.6-0.5-1.1-1.1-1.7-1.6c-7.2,5.8-15.4,8-24.5,6.2c-7.3-1.5-13.1-5.4-17.4-11.5
		c-8.5-11.9-6.5-28.3,4.6-38c10.9-9.6,27.5-9.4,38.3,0.6C59,17.7,60.7,35,50.4,47.2c0.5,0.5,1,1,1.5,1.5c0.1,0.1,0.4,0,0.5,0
		c1.5-0.7,1.5-0.7,2.7,0.5c4.5,4.5,9,9,13.5,13.5c1.2,1.2,1.7,2.6,1.1,4.2c-0.6,1.7-1.8,2.8-3.6,3.1c-1.3,0.2-2.4-0.4-3.3-1.3
		c-2.2-2.2-4.3-4.3-6.5-6.5c-2.5-2.5-5-4.9-7.4-7.4c-0.8-0.8-0.9-0.9-0.3-2C48.7,52.5,48.8,52.3,48.9,52z M52.4,28.6
		c0-13.1-10.6-23.8-23.6-23.8C15.5,4.8,4.8,15.5,4.8,28.7c0,13,10.7,23.7,23.8,23.7C41.8,52.4,52.4,41.7,52.4,28.6z M54,50.1
		c-0.3,0.3-0.8,0.5-0.9,0.9c-0.1,0.3,0,0.8,0.2,1c2.9,3,5.9,5.9,8.9,8.9c0.5,0.5,1,0.4,1.5,0c0.5-0.5,0.5-1,0-1.5
		c-2.9-2.9-5.9-5.9-8.8-8.8C54.6,50.4,54.3,50.3,54,50.1z"/>
	<path class="st0" d="M50.5,28.6c0,11.7-9.2,21.8-21.7,21.9c-12.2,0.1-22-9.5-22-21.9c0-12.1,9.5-21.7,21.7-21.8
		C40.9,6.7,50.4,16.5,50.5,28.6z M13.5,42.3c0.1-0.4,0.2-0.6,0.2-0.9c0.3-1.3,0.7-2.5,0.9-3.8c0.3-1.6,1.2-2.5,2.6-3
		c1.9-0.7,3.9-1.3,5.9-1.9c0.2-0.1,0.6,0.1,0.7,0.2c1,1.9,2.7,3.1,4.5,4.3c0.2,0.1,0.6,0.1,0.8,0c1.7-1.2,3.4-2.3,4.4-4.2
		c0.1-0.2,0.4-0.3,0.6-0.3c2.3,0.6,4.7,1.2,6.9,2.4c0.8,0.4,1.3,1,1.5,1.9c0.3,1.1,0.6,2.3,0.8,3.4c0.1,0.5,0.3,1.1,0.4,1.7
		c4.1-3.9,7-12.1,4.3-20.1C45.3,13.9,37.1,7.4,26.8,8.3C18.1,9,10.4,15.3,8.6,24.6c-0.9,4.5-0.4,8.8,1.7,13
		C11.1,39.3,12.1,40.9,13.5,42.3z"/>
	<path class="st0" d="M37.2,19.5c-0.6,3.4-1.6,7.4-4.8,10.3c-2.1,2-4.7,2.1-7,0.4c-0.8-0.6-1.5-1.4-2.1-2.2
		c-1.3-1.7-2.1-3.7-2.5-5.8c-0.2-1-0.6-1.9-0.8-2.9c-0.3-1.3,0-2.6,0.6-3.8c1.5-2.9,3.9-4.5,7.1-4.9c3.6-0.4,6.5,1,8.4,4.1
		C36.8,15.9,37.2,17.3,37.2,19.5z M22,19.6c0,0.1-0.1,0.2-0.1,0.2c0,0.2,0,0.3,0,0.5c0.1,3.1,1.2,5.8,3.3,8.1c2.2,2.4,4.7,2.4,6.9,0
		c1.8-2,2.8-4.4,3.2-7.1c0-0.3-0.1-0.7-0.2-1c-0.7-1.2-1.4-2.4-2.1-3.6c-0.2-0.4-0.4-0.7-0.6-1.2C29.9,19.5,26.1,19.9,22,19.6z"/>
</g>
</svg>
