<?xml version="1.0" encoding="utf-8"?>
<!-- Generator: Adobe Illustrator 21.1.0, SVG Export Plug-In . SVG Version: 6.00 Build 0)  -->
<svg version="1.1" id="Layer_1" xmlns="http://www.w3.org/2000/svg" xmlns:xlink="http://www.w3.org/1999/xlink" x="0px" y="0px"
	 viewBox="0 0 73 82" style="enable-background:new 0 0 73 82;" xml:space="preserve">
<style type="text/css">
	.st0{fill:#F9951F;}
</style>
<g>
	<g>
		<path class="st0" d="M64.2,32.1c-1.9,0-3.8,0-5.7,0c0-0.4,0-0.8,0-1.1c0-7.7,0-15.4,0-23.2c0-1.6-0.4-2.1-2.1-2.1
			c-11.6,0-23.1,0-34.7,0c-0.4,0-0.8,0-1.3,0c0,0.4,0,0.7,0,1c0,2.5,0,5,0,7.5c0,3.6-2.5,6.1-6.1,6.1c-2.8,0-5.6,0-8.5,0
			c0,0.4,0,0.7,0,1c0,17.5,0,34.9,0,52.4c0,0.2,0,0.3,0,0.5c0,1.4,0.5,1.9,1.9,1.9c8.4,0,16.9,0,25.3,0c7.8,0,15.6,0,23.4,0
			c1.7,0,2.1-0.4,2.1-2.2c0-3.1,0-6.3,0-9.5c1.9,0,3.8,0,5.7,0c0,0.3,0,0.6,0,0.9c0,3.4,0,6.9,0,10.3c0,3.7-2.5,6.2-6.2,6.2
			c-17.3,0-34.6,0-52,0C2.5,82,0,79.5,0,75.9c0-18.5,0-37,0-55.5c0-1.8,0.6-3.4,1.9-4.7c4.6-4.6,9.2-9.2,13.8-13.8
			C16.9,0.6,18.4,0,20.2,0c12.7,0,25.4,0,38.1,0c3.4,0,6,2.5,6,5.9c0,8.5,0,17.1,0,25.6C64.2,31.7,64.2,31.9,64.2,32.1z"/>
		<path class="st0" d="M43.8,35.2c7.7,0,15.3,0,23,0c3.7,0,6.2,2.5,6.2,6.2c0,4.5,0,9.1,0,13.6c0,4.1-2.4,6.4-6.4,6.4
			c-15.3,0-30.5,0-45.8,0c-3.8,0-6.2-2.5-6.2-6.3c0-4.6,0-9.3,0-13.9c0-3.6,2.5-6.1,6.1-6.1C28.4,35.2,36.1,35.2,43.8,35.2z
			 M37.9,48.3c0,2.2,0,4.3,0,6.5c0,0.7,0.2,0.9,0.9,0.9c1.7,0,3.3,0,5,0c2.8,0,5.2-1.9,5.7-4.6c0.3-1.4,0.2-2.9,0.2-4.3
			c0-3.2-2.6-5.8-5.8-5.8c-1.7,0-3.3,0-5,0c-0.7,0-1,0.2-1,0.9C37.9,44,37.9,46.2,37.9,48.3z M26.3,49.8c1.6,0,3.1,0,4.5,0
			c2.5,0,4.5-1.9,4.6-4.4c0-2.5-2-4.5-4.6-4.5c-2.1,0-4.3,0-6.4,0c-0.9,0-1.2,0.3-1.2,1.1c0,3.9,0,7.7,0,11.6c0,2.2-0.2,1.9,1.9,2
			c0.9,0,1.1-0.3,1.1-1.1C26.3,53,26.3,51.5,26.3,49.8z M55.6,44c2.4,0,4.6,0,6.9,0c2,0,1.8,0.2,1.8-1.9c0-0.8-0.2-1.1-1.1-1.1
			c-3.2,0-6.5,0-9.7,0c-0.8,0-1.1,0.3-1,1.1c0,2.6,0,5.1,0,7.7c0,1.7,0,3.4,0,5.1c0,0.6,0.2,0.9,0.9,0.9c0.2,0,0.5,0,0.7,0
			c1.4,0,1.4,0,1.4-1.4c0-1.5,0-3,0-4.5c1.8,0,3.4,0,5,0c0.5,0,0.9-0.1,0.9-0.8c0-2.6,0.3-2.2-2-2.2c-1.3,0-2.5,0-3.8,0
			C55.6,45.8,55.6,45,55.6,44z"/>
		<path class="st0" d="M40.9,52.7c0-3,0-5.8,0-8.8c1.3,0.1,2.6,0,3.9,0.3c1.2,0.3,1.8,1.4,1.9,2.6c0,1,0,2,0,2.9
			c-0.1,1.6-1.1,2.6-2.6,2.9c-0.3,0-0.5,0-0.8,0C42.5,52.7,41.8,52.7,40.9,52.7z"/>
		<path class="st0" d="M26.3,46.8c0-1,0-1.8,0-2.8c1.5,0,3.1-0.1,4.6,0c0.7,0,1.2,0.7,1.1,1.4c-0.1,0.8-0.5,1.3-1.3,1.3
			C29.3,46.9,27.9,46.8,26.3,46.8z"/>
	</g>
</g>
</svg>
