<?xml version="1.0" encoding="utf-8"?>
<!-- Generator: Adobe Illustrator 21.1.0, SVG Export Plug-In . SVG Version: 6.00 Build 0)  -->
<svg version="1.1" id="Layer_1" xmlns="http://www.w3.org/2000/svg" xmlns:xlink="http://www.w3.org/1999/xlink" x="0px" y="0px"
	 viewBox="0 0 33 35" style="enable-background:new 0 0 33 35;" xml:space="preserve">
<style type="text/css">
	.st0{fill:#FFFFFF;}
</style>
<g>
	<path class="st0" d="M14.1,4.9c0,1.1,0,2.2,0,3.3c0,1.8,2,2.9,3.5,2c0.8-0.4,1.2-1.1,1.2-2c0-1.1,0-2.2,0-3.4
		c0.9,0.3,1.8,0.5,2.6,0.8c0.8,0.3,1.5,0.7,2.3,1.1c0.2,0.1,0.4,0.1,0.6,0c2-0.9,4-1.1,6.1-0.7c1.7,0.4,2,0.6,2.4,2.4
		c0.5,2.6-0.2,5-1.4,7.3c-0.2,0.3-0.3,0.6-0.6,0.9c-0.2,0.3-0.3,0.6-0.3,1c0.3,3.2-0.5,6.1-2.3,8.7c-0.4,0.7-0.6,1.3-0.7,2.1
		c-0.2,1.6,0.1,3.1,0.5,4.6c0.3,0.9,0,1.4-0.9,1.7c-0.5,0.2-1.1,0.3-1.7,0.3c-1.1,0-2.1,0-3.2-0.1c-0.5,0-0.9-0.3-1.1-0.8
		c-0.3-0.6-0.7-1.1-1.1-1.6c-0.1-0.2-0.3-0.2-0.5-0.1c-2.1,0.5-4.3,0.5-6.4,0c-0.1,0-0.4,0-0.4,0.1c-0.4,0.5-0.8,1-1.1,1.5
		c-0.3,0.6-0.7,0.9-1.4,1C9,35,7.5,35.1,6.1,34.8c-0.2,0-0.3-0.1-0.5-0.2c-0.8-0.3-1-0.7-0.8-1.5c0.2-1,0.5-2,0.6-3
		c0.1-1-0.1-2-0.2-2.9c0-0.2-0.1-0.3-0.2-0.4c-1.8-2.5-2.7-5.3-2.6-8.4c0-0.9-0.1-1.6-0.6-2.3c-1.1-1.6-1.6-3.5-1.8-5.4
		c-0.1-1,0-2,0.3-3C0.6,6.9,1,6.5,1.7,6.3C3.9,5.6,6,5.7,8.1,6.5c0.6,0.3,1.1,0.2,1.6-0.1C11.1,5.6,12.5,5.2,14.1,4.9z M16.5,20.9
		c-1.1,0.1-2.2,0.1-3.3,0.5c-1.1,0.4-1.7,1.3-1.7,2.4c0,0.2,0,0.5,0,0.7c0.2,1.6,1.1,2.7,2.6,3.2c1.3,0.4,2.6,0.4,3.9,0.1
		c1.9-0.3,2.9-1.3,3.2-3.2c0.4-2-0.4-3.1-2.4-3.5C18.2,21.1,17.3,21,16.5,20.9z M14.3,16.5c0-0.9-0.3-1.7-1-2.3
		c-0.7-0.6-1.6-0.5-2.3,0.2c-1,1.1-0.7,3.2,0.4,4.1c0.7,0.5,1.6,0.5,2.2-0.2C14.1,17.8,14.2,17.1,14.3,16.5z M22.5,16.2
		c0-0.6-0.1-1.1-0.5-1.6c-0.6-0.9-1.7-1-2.5-0.3c-1,0.9-1.1,2.7-0.4,3.8c0.6,0.9,1.7,1,2.5,0.2C22.3,17.7,22.5,17,22.5,16.2z
		 M26.5,8.8c1.4,1.4,2.4,2.9,3.2,4.7c0.2-0.4,0.4-0.9,0.5-1.3c0.3-1,0.4-2.1,0.2-3.1c-0.1-0.3-0.2-0.5-0.6-0.6
		C28.7,8.3,27.7,8.5,26.5,8.8z M6.4,8.9C5.8,8.5,4,8.3,3.2,8.5C2.9,8.6,2.7,8.7,2.6,9.1c-0.2,0.8-0.1,1.7,0.1,2.5
		c0.1,0.6,0.4,1.3,0.6,1.9c0,0,0.1,0,0.1,0C4.1,11.7,5.1,10.2,6.4,8.9z"/>
	<path class="st0" d="M17.7,4.1c0,0.9,0,1.8,0,2.7c0,0.8-0.5,1.3-1.1,1.3c-0.7,0-1.2-0.5-1.2-1.3c0-1.9,0-3.7,0-5.6
		c0-0.6,0.3-1,0.8-1.2c0.8-0.3,1.6,0.3,1.6,1.1C17.7,2.2,17.7,3.1,17.7,4.1z"/>
	<path class="st0" d="M14.2,25.6c-0.6,0-1.2-0.5-1.2-1.2c0-0.6,0.5-1.1,1.1-1.1c0.6,0,1.2,0.5,1.2,1.2
		C15.3,25.1,14.8,25.6,14.2,25.6z"/>
	<path class="st0" d="M20,24.5c0,0.6-0.5,1.1-1.1,1.2c-0.6,0-1.2-0.5-1.2-1.2c0-0.6,0.5-1.1,1.1-1.2C19.5,23.3,20,23.9,20,24.5z"/>
</g>
</svg>
