<?xml version="1.0" encoding="utf-8"?>
<!-- Generator: Adobe Illustrator 21.1.0, SVG Export Plug-In . SVG Version: 6.00 Build 0)  -->
<svg version="1.1" id="Layer_1" xmlns="http://www.w3.org/2000/svg" xmlns:xlink="http://www.w3.org/1999/xlink" x="0px" y="0px"
	 viewBox="0 0 12 12" style="enable-background:new 0 0 12 12;" xml:space="preserve">
<style type="text/css">
	.st0{fill:#D7E2E9;}
</style>
<g>
	<g>
		<path class="st0" d="M11.2,12c-0.1,0-0.2,0-0.3,0c-0.3-0.1-0.6-0.3-0.8-0.5c-0.5-0.5-1-1-1.6-1.6C8.4,9.8,8.3,9.7,8.2,9.6
			c0,0-0.1,0-0.1,0.1c-1,0.7-2.2,0.9-3.4,0.8c-1.1-0.1-2.1-0.6-2.9-1.3C0.9,8.3,0.3,7.3,0.1,6.2C0.1,6,0,5.7,0,5.5
			c0-0.2,0-0.4,0-0.6c0-0.2,0-0.3,0.1-0.5c0.2-1,0.6-2,1.3-2.7c0.8-0.9,1.8-1.5,3-1.7C4.5,0.1,4.7,0,4.9,0c0.2,0,0.4,0,0.6,0
			c0,0,0.1,0,0.1,0c0.7,0,1.4,0.2,2,0.5c2.4,1.2,3.5,4.2,2.5,6.7c-0.1,0.3-0.3,0.6-0.5,1c0,0,0.1,0,0.1,0.1c0.6,0.6,1.2,1.2,1.8,1.8
			c0.2,0.2,0.5,0.5,0.5,0.8c0,0.1,0,0.2,0,0.3c0,0,0,0,0,0.1C11.9,11.6,11.6,11.9,11.2,12C11.2,12,11.2,12,11.2,12z M1.8,5.2
			c0,1.9,1.5,3.5,3.5,3.5c1.9,0,3.5-1.6,3.5-3.5c0-1.9-1.6-3.5-3.5-3.5C3.3,1.8,1.8,3.3,1.8,5.2z"/>
	</g>
</g>
</svg>
