<?xml version="1.0" encoding="utf-8"?>
<!-- Generator: Adobe Illustrator 21.1.0, SVG Export Plug-In . SVG Version: 6.00 Build 0)  -->
<svg version="1.1" id="Layer_1" xmlns="http://www.w3.org/2000/svg" xmlns:xlink="http://www.w3.org/1999/xlink" x="0px" y="0px"
	 viewBox="0 0 60 63" style="enable-background:new 0 0 60 63;" xml:space="preserve">
<style type="text/css">
	.st0{fill:#F4F7F9;}
</style>
<g>
	<g>
		<path class="st0" d="M15.1,56.7c0-2.1,0-4.2,0-6.3c0-7.9,0-15.8,0-23.8c0-0.6,0.2-0.8,0.7-1c7.6-2.9,12.4-8.3,14.6-16
			c0.5-1.9,0.9-3.8,1.4-5.6c0.2-0.7,0.4-1.3,0.7-1.9C33.6-0.2,36.3-0.7,38,1c1.2,1.2,1.7,2.7,2,4.3c0.6,3.1,0.3,6.3-0.2,9.4
			c-0.3,1.8-0.8,3.7-1.2,5.5c-0.4,1.7,0.3,2.6,2.1,2.6c3.4,0,6.9,0,10.3,0c0.8,0,1.7,0.1,2.5,0.2c2.6,0.4,4.4,2.5,4.4,5.2
			c0,0.9-0.1,1.7-0.3,2.6c-0.3,1.2-0.1,2.2,0.5,3.2c0.3,0.5,0.7,1,1,1.5c1.1,1.7,1.2,3.5,0.1,5.2c-0.4,0.7-0.8,1.3-1.3,1.9
			c-0.6,0.9-0.7,2-0.5,3c0.2,0.9,0.5,1.8,0.7,2.7c0.4,1.5-0.1,2.8-1.2,3.9c-0.4,0.4-0.8,0.8-1.3,1.1c-1.1,0.7-1.4,1.6-1.3,2.8
			c0.1,0.8,0,1.7-0.2,2.4c-0.6,2.5-2.5,3.7-4.8,4.2c-0.9,0.2-1.8,0.3-2.7,0.3c-4.6,0-9.2,0-13.8,0c-3.9,0-7.3-1-10.4-3.4
			c-1.5-1.1-3-2.2-4.9-2.6C16.7,56.9,16,56.8,15.1,56.7z"/>
		<path class="st0" d="M10.4,43.2c0,6.3,0,12.6,0,18.9c0,0.6-0.2,0.8-0.8,0.8c-2.9,0-5.9,0-8.8,0C0.2,63,0,62.8,0,62.2
			c0-12.7,0-25.3,0-38c0-0.6,0.2-0.7,0.8-0.7c2.9,0,5.8,0,8.7,0c0.7,0,0.9,0.2,0.9,0.9C10.4,30.7,10.4,37,10.4,43.2
			C10.4,43.2,10.4,43.2,10.4,43.2z"/>
	</g>
</g>
</svg>
