<?xml version="1.0" encoding="utf-8"?>
<!-- Generator: Adobe Illustrator 21.1.0, SVG Export Plug-In . SVG Version: 6.00 Build 0)  -->
<svg version="1.1" id="Layer_1" xmlns="http://www.w3.org/2000/svg" xmlns:xlink="http://www.w3.org/1999/xlink" x="0px" y="0px"
	 viewBox="0 0 54 66" style="enable-background:new 0 0 54 66;" xml:space="preserve">
<style type="text/css">
	.st0{fill:#F4F7F9;}
</style>
<g>
	<path class="st0" d="M11.2,7.9c0,2.3,0,4.4,0,6.7c-1.5,0-2.9,0-4.4,0c0,14.9,0,29.8,0,44.7c13.5,0,26.9,0,40.4,0
		c0-14.9,0-29.7,0-44.6c-1.5,0-2.9,0-4.4,0c0-2.2,0-4.4,0-6.8c2.1,0.1,4.2,0,6.2,0.4c3,0.6,5,3.4,5,6.6c0,6.6,0,13.2,0,19.8
		c0,8.2,0,16.4,0,24.6c0,3.9-2.9,6.8-6.8,6.8C33.8,66,20.4,66,7,66c-4.1,0-7-2.8-7-6.9c0-14.7,0-29.3,0-44c0-4.2,2.9-7.2,7.2-7.2
		C8.5,7.9,9.8,7.9,11.2,7.9z"/>
	<path class="st0" d="M27,19.1c-3.8,0-7.5,0-11.3,0c-1.5,0-2.2-0.7-2.2-2.1c0-2.8,0-5.6,0-8.4c0-0.4,0.1-0.7,0.5-0.8
		c1.4-0.5,2.8-1,4.2-1.5c0.3-0.1,0.6-0.4,0.8-0.6c0.4-0.6,0.8-1.3,1.2-1.9c3.2-4.9,10.3-5,13.3,0c1,1.6,2.1,2.8,4,3.2
		c0.8,0.2,1.6,0.6,2.5,0.8c0.4,0.1,0.5,0.3,0.5,0.7c0,2.9,0,5.8,0,8.7c0,1.2-0.8,2-2.1,2C34.6,19.1,30.8,19.1,27,19.1z M30.7,7.9
		c0-2.1-1.7-3.8-3.8-3.8c-2.1,0-3.8,1.7-3.8,3.7c0,2.1,1.7,3.8,3.9,3.8C29,11.6,30.7,9.9,30.7,7.9z"/>
	<path class="st0" d="M15.9,33.1c1.6-1.6,3.2-3.2,4.8-4.8c2.1,2.1,4.1,4.1,6.2,6.2c2.2-2.2,4.2-4.2,6.3-6.3c1.7,1.6,3.2,3.2,4.9,4.8
		c-2,2-4.1,4.1-6.2,6.2c2.1,2.1,4.2,4.2,6.3,6.2c-1.6,1.6-3.2,3.2-4.8,4.7c-2-2-4.1-4.1-6.2-6.2c-2.2,2.2-4.3,4.3-6.4,6.3
		c-1.6-1.6-3.2-3.2-4.8-4.8c2-2,4.1-4.1,6.3-6.2C20.1,37.2,18,35.1,15.9,33.1z"/>
</g>
</svg>
