<?xml version="1.0" encoding="utf-8"?>
<!-- Generator: Adobe Illustrator 21.1.0, SVG Export Plug-In . SVG Version: 6.00 Build 0)  -->
<svg version="1.1" id="Layer_1" xmlns="http://www.w3.org/2000/svg" xmlns:xlink="http://www.w3.org/1999/xlink" x="0px" y="0px"
	 viewBox="0 0 35 51" style="enable-background:new 0 0 35 51;" xml:space="preserve">
<style type="text/css">
	.st0{fill:url(#SVGID_1_);}
</style>
<g>
	<linearGradient id="SVGID_1_" gradientUnits="userSpaceOnUse" x1="17.5" y1="5.5811" x2="17.5" y2="41.4233">
		<stop  offset="0" style="stop-color:#922569"/>
		<stop  offset="1" style="stop-color:#C63B59"/>
	</linearGradient>
	<path class="st0" d="M17.3,0c8.9,0,16.3,6.5,17.6,15c0.5,3.2-0.2,6.3-1.3,9.2c-2.1,5.7-5,11.1-8.2,16.2c-2,3.1-4.2,6.1-6.3,9.1
		c-0.3,0.4-0.6,0.7-0.9,1c-0.5,0.5-0.7,0.6-1.2,0c-0.7-0.8-1.4-1.6-2.1-2.4C9.5,40.8,4.9,33.1,1.6,24.6c-1-2.5-1.7-5-1.6-7.7
		C0.2,9.2,5.9,2.1,13.5,0.5c0.7-0.2,1.4-0.3,2.1-0.4C16.2,0,16.9,0,17.3,0z M25.2,17.4c0-4.3-3.4-7.7-7.6-7.8
		c-4.3,0-7.8,3.5-7.8,7.8c0,4.3,3.5,7.7,7.8,7.7C21.8,25.2,25.2,21.7,25.2,17.4z"/>
</g>
</svg>
