<?xml version="1.0" encoding="utf-8"?>
<!-- Generator: Adobe Illustrator 21.1.0, SVG Export Plug-In . SVG Version: 6.00 Build 0)  -->
<svg version="1.1" id="Layer_1" xmlns="http://www.w3.org/2000/svg" xmlns:xlink="http://www.w3.org/1999/xlink" x="0px" y="0px"
	 viewBox="0 0 73 82" style="enable-background:new 0 0 73 82;" xml:space="preserve">
<style type="text/css">
	.st0{fill:#F9951F;}
</style>
<g>
	<path class="st0" d="M61.7,32.1c-1.8,0-3.6,0-5.5,0c0-0.4,0-0.8,0-1.1c0-7.7,0-15.4,0-23.2c0-1.6-0.4-2.1-2-2.1
		c-11.1,0-22.2,0-33.4,0c-0.4,0-0.8,0-1.3,0c0,0.4,0,0.7,0,1c0,2.5,0,5,0,7.5c0,3.6-2.4,6.1-5.9,6.1c-2.6,0-5.3,0-7.9,0
		c-0.1,0-0.1,0-0.3,0.1c0,0.3,0,0.6,0,0.8c0,17.6,0,35.2,0,52.8c0,1.6,0.4,2.1,2,2.1c15.6,0,31.1,0,46.7,0c1.5,0,2-0.5,2-2.1
		c0-3.2,0-6.3,0-9.6c1.8,0,3.6,0,5.5,0c0,0.3,0,0.6,0,0.9c0,3.4,0,6.8,0,10.3c0,3.9-2.3,6.3-6,6.3c-16.6,0-33.3,0-49.9,0
		C2.4,82,0,79.5,0,75.9c0-18.5,0-37.1,0-55.6c0-1.8,0.6-3.3,1.8-4.6C6.2,11.1,10.6,6.5,15,2c1.3-1.3,2.8-2,4.6-2
		c12.1,0,24.2,0,36.4,0c3.3,0,5.8,2.4,5.8,5.8c0,8.6,0,17.3,0,25.9C61.8,31.8,61.7,31.9,61.7,32.1z"/>
	<path class="st0" d="M43.5,61.5c-7.8,0-15.6,0-23.4,0c-3.6,0-6-2.5-6-6.2c0-4.7,0-9.4,0-14.1c0-3.5,2.4-6,5.8-6
		c15.8,0,31.6,0,47.3,0c3.4,0,5.8,2.5,5.8,6.1c0,4.7,0,9.3,0,14c0,3.6-2.4,6.1-5.9,6.1C59.2,61.5,51.3,61.5,43.5,61.5
		C43.5,61.5,43.5,61.5,43.5,61.5z M43.6,40.8c-4,0-7.2,3.4-7.3,7.5c0,4.1,3.2,7.6,7.1,7.6c4,0,7.3-3.4,7.3-7.5
		C50.8,44.2,47.5,40.8,43.6,40.8z M22.4,48.3c0,2.2,0,4.3,0,6.5c0,0.7,0.2,1,0.9,0.9c1.7,0,3.4,0,5.1,0c2.8,0,5.1-2.1,5.5-4.9
		c0.2-1.5,0.2-3,0.1-4.5c-0.3-3.3-2.7-5.4-5.8-5.4c-1.6,0-3.2,0-4.7,0c-0.7,0-1,0.2-1,1C22.4,44.1,22.4,46.2,22.4,48.3z M63.1,45.4
		c0.4,0,0.6,0,0.8,0c1.1,0,1.3-0.2,0.8-1.3c-0.8-2-2.4-3-4.3-3.2c-3.1-0.4-5.9,0.7-6.9,4.3c-0.6,2.2-0.6,4.5,0.1,6.7
		c0.8,2.4,2.4,3.8,4.8,4c2.4,0.2,4.5-0.3,5.9-2.6c0.3-0.5,0.4-1.1,0.6-1.7c-0.5-0.1-1-0.2-1.6-0.3c-0.8-0.1-1.5,0.1-2.1,0.8
		c-1.3,1.4-4,0.7-4.5-1.2c-0.5-1.8-0.5-3.6,0-5.3c0.6-1.8,3.4-2.4,4.6-1C61.8,45.3,62.4,45.5,63.1,45.4z"/>
	<path class="st0" d="M47.7,48.4c0,2.3-2,4.3-4.2,4.3c-2.3,0-4.2-2-4.2-4.4c0-2.3,1.9-4.3,4.2-4.3C45.8,44,47.7,46,47.7,48.4z"/>
	<path class="st0" d="M25.3,52.7c0-2.9,0-5.8,0-8.7c1.1,0,2.1-0.1,3.1,0c1.4,0.2,2.3,1.3,2.4,2.8c0,1,0,2,0,3
		c-0.1,1.6-1.1,2.7-2.6,2.8C27.3,52.7,26.3,52.7,25.3,52.7z"/>
</g>
</svg>
