<svg width="326" height="50" viewBox="0 0 326 50" fill="none" xmlns="http://www.w3.org/2000/svg">
<path d="M31.628 38.2818C26.4214 46.1998 18.7355 48.9191 17 48.3593C18.4876 48.8392 33.9919 53.6026 37.8263 44.2803C41.2973 35.8414 49.418 34.8635 48.9832 34.4427C45.0163 30.6036 36.5024 30.8689 31.628 38.2818Z" fill="#C9B462"/>
<path d="M23.1709 33.6307C18.127 41.9887 10.6813 44.8591 9 44.2681C10.4411 44.7747 25.4609 49.8028 29.1755 39.9625C32.538 31.0548 40.405 30.0226 39.9837 29.5784C36.1408 25.5261 27.8929 25.806 23.1709 33.6307Z" fill="#C9B462"/>
<path d="M14.628 28.2818C9.42141 36.1998 1.73552 38.9191 0 38.3593C1.48759 38.8392 16.9919 43.6026 20.8263 34.2803C24.2973 25.8414 32.418 24.8635 31.9832 24.4427C28.0163 20.6036 19.5024 20.8689 14.628 28.2818Z" fill="#C9B462"/>
<path d="M52.2392 31.898C53.8472 37.0507 50.034 40.7313 48.0739 42C51.9942 41.2639 59.0999 36.3565 56.4047 28.2593C53.7094 20.1621 28.551 14.7198 32.8824 6.91221C35.4562 2.27295 43.9084 5.39812 45.3786 7.60644C46.1137 8.58792 49.6562 11.4899 50.7529 11.6817L49.789 3.47704C39.9881 -2.90256 26.8193 -0.203501 27.0019 9.12053C27.2469 21.6344 50.4781 26.2545 52.2392 31.898Z" fill="#C9B462"/>
<path d="M84.2043 15C86.0647 15 87.6024 15.4721 88.8174 16.4162C90.0513 17.3603 90.8297 18.6127 91.1524 20.1734L89.7286 20.5202C89.4818 19.2293 88.8648 18.1985 87.8777 17.4277C86.8905 16.657 85.6471 16.2717 84.1474 16.2717C82.7046 16.2717 81.5181 16.6378 80.5879 17.3699C79.6767 18.1021 79.2211 19.0848 79.2211 20.3179C79.2211 21.3006 79.5059 22.052 80.0754 22.5723C80.6639 23.0732 81.5086 23.4489 82.6097 23.6994L86.7956 24.711C87.46 24.8459 88.039 25.0193 88.5326 25.2312C89.0452 25.4432 89.5293 25.7322 89.9849 26.0983C90.4595 26.4644 90.8202 26.9364 91.0669 27.5145C91.3327 28.0732 91.4656 28.7283 91.4656 29.4798C91.4656 31.1561 90.8391 32.4952 89.5862 33.4971C88.3523 34.499 86.7102 35 84.6599 35C82.5717 35 80.8252 34.4894 79.4204 33.4682C78.0156 32.4277 77.2088 31.0212 77 29.2486L78.5377 28.9017C78.7085 30.3854 79.3635 31.5607 80.5025 32.4277C81.6415 33.2755 83.0653 33.6994 84.7738 33.6994C86.3875 33.6994 87.6689 33.3237 88.618 32.5723C89.5672 31.8208 90.0418 30.8092 90.0418 29.5376C90.0418 28.4971 89.7571 27.7264 89.1876 27.2254C88.637 26.7245 87.7353 26.3295 86.4824 26.0405L82.0687 25C79.1452 24.3064 77.6834 22.7553 77.6834 20.3468C77.6834 18.7283 78.2814 17.4374 79.4774 16.474C80.6923 15.4913 82.268 15 84.2043 15Z" fill="#C9B462"/>
<path d="M112.143 34.6821H110.605L108.27 29.3931H97.3925L95.0291 34.6821H93.4914L102.176 15.3179H103.458L112.143 34.6821ZM107.672 28.0636L102.831 17.1676L97.9905 28.0636H107.672Z" fill="#C9B462"/>
<path d="M130.583 34.6821H128.59L117.74 25.6936H116.744V34.6821H115.291V15.3179H116.744V24.3642H117.655L128.077 15.3179H129.928L118.851 25.0289L130.583 34.6821Z" fill="#C9B462"/>
<path d="M150.741 34.6821H149.203L146.868 29.3931H135.99L133.627 34.6821H132.089L140.774 15.3179H142.056L150.741 34.6821ZM146.27 28.0636L141.429 17.1676L136.588 28.0636H146.27Z" fill="#C9B462"/>
<path d="M166.846 33.3526V34.6821H153.889V15.3179H155.341V33.3526H166.846Z" fill="#C9B462"/>
<path d="M193.78 15.3179L185.379 34.6821H184.041L175.641 15.3179H177.207L184.696 32.659L192.214 15.3179H193.78Z" fill="#C9B462"/>
<path d="M198.555 16.6474V24.3064H209.917V25.6069H198.555V33.3526H210.771V34.6821H197.103V15.3179H210.771V16.6474H198.555Z" fill="#C9B462"/>
<path d="M231.435 15.3179V34.6821H230.154L216.742 17.8324V34.6821H215.29V15.3179H216.571L230.012 32.2832V15.3179H231.435Z" fill="#C9B462"/>
<path d="M251.333 16.6474H243.901V34.6821H242.42V16.6474H234.988V15.3179H251.333V16.6474Z" fill="#C9B462"/>
<path d="M270.295 15.3179V26.3295C270.295 28.9306 269.573 31.0308 268.13 32.6301C266.707 34.21 264.827 35 262.492 35C260.119 35 258.211 34.21 256.769 32.6301C255.326 31.0308 254.605 28.9306 254.605 26.3295V15.3179H256.057V26.3295C256.057 28.526 256.645 30.289 257.822 31.6185C258.999 32.948 260.556 33.6127 262.492 33.6127C264.41 33.6127 265.947 32.948 267.105 31.6185C268.282 30.289 268.871 28.526 268.871 26.3295V15.3179H270.295Z" fill="#C9B462"/>
<path d="M290.871 34.6821H288.992L281.133 25.7803H276.947V34.6821H275.495V15.3179H284.18C285.964 15.3179 287.397 15.7996 288.479 16.763C289.561 17.7071 290.103 18.9692 290.103 20.5491C290.103 22.1291 289.561 23.4008 288.479 24.3642C287.397 25.3083 285.964 25.7803 284.18 25.7803H282.955L290.871 34.6821ZM276.947 24.4798H284.18C285.527 24.4798 286.609 24.1233 287.426 23.4104C288.261 22.6782 288.679 21.7245 288.679 20.5491C288.679 19.3738 288.261 18.4297 287.426 17.7168C286.609 17.0039 285.527 16.6474 284.18 16.6474H276.947V24.4798Z" fill="#C9B462"/>
<path d="M295.968 16.6474V24.3064H307.329V25.6069H295.968V33.3526H308.184V34.6821H294.515V15.3179H308.184V16.6474H295.968Z" fill="#C9B462"/>
<path d="M318.739 15C320.599 15 322.137 15.4721 323.352 16.4162C324.586 17.3603 325.364 18.6127 325.687 20.1734L324.263 20.5202C324.016 19.2293 323.399 18.1985 322.412 17.4277C321.425 16.657 320.181 16.2717 318.682 16.2717C317.239 16.2717 316.053 16.6378 315.122 17.3699C314.211 18.1021 313.755 19.0848 313.755 20.3179C313.755 21.3006 314.04 22.052 314.61 22.5723C315.198 23.0732 316.043 23.4489 317.144 23.6994L321.33 24.711C321.994 24.8459 322.573 25.0193 323.067 25.2312C323.58 25.4432 324.064 25.7322 324.519 26.0983C324.994 26.4644 325.355 26.9364 325.601 27.5145C325.867 28.0732 326 28.7283 326 29.4798C326 31.1561 325.374 32.4952 324.121 33.4971C322.887 34.499 321.245 35 319.194 35C317.106 35 315.36 34.4894 313.955 33.4682C312.55 32.4277 311.743 31.0212 311.534 29.2486L313.072 28.9017C313.243 30.3854 313.898 31.5607 315.037 32.4277C316.176 33.2755 317.6 33.6994 319.308 33.6994C320.922 33.6994 322.203 33.3237 323.152 32.5723C324.102 31.8208 324.576 30.8092 324.576 29.5376C324.576 28.4971 324.291 27.7264 323.722 27.2254C323.171 26.7245 322.27 26.3295 321.017 26.0405L316.603 25C313.68 24.3064 312.218 22.7553 312.218 20.3468C312.218 18.7283 312.816 17.4374 314.012 16.474C315.227 15.4913 316.802 15 318.739 15Z" fill="#C9B462"/>
</svg>
