<svg width="92" height="80" viewBox="0 0 92 80" fill="none" xmlns="http://www.w3.org/2000/svg">
<path d="M50.6047 61.251C42.2742 73.9199 29.9768 78.2708 27.2 77.3751C29.5801 78.1429 54.3869 85.7644 60.522 70.8487C66.0757 57.3464 79.0688 55.7818 78.3731 55.1085C72.026 48.966 58.4037 49.3904 50.6047 61.251Z" fill="#C9B462"/>
<path d="M37.0733 53.8094C29.0031 67.1821 17.09 71.7748 14.3999 70.8292C16.7057 71.6397 40.7373 79.6846 46.6806 63.9402C52.0607 49.6879 64.6478 48.0363 63.9739 47.3256C57.8252 40.8419 44.6286 41.2899 37.0733 53.8094Z" fill="#C9B462"/>
<path d="M23.4048 45.251C15.0743 57.9199 2.77684 62.2708 0 61.3751C2.38015 62.1429 27.187 69.7644 33.322 54.8487C38.8757 41.3464 51.8688 39.7818 51.1731 39.1085C44.8261 32.966 31.2038 33.3904 23.4048 45.251Z" fill="#C9B462"/>
<path d="M83.5827 51.0368C86.1555 59.2812 80.0544 65.1701 76.9181 67.2C83.1907 66.0222 94.5598 58.1704 90.2474 45.2149C85.935 32.2594 45.6816 23.5517 52.6119 11.0595C56.7298 3.63671 70.2535 8.63699 72.6057 12.1703C73.7818 13.7407 79.4498 18.3838 81.2046 18.6908L79.6624 5.56326C63.9809 -4.6441 42.9108 -0.325601 43.203 14.5928C43.595 34.615 80.765 42.0072 83.5827 51.0368Z" fill="#C9B462"/>
</svg>
