<?xml version="1.0" encoding="utf-8"?>
<!-- Generator: Adobe Illustrator 21.1.0, SVG Export Plug-In . SVG Version: 6.00 Build 0)  -->
<svg version="1.1" id="Layer_1" xmlns="http://www.w3.org/2000/svg" xmlns:xlink="http://www.w3.org/1999/xlink" x="0px" y="0px"
	 viewBox="0 0 97 97" style="enable-background:new 0 0 97 97;" xml:space="preserve">
<style type="text/css">
	.st0{fill:#FFFFFF;}
	.st1{fill:#274966;}
	.st2{fill:#BF4949;}
	.st3{fill:#2E85C1;}
	.st4{fill:#E9F0F3;}
	.st5{fill:#D8DBE1;}
</style>
<g>
	<g>
		<rect x="12.1" y="0" class="st0" width="72.8" height="97"/>
		<g>
			<rect x="29.9" y="83.4" class="st1" width="36.8" height="1.5"/>
			<rect x="29.9" y="79.6" class="st1" width="48.9" height="1.5"/>
			<rect x="29.9" y="75.8" class="st1" width="48.9" height="1.5"/>
			<polygon class="st2" points="21.4,83.6 18.2,80.4 19.3,79.3 21.4,81.5 25.8,77.1 26.9,78.1 			"/>
		</g>
		<g>
			<rect x="29.9" y="68.2" class="st1" width="24.6" height="1.5"/>
			<rect x="29.9" y="64.4" class="st1" width="48.9" height="1.5"/>
			<rect x="29.9" y="60.6" class="st1" width="48.9" height="1.5"/>
			<polygon class="st2" points="21.4,68.4 18.2,65.3 19.3,64.2 21.4,66.3 25.8,61.9 26.9,63 			"/>
		</g>
		<g>
			<rect x="29.9" y="53" class="st1" width="42.8" height="1.5"/>
			<rect x="29.9" y="49.3" class="st1" width="48.9" height="1.5"/>
			<rect x="29.9" y="45.5" class="st1" width="48.9" height="1.5"/>
			<polygon class="st2" points="21.4,53.3 18.2,50.1 19.3,49 21.4,51.1 25.8,46.7 26.9,47.8 			"/>
		</g>
		<g>
			<rect x="29.9" y="37.9" class="st1" width="30.7" height="1.5"/>
			<rect x="29.9" y="34.1" class="st1" width="48.9" height="1.5"/>
			<rect x="29.9" y="30.3" class="st1" width="48.9" height="1.5"/>
			<polygon class="st2" points="21.4,38.1 18.2,34.9 19.3,33.9 21.4,36 25.8,31.6 26.9,32.7 			"/>
		</g>
		<g>
			<rect x="29.9" y="22.7" class="st1" width="24.6" height="1.5"/>
			<rect x="29.9" y="18.9" class="st1" width="48.9" height="1.5"/>
			<rect x="29.9" y="15.2" class="st1" width="48.9" height="1.5"/>
			<polygon class="st2" points="21.4,23 18.2,19.8 19.3,18.7 21.4,20.8 25.8,16.4 26.9,17.5 			"/>
		</g>
		<rect x="18.2" y="6.1" class="st3" width="60.6" height="3"/>
	</g>
	<circle class="st3" cx="72.8" cy="72.8" r="24.3"/>
	<circle class="st2" cx="72.8" cy="72.8" r="21.2"/>
	<path class="st0" d="M60.2,76.1l7.1-4.4l3.3,6.2c0,0,7-14.5,14.1-17.3c0,0-2.2,2.6,0.5,9.4c0,0-4.9,0.4-14.2,15
		C71.1,84.9,66,78.8,60.2,76.1z"/>
	<g>
		<path class="st2" d="M6.1,18.2H0v-4.5c0-0.8,0.7-1.5,1.5-1.5h3c0.8,0,1.5,0.7,1.5,1.5L6.1,18.2L6.1,18.2z"/>
		<path class="st3" d="M6.1,18.2H4.5v-6.1l0,0c0.8,0,1.5,0.7,1.5,1.5L6.1,18.2L6.1,18.2z"/>
		<rect y="18.2" class="st4" width="6.1" height="6.1"/>
		<rect x="4.5" y="18.2" class="st5" width="1.5" height="6.1"/>
		<rect y="24.3" class="st2" width="6.1" height="48.5"/>
		<rect x="4.5" y="24.3" class="st3" width="1.5" height="48.5"/>
		<polygon class="st4" points="1.5,78.8 0,72.8 6.1,72.8 4.5,78.8 		"/>
		<polygon class="st5" points="4.5,78.8 3.8,78.8 4.5,72.8 6.1,72.8 		"/>
		<polygon class="st2" points="3,84.9 1.5,78.8 4.5,78.8 		"/>
		<polygon class="st3" points="4.5,78.8 3,84.9 3.8,78.8 		"/>
		<path class="st3" d="M1.5,12.9c-0.4,0-0.8,0.3-0.8,0.8v4.5h1.1v-5.3C1.8,12.9,1.5,12.9,1.5,12.9z"/>
		<rect x="0.8" y="18.2" class="st0" width="1.1" height="6.1"/>
		<polygon class="st3" points="1.9,72.8 1.9,24.3 0.8,24.3 0.8,72.8 		"/>
		<polygon class="st0" points="2.5,78.8 1.9,72.8 0.8,72.8 1.9,78.8 		"/>
		<polygon class="st3" points="3,84.9 3,84.9 2.5,78.8 1.9,78.8 		"/>
	</g>
</g>
</svg>
