<?xml version="1.0" encoding="utf-8"?>
<!-- Generator: Adobe Illustrator 21.1.0, SVG Export Plug-In . SVG Version: 6.00 Build 0)  -->
<svg version="1.1" id="Layer_1" xmlns="http://www.w3.org/2000/svg" xmlns:xlink="http://www.w3.org/1999/xlink" x="0px" y="0px"
	 viewBox="0 0 108 108" style="enable-background:new 0 0 108 108;" xml:space="preserve">
<style type="text/css">
	.st0{fill:#BF4949;}
</style>
<g>
	<g>
		<path class="st0" d="M0,50.8c0.3-2,0.5-4,0.8-6C3.7,29.6,11.6,17.7,24.4,9c9.6-6.5,20.4-9.6,32-8.9C73.5,1,87.2,8.6,97.5,22.2
			c5.9,7.8,9.3,16.7,10.3,26.4c1.3,14-2.2,26.6-10.7,37.8C88.9,97.1,78.2,104,65,106.8c-2.2,0.5-4.5,0.6-6.8,1c-0.3,0-0.7,0.1-1,0.2
			c-2.1,0-4.2,0-6.3,0c-0.8-0.1-1.5-0.2-2.3-0.3c-9.7-1.1-18.5-4.4-26.4-10.3c-11.5-8.6-18.7-20-21.3-34.2c-0.4-2-0.6-4.1-0.8-6.1
			C0,55.1,0,52.9,0,50.8z M104.6,54c0-28.2-22.5-50.6-50.7-50.6C25.8,3.4,3.4,25.8,3.4,54s22.5,50.6,50.6,50.6
			C82.2,104.6,104.7,82.1,104.6,54z"/>
		<path class="st0" d="M29,30.8c0.8,0.7,1.5,1.4,2.4,2.2c-6.8,7.8-9.7,16.8-7.5,27c1.5,7.3,5.4,13.1,11.2,17.7
			c11.3,9,27.5,8.5,38.4-1c11.3-9.9,13.8-25.6,6.4-38.3c-7.4-12.8-24.5-19.9-40.5-11.6c-0.5-0.9-1-1.9-1.5-2.8
			c12.5-7.2,32-4.9,42.9,9.6c10.8,14.5,7.9,35.4-6.3,46.7c-14.1,11.1-35.2,8.9-46.7-5C16.3,61.5,18.4,41.8,29,30.8z"/>
		<path class="st0" d="M30.7,26.3c0.9-0.7,1.7-1.3,2.7-2c7,9.2,13.9,18.3,20.8,27.4C60,47,65.7,42.3,71.5,37.5
			c0.7,0.8,1.4,1.7,2.2,2.6c-5.8,4.8-11.5,9.5-17.3,14.3c3,4,6.1,8,9.2,12.1c-0.9,0.7-1.8,1.3-2.7,2c-3-4-6-7.9-9.1-12
			c-2.9,2.4-5.8,4.7-8.7,7.2c-0.7-0.9-1.4-1.7-2.1-2.6c3-2.5,5.9-4.8,8.8-7.3C44.7,44.7,37.7,35.6,30.7,26.3z"/>
		<path class="st0" d="M91.2,30.6c1-0.6,1.9-1.1,2.9-1.7c0.6,1,1.1,1.9,1.7,2.9c-1,0.6-1.9,1.1-2.9,1.7
			C92.3,32.6,91.8,31.6,91.2,30.6z"/>
		<path class="st0" d="M30.6,91.2c1,0.6,1.9,1.1,2.9,1.7c-0.6,1-1.1,1.9-1.7,2.9c-1-0.6-1.9-1.1-2.9-1.7
			C29.5,93.1,30,92.2,30.6,91.2z"/>
		<path class="st0" d="M55.7,6.8c0,1.1,0,2.1,0,3.3c-1.1,0-2.1,0-3.3,0c0-1.1,0-2.1,0-3.3C53.5,6.8,54.5,6.8,55.7,6.8z"/>
		<path class="st0" d="M30.6,16.8c-0.6-1-1.1-1.9-1.7-2.9c1-0.6,1.9-1.1,2.9-1.7c0.6,0.9,1.1,1.9,1.7,2.9
			C32.6,15.7,31.7,16.2,30.6,16.8z"/>
		<path class="st0" d="M74.5,15.1c0.6-1,1.1-2,1.7-2.9c1,0.6,1.9,1.1,2.9,1.7c-0.5,1-1.1,1.9-1.7,2.9C76.4,16.3,75.5,15.7,74.5,15.1
			z"/>
		<path class="st0" d="M15.1,33.5c-1-0.6-1.9-1.1-2.9-1.7c0.6-1,1.1-1.9,1.7-2.9c1,0.6,1.9,1.1,2.9,1.7
			C16.3,31.6,15.7,32.5,15.1,33.5z"/>
		<path class="st0" d="M6.8,52.3c1.1,0,2.1,0,3.2,0c0,1.1,0,2.1,0,3.3c-1,0-2.1,0-3.2,0C6.8,54.5,6.8,53.4,6.8,52.3z"/>
		<path class="st0" d="M101.2,52.4c0,1.1,0,2.1,0,3.2c-1.1,0-2.1,0-3.2,0c0-1,0-2.1,0-3.2C99,52.4,100.1,52.4,101.2,52.4z"/>
		<path class="st0" d="M16.8,77.4c-1,0.6-1.9,1.1-2.9,1.7c-0.6-1-1.1-1.9-1.7-2.9c1-0.6,1.9-1.1,2.9-1.7
			C15.7,75.4,16.2,76.3,16.8,77.4z"/>
		<path class="st0" d="M92.9,74.5c1,0.6,1.9,1.1,2.9,1.7c-0.6,1-1.1,1.9-1.7,2.9c-1-0.6-1.9-1.1-2.9-1.7
			C91.8,76.4,92.3,75.5,92.9,74.5z"/>
		<path class="st0" d="M77.4,91.2c0.6,1,1.1,1.9,1.7,2.9c-0.9,0.6-1.9,1.1-2.9,1.7c-0.6-0.9-1.1-1.9-1.7-2.9
			C75.4,92.3,76.3,91.8,77.4,91.2z"/>
		<path class="st0" d="M52.4,101.2c0-1.1,0-2.1,0-3.2c1.1,0,2.1,0,3.3,0c0,1.1,0,2.1,0,3.2C54.5,101.2,53.5,101.2,52.4,101.2z"/>
	</g>
</g>
</svg>
