<?xml version="1.0" encoding="utf-8"?>
<!-- Generator: Adobe Illustrator 21.1.0, SVG Export Plug-In . SVG Version: 6.00 Build 0)  -->
<svg version="1.1" id="Layer_1" xmlns="http://www.w3.org/2000/svg" xmlns:xlink="http://www.w3.org/1999/xlink" x="0px" y="0px"
	 viewBox="0 0 94 98" style="enable-background:new 0 0 94 98;" xml:space="preserve">
<style type="text/css">
	.st0{fill:#BF4949;}
</style>
<g>
	<g>
		<path class="st0" d="M10,27c-1.1,0-2.2,0-3.3,0c0-6.8,0-13.5,0-20.2c13.4,0,26.7,0,40.2,0c0,27,0,54,0,81.1c-13.4,0-26.8,0-40.2,0
			c0-6.7,0-13.4,0-20.2c-1.1,0-2.2,0-3.3,0c0,7.8,0,15.6,0,23.6c4.4,0,8.8,0,13.4,0c0,1.2,0,2.3,0,3.4c2.3,0,4.4,0,6.7,0
			c0,1.1,0,2.2,0,3.4c-3.3,0-6.6,0-10,0c0-1.1,0-2.1,0-3.3c-4.5,0-8.9,0-13.4,0c0-10.2,0-20.2,0-30.4c3.3,0,6.6,0,10,0
			c0-2.4,0-4.6,0-6.8l0,0c1.1,0,2.2,0,3.3,0c0,3.5,0,6.8,0,10.2c-1.1,0-2.2,0-3.2,0c0,5.7,0,11.2,0,16.8c11.2,0,22.4,0,33.5,0
			c0-24.8,0-49.5,0-74.3c-11.2,0-22.3,0-33.6,0C10,15.8,10,21.4,10,27L10,27z"/>
		<path class="st0" d="M80.7,94.6c0-1.1,0-2.2,0-3.3c3.3,0,6.6,0,10,0c0-29.4,0-58.6,0-87.9c-29.1,0-58.1,0-87.3,0
			c0,7.8,0,15.7,0,23.5c-1.2,0-2.2,0-3.3,0C0,18,0,9,0,0c31.3,0,62.6,0,94,0c0,31.5,0,63.1,0,94.6C89.6,94.6,85.2,94.6,80.7,94.6z"
			/>
		<path class="st0" d="M80.6,81.2c0-22.7,0-45.1,0-67.7c-10,0-20,0-30.1,0c0-1.1,0-2.2,0-3.4c11.1,0,22.3,0,33.5,0
			c0,24.8,0,49.5,0,74.3c-11.1,0-22.3,0-33.5,0c0-1,0-2.1,0-3.3C60.4,81.2,70.5,81.2,80.6,81.2z"/>
		<path class="st0" d="M10,57.4c-1.1,0-2.2,0-3.4,0c0-6.8,0-13.5,0-20.2c-1.1,0-2.2,0-3.3,0c0,6.7,0,13.4,0,20.2c-1.2,0-2.2,0-3.4,0
			c0-7.8,0-15.6,0-23.6c3.3,0,6.6,0,10,0c0-2.4,0-4.6,0-6.8l0,0c1.1,0,2.2,0,3.3,0c0,3.4,0,6.8,0,10.2c-1.1,0-2.2,0-3.3,0
			C10,44,10,50.8,10,57.4L10,57.4z"/>
		<path class="st0" d="M70.5,91.4c0,1.1,0,2.2,0,3.3c2.2,0,4.4,0,6.6,0c0,1.1,0,2.2,0,3.4c-3.3,0-6.6,0-10,0c0-1.1,0-2.1,0-3.3
			c-13.5,0-26.8,0-40.3,0c0-1.2,0-2.2,0-3.4C41.4,91.4,55.9,91.4,70.5,91.4z"/>
		<path class="st0" d="M73.8,40.6c0,1.1,0,2.1,0,3.3c-5.5,0-11.1,0-16.7,0c0-1.1,0-2.1,0-3.3C62.7,40.6,68.2,40.6,73.8,40.6z"/>
		<path class="st0" d="M73.8,47.4c0,1.1,0,2.2,0,3.3c-5.6,0-11.1,0-16.7,0c0-1,0-2.1,0-3.3C62.7,47.4,68.2,47.4,73.8,47.4z"/>
		<path class="st0" d="M60.4,54.1c0,1.1,0,2.2,0,3.3c-3.3,0-6.6,0-10,0c0-1.1,0-2.1,0-3.3C53.7,54.1,57,54.1,60.4,54.1z"/>
		<path class="st0" d="M73.8,54.1c0,1.1,0,2.2,0,3.3c-3.3,0-6.6,0-10,0c0-1,0-2.1,0-3.3C67.2,54.1,70.5,54.1,73.8,54.1z"/>
		<path class="st0" d="M60.4,64.2c-3.3,0-6.6,0-10,0c0-1.1,0-2.2,0-3.3c3.3,0,6.6,0,10,0C60.4,62,60.4,63,60.4,64.2z"/>
		<path class="st0" d="M63.8,64.2c0-1.1,0-2.1,0-3.2c3.3,0,6.6,0,10,0c0,1,0,2.1,0,3.2C70.5,64.2,67.2,64.2,63.8,64.2z"/>
		<path class="st0" d="M60.4,67.7c0,1.1,0,2.2,0,3.3c-3.3,0-6.6,0-10,0c0-1,0-2.1,0-3.3C53.7,67.7,57,67.7,60.4,67.7z"/>
		<path class="st0" d="M63.9,70.9c0-1.1,0-2.2,0-3.3c3.3,0,6.6,0,10,0c0,1,0,2.1,0,3.3C70.5,70.9,67.2,70.9,63.9,70.9z"/>
		<path class="st0" d="M50.4,74.4c3.3,0,6.6,0,9.9,0c0,1.1,0,2.2,0,3.3c-3.3,0-6.6,0-9.9,0C50.4,76.7,50.4,75.6,50.4,74.4z"/>
		<path class="st0" d="M23.5,40.5c3.4,0,6.6,0,10,0c0-1.1,0-2.2,0-3.3c1.1,0,2.2,0,3.3,0c0,2.2,0,4.4,0,6.6c-3.3,0-6.6,0-10,0
			c0,6.8,0,13.5,0,20.3c-1.2,0-2.2,0-3.3,0C23.5,56.3,23.5,48.5,23.5,40.5z"/>
		<path class="st0" d="M36.8,54c-1.1,0-2.1,0-3.2,0c0-1.1,0-2.2,0-3.3c-1.2,0-2.2,0-3.3,0c0-1.2,0-2.2,0-3.3c2.2,0,4.4,0,6.6,0
			C36.8,49.6,36.8,51.8,36.8,54z"/>
	</g>
</g>
</svg>
