<?xml version="1.0" encoding="utf-8"?>
<!-- Generator: Adobe Illustrator 21.1.0, SVG Export Plug-In . SVG Version: 6.00 Build 0)  -->
<svg version="1.1" id="Layer_1" xmlns="http://www.w3.org/2000/svg" xmlns:xlink="http://www.w3.org/1999/xlink" x="0px" y="0px"
	 viewBox="0 0 73 95" style="enable-background:new 0 0 73 95;" xml:space="preserve">
<style type="text/css">
	.st0{fill:#FFFFFF;}
	.st1{fill:#2E85C1;}
</style>
<g>
	<circle class="st0" cx="36.5" cy="37.7" r="27.2"/>
	<g>
		<g>
			<g>
				<g>
					<path class="st1" d="M36.6,0c16.8,0.1,31.9,12.8,35.5,29.9c1.9,9.2,0.6,17.9-3.1,26.6c-6,14.2-16.4,24.8-27.6,34.7
						c-1.3,1.1-2.6,2.2-3.9,3.3c-0.7,0.6-1.2,0.6-1.9,0C24.7,85,14.7,74.7,7.3,62c-3.2-5.5-6-11.1-6.9-17.5
						c-3-20.8,10.4-40.3,30.1-43.8C32.5,0.3,34.6,0.2,36.6,0z M36.4,64.7C51,64.7,63,52.8,63,38.1c0.1-14.8-11.7-27-26.3-27
						C22.1,11,10.1,23,10,37.7C10,52.5,21.8,64.6,36.4,64.7z"/>
				</g>
				<polygon class="st1" points="36.5,18.1 42.1,30.3 55.4,32 45.6,41 48.2,54.5 36.5,47.6 24.8,54.5 27.4,41 17.6,32 30.9,30.3 
									"/>
			</g>
		</g>
	</g>
</g>
</svg>
