<?xml version="1.0" encoding="utf-8"?>
<!-- Generator: Adobe Illustrator 21.1.0, SVG Export Plug-In . SVG Version: 6.00 Build 0)  -->
<svg version="1.1" id="Layer_1" xmlns="http://www.w3.org/2000/svg" xmlns:xlink="http://www.w3.org/1999/xlink" x="0px" y="0px"
	 viewBox="0 0 87 108" style="enable-background:new 0 0 87 108;" xml:space="preserve">
<style type="text/css">
	.st0{fill:#B2BBC1;}
	.st1{fill:#D1D8E5;}
	.st2{fill:#2E85C1;}
	.st3{fill:#FFFFFF;}
</style>
<g>
	<g>
		<ellipse class="st0" cx="74.2" cy="34.2" rx="13.3" ry="13.2"/>
		<ellipse class="st1" cx="74.2" cy="34.2" rx="11.1" ry="11"/>
		<path class="st2" d="M63.6,34.8c0-6.1,5-11,11.1-11c2.9,0,5.6,1.1,7.6,3c-2-2.1-4.9-3.5-8.1-3.5c-6.1,0-11.1,4.9-11.1,11
			c0,3.2,1.4,6,3.5,8C64.8,40.3,63.6,37.7,63.6,34.8z"/>
	</g>
	<g>
		<ellipse class="st0" cx="47.5" cy="89.6" rx="18.7" ry="18.4"/>
		<ellipse class="st1" cx="47.5" cy="89.6" rx="15.6" ry="15.4"/>
		<path class="st2" d="M32.7,90.3c0-8.5,7-15.4,15.6-15.4c4.1,0,7.8,1.6,10.6,4.1c-2.8-3-6.9-4.9-11.4-4.9
			c-8.6,0-15.6,6.9-15.6,15.4c0,4.4,1.9,8.4,5,11.2C34.3,98,32.7,94.4,32.7,90.3z"/>
	</g>
	<g>
		<rect x="40.8" y="55.3" class="st3" width="2.7" height="13.2"/>
		<rect x="51.5" y="50" class="st3" width="2.7" height="13.2"/>
	</g>
	<ellipse class="st0" cx="15.5" cy="47.4" rx="16" ry="15.8"/>
	<ellipse class="st1" cx="15.5" cy="47.4" rx="13.3" ry="13.2"/>
	<path class="st2" d="M2.8,48.1c0-7.3,6-13.2,13.3-13.2c3.5,0,6.7,1.4,9.1,3.5c-2.4-2.6-5.9-4.2-9.7-4.2c-7.4,0-13.3,5.9-13.3,13.2
		c0,3.8,1.6,7.2,4.3,9.6C4.2,54.7,2.8,51.5,2.8,48.1z"/>
	<g>
		<g>
			<path class="st2" d="M13.4,51.4v3.3H12v-3.3h-1.3v-0.9H12v-2.2h-1.3v-0.9H12v-7c0.5-0.1,1.8-0.3,3.6-0.3c3.6,0,4.7,2.2,4.7,3.9
				s-1,4.4-5.6,4.4h-1.4v2.2h5.5v0.9h-5.4V51.4z M15.2,41c-0.9,0-1.8,0.2-1.8,0.2v6.2c0,0,0.5,0,1.3,0c3.3,0,4.2-1.6,4.2-3.4
				C18.8,42.1,17.7,41,15.2,41z"/>
		</g>
	</g>
	<g>
		<g>
			<path class="st2" d="M73.1,37.8v3h-1.3v-3h-1.2V37h1.2v-2h-1.2v-0.8h1.2v-6.3c0.4-0.1,1.6-0.3,3.3-0.3c3.2,0,4.2,1.9,4.2,3.5
				c0,1.5-0.9,3.9-5,3.9H73v2h5v0.8C78,37.8,73.1,37.8,73.1,37.8z M74.7,28.5c-0.8,0-1.6,0.1-1.6,0.1v5.5c0,0,0.4,0,1.2,0
				c2.9,0,3.7-1.5,3.7-3C78,29.5,77,28.5,74.7,28.5z"/>
		</g>
	</g>
	<g>
		<g>
			<path class="st2" d="M45.8,95v4.5h-1.9V95h-1.7v-1.3h1.7v-3h-1.7v-1.3h1.7V80c0.6-0.1,2.4-0.4,4.9-0.4c4.8,0,6.4,2.9,6.4,5.2
				c0,2.3-1.4,5.9-7.5,5.9h-1.9v3h7.4V95H45.8z M48.2,81c-1.2,0-2.5,0.2-2.5,0.2v8.3c0,0,0.7,0,1.8,0c4.4,0,5.6-2.2,5.6-4.6
				C53.2,82.5,51.7,81,48.2,81z"/>
		</g>
	</g>
	<g>
		<rect x="8.8" y="15.8" class="st3" width="2.7" height="13.2"/>
		<rect x="19.5" y="10.5" class="st3" width="2.7" height="13.2"/>
	</g>
	<g>
		<rect x="78.2" y="5.3" class="st3" width="2.7" height="13.2"/>
		<rect x="67.5" y="0" class="st3" width="2.7" height="13.2"/>
	</g>
</g>
</svg>
