<?xml version="1.0" encoding="utf-8"?>
<!-- Generator: Adobe Illustrator 21.1.0, SVG Export Plug-In . SVG Version: 6.00 Build 0)  -->
<svg version="1.1" id="Layer_1" xmlns="http://www.w3.org/2000/svg" xmlns:xlink="http://www.w3.org/1999/xlink" x="0px" y="0px"
	 viewBox="0 0 91 104" style="enable-background:new 0 0 91 104;" xml:space="preserve">
<style type="text/css">
	.st0{fill:#BF4949;}
</style>
<g>
	<g>
		<path class="st0" d="M0,47c13.5,0,26.9,0,40.4,0c0,19,0,38,0,57c-13.5,0-26.9,0-40.4,0C0,85,0,66.1,0,47z M3.3,100.6
			c11.3,0,22.5,0,33.6,0c0-16.8,0-33.5,0-50.2c-11.2,0-22.4,0-33.6,0C3.3,67.1,3.3,83.8,3.3,100.6z"/>
		<path class="st0" d="M64,94c-1.2,0-2.2,0-3.3,0c0-19,0-38,0-57c-1.2,0-2.2,0-3.4,0c0,6.7,0,13.3,0,20c-1.1,0-2.2,0-3.3,0
			c0-7.8,0-15.6,0-23.4c2.2,0,4.4,0,6.7,0c0-2.3,0-4.4,0-6.7c3.4,0,6.7,0,10.1,0c0,22.3,0,44.6,0,67.1c-1,0-2.1,0-3.3,0
			c0,2.3,0,4.5,0,6.7c-1.2,0-2.2,0-3.4,0C64,98.4,64,96.2,64,94z M67.4,90.6c0-17.9,0-35.8,0-53.6c-1.1,0-2.2,0-3.2,0
			c0,17.9,0,35.8,0,53.6C65.2,90.6,66.3,90.6,67.4,90.6z M64.1,30.2c0,1.2,0,2.2,0,3.3c1.1,0,2.2,0,3.2,0c0-1.1,0-2.2,0-3.3
			C66.3,30.2,65.2,30.2,64.1,30.2z"/>
		<path class="st0" d="M87.6,3.4c1.2,0,2.3,0,3.4,0c0,30.2,0,60.3,0,90.5c-5.5,0-11.1,0-16.8,0c0-1,0-2.1,0-3.2c4.4,0,8.9,0,13.4,0
			C87.6,61.5,87.6,32.5,87.6,3.4z"/>
		<path class="st0" d="M80.9,20.2c0,1.1,0,2.2,0,3.2c-18,0-35.9,0-53.9,0c0-1.1,0-2.1,0-3.2C44.9,20.2,62.9,20.2,80.9,20.2z"/>
		<path class="st0" d="M20.2,43.6c-1.2,0-2.2,0-3.3,0c0-13.4,0-26.7,0-40.2c2.2,0,4.3,0,6.6,0c0,1.1,0,2.1,0,3.3c-1.1,0-2.1,0-3.3,0
			C20.2,19,20.2,31.2,20.2,43.6z"/>
		<path class="st0" d="M50.5,33.6c0,1.1,0,2.1,0,3.2c-7.9,0-15.7,0-23.5,0c0-1.1,0-2.1,0-3.2C34.8,33.6,42.6,33.6,50.5,33.6z"/>
		<path class="st0" d="M50.6,10c-1.2,0-2.3,0-3.4,0c0-3.3,0-6.6,0-9.9c1.1,0,2.1,0,3.3,0c0,1,0,2.1,0,3.2c1.2,0,2.2,0,3.3,0
			c0,1.1,0,2.2,0,3.3c-1,0-2.1,0-3.2,0C50.6,7.8,50.6,8.8,50.6,10z"/>
		<path class="st0" d="M64,3.3c0,1.2,0,2.2,0,3.4c-1.1,0-2.2,0-3.3,0c0,1.2,0,2.2,0,3.3c-1.1,0-2.2,0-3.3,0c0-3.3,0-6.6,0-9.9
			c1.1,0,2.1,0,3.3,0c0,1.1,0,2.1,0,3.3C61.8,3.3,62.8,3.3,64,3.3z"/>
		<path class="st0" d="M70.8,6.6c0,1.2,0,2.2,0,3.3c-1.1,0-2.2,0-3.3,0c0-3.3,0-6.6,0-9.9c1.1,0,2.1,0,3.3,0c0,1.1,0,2.1,0,3.3
			c1.2,0,2.2,0,3.3,0c0,1.1,0,2.2,0,3.3C73.1,6.6,72,6.6,70.8,6.6z"/>
		<path class="st0" d="M77.6,0c1.1,0,2.1,0,3.3,0c0,1.1,0,2.1,0,3.3c1.1,0,2.2,0,3.3,0c0,1.2,0,2.2,0,3.4c-1.1,0-2.1,0-3.3,0
			c0,1.1,0,2.2,0,3.3c-1.2,0-2.2,0-3.3,0C77.6,6.7,77.6,3.4,77.6,0z"/>
		<path class="st0" d="M57.3,90.7c0,1.1,0,2.1,0,3.2c-4.5,0-8.9,0-13.4,0c0-1,0-2.1,0-3.2C48.3,90.7,52.7,90.7,57.3,90.7z"/>
		<path class="st0" d="M30.3,10c-1.2,0-2.2,0-3.3,0c0-3.3,0-6.6,0-10c1.1,0,2.1,0,3.3,0c0,1.1,0,2.1,0,3.3c1.1,0,2.2,0,3.3,0
			c0,1.2,0,2.2,0,3.4c-1.1,0-2.1,0-3.3,0C30.3,7.8,30.3,8.8,30.3,10z"/>
		<path class="st0" d="M57.3,60.5c0,1.1,0,2.1,0,3.2c-4.5,0-8.9,0-13.4,0c0-1,0-2.1,0-3.2C48.3,60.5,52.7,60.5,57.3,60.5z"/>
		<path class="st0" d="M43.9,77.1c0-1.1,0-2.1,0-3.2c4.5,0,8.9,0,13.4,0c0,1,0,2.1,0,3.2C52.8,77.1,48.4,77.1,43.9,77.1z"/>
		<path class="st0" d="M40.4,6.6c0,1.2,0,2.2,0,3.3c-1.1,0-2.2,0-3.3,0c0-3.3,0-6.6,0-9.9c1.1,0,2.1,0,3.3,0c0,1,0,2.1,0,3.2
			c1.2,0,2.2,0,3.3,0c0,1.1,0,2.2,0,3.3C42.7,6.6,41.6,6.6,40.4,6.6z"/>
		<path class="st0" d="M80.9,33.6c0,1.1,0,2.1,0,3.2c-2.2,0-4.4,0-6.6,0c0-1.1,0-2.1,0-3.2C76.4,33.6,78.6,33.6,80.9,33.6z"/>
		<path class="st0" d="M74.2,60.4c2.3,0,4.4,0,6.6,0c0,1.1,0,2.1,0,3.2c-2.2,0-4.4,0-6.6,0C74.2,62.6,74.2,61.6,74.2,60.4z"/>
		<path class="st0" d="M74.2,77.1c0-1.1,0-2.1,0-3.2c2.2,0,4.4,0,6.6,0c0,1.1,0,2.1,0,3.2C78.7,77.1,76.5,77.1,74.2,77.1z"/>
		<path class="st0" d="M80.9,47c0,1.1,0,2.1,0,3.2c-2.2,0-4.4,0-6.6,0c0-1,0-2.1,0-3.2C76.4,47,78.6,47,80.9,47z"/>
		<path class="st0" d="M43.8,50.2c0-1.1,0-2.1,0-3.2c2.2,0,4.4,0,6.6,0c0,1,0,2.1,0,3.2C48.3,50.2,46.1,50.2,43.8,50.2z"/>
		<path class="st0" d="M6.7,67c0-4.5,0-8.9,0-13.3c9,0,17.9,0,26.9,0c0,4.4,0,8.8,0,13.3C24.7,67,15.7,67,6.7,67z M10.1,63.7
			c6.8,0,13.4,0,20.1,0c0-2.3,0-4.4,0-6.6c-6.7,0-13.4,0-20.1,0C10.1,59.3,10.1,61.4,10.1,63.7z"/>
		<path class="st0" d="M27,80.6c2.2,0,4.4,0,6.6,0c0,1.1,0,2.1,0,3.3c-1.1,0-2.1,0-3.3,0c0,4.5,0,8.9,0,13.4c-1.2,0-2.2,0-3.3,0
			C27,91.7,27,86.2,27,80.6z"/>
		<path class="st0" d="M13.4,70.5c0,1.1,0,2.1,0,3.3c-1.1,0-2.2,0-3.3,0c0,1.2,0,2.2,0,3.3c-1.2,0-2.2,0-3.3,0c0-2.2,0-4.4,0-6.6
			C8.9,70.5,11.1,70.5,13.4,70.5z"/>
		<path class="st0" d="M23.5,70.5c0,1.1,0,2.1,0,3.3c-1.1,0-2.1,0-3.3,0c0,1.2,0,2.2,0,3.3c-1.1,0-2.2,0-3.3,0c0-2.2,0-4.3,0-6.6
			C19.1,70.5,21.2,70.5,23.5,70.5z"/>
		<path class="st0" d="M33.6,70.5c0,1.1,0,2.1,0,3.3c-1.1,0-2.1,0-3.3,0c0,1.1,0,2.2,0,3.3c-1.2,0-2.2,0-3.4,0c0-2.2,0-4.3,0-6.6
			C29.2,70.5,31.4,70.5,33.6,70.5z"/>
		<path class="st0" d="M13.4,80.6c0,1.1,0,2.1,0,3.3c-1.1,0-2.1,0-3.3,0c0,1.1,0,2.2,0,3.3c-1.2,0-2.2,0-3.3,0c0-2.1,0-4.3,0-6.6
			C8.9,80.6,11.1,80.6,13.4,80.6z"/>
		<path class="st0" d="M16.9,80.6c2.2,0,4.4,0,6.6,0c0,1.1,0,2.1,0,3.3c-1.1,0-2.1,0-3.3,0c0,1.1,0,2.2,0,3.3c-1.1,0-2.2,0-3.3,0
			C16.9,85,16.9,82.8,16.9,80.6z"/>
		<path class="st0" d="M6.7,90.6c2.2,0,4.4,0,6.6,0c0,1.1,0,2.1,0,3.3c-1,0-2.1,0-3.2,0c0,1.1,0,2.2,0,3.3c-1.1,0-2.2,0-3.3,0
			C6.7,95.1,6.7,92.9,6.7,90.6z"/>
		<path class="st0" d="M16.9,97.3c0-2.2,0-4.3,0-6.6c2.2,0,4.4,0,6.6,0c0,1.1,0,2.1,0,3.3c-1.1,0-2.1,0-3.3,0c0,1.1,0,2.2,0,3.3
			C19,97.3,18,97.3,16.9,97.3z"/>
	</g>
</g>
</svg>
