<?xml version="1.0" encoding="utf-8"?>
<!-- Generator: Adobe Illustrator 21.1.0, SVG Export Plug-In . SVG Version: 6.00 Build 0)  -->
<svg version="1.1" id="Layer_1" xmlns="http://www.w3.org/2000/svg" xmlns:xlink="http://www.w3.org/1999/xlink" x="0px" y="0px"
	 viewBox="0 0 85 98" style="enable-background:new 0 0 85 98;" xml:space="preserve">
<style type="text/css">
	.st0{fill:url(#SVGID_1_);}
	.st1{fill:url(#SVGID_2_);}
	.st2{fill:#BF4949;}
</style>
<g>
	
		<linearGradient id="SVGID_1_" gradientUnits="userSpaceOnUse" x1="8.6985" y1="50.12" x2="85" y2="50.12" gradientTransform="matrix(1 0 0 -1 0 99.12)">
		<stop  offset="1.000886e-06" style="stop-color:#2D83BF"/>
		<stop  offset="1" style="stop-color:#135C99"/>
	</linearGradient>
	<path class="st0" d="M8.8,82c1.3,0,2.3,0,3.6,0c0,1.9,0,3.8,0,5.7c0,4.2,2.5,6.7,6.6,6.7c18.8,0,37.6,0,56.4,0c3.8,0,5.9-2.1,6-6
		c0-7.4,0-14.8,0-22.3c0-15.5,0-31.1,0-46.6c0-0.5,0-1,0-1.7c-1.9,0-3.6,0-5.4,0c-5.3,0-8.8-3.4-8.8-8.7c0-1.8,0-3.6,0-5.5
		c-0.4,0-0.8-0.1-1.2-0.1c-15.9,0-31.8,0-47.7,0c-1.9,0-3.6,0.6-4.9,2c-0.9,1-1.1,2.1-1.1,3.4c0,10.7,0,21.4,0,32c0,0.5,0,1,0,1.6
		c-1.2,0-2.3,0-3.6,0c0-1,0-1.9,0-2.8c0-10.2,0.1-20.3,0-30.5C8.6,3.2,13.6,0,18,0c9,0,17.8,0,26.7,0C52.4,0,60,0,67.8,0
		c1.4,0,2.3,0.4,3.3,1.4C75.4,5.7,79.7,10,84,14.3c0.7,0.7,1,1.5,1,2.5c0,23.8,0,47.6,0,71.4c0,2.3-0.5,4.4-1.9,6.3
		c-1.6,2.3-3.9,3.5-6.7,3.5c-19.5,0-39,0-58.4,0c-4.8,0-9.2-4.5-9.2-9.3C8.8,86.5,8.8,84.3,8.8,82z M78.3,14.2c-2.4-2.4-5-5-7.4-7.4
		C70.1,13.4,72.9,14.8,78.3,14.2z"/>
	
		<linearGradient id="SVGID_2_" gradientUnits="userSpaceOnUse" x1="-4.5993" y1="175.0809" x2="58.958" y2="262.0225" gradientTransform="matrix(1 0 0 1 0 -157.1502)">
		<stop  offset="1.000886e-06" style="stop-color:#2D83BF"/>
		<stop  offset="1" style="stop-color:#135C99"/>
	</linearGradient>
	<path class="st1" d="M27.8,80.1c-6.3,0-12.5,0-18.8,0c-5.1,0-9-3.9-9-9.1c0-5.8,0-11.6,0-17.4c0-5.1,3.9-9.1,9-9.1
		c12.6,0,25.1,0,37.7,0c5.1,0,8.9,3.9,9,9c0,5.8,0,11.6,0,17.4c0,5.2-3.9,9.1-9,9.1C40.4,80.1,34,80.1,27.8,80.1L27.8,80.1z
		 M27.8,48.1c-6.3,0-12.7,0-19,0c-3.1,0-5.4,2.3-5.4,5.4c0,5.8,0,11.6,0,17.4c0,3.7,2.2,5.9,5.9,5.9c12.4,0,24.7,0,37.1,0
		c3.7,0,5.9-2.2,5.9-6c0-5.7,0-11.4,0-17.1c0-3.1-2.3-5.5-5.4-5.5C40.5,48.1,34.2,48.1,27.8,48.1z"/>
	<path class="st2" d="M23.2,62.2c0-2,0-3.9,0-5.9c0-0.7,0.2-1.1,1-1c1.7,0.1,3.4-0.1,5.1,0.1c2.8,0.3,3.9,1.4,4.2,4.2
		c0.2,1.8,0.2,3.6-0.1,5.4c-0.4,2.8-1.9,4-4.7,4.2c-1.5,0.1-3,0-4.5,0c-0.7,0-1-0.3-0.9-1C23.2,66.2,23.2,64.2,23.2,62.2L23.2,62.2z
		 M25.5,62.4L25.5,62.4c0,0.7,0,1.4,0,2.1c0.1,2.7-0.6,2.4,2.5,2.4c1.5,0,2.3-0.7,2.6-2.2c0.1-0.9,0.1-1.8,0.1-2.7
		c0-3.7-0.5-4.2-4.1-4.1c-0.8,0-1.1,0.2-1.1,1.1C25.5,60.1,25.5,61.2,25.5,62.4z"/>
	<path class="st2" d="M10.6,62.3c0-2,0-4,0-6c0-0.8,0.2-1,1-1c1.5,0,2.9,0,4.4,0c3.6,0.1,5.4,2.2,4.8,5.8c-0.4,2.5-1.8,3.8-4.6,3.9
		C14,65.1,14,65.1,14,67.4c0,2.1,0,2-2.1,2.1c-1.1,0-1.4-0.3-1.3-1.4C10.6,66.2,10.6,64.2,10.6,62.3L10.6,62.3z M15.3,57.6
		c-1.8,0-1.8,0-1.8,1.8c0,0.4,0,0.8,0,1.2c0.1,2.4-0.5,2.1,2.3,2.2c1.1,0,1.9-0.5,2.1-1.6C18.5,59.2,18,57.4,15.3,57.6z"/>
	<path class="st2" d="M36.3,62.4c0-2,0-4,0-6c0-0.8,0.3-1.1,1.1-1.1c2.2,0,4.5,0.1,6.7,0c1.2,0,0.9,0.8,0.9,1.4c0.1,0.7,0,1.2-1,1.2
		c-1.4-0.1-2.9,0-4.3,0c-0.6,0-0.9,0.2-0.9,0.9c-0.1,2.8-0.2,2.8,2.6,2.8c0.4,0,0.9,0,1.3,0c1.5,0,1.4,0,1.4,1.5
		c0,0.8-0.2,1.1-1.1,1.1c-1.1-0.1-2.2,0-3.3,0c-0.7,0-1,0.2-1,1c0,1.2,0,2.4,0,3.6s-0.8,0.8-1.4,0.8c-0.6,0.1-1.2,0.1-1.2-0.9
		C36.4,66.5,36.3,64.4,36.3,62.4L36.3,62.4z"/>
</g>
</svg>
