<?xml version="1.0" encoding="utf-8"?>
<!-- Generator: Adobe Illustrator 21.1.0, SVG Export Plug-In . SVG Version: 6.00 Build 0)  -->
<svg version="1.1" id="Layer_1" xmlns="http://www.w3.org/2000/svg" xmlns:xlink="http://www.w3.org/1999/xlink" x="0px" y="0px"
	 viewBox="0 0 19 19" style="enable-background:new 0 0 19 19;" xml:space="preserve">
<style type="text/css">
	.st0{fill:#84BDE4;}
</style>
<g>
	<g>
		<g>
			<path class="st0" d="M18,19c-0.2-0.1-0.4-0.3-0.6-0.4c-1.9-1.9-3.8-3.8-5.8-5.8l-0.1-0.1c-0.6,0.5-1.2,0.8-1.9,1.1
				c-2.7,1.1-5.9,0.3-7.8-1.9c-1-1.2-1.6-2.5-1.8-4.1V7.7c0-0.3,0-0.6,0-1C0,6.5,0.1,6.2,0.1,6c0.6-3,2.4-4.9,5.3-5.7
				C5.8,0.1,6.2,0.1,6.6,0c0.3,0,0.6,0,1,0C8,0.1,8.5,0.1,8.9,0.2c2.7,0.6,4.8,3,5.3,5.7c0.3,2.1-0.1,3.9-1.4,5.6c0,0,0,0.1-0.1,0.1
				l0.1,0.1c1.9,1.9,3.8,3.8,5.8,5.8c0.2,0.2,0.3,0.4,0.4,0.6c0,0.1,0,0.2,0,0.3c-0.1,0.3-0.3,0.5-0.6,0.6C18.3,19,18.1,19,18,19z
				 M12.7,7.1c0-3.1-2.5-5.5-5.5-5.5c-3.1,0-5.5,2.5-5.5,5.5c0,3.1,2.5,5.5,5.5,5.5C10.2,12.7,12.7,10.2,12.7,7.1z"/>
		</g>
	</g>
</g>
</svg>
