<?xml version="1.0" encoding="utf-8"?>
<!-- Generator: Adobe Illustrator 21.1.0, SVG Export Plug-In . SVG Version: 6.00 Build 0)  -->
<svg version="1.1" id="Layer_1" xmlns="http://www.w3.org/2000/svg" xmlns:xlink="http://www.w3.org/1999/xlink" x="0px" y="0px"
	 viewBox="0 0 85 98" style="enable-background:new 0 0 85 98;" xml:space="preserve">
<style type="text/css">
	.st0{fill:url(#SVGID_1_);}
	.st1{fill:url(#SVGID_2_);}
	.st2{fill:#BF4949;}
</style>
<g>
	
		<linearGradient id="SVGID_1_" gradientUnits="userSpaceOnUse" x1="8.3995" y1="160.719" x2="78.6205" y2="251.9462" gradientTransform="matrix(1 0 0 1 0 -157.1502)">
		<stop  offset="1.000886e-06" style="stop-color:#2D83BF"/>
		<stop  offset="1" style="stop-color:#135C99"/>
	</linearGradient>
	<path class="st0" d="M8.8,82c1.2,0,2.3,0,3.6,0c0,2.1,0,4.2,0,6.2c0,1.9,0.7,3.4,2.1,4.6c1.1,1,2.4,1.6,3.9,1.6c19.3,0,38.7,0,58,0
		c2.9,0,5.1-2.4,5.1-5.8c0-5.6,0-11.1,0-16.7c0-17.6,0-35.2,0-52.9c0-0.3,0-0.7-0.1-1.1c-1.8,0-3.5,0-5.2,0c-1,0-1.9-0.1-2.8-0.3
		c-3.6-0.9-6-4-6.1-7.8c0-2,0-4,0-6.1c-0.5,0-0.9,0-1.3,0c-15.8,0-31.6,0-47.4,0c-1.1,0-2.4,0.3-3.4,0.7c-1.8,0.8-2.8,2.3-2.8,4.4
		c0,10.8,0,21.7,0,32.5c0,0.4,0,0.9,0,1.4c-1.2,0-2.3,0-3.6,0c0-1.2,0-2.4,0-3.6c0-10,0.1-20,0-29.9C8.7,3.6,13.3,0.1,17.9,0
		C26.4,0,35,0,43.5,0C51.8,0,60,0,68.3,0c1,0,1.7,0.3,2.5,1c4.4,4.5,8.9,8.9,13.3,13.4c0.5,0.5,0.9,1.4,0.9,2.1c0,24,0,47.9,0,71.9
		c0,2.8-0.9,5.3-2.9,7.3c-1.5,1.5-3.3,2.3-5.5,2.3c-19.5,0-39,0-58.5,0c-4.6,0-8.9-4-9.2-8.6C8.7,87,8.8,84.5,8.8,82z M70.9,6.6
		c-0.7,6.9,2.3,8.2,7.6,7.5C76,11.7,73.4,9.1,70.9,6.6z"/>
	
		<linearGradient id="SVGID_2_" gradientUnits="userSpaceOnUse" x1="-7.7119" y1="173.2767" x2="62.4367" y2="264.4099" gradientTransform="matrix(1 0 0 1 0 -157.1502)">
		<stop  offset="1.000886e-06" style="stop-color:#2D83BF"/>
		<stop  offset="1" style="stop-color:#135C99"/>
	</linearGradient>
	<path class="st1" d="M27.9,44.6c6.2,0,12.5,0,18.7,0c5.1,0,9,3.8,9.1,8.9c0.1,6,0.1,12,0,18c0,4.6-4,8.5-8.5,8.6
		c-12.8,0-25.7,0-38.5,0c-4.7,0-8.5-3.9-8.6-8.7C0,65.3,0,59.2,0.1,53.1c0.1-4.7,4.1-8.5,8.8-8.5C15.2,44.6,21.6,44.6,27.9,44.6z
		 M27.8,48.1L27.8,48.1c-6.3,0-12.6,0-18.9,0c-3.1,0-5.4,2.3-5.4,5.4c0,5.9,0,11.9,0,17.8c0,3.1,2.3,5.4,5.4,5.4
		c12.6,0,25.3,0,37.9,0c3.1,0,5.4-2.3,5.4-5.4c0-5.9,0-11.7,0-17.6c0-3.4-2.2-5.6-5.6-5.6C40.4,48.1,34.1,48.1,27.8,48.1z"/>
	<path class="st2" d="M22.3,62.3c0.2-1,0.3-2.2,0.6-3.4c0.4-1.6,1.5-2.7,3.2-3c1.1-0.2,2.3-0.2,3.4-0.1c1.9,0.3,3.1,1.5,3.5,3.4
		c0.6,2.4,0.6,4.8-0.1,7.1c-0.5,1.5-1.5,2.6-3.1,2.9c-1.1,0.2-2.3,0.3-3.4,0.1c-2.2-0.3-3.4-1.6-3.8-3.9
		C22.5,64.5,22.4,63.6,22.3,62.3z M25,62.3c0.1,1,0.2,1.8,0.3,2.6c0,0.2,0.1,0.4,0.2,0.6c0.4,1.2,1.3,1.7,2.5,1.7s2.1-0.6,2.4-1.7
		c0.6-2,0.5-4,0-6c-0.3-1.2-1.2-1.7-2.4-1.7c-1.3,0-2.1,0.5-2.4,1.7C25.2,60.5,25.1,61.6,25,62.3z"/>
	<path class="st2" d="M10.7,62.7c0-1.9,0-3.7,0-5.6c0-0.8,0.3-1.1,1-1c1.7,0.1,3.5,0.1,5.2,0.2c1.9,0.2,2.9,1.2,3.3,3.1
		c0.4,2.2,0.4,4.4-0.1,6.6c-0.4,1.8-1.6,3-3.4,3.1c-1.8,0.2-3.5,0.1-5.3,0.2c-0.7,0-0.8-0.4-0.8-0.9C10.7,66.6,10.7,64.7,10.7,62.7
		L10.7,62.7z M14.6,57.9c-0.4,0.2-1.4-0.5-1.4,0.7c0,2.5,0,5.1,0,7.6c0,0.2,0.2,0.5,0.4,0.6c1.7,0.8,3.9-0.4,4.1-2.3
		c0.1-1.2,0.1-2.5,0-3.7C17.6,58.6,16.9,57.9,14.6,57.9z"/>
	<path class="st2" d="M44.1,67.1c0.3,1.8,0.3,1.9-1.5,2.2c-0.9,0.1-1.9,0.2-2.9,0.2c-2.5-0.1-3.9-1.2-4.2-3.7
		c-0.2-2.1-0.2-4.2,0-6.3c0.4-2.9,2.2-4,5.5-3.7c0.7,0.1,1.4,0.3,2.2,0.3c1,0.1,1,0.7,0.9,1.4C44,58.4,43.3,58,42.8,58
		c-0.8,0-1.7-0.1-2.5-0.1c-1.2,0-2,0.7-2.1,1.8c-0.1,1.8-0.2,3.6-0.1,5.4c0.1,1.4,0.9,1.9,2.3,1.9C41.7,67.1,42.9,67.1,44.1,67.1z"
		/>
</g>
</svg>
