<?xml version="1.0" encoding="utf-8"?>
<!-- Generator: Adobe Illustrator 21.1.0, SVG Export Plug-In . SVG Version: 6.00 Build 0)  -->
<svg version="1.1" id="Layer_1" xmlns="http://www.w3.org/2000/svg" xmlns:xlink="http://www.w3.org/1999/xlink" x="0px" y="0px"
	 viewBox="0 0 97 97" style="enable-background:new 0 0 97 97;" xml:space="preserve">
<style type="text/css">
	.st0{fill:#BF4949;}
	.st1{fill:#B2BBC1;}
	.st2{fill:#D1D8E5;}
	.st3{fill:#FFFFFF;}
	.st4{fill:#2E85C1;}
	.st5{fill:#7DA1BA;}
	.st6{fill:#D8DBE1;}
	.st7{fill:#E9F0F3;}
</style>
<g>
	<g>
		<path class="st0" d="M86.9,82.6c-2.7-2.4-0.3-3.9-0.3-10.5c0-13.5-9.2-37.1-22.5-47c-3.5-2.6-4.3-7.1-1.9-10.5
			c2.1-3,4.1-6.7,5.9-11c0.7-1.8-1.4-3.4-3.4-2.5C57.8,4.2,53.2,7.3,46,4.9L31.7,0.1c-1.9-0.6-3.8,1-3.1,2.6c1.9,4.6,4,8.6,6.2,11.8
			c2.4,3.4,1.6,7.9-1.9,10.5C18.5,35.9,7.2,64.3,11.3,78.7c0.4,1.4,0,2.9-1.2,3.9c-3.5,3.1-5,6.4-3.5,8.5c1.7,2.3,6.4,2.4,11.7,0.6
			c1.4-0.5,3-0.4,4.3,0.3c13,6.7,38.9,6.7,51.8,0c1.3-0.7,2.9-0.8,4.3-0.3C90,95.7,95.2,89.9,86.9,82.6z"/>
		<g>
			<g>
				<g>
					<path class="st0" d="M15.3,91.7c-1.8,0.6-3.5,1-5.1,1.2c2.2,0.3,5.1-0.1,8.1-1.2c0.1,0,0.2-0.1,0.3-0.1
						C17.6,91.3,16.4,91.3,15.3,91.7z"/>
					<path class="st0" d="M43,4.9c2.4,0.8,4.5,1,6.5,0.8c-1.1-0.1-2.2-0.4-3.5-0.8L31.7,0.1c-0.8-0.3-1.6-0.1-2.2,0.3L43,4.9z"/>
					<g>
						<path class="st0" d="M86.9,82.6c-2.7-2.4-0.3-3.9-0.3-10.5c0-13.5-9.2-37.1-22.5-47c-3.5-2.6-4.3-7.1-1.9-10.5
							c2.1-3,4.1-6.7,5.9-11c0.7-1.8-1.4-3.4-3.4-2.5c-0.1,0.1-0.3,0.1-0.4,0.2C65,1.8,65.4,2.6,65,3.6c-1.8,4.3-3.8,8-5.9,11
							c-2.4,3.4-1.6,7.9,1.9,10.5c13.3,9.9,22.5,33.6,22.5,47c0,6.7-2.4,8.1,0.3,10.5c5.9,5.2,5,9.6-0.1,10.3
							C91.3,93.7,93.8,88.7,86.9,82.6z"/>
					</g>
					<path class="st0" d="M71.4,91.9c-6.1,3.2-15.2,4.9-24.4,5c10.2,0.2,20.6-1.5,27.4-5c0.3-0.2,0.6-0.3,0.9-0.4
						C74,91.2,72.6,91.3,71.4,91.9z"/>
				</g>
			</g>
		</g>
		<path class="st1" d="M48.5,25.5c-5,0-10-1-14.8-3c-1.5-0.6-2.3-2.4-1.6-4c0.6-1.5,2.4-2.3,4-1.6c8,3.3,16.9,3.3,24.9,0
			c1.5-0.6,3.3,0.1,4,1.6c0.6,1.5-0.1,3.3-1.6,4C58.5,24.5,53.5,25.5,48.5,25.5z"/>
		<path class="st1" d="M56.1,29.2c-0.2,0-0.3,0-0.5-0.1c-0.8-0.3-1.2-1.1-1-1.9l2.7-8c0.3-0.8,1.1-1.2,1.9-1c0.8,0.3,1.2,1.1,1,1.9
			l-2.7,8C57.3,28.8,56.7,29.2,56.1,29.2z"/>
		<path class="st2" d="M59.2,18.3l-3.6,10.8l0,0c0.2,0.1,0.3,0.1,0.5,0.1c0.6,0,1.2-0.4,1.4-1l2.7-8C60.4,19.4,60,18.5,59.2,18.3z"
			/>
		<path class="st1" d="M65,35c-0.6,0-1.1-0.3-1.4-0.9l-6.3-13.8c-0.3-0.8,0-1.7,0.8-2s1.7,0,2,0.8l6.3,13.8c0.3,0.8,0,1.7-0.8,2
			C65.4,35,65.2,35,65,35z"/>
		<path class="st2" d="M60.1,19.1c-0.3-0.8-1.2-1.1-2-0.8l0,0l7.5,16.6c0.8-0.3,1.1-1.2,0.8-2L60.1,19.1z"/>
		<path class="st1" d="M61,21.2H36c-0.8,0-1.5-0.7-1.5-1.5s0.7-1.5,1.5-1.5h25c0.8,0,1.5,0.7,1.5,1.5S61.8,21.2,61,21.2z"/>
		<path class="st2" d="M36,21.2h25c0.8,0,1.5-0.7,1.5-1.5h-28C34.5,20.5,35.2,21.2,36,21.2z"/>
		<g>
			<path class="st3" d="M39,53.2h3V38.9h8.8c6.3,0,10.2,2.4,10.2,9.2c0,5.3-2.8,9.5-9.3,9.5H49v2.6h7.5v4.4H49v5.5h-7v-5.5h-3v-4.4
				h3v-2.6h-3V53.2z M50.3,53.2c2.6,0,3.8-2.4,3.8-5.3c0-3.1-1.1-4.6-4.2-4.6h-1.2v9.8L50.3,53.2L50.3,53.2z"/>
		</g>
	</g>
	<g>
		<g>
			<rect x="3" y="95.5" class="st4" width="42.4" height="1.5"/>
			<rect x="3" y="94" class="st5" width="42.4" height="1.5"/>
			<rect x="3" y="92.5" class="st4" width="42.4" height="1.5"/>
			<rect x="3" y="90.9" class="st5" width="42.4" height="1.5"/>
			<rect x="3" y="89.4" class="st4" width="42.4" height="1.5"/>
			<rect x="3" y="87.9" class="st5" width="42.4" height="1.5"/>
			<rect x="3" y="86.4" class="st4" width="42.4" height="1.5"/>
			<rect x="3" y="84.9" class="st5" width="42.4" height="1.5"/>
			<rect x="18.2" y="84.9" class="st6" width="12.1" height="12.1"/>
			<rect x="19.7" y="84.9" class="st7" width="9.1" height="12.1"/>
		</g>
		<g>
			<rect y="83.4" class="st4" width="42.4" height="1.5"/>
			<rect y="81.8" class="st5" width="42.4" height="1.5"/>
			<rect y="80.3" class="st4" width="42.4" height="1.5"/>
			<rect y="78.8" class="st5" width="42.4" height="1.5"/>
			<rect y="77.3" class="st4" width="42.4" height="1.5"/>
			<rect y="75.8" class="st5" width="42.4" height="1.5"/>
			<rect y="74.3" class="st4" width="42.4" height="1.5"/>
			<rect y="72.8" class="st5" width="42.4" height="1.5"/>
			<rect x="15.2" y="72.8" class="st6" width="12.1" height="12.1"/>
			<rect x="16.7" y="72.8" class="st7" width="9.1" height="12.1"/>
		</g>
		<g>
			<rect x="54.6" y="95.5" class="st4" width="42.4" height="1.5"/>
			<rect x="54.6" y="94" class="st5" width="42.4" height="1.5"/>
			<rect x="54.6" y="92.5" class="st4" width="42.4" height="1.5"/>
			<rect x="54.6" y="90.9" class="st5" width="42.4" height="1.5"/>
			<rect x="54.6" y="89.4" class="st4" width="42.4" height="1.5"/>
			<rect x="54.6" y="87.9" class="st5" width="42.4" height="1.5"/>
			<rect x="54.6" y="86.4" class="st4" width="42.4" height="1.5"/>
			<rect x="54.6" y="84.9" class="st5" width="42.4" height="1.5"/>
			<rect x="69.7" y="84.9" class="st6" width="12.1" height="12.1"/>
			<rect x="71.2" y="84.9" class="st7" width="9.1" height="12.1"/>
		</g>
		<g>
			<rect x="51.5" y="83.4" class="st4" width="42.4" height="1.5"/>
			<rect x="51.5" y="81.8" class="st5" width="42.4" height="1.5"/>
			<rect x="51.5" y="80.3" class="st4" width="42.4" height="1.5"/>
			<rect x="51.5" y="78.8" class="st5" width="42.4" height="1.5"/>
			<rect x="51.5" y="77.3" class="st4" width="42.4" height="1.5"/>
			<rect x="51.5" y="75.8" class="st5" width="42.4" height="1.5"/>
			<rect x="51.5" y="74.3" class="st4" width="42.4" height="1.5"/>
			<rect x="51.5" y="72.8" class="st5" width="42.4" height="1.5"/>
			<rect x="66.7" y="72.8" class="st6" width="12.1" height="12.1"/>
			<rect x="68.2" y="72.8" class="st7" width="9.1" height="12.1"/>
		</g>
		<g>
			<rect x="54.6" y="71.2" class="st4" width="42.4" height="1.5"/>
			<rect x="54.6" y="69.7" class="st5" width="42.4" height="1.5"/>
			<rect x="54.6" y="68.2" class="st4" width="42.4" height="1.5"/>
			<rect x="54.6" y="66.7" class="st5" width="42.4" height="1.5"/>
			<rect x="54.6" y="65.2" class="st4" width="42.4" height="1.5"/>
			<rect x="54.6" y="63.7" class="st5" width="42.4" height="1.5"/>
			<rect x="54.6" y="62.1" class="st4" width="42.4" height="1.5"/>
			<rect x="54.6" y="60.6" class="st5" width="42.4" height="1.5"/>
			<rect x="69.7" y="60.6" class="st7" width="12.1" height="12.1"/>
			<rect x="71.2" y="60.6" class="st7" width="9.1" height="12.1"/>
		</g>
		<g>
			<rect x="56.1" y="94" class="st1" width="18.2" height="3"/>
			<rect x="59.1" y="94" class="st3" width="3" height="3"/>
			<rect x="68.2" y="94" class="st2" width="6.1" height="3"/>
			<rect x="56.1" y="96.2" class="st0" width="18.2" height="0.8"/>
		</g>
		<g>
			<rect x="58.4" y="90.9" class="st1" width="18.2" height="3"/>
			<rect x="61.4" y="90.9" class="st3" width="3" height="3"/>
			<rect x="70.5" y="90.9" class="st2" width="6.1" height="3"/>
			<rect x="58.4" y="93.2" class="st0" width="18.2" height="0.8"/>
		</g>
		<g>
			<rect x="57.6" y="87.9" class="st1" width="18.2" height="3"/>
			<rect x="60.6" y="87.9" class="st3" width="3" height="3"/>
			<rect x="69.7" y="87.9" class="st2" width="6.1" height="3"/>
			<rect x="57.6" y="90.2" class="st0" width="18.2" height="0.8"/>
		</g>
		<g>
			<rect x="56.1" y="84.9" class="st1" width="18.2" height="3"/>
			<rect x="59.1" y="84.9" class="st3" width="3" height="3"/>
			<rect x="68.2" y="84.9" class="st2" width="6.1" height="3"/>
			<rect x="56.1" y="87.1" class="st0" width="18.2" height="0.8"/>
		</g>
		<g>
			<rect x="36.4" y="94" class="st1" width="18.2" height="3"/>
			<rect x="39.4" y="94" class="st3" width="3" height="3"/>
			<rect x="48.5" y="94" class="st2" width="6.1" height="3"/>
			<rect x="36.4" y="96.2" class="st0" width="18.2" height="0.8"/>
		</g>
		<g>
			<rect x="37.9" y="90.9" class="st1" width="18.2" height="3"/>
			<rect x="40.9" y="90.9" class="st3" width="3" height="3"/>
			<rect x="50" y="90.9" class="st2" width="6.1" height="3"/>
			<rect x="37.9" y="93.2" class="st0" width="18.2" height="0.8"/>
		</g>
		<g>
			<rect x="36.4" y="87.9" class="st1" width="18.2" height="3"/>
			<rect x="39.4" y="87.9" class="st3" width="3" height="3"/>
			<rect x="48.5" y="87.9" class="st2" width="6.1" height="3"/>
			<rect x="36.4" y="90.2" class="st0" width="18.2" height="0.8"/>
		</g>
		<g>
			<rect x="34.1" y="84.9" class="st1" width="18.2" height="3"/>
			<rect x="37.1" y="84.9" class="st3" width="3" height="3"/>
			<rect x="46.2" y="84.9" class="st2" width="6.1" height="3"/>
			<rect x="34.1" y="87.1" class="st0" width="18.2" height="0.8"/>
		</g>
		<g>
			<rect x="37.9" y="81.8" class="st1" width="18.2" height="3"/>
			<rect x="40.9" y="81.8" class="st3" width="3" height="3"/>
			<rect x="50" y="81.8" class="st2" width="6.1" height="3"/>
			<rect x="37.9" y="84.1" class="st0" width="18.2" height="0.8"/>
		</g>
		<g>
			<rect x="36.4" y="78.8" class="st1" width="18.2" height="3"/>
			<rect x="39.4" y="78.8" class="st3" width="3" height="3"/>
			<rect x="48.5" y="78.8" class="st2" width="6.1" height="3"/>
			<rect x="36.4" y="81.1" class="st0" width="18.2" height="0.8"/>
		</g>
		<g>
			<rect x="37.9" y="75.8" class="st1" width="18.2" height="3"/>
			<rect x="40.9" y="75.8" class="st3" width="3" height="3"/>
			<rect x="50" y="75.8" class="st2" width="6.1" height="3"/>
			<rect x="37.9" y="78.1" class="st0" width="18.2" height="0.8"/>
		</g>
	</g>
</g>
</svg>
