<?xml version="1.0" encoding="utf-8"?>
<!-- Generator: Adobe Illustrator 21.1.0, SVG Export Plug-In . SVG Version: 6.00 Build 0)  -->
<svg version="1.1" id="Layer_1" xmlns="http://www.w3.org/2000/svg" xmlns:xlink="http://www.w3.org/1999/xlink" x="0px" y="0px"
	 viewBox="0 0 80 80" style="enable-background:new 0 0 80 80;" xml:space="preserve">
<style type="text/css">
	.st0{fill:#E9F0F3;}
	.st1{fill:#FFFFFF;}
</style>
<g>
	<path class="st0" d="M63.6,65.5c-1.4-0.8-2.9-1.3-4.5-1.7c-3.4-1-6.1-2.8-8-5.8c-0.1-0.2-0.4-0.3-0.6-0.3c-0.5,0-1.1,0-1.7,0
		c-0.7,0-1.2-0.4-1.4-1.1c-0.5-2-1-3.9-1.5-5.9c-0.1-0.5,0-1,0.4-1.5c2.1-2.2,3.4-4.8,3.9-7.8c0.1-0.8,0.5-1.1,1.2-1.4
		c0.3-0.1,0.6-0.5,0.7-0.9c0.3-1.6,0.6-3.2,0.9-4.9c0.1-0.9,0.1-1.9,0-2.9c0-0.6-0.3-0.9-1-1.1c-1.1-0.2-1.4-1.4-0.7-2.3
		c0.9-1.2,1.5-2.6,1.8-4.1c0-0.2,0.1-0.4,0.1-0.5c-0.2-1.1,0.3-2,1.1-2.8c0.2-0.2,0.3-0.8,0.2-1.2c-0.5-2.3-1.7-4.2-3.5-5.6
		c-2.8-2.3-6.2-3.2-9.8-3.1c-1.8,0-3.6,0.1-5.2,0.9c-0.9,0.4-1.6,1-2.4,1.5c-0.3,0.2-0.6,0.4-0.9,0.5c-2.9,0.9-4.4,2.9-4.6,5.9
		c0,1.1,0,2.3,0,3.4c0,0,0,0,0,0c0,1.3,0,2.6,0,3.9c0,0.5,0.2,0.9,0.4,1.3c0.5,1,0.2,2-0.9,2.2c-0.6,0.1-0.9,0.5-0.9,1
		c0,1-0.1,2,0,2.9c0.2,1.6,0.5,3.2,0.8,4.8c0.1,0.5,0.3,0.9,1,1.1c0.7,0.1,1,0.8,1.1,1.4c0.4,2.9,1.7,5.4,3.7,7.5
		c0.6,0.6,0.7,1.2,0.5,2.1c-0.5,1.7-0.9,3.5-1.3,5.2c-0.2,1-0.7,1.4-1.7,1.3c-1.3-0.1-2.2,0.3-3,1.4c-1.5,2.1-3.7,3.4-6.1,4.2
		c-0.9,0.3-1.8,0.7-2.7,1c-2.8,0.9-5,2.5-6.8,4.6C19.5,75.8,29.3,80,40,80c10.8,0,20.5-4.3,27.7-11.2C66.6,67.5,65.2,66.4,63.6,65.5
		z"/>
	<path class="st0" d="M11.8,65.3c1.8-1.6,3.8-3,6.1-3.7c1.1-0.4,2.2-0.8,3.4-1.2c2.2-0.8,3.9-2.1,5.1-4.1c0.7-1.2,1.6-1.8,2.9-1.5
		c0.6,0.1,0.8-0.1,0.9-0.7c0.2-1,0.5-1.9,0.7-2.9c0.1-0.2,0-0.6-0.2-0.8c-1.8-2.3-3.1-4.8-3.7-7.6c0-0.2-0.1-0.3-0.2-0.4
		c-1.6-1.9-2.1-4.2-2.6-6.5c-0.3-1.7-0.7-3.4-0.1-5c0.3-0.8,0.8-1.6,1.3-2.4c0.1-0.2,0.2-0.5,0.2-0.7c-0.4-3.1-0.6-6.2-0.2-9.2
		c0.4-3.5,2.5-5.9,5.7-7.5c0.5-0.2,1-0.5,1.4-0.8c2-1.5,4.2-2.2,6.7-2.4C43.4,7.3,47.4,8,51,10.3c3.3,2.1,5.6,4.9,6.5,8.7
		c0.1,0.4,0.1,0.8,0.2,1.2c0.1,0.8-0.1,1.4-0.7,1.9c-0.5,0.4-0.7,1-0.9,1.7c-0.3,1.4-0.8,2.7-1.2,4.1c-0.1,0.2-0.2,0.5-0.1,0.7
		c1.3,1.8,1.6,3.7,1.2,5.8c-0.4,1.8-0.8,3.5-1.3,5.3c-0.3,0.9-0.9,1.6-1.4,2.5c-0.1,0.2-0.3,0.4-0.3,0.7c-0.6,2.8-1.9,5.3-3.7,7.5
		c-0.2,0.2-0.3,0.6-0.2,0.9c0.2,1,0.5,2,0.7,2.9c0.1,0.4,0.3,0.7,0.7,0.6c1.5-0.2,2.4,0.4,3.1,1.7c1.2,2.1,3.1,3.5,5.4,4.2
		c1,0.3,2,0.7,3.1,1c3.1,1,5.5,2.8,7.5,5.1C76.1,59.7,80,50.3,80,40C80,17.9,62.1,0,40,0S0,17.9,0,40c0,10.3,3.9,19.7,10.3,26.8
		C10.8,66.3,11.2,65.8,11.8,65.3z"/>
	<path class="st1" d="M69.7,66.8c-2-2.3-4.4-4.1-7.5-5.1c-1-0.3-2-0.7-3.1-1c-2.3-0.8-4.2-2.1-5.4-4.2c-0.7-1.3-1.7-1.9-3.1-1.7
		c-0.5,0.1-0.6-0.2-0.7-0.6c-0.2-1-0.5-2-0.7-2.9c-0.1-0.3,0-0.7,0.2-0.9c1.8-2.2,3-4.7,3.7-7.5c0.1-0.2,0.2-0.5,0.3-0.7
		c0.5-0.8,1.1-1.6,1.4-2.5c0.5-1.7,0.9-3.5,1.3-5.3c0.4-2.1,0.1-4.1-1.2-5.8c-0.1-0.1,0-0.5,0.1-0.7c0.4-1.4,0.9-2.7,1.2-4.1
		c0.1-0.7,0.3-1.3,0.9-1.7c0.6-0.5,0.8-1.2,0.7-1.9c-0.1-0.4-0.1-0.8-0.2-1.2c-0.9-3.9-3.2-6.7-6.5-8.7C47.4,8,43.4,7.3,39.1,7.8
		c-2.4,0.3-4.7,1-6.7,2.4c-0.4,0.3-0.9,0.6-1.4,0.8c-3.2,1.5-5.2,4-5.7,7.5c-0.4,3.1-0.2,6.2,0.2,9.2c0,0.2-0.1,0.5-0.2,0.7
		c-0.4,0.8-1,1.6-1.3,2.4c-0.6,1.7-0.2,3.4,0.1,5c0.5,2.3,1,4.6,2.6,6.5c0.1,0.1,0.1,0.3,0.2,0.4c0.6,2.8,1.9,5.3,3.7,7.6
		c0.2,0.2,0.2,0.5,0.2,0.8c-0.2,1-0.5,1.9-0.7,2.9c-0.1,0.6-0.4,0.8-0.9,0.7c-1.4-0.2-2.2,0.3-2.9,1.5c-1.2,2-2.9,3.3-5.1,4.1
		c-1.1,0.4-2.2,0.9-3.4,1.2c-2.4,0.7-4.3,2.1-6.1,3.7c-0.5,0.5-1,1-1.5,1.5c0.6,0.7,1.3,1.4,2,2.1c1.8-2.1,4-3.7,6.8-4.6
		c0.9-0.3,1.8-0.7,2.7-1c2.4-0.9,4.6-2.2,6.1-4.2c0.8-1.1,1.7-1.6,3-1.4c1,0.1,1.5-0.4,1.7-1.3c0.4-1.7,0.8-3.5,1.3-5.2
		c0.2-0.8,0.1-1.4-0.5-2.1c-2-2.1-3.3-4.6-3.7-7.5c-0.1-0.6-0.4-1.3-1.1-1.4c-0.6-0.1-0.9-0.5-1-1.1c-0.3-1.6-0.6-3.2-0.8-4.8
		c-0.1-1-0.1-2,0-2.9c0-0.5,0.3-0.8,0.9-1c1.1-0.2,1.4-1.2,0.9-2.2c-0.2-0.4-0.4-0.9-0.4-1.3c-0.1-1.3,0-2.6,0-3.9c0,0,0,0,0,0
		c0-1.1,0-2.3,0-3.4c0.1-3,1.7-5,4.6-5.9c0.3-0.1,0.6-0.3,0.9-0.5c0.8-0.5,1.6-1.1,2.4-1.5c1.6-0.7,3.4-0.9,5.2-0.9
		c3.6,0,6.9,0.8,9.8,3.1c1.8,1.5,3,3.3,3.5,5.6c0.1,0.4,0,1-0.2,1.2c-0.9,0.8-1.3,1.7-1.1,2.8c0,0.2,0,0.4-0.1,0.5
		c-0.2,1.5-0.8,2.9-1.8,4.1c-0.7,0.9-0.4,2.1,0.7,2.3c0.6,0.1,0.9,0.5,1,1.1c0,1,0.1,1.9,0,2.9c-0.2,1.6-0.5,3.3-0.9,4.9
		c-0.1,0.3-0.4,0.8-0.7,0.9c-0.7,0.3-1.1,0.6-1.2,1.4c-0.5,3-1.8,5.6-3.9,7.8c-0.4,0.4-0.6,0.9-0.4,1.5c0.5,2,1,3.9,1.5,5.9
		c0.2,0.7,0.7,1.1,1.4,1.1c0.6,0,1.1,0,1.7,0c0.2,0,0.5,0.1,0.6,0.3c1.9,3,4.7,4.8,8,5.8c1.5,0.5,3.1,1,4.5,1.7
		c1.6,0.9,2.9,2,4.1,3.3C68.4,68.2,69,67.5,69.7,66.8z"/>
</g>
</svg>
