<svg width="550" height="440" viewBox="0 0 550 440" fill="none" xmlns="http://www.w3.org/2000/svg">
<path d="M547.8 97.4998C553.4 122 495.7 125.1 471.9 125.4C465.3 125.5 458.7 124.8 452.3 123.5C432.2 119.4 388.1 108.7 394.3 94.0998C402.3 75.2998 426.2 88.3998 426.2 88.3998C426.2 88.3998 423.2 74.1998 463.9 64.7998C504.7 55.3998 504.5 86.6998 504.5 86.6998C504.5 86.6998 540.7 66.6998 547.8 97.4998Z" fill="url(#paint0_linear)"/>
<path d="M295 74.7H62.8C62.8 74.7 50.2 58.8 62.8 48.1C69.7 42.2 78 42.8 83.9 44.5C87.8 45.6 91.7 43 92.5 39.1C94 32.5 98.3 24 110.8 18.9C123.1 13.9 130.9 21.5 135.4 29.3C136.9 31.9 140.8 31.5 141.7 28.7C145.6 16.4 159.2 0 203.8 0C260.6 0 254.3 30.2 249.2 42.7C248.3 44.9 250.2 47.1 252.5 46.6C261.3 44.7 277.5 42.3 284.8 48C295 56.1 295 74.7 295 74.7Z" fill="url(#paint1_linear)"/>
<path d="M203.8 206.6C203.8 206.6 168.2 113.4 98.6 104.3C48.2 172 115.1 239.7 115.1 239.7L195.5 273.4L203.8 206.6Z" fill="#F2453B"/>
<path d="M165.5 144L145.4 183.4L100.2 104.5C99.7 104.4 99.1 104.3 98.6 104.3C98.4 104.6 98.2 104.8 98 105.1L122.2 147.4L82 139.1C81.9 139.5 81.8 139.9 81.8 140.2L81.6 141.2L123.8 149.8L164.2 220.3L93 208.2C93.4 209 93.9 209.8 94.3 210.7L165.5 222.9L194.2 272.9L195.6 273.5L195.9 271.3L146.9 185.8L167.2 145.9C166.6 145.2 166.1 144.6 165.5 144Z" fill="white"/>
<path d="M180 247.9C180 247.9 110.7 201.7 65 233.9C71.6 347.9 217.1 347.5 217.1 347.5L180 247.9Z" fill="#6680A1"/>
<path d="M65 233.9C65 234.3 65.1 234.8 65.1 235.2L163.5 290.3L106.6 313.4C107.3 313.9 108 314.4 108.7 314.9L166 291.6L204.4 313.1L203.2 309.9L128.4 268L115.5 223.2C114.7 223.1 113.9 223 113.1 222.9L125.6 266.5L66 233.2C65.7 233.4 65.3 233.7 65 233.9Z" fill="#043C5E"/>
<path d="M416 271.6C416 271.6 463.8 184 533.9 184.3C574.8 258.1 499.5 316.3 499.5 316.3L415.3 339L416 271.6Z" fill="#043C5E"/>
<path d="M462.3 214.8L476.9 256.6L532.3 184.4C532.9 184.4 533.4 184.4 534 184.4C534.2 184.7 534.3 185 534.5 185.3L504.8 224L545.8 221.2C545.8 221.6 545.9 222 545.9 222.4L546 223.4L503.1 226.3L453.7 290.7L525.8 288.1C525.3 288.9 524.7 289.6 524.2 290.4L452 293L416.9 338.7L415.5 339.1V336.9L475.5 258.7L460.7 216.4C461.1 215.8 461.7 215.3 462.3 214.8Z" fill="#00666A"/>
<path d="M434.1 315.8C434.1 315.8 508.9 279.3 550 317.3C528.2 429.4 384.1 409.6 384.1 409.6L434.1 315.8Z" fill="#6680A1"/>
<path d="M550 317.3C549.9 317.7 549.8 318.2 549.7 318.6L444.9 360L498.2 390.5C497.5 390.9 496.7 391.3 495.9 391.7L442.3 361L401.4 377.2L403 374.2L482.7 342.6L501.5 299.9C502.3 299.9 503.1 299.9 503.9 300L485.7 341.5L549.2 316.4C549.4 316.7 549.7 317 550 317.3Z" fill="white"/>
<path d="M8.3 241.5L4.7 248.7L12.3 246.9L38.5 238.7L8.3 241.5Z" fill="#B0D9C8"/>
<path d="M4.7 248.7L17.7 247.9L14.5 246.3L4.7 248.7Z" fill="#63C1C5"/>
<path d="M8.3 241.5L6 234.5L38.5 238.7L8.3 241.5Z" fill="url(#paint2_linear)"/>
<path d="M38.5 238.7L12.3 246.9L16.2 257L38.5 238.7Z" fill="url(#paint3_linear)"/>
<path d="M7.5 255.9C7.4 255.9 7.4 255.8 7.3 255.8C7.1 255.5 7.1 255.2 7.4 254.9C8.2 254.2 9.1 253.6 10 253C10.3 252.8 10.7 252.9 10.8 253.2C11 253.5 10.9 253.9 10.6 254C9.8 254.5 9 255.1 8.2 255.7C8 256 7.7 256 7.5 255.9Z" fill="#63C1C5"/>
<path d="M16.2 323C14.4 321.9 12.8 320.5 11.4 318.8C11.2 318.5 11.2 318.2 11.5 317.9C11.8 317.6 12.1 317.7 12.4 318C13.7 319.6 15.2 320.9 16.9 321.9C17.2 322.1 17.3 322.4 17.1 322.7C16.9 323 16.5 323.1 16.2 323ZM9.5 315.9C9.4 315.8 9.3 315.8 9.2 315.7C8.2 313.9 7.4 311.9 6.9 309.8C6.8 309.5 7 309.1 7.3 309.1C7.6 309 8 309.2 8 309.5C8.5 311.4 9.2 313.3 10.2 315.1C10.4 315.4 10.3 315.8 10 315.9C9.9 316 9.7 316 9.5 315.9ZM6.6 306.5C6.4 306.4 6.3 306.2 6.3 306V305.7C6.2 303.8 6.3 301.7 6.6 299.7C6.7 299.4 7 299.1 7.3 299.2C7.6 299.2 7.9 299.6 7.8 299.9C7.5 301.9 7.4 303.8 7.5 305.6V305.9C7.5 306.2 7.3 306.5 6.9 306.6C6.8 306.6 6.7 306.6 6.6 306.5ZM7.7 296.7C7.4 296.6 7.3 296.3 7.4 296C7.9 294.1 8.6 292.1 9.4 290.1C9.5 289.8 9.9 289.6 10.2 289.8C10.5 289.9 10.7 290.3 10.5 290.6C9.7 292.6 9 294.5 8.5 296.4C8.4 296.7 8.1 296.9 7.8 296.8C7.8 296.8 7.7 296.8 7.7 296.7ZM11.2 287.5C10.9 287.3 10.8 287 10.9 286.7C11 286.6 11 286.4 11.1 286.3C10.2 285.9 9.3 285.4 8.4 284.8C8.1 284.6 8 284.2 8.2 284C8.4 283.7 8.8 283.6 9 283.8C9.8 284.3 10.7 284.8 11.5 285.2C12.2 283.9 12.9 282.6 13.7 281.2C13.9 280.9 14.2 280.8 14.5 281C14.8 281.2 14.9 281.5 14.7 281.8C13.9 283.2 13.2 284.4 12.6 285.6C13.2 285.8 13.8 286 14.3 286.2C14.6 286.3 14.8 286.6 14.7 287C14.6 287.3 14.3 287.5 13.9 287.4C13.2 287.2 12.6 287 11.9 286.7C11.8 286.9 11.7 287 11.7 287.2C11.9 287.6 11.6 287.7 11.2 287.5ZM5.7 282.5C5.6 282.5 5.6 282.4 5.5 282.4C4.6 281.4 3.8 280.4 3.1 279.3C2.7 278.6 2.3 277.9 2 277.1C1.9 276.8 2 276.4 2.3 276.3C2.6 276.2 3 276.3 3.1 276.6C3.4 277.3 3.7 278 4.1 278.6C4.7 279.6 5.5 280.6 6.3 281.5C6.5 281.7 6.5 282.1 6.3 282.4C6.2 282.6 5.9 282.6 5.7 282.5ZM17.8 288.1C17.6 288 17.4 287.8 17.5 287.5C17.5 287.2 17.8 286.9 18.2 286.9C20.2 287.1 22.2 286.9 24.1 286.4C24.4 286.3 24.8 286.5 24.8 286.8C24.9 287.1 24.7 287.5 24.4 287.5C22.4 288 20.2 288.2 18.1 288C17.9 288.1 17.9 288.1 17.8 288.1ZM1.3 273.8C1.1 273.7 1 273.6 1 273.4C0.600001 271.3 0.600001 269.2 0.900001 267.1C0.900001 266.8 1.3 266.5 1.6 266.6C1.9 266.6 2.2 267 2.1 267.3C1.8 269.3 1.8 271.3 2.2 273.3C2.3 273.6 2 273.9 1.7 274C1.6 273.9 1.4 273.9 1.3 273.8ZM27.4 286.3C27.3 286.2 27.2 286.2 27.1 286C26.9 285.7 27.1 285.3 27.4 285.2C27.9 285 28.3 284.7 28.7 284.4C29.9 283.6 31 282.6 31.8 281.4C32 281.1 32.4 281.1 32.7 281.3C33 281.5 33 281.9 32.8 282.2C31.9 283.5 30.7 284.6 29.3 285.5C28.8 285.8 28.4 286.1 27.9 286.3C27.8 286.4 27.6 286.4 27.4 286.3ZM16.1 278.9C15.8 278.7 15.7 278.3 15.9 278C17.3 275.9 18.5 274.3 19.9 273.1C20.2 272.9 20.5 272.9 20.8 273.1C21 273.4 21 273.7 20.8 274C19.5 275.1 18.3 276.6 17 278.7C16.7 279 16.4 279.1 16.1 278.9ZM2.1 264.1C1.8 264 1.7 263.6 1.8 263.4C2.1 262.5 2.5 261.6 2.9 260.7C3.4 259.7 4 258.7 4.7 257.8C4.9 257.5 5.3 257.5 5.6 257.7C5.9 257.9 5.9 258.3 5.7 258.6C5.1 259.5 4.5 260.4 4 261.4C3.6 262.2 3.2 263.1 2.9 263.9C2.9 264 2.5 264.2 2.1 264.1C2.2 264.1 2.2 264.1 2.1 264.1ZM33.7 279C33.5 278.9 33.3 278.6 33.4 278.3C33.8 276.8 33.6 275.5 33 274.3C32.8 273.9 32.5 273.5 32.2 273.1C32 272.9 32 272.5 32.2 272.2C32.4 272 32.8 272 33.1 272.2C33.5 272.6 33.9 273.1 34.1 273.6C34.9 275.1 35 276.7 34.6 278.5C34.5 278.8 34.2 279 33.9 278.9C33.8 279 33.7 279 33.7 279ZM23 272.1C22.9 272 22.8 271.9 22.7 271.8C22.6 271.5 22.7 271.1 23 271C25 270.1 27.3 269.9 29.4 270.4C29.7 270.5 29.9 270.8 29.8 271.1C29.7 271.4 29.4 271.6 29.1 271.5C27.3 271 25.2 271.2 23.5 272C23.4 272.2 23.2 272.1 23 272.1Z" fill="#63C1C5"/>
<path d="M19.7 324.5C19.4 324.4 19.3 324.1 19.4 323.8C19.5 323.5 19.8 323.3 20.2 323.4C21.1 323.7 22.1 323.8 23.1 323.9C23.4 323.9 23.7 324.2 23.7 324.5C23.7 324.8 23.4 325.1 23.1 325.1C22 325 21 324.9 20 324.6C19.8 324.5 19.7 324.5 19.7 324.5Z" fill="#63C1C5"/>
<path d="M338.8 32.3L359.1 19.2001L369.7 16.3L378 16.9L338.8 32.3Z" fill="url(#paint4_linear)"/>
<path d="M338.8 32.3L377.6 19.4L378 16.9" fill="#B0D9C8"/>
<path d="M379.2 26.1001V26.2001L378 32.4001L338.9 32.3001L379.2 26.1001Z" fill="#63C1C5"/>
<path d="M386.5 22L380.6 17.8L339 32.2001L375.4 28.6L386.5 22Z" fill="url(#paint5_linear)"/>
<path d="M480.9 94.1999C479.6 93.7999 478.3 93.4 477 92.8C476.7 92.7 476.4 92.7999 476.2 93.0999C476.1 93.3999 476.2 93.7 476.5 93.9C477.8 94.5 479.2 95 480.6 95.3C481.1 95.4 481.6 95.5999 482.1 95.6999C482.3 95.6999 482.5 95.6999 482.6 95.5999C482.7 95.4999 482.8 95.4 482.8 95.3C482.9 95 482.7 94.6999 482.4 94.5999C481.9 94.4999 481.4 94.2999 480.9 94.1999Z" fill="#63C1C5"/>
<path d="M397.8 16.9C396 17.3 394.2 17.7 392.2 18.2C391.9 18.3 391.7 18.6 391.8 18.9C391.9 19.2 392.2 19.4 392.5 19.3C394.5 18.8 396.3 18.4 398.1 18C398.2 18 398.3 17.9 398.4 17.9C398.6 17.8 398.6 17.6 398.6 17.3C398.4 17 398.1 16.8 397.8 16.9Z" fill="#63C1C5"/>
<path d="M407.4 16.7C407.5 16.6 407.6 16.4 407.6 16.2C407.6 15.9 407.3 15.6 407 15.7C405.2 15.8 403.2 16 401.2 16.3C400.9 16.3 400.7 16.6 400.7 17C400.7 17.3 401 17.5 401.4 17.5C403.4 17.2 405.3 17 407.1 16.9C407.2 16.8 407.3 16.7 407.4 16.7Z" fill="#63C1C5"/>
<path d="M469.3 88C469.1 87.8 468.7 87.8 468.5 88.1C468.3 88.3 468.3 88.7 468.6 88.9C470.1 90.2 471.7 91.3 473.4 92.3C473.6 92.4 473.9 92.4 474.1 92.2C474.1 92.2 474.2 92.1 474.2 92C474.4 91.7 474.3 91.4 474 91.2C472.3 90.3 470.8 89.3 469.3 88Z" fill="#63C1C5"/>
<path d="M466.8 86.5C467 86.3 467 85.9 466.8 85.7C466.4 85.3 466.1 84.9 465.8 84.6C464.9 83.6 464.1 82.4 463.4 81.3C463.2 81 462.9 81 462.6 81.1C462.3 81.3 462.3 81.6 462.4 81.9C463.2 83.1 464 84.2 464.9 85.3C465.2 85.7 465.6 86.1 466 86.5C466.2 86.7 466.6 86.7 466.8 86.5Z" fill="#63C1C5"/>
<path d="M461.5 79.1C461.5 79.1 461.6 79.1 461.6 79C461.8 78.8 461.9 78.5 461.7 78.3C460.9 76.7 460.2 75 459.6 73C459.5 72.7 459.2 72.5 458.9 72.6C458.6 72.7 458.4 73 458.5 73.3C459.1 75.3 459.9 77.1 460.7 78.7C460.8 79.1 461.2 79.2 461.5 79.1Z" fill="#63C1C5"/>
<path d="M442.9 31.1001C443.4 31.7001 443.9 32.2001 444.4 32.8001C445.1 33.7001 445.9 34.6001 446.5 35.5001C446.7 35.8001 447 35.8001 447.3 35.6001C447.5 35.4001 447.6 35.1001 447.4 34.8001C446.7 33.9001 446 32.9001 445.2 32.0001C444.7 31.4001 444.2 30.8001 443.6 30.3001C443.4 30.1001 443 30.0001 442.8 30.3001C442.7 30.5001 442.6 30.9001 442.9 31.1001Z" fill="#63C1C5"/>
<path d="M448.4 38.2999C449.4 39.8999 450.3 41.5999 451 43.2999C451.1 43.5999 451.5 43.6999 451.8 43.5999C451.9 43.5999 451.9 43.4999 451.9 43.4999C452.1 43.2999 452.2 43.0999 452.1 42.7999C451.3 40.9999 450.4 39.2999 449.4 37.5999C449.2 37.2999 448.9 37.2 448.6 37.4C448.3 37.7 448.2 37.9999 448.4 38.2999Z" fill="#63C1C5"/>
<path d="M436 25.1C437.5 26.2 439 27.4 440.4 28.7C440.6 28.9 440.9 28.9 441.2 28.7C441.2 28.7 441.2 28.7 441.3 28.6C441.5 28.4 441.5 28 441.3 27.8C439.9 26.5 438.3 25.3 436.8 24.1C436.5 23.9 436.2 24 436 24.2C435.7 24.6 435.7 24.9 436 25.1Z" fill="#63C1C5"/>
<path d="M425 19.3C425.2 19.4 425.4 19.3 425.6 19.2C425.7 19.1 425.7 19.1 425.8 19C425.9 18.7 425.8 18.4 425.5 18.3C423.7 17.6 421.8 17.1 419.9 16.7C419.6 16.6 419.3 16.8 419.2 17.1C419.1 17.4 419.3 17.7 419.6 17.8C421.3 18.1 423.2 18.7 425 19.3Z" fill="#63C1C5"/>
<path d="M456.3 61.4C456.4 61.4 456.5 61.3 456.6 61.3C456.8 61.2 456.8 61 456.8 60.8L456.7 60.1C456.4 58.4 456.1 56.8 455.8 55.1C455.7 54.8 455.4 54.6 455.1 54.7C454.8 54.8 454.6 55.1 454.7 55.4C455 57 455.3 58.7 455.6 60.3L455.7 61C455.7 61.3 456 61.5 456.3 61.4Z" fill="#63C1C5"/>
<path d="M433.2 23.3C433.4 23.4 433.7 23.4 433.9 23.2L434 23.1C434.2 22.8 434.1 22.5 433.8 22.3C432.1 21.3 430.4 20.4 428.6 19.6C428.3 19.5 428 19.6 427.8 19.9C427.7 20.2 427.8 20.5 428.1 20.7C429.8 21.4 431.5 22.3 433.2 23.3Z" fill="#63C1C5"/>
<path d="M456.7 63.7C456.4 63.8 456.2 64.1 456.2 64.4C456.6 66.6 457 68.3999 457.5 70.0999C457.6 70.3999 457.9 70.6 458.2 70.5C458.3 70.5 458.4 70.4 458.4 70.4C458.6 70.3 458.6 70 458.6 69.8C458.2 68.2 457.8 66.3999 457.3 64.1999C457.4 63.8999 457 63.7 456.7 63.7Z" fill="#63C1C5"/>
<path d="M485.7 95.1C485.4 95.1 485.1 95.3 485.1 95.6C485.1 95.9 485.3 96.2 485.6 96.2C487.4 96.4 489.3 96.5 491.4 96.5C491.5 96.5 491.7 96.4 491.8 96.4C491.9 96.3 492 96.1 492 96C492 95.7 491.7 95.4 491.4 95.4C489.3 95.5 487.5 95.4 485.7 95.1Z" fill="#63C1C5"/>
<path d="M452.6 45.8C452.3 45.9 452.1 46.2 452.2 46.5C452.8 48.2 453.3 50 453.8 52C453.9 52.3 454.2 52.5 454.5 52.4C454.6 52.4 454.7 52.3 454.7 52.3C454.9 52.2 454.9 51.9 454.9 51.7C454.4 49.6 453.9 47.8 453.3 46.1C453.2 45.8 452.9 45.7 452.6 45.8Z" fill="#63C1C5"/>
<path d="M412.5 15.6C411.8 15.6 411.1 15.5 410.5 15.5C410.2 15.5 409.9 15.8 409.9 16.1C409.9 16.4 410.2 16.7 410.5 16.7C411.2 16.7 411.8 16.7 412.5 16.8C413.7 16.9 415 17 416.2 17.2C416.4 17.2 416.5 17.2 416.7 17.1C416.8 17 416.9 16.9 416.9 16.7C416.9 16.4 416.7 16.1 416.4 16C415.1 15.8 413.8 15.7 412.5 15.6Z" fill="#63C1C5"/>
<path d="M457.4 102.7H182.2V428.4H457.4V102.7Z" fill="#C1D5F0"/>
<path d="M365.4 159.8L361.5 223.8H428.1L428 159.8H365.4Z" fill="white"/>
<path d="M418.9 224.4C419 223.7 419 223 419 222.3C419.1 206.3 407.8 193.9 394 194.3C380.5 194.6 369.1 207 368.3 222.4C368.3 223.1 368.3 223.8 368.3 224.4H418.9Z" fill="#475B73"/>
<path d="M408.8 178.2C408.9 170.1 402.7 164 395 164.4C387.4 164.8 381 171.4 380.6 179.2C380.2 187.2 386.2 193.7 394.1 193.5C402 193.3 408.6 186.4 408.8 178.2Z" fill="#475B73"/>
<path d="M306.9 209.1H205.8V213.2H306.9V209.1Z" fill="white"/>
<path d="M306.9 221.5H205.8V225.6H306.9V221.5Z" fill="white"/>
<path d="M322.4 237H204.8V241.1H322.4V237Z" fill="white"/>
<path d="M294.2 249.4H204.8V253.5H294.2V249.4Z" fill="white"/>
<path d="M435.3 317.9H349.4V388.8H435.3V317.9Z" fill="#475B73"/>
<path d="M330.7 161.7H202.8V195.4H330.7V161.7Z" fill="#475B73"/>
<path d="M332.1 315.8H204.2V404.9H332.1V315.8Z" fill="#D2DEEC"/>
<path d="M332.2 271.1H204.3V295.5H332.2V271.1Z" fill="white"/>
<path d="M459 102.7H182.2V131.5H459V102.7Z" fill="#25374B"/>
<path d="M286.5 110.7H194.2V126.3H286.5V110.7Z" fill="white"/>
<path d="M438.3 125.3C442.884 125.3 446.6 121.584 446.6 117C446.6 112.416 442.884 108.7 438.3 108.7C433.716 108.7 430 112.416 430 117C430 121.584 433.716 125.3 438.3 125.3Z" fill="#C1D5F0"/>
<path d="M425.4 253.2H358.3V257.3H425.4V253.2Z" fill="white"/>
<path d="M425.4 265.6H358.3V269.7H425.4V265.6Z" fill="white"/>
<path d="M435.7 281.1H357.6V285.2H435.7V281.1Z" fill="white"/>
<path d="M417 293.5H357.6V297.6H417V293.5Z" fill="white"/>
<path d="M159.7 338.6H157.8V437.8H159.7V338.6Z" fill="#00666A"/>
<path d="M211.9 335.7H151.8V338.6H211.9V335.7Z" fill="#00666A"/>
<path d="M211.9 335.7H185.6V338.6H211.9V335.7Z" fill="#01898C"/>
<path d="M206.2 314.5H178L170.9 334.7H199.7L206.2 314.5Z" fill="#63C1C5"/>
<path d="M205 315.2H178.7L172.1 334H198.9L205 315.2Z" fill="#043C5E"/>
<path d="M163.5 335.7H199.4C199.8 335.7 200.1 335.4 200.1 335V334.6C200.1 334.2 199.8 333.9 199.4 333.9H163.5C163.1 333.9 162.8 334.2 162.8 334.6V335C162.8 335.4 163.1 335.7 163.5 335.7Z" fill="#F04637"/>
<path d="M187.1 335.7H199.7C199.9 335.7 200.1 335.5 200.1 335.3V334.3C200.1 334.1 199.9 333.9 199.7 333.9H187.1C186.7 333.9 186.3 334.2 186.3 334.7V335C186.3 335.3 186.6 335.7 187.1 335.7Z" fill="#F04637"/>
<path d="M173.9 335C174.066 335 174.2 334.865 174.2 334.7C174.2 334.534 174.066 334.4 173.9 334.4C173.734 334.4 173.6 334.534 173.6 334.7C173.6 334.865 173.734 335 173.9 335Z" fill="#FFDB71"/>
<path d="M175.5 335C175.666 335 175.8 334.865 175.8 334.7C175.8 334.534 175.666 334.4 175.5 334.4C175.334 334.4 175.2 334.534 175.2 334.7C175.2 334.865 175.334 335 175.5 335Z" fill="#F18813"/>
<path d="M190.3 335H191.9C192.1 335 192.2 334.9 192.2 334.7C192.2 334.5 192.1 334.4 191.9 334.4H190.3C190.1 334.4 190 334.5 190 334.7C190 334.9 190.1 335 190.3 335Z" fill="#F7A605"/>
<path d="M193.2 335H194.8C195 335 195.1 334.9 195.1 334.7C195.1 334.5 195 334.4 194.8 334.4H193.2C193 334.4 192.9 334.5 192.9 334.7C192.9 334.9 193 335 193.2 335Z" fill="#F18813"/>
<path d="M133.8 421.8L135.2 425.5C135.6 426.5 136.2 427.4 137.2 428C138.2 428.6 139.8 429.6 142.2 430.3C139.3 432.8 134.7 430.2 132.1 428.4C130.8 427.5 129.9 426.2 129.5 424.7L128.9 421.9H133.8V421.8Z" fill="#F8B68F"/>
<path d="M129.2 423.8C129.2 423.8 127.2 425.3 127.6 427.3C128 429.3 128.5 433.8 128.5 433.8H130.5L130.4 429.5C130.4 429.2 134.7 433.8 135.4 433.8H146C146 433.8 146.7 430.9 140.5 430C134.3 429.1 129.2 423.8 129.2 423.8Z" fill="#043C5E"/>
<path d="M124.1 355C149.7 346.6 158.8 355 158.8 355L121.1 364.9C121.1 364.9 98.5 363.4 124.1 355Z" fill="#212B53"/>
<path d="M121.1 334.9C127.3 335.5 127.7 326.1 127.7 326.1L125.2 314C125.2 314 112.6 334.1 121.1 334.9Z" fill="#01898C"/>
<path d="M121.1 378.2C121.1 378.2 134.6 380.6 144.1 375.4C126.9 387.5 128.5 422.6 128.5 422.6H135.2L157.9 364.8H143.9L121.1 378.2Z" fill="#212B53"/>
<path d="M148.7 425.9L150.1 429.6C150.5 430.6 151.1 431.5 152.1 432.1C153.1 432.7 154.7 433.7 157.1 434.4C154.2 436.9 149.6 434.3 147 432.5C145.7 431.6 144.8 430.3 144.4 428.8L143.8 426H148.7V425.9Z" fill="#F8B68F"/>
<path d="M144.1 427.8C144.1 427.8 142.1 429.3 142.5 431.3C142.9 433.3 143.4 437.8 143.4 437.8H145.4L145.3 433.5C145.3 433.2 149.6 437.8 150.3 437.8H161C161 437.8 161.7 434.9 155.5 434C149.2 433.1 144.1 427.8 144.1 427.8Z" fill="#043C5E"/>
<path d="M129.2 309.6L143.1 332.3L166.5 330.5L170.4 329C173.8 329 175.7 330 178.6 331.9L181.9 334.1H167.3C167.3 334.1 157.1 339.4 144.9 342.4C141.9 343.2 138.6 342.5 136.2 340.6C130 335.8 125.2 326.4 125.2 326.4L121.2 316.5L129.2 309.6Z" fill="#F8B68F"/>
<path d="M114.2 298.6C114.2 298.6 129.2 305.6 129.2 309.6C123.7 316.2 125.2 326.4 125.2 326.4C125.2 326.4 114.7 346.1 118.8 359.3C104 368.1 94.1 353.8 94.1 353.8C94.1 353.8 95.9 316.9 104.8 301.6C108.7 298.6 114.2 298.6 114.2 298.6Z" fill="#01898C"/>
<path d="M131.2 281.5L119 280.2L116.3 288.5C116.3 288.6 116.2 288.7 116.2 288.9C116.4 289 116.6 289.2 116.7 289.3C116.7 289.3 116.8 289.3 116.8 289.4C116.8 289.4 116.9 289.4 116.9 289.5C119 291.2 119.8 294.1 119.5 296.7C120.9 297.7 122.4 298.4 124.1 298.8C125.2 299.1 126.3 299.2 127 298.9C131.4 295.1 131.2 281.5 131.2 281.5Z" fill="#F8B68F"/>
<path d="M128.1 290.2C126.4 292 125.5 294.8 125.8 297.9C126.3 303 126.4 307.7 124.6 309.7C123.4 311.1 120.9 311.7 118.9 311.9C116.7 312.2 114.9 313.8 113.9 316.4C112.5 320.1 110.8 324.7 108.1 324.1C100.4 322.3 98.2 320.1 99.9 311.9C100.3 309.9 101.3 307.2 102.9 305.2C104.7 302.8 105.8 299.5 105.8 296.1C105.8 293.9 106 291.6 106.4 290.3C106.9 288.9 108.6 287.5 110.3 286.4C112.4 285.1 113.8 282.8 114.5 280C115.2 277.4 116.5 274.3 119.4 273.3C124.8 271.3 132.8 282.6 132.8 282.6C132.8 282.6 131.4 286.5 128.1 290.2Z" fill="#212B53"/>
<path d="M94.1 353.9C94.1 353.9 87.9 366.7 101 375.5C114.2 384.3 144.5 372.2 149.6 371.8C141.6 387.5 142.7 425.9 142.7 425.9H150C150 425.9 173.4 361.2 159.1 353.9C144.8 346.6 114.3 353.5 114.3 353.5L94.1 353.9Z" fill="#043C5E"/>
<path d="M134.8 379.8H93C93 379.8 93 376.9 93 371.6C107.7 364.8 134.9 375.7 134.9 375.7V379.8H134.8Z" fill="#F04637"/>
<path d="M93 379V377.2C92.8 377.2 87.1 377 87.1 367.8C87.1 357.8 93.3 342.7 93.4 342.5L91.8 341.8C91.5 342.4 85.4 357.4 85.4 367.7C85.3 378.8 92.9 379 93 379Z" fill="#F04637"/>
<path d="M102.7 344.6C92.4 342.2 81.3 344.6 81.3 344.6C81.3 344.6 81.7 332.8 78.7 325.5C93.1 315.2 106.3 325.5 106.3 325.5C106.3 325.5 108.4 332.9 102.7 344.6Z" fill="#FF7B7C"/>
<path d="M88.7 437.6L96.6 379.7L98.4 380L90.5 437.6H88.7Z" fill="#F04637"/>
<path d="M128.8 437.6L120.9 380L122.6 379.7L130.6 437.6H128.8Z" fill="#F04637"/>
<path d="M209.7 338.6H207.8V437.8H209.7V338.6Z" fill="#01898C"/>
<path d="M177.6 338.6H175.7V437.8H177.6V338.6Z" fill="#01898C"/>
<path d="M185.6 338.6H183.7V437.8H185.6V338.6Z" fill="#00666A"/>
<path d="M305.2 376.8C301.2 405.2 305.6 434.6 305.6 434.3C305.6 434 308.8 434.3 308.8 434.3C308.8 434.3 313.2 399.8 314.2 388.3C315.2 376.8 314.2 376 314.2 376C314.2 376 309.2 348.4 305.2 376.8Z" fill="#F4A086"/>
<path d="M304.2 303.6L294.5 309.8L290.4 301.3L302.9 286.9L304.2 303.6Z" fill="#01898C"/>
<path d="M355.4 246.8L343.5 277.8L335.9 272.2L352.9 243.6L355.4 246.8Z" fill="#F8B68F"/>
<path d="M356.1 236.3C355.2 237.1 354.5 238.1 354.4 239.3L352.9 243.6L353.4 244.4L355.5 246.8C355.6 245.9 356.3 245.2 356.3 245.2L359.5 241.6C359.5 241.6 364.8 235.4 359.9 233.3C362.8 227.6 360.7 227.7 360.7 227.7L358.1 232.6L356.1 236.3Z" fill="#F8B68F"/>
<path d="M356.8 237.4C356.8 237.4 355.7 236.4 356.7 234C357.7 231.6 356.2 231.8 356.2 231.8C356.2 231.8 352.2 241.1 353.5 242.2C354.8 243.2 356.8 237.4 356.8 237.4Z" fill="#F8B68F"/>
<path d="M321.4 284.2L325 284.5L337.1 270.4L343.6 277.8C343.6 277.8 337.6 289.1 328.9 300.8C328.4 303.2 325.8 327.1 325.8 327.1H304.8C304.8 327.1 308.1 309.5 302.2 299.8C296.3 290 321.4 284.2 321.4 284.2Z" fill="#01898C"/>
<path d="M314.5 376.8C310.5 405.2 314.9 434.6 314.9 434.3C314.9 434 318.1 434.3 318.1 434.3C318.1 434.3 322.5 399.8 323.5 388.3C324.5 376.8 323.5 376 323.5 376C323.5 376 318.5 348.4 314.5 376.8Z" fill="#F8B68F"/>
<path d="M322.1 262.3L310 266.5L311.2 275.5C311.2 275.6 311.3 275.7 311.3 275.9C311.5 275.9 311.8 276 312 276H312.1H312.2C315 276.7 317 279 317.8 281.6C319.5 281.9 321.3 281.9 323 281.5C324.2 281.3 325.3 280.9 325.7 280.3C328.4 274.9 322.1 262.3 322.1 262.3Z" fill="#F8B68F"/>
<path d="M322.4 269.9C321.3 272.1 321.1 274.6 322.2 276.8C323.8 280.3 323.7 284.2 322.6 286.3C321.9 287.8 319.9 289.2 318.2 290.3C316.4 291.4 315.2 293.3 315 295.5C314.7 298.4 314.5 302 311.9 302.9C304.6 305.4 301.9 305.2 301 299.1C300.8 297.6 300.8 295.3 301.6 293.2C302.6 290.6 302.5 287.8 301.4 285.2C300.7 283.5 300 281.7 300 280.4C300 279 301.3 277.1 302.6 275.4C304.3 273.3 305 270.7 304.7 268.1C304.5 265.5 304.8 262.1 307.5 259.8C312.5 255.6 323.5 262.2 323.5 262.2C323.5 262.2 324.6 265.5 322.4 269.9Z" fill="#212B53"/>
<path d="M290.4 301.3L285.7 306.1C282.6 309.3 281.6 313.8 285.4 316.2L300.6 328.3L299.2 330.9C298 333.1 298.2 335.8 299.8 337.8L301.4 339.9L305 327.7L294 313.9C292.8 312.7 293.1 310.7 294.6 309.8L290.4 301.3Z" fill="#F8B68F"/>
<path d="M325.7 327.2C325.7 327.2 328.8 335.2 328.8 343.2C328.8 347.6 325 381 325 381C325 381 308.7 381 305.1 381C306.5 356.3 299 353.3 299 342.6C299 335.1 304.9 327.1 304.9 327.1H325.7V327.2Z" fill="#043C5E"/>
<path d="M305.6 430.6C305.6 430.6 303.9 432 304.2 433.7C304.5 435.4 305 439.5 305 439.5H306.8L306.7 435.7C306.7 435.5 310.5 439.5 311.2 439.5H320.7C320.7 439.5 321.3 436.9 315.8 436.1C310.2 435.3 305.6 430.6 305.6 430.6Z" fill="#212B53"/>
<path d="M315.7 430.6C315.7 430.6 314 432 314.3 433.7C314.6 435.4 315.1 439.5 315.1 439.5H316.9L316.8 435.7C316.8 435.5 320.6 439.5 321.3 439.5H330.8C330.8 439.5 331.4 436.9 325.9 436.1C320.3 435.3 315.7 430.6 315.7 430.6Z" fill="#11375B"/>
<path d="M252.7 433.5H266.8C268.7 433.7 270.8 434.2 271.1 435.9C271.1 435.9 271.3 437 271.3 438C270.8 438.6 252.1 437.9 252.1 437.9L252 437.8C250.1 435.5 252.7 433.5 252.7 433.5Z" fill="#11375B"/>
<path d="M271.3 438L252.1 437.9L252.3 438.7H271.4L271.3 438Z" fill="#212B53"/>
<path d="M258.3 433.5H259.6L259.2 435.2H258L258.3 433.5Z" fill="white"/>
<path d="M261 433.5H262.3L261.9 435.2H260.7L261 433.5Z" fill="white"/>
<path d="M251.8 428.8L252.8 433.5C253.9 434.1 255.4 434.1 256.6 433.6L256.8 433.5L257.5 428.8H251.8Z" fill="#F8B68F"/>
<path d="M219.8 433.5H233.9C235.8 433.7 237.9 434.2 238.2 435.9C238.2 435.9 238.4 437 238.4 438C237.9 438.6 219.2 437.9 219.2 437.9L219.1 437.8C217.1 435.5 219.8 433.5 219.8 433.5Z" fill="#212B53"/>
<path d="M238.4 438L219.2 437.9L219.4 438.7H238.4V438Z" fill="#212B53"/>
<path d="M225.3 433.5H226.6L226.2 435.2H225L225.3 433.5Z" fill="white"/>
<path d="M228.1 433.5H229.3L228.9 435.2H227.7L228.1 433.5Z" fill="white"/>
<path d="M220.4 428.8L219.8 433.5C220.9 434.1 222.4 434.1 223.6 433.6L223.8 433.5L226.1 428.8H220.4Z" fill="#F8B68F"/>
<path d="M241.4 270.8L229.8 278.4L233.4 287.6C233.5 287.7 233.5 287.8 233.6 288C233.9 288 234.1 288 234.4 288H234.5H234.6C237.7 288 240.4 289.9 242 292.5C243.9 292.4 245.7 291.9 247.5 291.1C248.7 290.5 249.7 289.9 250.1 289.1C251.3 282.5 241.4 270.8 241.4 270.8Z" fill="#F8B68F"/>
<path d="M256.2 273.2C256.2 273.2 257.6 286.7 254.8 295.3C256.1 296.5 261 301.7 262.5 294.9C264 288.1 260.8 270.9 260.8 270.9L256.2 273.2Z" fill="#F8B68F"/>
<path d="M249.2 272.2L246.5 274L247.5 276L250.4 274.8L249.2 272.2Z" fill="#212B53"/>
<path d="M247.679 275.997C247.932 275.886 247.921 275.304 247.655 274.698C247.388 274.091 246.967 273.689 246.714 273.8C246.462 273.911 246.473 274.493 246.739 275.099C247.005 275.706 247.426 276.108 247.679 275.997Z" fill="#212B53"/>
<path d="M282.2 262.3C281.7 261.1 280.8 259.2 279.6 257.5C277.6 254.7 277.1 253.4 277.1 253.4L248.9 271.9L250.7 275.3L282.3 263.6C282.2 263.2 282.2 262.7 282.2 262.3Z" fill="#043C5E"/>
<path d="M238.9 292.4L237.8 298.8H246.8L247.5 291L238.9 292.4Z" fill="#F4A086"/>
<path d="M262 308.1C262 308.1 272.6 304.7 275.9 300.2C279.2 295.7 273.6 270.8 273.6 270.8L274.3 266.3C274.7 263.8 272.8 261.5 270.2 261.5H267.4C266.2 261.5 265.4 262.7 265.9 263.8L269.6 272.2C269.6 272.2 272.4 291 268.5 292.5C263.8 294.2 258.5 294.6 258.5 294.6L262 308.1Z" fill="#F8B68F"/>
<path d="M242.1 292.4L239.4 286.3L241.2 285.2C242.5 284.4 243.1 282.8 242.6 281.3L240.7 275.6C240.7 275.6 246.2 274.9 246.1 269.8C246.1 267.1 242.5 267.1 242.5 267.1C242.5 267.1 241.4 269.5 238 269.8C236.5 269.6 232.6 270.2 229.9 274.8C228.1 278 228.9 282.9 230.5 286.6C231.9 289.9 235.5 291.8 239.1 292.3H242.1V292.4Z" fill="#11375B"/>
<path d="M231.3 343.2C231.3 343.2 231.9 356.1 234.7 370.1C235.5 374.2 235.2 378.5 233.9 382.5C227.6 401.3 218.7 429.6 218.7 429.6H226.6C226.6 429.6 244.5 396.2 249.1 379.6C253.7 363 254.5 357.7 254.5 357.7L249 343.2H231.3Z" fill="#212B53"/>
<path d="M237.9 283.5C237.6 284.5 238.2 285.7 239.4 286.3C240.5 286.9 241.7 286.6 242 285.7C242.3 284.7 241.7 283.5 240.5 282.9C239.4 282.3 238.3 282.6 237.9 283.5Z" fill="#F8B68F"/>
<path d="M257.1 343.2H231.3V310.2C231.3 303 236.8 296.9 244 296.2L261.9 294C261.9 294 264 297.2 269.9 304.7C262.8 309.1 254.7 311.1 254.7 311.1L257.1 343.2Z" fill="#F04637"/>
<path d="M231.3 343.2C231.3 343.2 234.9 356.4 248.4 371.1C250.6 373.3 253.9 378 253.4 384.5L250.6 429.5H258.6C258.6 429.5 268.4 392.1 266.3 373.7C264.2 355.3 257.1 343.2 257.1 343.2H231.3Z" fill="#043C5E"/>
<path d="M282.094 263.621C283.039 263.165 282.678 260.457 281.287 257.571C279.896 254.686 278.002 252.716 277.057 253.172C276.112 253.627 276.473 256.336 277.864 259.221C279.255 262.107 281.149 264.077 282.094 263.621Z" fill="#63C1C5"/>
<path d="M255.1 267.7L255.3 267.8C256.1 268.2 257.1 268.3 258 268L258.2 267.9C259.7 267.4 260.8 266.3 261.3 264.8C261.5 264.2 260.9 263.5 260.3 263.7L258.5 264.1C257.8 264.2 257.2 264.7 256.8 265.3L255.1 267.7Z" fill="#F8B68F"/>
<path d="M441.4 278.9C442 280.2 442.1 281.7 441.7 283L440.9 288.4L440 289L436.6 290.4C437 289.3 436.6 288.2 436.6 288.2L435.1 282.6C435.1 282.6 432.8 273.2 439.1 273.6C439.1 266 441.2 267.2 441.2 267.2L441.3 273.8L441.4 278.9Z" fill="#F8B68F"/>
<path d="M457.3 297.5C457.3 297.5 452.8 314.5 449 314.8C445.2 315.1 441.2 287.9 441.2 287.9L436 288.5C436 288.5 434 327.7 445.6 328.4C457.2 329.1 458.7 320.4 458.7 320.4L457.3 297.5Z" fill="#FF7B7C"/>
<path d="M457.7 344H488C488 344 488 321.9 488 297.9C479.3 284.7 468.5 288.3 468.5 288.3C468.5 288.3 458.7 288.5 457.2 297.5C457.3 304 457.7 344 457.7 344Z" fill="#F2453B"/>
<path d="M472.1 282.2L472.5 288.7L472.3 288.9C470.2 290.9 466.8 291 464.6 289L464.5 284.1L472.1 282.2Z" fill="#F4A086"/>
<path d="M474.5 268.6L474 279.4C472.9 279.4 472.3 280.5 472.5 281.5C472.4 281.7 472.3 282 472.3 282.3C470.4 283.6 467.1 285.4 462.7 284.5C455.9 283.2 460 270 460 270L474.5 268.6Z" fill="#F8B68F"/>
<path d="M478 276.7C478.1 275.9 479.1 274.2 479.7 273.7C483.6 270.4 480.1 267.9 478.9 267.1C477.5 266.2 477.8 263.8 476.1 262.4C473.4 260.3 470.8 262.5 469.1 262.2C467.4 261.9 466.3 259.6 463.8 260.8C461.3 262 461.6 264 460.8 264.8C460 265.6 458.5 263.3 456.1 266C452.4 270 459.7 271.7 459.7 271.7C459.7 271.7 463.7 273.3 468.9 271.3C469.6 271 470.5 271.2 470.9 271.8C472.2 273.5 472.2 282.5 472.2 282.5L474 281C473.9 281 477.7 280.3 478 276.7Z" fill="#212B53"/>
<path d="M473.922 277.675C474.277 276.806 473.861 275.814 472.993 275.458C472.124 275.102 471.131 275.518 470.775 276.387C470.419 277.256 470.835 278.249 471.704 278.604C472.573 278.96 473.566 278.544 473.922 277.675Z" fill="#F8B68F"/>
<path d="M464.6 430.8C464.6 430.8 462.9 433.2 454.8 435.2C453 435.7 451.1 436 451.1 438.9C454.9 438.9 459.1 438.9 459.1 438.9L467.2 437.5V438.9H471.6C471.6 438.9 472.8 431.7 470.3 430.8C467.9 430.8 464.6 430.8 464.6 430.8Z" fill="#212B53"/>
<path d="M464.2 425.7L464.6 430.9C466.2 432 468.3 432.1 470 431.1L470.3 430.9V425.7H464.2Z" fill="#F8B68F"/>
<path d="M487.2 430.8C487.2 430.8 485.5 433.2 477.4 435.2C475.6 435.7 473.7 436 473.7 438.9C477.5 438.9 481.7 438.9 481.7 438.9L489.8 437.5V438.9H494.2C494.2 438.9 495.4 431.7 492.9 430.8C490.5 430.8 487.2 430.8 487.2 430.8Z" fill="#212B53"/>
<path d="M486.8 425.7L487.2 430.9C488.8 432 490.9 432.1 492.6 431.1L492.9 430.9V425.7H486.8Z" fill="#F8B68F"/>
<path d="M488 298C488 298 497.1 319 485.5 329.7C473.9 340.4 458.2 338.6 458.2 338.6V332.6C458.2 332.6 472.4 331.4 477 321.9C481.6 312.4 475.2 304.2 475.2 304.2" fill="#F04637"/>
<path d="M459.1 337.7L451.8 337.9C448.9 337.7 446.9 333.3 446.4 330.1C446.3 329.6 446.8 329.2 447.3 329.4C449.8 330.3 456.1 332.5 457.7 333.5L459.1 337.7Z" fill="#F8B68F"/>
<path d="M457.7 344C448.7 369.5 462.8 426.1 462.8 426.1H470.9C470.9 426.1 467.1 345.9 477.6 344C461.5 344 464.6 344 457.7 344Z" fill="#212B53"/>
<path d="M478.6 315.4C478.5 317.4 478 319.5 477 321.7C472.4 331.2 457.5 332.5 457.5 332.5V338.6C457.5 338.6 474 340.3 485.6 329.6C489.8 325.7 491.3 320.5 491.5 315.4H478.6Z" fill="#FF7B7C"/>
<path d="M478.5 316.4C478.8 316.3 479.1 316.1 479.5 316C480 309 475.9 303.7 475.9 303.6L475.2 304.2C475.2 304.2 479.3 309.5 478.5 316.4Z" fill="#F2493F"/>
<path d="M440 279.7C440 279.7 441.7 279.2 441.9 276.1C442.2 273 443.6 274 443.6 274C443.6 274 442.8 286 440.9 286.5C439.1 287 440 279.7 440 279.7Z" fill="#F8B68F"/>
<path d="M466.7 344C464.2 375.3 484.2 426.1 484.2 426.1H493.8C493.8 426.1 487.3 393.6 487.2 363.2C487.2 356.6 487.4 350.1 488.1 344.1C481.4 344 472.7 344 466.7 344Z" fill="#043C5E"/>
<defs>
<linearGradient id="paint0_linear" x1="548.21" y1="94.2669" x2="393.663" y2="94.2669" gradientUnits="userSpaceOnUse">
<stop stop-color="#E0F0EB"/>
<stop offset="1" stop-color="#C0E4EF"/>
</linearGradient>
<linearGradient id="paint1_linear" x1="295.01" y1="37.3667" x2="57.231" y2="37.3667" gradientUnits="userSpaceOnUse">
<stop stop-color="#E0F0EB"/>
<stop offset="1" stop-color="#C0E4EF"/>
</linearGradient>
<linearGradient id="paint2_linear" x1="38.4978" y1="238.024" x2="6.0282" y2="238.024" gradientUnits="userSpaceOnUse">
<stop offset="6.3e-07" stop-color="#F1F8F8"/>
<stop offset="1" stop-color="#C0E4EF"/>
</linearGradient>
<linearGradient id="paint3_linear" x1="38.4978" y1="247.845" x2="12.3135" y2="247.845" gradientUnits="userSpaceOnUse">
<stop offset="6.3e-07" stop-color="#F1F8F8"/>
<stop offset="1" stop-color="#C0E4EF"/>
</linearGradient>
<linearGradient id="paint4_linear" x1="378.362" y1="22.6052" x2="338.31" y2="25.3634" gradientUnits="userSpaceOnUse">
<stop offset="6.3e-07" stop-color="#F1F8F8"/>
<stop offset="1" stop-color="#C0E4EF"/>
</linearGradient>
<linearGradient id="paint5_linear" x1="386.617" y1="23.1362" x2="338.642" y2="26.44" gradientUnits="userSpaceOnUse">
<stop offset="6.3e-07" stop-color="#F1F8F8"/>
<stop offset="1" stop-color="#C0E4EF"/>
</linearGradient>
</defs>
</svg>
