<?xml version="1.0" encoding="UTF-8" standalone="no"?>
<!-- Created with Inkscape (http://www.inkscape.org/) -->

<svg
   xmlns:dc="http://purl.org/dc/elements/1.1/"
   xmlns:cc="http://creativecommons.org/ns#"
   xmlns:rdf="http://www.w3.org/1999/02/22-rdf-syntax-ns#"
   xmlns:svg="http://www.w3.org/2000/svg"
   xmlns="http://www.w3.org/2000/svg"
   xmlns:sodipodi="http://sodipodi.sourceforge.net/DTD/sodipodi-0.dtd"
   xmlns:inkscape="http://www.inkscape.org/namespaces/inkscape"
   width="81.882904mm"
   height="67.109634mm"
   viewBox="0 0 81.882904 67.109634"
   version="1.1"
   id="svg4526"
   inkscape:version="0.91 r13725"
   sodipodi:docname="1.svg">
  <defs
     id="defs4520" />
  <sodipodi:namedview
     id="base"
     pagecolor="#ffffff"
     bordercolor="#666666"
     borderopacity="1.0"
     inkscape:pageopacity="0.0"
     inkscape:pageshadow="2"
     inkscape:zoom="0.98994949"
     inkscape:cx="522.01749"
     inkscape:cy="168.3421"
     inkscape:document-units="mm"
     inkscape:current-layer="layer1"
     showgrid="false"
     inkscape:window-width="1440"
     inkscape:window-height="805"
     inkscape:window-x="0"
     inkscape:window-y="1"
     inkscape:window-maximized="1"
     fit-margin-top="0"
     fit-margin-left="0"
     fit-margin-right="0"
     fit-margin-bottom="0" />
  <metadata
     id="metadata4523">
    <rdf:RDF>
      <cc:Work
         rdf:about="">
        <dc:format>image/svg+xml</dc:format>
        <dc:type
           rdf:resource="http://purl.org/dc/dcmitype/StillImage" />
        <dc:title></dc:title>
      </cc:Work>
    </rdf:RDF>
  </metadata>
  <g
     inkscape:label="Layer 1"
     inkscape:groupmode="layer"
     id="layer1"
     transform="translate(-17.59296,-159.0942)">
    <path
       sodipodi:nodetypes="ccscsccsccsssccsccscscccsscc"
       inkscape:connector-curvature="0"
       id="path4561"
       d="m 62.08986,200.00991 c -1.6969,-1.71212 -2.19719,-2.44525 -2.10647,-3.08681 0.16891,-1.19459 1.37737,-1.24915 2.71615,-0.12264 l 1.10699,0.93147 0,-5.3341 c 0,-4.61296 0.078,-5.36404 0.57711,-5.55556 0.31742,-0.12181 0.83335,-0.0602 1.14653,0.1368 0.46783,0.29435 0.60088,1.28517 0.7458,5.55402 l 0.17639,5.19574 0.85524,-0.91176 c 1.0524,-1.12193 2.35658,-1.20168 2.68585,-0.16424 0.19081,0.60119 -0.2343,1.22272 -2.17162,3.175 -1.32489,1.33512 -2.65585,2.42749 -2.9577,2.42749 -0.30185,0 -1.55027,-1.01044 -2.77427,-2.24541 z m -8.24931,-0.60507 c -0.54346,-0.31654 -0.61736,-0.97764 -0.61736,-5.52333 l 0,-5.16375 -0.98944,0.94794 c -0.54419,0.52137 -1.23913,0.94795 -1.5443,0.94795 -0.80129,0 -1.44015,-0.91405 -1.18992,-1.70247 0.32066,-1.01029 4.27343,-4.64753 5.05071,-4.64753 0.37171,0 1.73687,1.10108 3.04459,2.45565 2.07547,2.14981 2.32278,2.54524 1.98575,3.175 -0.51854,0.9689 -1.4727,0.90626 -2.47683,-0.1626 -0.4557,-0.48506 -0.95962,-0.88194 -1.11983,-0.88194 -0.1602,0 -0.29128,2.36427 -0.29128,5.25392 0,4.46546 -0.0837,5.28606 -0.55802,5.46806 -0.66707,0.25598 -0.53985,0.27239 -1.29407,-0.1669 z"
       style="fill:#a04a24;stroke-width:0.35277775" />
    <path
       inkscape:connector-curvature="0"
       id="path4559"
       d="m 23.80771,225.21021 c -2.32789,-1.35957 -4.73257,-3.41815 -5.54046,-4.74305 -0.59203,-0.97091 -0.67213,-1.82566 -0.67329,-7.18521 l -10e-4,-6.0832 1.46884,-1.06402 c 3.71317,-2.68981 8.31219,-2.78121 12.55408,-0.2495 l 1.85208,1.10539 0,6.11659 c 0,4.66951 -0.12172,6.35198 -0.5145,7.11154 -0.69274,1.3396 -3.55585,3.86957 -5.69822,5.03519 l -1.74587,0.9499 z m 6.5768,-3.93065 2.04242,-1.96616 -0.097,-5.96033 -0.097,-5.96033 -2.09173,-1.06935 c -1.7517,-0.89552 -2.50125,-1.06934 -4.61105,-1.06934 -2.10971,0 -2.85943,0.17385 -4.61105,1.06925 l -2.09173,1.06926 -0.10112,5.28074 c -0.0556,2.90441 -0.0136,5.63502 0.0933,6.06803 0.29967,1.2135 2.2609,3.25449 4.55368,4.73886 l 2.07641,1.34428 1.44623,-0.78937 c 0.79543,-0.43416 2.36533,-1.67416 3.48866,-2.75554 z m -7.16549,0.46065 c -1.04636,-0.73102 -2.2685,-1.87227 -2.71587,-2.53612 -0.76141,-1.12987 -0.80713,-1.50147 -0.71542,-5.81464 l 0.098,-4.60763 1.91534,-0.97013 c 2.95801,-1.49827 5.84926,-1.31765 8.57979,0.53598 l 0.97014,0.65859 -0.002,4.65028 c -0.003,5.6126 -0.34969,6.32225 -4.30679,8.81055 -1.33749,0.84104 -1.66871,0.77805 -3.82284,-0.72688 z m 2.64842,-3.63481 c -0.11185,-0.18099 0.1699,-0.47098 0.62611,-0.64443 2.01895,-0.7676 2.19662,-2.59384 0.36333,-3.7347 -1.39621,-0.86887 -1.48326,-2.19393 -0.13163,-2.00362 0.83138,0.11706 1.56825,-0.52498 1.23024,-1.0719 -0.0957,-0.15478 -0.55355,-0.28143 -1.01753,-0.28143 -0.46398,0 -1.00541,-0.27781 -1.20317,-0.61736 -0.19777,-0.33955 -0.36441,-0.42105 -0.37031,-0.18112 -0.006,0.23993 -0.56635,0.66839 -1.24545,0.95214 -1.00404,0.41951 -1.23472,0.70486 -1.23472,1.52732 0,0.71251 0.3649,1.33449 1.23472,2.10457 1.75265,1.55167 1.55935,2.58589 -0.34779,1.86079 -0.84877,-0.3227 -0.92564,-0.28371 -0.82336,0.4176 0.078,0.53459 0.46602,0.86457 1.25625,1.06825 0.62889,0.16209 1.12602,0.4096 1.10475,0.55002 -0.0881,0.58154 0.0663,0.81288 0.4034,0.60452 0.1972,-0.12187 0.26702,-0.36967 0.15516,-0.55065 z m -0.0165,-2.22424 c -0.29888,-0.77887 0.0988,-1.1765 0.63762,-0.63762 0.31817,0.31817 0.31953,0.51538 0.006,0.82922 -0.31384,0.31384 -0.46684,0.26827 -0.64331,-0.1916 z m -1.3203,-3.27758 c -0.40592,-0.40591 -0.2569,-0.82314 0.29398,-0.82314 0.29105,0 0.52917,0.23812 0.52917,0.52916 0,0.55089 -0.41723,0.6999 -0.82315,0.29398 z m 14.31368,6.23432 c -1.69755,-1.03501 -2.55154,-2.66196 -2.5531,-4.86393 -0.002,-2.43273 0.73582,-4.12481 2.18231,-5.00672 3.33713,-2.03458 7.35242,0.66479 7.33307,4.92985 -0.0198,4.37261 -3.65876,6.95498 -6.96228,4.9408 z m 3.45166,-2.38316 c 0.64034,-0.81139 0.74131,-1.30982 0.61703,-3.04602 -0.14758,-2.06158 -0.76343,-3.0394 -1.91429,-3.0394 -1.07554,0 -1.8866,1.51146 -1.8866,3.51581 0,3.28466 1.60028,4.5762 3.18386,2.56961 z m 4.88976,2.70716 c -0.19091,-0.11685 -0.29042,-2.4413 -0.23409,-5.46805 l 0.098,-5.2648 1.94028,-0.11029 c 2.65909,-0.15115 4.0279,0.15937 5.25535,1.19219 1.25626,1.05708 1.67389,2.63497 1.07811,4.07331 -0.55488,1.33959 -1.98281,2.07673 -4.02289,2.07673 l -1.60501,0 0,1.88965 c 0,1.88429 -0.003,1.88954 -1.08882,1.85208 -0.59886,-0.0207 -1.23826,-0.12903 -1.4209,-0.24082 z m 5.32814,-6.14216 c 0.24071,-0.29005 0.34025,-0.90353 0.22264,-1.37216 -0.16409,-0.65378 -0.49822,-0.8809 -1.46129,-0.99333 -0.68671,-0.0802 -1.32309,-0.0712 -1.41417,0.0199 -0.0911,0.0911 -0.1656,0.77413 -0.1656,1.5179 0,1.30098 0.0452,1.35231 1.19152,1.35231 0.65534,0 1.38744,-0.23606 1.6269,-0.52458 z m 6.53019,6.04656 c -1.27457,-0.58613 -2.18646,-1.56553 -2.34942,-2.52336 -0.0986,-0.57947 0.10063,-0.72405 1.11469,-0.80905 1.00322,-0.0841 1.30087,0.0482 1.5875,0.70556 0.27133,0.62224 0.63787,0.80904 1.5875,0.80904 1.05363,0 1.23473,-0.11914 1.23473,-0.8123 0,-0.64888 -0.46132,-1.03923 -2.29306,-1.94028 -2.50457,-1.23202 -3.36141,-2.37909 -2.96297,-3.96661 0.37026,-1.47522 2.08513,-2.34172 4.30879,-2.17716 2.00102,0.14808 3.28452,1.04812 3.75699,2.63455 0.21383,0.71795 0.11741,0.79375 -1.00968,0.79375 -0.88503,0 -1.35549,-0.20444 -1.62369,-0.70556 -0.44222,-0.8263 -1.83951,-0.93541 -2.45662,-0.19184 -0.61254,0.73807 -0.2553,1.10179 2.13638,2.17511 3.0769,1.38083 3.95864,3.37853 2.32796,5.27431 -0.98478,1.14487 -3.66671,1.51212 -5.3591,0.73384 z m 7.35344,-0.0698 c -0.078,-0.20316 -0.0975,-2.66396 -0.0434,-5.46844 l 0.0983,-5.09905 1.23472,0 1.23472,0 0,2.2055 c 0,1.21303 0.0794,2.20191 0.17639,2.19752 0.097,-0.004 0.8521,-1.03655 1.67797,-2.2937 1.43226,-2.1802 1.56661,-2.28571 2.91041,-2.28571 0.77487,0 1.40884,0.17081 1.40884,0.37957 0,0.20877 -0.71437,1.30796 -1.5875,2.44265 -0.87312,1.13469 -1.5875,2.15729 -1.5875,2.27245 0,0.11516 0.78595,1.47659 1.74656,3.02541 0.96061,1.54882 1.67499,2.82926 1.5875,2.84543 -0.0875,0.0162 -0.75437,0.0456 -1.48197,0.0654 -1.23361,0.0335 -1.39437,-0.0867 -2.38125,-1.7815 -1.50422,-2.58316 -2.07393,-2.39757 -2.37271,0.77295 -0.0852,0.90417 -0.23869,1.03033 -1.28803,1.05872 -0.65521,0.0178 -1.25508,-0.13399 -1.33304,-0.33715 z m 10.06879,0.16536 c -0.19091,-0.11685 -0.29043,-2.4413 -0.2341,-5.46805 l 0.098,-5.2648 1.23472,0 1.23472,0 0.0969,5.50606 0.0969,5.50606 -1.09753,-0.038 c -0.60364,-0.0209 -1.24695,-0.12947 -1.42959,-0.24126 z m 4.42059,0.0563 c -0.0808,-0.0808 -0.14699,-2.59074 -0.14699,-5.57755 l 0,-5.43055 1.28307,0.10948 c 1.21477,0.10367 1.37909,0.27851 3.0868,3.2845 l 1.80374,3.175 0.1017,-3.28369 0.10171,-3.28368 1.3094,0.10868 1.30941,0.10869 0,5.43418 0,5.43419 -1.20965,0.0348 c -1.29755,0.0373 -1.83929,-0.58536 -3.91748,-4.50279 -0.47788,-0.90083 -0.99803,-1.63786 -1.15588,-1.63786 -0.15785,0 -0.25395,1.37429 -0.21355,3.05398 l 0.0734,3.05399 -1.13937,0.0328 c -0.62665,0.0181 -1.20551,-0.0333 -1.28635,-0.11417 z m 12.33369,-0.16401 c -1.22829,-0.55636 -2.25013,-1.81252 -2.25013,-2.76611 0,-0.48145 0.28671,-0.62706 1.23473,-0.62706 0.67909,0 1.23472,0.14741 1.23472,0.32758 0,1.21161 2.36219,1.88652 3.175,0.90714 0.61445,-0.74036 -0.0548,-1.46991 -1.83882,-2.0044 -3.69613,-1.10739 -4.65895,-4.57364 -1.69602,-6.10583 2.61573,-1.35265 6.35706,0.0849 6.35706,2.4426 0,0.83908 -2.16449,0.72539 -2.91676,-0.1532 -0.67987,-0.79404 -1.67113,-0.91544 -2.30435,-0.28222 -0.72587,0.72587 -0.49046,0.98717 1.82548,2.02626 3.38615,1.51926 4.3133,3.49975 2.58112,5.51354 -0.99277,1.15417 -3.66046,1.51057 -5.40203,0.7217 z M 36.78677,181.07806 c 2.1611,-2.39208 3.13762,-4.896 2.96523,-7.60324 -0.16182,-2.54134 0.24004,-2.91227 1.41204,-1.30337 0.65235,0.89553 0.76162,0.92729 1.61639,0.46984 0.50421,-0.26985 0.99582,-0.41156 1.09246,-0.31491 0.36115,0.36115 -0.92744,3.81352 -2.03003,5.43883 -1.33337,1.96551 -3.04728,3.41153 -5.00841,4.2256 l -1.39573,0.57938 z M 25.51269,178.1231 c -1.44512,-0.62945 -2.90155,-2.42504 -3.18273,-3.92389 -0.7025,-3.74463 1.99277,-6.85888 5.94298,-6.86682 1.03307,-0.002 1.66696,0.98205 1.66696,2.58796 0,0.69418 -0.15171,0.76564 -1.37728,0.64877 -1.69459,-0.16161 -2.85605,0.81673 -2.85605,2.40575 0,1.64537 1.17077,2.58829 2.96293,2.38629 l 1.46936,-0.16562 -0.14128,1.27092 c -0.0777,0.699 -0.30067,1.46935 -0.49546,1.71188 -0.45944,0.57206 -2.61788,0.54217 -3.98943,-0.0552 z m 6.27929,0.26536 c -0.65951,-0.14208 -0.79375,-0.40549 -0.79375,-1.55757 l 0,-1.38657 1.91946,0 c 2.37134,0 2.80169,-0.54026 1.01635,-1.27593 -2.69719,-1.11142 -3.66463,-3.05307 -2.55463,-5.12713 0.50015,-0.93454 2.41118,-1.71083 4.21161,-1.71083 1.31022,0 1.48665,0.11059 1.9516,1.22339 0.77967,1.866 0.68685,2.06807 -0.855,1.86126 -1.31771,-0.17674 -2.54134,0.18099 -2.10649,0.61583 0.11609,0.11609 0.90524,0.56129 1.75367,0.98932 3.92633,1.98085 2.68518,6.23417 -1.88235,6.45072 -1.02669,0.0487 -2.2239,0.0116 -2.66047,-0.0825 z m 12.37278,-1.94498 c 1.03121,-2.00159 1.11955,-2.4408 1.10318,-5.48451 l -0.0178,-3.30867 1.56145,0.10464 c 1.47261,0.0987 1.59406,0.1883 2.13446,1.57468 0.31515,0.80851 0.67335,1.57031 0.79598,1.69288 0.12264,0.12257 0.51118,-0.57863 0.86344,-1.55822 0.63386,-1.76269 0.65606,-1.78108 2.15155,-1.78108 1.28167,0 1.53682,0.12052 1.68054,0.79375 0.29232,1.36935 1.253,9.55651 1.13518,9.67433 -0.0617,0.0617 -0.85374,0.21386 -1.76004,0.33808 l -1.64781,0.22586 -0.0248,-1.72365 c -0.0452,-3.14223 -0.46179,-3.35927 -1.39173,-0.72511 -0.45837,1.29839 -0.93593,2.23988 -1.06124,2.0922 -0.12532,-0.14768 -0.51308,-1.06226 -0.86171,-2.0324 -0.93698,-2.60739 -1.15619,-2.61326 -1.43194,-0.0384 l -0.24967,2.33143 -2.05002,0 -2.05001,0 z m 15.58486,1.50907 c -2.2777,-1.05123 -3.10876,-2.20465 -3.27225,-4.54154 -0.17624,-2.51908 0.75069,-4.10744 3.08527,-5.28683 1.90129,-0.96051 3.58452,-0.99762 5.51355,-0.12156 2.11716,0.9615 3.1401,2.5813 3.1401,4.97225 0,2.39095 -1.02294,4.01075 -3.1401,4.97225 -1.83191,0.83196 -3.53197,0.83369 -5.32657,0.005 z m 4.38412,-3.43775 c 0.96018,-1.22067 0.9231,-2.08561 -0.13475,-3.14346 -1.61634,-1.61635 -4.07298,-0.64917 -4.07298,1.60353 0,2.30959 2.79709,3.33326 4.20773,1.53993 z m 5.67005,-1.36354 0,-5.46806 1.55414,0 c 1.54002,0 1.56632,0.0208 2.89552,2.29306 0.73776,1.26118 1.46714,2.29306 1.62086,2.29306 0.15371,0 0.27948,-1.01204 0.27948,-2.24896 0,-2.23661 0.006,-2.25017 1.10243,-2.46945 2.17342,-0.43468 2.07257,-0.69003 2.07257,5.24757 l 0,5.46806 -1.6757,-0.007 -1.67569,-0.007 -1.41111,-2.37449 -1.41111,-2.37449 -0.10347,2.3441 c -0.1104,2.50117 -0.33425,2.75349 -2.45417,2.76636 -0.78922,0.005 -0.79375,-0.0264 -0.79375,-5.46324 z m 20.72569,5.22259 c -1.15315,-0.18326 -1.18431,-0.42116 -0.28586,-2.18227 l 0.68427,-1.34129 -1.60744,-3.42472 c -0.8841,-1.8836 -1.54921,-3.48135 -1.47803,-3.55055 0.0712,-0.0692 0.85689,-0.23408 1.74602,-0.3664 l 1.6166,-0.24058 0.71101,1.87123 0.71101,1.87122 0.61665,-1.85657 0.61666,-1.85657 1.64184,0.23813 c 0.90302,0.13097 1.66206,0.25747 1.68677,0.28112 0.0247,0.0237 -0.87436,2.42424 -1.9979,5.33466 -2.20285,5.70623 -2.13024,5.62489 -4.6616,5.22259 z m -9.4368,-5.39898 0,-5.29167 2.95451,0 2.95451,0 0.22049,1.10243 c 0.33963,1.69814 0.32241,1.7198 -1.36701,1.7198 -1.17593,0 -1.5875,0.13719 -1.5875,0.52916 0,0.35278 0.35277,0.52917 1.05833,0.52917 0.97044,0 1.05833,0.1006 1.05833,1.21129 0,1.05816 -0.12226,1.2254 -0.96712,1.32292 -0.5833,0.0673 -1.01359,0.35664 -1.0842,0.72898 -0.0992,0.52309 0.15987,0.61737 1.69645,0.61737 1.71311,0 1.8009,0.0439 1.58538,0.79375 -0.12549,0.43656 -0.30563,1.07156 -0.40033,1.41111 -0.14656,0.52554 -0.6146,0.61736 -3.14701,0.61736 l -2.97483,0 z m -39.43078,-1.1993 c -0.24352,-0.53446 -0.81547,-0.94529 -1.5365,-1.10365 l -1.14858,-0.25227 0.94959,-0.49755 c 0.96622,-0.50625 1.32651,-1.96432 0.59682,-2.41528 -0.19402,-0.11992 -0.35277,-0.5861 -0.35277,-1.03596 0,-0.44986 -0.24022,-1.0173 -0.53383,-1.26097 -0.2936,-0.24366 -0.49204,-0.69395 -0.44097,-1.00063 0.0558,-0.3348 -0.37562,-0.78255 -1.0796,-1.12059 -1.03939,-0.4991 -1.80751,-1.24021 -1.81944,-1.75547 -0.002,-0.097 0.30221,-0.67871 0.67657,-1.29266 0.67464,-1.10641 0.69375,-1.1124 2.16364,-0.6784 1.69137,0.49941 2.11457,0.96458 3.5584,3.91134 0.91554,1.86857 1.0124,2.36477 0.8264,4.23334 -0.15926,1.59987 -0.08,2.28893 0.32451,2.82222 0.72543,0.95632 0.71344,1.72277 -0.0225,1.44035 -0.3191,-0.12245 -0.84874,0.0204 -1.17699,0.31746 -0.54225,0.49073 -0.63226,0.46228 -0.98472,-0.31128 z m -2.53003,-10.03464 c 0.92039,-0.74528 0.73931,-1.81884 -0.30678,-1.81884 -0.87239,0 -1.97079,1.23998 -1.7071,1.92714 0.27823,0.72505 1.03499,0.68435 2.01388,-0.1083 z"
       style="fill:#3a1958;stroke-width:0.35277775"
       sodipodi:nodetypes="cccccccscccccccccssccccccccccccccccscccscccscccscccccccccccccsscscccsscssscccsccscscccccccssccccccssscccsccscccccccscssscssccccccccccccccscccsccccccccccccsccccccssscccscssscscccccccscccscscccccccscscsscccccccccccsccscsccccccccccccccsscccccscccscsscscccccccccccccccccccccccccccccssssccsccscccccccsccccsccccccccssss" />
  </g>
</svg>
