<?xml version="1.0" encoding="UTF-8" standalone="no"?>
<!-- Created with Inkscape (http://www.inkscape.org/) -->

<svg
   xmlns:dc="http://purl.org/dc/elements/1.1/"
   xmlns:cc="http://creativecommons.org/ns#"
   xmlns:rdf="http://www.w3.org/1999/02/22-rdf-syntax-ns#"
   xmlns:svg="http://www.w3.org/2000/svg"
   xmlns="http://www.w3.org/2000/svg"
   xmlns:sodipodi="http://sodipodi.sourceforge.net/DTD/sodipodi-0.dtd"
   xmlns:inkscape="http://www.inkscape.org/namespaces/inkscape"
   width="59.592739mm"
   height="59.592648mm"
   viewBox="0 0 59.592739 59.592648"
   version="1.1"
   id="svg4618"
   inkscape:version="0.91 r13725"
   sodipodi:docname="3.svg">
  <defs
     id="defs4612" />
  <sodipodi:namedview
     id="base"
     pagecolor="#ffffff"
     bordercolor="#666666"
     borderopacity="1.0"
     inkscape:pageopacity="0.0"
     inkscape:pageshadow="2"
     inkscape:zoom="0.49497475"
     inkscape:cx="-368.45338"
     inkscape:cy="108.58368"
     inkscape:document-units="mm"
     inkscape:current-layer="layer1"
     showgrid="false"
     inkscape:window-width="1440"
     inkscape:window-height="805"
     inkscape:window-x="0"
     inkscape:window-y="1"
     inkscape:window-maximized="1"
     fit-margin-top="0"
     fit-margin-left="0"
     fit-margin-right="0"
     fit-margin-bottom="0" />
  <metadata
     id="metadata4615">
    <rdf:RDF>
      <cc:Work
         rdf:about="">
        <dc:format>image/svg+xml</dc:format>
        <dc:type
           rdf:resource="http://purl.org/dc/dcmitype/StillImage" />
        <dc:title></dc:title>
      </cc:Work>
    </rdf:RDF>
  </metadata>
  <g
     inkscape:label="Layer 1"
     inkscape:groupmode="layer"
     id="layer1"
     transform="translate(-59.037496,-139.41522)">
    <g
       id="g4631"
       transform="translate(-76.706354,-0.80180858)">
      <path
         style="fill:#9f4a24;stroke-width:0.35277775"
         d="m 166.76752,158.68525 c -3.61706,-4.50273 -5.13065,-6.14168 -5.5303,-5.98832 -0.30263,0.11613 -2.51598,1.32414 -4.91854,2.68447 -5.88129,3.32996 -5.94546,3.35088 -7.01083,2.28551 -0.4752,-0.4752 -0.864,-1.04565 -0.864,-1.26767 0,-0.81522 2.19338,-2.34691 7.73222,-5.39962 4.20353,-2.31675 5.88336,-3.07201 6.49262,-2.91909 0.67564,0.16957 4.54748,4.7496 9.94044,11.7586 0.26857,0.34906 1.74214,-0.84613 6.17361,-5.00731 4.36067,-4.09471 6.04649,-5.46625 6.72041,-5.46756 1.16197,-0.002 1.74625,0.60321 1.74625,1.8096 0,0.79563 -1.18397,2.08159 -6.75582,7.33778 -5.46915,5.1593 -6.94535,6.37308 -7.75092,6.37308 -0.86493,0 -1.64651,-0.81092 -5.97514,-6.19947 z"
         id="path4635"
         inkscape:connector-curvature="0"
         sodipodi:nodetypes="cscsscccccsssc" />
      <path
         style="fill:#391957;stroke-width:0.35277775"
         d="m 136.29822,199.25536 c -0.49489,-0.49489 -0.55437,-3.63392 -0.55437,-29.25536 0,-25.62144 0.0595,-28.76047 0.55437,-29.25535 0.63207,-0.63208 1.15543,-0.68923 1.91507,-0.20913 0.46177,0.29184 0.5412,3.88509 0.62362,28.21057 l 0.0945,27.87613 27.87613,0.0944 c 24.32547,0.0824 27.91872,0.16185 28.21056,0.62362 0.4801,0.75964 0.42295,1.283 -0.20912,1.91508 -0.49489,0.49488 -3.63392,0.55436 -29.25536,0.55436 -25.62144,0 -28.76047,-0.0595 -29.25535,-0.55436 z m 12.92968,-7.75592 -0.64231,-1.04526 -0.14174,-11.50154 c -0.0936,-7.59506 0.13399,-12.248 0.36519,-12.68 0.48058,-0.89797 2.48478,-0.92068 3.2843,-0.0372 0.51894,0.57342 0.58384,1.96563 0.58384,12.52361 0,11.4081 -0.0279,11.90641 -0.70555,12.58403 -0.84759,0.84758 -1.68847,0.89551 -2.74373,0.15638 z m 11.59374,-0.12581 c -0.72204,-0.72204 -0.73612,-1.00906 -0.73612,-14.99843 0,-15.63726 -0.0361,-15.37103 2.08718,-15.37103 2.16333,0 2.14615,-0.12325 2.14615,15.39438 0,15.13895 0.0112,15.04357 -1.82151,15.48494 -0.69002,0.16617 -1.13509,0.0308 -1.6757,-0.50986 z m 11.6111,-0.0306 c -0.67107,-0.67107 -0.70556,-1.17593 -0.70556,-10.32845 0,-8.13851 0.0847,-9.74384 0.54917,-10.40695 0.68565,-0.97889 2.04245,-1.01465 2.97861,-0.0785 0.67135,0.67134 0.70556,1.17592 0.70556,10.40694 0,9.23102 -0.0342,9.7356 -0.70556,10.40695 -0.38806,0.38805 -1.02306,0.70555 -1.41111,0.70555 -0.38806,0 -1.02306,-0.3175 -1.41111,-0.70555 z m 11.64166,0 c -0.68143,-0.68144 -0.70555,-1.17593 -0.70555,-14.46389 0,-13.28797 0.0241,-13.78246 0.70555,-14.46389 0.84759,-0.84759 1.78296,-1.179 2.74373,-0.15639 l 0.59506,0.92715 0.18899,13.53674 c 0.18768,13.44304 -0.0239,13.93857 -0.70555,14.62028 -0.38806,0.38805 -1.02306,0.70555 -1.41112,0.70555 -0.38805,0 -1.02305,-0.3175 -1.41111,-0.70555 z"
         id="path4633"
         inkscape:connector-curvature="0"
         sodipodi:nodetypes="csccccsccsccccsscsccccssscccsccscscccscccscsc" />
    </g>
  </g>
</svg>
