<?xml version="1.0" encoding="UTF-8" standalone="no"?>
<!-- Created with Inkscape (http://www.inkscape.org/) -->

<svg
   xmlns:dc="http://purl.org/dc/elements/1.1/"
   xmlns:cc="http://creativecommons.org/ns#"
   xmlns:rdf="http://www.w3.org/1999/02/22-rdf-syntax-ns#"
   xmlns:svg="http://www.w3.org/2000/svg"
   xmlns="http://www.w3.org/2000/svg"
   xmlns:sodipodi="http://sodipodi.sourceforge.net/DTD/sodipodi-0.dtd"
   xmlns:inkscape="http://www.inkscape.org/namespaces/inkscape"
   width="61.260277mm"
   height="84.607986mm"
   viewBox="0 0 61.260277 84.607986"
   version="1.1"
   id="svg4593"
   inkscape:version="0.91 r13725"
   sodipodi:docname="2.svg">
  <defs
     id="defs4587" />
  <sodipodi:namedview
     id="base"
     pagecolor="#ffffff"
     bordercolor="#666666"
     borderopacity="1.0"
     inkscape:pageopacity="0.0"
     inkscape:pageshadow="2"
     inkscape:zoom="0.98994949"
     inkscape:cx="208.16792"
     inkscape:cy="339.64184"
     inkscape:document-units="mm"
     inkscape:current-layer="layer1"
     showgrid="false"
     inkscape:window-width="1440"
     inkscape:window-height="805"
     inkscape:window-x="0"
     inkscape:window-y="1"
     inkscape:window-maximized="1"
     fit-margin-top="0"
     fit-margin-left="0"
     fit-margin-right="0"
     fit-margin-bottom="0" />
  <metadata
     id="metadata4590">
    <rdf:RDF>
      <cc:Work
         rdf:about="">
        <dc:format>image/svg+xml</dc:format>
        <dc:type
           rdf:resource="http://purl.org/dc/dcmitype/StillImage" />
        <dc:title></dc:title>
      </cc:Work>
    </rdf:RDF>
  </metadata>
  <g
     inkscape:label="Layer 1"
     inkscape:groupmode="layer"
     id="layer1"
     transform="translate(-63.169499,-139.41328)">
    <g
       id="g4606"
       transform="translate(-69.169643,0)">
      <path
         style="fill:#a04b24;stroke-width:0.35277778"
         d="m 161.14386,188.04207 c 0,-0.59594 0.23812,-1.32165 0.52917,-1.6127 0.32721,-0.32721 0.52916,-1.19272 0.52916,-2.26785 l 0,-1.73869 2.29306,0 2.29305,0 0,2.11666 c 0,1.17593 0.15679,2.11667 0.35278,2.11667 0.19403,0 0.35278,0.55563 0.35278,1.23472 0,1.08186 -0.10919,1.23473 -0.88195,1.23473 -0.54876,0 -0.88194,-0.19991 -0.88194,-0.52917 0,-0.38218 -0.39198,-0.52917 -1.41111,-0.52917 -1.01914,0 -1.41111,0.14699 -1.41111,0.52917 0,0.32926 -0.33318,0.52917 -0.88195,0.52917 -0.74931,0 -0.88194,-0.16295 -0.88194,-1.08354 z m 3.88055,-2.79702 c 0,-1.14985 -0.12376,-1.41111 -0.6685,-1.41111 -0.5223,0 -0.69793,0.3086 -0.80307,1.41111 -0.12135,1.27245 -0.0557,1.41111 0.6685,1.41111 0.70173,0 0.80307,-0.17807 0.80307,-1.41111 z m -23.28333,0 0,-2.82222 2.64583,0 2.64584,0 0,2.05032 c 0,1.82736 -0.1055,2.12845 -0.97014,2.76879 l -0.97014,0.71846 0.11953,-2.06323 c 0.11675,-2.01525 0.0983,-2.06323 -0.79375,-2.06323 -0.88105,0 -0.91328,0.0747 -0.91328,2.11667 0,2.02259 -0.0392,2.11666 -0.88195,2.11666 -0.86724,0 -0.88194,-0.047 -0.88194,-2.82222 z m 14.22237,2.48341 c -1.56789,-0.66514 -2.00305,-2.86996 -0.84798,-4.29641 0.96689,-1.19406 3.68155,-1.19406 4.64845,0 0.84159,1.03932 0.86601,2.55871 0.057,3.54854 -0.6969,0.85268 -2.69655,1.24037 -3.85749,0.74787 z m 2.28763,-1.49563 c 0.5891,-0.5891 0.52823,-1.51989 -0.1354,-2.07066 -1.09977,-0.91272 -2.47791,0.85632 -1.54387,1.98177 0.51697,0.62291 1.11366,0.65449 1.67927,0.0889 z m 11.1441,-0.89959 c 1.04872,-2.45758 1.26407,-2.73402 2.12973,-2.73402 0.85479,0 1.07889,0.27157 1.99377,2.41616 0.5669,1.32889 1.03073,2.5592 1.03073,2.73402 0,0.53817 -1.6757,0.35097 -1.89146,-0.21129 -0.1187,-0.30934 -0.64731,-0.52917 -1.27247,-0.52917 -0.71539,0 -1.0694,0.17517 -1.0694,0.52917 0,0.35114 -0.35116,0.52916 -1.0438,0.52916 l -1.04379,0 z m 2.46036,-0.26255 c -0.11125,-0.28993 -0.3444,-0.43931 -0.51809,-0.33196 -0.4981,0.30784 -0.3683,0.8591 0.20228,0.8591 0.31471,0 0.43869,-0.20694 0.31581,-0.52714 z m 4.81054,0.87992 c 0,-2.0226 -0.0392,-2.11667 -0.88194,-2.11667 -0.64676,0 -0.88195,-0.18815 -0.88195,-0.70556 0,-0.63836 0.23519,-0.70555 2.46945,-0.70555 2.23425,0 2.46944,0.0672 2.46944,0.70555 0,0.47037 -0.23519,0.70556 -0.70555,0.70556 -0.62717,0 -0.70556,0.23518 -0.70556,2.11667 0,2.02259 -0.0392,2.11666 -0.88194,2.11666 -0.84275,0 -0.88195,-0.0941 -0.88195,-2.11666 z m 4.23333,-0.70556 c 0,-2.77519 0.0147,-2.82222 0.88195,-2.82222 0.70555,0 0.88194,0.17639 0.88194,0.88194 0,0.72906 0.16987,0.88195 0.97984,0.88195 1.34018,0 2.54794,0.91972 2.54794,1.94027 0,1.22815 -1.25884,1.94028 -3.42988,1.94028 l -1.86179,0 z m 3.35139,0.88194 c 0,-0.19402 -0.35718,-0.4035 -0.79375,-0.4655 -0.54616,-0.0776 -0.79375,0.0676 -0.79375,0.4655 0,0.39787 0.24759,0.54308 0.79375,0.46551 0.43657,-0.062 0.79375,-0.27148 0.79375,-0.46551 z m -33.71521,-0.0301 c -0.27322,-0.32921 -0.83508,-0.50453 -1.36611,-0.42626 -0.874,0.12883 -0.89821,0.0805 -0.77977,-1.55745 l 0.12224,-1.6904 1.65135,0 c 2.07773,0 3.21945,0.75063 3.21945,2.11666 0,0.6524 -0.28175,1.21567 -0.78405,1.5675 -0.99246,0.69515 -1.47982,0.69278 -2.06311,-0.0101 z m 0.90688,-1.55745 c 0,-0.28572 -0.27781,-0.573 -0.61736,-0.63839 -0.43316,-0.0834 -0.61736,0.10706 -0.61736,0.63839 0,0.53134 0.1842,0.72182 0.61736,0.6384 0.33955,-0.0654 0.61736,-0.35267 0.61736,-0.6384 z m 30.38699,-8.7032 c 0.67063,-1.87635 1.30072,-3.54323 1.40019,-3.70417 0.29726,-0.48098 1.6293,-0.34304 1.43258,0.14835 -0.0971,0.24253 -0.67904,1.90941 -1.29321,3.70416 -0.97913,2.86124 -1.21782,3.2632 -1.93778,3.2632 l -0.82111,0 z M 143.85775,175.72 c 0,-2.77519 0.0147,-2.82222 0.88194,-2.82222 0.74475,0 0.88195,0.16463 0.88195,1.05833 0,0.58208 0.12452,1.05833 0.27671,1.05833 0.1522,0 0.55805,-0.47625 0.90189,-1.05833 0.43023,-0.72832 0.901,-1.05833 1.50975,-1.05833 l 0.88457,0 -0.7628,1.35721 -0.76279,1.35721 0.74739,1.46501 0.74739,1.46501 -1.0227,0 c -0.80374,0 -1.11656,-0.22659 -1.46108,-1.05833 -0.24111,-0.58208 -0.57787,-1.05833 -0.74836,-1.05833 -0.17048,0 -0.30997,0.47625 -0.30997,1.05833 0,0.8937 -0.1372,1.05833 -0.88195,1.05833 -0.86724,0 -0.88194,-0.047 -0.88194,-2.82222 z m 6.35,2.26003 c 0,-0.30921 0.3175,-0.64522 0.70555,-0.7467 0.87506,-0.22883 0.88306,-0.12817 -0.17639,-2.21889 -1.07596,-2.1233 -1.07576,-2.11666 -0.064,-2.11666 0.57557,0 0.9782,0.33839 1.35879,1.142 l 0.54084,1.142 0.59055,-1.142 c 0.4325,-0.83637 0.83229,-1.142 1.4938,-1.142 l 0.90325,0 -1.30874,2.38125 c -0.71981,1.30969 -1.55757,2.57969 -1.86168,2.82222 -0.79975,0.63781 -2.18197,0.56102 -2.18197,-0.12122 z m 5.99722,-2.26003 0,-2.82222 2.64583,0 2.64584,0 0,2.82222 c 0,2.77519 -0.0147,2.82222 -0.88195,2.82222 -0.84275,0 -0.88194,-0.0941 -0.88194,-2.11666 0,-2.0226 -0.0392,-2.11667 -0.88195,-2.11667 -0.84274,0 -0.88194,0.0941 -0.88194,2.11667 0,2.02259 -0.0392,2.11666 -0.88195,2.11666 -0.86724,0 -0.88194,-0.047 -0.88194,-2.82222 z m 6.70278,0 c 0,-2.77519 0.0147,-2.82222 0.88194,-2.82222 0.80024,0 0.88322,0.1389 0.89571,1.4993 l 0.0138,1.49931 0.904,-1.49931 c 0.66075,-1.09587 1.13167,-1.4993 1.75012,-1.4993 0.82247,0 0.84612,0.0789 0.84612,2.82222 0,2.75656 -0.02,2.82222 -0.86064,2.82222 -0.73988,0 -0.87602,-0.18564 -0.97014,-1.32291 l -0.10949,-1.32292 -0.82253,1.32292 c -0.58276,0.93729 -1.07121,1.32291 -1.67569,1.32291 -0.83128,0 -0.85317,-0.0724 -0.85317,-2.82222 z m 8.11389,0.70556 c 0,-2.0226 -0.0392,-2.11667 -0.88195,-2.11667 -0.64676,0 -0.88194,-0.18815 -0.88194,-0.70556 0,-0.63836 0.23518,-0.70555 2.46944,-0.70555 2.23426,0 2.46945,0.0672 2.46945,0.70555 0,0.47037 -0.23519,0.70556 -0.70556,0.70556 -0.62716,0 -0.70555,0.23518 -0.70555,2.11667 0,2.02259 -0.0392,2.11666 -0.88195,2.11666 -0.84275,0 -0.88194,-0.0941 -0.88194,-2.11666 z m 4.23333,-0.70556 c 0,-2.77519 0.0147,-2.82222 0.88194,-2.82222 0.70556,0 0.88195,0.17639 0.88195,0.88194 0,0.72905 0.16986,0.88195 0.97984,0.88195 1.34018,0 2.54794,0.91972 2.54794,1.94027 0,1.22815 -1.25885,1.94028 -3.42989,1.94028 l -1.86178,0 z m 3.35139,0.88194 c 0,-0.19402 -0.35719,-0.4035 -0.79375,-0.4655 -0.54616,-0.0776 -0.79375,0.0676 -0.79375,0.4655 0,0.39787 0.24759,0.54308 0.79375,0.46551 0.43656,-0.062 0.79375,-0.27148 0.79375,-0.46551 z"
         id="path4610"
         inkscape:connector-curvature="0"
         sodipodi:nodetypes="ssscccssssssssssscssscccsccssssscsccccccsccsscscssscsccscssssssssssssssscsscscsccccsscccscscsccccsccsssscscccccscssssscsscccscscsscccssssssscscccssscccsccssssssssssssssscsscscs" />
      <path
         style="fill:#391957;stroke-width:0.35277778"
         d="m 162.43326,223.40547 c -0.51618,-0.57037 -0.58385,-1.88145 -0.58385,-11.31208 0,-6.67837 0.13656,-10.9221 0.36519,-11.34931 0.23348,-0.43625 0.73796,-0.68236 1.3987,-0.68236 0.66075,0 1.16523,0.24611 1.3987,0.68236 0.22877,0.42746 0.36519,4.68999 0.36519,11.4106 0,9.94532 -0.0471,10.77085 -0.64514,11.31208 -0.83851,0.75884 -1.57433,0.73922 -2.29879,-0.0613 z m -11.49714,-10.17359 c -0.68666,-0.48096 -0.72837,-0.8484 -0.72837,-6.41683 0,-6.37932 0.10208,-6.75333 1.84317,-6.75333 0.74509,0 1.08332,0.22831 1.34056,0.90491 0.43706,1.14954 0.45175,10.40752 0.0183,11.54751 -0.40576,1.06725 -1.51514,1.38914 -2.47369,0.71774 z m 23.96607,0.33124 c -1.2438,-0.41607 -1.41111,-1.21197 -1.41111,-6.71286 0,-3.06414 0.15888,-5.72069 0.36519,-6.10618 0.4312,-0.8057 2.16719,-0.92751 2.77533,-0.19474 0.27792,0.33486 0.37434,2.33844 0.30778,6.39562 -0.0897,5.4678 -0.14948,5.94105 -0.80247,6.35159 -0.38805,0.24397 -0.94368,0.36393 -1.23472,0.26657 z m -40.65764,-1.53522 c -1.03769,-0.6044 -0.70755,-1.86107 1.49931,-5.7072 1.16416,-2.02891 2.11666,-3.83873 2.11666,-4.02182 0,-0.18309 -1.18176,-1.00527 -2.62614,-1.82706 -1.44438,-0.82179 -2.72317,-1.79988 -2.84176,-2.17353 -0.23475,-0.7396 0.34708,-2.11713 0.89421,-2.11713 0.21336,0 0.34036,-5.66875 0.34036,-15.19264 0,-9.79803 0.12967,-15.43493 0.36519,-15.87499 0.35655,-0.66622 1.05769,-0.68237 29.62092,-0.68237 28.56324,0 29.26438,0.0161 29.62093,0.68237 0.23544,0.43993 0.36519,6.05601 0.36519,15.80757 0,12.50419 -0.0867,15.24387 -0.50061,15.81 -0.48469,0.66302 -1.18362,0.68784 -21.99195,0.78086 l -21.49135,0.0961 -0.41984,3.87092 c -0.48206,4.44469 -0.58921,4.82091 -1.51383,5.31575 -0.54568,0.29204 -1.25843,0.0476 -3.62987,-1.24513 l -2.95087,-1.60852 -2.19342,3.79297 c -2.71541,4.69561 -3.20282,5.14442 -4.66313,4.29387 z m 11.90085,-14.11491 c 0.28514,-2.40772 0.59374,-4.90763 0.68577,-5.55537 0.13258,-0.93306 0.0595,-1.1363 -0.35203,-0.97839 -1.0051,0.38569 -8.96072,6.03997 -8.876,6.30841 0.0854,0.27055 7.75987,4.78376 7.93297,4.66522 0.05,-0.0342 0.32415,-2.03216 0.60929,-4.43987 z m 43.92624,-17.07766 0,-13.22917 -26.45834,0 -26.45833,0 0,12.90156 0,12.90157 3.96875,-2.73992 c 2.18281,-1.50695 4.73876,-3.26453 5.67989,-3.90572 0.94113,-0.64121 2.07263,-1.16582 2.51445,-1.16582 1.46961,0 1.69068,0.71718 1.27237,4.12792 -0.20938,1.70721 -0.38114,3.38183 -0.38169,3.72138 -9.5e-4,0.58069 1.18295,0.61736 19.93095,0.61736 l 19.93195,0 z m -39.44056,-17.88584 c -0.29555,-0.29554 -0.42333,-2.20629 -0.42333,-6.32999 0,-5.56844 0.0417,-5.93588 0.72837,-6.41684 0.95855,-0.67139 2.06793,-0.3495 2.47369,0.71775 0.43342,1.13998 0.41873,10.39796 -0.0183,11.54751 -0.25724,0.67659 -0.59547,0.90491 -1.34056,0.90491 -0.54808,0 -1.18701,-0.1905 -1.41984,-0.42334 z m 11.58352,-0.25903 c -0.22877,-0.42746 -0.36519,-4.68998 -0.36519,-11.4106 0,-9.94531 0.0471,-10.77084 0.64514,-11.31208 0.83851,-0.75884 1.57434,-0.73922 2.2988,0.0613 0.51617,0.57037 0.58384,1.88144 0.58384,11.31208 0,6.67836 -0.13655,10.92209 -0.36519,11.3493 -0.23347,0.43626 -0.73795,0.68237 -1.3987,0.68237 -0.66074,0 -1.16522,-0.24611 -1.3987,-0.68237 z m 11.62053,-0.22254 c -0.5233,-1.37638 -0.44311,-11.18452 0.0969,-11.85476 0.68058,-0.84467 1.52163,-0.99662 2.34075,-0.42288 0.70673,0.49501 0.74606,0.82028 0.74606,6.17019 0,3.21842 -0.15708,5.94114 -0.36519,6.32999 -0.56934,1.06383 -2.38394,0.92056 -2.81854,-0.22254 z"
         id="path4608"
         inkscape:connector-curvature="0" />
    </g>
  </g>
</svg>
