<svg width="562" height="500" viewBox="0 0 562 500" fill="none" xmlns="http://www.w3.org/2000/svg">
<path d="M314.891 382.606C264.412 461.93 189.896 489.172 173.07 483.563C187.492 488.371 337.809 536.091 374.984 442.7C408.637 358.158 487.369 348.361 483.153 344.146C444.693 305.686 362.149 308.343 314.891 382.606Z" fill="white" fill-opacity="0.3"/>
<path d="M228.356 332.151C177.877 411.474 103.361 438.717 86.5347 433.108C100.957 437.915 251.274 485.636 288.449 392.244C322.102 307.703 400.833 297.906 396.618 293.691C358.158 255.231 275.614 257.888 228.356 332.151Z" fill="white" fill-opacity="0.3"/>
<path d="M141.821 279.268C91.3423 358.592 16.8262 385.834 0 380.226C14.4225 385.033 164.739 432.754 201.915 339.362C235.567 254.821 314.299 245.024 310.083 240.808C271.623 202.348 189.079 205.005 141.821 279.268Z" fill="white" fill-opacity="0.3"/>
<path d="M514.402 312.487C530.176 362.966 492.768 399.022 473.538 411.451C511.998 404.24 581.707 356.165 555.266 276.841C528.824 197.517 282.013 144.202 324.506 67.7151C349.755 22.2668 432.674 52.8824 447.097 74.5161C454.308 84.1311 489.061 112.56 499.821 114.439L490.364 34.0626C394.215 -28.4348 265.025 -1.99358 266.816 89.3488C269.22 211.94 497.125 257.201 514.402 312.487Z" fill="white" fill-opacity="0.3"/>
</svg>
