<svg width="449" height="400" viewBox="0 0 449 400" fill="none" xmlns="http://www.w3.org/2000/svg">
<path d="M251.913 306.085C211.53 369.544 151.917 391.338 138.456 386.851C149.994 390.697 270.247 428.873 299.988 354.16C326.91 286.526 389.895 278.689 386.523 275.317C355.755 244.549 289.719 246.674 251.913 306.085Z" fill="black" fill-opacity="0.3"/>
<path d="M182.684 265.721C142.301 329.18 82.6885 350.974 69.2275 346.487C80.7655 350.333 201.019 388.509 230.759 313.796C257.681 246.163 320.667 238.325 317.294 234.953C286.526 204.185 220.491 206.311 182.684 265.721Z" fill="black" fill-opacity="0.3"/>
<path d="M113.457 223.414C73.0739 286.873 13.461 308.667 0 304.18C11.538 308.026 131.791 346.202 161.532 271.489C188.454 203.856 251.439 196.019 248.067 192.646C217.299 161.878 151.263 164.004 113.457 223.414Z" fill="black" fill-opacity="0.3"/>
<path d="M411.521 249.99C424.141 290.372 394.214 319.217 378.83 329.161C409.598 323.392 465.365 284.932 444.212 221.473C423.059 158.014 225.611 115.361 259.605 54.1721C279.804 17.8134 346.139 42.3059 357.677 59.6129C363.446 67.3049 391.249 90.0479 399.856 91.5515L392.291 27.2501C315.372 -22.7478 212.02 -1.59487 213.453 71.479C215.376 169.552 397.7 205.761 411.521 249.99Z" fill="black" fill-opacity="0.3"/>
</svg>
