<svg width="3870" height="1400" viewBox="0 0 3870 1400" fill="none" xmlns="http://www.w3.org/2000/svg">
<path fill-rule="evenodd" clip-rule="evenodd" d="M0 0H3870V1400H3706.96C3760.37 1375.28 3822.78 1312.44 3791.7 1219.23C3774.92 1168.87 3695.6 1125.89 3618.39 1084.05C3522.86 1032.28 3430.55 982.267 3463.93 922.183C3499.79 857.628 3617.57 901.115 3638.06 931.844C3648.3 945.501 3697.67 985.881 3712.95 988.551L3699.52 874.383C3562.95 785.611 3379.44 823.168 3381.99 952.912C3384.1 1060.6 3508.72 1126.28 3609.31 1179.3C3671.38 1212.01 3724.3 1239.9 3733.66 1269.86C3752.63 1330.58 3717.44 1376.6 3689.62 1400H3566.39C3605.26 1348.93 3655.44 1329.66 3677.83 1321.07C3686.12 1317.88 3690.6 1316.16 3689.27 1314.83C3634.65 1260.2 3517.4 1263.97 3450.27 1369.46C3443.36 1380.32 3436.13 1390.49 3428.69 1400H3404.56C3407.59 1394.78 3410.32 1389.17 3412.71 1383.15C3449.9 1289.73 3525.84 1260.56 3554.91 1249.4C3563.21 1246.21 3567.69 1244.49 3566.36 1243.16C3511.73 1188.53 3394.48 1192.31 3327.36 1297.79C3298.36 1343.36 3263.78 1376.82 3231.29 1400H0V0ZM3204.44 1222.68C3132.74 1335.35 3026.9 1374.04 3003 1366.08C3023.49 1372.91 3237 1440.69 3289.8 1308.03C3326.99 1214.61 3402.93 1185.45 3432 1174.28C3440.3 1171.1 3444.78 1169.38 3443.45 1168.05C3388.82 1113.42 3271.57 1117.19 3204.44 1222.68Z" fill="#101010" fill-opacity="0.8"/>
</svg>
