<svg width="1920" height="700" viewBox="0 0 1920 700" fill="none" xmlns="http://www.w3.org/2000/svg">
<path fill-rule="evenodd" clip-rule="evenodd" d="M0 0H1920V700H1798.11C1850 673.432 1906.59 611.881 1876.7 522.228C1859.92 471.868 1780.6 428.889 1703.39 387.052C1607.86 335.285 1515.55 285.267 1548.93 225.183C1584.79 160.628 1702.57 204.115 1723.06 234.843C1733.3 248.501 1782.67 288.881 1797.95 291.551L1784.52 177.383C1647.95 88.6109 1464.44 126.168 1466.99 255.912C1469.1 363.602 1593.72 429.28 1694.31 482.297C1756.38 515.007 1809.3 542.897 1818.66 572.86C1836.85 631.08 1805.24 675.794 1778.09 700H1653.71C1692.24 651.175 1740.88 632.493 1762.83 624.065C1771.12 620.878 1775.6 619.158 1774.27 617.828C1719.65 563.199 1602.4 566.974 1535.27 672.457C1529.08 682.184 1522.64 691.359 1516.02 700H1491.24C1493.61 695.646 1495.77 691.033 1497.71 686.148C1534.9 592.729 1610.84 563.564 1639.91 552.398C1648.21 549.211 1652.69 547.491 1651.36 546.161C1596.73 491.532 1479.48 495.307 1412.36 600.79C1384.59 644.427 1351.7 676.968 1320.43 700H0V0ZM1289.44 525.676C1217.74 638.348 1111.9 677.043 1088 669.077C1108.49 675.905 1322 743.688 1374.8 611.033C1411.99 517.614 1487.93 488.449 1517 477.284C1525.3 474.097 1529.78 472.376 1528.45 471.046C1473.82 416.418 1356.57 420.192 1289.44 525.676Z" fill="#101010" fill-opacity="0.8"/>
</svg>
