<svg width="377" height="599" viewBox="0 0 377 599" fill="none" xmlns="http://www.w3.org/2000/svg">
<path fill-rule="evenodd" clip-rule="evenodd" d="M0 0H377V599H0V0ZM249.957 539.355C224.315 579.649 186.462 593.488 177.915 590.639C185.241 593.081 261.599 617.321 280.483 569.881C293.782 536.472 320.939 526.041 331.336 522.048C334.303 520.909 335.905 520.293 335.43 519.818C315.893 500.281 273.963 501.631 249.957 539.355ZM133.957 565.008C142.504 567.858 180.356 554.019 205.998 513.725C230.004 476.001 271.935 474.651 291.471 494.188C291.947 494.663 290.345 495.279 287.377 496.418C276.981 500.411 249.823 510.842 236.524 544.251C217.64 591.691 141.283 567.451 133.957 565.008ZM162.042 486.862C136.4 527.156 98.5474 540.995 90.0001 538.146C97.3263 540.588 173.684 564.828 192.568 517.388C205.867 483.979 233.024 473.548 243.421 469.555C246.388 468.416 247.99 467.8 247.515 467.325C227.978 447.788 186.048 449.138 162.042 486.862ZM330.546 554.007C340.314 547.694 359.316 529.378 351.303 503.736C347.955 493.02 329.029 483.046 306.834 471.348C270.858 452.388 226.291 428.9 225.536 390.387C224.626 343.987 290.251 330.556 339.093 362.303L343.897 403.132C338.431 402.178 320.777 387.737 317.114 382.852C309.788 371.863 267.667 356.311 254.841 379.398C242.903 400.885 275.914 418.773 310.08 437.286C337.692 452.248 366.058 467.619 372.061 485.629C385.493 525.923 350.082 550.344 330.546 554.007Z" fill="#101010" fill-opacity="0.8"/>
</svg>
