<?xml version="1.0" encoding="utf-8"?>
<!-- Generator: Adobe Illustrator 21.1.0, SVG Export Plug-In . SVG Version: 6.00 Build 0)  -->
<svg version="1.1" id="Layer_1" xmlns="http://www.w3.org/2000/svg" xmlns:xlink="http://www.w3.org/1999/xlink" x="0px" y="0px"
	 viewBox="0 0 200 68" style="enable-background:new 0 0 200 68;" xml:space="preserve">
<style type="text/css">
	.st0{fill:#FFFFFF;}
	.st1{fill:#44B0D2;}
</style>
<g>
	<g>
		<g>
			<path class="st0" d="M49.3,50.4c0.4,0,1,0,1.7,0c0.7,0,1.5,0,2.4-0.1c0.9-0.1,1.8-0.2,2.7-0.4c0.9-0.2,1.7-0.5,2.4-1
				c0.7-0.4,1.3-1,1.7-1.8c0.4-0.8,0.6-1.7,0.5-2.9c-0.1-1.2-0.6-2.2-1.5-3c-0.9-0.8-2.1-1.1-3.7-0.9c-1.4,0.2-2.7,0.9-4,2.1
				c-1.2,1.2-2.4,3.1-3.3,5.6c-0.4-0.1-0.8-0.2-1.3-0.4c-0.4-0.2-0.8-0.5-1.1-0.7c-0.3-0.3-0.6-0.6-0.7-1c-0.2-0.4-0.2-0.8-0.1-1.3
				c0.5-0.9,1-1.6,1.6-2.3c0.6-0.7,1.3-1.3,2.2-1.8c0.9-0.5,1.9-1,3.1-1.4c1.2-0.4,2.7-0.7,4.4-0.9c1.2-0.2,2.4-0.2,3.5-0.1
				c1.2,0.1,2.2,0.3,3.1,0.7c0.9,0.4,1.7,0.9,2.3,1.7c0.6,0.7,1,1.7,1.1,2.9c0.1,1.2,0,2.3-0.4,3.2c-0.4,0.9-0.9,1.8-1.7,2.5
				c-0.8,0.7-1.7,1.3-2.9,1.8c-1.1,0.5-2.4,0.9-3.8,1.2c1.2,0.6,2.1,1.4,2.7,2.5c0.6,1.1,0.9,2.2,0.9,3.4c0,1.2-0.2,2.5-0.8,3.7
				c-0.5,1.2-1.4,2.3-2.5,3.3c-1.1,1-2.5,1.7-4.1,2.3c-1.7,0.5-3.5,0.7-5.7,0.6c-1.1-0.1-2.2-0.3-3.2-0.6c-1.1-0.3-2-0.8-2.8-1.4
				c-0.8-0.7-1.4-1.6-1.9-2.7c-0.4-1.1-0.6-2.5-0.4-4.2c0.1-0.7,0.3-1.2,0.8-1.6c0.4-0.4,1-0.8,1.6-1c0.6-0.2,1.2-0.4,1.9-0.4
				c0.7-0.1,1.3,0,1.8,0.1c-0.4,0.8-0.8,1.7-1,2.8c-0.3,1.1-0.4,2.1-0.3,3.1c0.1,1.1,0.3,1.9,0.8,2.6c0.5,0.7,1.3,1.1,2.4,1.2
				c0.4,0.1,1,0,1.6-0.2c0.6-0.2,1.3-0.4,1.9-0.8c0.6-0.4,1.3-0.8,1.9-1.4c0.6-0.6,1.1-1.2,1.6-1.9c0.5-0.8,0.8-1.6,0.9-2.5
				c0.2-0.8,0.2-1.6,0-2.4c-0.2-0.8-0.5-1.4-0.9-2c-0.4-0.6-1-1.1-1.7-1.4c-0.5-0.3-1.1-0.5-1.7-0.5c-0.6-0.1-1.4-0.1-2.1,0.1
				L49.3,50.4z"/>
			<path class="st0" d="M83.5,63.8c-0.1,0.3-0.1,0.5,0,0.8c0.1,0.2,0.4,0.4,0.7,0.4c0.4,0,0.9-0.2,1.4-0.6c0.5-0.4,1-1,1.6-1.6
				c0.5-0.6,1.1-1.3,1.6-1.9c0.5-0.7,1.1-1.3,1.5-1.8c0.4,0.2,0.7,0.5,0.8,0.9c0.2,0.4,0.2,0.8,0,1.1c-0.5,0.7-1,1.4-1.7,2.2
				c-0.6,0.8-1.4,1.5-2.2,2.2c-0.8,0.7-1.7,1.2-2.8,1.7c-1,0.4-2.2,0.7-3.4,0.7c-0.5,0-1-0.1-1.5-0.2c-0.5-0.1-0.9-0.4-1.3-0.7
				c-0.4-0.3-0.7-0.7-0.9-1.3c-0.2-0.5-0.3-1.2-0.3-2c-0.9,1.1-1.8,2-2.8,2.9c-1,0.8-2.2,1.2-3.5,1.2c-0.7,0-1.4-0.1-2.1-0.4
				c-0.6-0.3-1.2-0.7-1.6-1.1c-0.5-0.5-0.8-1-1.1-1.7c-0.3-0.6-0.4-1.3-0.4-2c0-1.7,0.4-3.5,1.1-5.1c0.7-1.7,1.7-3.2,3-4.4
				c1.3-1.3,2.8-2.3,4.6-3.1c1.8-0.8,3.7-1.2,5.8-1.2c1.7,0,3.3,0.2,4.6,0.5c1.3,0.3,2.5,0.8,3.4,1.2L83.5,63.8z M81.5,51
				c-1.1,0-2.2,0.4-3.3,1c-1.1,0.6-2.2,1.5-3.1,2.5c-0.9,1-1.7,2.3-2.3,3.6c-0.6,1.4-1,2.8-1,4.3c0,0.5,0.1,0.9,0.3,1.2
				c0.2,0.3,0.6,0.5,1,0.5c0.7,0,1.5-0.4,2.5-1.3c1-0.9,1.8-1.9,2.6-3.1L81.5,51z"/>
			<path class="st0" d="M93.5,67.8c-1.2,0-2.1-0.2-2.7-0.7c-0.6-0.5-0.9-1.3-0.9-2.3c0-0.5,0.1-1.3,0.4-2.2c0.2-1,0.5-2,0.9-3.2
				c0.4-1.1,0.8-2.3,1.2-3.5c0.4-1.2,0.9-2.3,1.2-3.4c0.4-1,0.7-1.9,1-2.6c0.3-0.7,0.4-1.1,0.5-1.3l6.3,0.1l-5.4,15.1
				c-0.1,0.4-0.1,0.7,0,1c0.1,0.3,0.3,0.4,0.6,0.4c0.5,0.1,1.1-0.1,1.8-0.5c0.7-0.4,1.4-0.9,2-1.5c0.7-0.6,1.3-1.3,1.8-2
				c0.5-0.7,0.9-1.3,1-1.8l3.9-10.8l6.1,0.1l-5.1,14.9c-0.2,0.5-0.2,0.9,0.1,1.2c0.2,0.3,0.5,0.3,1,0c0.3-0.2,0.8-0.5,1.3-0.9
				c0.5-0.4,1-0.8,1.5-1.2c0.5-0.4,1-0.9,1.4-1.4c0.5-0.5,0.9-0.9,1.2-1.2c0.4,0.2,0.6,0.5,0.7,1c0.1,0.5,0,0.9-0.3,1.2
				c-0.6,0.7-1.2,1.4-1.9,2c-0.6,0.7-1.3,1.2-2.1,1.7c-0.7,0.5-1.5,0.9-2.3,1.3c-0.8,0.3-1.6,0.5-2.5,0.5c-0.9,0-1.6-0.1-2.1-0.4
				c-0.5-0.3-0.9-0.6-1.1-1.1c-0.2-0.4-0.3-1-0.3-1.6c0-0.6,0.1-1.3,0.3-2.1c-1.6,1.9-3.1,3.2-4.6,4C96.9,67.4,95.3,67.8,93.5,67.8z
				 M102.1,37.6c0,1.1,0.4,2.1,1.1,2.8c0.7,0.7,1.6,1.2,2.5,1.4c1,0.2,2,0.2,3-0.1c1-0.3,1.9-1,2.6-2l1.5,1.6
				c-0.4,0.9-1,1.7-1.8,2.3c-0.8,0.6-1.7,1.1-2.7,1.4c-1,0.3-2,0.5-3.1,0.5c-1.1,0-2.1-0.1-3-0.4c-1-0.3-1.8-0.7-2.6-1.3
				c-0.7-0.6-1.3-1.4-1.6-2.4L102.1,37.6z"/>
			<path class="st0" d="M138.2,54.3c-0.9,1.3-1.8,2.8-2.8,4.3c-1,1.6-2,3-3,4.3c-1,1.3-2,2.5-2.9,3.3c-0.9,0.9-1.8,1.3-2.5,1.3
				c-1.4,0-2.4-0.4-2.8-1.2c-0.5-0.8-0.4-2.1,0.2-3.9l3.5-10.4c-1.1,2-2.2,3.9-3.2,5.7c-1,1.9-2,3.5-2.9,4.9c-1,1.4-1.9,2.6-2.8,3.4
				c-0.9,0.9-1.9,1.3-2.9,1.2c-0.9,0-1.7-0.4-2.2-1c-0.6-0.6-1-1.4-1.3-2.3c-0.3-0.9-0.4-1.8-0.5-2.8c0-1,0.1-1.8,0.3-2.5l5-0.3
				c-0.2,0.3-0.4,0.8-0.6,1.4c-0.2,0.6-0.3,1.3-0.4,1.9c-0.1,0.7,0,1.2,0.1,1.7c0.1,0.5,0.4,0.8,0.9,0.8c0.4-0.1,0.9-0.4,1.4-1.1
				c0.6-0.7,1.2-1.5,1.9-2.5c0.7-1,1.4-2.1,2.1-3.3c0.7-1.2,1.4-2.4,2-3.6c0.6-1.2,1.2-2.2,1.7-3.2c0.5-1,0.9-1.8,1.3-2.3l7.5,0.1
				l-4.6,13.6c0,0.1,0.1,0,0.3-0.2c0.2-0.3,0.7-0.9,1.4-1.9c0.7-1,1.7-2.4,2.9-4.2c1.3-1.8,2.9-4.3,5.1-7.3l0.1-0.1v0.1h6.2
				l-5.1,15.2c-0.2,0.5-0.2,0.9,0.1,1.2c0.2,0.3,0.5,0.3,1,0c0.3-0.2,0.8-0.5,1.3-0.9c0.5-0.4,1-0.8,1.5-1.2c0.5-0.4,1-0.9,1.4-1.4
				c0.5-0.5,0.9-0.9,1.2-1.2c0.4,0.2,0.6,0.5,0.7,1c0.1,0.5,0,0.9-0.3,1.2c-0.6,0.7-1.3,1.4-2,2c-0.7,0.7-1.5,1.2-2.3,1.7
				c-0.8,0.5-1.7,0.9-2.5,1.3c-0.9,0.3-1.7,0.5-2.6,0.5c-0.9,0-1.6-0.1-2.1-0.4c-0.5-0.3-0.9-0.6-1.1-1.1c-0.2-0.4-0.3-1-0.3-1.6
				c0-0.6,0.1-1.3,0.3-2.1L138.2,54.3z"/>
			<path class="st0" d="M146.3,63.7c0-0.4,0.1-0.9,0.3-1.7c0.2-0.7,0.5-1.6,0.9-2.5c0.4-1,0.7-2,1.1-3c0.4-1.1,0.8-2.1,1.2-3.1
				c0.4-1,0.8-1.9,1.1-2.8c0.3-0.8,0.6-1.5,0.8-2h6.6l-3,7.3c1.1-0.8,2.3-1.2,3.5-1.4c1.3-0.2,2.4-0.1,3.4,0.2
				c0.6,0,1.4-0.1,2.2-0.5c0.8-0.3,1.7-0.8,2.5-1.4c0.9-0.6,1.7-1.3,2.4-2c0.8-0.8,1.4-1.5,1.9-2.3l0.1,0.2l0.1-0.1h6.6l-5.3,14.6
				c-0.2,0.6-0.2,1.1-0.1,1.4c0.2,0.4,0.6,0.4,1.3,0.1c0.4-0.1,0.9-0.4,1.5-0.9c0.6-0.5,1.2-1,1.8-1.5c0.6-0.5,1.1-1,1.6-1.5
				c0.5-0.5,0.8-0.8,1-1.1c0.4,0.2,0.7,0.5,0.9,0.8c0.2,0.4,0.2,0.8-0.1,1.1c-0.9,1-1.8,1.9-2.6,2.6c-0.8,0.7-1.6,1.3-2.4,1.8
				c-0.8,0.5-1.6,0.8-2.5,1.1c-0.9,0.2-1.9,0.4-3,0.4c-1.3,0-2.3-0.3-3-1c-0.7-0.6-1-1.6-0.9-2.9c0-0.3,0.1-0.9,0.3-1.6
				c0.2-0.7,0.4-1.5,0.7-2.4c0.3-0.9,0.6-1.9,1-2.9c0.4-1,0.7-2,1.1-3c-0.7,0.6-1.5,1.1-2.4,1.6c-0.9,0.5-1.7,0.8-2.4,1
				c0.7,1.1,1,2.5,0.6,4.2c-0.4,1.5-1.1,2.8-2.3,3.8c-1.2,1-2.6,1.8-4.2,2.4c-0.4,0.1-1,0.3-1.8,0.5c-0.8,0.2-1.7,0.3-2.6,0.4
				c-0.9,0.1-1.9,0.1-2.9,0.1c-1,0-1.9-0.2-2.7-0.5c-0.8-0.3-1.4-0.7-1.9-1.3C146.5,65.5,146.3,64.7,146.3,63.7z M160,58.8
				c0-0.8-0.2-1.3-0.6-1.6c-0.4-0.3-0.9-0.5-1.4-0.5c-0.5,0-1.1,0.1-1.8,0.4c-0.6,0.3-1.2,0.6-1.7,1l-0.7,2.3
				c-0.7,1.6-1,2.9-0.9,3.9c0.1,1,0.6,1.4,1.7,1.3c0.6,0,1.3-0.2,1.9-0.7c0.6-0.5,1.2-1.1,1.7-1.8c0.5-0.7,0.9-1.4,1.3-2.2
				C159.8,60.1,160,59.4,160,58.8z"/>
		</g>
	</g>
	<g>
		<g>
			<path class="st1" d="M132.3,40.9c-0.1,0.2-0.1,0.3,0,0.5c0.1,0.1,0.2,0.2,0.4,0.2c0.2,0,0.5-0.1,0.8-0.4c0.3-0.3,0.6-0.6,0.9-0.9
				c0.3-0.4,0.7-0.8,1-1.2c0.3-0.4,0.6-0.8,0.9-1.1c0.2,0.1,0.4,0.3,0.5,0.6c0.1,0.2,0.1,0.5,0,0.7c-0.3,0.4-0.6,0.9-1,1.3
				c-0.4,0.5-0.8,0.9-1.3,1.3c-0.5,0.4-1.1,0.7-1.7,1c-0.6,0.3-1.3,0.4-2.1,0.4c-0.3,0-0.6,0-0.9-0.1c-0.3-0.1-0.6-0.2-0.8-0.4
				c-0.2-0.2-0.4-0.4-0.6-0.8c-0.1-0.3-0.2-0.7-0.2-1.2c-0.5,0.7-1.1,1.2-1.7,1.7c-0.6,0.5-1.3,0.7-2.1,0.7c-0.5,0-0.9-0.1-1.3-0.2
				c-0.4-0.2-0.7-0.4-1-0.7c-0.3-0.3-0.5-0.6-0.6-1c-0.2-0.4-0.2-0.8-0.2-1.2c0-1.1,0.2-2.1,0.7-3.1c0.4-1,1.1-1.9,1.8-2.7
				c0.8-0.8,1.7-1.4,2.8-1.9c1.1-0.5,2.2-0.7,3.5-0.7c1.1,0,2,0.1,2.8,0.3c0.8,0.2,1.5,0.5,2.1,0.7L132.3,40.9z M131.1,33.2
				c-0.7,0-1.3,0.2-2,0.6c-0.7,0.4-1.3,0.9-1.9,1.5c-0.6,0.6-1,1.4-1.4,2.2c-0.4,0.8-0.6,1.7-0.6,2.6c0,0.3,0,0.5,0.2,0.7
				c0.1,0.2,0.3,0.3,0.6,0.3c0.4,0,0.9-0.3,1.5-0.8c0.6-0.5,1.1-1.2,1.6-1.9L131.1,33.2z"/>
			<path class="st1" d="M142.1,33.9c-0.4,0.7-0.7,1.4-1,2.1c-0.3,0.6-0.5,1.2-0.6,1.8c-0.2,0.6-0.3,1.1-0.4,1.6
				c-0.1,0.5-0.1,1.1-0.1,1.7c0,0.4,0.1,0.6,0.2,0.7c0.1,0.1,0.3,0.2,0.5,0.1c0.4,0,0.7-0.2,1.2-0.5c0.4-0.3,0.8-0.6,1.3-1.1
				c0.4-0.4,0.8-0.9,1.1-1.4c0.4-0.5,0.6-1,0.8-1.4c-0.5-0.3-0.8-0.6-1-1.1c-0.2-0.4-0.2-0.9-0.2-1.3c0.1-0.4,0.2-0.9,0.5-1.3
				c0.3-0.4,0.6-0.7,1.1-0.9c0.4-0.2,0.8-0.2,1.2-0.1c0.4,0.1,0.6,0.4,0.7,1c0,0.4,0,0.9-0.1,1.3c-0.1,0.4-0.2,0.9-0.4,1.5
				c1.1,0.1,2.2-0.2,3.4-0.7c0,0.2,0.1,0.4,0,0.6c0,0.2-0.1,0.4-0.4,0.5c-0.5,0.2-1.1,0.4-1.6,0.5c-0.5,0.1-1.1,0.2-1.9,0.2
				c-0.3,0.7-0.7,1.4-1.2,2c-0.5,0.7-1,1.3-1.7,1.8c-0.6,0.5-1.3,1-2.1,1.3c-0.8,0.3-1.5,0.5-2.4,0.5c-0.9,0-1.7-0.3-2.2-0.9
				c-0.5-0.6-0.8-1.4-0.8-2.4c0-0.8,0.1-1.7,0.4-2.7c0.3-1,0.7-1.9,1.2-2.9c0.5-1,1.1-1.9,1.8-2.8c0.7-0.9,1.4-1.7,2.2-2.5
				c0.8-0.7,1.6-1.3,2.5-1.7c0.9-0.4,1.8-0.7,2.7-0.7c0.7,0,1.3,0.1,1.6,0.3c0.3,0.2,0.4,0.7,0.3,1.4c-0.1,0.7-0.5,1.3-1.1,1.9
				c-0.6,0.6-1.3,1.2-2,1.7c-0.7,0.5-1.5,0.9-2.2,1.2C143,33.6,142.5,33.8,142.1,33.9z M142.8,32.6c0.4-0.1,0.8-0.4,1.2-0.7
				c0.5-0.3,0.9-0.6,1.4-1c0.4-0.4,0.8-0.8,1.2-1.2c0.3-0.4,0.5-0.8,0.6-1.2c0-0.2,0-0.3,0-0.5c-0.1-0.1-0.1-0.2-0.2-0.2
				c-0.3,0-0.6,0.2-1,0.6c-0.4,0.4-0.8,0.8-1.2,1.3c-0.4,0.5-0.8,1-1.1,1.6C143.2,31.8,143,32.2,142.8,32.6z"/>
			<path class="st1" d="M160.9,34.4c-0.1,0.3-0.2,0.5-0.2,0.8c-0.1,0.2-0.2,0.5-0.3,0.6c-0.1,0.2-0.1,0.2-0.2,0.2
				c0.2-0.3,0.6-0.6,0.9-0.9c0.4-0.2,0.8-0.5,1.2-0.6c0.4-0.2,0.8-0.3,1.3-0.4c0.4-0.1,0.8-0.1,1.2-0.1c0.8,0,1.4,0.2,1.9,0.7
				c0.4,0.5,0.5,1.2,0.3,2.1l-1.4,4c-0.1,0.3-0.1,0.5,0,0.6c0.1,0.1,0.2,0.2,0.3,0.2c0.3,0,0.6-0.1,1-0.3c0.4-0.2,0.7-0.5,1.1-0.8
				c0.4-0.3,0.7-0.7,1.1-1.1c0.4-0.4,0.7-0.8,1.1-1.2c0.1,0,0.2,0.1,0.3,0.2c0.1,0.1,0.2,0.2,0.2,0.3c0.1,0.1,0.1,0.2,0.1,0.3
				c0,0.1-0.1,0.2-0.2,0.4c-0.5,0.5-0.9,1-1.4,1.5c-0.5,0.5-1,0.9-1.5,1.2c-0.5,0.4-1.1,0.6-1.8,0.8c-0.6,0.2-1.3,0.3-2.1,0.3
				c-1,0-1.7-0.3-2.1-0.8c-0.4-0.5-0.4-1.4,0-2.6l1.2-3.3c0.1-0.2,0.1-0.3,0.1-0.5c0-0.1-0.1-0.2-0.3-0.2c-0.1,0-0.3,0-0.6,0.1
				c-0.2,0-0.5,0.1-0.7,0.3c-0.3,0.1-0.5,0.4-0.8,0.6c-0.2,0.3-0.5,0.6-0.6,1.1l-1.9,5h-3.8l3-8.7c0.1-0.2,0.1-0.3,0-0.5
				c0-0.2-0.1-0.3-0.3-0.3c-0.2,0-0.4,0-0.6,0.1c-0.2,0-0.5,0.1-0.7,0.3c-0.3,0.1-0.5,0.4-0.8,0.6c-0.3,0.3-0.5,0.6-0.7,1.1
				l-2.7,7.5h-3.8l3.8-11.1h3.7l-0.5,1.5c0.2-0.2,0.4-0.4,0.8-0.6c0.4-0.2,0.8-0.4,1.2-0.5c0.4-0.2,0.9-0.3,1.3-0.4
				c0.4-0.1,0.8-0.1,1.2-0.1c0.7,0,1.1,0.2,1.5,0.5c0.3,0.4,0.4,0.9,0.3,1.5C161,33.9,161,34.1,160.9,34.4z M161.1,26.7
				c-2.1,0.4-4,1.3-5.8,2.7l1,1.5c1.6-1,3.2-1.5,4.9-1.7c1.6-0.1,3.3,0,5.1,0.4l1.4-2.8C165.4,26.3,163.2,26.3,161.1,26.7z"/>
			<path class="st1" d="M178.2,31.9c0.2-0.2,0.4-0.4,0.6-0.6c0.2-0.2,0.4-0.4,0.6-0.5c0.3,0.2,0.7,0.4,1.2,0.6
				c0.5,0.2,1,0.3,1.5,0.3c0.2,0,0.5,0,0.9-0.1c0.3,0,0.6-0.1,0.9-0.2c-0.2,0.4-0.4,0.7-0.6,1c-0.2,0.3-0.6,0.6-1.3,0.9
				c-0.2,0.1-0.5,0.2-0.8,0.2c-0.3,0-0.6,0-0.9,0c0.1,0.9,0,1.9-0.2,3.1c-0.2,1.1-0.6,2.2-1.2,3.2c-0.6,1-1.3,1.8-2.2,2.5
				c-0.9,0.7-2.1,1-3.4,1c-0.7,0-1.3-0.1-1.8-0.4c-0.5-0.2-0.9-0.5-1.3-0.9c-0.4-0.4-0.6-0.8-0.8-1.3c-0.2-0.5-0.3-1-0.3-1.5
				c0-1.3,0.2-2.4,0.6-3.4c0.5-1,1.1-1.8,2-2.4c0.8-0.6,1.8-1.1,3-1.3C175.7,31.8,176.9,31.7,178.2,31.9z M177.8,33.2
				c-1.5,0.1-2.7,0.6-3.6,1.6c-0.9,1-1.4,2.4-1.4,4.1c0,0.6,0.1,1.1,0.4,1.5c0.3,0.4,0.7,0.6,1.2,0.6c0.6,0,1.1-0.2,1.6-0.7
				c0.5-0.4,0.8-1,1.1-1.6c0.3-0.6,0.5-1.3,0.7-2c0.2-0.7,0.2-1.3,0.3-1.8c0-0.3,0-0.7,0-1.1C178,33.7,177.9,33.4,177.8,33.2z"/>
		</g>
	</g>
	<g>
		<g>
			<path class="st0" d="M8.9,60.1c0.4,0,0.8,0.1,1.2,0c1.8-0.1,3.7-0.3,5.5-0.4c1-0.1,1.3-0.5,1.3-1.5c-0.1-4,0.4-7.9,2.2-11.5
				c2-4.2,5.2-7.1,9.3-9.3c5.1-2.7,10.6-4.4,16.2-5.7c4.2-1,8.5-2,12.7-2.8c3.9-0.8,7.8-1.5,11.7-2.1c9.5-1.3,19-2.7,28.6-3.7
				c9.6-1,19.3-1.5,29-2c7.3-0.3,14.5-0.3,21.8-0.3c7.2,0,14.3,0.1,21.5,0.2c6.5,0.1,13.6,0.9,19.9-0.9c3.5-1,6.6-2.5,8.5-5.9
				c0.2-0.3,0.2-0.8,0.3-1.2c-0.4-0.1-0.8-0.2-1.2-0.2c-4.3-0.3-8.5-0.5-12.8-0.9c-9.3-0.9-18.3-3-27.3-5.4
				c-5.9-1.6-11.8-3.2-17.8-4.4c-4.7-0.9-9.5-1.4-14.3-1.9c-6.6-0.6-13.2,0.1-19.8,1.1c-3.4,0.5-6.8,1.3-10.2,2.3
				c-4.4,1.3-8.7,2.6-12.9,4.3c-6.8,2.7-13.2,6.2-18.9,10.8c-0.1,0.1-0.2,0.3-0.4,0.6c1.7-0.1,3.3-0.3,4.9-0.3
				c2.1-0.1,3.7-1.4,5.3-2.4c4.6-2.8,9.5-5,14.5-6.7c7.1-2.5,14.4-3.9,21.9-4.3c4.6-0.2,9.2-0.3,13.8,0.1c9.9,0.9,19.5,3.4,28.4,8
				c1.4,0.7,2.7,1.6,4,2.4c0.1,0,0.1,0.2,0.2,0.3c-1.2,0.1-2.4,0.2-3.6,0.2c-3.1,0.1-6.2,0.1-9.3,0.2c-5.7,0.2-11.5,0.5-17.2,0.8
				c-6.3,0.3-12.7,0.6-19,1.2c-5.9,0.5-11.8,1.3-17.7,2.1c-5,0.7-10,1.5-15,2.3c-4.5,0.8-8.9,1.7-13.4,2.5c-2.6,0.5-5.1,0.9-7.7,1.5
				c-4.4,1-8.7,2-13,3.2c-2.9,0.8-5.8,1.6-8.7,2.6c-5.3,1.7-9.9,4.7-13.4,9.1c-3,3.7-4.9,7.8-5.1,12.7c-0.1,2.1-1.3,3.5-3,4.5
				c-0.3,0.2-0.6,0.4-0.9,0.6C8.9,59.9,8.9,60,8.9,60.1z"/>
			<path class="st0" d="M88.2,19.1c-25.3-0.3-49.8,4.5-73.8,12.3c0,0.1,0,0.3,0,0.4c0.3,0.1,0.6,0.3,0.9,0.3
				c1.3-0.1,2.6-0.3,3.9-0.5c0.7-0.1,1.4-0.2,2.2-0.3c0.9-0.1,1,0.4,0.6,1c-0.5,0.7-1,1.3-1.7,1.9c-3.1,2.6-6.4,4.8-10.4,5.6
				c-0.5,0.1-1.1,0.1-1.7,0.2c0.2-0.9,0.4-1.6,0.4-2.3c0-1.1-0.5-1.4-1.4-0.8c-1.7,1.2-3.4,2.3-4.9,3.7c-1.7,1.5-1.8,3.5-0.9,6
				c0.8,2.2,1.9,4.5,1.3,6.9c-0.6,2.2-1.5,4.3-2.3,6.4C0.2,60,0.1,60.2,0,60.4c0,0.1,0,0.1,0,0.4c1.9-0.8,3.7-1.7,4.8-3.4
				c1.8-2.8,3.4-5.7,5-8.6c3.5-6.3,8-11.4,14.6-14.5c5-2.3,10.1-4.5,15.4-5.9c4.7-1.3,9.5-2.5,14.2-3.6c3.3-0.8,6.6-1.4,9.9-1.9
				c6.5-1,13-1.9,19.5-2.9c1.5-0.2,3.1-0.4,4.6-0.6C88.2,19.3,88.2,19.2,88.2,19.1z"/>
			<path class="st0" d="M169.6,23.6c6.8,2.2,13.8,2.5,21.1,1.9c-0.2-0.3-0.3-0.4-0.5-0.6c-0.7-0.8-1.5-1.5-2.2-2.2
				c-0.3-0.3-0.8-0.6-1.2-0.6c-3,0.2-6.1,0.5-9.1,0.7c-2.1,0.1-4.2-0.2-6.3-0.2c-0.6,0-1.2,0.5-1.8,0.7
				C169.6,23.3,169.6,23.4,169.6,23.6z"/>
			<path class="st0" d="M200,25.8c-2.8-3.4-2.1-6.9-1.1-10.6c-2.6,2.9-5.4,5.6-9.3,6.5C190.5,23.8,196.8,26.4,200,25.8z"/>
		</g>
	</g>
</g>
</svg>
