<?xml version="1.0" encoding="utf-8"?>
<!-- Generator: Adobe Illustrator 21.1.0, SVG Export Plug-In . SVG Version: 6.00 Build 0)  -->
<svg version="1.1" id="Layer_1" xmlns="http://www.w3.org/2000/svg" xmlns:xlink="http://www.w3.org/1999/xlink" x="0px" y="0px"
	 viewBox="0 0 179 62" style="enable-background:new 0 0 179 62;" xml:space="preserve">
<style type="text/css">
	.st0{fill:#05274F;}
	.st1{fill:#44B0D2;}
</style>
<g>
	<g>
		<g>
			<path class="st0" d="M44.1,46c0.4,0,0.9,0,1.5,0c0.7,0,1.4,0,2.2-0.1c0.8-0.1,1.6-0.2,2.4-0.4c0.8-0.2,1.5-0.5,2.1-0.9
				c0.6-0.4,1.1-1,1.5-1.6c0.4-0.7,0.5-1.6,0.4-2.6c-0.1-1.1-0.5-2-1.4-2.7c-0.8-0.7-1.9-1-3.3-0.8c-1.2,0.2-2.4,0.8-3.5,1.9
				c-1.1,1.1-2.1,2.8-3,5.1c-0.4-0.1-0.7-0.2-1.1-0.4c-0.4-0.2-0.7-0.4-1-0.7c-0.3-0.3-0.5-0.6-0.7-0.9c-0.2-0.4-0.2-0.7,0-1.1
				c0.4-0.8,0.9-1.5,1.4-2.1c0.5-0.6,1.2-1.2,1.9-1.7c0.8-0.5,1.7-0.9,2.8-1.2c1.1-0.3,2.4-0.6,3.9-0.8c1.1-0.2,2.1-0.2,3.2-0.1
				c1,0.1,2,0.3,2.8,0.6c0.8,0.3,1.5,0.9,2.1,1.5c0.6,0.7,0.9,1.5,1,2.6c0.1,1.1,0,2.1-0.3,2.9c-0.3,0.9-0.8,1.6-1.5,2.3
				c-0.7,0.7-1.5,1.2-2.6,1.7c-1,0.5-2.1,0.8-3.4,1.1c1.1,0.5,1.9,1.3,2.4,2.3c0.5,1,0.8,2,0.8,3.1c0,1.1-0.2,2.3-0.7,3.4
				c-0.5,1.1-1.2,2.1-2.2,3c-1,0.9-2.2,1.6-3.7,2.1c-1.5,0.5-3.2,0.7-5.1,0.5c-1-0.1-1.9-0.3-2.9-0.5c-1-0.3-1.8-0.7-2.5-1.3
				c-0.7-0.6-1.3-1.4-1.7-2.4c-0.4-1-0.5-2.3-0.4-3.8c0.1-0.6,0.3-1.1,0.7-1.5c0.4-0.4,0.9-0.7,1.4-0.9c0.5-0.2,1.1-0.4,1.7-0.4
				c0.6,0,1.1,0,1.6,0.1c-0.4,0.7-0.7,1.6-0.9,2.6c-0.3,1-0.4,1.9-0.3,2.8c0.1,1,0.3,1.8,0.8,2.4c0.4,0.6,1.1,1,2.1,1.1
				c0.4,0.1,0.9,0,1.4-0.1c0.6-0.2,1.1-0.4,1.7-0.7c0.6-0.3,1.1-0.8,1.7-1.3c0.5-0.5,1-1.1,1.4-1.8c0.4-0.8,0.7-1.5,0.8-2.3
				c0.1-0.8,0.1-1.5,0-2.2c-0.1-0.7-0.4-1.3-0.8-1.9c-0.4-0.5-0.9-1-1.5-1.3c-0.5-0.2-1-0.4-1.6-0.5c-0.6-0.1-1.2-0.1-1.9,0.1
				L44.1,46z"/>
			<path class="st0" d="M74.7,58.2c-0.1,0.3-0.1,0.5,0,0.7c0.1,0.2,0.3,0.3,0.7,0.3c0.4,0,0.8-0.2,1.2-0.6c0.4-0.4,0.9-0.9,1.4-1.4
				c0.5-0.6,1-1.1,1.5-1.8c0.5-0.6,0.9-1.1,1.4-1.6c0.3,0.2,0.6,0.5,0.8,0.8c0.2,0.4,0.2,0.7,0,1c-0.4,0.6-0.9,1.3-1.5,2
				c-0.6,0.7-1.2,1.4-2,2c-0.7,0.6-1.6,1.1-2.5,1.5c-0.9,0.4-1.9,0.6-3.1,0.6c-0.4,0-0.9-0.1-1.3-0.2c-0.4-0.1-0.8-0.3-1.2-0.6
				c-0.4-0.3-0.6-0.7-0.8-1.1C69,59.3,68.9,58.7,69,58c-0.8,1-1.6,1.9-2.5,2.6c-0.9,0.7-2,1.1-3.2,1.1c-0.7,0-1.3-0.1-1.9-0.4
				c-0.6-0.2-1.1-0.6-1.5-1c-0.4-0.4-0.7-0.9-1-1.5c-0.2-0.6-0.3-1.2-0.3-1.8c0-1.6,0.3-3.2,1-4.7c0.7-1.5,1.6-2.9,2.7-4.1
				c1.2-1.2,2.5-2.1,4.1-2.8c1.6-0.7,3.3-1.1,5.2-1.1c1.6,0,2.9,0.2,4.1,0.5c1.2,0.3,2.2,0.7,3.1,1.1L74.7,58.2z M72.9,46.5
				c-1,0-2,0.3-3,0.9c-1,0.6-1.9,1.3-2.8,2.3c-0.8,1-1.5,2.1-2.1,3.3c-0.5,1.3-0.9,2.5-0.9,3.9c0,0.4,0.1,0.8,0.3,1.1
				c0.2,0.3,0.5,0.5,0.9,0.5c0.6,0,1.3-0.4,2.2-1.2c0.9-0.8,1.7-1.7,2.4-2.9L72.9,46.5z"/>
			<path class="st0" d="M83.7,61.8c-1,0-1.8-0.2-2.4-0.7c-0.6-0.5-0.8-1.2-0.8-2.1c0-0.5,0.1-1.1,0.3-2c0.2-0.9,0.5-1.8,0.8-2.9
				c0.3-1,0.7-2.1,1.1-3.2c0.4-1.1,0.8-2.1,1.1-3.1c0.3-0.9,0.6-1.7,0.9-2.4c0.2-0.6,0.4-1,0.4-1.1l5.6,0l-4.8,13.8
				c-0.1,0.3-0.1,0.6,0,0.9c0.1,0.2,0.3,0.4,0.5,0.4c0.4,0.1,1,0,1.6-0.4c0.6-0.4,1.2-0.8,1.8-1.4c0.6-0.6,1.1-1.2,1.6-1.8
				c0.5-0.6,0.8-1.2,0.9-1.6l3.5-9.8l5.5,0l-4.6,13.6c-0.2,0.5-0.1,0.8,0,1.1c0.2,0.2,0.5,0.2,0.9,0c0.3-0.2,0.7-0.5,1.1-0.8
				c0.4-0.3,0.9-0.7,1.3-1.1c0.4-0.4,0.9-0.8,1.3-1.2c0.4-0.4,0.8-0.8,1.1-1.1c0.3,0.2,0.5,0.5,0.6,0.9c0.1,0.4,0,0.8-0.2,1.1
				c-0.5,0.6-1.1,1.2-1.7,1.8c-0.6,0.6-1.2,1.1-1.9,1.6c-0.7,0.5-1.3,0.9-2.1,1.1c-0.7,0.3-1.5,0.4-2.2,0.4c-0.8,0-1.4-0.1-1.9-0.4
				c-0.5-0.2-0.8-0.6-1-1C92,60,91.9,59.5,91.9,59c0-0.6,0.1-1.2,0.3-1.9c-1.4,1.7-2.8,2.9-4.2,3.6C86.7,61.4,85.3,61.8,83.7,61.8z
				 M91.4,34.3c0,1,0.4,1.9,1,2.5c0.6,0.7,1.4,1.1,2.3,1.3c0.9,0.2,1.8,0.2,2.7-0.1c0.9-0.3,1.7-0.9,2.3-1.8l1.3,1.5
				c-0.4,0.8-0.9,1.5-1.6,2.1c-0.7,0.6-1.5,1-2.4,1.3c-0.9,0.3-1.8,0.5-2.7,0.5c-0.9,0-1.8-0.1-2.7-0.3c-0.9-0.2-1.6-0.7-2.3-1.2
				c-0.7-0.6-1.1-1.3-1.4-2.2L91.4,34.3z"/>
			<path class="st0" d="M123.7,49.5c-0.8,1.2-1.6,2.5-2.5,4c-0.9,1.4-1.8,2.7-2.7,4c-0.9,1.2-1.8,2.2-2.6,3
				c-0.8,0.8-1.6,1.2-2.2,1.2c-1.3,0-2.1-0.4-2.5-1.1c-0.4-0.8-0.4-1.9,0.2-3.5l3.1-9.5c-1,1.8-2,3.5-2.8,5.2
				c-0.9,1.7-1.8,3.2-2.6,4.5c-0.9,1.3-1.7,2.4-2.5,3.1c-0.8,0.8-1.7,1.1-2.6,1.1c-0.8,0-1.5-0.3-2-0.9c-0.5-0.6-0.9-1.3-1.1-2.1
				c-0.3-0.8-0.4-1.6-0.4-2.5c0-0.9,0.1-1.6,0.3-2.3l4.4-0.3c-0.2,0.3-0.4,0.7-0.5,1.3c-0.2,0.6-0.3,1.2-0.4,1.8
				c-0.1,0.6,0,1.1,0.1,1.6c0.1,0.5,0.4,0.7,0.8,0.7c0.3-0.1,0.8-0.4,1.3-1c0.5-0.6,1.1-1.4,1.7-2.3c0.6-0.9,1.2-1.9,1.9-3
				c0.6-1.1,1.2-2.2,1.8-3.3c0.6-1.1,1.1-2,1.6-3c0.5-0.9,0.8-1.6,1.1-2.1l6.7,0l-4.1,12.4c0,0.1,0,0,0.2-0.2
				c0.2-0.2,0.6-0.8,1.2-1.7c0.6-0.9,1.5-2.2,2.6-3.8c1.1-1.7,2.6-3.9,4.5-6.7l0,0v0h5.5l-4.5,13.9c-0.2,0.5-0.1,0.8,0,1.1
				c0.2,0.2,0.5,0.2,0.9,0c0.3-0.2,0.7-0.5,1.1-0.8c0.4-0.3,0.9-0.7,1.3-1.1c0.4-0.4,0.9-0.8,1.3-1.2c0.4-0.4,0.8-0.8,1.1-1.1
				c0.3,0.2,0.5,0.5,0.6,0.9c0.1,0.4,0,0.8-0.2,1.1c-0.5,0.6-1.1,1.2-1.8,1.8c-0.6,0.6-1.3,1.1-2.1,1.6c-0.7,0.5-1.5,0.9-2.3,1.1
				c-0.8,0.3-1.5,0.4-2.3,0.4c-0.8,0-1.4-0.1-1.9-0.4c-0.5-0.2-0.8-0.6-1-1c-0.2-0.4-0.3-0.9-0.3-1.5c0-0.6,0.1-1.2,0.3-1.9
				L123.7,49.5z"/>
			<path class="st0" d="M130.9,58.1c0-0.3,0.1-0.9,0.3-1.5c0.2-0.7,0.5-1.4,0.8-2.3c0.3-0.9,0.7-1.8,1-2.8c0.4-1,0.7-1.9,1.1-2.8
				c0.4-0.9,0.7-1.7,1-2.5c0.3-0.8,0.5-1.4,0.7-1.9h5.9l-2.7,6.6c1-0.7,2-1.1,3.2-1.3c1.1-0.2,2.1-0.1,3.1,0.2c0.6,0,1.2-0.1,2-0.4
				c0.7-0.3,1.5-0.7,2.3-1.3c0.8-0.5,1.5-1.1,2.2-1.8c0.7-0.7,1.2-1.4,1.7-2.1l0,0.1l0-0.1h5.9l-4.8,13.3c-0.2,0.5-0.2,1,0,1.3
				c0.2,0.3,0.5,0.4,1.1,0.1c0.4-0.1,0.8-0.4,1.3-0.8c0.5-0.4,1.1-0.9,1.6-1.4c0.5-0.5,1-1,1.4-1.4c0.4-0.5,0.7-0.8,0.9-1
				c0.3,0.2,0.6,0.4,0.8,0.8c0.2,0.4,0.2,0.7-0.1,1c-0.8,0.9-1.6,1.7-2.3,2.4c-0.7,0.7-1.4,1.2-2.1,1.7c-0.7,0.4-1.5,0.8-2.3,1
				c-0.8,0.2-1.7,0.3-2.7,0.3c-1.2,0-2-0.3-2.7-0.9c-0.6-0.6-0.9-1.5-0.8-2.6c0-0.3,0.1-0.8,0.3-1.4c0.2-0.6,0.4-1.4,0.7-2.2
				c0.3-0.8,0.6-1.7,0.9-2.6c0.3-0.9,0.7-1.8,1-2.7c-0.6,0.5-1.3,1-2.1,1.5c-0.8,0.4-1.5,0.8-2.2,0.9c0.7,1,0.9,2.3,0.5,3.8
				c-0.3,1.4-1,2.5-2.1,3.5c-1.1,1-2.3,1.7-3.8,2.2c-0.4,0.1-0.9,0.3-1.6,0.4c-0.7,0.2-1.5,0.3-2.3,0.4c-0.8,0.1-1.7,0.1-2.6,0.1
				c-0.9,0-1.7-0.2-2.4-0.4c-0.7-0.2-1.3-0.6-1.7-1.2C131.1,59.7,130.9,59,130.9,58.1z M143.2,53.6c0-0.7-0.2-1.2-0.6-1.5
				c-0.4-0.3-0.8-0.4-1.3-0.4c-0.5,0-1,0.1-1.6,0.4c-0.6,0.2-1.1,0.5-1.5,0.9l-0.6,2.1c-0.6,1.4-0.9,2.6-0.8,3.5
				c0,0.9,0.6,1.3,1.5,1.1c0.6,0,1.1-0.2,1.7-0.7c0.6-0.4,1.1-1,1.5-1.6c0.5-0.6,0.8-1.3,1.1-2C143,54.8,143.2,54.1,143.2,53.6z"/>
		</g>
	</g>
	<g>
		<g>
			<path class="st1" d="M118.4,37.3c-0.1,0.2-0.1,0.3,0,0.4c0.1,0.1,0.2,0.2,0.4,0.2c0.2,0,0.5-0.1,0.7-0.4c0.3-0.2,0.5-0.5,0.8-0.9
				c0.3-0.3,0.6-0.7,0.9-1.1c0.3-0.4,0.6-0.7,0.8-1c0.2,0.1,0.4,0.3,0.5,0.5c0.1,0.2,0.1,0.4,0,0.6c-0.3,0.4-0.6,0.8-0.9,1.2
				c-0.4,0.4-0.7,0.8-1.2,1.2s-0.9,0.7-1.5,0.9c-0.6,0.2-1.2,0.4-1.9,0.4c-0.3,0-0.5,0-0.8-0.1c-0.3-0.1-0.5-0.2-0.7-0.4
				c-0.2-0.2-0.4-0.4-0.5-0.7c-0.1-0.3-0.2-0.7-0.1-1.1c-0.5,0.6-1,1.1-1.5,1.6c-0.6,0.4-1.2,0.7-1.9,0.7c-0.4,0-0.8-0.1-1.1-0.2
				c-0.3-0.2-0.6-0.4-0.9-0.6c-0.2-0.3-0.4-0.6-0.6-0.9c-0.1-0.4-0.2-0.7-0.2-1.1c0-1,0.2-1.9,0.6-2.8c0.4-0.9,0.9-1.7,1.6-2.5
				c0.7-0.7,1.5-1.3,2.5-1.7c1-0.4,2-0.7,3.1-0.7c0.9,0,1.8,0.1,2.5,0.3c0.7,0.2,1.4,0.4,1.9,0.7L118.4,37.3z M117.4,30.3
				c-0.6,0-1.2,0.2-1.8,0.6c-0.6,0.4-1.2,0.8-1.7,1.4c-0.5,0.6-0.9,1.2-1.3,2c-0.3,0.8-0.5,1.5-0.6,2.4c0,0.3,0,0.5,0.2,0.7
				c0.1,0.2,0.3,0.3,0.6,0.3c0.4,0,0.8-0.2,1.3-0.7c0.5-0.5,1-1.1,1.4-1.7L117.4,30.3z"/>
			<path class="st1" d="M127.2,30.9c-0.4,0.7-0.6,1.3-0.9,1.9c-0.2,0.6-0.4,1.1-0.6,1.6c-0.1,0.5-0.3,1-0.3,1.5
				c-0.1,0.5-0.1,1-0.1,1.5c0,0.3,0,0.5,0.1,0.6c0.1,0.1,0.2,0.1,0.4,0.1c0.3,0,0.7-0.2,1-0.4c0.4-0.3,0.8-0.6,1.1-1
				c0.4-0.4,0.7-0.8,1-1.3c0.3-0.5,0.6-0.9,0.7-1.3c-0.4-0.2-0.7-0.6-0.9-1c-0.2-0.4-0.2-0.8-0.2-1.2c0-0.4,0.2-0.8,0.4-1.2
				c0.2-0.4,0.6-0.6,1-0.8c0.4-0.2,0.8-0.2,1.1-0.1c0.3,0.1,0.5,0.4,0.6,0.9c0,0.4,0,0.8-0.1,1.2c-0.1,0.4-0.2,0.8-0.4,1.3
				c1,0.1,2-0.2,3-0.7c0,0.2,0,0.3,0,0.5c0,0.2-0.1,0.3-0.3,0.4c-0.5,0.2-1,0.4-1.4,0.5c-0.5,0.1-1,0.2-1.7,0.2
				c-0.3,0.6-0.6,1.2-1.1,1.9c-0.4,0.6-0.9,1.2-1.5,1.6c-0.6,0.5-1.2,0.9-1.8,1.2c-0.7,0.3-1.4,0.5-2.1,0.5c-0.8,0-1.5-0.3-2-0.8
				c-0.5-0.5-0.7-1.3-0.7-2.2c0-0.7,0.1-1.5,0.4-2.4c0.2-0.9,0.6-1.8,1.1-2.7c0.5-0.9,1-1.8,1.6-2.6c0.6-0.8,1.3-1.6,2-2.2
				c0.7-0.7,1.5-1.2,2.3-1.6c0.8-0.4,1.6-0.6,2.4-0.7c0.7,0,1.1,0.1,1.4,0.3c0.3,0.2,0.4,0.6,0.3,1.3c-0.1,0.6-0.4,1.2-1,1.8
				c-0.5,0.6-1.1,1.1-1.8,1.5c-0.7,0.4-1.3,0.8-2,1.1C128,30.6,127.5,30.8,127.2,30.9z M127.8,29.7c0.3-0.1,0.7-0.3,1.1-0.6
				c0.4-0.3,0.8-0.6,1.2-0.9c0.4-0.3,0.7-0.7,1.1-1.1c0.3-0.4,0.5-0.8,0.5-1.1c0-0.2,0-0.3,0-0.4c0-0.1-0.1-0.2-0.2-0.2
				c-0.2,0-0.5,0.2-0.9,0.5c-0.4,0.3-0.7,0.7-1.1,1.2c-0.4,0.5-0.7,1-1,1.4C128.2,29,128,29.4,127.8,29.7z"/>
			<path class="st1" d="M144,31.3c-0.1,0.2-0.1,0.5-0.2,0.7c-0.1,0.2-0.2,0.4-0.2,0.6c-0.1,0.2-0.1,0.2-0.1,0.2
				c0.2-0.3,0.5-0.6,0.8-0.8c0.3-0.2,0.7-0.4,1.1-0.6c0.4-0.1,0.8-0.3,1.1-0.3c0.4-0.1,0.7-0.1,1-0.1c0.7,0,1.3,0.2,1.7,0.7
				c0.4,0.4,0.5,1.1,0.2,1.9l-1.2,3.7c-0.1,0.2-0.1,0.4,0,0.6c0.1,0.1,0.2,0.2,0.3,0.2c0.3,0,0.6-0.1,0.9-0.3c0.3-0.2,0.7-0.4,1-0.7
				c0.3-0.3,0.7-0.6,1-1c0.3-0.4,0.7-0.7,1-1.1c0.1,0,0.2,0.1,0.3,0.2c0.1,0.1,0.2,0.2,0.2,0.3c0.1,0.1,0.1,0.2,0.1,0.3
				c0,0.1-0.1,0.2-0.2,0.3c-0.4,0.5-0.8,0.9-1.2,1.4c-0.4,0.4-0.9,0.8-1.4,1.1c-0.5,0.3-1,0.6-1.6,0.8c-0.6,0.2-1.2,0.3-1.9,0.3
				c-0.9,0-1.5-0.3-1.9-0.8c-0.4-0.5-0.4-1.3,0-2.4l1.1-3c0.1-0.2,0.1-0.3,0.1-0.4c0-0.1-0.1-0.2-0.2-0.2c-0.1,0-0.3,0-0.5,0.1
				c-0.2,0-0.4,0.1-0.7,0.3c-0.2,0.1-0.5,0.3-0.7,0.6c-0.2,0.2-0.4,0.6-0.6,1l-1.7,4.5h-3.4l2.7-8c0.1-0.2,0.1-0.3,0-0.5
				c0-0.2-0.1-0.3-0.3-0.3c-0.1,0-0.3,0-0.5,0.1c-0.2,0-0.4,0.1-0.7,0.3c-0.2,0.1-0.5,0.3-0.7,0.6c-0.2,0.2-0.5,0.6-0.6,1l-2.4,6.8
				h-3.4l3.4-10.2h3.3l-0.4,1.4c0.1-0.2,0.4-0.4,0.7-0.6c0.3-0.2,0.7-0.3,1.1-0.5s0.8-0.3,1.2-0.3c0.4-0.1,0.8-0.1,1.1-0.1
				c0.6,0,1,0.2,1.3,0.5c0.3,0.3,0.4,0.8,0.3,1.4C144.1,30.9,144.1,31.1,144,31.3z M144.2,24.4c-1.9,0.4-3.6,1.2-5.2,2.4l0.9,1.3
				c1.5-0.9,2.9-1.4,4.3-1.5c1.4-0.1,3,0,4.6,0.3l1.2-2.6C148,24,146.1,24,144.2,24.4z"/>
			<path class="st1" d="M159.5,29.1c0.1-0.2,0.3-0.3,0.5-0.5c0.2-0.2,0.4-0.4,0.5-0.5c0.3,0.2,0.6,0.3,1.1,0.5
				c0.5,0.2,0.9,0.3,1.4,0.3c0.2,0,0.5,0,0.8-0.1c0.3,0,0.6-0.1,0.8-0.1c-0.1,0.3-0.3,0.7-0.5,0.9c-0.2,0.3-0.6,0.5-1.1,0.8
				c-0.2,0.1-0.4,0.2-0.7,0.2c-0.3,0-0.6,0-0.8,0c0.1,0.8,0,1.8-0.2,2.8c-0.2,1-0.6,2-1.1,2.9c-0.5,0.9-1.2,1.7-2,2.3
				c-0.8,0.6-1.8,0.9-3,0.9c-0.6,0-1.1-0.1-1.6-0.3c-0.5-0.2-0.8-0.5-1.2-0.9c-0.3-0.4-0.5-0.8-0.7-1.2c-0.2-0.5-0.2-0.9-0.3-1.4
				c0-1.2,0.2-2.2,0.6-3.1c0.4-0.9,1-1.6,1.8-2.2c0.8-0.6,1.6-1,2.6-1.2C157.3,28.9,158.3,28.9,159.5,29.1z M159.1,30.3
				c-1.3,0.1-2.4,0.6-3.2,1.5c-0.8,0.9-1.2,2.2-1.2,3.8c0,0.5,0.1,1,0.4,1.4c0.3,0.4,0.6,0.6,1,0.6c0.5,0,1-0.2,1.4-0.6
				c0.4-0.4,0.7-0.9,1-1.4c0.3-0.6,0.5-1.2,0.6-1.8c0.1-0.6,0.2-1.2,0.2-1.6c0-0.3,0-0.6,0-1C159.3,30.7,159.2,30.5,159.1,30.3z"/>
		</g>
	</g>
	<g>
		<g>
			<path class="st0" d="M8,54.8c0.4,0,0.7,0,1.1,0c1.6-0.1,3.3-0.3,4.9-0.4c0.9,0,1.2-0.4,1.1-1.3c-0.1-3.6,0.4-7.2,2-10.5
				c1.8-3.8,4.7-6.5,8.3-8.5c4.6-2.5,9.4-4,14.5-5.2c3.8-0.9,7.6-1.8,11.4-2.6c3.5-0.7,7-1.4,10.5-1.9c8.5-1.2,17-2.5,25.6-3.4
				c8.6-0.9,17.3-1.4,25.9-1.8c6.5-0.3,13-0.3,19.5-0.3c6.4,0,12.8,0.1,19.2,0.2c5.8,0.1,12.2,0.8,17.8-0.8c3.1-0.9,5.9-2.3,7.6-5.4
				c0.2-0.3,0.2-0.7,0.3-1.1c-0.3-0.1-0.7-0.2-1-0.2c-3.8-0.3-7.6-0.4-11.4-0.8c-8.3-0.8-16.4-2.8-24.5-5c-5.3-1.4-10.6-2.9-15.9-4
				c-4.2-0.9-8.5-1.3-12.8-1.7c-5.9-0.6-11.8,0.1-17.7,1c-3.1,0.5-6.1,1.2-9.1,2.1c-3.9,1.1-7.8,2.4-11.6,3.9
				c-6.1,2.4-11.8,5.7-17,9.9c-0.1,0.1-0.2,0.3-0.4,0.5c1.5-0.1,3-0.3,4.4-0.3c1.9-0.1,3.3-1.3,4.8-2.2c4.1-2.5,8.5-4.5,13-6.1
				C84.7,6.6,91.3,5.3,98,5c4.1-0.2,8.2-0.2,12.3,0.1c8.9,0.8,17.4,3.1,25.4,7.3c1.2,0.7,2.4,1.4,3.6,2.2c0.1,0,0.1,0.1,0.2,0.3
				c-1.1,0.1-2.1,0.2-3.2,0.2c-2.8,0.1-5.5,0.1-8.3,0.2c-5.1,0.2-10.3,0.4-15.4,0.7c-5.7,0.3-11.3,0.6-17,1.1
				c-5.3,0.5-10.6,1.2-15.9,1.9c-4.5,0.6-9,1.3-13.5,2.1c-4,0.7-8,1.5-12,2.3c-2.3,0.4-4.6,0.8-6.9,1.4c-3.9,0.9-7.8,1.9-11.7,2.9
				c-2.6,0.7-5.2,1.5-7.8,2.3c-4.8,1.6-8.8,4.3-12,8.3c-2.7,3.4-4.4,7.2-4.6,11.6c-0.1,1.9-1.1,3.2-2.7,4.1
				c-0.3,0.2-0.6,0.3-0.8,0.5C7.9,54.6,8,54.7,8,54.8z"/>
			<path class="st0" d="M79,17.4c-22.7-0.3-44.6,4.1-66.1,11.2c0,0.1,0,0.2,0,0.4c0.3,0.1,0.5,0.3,0.8,0.2c1.2-0.1,2.3-0.3,3.5-0.5
				c0.6-0.1,1.3-0.2,1.9-0.3c0.8-0.1,0.9,0.4,0.5,0.9c-0.4,0.6-0.9,1.2-1.5,1.7c-2.8,2.4-5.8,4.3-9.3,5.1c-0.5,0.1-1,0.1-1.5,0.2
				c0.2-0.8,0.4-1.4,0.4-2.1c0-1-0.4-1.3-1.2-0.7c-1.5,1.1-3,2.1-4.4,3.4c-1.5,1.4-1.6,3.2-0.8,5.5c0.8,2,1.7,4.1,1.2,6.3
				c-0.5,2-1.3,3.9-2,5.8c-0.1,0.2-0.2,0.4-0.3,0.6c0,0,0,0.1,0,0.3c1.7-0.8,3.3-1.6,4.3-3.1c1.6-2.5,3-5.2,4.5-7.8
				C12,38.8,16,34.1,21.9,31.3c4.5-2.1,9-4.1,13.8-5.4c4.2-1.2,8.5-2.3,12.7-3.3c2.9-0.7,5.9-1.3,8.9-1.8c5.8-0.9,11.6-1.8,17.5-2.6
				c1.4-0.2,2.8-0.4,4.2-0.5C79,17.6,79,17.5,79,17.4z"/>
			<path class="st0" d="M151.8,21.5c6.1,2,12.4,2.3,18.8,1.7c-0.2-0.2-0.3-0.4-0.4-0.5c-0.7-0.7-1.3-1.4-2-2
				c-0.3-0.3-0.7-0.6-1.1-0.5c-2.7,0.2-5.4,0.5-8.2,0.6c-1.9,0.1-3.8-0.2-5.7-0.2c-0.5,0-1.1,0.4-1.6,0.6
				C151.8,21.3,151.8,21.4,151.8,21.5z"/>
			<path class="st0" d="M179,23.5c-2.5-3.1-1.9-6.3-1-9.7c-2.3,2.7-4.8,5.1-8.4,6C170.5,21.7,176.2,24,179,23.5z"/>
		</g>
	</g>
</g>
</svg>
