<?xml version="1.0" encoding="utf-8"?>
<!-- Generator: Adobe Illustrator 21.1.0, SVG Export Plug-In . SVG Version: 6.00 Build 0)  -->
<svg version="1.1" id="Layer_1" xmlns="http://www.w3.org/2000/svg" xmlns:xlink="http://www.w3.org/1999/xlink" x="0px" y="0px"
	 viewBox="0 0 20 17" style="enable-background:new 0 0 20 17;" xml:space="preserve">
<style type="text/css">
	.st0{fill:#4B3077;}
</style>
<g>
	<g>
		<g>
			<g>
				<path class="st0" d="M7.1,11.8c1.2-1.5,2.4-2.9,3.6-4.3c1.8-2.2,3.7-4.4,5.5-6.6c0.8-1,2.1-1.1,3-0.4s1,2,0.2,2.9
					C16,7.7,12.4,11.9,8.8,16.2c-1,1.1-2.4,1.1-3.3,0c-1.7-2-3.4-4-5-6.1c-0.8-0.9-0.7-2.2,0.2-2.9c0.8-0.7,2.1-0.6,2.9,0.4
					C4.7,8.9,5.9,10.3,7.1,11.8z"/>
			</g>
		</g>
	</g>
</g>
</svg>
