<?xml version="1.0" encoding="utf-8"?>
<!-- Generator: Adobe Illustrator 21.1.0, SVG Export Plug-In . SVG Version: 6.00 Build 0)  -->
<svg version="1.1" id="Layer_1" xmlns="http://www.w3.org/2000/svg" xmlns:xlink="http://www.w3.org/1999/xlink" x="0px" y="0px"
	 viewBox="0 0 23 34" style="enable-background:new 0 0 23 34;" xml:space="preserve">
<style type="text/css">
	.st0{fill:#4C2E77;}
</style>
<g>
	<g>
		<path class="st0" d="M11.5,34c-1.3-2-2.6-4-3.9-6c-2.2-3.5-4.3-7.1-6-10.9c-0.7-1.6-1.3-3.1-1.5-4.8c-0.3-2.1,0.1-4.1,1.1-6
			C3.3,2.1,7.7-0.3,12.4,0c5.4,0.4,9.9,4.6,10.5,9.9c0.2,2-0.2,3.8-0.9,5.6c-1.1,2.9-2.6,5.6-4.1,8.3c-1.9,3.4-4.1,6.7-6.3,10
			C11.6,33.8,11.6,33.9,11.5,34z M11.5,5.3c-3.3,0-6,2.6-6,5.8c0,3.2,2.7,5.8,6,5.8c3.3,0,6-2.6,6-5.8C17.5,7.9,14.8,5.3,11.5,5.3z"
			/>
	</g>
</g>
</svg>
