<svg xmlns="http://www.w3.org/2000/svg" viewBox="0 0 104.8 14.79"><defs><style>.cls-1{isolation:isolate;}.cls-2{opacity:0.6;mix-blend-mode:multiply;}.cls-3{fill:#231f20;}</style></defs><title>Asset 4</title><g class="cls-1"><g id="Layer_2" data-name="Layer 2"><g id="Layer_1-2" data-name="Layer 1"><g class="cls-2"><path class="cls-3" d="M91.54,7a5.68,5.68,0,0,1,5.68-5.68A1.35,1.35,0,0,0,95.87,0H1.35A1.35,1.35,0,0,0,0,1.35V12.71a1.35,1.35,0,0,0,1.35,1.35H95.87a1.35,1.35,0,0,0,1.35-1.35A5.68,5.68,0,0,1,91.54,7Zm9.11,2.08a4.23,4.23,0,1,0-1.53,1.53l4.15,4.15,1.53-1.53Zm-1.52,0A3,3,0,1,1,100,7,2.94,2.94,0,0,1,99.13,9.12Z"/></g></g></g></g></svg>