<?xml version="1.0" standalone="no"?>
<!DOCTYPE svg PUBLIC "-//W3C//DTD SVG 1.1//EN" "http://www.w3.org/Graphics/SVG/1.1/DTD/svg11.dtd" >
<svg xmlns="http://www.w3.org/2000/svg" xmlns:xlink="http://www.w3.org/1999/xlink" version="1.1">
<metadata>
Created by FontForge 20161116 at Tue Sep  6 06:45:05 2016
 By Jimmy Wärting
SarahTaylor
</metadata>
<defs>
<font id="Marigold" horiz-adv-x="565" >
  <font-face 
    font-family="Marigold"
    font-weight="500"
    font-stretch="normal"
    units-per-em="1000"
    panose-1="2 0 6 3 0 0 0 0 0 0"
    ascent="642"
    descent="-358"
    x-height="355.5"
    cap-height="745"
    bbox="-199.273 -385.015 1295.23 856.786"
    underline-thickness="50"
    underline-position="-150"
    unicode-range="U+0020-F8FE"
  />
<missing-glyph horiz-adv-x="364" 
d="M66 33h199v576h-199v-576zM33 0v642h265v-642h-265z" />
    <glyph glyph-name=".notdef" horiz-adv-x="364" 
d="M66 33h199v576h-199v-576zM33 0v642h265v-642h-265z" />
    <glyph glyph-name=".null" horiz-adv-x="0" 
 />
    <glyph glyph-name="nonmarkingreturn" horiz-adv-x="333" 
 />
    <glyph glyph-name="space" unicode=" " horiz-adv-x="300" 
 />
    <glyph glyph-name="exclam" unicode="!" horiz-adv-x="321" 
d="M32 70q27 -2 34 -18.5t-5 -32t-30 -13.5q-20 1 -28.5 17.5t0 32t29.5 14.5zM250 673q0 -1 -2 -6l-5 -15v-1l-1 -1v-1l-1 -2v-1v-1l-1 -1v-1l-1 -1v-1v-1l-1 -1v-1v-1h-1v-1v-1v-1h-1v-1v-1l-1 -1v-1v-1l-1 -1v-1v-1l-1 -1v-1v-1h-1v-1v-1l-1 -1v-1v-1l-1 -1v-1v-1h-1v-1
v-1v-1l-1 -1v-1l-1 -1v-1v-1l-1 -1v-1v-1l-1 -1v-1v-1l-1 -1v-1v-1l-1 -1l-60 -167l-60 -167l-19 -55l-6 -15q-2 -5 -2 -6q-3 -9 -13 -6q-7 3 -6 11q-1 1 0 3q0 1 2 6v1v1v1l1 1v1v1l1 1v1v1l1 1v1v1l1 1v2l16 55l47 166l48 166l16 54q2 10 4 16q1 2 1 3v1q-3 9 7 12
q1 0 3 1l5 1q4 1 6 2q6 1 12 1q10 0 19 -5q8 -5 4 -13q0 -2 -1 -3z" />
    <glyph glyph-name="quotedbl" unicode="&#x22;" horiz-adv-x="341" 
d="M175 404q61 84 74 141q0 3 1 5q-17 -20 -41 -18q-25 2 -37.5 21t-6.5 39q-1 30 31.5 40.5t56.5 -12.5q27 -26 15 -79q-13 -61 -77 -149q-6 -8 -14 -2t-2 14zM30 406q61 84 74 141q0 4 1 8q-16 -19 -40 -17t-36 18.5t-9 36.5q-1 31 31.5 41.5t56.5 -12.5q27 -26 15 -79
q-13 -61 -77 -149q-6 -8 -14 -2t-2 14z" />
    <glyph glyph-name="numbersign" unicode="#" horiz-adv-x="552" 
d="M171 300h1h1h1h1h1h1h1h1h1h1h1h1h1h1h1h1h1h1h1h1h1h1h1h1h1h1h1h1h1h1h1h1h1h1h1h1h1h1h1h1h1h1h1h1h1h1h1h1h1h1h1h1h1h1h1h1h1h2l74 -1l4 20l14 88h-64h-70l-16 -98zM25 302h5h13q19 0 46 -1h1h1h1h1h1h1h1h1h1h1h1h1h2h1h1h1h1h1h1h1h1h1h1h2h1h1h1h1h1h1h1h2l2 16
l14 91h-29q-31 0 -48 1h-15q-2 1 -4 1q-5 1 -8 4q-6 8 2 14q4 3 9 2q1 0 3 -1h13q17 -1 49 -1h31l15 103l11 70l3 20q1 6 1 7q1 10 11 9q1 -1 2 -1q18 -3 32 -13q6 -5 3 -12q-1 -3 -1 -5q-1 -8 -3 -19q-5 -29 -11 -69l-15 -91h67h67l16 105q7 41 12 70q2 11 3 19q0 4 1 6v1
q1 9 10 9h1q18 -2 37 -13q7 -4 4 -12v-1q0 -1 -1 -7q-1 -8 -4 -19l-12 -69l-17 -89h67h10.5h11.5h6h1h1q10 0 10 -10t-10 -10h-1h-1h-6h-11.5h-10.5h-70l-19 -101q-1 -5 -1 -8h18q27 -1 47 -1h13h4q10 0 10 -10t-10 -10h-5h-1h-1h-1h-1h-1h-1h-1h-1h-1h-1h-1h-2q-19 0 -46 1
h-22v-1l-1 -2v-1v-2v-1l-1 -2v-1v-1v-2l-1 -1v-2v-1v-1l-1 -2v-1v-1v-2l-1 -1v-1v-1v-2l-1 -1v-1v-1v-2l-1 -1v-1v-1v-1v-1l-1 -2v-1v-1v-1v-1l-1 -1v-1v-1v-2v-1l-1 -1v-1v-1v-1v-1l-1 -1v-1v-1v-1v-1l-1 -1v-1v-1v-1v-1v-1l-1 -1v-1v-1v-1v-1l-1 -1v-1v-1v-1v-1v-1l-1 -1
v-1v-1v-1v-1l-1 -1v-1v-1v-1v-1l-1 -1v-1v-1v-1v-1v-1l-1 -1v-1v-1v-1v-1l-1 -1v-1v-1v-1v-1v-1h-1v-1v-1v-1v-1v-1l-1 -1v-1v-1v-1v-1l-1 -1v-1v-1v-1v-1v-1h-1v-1v-1v-1v-1v-1v-1h-1v-1v-1v-1v-1v-1l-1 -1v-1v-1v-1v-1l-1 -1v-1v-1v-1v-1v-1l-1 -1v-1v-1v-1v-1l-1 -1v-1
v-1v-1v-1l-1 -1v-1v-1v-1v-1v-1l-1 -1v-1v-1v-1v-1l-1 -1v-1v-1v-1v-1v-1l-1 -1v-1v-1v-1v-1l-1 -1v-1v-1v-1v-1l-1 -2q-7 -40 -12 -69l-4 -19q-1 -6 -1 -7q-2 -10 -12 -8h-1q-4 1 -9 3t-7 2t-4 2q-7 3 -6 10q1 1 1 7l1 1v1v1v1v1v1l1 1v1v1v1v1v1v1l1 1v1v1v1v1l1 2l11 70
l27 172h-1h-1h-1h-1h-1h-1h-1h-1h-1h-1h-1h-1h-1h-1h-1h-1h-1h-1h-1h-1h-1h-1h-1h-1h-1h-1h-1h-1h-1h-1h-1h-1h-1h-1h-1h-1h-1h-1h-1h-1h-1h-1h-1h-1h-1h-1h-1h-1h-1h-1h-1h-1h-1h-1h-1h-1h-1h-1h-1h-1h-1h-1h-1h-1h-1h-1h-1h-1h-1l-1 1h-2h-1h-1h-1h-2h-1h-1h-1h-1h-1h-2
h-1h-1h-1h-1h-1h-1h-1h-2h-1h-1h-1h-1h-1h-1h-1h-1h-1h-1h-1h-1h-1h-1h-1h-2h-1h-2h-1h-1h-1h-1h-1h-1h-1h-1h-1h-2h-1h-1h-1h-1h-1h-1h-1h-1h-1l-29 -181l-1 -1v-2v-2v-1l-1 -2v-2v-1v-2l-1 -1v-1v-2v-1l-1 -2v-1v-1v-1v-2l-1 -1v-1v-1v-1v-1v-1l-1 -1v-1v-1v-1v-1v-1v-1
l-1 -1v-1v-1v-1v-1v-1h-1v-1v-1v-1v-1v-1v-1l-1 -1v-1v-1v-1v-1v-1l-1 -1v-1v-1v-1v-1v-1l-1 -1v-1v-1v-1v-1v-2q-2 -11 -4 -19q0 -6 -1 -7q0 -6 -6 -8q-11 -4 -27 -2h-2q-2 0 -3 1q-2 1 -3.5 3t-2.5 4v3v1q0 1 1 6l3 20l11 71l27 178h-32q-28 1 -47 1h-13h-4q-10 0 -10 10
t10 10z" />
    <glyph glyph-name="dollar" unicode="$" horiz-adv-x="861" 
d="M278 88q31 25 64.5 75t53.5 102q25 63 22 111q-4 50 -40 76q-87 28 -129.5 -34t-27.5 -174q13 -89 57 -156zM655 739q-62 -15 -68 -108q-2 -40 4 -101q4 -36 16 -117q3 -23 5 -37q12 -87 15 -140q3 -74 -10 -124q-32 -123 -170 -124q-61 -12 -114 19v-1l-1 -1v-1l-1 -1
v-1h-1v-1v-1h-1v-1l-1 -1v-1v-1h-1v-1l-1 -1l-1 -2l-26 -47l-25 -47l-1 -2l-1 -1l-1 -2v-1l-1 -1v-1l-1 -1v-1h-1v-1l-1 -1v-1l-1 -1l-1 -1q-2 -5 -3 -6q-5 -9 -13 -4q-2 1 -3 2q-4 0 -7 1q-9 5 -4 14q1 1 4 6l9 16l27 48v1l1 2l1 1l1 2l1 1v1l1 2l1 1l1 1v2l1 1l1 1v1l1 1
l1 1v1l1 1v2l1 1v1l1 1l1 1v1l1 1l1 1v1v1h1v1l1 1v1l1 1v1h1v1l1 1v1l1 1v1l1 1v1l1 1v1l1 1v1q3 5 5.5 9t3.5 6q-13 11 -26 25q-5 6 -10 13q-64 -39 -121 -39q-113 0 -160 149q-3 10 6.5 13t12.5 -7q43 -135 142 -135q50 0 108 35q-47 70 -60 164q-17 120 30 188
q49 72 146 44q4 1 7 -1l2 -2l14 -4q46 -18 62.5 -58.5t3.5 -95.5q-12 -48 -44 -99t-76 -94q-27 -27 -56 -47q4 -6 8 -10q60 -67 137 -56q2 2 5 2h1h2q8 1 15 3q89 26 103 133q5 45 -1 110q-3 41 -16 123q0 3 -1 5q-10 69 -14 102q-7 56 -6 96q2 104 52 151q33 32 80 29
q25 -2 49 -15l1 1l1 2q2 5 6 12l1 1l1 2v1l1 1l1 1v1l1 1v1l1 1v1l1 1v1h1v1l1 1v1l1 1v1h1v1v1l1 1l1 1v1l1 1v1l1 1v1h1v1l1 1v1l1 1v1l1 1v1l1 1v1l1 1l21 37l1 2l1 2v1l1 1l1 1v1v1h1v1l1 1l1 2l2 4q5 9 14 4h1q4 1 8 -1q8 -5 4 -14q-1 -1 -3 -5q-3 -5 -7 -12l-22 -39
l-21 -38q-5 -7 -8 -13q0 -1 -1 -3q3 -2 5 -4q37 -32 47 -77q12 -51 -14 -101q-4 -9 -13 -4t-5 13q23 44 13 87q-9 39 -41 66q-29 26 -63 29h-3z" />
    <glyph glyph-name="percent" unicode="%" horiz-adv-x="535" 
d="M135 705q9 4 17 6q36 8 62 -15q28 -25 23 -67q-5 -46 -51 -96q-37 -40 -72 -36q-33 4 -47 42q-12 36 2 80q16 48 60 83q3 3 6 3zM388 9q-24 -16 -46 -13q-33 4 -47 42q-12 36 2 80q16 48 60 83q3 3 6 3q9 4 17 6q36 8 62 -15q28 -25 23 -67q-5 -46 -51 -96l-2 -2
q-11 -14 -24 -21zM140 681q-29 -23 -40 -58q-10 -32 -2 -62q7 -28 23 -38q14 -8 30 7q25 24 35.5 55.5t4.5 60.5q-5 25 -19 35q-13 10 -30 1q-1 -1 -2 -1zM365 177q-21 -13 -31 -42.5t-7 -61.5q3 -30 17 -44q13 -13 32 -3q1 0 2 1q9 6 19 17q28 34 31 81q1 31 -13 45
q-16 16 -50 7zM42 28l5 7l12 21l43 77l131 231l131 231l43 77q7 12 12 21q4 6 4 8q5 8 14 3t4 -13q0 -1 -0.5 -1.5t-1.5 -2t-2 -4.5q-3 -4 -6 -9t-6 -12l-44 -77l-131 -231l-131 -231l-43 -76l-12 -22l-4 -7q-5 -9 -13.5 -4t-4.5 14z" />
    <glyph glyph-name="ampersand" unicode="&#x26;" horiz-adv-x="685" 
d="M275 459q14 16 28 35q44 55 64 93q24 43 23 69q-2 25 -27 37q-41 3 -70.5 -32.5t-34.5 -88.5t17 -113zM172 24q33 1 66 38q23 25 49 68q18 31 47 87q3 6 7 15q1 1 4 7t4 7q6 12 10 21q-18 32 -51 89q-10 18 -16 30q-9 -10 -21 -24q-7 -8 -13 -15q-54 -63 -83 -101
q-41 -53 -60 -92q-44 -88 19 -121q7 -3 13 -5q12 -3 25 -4zM591 424q8 11 3.5 20.5t-17.5 12.5q-56 15 -112 -53q-23 -29 -50 -76q-15 -25 -33 -61q12 -21 24 -44q21 -38 38 -71q74 -146 90 -224q9 -50 -5 -75q-17 -30 -64 -22q-10 2 -8 12t12 8q33 -6 43 12t2 61
q-15 75 -88 219q-17 33 -37 71l-18 32q-2 -4 -5 -9q0 -1 -3 -7t-4 -7q-4 -9 -7 -15q-29 -56 -48 -88q-27 -45 -51 -71q-34 -38 -69 -44q-3 -2 -7 -2q-3 0 -5 1q-15 -1 -31 4q-123 26 -92 130q13 45 59 111q31 45 94 121q7 8 17 20q30 36 42 51v1q-23 49 -24 102.5t19 94.5
q16 36 43 55.5t59 18.5q4 3 8 1q1 -1 2 -1q11 -1 21 -4q53 -16 61 -56q8 -33 -19 -84q-21 -40 -68 -98q-22 -29 -58 -69q8 -13 21 -36q28 -49 44 -78q15 28 27 50q28 49 53 79q64 78 132 59q21 -5 30 -22q10 -20 -5 -42q-6 -8 -14 -2t-2 14z" />
    <glyph glyph-name="quotesingle" unicode="'" horiz-adv-x="211" 
d="M45 390q61 84 74 141q0 3 1 5q-17 -20 -41 -18q-25 2 -37.5 21t-6.5 39q-1 30 31.5 40.5t56.5 -12.5q27 -26 15 -79q-13 -61 -77 -149q-6 -8 -14 -2t-2 14z" />
    <glyph glyph-name="parenleft" unicode="(" horiz-adv-x="523" 
d="M418 663q12 5 23 9q9 3 12.5 -6.5t-6.5 -12.5l-4 -2q-2 -2 -4 -3q-7 -1 -13 -4q-85 -37 -166.5 -133.5t-125.5 -212.5q-52 -136 -32 -250q23 -130 135 -207q8 -5 2 -13.5t-14 -2.5q-2 1 -3 2q-5 -1 -8 2q-133 102 -160 244q-22 123 37 259q53 120 153 216q87 85 174 115z
" />
    <glyph glyph-name="parenright" unicode=")" horiz-adv-x="488" 
d="M49 -163q-11 -5 -22 -9q-9 -3 -12.5 6.5t6.5 12.5l4 2q2 2 4 2q7 2 13 5q85 37 166.5 133.5t124.5 212.5q51 136 31 251q-23 129 -135 206q-8 6 -2.5 14t14.5 3q1 -2 3 -3q4 1 8 -2q133 -101 160 -243q23 -123 -36 -259q-53 -120 -152 -217q-88 -84 -175 -115z" />
    <glyph glyph-name="asterisk" unicode="*" horiz-adv-x="385" 
d="M127 517q-25 24 -51 62q-14 22 -22 38q-5 9 -6 14q-2 4 -2 7q0 7 6 10q8 6 19 -2q6 -4 13 -13q13 -14 30 -41q14 -22 30 -50q8 30 25 67q12 23 21 39l9 12q3 3 5 4q6 4 12 1q9 -5 8 -17q0 -8 -4 -19q-6 -17 -20 -46q-15 -29 -33 -59q33 5 79 2q26 -2 44 -5q9 -2 15 -4
q3 -2 6 -3q5 -4 5 -11q-1 -10 -14 -14q-6 -2 -18 -3q-19 -1 -50 2q-32 3 -67 8q15 -30 26 -72q7 -26 9 -44q1 -9 1 -15q0 -4 -1 -7q-2 -6 -9 -8q-9 -2 -17 8q-4 6 -8 17q-7 17 -15 49q-8 34 -14 70q-31 -17 -81 -30q-25 -6 -44 -9q-9 -1 -15 -1l-6 2q-7 2 -8 8q-2 10 8 17
q6 5 17 9q17 7 48 14q33 8 69 13z" />
    <glyph glyph-name="plus" unicode="+" horiz-adv-x="454" 
d="M20 338q2 4 8 5q1 1 4 1h11q14 1 40 1q41 0 113 -2q2 49 4 93q0 24 1 40v11q1 3 1 4q0 10 10 9.5t10 -10.5l-1 -4v-11q-1 -16 -1 -40q-3 -70 -4 -92q25 0 46 -1q38 0 79 -1q13 -1 24 -1h7v0h2q10 0 10 -10t-10 -10h-1h-1h-1h-6q-12 0 -24 1q-41 1 -80 1q-24 1 -46 1v-8
q-3 -66 -5 -121q-1 -23 -1 -39q-1 -7 -1 -11v-4q0 -10 -10 -10t-10 10v4q0 5 1 11q0 17 1 40q2 55 5 121v8q-71 1 -112 1q-25 0 -39 -1h-10q-4 -4 -10 0q-9 5 -4 14zM34 324q2 1 3 4q-1 -2 -3 -4z" />
    <glyph glyph-name="comma" unicode="," horiz-adv-x="174" 
d="M28 64q-1 3 -1 6q0 11 8 19t20 11q24 4 40 -14q17 -22 5 -59q-15 -41 -66 -97q-7 -7 -14.5 -0.5t-0.5 14.5q48 51 61 88q-11 -8 -24 -5q-15 3 -22.5 13.5t-5.5 23.5z" />
    <glyph glyph-name="hyphen" unicode="-" horiz-adv-x="373" 
d="M62 280h2h4h4h26q36 0 79.5 0.5t80.5 0.5h26h7h3q10 0 10 -10t-10 -10h-3h-7h-26q-36 0 -80 -0.5t-80 -0.5h-26h-4h-4h-2q-10 0 -10 10t10 10z" />
    <glyph glyph-name="period" unicode="." horiz-adv-x="176" 
d="M74 56q24 -1 30.5 -16t-4.5 -28.5t-27 -12.5q-18 1 -25.5 16t0 29t26.5 12z" />
    <glyph glyph-name="slash" unicode="/" horiz-adv-x="553" 
d="M10 37l5 6l14 20l52 69l157 211l157 211l1 2l1 2l1 1l2 2l1 2l1 1l1 2l1 1l1 2l1 1l1 2l1 1l1 1l1 2l1 1l1 1l1 1l1 2l1 1l1 1v1l1 1l1 1l1 1l1 1v1l1 1l1 1v1l1 1l1 1l1 1l1 1v1l1 1v1h1l1 1v1l1 1v1h1l1 1v1l1 1v1h1l1 1v1l1 1v1l1 1h1v1l1 1l1 1v1l1 1l1 1v1l1 1l1 1
l1 1v1l1 1q9 12 15 19q4 6 5 7q6 8 14 2t2 -14q-1 -1 -5 -7l-1 -1l-1 -1l-1 -1v-1h-1v-1l-1 -1v-1h-1v-1l-1 -1l-1 -1v-1h-1l-1 -1v-1l-1 -1v-1h-1l-1 -1v-1l-2 -2l-51 -70l-157 -211l-157 -210l-52 -70l-14 -19l-5 -7q-6 -8 -14 -2t-2 14z" />
    <glyph glyph-name="zero" unicode="0" horiz-adv-x="606" 
d="M398 678q-58 -1 -130.5 -88t-116.5 -208q-46 -129 -33 -226q15 -108 104 -144q2 -1 3 -2q32 6 65 25q80 46 143.5 150.5t78.5 213.5q17 118 -34 193q-36 54 -81 29q-43 -24 -72 -94t-16 -117q13 -48 73 -34q10 3 12.5 -7t-7.5 -12q-38 -9 -63.5 3.5t-33.5 44.5
q-15 53 16 129q32 77 81 104q61 34 108 -35q54 -81 37 -207q-15 -113 -81 -221q-67 -109 -151 -158q-95 -55 -176 -8q-91 53 -98 174q-6 104 51 230q55 119 139 200q92 87 175 84h1h5q10 1 10.5 -9t-9.5 -10z" />
    <glyph glyph-name="one" unicode="1" horiz-adv-x="363" 
d="M292 683q-22 -92 -89 -316q-1 -5 -3 -12q-22 -75 -28 -96q-16 -54 -27 -92q-26 -90 -40 -142q0 -2 -1 -4q0 -2 -1 -5q-1 -7 -8 -7q-17 -15 -43 -18.5t-44 8.5q-5 5 -3 11v2q1 2 2 5q2 8 5 18q10 31 20 64q32 106 58 194l1 1q60 199 78 257q-7 -6 -14 -11q-56 -45 -90 -47
q-24 -2 -36 15t-10 50q0 10 10 9.5t9 -10.5q0 -26 7 -37q6 -8 18 -7q28 2 79 42q44 35 87 83q40 43 45 58q3 9 12.5 6t6.5 -13q0 -1 -1 -1q1 -3 0 -5z" />
    <glyph glyph-name="two" unicode="2" horiz-adv-x="738" 
d="M235 116q-32 16 -56 23q-66 17 -114 -33q-39 -38 -37 -59q1 -14 25 -21q7 -2 16 -3q81 19 166 93zM118 493q-16 70 4 120t73 77q41 22 97 27t108 -7q106 -23 131 -126q22 -90 -26 -214q-46 -121 -137 -219q-27 -30 -57 -55q9 -6 12 -7q48 -29 77 -43q44 -21 81 -26
q90 -15 171 56q7 7 14 -0.5t-1 -14.5q-88 -77 -188 -61q-39 6 -85 28q-30 14 -80 44q-1 0 -3 1.5t-4.5 3t-4.5 2.5l-4 2l-1 1h-1q-66 -51 -136 -74q-16 -5 -47 -7q-22 -1 -41 2q-3 -1 -6 0q-9 2 -16 4q-38 10 -40 38q-2 30 42 76q57 57 134 37q29 -8 67 -27q8 7 16 15
q98 98 152 219q57 127 35 215q-23 97 -140 117q-2 0 -4 1q-62 -3 -106 -26q-96 -50 -67 -174q2 -10 -7.5 -12t-11.5 7z" />
    <glyph glyph-name="three" unicode="3" horiz-adv-x="644" 
d="M570 680l-2 -2q-3 -2 -8 -5l-27 -20l-81 -60l-82 -60l-1 -1l-1 -1l-1 -1h-1l-2 -2l-1 -1l-1 -1l-2 -1l-1 -1h-1l-1 -1l-1 -1l-1 -1h-1l-1 -1l-1 -1h-1v-1l-1 -1h-1l-2 -2q65 -34 97.5 -86.5t30.5 -116.5q-2 -60 -33 -121.5t-85 -113.5q-91 -87 -213 -82q-5 0 -7 3
q-48 1 -85.5 36.5t-44.5 86.5q-8 57 29 109q41 58 133 96q9 4 13 -5.5t-6 -13.5q-86 -35 -124 -89q-32 -45 -25 -95q6 -44 39.5 -75t73.5 -30q40 2 87 34q34 24 79 71q24 23 46.5 66.5t32.5 87.5q29 121 -41 181q-31 27 -59 37q-9 3 -17 4h-4q-1 1 -2 1q-7 -1 -9.5 6t2.5 11
l3 3q3 2 8 5l27 20l81 62l82 62l16 11h-1h-1h-1h-1h-2h-1h-1h-1h-1h-1h-1h-1h-1h-1h-1h-1h-1h-1h-1h-1h-1h-1h-1h-1h-1h-1h-1h-1h-1v1h-1h-1h-1h-1h-1h-1h-1h-1h-1h-1h-1h-1h-1h-1h-1h-1h-1h-1h-1h-1h-1h-1h-1h-1h-1h-1h-1h-1h-1h-1h-1h-1h-1h-1h-1h-1h-1h-1h-1h-1h-1h-1h-1
h-1h-1h-1h-1h-1h-1h-1h-1h-1h-1h-1h-1h-1h-1h-1h-1h-2q-69 1 -126 1h-42h-11q-4 0 -5 1q-10 0 -9.5 10t10.5 9h1h3h11h42q57 0 126 -1t126 -1h42h11t5 -1q10 0 9 -10q1 -5 -4 -9z" />
    <glyph glyph-name="four" unicode="4" horiz-adv-x="622" 
d="M274 804q20 -83 -6 -169q-18 -59 -71 -149q-4 -7 -9 -16q-2 -3 -5 -8q-4 -7 -5 -8q-49 -83 -67 -128q13 3 33 7.5t33 7.5t17 4q10 2 18 4q93 20 141 28q17 54 28 92q12 40 19 61q4 11 6 17q-1 6 3 9q0 1 2 2l4 2q16 12 30 17q21 8 42 3q9 -1 8 -10q1 -2 0 -3q0 -1 -2 -6
q-2 -7 -5 -18l-18 -62l-29 -100q33 -5 60 -16q30 -13 43 -30q17 -23 0 -49q-6 -8 -14 -2.5t-3 13.5q9 14 1 26q-9 13 -35 23q-25 11 -58 16l-20 -70l-55 -189l-18 -62l-1 -1v-2v-1l-1 -2v-1v-1l-1 -1v-1v-1v-1h-1v-1v-1v-1l-1 -1v-1v-1q3 -7 -3 -12q-36 -29 -85 -12
q-9 3 -6 13q1 1 2 3q0 1 1 3q2 9 5 18q9 29 18 61q30 101 56 186q0 2 1 4q11 37 21 69q-47 -9 -130 -27l-18 -4q-4 0 -61.5 -13t-69.5 -15l-42 -9q-8 -1 -12 -2h-5t-4 2q-9 4 -4 13q43 83 100 165q9 13 22 31q1 2 10 14t11 15q24 33 37 54q32 51 48.5 99t22.5 112q0 4 3 7v1
q-3 10 7 12.5t12 -7.5z" />
    <glyph glyph-name="five" unicode="5" horiz-adv-x="704" 
d="M625 681h-5h-3.5h-3.5h-5h-45h-134q-61 -1 -122 -1l-1 -1q-1 -3 -2 -8l-1 -1v-1v-1v-1l-1 -1v-1v-1l-1 -1v-1v-1v-1h-1v-1v-1v-1l-1 -1v-1v-1v-1h-1v-1v-1v-1l-1 -1v-1v-1h-1v-1v-1l-1 -2l-25 -85l-26 -86l-6 -20q32 12 64 15q76 10 141 -28q57 -32 61 -115
q5 -76 -35 -157q-42 -85 -113 -132q-78 -51 -168 -38h-13q-6 -1 -9 4q-99 23 -123 93q-23 63 20 134q19 31 46 52.5t56 26.5q71 13 110 -69q4 -9 -5 -13.5t-14 4.5q-32 69 -88 58q-24 -4 -47.5 -23t-40.5 -47q-38 -62 -19 -116q23 -65 122 -83h5q54 7 116 63t96 129
q38 83 17 143q-23 69 -124 90q-2 0 -4 2q-44 -8 -91 -33q-20 -11 -43 -26l-2 -2q-2 -1 -4 -2.5l-4 -3t-3 -1.5q-2 -2 -4 -3t-3 -1q-5 -1 -9 1q-4 3 -5 9v5q1 4 2 11q3 13 11 36q12 38 34 104q2 6 4 11q16 46 35 99q6 17 12 32q1 5 3 9q0 1 1 2v1q3 6 9 6h5q2 0 5.5 0.5
t6.5 0.5h45h134l135 1h45h12h4q10 0 10.5 -10t-9.5 -10z" />
    <glyph glyph-name="six" unicode="6" horiz-adv-x="616" 
d="M136 254q-12 -49 -12 -91q2 -102 76 -151l2 -2q40 2 77 24q36 21 63.5 56.5t39.5 74.5t5 69.5t-32 46.5q-65 40 -219 -27zM482 667q-79 -19 -164 -102.5t-139 -194.5q-23 -46 -37 -91q153 62 224 19q31 -20 40 -57.5t-5 -81.5q-13 -43 -43 -81t-69 -61q-96 -57 -194 0
q-43 24 -53 107q-8 75 13 150q49 173 152 286q87 96 186 124q44 13 80.5 7.5t55.5 -28.5q44 -52 -16 -149q-5 -8 -13.5 -3t-3.5 14q53 84 18 125q-11 12 -29 18q-1 -1 -3 -1z" />
    <glyph glyph-name="seven" unicode="7" horiz-adv-x="612" 
d="M109 343q0 -4 4 -6q7 -3 22 -1q20 1 66 13q2 4 5 8q101 171 205 288q-15 -2 -30 -1q-31 0 -65 6q-23 5 -57 15q-1 0 -11.5 3t-12.5 4q-14 4 -23 6q-25 6 -42 7q-41 1 -72 -28q-27 -26 -27 -50q0 -20 17 -35q15 -13 34 -15t25 9q5 8 13.5 3t3.5 -14q-13 -20 -40 -18.5
t-50 20.5q-23 21 -23 50q0 33 34 65q36 35 86 33q19 -1 46 -8q9 -2 23 -6q3 -1 13.5 -4t11.5 -3q69 -20 116 -20q73 -1 147 36q9 5 13 -4q3 -6 -1 -11q0 -3 -3 -5q-98 -90 -207 -263q-15 -23 -29 -47h12q22 1 33 -9q13 -11 7 -34q-3 -10 -12.5 -7t-6.5 12q3 11 -1 14
q-5 5 -20 4q-11 0 -25 -2q-92 -158 -160 -331q0 -4 -3 -7l-2 -2q-12 -10 -25 -13q-9 -2 -21 -1q-6 1 -22 4q-8 2 -7 10q-1 2 0 4q38 135 139 313q-32 -8 -50 -9q-21 -2 -32 3q-16 7 -15 25q0 10 10 9.5t9 -10.5z" />
    <glyph glyph-name="eight" unicode="8" horiz-adv-x="606" 
d="M189 14q41 6 88 27.5t80 50.5q38 34 48 71q10 42 -19 84q-8 11 -20 23q-16 16 -46 40q-2 2 -10 8t-18 14t-16 12q-35 -18 -65 -36q-61 -37 -108 -80q-31 -29 -43 -66.5t0 -70.5t45 -53.5t84 -23.5zM382 689q-61 -20 -101.5 -60t-52.5 -94q-10 -50 26 -91q15 -18 41 -37
q11 -8 26 -18q58 28 72 36q57 30 84 55q33 31 37 69q10 77 -26 103q-31 22 -77 2q-46 -21 -59 -61q-14 -45 32 -86q8 -6 1.5 -13.5t-14.5 -1.5q-56 49 -38 107q8 23 26.5 42.5t43.5 30.5q56 25 96 -3q46 -33 35 -123q-6 -45 -43 -81q-29 -27 -88 -58q-14 -7 -63 -31
q3 -1 6 -3q50 -32 71 -50q36 -31 50 -63q18 -31 17 -68q-3 -63 -37 -107q-29 -38 -79 -60q-40 -18 -90 -26q-36 -6 -73 -5h-16h-2q-57 4 -94.5 27.5t-51.5 63.5q-14 39 -0.5 81.5t49.5 76.5q48 44 111 82q27 17 58 33q-39 31 -64 57q-18 20 -32 40q-9 12 -15 25l-6 12
q-2 4 -1 7q-5 22 0 45q8 44 41 79q27 28 71 49q33 16 74 27q28 7 54 10q10 2 11.5 -8t-8.5 -11q-1 -1 -2 -1z" />
    <glyph glyph-name="nine" unicode="9" horiz-adv-x="610" 
d="M95 21q50 1 139 87q93 90 157 206q29 52 45 99q-61 -44 -126 -48q-72 -4 -115 41q-45 46 -28 112q18 73 106 136q30 22 58 34q2 1 4 1q35 13 67 10q53 -5 98 -52q55 -60 35 -182q-18 -111 -90 -228q-74 -120 -167 -185q-96 -66 -185 -51v1h-4l-14 4q-23 6 -37.5 33.5
t-15.5 59.5q0 34 16 53q20 24 55 17q10 -3 8 -12.5t-12 -7.5q-23 5 -35 -9t-11.5 -40.5t11.5 -48.5t27 -26zM447 447q12 49 9 88q-7 103 -118 134q-26 -11 -54 -31q-82 -59 -98 -124q-14 -56 23 -94t100 -35q71 4 138 62z" />
    <glyph glyph-name="colon" unicode=":" horiz-adv-x="194" 
d="M88 337q-31 -1 -40 16.5t2.5 36t31.5 18.5q23 0 34 -17.5t3 -35.5t-31 -18zM90 2q-31 -1 -40.5 17t2 36.5t32.5 19.5q23 0 34.5 -18t3 -36t-31.5 -19z" />
    <glyph glyph-name="semicolon" unicode=";" horiz-adv-x="188" 
d="M82 333q-32 -1 -42 18t2.5 38.5t33.5 19.5q25 0 36.5 -18.5t3 -38t-33.5 -19.5zM80 122q17 -7 23 -29t-1 -49q-15 -63 -74 -95q-9 -5 -13.5 4t4.5 13q50 28 63 82q-8 -4 -18 -4q-34 -1 -44.5 19t2.5 40t36 21q8 0 15 -2q3 1 7 0z" />
    <glyph glyph-name="less" unicode="&#x3c;" horiz-adv-x="505" 
d="M429 491l-4 -2q-4 -1 -11 -4l-39 -14l-120 -44l-120 -44l-39 -14l1 -1l1 -2l1 -1l1 -1h1l1 -1l1 -1l1 -1l1 -1l1 -1l1 -1h1v-1l1 -1h1v-1l1 -1h1l1 -1v-1l1 -1h1l1 -1l1 -1l1 -1v-1l1 -1h1l1 -1l2 -2l86 -81l86 -81l28 -26l2 -2l1 -1l1 -1l1 -1l1 -1l1 -1l1 -1l3 -3
q7 -6 0 -13.5t-14 -0.5l-3 3l-1 1h-1v1l-1 1h-1l-1 1v1l-1 1l-2 1l-28 27l-86 81l-86 80l-28 27l-2 2l-1 1l-1 1l-1 1l-1 1h-1l-1 2q-2 2 -3 2q-4 4 -2.5 9.5t6.5 7.5h1l1 1h2q4 2 11 4l39 15l120 44l120 44l39 14l2 1h1l2 1h1h1l1 1h1l1 1h1q4 1 4 2q10 3 13.5 -6.5
t-6.5 -12.5z" />
    <glyph glyph-name="equal" unicode="=" horiz-adv-x="509" 
d="M88 442h4h11q16 0 38 -1q54 0 118 -1t117 -1q23 0 39 -1h11h4q10 0 10 -10t-10 -10h-4h-11q-8 0 -17.5 0.5t-21.5 0.5h-38t-33.5 0.5t-45.5 0.5q-65 1 -118 1q-23 1 -39 1h-11h-3q-10 0 -10 10t10 10zM86 284h1h3h11h39q54 -1 118 -2q39 0 59 -1h59q14 -1 23 -1h16h11h4
q10 0 10 -10t-10 -10h-4h-11h-10h-6.5t-9.5 0.5t-13 0.5q-54 0 -118.5 1t-117.5 2h-2h-2h-1h-2h-1h-2h-1h-2h-1h-1h-1h-1h-1h-1h-1h-1h-1h-1h-1h-1h-1h-1h-1h-1h-1h-1h-1h-1h-1h-1h-1h-1h-1h-1h-11h-4q-10 0 -10 10t10 10z" />
    <glyph glyph-name="greater" unicode="&#x3e;" horiz-adv-x="497" 
d="M420 250q-1 -1 -4 -2q-2 0 -5 -1t-7 -3l-41 -14l-128 -42l-127 -43h-1l-2 -1l-2 -1h-1l-2 -1h-1h-2l-1 -1h-1l-1 -1h-2l-1 -1h-1h-1l-1 -1h-1h-1l-1 -1h-1h-1l-1 -1h-1h-1l-1 -1h-1h-1l-1 -1h-1h-1l-1 -1h-1h-1l-1 -1h-1h-1l-2 -1q-7 -2 -11 -4l-4 -1q-10 -3 -13 6.5
t6 12.5q1 0 4 1q5 2 12 4l42 14l127 43l127 42l2 1h2l1 1l2 1h1l2 1h1h2l1 1h1l2 1h1l1 1h1h1l1 1h1h1l1 1h1h1h1l1 1h1l1 1h1h1l1 1h2q-10 9 -28 25q-34 30 -94 83l-2 2q-42 38 -92 83q-15 14 -30 27q-4 4 -8 7l-2 2l-1 1q-8 7 -1 14t14 1l1 -1l1 -1l1 -1q4 -3 9 -8
q14 -13 30 -27q49 -45 91 -82q1 -1 3 -2q59 -53 93 -83q20 -17 30 -26q5 -4 8 -6q9 2 12 -7t-7 -12z" />
    <glyph glyph-name="question" unicode="?" horiz-adv-x="409" 
d="M20 533q5 38 51 81q43 40 99 67q48 22 86 25q3 2 6 1h11q53 -3 63 -53q3 -16 3 -33q1 -64 -38 -141q-28 -53 -86 -132l-36 -46q-20 -27 -32 -44q-33 -47 -45 -78q-3 -8 -12 -6q-3 -1 -6 0q-10 3 -7 12q4 12 37 65q46 75 67 111q27 48 46 88q93 189 30 236q-34 -2 -79 -23
q-54 -26 -94 -64t-44 -68q-1 -10 -11 -9t-9 11zM47 11q-25 -1 -32.5 13.5t2 29.5t26.5 15q19 0 28 -14t2 -29t-26 -15z" />
    <glyph glyph-name="at" unicode="@" horiz-adv-x="628" 
d="M357 414q16 73 2 101q-5 8 -12 11q-35 -16 -68.5 -63t-56.5 -108q-21 -58 -23 -103q-2 -41 13 -50q3 1 5 3q44 27 98 105q30 43 56 93q-3 -2 -6 -1q-10 2 -8 12zM358 677q-83 -37 -159 -124.5t-113 -188.5q-41 -109 -21 -197q22 -98 117 -153q1 0 2 -1q53 -12 131 21.5
t120 85.5q7 8 14.5 2t1.5 -14q-46 -58 -130 -93t-143 -21q-122 28 -157 150q-31 107 13 244q43 135 133 223q100 97 213 86q73 -7 122 -46.5t55 -97.5q9 -86 -29 -180q-33 -83 -79 -121q-24 -20 -43 -16q-22 3 -30 34q-8 37 5 110q-36 -67 -77 -118.5t-76 -73.5
q-26 -16 -45 -12q-21 5 -26 35q-11 54 38 194q16 46 51 86.5t70 52.5q42 15 60 -20q17 -33 3 -107q13 27 24 54l6 20q2 9 12 6q1 0 3 -1q9 -3 5.5 -12.5t-7.5 -19.5q-38 -137 -26 -189q4 -18 13 -20q10 -1 27 12q42 35 73 114q36 89 28 170q-5 50 -49 85t-110 42h-18
q-1 0 -2 -1z" />
    <glyph glyph-name="A" unicode="A" horiz-adv-x="1365" 
d="M429 456q-42 -23 -70.5 -58.5t-38.5 -74t-12.5 -81.5t7.5 -81q63 32 106 76q78 80 64 166q-8 52 -56 53zM932 353q10 24 23 53q10 22 25 54l12 26q7 15 11 25q27 59 41 93q34 82 34 113q-65 -18 -138 -101q-40 -45 -87 -115q-33 -49 -85 -135q-5 -7 -11 -17
q-8 -14 -11 -18q-9 -16 -16 -26h2q23 5 56 13q5 2 18.5 5t26.5 7l13 3q33 8 55 13q16 4 31 7zM570 317q-4 -19 11 -25q17 -8 57 -4q26 3 65 11q2 4 5 8q8 14 21 35l11 17q6 11 11 18q52 86 85 135q48 71 89 118q103 116 197 112q22 -1 29 -22q4 -13 1 -35q-1 -12 -5 -25
q-1 -6 -3 -11l-2 -8q-11 -34 -46 -122q-37 -92 -59 -146q55 8 96 6q53 -2 84 -22q35 -22 40 -67q1 -10 -9 -11t-11 9q-7 67 -105 71q-43 2 -103 -8q-1 0 -1.5 -1.5t-0.5 -2.5q-17 -42 -30 -78q-54 -142 -75 -230q-26 -109 -7 -147q23 -46 76 -16q49 28 117 115
q54 68 109 159q46 73 59 104q4 9 13 5t5 -13q-14 -32 -59 -107q-57 -91 -111 -160q-71 -90 -123 -120q-41 -24 -71 -11q-2 0 -4 1q-104 37 -95 175q6 102 78 276q6 15 13 30l-16 -4q-23 -5 -55 -13l-13 -3q-13 -3 -26.5 -6.5t-19.5 -4.5q-33 -8 -55 -13q-12 -3 -22 -5
q-18 -29 -32 -52q-47 -74 -84 -119q-81 -99 -150 -108q-95 -12 -153 60q-20 24 -33 55q-7 -2 -15 -5q-115 -35 -188 -2q-86 38 -67 153q2 10 12 8t8 -12q-17 -99 55 -131q67 -30 174 4l14 4q-13 42 -15 88q-4 98 42 169q51 81 142 83q69 2 80 -69q15 -97 -70 -184
q-47 -48 -116 -82q18 -71 49 -110q35 -15 79 -9q61 8 136 101q36 44 83 117q11 16 22 35q-27 -5 -48 -7q-46 -4 -67 5q-29 13 -23 48q2 10 12 8t8 -12z" />
    <glyph glyph-name="B" unicode="B" horiz-adv-x="852" 
d="M611 710q-41 -43 -75 -101q-45 -79 -89 -218q-2 -7 -4 -13q20 -5 61 -18q3 -1 5 -1q45 -15 71 -19q39 -5 74 4q90 23 106 96q15 68 -36 151q-42 69 -113 119zM437 358q-1 -4 -2.5 -9t-6.5 -22.5t-6 -18.5q-27 -89 -45 -136q-27 -71 -58 -118q-6 -9 -12 -17q31 -10 52 -16
q39 -10 68 -10q70 -1 111 60q47 69 23 144q-38 124 -124 143zM213 49q-16 5 -32 8q-48 12 -82 5q-21 -4 -42.5 -21t-31.5 -37q-11 -20 -5 -35q7 -17 36 -24q77 -21 137 70q10 15 20 34zM695 793q1 -1 2 -3q6 -8 -3 -13q-37 -23 -68 -53q72 -51 115 -122q55 -91 38 -167
q-19 -84 -121 -111q-38 -10 -81 -3q-24 3 -59 14q6 -6 12 -13q31 -38 51 -101q26 -84 -27 -162q-47 -69 -127 -68q-32 0 -73 11q-24 6 -60 19q-72 -86 -187 -100q-4 -1 -6 1q-24 -4 -51 3q-36 10 -47.5 34.5t4.5 53.5q12 25 37.5 44.5t50.5 24.5q38 7 90 -5q18 -4 37 -10
q12 24 24 54q20 50 48 134q2 5 16.5 50t18.5 57q33 99 59 161q35 86 73 141q37 55 78 86q-57 25 -117 30q-86 0 -169 -60q-80 -57 -130 -149q-51 -94 -47 -186q3 -101 73 -171q4 -4 0 -7l-1 -1q0 -1 -1 -1q-3 -10 -12 -6q-76 25 -104 121q-25 91 4 198q31 113 111 188
q91 86 221 95q99 6 192 -37q58 36 130 32q3 0 6 -3z" />
    <glyph glyph-name="C" unicode="C" horiz-adv-x="828" 
d="M408 693q-102 -51 -168 -154q32 -3 103 -12h1q81 -10 120 -13q64 -5 110 0q109 11 149 83q39 70 -20 103.5t-176 19.5q-59 -8 -119 -27zM528 731q32 4 54 4q-27 0 -54 -4zM-74 403q31 114 160 135q29 5 65 5q50 71 141 122q107 59 232 74q124 15 189 -21
q36 -21 43.5 -54.5t-15.5 -76.5q-45 -81 -165 -93q-47 -5 -113 0q-40 3 -121 13h-2q-77 10 -111 13q-38 -65 -51.5 -137t-3 -140t52.5 -127t113 -95q57 -5 114 18q128 52 226 222q5 9 14 4t4 -14q-102 -176 -236 -230q-121 -48 -228 12q-50 28 -86 75.5t-52 107.5
q-37 134 28 279q6 14 14 28q-27 -1 -49 -5q-116 -19 -143 -121q-3 -9 -12.5 -6.5t-7.5 12.5z" />
    <glyph glyph-name="D" unicode="D" horiz-adv-x="901" 
d="M588 721q-36 -57 -73 -154.5t-63 -184t-67.5 -181.5t-88.5 -151q42 -23 65 -34q40 -17 73 -21q113 -13 202 33q82 43 129 127q46 83 46 186t-48 197q-31 61 -97 122q-36 32 -78 61zM151 -13q36 31 68 82q-14 7 -28 12q-40 16 -76 15q-22 -1 -43 -20t-30 -47
q-9 -26 -2 -44q7 -17 32 -19q42 -3 79 21zM370 434q32 95 55 153q39 97 79 155q8 11 16 21q-140 77 -259 42q-44 -25 -85.5 -65.5t-75 -97t-50 -117.5t-5 -132.5t55.5 -136.5l14 -8q9 -5 4.5 -13.5t-12.5 -4.5q-46 23 -72.5 69.5t-32.5 109.5q-10 124 54 243q70 129 190 169
q132 44 287 -42q36 41 78 60q65 30 144 6q10 -3 7 -13t-13 -7q-12 4 -23 6q-71 -14 -127 -93q44 -30 80 -63q69 -63 102 -127q50 -99 50 -207t-49 -195q-50 -90 -137 -136q-94 -49 -213 -35q-37 4 -79 23q-25 11 -70 37q-71 -77 -164 -84q-23 -7 -49 -5q-37 2 -49 32
q-10 24 1.5 57.5t37.5 56.5t55 24q39 1 83 -16q15 -6 31 -13q14 23 27.5 52t23.5 51t25 61.5t21 57t23 65.5t21 60zM376 822q-23 16 -62 5z" />
    <glyph glyph-name="E" unicode="E" horiz-adv-x="687" 
d="M510 723q-1 0 -2 -1q-107 -30 -153 -116q58 -10 99 -9q105 1 140 73q13 28 -20 43q-25 10 -64 10zM334 445q8 -30 24 -51q28 -2 45 8q20 11 7 29q-11 16 -35 22q-20 -2 -41 -8zM-193 514q23 136 153 153q50 6 124 -5q47 -7 136 -27q4 -1 9 -2q29 -7 47 -11q22 40 64 68
q55 39 129 50q69 10 112 -9q25 -11 33 -29t-2 -40q-40 -84 -158 -85q-44 -1 -108 10q-5 -10 -8 -21q-13 -43 -10 -88q27 1 49 -4q5 0 8 -3q27 -9 41 -28q12 -17 8.5 -32.5t-20.5 -25.5q-32 -19 -76 -8q-41 11 -65 43q-93 -48 -139 -126q-41 -70 -25 -141q19 -82 115 -153
q2 -1 3 -3q60 -4 121.5 19t108.5 67q36 33 66 84q20 33 50 97q1 2 2 5q3 5 3 6q9 19 14 29q4 9 13 5t5 -13q-5 -11 -14 -30q0 -1 -2 -5q-2 -3 -3 -5q-30 -65 -51 -99q-32 -53 -69 -88q-52 -49 -119 -73t-133 -18q-71 6 -123.5 48t-76.5 115q-30 88 18 169q40 69 124 117
q44 25 92 39q-11 45 3 106q4 16 11 32q-17 3 -43 9q-5 1 -8 2q-89 21 -135 27q-71 11 -119 5q-58 -7 -91 -40t-44 -97q-2 -10 -12 -8t-8 12z" />
    <glyph glyph-name="F" unicode="F" horiz-adv-x="1070" 
d="M830 824q-3 -3 -7 -3q-56 -4 -100 -64q13 -4 17 -5q34 -9 56 -15q60 -14 97 -18q43 -5 64 3q21 7 23 29q4 31 -40 50q-28 13 -71 19q-21 3 -39 4zM178 491q-56 1 -97 -55q-51 -70 -55 -179q-2 -67 17 -121q2 1 3 2t2 3q10 11 37 38q29 29 45 46q60 64 84.5 111.5
t18.5 83.5q-7 41 -55 71zM420 799h-24q-97 0 -138 -48q-23 -27 -18 -43q5 -12 29 -9q35 4 81 38q34 24 70 62zM367 516q-4 -10 -4 -15q0 -3 1 -4q6 -5 28 -4q21 2 58 11q22 6 72 19q1 1 2 1q3 1 5 1q2 5 3 8q0 1 1 5v1l1 2v1q24 82 39 121q24 60 54 98q-14 4 -27 7
q-93 23 -155 29q-42 -47 -83 -77q-51 -36 -90 -41q-41 -5 -51 23q-8 26 21 61q47 56 154 56q20 0 41 -1q14 15 27 32q6 8 14 2t2 -14q-9 -12 -19 -23q59 -7 144 -28q17 -4 37 -9q80 84 229 62q47 -7 77 -20q25 -11 38 -27q17 -19 14 -44q-4 -34 -36 -46q-26 -10 -74 -4
q-37 4 -98 19q-23 6 -57 14q-6 2 -24 7q-3 -4 -5 -8q-34 -57 -76 -181q14 3 25 4q31 2 44 -7q18 -12 8 -40q-4 -9 -13 -5.5t-6 12.5q3 8 2 13q0 2 -2 4q-8 5 -31 3q-15 -1 -34 -5q-1 -3 -2 -5l-7 -23q-8 -23 -16 -48t-12 -36q-32 -95 -59 -156q-36 -83 -78 -137
q-102 -134 -258 -123q-2 0 -4 1q-79 4 -127 63q-16 19 -27 44q-71 -30 -124 -23q-53 8 -81 51q-30 47 -27 132q0 10 10 10t10 -10q-2 -79 24 -121q23 -36 67 -42q48 -6 113 22q-22 58 -19 129q4 116 59 191q30 41 69 55.5t83 -0.5q56 -19 73 -60.5t-5 -95.5
q-19 -46 -61.5 -95t-97.5 -89q-38 -27 -75 -45q10 -23 24 -40q61 -75 176 -50q58 14 142 167q51 96 102 225q12 32 28 83q-46 -13 -68 -18q-38 -10 -61 -11q-31 -3 -43 8q-16 14 -2 42q5 9 14 5t4 -13z" />
    <glyph glyph-name="G" unicode="G" horiz-adv-x="863" 
d="M196 -159q47 11 114 84t130 203q-53 -8 -89 -17q-55 -14 -93 -33q-92 -46 -117 -138q-10 -37 15 -78q9 -14 34 -20q3 -1 6 -1zM537 798q-64 -30 -145 -107q-30 -29 -57 -61h2q125 -16 188 2q79 22 76 100q-3 66 -64 66zM550 434q4 16 44 25q30 6 28 -3q0 -3 -1 -5
q1 -1 1 -2v-2v-1q0 -1 -1 -4q0 -2 -1 -4q-1 -1 -1 -3q-1 -3 -1 -4q-8 -34 -18 -68q-31 -109 -70 -201q42 6 70 12q53 11 86 26q81 37 88 116q1 10 11 9t9 -11q-8 -91 -99 -132q-36 -16 -91 -28q-31 -6 -84 -14l-4 -10q-53 -113 -114 -187q-77 -92 -164 -120q-23 -7 -53 0
q-33 7 -46 29q-30 48 -18 93q28 101 128 151q40 20 97 34q41 10 104 20q39 84 71 182q-66 -64 -126 -109q-103 -78 -174 -89q-94 -14 -126 86q-39 125 32 269q36 72 95 138q-27 5 -35 6q-34 6 -55 8q-43 4 -97 -2t-99 -22q-118 -41 -111 -127q1 -9 -9 -10t-11 9q-5 54 34 93
q32 34 91 54q46 16 102.5 22.5t101.5 2.5l56 -8q10 -2 48 -8q33 34 69 64q112 92 204 107q50 8 79 -13.5t31 -69.5q3 -94 -91 -120q-67 -19 -196 -3q-7 1 -15 2q-40 -48 -71 -98q-67 -107 -77 -197q-11 -99 50 -163q66 12 162 85q72 54 150 134q9 30 17 61z" />
    <glyph glyph-name="H" unicode="H" horiz-adv-x="1039" 
d="M589 737q-32 -14 -55 -72q-4 -10 -8 -22q63 -1 81 36q17 36 7 50q-6 9 -25 8zM950 707q-53 -43 -113 -142q39 26 70 61q32 37 41 64q2 10 2 17zM387 443q-54 -5 -94 -11q-80 -11 -137 -31q-143 -48 -209 -169q-52 -95 -10 -175q18 -36 52 -45q26 -8 76 -2q133 15 210 133
q32 49 58 122q19 51 43 137q2 10 6 24zM-66 638q0 114 116 114q44 1 112 -16q43 -10 125 -36q4 -1 9 -3q73 -23 106 -32q29 -8 53 -13q5 10 9 19q16 31 49 55t66 30h5h2q32 3 45 -16q15 -23 -6 -69q-15 -32 -52 -43q-22 -6 -53 -5q-11 -36 -24 -102q-2 -5 -11 -50
q58 5 97 11q70 9 122 24q9 2 17 5q21 41 41 76q50 88 93 129q52 51 90 30q34 -19 22 -61q-10 -32 -46 -73q-44 -50 -104 -83q-39 -71 -75 -157q-43 -104 -68.5 -201.5t-25.5 -160.5q2 3 5 5q59 62 154 206q5 9 13.5 3.5t2.5 -13.5q-95 -147 -156 -209q-10 -11 -20 -20
q-1 -3 -5 -5q-40 -33 -63 -18q-25 17 -15 91q7 64 37 160q44 140 109 277q-54 -16 -125 -25q-41 -6 -104 -11q-1 -3 -1 -5q-10 -45 -18 -78q-22 -92 -48 -155q-34 -81 -79 -133q-113 -126 -313 -93h-3q-19 1 -35 6q-42 12 -65 54q-23 46 -20 96t30 99q71 128 220 178
q60 20 141 32q42 6 102 11q18 65 30 103t25 67q-23 5 -50 13q-34 9 -107 32q-5 2 -9 3q-81 25 -124 36q-65 16 -107 15q-49 0 -72.5 -22.5t-23.5 -71.5q0 -10 -10 -10t-10 10z" />
    <glyph glyph-name="I" unicode="I" horiz-adv-x="371" 
d="M233 697q-4 -1 -9 -3q-6 -30 -17 -53q-16 -33 -35 -44q-12 -6 -21.5 -1.5t-10.5 17.5q-1 21 23 55q17 24 43 39q3 14 4 29q1 10 11 9t9 -11l-2 -18q6 2 13 3q39 4 53 -42q12 -36 5 -104q-12 -127 -71 -298q-60 -171 -119 -244q-34 -43 -62 -39q-32 5 -46 66
q-2 9 7.5 11.5t12.5 -7.5q3 -15 7 -25q2 1 3 2q6 7 13 19q14 24 33 68q38 87 78 212q41 127 62.5 225.5t15.5 133.5zM160 614q1 0 2 1q14 7 27 34q6 13 11 29q-13 -10 -21 -22q-20 -28 -19 -42z" />
    <glyph glyph-name="J" unicode="J" horiz-adv-x="828" 
d="M607 536q19 11 35 22q65 45 85 88q13 27 12 36q-1 5 -4 7q-4 3 -13 5q-1 -1 -3 -1q-11 -2 -22 -7q-48 -40 -90 -150zM338 -74q-58 23 -101 28q-57 7 -97 -14q-50 -26 -66 -65q-14 -33 3 -61q17 -29 57 -34q47 -7 105 24q54 28 99 122zM500 455q-11 -5 -27 -13l-1 -1h-1
h-1l-1 -1h-1l-1 -1h-1l-1 -1l-1 -1h-2l-1 -1l-1 -1h-1l-1 -1l-2 -1h-1q-10 -5 -17 -9q-83 -41 -129 -68q-67 -39 -107 -76q-96 -88 -65 -191q12 -39 57 -60.5t108 -18.5q38 2 75 13q11 34 24 77q15 50 40 146q1 2 2.5 8.5t1.5 7.5q31 116 48 172q4 11 7 21zM470 71
q24 19 39 42q5 8 13.5 2.5t3.5 -13.5q-25 -37 -67 -64q-25 -71 -50 -120q9 -4 19 -9q1 0 9 -4t17 -8t13 -6q21 -10 37 -16q40 -17 67 -24q64 -18 91 13q6 8 13.5 1.5t1.5 -14.5q-34 -40 -111 -20q-29 8 -70 26q-16 6 -38 16q-3 2 -12 6l-18 8l-8 4q-12 5 -21 9
q-38 -68 -83 -98l-2 -2q-12 -10 -25 -17q-62 -38 -138 -24q-10 0 -20 1q-49 7 -71 44q-22 36 -5 79q19 45 76 75q45 24 108 16q46 -6 107 -30l10 24q6 15 13 32q-33 -8 -66 -10q-70 -3 -120.5 21.5t-64.5 71.5q-35 115 71 212q41 38 110 78q46 28 130 69q7 4 17 9l2 1
q1 0 3.5 1.5t4.5 2.5t4.5 2t3.5 2q21 10 34 17q6 3 11 5q20 58 40 100q34 69 73 102q45 38 100 30q34 -5 36 -29q2 -16 -13 -47q-23 -48 -92 -96q-25 -18 -57 -36q-23 -67 -63.5 -218t-62.5 -217z" />
    <glyph glyph-name="K" unicode="K" horiz-adv-x="1004" 
d="M338 718q-4 87 -40 105q-4 -1 -7 -3q-28 -15 -32 -41q-5 -28 26 -45q21 -12 53 -16zM619 484q-43 28 -86 3q-16 -9 -39 -29l-10 -8q-9 -8 -20 -17t-15 -13q-36 -29 -67 -46q-1 0 -2 -1q46 -6 83 -51q20 -25 40 -66q12 -25 34 -76l1 -2l1 -3q34 -81 54 -114q33 -50 71 -60
q56 10 102 59q37 41 51 91t0 94q-4 9 5.5 12.5t12.5 -6.5q16 -50 1 -105t-55 -99q-43 -46 -95.5 -61.5t-104.5 5.5q-48 20 -82 73q-22 35 -48 104q-2 6 -6 16l-2 8q-2 5 -3 8q-15 41 -25 62q-14 31 -30 49q-18 22 -40 29q-47 -119 -108 -206q-81 -117 -155 -132
q-41 -8 -84.5 3t-77.5 37q-75 58 -69 152q6 78 62 151q54 69 109 81q31 6 51 -12t25 -58q1 -10 -9 -11t-11 9q-4 33 -19 45q-13 11 -33 7q-48 -10 -97 -73q-53 -68 -58 -140q-6 -83 61 -135q48 -37 108 -39q1 4 5 6q80 44 152 171q65 113 105 259q38 138 37 242
q-39 5 -63 19q-44 24 -37 66q6 36 42 56q39 20 74 -3q50 -33 60 -119h6q22 1 64 9l84 17q53 10 91 16q98 14 160 8q81 -9 112 -55q6 -9 -2.5 -14.5t-13.5 2.5q-26 39 -98 47q-60 6 -155 -8q-37 -6 -90 -16q-67 -13 -84 -16q-43 -8 -66 -10h-6q2 -19 1 -40q-3 -118 -56 -269
v-1l10 6q30 16 64 44q5 4 15.5 13t20.5 17l9 8q25 21 42 31q54 31 108 -5q8 -5 2.5 -13.5t-14.5 -2.5z" />
    <glyph glyph-name="L" unicode="L" horiz-adv-x="884" 
d="M599 766q-95 -44 -152 -149q42 -6 74 -6q110 -2 149 54q20 29 3 57q-22 37 -74 44zM9 -34q2 1 4 1h1q9 1 18 4q40 12 84.5 43.5t65.5 63.5q9 14 17 30q2 4 4 9q-59 13 -115 0q-72 -17 -95 -69q-25 -57 -11 -75q7 -9 27 -7zM-151 574q36 99 167 106q52 3 125 -8
q48 -6 135 -24q5 -1 13 -3q49 -10 73 -14q3 4 5 9q71 121 192 145q37 7 75 -8t57 -45q23 -38 -5 -79q-45 -64 -165 -62q-37 0 -83 7q-21 -42 -39 -98q-14 -46 -32 -119q-2 -10 -5 -24q0 -1 -1 -4t-1.5 -6.5t-1.5 -6.5t-2 -5v-2q-23 -98 -39 -147q-14 -44 -30 -78
q20 -9 55 -27q45 -22 63 -31q79 -35 136 -27q75 10 152 91q42 45 64 77q32 47 37 87q1 10 11 9t9 -11q-6 -45 -41 -97q-22 -32 -66 -79q-81 -86 -164 -97q-62 -8 -146 29q-19 9 -64 32q-34 17 -55 26q-9 -16 -19 -31q-81 -120 -244 -112q-33 -5 -48 14q-22 27 8 95
q27 61 109 81q61 14 127 -2q11 29 22 66q11 39 27 110q1 3 4.5 19.5t4.5 20.5q6 23 10 40q19 79 36 131q17 51 37 90q-22 5 -67 14q-8 1 -13 2q-87 18 -134 25q-71 10 -121 7q-118 -7 -150 -92q-3 -10 -12.5 -6.5t-5.5 12.5z" />
    <glyph glyph-name="M" unicode="M" horiz-adv-x="1250" 
d="M222 415q-31 -29 -51.5 -87t-23.5 -125q-3 -42 2 -80q15 14 28 28q68 75 86 149q18 78 -35 112q-3 1 -6 3zM638 612q6 22 7 39q-5 -19 -7 -39zM1126 766q0 -1 -1 -1q-29 -9 -56.5 -67.5t-48.5 -154.5q16 13 30 24q83 70 102 122q9 28 8 46q-2 21 -21 27q-7 3 -13 4z
M696 10q1 2 3 3q4 3 9 6q5 6 10 14q35 57 11 140q-10 34 -31 80q-5 9 -8 17q-16 -15 -29 -30q-88 -101 -46 -188q18 -37 50 -45q17 -5 31 3zM-176 271q-3 -59 10 -107q17 -58 56 -94q55 -50 140 -22q31 11 64 32q-23 67 -10 160q13 95 53 153q22 31 46 41q28 12 55 -6
q65 -41 44 -132q-18 -79 -91 -159q-18 -19 -37 -37q14 -65 49 -90h10q42 1 80 30q25 19 63 66q40 49 100.5 145.5t107.5 185.5q13 25 24 49q-12 35 -16 67q-9 64 14 117q7 18 16 28q16 17 36 11q24 -8 27 -38q3 -25 -8 -64q-6 -22 -16 -49q6 -34 22 -74t56 -113
q11 -21 18 -33l12 10q44 34 125 90q0 1 6.5 5t13.5 9.5t15 11t12 7.5q5 4 11 8q23 120 57 196q30 63 66 91q42 31 90 16q32 -11 35 -46q2 -22 -10 -53q-20 -58 -108 -131q-21 -18 -48 -39q-21 -106 -31 -234q-15 -186 0 -322q16 -143 54 -154q4 -2 6 -5q53 20 86 99
q4 9 13 5t5 -13q-17 -41 -39 -68q-29 -34 -67 -45q-28 -7 -53 -4q-33 4 -48 26q-32 48 -40 217.5t14 348.5q5 45 13 87q-6 -4 -16 -11t-18 -12l-8 -6q-81 -56 -124 -90q-7 -6 -15 -12q14 -26 24 -49q25 -55 31 -97q14 -102 -81 -170q-26 -26 -60 -17q-41 11 -63 57
q-26 52 -10 108q13 48 59 101q15 17 34 36q-7 13 -25 48q-33 63 -48 99q-5 12 -10 23q-7 -15 -16 -31q-46 -91 -107 -187.5t-102 -146.5q-40 -49 -67 -70q-43 -33 -92 -34h-3h-4q-5 -3 -10 0v1q-64 6 -94 70q-33 -21 -66 -32q-96 -32 -160 27q-43 39 -61 103q-14 51 -11 113
q0 10 10 9.5t10 -10.5z" />
    <glyph glyph-name="N" unicode="N" horiz-adv-x="1281" 
d="M305 467q-36 -39 -67 -100q-35 -67 -47 -133q-8 -47 -3 -87q27 23 53 52q73 83 101 164q13 38 10 64q-3 24 -22 33q-12 5 -25 7zM742 729q-45 -87 -28 -162q1 -6 3 -13q0 1 1 2q14 50 21 90q9 52 4 77q0 3 -1 6zM858 29q6 20 8 34q8 69 -21 138q-4 9 -9 18q-13 28 -37 64
q-10 16 -23 33q-28 -68 -40 -127q-35 -170 67 -224q11 -6 21 1t19 24q-1 4 1 7q8 16 14 32zM-100 282q-9 -37 3.5 -78.5t41.5 -77.5q55 -68 141 -40q19 7 40 18q-18 61 -6 141q18 111 77 184q32 39 68 52t73 -3q29 -13 34 -49q3 -30 -11 -73q-29 -85 -105 -170
q-31 -35 -64 -61q3 -12 7 -23q24 -62 88 -95q19 1 40 5q125 23 235 196q42 66 82 153q20 45 40 97q-14 26 -24 50q-36 94 -4 179q9 25 21 42q17 24 40 31q19 5 30.5 -4t15.5 -29q5 -29 -4 -85q-8 -41 -22 -91l-8 -28q5 -12 13 -24q15 -27 44 -65q4 -6 11 -14q0 -1 4 -6
q29 54 64 104q53 79 110 134.5t104 75.5q56 24 91 -4q36 -30 41 -115q1 -10 -9 -11t-11 9q-4 77 -34 101q-25 21 -70 2q-44 -19 -99 -73t-107 -130q-37 -54 -66 -110q31 -42 48 -70q28 -47 40 -91q24 -98 -26 -214q-6 -21 -14 -37q-12 -25 -27 -35q-21 -15 -43 -3
q-114 61 -77 246q14 66 47 143q-4 5 -9 12q-34 50 -52 78q-3 5 -5 9q-18 -43 -35 -82q-40 -89 -83 -156q-53 -83 -110 -133q-66 -59 -138 -72q-20 -3 -38 -4q-5 -4 -10 -1h-1q-91 -1 -134 67q-9 14 -16 30q-20 -10 -40 -17q-99 -32 -163 47q-31 39 -44.5 85t-4.5 87
q2 10 12 8t8 -12z" />
    <glyph glyph-name="O" unicode="O" horiz-adv-x="826" 
d="M470 709q-54 -19 -107 -80q7 -1 14 0q88 0 100 52q5 21 -7 28zM-148 627q-14 44 9 66q20 18 66 17q37 -1 98 -14q31 -7 117 -27q20 -5 34 -8q61 -15 102 -22q23 24 48 43q68 51 121 52q28 1 42 -15t8 -42q-9 -37 -43 -54q-28 -14 -77 -15q-14 0 -29 2q-75 -98 -107 -227
q-31 -123 -7 -221q27 -108 116 -158q46 -1 94 20q102 44 185 163q82 117 102 240q22 131 -42 204q-41 49 -77 61l-8 2q-28 -18 -47 -62.5t-24 -102.5q-5 -57 6 -104t34 -69q10 4 22 13q8 6 14 -2t-2 -14q-39 -28 -69.5 -21.5t-48.5 45.5q-32 67 -16 174q17 113 73 151
q33 22 72 9q41 -14 87 -66q69 -81 46 -222q-21 -127 -105 -247q-87 -124 -194 -170q-122 -54 -223 19q-51 37 -76 116q-21 65 -18 135q5 142 65 255q26 49 62 90q-38 8 -91 20q-14 3 -34 8q-85 21 -116 27q-60 13 -94 14q-39 0 -52 -12q-14 -13 -3 -45q3 -9 -6.5 -12.5
t-13.5 6.5z" />
    <glyph glyph-name="P" unicode="P" horiz-adv-x="1001" 
d="M73 147l4 4q10 9 18 18q23 24 41 46q44 51 64 93q46 92 -20 135q-13 -4 -25 -11q-69 -38 -89 -126q-17 -76 7 -159zM743 740q-26 -29 -49 -71q-24 -45 -48 -111q-15 -43 -40 -125q-1 -4 -5 -18q-4 -11 -6 -18q-17 -58 -30 -94q14 -40 55 -44q43 11 100 64q64 59 100 132
q42 83 28 153q-14 79 -98 131q-3 0 -7 1zM410 496q-33 81 31 155q57 65 159 95q38 11 76 15q65 54 155 58h1q3 1 6 0q21 1 44 -1q10 -1 9 -11t-11 -9q-24 2 -46 1q-40 -12 -73 -42q16 -2 30 -7q100 -31 132 -128q26 -82 -20 -175q-39 -81 -117 -142q-76 -60 -143 -66
q-12 -1 -22 0h-4q-41 5 -61 37q-6 -17 -13 -34q-32 -83 -70 -137q-93 -135 -251 -132h-1q-40 0 -77 26q-53 38 -82 118q-28 -11 -54 -15q-102 -16 -165 55q-48 54 -22 132q3 10 12.5 6.5t5.5 -12.5q-22 -67 18 -112q57 -64 148 -49q24 4 50 14q-28 91 -9 175q22 96 99 139
q23 13 47 16q29 4 50 -10q66 -41 38 -127q-24 -75 -104 -143q-45 -39 -96 -61q28 -75 76 -110q58 -42 121 -6q79 44 135 155q22 45 44 108q15 41 38 118q1 3 2 7t2 7q33 107 52 159q33 84 70 137q15 20 31 37q-23 -3 -45 -10q-97 -28 -150 -89q-55 -65 -28 -134
q4 -10 -5.5 -13.5t-12.5 5.5z" />
    <glyph glyph-name="Q" unicode="Q" horiz-adv-x="1276" 
d="M442 677q-36 -19 -73 -52q24 -6 41 -8q21 -2 32 2q5 16 12 30q-1 7 -5 17q-2 7 -7 11zM295 59q8 3 16 5q79 19 174 -8h1q31 19 61 45q88 78 134 195q48 120 29 224q-22 114 -120 171q-8 5 -16 8q-76 -58 -77 -153q-1 -42 13.5 -80.5t39.5 -63.5q2 -1 4 -1q10 -2 8 -12
t-12 -8q-72 13 -102 81q-26 58 -12 131q0 2 1 4q-13 -2 -30 0q-22 3 -55 12q-21 -20 -39 -43q-69 -85 -98 -182q-32 -108 -3 -199q23 -71 83 -126zM314 44q19 -15 41 -29q53 2 105 27q-78 19 -144 2h-2zM-157 662q37 62 129 64q67 2 178 -31q31 -9 76 -24q7 -2 30 -10t24 -8
q6 -2 11 -4q34 26 71 42q28 13 56 13q15 0 26 -5q5 0 7 -4q12 -8 17 -21q11 16 24 27q36 31 79 20q6 1 10 -3q9 -4 19 -9q106 -62 129 -185q20 -110 -29 -235q-48 -121 -140 -203q-24 -21 -49 -38q48 -17 104 -46q49 -25 128 -74l29 -18q18 -11 30 -18q33 -20 57 -34
q64 -36 110 -53q112 -40 184 15q39 30 32 63q-2 10 8 12t12 -8q9 -45 -40 -83q-80 -62 -203 -18q-48 18 -113 54q-24 14 -58 35q-11 7 -29 18q-23 14 -30 18q-78 48 -126 73q-64 34 -117 50q-67 -37 -135 -39h-2q-39 -1 -73 14q-12 6 -23 12q-52 -27 -99 -79
q-6 -7 -13.5 -0.5t-0.5 14.5q45 50 94 78q-10 8 -21 17q-78 65 -101 162q-20 89 7 188q20 68 59 128.5t91 104.5q-2 1 -14 5l-22.5 7.5t-15.5 5.5q-45 15 -76 24q-107 32 -172 30q-80 -2 -111 -54q-5 -9 -14 -4t-4 14z" />
    <glyph glyph-name="R" unicode="R" horiz-adv-x="1131" 
d="M126 88q3 3 5 4q10 11 19 21q28 30 50 59q43 55 65 101q47 101 -15 147q-1 0 -1 2q-19 -2 -38 -12q-50 -27 -83 -96q-34 -72 -27 -145q4 -45 25 -81zM376 439q-35 76 24 155q51 69 150 111q100 43 188 33q22 20 44 33q50 29 104 22h5q5 0 9 -4q5 -4 4 -10q-2 -10 -12 -8
q-3 1 -6 1q-40 -6 -81 -53q49 -24 72 -73q44 -91 -1 -166q-33 -56 -115 -98q-36 -19 -78 -33q5 0 9 -1q52 -8 68 -30q21 -28 25 -77q1 -29 -3 -91l-1 -1q-2 -35 -3 -52q-1 -28 2 -48q5 -48 34 -69q34 -25 72 -7q35 15 71 63q31 41 56 95q22 47 28 78q2 10 12 8t8 -12
q-7 -33 -30 -83q-26 -56 -58 -98q-39 -52 -79 -70q-27 -12 -53 -7q-97 8 -126 73q-11 26 -12 64q-1 26 3 69q1 7 2 21q4 36 5 52q2 28 -1 46q-5 43 -36 57q-1 1 -2 1q-12 1 -25 2q-12 1 -23 0h-2q-9 0 -10 9t8 11q1 1 3 1q3 1 8 2q12 3 24 7q55 29 96 71.5t58 89.5
q33 91 -33 159q-34 -50 -77 -141q-14 -31 -36 -78q-28 -63 -36 -82q-43 -94 -75 -153q-43 -81 -84 -133q-103 -130 -221 -116q-3 1 -5 2q-45 5 -87 40q-21 18 -37 39h-1l-4 -4q1 2 4 4q-76 -41 -138 -47q-52 -4 -87.5 18t-48.5 69q-12 45 4 92q12 37 42 80q6 8 14 2t2 -14
q-28 -40 -39 -74q-14 -42 -3 -80q22 -81 114 -73q58 5 130 44q-23 40 -28 90q-8 78 29 155q35 75 91 106q63 34 116 -11q68 -57 14 -158q-45 -86 -151 -161q-21 -15 -42 -28q13 -18 31 -33q58 -48 111 -33q64 17 128 119q27 42 58 105q21 44 55 121q4 9 9 21l5 10q2 7 4 11
q45 103 72 156q41 83 79 134q15 21 30 38q-77 4 -162 -32q-94 -40 -142 -105q-52 -70 -22 -135q4 -9 -5 -13t-13 5z" />
    <glyph glyph-name="S" unicode="S" horiz-adv-x="958" 
d="M306 478q-38 1 -77 -28q-34 -25 -61.5 -69t-42.5 -95q-29 -97 -4 -172q20 3 39 8v1q44 23 87.5 69.5t69.5 98.5q29 57 28 104q-1 51 -39 83zM777 521q65 17 85 73q18 51 -8 104q-26 52 -76 61q-10 2 -20 2q-2 0 -5 -1q-47 -4 -96 -50q-45 -42 -61 -133q-6 -37 -10 -88
q-1 -31 -3 -96q0 -12 -1 -18q-2 -93 -8 -143q-10 -77 -34 -128q-59 -127 -227 -127q-147 0 -200 104q-2 5 -5 11q-27 -4 -53 -3q-46 2 -81.5 16.5t-52.5 39.5q-39 59 37 135q7 7 14 0t0 -14q-64 -65 -34 -110q14 -20 45 -32.5t73 -14.5q22 0 45 2q-25 80 4 180
q17 55 46.5 101.5t65.5 73.5q42 32 85 32t83 -33q29 -25 32 -72q3 -40 -12 -76q-48 -117 -156 -179q-56 -32 -120 -43q1 -3 2 -5q47 -93 182 -93q13 0 25 1q37 14 63 40q25 34 44 72q5 13 9 27q13 43 18 105q3 37 5 116v12q3 94 9 144q10 77 35 129q60 126 231 137
q2 1 4.5 1h5.5h3q8 -1 17 -2q59 -11 90 -73q29 -59 9 -118q-23 -67 -100 -87q-9 -2 -11.5 7.5t7.5 12.5z" />
    <glyph glyph-name="T" unicode="T" horiz-adv-x="1024" 
d="M81 89q44 24 88.5 66.5t71.5 88.5q33 57 32 106q-1 53 -44 93q-19 -4 -38 -16q-57 -38 -95 -126q-39 -91 -27 -169q3 -24 12 -43zM364 768q-84 8 -150 -23q-43 -21 -48 -46q-3 -19 20 -26q31 -9 78 14q50 25 100 81zM787 719q-19 -18 -38 -38q13 -2 25 -3q69 -7 127 12
q16 6 26 16t6 20q-13 29 -51 41q0 -1 -1 -1q-51 -14 -94 -47zM694 612q-27 -43 -53 -102q-21 -45 -51 -126l-13 -34q-35 -94 -56 -142q-34 -74 -70 -121q-90 -117 -229 -108q-4 0 -6 3q-34 0 -66 13q-52 21 -79 67q-103 -26 -169 9q-78 42 -65 152q1 10 11 9t9 -11
q-12 -96 54 -132q58 -31 151 -8q-9 22 -13 48q-13 84 29 180q40 93 103 134q72 48 132 -7q31 -29 29 -89q-4 -101 -88 -183q-68 -66 -163 -96q24 -37 67 -55q60 -25 117 2q20 9 48 35q26 24 49 54q15 19 22 32q17 27 36 72q16 36 42 105q2 6 5 14q1 1 6 15q6 17 11 29
q12 34 23 59q66 167 131 249q2 3 4 5q-7 2 -14 5q-25 8 -73 25q-62 21 -91 30q-48 15 -86 21q-58 -67 -115 -96q-54 -26 -92 -15q-19 5 -28 18.5t-6 30.5q6 35 59 60q76 36 174 23q1 2 2 3q7 8 14 2q4 -3 4 -8q35 -6 79 -20q30 -9 92 -30q48 -17 73 -25q12 -4 22 -7
q84 93 188 90q32 -1 59 -16.5t38 -40.5q10 -23 -10 -42q-14 -14 -34 -20q-61 -21 -135 -14q-18 2 -38 6q-21 -25 -40 -52z" />
    <glyph glyph-name="U" unicode="U" horiz-adv-x="1066" 
d="M160 257q1 1 3 2q26 13 33 72q8 62 -11 139q-10 41 -27 80q-8 -12 -15 -24q-60 -98 -67 -184q-4 -40 8.5 -63t40.5 -25q19 -1 35 3zM359 699q174 -25 196 -142q8 -48 -8 -114q-13 -51 -44 -123q-11 -24 -27 -60q-18 -38 -23 -48q-12 -27 -20 -46q-21 -50 -30 -84
q-20 -74 14 -100q25 13 57 42q62 57 149 173q39 52 83 116q10 15 21 32q9 33 19 67q42 144 91 233q27 48 51 71q29 28 55 18q19 -6 21 -26q1 -13 -8 -32q-4 -10 -10 -22l-15 -24q-45 -75 -79 -129q-3 -5 -6 -9q-27 -70 -47 -141q-35 -122 -39.5 -213t22.5 -137q23 17 53 53
q22 27 49 66q13 19 30 44q3 5 14.5 21.5t12.5 17.5q28 43 38 53q7 7 14 0t0 -14q-8 -9 -36 -50q-1 -1 -12 -18t-14 -21q-17 -26 -30 -44q-28 -40 -51 -67q-40 -49 -70 -66q-41 -24 -67 5q-34 40 -21 171q6 63 23 138q-40 -57 -76 -105q-88 -118 -152 -176q-36 -33 -64 -46
q-2 -3 -5 -3q-32 -14 -54 -3q-37 17 -48 54q-9 31 1 79q8 39 30 95q11 29 43 105q10 22 16 37q47 113 58 176q13 86 -27 129q-70 73 -155 34q-44 -21 -87 -68q26 -46 42 -97q32 -108 6 -185q-14 -42 -44.5 -63.5t-75.5 -18.5q-39 3 -56 35q-15 28 -11 75q7 90 70 193
q10 17 22 33q-13 26 -28 47q-51 73 -123 103q-20 1 -40 -3q-76 -14 -101 -53q-5 -9 -13.5 -3.5t-2.5 13.5q17 27 50 44q26 12 63 19q23 4 46 3h2q72 -5 132 -62q28 -27 51 -63q44 48 89 69q42 19 82 15h4z" />
    <glyph glyph-name="V" unicode="V" horiz-adv-x="1101" 
d="M177 283q34 37 41 104.5t-14 145.5q-9 32 -21 63q-31 -30 -56 -68q-63 -97 -57 -172q7 -78 99 -74q4 0 8 1zM345 683q146 -11 169 -135q9 -50 -2 -121q-8 -55 -30 -135q-6 -24 -16 -59q-11 -39 -15 -50q-8 -27 -13 -47q-14 -52 -19 -86q-14 -83 14 -110q1 -1 1 -2
q49 5 102 82q46 66 117 227q6 13 14 32q1 3 4.5 10.5t6.5 14.5l3 7q46 107 73 161q42 84 79 134q44 61 89 80q51 23 104 -6q9 -5 4 -14t-14 -4q-83 47 -167 -68q-36 -48 -77 -131q-26 -54 -73 -160l-3 -7q-3 -7 -6.5 -14.5t-4.5 -10.5q-8 -19 -14 -32q-72 -162 -119 -230
q-33 -48 -65 -70q-37 -26 -75 -20q-38 7 -54 44q-13 30 -10 83q3 44 17 110q8 38 28 122q2 5 2 7q33 133 40 193q12 92 -14 127q-61 83 -150 50q-18 -6 -37 -18q21 -41 33 -90q26 -105 2 -188q-23 -82 -84 -95q-2 -1 -4 -1q-6 -1 -12 -1q-54 -2 -84.5 22t-34.5 71
q-6 82 61 183q28 44 63 77q-49 107 -116 141l-1 1q-35 5 -74 -3q-40 -8 -71 -30q-34 -24 -43 -57q-3 -9 -12.5 -6.5t-7.5 12.5q12 40 52 68q33 24 78 33q111 23 192 -52q30 -28 53 -68q20 13 40 20q40 15 77 8q2 1 4 1z" />
    <glyph glyph-name="W" unicode="W" horiz-adv-x="1283" 
d="M73 323q36 39 46.5 99t-6.5 125q-9 40 -27 75q-6 -7 -13 -14q-73 -88 -83 -174q-11 -89 63 -110q10 -3 20 -1zM743 485q31 -27 25 -97q-2 -27 -10 -65q-5 -21 -17 -70q-2 -11 -4 -18q-21 -87 -22 -131q-3 -58 21 -85q23 11 46 40q21 25 42 66q10 18 43 117q44 131 68 196
q43 114 80 186q47 92 89 124q45 34 84 6q12 -9 17 -23q4 -10 6 -25q1 -3 1 -8q1 -5 1 -8q1 -10 -8.5 -11.5t-11.5 8.5q0 3 -0.5 8.5t-1.5 7.5q-3 26 -15 35q-27 19 -60 -6q-38 -29 -83 -117q-37 -72 -79 -184q-24 -64 -68 -196q-34 -100 -44 -119q-22 -43 -44 -70
q-34 -41 -69 -51q-38 -10 -60 11q-19 17 -24 57q-8 62 15 180q9 44 23 96q2 9 4 17q-36 -75 -73 -139q-68 -120 -127 -186q-54 -60 -98 -72q-3 -1 -5 -1q-12 -2 -24 -1q-42 3 -58 34q-14 27 -8 74q5 37 24 96q7 23 18 55q1 3 3.5 10t5 15t5 15t4.5 12l2 5q13 40 22 67
q32 99 38 163q8 81 -21 126q-54 84 -130 87h-7q-12 0 -24 -2q-53 -10 -108 -54q27 -33 42 -70q39 -98 -7 -201q-16 -38 -41 -61q-18 -18 -37 -23q-5 -5 -11 -2q-12 -1 -24 2q-45 12 -64.5 46.5t-13.5 84.5q11 93 88 185l18 20q-37 67 -86 92q-1 1 -1 2q-41 13 -72 7
q-59 -12 -61 -84q0 -10 -10 -9.5t-10 10.5q2 42 21.5 68.5t55.5 33.5q64 13 141 -36q33 -21 59 -50q59 48 118 58q12 3 25 3h1h9q182 -4 222 -126q17 -51 8 -125q-7 -60 -31 -141q-13 -42 -34 -102q-29 -81 -36 -102q-19 -54 -26 -85q-8 -38 -4 -57q4 -16 18 -19
q39 10 89 66q57 64 125 182q45 79 90 175q14 29 26 57q4 9 7 16q1 2 2 5l1 1q3 8 11 6q5 1 9 -2z" />
    <glyph glyph-name="X" unicode="X" horiz-adv-x="1240" 
d="M81 279q67 61 96 142q24 72 16 152q-4 38 -15 75q-44 -29 -82 -68q-74 -74 -101 -149q-30 -81 9 -132q14 -18 41 -22q17 -2 36 2zM336 726q175 -1 234 -126q24 -50 33 -128q5 -41 7 -108q21 13 57 36q102 65 153 100q80 55 130 100q122 109 107 195q-2 10 8 12t12 -8
q9 -53 -24 -110q-28 -49 -90 -104q-51 -46 -132 -102q-51 -35 -153 -100q-44 -27 -67 -42q1 -7 1 -14q0 -19 1 -28q2 -68 6 -109q6 -59 19 -102q30 -103 107 -151h1q88 0 192 63q67 40 124 99q62 66 89 132q3 9 12.5 5.5t5.5 -13.5q-27 -69 -93 -137q-58 -61 -128 -104
q-124 -74 -231 -64q-116 11 -157 131q-17 47 -24 118q-5 41 -8 119q-4 -3 -8 -5q-83 -57 -133 -101q-122 -109 -96 -191q2 -10 -7.5 -12.5t-12.5 6.5q-15 52 15 108q26 48 88 104q51 45 135 102q9 7 18 12q-1 10 -1 17q-4 73 -8 116q-7 61 -20 105q-30 107 -106 145
q-56 29 -142 -6q-2 -1 -5 -2q7 -15 12 -31q34 -114 -3 -224q-42 -123 -153 -164q-30 -12 -59 -8q-35 5 -54 30q-45 59 -12 150q29 80 106 157q42 42 89 73q-32 87 -87 123l-2 2q-75 2 -164 -72q-7 -6 -13.5 1.5t1.5 14.5q125 103 226 67q66 -24 105 -100q3 1 5 2
q49 19 91 20q1 1 3 1z" />
    <glyph glyph-name="Y" unicode="Y" horiz-adv-x="1003" 
d="M726 273q-25 -18 -73 -45q-42 -24 -59 -35q-31 -20 -55 -39q-36 -28 -73 -68q-46 -49 -77 -97q-81 -127 -30 -206q25 -38 76 -42q47 -4 85 20q103 61 150 183q34 89 49 245q2 24 6 78q0 2 1 6zM55 403h1q41 13 70 67.5t33 123.5q3 53 -11 96q-64 -20 -120 -69
q-69 -62 -78 -123q-9 -63 65 -88q20 -7 40 -7zM767 695q1 -1 3 -1q2 -1 6 -2q9 -2 19.5 -5t19.5 -6l6 -2h2q8 -3 7 -10q-9 -230 -16 -324q51 29 75 55q31 34 22 70q-3 10 7 12.5t12 -7.5q12 -47 -27 -89q-26 -29 -84 -61q-4 -2 -7 -4q-2 -16 -3 -34q-16 -184 -49 -294
q-38 -129 -109 -195q-76 -72 -200 -80q-4 0 -7 3h-10q-61 5 -92 51q-31 49 -19 113q10 53 49 115q32 49 80 100q38 40 74 70q25 20 57 40q18 11 60 35q49 29 75 47q4 3 10 6q1 21 3 38q3 37 7 117v1q4 82 8 120q0 3 1 11q1 14 2 22q-72 -189 -203 -362q-75 -100 -141 -152
q-74 -58 -121 -40q-33 14 -45 47q-10 28 -4 73q5 36 21 89q9 29 32 98q4 11 7 18q36 108 44 162q12 78 -18 112q-39 44 -97 48h-9q18 -53 12 -117q-10 -98 -65 -155q-64 -66 -154 -37q-43 15 -63 43.5t-15 66.5q10 68 85 135q58 52 126 73q-1 4 -3 7q-27 57 -82 72
q-2 1 -3 2q-5 0 -11 -1q-46 -6 -79 -30q-27 -19 -61 -61q-6 -8 -13.5 -2t-1.5 14q35 45 64 65q38 27 88 34q102 13 153 -62q9 -12 15 -26q9 0 18 -1q159 -4 188 -108q12 -43 1 -107q-8 -49 -32 -120q-7 -22 -19 -54q-1 -5 -4 -12q-3 -8 -4 -12q-5 -14 -8 -23
q-10 -27 -16 -45q-5 -17 -9 -32q-7 -24 -10 -43q-1 -2 -1 -4q-10 -70 34 -81q79 36 185 178q75 98 135 213.5t89 215.5q0 1 1 2v1q4 8 12 6z" />
    <glyph glyph-name="Z" unicode="Z" horiz-adv-x="890" 
d="M727 701q-59 -9 -139 -109q4 0 8 -1q92 -6 139 74q6 9 2 20q-2 8 -10 16zM-33 -7q2 1 5 1q9 2 21 6q58 17 124 82q-2 0 -3 1q-30 15 -54 21q-58 17 -108 -7q-28 -13 -40 -36q-13 -23 1 -46q16 -27 54 -22zM73 395q50 16 113 12q44 -3 115 -18q10 -2 28 -6q7 -2 13 -3
q26 40 34 51q27 41 47 70q39 55 69 94q-34 12 -92 37q-7 3 -18 7q-66 29 -96 41q-52 19 -90 24q-89 12 -133 -55q-5 -9 -13.5 -3.5t-2.5 13.5q50 79 152 65q40 -6 93 -26q31 -11 98 -40q11 -5 18 -8q61 -27 97 -39h1q6 7 11 13q50 58 94 85q50 31 96 24q16 -3 30.5 -15
t19.5 -27q6 -19 -4 -36q-54 -90 -158 -84q-10 1 -21 3q-29 -39 -71 -103q-5 -8 -17.5 -26.5t-29 -44.5t-24.5 -37q22 -3 41 -4q77 -4 130 27q9 5 14 -4t-4 -14q-59 -33 -140 -29q-25 1 -53 5q-1 -1 -1 -2q-55 -84 -97 -138q-55 -73 -105 -121q-12 -11 -23 -21q18 -10 32 -17
q26 -14 47 -21q138 -45 294 26q67 30 128.5 80t106.5 110q6 8 14 2t2 -14q-47 -62 -110 -113.5t-133 -83.5q-163 -74 -308 -25q-23 7 -51 21q-14 8 -39 22q-102 -81 -204 -75q-16 -3 -29 -1q-31 4 -49 32q-19 32 -1 66q16 28 50 44q56 27 122 9q25 -8 56 -23l10 -4
q15 15 30 33q61 71 166 229q1 1 2 3q-1 0 -3 0.5t-3 0.5q-17 4 -27 6q-69 15 -112 18q-60 3 -106 -12q-9 -3 -12.5 6.5t6.5 13.5z" />
    <glyph glyph-name="bracketleft" unicode="[" horiz-adv-x="525" 
d="M446 647h-6q-7 0 -16 -1q-23 -1 -50 -3t-49 -3q-10 -1 -16 -1v-3l-1 -1v-1v-1l-1 -1v-1v-1v-1h-1v-1v-1v-1l-1 -1v-1v-1l-1 -1v-1v-1l-1 -1v-1v-1v-1h-1v-1v-1v-1l-1 -1v-2l-28 -92l-86 -280l-85 -279l-29 -92l-6 -22h15h63h64h21h8q10 0 10 -10t-10 -10h-8h-21h-64h-63
h-21h-8q-5 0 -8 4t-1 9v1v1l1 1v1v1l1 1v1v2l8 26l28 92l86 279l85 280l29 92q4 16 8 26q2 7 2 9q2 7 9 7q1 0 6 1q7 0 17 1q22 1 49 3l49 3q10 1 17 1h6q10 1 10.5 -9t-9.5 -11z" />
    <glyph glyph-name="backslash" unicode="\" horiz-adv-x="355" 
d="M12 714q0 -1 3 -8v-1l1 -1v-1v-1l1 -1v-1v-1l1 -1v-1l1 -1v-1v-1h1v-1v-1v-1h1v-1v-1l1 -1v-1l1 -1v-1v-1l31 -79l94 -241l95 -241v-2l1 -2l1 -1v-2l1 -2v-1l1 -2l1 -1v-2l1 -1v-2l1 -1v-2l1 -1l1 -1v-2l1 -1v-1l1 -1v-2v-1l1 -1v-1l1 -1v-1l1 -1v-1v-1l1 -1v-1v-1l1 -1
v-1l1 -1v-1v-1h1v-1v-1l1 -1v-1v-1l1 -1v-1v-1l1 -1v-1l1 -1v-1v-1h1v-1v-1l1 -1v-1v-1h1v-1v-1l1 -1v-1v-1l1 -1v-1l1 -1v-1v-1l1 -1v-1l1 -1v-1l1 -2v-1l1 -2v-2l1 -1l1 -1v-2v-1l1 -1v-1l1 -1v-1l1 -1v-1v-1l1 -1v-1l1 -1v-2q3 -7 3 -8q4 -9 -5.5 -12.5t-12.5 5.5
q-1 1 -3 8q-4 9 -9 22l-31 79l-94 241l-94 241l-31 80l-9 22l-3 8q-4 9 5.5 13t13.5 -6z" />
    <glyph glyph-name="bracketright" unicode="]" horiz-adv-x="492" 
d="M25 -157q1 0 6 1q7 0 16 1l49 4q27 1 50 3q8 1 15 1q0 1 1 3v1l1 1v1v1l1 1v1v1v1h1v1v1v1l1 1v1v1v1h1v1v1v1l1 1v1v1l1 1v1v1l1 2l27 92l84 280l84 280v2l1 2v1l1 2v2l1 1v2l1 2v1v2l1 1v2l1 1v1l1 2v1v1l1 2v1l1 1v2v1l1 1v1v1l1 1v2v1l1 1v1v1l1 1v1v1v1l1 1v1l1 1v1
v1v1l1 1v1v1l1 1v1v1v1h1v1v1v1l1 1v1v1v1l1 1v1v1l1 1v1v1l1 1v1v1v1l1 1v1l1 1v1v1v1l1 1v1v1v1l1 1v1v1l1 1v2q5 16 7 22h-16q-28 -1 -62.5 -1h-63.5h-21h-8q-10 -1 -10 9t10 11h8h21h63t63 1h21h8q5 0 8 -4t2 -9q-1 -2 -3 -9l-8 -26l-27 -92l-84 -281l-84 -280l-27 -92
l-1 -2v-2l-1 -1v-2v-1l-1 -1v-1v-2l-1 -1v-1v-1h-1v-1v-1v-1l-1 -1v-1v-1l-1 -1v-1v-1v-1l-1 -1q-2 -8 -3 -9q-2 -7 -8 -7q-2 0 -7 -1q-6 0 -16 -1l-49 -3l-50 -4l-16 -1q-5 -1 -6 -1q-10 0 -10.5 10t9.5 10z" />
    <glyph glyph-name="asciicircum" unicode="^" horiz-adv-x="513" 
d="M92 311h1v1v1l1 1v1l5 13l1 1v1l1 1v1l1 2v1h1v1v1l1 1v1v1l1 1v1l1 1v1l1 1v1v1h1v1v1v1h1v1v1h1v1v1h1v1v1v1h1v1v1l1 1v1l1 1v1l1 1v1v1l1 1v1l1 1v1v1l1 1l56 135l57 135q10 27 18 45q3 7 5 12q2 4 2 5q3 6 9.5 6t9.5 -6q0 -1 2 -4v-2v-1h1v-1v-1l1 -1v-1l1 -1v-1
l1 -1v-1v-1l1 -1l19 -44l58 -135l58 -135l19 -45q3 -7 5 -12q2 -4 2 -5q4 -9 -5 -13t-13 5q-1 1 -2 5l-1 1v1v1h-1v1v1h-1v1v1v1h-1v1l-1 1v1v1l-20 45l-57 135l-58 135l-17 39l-1 -1v-1l-1 -1v-1l-1 -1v-1l-1 -2v-1l-1 -1v-1l-1 -1v-1v-1l-1 -1v-1l-1 -1v-1v-1l-1 -1v-1
l-1 -1v-1l-1 -1v-1v-1h-1v-1v-1l-1 -1v-1v-1l-1 -1l-1 -1v-1v-1l-1 -1v-1l-1 -1v-1l-56 -135l-57 -135v-2l-1 -2l-1 -1v-2l-1 -1v-2l-1 -1l-1 -2v-1l-1 -1v-1l-1 -2v-1l-1 -1v-1v-1l-1 -1v-1l-1 -1v-1l-1 -1v-1v-1l-1 -1v-1l-1 -1v-1v-1h-1v-1v-1l-1 -1v-1l-1 -1v-1v-1
l-1 -1v-1l-1 -2q-3 -7 -5 -12q-2 -4 -2 -5q-4 -9 -13 -5t-6 13z" />
    <glyph glyph-name="underscore" unicode="_" horiz-adv-x="642" 
d="M101 -183h5h7h8h52q72 0 159 0.5t159 0.5h52h6h4.5h4.5h5q10 0 10 -10t-10 -10h-5h-15h-52q-72 0 -159 -0.5t-159 -0.5h-52h-8h-7h-5q-10 0 -10 10t10 10z" />
    <glyph glyph-name="grave" unicode="`" horiz-adv-x="225" 
d="M39 661q1 -1 5 -3q5 -3 12 -8l2 -1l1 -1l1 -1h1l2 -1l1 -1h1l1 -1l1 -1l1 -1h1l1 -1h1v-1h1l1 -1h1l1 -1h1v-1h1l1 -1h1v-1h1l1 -1h1v-1h1l1 -1h1l1 -1l1 -1h1l1 -1h1l1 -1l1 -1h1l2 -1l38 -25q8 -5 13 -8q4 -2 5 -3q8 -5 2.5 -13.5t-13.5 -3.5q-1 1 -5 3q-5 4 -12 8
l-39 25l-38 24q-8 5 -13 8q-4 2 -5 3q-8 5 -2.5 13.5t13.5 3.5z" />
    <glyph glyph-name="a" unicode="a" horiz-adv-x="570" 
d="M60 89q24 22 76.5 89t70.5 100q10 63 2 96q-34 -8 -66 -47.5t-51.5 -87t-28.5 -90.5t-3 -60zM232 320l2 4q18 28 27 47l6 14q11 33 14 46q2 8 10 8h2q3 -1 5 -3q41 -7 54 -37q-2 -5 -5.5 -13.5l-14 -34t-20.5 -51.5t-23 -62.5t-23 -69.5t-19.5 -69.5t-13.5 -66t-3.5 -55
t7.5 -41.5q3 2 7 4q37 25 85 76q46 49 88 107t65 104q4 9 13 5t5 -13q-23 -48 -66 -107t-90 -110q-50 -53 -89 -79q-48 -31 -73 -16q-34 21 -23 105q7 63 39 167q10 31 22 67q5 17 11 35l-6 -12q-19 -35 -77 -110q-61 -76 -82 -91q-38 -26 -62 -11q-23 14 -22 58
q2 77 45 161q39 76 90 119q26 21 48 27q26 8 44 -7q27 -23 23 -95z" />
    <glyph glyph-name="b" unicode="b" horiz-adv-x="589" 
d="M265 715q-28 -22 -75 -121t-93 -229q40 48 78 110q77 125 88 207q2 19 2 33zM62 40q4 -7 13 -9q14 -3 36 5q4 1 7 3h-1q-17 1 -30 2q-16 0 -25 -1zM80 316q-16 -47 -29 -93q50 57 93 87q42 29 77 33q42 4 72 -28q40 -43 13 -112q-22 -57 -81 -114q-18 -18 -38 -33
q54 4 107 27q114 49 207 179q6 8 14 2t3 -14q-97 -134 -216 -185q-73 -32 -146 -29q-20 -12 -38 -19q-28 -10 -47 -5q-24 5 -32 29q-3 10 7 16q5 2 12 3q11 1 30 1q13 -1 31 -2l18 -2q6 -1 13 -1q3 5 10 15q21 30 31 46.5t26.5 44.5t22 46.5t8.5 41t-5 40.5t-25 32
q-28 -4 -62 -28q-45 -32 -100 -95q-9 -11 -19 -23q-14 -51 -24 -96v-4t-1.5 -8.5t-5 -9t-10 -5t-16.5 2.5q-18 8 -26 18q-5 1 -7.5 4.5t-1.5 8.5l1 1q0 3 1 6q3 10 6 21q10 37 21 76q37 124 74 229q58 164 108 250q28 48 53 70q31 26 59 15q10 -4 14 -18q3 -8 3 -22
q0 -15 -3 -36q-11 -86 -90 -215q-58 -94 -112 -148z" />
    <glyph glyph-name="c" unicode="c" horiz-adv-x="536" 
d="M93 -40q50 11 130 81q38 34 83 81q37 39 88 98q4 5 9 11q1 0 2.5 2t3.5 4.5t3 3.5q10 11 15 17q16 18 23 25t14 0t0 -14q-8 -8 -54 -62q-52 -59 -89 -98q-46 -49 -85 -83q-66 -58 -115 -78q-63 -25 -98 13q-53 57 -37 166q15 95 73 190q58 94 122 125q36 18 67.5 8.5
t52.5 -45.5q5 -9 -4 -14t-14 4q-14 24 -32 33q-39 -21 -81 -77.5t-70.5 -126t-34 -141t27.5 -123.5z" />
    <glyph glyph-name="d" unicode="d" horiz-adv-x="754" 
d="M578 702q73 -1 84 35q7 24 -5 34q-4 3 -11 4q-24 -16 -68 -73zM99 28q21 12 44 37q67 70 104 163q7 23 16 47q2 10 3 18q0 4 2 6q8 68 -23 90q-8 6 -18 8q-35 -26 -72 -92.5t-55.5 -146.5t-0.5 -130zM124 682q-25 -30 -57 -27q-17 1 -28.5 13.5t-13.5 33.5q-6 45 24 65
q25 17 76 16q41 -1 106 -14q37 -7 121 -27h2l2 -1q72 -17 109 -24q8 -2 17 -3q1 2 3 4q22 29 57.5 50t70.5 27q37 6 56 -8q24 -18 12 -55q-9 -31 -45 -43q-27 -9 -73 -6q-40 -55 -80.5 -121.5t-81 -147t-66 -156t-35 -146.5t11.5 -121q50 18 142 96q22 19 48 43l93 86
q47 43 65 55q8 5 13.5 -3t-2.5 -14q-17 -11 -63 -53q-69 -65 -93 -86q-26 -24 -48 -43q-76 -65 -125 -89q-31 -16 -53 -17q-28 -1 -43 18q-39 48 -19 159v1q-32 -54 -69 -93q-53 -56 -90 -53q-23 2 -36 26q-12 24 -12 67q-3 111 41 198q38 76 97 110q59 35 99 7
q26 -19 32 -62q3 10 7 19q44 106 103 215q39 72 70 118q-4 0 -8 1q-37 8 -109 25q-4 0 -5 1q-83 19 -120 27q-63 12 -102 13q-45 1 -65 -13q-20 -13 -16 -45q4 -29 25 -31t40 21q6 8 14 1.5t1 -14.5z" />
    <glyph glyph-name="e" unicode="e" 
d="M220 402q-45 -9 -86.5 -68.5t-58.5 -133.5q69 39 121 98q40 44 43 74q2 21 -19 30zM70 175q-9 -55 3 -100t47 -67q50 15 116 70q7 6 31 28q2 2 8 7t11 10l6 5q17 16 31 27q87 78 156 136q8 7 14.5 -1t-1.5 -14q-69 -58 -156 -136q-13 -11 -30 -27q-1 0 -6.5 -5l-11 -10
t-7.5 -7q-25 -22 -32 -28q-134 -111 -207 -72q-31 17 -45 57t-11 95q7 111 65 198q66 100 154 86q58 -10 54 -57q-4 -36 -48 -86q-61 -69 -141 -109z" />
    <glyph glyph-name="f" unicode="f" horiz-adv-x="551" 
d="M397 719q-67 -21 -164 -155.5t-181 -314.5q108 88 175 161q99 107 172 244q11 20 11 39t-13 26zM-39 26q-28 -84 -42.5 -155t-13 -130.5t22.5 -93.5q17 -6 34 19q21 32 30 92q10 64 2 135.5t-33 132.5zM-28 58q115 -33 220 -4q80 22 172 88l28 21q5 4 13 10q10 8 13 10
q31 24 48 35q8 6 14 -2.5t-3 -14.5q-16 -11 -47 -34l-13 -10q-8 -6 -13 -10l-28 -21q-95 -68 -179 -92q-105 -29 -218 1q26 -63 34.5 -138t-1.5 -142q-10 -65 -33 -100q-28 -42 -62 -25q-93 45 -65 243q25 171 126 392q99 218 212 354q127 154 211 120q29 -11 29 -46
q0 -24 -13 -49q-74 -139 -175 -248q-72 -78 -196 -178q-4 -3 -13 -10q-35 -77 -61 -150z" />
    <glyph glyph-name="g" unicode="g" horiz-adv-x="639" 
d="M158 -41q-7 -2 -13 -4q-12 -4 -53.5 -17t-45.5 -14q-83 -26 -124 -48q-53 -29 -72 -68q-19 -38 -15.5 -72t26.5 -58q22 -23 53.5 -28.5t63.5 9.5q47 23 101 121q38 70 79 179zM195 282q35 27 33 60q-2 31 -31 46q-14 7 -30 8q-24 -21 -47.5 -53t-46.5 -75t-36 -97.5
t-10 -108.5q71 1 155 107q61 78 95 158q0 1 1 2q17 34 61 -24q5 -7 5 -8q-28 -132 -80 -277q84 36 146 82q86 64 141 154q5 8 13.5 3t3.5 -14q-57 -93 -146 -159q-70 -52 -167 -92q-26 -72 -54.5 -131.5t-64 -113.5t-77.5 -84t-85 -29q-35 -13 -69 -5t-58 33
q-28 29 -32 69.5t17 83.5q22 45 81 76q42 23 127 50q4 1 45.5 14t53.5 17q14 5 27 9q2 3 3 6q31 87 69 213q0 1 6 21q-23 -36 -46 -66q-40 -51 -79 -80q-48 -35 -92 -35q-32 0 -47 34q-13 28 -12 73q1 43 13.5 88t33.5 77q46 71 102 93q49 20 90 -1q38 -21 41 -62
q3 -44 -40 -78q-8 -6 -14.5 2t1.5 14z" />
    <glyph glyph-name="h" unicode="h" horiz-adv-x="660" 
d="M261 702q-42 -46 -128 -283q115 108 130 266q0 7 -2 17zM42 139q-31 -109 -39 -169q0 -4 -6 -5t-13.5 1t-15.5 5t-15 7q-1 -1 -3 -1h-1q-9 1 -9 10v1q7 70 53 220q18 62 42 134q0 2 2 4q15 48 33 98q4 12 8 21q6 18 12 35q20 50 38 92q26 60 49 97q19 32 36 47
q23 21 43 11q14 -7 22 -30q6 -19 5 -34q-17 -184 -164 -303q-34 -98 -62 -191q17 20 35 38q63 64 111 79q62 21 82 -41q8 -27 -14 -82q-8 -21 -22 -51q-6 -11 -13 -27q-1 -1 -7 -13t-7 -15l-17 -34q-37 -81 -44 -126q-9 -58 26 -81q16 -11 68 35q46 41 116 127q20 24 42 51
q36 46 97 128q51 68 63 82q7 8 14.5 1.5t0.5 -14.5q-12 -14 -62 -81q-62 -82 -98 -128q-22 -28 -42 -52q-71 -87 -118 -129q-29 -25 -50 -35q-26 -12 -43 -1l-8 6q-45 16 -61 52t-8 78.5t27.5 93.5t43 95t42.5 85t21 61q-10 1 -23 -4q-43 -14 -103 -74q-33 -33 -64 -74z" />
    <glyph glyph-name="i" unicode="i" horiz-adv-x="422" 
d="M54 342q13 -2 24.5 -5.5t21 -12t4.5 -20.5q-52 -103 -76.5 -213.5t-4.5 -130.5q45 26 119 103q23 23 49 52q38 42 92 106q46 56 53 62q7 7 14 0t0 -14q-6 -6 -52 -61q-54 -64 -92 -107q-26 -28 -50 -52q-87 -91 -137 -113q-35 -16 -55 -2q-21 15 -22 61q-1 65 32 177
q30 100 64 167q5 9 14 4q1 0 2 -1zM94 438q14 18 38 7q11 -5 15.5 -15.5t0.5 -22.5q-6 -13 -18 -18.5t-24 -1.5q-12 5 -16.5 18t0.5 28q1 3 4 5z" />
    <glyph glyph-name="j" unicode="j" horiz-adv-x="763" 
d="M266 -16q-41 -15 -50 -19q-94 -35 -144 -61q-69 -36 -108 -77q-29 -32 -32 -65q-2 -29 16 -53q18 -23 47.5 -29t59.5 8q106 52 207 286zM417 382q62 -6 57 -20q-4 -14 -21.5 -76t-36.5 -122t-39 -115q87 36 149 74q91 56 150 127q6 8 14 1.5t1 -14.5q-61 -73 -155 -131
q-68 -42 -169 -83q-148 -389 -335 -363q-29 -5 -56 5t-44 32q-23 29 -20 66q3 41 38 78q40 43 113 80q51 27 146 63q6 2 20 7.5t29.5 11t18.5 6.5q32 78 63 174q28 84 59 196q3 10 12 7q4 -1 6 -4zM418 474q15 18 38 7q12 -5 16.5 -15.5t-0.5 -22.5q-5 -13 -17 -18.5
t-24 -1.5q-12 5 -16.5 18t0.5 28q1 3 3 5z" />
    <glyph glyph-name="k" unicode="k" horiz-adv-x="570" 
d="M204 625q4 -1 8 -1q40 -6 85 9q29 9 41 27q9 14 5 29q-5 16 -20.5 24.5t-35.5 5.5q-38 -7 -83 -94zM197 -34q-1 6 -2 10q-1 5 -1 9q-8 37 -19 55q-14 23 -41 28q-10 1 -8 11v1v3q-1 5 3 8q2 5 7 6q32 10 60.5 36.5t41.5 59.5q14 31 7 55q-6 23 -33 33q-32 -15 -68 -51
q-38 -39 -73 -94t-57 -110v-2h-1q2 -5 -2 -10q-13 -17 -39 -20q-17 -3 -37 2q-5 1 -9 2q-2 1 -3 1q-9 3 -6 13q28 78 62 210q4 18 11 44q0 2 1 4.5t1.5 5.5t1.5 6t2 5v2q3 13 5 22q30 118 51 180q29 90 60 144q-23 9 -38 14q-27 8 -52 9q-64 5 -144 -31q-10 -4 -14 5.5
t5 13.5q85 37 154 32q28 -1 57 -10q17 -5 43 -16q35 55 80 77q56 28 127 5q4 -1 5 -5q21 -13 27 -34q7 -25 -7 -46q-16 -23 -51 -35q-50 -16 -95 -10q-7 1 -15 2q-1 -2 -2 -5q-42 -89 -88 -247q-22 -72 -54 -195q-5 -20 -9 -33q41 69 89 118q43 44 82 59q46 18 79 -5
q34 -25 37 -64t-24 -77q-41 -57 -113 -76q13 -7 25 -18q23 -22 39 -64q5 -12 10 -29q0 -1 1 -3t1.5 -4t0.5 -4l1 -2q2 -7 4 -12q7 -20 12 -26q4 -4 10 -1q46 25 106 123q45 72 80 154q4 10 13.5 6t5.5 -13q-36 -84 -82 -158q-55 -89 -101 -121q-1 -3 -4 -4q-60 -35 -88 -9
q-12 10 -19 31q-4 13 -9 39z" />
    <glyph glyph-name="l" unicode="l" horiz-adv-x="498" 
d="M360 763q-76 -85 -169 -281q18 20 33 37q77 89 127 207q0 1 1 3q9 21 8 34zM166 427q-111 -251 -118 -400q8 2 18 7q19 10 70 52q1 1 22.5 19.5t46.5 39.5t36 30q44 36 78 61q53 38 95 60q9 4 13.5 -5t-4.5 -13q-40 -21 -92 -58q-34 -25 -77 -61q-11 -9 -36 -29.5
t-46.5 -39t-22.5 -19.5q-53 -44 -75 -55q-48 -24 -72 -3q-21 18 -19 68q4 83 66 246q52 138 123 276.5t105 169.5q20 19 42 26q33 11 52 -10q11 -14 8 -37q-1 -13 -9 -31q0 -1 -1 -3q-51 -120 -130 -212q-26 -31 -71 -77z" />
    <glyph glyph-name="m" unicode="m" horiz-adv-x="821" 
d="M21 378q1 6 19.5 10.5t36 1.5t14.5 -17q1 -2 0 -5q-12 -64 -36 -150q29 56 59 97q46 64 93 94q32 20 53 15q22 -5 28 -33q9 -40 -13 -131q-17 -68 -48 -154l-4 -12q52 74 114 141q63 69 97 88q19 10 31 7q15 -3 20 -19q7 -22 -2 -74q-4 -29 -21 -103q-1 -7 -2 -12
q-19 -82 -22 -120q-5 -53 9 -62q19 -13 63 19q39 29 97 95q22 24 47 56q18 22 42 52q5 6 21 26.5t17 21.5q6 8 14 1.5t2 -14.5q-1 -1 -17.5 -21.5t-20.5 -26.5q-24 -30 -42 -52q-26 -32 -48 -56q-59 -67 -100 -98q-25 -18 -45 -24q-9 -2 -17 -2q-2 -1 -4 -1q-71 0 -82 70
q-4 26 0 65q3 27 11 73q1 5 3 13q12 62 14 88q3 30 0 48q-22 -20 -50 -51q-92 -101 -161 -212q-2 -3 -6 -4q-28 -13 -64 -1q-3 0 -6 1q-9 4 -5 13v1q1 1 1 2q2 3 4 7q5 12 11 25q19 43 35 85q17 45 28 84q34 113 17 161q-74 -53 -149 -204q-20 -41 -43 -95q-7 -16 -30 -72
l-4 -10q-3 -5 -9 -6q-8 -2 -24 -2.5t-27 0.5t-12 1q0 1 1 2q-7 4 -4 12q48 111 76 206q17 58 38 158z" />
    <glyph glyph-name="n" unicode="n" horiz-adv-x="681" 
d="M30 415q11 26 76 -16l3 -2q6 -6 2 -13q-32 -59 -60 -145q13 18 27 37q37 51 74 92.5t54 53.5q58 41 89 34q30 -7 33 -55q2 -36 -11 -102q-7 -37 -28 -127q-2 -7 -3 -11q-17 -70 -25 -109q-11 -56 -12 -92q-1 -40 10 -57q10 -17 34 -13q15 3 56 43q39 37 90 98
q108 129 154 211q5 8 13.5 3t3.5 -13q-47 -83 -156 -214q-52 -61 -91 -99q-45 -45 -66 -49q-7 -1 -13 -1q-4 -2 -7 -1q-107 13 -120 114q-5 40 4 97q8 43 25 107q5 16 12 41q25 85 32 116q11 48 10 77q-10 -6 -22 -14q-16 -11 -52 -52t-72 -90q-37 -49 -63 -91
q-16 -58 -39 -165q-1 -5 -6 -7t-12 -4t-24 3t-34 21q-10 2 -8 12q27 128 117 376q2 4 5 6z" />
    <glyph glyph-name="o" unicode="o" 
d="M214 210q21 -12 44 -17q4 -1 8 -1q14 39 22 82q18 98 2 167q-14 65 -53 68q-86 -45 -85 -144q0 -42 17 -84t45 -71zM279 170q-17 -46 -40 -82q-57 -89 -136 -103q-81 -15 -118 47q-31 53 -24 144q6 85 41 162q37 82 87 109q8 5 13 -3.5t-4 -13.5l-2 -2q-16 -35 -31 -98.5
t-23 -131t1.5 -124t39.5 -72.5q8 1 17 2q69 13 122 95q21 32 37 73l-6 2q-46 10 -83 43t-57 79q-19 42 -16.5 83.5t18.5 75t47.5 54t70.5 20.5q58 1 77 -83q17 -74 -2 -176q-8 -42 -21 -81q93 -3 192 93q7 7 14 -0.5t-1 -14.5q-108 -105 -213 -97z" />
    <glyph glyph-name="p" unicode="p" horiz-adv-x="536" 
d="M48 -155q-81 16 -137 -27l-1 -1q-45 -52 -50 -100q-4 -41 21 -60q23 -18 57 -1q31 15 57 55q16 26 31 64q10 26 22 70zM270 288q-3 -5 -5 -11q-20 -43 -40 -107q-9 -30 -20 -70q10 -22 23 -38q15 -18 32 -26q38 28 68.5 68t45.5 82q34 95 -16 149q-28 -11 -62 -31
q-13 -7 -26 -16zM-101 -166q38 30 85 35q32 3 69 -5l4 14q5 18 12 47l5 21q6 22 8 28q16 63 28 105q46 163 90 249q61 118 135 124q5 0 8 -4q16 -7 32 -32q4 -2 5 -7q2 -9 -7 -12q-47 -12 -85 -74q98 56 133 41q34 -15 43 -61q7 -39 -4 -91q-11 -51 -35 -96.5t-52 -68.5
q-49 -38 -89.5 -37t-71.5 40q-7 9 -15 22q-3 -11 -6 -25l-1 -5q-2 -6 -4 -12.5t-2 -8.5q-27 -102 -45 -155q-5 -14 -9 -26q14 -6 34 -15q46 -19 64 -26q34 -12 59 -15q58 -7 93 37q6 8 14 1.5t2 -14.5q-42 -53 -112 -44q-27 4 -63 17q-18 6 -65 26q-19 8 -33 14
q-20 -51 -41 -88q-36 -61 -81 -87q-51 -30 -115 -16q-3 1 -6 4q-6 3 -12 7q-33 26 -28 78q6 55 56 113q1 1 3 2z" />
    <glyph glyph-name="q" unicode="q" horiz-adv-x="604" 
d="M251 95q-44 -91 -73 -166q-84 -217 -39 -282q29 10 51 54q31 62 47 186q9 71 12 155q1 27 2 53zM271 297q42 1 63 -5q3 1 6 -1q9 -4 4 -13q-37 -69 -66 -127h2q26 6 54 17q91 36 167 116q8 8 16 17q7 8 14.5 1.5t0.5 -14.5l-16 -18q-79 -83 -174 -121q-30 -12 -58 -17
q-7 -2 -13 -3q0 -41 -2 -88q-3 -85 -12 -156q-16 -128 -49 -193q-21 -41 -48 -57q-32 -19 -70 -4q-30 11 -39 47q-7 30 0 79q12 79 64 209q19 47 43 100q19 43 41 89q-18 -24 -36 -44q-49 -56 -88 -78q-52 -29 -83 3q-35 39 -35 104q0 59 29 123q28 65 73 110t92 54
q47 8 75 -13q24 -17 26 -48q2 -30 -17 -48q-22 -20 -53 -6q-9 5 -4.5 14t13.5 5q19 -9 30.5 2t10.5 31q-1 16 -11 28q-39 -13 -78 -45.5t-65 -76.5q-67 -110 -21 -224l8 4q36 20 83 74q38 44 75 99q32 47 41 68q2 4 6 5z" />
    <glyph glyph-name="r" unicode="r" horiz-adv-x="476" 
d="M-57 426q-8 -24 4 -62q10 -32 61 -68q16 61 6 104q-9 39 -34 49q-17 6 -29 -8q-1 -2 -2 -5q-3 -4 -6 -10zM65 200q-61 27 -104 77q-34 40 -44 80.5t7 76.5q3 8 7 14q9 15 24.5 20.5t31.5 -1.5q35 -13 46 -63q12 -50 -8 -120q8 -5 17 -10q16 -10 37 -21q7 -3 16 -9l8 -4
q5 -2 8 -4q16 -9 24 -13q12 -8 14 -15q2 -8 -9 -39l-11 -29q-7 -19 -12 -34q-24 -74 -29 -129q-5 -47 5 -83q7 -30 19 -48q15 -23 34 -18q19 6 46 50q23 36 55 106q9 20 23 52q43 99 62 134q34 66 60 81q8 6 13.5 -3t-3.5 -14q-21 -12 -52 -73q-19 -35 -62 -133
q-14 -33 -23 -52q-33 -72 -56 -109q-31 -50 -58 -58q-7 -2 -14 -2q-2 -1 -5 -1q-71 -1 -104 57q-26 48 -23 128q3 56 20 114t40 95zM-75 368v2l-1 2q0 -2 1 -4z" />
    <glyph glyph-name="s" unicode="s" horiz-adv-x="557" 
d="M280 519q-31 -19 -48 -74l14 8q29 19 38 36q7 16 -4 30zM30 -101q40 16 57.5 77t25.5 165q-2 0 -4 -1q-44 -8 -73 -18q-68 -22 -81 -61q-11 -33 -1.5 -71t34.5 -65q19 -20 42 -26zM174 506q11 17 26.5 27t28.5 12.5t27 1t19.5 -3t9.5 -2.5q3 -1 5 -3q26 -27 12 -57
q-11 -23 -45 -45q-14 -9 -32 -17q0 -2 -1 -5q-7 -36 -12 -88q-3 -32 -7 -99q-1 -8 -1 -11q-1 -22 -2 -40q4 1 5 1q10 2 18 3q94 14 143 29q70 21 102 54q7 8 14.5 1t0.5 -14q-36 -37 -112 -60q-50 -15 -145 -30q-7 -1 -18 -3q-2 0 -10 -1q-5 -72 -14 -118
q-18 -91 -58.5 -128t-84.5 -34q-39 3 -69 35q-29 31 -40 74.5t2 82.5q16 47 94 73q30 10 75 19l10 2q0 8 3 53.5t4 59t4.5 51t7.5 55t9.5 44.5t13.5 46t17 35z" />
    <glyph glyph-name="t" unicode="t" horiz-adv-x="878" 
d="M258 590q1 0 3 1h2q7 14 14 26q5 11 9 20q-13 -21 -28 -47zM245 566q-17 -30 -34 -65q21 34 40 67q-4 -1 -6 -2zM-88 610q-2 -36 26 -51q27 -14 85 -11q50 2 131 19q4 1 7 1q64 122 100 151q29 24 46 27q11 2 18 -4.5t8 -18.5q3 -32 -38 -115q-3 -5 -6 -11q8 2 19 5
q25 6 41 10q96 22 157 32q83 14 140 13q68 -1 107 -23q46 -25 56 -79q2 -9 -8 -11t-12 8q-15 83 -144 85q-55 1 -136 -13q-60 -10 -155 -32q-17 -4 -41 -10q-22 -5 -36 -8q-49 -90 -117 -181q-19 -46 -36 -91q-52 -137 -67 -232t11 -130q28 13 79 58q18 16 54 49
q40 38 59 55q77 69 135 107q9 5 14 -3t-3 -14q-57 -37 -133 -105q-19 -17 -59 -55q-36 -33 -54 -49q-59 -52 -92 -65q-2 -1 -5 -2q-11 -5 -15 -6q-22 -7 -39 -1q-30 12 -38 54q-8 36 1 93q14 101 73 255q46 122 104 235q-76 -16 -125 -18q-63 -3 -96 14q-39 20 -36 69
q0 10 10 9.5t10 -10.5z" />
    <glyph glyph-name="u" unicode="u" horiz-adv-x="553" 
d="M39 8q3 0 6 1q-2 0 -6 -1zM269 364q1 2 4 4t12 6.5t18 4.5t23 -7t27 -22q-1 -1 -2 -3q1 -3 0 -5q-65 -158 -91 -247q-18 -63 -20 -99q-2 -32 9 -40q28 28 69 77q11 14 25 31q8 10 39 48.5t33 41.5q37 47 52 60q7 7 14 -0.5t-1 -14.5q-13 -12 -49 -57q-3 -3 -33.5 -41.5
t-39.5 -49.5q-13 -17 -25 -30q-45 -55 -76 -86q-41 -39 -65 -43q-17 -4 -28 9q-9 11 -10 34q-3 45 22 145q9 33 21 82q1 3 2 5q7 29 16 61q-14 -26 -29 -50q-43 -72 -81 -114q-36 -40 -69 -56h-1q-12 -6 -24 -8q-16 -3 -31 -1q-20 4 -30 22q-8 15 -8 40q0 42 20 107
q12 40 30 81q31 83 57 105q17 12 35 7t32 -16l14 -12q-1 -1 -2 -3q1 -4 -2 -8l-1 -1q-1 -2 -3 -4q-6 -7 -12 -16q-19 -28 -36 -59q-27 -52 -40 -104q-15 -59 -10 -113q31 13 66 52q37 41 79 112q22 36 59 106q30 55 38 65q1 2 2 2z" />
    <glyph glyph-name="v" unicode="v" horiz-adv-x="444" 
d="M242 388q-22 -21 -40 -65t-11 -91q47 107 51 153v3zM-20 338q2 7 8 11t14 4.5t16.5 -0.5t17.5 -3.5t15.5 -4.5t10.5 -4l5 -2q-40 -175 -48.5 -254t6.5 -114q54 45 120 168q17 31 33 65q-24 19 -30 57q-9 53 15 110q26 61 67 65q22 2 29 -22q4 -13 3 -31q-4 -52 -58 -170
q5 -2 10 -2q52 -6 145 66q7 6 13.5 -2t-1.5 -14q-99 -77 -159 -70q-9 1 -16 4q-16 -34 -33 -66q-45 -82 -86 -133q-50 -60 -88 -65q-24 -3 -38 18q-11 17 -15 48q-6 50 6 140q5 38 14 83q5 29 15 76q3 17 4 24q2 9 2 10q0 5 3 8z" />
    <glyph glyph-name="w" unicode="w" horiz-adv-x="676" 
d="M399 258q29 74 30 101v6q-31 -40 -30 -107zM232 344q4 14 18.5 16.5t28.5 -1.5t25 -11h2q9 -3 6 -12q-1 -6 -14.5 -48t-16.5 -53q-25 -86 -34 -149q-8 -56 -3 -101q8 8 16 18q37 44 79 123q21 41 40 85q-10 13 -15 31q-10 30 -4 67.5t26 67.5q3 5 4 7q6 8 12 13q9 7 19 6
q17 -1 24 -19q5 -11 4 -25q-2 -39 -46 -143q26 -21 73 -6q29 8 77 43q27 20 38 26q8 6 13.5 -2.5t-3.5 -13.5q-9 -7 -36 -26q-25 -18 -40 -27q-23 -13 -43 -20q-54 -16 -87 7q-19 -42 -38 -80q-43 -81 -81 -127q-48 -57 -84 -48q-19 5 -28 26q-7 16 -8 44q-1 46 14 121
q11 54 30 117q-41 -61 -86 -123q-52 -70 -87 -111q-20 -24 -34 -35q-18 -16 -28 -14q-12 3 -16 19q-3 11 -3 30q1 30 9 81q16 92 33 140q2 8 6 20t6.5 20t3.5 9q2 5 6 13q8 17 12 25q2 4 5 5q19 25 69 -7q3 -1 5 -2t3 -4h1l-1 -1q2 -4 -1 -9q-38 -60 -62 -139
q-23 -72 -20 -128q32 39 77 100q109 150 132 198v1z" />
    <glyph glyph-name="x" unicode="x" horiz-adv-x="532" 
d="M5 330q-2 12 4.5 18.5t19.5 7t22 0t17 -1.5h2q10 1 11 -9q5 -60 13 -110q31 35 59 59q65 55 126 55q10 0 10 -10t-10 -10q-53 0 -113 -50q-31 -27 -67 -69q3 -16 7 -32q27 -111 72 -149q35 11 83 45q31 21 70 55q14 11 33 28l16 14q9 8 15 13q35 29 52 41q8 6 14 -2.5
t-3 -14.5q-16 -11 -50 -40q-6 -5 -15 -13q-12 -10 -15 -13q-20 -17 -34 -29q-40 -34 -71 -55q-78 -55 -129 -55q-68 -1 -94 86q-5 20 -11 46q-23 -30 -29 -37q-29 -37 -49 -58q-26 -27 -48 -39q-26 -14 -49 -9q-10 3 -7.5 12.5t12.5 7.5q30 -7 78 42q19 20 47 56q6 7 40 51
q-4 23 -10 56q-1 6 -3 19t-4 25.5t-2 13.5q-6 32 -9 51v3z" />
    <glyph glyph-name="y" unicode="y" horiz-adv-x="580" 
d="M127 -50q-24 -10 -50 -19q-23 -8 -55 -18q-39 -12 -49 -15q-52 -16 -78 -32q-32 -20 -47 -52q-21 -43 -19.5 -80t23.5 -63q20 -24 51 -30t63 8q42 18 77 81q31 55 65 160q11 32 19 60zM325 306q-41 -106 -84 -244q-4 -11 -12 -37q138 86 264 247q6 8 14 1.5t2 -14.5
q-137 -174 -289 -263l-11 -37q-18 -56 -29 -90q-46 -133 -97 -186q-63 -65 -174 -64q-3 0 -6 2q-40 7 -66 37q-26 31 -28 74t21 91q18 37 55 60q27 17 82 34q48 15 49 15q32 10 55 18q34 12 64 25q9 30 33 115q13 43 23 75q-65 -104 -127 -149q-28 -21 -52 -27t-38 4t-16 33
q-1 17 4 45q5 22 15 57q3 12 9 31q1 2 5 15.5t5 16.5q7 23 12 39q26 89 25 136q0 2 1 4v5q-1 9 7.5 12t22 0t22.5 -5.5t17 -5.5h1q10 0 10 -10q-1 -31 -12 -79q-8 -34 -25 -90q-2 -8 -5 -17q-22 -72 -29 -99q-10 -39 -12 -63q10 6 21 14q70 51 143 180q7 12 18 40q2 6 5 12
q8 20 17 45q2 6 5 14l1 3v1l1 1v1q1 1 3 2l1 1h1l1 1h3h1q47 11 68 -14q9 -3 5 -13z" />
    <glyph glyph-name="z" unicode="z" horiz-adv-x="621" 
d="M13 78q-38 5 -81 -15q-47 -21 -53 -54q-3 -16 8 -25q63 29 125 93q1 0 1 1zM360 393q35 15 52 37q-25 -13 -52 -37zM-3 411q116 -39 240 -38q41 49 78 71q57 34 117 13q9 -3 6 -12q2 -6 -2 -13q-25 -50 -107 -69q-11 -12 -30 -33q-19 -22 -55 -73q-6 -9 -32 -47
q-20 -29 -35 -50q-37 -51 -68 -87q2 0 4 -1q5 -2 9 -3q71 -22 99 -23q92 -2 168 47q34 22 72 57q27 26 73 75q7 7 14 0t1 -14q-47 -49 -75 -75q-39 -37 -74 -60q-81 -52 -179 -50q-31 1 -105 24q-4 1 -9 3q-8 2 -12 4q-22 -24 -42 -42q-77 -66 -146 -60q-25 2 -38.5 18.5
t-9.5 39.5q8 43 64 68q49 22 92 17q7 -1 15 -2q37 42 86 111l51 73q30 43 50 68q2 3 3 5q-120 2 -230 39q-9 3 -6 12.5t13 6.5z" />
    <glyph glyph-name="braceleft" unicode="{" horiz-adv-x="479" 
d="M106 249q-4 11 -10 22t-14 22q-14 20 -41 33q-28 14 -39 -1q-13 -17 12 -41q23 -21 46 -28q25 -7 46 -7zM186 -183q-74 -4 -110 8q-37 13 -43 43q-4 24 11 63q5 15 15 37q1 1 5 9.5t8 17.5t6 13q34 75 41 127q7 50 -6 94q-27 -1 -58 8q-28 9 -54 33q-17 15 -21 30
q-7 20 6 37q11 15 31 16q15 0 32 -9q32 -15 49 -40q9 -11 15 -23q8 -15 14 -30q38 7 63 44q19 28 33 74q11 34 21 91q2 10 4 24q1 2 2.5 12t2.5 12q9 54 17 82q10 41 25 64q37 59 110 13q8 -5 3 -13.5t-14 -3.5q-31 20 -52 17q-17 -3 -31 -24q-12 -20 -22 -58
q-7 -27 -17 -81q0 -1 -1.5 -11t-2.5 -13q-2 -14 -4 -24q-11 -57 -22 -93q-15 -49 -35 -79q-30 -43 -74 -53q14 -46 6 -99q-8 -54 -43 -132q-2 -4 -6 -13.5t-8 -17.5t-4 -9q-10 -22 -16 -36q-13 -34 -9 -52q3 -19 29 -28q33 -10 103 -7q10 0 10.5 -10t-9.5 -10z" />
    <glyph glyph-name="bar" unicode="|" horiz-adv-x="192" 
d="M122 617v-1v-2.5v-5.5v-24q-1 -37 -2 -89q-2 -121 -4 -268q-2 -146 -4 -268q-1 -52 -2 -88v-25v-9q0 -10 -10 -9.5t-10 10.5v8v25v1v2v1v1v1v1v1v1v1v1v1l1 1v1v1v1v1v1v1v1v1v1v1v1v1v1v1v1v1v1v1v1v1v1v1v1v1v1v1v1v1v1v1v1v1v1v1v1v1v1v1v1v1v1v1v1v1v1v1v1v1v1v1v1v1
v1v1v1v1v1v1v1v1v1v1l1 1v1v1v1v1v1v1v1v1v1v1v1v2l4 268l4 268q1 52 2 88v25v9q0 10 10 9.5t10 -10.5z" />
    <glyph glyph-name="braceright" unicode="}" horiz-adv-x="479" 
d="M280 255q4 -9 9 -18q7 -13 16 -26q14 -21 41 -34q28 -13 39 2q13 17 -12 40q-23 21 -47 28q-25 8 -46 8zM200 686q73 4 109 -8q37 -12 43 -42q5 -24 -10 -64q-5 -14 -16 -36l-8 -18q-7 -17 -10 -22q-33 -74 -40 -125q-8 -51 5 -96q27 1 59 -8q28 -9 54 -33q17 -15 21 -30
q7 -20 -6 -37q-11 -15 -31 -16q-14 0 -32 8q-32 16 -49 40q-10 14 -18 29q-7 12 -11 25q-38 -8 -63 -45q-19 -27 -33 -73q-10 -35 -20 -92q-2 -10 -5 -24q0 -2 -2 -12t-2 -12q-10 -54 -17 -82q-10 -41 -24 -64q-37 -59 -110 -14q-9 6 -3.5 14.5t13.5 2.5q31 -19 52 -16
q18 3 31 24q12 20 22 58q7 27 16 81q1 2 2.5 12t2.5 12q2 14 4 24q10 57 21 93q15 49 35 79q29 43 73 53q-13 48 -5 102t42 130q2 5 10 22l8 18q10 22 15 35q13 35 10 53q-4 19 -30 27q-33 11 -102 7q-10 0 -10.5 10t9.5 10z" />
    <glyph glyph-name="asciitilde" unicode="~" horiz-adv-x="655" 
d="M12 162q49 109 117 118q28 4 64 -8q18 -6 64 -26q43 -19 69 -26q39 -10 73 -5q86 13 168 132q6 8 14 2.5t2 -13.5q-87 -126 -181 -141q-38 -5 -81 6q-28 7 -72.5 27t-61.5 25q-32 10 -55 7q-57 -8 -102 -106q-4 -9 -13.5 -5t-4.5 13z" />
    <glyph glyph-name="agrave" unicode="&#xe0;" horiz-adv-x="570" 
d="M60 89q24 22 76.5 89t70.5 100q10 63 2 96q-34 -8 -66 -47.5t-51.5 -87t-28.5 -90.5t-3 -60zM232 320l2 4q18 28 27 47l6 14q11 33 14 46q2 8 10 8h2q3 -1 5 -3q41 -7 54 -37q-2 -5 -5.5 -13.5l-14 -34t-20.5 -51.5t-23 -62.5t-23 -69.5t-19.5 -69.5t-13.5 -66t-3.5 -55
t7.5 -41.5q3 2 7 4q37 25 85 76q46 49 88 107t65 104q4 9 13 5t5 -13q-23 -48 -66 -107t-90 -110q-50 -53 -89 -79q-48 -31 -73 -16q-34 21 -23 105q7 63 39 167q10 31 22 67q5 17 11 35l-6 -12q-19 -35 -77 -110q-61 -76 -82 -91q-38 -26 -62 -11q-23 14 -22 58
q2 77 45 161q39 76 90 119q26 21 48 27q26 8 44 -7q27 -23 23 -95zM169 588q12 -18 34 -55q28 -47 44 -69q6 -8 -2 -14t-14 2q-16 23 -45 70q-22 37 -33 54q-6 9 2.5 14.5t13.5 -2.5z" />
    <glyph glyph-name="aacute" unicode="&#xe1;" horiz-adv-x="570" 
d="M60 89q24 22 76.5 89t70.5 100q10 63 2 96q-34 -8 -66 -47.5t-51.5 -87t-28.5 -90.5t-3 -60zM232 320l2 4q18 28 27 47l6 14q11 33 14 46q2 8 10 8h2q3 -1 5 -3q41 -7 54 -37q-2 -5 -5.5 -13.5l-14 -34t-20.5 -51.5t-23 -62.5t-23 -69.5t-19.5 -69.5t-13.5 -66t-3.5 -55
t7.5 -41.5q3 2 7 4q37 25 85 76q46 49 88 107t65 104q4 9 13 5t5 -13q-23 -48 -66 -107t-90 -110q-50 -53 -89 -79q-48 -31 -73 -16q-34 21 -23 105q7 63 39 167q10 31 22 67q5 17 11 35l-6 -12q-19 -35 -77 -110q-61 -76 -82 -91q-38 -26 -62 -11q-23 14 -22 58
q2 77 45 161q39 76 90 119q26 21 48 27q26 8 44 -7q27 -23 23 -95zM183 480q22 18 53 35q18 10 56 28l1 1q16 8 25 12q8 4 12.5 -4.5t-4.5 -13.5l-24 -12q-1 0 -1 -1q-37 -18 -55 -28q-30 -16 -51 -33q-8 -6 -14 2t2 14z" />
    <glyph glyph-name="acircumflex" unicode="&#xe2;" horiz-adv-x="570" 
d="M60 89q24 22 76.5 89t70.5 100q10 63 2 96q-34 -8 -66 -47.5t-51.5 -87t-28.5 -90.5t-3 -60zM232 320l2 4q18 28 27 47l6 14q11 33 14 46q2 8 10 8h2q3 -1 5 -3q41 -7 54 -37q-2 -5 -5.5 -13.5l-14 -34t-20.5 -51.5t-23 -62.5t-23 -69.5t-19.5 -69.5t-13.5 -66t-3.5 -55
t7.5 -41.5q3 2 7 4q37 25 85 76q46 49 88 107t65 104q4 9 13 5t5 -13q-23 -48 -66 -107t-90 -110q-50 -53 -89 -79q-48 -31 -73 -16q-34 21 -23 105q7 63 39 167q10 31 22 67q5 17 11 35l-6 -12q-19 -35 -77 -110q-61 -76 -82 -91q-38 -26 -62 -11q-23 14 -22 58
q2 77 45 161q39 76 90 119q26 21 48 27q26 8 44 -7q27 -23 23 -95zM77 461l1 1q0 2 1 4t2 5t2 5.5t1.5 4.5t1.5 2q3 9 7 14l12 16q14 16 25 30q56 71 78 74q16 3 23 -15q4 -10 7 -32q1 -2 1.5 -9t1.5 -9q1 -10 2 -18q4 -23 10 -40q5 -16 11 -29q4 -8 -4.5 -12.5t-13.5 4.5
q-7 14 -12 31q-6 18 -10 42q-2 9 -3 20q0 1 -1 8t-2 9q-2 20 -5 27q-1 3 -2 4v-1q-6 0 -21 -15q-16 -16 -44 -51q-12 -15 -25 -31q-9 -11 -12 -14l-5 -10q0 -1 -1.5 -5t-3 -7.5t-3.5 -7.5l-1 -3q-3 -9 -12.5 -5.5t-5.5 13.5z" />
    <glyph glyph-name="atilde" unicode="&#xe3;" horiz-adv-x="570" 
d="M60 89q24 22 76.5 89t70.5 100q10 63 2 96q-34 -8 -66 -47.5t-51.5 -87t-28.5 -90.5t-3 -60zM232 320l2 4q18 28 27 47l6 14q11 33 14 46q2 8 10 8h2q3 -1 5 -3q41 -7 54 -37q-2 -5 -5.5 -13.5l-14 -34t-20.5 -51.5t-23 -62.5t-23 -69.5t-19.5 -69.5t-13.5 -66t-3.5 -55
t7.5 -41.5q3 2 7 4q37 25 85 76q46 49 88 107t65 104q4 9 13 5t5 -13q-23 -48 -66 -107t-90 -110q-50 -53 -89 -79q-48 -31 -73 -16q-34 21 -23 105q7 63 39 167q10 31 22 67q5 17 11 35l-6 -12q-19 -35 -77 -110q-61 -76 -82 -91q-38 -26 -62 -11q-23 14 -22 58
q2 77 45 161q39 76 90 119q26 21 48 27q26 8 44 -7q27 -23 23 -95zM63 492q21 44 63 47q16 2 37 -3q12 -2 39 -9q24 -7 37 -9q50 -10 80 11q17 12 23 19q8 10 9 24q1 10 11 9t9 -11q-2 -20 -14 -35q-7 -9 -26 -22q-37 -26 -95 -15q-14 3 -39 9q-26 7 -37 10q-19 3 -33 2
q-30 -2 -46 -35q-4 -9 -13 -5t-5 13z" />
    <glyph glyph-name="adieresis" unicode="&#xe4;" horiz-adv-x="570" 
d="M60 89q24 22 76.5 89t70.5 100q10 63 2 96q-34 -8 -66 -47.5t-51.5 -87t-28.5 -90.5t-3 -60zM232 320l2 4q18 28 27 47l6 14q11 33 14 46q2 8 10 8h2q3 -1 5 -3q41 -7 54 -37q-2 -5 -5.5 -13.5l-14 -34t-20.5 -51.5t-23 -62.5t-23 -69.5t-19.5 -69.5t-13.5 -66t-3.5 -55
t7.5 -41.5q3 2 7 4q37 25 85 76q46 49 88 107t65 104q4 9 13 5t5 -13q-23 -48 -66 -107t-90 -110q-50 -53 -89 -79q-48 -31 -73 -16q-34 21 -23 105q7 63 39 167q10 31 22 67q5 17 11 35l-6 -12q-19 -35 -77 -110q-61 -76 -82 -91q-38 -26 -62 -11q-23 14 -22 58
q2 77 45 161q39 76 90 119q26 21 48 27q26 8 44 -7q27 -23 23 -95zM128 516q-5 4 -4 10q3 11 8 15q8 8 21 1q11 -6 10 -21q-1 -11 -7 -19q-3 -6 -9 -7q-8 -3 -14 5q-4 5 -5 16zM217 546q4 2 10 3q9 1 14.5 -4t6.5 -14q0 -12 -7 -23q-4 -6 -9 -9q-9 -5 -16 1q-9 8 -8 36
q0 9 9 10z" />
    <glyph glyph-name="aring" unicode="&#xe5;" horiz-adv-x="570" 
d="M60 89q24 22 76.5 89t70.5 100q10 63 2 96q-34 -8 -66 -47.5t-51.5 -87t-28.5 -90.5t-3 -60zM232 320l2 4q18 28 27 47l6 14q11 33 14 46q2 8 10 8h2q3 -1 5 -3q41 -7 54 -37q-2 -5 -5.5 -13.5l-14 -34t-20.5 -51.5t-23 -62.5t-23 -69.5t-19.5 -69.5t-13.5 -66t-3.5 -55
t7.5 -41.5q3 2 7 4q37 25 85 76q46 49 88 107t65 104q4 9 13 5t5 -13q-23 -48 -66 -107t-90 -110q-50 -53 -89 -79q-48 -31 -73 -16q-34 21 -23 105q7 63 39 167q10 31 22 67q5 17 11 35l-6 -12q-19 -35 -77 -110q-61 -76 -82 -91q-38 -26 -62 -11q-23 14 -22 58
q2 77 45 161q39 76 90 119q26 21 48 27q26 8 44 -7q27 -23 23 -95zM187 554q-12 -32 4 -61q16 -32 49 -8q20 15 22 36q2 19 -10 36q-11 15 -27 17q-17 2 -31 -16q-3 -4 -7 -4zM182 575q20 21 45 19q25 -3 41 -26q17 -22 14 -49q-3 -30 -30 -50q-25 -18 -46 -13.5t-33 27.5
q-10 20 -10.5 44t9.5 43q3 6 10 5z" />
    <glyph glyph-name="ccedilla" unicode="&#xe7;" horiz-adv-x="536" 
d="M72 -61q-29 1 -49 22q-53 57 -37 166q15 95 73 190q58 94 122 125q36 18 67.5 8.5t52.5 -45.5q5 -9 -4 -14t-14 4q-14 24 -32 33q-39 -21 -81 -77.5t-70.5 -126t-34 -141t27.5 -123.5q50 11 130 81q38 34 83 81q37 39 88 98q4 5 9 11q1 0 2.5 2t3.5 4.5t3 3.5
q10 11 15 17q16 18 23 25t14 0t0 -14q-8 -8 -54 -62q-52 -59 -89 -98q-46 -49 -85 -83q-66 -58 -115 -78q-12 -4 -22 -7q28 -27 33 -43q4 -11 0 -21q-4 -6 -12 -13q-1 -1 -6.5 -4.5t-6.5 -4.5q-16 -13 -18 -29q-2 -10 -11.5 -8.5t-8.5 10.5q4 25 26 43q2 1 7 4.5t6 4.5
q7 6 6 12q-5 14 -41 46z" />
    <glyph glyph-name="egrave" unicode="&#xe8;" 
d="M220 402q-45 -9 -86.5 -68.5t-58.5 -133.5q69 39 121 98q40 44 43 74q2 21 -19 30zM70 175q-9 -55 3 -100t47 -67q50 15 116 70q7 6 31 28q2 2 8 7t11 10l6 5q17 16 31 27q87 78 156 136q8 7 14.5 -1t-1.5 -14q-69 -58 -156 -136q-13 -11 -30 -27q-1 0 -6.5 -5l-11 -10
t-7.5 -7q-25 -22 -32 -28q-134 -111 -207 -72q-31 17 -45 57t-11 95q7 111 65 198q66 100 154 86q58 -10 54 -57q-4 -36 -48 -86q-61 -69 -141 -109zM111 582q4 -6 9 -13q3 -3 7 -8q2 -3 4 -5t3 -4q20 -26 33 -38q20 -16 40 -18q10 -1 9 -11t-11 -9q-27 3 -51 23
q-15 13 -36 41q-1 1 -3 4q-3 3 -4 5q-4 5 -6 8q-6 7 -10 11q-6 8 1.5 14.5t14.5 -0.5z" />
    <glyph glyph-name="eacute" unicode="&#xe9;" 
d="M220 402q-45 -9 -86.5 -68.5t-58.5 -133.5q69 39 121 98q40 44 43 74q2 21 -19 30zM70 175q-9 -55 3 -100t47 -67q50 15 116 70q7 6 31 28q2 2 8 7t11 10l6 5q17 16 31 27q87 78 156 136q8 7 14.5 -1t-1.5 -14q-69 -58 -156 -136q-13 -11 -30 -27q-1 0 -6.5 -5l-11 -10
t-7.5 -7q-25 -22 -32 -28q-134 -111 -207 -72q-31 17 -45 57t-11 95q7 111 65 198q66 100 154 86q58 -10 54 -57q-4 -36 -48 -86q-61 -69 -141 -109zM103 499q4 2 8 5q12 9 16 11q63 42 103 62q8 4 12.5 -4.5t-4.5 -13.5q-38 -19 -100 -61l-16 -10q-4 -3 -7 -5
q-9 -6 -14.5 2.5t2.5 13.5z" />
    <glyph glyph-name="ecircumflex" unicode="&#xea;" 
d="M220 402q-45 -9 -86.5 -68.5t-58.5 -133.5q69 39 121 98q40 44 43 74q2 21 -19 30zM70 175q-9 -55 3 -100t47 -67q50 15 116 70q7 6 31 28q2 2 8 7t11 10l6 5q17 16 31 27q87 78 156 136q8 7 14.5 -1t-1.5 -14q-69 -58 -156 -136q-13 -11 -30 -27q-1 0 -6.5 -5l-11 -10
t-7.5 -7q-25 -22 -32 -28q-134 -111 -207 -72q-31 17 -45 57t-11 95q7 111 65 198q66 100 154 86q58 -10 54 -57q-4 -36 -48 -86q-61 -69 -141 -109zM57 462q39 51 93 103q19 19 34 23q16 6 29 -4q9 -8 16 -24q4 -11 10 -32q4 -13 5 -17q15 -53 33 -62q9 -5 4.5 -13.5
t-12.5 -4.5q-18 9 -29 32q-8 15 -15 42l-5 18q-11 38 -20 45q-4 3 -10 1q-10 -3 -26 -18q-53 -52 -91 -101q-6 -8 -14 -2t-2 14z" />
    <glyph glyph-name="edieresis" unicode="&#xeb;" 
d="M220 402q-45 -9 -86.5 -68.5t-58.5 -133.5q69 39 121 98q40 44 43 74q2 21 -19 30zM70 175q-9 -55 3 -100t47 -67q50 15 116 70q7 6 31 28q2 2 8 7t11 10l6 5q17 16 31 27q87 78 156 136q8 7 14.5 -1t-1.5 -14q-69 -58 -156 -136q-13 -11 -30 -27q-1 0 -6.5 -5l-11 -10
t-7.5 -7q-25 -22 -32 -28q-134 -111 -207 -72q-31 17 -45 57t-11 95q7 111 65 198q66 100 154 86q58 -10 54 -57q-4 -36 -48 -86q-61 -69 -141 -109zM140 497q-1 -4 -5 -5q-3 -1 -6 -1v-1q1 -1 4 -1q4 0 6 3q1 2 1 5zM137 511q2 -3 3 -6v2q-1 5 -2 8q-1 0 -1 -1v-1v-2z
M127 534q12 13 24 -2q7 -8 9 -22q2 -15 -3 -26q-7 -16 -24 -15q-16 1 -22 13q-4 9 -1 22q1 5 3 12q1 3 2 7q1 2 1 3q2 9 11 8zM199 509q3 15 9 23q3 3 6 5q6 3 12 0q7 -3 11 -16q6 -16 -2 -30q-8 -12 -20 -14q-9 -1 -14 4.5t-5 13.5q0 6 3 14z" />
    <glyph glyph-name="igrave" unicode="&#xec;" horiz-adv-x="422" 
d="M54 342q13 -2 24.5 -5.5t21 -12t4.5 -20.5q-52 -103 -76.5 -213.5t-4.5 -130.5q45 26 119 103q23 23 49 52q38 42 92 106q46 56 53 62q7 7 14 0t0 -14q-6 -6 -52 -61q-54 -64 -92 -107q-26 -28 -50 -52q-87 -91 -137 -113q-35 -16 -55 -2q-21 15 -22 61q-1 65 32 177
q30 100 64 167q5 9 14 4q1 0 2 -1zM78 459l6 -14l2 -4q2 -4 2 -5q3 -6 5 -9q0 -1 4 -7t9.5 -14t8.5 -12q6 -9 -2.5 -14.5t-13.5 2.5q-3 4 -8.5 12.5t-10 14.5t-5.5 8q-2 4 -5 11q0 1 -2 5l-2 4l-6 14q-4 9 5 13t13 -5z" />
    <glyph glyph-name="iacute" unicode="&#xed;" horiz-adv-x="422" 
d="M54 342q13 -2 24.5 -5.5t21 -12t4.5 -20.5q-52 -103 -76.5 -213.5t-4.5 -130.5q45 26 119 103q23 23 49 52q38 42 92 106q46 56 53 62q7 7 14 0t0 -14q-6 -6 -52 -61q-54 -64 -92 -107q-26 -28 -50 -52q-87 -91 -137 -113q-35 -16 -55 -2q-21 15 -22 61q-1 65 32 177
q30 100 64 167q5 9 14 4q1 0 2 -1zM39 390q27 16 45 27q2 2 6.5 5t7.5 6l4 2q8 5 35 15q10 4 13.5 -5.5t-5.5 -12.5q-26 -10 -32 -14l-3 -2q-4 -2 -8.5 -5l-7.5 -5q-18 -12 -45 -29q-8 -5 -13.5 3.5t3.5 14.5z" />
    <glyph glyph-name="icircumflex" unicode="&#xee;" horiz-adv-x="422" 
d="M54 342q13 -2 24.5 -5.5t21 -12t4.5 -20.5q-52 -103 -76.5 -213.5t-4.5 -130.5q45 26 119 103q23 23 49 52q38 42 92 106q46 56 53 62q7 7 14 0t0 -14q-6 -6 -52 -61q-54 -64 -92 -107q-26 -28 -50 -52q-87 -91 -137 -113q-35 -16 -55 -2q-21 15 -22 61q-1 65 32 177
q30 100 64 167q5 9 14 4q1 0 2 -1zM45 423q3 3 10 8q13 10 42 32q18 14 30 17q16 3 24 -10q6 -9 7 -26q1 -10 2 -33q0 -29 2 -44q3 -34 13 -55q4 -8 -4.5 -12.5t-13.5 4.5q-12 23 -15 61q-2 16 -2 46q-1 41 -5 48q-1 1 -4 1q-7 -1 -22 -13q-28 -22 -42 -32l-10 -8l-8 -7
q-8 -6 -22 -18.5t-24 -21.5q-8 -6 -14.5 1.5t0.5 14.5q10 8 24.5 20.5t22.5 19.5t9 7z" />
    <glyph glyph-name="idieresis" unicode="&#xef;" horiz-adv-x="422" 
d="M54 342q13 -2 24.5 -5.5t21 -12t4.5 -20.5q-52 -103 -76.5 -213.5t-4.5 -130.5q45 26 119 103q23 23 49 52q38 42 92 106q46 56 53 62q7 7 14 0t0 -14q-6 -6 -52 -61q-54 -64 -92 -107q-26 -28 -50 -52q-87 -91 -137 -113q-35 -16 -55 -2q-21 15 -22 61q-1 65 32 177
q30 100 64 167q5 9 14 4q1 0 2 -1zM86 430q-6 -7 -10 -9q-5 -2 -9 -1q1 -1 3 -1q10 -4 15 9q1 1 1 2zM50 451q14 18 38 7q11 -5 15.5 -15.5t0.5 -22.5q-6 -13 -18 -18.5t-24 -1.5q-12 5 -16.5 18t0.5 28q1 3 4 5zM145 379q-12 9 -11.5 23t14.5 25q22 16 39 2t6 -37
q-6 -13 -16.5 -20t-20 -4.5t-11.5 11.5z" />
    <glyph glyph-name="ntilde" unicode="&#xf1;" horiz-adv-x="681" 
d="M33 417q10 25 65 -19q5 2 9 0q9 -5 4 -14q-32 -59 -60 -145q13 18 27 37q37 51 74 92.5t54 53.5q58 41 89 34q30 -7 33 -55q2 -36 -11 -102q-7 -37 -28 -127q-2 -7 -3 -11q-17 -70 -25 -109q-11 -56 -12 -92q-1 -40 10 -57q10 -17 34 -13q15 3 56 43q39 37 90 98
q108 129 154 211q5 8 13.5 3t3.5 -13q-47 -83 -156 -214q-52 -61 -91 -99q-45 -45 -66 -49q-7 -1 -13 -1q-4 -2 -7 -1q-107 13 -120 114q-5 40 4 97q8 43 25 107q5 16 12 41q25 85 32 116q11 48 10 77q-10 -6 -22 -14q-16 -11 -52 -52t-72 -90q-37 -49 -63 -91
q-16 -58 -39 -165q-2 -10 -12 -7q-2 0 -4 1q-26 -9 -57 19h-3q-10 2 -8 12q27 128 117 376q2 5 7 7q1 0 1 1zM77 605q3 -34 15 -49q11 -12 31 -14q18 -1 47 7q17 5 56 19q4 1 7 2q36 13 56 19q32 7 54 5q58 -5 70 -77q2 -10 -8 -12t-12 8q-9 58 -52 62q-19 1 -47 -6
q-19 -5 -54 -18l-7 -2q-40 -14 -58 -19q-32 -9 -54 -8q-58 4 -64 81q-1 10 9 11t11 -9z" />
    <glyph glyph-name="ograve" unicode="&#xf2;" 
d="M279 170q-17 -46 -40 -82q-57 -89 -136 -103q-81 -15 -118 47q-31 53 -24 144q6 85 41 162q37 82 87 109q8 5 13 -3.5t-4 -13.5l-2 -2q-16 -35 -31 -98.5t-23 -131t1.5 -124t39.5 -72.5q8 1 17 2q69 13 122 95q21 32 37 73l-6 2q-46 10 -83 43t-57 79q-19 42 -16.5 83.5
t18.5 75t47.5 54t70.5 20.5q58 1 77 -83q17 -74 -2 -176q-8 -42 -21 -81q93 -3 192 93q7 7 14 -0.5t-1 -14.5q-108 -105 -213 -97zM124 672q9 -11 24 -31q1 -1 2.5 -3t1.5 -3q31 -40 49 -58q7 -7 0 -14t-14 0q-19 19 -51 60q0 1 -1.5 3t-2.5 3q-15 20 -24 31q-6 7 1.5 13.5
t14.5 -1.5zM221 509q-41 -5 -69.5 -36.5t-33.5 -75.5t14 -94q13 -31 35 -56q-15 41 -17 92.5t16 100t55 69.5zM221 509q13 7 29 11q-4 0 -9 -0.5t-20 -3t-28.5 -7t-30 -14.5t-28 -23.5t-19 -36.5t-7.5 -51q3 -96 77 -170q-10 13 -18 33q39 -42 91 -54q4 -1 8 -1q14 39 22 82
q18 98 2 167q-15 69 -56 69q-7 -1 -13 -1z" />
    <glyph glyph-name="oacute" unicode="&#xf3;" 
d="M279 170q-17 -46 -40 -82q-57 -89 -136 -103q-81 -15 -118 47q-31 53 -24 144q6 85 41 162q37 82 87 109q8 5 13 -3.5t-4 -13.5l-2 -2q-16 -35 -31 -98.5t-23 -131t1.5 -124t39.5 -72.5q8 1 17 2q69 13 122 95q21 32 37 73l-6 2q-46 10 -83 43t-57 79q-19 42 -16.5 83.5
t18.5 75t47.5 54t70.5 20.5q58 1 77 -83q17 -74 -2 -176q-8 -42 -21 -81q93 -3 192 93q7 7 14 -0.5t-1 -14.5q-108 -105 -213 -97zM129 580q34 26 54 38q28 17 61 27q10 2 12.5 -7.5t-6.5 -12.5q-31 -9 -57 -24q-19 -11 -52 -37q-8 -6 -14 2t2 14zM221 509
q-41 -5 -69.5 -36.5t-33.5 -75.5t14 -94q13 -31 35 -56q-15 41 -17 92.5t16 100t55 69.5zM221 509q13 7 29 11q-4 0 -9 -0.5t-20 -3t-28.5 -7t-30 -14.5t-28 -23.5t-19 -36.5t-7.5 -51q3 -96 77 -170q-10 13 -18 33q39 -42 91 -54q4 -1 8 -1q14 39 22 82q18 98 2 167
q-15 69 -56 69q-7 -1 -13 -1z" />
    <glyph glyph-name="ocircumflex" unicode="&#xf4;" 
d="M279 170q-17 -46 -40 -82q-57 -89 -136 -103q-81 -15 -118 47q-31 53 -24 144q6 85 41 162q37 82 87 109q8 5 13 -3.5t-4 -13.5l-2 -2q-16 -35 -31 -98.5t-23 -131t1.5 -124t39.5 -72.5q8 1 17 2q69 13 122 95q21 32 37 73l-6 2q-46 10 -83 43t-57 79q-19 42 -16.5 83.5
t18.5 75t47.5 54t70.5 20.5q58 1 77 -83q17 -74 -2 -176q-8 -42 -21 -81q93 -3 192 93q7 7 14 -0.5t-1 -14.5q-108 -105 -213 -97zM117 587q58 51 79 69q31 26 48 35q21 12 34 5q11 -6 19 -28q2 -4 9 -26l7 -21q12 -35 27 -66q4 -8 -4.5 -12.5t-13.5 4.5q-16 31 -28 68
l-7 21q-7 21 -8 25q-6 15 -10 17t-16 -4q-14 -8 -44 -33q-21 -18 -78 -68q-8 -7 -14.5 0.5t0.5 13.5zM221 509q-41 -5 -69.5 -36.5t-33.5 -75.5t14 -94q13 -31 35 -56q-15 41 -17 92.5t16 100t55 69.5zM221 509q13 7 29 11q-4 0 -9 -0.5t-20 -3t-28.5 -7t-30 -14.5
t-28 -23.5t-19 -36.5t-7.5 -51q3 -96 77 -170q-10 13 -18 33q39 -42 91 -54q4 -1 8 -1q14 39 22 82q18 98 2 167q-15 69 -56 69q-7 -1 -13 -1z" />
    <glyph glyph-name="otilde" unicode="&#xf5;" 
d="M279 170q-17 -46 -40 -82q-57 -89 -136 -103q-81 -15 -118 47q-31 53 -24 144q6 85 41 162q37 82 87 109q8 5 13 -3.5t-4 -13.5l-2 -2q-16 -35 -31 -98.5t-23 -131t1.5 -124t39.5 -72.5q8 1 17 2q69 13 122 95q21 32 37 73l-6 2q-46 10 -83 43t-57 79q-19 42 -16.5 83.5
t18.5 75t47.5 54t70.5 20.5q58 1 77 -83q17 -74 -2 -176q-8 -42 -21 -81q93 -3 192 93q7 7 14 -0.5t-1 -14.5q-108 -105 -213 -97zM87 570q23 70 77 77q21 2 49 -5q16 -4 50 -16q7 -2 11 -3q48 -17 74 -16q36 0 58 30q6 8 14 2t2 -14q-28 -37 -74 -38q-29 -1 -81 17
q-4 1 -11 4q-33 11 -48 15q-25 6 -42 4q-41 -5 -61 -63q-3 -10 -12.5 -6.5t-5.5 12.5zM221 509q-41 -5 -69.5 -36.5t-33.5 -75.5t14 -94q13 -31 35 -56q-15 41 -17 92.5t16 100t55 69.5zM221 509q13 7 29 11q-4 0 -9 -0.5t-20 -3t-28.5 -7t-30 -14.5t-28 -23.5t-19 -36.5
t-7.5 -51q3 -96 77 -170q-10 13 -18 33q39 -42 91 -54q4 -1 8 -1q14 39 22 82q18 98 2 167q-15 69 -56 69q-7 -1 -13 -1z" />
    <glyph glyph-name="odieresis" unicode="&#xf6;" 
d="M279 170q-17 -46 -40 -82q-57 -89 -136 -103q-81 -15 -118 47q-31 53 -24 144q6 85 41 162q37 82 87 109q8 5 13 -3.5t-4 -13.5l-2 -2q-16 -35 -31 -98.5t-23 -131t1.5 -124t39.5 -72.5q8 1 17 2q69 13 122 95q21 32 37 73l-6 2q-46 10 -83 43t-57 79q-19 42 -16.5 83.5
t18.5 75t47.5 54t70.5 20.5q58 1 77 -83q17 -74 -2 -176q-8 -42 -21 -81q93 -3 192 93q7 7 14 -0.5t-1 -14.5q-108 -105 -213 -97zM193 593q-6 11 -0.5 22.5t17.5 17.5q6 3 12 1q9 -2 11 -11q4 -12 -9 -35q-9 -15 -15 -18q-10 -5 -15 5q-2 4 -2 9q0 4 1 9zM280 572l-2 2
q-6 9 0 21q5 10 17 20q4 3 7 5q6 4 12 2q7 -2 8 -11q0 -3 -1 -8q0 -2 -1 -4q3 -1 5 -4q6 -8 -2 -14q-9 -7 -17 -10q-4 -7 -7 -12q-2 -3 -3.5 -4.5l-2.5 -2.5q-2 -2 -4 -2q-6 -1 -10 4q-2 2 -2 6v2.5t1 2.5q1 3 2 7zM221 509q-41 -5 -69.5 -36.5t-33.5 -75.5t14 -94
q13 -31 35 -56q-15 41 -17 92.5t16 100t55 69.5zM221 509q13 7 29 11q-4 0 -9 -0.5t-20 -3t-28.5 -7t-30 -14.5t-28 -23.5t-19 -36.5t-7.5 -51q3 -96 77 -170q-10 13 -18 33q39 -42 91 -54q4 -1 8 -1q14 39 22 82q18 98 2 167q-15 69 -56 69q-7 -1 -13 -1z" />
    <glyph glyph-name="divide" unicode="&#xf7;" horiz-adv-x="573" 
d="M236 152q0 2 2 4q7 7 14 0q8 -8 6 -17t-12 -11q-12 -2 -15 10q-1 7 5 14zM244 359q0 2 2 4q7 7 14 0q8 -8 6 -17t-12 -11q-12 -2 -15 10q-1 7 5 14zM10 269h1h4h16h55q75 1 166 1.5t166 1.5h55h16h5q10 0 10 -10t-10 -10h-5h-16h-55q-75 -1 -166 -1.5t-166 -1.5h-55h-16
h-5q-10 0 -10 10t10 10z" />
    <glyph glyph-name="oslash" unicode="&#xf8;" 
d="M138 251q-61 -50 -98 -83q-8 -139 43 -166q8 1 17 2q69 13 122 95q21 32 37 73l-6 2q-70 15 -115 77zM408 521l-1 2q-2 10 8 12t12 -8l1 -5q0 -3 -0.5 -6t-3.5 -6q0 -1 -1 -2l-1 -1l-2 -2q-44 -50 -104 -104q5 -60 -8 -131q-8 -42 -21 -81q93 -3 192 93q7 7 14 -0.5
t-1 -14.5q-108 -105 -213 -97q-17 -46 -40 -82q-57 -89 -136 -103q-81 -15 -118 47q-16 26 -22 64q-33 -35 -61 -68q-7 -8 -14.5 -1.5t-1.5 13.5q33 40 74 81q-2 26 1 55q6 85 41 162q37 82 87 109q8 5 13 -3.5t-4 -13.5l-2 -2q-16 -35 -32 -100.5t-22 -130.5q32 27 85 71
q-8 13 -14 28q-19 42 -16.5 83.5t18.5 75t47.5 54t70.5 20.5q58 1 77 -83l4 -20q52 48 92 93l1 1zM160 269q-3 -2 -6 -5q6 -9 13 -17q-4 11 -7 22zM160 269q-3 11 -5 22q2 1 5 3.5t3 3.5q85 69 127 106q3 3 6 5q-2 18 -6 32q-15 69 -56 69q-7 -1 -13 -1q13 7 29 11
q-4 0 -9 -0.5t-20 -3t-28.5 -7t-30 -14.5t-28 -23.5t-19 -36.5t-7.5 -51q2 -56 30 -107q2 2 5 4q5 -9 11 -17l-6 -4q16 -25 37 -46q-10 13 -18 33q39 -42 91 -54q4 -1 8 -1q14 39 22 82q11 58 9 110q-40 -35 -121 -102q-1 0 -4.5 -3t-4.5 -4q-4 -3 -7 -6zM143 281q5 4 11 9
l1 1q-12 66 4 129t62 89q-41 -5 -69.5 -36.5t-33.5 -75.5t14 -94q5 -11 11 -22z" />
    <glyph glyph-name="ugrave" unicode="&#xf9;" horiz-adv-x="553" 
d="M39 8q3 0 6 1q-2 0 -6 -1zM269 364q1 2 4 4t12 6.5t18 4.5t23 -7t27 -22q-1 -1 -2 -3q1 -3 0 -5q-65 -158 -91 -247q-18 -63 -20 -99q-2 -32 9 -40q28 28 69 77q11 14 25 31q8 10 39 48.5t33 41.5q37 47 52 60q7 7 14 -0.5t-1 -14.5q-13 -12 -49 -57q-3 -3 -33.5 -41.5
t-39.5 -49.5q-13 -17 -25 -30q-45 -55 -76 -86q-41 -39 -65 -43q-17 -4 -28 9q-9 11 -10 34q-3 45 22 145q9 33 21 82q1 3 2 5q7 29 16 61q-14 -26 -29 -50q-43 -72 -81 -114q-36 -40 -69 -56h-1q-12 -6 -24 -8q-16 -3 -31 -1q-20 4 -30 22q-8 15 -8 40q0 42 20 107
q12 40 30 81q31 83 57 105q17 12 35 7t32 -16l14 -12q-1 -1 -2 -3q1 -4 -2 -8l-1 -1q-1 -2 -3 -4q-6 -7 -12 -16q-19 -28 -36 -59q-27 -52 -40 -104q-15 -59 -10 -113q31 13 66 52q37 41 79 112q22 36 59 106q30 55 38 65q1 2 2 2zM117 580q12 -18 24 -37q7 -12 10 -15
q3 -5 11 -12q1 -2 9 -10h1q8 -8 15 -16q7 -7 0 -14t-14 0l-16 16q-9 10 -10 10q-8 8 -12 14q-3 4 -11 16q-12 19 -23 36q-6 9 2.5 14.5t13.5 -2.5z" />
    <glyph glyph-name="uacute" unicode="&#xfa;" horiz-adv-x="553" 
d="M39 8q3 0 6 1q-2 0 -6 -1zM269 364q1 2 4 4t12 6.5t18 4.5t23 -7t27 -22q-1 -1 -2 -3q1 -3 0 -5q-65 -158 -91 -247q-18 -63 -20 -99q-2 -32 9 -40q28 28 69 77q11 14 25 31q8 10 39 48.5t33 41.5q37 47 52 60q7 7 14 -0.5t-1 -14.5q-13 -12 -49 -57q-3 -3 -33.5 -41.5
t-39.5 -49.5q-13 -17 -25 -30q-45 -55 -76 -86q-41 -39 -65 -43q-17 -4 -28 9q-9 11 -10 34q-3 45 22 145q9 33 21 82q1 3 2 5q7 29 16 61q-14 -26 -29 -50q-43 -72 -81 -114q-36 -40 -69 -56h-1q-12 -6 -24 -8q-16 -3 -31 -1q-20 4 -30 22q-8 15 -8 40q0 42 20 107
q12 40 30 81q31 83 57 105q17 12 35 7t32 -16l14 -12q-1 -1 -2 -3q1 -4 -2 -8l-1 -1q-1 -2 -3 -4q-6 -7 -12 -16q-19 -28 -36 -59q-27 -52 -40 -104q-15 -59 -10 -113q31 13 66 52q37 41 79 112q22 36 59 106q30 55 38 65q1 2 2 2zM169 486q32 26 46 35t29 17q13 7 30 14
q9 4 13 -5t-5 -13q-17 -7 -29 -14q-14 -7 -27 -16t-45 -34q-8 -6 -14 2t2 14z" />
    <glyph glyph-name="ucircumflex" unicode="&#xfb;" horiz-adv-x="553" 
d="M39 8q3 0 6 1q-2 0 -6 -1zM269 364q1 2 4 4t12 6.5t18 4.5t23 -7t27 -22q-1 -1 -2 -3q1 -3 0 -5q-65 -158 -91 -247q-18 -63 -20 -99q-2 -32 9 -40q28 28 69 77q11 14 25 31q8 10 39 48.5t33 41.5q37 47 52 60q7 7 14 -0.5t-1 -14.5q-13 -12 -49 -57q-3 -3 -33.5 -41.5
t-39.5 -49.5q-13 -17 -25 -30q-45 -55 -76 -86q-41 -39 -65 -43q-17 -4 -28 9q-9 11 -10 34q-3 45 22 145q9 33 21 82q1 3 2 5q7 29 16 61q-14 -26 -29 -50q-43 -72 -81 -114q-36 -40 -69 -56h-1q-12 -6 -24 -8q-16 -3 -31 -1q-20 4 -30 22q-8 15 -8 40q0 42 20 107
q12 40 30 81q31 83 57 105q17 12 35 7t32 -16l14 -12q-1 -1 -2 -3q1 -4 -2 -8l-1 -1q-1 -2 -3 -4q-6 -7 -12 -16q-19 -28 -36 -59q-27 -52 -40 -104q-15 -59 -10 -113q31 13 66 52q37 41 79 112q22 36 59 106q30 55 38 65q1 2 2 2zM70 510q52 37 114 74q50 29 69 26
q13 -2 19 -14q4 -7 7 -21l1 -6q2 -6 2 -8q2 -8 4 -15q6 -18 14 -32q7 -10 16 -19q7 -7 0 -14t-14 0q-11 10 -18 23q-11 16 -17 36q-2 7 -4 17q-1 1 -1.5 4l-1 6t-0.5 4q-5 18 -10 19q-12 2 -56 -24q-61 -36 -112 -72q-8 -6 -14 2t2 14z" />
    <glyph glyph-name="udieresis" unicode="&#xfc;" horiz-adv-x="553" 
d="M39 8q3 0 6 1q-2 0 -6 -1zM192 457q-3 6 -3 12q0 14 18 21q6 2 10.5 -0.5t5.5 -7.5q1 -4 0 -11q-1 -8 -4 -17h-1v-2v0q-3 -6 -5 -8q-4 -4 -8 -5q-8 0 -11 7q-2 4 -2 11zM253 444q-3 8 1 20q3 12 9 19q4 5 10 6q8 1 14 -6q6 -8 0 -27q-4 -14 -11 -24q-4 -7 -8 -9
q-7 -4 -13 3q-3 3 -3 8q0 4 1 10zM269 364q1 2 4 4t12 6.5t18 4.5t23 -7t27 -22q-1 -1 -2 -3q1 -3 0 -5q-65 -158 -91 -247q-18 -63 -20 -99q-2 -32 9 -40q28 28 69 77q11 14 25 31q8 10 39 48.5t33 41.5q37 47 52 60q7 7 14 -0.5t-1 -14.5q-13 -12 -49 -57
q-3 -3 -33.5 -41.5t-39.5 -49.5q-13 -17 -25 -30q-45 -55 -76 -86q-41 -39 -65 -43q-17 -4 -28 9q-9 11 -10 34q-3 45 22 145q9 33 21 82q1 3 2 5q7 29 16 61q-14 -26 -29 -50q-43 -72 -81 -114q-36 -40 -69 -56h-1q-12 -6 -24 -8q-16 -3 -31 -1q-20 4 -30 22q-8 15 -8 40
q0 42 20 107q12 40 30 81q31 83 57 105q17 12 35 7t32 -16l14 -12q-1 -1 -2 -3q1 -4 -2 -8l-1 -1q-1 -2 -3 -4q-6 -7 -12 -16q-19 -28 -36 -59q-27 -52 -40 -104q-15 -59 -10 -113q31 13 66 52q37 41 79 112q22 36 59 106q30 55 38 65q1 2 2 2z" />
    <glyph glyph-name="yacute" unicode="&#xfd;" horiz-adv-x="580" 
d="M127 -50q-24 -10 -50 -19q-23 -8 -55 -18q-39 -12 -49 -15q-52 -16 -78 -32q-32 -20 -47 -52q-21 -43 -19.5 -80t23.5 -63q20 -24 51 -30t63 8q42 18 77 81q31 55 65 160q11 32 19 60zM325 306q-41 -107 -84 -245l-12 -36q138 86 264 247q6 8 14 1.5t2 -14.5
q-137 -174 -288 -263q-10 -30 -12 -38q-18 -57 -29 -91q-45 -134 -96 -187q-63 -66 -174 -65q-6 0 -9 6q-39 7 -64 37q-26 31 -28 74t21 91q18 37 55 60q27 17 82 34q48 15 49 15q32 10 55 18q34 12 64 25q9 30 33 115q13 43 23 75q-65 -104 -127 -149q-28 -21 -52 -27
t-38 4t-16 33q-1 17 4 45q5 22 15 57q3 12 9 31q1 2 5 15.5t5 16.5q7 23 12 39q26 89 25 136q0 5 4 8q0 23 62 0q2 2 5 2q10 0 10 -10q-1 -31 -12 -79q-8 -34 -25 -90q-2 -8 -5 -17q-22 -72 -29 -99q-10 -39 -12 -63q10 6 21 14q70 51 143 180q7 12 18 40q2 6 5 12
q8 20 17 45q2 6 5 14l1 3v1l1 1v1q1 1 3 2l1 1h1l1 1h1l-2 -4q-3 -5 -5 -11v-1l1 -1l2 -2l2 -1h3h2l2 1h1q3 2 3 3l1 1v0v-2v0q-3 -8 -5 -13q-10 -26 -17 -46q-3 -7 -5 -13q-12 -29 -19 -42l-10 -16q-40 -151 -56 -205q6 2 12 5q-4 -14 -8 -25q-5 -3 -11 -6
q-78 -253 -159 -313q13 4 25 8q-10 -8 -20 -13q48 15 65 30q87 75 167 328l-14 -8q-4 -2 -9 -5q4 12 9 28q12 7 23 14q10 32 23.5 78t22 75t18.5 60t18.5 49.5t15.5 26.5q-2 3 -5 6q9 -3 5 -13zM182 408q10 6 25 16q5 4 13 10q4 3 7 5q4 3 7 5q31 22 51 33q30 17 56 23
q10 2 12 -8t-8 -12q-23 -5 -50 -20q-19 -11 -49 -33q-3 -2 -7 -5l-1 -1q-2 -1 -3.5 -2t-2.5 -1q-8 -6 -13 -10q-16 -11 -27 -18q-8 -5 -13.5 3.5t3.5 14.5zM320 319q-7 8 -15 13.5t-18.5 11t-20.5 3.5t-17 -14h2h2l2 -1l2 -2l2 -1v-2l1 -1v-1v-2v-2v-1v-1q0 -1 -1 -3v0v0
q-30 -89 -71 -232q-21 -70 -29 -98q18 9 35 19q5 2 10 5l1 4q10 31 17 53q43 138 85 247q3 9 13 5zM195 -18q-21 -11 -44 -21q-11 -39 -24 -77q-35 -107 -66 -164q-26 -46 -55 -70q36 15 64 44q47 50 91 180q11 33 29 90q1 5 5 18z" />
    <glyph glyph-name="ydieresis" unicode="&#xff;" horiz-adv-x="580" 
d="M127 -50q-24 -10 -50 -19q-23 -8 -55 -18q-39 -12 -49 -15q-52 -16 -78 -32q-32 -20 -47 -52q-21 -43 -19.5 -80t23.5 -63q20 -24 51 -30t63 8q42 18 77 81q31 55 65 160q11 32 19 60zM170 467q-2 5 -1 10q3 15 20 22q6 3 11 -1q3 -2 5 -6q1 -4 1 -10t-2 -15q0 -7 -3 -12
q-3 -9 -6.5 -15t-7.5 -8q-8 -5 -16 2q-9 8 -6 21q1 5 5 12zM240 430q-1 3 -2 8q-2 12 8 30q5 10 12 13q13 6 21 -7q8 -11 4 -24q-2 -9 -10 -18q-6 -7 -13 -11q-3 -2 -6 -3q-4 -1 -8 0q-7 3 -6 12zM325 306q-41 -107 -84 -245l-12 -36q138 86 264 247q6 8 14 1.5t2 -14.5
q-137 -174 -288 -263q-10 -30 -12 -38q-18 -57 -29 -91q-45 -134 -96 -187q-63 -66 -174 -65q-6 0 -9 6q-39 7 -64 37q-26 31 -28 74t21 91q18 37 55 60q27 17 82 34q48 15 49 15q32 10 55 18q34 12 64 25q9 30 33 115q13 43 23 75q-65 -104 -127 -149q-28 -21 -52 -27
t-38 4t-16 33q-1 17 4 45q5 22 15 57q3 12 9 31q1 2 5 15.5t5 16.5q7 23 12 39q26 89 25 136q0 5 4 8q0 23 62 0q2 2 5 2q10 0 10 -10q-1 -31 -12 -79q-8 -34 -25 -90q-2 -8 -5 -17q-22 -72 -29 -99q-10 -39 -12 -63q10 6 21 14q70 51 143 180q7 12 18 40q2 6 5 12
q8 20 17 45q2 6 5 14l1 3v1l1 1v1q1 1 3 2l1 1h1l1 1h1l-2 -4q-3 -5 -5 -11v-1l1 -1l2 -2l2 -1h3h2l2 1h1q3 2 3 3l1 1v0v-2v0q-3 -8 -5 -13q-10 -26 -17 -46q-3 -7 -5 -13q-12 -29 -19 -42l-10 -16q-40 -151 -56 -205q6 2 12 5q-4 -14 -8 -25q-5 -3 -11 -6
q-78 -253 -159 -313q13 4 25 8q-10 -8 -20 -13q48 15 65 30q87 75 167 328l-14 -8q-4 -2 -9 -5q4 12 9 28q12 7 23 14q10 32 23.5 78t22 75t18.5 60t18.5 49.5t15.5 26.5q-2 3 -5 6q9 -3 5 -13zM320 319q-7 8 -15 13.5t-18.5 11t-20.5 3.5t-17 -14h2h2l2 -1l2 -2l2 -1v-2
l1 -1v-1v-2v-2v-1v-1q0 -1 -1 -3v0v0q-30 -89 -71 -232q-21 -70 -29 -98q18 9 35 19q5 2 10 5l1 4q10 31 17 53q43 138 85 247q3 9 13 5zM195 -18q-21 -11 -44 -21q-11 -39 -24 -77q-35 -107 -66 -164q-26 -46 -55 -70q36 15 64 44q47 50 91 180q11 33 29 90q1 5 5 18z" />
    <glyph glyph-name="quoteleft" unicode="&#x2018;" horiz-adv-x="245" 
d="M147 709q-54 -90 -60 -148q-1 -2 -1 -5q15 22 39 22q25 1 39 -17t11 -39q2 -30 -29 -43t-57 7q-29 23 -22 77q7 63 63 156q5 9 13.5 3.5t3.5 -13.5z" />
    <glyph glyph-name="quoteright" unicode="&#x2019;" horiz-adv-x="260" 
d="M94 482q61 84 74 141q0 3 1 5q-17 -20 -41 -18q-25 2 -37.5 21t-6.5 39q-1 30 31.5 40.5t56.5 -12.5q27 -26 15 -79q-13 -61 -77 -149q-6 -8 -14 -2t-2 14z" />
    <glyph glyph-name="quotedblleft" unicode="&#x201c;" horiz-adv-x="367" 
d="M144 707q-63 -84 -76 -141q0 -2 -1 -4q17 19 41 17q25 -2 37 -21t7 -40q-1 -30 -33.5 -39.5t-55.5 13.5q-26 26 -14 79q14 61 79 148q7 8 14.5 2t1.5 -14zM289 702q-63 -83 -76 -140q-1 -4 -1 -8q16 19 40 17t36 -19t9 -37q0 -20 -15.5 -32.5t-37 -11t-36.5 15.5
q-26 27 -14 79q14 62 79 148q6 8 14 2t2 -14z" />
    <glyph glyph-name="quotedblright" unicode="&#x201d;" horiz-adv-x="363" 
d="M197 473q61 84 74 141q0 3 1 5q-17 -20 -41 -18q-25 2 -37.5 21t-6.5 39q-1 30 31.5 40.5t56.5 -12.5q27 -26 15 -79q-13 -61 -77 -149q-6 -8 -14 -2t-2 14zM52 475q61 84 74 141q0 4 1 8q-16 -19 -40 -17t-36 18.5t-9 36.5q-1 31 31.5 41.5t56.5 -12.5q27 -26 15 -79
q-13 -61 -77 -149q-6 -8 -14 -2t-2 14z" />
    <glyph glyph-name="uni3000" unicode="&#x3000;" horiz-adv-x="1000" 
 />
    <glyph glyph-name="uniF8FE" unicode="&#xf8fe;" horiz-adv-x="300" 
 />
    </font>
</defs>
</svg>
