<?xml version="1.0" encoding="utf-8"?>
<!-- Generator: Adobe Illustrator 23.0.3, SVG Export Plug-In . SVG Version: 6.00 Build 0)  -->
<svg version="1.1" id="Layer_1" xmlns="http://www.w3.org/2000/svg" xmlns:xlink="http://www.w3.org/1999/xlink" x="0px" y="0px"
	 viewBox="0 0 118 118" style="enable-background:new 0 0 118 118;" xml:space="preserve">
<style type="text/css">
	.st0{fill:#3E4447;}
	.st1{fill:#0C560C;}
</style>
<g>
	<path class="st0" d="M59,33.6c17.3,0,34.7,0,52,0c2,0,2,0,2.1-2c0-3.4,0-6.8,0-10.2c0-5.1-3-8-8-8c-5.2,0-10.3,0-15.5,0
		c-1.4,0-1.8-0.4-1.8-1.8c0.1-3.2,0-3.2,3.2-3.2c5,0,10,0,15,0c6.6,0,12,5.3,12,11.9c0.1,16.7,0,33.4,0,50c0,11.6,0,23.1,0,34.7
		c0,7.7-5.1,12.9-12.9,12.9c-30.7,0-61.5-0.1-92.2,0.1c-7.3,0-13.3-5.8-12.9-12.8c0.1-2.5,0-5.1,0-7.7c0-25.6,0-51.2,0-76.8
		C0,13.7,5.3,8.4,12.4,8.4c5.4,0,10.7,0,16.1,0c1.3,0,1.9,0.3,1.8,1.7c-0.1,3.3,0,3.3-3.3,3.3c-4.7,0-9.4,0-14.1,0
		C8,13.4,5,16.3,5,21.2c0,3.6,0.1,7.1,0,10.7c0,1.3,0.3,1.8,1.7,1.8c12.9-0.1,25.8,0,38.8,0C50,33.6,54.5,33.6,59,33.6
		C59,33.6,59,33.6,59,33.6z M59,38.6c-17.3,0-34.7,0-52,0c-2,0-2,0-2,2.1C5,62.1,5,83.5,5,105c0,5,3,8,8,8c30.7,0,61.5,0,92.2,0
		c4.7,0,7.7-3.1,7.7-7.7c0-21.5,0-43.1,0-64.6c0-2.1,0-2.1-2-2.1C93.7,38.6,76.3,38.6,59,38.6z"/>
	<path class="st0" d="M58.9,13.4c-5.8,0-11.6,0-17.4,0c-1.4,0-1.8-0.4-1.8-1.8c0.1-3.2,0-3.2,3.3-3.2c11.2,0,22.4,0,33.6,0
		c1.4,0,1.8,0.4,1.8,1.8c-0.1,3.2,0,3.2-3.3,3.2C69.7,13.4,64.3,13.4,58.9,13.4C58.9,13.4,58.9,13.4,58.9,13.4z"/>
	<path class="st0" d="M37.4,9c0,2-0.1,4.1,0,6.1c0,0.6,0.4,1.3,0.9,1.6c2.7,1.8,3.3,5.6,1.3,8.4c-1.9,2.6-5.7,3.1-8.2,1.1
		c-2.7-2.2-3.1-5.6-0.6-8.1c1.4-1.3,1.7-2.7,1.7-4.5c-0.1-3.5,0-7.1,0-10.6c0-1.9,0.9-2.9,2.4-3c1.6,0,2.5,1,2.5,2.9
		C37.5,4.9,37.4,7,37.4,9z"/>
	<path class="st0" d="M85.5,9c0,2.1-0.1,4.2,0,6.3c0,0.5,0.4,1.2,0.8,1.5c2.4,1.6,3.2,4.3,2,7.2c-1.1,2.6-3.7,4-6.5,3.5
		c-2.6-0.5-4.8-3.2-4.7-5.8c0-1.8,1.2-3,2.3-4.3c0.5-0.6,0.9-1.5,1-2.3c0.1-4,0-8,0-12c0-1.9,0.9-3,2.4-3c1.6,0,2.5,1,2.5,3
		C85.5,5,85.5,7,85.5,9z"/>
	<path class="st1" d="M41.7,87.8c0.5,0,1.1,0,1.6,0c4.1,0,8.1,0,12.2,0c1.1,0,1.5,0.4,1.5,1.5c-0.1,4.4,0.5,3.7-3.5,3.7
		c-6,0-11.9,0-17.9,0c-1.1,0-1.3-0.4-1.4-1.4C34,89,34.8,87,36.8,85.1c3.2-2.9,6.2-6,9-9.3c1.6-1.8,3.1-3.9,3.9-6.1
		c1.4-3.9-0.7-6.7-4.8-6.8c-2.8,0-5.7,0.3-8.5,0.6c-1.1,0.1-1.4-0.2-1.5-1.2c-0.5-3.2-0.4-3.4,2.8-4.1c3.3-0.7,6.7-1.2,10.1-0.7
		c6.4,0.9,9.3,4.9,8.4,11.4c-0.5,3.3-2.1,6-4.4,8.4c-3.1,3.1-6.3,6.2-9.4,9.2c-0.2,0.2-0.6,0.4-0.9,0.6
		C41.6,87.5,41.7,87.6,41.7,87.8z"/>
	<path class="st1" d="M78.2,58.1c-3.3,8-6.4,15.5-9.7,23.4c2.4,0,4.5,0,6.6,0c2.8,0,2.9,0,3-2.7c0.1-1.7,0-3.4,0-5.1
		c0-2.2,0.1-2.5,2.3-2.4c4.1,0.1,3.7-0.7,3.7,3.6c0,1.7,0.1,3.3,0,5c-0.1,1.2,0.4,1.7,1.6,1.7c2.3,0,2.3,0,2.3,2.3
		c0,0.3,0,0.6,0,0.9c0.2,1.5-0.3,2.1-1.9,2c-2-0.1-2,0-2,2c0,1,0,1.9,0,2.9c0.1,1-0.4,1.4-1.4,1.4c-0.9,0-1.9-0.1-2.9,0
		c-1.5,0.1-1.8-0.6-1.7-1.9c0.1-1,0.1-2.1,0.1-3.1c0-0.7-0.2-1.1-1-1.1c-3.8,0-7.7,0-11.5,0c-0.4,0-0.9,0-1.3,0
		c-1.2,0-1.7-0.5-1.8-1.8c-0.1-1.8,0.2-3.4,0.9-5.1c2.6-6.7,5.1-13.5,7.6-20.2c0.4-1.2,1-1.7,2.3-1.6C74.7,58.1,76.2,58.1,78.2,58.1
		z"/>
</g>
</svg>
