<?xml version="1.0" encoding="utf-8"?>
<!-- Generator: Adobe Illustrator 23.0.3, SVG Export Plug-In . SVG Version: 6.00 Build 0)  -->
<svg version="1.1" id="Layer_1" xmlns="http://www.w3.org/2000/svg" xmlns:xlink="http://www.w3.org/1999/xlink" x="0px" y="0px"
	 viewBox="0 0 88 127" style="enable-background:new 0 0 88 127;" xml:space="preserve">
<style type="text/css">
	.st0{fill:#FFFFFF;}
	.st1{fill:#3E4447;}
	.st2{fill:#0C560C;}
</style>
<g>
	<rect x="8.6" y="4.7" class="st0" width="72.2" height="25"/>
	<g>
		<path class="st1" d="M5.5,111.2c0.2-3.5,0.1-7,0.8-10.4c1.1-5.6,4.5-10.1,8.4-14c4.1-4.2,8.6-8.1,12.7-12.3
			c2.2-2.2,4.3-4.7,6.3-7.2c1.9-2.4,1.9-5.1,0-7.5c-2-2.6-4.2-5-6.5-7.4c-4.6-4.7-9.5-9.2-14.1-14c-3.7-3.9-6.5-8.5-7.3-14
			c-0.1-0.7-0.2-1.3-0.2-2c0-4.8,0-9.5,0-14.3c0-1,0.3-1.3,1.3-1.3c3.4,0,3.4-0.1,3.4,3.3c0,3.2,0.1,6.4,0,9.6
			c-0.2,5.1,1.3,9.7,4.5,13.5c3.2,3.8,6.8,7.4,10.3,11c3.2,3.3,6.6,6.6,9.9,9.9c0.3,0.3,0.5,0.6,0.7,0.9c5,6.7,4.9,11.6-0.7,17.8
			c-3.3,3.7-7.1,6.9-10.5,10.5c-3.3,3.4-6.7,6.9-9.8,10.5c-3.2,3.8-4.7,8.4-4.5,13.5c0.2,3.8,0,7.6,0.1,11.4c0,1-0.3,1.4-1.4,1.4
			c-3.3,0-3.3,0-3.3-3.3c0-1.9,0-3.8,0-5.7C5.6,111.2,5.6,111.2,5.5,111.2z"/>
		<path class="st1" d="M82.2,15.8c0,2.9,0.3,5.7-0.1,8.6c-0.7,5.7-3.7,10.3-7.5,14.3c-4.3,4.5-8.9,8.6-13.3,13
			c-2.5,2.6-5,5.3-7.2,8.1c-1.9,2.4-1.7,5-0.1,7.6c2.8,4.2,6.6,7.4,10.3,10.8c5.1,4.8,10.4,9.4,14.2,15.4c2.5,3.9,3.9,8.2,3.8,12.9
			c-0.1,4.1-0.1,8.2,0,12.3c0,1.1-0.3,1.5-1.4,1.5c-3.2,0-3.2,0-3.3-3.2c0-3.2-0.1-6.5,0-9.7c0.3-5.2-1.3-9.9-4.7-13.7
			c-3.7-4.3-7.8-8.2-11.8-12.2c-3.3-3.5-6.9-6.7-9.9-10.5c-4-4.9-4-9.7-0.1-14.6c2.9-3.6,6.3-6.8,9.6-10.2c3.6-3.7,7.5-7.3,11-11.2
			c4-4.4,6.2-9.6,5.8-15.8c-0.2-3.6,0-7.2-0.1-10.9c0-1,0.3-1.4,1.4-1.4c3.4,0,3.4,0,3.3,3.2c0,1.9,0,3.8,0,5.7
			C82.3,15.8,82.3,15.8,82.2,15.8z"/>
		<path class="st1" d="M44,4.7c-13.5,0-27,0-40.5,0c-0.4,0-0.8,0-1.1,0C0.9,4.6,0,3.7,0,2.3C0,1,1,0.1,2.4,0c2.8,0,5.5,0,8.3,0
			c24.6,0,49.2,0,73.8,0C86.8,0,88,0.8,88,2.4c0,1.6-1.2,2.3-3.6,2.3C71,4.7,57.5,4.7,44,4.7z"/>
		<path class="st1" d="M44,122.3c13.5,0,26.9,0,40.4,0c0.3,0,0.7,0,1,0c1.5,0.1,2.5,1,2.5,2.3c0,1.3-1,2.3-2.5,2.3
			c-4.6,0-9.1,0-13.7,0c-22.7,0-45.5,0-68.2,0c-2.4,0-3.5-0.7-3.5-2.3c0-1.6,1.1-2.4,3.5-2.4C17,122.3,30.5,122.3,44,122.3z"/>
		<path class="st2" d="M43.9,120.1c-9.8,0-19.6,0-29.4,0c-1.8,0-1.9,0-1.9-1.9c0-1.8,0.1-3.5,0-5.3c-0.1-1.4,0.4-2.5,1.5-3.2
			c2.9-1.6,5.7-3.4,8.8-4.6c6-2.5,12.2-4.2,18.7-5.1c3.6-0.5,7,0.2,10.4,1c6.5,1.6,12.9,3.5,18.9,6.7c0.5,0.3,1.1,0.6,1.6,0.9
			c2,1.2,3.3,2.7,3,5.3c-0.2,1.5-0.1,3.1,0,4.7c0.1,1.1-0.4,1.5-1.5,1.5c-6.2,0-12.5,0-18.7,0C51.5,120.1,47.7,120.1,43.9,120.1
			C43.9,120.1,43.9,120.1,43.9,120.1z M44,117.8C44,117.8,44,117.8,44,117.8c3.2,0,6.4,0,9.6,0c6,0,12.1,0,18.1,0
			c0.7,0,1.4,0.2,1.5-1c0.5-4.7,0-5.7-4.3-7.8c-0.3-0.1-0.5-0.3-0.8-0.4c-5.6-1.9-11.1-4-16.8-5.5c-3-0.8-6.3-1.3-9.4-0.9
			c-8.3,1-16.2,3.7-23.7,7.3c-2.4,1.1-3.9,2.6-3.3,5.5c0.1,0.3,0,0.6,0,0.9c0,1.9,0,1.9,1.8,1.9C25.8,117.8,34.9,117.8,44,117.8z"/>
		<path class="st2" d="M18.7,34.2c16.8,3.1,33.6,3.2,50.4,0c0.1,0.1,0.1,0.3,0.2,0.4c-0.7,0.8-1.4,1.7-2.1,2.4
			c-4.1,4-8.3,7.9-12.4,11.8c-3.5,3.3-6.4,7-8.2,11.5c-0.3,0.8-0.8,1.6-1.4,2.3c-0.8,1-1.7,1-2.5,0c-0.6-0.7-1.1-1.5-1.4-2.3
			c-1.8-4.7-4.9-8.4-8.4-11.8c-4.1-3.9-8.2-7.8-12.3-11.7c-0.7-0.7-1.4-1.5-2-2.3C18.6,34.5,18.6,34.3,18.7,34.2z M43.8,60.2
			c0.1,0,0.3,0,0.4,0.1c3.6-9.8,12.2-15.4,19-22.7c-12.9,1.8-25.7,1.8-38.6-0.1c2.7,2.8,5.4,5.4,8.1,7.9c4.3,3.9,8.1,8.1,10.4,13.6
			C43.3,59.3,43.6,59.7,43.8,60.2z"/>
		<path class="st2" d="M26.4,115c1-0.9,2-1.7,3-2.6c1.9-1.8,3.8-3.7,5.6-5.6c1.2-1.2,2.7-1.2,4.5-1.6c-0.5,0.6-0.8,1-1.1,1.3
			c-2.4,2.5-4.9,5-7.3,7.4c-1.8,1.8-1.8,1.8-4.4,1.6C26.7,115.3,26.5,115.1,26.4,115z"/>
		<path class="st2" d="M35.9,115.3c0.4-0.5,0.7-0.8,1-1.1c2.7-2.8,5.5-5.5,8.2-8.3c1.1-1.1,2.1-1.1,3.6-0.7
			c-0.4,0.4-0.6,0.8-0.9,1.1c-2.6,2.6-5.2,5.2-7.7,7.9C39,115.3,37.8,115.8,35.9,115.3z"/>
		<path class="st2" d="M56,107.1c-2.7,2.8-5.3,5.5-8,8c-0.6,0.5-1.8,0.4-2.8,0.5c-0.1-0.1-0.1-0.3-0.2-0.4c0.3-0.4,0.6-0.7,1-1.1
			c2.2-2.2,4.5-4.4,6.6-6.7C53.7,106.4,54.6,106.3,56,107.1z"/>
		<path class="st2" d="M54,114.8c2-2,4-4,6.2-5.9c0.5-0.4,1.6-0.1,2.4-0.1c0.1,0.2,0.1,0.3,0.2,0.5c-0.7,0.8-1.5,1.5-2.2,2.3
			c-0.9,0.9-1.9,1.8-2.7,2.7c-1,1.2-2.3,1.1-3.5,0.9C54.2,115.2,54.1,115,54,114.8z"/>
		<path class="st2" d="M26.9,108.8c-2.2,2.2-4.1,4.4-6.2,6.2c-0.6,0.6-1.9,0.4-2.9,0.3C20.2,112.4,22.5,109.6,26.9,108.8z"/>
		<path class="st2" d="M63.1,114.8c1.2-1.1,2.4-2.3,3.7-3.2c0.5-0.3,1.5,0,2.4,0.1c-1.5,3.2-3.2,4.2-5.7,3.6
			C63.3,115.1,63.2,115,63.1,114.8z"/>
		<path class="st2" d="M55.4,40.7c-4.1,4.1-8.3,8.3-12.5,12.5c-1.3-1.3-1.3-1.4,0-2.7c2.8-2.8,5.6-5.6,8.4-8.4
			C52.7,40.8,53.4,40.5,55.4,40.7z"/>
		<path class="st2" d="M46.1,41.1c-2.5,2.5-4.8,4.8-7.2,7.2c-0.4-0.4-0.9-0.8-1.5-1.4c1.9-1.9,3.5-3.7,5.4-5.2
			C43.5,41.1,44.8,41.3,46.1,41.1z"/>
		<path class="st2" d="M33,42.6c0.9-2,2.4-1.8,4.4-1.5c-1,1-1.7,1.9-2.7,2.5C34.4,43.7,33.6,43,33,42.6z"/>
	</g>
</g>
</svg>
