<?xml version="1.0" encoding="utf-8"?>
<!-- Generator: Adobe Illustrator 23.0.3, SVG Export Plug-In . SVG Version: 6.00 Build 0)  -->
<svg version="1.1" id="Layer_1" xmlns="http://www.w3.org/2000/svg" xmlns:xlink="http://www.w3.org/1999/xlink" x="0px" y="0px"
	 viewBox="0 0 138 139" style="enable-background:new 0 0 138 139;" xml:space="preserve">
<style type="text/css">
	.st0{fill:#FFFFFF;}
	.st1{fill:#3E4447;}
	.st2{fill:#0C560C;}
</style>
<g>
	<path class="st0" d="M0.4,47.7c0,0,0.6-11,8.6-13.6C17,31.4,106.9,2,109.8,2.5c2.9,0.4,6,0,10.6,12.5s16.1,50.3,15.9,51.6
		s-6.2,8.1-8.4,8.7c-2.3,0.6-91.5,29.5-91.5,29.5s0.4-49.9,0-54c-0.4-4.1-5.9-11-15.3-10.7S1.6,44.4,0.4,47.7z"/>
	<g>
		<path class="st1" d="M37.9,85.5c0,11.8-0.1,23.5,0,35.3c0,3-1.2,5.1-3.5,6.7c-2.9,2-6.2,3-9.7,3.5c-6.4,1-12.7,0.5-18.7-2.1
			c-1.3-0.6-2.5-1.4-3.6-2.3c-1.5-1.2-2.3-2.8-2.3-4.8c0-24.1,0-48.3,0-72.4c0-2.6,1.3-4.3,3.2-5.7c2.4-1.8,5.2-2.7,8.1-3.3
			c7-1.3,14-1.1,20.6,1.9c1.3,0.6,2.5,1.4,3.6,2.3c1.5,1.2,2.2,2.9,2.2,4.9C37.9,61.5,37.9,73.5,37.9,85.5
			C37.9,85.5,37.9,85.5,37.9,85.5z M19.6,53.4c3.9-0.2,8-0.6,11.7-2.6c0.9-0.5,1.6-1.3,2.4-1.9c-0.8-0.7-1.5-1.5-2.4-2
			c-3-1.6-6.3-2.2-9.6-2.4c-4.9-0.3-9.8,0.2-14.3,2.5c-0.9,0.5-1.6,1.4-2.4,2c0.8,0.7,1.6,1.5,2.5,2C11.2,52.8,15.3,53.2,19.6,53.4z
			 M33.2,119.2c-9.4,4-18.8,3.9-28.1,0c-0.5,3.3-0.3,4.2,2.3,5.2c7.8,3.2,15.6,3.2,23.3-0.2C33.2,123,33.5,122.2,33.2,119.2z
			 M5,82.6c-0.4,3.2-0.1,4.1,2.7,5c3,1,6.1,1.8,9.2,2.2c4.8,0.5,9.5-0.2,13.8-2.3c2.5-1.2,2.8-2,2.4-4.9C23.8,86.5,14.5,86.5,5,82.6
			z M5,55.1c-0.4,3.3-0.1,4.1,2.8,5.1c2.9,1,6,1.8,9.1,2.1c4.7,0.5,9.4-0.2,13.7-2.2c2.6-1.2,2.9-2,2.5-5
			C23.8,59.1,14.5,59.1,5,55.1z M5.1,73.5c-0.5,3-0.1,4.1,2.6,5c3,1,6.1,1.8,9.2,2.2c4.9,0.5,9.8-0.2,14.2-2.4
			c2.2-1.1,2.6-2.2,2-4.7C23.7,77.4,14.4,77.4,5.1,73.5z M5,91.7c-0.3,3.4,0,3.8,2.9,5.2c3,1.4,6.1,1.9,9.4,2.1
			c4.7,0.3,9.4-0.3,13.7-2.4c2.4-1.2,2.8-2.1,2.1-4.8C23.8,95.7,14.4,95.7,5,91.7z M5,100.8c-0.4,3.3-0.1,4.1,2.8,5.1
			c2.9,1,6,1.8,9.1,2.1c4.7,0.5,9.4-0.2,13.7-2.2c2.6-1.2,2.9-2,2.5-5C23.8,104.8,14.5,104.8,5,100.8z M5,64.3c-0.3,3.5,0,3.9,3,5.3
			c0.5,0.2,1,0.4,1.5,0.6c4.7,1.6,9.6,2,14.4,1.1c2.6-0.5,5.2-1.4,7.7-2.5c1.9-0.8,2.3-2.4,1.4-4.4C23.7,68.2,14.4,68.2,5,64.3z
			 M5,110c-0.3,3.4-0.1,4.1,3,5.2c2.9,1,5.9,1.7,8.9,2c4.7,0.5,9.4-0.2,13.7-2.2c2.6-1.2,2.9-2,2.5-5C23.8,113.9,14.5,114,5,110z"/>
		<path class="st1" d="M93.6,102.5c0-7.3,0.1-14.6,0-21.9c0-2.4,0.9-4.1,2.7-5.5c2.7-2.1,5.8-3.2,9.1-3.8c7.2-1.4,14.3-1.1,21.1,1.8
			c1.3,0.6,2.6,1.4,3.7,2.3c1.6,1.2,2.3,2.9,2.3,5c0,14.5-0.1,29.1,0,43.6c0,3.2-1.3,5.4-3.9,7.1c-3.1,2-6.5,3.1-10.1,3.6
			c-5.9,0.9-11.8,0.6-17.4-1.7c-1.7-0.7-3.4-1.7-4.9-2.8c-1.9-1.3-2.7-3.2-2.6-5.6C93.7,117.3,93.6,109.9,93.6,102.5
			C93.6,102.5,93.6,102.5,93.6,102.5z M113.1,84.2c3.9-0.2,8.1-0.6,11.9-2.6c0.9-0.5,1.5-1.3,2.3-2c-0.8-0.7-1.5-1.5-2.3-1.9
			c-3.1-1.6-6.4-2.2-9.9-2.4c-4.9-0.3-9.7,0.2-14.1,2.5c-0.9,0.5-1.6,1.4-2.4,2c0.8,0.7,1.5,1.6,2.4,2
			C104.7,83.6,108.7,84.1,113.1,84.2z M98.4,122.6c-0.4,3.3,0,4,2.9,5.2c3,1.3,6.3,1.9,9.5,2.1c5.2,0.3,10.2-0.3,14.9-2.8
			c2.2-1.2,2.5-2.1,1.8-4.5C115.7,126.6,110.6,126.6,98.4,122.6z M98.4,104.3c-0.4,3.1-0.1,4.1,2.7,5c3.1,1,6.3,1.9,9.5,2.2
			c5.2,0.5,10.4-0.2,15.2-2.7c2.2-1.2,2.5-2.1,1.8-4.4C117.9,108.2,108.1,108.2,98.4,104.3z M98.5,86c-0.6,2.8-0.2,3.7,2.3,4.9
			c3.1,1.5,6.4,2.1,9.8,2.3c5.1,0.3,10.1-0.2,14.8-2.6c2.5-1.2,2.7-1.8,2.3-4.6C117.9,89.9,108.2,89.9,98.5,86z M127.6,113.5
			c-9.7,3.9-19.5,3.9-29.2,0c-0.5,3-0.2,3.7,2.5,5c3,1.4,6.3,2.1,9.6,2.3c5.2,0.3,10.2-0.2,14.9-2.6
			C127.9,116.8,128.1,116.3,127.6,113.5z M127.7,95.1c-9.8,4-19.5,3.9-29.3,0c-0.4,3.1,0,3.8,2.6,5c3.1,1.4,6.4,2,9.8,2.2
			c5,0.3,9.8-0.3,14.4-2.5C127.8,98.6,128,98.2,127.7,95.1z"/>
		<path class="st2" d="M0,43.6c-0.1-4.7,2.9-8.9,7.5-10.5c8.1-2.8,16.2-5.4,24.3-8.1c24.4-8.1,48.7-16.1,73.1-24.2
			c4.2-1.4,8-1,11.5,1.8c1.7,1.4,2.9,3.1,3.6,5.2c5.8,17.5,11.5,35.1,17.3,52.6c1.6,4.9-0.1,10.3-3.8,13.1c-0.9,0.7-1.6,1-2.6,0
			c-0.8-0.8-1.9-1.4-3-2.2c0.5-0.2,0.9-0.4,1.3-0.6c3.3-1.6,5-5,3.8-8.5c-3.6-11.1-7.3-22.2-10.9-33.2c-2-6.2-4.1-12.5-6.1-18.7
			c-1.5-4.8-5.1-6.7-9.9-5.1c-20.4,6.7-40.7,13.5-61.1,20.2C33.5,29.1,21.8,33,10.1,36.9c-1.5,0.5-2.9,1.7-4.3,2.6
			c-1,0.6-1.9,1.2-2.9,1.8C2,42.1,1.1,42.8,0,43.6z"/>
		<path class="st1" d="M46.9,120.6c0-2.7,0.1-5.4,0-8.1c-0.1-2.4,0.9-4.2,2.8-5.6c2.7-2.1,5.8-3.1,9.1-3.8c6.6-1.3,13.1-1,19.5,1.3
			c1.4,0.5,2.7,1.2,3.9,2c2.4,1.5,3.7,3.6,3.6,6.6c-0.2,5.3-0.1,10.7,0,16c0,2.5-1,4.3-2.9,5.7c-3,2.2-6.5,3.3-10.1,3.9
			c-6.3,1-12.5,0.7-18.5-1.5c-1.4-0.5-2.7-1.2-3.9-2c-2.3-1.5-3.6-3.5-3.5-6.4C47.1,125.9,46.9,123.2,46.9,120.6z M66,107
			c-4.8,0.2-8.6,0.8-12.1,2.7c-0.8,0.4-1.3,1.2-2,1.9c0.6,0.6,1.2,1.3,1.9,1.7c2.9,1.6,6.1,2.2,9.4,2.5c5.2,0.4,10.3,0,15.1-2.4
			c0.9-0.4,1.5-1.3,2.3-2c-0.8-0.7-1.5-1.5-2.3-1.9C74.1,107.4,69.6,107,66,107z M51.8,117.8c-0.5,2.9-0.2,4,2.5,4.9
			c2.8,1,5.8,1.9,8.8,2.2c5.5,0.6,11,0.1,16-2.6c2.2-1.2,2.5-1.9,1.9-4.5C71.2,121.7,61.5,121.7,51.8,117.8z M81,126.8
			c-4.7,2.2-9.6,3-14.6,3c-5.1,0-10-0.8-14.6-3c-0.5,2.9-0.2,3.6,2.2,4.8c2.9,1.5,6,2.2,9.1,2.4c5.3,0.5,10.5,0,15.4-2.4
			C81.1,130.4,81.3,130,81,126.8z"/>
		<path class="st2" d="M69,26.8c14.6,0,27.2,11.8,27.2,27.1c0,15.4-11.9,27.3-27.4,27.3c-14.9,0-26.9-12.4-26.9-27.4
			C41.9,39,54.1,26.8,69,26.8z M93.8,54.2c0-14.1-10.9-25-25.1-25.1C55.6,29,44.3,40.4,44,53.4c-0.3,13.5,10.3,25.5,24.9,25.6
			C82.6,79.2,93.7,68,93.8,54.2z"/>
		<path class="st1" d="M40.2,104.7c0-1.5-0.1-2.8,0.1-4.1c0.1-0.4,0.8-0.8,1.3-1c6.1-2,12.3-4,18.4-6c9.8-3.2,19.6-6.5,29.5-9.7
			c0.5-0.2,1.1-0.3,1.9-0.5c0,1.5,0.1,2.8-0.1,4.1c-0.1,0.4-0.9,0.9-1.4,1.1c-7.5,2.5-15,4.9-22.4,7.4c-8.5,2.8-17,5.6-25.6,8.4
			C41.4,104.4,40.9,104.5,40.2,104.7z"/>
		<path class="st2" d="M116.9,20.1c1,2,0.9,2.2-0.8,3c-8.2,3.8-18.6-1.1-21.2-9.9c-0.5-1.8-0.4-1.9,1.7-2.2c1,4.5,3.5,7.9,7.8,9.8
			C108.6,22.8,112.8,22.2,116.9,20.1z"/>
		<path class="st2" d="M127.6,52.6c-9.3,2.9-11.4,5.6-12.3,15.5c-1.8,0.4-2.1,0.2-2.1-1.5c-0.2-7.5,4.9-14.5,13-15.9
			C127.6,50.5,127.3,51.8,127.6,52.6z"/>
		<path class="st2" d="M66.9,40c0.2,0.6,0.3,1.1,0.6,1.3c0.3,0.3,0.8,0.6,1.3,0.8c0.3,0.1,0.6-0.1,1-0.1c2.2-0.1,3.1,1.1,2.2,3.1
			c-0.1,0.3-0.8,0.4-1.3,0.5c-1.2,0.2-2.4,0-3.5,0.4c-0.7,0.3-1.5,1.3-1.6,2c-0.1,0.8,0.5,1.8,1.2,2.3c0.7,0.6,1.8,0.8,2.8,1
			c1.2,0.3,2.5,0.5,3.8,0.8c2.5,0.7,4.1,2.4,4.6,4.9c0.5,2.3-0.4,4.2-2.2,5.7c-0.7,0.6-0.9,1.2-0.5,2c0.2,0.6,0.3,1.2,0.6,2
			c-0.9,0.3-1.7,0.7-2.6,0.8c-0.3,0-1-0.6-1-1c-0.3-1.3-0.9-1.7-2.3-1.5c-3.3,0.4-3.7-0.2-3-3.8c0.7,0.1,1.5,0.2,2.2,0.1
			c1-0.1,2.1-0.2,3.1-0.5c1.1-0.3,2-1,2-2.3c0-1.3-0.7-2.2-1.8-2.6c-1.4-0.5-2.9-0.9-4.4-1.1c-2.3-0.5-4.5-1.1-5.6-3.4
			c-1.3-2.5-0.9-5,1.3-7c0.7-0.7,1.1-1.3,0.6-2.2c-0.5-1-0.1-1.5,0.9-1.7C65.6,40.4,66.1,40.2,66.9,40z"/>
	</g>
</g>
</svg>
