<?xml version="1.0" encoding="utf-8"?>
<!-- Generator: Adobe Illustrator 23.0.3, SVG Export Plug-In . SVG Version: 6.00 Build 0)  -->
<svg version="1.1" id="Layer_1" xmlns="http://www.w3.org/2000/svg" xmlns:xlink="http://www.w3.org/1999/xlink" x="0px" y="0px"
	 viewBox="0 0 105 114" style="enable-background:new 0 0 105 114;" xml:space="preserve">
<style type="text/css">
	.st0{fill:#FFFFFF;}
	.st1{fill:#3E4447;}
	.st2{fill:#0C560C;}
</style>
<g>
	<rect x="3.7" y="4.1" class="st0" width="97.5" height="106.8"/>
	<g>
		<path class="st1" d="M105,56.5c0,14.8,0,29.7,0,44.5c0,3.9-1.3,7.2-4.1,9.9c-2.1,2-4.6,3.1-7.5,3.1c-26.7,0-53.5,0-80.2,0
			c-7.1,0-13-5.9-13-13.1c0-29.4,0.1-58.8-0.1-88.3C0,4.9,6.2,0.1,12.5,0C23.2,0,33.9,0,44.6,0c15.9,0,31.9,0,47.8,0
			c2.6,0,5.1,0.3,7.3,1.8c3.7,2.4,5.3,5.8,5.3,10.1c0,10.6,0,21.1,0,31.7C105,47.8,105,52.2,105,56.5C105,56.5,105,56.5,105,56.5z
			 M100,56.4c0-5.2,0-10.3,0-15.5c0-9.6,0-19.3,0-28.9c0-4.4-2.5-6.9-6.9-7c-0.7,0-1.4,0-2.1,0c-25.7,0-51.5,0-77.2,0
			c-1,0-1.9,0.1-2.9,0.3c-3.7,0.8-5.8,3.4-5.8,7.2c0,0.9,0,1.8,0,2.8c0,28.5,0,56.9,0,85.4c0,4.5,3.7,8.3,8.2,8.3
			c26.4,0,52.9,0,79.3,0c3.4,0,5.8-1.7,6.8-5.1c0.4-1.3,0.5-2.7,0.5-4.1C100,85.4,100,70.9,100,56.4z"/>
		<path class="st2" d="M52.4,12.3c11.4,0,22.7,0,34.1,0c4,0,5.9,1.9,5.9,5.9c0,5.5,0,11,0,16.5c0,3.4-2,5.4-5.4,5.4
			c-19.8,0-39.6,0-59.4,0c-3.3,0-6.6,0-9.9,0c-3.3,0-5.4-2-5.4-5.3c0-5.7,0-11.4,0-17.1c0-3.3,2-5.4,5.3-5.4
			C29.2,12.3,40.8,12.3,52.4,12.3C52.4,12.3,52.4,12.3,52.4,12.3z M52.2,37.7c11.5,0,22.9,0,34.4,0c2.4,0,3.3-0.9,3.3-3.3
			c0-5.5,0-10.9,0-16.4c0-2.3-0.9-3.2-3.2-3.2c-5.2,0-10.5,0-15.7,0c-17.6,0-35.2,0-52.8,0c-2.7,0-3.4,0.7-3.5,3.4
			c0,5.4,0,10.7,0,16.1c0,2.6,0.8,3.4,3.4,3.4C29.5,37.7,40.9,37.7,52.2,37.7z"/>
		<path class="st2" d="M69.3,91.1c-1.7-1.7-3.3-3.3-4.8-5c-0.5-0.6-0.8-1.7-0.7-2.4c0.4-1.8,2.5-2.3,3.9-1c1.3,1.2,2.5,2.4,3.7,3.6
			c0.4,0.4,0.9,0.8,1.5,1.4c1.6-1.6,3-3.2,4.6-4.7c0.6-0.5,1.5-1.1,2.2-1c0.8,0.1,1.7,0.9,2,1.6c0.3,0.6,0,1.8-0.4,2.3
			c-1.1,1.4-2.4,2.6-3.7,3.9c-0.4,0.4-0.8,0.9-1.4,1.5c1.7,1.7,3.4,3.2,4.9,4.9c1.4,1.4,1,3.6-0.8,4c-0.8,0.2-1.9-0.2-2.6-0.7
			c-1.7-1.5-3.1-3.2-4.8-4.9c-1.7,1.7-3.2,3.3-4.8,4.7c-0.7,0.6-1.7,1.1-2.5,1c-1.9-0.2-2.6-2.5-1.3-4c1.2-1.3,2.5-2.5,3.7-3.8
			C68.4,92,68.8,91.6,69.3,91.1z"/>
		<path class="st2" d="M35.5,68.2c0,1,0,1.9,0,2.9c-0.1,1.6-1.1,2.7-2.5,2.7c-1.3,0-2.3-1.1-2.4-2.7c0-1.8-0.1-3.7,0-5.5
			c0.1-1.3-0.3-2-1.8-1.9c-1.7,0.1-3.4,0-5.2,0c-1.7,0-2.8-1-2.8-2.5c0-1.4,1.1-2.3,2.8-2.4c1.9,0,3.8,0,5.6,0c1,0,1.4-0.4,1.3-1.3
			c0-1.7,0-3.4,0-5c0-1.7,1-2.8,2.4-2.8c1.5,0,2.4,1.1,2.5,2.9c0,1.7,0,3.4,0,5c0,0.9,0.3,1.3,1.3,1.3c1.8,0,3.6,0,5.3,0
			c1.7,0,2.8,1,2.8,2.4c0,1.4-1.1,2.4-2.7,2.5c-1.7,0-3.5,0.1-5.2,0c-1.1,0-1.6,0.4-1.5,1.5C35.5,66.2,35.5,67.2,35.5,68.2z"/>
		<path class="st2" d="M72.2,58.8c3.2,0,6.5,0,9.7,0c1.8,0,2.9,1,2.9,2.4c0,1.5-1.1,2.4-2.9,2.4c-6.5,0-13,0-19.5,0
			c-1.8,0-2.9-1-2.8-2.5c0-1.4,1.2-2.4,2.8-2.4C65.7,58.8,68.9,58.9,72.2,58.8z"/>
		<path class="st2" d="M34.1,88.2c3,0,6,0,9,0c1.8,0,2.9,1,3,2.4c0,1.5-1.2,2.5-3,2.5c-6,0-12.1,0-18.1,0c-1.8,0-2.9-1-2.8-2.5
			c0-1.5,1.1-2.4,2.9-2.4C28,88.2,31.1,88.2,34.1,88.2z"/>
		<path class="st2" d="M72.2,73.5c-2,0-3.6-1.6-3.6-3.7c0-2,1.6-3.6,3.6-3.6c2,0,3.7,1.6,3.7,3.6C75.9,71.8,74.3,73.5,72.2,73.5z"/>
		<path class="st2" d="M68.7,52.9c0-2.1,1.6-3.6,3.7-3.6c2,0,3.6,1.8,3.6,3.7c0,1.9-1.8,3.6-3.7,3.6C70.3,56.6,68.6,54.9,68.7,52.9z
			"/>
	</g>
</g>
</svg>
