<svg width="189" height="172" viewBox="0 0 189 172" fill="none" xmlns="http://www.w3.org/2000/svg">
<path d="M53.8562 59.9899C54.8608 60.1191 55.9033 60.2011 56.8655 59.8882C57.0171 59.8411 57.1838 59.7363 57.1686 59.5844C57.1578 59.5292 57.1344 59.4772 57.1004 59.4324C56.7377 58.8871 56.433 58.3052 56.1913 57.6962C56.1817 57.6644 56.162 57.6367 56.1352 57.6172C56.1039 57.6058 56.0695 57.6058 56.0382 57.6172C55.5942 57.7341 55.2109 58.0212 54.7699 58.1443C54.5451 58.2061 54.3104 58.2237 54.0789 58.1959C53.8789 58.1731 53.6062 58.0076 53.4243 58.0288C53.5274 58.6927 53.7789 59.3124 53.8562 59.9899Z" fill="#6C63FF"/>
<path d="M72.8564 58.3088C73.5185 57.8531 74.205 57.3745 74.5959 56.6712C74.6238 56.6291 74.64 56.5804 74.6429 56.5299C74.6362 56.4803 74.6169 56.4332 74.5868 56.3932C74.2144 55.7997 73.735 55.281 73.1731 54.8635C72.8799 55.0712 72.615 55.3163 72.3851 55.5927C72.2184 55.7689 71.7578 56.0484 71.7532 56.3173C71.7532 56.4692 71.929 56.6454 72.0108 56.773C72.1215 56.9371 72.226 57.1042 72.326 57.2743C72.3836 57.3578 72.9094 58.2754 72.8564 58.3088Z" fill="#6C63FF"/>
<path d="M57.7944 62.0243C57.8063 62.1808 57.7634 62.3365 57.6732 62.4648C57.6025 62.5361 57.5149 62.5884 57.4187 62.6167C56.014 63.121 54.3881 62.4921 52.9865 62.9889C52.6986 63.0907 52.4258 63.238 52.1364 63.3352C51.7913 63.4392 51.4354 63.5024 51.0757 63.5236C50.5802 63.5707 50.0817 63.6011 49.5847 63.6147C49.207 63.6415 48.8275 63.6082 48.4603 63.516C48.2767 63.4689 48.105 63.3835 47.9565 63.2655C47.8079 63.1474 47.6858 62.9994 47.5981 62.8309C47.5219 62.6799 47.5067 62.5052 47.5557 62.3433C47.5777 62.2877 47.6089 62.2364 47.6481 62.1914C47.7431 62.0845 47.8547 61.9937 47.9785 61.9225L48.4952 61.5883C48.7375 61.4165 49.0007 61.2766 49.2786 61.1721C49.4831 61.1052 49.6998 61.0764 49.9074 61.0202C50.6332 60.8075 51.1878 60.2303 51.703 59.6758L52.4061 58.9239C52.4718 58.8411 52.5552 58.7742 52.6501 58.7279C52.7476 58.6953 52.8512 58.6854 52.9531 58.699C53.6361 58.7479 54.2956 58.9695 54.8699 59.3431C55.0168 59.4535 55.1753 59.5473 55.3427 59.6226C55.7549 59.7837 56.2837 59.6621 56.664 59.4586C56.8444 59.3614 56.805 59.3067 56.8807 59.1335C56.9565 58.9603 57.1414 58.8494 57.302 59.0074C57.3504 59.062 57.3848 59.1278 57.402 59.1988C57.5535 59.7001 57.4959 60.2394 57.4959 60.765C57.4915 60.8471 57.5018 60.9295 57.5262 61.008C57.5649 61.0872 57.6111 61.1625 57.6641 61.2328C57.6749 61.2515 57.6845 61.2707 57.6929 61.2906C57.7856 61.5233 57.8204 61.7751 57.7944 62.0243Z" fill="#514E7F"/>
<path d="M57.7944 62.0244C57.8063 62.1809 57.7634 62.3366 57.6732 62.4649C57.6025 62.5363 57.5149 62.5885 57.4187 62.6168C56.014 63.1212 54.3881 62.4923 52.9865 62.989C52.6986 63.0908 52.4258 63.2381 52.1364 63.3354C51.7913 63.4393 51.4354 63.5026 51.0757 63.5237C50.5802 63.5708 50.0817 63.6012 49.5847 63.6149C49.207 63.6417 48.8275 63.6083 48.4603 63.5161C48.2767 63.469 48.105 63.3836 47.9565 63.2656C47.8079 63.1476 47.6858 62.9995 47.5981 62.831C47.5219 62.68 47.5067 62.5054 47.5557 62.3434C47.5777 62.2879 47.6089 62.2365 47.6481 62.1915C47.73 62.3632 47.789 62.591 47.8406 62.673C47.9102 62.7946 48.0048 62.8999 48.1182 62.9819C48.2316 63.0639 48.3612 63.1207 48.4982 63.1485C48.7033 63.1611 48.9089 63.1348 49.1043 63.071C50.3771 62.7551 51.7303 62.7505 52.9531 62.272C53.3729 62.1064 53.7729 61.8862 54.2138 61.7859C54.6548 61.6857 55.123 61.713 55.5776 61.675C56.2958 61.6173 56.9913 61.4001 57.699 61.2861C57.7903 61.5207 57.8231 61.7742 57.7944 62.0244Z" fill="#464353"/>
<path d="M76.0733 58.2157C76.0066 58.7504 75.6687 59.2107 75.2974 59.6011C74.9262 59.9915 74.5065 60.3424 74.211 60.7921C73.8473 61.3496 73.6837 62.0407 73.2109 62.5116C73.0294 62.6829 72.8255 62.8285 72.6048 62.9446C72.3575 63.0908 72.0961 63.2114 71.8244 63.3046C71.1183 63.5309 70.3576 63.4793 69.6197 63.4246C69.3801 63.4223 69.1429 63.3765 68.9196 63.2894C68.818 63.2376 68.7207 63.1777 68.6287 63.1101C68.4437 62.996 68.288 62.8399 68.1741 62.6544C68.1182 62.5536 68.1025 62.4353 68.1302 62.3233C68.1723 62.1999 68.2448 62.0892 68.3408 62.0012C68.5068 61.8281 68.6851 61.6672 68.8742 61.5197C69.1336 61.3519 69.3673 61.1472 69.5682 60.9121C69.6914 60.7263 69.7821 60.5208 69.8364 60.3044C69.9437 59.9254 70.0092 59.5357 70.0318 59.1424C70.031 58.881 70.0579 58.6203 70.1121 58.3646C70.2243 57.9636 70.5213 57.6051 70.4879 57.1904C70.4744 57.131 70.4797 57.0689 70.5031 57.0126C70.5384 56.9687 70.5875 56.9381 70.6425 56.926C70.8741 56.8335 71.1183 56.7767 71.3668 56.7574C71.4915 56.7488 71.6165 56.768 71.7328 56.8138C71.8492 56.8595 71.9539 56.9305 72.0396 57.0217C72.1426 57.1463 72.2108 57.3256 72.3623 57.3742C72.4374 57.3947 72.5162 57.3978 72.5927 57.3833C72.9654 57.3453 73.3594 57.2982 73.6534 57.0567C73.7892 56.9345 73.8984 56.7855 73.974 56.6189C74.0497 56.4524 74.0901 56.272 74.0928 56.089C74.0928 55.9508 74.0307 55.8065 74.2443 55.7852C74.4049 55.764 74.5322 55.9371 74.614 56.0435C74.9095 56.4399 75.2126 56.8547 75.3232 57.3377C75.3662 57.321 75.4119 57.3122 75.4581 57.3119C75.5526 57.3111 75.6459 57.3331 75.73 57.3762C75.8142 57.4194 75.8867 57.4822 75.9414 57.5595C76.0621 57.7555 76.1089 57.9882 76.0733 58.2157Z" fill="#514E7F"/>
<path d="M76.0732 58.216C76.0065 58.7507 75.6686 59.2109 75.2974 59.6013C74.9261 59.9917 74.5064 60.3426 74.2109 60.7923C73.8473 61.3498 73.6836 62.0409 73.2109 62.5119C73.0294 62.6831 72.8255 62.8287 72.6047 62.9448C72.3575 63.091 72.096 63.2117 71.8244 63.3048C71.1183 63.5311 70.3576 63.4795 69.6197 63.4248C69.3801 63.4225 69.1429 63.3767 68.9196 63.2896C68.8179 63.2378 68.7206 63.1779 68.6287 63.1104C68.4437 62.9962 68.288 62.8401 68.1741 62.6546C68.3161 62.5862 68.4711 62.5489 68.6287 62.5453C68.956 62.5635 69.1954 62.8734 69.509 62.9691C69.956 63.1043 70.4015 62.7883 70.8546 62.6805C71.1501 62.6106 71.4607 62.6288 71.7532 62.5286C71.9969 62.4341 72.2221 62.2974 72.4184 62.1245C72.6874 61.9316 72.9269 61.7003 73.129 61.4379C73.2969 61.1754 73.4366 60.8959 73.5457 60.6039C73.785 60.0444 74.0666 59.504 74.3882 58.9876C74.4358 58.9059 74.4933 58.8304 74.5594 58.7628C74.6307 58.6975 74.711 58.6519 74.7913 58.5942C75.0943 58.3648 75.2201 57.9866 75.3262 57.6159C75.3549 57.5033 75.395 57.3938 75.4459 57.2893C75.5404 57.2885 75.6337 57.3106 75.7179 57.3537C75.802 57.3968 75.8746 57.4597 75.9293 57.5369C76.0596 57.7375 76.1109 57.9796 76.0732 58.216Z" fill="#464353"/>
<path d="M51.3711 33.9049C51.5711 34.6644 51.2817 35.4634 51.0453 36.2154C50.6894 37.348 50.4468 38.5133 50.321 39.694C50.3056 39.9945 50.2453 40.291 50.1422 40.5735C50.0301 40.8272 49.8392 41.0414 49.7088 41.2829C49.3512 41.9179 49.3603 42.6926 49.4376 43.4187C49.4891 43.8973 49.5664 44.3742 49.6619 44.8451C49.7785 45.4209 49.9225 46.0224 49.7543 46.5845C50.0361 46.5222 50.2271 46.8883 50.2089 47.1754C50.1907 47.4625 50.0983 47.783 50.2362 48.0306C50.5847 48.1582 50.5877 48.6382 50.5771 49.0104C50.5829 49.6557 50.6642 50.2981 50.8195 50.9244C51.3469 53.4663 51.9065 56.0011 52.4985 58.5289C53.7789 58.9268 55.2745 59.3415 56.4958 58.7901C56.7231 58.6884 56.9504 58.5258 57.0019 58.2797C57.0152 58.1471 56.9986 58.0132 56.9534 57.8878L56.3746 55.7763C56.2336 55.2659 56.0927 54.7388 56.167 54.2147C56.223 53.8243 56.3927 53.4035 56.2018 53.0587C56.1367 52.9402 56.0336 52.8476 55.9579 52.7352C55.6548 52.2901 55.8139 51.6946 55.8382 51.1553C55.8476 51.0343 55.8394 50.9125 55.8139 50.7938C55.7724 50.6552 55.7144 50.5221 55.6412 50.3973C55.1628 49.4663 54.9331 48.4269 54.9744 47.3805C54.9925 47.2469 54.9742 47.111 54.9214 46.987C54.8846 46.9359 54.8517 46.882 54.8229 46.826C54.8003 46.7285 54.8115 46.6261 54.8547 46.5359C54.6811 46.4038 54.5243 46.2507 54.388 46.0801C54.4721 46.0278 54.5431 45.9569 54.5959 45.873C54.6486 45.789 54.6816 45.6942 54.6924 45.5956C54.7032 45.4969 54.6915 45.3972 54.6582 45.3037C54.6249 45.2103 54.5709 45.1257 54.5002 45.0563C54.562 45.0438 54.6191 45.0144 54.6652 44.9713C54.7114 44.9283 54.7447 44.8732 54.7615 44.8123C54.7783 44.7514 54.7779 44.687 54.7604 44.6263C54.7429 44.5656 54.7089 44.5109 54.6623 44.4684C54.588 44.4168 54.4896 44.394 54.4365 44.3165C54.3547 44.2041 54.4214 44.0476 54.488 43.9276L54.8411 43.2881C55.1048 42.8126 55.1638 42.2248 55.4472 41.769C55.8533 41.1052 56.1185 40.3654 56.3806 39.6332L57.4004 36.8124L58.0868 37.4093C58.3155 37.5844 58.5071 37.8034 58.6505 38.0534C58.7481 38.3005 58.8099 38.5604 58.8339 38.8251C59.0854 40.3563 60.0461 41.684 60.4022 43.1924C60.481 43.5281 60.534 43.8805 60.7264 44.1676C60.7953 44.2558 60.8571 44.3493 60.9113 44.4472C60.9615 44.5965 60.9876 44.7529 60.9886 44.9105C61.0204 45.219 61.118 45.5171 61.2749 45.7844C61.4318 46.0518 61.6442 46.2822 61.8978 46.4599C62.2357 46.6923 62.6554 46.8518 62.8387 47.2194C62.8754 47.3333 62.9263 47.442 62.9903 47.543C63.1539 47.7405 63.507 47.7633 63.5767 48.0109C63.6161 48.1491 63.5434 48.3147 63.6206 48.4362C63.6645 48.4924 63.7226 48.536 63.7888 48.5623L64.7753 49.056C65.8784 49.6089 66.4421 50.8789 67.2558 51.804C67.5368 52.1053 67.7856 52.4352 67.9983 52.7883C68.3498 53.4187 68.512 54.2102 69.1059 54.6112C69.2656 54.6942 69.4109 54.8024 69.5363 54.9317C69.7227 55.1778 69.6545 55.5226 69.6711 55.8325C69.6878 56.1424 69.9242 56.5115 70.2182 56.4174C70.1152 56.7927 70.1152 57.1889 70.2182 57.5642C71.5087 57.4978 72.7395 56.9981 73.7124 56.1454C74.0003 55.8933 74.2776 55.5712 74.2806 55.1884C74.2851 55.1224 74.2703 55.0564 74.2382 54.9986C74.1799 54.9238 74.1031 54.8656 74.0155 54.8299C73.0927 54.3286 72.8154 53.1666 72.3487 52.2232C71.941 51.3908 71.338 50.6738 70.8334 49.9006C69.7363 48.2372 68.9878 46.2245 67.3285 45.1262C66.9633 44.8846 66.5391 44.6705 66.3557 44.2709C66.2542 44.0476 66.2421 43.7924 66.1618 43.5615C66.0814 43.3306 65.889 43.1058 65.6435 43.1058C65.7799 42.7716 65.7526 42.3645 65.7617 42.003C65.771 41.8425 65.7526 41.6817 65.7072 41.5275C65.6441 41.3617 65.5623 41.2037 65.4632 41.0566C65.0303 40.3218 64.8139 39.4791 64.8389 38.6261C64.851 38.1871 64.9283 37.7344 64.7965 37.3152C64.7298 37.104 64.6131 36.9111 64.5328 36.7075C64.4118 36.3387 64.3479 35.9534 64.3434 35.5652L64.2525 34.1054C64.2388 33.6192 64.1758 33.1357 64.0646 32.6623C63.7615 31.5291 63.4585 26.782 62.4205 26.2473C61.3826 25.7126 59.5991 29.3659 58.4308 29.4373C57.914 29.4589 57.4032 29.5577 56.9155 29.7305C56.1382 30.0221 55.4866 30.566 54.8517 31.0976L52.703 32.9068C52.2485 33.2821 51.8727 33.6405 51.3711 33.9049Z" fill="#464353"/>
<path opacity="0.1" d="M48.483 7.56128C48.3742 7.5631 48.2671 7.58944 48.1698 7.63834C48.0725 7.68725 47.9874 7.75748 47.9208 7.84382C47.7587 8.05497 47.7269 8.33448 47.686 8.60335C47.548 9.45519 47.2448 10.2717 46.7935 11.0065" fill="black"/>
<path opacity="0.1" d="M49.2559 8.16748C49.1056 8.17084 48.9589 8.21336 48.83 8.29087C48.7011 8.36839 48.5946 8.47821 48.521 8.60953C48.4207 8.84846 48.3583 9.10167 48.3361 9.35994C48.2062 9.93256 47.9556 10.4707 47.6012 10.9382" fill="black"/>
<path d="M85.2679 37.8651V35.9784C85.2675 34.5895 84.7169 33.2577 83.7371 32.2757C82.7573 31.2938 81.4286 30.7422 80.0432 30.7422H5.72029C4.33488 30.7422 3.00619 31.2938 2.02642 32.2757C1.04664 33.2577 0.496007 34.5895 0.495605 35.9784V39.457L85.2679 37.8651Z" fill="#33323D"/>
<path d="M9.83105 31.6101C9.83105 31.6101 9.63377 44.0817 11.8039 48.1853C13.9739 52.2889 14.904 70.1405 14.904 70.1405C14.904 70.1405 37.6532 72.5383 53.5061 67.2688C69.3589 61.9994 103.091 59.8442 103.091 59.8442L97.4065 20.8055C97.4065 20.8055 69.3237 18.9705 53.3482 26.734C37.3728 34.4976 9.83105 31.6101 9.83105 31.6101Z" fill="#8DD070"/>
<path d="M9.83105 31.6101C9.83105 31.6101 9.63377 44.0817 11.8039 48.1853C13.9739 52.2889 14.904 70.1405 14.904 70.1405C14.904 70.1405 37.6532 72.5383 53.5061 67.2688C69.3589 61.9994 103.091 59.8442 103.091 59.8442L97.4065 20.8055C97.4065 20.8055 69.3237 18.9705 53.3482 26.734C37.3728 34.4976 9.83105 31.6101 9.83105 31.6101Z" fill="#D83F31"/>
<path d="M13.8969 35.3054C13.8969 35.3054 13.1671 45.5416 14.9981 48.8123C16.829 52.083 16.9142 66.6839 16.9142 66.6839C16.9142 66.6839 37.9099 67.6466 52.8448 62.622C67.7798 57.5974 99.1641 54.3382 99.1641 54.3382L95.5976 22.5811C95.5976 22.5811 69.6295 22.3169 54.4734 29.3896C39.3174 36.4622 13.8969 35.3054 13.8969 35.3054Z" fill="#EE887F"/>
<path opacity="0.1" d="M54.0632 57.2984C57.0112 56.9303 58.7625 51.4936 57.975 45.1552C57.1875 38.8168 54.1593 33.9769 51.2113 34.345C48.2634 34.7131 46.512 40.1498 47.2995 46.4882C48.087 52.8266 51.1153 57.6665 54.0632 57.2984Z" fill="black"/>
<path opacity="0.2" d="M82.6469 1.96338C82.6469 1.96338 54.8335 8.89369 41.7176 21.0925C28.6017 33.2912 0.990784 39.0674 0.990784 39.0674C0.990784 39.0674 4.62818 50.8193 7.99263 53.9987C11.3571 57.1782 17.7383 73.6299 17.7383 73.6299C17.7383 73.6299 40.5468 68.8692 54.3091 59.0423C68.0715 49.2154 100.146 36.8045 100.146 36.8045L82.6469 1.96338Z" fill="black"/>
<path d="M0.990784 37.6116C0.990784 37.6116 4.5908 49.5261 7.91914 52.7492C11.2475 55.9723 17.5685 72.6483 17.5685 72.6483C17.5685 72.6483 40.1543 67.8237 53.782 57.862C67.4097 47.9002 99.1641 35.3234 99.1641 35.3234L81.8382 0C81.8382 0 54.3012 7.02539 41.3149 19.3915C28.3287 31.7576 0.990784 37.6116 0.990784 37.6116Z" fill="#F04637"/>
<path opacity="0.1" d="M0.990784 37.6116C0.990784 37.6116 4.5908 49.5261 7.91914 52.7492C11.2475 55.9723 17.5685 72.6483 17.5685 72.6483C17.5685 72.6483 40.1543 67.8237 53.782 57.862C67.4097 47.9002 99.1641 35.3234 99.1641 35.3234L81.8382 0C81.8382 0 54.3012 7.02539 41.3149 19.3915C28.3287 31.7576 0.990784 37.6116 0.990784 37.6116Z" fill="black"/>
<path d="M6.8812 40.3522C6.8812 40.3522 9.34615 50.4563 12.0836 53.0486C14.821 55.6409 19.3967 69.7029 19.3967 69.7029C19.3967 69.7029 39.5207 64.1737 52.0778 54.7314C64.6349 45.2891 93.2737 32.5058 93.2737 32.5058L80.123 2.94507C80.123 2.94507 55.5178 10.6741 43.3823 22.1613C31.2468 33.6484 6.8812 40.3522 6.8812 40.3522Z" fill="#EE887F"/>
<path d="M51.4448 48.2588C54.1379 47.0016 54.1406 41.2884 51.4509 35.498C48.7612 29.7077 44.3976 26.0328 41.7046 27.29C39.0115 28.5472 39.0088 34.2604 41.6985 40.0508C44.3882 45.8411 48.7517 49.516 51.4448 48.2588Z" fill="#D83F31"/>
<path opacity="0.1" d="M87.2742 39.7169V92.1245C87.2742 92.7197 87.1572 93.3091 86.93 93.8589C86.7027 94.4088 86.3696 94.9084 85.9498 95.3292C85.5299 95.75 85.0314 96.0837 84.4828 96.3114C83.9342 96.539 83.3463 96.6561 82.7526 96.6559H5.01872C3.82018 96.6555 2.67087 96.1779 1.82352 95.3281C0.976164 94.4784 0.500153 93.326 0.500153 92.1245V34.4336C2.72761 35.263 2.72761 35.263 5.01872 35.1931H82.7526C83.9502 35.1931 85.0989 35.6694 85.9466 36.5176C86.7943 37.3657 87.2718 38.5163 87.2742 39.7169Z" fill="black"/>
<path d="M87.2742 40.3837V92.7913C87.2738 93.9932 86.7972 95.1458 85.9493 95.9955C85.1014 96.8453 83.9515 97.3226 82.7526 97.3226H5.01872C3.82018 97.3222 2.67087 96.8446 1.82352 95.9949C0.976164 95.1451 0.500153 93.9928 0.500153 92.7913V35.0989C2.72761 35.9268 2.72761 35.9268 5.01872 35.8584H82.7526C83.9505 35.8584 85.0994 36.3349 85.9472 37.1834C86.7949 38.0318 87.2722 39.1828 87.2742 40.3837Z" fill="#475B73"/>
<path opacity="0.1" d="M87.0531 59.7595V76.5193H70.8395C68.6421 76.4896 66.5446 75.5937 65.0012 74.0254C63.4577 72.4571 62.5923 70.3426 62.5923 68.1394C62.5923 65.9363 63.4577 63.8217 65.0012 62.2534C66.5446 60.6851 68.6421 59.7892 70.8395 59.7595H87.0531Z" fill="black"/>
<path d="M87.2743 59.3127V76.0756H71.0608C68.8633 76.0459 66.7659 75.15 65.2224 73.5817C63.6789 72.0134 62.8135 69.8988 62.8135 67.6957C62.8135 65.4925 63.6789 63.378 65.2224 61.8097C66.7659 60.2414 68.8633 59.3454 71.0608 59.3158L87.2743 59.3127Z" fill="#33323D"/>
<path opacity="0.1" d="M71.838 71.4073C73.6381 71.4073 75.0974 69.9444 75.0974 68.1398C75.0974 66.3352 73.6381 64.8723 71.838 64.8723C70.0379 64.8723 68.5787 66.3352 68.5787 68.1398C68.5787 69.9444 70.0379 71.4073 71.838 71.4073Z" fill="black"/>
<path d="M72.0593 70.964C73.8594 70.964 75.3186 69.5011 75.3186 67.6965C75.3186 65.8919 73.8594 64.429 72.0593 64.429C70.2592 64.429 68.7999 65.8919 68.7999 67.6965C68.7999 69.5011 70.2592 70.964 72.0593 70.964Z" fill="#ACC1D6"/>
<g opacity="0.1">
<path opacity="0.1" d="M105.474 12.4525C105.341 12.5977 105.175 12.7082 104.989 12.7745C103.995 13.1892 102.877 13.1421 101.807 13.0783C101.692 13.0795 101.579 13.054 101.475 13.0039C101.312 12.9082 101.25 12.7077 101.2 12.5254C100.991 11.7659 100.798 11.0686 100.301 10.4352C100.205 10.2891 100.063 10.1794 99.898 10.1238C99.7421 10.109 99.5848 10.124 99.4344 10.1678C99.3591 10.1896 99.2796 10.1916 99.2034 10.1735C99.1272 10.1554 99.0569 10.1178 98.9995 10.0645C98.9376 9.97262 98.9097 9.86194 98.9207 9.75161C98.9207 9.4326 98.9919 9.07563 98.7934 8.82802C98.6828 8.68978 98.507 8.61535 98.3934 8.47863C98.3192 8.37784 98.2737 8.25879 98.2617 8.13414C98.2497 8.00949 98.2716 7.8839 98.3252 7.77075C98.1358 8.07456 98.0554 8.45585 98.2752 8.71713C98.3888 8.85232 98.5646 8.92676 98.6752 9.06499C98.8737 9.31412 98.807 9.67262 98.8025 9.98858C98.7908 10.0987 98.8182 10.2095 98.8798 10.3015C98.9372 10.3553 99.0077 10.3933 99.0842 10.4117C99.1607 10.43 99.2406 10.4282 99.3162 10.4063C99.4663 10.361 99.6239 10.346 99.7798 10.3623C99.9441 10.4158 100.086 10.5227 100.183 10.6661C100.678 11.2995 100.872 11.9953 101.081 12.7578C101.106 12.9455 101.199 13.1172 101.344 13.2394C101.447 13.2896 101.562 13.3145 101.677 13.3123C102.751 13.3791 103.871 13.4277 104.859 13.0085C105.045 12.9426 105.211 12.832 105.344 12.6864C105.411 12.6009 105.462 12.5042 105.495 12.4008C105.497 12.4206 105.486 12.4373 105.474 12.4525Z" fill="black"/>
<path opacity="0.1" d="M98.6161 7.30139C98.6637 7.24957 98.7003 7.18859 98.7237 7.12214C98.7373 7.04528 98.7373 6.96659 98.7237 6.88973C98.6941 6.45663 98.7502 6.02195 98.8888 5.61068L98.8691 5.58789C98.6618 6.07328 98.575 6.60182 98.6161 7.12822C98.6206 7.18585 98.6206 7.24376 98.6161 7.30139Z" fill="black"/>
</g>
<path d="M180.493 163.641L184.486 155.764L176.057 157.65L147 166.859L180.493 163.641Z" fill="#ACC1D6"/>
<path d="M184.486 155.764L170.068 156.651L173.617 158.427L184.486 155.764Z" fill="#ACC1D6"/>
<path d="M180.493 163.641L183.044 171.407L147 166.859L180.493 163.641Z" fill="white"/>
<path d="M147 166.859L176.057 157.65L171.732 146.444L147 166.859Z" fill="white"/>
<path d="M181.38 147.665C181.491 147.665 181.491 147.776 181.602 147.776C181.824 148.108 181.824 148.441 181.491 148.774C180.604 149.551 179.606 150.216 178.608 150.882C178.275 151.104 177.832 150.993 177.721 150.66C177.499 150.327 177.61 149.884 177.942 149.773C178.83 149.218 179.717 148.552 180.604 147.886C180.826 147.665 181.048 147.554 181.38 147.665Z" fill="#63C1C5"/>
<path d="M170.734 73.5517C170.512 73.8845 170.623 74.3283 170.955 74.4393C172.73 75.5487 174.504 76.9911 175.946 78.7662C176.168 79.0991 176.612 79.0991 176.944 78.8772C177.277 78.6553 177.277 78.2115 177.055 77.8786C175.502 75.9925 173.728 74.4393 171.732 73.2189C171.399 73.1079 170.955 73.2189 170.734 73.5517ZM178.497 81.2071C178.164 81.429 178.053 81.7618 178.275 82.0946C179.384 83.9808 180.16 86.0887 180.715 88.3077C180.826 88.6405 181.159 88.8624 181.491 88.7515C181.824 88.6405 182.046 88.3077 181.935 87.9749C181.38 85.645 180.493 83.537 179.384 81.429C179.273 81.318 179.162 81.2071 179.051 81.2071C178.941 80.9852 178.719 80.9852 178.497 81.2071ZM181.935 91.5252C181.602 91.5252 181.27 91.858 181.27 92.3018V92.6347C181.38 94.7427 181.27 96.8507 180.937 98.9587C180.826 99.2915 181.159 99.6243 181.491 99.7353C181.824 99.8462 182.157 99.5134 182.268 99.1805C182.6 96.9616 182.711 94.6317 182.6 92.5237V92.1909C182.6 91.969 182.489 91.7471 182.268 91.6361C182.268 91.5252 182.046 91.4142 181.935 91.5252ZM181.048 102.398C180.715 102.287 180.271 102.509 180.271 102.842C179.717 104.839 178.941 107.058 178.053 109.277C177.942 109.61 178.053 110.053 178.386 110.164C178.719 110.275 179.162 110.164 179.273 109.832C180.271 107.613 180.937 105.394 181.491 103.286C181.602 102.953 181.38 102.62 181.159 102.509C181.159 102.398 181.048 102.398 181.048 102.398ZM177.166 112.605C176.833 112.494 176.39 112.605 176.279 112.938C176.168 113.16 176.057 113.271 176.057 113.493C175.392 113.16 174.615 112.938 173.839 112.716C173.506 112.605 173.063 112.827 172.952 113.16C172.841 113.493 173.063 113.937 173.395 114.048C174.061 114.269 174.726 114.491 175.281 114.713C174.615 116.045 173.839 117.487 172.952 118.929C172.73 119.262 172.841 119.706 173.173 119.817C173.506 120.039 173.95 119.928 174.061 119.595C174.948 118.042 175.724 116.599 176.501 115.157C177.499 115.601 178.386 116.156 179.273 116.71C179.606 116.932 180.05 116.821 180.16 116.488C180.382 116.156 180.271 115.712 179.939 115.601C179.051 114.935 178.053 114.38 176.944 113.937C177.055 113.826 177.055 113.604 177.166 113.493C177.721 113.16 177.499 112.827 177.166 112.605ZM182.6 118.374C182.379 118.596 182.379 119.04 182.6 119.373C183.599 120.372 184.375 121.481 185.04 122.59C185.484 123.256 185.817 124.033 186.149 124.809C186.26 125.142 186.704 125.364 187.037 125.142C187.369 125.031 187.591 124.588 187.369 124.255C187.037 123.367 186.593 122.59 186.149 121.814C185.373 120.593 184.486 119.373 183.488 118.374C183.488 118.374 183.377 118.264 183.266 118.264C183.044 118.042 182.822 118.153 182.6 118.374ZM169.735 111.94C167.296 111.718 164.967 111.94 162.748 112.494C162.416 112.605 162.194 112.938 162.305 113.271C162.416 113.604 162.748 113.826 163.081 113.715C165.188 113.16 167.406 113.049 169.625 113.16C169.957 113.16 170.29 112.938 170.401 112.494C170.401 112.161 170.29 111.94 170.068 111.829C169.846 111.94 169.735 111.94 169.735 111.94ZM187.813 127.805C187.48 127.916 187.147 128.249 187.258 128.582C187.591 130.69 187.702 132.909 187.369 135.238C187.258 135.571 187.591 135.904 187.924 136.015C188.257 136.126 188.589 135.793 188.7 135.46C189.033 133.02 189.033 130.69 188.589 128.471C188.589 128.249 188.367 128.027 188.257 128.027C188.146 127.805 187.924 127.805 187.813 127.805ZM158.645 114.048C158.09 114.38 157.536 114.602 157.092 114.935C155.651 115.934 154.32 117.154 153.211 118.596C152.989 118.929 153.1 119.373 153.322 119.595C153.654 119.817 154.098 119.706 154.32 119.484C155.207 118.153 156.427 117.043 157.758 116.156C158.201 115.823 158.756 115.601 159.2 115.268C159.532 115.046 159.643 114.713 159.532 114.38C159.421 114.269 159.31 114.158 159.2 114.048C159.089 113.937 158.867 113.937 158.645 114.048ZM170.955 122.369C169.514 124.588 168.183 126.252 166.741 127.583C166.408 127.805 166.408 128.249 166.741 128.582C166.963 128.804 167.406 128.914 167.739 128.582C169.181 127.25 170.623 125.475 172.175 123.145C172.397 122.812 172.286 122.369 171.954 122.258C171.954 122.258 171.954 122.258 171.843 122.258C171.51 122.036 171.177 122.147 170.955 122.369ZM187.258 138.678C186.926 138.567 186.482 138.789 186.371 139.122C186.038 140.12 185.595 141.008 185.151 141.895C184.597 143.005 183.931 144.003 183.266 145.002C183.044 145.335 183.155 145.778 183.377 146C183.709 146.222 184.153 146.222 184.375 145.889C185.151 144.891 185.817 143.781 186.371 142.672C186.815 141.673 187.258 140.675 187.591 139.676C187.813 139.122 187.591 138.789 187.258 138.678ZM152.213 122.036C151.88 121.925 151.436 122.147 151.436 122.48C150.993 124.366 151.103 126.252 151.991 127.916C152.323 128.471 152.656 129.025 153.1 129.469C153.322 129.691 153.765 129.691 154.098 129.469C154.32 129.247 154.32 128.804 154.098 128.471C153.765 128.138 153.432 127.694 153.211 127.139C152.545 125.808 152.323 124.366 152.767 122.701C152.878 122.369 152.656 122.036 152.434 121.925C152.323 122.036 152.213 122.036 152.213 122.036ZM163.525 129.802C161.639 130.69 159.31 130.912 157.314 130.357C156.981 130.246 156.538 130.468 156.538 130.801C156.427 131.133 156.649 131.577 156.981 131.577C159.31 132.132 161.972 131.91 164.079 130.912C164.412 130.801 164.523 130.357 164.412 130.024C164.301 129.913 164.19 129.802 164.079 129.691C163.968 129.691 163.747 129.691 163.525 129.802Z" fill="#ACC1D6"/>
<path d="M167.85 71.6655C168.183 71.7765 168.294 72.1093 168.183 72.4422C168.072 72.775 167.739 72.9969 167.296 72.8859C166.297 72.5531 165.188 72.4422 164.079 72.3312C163.747 72.3312 163.414 71.9984 163.414 71.6655C163.414 71.3327 163.747 70.9999 164.079 70.9999C165.299 71.1108 166.408 71.2218 167.517 71.5546C167.739 71.5546 167.85 71.5546 167.85 71.6655Z" fill="#63C1C5"/>
</svg>
